<svg version="1.1" baseProfile="full" xmlns="http://www.w3.org/2000/svg" width="1098.5" height="80">
	<g>
		<line x1="10" y1="40.0" x2="1088.5" y2="40.0" style="stroke:rgb(70,70,70); stroke-width:3 "/>
		<g>
			<title> (SLI_RS05010)
arsenate reductase ArsC</title>
			<polygon class=" (SLI_RS05010)
arsenate reductase ArsC" points="23,10 36,40 23,70" fill="rgb(255,255,255)" fill-opacity="1.0" stroke="rgb(0,0,0)" stroke-width="2"  />
			<g>
				<title>LMWPc (PF01451)
"Low molecular weight phosphotyrosine protein phosphatase"</title>
				<polygon class="PF01451" points="23,28 27,28 33,40 27,52 23,52" stroke-linejoin="round" width="12" height="24" fill="rgb(199,53,196)" stroke="rgb(159,42,156)" stroke-width="1" opacity="0.75" />
			</g>
		</g>
		<g>
			<title>trxB (SLI_RS05015)
thioredoxin-disulfide reductase</title>
			<polygon class="trxB (SLI_RS05015)
thioredoxin-disulfide reductase" points="36,25 39,25 39,10 69,40 39,70 39,55 36,55" fill="rgb(255,255,255)" fill-opacity="1.0" stroke="rgb(0,0,0)" stroke-width="2"  />
			<g>
				<title>Pyr_redox_2 (PF07992)
"Pyridine nucleotide-disulphide oxidoreductase"</title>
				<polygon class="PF07992" points="36,28 52,28 64,40 52,52 36,52" stroke-linejoin="round" width="29" height="24" fill="rgb(83,223,167)" stroke="rgb(66,178,133)" stroke-width="1" opacity="0.75" />
			</g>
		</g>
		<g>
			<title> (SLI_RS05020)
cobalamin B12-binding domain-containing protein</title>
			<polygon class=" (SLI_RS05020)
cobalamin B12-binding domain-containing protein" points="72,40 86,10 86,70" fill="rgb(255,255,255)" fill-opacity="1.0" stroke="rgb(0,0,0)" stroke-width="2"  />
			<g>
				<title>B12-binding (PF02310)
"B12 binding domain"</title>
				<polygon class="PF02310" points="75,40 81,28 84,28 84,52 81,52" stroke-linejoin="round" width="11" height="24" fill="rgb(145,190,60)" stroke="rgb(115,152,48)" stroke-width="1" opacity="0.75" />
			</g>
		</g>
		<g>
			<title> (SLI_RS05025)
methylmalonyl-CoA mutase family protein</title>
			<polygon class=" (SLI_RS05025)
methylmalonyl-CoA mutase family protein" points="141,25 118,25 118,10 88,40 118,70 118,55 141,55" fill="rgb(255,255,255)" fill-opacity="1.0" stroke="rgb(0,0,0)" stroke-width="2"  />
			<g>
				<title>MM_CoA_mutase (PF01642)
"Methylmalonyl-CoA mutase"</title>
				<polygon class="PF01642" points="92,40 104,28 139,28 139,52 104,52" stroke-linejoin="round" width="51" height="24" fill="rgb(67,86,223)" stroke="rgb(53,68,178)" stroke-width="1" opacity="0.75" />
			</g>
		</g>
		<g>
			<title> (SLI_RS05030)
DUF5988 family protein</title>
			<polygon class=" (SLI_RS05030)
DUF5988 family protein" points="143,40 152,10 152,70" fill="rgb(255,255,255)" fill-opacity="1.0" stroke="rgb(0,0,0)" stroke-width="2"  />
			<g>
				<title>DUF5988 (PF19450)
"Family of unknown function (DUF5988)"</title>
				<polygon class="PF19450" points="146,40 149,30 149,50" stroke-linejoin="round" width="6" height="24" fill="rgb(222,85,153)" stroke="rgb(177,67,122)" stroke-width="1" opacity="0.75" />
			</g>
		</g>
		<g>
			<title> (SLI_RS05035)
metalloregulator ArsR/SmtB family transcription factor</title>
			<polygon class=" (SLI_RS05035)
metalloregulator ArsR/SmtB family transcription factor" points="169,40 180,10 180,70" fill="rgb(255,255,255)" fill-opacity="1.0" stroke="rgb(0,0,0)" stroke-width="2"  />
			<g>
				<title>HTH_5 (PF01022)
"Bacterial regulatory protein, arsR family"</title>
				<polygon class="PF01022" points="172,40 175,32 175,48" stroke-linejoin="round" width="4" height="24" fill="rgb(95,208,123)" stroke="rgb(76,166,98)" stroke-width="1" opacity="0.75" />
			</g>
		</g>
		<g>
			<title> (SLI_RS05040)
SDR family NAD(P)-dependent oxidoreductase</title>
			<polygon class=" (SLI_RS05040)
SDR family NAD(P)-dependent oxidoreductase" points="183,10 209,40 183,70" fill="rgb(255,255,255)" fill-opacity="1.0" stroke="rgb(0,0,0)" stroke-width="2"  />
			<g>
				<title>adh_short (PF00106)
"short chain dehydrogenase"</title>
				<polygon class="PF00106" points="184,28 195,28 202,37 202,43 195,52 184,52" stroke-linejoin="round" width="18" height="24" fill="rgb(182,219,73)" stroke="rgb(145,175,58)" stroke-width="1" opacity="0.75" />
			</g>
		</g>
		<g>
			<title> (SLI_RS05045)
NAD(P)-binding domain-containing protein</title>
			<polygon class=" (SLI_RS05045)
NAD(P)-binding domain-containing protein" points="260,25 241,25 241,10 211,40 241,70 241,55 260,55" fill="rgb(255,255,255)" fill-opacity="1.0" stroke="rgb(0,0,0)" stroke-width="2"  />
			<g>
				<title>Pyr_redox_3 (PF13738)
"Pyridine nucleotide-disulphide oxidoreductase"</title>
				<polygon class="PF13738" points="225,30 227,28 258,28 258,52 227,52 225,50" stroke-linejoin="round" width="33" height="24" fill="rgb(213,91,84)" stroke="rgb(170,72,67)" stroke-width="1" opacity="0.75" />
			</g>
		</g>
		<g>
			<title> (SLI_RS41050)
hypothetical protein</title>
			<polygon class=" (SLI_RS41050)
hypothetical protein" points="262,40 267,10 267,70" fill="rgb(255,255,255)" fill-opacity="1.0" stroke="rgb(0,0,0)" stroke-width="2"  />
		</g>
		<g>
			<title> (SLI_RS05050)
SDR family NAD(P)-dependent oxidoreductase</title>
			<polygon class=" (SLI_RS05050)
SDR family NAD(P)-dependent oxidoreductase" points="284,25 489,25 489,10 519,40 489,70 489,55 284,55" fill="rgb(255,255,255)" fill-opacity="1.0" stroke="rgb(0,0,0)" stroke-width="2"  />
			<g>
				<title>ketoacyl-synt (PF00109)
"Beta-ketoacyl synthase, N-terminal domain"</title>
				<rect class="PF00109" x="285" y="28" stroke-linejoin="round" width="25" height="24" fill="rgb(112,116,228)" stroke="rgb(89,92,182)" stroke-width="1" opacity="0.75" />
			</g>
			<g>
				<title>Ketoacyl-synt_C (PF02801)
"Beta-ketoacyl synthase, C-terminal domain"</title>
				<rect class="PF02801" x="311" y="28" stroke-linejoin="round" width="11" height="24" fill="rgb(215,78,102)" stroke="rgb(172,62,81)" stroke-width="1" opacity="0.75" />
			</g>
			<g>
				<title>KAsynt_C_assoc (PF16197)
"Ketoacyl-synthetase C-terminal extension"</title>
				<rect class="PF16197" x="323" y="28" stroke-linejoin="round" width="11" height="24" fill="rgb(240,150,172)" stroke="rgb(192,120,137)" stroke-width="1" opacity="0.75" />
			</g>
			<g>
				<title>Acyl_transf_1 (PF00698)
"Acyl transferase domain"</title>
				<rect class="PF00698" x="338" y="28" stroke-linejoin="round" width="31" height="24" fill="rgb(59,176,209)" stroke="rgb(47,140,167)" stroke-width="1" opacity="0.75" />
			</g>
			<g>
				<title>PS-DH (PF14765)
"Polyketide synthase dehydratase"</title>
				<rect class="PF14765" x="375" y="28" stroke-linejoin="round" width="28" height="24" fill="rgb(173,56,182)" stroke="rgb(138,44,145)" stroke-width="1" opacity="0.75" />
			</g>
			<g>
				<title>ADH_N (PF08240)
"Alcohol dehydrogenase GroES-like domain"</title>
				<rect class="PF08240" x="432" y="28" stroke-linejoin="round" width="8" height="24" fill="rgb(211,65,138)" stroke="rgb(168,51,110)" stroke-width="1" opacity="0.75" />
			</g>
			<g>
				<title>ADH_zinc_N_2 (PF13602)
"Zinc-binding dehydrogenase"</title>
				<rect class="PF13602" x="448" y="28" stroke-linejoin="round" width="13" height="24" fill="rgb(101,131,226)" stroke="rgb(80,104,180)" stroke-width="1" opacity="0.75" />
			</g>
			<g>
				<title>KR (PF08659)
"KR domain"</title>
				<rect class="PF08659" x="464" y="28" stroke-linejoin="round" width="19" height="24" fill="rgb(66,209,188)" stroke="rgb(52,167,150)" stroke-width="1" opacity="0.75" />
			</g>
			<g>
				<title>PP-binding (PF00550)
"Phosphopantetheine attachment site"</title>
				<polygon class="PF00550" points="498,28 503,28 504,29 504,51 503,52 498,52" stroke-linejoin="round" width="6" height="24" fill="rgb(103,191,88)" stroke="rgb(82,152,70)" stroke-width="1" opacity="0.75" />
			</g>
			<g>
				<title>PP-binding (PF00550)
"Phosphopantetheine attachment site"</title>
				<polygon class="PF00550" points="512,37 515,40 512,43" stroke-linejoin="round" width="6" height="24" fill="rgb(103,191,88)" stroke="rgb(82,152,70)" stroke-width="1" opacity="0.75" />
			</g>
		</g>
		<g>
			<title> (SLI_RS05055)
ketoacyl-ACP synthase III family protein</title>
			<polygon class=" (SLI_RS05055)
ketoacyl-ACP synthase III family protein" points="521,25 525,25 525,10 555,40 525,70 525,55 521,55" fill="rgb(255,255,255)" fill-opacity="1.0" stroke="rgb(0,0,0)" stroke-width="2"  />
			<g>
				<title>ACP_syn_III_C (PF08541)
"3-Oxoacyl-[acyl-carrier-protein (ACP)] synthase III C terminal"</title>
				<polygon class="PF08541" points="545,34 551,40 545,46" stroke-linejoin="round" width="9" height="24" fill="rgb(146,207,81)" stroke="rgb(116,165,64)" stroke-width="1" opacity="0.75" />
			</g>
		</g>
		<g>
			<title> (SLI_RS05060)
VTT domain-containing protein</title>
			<polygon class=" (SLI_RS05060)
VTT domain-containing protein" points="559,10 581,40 559,70" fill="rgb(255,255,255)" fill-opacity="1.0" stroke="rgb(0,0,0)" stroke-width="2"  />
			<g>
				<title>SNARE_assoc (PF09335)
"SNARE associated Golgi protein"</title>
				<polygon class="PF09335" points="562,28 568,28 574,36 574,44 568,52 562,52" stroke-linejoin="round" width="12" height="24" fill="rgb(145,188,82)" stroke="rgb(116,150,65)" stroke-width="1" opacity="0.75" />
			</g>
		</g>
		<g>
			<title>aepY (SLI_RS05065)
phosphonopyruvate decarboxylase</title>
			<polygon class="aepY (SLI_RS05065)
phosphonopyruvate decarboxylase" points="581,25 587,25 587,10 617,40 587,70 587,55 581,55" fill="rgb(255,255,255)" fill-opacity="1.0" stroke="rgb(0,0,0)" stroke-width="2"  />
			<g>
				<title>TPP_enzyme_N (PF02776)
"Thiamine pyrophosphate enzyme, N-terminal TPP binding domain"</title>
				<rect class="PF02776" x="581" y="28" stroke-linejoin="round" width="16" height="24" fill="rgb(55,81,185)" stroke="rgb(44,64,148)" stroke-width="1" opacity="0.75" />
			</g>
			<g>
				<title>TPP_enzyme_C (PF02775)
"Thiamine pyrophosphate enzyme, C-terminal TPP binding domain"</title>
				<polygon class="PF02775" points="601,28 601,28 613,40 601,52 601,52" stroke-linejoin="round" width="13" height="24" fill="rgb(156,179,45)" stroke="rgb(124,143,36)" stroke-width="1" opacity="0.75" />
			</g>
		</g>
		<g>
			<title> (SLI_RS05070)
metalloregulator ArsR/SmtB family transcription factor</title>
			<polygon class=" (SLI_RS05070)
metalloregulator ArsR/SmtB family transcription factor" points="620,40 633,10 633,70" fill="rgb(255,255,255)" fill-opacity="1.0" stroke="rgb(0,0,0)" stroke-width="2"  />
			<g>
				<title>HTH_5 (PF01022)
"Bacterial regulatory protein, arsR family"</title>
				<polygon class="PF01022" points="625,36 628,28 629,28 629,52 628,52 625,44" stroke-linejoin="round" width="4" height="24" fill="rgb(95,208,123)" stroke="rgb(76,166,98)" stroke-width="1" opacity="0.75" />
			</g>
		</g>
		<g>
			<title> (SLI_RS05075)
DHA2 family efflux MFS transporter permease subunit</title>
			<polygon class=" (SLI_RS05075)
DHA2 family efflux MFS transporter permease subunit" points="688,25 666,25 666,10 636,40 666,70 666,55 688,55" fill="rgb(255,255,255)" fill-opacity="1.0" stroke="rgb(0,0,0)" stroke-width="2"  />
			<g>
				<title>MFS_1 (PF07690)
"Major Facilitator Superfamily"</title>
				<polygon class="PF07690" points="647,33 652,28 686,28 686,52 652,52 647,47" stroke-linejoin="round" width="39" height="24" fill="rgb(193,224,74)" stroke="rgb(154,179,59)" stroke-width="1" opacity="0.75" />
			</g>
		</g>
		<g>
			<title> (SLI_RS05080)
CTP synthase</title>
			<polygon class=" (SLI_RS05080)
CTP synthase" points="713,10 737,40 713,70" fill="rgb(255,255,255)" fill-opacity="1.0" stroke="rgb(0,0,0)" stroke-width="2"  />
			<g>
				<title>GATase (PF00117)
"Glutamine amidotransferase class-I"</title>
				<polygon class="PF00117" points="715,28 723,28 733,40 723,52 715,52" stroke-linejoin="round" width="19" height="24" fill="rgb(159,201,96)" stroke="rgb(127,160,76)" stroke-width="1" opacity="0.75" />
			</g>
		</g>
		<g>
			<title> (SLI_RS05085)
molybdopterin-dependent oxidoreductase</title>
			<polygon class=" (SLI_RS05085)
molybdopterin-dependent oxidoreductase" points="741,25 795,25 795,10 825,40 795,70 795,55 741,55" fill="rgb(255,255,255)" fill-opacity="1.0" stroke="rgb(0,0,0)" stroke-width="2"  />
			<g>
				<title>Molybdop_Fe4S4 (PF04879)
"Molybdopterin oxidoreductase Fe4S4 domain"</title>
				<rect class="PF04879" x="747" y="28" stroke-linejoin="round" width="5" height="24" fill="rgb(186,68,186)" stroke="rgb(148,54,148)" stroke-width="1" opacity="0.75" />
			</g>
			<g>
				<title>Molybdopterin (PF00384)
"Molybdopterin oxidoreductase"</title>
				<rect class="PF00384" x="753" y="28" stroke-linejoin="round" width="42" height="24" fill="rgb(65,194,78)" stroke="rgb(52,155,62)" stroke-width="1" opacity="0.75" />
			</g>
			<g>
				<title>Molydop_binding (PF01568)
"Molydopterin dinucleotide binding domain"</title>
				<polygon class="PF01568" points="812,32 820,40 812,48" stroke-linejoin="round" width="11" height="24" fill="rgb(184,132,64)" stroke="rgb(147,105,51)" stroke-width="1" opacity="0.75" />
			</g>
		</g>
		<g>
			<title>aroA (SLI_RS05090)
3-phosphoshikimate 1-carboxyvinyltransferase</title>
			<polygon class="aroA (SLI_RS05090)
3-phosphoshikimate 1-carboxyvinyltransferase" points="827,25 841,25 841,10 871,40 841,70 841,55 827,55" fill="rgb(255,255,255)" fill-opacity="1.0" stroke="rgb(0,0,0)" stroke-width="2"  />
			<g>
				<title>EPSP_synthase (PF00275)
"EPSP synthase (3-phosphoshikimate 1-carboxyvinyltransferase)"</title>
				<polygon class="PF00275" points="828,28 854,28 866,40 854,52 828,52" stroke-linejoin="round" width="41" height="24" fill="rgb(217,213,85)" stroke="rgb(173,170,68)" stroke-width="1" opacity="0.75" />
			</g>
		</g>
		<g>
			<title>gpmI (SLI_RS05095)
2,3-bisphosphoglycerate-independent phosphoglycerate mutase</title>
			<polygon class="gpmI (SLI_RS05095)
2,3-bisphosphoglycerate-independent phosphoglycerate mutase" points="871,25 892,25 892,10 922,40 892,70 892,55 871,55" fill="rgb(255,255,255)" fill-opacity="1.0" stroke="rgb(0,0,0)" stroke-width="2"  />
			<g>
				<title>Metalloenzyme (PF01676)
"Metalloenzyme superfamily"</title>
				<polygon class="PF01676" points="872,28 905,28 917,40 905,52 872,52" stroke-linejoin="round" width="49" height="24" fill="rgb(138,204,83)" stroke="rgb(110,163,66)" stroke-width="1" opacity="0.75" />
			</g>
		</g>
		<g>
			<title> (SLI_RS05100)
hypothetical protein</title>
			<polygon class=" (SLI_RS05100)
hypothetical protein" points="922,10 934,40 922,70" fill="rgb(255,255,255)" fill-opacity="1.0" stroke="rgb(0,0,0)" stroke-width="2"  />
		</g>
		<g>
			<title> (SLI_RS05105)
phosphate ABC transporter substrate-binding protein</title>
			<polygon class=" (SLI_RS05105)
phosphate ABC transporter substrate-binding protein" points="945,10 974,40 945,70" fill="rgb(255,255,255)" fill-opacity="1.0" stroke="rgb(0,0,0)" stroke-width="2"  />
			<g>
				<title>PBP_like_2 (PF12849)
"PBP superfamily domain"</title>
				<polygon class="PF12849" points="947,28 957,28 969,40 957,52 947,52" stroke-linejoin="round" width="24" height="24" fill="rgb(160,200,96)" stroke="rgb(128,160,76)" stroke-width="1" opacity="0.75" />
			</g>
		</g>
		<g>
			<title>pstC (SLI_RS05110)
phosphate ABC transporter permease subunit PstC</title>
			<polygon class="pstC (SLI_RS05110)
phosphate ABC transporter permease subunit PstC" points="974,25 1004,25 1004,10 1034,40 1004,70 1004,55 974,55" fill="rgb(255,255,255)" fill-opacity="1.0" stroke="rgb(0,0,0)" stroke-width="2"  />
			<g>
				<title>BPD_transp_1 (PF00528)
"Binding-protein-dependent transport system inner membrane component"</title>
				<rect class="PF00528" x="983" y="28" stroke-linejoin="round" width="21" height="24" fill="rgb(77,208,225)" stroke="rgb(61,166,180)" stroke-width="1" opacity="0.75" />
			</g>
			<g>
				<title>BPD_transp_1 (PF00528)
"Binding-protein-dependent transport system inner membrane component"</title>
				<polygon class="PF00528" points="1013,28 1018,28 1030,40 1018,52 1013,52" stroke-linejoin="round" width="19" height="24" fill="rgb(77,208,225)" stroke="rgb(61,166,180)" stroke-width="1" opacity="0.75" />
			</g>
		</g>
		<g>
			<title> (SLI_RS05115)
ATP-binding cassette domain-containing protein</title>
			<polygon class=" (SLI_RS05115)
ATP-binding cassette domain-containing protein" points="1034,10 1057,40 1034,70" fill="rgb(255,255,255)" fill-opacity="1.0" stroke="rgb(0,0,0)" stroke-width="2"  />
			<g>
				<title>ABC_tran (PF00005)
"ABC transporter"</title>
				<polygon class="PF00005" points="1036,28 1044,28 1051,38 1051,42 1044,52 1036,52" stroke-linejoin="round" width="15" height="24" fill="rgb(129,201,63)" stroke="rgb(103,160,50)" stroke-width="1" opacity="0.75" />
			</g>
		</g>
		<g>
			<title> (SLI_RS05120)
metalloregulator ArsR/SmtB family transcription factor</title>
			<polygon class=" (SLI_RS05120)
metalloregulator ArsR/SmtB family transcription factor" points="1061,40 1072,10 1072,70" fill="rgb(255,255,255)" fill-opacity="1.0" stroke="rgb(0,0,0)" stroke-width="2"  />
			<g>
				<title>HTH_20 (PF12840)
"Helix-turn-helix domain"</title>
				<polygon class="PF12840" points="1064,40 1069,28 1069,28 1069,52 1069,52" stroke-linejoin="round" width="6" height="24" fill="rgb(157,225,93)" stroke="rgb(125,180,74)" stroke-width="1" opacity="0.75" />
			</g>
		</g>
		<g>
			<title> (SLI_RS05125)
metalloregulator ArsR/SmtB family transcription factor</title>
			<polygon class=" (SLI_RS05125)
metalloregulator ArsR/SmtB family transcription factor" points="1076,40 1088,10 1088,70" fill="rgb(255,255,255)" fill-opacity="1.0" stroke="rgb(0,0,0)" stroke-width="2"  />
			<g>
				<title>HTH_20 (PF12840)
"Helix-turn-helix domain"</title>
				<polygon class="PF12840" points="1079,40 1084,28 1084,28 1084,52 1084,52" stroke-linejoin="round" width="6" height="24" fill="rgb(157,225,93)" stroke="rgb(125,180,74)" stroke-width="1" opacity="0.75" />
			</g>
		</g>
	</g>
</svg>
