<svg version="1.1" baseProfile="full" xmlns="http://www.w3.org/2000/svg" width="1630.5" height="80">
	<g>
		<line x1="10" y1="40.0" x2="1620.5" y2="40.0" style="stroke:rgb(70,70,70); stroke-width:3 "/>
		<g>
			<title>eupC
iron-dependent oxygenase</title>
			<polygon class="eupC
iron-dependent oxygenase" points="417,25 410,25 410,10 380,40 410,70 410,55 417,55" fill="rgb(255,255,255)" fill-opacity="1.0" stroke="rgb(0,0,0)" stroke-width="2"  />
			<g>
				<title>2OG-FeII_Oxy (PF03171)
"2OG-Fe(II) oxygenase superfamily"</title>
				<polygon class="PF03171" points="390,34 396,28 398,28 398,52 396,52 390,46" stroke-linejoin="round" width="8" height="24" fill="rgb(184,68,180)" stroke="rgb(147,54,144)" stroke-width="1" opacity="0.75" />
			</g>
			<g>
				<title>DIOX_N (PF14226)
"non-haem dioxygenase in morphine synthesis N-terminal"</title>
				<rect class="PF14226" x="403" y="28" stroke-linejoin="round" width="12" height="24" fill="rgb(122,206,79)" stroke="rgb(97,164,63)" stroke-width="1" opacity="0.75" />
			</g>
		</g>
		<g>
			<title>eupG
short-chain dehydrogenase/reductase</title>
			<polygon class="eupG
short-chain dehydrogenase/reductase" points="467,25 466,25 466,10 436,40 466,70 466,55 467,55" fill="rgb(255,255,255)" fill-opacity="1.0" stroke="rgb(0,0,0)" stroke-width="2"  />
			<g>
				<title>adh_short (PF00106)
"short chain dehydrogenase"</title>
				<polygon class="PF00106" points="450,30 452,28 466,28 466,52 452,52 450,50" stroke-linejoin="round" width="16" height="24" fill="rgb(182,219,73)" stroke="rgb(145,175,58)" stroke-width="1" opacity="0.75" />
			</g>
		</g>
		<g>
			<title>eupM
monocarboxylate transporter</title>
			<polygon class="eupM
monocarboxylate transporter" points="573,25 536,25 536,10 506,40 536,70 536,55 573,55" fill="rgb(255,255,255)" fill-opacity="1.0" stroke="rgb(0,0,0)" stroke-width="2"  />
			<g>
				<title>MFS_1 (PF07690)
"Major Facilitator Superfamily"</title>
				<rect class="PF07690" x="545" y="28" stroke-linejoin="round" width="21" height="24" fill="rgb(193,224,74)" stroke="rgb(154,179,59)" stroke-width="1" opacity="0.75" />
			</g>
		</g>
		<g>
			<title>eupB
monooxygenase</title>
			<polygon class="eupB
monooxygenase" points="658,25 632,25 632,10 602,40 632,70 632,55 658,55" fill="rgb(255,255,255)" fill-opacity="1.0" stroke="rgb(0,0,0)" stroke-width="2"  />
			<g>
				<title>FAD_binding_3 (PF01494)
"FAD binding domain"</title>
				<rect class="PF01494" x="621" y="28" stroke-linejoin="round" width="35" height="24" fill="rgb(182,175,59)" stroke="rgb(145,140,47)" stroke-width="1" opacity="0.75" />
			</g>
		</g>
		<g>
			<title>eupA
polyketide synthase</title>
			<polygon class="eupA
polyketide synthase" points="676,25 923,25 923,10 953,40 923,70 923,55 676,55" fill="rgb(255,255,255)" fill-opacity="1.0" stroke="rgb(0,0,0)" stroke-width="2"  />
			<g>
				<title>SAT (PF16073)
"Starter unit:ACP transacylase in aflatoxin biosynthesis"</title>
				<rect class="PF16073" x="678" y="28" stroke-linejoin="round" width="24" height="24" fill="rgb(77,115,183)" stroke="rgb(61,91,146)" stroke-width="1" opacity="0.75" />
			</g>
			<g>
				<title>ketoacyl-synt (PF00109)
"Beta-ketoacyl synthase, N-terminal domain"</title>
				<rect class="PF00109" x="716" y="28" stroke-linejoin="round" width="25" height="24" fill="rgb(112,116,228)" stroke="rgb(89,92,182)" stroke-width="1" opacity="0.75" />
			</g>
			<g>
				<title>Ketoacyl-synt_C (PF02801)
"Beta-ketoacyl synthase, C-terminal domain"</title>
				<rect class="PF02801" x="741" y="28" stroke-linejoin="round" width="11" height="24" fill="rgb(215,78,102)" stroke="rgb(172,62,81)" stroke-width="1" opacity="0.75" />
			</g>
			<g>
				<title>Acyl_transf_1 (PF00698)
"Acyl transferase domain"</title>
				<rect class="PF00698" x="770" y="28" stroke-linejoin="round" width="32" height="24" fill="rgb(59,176,209)" stroke="rgb(47,140,167)" stroke-width="1" opacity="0.75" />
			</g>
			<g>
				<title>PS-DH (PF14765)
"Polyketide synthase dehydratase"</title>
				<rect class="PF14765" x="810" y="28" stroke-linejoin="round" width="30" height="24" fill="rgb(173,56,182)" stroke="rgb(138,44,145)" stroke-width="1" opacity="0.75" />
			</g>
			<g>
				<title>PP-binding (PF00550)
"Phosphopantetheine attachment site"</title>
				<rect class="PF00550" x="848" y="28" stroke-linejoin="round" width="6" height="24" fill="rgb(103,191,88)" stroke="rgb(82,152,70)" stroke-width="1" opacity="0.75" />
			</g>
			<g>
				<title>HTH_51 (PF18558)
"Helix-turn-helix domain"</title>
				<rect class="PF18558" x="862" y="28" stroke-linejoin="round" width="9" height="24" fill="rgb(104,215,138)" stroke="rgb(83,172,110)" stroke-width="1" opacity="0.75" />
			</g>
			<g>
				<title>Methyltransf_12 (PF08242)
"Methyltransferase domain"</title>
				<rect class="PF08242" x="881" y="28" stroke-linejoin="round" width="10" height="24" fill="rgb(187,59,115)" stroke="rgb(149,47,92)" stroke-width="1" opacity="0.75" />
			</g>
			<g>
				<title>NAD_binding_4 (PF07993)
"Male sterility protein"</title>
				<rect class="PF07993" x="906" y="28" stroke-linejoin="round" width="24" height="24" fill="rgb(100,212,204)" stroke="rgb(80,169,163)" stroke-width="1" opacity="0.75" />
			</g>
		</g>
		<g>
			<title>eupF
hypothetical protein</title>
			<polygon class="eupF
hypothetical protein" points="1014,25 1009,25 1009,10 979,40 1009,70 1009,55 1014,55" fill="rgb(255,255,255)" fill-opacity="1.0" stroke="rgb(0,0,0)" stroke-width="2"  />
		</g>
		<g>
			<title>eupE
humulene synthase</title>
			<polygon class="eupE
humulene synthase" points="1114,25 1122,25 1122,10 1152,40 1122,70 1122,55 1114,55" fill="rgb(255,255,255)" fill-opacity="1.0" stroke="rgb(0,0,0)" stroke-width="2"  />
		</g>
		<g>
			<title>eupR
transcription factor</title>
			<polygon class="eupR
transcription factor" points="1236,25 1225,25 1225,10 1195,40 1225,70 1225,55 1236,55" fill="rgb(255,255,255)" fill-opacity="1.0" stroke="rgb(0,0,0)" stroke-width="2"  />
		</g>
		<g>
			<title>eupH
oxidoreductase</title>
			<polygon class="eupH
oxidoreductase" points="1265,25 1278,25 1278,10 1308,40 1278,70 1278,55 1265,55" fill="rgb(255,255,255)" fill-opacity="1.0" stroke="rgb(0,0,0)" stroke-width="2"  />
			<g>
				<title>FAD_binding_3 (PF01494)
"FAD binding domain"</title>
				<rect class="PF01494" x="1265" y="28" stroke-linejoin="round" width="25" height="24" fill="rgb(182,175,59)" stroke="rgb(145,140,47)" stroke-width="1" opacity="0.75" />
			</g>
		</g>
		<g>
			<title>eupD
Cytochrome P450 monooxygenase</title>
			<polygon class="eupD
Cytochrome P450 monooxygenase" points="1361,25 1363,25 1363,10 1393,40 1363,70 1363,55 1361,55" fill="rgb(255,255,255)" fill-opacity="1.0" stroke="rgb(0,0,0)" stroke-width="2"  />
			<g>
				<title>p450 (PF00067)
"Cytochrome P450"</title>
				<polygon class="PF00067" points="1361,28 1377,28 1388,39 1388,41 1377,52 1361,52" stroke-linejoin="round" width="27" height="24" fill="rgb(85,216,107)" stroke="rgb(68,172,85)" stroke-width="1" opacity="0.75" />
			</g>
		</g>
		<g>
			<title>eupT
ABC transporter</title>
			<polygon class="eupT
ABC transporter" points="1572,25 1443,25 1443,10 1413,40 1443,70 1443,55 1572,55" fill="rgb(255,255,255)" fill-opacity="1.0" stroke="rgb(0,0,0)" stroke-width="2"  />
			<g>
				<title>ABC2_membrane (PF01061)
"ABC-2 type transporter"</title>
				<rect class="PF01061" x="1439" y="28" stroke-linejoin="round" width="21" height="24" fill="rgb(139,217,106)" stroke="rgb(111,173,84)" stroke-width="1" opacity="0.75" />
			</g>
			<g>
				<title>ABC_tran (PF00005)
"ABC transporter"</title>
				<rect class="PF00005" x="1476" y="28" stroke-linejoin="round" width="15" height="24" fill="rgb(129,201,63)" stroke="rgb(103,160,50)" stroke-width="1" opacity="0.75" />
			</g>
			<g>
				<title>PDR_CDR (PF06422)
"CDR ABC transporter"</title>
				<rect class="PF06422" x="1497" y="28" stroke-linejoin="round" width="4" height="24" fill="rgb(48,108,186)" stroke="rgb(38,86,148)" stroke-width="1" opacity="0.75" />
			</g>
			<g>
				<title>ABC2_membrane (PF01061)
"ABC-2 type transporter"</title>
				<rect class="PF01061" x="1505" y="28" stroke-linejoin="round" width="21" height="24" fill="rgb(139,217,106)" stroke="rgb(111,173,84)" stroke-width="1" opacity="0.75" />
			</g>
			<g>
				<title>ABC2_membrane_7 (PF19055)
"ABC-2 type transporter"</title>
				<rect class="PF19055" x="1526" y="28" stroke-linejoin="round" width="13" height="24" fill="rgb(77,79,197)" stroke="rgb(61,63,157)" stroke-width="1" opacity="0.75" />
			</g>
			<g>
				<title>ABC_tran (PF00005)
"ABC transporter"</title>
				<rect class="PF00005" x="1542" y="28" stroke-linejoin="round" width="16" height="24" fill="rgb(129,201,63)" stroke="rgb(103,160,50)" stroke-width="1" opacity="0.75" />
			</g>
			<g>
				<title>ABC_trans_N (PF14510)
"ABC-transporter N-terminal"</title>
				<rect class="PF14510" x="1561" y="28" stroke-linejoin="round" width="9" height="24" fill="rgb(200,225,88)" stroke="rgb(160,180,70)" stroke-width="1" opacity="0.75" />
			</g>
		</g>
	</g>
</svg>
