<svg version="1.1" baseProfile="full" xmlns="http://www.w3.org/2000/svg" width="793.9333333333333" height="80">
	<g>
		<line x1="10" y1="40.0" x2="783.9333333333333" y2="40.0" style="stroke:rgb(70,70,70); stroke-width:3 "/>
		<g>
			<title>novE
regulatory protein NovE</title>
			<polygon class="novE
regulatory protein NovE" points="10,10 31,40 10,70" fill="rgb(255,255,255)" fill-opacity="1.0" stroke="rgb(0,0,0)" stroke-width="2"  />
		</g>
		<g>
			<title>novF
prephenate dehydrogenase</title>
			<polygon class="novF
prephenate dehydrogenase" points="34,25 40,25 40,10 70,40 40,70 40,55 34,55" fill="rgb(255,255,255)" fill-opacity="1.0" stroke="rgb(0,0,0)" stroke-width="2"  />
			<g>
				<title>PDH_N (PF02153)
"Prephenate dehydrogenase, nucleotide-binding domain"</title>
				<rect class="PF02153" x="35" y="28" stroke-linejoin="round" width="14" height="24" fill="rgb(90,185,212)" stroke="rgb(72,148,169)" stroke-width="1" opacity="0.75" />
			</g>
		</g>
		<g>
			<title>novG
regulatory protein CloG</title>
			<polygon class="novG
regulatory protein CloG" points="74,25 75,25 75,10 105,40 75,70 75,55 74,55" fill="rgb(255,255,255)" fill-opacity="1.0" stroke="rgb(0,0,0)" stroke-width="2"  />
		</g>
		<g>
			<title>novH
peptide synthetase-like protein</title>
			<polygon class="novH
peptide synthetase-like protein" points="112,25 142,25 142,10 172,40 142,70 142,55 112,55" fill="rgb(255,255,255)" fill-opacity="1.0" stroke="rgb(0,0,0)" stroke-width="2"  />
			<g>
				<title>AMP-binding (PF00501)
"AMP-binding enzyme"</title>
				<rect class="PF00501" x="114" y="28" stroke-linejoin="round" width="39" height="24" fill="rgb(60,217,223)" stroke="rgb(48,173,178)" stroke-width="1" opacity="0.75" />
			</g>
			<g>
				<title>AMP-binding_C (PF13193)
"AMP-binding enzyme C-terminal domain"</title>
				<polygon class="PF13193" points="155,28 155,28 162,35 162,45 155,52 155,52" stroke-linejoin="round" width="7" height="24" fill="rgb(182,50,118)" stroke="rgb(145,39,94)" stroke-width="1" opacity="0.75" />
			</g>
			<g>
				<title>PP-binding (PF00550)
"Phosphopantetheine attachment site"</title>
				<polygon class="PF00550" points="165,38 167,40 165,42" stroke-linejoin="round" width="6" height="24" fill="rgb(103,191,88)" stroke="rgb(82,152,70)" stroke-width="1" opacity="0.75" />
			</g>
		</g>
		<g>
			<title>novI
cytochrome P450</title>
			<polygon class="novI
cytochrome P450" points="172,25 182,25 182,10 212,40 182,70 182,55 172,55" fill="rgb(255,255,255)" fill-opacity="1.0" stroke="rgb(0,0,0)" stroke-width="2"  />
			<g>
				<title>p450 (PF00067)
"Cytochrome P450"</title>
				<polygon class="PF00067" points="200,32 208,40 200,48" stroke-linejoin="round" width="9" height="24" fill="rgb(85,216,107)" stroke="rgb(68,172,85)" stroke-width="1" opacity="0.75" />
			</g>
		</g>
		<g>
			<title>novJ
b-ketotyrosyl-reductase</title>
			<polygon class="novJ
b-ketotyrosyl-reductase" points="214,10 240,40 214,70" fill="rgb(255,255,255)" fill-opacity="1.0" stroke="rgb(0,0,0)" stroke-width="2"  />
			<g>
				<title>adh_short_C2 (PF13561)
"Enoyl-(Acyl carrier protein) reductase"</title>
				<polygon class="PF13561" points="216,28 226,28 236,40 226,52 216,52" stroke-linejoin="round" width="23" height="24" fill="rgb(73,205,127)" stroke="rgb(58,164,101)" stroke-width="1" opacity="0.75" />
			</g>
		</g>
		<g>
			<title>novK
b-ketotyrosyl-reductase</title>
			<polygon class="novK
b-ketotyrosyl-reductase" points="240,10 264,40 240,70" fill="rgb(255,255,255)" fill-opacity="1.0" stroke="rgb(0,0,0)" stroke-width="2"  />
			<g>
				<title>adh_short (PF00106)
"short chain dehydrogenase"</title>
				<polygon class="PF00106" points="240,28 251,28 259,39 259,41 251,52 240,52" stroke-linejoin="round" width="19" height="24" fill="rgb(182,219,73)" stroke="rgb(145,175,58)" stroke-width="1" opacity="0.75" />
			</g>
		</g>
		<g>
			<title>novL
amide synthetase</title>
			<polygon class="novL
amide synthetase" points="265,25 287,25 287,10 317,40 287,70 287,55 265,55" fill="rgb(255,255,255)" fill-opacity="1.0" stroke="rgb(0,0,0)" stroke-width="2"  />
			<g>
				<title>AMP-binding (PF00501)
"AMP-binding enzyme"</title>
				<polygon class="PF00501" points="266,28 301,28 306,33 306,47 301,52 266,52" stroke-linejoin="round" width="40" height="24" fill="rgb(60,217,223)" stroke="rgb(48,173,178)" stroke-width="1" opacity="0.75" />
			</g>
			<g>
				<title>AMP-binding_C (PF13193)
"AMP-binding enzyme C-terminal domain"</title>
				<polygon class="PF13193" points="307,34 313,40 307,46" stroke-linejoin="round" width="7" height="24" fill="rgb(182,50,118)" stroke="rgb(145,39,94)" stroke-width="1" opacity="0.75" />
			</g>
		</g>
		<g>
			<title>novM
glycosyltransferase</title>
			<polygon class="novM
glycosyltransferase" points="318,25 326,25 326,10 356,40 326,70 326,55 318,55" fill="rgb(255,255,255)" fill-opacity="1.0" stroke="rgb(0,0,0)" stroke-width="2"  />
			<g>
				<title>DUF1205 (PF06722)
"Protein of unknown function (DUF1205)"</title>
				<polygon class="PF06722" points="334,28 339,28 343,32 343,48 339,52 334,52" stroke-linejoin="round" width="9" height="24" fill="rgb(200,129,88)" stroke="rgb(160,103,70)" stroke-width="1" opacity="0.75" />
			</g>
		</g>
		<g>
			<title>novN
carbamoyltransferase</title>
			<polygon class="novN
carbamoyltransferase" points="357,25 394,25 394,10 424,40 394,70 394,55 357,55" fill="rgb(255,255,255)" fill-opacity="1.0" stroke="rgb(0,0,0)" stroke-width="2"  />
			<g>
				<title>Carbam_trans_N (PF02543)
"Carbamoyltransferase N-terminus"</title>
				<rect class="PF02543" x="359" y="28" stroke-linejoin="round" width="32" height="24" fill="rgb(146,218,61)" stroke="rgb(116,174,48)" stroke-width="1" opacity="0.75" />
			</g>
			<g>
				<title>Carbam_trans_C (PF16861)
"Carbamoyltransferase C-terminus"</title>
				<polygon class="PF16861" points="396,28 408,28 413,33 413,47 408,52 396,52" stroke-linejoin="round" width="17" height="24" fill="rgb(183,87,154)" stroke="rgb(146,69,123)" stroke-width="1" opacity="0.75" />
			</g>
		</g>
		<g>
			<title>novO
methyltransferase</title>
			<polygon class="novO
methyltransferase" points="432,10 455,40 432,70" fill="rgb(255,255,255)" fill-opacity="1.0" stroke="rgb(0,0,0)" stroke-width="2"  />
			<g>
				<title>Methyltransf_25 (PF13649)
"Methyltransferase domain"</title>
				<polygon class="PF13649" points="436,28 442,28 445,32 445,48 442,52 436,52" stroke-linejoin="round" width="9" height="24" fill="rgb(227,135,74)" stroke="rgb(181,108,59)" stroke-width="1" opacity="0.75" />
			</g>
		</g>
		<g>
			<title>novP
O-methyltransferase</title>
			<polygon class="novP
O-methyltransferase" points="457,10 483,40 457,70" fill="rgb(255,255,255)" fill-opacity="1.0" stroke="rgb(0,0,0)" stroke-width="2"  />
			<g>
				<title>TylF (PF05711)
"Macrocin-O-methyltransferase (TylF)"</title>
				<polygon class="PF05711" points="458,28 469,28 479,40 469,52 458,52" stroke-linejoin="round" width="24" height="24" fill="rgb(175,228,98)" stroke="rgb(139,182,78)" stroke-width="1" opacity="0.75" />
			</g>
		</g>
		<g>
			<title>novQ
ABBA prenyltransferase</title>
			<polygon class="novQ
ABBA prenyltransferase" points="484,25 486,25 486,10 516,40 486,70 486,55 484,55" fill="rgb(255,255,255)" fill-opacity="1.0" stroke="rgb(0,0,0)" stroke-width="2"  />
			<g>
				<title>PTase_Orf2 (PF11468)
"Aromatic prenyltransferase Orf2"</title>
				<polygon class="PF11468" points="485,28 500,28 512,40 500,52 485,52" stroke-linejoin="round" width="28" height="24" fill="rgb(121,52,185)" stroke="rgb(96,41,148)" stroke-width="1" opacity="0.75" />
			</g>
		</g>
		<g>
			<title>novR
alpha-ketoacid-dependent oxygenase</title>
			<polygon class="novR
alpha-ketoacid-dependent oxygenase" points="516,10 543,40 516,70" fill="rgb(255,255,255)" fill-opacity="1.0" stroke="rgb(0,0,0)" stroke-width="2"  />
			<g>
				<title>Aldolase_II (PF00596)
"Class II Aldolase and Adducin N-terminal domain"</title>
				<polygon class="PF00596" points="519,28 527,28 537,38 537,42 527,52 519,52" stroke-linejoin="round" width="18" height="24" fill="rgb(208,130,90)" stroke="rgb(166,104,72)" stroke-width="1" opacity="0.75" />
			</g>
		</g>
		<g>
			<title>novS
dTDP-4-keto-6-deoxyhexose reductase</title>
			<polygon class="novS
dTDP-4-keto-6-deoxyhexose reductase" points="543,10 571,40 543,70" fill="rgb(255,255,255)" fill-opacity="1.0" stroke="rgb(0,0,0)" stroke-width="2"  />
			<g>
				<title>RmlD_sub_bind (PF04321)
"RmlD substrate binding domain"</title>
				<polygon class="PF04321" points="543,28 555,28 567,40 555,52 543,52" stroke-linejoin="round" width="28" height="24" fill="rgb(196,203,60)" stroke="rgb(156,162,47)" stroke-width="1" opacity="0.75" />
			</g>
		</g>
		<g>
			<title>novT
dTDP-glucose 4,6-dehydratase</title>
			<polygon class="novT
dTDP-glucose 4,6-dehydratase" points="573,25 576,25 576,10 606,40 576,70 576,55 573,55" fill="rgb(255,255,255)" fill-opacity="1.0" stroke="rgb(0,0,0)" stroke-width="2"  />
			<g>
				<title>GDP_Man_Dehyd (PF16363)
"GDP-mannose 4,6 dehydratase"</title>
				<polygon class="PF16363" points="573,28 590,28 602,40 590,52 573,52" stroke-linejoin="round" width="30" height="24" fill="rgb(162,221,65)" stroke="rgb(129,176,51)" stroke-width="1" opacity="0.75" />
			</g>
		</g>
		<g>
			<title>novU
C-methyltransferase</title>
			<polygon class="novU
C-methyltransferase" points="609,25 621,25 621,10 651,40 621,70 621,55 609,55" fill="rgb(255,255,255)" fill-opacity="1.0" stroke="rgb(0,0,0)" stroke-width="2"  />
			<g>
				<title>Methyltransf_13 (PF08421)
"Putative zinc binding domain"</title>
				<rect class="PF08421" x="610" y="28" stroke-linejoin="round" width="6" height="24" fill="rgb(209,96,160)" stroke="rgb(167,76,128)" stroke-width="1" opacity="0.75" />
			</g>
			<g>
				<title>Methyltransf_23 (PF13489)
"Methyltransferase domain"</title>
				<rect class="PF13489" x="616" y="28" stroke-linejoin="round" width="17" height="24" fill="rgb(188,189,66)" stroke="rgb(150,151,52)" stroke-width="1" opacity="0.75" />
			</g>
			<g>
				<title>Methyltransf_14 (PF08484)
"C-methyltransferase C-terminal domain"</title>
				<polygon class="PF08484" points="634,28 634,28 646,40 634,52 634,52" stroke-linejoin="round" width="15" height="24" fill="rgb(229,72,107)" stroke="rgb(183,57,85)" stroke-width="1" opacity="0.75" />
			</g>
		</g>
		<g>
			<title>novV
dTDP-glucose synthase</title>
			<polygon class="novV
dTDP-glucose synthase" points="653,10 682,40 653,70" fill="rgb(255,255,255)" fill-opacity="1.0" stroke="rgb(0,0,0)" stroke-width="2"  />
			<g>
				<title>NTP_transferase (PF00483)
"Nucleotidyl transferase"</title>
				<polygon class="PF00483" points="653,28 666,28 676,38 676,42 666,52 653,52" stroke-linejoin="round" width="23" height="24" fill="rgb(198,101,87)" stroke="rgb(158,80,69)" stroke-width="1" opacity="0.75" />
			</g>
		</g>
		<g>
			<title>novW
dTDP-4-keto-6-deoxyglucose 3,5-epimerase</title>
			<polygon class="novW
dTDP-4-keto-6-deoxyglucose 3,5-epimerase" points="682,10 702,40 682,70" fill="rgb(255,255,255)" fill-opacity="1.0" stroke="rgb(0,0,0)" stroke-width="2"  />
			<g>
				<title>dTDP_sugar_isom (PF00908)
"dTDP-4-dehydrorhamnose 3,5-epimerase"</title>
				<polygon class="PF00908" points="682,28 690,28 699,40 699,40 690,52 682,52" stroke-linejoin="round" width="17" height="24" fill="rgb(184,89,121)" stroke="rgb(147,71,96)" stroke-width="1" opacity="0.75" />
			</g>
		</g>
		<g>
			<title>gyrB_R
resistant DNA gyrase subunit B</title>
			<polygon class="gyrB_R
resistant DNA gyrase subunit B" points="716,25 753,25 753,10 783,40 753,70 753,55 716,55" fill="rgb(255,255,255)" fill-opacity="1.0" stroke="rgb(0,0,0)" stroke-width="2"  />
			<g>
				<title>HATPase_c (PF02518)
"Histidine kinase-, DNA gyrase B-, and HSP90-like ATPase"</title>
				<rect class="PF02518" x="721" y="28" stroke-linejoin="round" width="14" height="24" fill="rgb(80,94,225)" stroke="rgb(64,75,180)" stroke-width="1" opacity="0.75" />
			</g>
			<g>
				<title>DNA_gyraseB (PF00204)
"DNA gyrase B"</title>
				<rect class="PF00204" x="741" y="28" stroke-linejoin="round" width="17" height="24" fill="rgb(66,134,179)" stroke="rgb(52,107,143)" stroke-width="1" opacity="0.75" />
			</g>
			<g>
				<title>Toprim (PF01751)
"Toprim domain"</title>
				<polygon class="PF01751" points="761,28 767,28 772,33 772,47 767,52 761,52" stroke-linejoin="round" width="11" height="24" fill="rgb(95,212,145)" stroke="rgb(76,169,116)" stroke-width="1" opacity="0.75" />
			</g>
			<g>
				<title>DNA_gyraseB_C (PF00986)
"DNA gyrase B subunit, carboxyl terminus"</title>
				<polygon class="PF00986" points="776,37 779,40 776,43" stroke-linejoin="round" width="6" height="24" fill="rgb(184,59,116)" stroke="rgb(147,47,92)" stroke-width="1" opacity="0.75" />
			</g>
		</g>
	</g>
</svg>
