<svg version="1.1" baseProfile="full" xmlns="http://www.w3.org/2000/svg" width="738.6333333333333" height="80">
	<g>
		<line x1="10" y1="40.0" x2="728.6333333333333" y2="40.0" style="stroke:rgb(70,70,70); stroke-width:3 "/>
		<g>
			<title>iso1
hypothetical protein</title>
			<polygon class="iso1
hypothetical protein" points="10,10 23,40 10,70" fill="rgb(255,255,255)" fill-opacity="1.0" stroke="rgb(0,0,0)" stroke-width="2"  />
			<g>
				<title>4HBT (PF03061)
"Thioesterase superfamily"</title>
				<polygon class="PF03061" points="14,28 14,28 20,40 14,52 14,52" stroke-linejoin="round" width="7" height="24" fill="rgb(143,103,215)" stroke="rgb(114,82,172)" stroke-width="1" opacity="0.75" />
			</g>
		</g>
		<g>
			<title>iso2
AMP-dependent synthetase/ligase</title>
			<polygon class="iso2
AMP-dependent synthetase/ligase" points="28,25 119,25 119,10 149,40 119,70 119,55 28,55" fill="rgb(255,255,255)" fill-opacity="1.0" stroke="rgb(0,0,0)" stroke-width="2"  />
			<g>
				<title>AMP-binding (PF00501)
"AMP-binding enzyme"</title>
				<rect class="PF00501" x="30" y="28" stroke-linejoin="round" width="43" height="24" fill="rgb(60,217,223)" stroke="rgb(48,173,178)" stroke-width="1" opacity="0.75" />
			</g>
			<g>
				<title>Acyl-CoA_dh_N (PF02771)
"Acyl-CoA dehydrogenase, N-terminal domain"</title>
				<rect class="PF02771" x="87" y="28" stroke-linejoin="round" width="10" height="24" fill="rgb(105,135,218)" stroke="rgb(84,108,174)" stroke-width="1" opacity="0.75" />
			</g>
			<g>
				<title>Acyl-CoA_dh_M (PF02770)
"Acyl-CoA dehydrogenase, middle domain"</title>
				<rect class="PF02770" x="98" y="28" stroke-linejoin="round" width="9" height="24" fill="rgb(225,186,97)" stroke="rgb(180,148,77)" stroke-width="1" opacity="0.75" />
			</g>
			<g>
				<title>Acyl-CoA_dh_1 (PF00441)
"Acyl-CoA dehydrogenase, C-terminal domain"</title>
				<rect class="PF00441" x="108" y="28" stroke-linejoin="round" width="15" height="24" fill="rgb(85,191,117)" stroke="rgb(68,152,93)" stroke-width="1" opacity="0.75" />
			</g>
			<g>
				<title>PP-binding (PF00550)
"Phosphopantetheine attachment site"</title>
				<polygon class="PF00550" points="141,36 145,40 141,44" stroke-linejoin="round" width="6" height="24" fill="rgb(103,191,88)" stroke="rgb(82,152,70)" stroke-width="1" opacity="0.75" />
			</g>
		</g>
		<g>
			<title>iso3
fatty acid desaturase subfamily protein</title>
			<polygon class="iso3
fatty acid desaturase subfamily protein" points="152,10 180,40 152,70" fill="rgb(255,255,255)" fill-opacity="1.0" stroke="rgb(0,0,0)" stroke-width="2"  />
			<g>
				<title>FA_desaturase (PF00487)
"Fatty acid desaturase"</title>
				<polygon class="PF00487" points="156,28 164,28 175,40 164,52 156,52" stroke-linejoin="round" width="22" height="24" fill="rgb(104,51,205)" stroke="rgb(83,40,164)" stroke-width="1" opacity="0.75" />
			</g>
		</g>
		<g>
			<title>iso4
hypothetical protein</title>
			<polygon class="iso4
hypothetical protein" points="181,10 209,40 181,70" fill="rgb(255,255,255)" fill-opacity="1.0" stroke="rgb(0,0,0)" stroke-width="2"  />
		</g>
		<g>
			<title>iso5
short-chain dehydrogenase/reductase SDR</title>
			<polygon class="iso5
short-chain dehydrogenase/reductase SDR" points="212,25 274,25 274,10 304,40 274,70 274,55 212,55" fill="rgb(255,255,255)" fill-opacity="1.0" stroke="rgb(0,0,0)" stroke-width="2"  />
			<g>
				<title>ketoacyl-synt (PF00109)
"Beta-ketoacyl synthase, N-terminal domain"</title>
				<rect class="PF00109" x="213" y="28" stroke-linejoin="round" width="24" height="24" fill="rgb(112,116,228)" stroke="rgb(89,92,182)" stroke-width="1" opacity="0.75" />
			</g>
			<g>
				<title>Ketoacyl-synt_C (PF02801)
"Beta-ketoacyl synthase, C-terminal domain"</title>
				<rect class="PF02801" x="238" y="28" stroke-linejoin="round" width="11" height="24" fill="rgb(215,78,102)" stroke="rgb(172,62,81)" stroke-width="1" opacity="0.75" />
			</g>
			<g>
				<title>KAsynt_C_assoc (PF16197)
"Ketoacyl-synthetase C-terminal extension"</title>
				<rect class="PF16197" x="250" y="28" stroke-linejoin="round" width="10" height="24" fill="rgb(240,150,172)" stroke="rgb(192,120,137)" stroke-width="1" opacity="0.75" />
			</g>
			<g>
				<title>Acyl_transf_1 (PF00698)
"Acyl transferase domain"</title>
				<polygon class="PF00698" points="264,28 287,28 293,34 293,46 287,52 264,52" stroke-linejoin="round" width="29" height="24" fill="rgb(59,176,209)" stroke="rgb(47,140,167)" stroke-width="1" opacity="0.75" />
			</g>
		</g>
		<g>
			<title>iso6
non-ribosomal peptide synthetase</title>
			<polygon class="iso6
non-ribosomal peptide synthetase" points="305,25 384,25 384,10 414,40 384,70 384,55 305,55" fill="rgb(255,255,255)" fill-opacity="1.0" stroke="rgb(0,0,0)" stroke-width="2"  />
			<g>
				<title>PP-binding (PF00550)
"Phosphopantetheine attachment site"</title>
				<rect class="PF00550" x="306" y="28" stroke-linejoin="round" width="7" height="24" fill="rgb(103,191,88)" stroke="rgb(82,152,70)" stroke-width="1" opacity="0.75" />
			</g>
			<g>
				<title>Aminotran_3 (PF00202)
"Aminotransferase class-III"</title>
				<rect class="PF00202" x="329" y="28" stroke-linejoin="round" width="33" height="24" fill="rgb(49,163,189)" stroke="rgb(39,130,151)" stroke-width="1" opacity="0.75" />
			</g>
			<g>
				<title>Condensation (PF00668)
"Condensation domain"</title>
				<polygon class="PF00668" points="370,28 398,28 410,40 398,52 370,52" stroke-linejoin="round" width="42" height="24" fill="rgb(224,184,98)" stroke="rgb(179,147,78)" stroke-width="1" opacity="0.75" />
			</g>
		</g>
		<g>
			<title>iso7
short-chain dehydrogenase/reductase SDR</title>
			<polygon class="iso7
short-chain dehydrogenase/reductase SDR" points="414,10 426,40 414,70" fill="rgb(255,255,255)" fill-opacity="1.0" stroke="rgb(0,0,0)" stroke-width="2"  />
			<g>
				<title>PP-binding (PF00550)
"Phosphopantetheine attachment site"</title>
				<polygon class="PF00550" points="416,28 418,28 422,37 422,43 418,52 416,52" stroke-linejoin="round" width="6" height="24" fill="rgb(103,191,88)" stroke="rgb(82,152,70)" stroke-width="1" opacity="0.75" />
			</g>
		</g>
		<g>
			<title>iso8
long-chain-fatty-acid--CoA ligase</title>
			<polygon class="iso8
long-chain-fatty-acid--CoA ligase" points="428,25 450,25 450,10 480,40 450,70 450,55 428,55" fill="rgb(255,255,255)" fill-opacity="1.0" stroke="rgb(0,0,0)" stroke-width="2"  />
			<g>
				<title>AMP-binding (PF00501)
"AMP-binding enzyme"</title>
				<polygon class="PF00501" points="429,28 464,28 469,33 469,47 464,52 429,52" stroke-linejoin="round" width="40" height="24" fill="rgb(60,217,223)" stroke="rgb(48,173,178)" stroke-width="1" opacity="0.75" />
			</g>
			<g>
				<title>AMP-binding_C (PF13193)
"AMP-binding enzyme C-terminal domain"</title>
				<polygon class="PF13193" points="471,35 476,40 471,45" stroke-linejoin="round" width="7" height="24" fill="rgb(182,50,118)" stroke="rgb(145,39,94)" stroke-width="1" opacity="0.75" />
			</g>
		</g>
		<g>
			<title>iso9
short-chain dehydrogenase/reductase SDR</title>
			<polygon class="iso9
short-chain dehydrogenase/reductase SDR" points="482,25 698,25 698,10 728,40 698,70 698,55 482,55" fill="rgb(255,255,255)" fill-opacity="1.0" stroke="rgb(0,0,0)" stroke-width="2"  />
			<g>
				<title>ketoacyl-synt (PF00109)
"Beta-ketoacyl synthase, N-terminal domain"</title>
				<rect class="PF00109" x="485" y="28" stroke-linejoin="round" width="24" height="24" fill="rgb(112,116,228)" stroke="rgb(89,92,182)" stroke-width="1" opacity="0.75" />
			</g>
			<g>
				<title>Ketoacyl-synt_C (PF02801)
"Beta-ketoacyl synthase, C-terminal domain"</title>
				<rect class="PF02801" x="510" y="28" stroke-linejoin="round" width="11" height="24" fill="rgb(215,78,102)" stroke="rgb(172,62,81)" stroke-width="1" opacity="0.75" />
			</g>
			<g>
				<title>KAsynt_C_assoc (PF16197)
"Ketoacyl-synthetase C-terminal extension"</title>
				<rect class="PF16197" x="522" y="28" stroke-linejoin="round" width="11" height="24" fill="rgb(240,150,172)" stroke="rgb(192,120,137)" stroke-width="1" opacity="0.75" />
			</g>
			<g>
				<title>Acyl_transf_1 (PF00698)
"Acyl transferase domain"</title>
				<rect class="PF00698" x="537" y="28" stroke-linejoin="round" width="31" height="24" fill="rgb(59,176,209)" stroke="rgb(47,140,167)" stroke-width="1" opacity="0.75" />
			</g>
			<g>
				<title>PS-DH (PF14765)
"Polyketide synthase dehydratase"</title>
				<rect class="PF14765" x="574" y="28" stroke-linejoin="round" width="29" height="24" fill="rgb(173,56,182)" stroke="rgb(138,44,145)" stroke-width="1" opacity="0.75" />
			</g>
			<g>
				<title>ADH_zinc_N_2 (PF13602)
"Zinc-binding dehydrogenase"</title>
				<rect class="PF13602" x="644" y="28" stroke-linejoin="round" width="13" height="24" fill="rgb(101,131,226)" stroke="rgb(80,104,180)" stroke-width="1" opacity="0.75" />
			</g>
			<g>
				<title>KR (PF08659)
"KR domain"</title>
				<rect class="PF08659" x="659" y="28" stroke-linejoin="round" width="17" height="24" fill="rgb(66,209,188)" stroke="rgb(52,167,150)" stroke-width="1" opacity="0.75" />
			</g>
			<g>
				<title>PP-binding (PF00550)
"Phosphopantetheine attachment site"</title>
				<rect class="PF00550" x="687" y="28" stroke-linejoin="round" width="6" height="24" fill="rgb(103,191,88)" stroke="rgb(82,152,70)" stroke-width="1" opacity="0.75" />
			</g>
			<g>
				<title>Abhydrolase_1 (PF00561)
"alpha/beta hydrolase fold"</title>
				<polygon class="PF00561" points="700,28 711,28 716,33 716,47 711,52 700,52" stroke-linejoin="round" width="16" height="24" fill="rgb(86,180,151)" stroke="rgb(68,144,120)" stroke-width="1" opacity="0.75" />
			</g>
		</g>
	</g>
</svg>
