<svg version="1.1" baseProfile="full" xmlns="http://www.w3.org/2000/svg" width="1588.7" height="80">
	<g>
		<line x1="10" y1="40.0" x2="1578.7" y2="40.0" style="stroke:rgb(70,70,70); stroke-width:3 "/>
		<g>
			<title> (AO090010000172)</title>
			<polygon class=" (AO090010000172)" points="10,25 111,25 111,10 141,40 111,70 111,55 10,55" fill="rgb(255,255,255)" fill-opacity="1.0" stroke="rgb(0,0,0)" stroke-width="2"  />
			<g>
				<title>Sugar_tr (PF00083)
"Sugar (and other) transporter"</title>
				<rect class="PF00083" x="12" y="28" stroke-linejoin="round" width="45" height="24" fill="rgb(48,186,105)" stroke="rgb(38,148,84)" stroke-width="1" opacity="0.75" />
			</g>
			<g>
				<title>Histidinol_dh (PF00815)
"Histidinol dehydrogenase"</title>
				<rect class="PF00815" x="59" y="28" stroke-linejoin="round" width="7" height="24" fill="rgb(163,51,193)" stroke="rgb(130,40,154)" stroke-width="1" opacity="0.75" />
			</g>
		</g>
		<g>
			<title> (AO090010000171)</title>
			<polygon class=" (AO090010000171)" points="335,25 181,25 181,10 151,40 181,70 181,55 335,55" fill="rgb(255,255,255)" fill-opacity="1.0" stroke="rgb(0,0,0)" stroke-width="2"  />
			<g>
				<title>ACPS (PF01648)
"4'-phosphopantetheinyl transferase superfamily"</title>
				<polygon class="PF01648" points="159,36 167,28 169,28 169,52 167,52 159,44" stroke-linejoin="round" width="10" height="24" fill="rgb(85,184,135)" stroke="rgb(68,147,108)" stroke-width="1" opacity="0.75" />
			</g>
			<g>
				<title>Ketoacyl-synt_C (PF02801)
"Beta-ketoacyl synthase, C-terminal domain"</title>
				<rect class="PF02801" x="186" y="28" stroke-linejoin="round" width="10" height="24" fill="rgb(215,78,102)" stroke="rgb(172,62,81)" stroke-width="1" opacity="0.75" />
			</g>
			<g>
				<title>ketoacyl-synt (PF00109)
"Beta-ketoacyl synthase, N-terminal domain"</title>
				<rect class="PF00109" x="207" y="28" stroke-linejoin="round" width="21" height="24" fill="rgb(112,116,228)" stroke="rgb(89,92,182)" stroke-width="1" opacity="0.75" />
			</g>
			<g>
				<title>adh_short (PF00106)
"short chain dehydrogenase"</title>
				<rect class="PF00106" x="257" y="28" stroke-linejoin="round" width="20" height="24" fill="rgb(182,219,73)" stroke="rgb(145,175,58)" stroke-width="1" opacity="0.75" />
			</g>
			<g>
				<title>FAS_I_H (PF18314)
"Fatty acid synthase type I helical domain"</title>
				<rect class="PF18314" x="284" y="28" stroke-linejoin="round" width="18" height="24" fill="rgb(185,90,146)" stroke="rgb(148,72,116)" stroke-width="1" opacity="0.75" />
			</g>
			<g>
				<title>Fas_alpha_ACP (PF18325)
"Fatty acid synthase subunit alpha Acyl carrier domain"</title>
				<rect class="PF18325" x="304" y="28" stroke-linejoin="round" width="16" height="24" fill="rgb(186,70,103)" stroke="rgb(148,56,82)" stroke-width="1" opacity="0.75" />
			</g>
		</g>
		<g>
			<title> (AO090010000170)</title>
			<polygon class=" (AO090010000170)" points="358,25 378,25 378,10 408,40 378,70 378,55 358,55" fill="rgb(255,255,255)" fill-opacity="1.0" stroke="rgb(0,0,0)" stroke-width="2"  />
			<g>
				<title>Citrate_synt (PF00285)
"Citrate synthase, C-terminal domain"</title>
				<polygon class="PF00285" points="364,28 392,28 400,36 400,44 392,52 364,52" stroke-linejoin="round" width="36" height="24" fill="rgb(217,199,102)" stroke="rgb(173,159,81)" stroke-width="1" opacity="0.75" />
			</g>
		</g>
		<g>
			<title> (AO090010000169)</title>
			<polygon class=" (AO090010000169)" points="428,25 451,25 451,10 481,40 451,70 451,55 428,55" fill="rgb(255,255,255)" fill-opacity="1.0" stroke="rgb(0,0,0)" stroke-width="2"  />
			<g>
				<title>MFS_1 (PF07690)
"Major Facilitator Superfamily"</title>
				<polygon class="PF07690" points="432,28 464,28 470,34 470,46 464,52 432,52" stroke-linejoin="round" width="38" height="24" fill="rgb(193,224,74)" stroke="rgb(154,179,59)" stroke-width="1" opacity="0.75" />
			</g>
		</g>
		<g>
			<title> (AO090010000168)</title>
			<polygon class=" (AO090010000168)" points="556,25 545,25 545,10 515,40 545,70 545,55 556,55" fill="rgb(255,255,255)" fill-opacity="1.0" stroke="rgb(0,0,0)" stroke-width="2"  />
			<g>
				<title>TauD (PF02668)
"Taurine catabolism dioxygenase TauD, TfdA family"</title>
				<polygon class="PF02668" points="524,35 531,28 553,28 553,52 531,52 524,45" stroke-linejoin="round" width="29" height="24" fill="rgb(180,79,217)" stroke="rgb(144,63,173)" stroke-width="1" opacity="0.75" />
			</g>
		</g>
		<g>
			<title> (AO090010000167)</title>
			<polygon class=" (AO090010000167)" points="584,25 601,25 601,10 631,40 601,70 601,55 584,55" fill="rgb(255,255,255)" fill-opacity="1.0" stroke="rgb(0,0,0)" stroke-width="2"  />
			<g>
				<title>SGL (PF08450)
"SMP-30/Gluconolactonase/LRE-like region"</title>
				<polygon class="PF08450" points="612,28 614,28 618,32 618,48 614,52 612,52" stroke-linejoin="round" width="6" height="24" fill="rgb(210,60,225)" stroke="rgb(168,48,180)" stroke-width="1" opacity="0.75" />
			</g>
			<g>
				<title>SGL (PF08450)
"SMP-30/Gluconolactonase/LRE-like region"</title>
				<polygon class="PF08450" points="620,34 626,40 620,46" stroke-linejoin="round" width="9" height="24" fill="rgb(210,60,225)" stroke="rgb(168,48,180)" stroke-width="1" opacity="0.75" />
			</g>
		</g>
		<g>
			<title> (AO090010000166)</title>
			<polygon class=" (AO090010000166)" points="661,10 688,40 661,70" fill="rgb(255,255,255)" fill-opacity="1.0" stroke="rgb(0,0,0)" stroke-width="2"  />
			<g>
				<title>Cupin_2 (PF07883)
"Cupin domain"</title>
				<polygon class="PF07883" points="669,28 673,28 676,31 676,49 673,52 669,52" stroke-linejoin="round" width="7" height="24" fill="rgb(211,192,74)" stroke="rgb(168,153,59)" stroke-width="1" opacity="0.75" />
			</g>
		</g>
		<g>
			<title> (AO090010000165)</title>
			<polygon class=" (AO090010000165)" points="717,25 730,25 730,10 760,40 730,70 730,55 717,55" fill="rgb(255,255,255)" fill-opacity="1.0" stroke="rgb(0,0,0)" stroke-width="2"  />
			<g>
				<title>Ank_4 (PF13637)
"Ankyrin repeats (many copies)"</title>
				<rect class="PF13637" x="717" y="28" stroke-linejoin="round" width="5" height="24" fill="rgb(62,205,90)" stroke="rgb(49,164,72)" stroke-width="1" opacity="0.75" />
			</g>
		</g>
		<g>
			<title> (AO090010000164)</title>
			<polygon class=" (AO090010000164)" points="768,10 782,40 768,70" fill="rgb(255,255,255)" fill-opacity="1.0" stroke="rgb(0,0,0)" stroke-width="2"  />
			<g>
				<title>Ank_2 (PF12796)
"Ankyrin repeats (3 copies)"</title>
				<polygon class="PF12796" points="770,28 773,28 779,40 779,40 773,52 770,52" stroke-linejoin="round" width="9" height="24" fill="rgb(151,90,191)" stroke="rgb(120,72,152)" stroke-width="1" opacity="0.75" />
			</g>
		</g>
		<g>
			<title> (AO090010000163)</title>
			<polygon class=" (AO090010000163)" points="821,40 836,10 836,70" fill="rgb(255,255,255)" fill-opacity="1.0" stroke="rgb(0,0,0)" stroke-width="2"  />
			<g>
				<title>SGL (PF08450)
"SMP-30/Gluconolactonase/LRE-like region"</title>
				<polygon class="PF08450" points="824,40 830,28 831,28 831,52 830,52" stroke-linejoin="round" width="9" height="24" fill="rgb(210,60,225)" stroke="rgb(168,48,180)" stroke-width="1" opacity="0.75" />
			</g>
		</g>
		<g>
			<title> (AO090010000162)</title>
			<polygon class=" (AO090010000162)" points="838,40 867,10 867,70" fill="rgb(255,255,255)" fill-opacity="1.0" stroke="rgb(0,0,0)" stroke-width="2"  />
		</g>
		<g>
			<title> (AO090010000161)</title>
			<polygon class=" (AO090010000161)" points="879,25 899,25 899,10 929,40 899,70 899,55 879,55" fill="rgb(255,255,255)" fill-opacity="1.0" stroke="rgb(0,0,0)" stroke-width="2"  />
			<g>
				<title>MmgE_PrpD (PF03972)
"MmgE/PrpD N-terminal domain"</title>
				<rect class="PF03972" x="880" y="28" stroke-linejoin="round" width="25" height="24" fill="rgb(166,220,102)" stroke="rgb(132,176,81)" stroke-width="1" opacity="0.75" />
			</g>
			<g>
				<title>MmgE_PrpD_C (PF19305)
"MmgE/PrpD C-terminal domain"</title>
				<polygon class="PF19305" points="908,28 912,28 924,40 912,52 908,52" stroke-linejoin="round" width="17" height="24" fill="rgb(194,186,61)" stroke="rgb(155,148,48)" stroke-width="1" opacity="0.75" />
			</g>
		</g>
		<g>
			<title> (AO090010000160)</title>
			<polygon class=" (AO090010000160)" points="971,25 996,25 996,10 1026,40 996,70 996,55 971,55" fill="rgb(255,255,255)" fill-opacity="1.0" stroke="rgb(0,0,0)" stroke-width="2"  />
			<g>
				<title>MFS_1 (PF07690)
"Major Facilitator Superfamily"</title>
				<polygon class="PF07690" points="978,28 1010,28 1015,33 1015,47 1010,52 978,52" stroke-linejoin="round" width="37" height="24" fill="rgb(193,224,74)" stroke="rgb(154,179,59)" stroke-width="1" opacity="0.75" />
			</g>
		</g>
		<g>
			<title> (AO090010000159)</title>
			<polygon class=" (AO090010000159)" points="1135,25 1081,25 1081,10 1051,40 1081,70 1081,55 1135,55" fill="rgb(255,255,255)" fill-opacity="1.0" stroke="rgb(0,0,0)" stroke-width="2"  />
			<g>
				<title>Fungal_trans (PF04082)
"Fungal specific transcription factor domain"</title>
				<rect class="PF04082" x="1087" y="28" stroke-linejoin="round" width="12" height="24" fill="rgb(51,172,200)" stroke="rgb(40,137,160)" stroke-width="1" opacity="0.75" />
			</g>
			<g>
				<title>Zn_clus (PF00172)
"Fungal Zn(2)-Cys(6) binuclear cluster domain"</title>
				<rect class="PF00172" x="1126" y="28" stroke-linejoin="round" width="3" height="24" fill="rgb(121,178,76)" stroke="rgb(96,142,60)" stroke-width="1" opacity="0.75" />
			</g>
		</g>
		<g>
			<title> (AO090010000156)</title>
			<polygon class=" (AO090010000156)" points="1492,25 1313,25 1313,10 1283,40 1313,70 1313,55 1492,55" fill="rgb(255,255,255)" fill-opacity="1.0" stroke="rgb(0,0,0)" stroke-width="2"  />
			<g>
				<title>Acyl_transf_1 (PF00698)
"Acyl transferase domain"</title>
				<polygon class="PF00698" points="1290,37 1299,28 1327,28 1327,52 1299,52 1290,43" stroke-linejoin="round" width="37" height="24" fill="rgb(59,176,209)" stroke="rgb(47,140,167)" stroke-width="1" opacity="0.75" />
			</g>
			<g>
				<title>MaoC_dehydratas (PF01575)
"MaoC like domain"</title>
				<rect class="PF01575" x="1329" y="28" stroke-linejoin="round" width="13" height="24" fill="rgb(218,129,86)" stroke="rgb(174,103,68)" stroke-width="1" opacity="0.75" />
			</g>
			<g>
				<title>MaoC_dehydrat_N (PF13452)
"N-terminal half of MaoC dehydratase"</title>
				<rect class="PF13452" x="1353" y="28" stroke-linejoin="round" width="9" height="24" fill="rgb(215,186,64)" stroke="rgb(172,148,51)" stroke-width="1" opacity="0.75" />
			</g>
			<g>
				<title>FAS_meander (PF17951)
"Fatty acid synthase meander beta sheet domain"</title>
				<rect class="PF17951" x="1367" y="28" stroke-linejoin="round" width="13" height="24" fill="rgb(75,195,64)" stroke="rgb(60,156,51)" stroke-width="1" opacity="0.75" />
			</g>
			<g>
				<title>DUF1729 (PF08354)
"Domain of unknown function (DUF1729)"</title>
				<rect class="PF08354" x="1385" y="28" stroke-linejoin="round" width="34" height="24" fill="rgb(199,58,132)" stroke="rgb(159,46,105)" stroke-width="1" opacity="0.75" />
			</g>
			<g>
				<title>SAT (PF16073)
"Starter unit:ACP transacylase in aflatoxin biosynthesis"</title>
				<rect class="PF16073" x="1451" y="28" stroke-linejoin="round" width="25" height="24" fill="rgb(77,115,183)" stroke="rgb(61,91,146)" stroke-width="1" opacity="0.75" />
			</g>
		</g>
		<g>
			<title> (AO090010000155)</title>
			<polygon class=" (AO090010000155)" points="1509,25 1530,25 1530,10 1560,40 1530,70 1530,55 1509,55" fill="rgb(255,255,255)" fill-opacity="1.0" stroke="rgb(0,0,0)" stroke-width="2"  />
			<g>
				<title>MmgE_PrpD (PF03972)
"MmgE/PrpD N-terminal domain"</title>
				<rect class="PF03972" x="1510" y="28" stroke-linejoin="round" width="25" height="24" fill="rgb(166,220,102)" stroke="rgb(132,176,81)" stroke-width="1" opacity="0.75" />
			</g>
			<g>
				<title>MmgE_PrpD_C (PF19305)
"MmgE/PrpD C-terminal domain"</title>
				<polygon class="PF19305" points="1538,28 1544,28 1555,39 1555,41 1544,52 1538,52" stroke-linejoin="round" width="17" height="24" fill="rgb(194,186,61)" stroke="rgb(155,148,48)" stroke-width="1" opacity="0.75" />
			</g>
		</g>
	</g>
</svg>
