<svg version="1.1" baseProfile="full" xmlns="http://www.w3.org/2000/svg" width="1148.3666666666666" height="80">
	<g>
		<line x1="10" y1="40.0" x2="1138.3666666666666" y2="40.0" style="stroke:rgb(70,70,70); stroke-width:3 "/>
		<g>
			<title> (PUNSTDRAFT_101387)
cytochrome P450</title>
			<polygon class=" (PUNSTDRAFT_101387)
cytochrome P450" points="72,25 40,25 40,10 10,40 40,70 40,55 72,55" fill="rgb(255,255,255)" fill-opacity="1.0" stroke="rgb(0,0,0)" stroke-width="2"  />
			<g>
				<title>p450 (PF00067)
"Cytochrome P450"</title>
				<polygon class="PF00067" points="22,32 26,28 67,28 67,52 26,52 22,48" stroke-linejoin="round" width="45" height="24" fill="rgb(85,216,107)" stroke="rgb(68,172,85)" stroke-width="1" opacity="0.75" />
			</g>
		</g>
		<g>
			<title> (PUNSTDRAFT_85939)
cytochrome P450</title>
			<polygon class=" (PUNSTDRAFT_85939)
cytochrome P450" points="160,25 121,25 121,10 91,40 121,70 121,55 160,55" fill="rgb(255,255,255)" fill-opacity="1.0" stroke="rgb(0,0,0)" stroke-width="2"  />
			<g>
				<title>p450 (PF00067)
"Cytochrome P450"</title>
				<polygon class="PF00067" points="107,28 107,28 151,28 151,52 107,52 107,52" stroke-linejoin="round" width="44" height="24" fill="rgb(85,216,107)" stroke="rgb(68,172,85)" stroke-width="1" opacity="0.75" />
			</g>
		</g>
		<g>
			<title>pks1 (PUNSTDRAFT_143067)
polyketide synthase</title>
			<polygon class="pks1 (PUNSTDRAFT_143067)
polyketide synthase" points="210,25 434,25 434,10 464,40 434,70 434,55 210,55" fill="rgb(255,255,255)" fill-opacity="1.0" stroke="rgb(0,0,0)" stroke-width="2"  />
			<g>
				<title>ketoacyl-synt (PF00109)
"Beta-ketoacyl synthase, N-terminal domain"</title>
				<rect class="PF00109" x="210" y="28" stroke-linejoin="round" width="24" height="24" fill="rgb(112,116,228)" stroke="rgb(89,92,182)" stroke-width="1" opacity="0.75" />
			</g>
			<g>
				<title>Ketoacyl-synt_C (PF02801)
"Beta-ketoacyl synthase, C-terminal domain"</title>
				<rect class="PF02801" x="236" y="28" stroke-linejoin="round" width="11" height="24" fill="rgb(215,78,102)" stroke="rgb(172,62,81)" stroke-width="1" opacity="0.75" />
			</g>
			<g>
				<title>KAsynt_C_assoc (PF16197)
"Ketoacyl-synthetase C-terminal extension"</title>
				<rect class="PF16197" x="247" y="28" stroke-linejoin="round" width="11" height="24" fill="rgb(240,150,172)" stroke="rgb(192,120,137)" stroke-width="1" opacity="0.75" />
			</g>
			<g>
				<title>Acyl_transf_1 (PF00698)
"Acyl transferase domain"</title>
				<rect class="PF00698" x="261" y="28" stroke-linejoin="round" width="33" height="24" fill="rgb(59,176,209)" stroke="rgb(47,140,167)" stroke-width="1" opacity="0.75" />
			</g>
			<g>
				<title>PS-DH (PF14765)
"Polyketide synthase dehydratase"</title>
				<rect class="PF14765" x="300" y="28" stroke-linejoin="round" width="26" height="24" fill="rgb(173,56,182)" stroke="rgb(138,44,145)" stroke-width="1" opacity="0.75" />
			</g>
			<g>
				<title>KR (PF08659)
"KR domain"</title>
				<rect class="PF08659" x="369" y="28" stroke-linejoin="round" width="16" height="24" fill="rgb(66,209,188)" stroke="rgb(52,167,150)" stroke-width="1" opacity="0.75" />
			</g>
			<g>
				<title>PP-binding (PF00550)
"Phosphopantetheine attachment site"</title>
				<rect class="PF00550" x="396" y="28" stroke-linejoin="round" width="6" height="24" fill="rgb(103,191,88)" stroke="rgb(82,152,70)" stroke-width="1" opacity="0.75" />
			</g>
			<g>
				<title>Thioesterase (PF00975)
"Thioesterase domain"</title>
				<rect class="PF00975" x="406" y="28" stroke-linejoin="round" width="15" height="24" fill="rgb(207,80,138)" stroke="rgb(165,63,110)" stroke-width="1" opacity="0.75" />
			</g>
		</g>
		<g>
			<title> (PUNSTDRAFT_51778)
MFS general substrate transporter</title>
			<polygon class=" (PUNSTDRAFT_51778)
MFS general substrate transporter" points="484,25 523,25 523,10 553,40 523,70 523,55 484,55" fill="rgb(255,255,255)" fill-opacity="1.0" stroke="rgb(0,0,0)" stroke-width="2"  />
			<g>
				<title>MFS_1 (PF07690)
"Major Facilitator Superfamily"</title>
				<rect class="PF07690" x="488" y="28" stroke-linejoin="round" width="29" height="24" fill="rgb(193,224,74)" stroke="rgb(154,179,59)" stroke-width="1" opacity="0.75" />
			</g>
		</g>
		<g>
			<title> (PUNSTDRAFT_51779)
hypothetical protein</title>
			<polygon class=" (PUNSTDRAFT_51779)
hypothetical protein" points="590,10 597,40 590,70" fill="rgb(255,255,255)" fill-opacity="1.0" stroke="rgb(0,0,0)" stroke-width="2"  />
		</g>
		<g>
			<title> (PUNSTDRAFT_143069)
pyranose dehydrogenase</title>
			<polygon class=" (PUNSTDRAFT_143069)
pyranose dehydrogenase" points="605,25 658,25 658,10 688,40 658,70 658,55 605,55" fill="rgb(255,255,255)" fill-opacity="1.0" stroke="rgb(0,0,0)" stroke-width="2"  />
			<g>
				<title>GMC_oxred_N (PF00732)
"GMC oxidoreductase"</title>
				<rect class="PF00732" x="608" y="28" stroke-linejoin="round" width="31" height="24" fill="rgb(180,89,214)" stroke="rgb(143,71,171)" stroke-width="1" opacity="0.75" />
			</g>
			<g>
				<title>GMC_oxred_C (PF05199)
"GMC oxidoreductase"</title>
				<rect class="PF05199" x="649" y="28" stroke-linejoin="round" width="14" height="24" fill="rgb(186,52,106)" stroke="rgb(148,41,84)" stroke-width="1" opacity="0.75" />
			</g>
		</g>
		<g>
			<title> (PUNSTDRAFT_143070)
cytochrome P450</title>
			<polygon class=" (PUNSTDRAFT_143070)
cytochrome P450" points="744,25 786,25 786,10 816,40 786,70 786,55 744,55" fill="rgb(255,255,255)" fill-opacity="1.0" stroke="rgb(0,0,0)" stroke-width="2"  />
			<g>
				<title>p450 (PF00067)
"Cytochrome P450"</title>
				<rect class="PF00067" x="747" y="28" stroke-linejoin="round" width="45" height="24" fill="rgb(85,216,107)" stroke="rgb(68,172,85)" stroke-width="1" opacity="0.75" />
			</g>
		</g>
		<g>
			<title> (PUNSTDRAFT_143071)
hypothetical protein</title>
			<polygon class=" (PUNSTDRAFT_143071)
hypothetical protein" points="877,25 868,25 868,10 838,40 868,70 868,55 877,55" fill="rgb(255,255,255)" fill-opacity="1.0" stroke="rgb(0,0,0)" stroke-width="2"  />
			<g>
				<title>PAP2_3 (PF14378)
"PAP2 superfamily"</title>
				<polygon class="PF14378" points="847,35 854,28 865,28 865,52 854,52 847,45" stroke-linejoin="round" width="18" height="24" fill="rgb(89,191,133)" stroke="rgb(71,152,106)" stroke-width="1" opacity="0.75" />
			</g>
		</g>
		<g>
			<title> (PUNSTDRAFT_51781)
hypothetical protein</title>
			<polygon class=" (PUNSTDRAFT_51781)
hypothetical protein" points="924,10 940,40 924,70" fill="rgb(255,255,255)" fill-opacity="1.0" stroke="rgb(0,0,0)" stroke-width="2"  />
		</g>
		<g>
			<title> (PUNSTDRAFT_51782)
hypothetical protein</title>
			<polygon class=" (PUNSTDRAFT_51782)
hypothetical protein" points="964,40 972,10 972,70" fill="rgb(255,255,255)" fill-opacity="1.0" stroke="rgb(0,0,0)" stroke-width="2"  />
		</g>
		<g>
			<title> (PUNSTDRAFT_51783)
hypothetical protein</title>
			<polygon class=" (PUNSTDRAFT_51783)
hypothetical protein" points="1030,25 1035,25 1035,10 1065,40 1035,70 1035,55 1030,55" fill="rgb(255,255,255)" fill-opacity="1.0" stroke="rgb(0,0,0)" stroke-width="2"  />
		</g>
		<g>
			<title> (PUNSTDRAFT_101403)
cystathionine beta-synthase</title>
			<polygon class=" (PUNSTDRAFT_101403)
cystathionine beta-synthase" points="1137,25 1113,25 1113,10 1083,40 1113,70 1113,55 1137,55" fill="rgb(255,255,255)" fill-opacity="1.0" stroke="rgb(0,0,0)" stroke-width="2"  />
			<g>
				<title>PALP (PF00291)
"Pyridoxal-phosphate dependent enzyme"</title>
				<rect class="PF00291" x="1104" y="28" stroke-linejoin="round" width="31" height="24" fill="rgb(180,55,145)" stroke="rgb(144,44,116)" stroke-width="1" opacity="0.75" />
			</g>
		</g>
	</g>
</svg>
