<svg version="1.1" baseProfile="full" xmlns="http://www.w3.org/2000/svg" width="2388.5333333333333" height="80">
	<g>
		<line x1="10" y1="40.0" x2="2378.5333333333333" y2="40.0" style="stroke:rgb(70,70,70); stroke-width:3 "/>
		<g>
			<title> (PDE_04008)
hypothetical protein</title>
			<polygon class=" (PDE_04008)
hypothetical protein" points="10,25 43,25 43,10 73,40 43,70 43,55 10,55" fill="rgb(255,255,255)" fill-opacity="1.0" stroke="rgb(0,0,0)" stroke-width="2"  />
			<g>
				<title>MFS_1 (PF07690)
"Major Facilitator Superfamily"</title>
				<rect class="PF07690" x="14" y="28" stroke-linejoin="round" width="40" height="24" fill="rgb(193,224,74)" stroke="rgb(154,179,59)" stroke-width="1" opacity="0.75" />
			</g>
		</g>
		<g>
			<title> (PDE_04009)
hypothetical protein</title>
			<polygon class=" (PDE_04009)
hypothetical protein" points="181,25 154,25 154,10 124,40 154,70 154,55 181,55" fill="rgb(255,255,255)" fill-opacity="1.0" stroke="rgb(0,0,0)" stroke-width="2"  />
			<g>
				<title>Zn_clus (PF00172)
"Fungal Zn(2)-Cys(6) binuclear cluster domain"</title>
				<rect class="PF00172" x="175" y="28" stroke-linejoin="round" width="4" height="24" fill="rgb(121,178,76)" stroke="rgb(96,142,60)" stroke-width="1" opacity="0.75" />
			</g>
		</g>
		<g>
			<title> (PDE_04010)
hypothetical protein</title>
			<polygon class=" (PDE_04010)
hypothetical protein" points="245,40 262,10 262,70" fill="rgb(255,255,255)" fill-opacity="1.0" stroke="rgb(0,0,0)" stroke-width="2"  />
		</g>
		<g>
			<title> (PDE_04011)
hypothetical protein</title>
			<polygon class=" (PDE_04011)
hypothetical protein" points="265,25 281,25 281,10 311,40 281,70 281,55 265,55" fill="rgb(255,255,255)" fill-opacity="1.0" stroke="rgb(0,0,0)" stroke-width="2"  />
		</g>
		<g>
			<title> (PDE_04012)
hypothetical protein</title>
			<polygon class=" (PDE_04012)
hypothetical protein" points="442,25 437,25 437,10 407,40 437,70 437,55 442,55" fill="rgb(255,255,255)" fill-opacity="1.0" stroke="rgb(0,0,0)" stroke-width="2"  />
			<g>
				<title>HLH (PF00010)
"Helix-loop-helix DNA-binding domain"</title>
				<polygon class="PF00010" points="412,39 420,31 420,49 412,41" stroke-linejoin="round" width="8" height="24" fill="rgb(222,56,154)" stroke="rgb(177,44,123)" stroke-width="1" opacity="0.75" />
			</g>
		</g>
		<g>
			<title> (PDE_04014)
hypothetical protein</title>
			<polygon class=" (PDE_04014)
hypothetical protein" points="701,25 580,25 580,10 550,40 580,70 580,55 701,55" fill="rgb(255,255,255)" fill-opacity="1.0" stroke="rgb(0,0,0)" stroke-width="2"  />
			<g>
				<title>PIF1 (PF05970)
"PIF1-like helicase"</title>
				<rect class="PF05970" x="568" y="28" stroke-linejoin="round" width="17" height="24" fill="rgb(94,205,197)" stroke="rgb(75,164,157)" stroke-width="1" opacity="0.75" />
			</g>
			<g>
				<title>Helitron_like_N (PF14214)
"Helitron helicase-like domain at N-terminus"</title>
				<rect class="PF14214" x="624" y="28" stroke-linejoin="round" width="20" height="24" fill="rgb(183,115,89)" stroke="rgb(146,92,71)" stroke-width="1" opacity="0.75" />
			</g>
			<g>
				<title>DUF6570 (PF20209)
"Domain of unknown function (DUF6570)"</title>
				<rect class="PF20209" x="661" y="28" stroke-linejoin="round" width="14" height="24" fill="rgb(73,229,74)" stroke="rgb(58,183,59)" stroke-width="1" opacity="0.75" />
			</g>
		</g>
		<g>
			<title> (PDE_04015)
hypothetical protein</title>
			<polygon class=" (PDE_04015)
hypothetical protein" points="803,25 769,25 769,10 739,40 769,70 769,55 803,55" fill="rgb(255,255,255)" fill-opacity="1.0" stroke="rgb(0,0,0)" stroke-width="2"  />
			<g>
				<title>p450 (PF00067)
"Cytochrome P450"</title>
				<rect class="PF00067" x="756" y="28" stroke-linejoin="round" width="27" height="24" fill="rgb(85,216,107)" stroke="rgb(68,172,85)" stroke-width="1" opacity="0.75" />
			</g>
			<g>
				<title>p450 (PF00067)
"Cytochrome P450"</title>
				<rect class="PF00067" x="783" y="28" stroke-linejoin="round" width="14" height="24" fill="rgb(85,216,107)" stroke="rgb(68,172,85)" stroke-width="1" opacity="0.75" />
			</g>
		</g>
		<g>
			<title> (PDE_04016)
hypothetical protein</title>
			<polygon class=" (PDE_04016)
hypothetical protein" points="813,25 835,25 835,10 865,40 835,70 835,55 813,55" fill="rgb(255,255,255)" fill-opacity="1.0" stroke="rgb(0,0,0)" stroke-width="2"  />
			<g>
				<title>p450 (PF00067)
"Cytochrome P450"</title>
				<polygon class="PF00067" points="816,28 848,28 860,40 860,40 848,52 816,52" stroke-linejoin="round" width="44" height="24" fill="rgb(85,216,107)" stroke="rgb(68,172,85)" stroke-width="1" opacity="0.75" />
			</g>
		</g>
		<g>
			<title> (PDE_04017)
hypothetical protein</title>
			<polygon class=" (PDE_04017)
hypothetical protein" points="948,25 1337,25 1337,10 1367,40 1337,70 1337,55 948,55" fill="rgb(255,255,255)" fill-opacity="1.0" stroke="rgb(0,0,0)" stroke-width="2"  />
			<g>
				<title>ketoacyl-synt (PF00109)
"Beta-ketoacyl synthase, N-terminal domain"</title>
				<rect class="PF00109" x="948" y="28" stroke-linejoin="round" width="25" height="24" fill="rgb(112,116,228)" stroke="rgb(89,92,182)" stroke-width="1" opacity="0.75" />
			</g>
			<g>
				<title>Ketoacyl-synt_C (PF02801)
"Beta-ketoacyl synthase, C-terminal domain"</title>
				<rect class="PF02801" x="974" y="28" stroke-linejoin="round" width="12" height="24" fill="rgb(215,78,102)" stroke="rgb(172,62,81)" stroke-width="1" opacity="0.75" />
			</g>
			<g>
				<title>KAsynt_C_assoc (PF16197)
"Ketoacyl-synthetase C-terminal extension"</title>
				<rect class="PF16197" x="987" y="28" stroke-linejoin="round" width="11" height="24" fill="rgb(240,150,172)" stroke="rgb(192,120,137)" stroke-width="1" opacity="0.75" />
			</g>
			<g>
				<title>Acyl_transf_1 (PF00698)
"Acyl transferase domain"</title>
				<rect class="PF00698" x="1003" y="28" stroke-linejoin="round" width="33" height="24" fill="rgb(59,176,209)" stroke="rgb(47,140,167)" stroke-width="1" opacity="0.75" />
			</g>
			<g>
				<title>PS-DH (PF14765)
"Polyketide synthase dehydratase"</title>
				<rect class="PF14765" x="1042" y="28" stroke-linejoin="round" width="30" height="24" fill="rgb(173,56,182)" stroke="rgb(138,44,145)" stroke-width="1" opacity="0.75" />
			</g>
			<g>
				<title>Methyltransf_12 (PF08242)
"Methyltransferase domain"</title>
				<rect class="PF08242" x="1090" y="28" stroke-linejoin="round" width="10" height="24" fill="rgb(187,59,115)" stroke="rgb(149,47,92)" stroke-width="1" opacity="0.75" />
			</g>
			<g>
				<title>KR (PF08659)
"KR domain"</title>
				<rect class="PF08659" x="1159" y="28" stroke-linejoin="round" width="17" height="24" fill="rgb(66,209,188)" stroke="rgb(52,167,150)" stroke-width="1" opacity="0.75" />
			</g>
			<g>
				<title>Condensation (PF00668)
"Condensation domain"</title>
				<rect class="PF00668" x="1208" y="28" stroke-linejoin="round" width="44" height="24" fill="rgb(224,184,98)" stroke="rgb(179,147,78)" stroke-width="1" opacity="0.75" />
			</g>
			<g>
				<title>AMP-binding (PF00501)
"AMP-binding enzyme"</title>
				<rect class="PF00501" x="1254" y="28" stroke-linejoin="round" width="42" height="24" fill="rgb(60,217,223)" stroke="rgb(48,173,178)" stroke-width="1" opacity="0.75" />
			</g>
			<g>
				<title>PP-binding (PF00550)
"Phosphopantetheine attachment site"</title>
				<rect class="PF00550" x="1308" y="28" stroke-linejoin="round" width="6" height="24" fill="rgb(103,191,88)" stroke="rgb(82,152,70)" stroke-width="1" opacity="0.75" />
			</g>
			<g>
				<title>NAD_binding_4 (PF07993)
"Male sterility protein"</title>
				<rect class="PF07993" x="1322" y="28" stroke-linejoin="round" width="22" height="24" fill="rgb(100,212,204)" stroke="rgb(80,169,163)" stroke-width="1" opacity="0.75" />
			</g>
		</g>
		<g>
			<title> (PDE_04019)
hypothetical protein</title>
			<polygon class=" (PDE_04019)
hypothetical protein" points="1749,25 1751,25 1751,10 1781,40 1751,70 1751,55 1749,55" fill="rgb(255,255,255)" fill-opacity="1.0" stroke="rgb(0,0,0)" stroke-width="2"  />
			<g>
				<title>4HBT_2 (PF13279)
"Thioesterase-like superfamily"</title>
				<polygon class="PF13279" points="1757,28 1764,28 1772,36 1772,44 1764,52 1757,52" stroke-linejoin="round" width="15" height="24" fill="rgb(213,114,82)" stroke="rgb(170,91,65)" stroke-width="1" opacity="0.75" />
			</g>
		</g>
		<g>
			<title> (PDE_04020)
hypothetical protein</title>
			<polygon class=" (PDE_04020)
hypothetical protein" points="1837,25 1827,25 1827,10 1797,40 1827,70 1827,55 1837,55" fill="rgb(255,255,255)" fill-opacity="1.0" stroke="rgb(0,0,0)" stroke-width="2"  />
			<g>
				<title>ADH_zinc_N_2 (PF13602)
"Zinc-binding dehydrogenase"</title>
				<polygon class="PF13602" points="1801,40 1813,28 1813,28 1813,52 1813,52" stroke-linejoin="round" width="14" height="24" fill="rgb(101,131,226)" stroke="rgb(80,104,180)" stroke-width="1" opacity="0.75" />
			</g>
		</g>
		<g>
			<title> (PDE_04021)
hypothetical protein</title>
			<polygon class=" (PDE_04021)
hypothetical protein" points="1869,25 1873,25 1873,10 1903,40 1873,70 1873,55 1869,55" fill="rgb(255,255,255)" fill-opacity="1.0" stroke="rgb(0,0,0)" stroke-width="2"  />
			<g>
				<title>NAD_binding_10 (PF13460)
"NAD(P)H-binding"</title>
				<rect class="PF13460" x="1871" y="28" stroke-linejoin="round" width="12" height="24" fill="rgb(188,201,78)" stroke="rgb(150,160,62)" stroke-width="1" opacity="0.75" />
			</g>
		</g>
		<g>
			<title> (PDE_04022)
hypothetical protein</title>
			<polygon class=" (PDE_04022)
hypothetical protein" points="1943,25 1937,25 1937,10 1907,40 1937,70 1937,55 1943,55" fill="rgb(255,255,255)" fill-opacity="1.0" stroke="rgb(0,0,0)" stroke-width="2"  />
			<g>
				<title>WD40 (PF00400)
"WD domain, G-beta repeat"</title>
				<polygon class="PF00400" points="1916,35 1920,31 1920,49 1916,45" stroke-linejoin="round" width="4" height="24" fill="rgb(190,108,62)" stroke="rgb(152,86,49)" stroke-width="1" opacity="0.75" />
			</g>
			<g>
				<title>WD40 (PF00400)
"WD domain, G-beta repeat"</title>
				<rect class="PF00400" x="1929" y="28" stroke-linejoin="round" width="4" height="24" fill="rgb(190,108,62)" stroke="rgb(152,86,49)" stroke-width="1" opacity="0.75" />
			</g>
			<g>
				<title>WD40 (PF00400)
"WD domain, G-beta repeat"</title>
				<rect class="PF00400" x="1938" y="28" stroke-linejoin="round" width="3" height="24" fill="rgb(190,108,62)" stroke="rgb(152,86,49)" stroke-width="1" opacity="0.75" />
			</g>
		</g>
		<g>
			<title> (PDE_04023)
hypothetical protein</title>
			<polygon class=" (PDE_04023)
hypothetical protein" points="2058,25 2056,25 2056,10 2026,40 2056,70 2056,55 2058,55" fill="rgb(255,255,255)" fill-opacity="1.0" stroke="rgb(0,0,0)" stroke-width="2"  />
		</g>
		<g>
			<title> (PDE_04024)
hypothetical protein</title>
			<polygon class=" (PDE_04024)
hypothetical protein" points="2124,25 2109,25 2109,10 2079,40 2109,70 2109,55 2124,55" fill="rgb(255,255,255)" fill-opacity="1.0" stroke="rgb(0,0,0)" stroke-width="2"  />
			<g>
				<title>Aminotran_4 (PF01063)
"Amino-transferase class IV"</title>
				<polygon class="PF01063" points="2093,30 2095,28 2117,28 2117,52 2095,52 2093,50" stroke-linejoin="round" width="24" height="24" fill="rgb(52,144,188)" stroke="rgb(41,115,150)" stroke-width="1" opacity="0.75" />
			</g>
		</g>
		<g>
			<title> (PDE_04025)
hypothetical protein</title>
			<polygon class=" (PDE_04025)
hypothetical protein" points="2132,25 2162,25 2162,10 2192,40 2162,70 2162,55 2132,55" fill="rgb(255,255,255)" fill-opacity="1.0" stroke="rgb(0,0,0)" stroke-width="2"  />
			<g>
				<title>p450 (PF00067)
"Cytochrome P450"</title>
				<polygon class="PF00067" points="2136,28 2176,28 2181,33 2181,47 2176,52 2136,52" stroke-linejoin="round" width="45" height="24" fill="rgb(85,216,107)" stroke="rgb(68,172,85)" stroke-width="1" opacity="0.75" />
			</g>
		</g>
		<g>
			<title> (PDE_04026)
hypothetical protein</title>
			<polygon class=" (PDE_04026)
hypothetical protein" points="2205,40 2224,10 2224,70" fill="rgb(255,255,255)" fill-opacity="1.0" stroke="rgb(0,0,0)" stroke-width="2"  />
		</g>
		<g>
			<title> (PDE_04027)
hypothetical protein</title>
			<polygon class=" (PDE_04027)
hypothetical protein" points="2234,25 2246,25 2246,10 2276,40 2246,70 2246,55 2234,55" fill="rgb(255,255,255)" fill-opacity="1.0" stroke="rgb(0,0,0)" stroke-width="2"  />
			<g>
				<title>FrsA-like (PF06500)
"Esterase FrsA-like"</title>
				<polygon class="PF06500" points="2238,28 2259,28 2260,29 2260,51 2259,52 2238,52" stroke-linejoin="round" width="22" height="24" fill="rgb(65,96,200)" stroke="rgb(51,76,160)" stroke-width="1" opacity="0.75" />
			</g>
		</g>
		<g>
			<title> (PDE_04028)
hypothetical protein</title>
			<polygon class=" (PDE_04028)
hypothetical protein" points="2319,25 2310,25 2310,10 2280,40 2310,70 2310,55 2319,55" fill="rgb(255,255,255)" fill-opacity="1.0" stroke="rgb(0,0,0)" stroke-width="2"  />
		</g>
		<g>
			<title> (PDE_04029)
hypothetical protein</title>
			<polygon class=" (PDE_04029)
hypothetical protein" points="2328,25 2347,25 2347,10 2377,40 2347,70 2347,55 2328,55" fill="rgb(255,255,255)" fill-opacity="1.0" stroke="rgb(0,0,0)" stroke-width="2"  />
		</g>
	</g>
</svg>
