<svg version="1.1" baseProfile="full" xmlns="http://www.w3.org/2000/svg" width="789.3" height="80">
	<g>
		<line x1="10" y1="40.0" x2="779.3" y2="40.0" style="stroke:rgb(70,70,70); stroke-width:3 "/>
		<g>
			<title> (AFUA_6G13920)
adenylate-forming enzyme, putative</title>
			<polygon class=" (AFUA_6G13920)
adenylate-forming enzyme, putative" points="70,25 40,25 40,10 10,40 40,70 40,55 70,55" fill="rgb(255,255,255)" fill-opacity="1.0" stroke="rgb(0,0,0)" stroke-width="2"  />
			<g>
				<title>AMP-binding_C (PF13193)
"AMP-binding enzyme C-terminal domain"</title>
				<polygon class="PF13193" points="14,40 21,33 21,47 14,40" stroke-linejoin="round" width="7" height="24" fill="rgb(182,50,118)" stroke="rgb(145,39,94)" stroke-width="1" opacity="0.75" />
			</g>
			<g>
				<title>AMP-binding (PF00501)
"AMP-binding enzyme"</title>
				<polygon class="PF00501" points="25,29 26,28 67,28 67,52 26,52 25,51" stroke-linejoin="round" width="42" height="24" fill="rgb(60,217,223)" stroke="rgb(48,173,178)" stroke-width="1" opacity="0.75" />
			</g>
		</g>
		<g>
			<title> (AFUA_6G13930)
LovB-like polyketide synthase, putative</title>
			<polygon class=" (AFUA_6G13930)
LovB-like polyketide synthase, putative" points="324,25 108,25 108,10 78,40 108,70 108,55 324,55" fill="rgb(255,255,255)" fill-opacity="1.0" stroke="rgb(0,0,0)" stroke-width="2"  />
			<g>
				<title>PP-binding (PF00550)
"Phosphopantetheine attachment site"</title>
				<polygon class="PF00550" points="82,40 87,35 87,45" stroke-linejoin="round" width="6" height="24" fill="rgb(103,191,88)" stroke="rgb(82,152,70)" stroke-width="1" opacity="0.75" />
			</g>
			<g>
				<title>KR (PF08659)
"KR domain"</title>
				<rect class="PF08659" x="99" y="28" stroke-linejoin="round" width="17" height="24" fill="rgb(66,209,188)" stroke="rgb(52,167,150)" stroke-width="1" opacity="0.75" />
			</g>
			<g>
				<title>PS-DH (PF14765)
"Polyketide synthase dehydratase"</title>
				<rect class="PF14765" x="201" y="28" stroke-linejoin="round" width="29" height="24" fill="rgb(173,56,182)" stroke="rgb(138,44,145)" stroke-width="1" opacity="0.75" />
			</g>
			<g>
				<title>Acyl_transf_1 (PF00698)
"Acyl transferase domain"</title>
				<rect class="PF00698" x="237" y="28" stroke-linejoin="round" width="32" height="24" fill="rgb(59,176,209)" stroke="rgb(47,140,167)" stroke-width="1" opacity="0.75" />
			</g>
			<g>
				<title>KAsynt_C_assoc (PF16197)
"Ketoacyl-synthetase C-terminal extension"</title>
				<rect class="PF16197" x="273" y="28" stroke-linejoin="round" width="11" height="24" fill="rgb(240,150,172)" stroke="rgb(192,120,137)" stroke-width="1" opacity="0.75" />
			</g>
			<g>
				<title>Ketoacyl-synt_C (PF02801)
"Beta-ketoacyl synthase, C-terminal domain"</title>
				<rect class="PF02801" x="285" y="28" stroke-linejoin="round" width="12" height="24" fill="rgb(215,78,102)" stroke="rgb(172,62,81)" stroke-width="1" opacity="0.75" />
			</g>
			<g>
				<title>ketoacyl-synt (PF00109)
"Beta-ketoacyl synthase, N-terminal domain"</title>
				<rect class="PF00109" x="298" y="28" stroke-linejoin="round" width="25" height="24" fill="rgb(112,116,228)" stroke="rgb(89,92,182)" stroke-width="1" opacity="0.75" />
			</g>
		</g>
		<g>
			<title> (AFUA_6G13940)
cytochrome P450 monooxygenase, putative</title>
			<polygon class=" (AFUA_6G13940)
cytochrome P450 monooxygenase, putative" points="340,25 373,25 373,10 403,40 373,70 373,55 340,55" fill="rgb(255,255,255)" fill-opacity="1.0" stroke="rgb(0,0,0)" stroke-width="2"  />
			<g>
				<title>p450 (PF00067)
"Cytochrome P450"</title>
				<polygon class="PF00067" points="354,28 386,28 390,32 390,48 386,52 354,52" stroke-linejoin="round" width="36" height="24" fill="rgb(85,216,107)" stroke="rgb(68,172,85)" stroke-width="1" opacity="0.75" />
			</g>
		</g>
		<g>
			<title> (AFUA_6G13945)
cytochrome P450 monooxygenase, putative</title>
			<polygon class=" (AFUA_6G13945)
cytochrome P450 monooxygenase, putative" points="431,25 460,25 460,10 490,40 460,70 460,55 431,55" fill="rgb(255,255,255)" fill-opacity="1.0" stroke="rgb(0,0,0)" stroke-width="2"  />
			<g>
				<title>p450 (PF00067)
"Cytochrome P450"</title>
				<polygon class="PF00067" points="444,28 473,28 479,34 479,46 473,52 444,52" stroke-linejoin="round" width="35" height="24" fill="rgb(85,216,107)" stroke="rgb(68,172,85)" stroke-width="1" opacity="0.75" />
			</g>
		</g>
		<g>
			<title> (AFUA_6G13950)
integral membrane protein</title>
			<polygon class=" (AFUA_6G13950)
integral membrane protein" points="506,10 532,40 506,70" fill="rgb(255,255,255)" fill-opacity="1.0" stroke="rgb(0,0,0)" stroke-width="2"  />
		</g>
		<g>
			<title> (AFUA_6G13970)
FAD-dependent monooxygenase (PaxM), putative</title>
			<polygon class=" (AFUA_6G13970)
FAD-dependent monooxygenase (PaxM), putative" points="545,25 569,25 569,10 599,40 569,70 569,55 545,55" fill="rgb(255,255,255)" fill-opacity="1.0" stroke="rgb(0,0,0)" stroke-width="2"  />
			<g>
				<title>FAD_binding_3 (PF01494)
"FAD binding domain"</title>
				<rect class="PF01494" x="545" y="28" stroke-linejoin="round" width="34" height="24" fill="rgb(182,175,59)" stroke="rgb(145,140,47)" stroke-width="1" opacity="0.75" />
			</g>
		</g>
		<g>
			<title> (AFUA_6G13980)
UbiA-like prenyltransferase, putative</title>
			<polygon class=" (AFUA_6G13980)
UbiA-like prenyltransferase, putative" points="611,25 617,25 617,10 647,40 617,70 617,55 611,55" fill="rgb(255,255,255)" fill-opacity="1.0" stroke="rgb(0,0,0)" stroke-width="2"  />
			<g>
				<title>UbiA (PF01040)
"UbiA prenyltransferase family"</title>
				<polygon class="PF01040" points="613,28 630,28 640,38 640,42 630,52 613,52" stroke-linejoin="round" width="27" height="24" fill="rgb(189,57,100)" stroke="rgb(151,45,80)" stroke-width="1" opacity="0.75" />
			</g>
		</g>
		<g>
			<title> (AFUA_6G13990)
acetyltransferase, putative</title>
			<polygon class=" (AFUA_6G13990)
acetyltransferase, putative" points="708,25 687,25 687,10 657,40 687,70 687,55 708,55" fill="rgb(255,255,255)" fill-opacity="1.0" stroke="rgb(0,0,0)" stroke-width="2"  />
		</g>
		<g>
			<title> (AFUA_6G14000)
toxin biosynthesis protein Tri7-like, putative</title>
			<polygon class=" (AFUA_6G14000)
toxin biosynthesis protein Tri7-like, putative" points="733,25 748,25 748,10 778,40 748,70 748,55 733,55" fill="rgb(255,255,255)" fill-opacity="1.0" stroke="rgb(0,0,0)" stroke-width="2"  />
			<g>
				<title>MBOAT_2 (PF13813)
"Membrane bound O-acyl transferase family"</title>
				<polygon class="PF13813" points="757,28 762,28 765,31 765,49 762,52 757,52" stroke-linejoin="round" width="8" height="24" fill="rgb(96,197,109)" stroke="rgb(76,157,87)" stroke-width="1" opacity="0.75" />
			</g>
		</g>
	</g>
</svg>
