<svg version="1.1" baseProfile="full" xmlns="http://www.w3.org/2000/svg" width="1422.4666666666667" height="80">
	<g>
		<line x1="10" y1="40.0" x2="1412.4666666666667" y2="40.0" style="stroke:rgb(70,70,70); stroke-width:3 "/>
		<g>
			<title>cmmY
cyclase</title>
			<polygon class="cmmY
cyclase" points="10,40 35,10 35,70" fill="rgb(255,255,255)" fill-opacity="1.0" stroke="rgb(0,0,0)" stroke-width="2"  />
			<g>
				<title>Cyclase (PF04199)
"Putative cyclase"</title>
				<polygon class="PF04199" points="17,37 24,28 35,28 35,52 24,52 17,43" stroke-linejoin="round" width="18" height="24" fill="rgb(140,47,181)" stroke="rgb(112,37,144)" stroke-width="1" opacity="0.75" />
			</g>
		</g>
		<g>
			<title>cmmTI
ketoreductase</title>
			<polygon class="cmmTI
ketoreductase" points="37,40 62,10 62,70" fill="rgb(255,255,255)" fill-opacity="1.0" stroke="rgb(0,0,0)" stroke-width="2"  />
			<g>
				<title>adh_short_C2 (PF13561)
"Enoyl-(Acyl carrier protein) reductase"</title>
				<polygon class="PF13561" points="41,40 51,28 60,28 60,52 51,52" stroke-linejoin="round" width="23" height="24" fill="rgb(73,205,127)" stroke="rgb(58,164,101)" stroke-width="1" opacity="0.75" />
			</g>
		</g>
		<g>
			<title>cmmS
acyl carrier protein</title>
			<polygon class="cmmS
acyl carrier protein" points="62,40 70,10 70,70" fill="rgb(255,255,255)" fill-opacity="1.0" stroke="rgb(0,0,0)" stroke-width="2"  />
			<g>
				<title>PP-binding (PF00550)
"Phosphopantetheine attachment site"</title>
				<polygon class="PF00550" points="65,40 68,28 69,28 69,52 68,52" stroke-linejoin="round" width="7" height="24" fill="rgb(103,191,88)" stroke="rgb(82,152,70)" stroke-width="1" opacity="0.75" />
			</g>
		</g>
		<g>
			<title>cmmV
NDP-2,3-dehydratase</title>
			<polygon class="cmmV
NDP-2,3-dehydratase" points="78,25 94,25 94,10 124,40 94,70 94,55 78,55" fill="rgb(255,255,255)" fill-opacity="1.0" stroke="rgb(0,0,0)" stroke-width="2"  />
			<g>
				<title>Hexose_dehydrat (PF03559)
"NDP-hexose 2,3-dehydratase"</title>
				<rect class="PF03559" x="81" y="28" stroke-linejoin="round" width="20" height="24" fill="rgb(74,201,66)" stroke="rgb(59,160,52)" stroke-width="1" opacity="0.75" />
			</g>
			<g>
				<title>Hexose_dehydrat (PF03559)
"NDP-hexose 2,3-dehydratase"</title>
				<polygon class="PF03559" points="102,28 107,28 119,40 107,52 102,52" stroke-linejoin="round" width="20" height="24" fill="rgb(74,201,66)" stroke="rgb(59,160,52)" stroke-width="1" opacity="0.75" />
			</g>
		</g>
		<g>
			<title>cmmW
NDP-3-ketoreductase</title>
			<polygon class="cmmW
NDP-3-ketoreductase" points="123,25 126,25 126,10 156,40 126,70 126,55 123,55" fill="rgb(255,255,255)" fill-opacity="1.0" stroke="rgb(0,0,0)" stroke-width="2"  />
			<g>
				<title>GFO_IDH_MocA (PF01408)
"Oxidoreductase family, NAD-binding Rossmann fold"</title>
				<rect class="PF01408" x="123" y="28" stroke-linejoin="round" width="11" height="24" fill="rgb(76,117,190)" stroke="rgb(60,93,152)" stroke-width="1" opacity="0.75" />
			</g>
			<g>
				<title>GFO_IDH_MocA_C (PF02894)
"Oxidoreductase family, C-terminal alpha/beta domain"</title>
				<polygon class="PF02894" points="136,28 140,28 152,40 140,52 136,52" stroke-linejoin="round" width="19" height="24" fill="rgb(195,223,82)" stroke="rgb(155,178,65)" stroke-width="1" opacity="0.75" />
			</g>
		</g>
		<g>
			<title>cmmUII
NDP-4-ketoreductase</title>
			<polygon class="cmmUII
NDP-4-ketoreductase" points="157,10 182,40 157,70" fill="rgb(255,255,255)" fill-opacity="1.0" stroke="rgb(0,0,0)" stroke-width="2"  />
			<g>
				<title>Epimerase (PF01370)
"NAD dependent epimerase/dehydratase family"</title>
				<polygon class="PF01370" points="158,28 168,28 174,35 174,45 168,52 158,52" stroke-linejoin="round" width="16" height="24" fill="rgb(98,102,214)" stroke="rgb(78,81,171)" stroke-width="1" opacity="0.75" />
			</g>
		</g>
		<g>
			<title>cmmOI
oxygenase</title>
			<polygon class="cmmOI
oxygenase" points="238,25 249,25 249,10 279,40 249,70 249,55 238,55" fill="rgb(255,255,255)" fill-opacity="1.0" stroke="rgb(0,0,0)" stroke-width="2"  />
			<g>
				<title>FAD_binding_3 (PF01494)
"FAD binding domain"</title>
				<polygon class="PF01494" points="239,28 263,28 273,38 273,42 263,52 239,52" stroke-linejoin="round" width="34" height="24" fill="rgb(182,175,59)" stroke="rgb(145,140,47)" stroke-width="1" opacity="0.75" />
			</g>
		</g>
		<g>
			<title>cmmX
cyclase</title>
			<polygon class="cmmX
cyclase" points="282,10 296,40 282,70" fill="rgb(255,255,255)" fill-opacity="1.0" stroke="rgb(0,0,0)" stroke-width="2"  />
			<g>
				<title>SnoaL_4 (PF13577)
"SnoaL-like domain"</title>
				<polygon class="PF13577" points="282,28 287,28 292,40 287,52 282,52" stroke-linejoin="round" width="12" height="24" fill="rgb(68,223,209)" stroke="rgb(54,178,167)" stroke-width="1" opacity="0.75" />
			</g>
		</g>
		<g>
			<title>cmmK
ketosynthase</title>
			<polygon class="cmmK
ketosynthase" points="341,25 329,25 329,10 299,40 329,70 329,55 341,55" fill="rgb(255,255,255)" fill-opacity="1.0" stroke="rgb(0,0,0)" stroke-width="2"  />
			<g>
				<title>Ketoacyl-synt_C (PF02801)
"Beta-ketoacyl synthase, C-terminal domain"</title>
				<polygon class="PF02801" points="305,38 315,28 316,28 316,52 315,52 305,42" stroke-linejoin="round" width="11" height="24" fill="rgb(215,78,102)" stroke="rgb(172,62,81)" stroke-width="1" opacity="0.75" />
			</g>
			<g>
				<title>ketoacyl-synt (PF00109)
"Beta-ketoacyl synthase, N-terminal domain"</title>
				<rect class="PF00109" x="317" y="28" stroke-linejoin="round" width="24" height="24" fill="rgb(112,116,228)" stroke="rgb(89,92,182)" stroke-width="1" opacity="0.75" />
			</g>
		</g>
		<g>
			<title>cmmP
ketosynthase</title>
			<polygon class="cmmP
ketosynthase" points="383,25 371,25 371,10 341,40 371,70 371,55 383,55" fill="rgb(255,255,255)" fill-opacity="1.0" stroke="rgb(0,0,0)" stroke-width="2"  />
			<g>
				<title>Ketoacyl-synt_C (PF02801)
"Beta-ketoacyl synthase, C-terminal domain"</title>
				<polygon class="PF02801" points="345,40 356,29 356,51 345,40" stroke-linejoin="round" width="11" height="24" fill="rgb(215,78,102)" stroke="rgb(172,62,81)" stroke-width="1" opacity="0.75" />
			</g>
			<g>
				<title>ketoacyl-synt (PF00109)
"Beta-ketoacyl synthase, N-terminal domain"</title>
				<rect class="PF00109" x="358" y="28" stroke-linejoin="round" width="25" height="24" fill="rgb(112,116,228)" stroke="rgb(89,92,182)" stroke-width="1" opacity="0.75" />
			</g>
		</g>
		<g>
			<title>cmmE
NDP-4,6-dehydratase</title>
			<polygon class="cmmE
NDP-4,6-dehydratase" points="416,25 414,25 414,10 384,40 414,70 414,55 416,55" fill="rgb(255,255,255)" fill-opacity="1.0" stroke="rgb(0,0,0)" stroke-width="2"  />
			<g>
				<title>GDP_Man_Dehyd (PF16363)
"GDP-mannose 4,6 dehydratase"</title>
				<polygon class="PF16363" points="388,40 400,28 416,28 416,52 400,52" stroke-linejoin="round" width="30" height="24" fill="rgb(162,221,65)" stroke="rgb(129,176,51)" stroke-width="1" opacity="0.75" />
			</g>
		</g>
		<g>
			<title>cmmD
NDP-glucose synthase</title>
			<polygon class="cmmD
NDP-glucose synthase" points="451,25 446,25 446,10 416,40 446,70 446,55 451,55" fill="rgb(255,255,255)" fill-opacity="1.0" stroke="rgb(0,0,0)" stroke-width="2"  />
			<g>
				<title>NTP_transferase (PF00483)
"Nucleotidyl transferase"</title>
				<polygon class="PF00483" points="427,33 432,28 450,28 450,52 432,52 427,47" stroke-linejoin="round" width="23" height="24" fill="rgb(198,101,87)" stroke="rgb(158,80,69)" stroke-width="1" opacity="0.75" />
			</g>
		</g>
		<g>
			<title>cmmMIII
sugar O-methyltransferase</title>
			<polygon class="cmmMIII
sugar O-methyltransferase" points="458,10 483,40 458,70" fill="rgb(255,255,255)" fill-opacity="1.0" stroke="rgb(0,0,0)" stroke-width="2"  />
			<g>
				<title>TylF (PF05711)
"Macrocin-O-methyltransferase (TylF)"</title>
				<polygon class="PF05711" points="458,28 469,28 479,40 469,52 458,52" stroke-linejoin="round" width="24" height="24" fill="rgb(175,228,98)" stroke="rgb(139,182,78)" stroke-width="1" opacity="0.75" />
			</g>
		</g>
		<g>
			<title>cmmRI
transcriptional regulator</title>
			<polygon class="cmmRI
transcriptional regulator" points="517,25 517,25 517,10 487,40 517,70 517,55 517,55" fill="rgb(255,255,255)" fill-opacity="1.0" stroke="rgb(0,0,0)" stroke-width="2"  />
			<g>
				<title>BTAD (PF03704)
"Bacterial transcriptional activator domain"</title>
				<polygon class="PF03704" points="491,40 503,28 504,28 504,52 503,52" stroke-linejoin="round" width="14" height="24" fill="rgb(217,89,196)" stroke="rgb(173,71,156)" stroke-width="1" opacity="0.75" />
			</g>
			<g>
				<title>Trans_reg_C (PF00486)
"Transcriptional regulatory protein, C terminal"</title>
				<rect class="PF00486" x="506" y="28" stroke-linejoin="round" width="7" height="24" fill="rgb(204,153,57)" stroke="rgb(163,122,45)" stroke-width="1" opacity="0.75" />
			</g>
		</g>
		<g>
			<title>cmmMII
C-methyltransferase</title>
			<polygon class="cmmMII
C-methyltransferase" points="532,25 536,25 536,10 566,40 536,70 536,55 532,55" fill="rgb(255,255,255)" fill-opacity="1.0" stroke="rgb(0,0,0)" stroke-width="2"  />
			<g>
				<title>Dimerisation2 (PF16864)
"Dimerisation domain"</title>
				<rect class="PF16864" x="533" y="28" stroke-linejoin="round" width="8" height="24" fill="rgb(84,199,85)" stroke="rgb(67,159,68)" stroke-width="1" opacity="0.75" />
			</g>
			<g>
				<title>Methyltransf_2 (PF00891)
"O-methyltransferase domain"</title>
				<polygon class="PF00891" points="546,28 550,28 562,40 550,52 546,52" stroke-linejoin="round" width="17" height="24" fill="rgb(50,51,190)" stroke="rgb(39,40,152)" stroke-width="1" opacity="0.75" />
			</g>
		</g>
		<g>
			<title>cmmUI
NDP-4-ketoreductase</title>
			<polygon class="cmmUI
NDP-4-ketoreductase" points="567,10 592,40 567,70" fill="rgb(255,255,255)" fill-opacity="1.0" stroke="rgb(0,0,0)" stroke-width="2"  />
			<g>
				<title>Epimerase (PF01370)
"NAD dependent epimerase/dehydratase family"</title>
				<polygon class="PF01370" points="568,28 578,28 584,36 584,44 578,52 568,52" stroke-linejoin="round" width="16" height="24" fill="rgb(98,102,214)" stroke="rgb(78,81,171)" stroke-width="1" opacity="0.75" />
			</g>
		</g>
		<g>
			<title>cmmMI
O-methyltransferase</title>
			<polygon class="cmmMI
O-methyltransferase" points="594,25 599,25 599,10 629,40 599,70 599,55 594,55" fill="rgb(255,255,255)" fill-opacity="1.0" stroke="rgb(0,0,0)" stroke-width="2"  />
			<g>
				<title>Dimerisation2 (PF16864)
"Dimerisation domain"</title>
				<rect class="PF16864" x="595" y="28" stroke-linejoin="round" width="8" height="24" fill="rgb(84,199,85)" stroke="rgb(67,159,68)" stroke-width="1" opacity="0.75" />
			</g>
			<g>
				<title>Methyltransf_2 (PF00891)
"O-methyltransferase domain"</title>
				<polygon class="PF00891" points="605,28 613,28 625,40 613,52 605,52" stroke-linejoin="round" width="21" height="24" fill="rgb(50,51,190)" stroke="rgb(39,40,152)" stroke-width="1" opacity="0.75" />
			</g>
		</g>
		<g>
			<title>cmmGI
glycosyltransferase</title>
			<polygon class="cmmGI
glycosyltransferase" points="630,25 639,25 639,10 669,40 639,70 639,55 630,55" fill="rgb(255,255,255)" fill-opacity="1.0" stroke="rgb(0,0,0)" stroke-width="2"  />
			<g>
				<title>DUF1205 (PF06722)
"Protein of unknown function (DUF1205)"</title>
				<polygon class="PF06722" points="647,28 653,28 656,31 656,49 653,52 647,52" stroke-linejoin="round" width="9" height="24" fill="rgb(200,129,88)" stroke="rgb(160,103,70)" stroke-width="1" opacity="0.75" />
			</g>
		</g>
		<g>
			<title>cmmOIV
oxygenase</title>
			<polygon class="cmmOIV
oxygenase" points="670,25 690,25 690,10 720,40 690,70 690,55 670,55" fill="rgb(255,255,255)" fill-opacity="1.0" stroke="rgb(0,0,0)" stroke-width="2"  />
			<g>
				<title>FAD_binding_3 (PF01494)
"FAD binding domain"</title>
				<rect class="PF01494" x="670" y="28" stroke-linejoin="round" width="33" height="24" fill="rgb(182,175,59)" stroke="rgb(145,140,47)" stroke-width="1" opacity="0.75" />
			</g>
		</g>
		<g>
			<title>cmmWI
side-chain ketoreductase</title>
			<polygon class="cmmWI
side-chain ketoreductase" points="721,25 723,25 723,10 753,40 723,70 723,55 721,55" fill="rgb(255,255,255)" fill-opacity="1.0" stroke="rgb(0,0,0)" stroke-width="2"  />
			<g>
				<title>Aldo_ket_red (PF00248)
"Aldo/keto reductase family"</title>
				<polygon class="PF00248" points="722,28 737,28 749,40 737,52 722,52" stroke-linejoin="round" width="30" height="24" fill="rgb(225,205,58)" stroke="rgb(180,164,46)" stroke-width="1" opacity="0.75" />
			</g>
		</g>
		<g>
			<title>cmmLI
acyl CoA ligase</title>
			<polygon class="cmmLI
acyl CoA ligase" points="754,25 765,25 765,10 795,40 765,70 765,55 754,55" fill="rgb(255,255,255)" fill-opacity="1.0" stroke="rgb(0,0,0)" stroke-width="2"  />
			<g>
				<title>AMP-binding (PF00501)
"AMP-binding enzyme"</title>
				<polygon class="PF00501" points="755,28 779,28 791,40 779,52 755,52" stroke-linejoin="round" width="39" height="24" fill="rgb(60,217,223)" stroke="rgb(48,173,178)" stroke-width="1" opacity="0.75" />
			</g>
		</g>
		<g>
			<title>cmrB
membrane protein</title>
			<polygon class="cmrB
membrane protein" points="798,40 823,10 823,70" fill="rgb(255,255,255)" fill-opacity="1.0" stroke="rgb(0,0,0)" stroke-width="2"  />
			<g>
				<title>ABC2_membrane (PF01061)
"ABC-2 type transporter"</title>
				<polygon class="PF01061" points="802,40 812,28 822,28 822,52 812,52" stroke-linejoin="round" width="21" height="24" fill="rgb(139,217,106)" stroke="rgb(111,173,84)" stroke-width="1" opacity="0.75" />
			</g>
		</g>
		<g>
			<title>cmrA
ATP-binding protein</title>
			<polygon class="cmrA
ATP-binding protein" points="855,25 853,25 853,10 823,40 853,70 853,55 855,55" fill="rgb(255,255,255)" fill-opacity="1.0" stroke="rgb(0,0,0)" stroke-width="2"  />
			<g>
				<title>DUF4162 (PF13732)
"Domain of unknown function (DUF4162)"</title>
				<polygon class="PF13732" points="827,40 832,35 832,45" stroke-linejoin="round" width="8" height="24" fill="rgb(100,223,143)" stroke="rgb(80,178,114)" stroke-width="1" opacity="0.75" />
			</g>
			<g>
				<title>ABC_tran (PF00005)
"ABC transporter"</title>
				<polygon class="PF00005" points="839,28 839,28 853,28 853,52 839,52 839,52" stroke-linejoin="round" width="14" height="24" fill="rgb(129,201,63)" stroke="rgb(103,160,50)" stroke-width="1" opacity="0.75" />
			</g>
		</g>
		<g>
			<title>cmmRII
transcriptional regulator</title>
			<polygon class="cmmRII
transcriptional regulator" points="856,40 875,10 875,70" fill="rgb(255,255,255)" fill-opacity="1.0" stroke="rgb(0,0,0)" stroke-width="2"  />
			<g>
				<title>PadR (PF03551)
"Transcriptional regulator PadR-like family"</title>
				<polygon class="PF03551" points="868,28 868,28 875,28 875,52 868,52 868,52" stroke-linejoin="round" width="7" height="24" fill="rgb(210,176,95)" stroke="rgb(168,140,76)" stroke-width="1" opacity="0.75" />
			</g>
		</g>
		<g>
			<title>cmrX
UV-repair protein</title>
			<polygon class="cmrX
UV-repair protein" points="879,25 931,25 931,10 961,40 931,70 931,55 879,55" fill="rgb(255,255,255)" fill-opacity="1.0" stroke="rgb(0,0,0)" stroke-width="2"  />
			<g>
				<title>UvrA_DNA-bind (PF17755)
"UvrA DNA-binding domain"</title>
				<rect class="PF17755" x="896" y="28" stroke-linejoin="round" width="11" height="24" fill="rgb(175,198,76)" stroke="rgb(140,158,60)" stroke-width="1" opacity="0.75" />
			</g>
		</g>
		<g>
			<title>cmmC
NDP-C-methyltransferase</title>
			<polygon class="cmmC
NDP-C-methyltransferase" points="968,25 978,25 978,10 1008,40 978,70 978,55 968,55" fill="rgb(255,255,255)" fill-opacity="1.0" stroke="rgb(0,0,0)" stroke-width="2"  />
			<g>
				<title>Methyltransf_13 (PF08421)
"Putative zinc binding domain"</title>
				<rect class="PF08421" x="968" y="28" stroke-linejoin="round" width="5" height="24" fill="rgb(209,96,160)" stroke="rgb(167,76,128)" stroke-width="1" opacity="0.75" />
			</g>
			<g>
				<title>Methyltransf_23 (PF13489)
"Methyltransferase domain"</title>
				<rect class="PF13489" x="975" y="28" stroke-linejoin="round" width="16" height="24" fill="rgb(188,189,66)" stroke="rgb(150,151,52)" stroke-width="1" opacity="0.75" />
			</g>
			<g>
				<title>Methyltransf_14 (PF08484)
"C-methyltransferase C-terminal domain"</title>
				<polygon class="PF08484" points="992,28 992,28 1004,40 992,52 992,52" stroke-linejoin="round" width="15" height="24" fill="rgb(229,72,107)" stroke="rgb(183,57,85)" stroke-width="1" opacity="0.75" />
			</g>
		</g>
		<g>
			<title>cmmUIII
NDP-4-ketoreductase</title>
			<polygon class="cmmUIII
NDP-4-ketoreductase" points="1043,25 1038,25 1038,10 1008,40 1038,70 1038,55 1043,55" fill="rgb(255,255,255)" fill-opacity="1.0" stroke="rgb(0,0,0)" stroke-width="2"  />
			<g>
				<title>Epimerase (PF01370)
"NAD dependent epimerase/dehydratase family"</title>
				<polygon class="PF01370" points="1018,34 1024,28 1042,28 1042,52 1024,52 1018,46" stroke-linejoin="round" width="24" height="24" fill="rgb(98,102,214)" stroke="rgb(78,81,171)" stroke-width="1" opacity="0.75" />
			</g>
		</g>
		<g>
			<title>cmmGIII
glycosyltransferase</title>
			<polygon class="cmmGIII
glycosyltransferase" points="1083,25 1074,25 1074,10 1044,40 1074,70 1074,55 1083,55" fill="rgb(255,255,255)" fill-opacity="1.0" stroke="rgb(0,0,0)" stroke-width="2"  />
			<g>
				<title>DUF1205 (PF06722)
"Protein of unknown function (DUF1205)"</title>
				<polygon class="PF06722" points="1055,33 1060,28 1064,28 1064,52 1060,52 1055,47" stroke-linejoin="round" width="9" height="24" fill="rgb(200,129,88)" stroke="rgb(160,103,70)" stroke-width="1" opacity="0.75" />
			</g>
		</g>
		<g>
			<title>cmmA
acetyltransferase</title>
			<polygon class="cmmA
acetyltransferase" points="1126,25 1114,25 1114,10 1084,40 1114,70 1114,55 1126,55" fill="rgb(255,255,255)" fill-opacity="1.0" stroke="rgb(0,0,0)" stroke-width="2"  />
			<g>
				<title>Acyl_transf_3 (PF01757)
"Acyltransferase family"</title>
				<polygon class="PF01757" points="1088,40 1100,28 1124,28 1124,52 1100,52 1088,40" stroke-linejoin="round" width="36" height="24" fill="rgb(50,152,200)" stroke="rgb(40,121,160)" stroke-width="1" opacity="0.75" />
			</g>
		</g>
		<g>
			<title>cmmGIV
glycosyltransferase</title>
			<polygon class="cmmGIV
glycosyltransferase" points="1168,25 1156,25 1156,10 1126,40 1156,70 1156,55 1168,55" fill="rgb(255,255,255)" fill-opacity="1.0" stroke="rgb(0,0,0)" stroke-width="2"  />
			<g>
				<title>DUF1205 (PF06722)
"Protein of unknown function (DUF1205)"</title>
				<polygon class="PF06722" points="1139,31 1142,28 1148,28 1148,52 1142,52 1139,49" stroke-linejoin="round" width="9" height="24" fill="rgb(200,129,88)" stroke="rgb(160,103,70)" stroke-width="1" opacity="0.75" />
			</g>
		</g>
		<g>
			<title>cmmGII
glycosyltransferase</title>
			<polygon class="cmmGII
glycosyltransferase" points="1173,25 1182,25 1182,10 1212,40 1182,70 1182,55 1173,55" fill="rgb(255,255,255)" fill-opacity="1.0" stroke="rgb(0,0,0)" stroke-width="2"  />
			<g>
				<title>DUF1205 (PF06722)
"Protein of unknown function (DUF1205)"</title>
				<polygon class="PF06722" points="1190,28 1196,28 1199,31 1199,49 1196,52 1190,52" stroke-linejoin="round" width="9" height="24" fill="rgb(200,129,88)" stroke="rgb(160,103,70)" stroke-width="1" opacity="0.75" />
			</g>
		</g>
		<g>
			<title>cmmF
NDP-5-epimerase</title>
			<polygon class="cmmF
NDP-5-epimerase" points="1213,10 1234,40 1213,70" fill="rgb(255,255,255)" fill-opacity="1.0" stroke="rgb(0,0,0)" stroke-width="2"  />
			<g>
				<title>dTDP_sugar_isom (PF00908)
"dTDP-4-dehydrorhamnose 3,5-epimerase"</title>
				<polygon class="PF00908" points="1213,28 1222,28 1230,40 1230,40 1222,52 1213,52" stroke-linejoin="round" width="17" height="24" fill="rgb(184,89,121)" stroke="rgb(147,71,96)" stroke-width="1" opacity="0.75" />
			</g>
		</g>
		<g>
			<title>cmmOII
oxygenase</title>
			<polygon class="cmmOII
oxygenase" points="1235,25 1260,25 1260,10 1290,40 1260,70 1260,55 1235,55" fill="rgb(255,255,255)" fill-opacity="1.0" stroke="rgb(0,0,0)" stroke-width="2"  />
			<g>
				<title>FAD_binding_3 (PF01494)
"FAD binding domain"</title>
				<rect class="PF01494" x="1236" y="28" stroke-linejoin="round" width="33" height="24" fill="rgb(182,175,59)" stroke="rgb(145,140,47)" stroke-width="1" opacity="0.75" />
			</g>
		</g>
		<g>
			<title>cmmTII
ketoreductase</title>
			<polygon class="cmmTII
ketoreductase" points="1291,10 1316,40 1291,70" fill="rgb(255,255,255)" fill-opacity="1.0" stroke="rgb(0,0,0)" stroke-width="2"  />
			<g>
				<title>adh_short_C2 (PF13561)
"Enoyl-(Acyl carrier protein) reductase"</title>
				<polygon class="PF13561" points="1292,28 1302,28 1312,40 1302,52 1292,52" stroke-linejoin="round" width="23" height="24" fill="rgb(73,205,127)" stroke="rgb(58,164,101)" stroke-width="1" opacity="0.75" />
			</g>
		</g>
		<g>
			<title>cmmQ
aromatase</title>
			<polygon class="cmmQ
aromatase" points="1321,25 1322,25 1322,10 1352,40 1322,70 1322,55 1321,55" fill="rgb(255,255,255)" fill-opacity="1.0" stroke="rgb(0,0,0)" stroke-width="2"  />
		</g>
		<g>
			<title>cmmLII
acyl CoA ligase</title>
			<polygon class="cmmLII
acyl CoA ligase" points="1355,25 1377,25 1377,10 1407,40 1377,70 1377,55 1355,55" fill="rgb(255,255,255)" fill-opacity="1.0" stroke="rgb(0,0,0)" stroke-width="2"  />
			<g>
				<title>AMP-binding (PF00501)
"AMP-binding enzyme"</title>
				<polygon class="PF00501" points="1356,28 1391,28 1395,32 1395,48 1391,52 1356,52" stroke-linejoin="round" width="39" height="24" fill="rgb(60,217,223)" stroke="rgb(48,173,178)" stroke-width="1" opacity="0.75" />
			</g>
			<g>
				<title>AMP-binding_C (PF13193)
"AMP-binding enzyme C-terminal domain"</title>
				<polygon class="PF13193" points="1396,33 1403,40 1403,40 1396,47" stroke-linejoin="round" width="7" height="24" fill="rgb(182,50,118)" stroke="rgb(145,39,94)" stroke-width="1" opacity="0.75" />
			</g>
		</g>
	</g>
</svg>
