<svg version="1.1" baseProfile="full" xmlns="http://www.w3.org/2000/svg" width="934.9333333333333" height="80">
	<g>
		<line x1="10" y1="40.0" x2="924.9333333333333" y2="40.0" style="stroke:rgb(70,70,70); stroke-width:3 "/>
		<g>
			<title>pks
Probable Type III PKS</title>
			<polygon class="pks
Probable Type III PKS" points="33,25 38,25 38,10 68,40 38,70 38,55 33,55" fill="rgb(255,255,255)" fill-opacity="1.0" stroke="rgb(0,0,0)" stroke-width="2"  />
			<g>
				<title>Chal_sti_synt_N (PF00195)
"Chalcone and stilbene synthases, N-terminal domain"</title>
				<rect class="PF00195" x="33" y="28" stroke-linejoin="round" width="19" height="24" fill="rgb(60,181,161)" stroke="rgb(47,144,128)" stroke-width="1" opacity="0.75" />
			</g>
			<g>
				<title>Chal_sti_synt_C (PF02797)
"Chalcone and stilbene synthases, C-terminal domain"</title>
				<polygon class="PF02797" points="53,29 64,40 53,51" stroke-linejoin="round" width="14" height="24" fill="rgb(139,212,63)" stroke="rgb(111,169,50)" stroke-width="1" opacity="0.75" />
			</g>
		</g>
		<g>
			<title>
hypothetical protein</title>
			<polygon class="
hypothetical protein" points="69,10 88,40 69,70" fill="rgb(255,255,255)" fill-opacity="1.0" stroke="rgb(0,0,0)" stroke-width="2"  />
			<g>
				<title>Cupin_2 (PF07883)
"Cupin domain"</title>
				<polygon class="PF07883" points="73,28 77,28 81,34 81,46 77,52 73,52" stroke-linejoin="round" width="8" height="24" fill="rgb(211,192,74)" stroke="rgb(168,153,59)" stroke-width="1" opacity="0.75" />
			</g>
		</g>
		<g>
			<title>
hypothetical protein</title>
			<polygon class="
hypothetical protein" points="88,25 96,25 96,10 126,40 96,70 96,55 88,55" fill="rgb(255,255,255)" fill-opacity="1.0" stroke="rgb(0,0,0)" stroke-width="2"  />
			<g>
				<title>DegT_DnrJ_EryC1 (PF01041)
"DegT/DnrJ/EryC1/StrS aminotransferase family"</title>
				<polygon class="PF01041" points="89,28 110,28 122,40 110,52 89,52" stroke-linejoin="round" width="35" height="24" fill="rgb(59,139,191)" stroke="rgb(47,111,152)" stroke-width="1" opacity="0.75" />
			</g>
		</g>
		<g>
			<title>
Probable methyltransferase</title>
			<polygon class="
Probable methyltransferase" points="127,25 130,25 130,10 160,40 130,70 130,55 127,55" fill="rgb(255,255,255)" fill-opacity="1.0" stroke="rgb(0,0,0)" stroke-width="2"  />
			<g>
				<title>Dimerisation2 (PF16864)
"Dimerisation domain"</title>
				<rect class="PF16864" x="128" y="28" stroke-linejoin="round" width="8" height="24" fill="rgb(84,199,85)" stroke="rgb(67,159,68)" stroke-width="1" opacity="0.75" />
			</g>
			<g>
				<title>Methyltransf_2 (PF00891)
"O-methyltransferase domain"</title>
				<polygon class="PF00891" points="141,28 143,28 155,40 143,52 141,52" stroke-linejoin="round" width="17" height="24" fill="rgb(50,51,190)" stroke="rgb(39,40,152)" stroke-width="1" opacity="0.75" />
			</g>
		</g>
		<g>
			<title>
fatty-acid-CoA ligase homolog</title>
			<polygon class="
fatty-acid-CoA ligase homolog" points="161,25 183,25 183,10 213,40 183,70 183,55 161,55" fill="rgb(255,255,255)" fill-opacity="1.0" stroke="rgb(0,0,0)" stroke-width="2"  />
			<g>
				<title>AMP-binding (PF00501)
"AMP-binding enzyme"</title>
				<polygon class="PF00501" points="163,28 197,28 203,34 203,46 197,52 163,52" stroke-linejoin="round" width="40" height="24" fill="rgb(60,217,223)" stroke="rgb(48,173,178)" stroke-width="1" opacity="0.75" />
			</g>
		</g>
		<g>
			<title>
Probable methyltransferase</title>
			<polygon class="
Probable methyltransferase" points="214,25 221,25 221,10 251,40 221,70 221,55 214,55" fill="rgb(255,255,255)" fill-opacity="1.0" stroke="rgb(0,0,0)" stroke-width="2"  />
			<g>
				<title>Methyltransf_2 (PF00891)
"O-methyltransferase domain"</title>
				<polygon class="PF00891" points="227,28 235,28 247,40 235,52 227,52" stroke-linejoin="round" width="21" height="24" fill="rgb(50,51,190)" stroke="rgb(39,40,152)" stroke-width="1" opacity="0.75" />
			</g>
		</g>
		<g>
			<title>
cloQ homologue</title>
			<polygon class="
cloQ homologue" points="257,25 257,25 257,10 287,40 257,70 257,55 257,55" fill="rgb(255,255,255)" fill-opacity="1.0" stroke="rgb(0,0,0)" stroke-width="2"  />
			<g>
				<title>PTase_Orf2 (PF11468)
"Aromatic prenyltransferase Orf2"</title>
				<polygon class="PF11468" points="257,28 271,28 283,40 271,52 257,52" stroke-linejoin="round" width="28" height="24" fill="rgb(121,52,185)" stroke="rgb(96,41,148)" stroke-width="1" opacity="0.75" />
			</g>
		</g>
		<g>
			<title>p450
P450</title>
			<polygon class="p450
P450" points="288,25 301,25 301,10 331,40 301,70 301,55 288,55" fill="rgb(255,255,255)" fill-opacity="1.0" stroke="rgb(0,0,0)" stroke-width="2"  />
			<g>
				<title>p450 (PF00067)
"Cytochrome P450"</title>
				<polygon class="PF00067" points="291,28 315,28 327,40 315,52 291,52" stroke-linejoin="round" width="40" height="24" fill="rgb(85,216,107)" stroke="rgb(68,172,85)" stroke-width="1" opacity="0.75" />
			</g>
		</g>
		<g>
			<title>
mevalonate kinase</title>
			<polygon class="
mevalonate kinase" points="333,25 336,25 336,10 366,40 336,70 336,55 333,55" fill="rgb(255,255,255)" fill-opacity="1.0" stroke="rgb(0,0,0)" stroke-width="2"  />
			<g>
				<title>GHMP_kinases_N (PF00288)
"GHMP kinases N terminal domain"</title>
				<rect class="PF00288" x="343" y="28" stroke-linejoin="round" width="6" height="24" fill="rgb(190,54,91)" stroke="rgb(152,43,72)" stroke-width="1" opacity="0.75" />
			</g>
			<g>
				<title>GHMP_kinases_C (PF08544)
"GHMP kinases C terminal"</title>
				<polygon class="PF08544" points="356,34 362,40 356,46" stroke-linejoin="round" width="8" height="24" fill="rgb(95,112,219)" stroke="rgb(76,89,175)" stroke-width="1" opacity="0.75" />
			</g>
		</g>
		<g>
			<title>
mevalonate diphosphate decarboxylase</title>
			<polygon class="
mevalonate diphosphate decarboxylase" points="369,25 370,25 370,10 400,40 370,70 370,55 369,55" fill="rgb(255,255,255)" fill-opacity="1.0" stroke="rgb(0,0,0)" stroke-width="2"  />
			<g>
				<title>GHMP_kinases_N (PF00288)
"GHMP kinases N terminal domain"</title>
				<rect class="PF00288" x="375" y="28" stroke-linejoin="round" width="5" height="24" fill="rgb(190,54,91)" stroke="rgb(152,43,72)" stroke-width="1" opacity="0.75" />
			</g>
			<g>
				<title>MDD_C (PF18376)
"Mevalonate 5-diphosphate decarboxylase C-terminal domain"</title>
				<polygon class="PF18376" points="384,29 395,40 384,51" stroke-linejoin="round" width="13" height="24" fill="rgb(104,190,211)" stroke="rgb(83,152,168)" stroke-width="1" opacity="0.75" />
			</g>
		</g>
		<g>
			<title>
phosphomevalonate kinase</title>
			<polygon class="
phosphomevalonate kinase" points="400,25 408,25 408,10 438,40 408,70 408,55 400,55" fill="rgb(255,255,255)" fill-opacity="1.0" stroke="rgb(0,0,0)" stroke-width="2"  />
			<g>
				<title>GHMP_kinases_N (PF00288)
"GHMP kinases N terminal domain"</title>
				<rect class="PF00288" x="411" y="28" stroke-linejoin="round" width="7" height="24" fill="rgb(190,54,91)" stroke="rgb(152,43,72)" stroke-width="1" opacity="0.75" />
			</g>
			<g>
				<title>GHMP_kinases_C (PF08544)
"GHMP kinases C terminal"</title>
				<polygon class="PF08544" points="427,34 433,40 427,46" stroke-linejoin="round" width="8" height="24" fill="rgb(95,112,219)" stroke="rgb(76,89,175)" stroke-width="1" opacity="0.75" />
			</g>
		</g>
		<g>
			<title>
Type II isopentenyl diphosphate isomerase</title>
			<polygon class="
Type II isopentenyl diphosphate isomerase" points="438,25 444,25 444,10 474,40 444,70 444,55 438,55" fill="rgb(255,255,255)" fill-opacity="1.0" stroke="rgb(0,0,0)" stroke-width="2"  />
			<g>
				<title>FMN_dh (PF01070)
"FMN-dependent dehydrogenase"</title>
				<polygon class="PF01070" points="448,28 458,28 470,40 470,40 458,52 448,52" stroke-linejoin="round" width="22" height="24" fill="rgb(59,82,204)" stroke="rgb(47,65,163)" stroke-width="1" opacity="0.75" />
			</g>
		</g>
		<g>
			<title>
3-hydroxy-3-methylglutaryl-CoA reductase</title>
			<polygon class="
3-hydroxy-3-methylglutaryl-CoA reductase" points="474,25 479,25 479,10 509,40 479,70 479,55 474,55" fill="rgb(255,255,255)" fill-opacity="1.0" stroke="rgb(0,0,0)" stroke-width="2"  />
			<g>
				<title>HMG-CoA_red (PF00368)
"Hydroxymethylglutaryl-coenzyme A reductase"</title>
				<polygon class="PF00368" points="474,28 493,28 505,40 493,52 474,52" stroke-linejoin="round" width="33" height="24" fill="rgb(67,203,137)" stroke="rgb(53,162,109)" stroke-width="1" opacity="0.75" />
			</g>
		</g>
		<g>
			<title>
3-hydroxy-3-methylglutaryl-CoA synthase</title>
			<polygon class="
3-hydroxy-3-methylglutaryl-CoA synthase" points="510,25 519,25 519,10 549,40 519,70 519,55 510,55" fill="rgb(255,255,255)" fill-opacity="1.0" stroke="rgb(0,0,0)" stroke-width="2"  />
			<g>
				<title>HMG_CoA_synt_N (PF01154)
"Hydroxymethylglutaryl-coenzyme A synthase N terminal"</title>
				<rect class="PF01154" x="510" y="28" stroke-linejoin="round" width="16" height="24" fill="rgb(88,216,218)" stroke="rgb(70,172,174)" stroke-width="1" opacity="0.75" />
			</g>
			<g>
				<title>HMG_CoA_synt_C (PF08540)
"Hydroxymethylglutaryl-coenzyme A synthase C terminal"</title>
				<polygon class="PF08540" points="535,31 544,40 544,40 535,49" stroke-linejoin="round" width="9" height="24" fill="rgb(49,194,86)" stroke="rgb(39,155,68)" stroke-width="1" opacity="0.75" />
			</g>
		</g>
		<g>
			<title>
putative 3-oxoacyl-[acyl-carrier-protein]</title>
			<polygon class="
putative 3-oxoacyl-[acyl-carrier-protein]" points="551,25 553,25 553,10 583,40 553,70 553,55 551,55" fill="rgb(255,255,255)" fill-opacity="1.0" stroke="rgb(0,0,0)" stroke-width="2"  />
			<g>
				<title>ACP_syn_III (PF08545)
"3-Oxoacyl-[acyl-carrier-protein (ACP)] synthase III"</title>
				<polygon class="PF08545" points="561,28 567,28 568,29 568,51 567,52 561,52" stroke-linejoin="round" width="7" height="24" fill="rgb(189,102,84)" stroke="rgb(151,81,67)" stroke-width="1" opacity="0.75" />
			</g>
			<g>
				<title>ACP_syn_III_C (PF08541)
"3-Oxoacyl-[acyl-carrier-protein (ACP)] synthase III C terminal"</title>
				<polygon class="PF08541" points="574,35 579,40 574,45" stroke-linejoin="round" width="8" height="24" fill="rgb(146,207,81)" stroke="rgb(116,165,64)" stroke-width="1" opacity="0.75" />
			</g>
		</g>
		<g>
			<title>
hypothetical protein</title>
			<polygon class="
hypothetical protein" points="584,25 622,25 622,10 652,40 622,70 622,55 584,55" fill="rgb(255,255,255)" fill-opacity="1.0" stroke="rgb(0,0,0)" stroke-width="2"  />
			<g>
				<title>NAD_binding_9 (PF13454)
"FAD-NAD(P)-binding"</title>
				<rect class="PF13454" x="587" y="28" stroke-linejoin="round" width="18" height="24" fill="rgb(102,219,118)" stroke="rgb(81,175,94)" stroke-width="1" opacity="0.75" />
			</g>
		</g>
		<g>
			<title>
3-carboxy-cis,cis-muconate cycloisomerase homologue</title>
			<polygon class="
3-carboxy-cis,cis-muconate cycloisomerase homologue" points="652,25 670,25 670,10 700,40 670,70 670,55 652,55" fill="rgb(255,255,255)" fill-opacity="1.0" stroke="rgb(0,0,0)" stroke-width="2"  />
			<g>
				<title>Lyase_1 (PF00206)
"Lyase"</title>
				<rect class="PF00206" x="653" y="28" stroke-linejoin="round" width="29" height="24" fill="rgb(217,92,141)" stroke="rgb(173,73,112)" stroke-width="1" opacity="0.75" />
			</g>
			<g>
				<title>ADSL_C (PF10397)
"Adenylosuccinate lyase C-terminus"</title>
				<polygon class="PF10397" points="690,34 696,40 690,46" stroke-linejoin="round" width="7" height="24" fill="rgb(198,156,85)" stroke="rgb(158,124,68)" stroke-width="1" opacity="0.75" />
			</g>
		</g>
		<g>
			<title>
ovmZ homologue</title>
			<polygon class="
ovmZ homologue" points="705,40 726,10 726,70" fill="rgb(255,255,255)" fill-opacity="1.0" stroke="rgb(0,0,0)" stroke-width="2"  />
		</g>
		<g>
			<title>
Probable geranyl diphosphate synthase</title>
			<polygon class="
Probable geranyl diphosphate synthase" points="734,25 739,25 739,10 769,40 739,70 739,55 734,55" fill="rgb(255,255,255)" fill-opacity="1.0" stroke="rgb(0,0,0)" stroke-width="2"  />
			<g>
				<title>polyprenyl_synt (PF00348)
"Polyprenyl synthetase"</title>
				<polygon class="PF00348" points="738,28 753,28 763,38 763,42 753,52 738,52" stroke-linejoin="round" width="25" height="24" fill="rgb(61,206,65)" stroke="rgb(48,164,52)" stroke-width="1" opacity="0.75" />
			</g>
		</g>
		<g>
			<title>
Probable short-chain Z-isoprenyl diphosphate synthase</title>
			<polygon class="
Probable short-chain Z-isoprenyl diphosphate synthase" points="772,10 800,40 772,70" fill="rgb(255,255,255)" fill-opacity="1.0" stroke="rgb(0,0,0)" stroke-width="2"  />
			<g>
				<title>Prenyltransf (PF01255)
"Putative undecaprenyl diphosphate synthase"</title>
				<polygon class="PF01255" points="777,28 784,28 796,40 784,52 777,52" stroke-linejoin="round" width="22" height="24" fill="rgb(129,224,60)" stroke="rgb(103,179,48)" stroke-width="1" opacity="0.75" />
			</g>
		</g>
		<g>
			<title>
Probable methyltransferase</title>
			<polygon class="
Probable methyltransferase" points="801,25 810,25 810,10 840,40 810,70 810,55 801,55" fill="rgb(255,255,255)" fill-opacity="1.0" stroke="rgb(0,0,0)" stroke-width="2"  />
			<g>
				<title>Methyltransf_2 (PF00891)
"O-methyltransferase domain"</title>
				<polygon class="PF00891" points="816,28 824,28 836,40 824,52 816,52" stroke-linejoin="round" width="21" height="24" fill="rgb(50,51,190)" stroke="rgb(39,40,152)" stroke-width="1" opacity="0.75" />
			</g>
		</g>
		<g>
			<title>
Putative transcriptional regulator</title>
			<polygon class="
Putative transcriptional regulator" points="878,25 874,25 874,10 844,40 874,70 874,55 878,55" fill="rgb(255,255,255)" fill-opacity="1.0" stroke="rgb(0,0,0)" stroke-width="2"  />
			<g>
				<title>BTAD (PF03704)
"Bacterial transcriptional activator domain"</title>
				<polygon class="PF03704" points="848,40 860,28 860,28 860,52 860,52" stroke-linejoin="round" width="14" height="24" fill="rgb(217,89,196)" stroke="rgb(173,71,156)" stroke-width="1" opacity="0.75" />
			</g>
			<g>
				<title>Trans_reg_C (PF00486)
"Transcriptional regulatory protein, C terminal"</title>
				<rect class="PF00486" x="861" y="28" stroke-linejoin="round" width="8" height="24" fill="rgb(204,153,57)" stroke="rgb(163,122,45)" stroke-width="1" opacity="0.75" />
			</g>
		</g>
		<g>
			<title>
Putative transcriptional regulator</title>
			<polygon class="
Putative transcriptional regulator" points="915,25 911,25 911,10 881,40 911,70 911,55 915,55" fill="rgb(255,255,255)" fill-opacity="1.0" stroke="rgb(0,0,0)" stroke-width="2"  />
			<g>
				<title>AAA_16 (PF13191)
"AAA ATPase domain"</title>
				<rect class="PF13191" x="901" y="28" stroke-linejoin="round" width="13" height="24" fill="rgb(186,102,77)" stroke="rgb(148,81,61)" stroke-width="1" opacity="0.75" />
			</g>
		</g>
	</g>
</svg>
