<svg version="1.1" baseProfile="full" xmlns="http://www.w3.org/2000/svg" width="2196.366666666667" height="80">
	<g>
		<line x1="10" y1="40.0" x2="2186.366666666667" y2="40.0" style="stroke:rgb(70,70,70); stroke-width:3 "/>
		<g>
			<title> (DPH57_09050)
hypothetical protein</title>
			<polygon class=" (DPH57_09050)
hypothetical protein" points="43,25 40,25 40,10 10,40 40,70 40,55 43,55" fill="rgb(255,255,255)" fill-opacity="1.0" stroke="rgb(0,0,0)" stroke-width="2"  />
			<g>
				<title>AI-2E_transport (PF01594)
"AI-2E family transporter"</title>
				<polygon class="PF01594" points="14,40 26,28 42,28 42,52 26,52" stroke-linejoin="round" width="32" height="24" fill="rgb(226,96,145)" stroke="rgb(180,76,116)" stroke-width="1" opacity="0.75" />
			</g>
		</g>
		<g>
			<title> (DPH57_09055)
MBL fold metallo-hydrolase</title>
			<polygon class=" (DPH57_09055)
MBL fold metallo-hydrolase" points="77,25 75,25 75,10 45,40 75,70 75,55 77,55" fill="rgb(255,255,255)" fill-opacity="1.0" stroke="rgb(0,0,0)" stroke-width="2"  />
			<g>
				<title>Lactamase_B_2 (PF12706)
"Beta-lactamase superfamily domain"</title>
				<polygon class="PF12706" points="50,39 61,28 74,28 74,52 61,52 50,41" stroke-linejoin="round" width="24" height="24" fill="rgb(62,169,197)" stroke="rgb(49,135,157)" stroke-width="1" opacity="0.75" />
			</g>
		</g>
		<g>
			<title> (DPH57_09060)
hybrid sensor histidine kinase/response regulator</title>
			<polygon class=" (DPH57_09060)
hybrid sensor histidine kinase/response regulator" points="80,25 123,25 123,10 153,40 123,70 123,55 80,55" fill="rgb(255,255,255)" fill-opacity="1.0" stroke="rgb(0,0,0)" stroke-width="2"  />
			<g>
				<title>dCache_1 (PF02743)
"Cache domain"</title>
				<rect class="PF02743" x="84" y="28" stroke-linejoin="round" width="22" height="24" fill="rgb(84,194,113)" stroke="rgb(67,155,90)" stroke-width="1" opacity="0.75" />
			</g>
			<g>
				<title>HisKA (PF00512)
"His Kinase A (phospho-acceptor) domain"</title>
				<rect class="PF00512" x="118" y="28" stroke-linejoin="round" width="6" height="24" fill="rgb(193,125,62)" stroke="rgb(154,100,49)" stroke-width="1" opacity="0.75" />
			</g>
			<g>
				<title>HATPase_c (PF02518)
"Histidine kinase-, DNA gyrase B-, and HSP90-like ATPase"</title>
				<polygon class="PF02518" points="128,28 137,28 139,30 139,50 137,52 128,52" stroke-linejoin="round" width="11" height="24" fill="rgb(80,94,225)" stroke="rgb(64,75,180)" stroke-width="1" opacity="0.75" />
			</g>
			<g>
				<title>Response_reg (PF00072)
"Response regulator receiver domain"</title>
				<polygon class="PF00072" points="141,32 149,40 141,48" stroke-linejoin="round" width="11" height="24" fill="rgb(100,107,203)" stroke="rgb(80,85,162)" stroke-width="1" opacity="0.75" />
			</g>
		</g>
		<g>
			<title> (DPH57_09065)
hypothetical protein</title>
			<polygon class=" (DPH57_09065)
hypothetical protein" points="155,10 165,40 155,70" fill="rgb(255,255,255)" fill-opacity="1.0" stroke="rgb(0,0,0)" stroke-width="2"  />
			<g>
				<title>DUF5710 (PF18974)
"Domain of unknown function (DUF5710)"</title>
				<polygon class="PF18974" points="161,36 162,40 161,44" stroke-linejoin="round" width="4" height="24" fill="rgb(156,179,53)" stroke="rgb(124,143,42)" stroke-width="1" opacity="0.75" />
			</g>
		</g>
		<g>
			<title> (DPH57_09070)
DUF3297 family protein</title>
			<polygon class=" (DPH57_09070)
DUF3297 family protein" points="168,10 176,40 168,70" fill="rgb(255,255,255)" fill-opacity="1.0" stroke="rgb(0,0,0)" stroke-width="2"  />
			<g>
				<title>DUF3297 (PF11730)
"Protein of unknown function (DUF3297)"</title>
				<polygon class="PF11730" points="169,28 169,28 173,40 169,52 169,52" stroke-linejoin="round" width="7" height="24" fill="rgb(60,205,133)" stroke="rgb(48,164,106)" stroke-width="1" opacity="0.75" />
			</g>
		</g>
		<g>
			<title> (DPH57_09075)
hypothetical protein</title>
			<polygon class=" (DPH57_09075)
hypothetical protein" points="181,40 199,10 199,70" fill="rgb(255,255,255)" fill-opacity="1.0" stroke="rgb(0,0,0)" stroke-width="2"  />
		</g>
		<g>
			<title> (DPH57_09080)
hypothetical protein</title>
			<polygon class=" (DPH57_09080)
hypothetical protein" points="204,40 221,10 221,70" fill="rgb(255,255,255)" fill-opacity="1.0" stroke="rgb(0,0,0)" stroke-width="2"  />
		</g>
		<g>
			<title> (DPH57_09085)
alpha/beta hydrolase</title>
			<polygon class=" (DPH57_09085)
alpha/beta hydrolase" points="256,25 253,25 253,10 223,40 253,70 253,55 256,55" fill="rgb(255,255,255)" fill-opacity="1.0" stroke="rgb(0,0,0)" stroke-width="2"  />
			<g>
				<title>Hydrolase_4 (PF12146)
"Serine aminopeptidase, S33"</title>
				<polygon class="PF12146" points="236,31 239,28 248,28 248,52 239,52 236,49" stroke-linejoin="round" width="12" height="24" fill="rgb(140,98,205)" stroke="rgb(112,78,164)" stroke-width="1" opacity="0.75" />
			</g>
		</g>
		<g>
			<title> (DPH57_09090)
cupin</title>
			<polygon class=" (DPH57_09090)
cupin" points="263,40 275,10 275,70" fill="rgb(255,255,255)" fill-opacity="1.0" stroke="rgb(0,0,0)" stroke-width="2"  />
		</g>
		<g>
			<title> (DPH57_09095)
hypothetical protein</title>
			<polygon class=" (DPH57_09095)
hypothetical protein" points="285,10 294,40 285,70" fill="rgb(255,255,255)" fill-opacity="1.0" stroke="rgb(0,0,0)" stroke-width="2"  />
		</g>
		<g>
			<title> (DPH57_09100)
hypothetical protein</title>
			<polygon class=" (DPH57_09100)
hypothetical protein" points="297,25 305,25 305,10 335,40 305,70 305,55 297,55" fill="rgb(255,255,255)" fill-opacity="1.0" stroke="rgb(0,0,0)" stroke-width="2"  />
		</g>
		<g>
			<title> (DPH57_09105)
AI-2E family transporter</title>
			<polygon class=" (DPH57_09105)
AI-2E family transporter" points="396,25 365,25 365,10 335,40 365,70 365,55 396,55" fill="rgb(255,255,255)" fill-opacity="1.0" stroke="rgb(0,0,0)" stroke-width="2"  />
			<g>
				<title>AI-2E_transport (PF01594)
"AI-2E family transporter"</title>
				<rect class="PF01594" x="361" y="28" stroke-linejoin="round" width="34" height="24" fill="rgb(226,96,145)" stroke="rgb(180,76,116)" stroke-width="1" opacity="0.75" />
			</g>
		</g>
		<g>
			<title> (DPH57_09110)
CDP-diacylglycerol--glycerol-3-phosphate 3-phosphatidyltransferase</title>
			<polygon class=" (DPH57_09110)
CDP-diacylglycerol--glycerol-3-phosphate 3-phosphatidyltransferase" points="419,10 443,40 419,70" fill="rgb(255,255,255)" fill-opacity="1.0" stroke="rgb(0,0,0)" stroke-width="2"  />
			<g>
				<title>CDP-OH_P_transf (PF01066)
"CDP-alcohol phosphatidyltransferase"</title>
				<polygon class="PF01066" points="421,28 429,28 436,36 436,44 429,52 421,52" stroke-linejoin="round" width="15" height="24" fill="rgb(100,201,161)" stroke="rgb(80,160,128)" stroke-width="1" opacity="0.75" />
			</g>
		</g>
		<g>
			<title>modA (DPH57_09115)
molybdate ABC transporter substrate-binding protein</title>
			<polygon class="modA (DPH57_09115)
molybdate ABC transporter substrate-binding protein" points="441,40 465,10 465,70" fill="rgb(255,255,255)" fill-opacity="1.0" stroke="rgb(0,0,0)" stroke-width="2"  />
			<g>
				<title>SBP_bac_11 (PF13531)
"Bacterial extracellular solute-binding protein"</title>
				<polygon class="PF13531" points="445,40 455,28 462,28 462,52 455,52" stroke-linejoin="round" width="21" height="24" fill="rgb(202,228,104)" stroke="rgb(161,182,83)" stroke-width="1" opacity="0.75" />
			</g>
		</g>
		<g>
			<title> (DPH57_09120)
hypothetical protein</title>
			<polygon class=" (DPH57_09120)
hypothetical protein" points="515,25 499,25 499,10 469,40 499,70 499,55 515,55" fill="rgb(255,255,255)" fill-opacity="1.0" stroke="rgb(0,0,0)" stroke-width="2"  />
			<g>
				<title>PAF-AH_p_II (PF03403)
"Platelet-activating factor acetylhydrolase, isoform II"</title>
				<rect class="PF03403" x="487" y="28" stroke-linejoin="round" width="17" height="24" fill="rgb(179,184,62)" stroke="rgb(143,147,49)" stroke-width="1" opacity="0.75" />
			</g>
		</g>
		<g>
			<title> (DPH57_09125)
hypothetical protein</title>
			<polygon class=" (DPH57_09125)
hypothetical protein" points="555,25 546,25 546,10 516,40 546,70 546,55 555,55" fill="rgb(255,255,255)" fill-opacity="1.0" stroke="rgb(0,0,0)" stroke-width="2"  />
		</g>
		<g>
			<title> (DPH57_09130)
hypothetical protein</title>
			<polygon class=" (DPH57_09130)
hypothetical protein" points="587,25 587,25 587,10 557,40 587,70 587,55 587,55" fill="rgb(255,255,255)" fill-opacity="1.0" stroke="rgb(0,0,0)" stroke-width="2"  />
			<g>
				<title>TauD (PF02668)
"Taurine catabolism dioxygenase TauD, TfdA family"</title>
				<polygon class="PF02668" points="561,40 573,28 587,28 587,52 573,52" stroke-linejoin="round" width="29" height="24" fill="rgb(180,79,217)" stroke="rgb(144,63,173)" stroke-width="1" opacity="0.75" />
			</g>
		</g>
		<g>
			<title> (DPH57_09135)
TauD/TfdA family dioxygenase</title>
			<polygon class=" (DPH57_09135)
TauD/TfdA family dioxygenase" points="621,25 619,25 619,10 589,40 619,70 619,55 621,55" fill="rgb(255,255,255)" fill-opacity="1.0" stroke="rgb(0,0,0)" stroke-width="2"  />
			<g>
				<title>TauD (PF02668)
"Taurine catabolism dioxygenase TauD, TfdA family"</title>
				<polygon class="PF02668" points="593,40 605,28 618,28 618,52 605,52" stroke-linejoin="round" width="29" height="24" fill="rgb(180,79,217)" stroke="rgb(144,63,173)" stroke-width="1" opacity="0.75" />
			</g>
		</g>
		<g>
			<title> (DPH57_09140)
non-ribosomal peptide synthetase</title>
			<polygon class=" (DPH57_09140)
non-ribosomal peptide synthetase" points="897,25 652,25 652,10 622,40 652,70 652,55 897,55" fill="rgb(255,255,255)" fill-opacity="1.0" stroke="rgb(0,0,0)" stroke-width="2"  />
			<g>
				<title>Thioesterase (PF00975)
"Thioesterase domain"</title>
				<polygon class="PF00975" points="626,40 638,28 646,28 646,52 638,52" stroke-linejoin="round" width="24" height="24" fill="rgb(207,80,138)" stroke="rgb(165,63,110)" stroke-width="1" opacity="0.75" />
			</g>
			<g>
				<title>Thioesterase (PF00975)
"Thioesterase domain"</title>
				<rect class="PF00975" x="651" y="28" stroke-linejoin="round" width="24" height="24" fill="rgb(207,80,138)" stroke="rgb(165,63,110)" stroke-width="1" opacity="0.75" />
			</g>
			<g>
				<title>PP-binding (PF00550)
"Phosphopantetheine attachment site"</title>
				<rect class="PF00550" x="677" y="28" stroke-linejoin="round" width="6" height="24" fill="rgb(103,191,88)" stroke="rgb(82,152,70)" stroke-width="1" opacity="0.75" />
			</g>
			<g>
				<title>AMP-binding_C (PF13193)
"AMP-binding enzyme C-terminal domain"</title>
				<rect class="PF13193" x="686" y="28" stroke-linejoin="round" width="7" height="24" fill="rgb(182,50,118)" stroke="rgb(145,39,94)" stroke-width="1" opacity="0.75" />
			</g>
			<g>
				<title>AMP-binding (PF00501)
"AMP-binding enzyme"</title>
				<rect class="PF00501" x="694" y="28" stroke-linejoin="round" width="40" height="24" fill="rgb(60,217,223)" stroke="rgb(48,173,178)" stroke-width="1" opacity="0.75" />
			</g>
			<g>
				<title>Condensation (PF00668)
"Condensation domain"</title>
				<rect class="PF00668" x="737" y="28" stroke-linejoin="round" width="44" height="24" fill="rgb(224,184,98)" stroke="rgb(179,147,78)" stroke-width="1" opacity="0.75" />
			</g>
			<g>
				<title>PP-binding (PF00550)
"Phosphopantetheine attachment site"</title>
				<rect class="PF00550" x="783" y="28" stroke-linejoin="round" width="6" height="24" fill="rgb(103,191,88)" stroke="rgb(82,152,70)" stroke-width="1" opacity="0.75" />
			</g>
			<g>
				<title>AMP-binding_C (PF13193)
"AMP-binding enzyme C-terminal domain"</title>
				<rect class="PF13193" x="792" y="28" stroke-linejoin="round" width="7" height="24" fill="rgb(182,50,118)" stroke="rgb(145,39,94)" stroke-width="1" opacity="0.75" />
			</g>
			<g>
				<title>AMP-binding (PF00501)
"AMP-binding enzyme"</title>
				<rect class="PF00501" x="800" y="28" stroke-linejoin="round" width="40" height="24" fill="rgb(60,217,223)" stroke="rgb(48,173,178)" stroke-width="1" opacity="0.75" />
			</g>
			<g>
				<title>Condensation (PF00668)
"Condensation domain"</title>
				<rect class="PF00668" x="842" y="28" stroke-linejoin="round" width="43" height="24" fill="rgb(224,184,98)" stroke="rgb(179,147,78)" stroke-width="1" opacity="0.75" />
			</g>
			<g>
				<title>TubC_N (PF18563)
"TubC N-terminal docking domain"</title>
				<rect class="PF18563" x="891" y="28" stroke-linejoin="round" width="4" height="24" fill="rgb(95,217,77)" stroke="rgb(75,173,61)" stroke-width="1" opacity="0.75" />
			</g>
		</g>
		<g>
			<title> (DPH57_09145)
hypothetical protein</title>
			<polygon class=" (DPH57_09145)
hypothetical protein" points="1009,25 927,25 927,10 897,40 927,70 927,55 1009,55" fill="rgb(255,255,255)" fill-opacity="1.0" stroke="rgb(0,0,0)" stroke-width="2"  />
			<g>
				<title>PP-binding (PF00550)
"Phosphopantetheine attachment site"</title>
				<polygon class="PF00550" points="901,40 906,35 906,45" stroke-linejoin="round" width="6" height="24" fill="rgb(103,191,88)" stroke="rgb(82,152,70)" stroke-width="1" opacity="0.75" />
			</g>
			<g>
				<title>AMP-binding_C (PF13193)
"AMP-binding enzyme C-terminal domain"</title>
				<polygon class="PF13193" points="909,32 913,28 916,28 916,52 913,52 909,48" stroke-linejoin="round" width="7" height="24" fill="rgb(182,50,118)" stroke="rgb(145,39,94)" stroke-width="1" opacity="0.75" />
			</g>
			<g>
				<title>AMP-binding (PF00501)
"AMP-binding enzyme"</title>
				<rect class="PF00501" x="917" y="28" stroke-linejoin="round" width="39" height="24" fill="rgb(60,217,223)" stroke="rgb(48,173,178)" stroke-width="1" opacity="0.75" />
			</g>
			<g>
				<title>Condensation (PF00668)
"Condensation domain"</title>
				<rect class="PF00668" x="959" y="28" stroke-linejoin="round" width="43" height="24" fill="rgb(224,184,98)" stroke="rgb(179,147,78)" stroke-width="1" opacity="0.75" />
			</g>
		</g>
		<g>
			<title> (DPH57_09150)
non-ribosomal peptide synthetase</title>
			<polygon class=" (DPH57_09150)
non-ribosomal peptide synthetase" points="1545,25 1043,25 1043,10 1013,40 1043,70 1043,55 1545,55" fill="rgb(255,255,255)" fill-opacity="1.0" stroke="rgb(0,0,0)" stroke-width="2"  />
			<g>
				<title>PP-binding (PF00550)
"Phosphopantetheine attachment site"</title>
				<polygon class="PF00550" points="1017,40 1019,38 1019,42" stroke-linejoin="round" width="6" height="24" fill="rgb(103,191,88)" stroke="rgb(82,152,70)" stroke-width="1" opacity="0.75" />
			</g>
			<g>
				<title>AMP-binding_C (PF13193)
"AMP-binding enzyme C-terminal domain"</title>
				<polygon class="PF13193" points="1023,34 1029,28 1030,28 1030,52 1029,52 1023,46" stroke-linejoin="round" width="7" height="24" fill="rgb(182,50,118)" stroke="rgb(145,39,94)" stroke-width="1" opacity="0.75" />
			</g>
			<g>
				<title>AMP-binding (PF00501)
"AMP-binding enzyme"</title>
				<rect class="PF00501" x="1031" y="28" stroke-linejoin="round" width="40" height="24" fill="rgb(60,217,223)" stroke="rgb(48,173,178)" stroke-width="1" opacity="0.75" />
			</g>
			<g>
				<title>Condensation (PF00668)
"Condensation domain"</title>
				<rect class="PF00668" x="1073" y="28" stroke-linejoin="round" width="44" height="24" fill="rgb(224,184,98)" stroke="rgb(179,147,78)" stroke-width="1" opacity="0.75" />
			</g>
			<g>
				<title>PP-binding (PF00550)
"Phosphopantetheine attachment site"</title>
				<rect class="PF00550" x="1119" y="28" stroke-linejoin="round" width="6" height="24" fill="rgb(103,191,88)" stroke="rgb(82,152,70)" stroke-width="1" opacity="0.75" />
			</g>
			<g>
				<title>AMP-binding_C (PF13193)
"AMP-binding enzyme C-terminal domain"</title>
				<rect class="PF13193" x="1128" y="28" stroke-linejoin="round" width="7" height="24" fill="rgb(182,50,118)" stroke="rgb(145,39,94)" stroke-width="1" opacity="0.75" />
			</g>
			<g>
				<title>AMP-binding (PF00501)
"AMP-binding enzyme"</title>
				<rect class="PF00501" x="1136" y="28" stroke-linejoin="round" width="39" height="24" fill="rgb(60,217,223)" stroke="rgb(48,173,178)" stroke-width="1" opacity="0.75" />
			</g>
			<g>
				<title>Condensation (PF00668)
"Condensation domain"</title>
				<rect class="PF00668" x="1178" y="28" stroke-linejoin="round" width="44" height="24" fill="rgb(224,184,98)" stroke="rgb(179,147,78)" stroke-width="1" opacity="0.75" />
			</g>
			<g>
				<title>PP-binding (PF00550)
"Phosphopantetheine attachment site"</title>
				<rect class="PF00550" x="1224" y="28" stroke-linejoin="round" width="6" height="24" fill="rgb(103,191,88)" stroke="rgb(82,152,70)" stroke-width="1" opacity="0.75" />
			</g>
			<g>
				<title>AMP-binding_C (PF13193)
"AMP-binding enzyme C-terminal domain"</title>
				<rect class="PF13193" x="1233" y="28" stroke-linejoin="round" width="7" height="24" fill="rgb(182,50,118)" stroke="rgb(145,39,94)" stroke-width="1" opacity="0.75" />
			</g>
			<g>
				<title>AMP-binding (PF00501)
"AMP-binding enzyme"</title>
				<rect class="PF00501" x="1242" y="28" stroke-linejoin="round" width="40" height="24" fill="rgb(60,217,223)" stroke="rgb(48,173,178)" stroke-width="1" opacity="0.75" />
			</g>
			<g>
				<title>Condensation (PF00668)
"Condensation domain"</title>
				<rect class="PF00668" x="1284" y="28" stroke-linejoin="round" width="43" height="24" fill="rgb(224,184,98)" stroke="rgb(179,147,78)" stroke-width="1" opacity="0.75" />
			</g>
			<g>
				<title>PP-binding (PF00550)
"Phosphopantetheine attachment site"</title>
				<rect class="PF00550" x="1333" y="28" stroke-linejoin="round" width="6" height="24" fill="rgb(103,191,88)" stroke="rgb(82,152,70)" stroke-width="1" opacity="0.75" />
			</g>
			<g>
				<title>AMP-binding_C (PF13193)
"AMP-binding enzyme C-terminal domain"</title>
				<rect class="PF13193" x="1342" y="28" stroke-linejoin="round" width="7" height="24" fill="rgb(182,50,118)" stroke="rgb(145,39,94)" stroke-width="1" opacity="0.75" />
			</g>
			<g>
				<title>AMP-binding (PF00501)
"AMP-binding enzyme"</title>
				<rect class="PF00501" x="1350" y="28" stroke-linejoin="round" width="39" height="24" fill="rgb(60,217,223)" stroke="rgb(48,173,178)" stroke-width="1" opacity="0.75" />
			</g>
			<g>
				<title>Condensation (PF00668)
"Condensation domain"</title>
				<rect class="PF00668" x="1391" y="28" stroke-linejoin="round" width="43" height="24" fill="rgb(224,184,98)" stroke="rgb(179,147,78)" stroke-width="1" opacity="0.75" />
			</g>
			<g>
				<title>PP-binding (PF00550)
"Phosphopantetheine attachment site"</title>
				<rect class="PF00550" x="1440" y="28" stroke-linejoin="round" width="6" height="24" fill="rgb(103,191,88)" stroke="rgb(82,152,70)" stroke-width="1" opacity="0.75" />
			</g>
			<g>
				<title>AMP-binding_C (PF13193)
"AMP-binding enzyme C-terminal domain"</title>
				<rect class="PF13193" x="1450" y="28" stroke-linejoin="round" width="7" height="24" fill="rgb(182,50,118)" stroke="rgb(145,39,94)" stroke-width="1" opacity="0.75" />
			</g>
			<g>
				<title>AMP-binding (PF00501)
"AMP-binding enzyme"</title>
				<rect class="PF00501" x="1458" y="28" stroke-linejoin="round" width="40" height="24" fill="rgb(60,217,223)" stroke="rgb(48,173,178)" stroke-width="1" opacity="0.75" />
			</g>
			<g>
				<title>Condensation (PF00668)
"Condensation domain"</title>
				<rect class="PF00668" x="1500" y="28" stroke-linejoin="round" width="44" height="24" fill="rgb(224,184,98)" stroke="rgb(179,147,78)" stroke-width="1" opacity="0.75" />
			</g>
		</g>
		<g>
			<title> (DPH57_09155)
hypothetical protein</title>
			<polygon class=" (DPH57_09155)
hypothetical protein" points="1594,25 1577,25 1577,10 1547,40 1577,70 1577,55 1594,55" fill="rgb(255,255,255)" fill-opacity="1.0" stroke="rgb(0,0,0)" stroke-width="2"  />
			<g>
				<title>MFS_1 (PF07690)
"Major Facilitator Superfamily"</title>
				<polygon class="PF07690" points="1554,37 1563,28 1589,28 1589,52 1563,52 1554,43" stroke-linejoin="round" width="35" height="24" fill="rgb(193,224,74)" stroke="rgb(154,179,59)" stroke-width="1" opacity="0.75" />
			</g>
		</g>
		<g>
			<title>zwf (DPH57_09160)
glucose-6-phosphate dehydrogenase</title>
			<polygon class="zwf (DPH57_09160)
glucose-6-phosphate dehydrogenase" points="1678,25 1660,25 1660,10 1630,40 1660,70 1660,55 1678,55" fill="rgb(255,255,255)" fill-opacity="1.0" stroke="rgb(0,0,0)" stroke-width="2"  />
			<g>
				<title>G6PD_C (PF02781)
"Glucose-6-phosphate dehydrogenase, C-terminal domain"</title>
				<polygon class="PF02781" points="1634,40 1646,28 1659,28 1659,52 1646,52" stroke-linejoin="round" width="29" height="24" fill="rgb(161,208,98)" stroke="rgb(128,166,78)" stroke-width="1" opacity="0.75" />
			</g>
			<g>
				<title>G6PD_N (PF00479)
"Glucose-6-phosphate dehydrogenase, NAD binding domain"</title>
				<rect class="PF00479" x="1660" y="28" stroke-linejoin="round" width="17" height="24" fill="rgb(176,80,200)" stroke="rgb(140,64,160)" stroke-width="1" opacity="0.75" />
			</g>
		</g>
		<g>
			<title> (DPH57_09165)
hypothetical protein</title>
			<polygon class=" (DPH57_09165)
hypothetical protein" points="1686,40 1695,10 1695,70" fill="rgb(255,255,255)" fill-opacity="1.0" stroke="rgb(0,0,0)" stroke-width="2"  />
		</g>
		<g>
			<title> (DPH57_09170)
ABC transporter</title>
			<polygon class=" (DPH57_09170)
ABC transporter" points="1722,25 1794,25 1794,10 1824,40 1794,70 1794,55 1722,55" fill="rgb(255,255,255)" fill-opacity="1.0" stroke="rgb(0,0,0)" stroke-width="2"  />
			<g>
				<title>AAA_21 (PF13304)
"AAA domain, putative AbiEii toxin, Type IV TA system"</title>
				<polygon class="PF13304" points="1804,28 1808,28 1818,38 1818,42 1808,52 1804,52" stroke-linejoin="round" width="14" height="24" fill="rgb(215,121,101)" stroke="rgb(172,96,80)" stroke-width="1" opacity="0.75" />
			</g>
		</g>
		<g>
			<title> (DPH57_09175)
hypothetical protein</title>
			<polygon class=" (DPH57_09175)
hypothetical protein" points="1837,25 1862,25 1862,10 1892,40 1862,70 1862,55 1837,55" fill="rgb(255,255,255)" fill-opacity="1.0" stroke="rgb(0,0,0)" stroke-width="2"  />
			<g>
				<title>RHS_repeat (PF05593)
"RHS Repeat"</title>
				<rect class="PF05593" x="1852" y="28" stroke-linejoin="round" width="3" height="24" fill="rgb(89,211,110)" stroke="rgb(71,168,88)" stroke-width="1" opacity="0.75" />
			</g>
			<g>
				<title>RHS (PF03527)
"RHS protein"</title>
				<rect class="PF03527" x="1868" y="28" stroke-linejoin="round" width="3" height="24" fill="rgb(179,135,65)" stroke="rgb(143,108,52)" stroke-width="1" opacity="0.75" />
			</g>
		</g>
		<g>
			<title> (DPH57_09180)
hypothetical protein</title>
			<polygon class=" (DPH57_09180)
hypothetical protein" points="1893,10 1904,40 1893,70" fill="rgb(255,255,255)" fill-opacity="1.0" stroke="rgb(0,0,0)" stroke-width="2"  />
		</g>
		<g>
			<title> (DPH57_09185)
hypothetical protein</title>
			<polygon class=" (DPH57_09185)
hypothetical protein" points="1983,25 1987,25 1987,10 2017,40 1987,70 1987,55 1983,55" fill="rgb(255,255,255)" fill-opacity="1.0" stroke="rgb(0,0,0)" stroke-width="2"  />
			<g>
				<title>HlyD_3 (PF13437)
"HlyD family secretion protein"</title>
				<polygon class="PF13437" points="2001,29 2012,40 2001,51" stroke-linejoin="round" width="12" height="24" fill="rgb(82,200,102)" stroke="rgb(65,160,81)" stroke-width="1" opacity="0.75" />
			</g>
		</g>
		<g>
			<title> (DPH57_09190)
hypothetical protein</title>
			<polygon class=" (DPH57_09190)
hypothetical protein" points="2018,40 2033,10 2033,70" fill="rgb(255,255,255)" fill-opacity="1.0" stroke="rgb(0,0,0)" stroke-width="2"  />
		</g>
		<g>
			<title> (DPH57_09195)
peptidase domain-containing ABC transporter</title>
			<polygon class=" (DPH57_09195)
peptidase domain-containing ABC transporter" points="2059,25 2106,25 2106,10 2136,40 2106,70 2106,55 2059,55" fill="rgb(255,255,255)" fill-opacity="1.0" stroke="rgb(0,0,0)" stroke-width="2"  />
			<g>
				<title>Peptidase_C39 (PF03412)
"Peptidase C39 family"</title>
				<rect class="PF03412" x="2059" y="28" stroke-linejoin="round" width="12" height="24" fill="rgb(214,226,77)" stroke="rgb(171,180,61)" stroke-width="1" opacity="0.75" />
			</g>
			<g>
				<title>ABC_membrane (PF00664)
"ABC transporter transmembrane region"</title>
				<rect class="PF00664" x="2074" y="28" stroke-linejoin="round" width="27" height="24" fill="rgb(149,226,73)" stroke="rgb(119,180,58)" stroke-width="1" opacity="0.75" />
			</g>
			<g>
				<title>ABC_tran (PF00005)
"ABC transporter"</title>
				<polygon class="PF00005" points="2107,28 2120,28 2121,29 2121,51 2120,52 2107,52" stroke-linejoin="round" width="14" height="24" fill="rgb(129,201,63)" stroke="rgb(103,160,50)" stroke-width="1" opacity="0.75" />
			</g>
		</g>
		<g>
			<title> (DPH57_09200)
hypothetical protein</title>
			<polygon class=" (DPH57_09200)
hypothetical protein" points="2138,40 2145,10 2145,70" fill="rgb(255,255,255)" fill-opacity="1.0" stroke="rgb(0,0,0)" stroke-width="2"  />
		</g>
		<g>
			<title> (DPH57_09205)
hypothetical protein</title>
			<polygon class=" (DPH57_09205)
hypothetical protein" points="2175,10 2186,40 2175,70" fill="rgb(255,255,255)" fill-opacity="1.0" stroke="rgb(0,0,0)" stroke-width="2"  />
		</g>
	</g>
</svg>
