<svg version="1.1" baseProfile="full" xmlns="http://www.w3.org/2000/svg" width="1626.6666666666667" height="80">
	<g>
		<line x1="10" y1="40.0" x2="1616.6666666666667" y2="40.0" style="stroke:rgb(70,70,70); stroke-width:3 "/>
		<g>
			<title>mppC
acetyltransferase MppC</title>
			<polygon class="mppC
acetyltransferase MppC" points="12,25 14,25 14,10 44,40 14,70 14,55 12,55" fill="rgb(255,255,255)" fill-opacity="1.0" stroke="rgb(0,0,0)" stroke-width="2"  />
			<g>
				<title>Acetyltransf_1 (PF00583)
"Acetyltransferase (GNAT) family"</title>
				<rect class="PF00583" x="14" y="28" stroke-linejoin="round" width="11" height="24" fill="rgb(121,183,50)" stroke="rgb(96,146,39)" stroke-width="1" opacity="0.75" />
			</g>
		</g>
		<g>
			<title>mppD
sugar binding protein MppD</title>
			<polygon class="mppD
sugar binding protein MppD" points="44,25 61,25 61,10 91,40 61,70 61,55 44,55" fill="rgb(255,255,255)" fill-opacity="1.0" stroke="rgb(0,0,0)" stroke-width="2"  />
			<g>
				<title>SBP_bac_1 (PF01547)
"Bacterial extracellular solute-binding protein"</title>
				<polygon class="PF01547" points="50,28 74,28 79,33 79,47 74,52 50,52" stroke-linejoin="round" width="29" height="24" fill="rgb(195,119,75)" stroke="rgb(156,95,60)" stroke-width="1" opacity="0.75" />
			</g>
		</g>
		<g>
			<title>mppE
ABC transporter MppE</title>
			<polygon class="mppE
ABC transporter MppE" points="93,25 93,25 93,10 123,40 93,70 93,55 93,55" fill="rgb(255,255,255)" fill-opacity="1.0" stroke="rgb(0,0,0)" stroke-width="2"  />
			<g>
				<title>BPD_transp_1 (PF00528)
"Binding-protein-dependent transport system inner membrane component"</title>
				<polygon class="PF00528" points="102,28 107,28 119,40 107,52 102,52" stroke-linejoin="round" width="20" height="24" fill="rgb(77,208,225)" stroke="rgb(61,166,180)" stroke-width="1" opacity="0.75" />
			</g>
		</g>
		<g>
			<title>mppF
ABC transporter MppF</title>
			<polygon class="mppF
ABC transporter MppF" points="123,10 152,40 123,70" fill="rgb(255,255,255)" fill-opacity="1.0" stroke="rgb(0,0,0)" stroke-width="2"  />
			<g>
				<title>BPD_transp_1 (PF00528)
"Binding-protein-dependent transport system inner membrane component"</title>
				<polygon class="PF00528" points="132,28 136,28 148,40 136,52 132,52" stroke-linejoin="round" width="20" height="24" fill="rgb(77,208,225)" stroke="rgb(61,166,180)" stroke-width="1" opacity="0.75" />
			</g>
		</g>
		<g>
			<title>mppG
polyprenyl mannose synthase MppG</title>
			<polygon class="mppG
polyprenyl mannose synthase MppG" points="155,25 167,25 167,10 197,40 167,70 167,55 155,55" fill="rgb(255,255,255)" fill-opacity="1.0" stroke="rgb(0,0,0)" stroke-width="2"  />
			<g>
				<title>Glycos_transf_2 (PF00535)
"Glycosyl transferase family 2"</title>
				<rect class="PF00535" x="158" y="28" stroke-linejoin="round" width="17" height="24" fill="rgb(224,122,96)" stroke="rgb(179,97,76)" stroke-width="1" opacity="0.75" />
			</g>
			<g>
				<title>GtrA (PF04138)
"GtrA-like protein"</title>
				<polygon class="PF04138" points="183,30 193,40 183,50" stroke-linejoin="round" width="11" height="24" fill="rgb(72,221,86)" stroke="rgb(57,176,68)" stroke-width="1" opacity="0.75" />
			</g>
		</g>
		<g>
			<title>mppH
polyprenyl phospho-mannosyltransferase MppH</title>
			<polygon class="mppH
polyprenyl phospho-mannosyltransferase MppH" points="204,25 221,25 221,10 251,40 221,70 221,55 204,55" fill="rgb(255,255,255)" fill-opacity="1.0" stroke="rgb(0,0,0)" stroke-width="2"  />
			<g>
				<title>PMT_2 (PF13231)
"Dolichyl-phosphate-mannose-protein mannosyltransferase"</title>
				<rect class="PF13231" x="207" y="28" stroke-linejoin="round" width="16" height="24" fill="rgb(149,96,194)" stroke="rgb(119,76,155)" stroke-width="1" opacity="0.75" />
			</g>
		</g>
		<g>
			<title>mppI
polyprenyl phospho-mannosyltransferase MppI</title>
			<polygon class="mppI
polyprenyl phospho-mannosyltransferase MppI" points="253,25 274,25 274,10 304,40 274,70 274,55 253,55" fill="rgb(255,255,255)" fill-opacity="1.0" stroke="rgb(0,0,0)" stroke-width="2"  />
			<g>
				<title>PMT_2 (PF13231)
"Dolichyl-phosphate-mannose-protein mannosyltransferase"</title>
				<rect class="PF13231" x="260" y="28" stroke-linejoin="round" width="16" height="24" fill="rgb(149,96,194)" stroke="rgb(119,76,155)" stroke-width="1" opacity="0.75" />
			</g>
		</g>
		<g>
			<title>mppJ
methyltransferase MppJ</title>
			<polygon class="mppJ
methyltransferase MppJ" points="310,25 313,25 313,10 343,40 313,70 313,55 310,55" fill="rgb(255,255,255)" fill-opacity="1.0" stroke="rgb(0,0,0)" stroke-width="2"  />
			<g>
				<title>Methyltransf_25 (PF13649)
"Methyltransferase domain"</title>
				<polygon class="PF13649" points="326,28 327,28 336,37 336,43 327,52 326,52" stroke-linejoin="round" width="10" height="24" fill="rgb(227,135,74)" stroke="rgb(181,108,59)" stroke-width="1" opacity="0.75" />
			</g>
		</g>
		<g>
			<title>mppA
mannopeptimycin peptide synthetase MppA</title>
			<polygon class="mppA
mannopeptimycin peptide synthetase MppA" points="345,25 589,25 589,10 619,40 589,70 589,55 345,55" fill="rgb(255,255,255)" fill-opacity="1.0" stroke="rgb(0,0,0)" stroke-width="2"  />
			<g>
				<title>AMP-binding (PF00501)
"AMP-binding enzyme"</title>
				<rect class="PF00501" x="346" y="28" stroke-linejoin="round" width="41" height="24" fill="rgb(60,217,223)" stroke="rgb(48,173,178)" stroke-width="1" opacity="0.75" />
			</g>
			<g>
				<title>AMP-binding_C (PF13193)
"AMP-binding enzyme C-terminal domain"</title>
				<rect class="PF13193" x="388" y="28" stroke-linejoin="round" width="7" height="24" fill="rgb(182,50,118)" stroke="rgb(145,39,94)" stroke-width="1" opacity="0.75" />
			</g>
			<g>
				<title>PP-binding (PF00550)
"Phosphopantetheine attachment site"</title>
				<rect class="PF00550" x="398" y="28" stroke-linejoin="round" width="6" height="24" fill="rgb(103,191,88)" stroke="rgb(82,152,70)" stroke-width="1" opacity="0.75" />
			</g>
			<g>
				<title>Condensation (PF00668)
"Condensation domain"</title>
				<rect class="PF00668" x="406" y="28" stroke-linejoin="round" width="44" height="24" fill="rgb(224,184,98)" stroke="rgb(179,147,78)" stroke-width="1" opacity="0.75" />
			</g>
			<g>
				<title>AMP-binding (PF00501)
"AMP-binding enzyme"</title>
				<rect class="PF00501" x="453" y="28" stroke-linejoin="round" width="39" height="24" fill="rgb(60,217,223)" stroke="rgb(48,173,178)" stroke-width="1" opacity="0.75" />
			</g>
			<g>
				<title>AMP-binding_C (PF13193)
"AMP-binding enzyme C-terminal domain"</title>
				<rect class="PF13193" x="494" y="28" stroke-linejoin="round" width="7" height="24" fill="rgb(182,50,118)" stroke="rgb(145,39,94)" stroke-width="1" opacity="0.75" />
			</g>
			<g>
				<title>PP-binding (PF00550)
"Phosphopantetheine attachment site"</title>
				<rect class="PF00550" x="504" y="28" stroke-linejoin="round" width="6" height="24" fill="rgb(103,191,88)" stroke="rgb(82,152,70)" stroke-width="1" opacity="0.75" />
			</g>
			<g>
				<title>Condensation (PF00668)
"Condensation domain"</title>
				<rect class="PF00668" x="514" y="28" stroke-linejoin="round" width="44" height="24" fill="rgb(224,184,98)" stroke="rgb(179,147,78)" stroke-width="1" opacity="0.75" />
			</g>
			<g>
				<title>AMP-binding (PF00501)
"AMP-binding enzyme"</title>
				<rect class="PF00501" x="561" y="28" stroke-linejoin="round" width="39" height="24" fill="rgb(60,217,223)" stroke="rgb(48,173,178)" stroke-width="1" opacity="0.75" />
			</g>
			<g>
				<title>AMP-binding_C (PF13193)
"AMP-binding enzyme C-terminal domain"</title>
				<polygon class="PF13193" points="601,28 603,28 608,33 608,47 603,52 601,52" stroke-linejoin="round" width="7" height="24" fill="rgb(182,50,118)" stroke="rgb(145,39,94)" stroke-width="1" opacity="0.75" />
			</g>
			<g>
				<title>PP-binding (PF00550)
"Phosphopantetheine attachment site"</title>
				<polygon class="PF00550" points="611,36 615,40 611,44" stroke-linejoin="round" width="6" height="24" fill="rgb(103,191,88)" stroke="rgb(82,152,70)" stroke-width="1" opacity="0.75" />
			</g>
		</g>
		<g>
			<title>mppB
mannopeptimycin peptide synthetase MppB</title>
			<polygon class="mppB
mannopeptimycin peptide synthetase MppB" points="620,25 956,25 956,10 986,40 956,70 956,55 620,55" fill="rgb(255,255,255)" fill-opacity="1.0" stroke="rgb(0,0,0)" stroke-width="2"  />
			<g>
				<title>Condensation (PF00668)
"Condensation domain"</title>
				<rect class="PF00668" x="625" y="28" stroke-linejoin="round" width="44" height="24" fill="rgb(224,184,98)" stroke="rgb(179,147,78)" stroke-width="1" opacity="0.75" />
			</g>
			<g>
				<title>AMP-binding (PF00501)
"AMP-binding enzyme"</title>
				<rect class="PF00501" x="672" y="28" stroke-linejoin="round" width="40" height="24" fill="rgb(60,217,223)" stroke="rgb(48,173,178)" stroke-width="1" opacity="0.75" />
			</g>
			<g>
				<title>AMP-binding_C (PF13193)
"AMP-binding enzyme C-terminal domain"</title>
				<rect class="PF13193" x="713" y="28" stroke-linejoin="round" width="7" height="24" fill="rgb(182,50,118)" stroke="rgb(145,39,94)" stroke-width="1" opacity="0.75" />
			</g>
			<g>
				<title>PP-binding (PF00550)
"Phosphopantetheine attachment site"</title>
				<rect class="PF00550" x="723" y="28" stroke-linejoin="round" width="6" height="24" fill="rgb(103,191,88)" stroke="rgb(82,152,70)" stroke-width="1" opacity="0.75" />
			</g>
			<g>
				<title>Condensation (PF00668)
"Condensation domain"</title>
				<rect class="PF00668" x="731" y="28" stroke-linejoin="round" width="46" height="24" fill="rgb(224,184,98)" stroke="rgb(179,147,78)" stroke-width="1" opacity="0.75" />
			</g>
			<g>
				<title>Condensation (PF00668)
"Condensation domain"</title>
				<rect class="PF00668" x="779" y="28" stroke-linejoin="round" width="45" height="24" fill="rgb(224,184,98)" stroke="rgb(179,147,78)" stroke-width="1" opacity="0.75" />
			</g>
			<g>
				<title>AMP-binding (PF00501)
"AMP-binding enzyme"</title>
				<rect class="PF00501" x="826" y="28" stroke-linejoin="round" width="40" height="24" fill="rgb(60,217,223)" stroke="rgb(48,173,178)" stroke-width="1" opacity="0.75" />
			</g>
			<g>
				<title>AMP-binding_C (PF13193)
"AMP-binding enzyme C-terminal domain"</title>
				<rect class="PF13193" x="868" y="28" stroke-linejoin="round" width="7" height="24" fill="rgb(182,50,118)" stroke="rgb(145,39,94)" stroke-width="1" opacity="0.75" />
			</g>
			<g>
				<title>PP-binding (PF00550)
"Phosphopantetheine attachment site"</title>
				<rect class="PF00550" x="878" y="28" stroke-linejoin="round" width="6" height="24" fill="rgb(103,191,88)" stroke="rgb(82,152,70)" stroke-width="1" opacity="0.75" />
			</g>
			<g>
				<title>Condensation (PF00668)
"Condensation domain"</title>
				<rect class="PF00668" x="886" y="28" stroke-linejoin="round" width="44" height="24" fill="rgb(224,184,98)" stroke="rgb(179,147,78)" stroke-width="1" opacity="0.75" />
			</g>
			<g>
				<title>PP-binding (PF00550)
"Phosphopantetheine attachment site"</title>
				<rect class="PF00550" x="934" y="28" stroke-linejoin="round" width="6" height="24" fill="rgb(103,191,88)" stroke="rgb(82,152,70)" stroke-width="1" opacity="0.75" />
			</g>
			<g>
				<title>Condensation (PF00668)
"Condensation domain"</title>
				<polygon class="PF00668" points="942,28 970,28 982,40 970,52 942,52" stroke-linejoin="round" width="44" height="24" fill="rgb(224,184,98)" stroke="rgb(179,147,78)" stroke-width="1" opacity="0.75" />
			</g>
		</g>
		<g>
			<title>mppK
alpha/beta hydrolase MppK</title>
			<polygon class="mppK
alpha/beta hydrolase MppK" points="987,25 1001,25 1001,10 1031,40 1001,70 1001,55 987,55" fill="rgb(255,255,255)" fill-opacity="1.0" stroke="rgb(0,0,0)" stroke-width="2"  />
			<g>
				<title>Beta-lactamase (PF00144)
"Beta-lactamase"</title>
				<polygon class="PF00144" points="987,28 1014,28 1020,34 1020,46 1014,52 987,52" stroke-linejoin="round" width="33" height="24" fill="rgb(92,159,200)" stroke="rgb(73,127,160)" stroke-width="1" opacity="0.75" />
			</g>
		</g>
		<g>
			<title>mppL
ABC transporter MppL</title>
			<polygon class="mppL
ABC transporter MppL" points="1031,25 1046,25 1046,10 1076,40 1046,70 1046,55 1031,55" fill="rgb(255,255,255)" fill-opacity="1.0" stroke="rgb(0,0,0)" stroke-width="2"  />
			<g>
				<title>MFS_1 (PF07690)
"Major Facilitator Superfamily"</title>
				<rect class="PF07690" x="1033" y="28" stroke-linejoin="round" width="26" height="24" fill="rgb(193,224,74)" stroke="rgb(154,179,59)" stroke-width="1" opacity="0.75" />
			</g>
		</g>
		<g>
			<title>mppM
isovaleryltransferase MppM</title>
			<polygon class="mppM
isovaleryltransferase MppM" points="1082,25 1092,25 1092,10 1122,40 1092,70 1092,55 1082,55" fill="rgb(255,255,255)" fill-opacity="1.0" stroke="rgb(0,0,0)" stroke-width="2"  />
			<g>
				<title>Acyl_transf_3 (PF01757)
"Acyltransferase family"</title>
				<polygon class="PF01757" points="1085,28 1106,28 1118,40 1106,52 1085,52" stroke-linejoin="round" width="34" height="24" fill="rgb(50,152,200)" stroke="rgb(40,121,160)" stroke-width="1" opacity="0.75" />
			</g>
		</g>
		<g>
			<title>mppN
isovaleryltransferase MppN</title>
			<polygon class="mppN
isovaleryltransferase MppN" points="1124,25 1139,25 1139,10 1169,40 1139,70 1139,55 1124,55" fill="rgb(255,255,255)" fill-opacity="1.0" stroke="rgb(0,0,0)" stroke-width="2"  />
			<g>
				<title>Acyl_transf_3 (PF01757)
"Acyltransferase family"</title>
				<polygon class="PF01757" points="1131,28 1153,28 1165,40 1165,40 1153,52 1131,52" stroke-linejoin="round" width="34" height="24" fill="rgb(50,152,200)" stroke="rgb(40,121,160)" stroke-width="1" opacity="0.75" />
			</g>
		</g>
		<g>
			<title>mppO
predicted non-heme iron hydroxylase MppO</title>
			<polygon class="mppO
predicted non-heme iron hydroxylase MppO" points="1173,25 1177,25 1177,10 1207,40 1177,70 1177,55 1173,55" fill="rgb(255,255,255)" fill-opacity="1.0" stroke="rgb(0,0,0)" stroke-width="2"  />
			<g>
				<title>TauD (PF02668)
"Taurine catabolism dioxygenase TauD, TfdA family"</title>
				<polygon class="PF02668" points="1175,28 1190,28 1202,40 1190,52 1175,52" stroke-linejoin="round" width="29" height="24" fill="rgb(180,79,217)" stroke="rgb(144,63,173)" stroke-width="1" opacity="0.75" />
			</g>
		</g>
		<g>
			<title>mppP
PLP-dependent aminotransferase MppP</title>
			<polygon class="mppP
PLP-dependent aminotransferase MppP" points="1222,10 1251,40 1222,70" fill="rgb(255,255,255)" fill-opacity="1.0" stroke="rgb(0,0,0)" stroke-width="2"  />
			<g>
				<title>Aminotran_1_2 (PF00155)
"Aminotransferase class I and II"</title>
				<polygon class="PF00155" points="1222,28 1235,28 1247,40 1235,52 1222,52" stroke-linejoin="round" width="28" height="24" fill="rgb(89,113,198)" stroke="rgb(71,90,158)" stroke-width="1" opacity="0.75" />
			</g>
		</g>
		<g>
			<title>mppQ
PLP-dependent aminotransferase MppQ</title>
			<polygon class="mppQ
PLP-dependent aminotransferase MppQ" points="1252,25 1263,25 1263,10 1293,40 1263,70 1263,55 1252,55" fill="rgb(255,255,255)" fill-opacity="1.0" stroke="rgb(0,0,0)" stroke-width="2"  />
			<g>
				<title>Aminotran_1_2 (PF00155)
"Aminotransferase class I and II"</title>
				<polygon class="PF00155" points="1257,28 1277,28 1289,40 1277,52 1257,52" stroke-linejoin="round" width="34" height="24" fill="rgb(89,113,198)" stroke="rgb(71,90,158)" stroke-width="1" opacity="0.75" />
			</g>
		</g>
		<g>
			<title>mppR
conserved hypothetical protein MppR</title>
			<polygon class="mppR
conserved hypothetical protein MppR" points="1292,25 1292,25 1292,10 1322,40 1292,70 1292,55 1292,55" fill="rgb(255,255,255)" fill-opacity="1.0" stroke="rgb(0,0,0)" stroke-width="2"  />
			<g>
				<title>ADC (PF06314)
"Acetoacetate decarboxylase (ADC)"</title>
				<polygon class="PF06314" points="1295,28 1306,28 1318,40 1306,52 1295,52" stroke-linejoin="round" width="25" height="24" fill="rgb(80,180,156)" stroke="rgb(64,144,124)" stroke-width="1" opacity="0.75" />
			</g>
		</g>
		<g>
			<title>mppS
putative transcriptional regulator MppS</title>
			<polygon class="mppS
putative transcriptional regulator MppS" points="1322,25 1325,25 1325,10 1355,40 1325,70 1325,55 1322,55" fill="rgb(255,255,255)" fill-opacity="1.0" stroke="rgb(0,0,0)" stroke-width="2"  />
			<g>
				<title>HTH_20 (PF12840)
"Helix-turn-helix domain"</title>
				<polygon class="PF12840" points="1343,33 1348,38 1348,42 1343,47" stroke-linejoin="round" width="5" height="24" fill="rgb(157,225,93)" stroke="rgb(125,180,74)" stroke-width="1" opacity="0.75" />
			</g>
		</g>
		<g>
			<title>mppT
conserved hypothetical protein MppT</title>
			<polygon class="mppT
conserved hypothetical protein MppT" points="1357,10 1364,40 1357,70" fill="rgb(255,255,255)" fill-opacity="1.0" stroke="rgb(0,0,0)" stroke-width="2"  />
			<g>
				<title>MbtH (PF03621)
"MbtH-like protein"</title>
				<polygon class="PF03621" points="1357,28 1357,28 1361,40 1357,52 1357,52" stroke-linejoin="round" width="5" height="24" fill="rgb(212,165,97)" stroke="rgb(169,132,77)" stroke-width="1" opacity="0.75" />
			</g>
		</g>
		<g>
			<title>mppU
two component response regulator MppU</title>
			<polygon class="mppU
two component response regulator MppU" points="1369,10 1391,40 1369,70" fill="rgb(255,255,255)" fill-opacity="1.0" stroke="rgb(0,0,0)" stroke-width="2"  />
			<g>
				<title>Response_reg (PF00072)
"Response regulator receiver domain"</title>
				<polygon class="PF00072" points="1369,28 1378,28 1380,30 1380,50 1378,52 1369,52" stroke-linejoin="round" width="11" height="24" fill="rgb(100,107,203)" stroke="rgb(80,85,162)" stroke-width="1" opacity="0.75" />
			</g>
			<g>
				<title>GerE (PF00196)
"Bacterial regulatory proteins, luxR family"</title>
				<polygon class="PF00196" points="1384,36 1387,40 1384,44" stroke-linejoin="round" width="5" height="24" fill="rgb(219,94,82)" stroke="rgb(175,75,65)" stroke-width="1" opacity="0.75" />
			</g>
		</g>
		<g>
			<title>mppV
two component sensor kinase MppV</title>
			<polygon class="mppV
two component sensor kinase MppV" points="1396,25 1405,25 1405,10 1435,40 1405,70 1405,55 1396,55" fill="rgb(255,255,255)" fill-opacity="1.0" stroke="rgb(0,0,0)" stroke-width="2"  />
			<g>
				<title>HisKA_3 (PF07730)
"Histidine kinase"</title>
				<polygon class="PF07730" points="1413,28 1418,28 1419,29 1419,51 1418,52 1413,52" stroke-linejoin="round" width="6" height="24" fill="rgb(190,53,146)" stroke="rgb(152,42,116)" stroke-width="1" opacity="0.75" />
			</g>
		</g>
		<g>
			<title>mppW
hypothetical lipoprotein MppW</title>
			<polygon class="mppW
hypothetical lipoprotein MppW" points="1437,10 1451,40 1437,70" fill="rgb(255,255,255)" fill-opacity="1.0" stroke="rgb(0,0,0)" stroke-width="2"  />
		</g>
		<g>
			<title>mppX
ABC transporter MppX</title>
			<polygon class="mppX
ABC transporter MppX" points="1451,25 1451,25 1451,10 1481,40 1451,70 1451,55 1451,55" fill="rgb(255,255,255)" fill-opacity="1.0" stroke="rgb(0,0,0)" stroke-width="2"  />
			<g>
				<title>ABC_tran (PF00005)
"ABC transporter"</title>
				<polygon class="PF00005" points="1452,28 1465,28 1466,29 1466,51 1465,52 1452,52" stroke-linejoin="round" width="14" height="24" fill="rgb(129,201,63)" stroke="rgb(103,160,50)" stroke-width="1" opacity="0.75" />
			</g>
		</g>
		<g>
			<title>mppY
conserved hypothetical protein MppY</title>
			<polygon class="mppY
conserved hypothetical protein MppY" points="1482,25 1506,25 1506,10 1536,40 1506,70 1506,55 1482,55" fill="rgb(255,255,255)" fill-opacity="1.0" stroke="rgb(0,0,0)" stroke-width="2"  />
		</g>
		<g>
			<title>mppZ
conserved hypothetical protein MppZ</title>
			<polygon class="mppZ
conserved hypothetical protein MppZ" points="1556,25 1568,25 1568,10 1598,40 1568,70 1568,55 1556,55" fill="rgb(255,255,255)" fill-opacity="1.0" stroke="rgb(0,0,0)" stroke-width="2"  />
			<g>
				<title>Lipase_GDSL_2 (PF13472)
"GDSL-like Lipase/Acylhydrolase family"</title>
				<polygon class="PF13472" points="1577,28 1581,28 1593,40 1581,52 1577,52" stroke-linejoin="round" width="19" height="24" fill="rgb(116,68,184)" stroke="rgb(92,54,147)" stroke-width="1" opacity="0.75" />
			</g>
		</g>
		<g>
			<title>mppZ1
lactone-dependent transcriptional regulator MppZ1</title>
			<polygon class="mppZ1
lactone-dependent transcriptional regulator MppZ1" points="1602,10 1615,40 1602,70" fill="rgb(255,255,255)" fill-opacity="1.0" stroke="rgb(0,0,0)" stroke-width="2"  />
		</g>
	</g>
</svg>
