<svg version="1.1" baseProfile="full" xmlns="http://www.w3.org/2000/svg" width="902.6" height="80">
	<g>
		<line x1="10" y1="40.0" x2="892.6" y2="40.0" style="stroke:rgb(70,70,70); stroke-width:3 "/>
		<g>
			<title> (STEHIDRAFT_122776)
terpenoid synthase</title>
			<polygon class=" (STEHIDRAFT_122776)
terpenoid synthase" points="54,25 40,25 40,10 10,40 40,70 40,55 54,55" fill="rgb(255,255,255)" fill-opacity="1.0" stroke="rgb(0,0,0)" stroke-width="2"  />
			<g>
				<title>Terpene_syn_C_2 (PF19086)
"Terpene synthase family 2, C-terminal metal binding"</title>
				<rect class="PF19086" x="27" y="28" stroke-linejoin="round" width="18" height="24" fill="rgb(55,207,154)" stroke="rgb(43,165,123)" stroke-width="1" opacity="0.75" />
			</g>
		</g>
		<g>
			<title> (STEHIDRAFT_132357)
terpenoid synthase</title>
			<polygon class=" (STEHIDRAFT_132357)
terpenoid synthase" points="82,25 103,25 103,10 133,40 103,70 103,55 82,55" fill="rgb(255,255,255)" fill-opacity="1.0" stroke="rgb(0,0,0)" stroke-width="2"  />
			<g>
				<title>polyprenyl_synt (PF00348)
"Polyprenyl synthetase"</title>
				<rect class="PF00348" x="87" y="28" stroke-linejoin="round" width="24" height="24" fill="rgb(61,206,65)" stroke="rgb(48,164,52)" stroke-width="1" opacity="0.75" />
			</g>
		</g>
		<g>
			<title> (STEHIDRAFT_158536)
cytochrome P450</title>
			<polygon class=" (STEHIDRAFT_158536)
cytochrome P450" points="161,25 200,25 200,10 230,40 200,70 200,55 161,55" fill="rgb(255,255,255)" fill-opacity="1.0" stroke="rgb(0,0,0)" stroke-width="2"  />
			<g>
				<title>p450 (PF00067)
"Cytochrome P450"</title>
				<rect class="PF00067" x="165" y="28" stroke-linejoin="round" width="46" height="24" fill="rgb(85,216,107)" stroke="rgb(68,172,85)" stroke-width="1" opacity="0.75" />
			</g>
		</g>
		<g>
			<title> (STEHIDRAFT_99663)
UDP-Glycosyltransferase/glycogen phosphorylase</title>
			<polygon class=" (STEHIDRAFT_99663)
UDP-Glycosyltransferase/glycogen phosphorylase" points="264,25 297,25 297,10 327,40 297,70 297,55 264,55" fill="rgb(255,255,255)" fill-opacity="1.0" stroke="rgb(0,0,0)" stroke-width="2"  />
			<g>
				<title>UDPGT (PF00201)
"UDP-glucoronosyl and UDP-glucosyl transferase"</title>
				<rect class="PF00201" x="290" y="28" stroke-linejoin="round" width="14" height="24" fill="rgb(225,150,107)" stroke="rgb(180,120,85)" stroke-width="1" opacity="0.75" />
			</g>
		</g>
		<g>
			<title> (STEHIDRAFT_148133)
cytochrome P450</title>
			<polygon class=" (STEHIDRAFT_148133)
cytochrome P450" points="382,25 444,25 444,10 474,40 444,70 444,55 382,55" fill="rgb(255,255,255)" fill-opacity="1.0" stroke="rgb(0,0,0)" stroke-width="2"  />
			<g>
				<title>p450 (PF00067)
"Cytochrome P450"</title>
				<rect class="PF00067" x="385" y="28" stroke-linejoin="round" width="50" height="24" fill="rgb(85,216,107)" stroke="rgb(68,172,85)" stroke-width="1" opacity="0.75" />
			</g>
		</g>
		<g>
			<title> (STEHIDRAFT_81527)
fatty acid-2 hydroxylase</title>
			<polygon class=" (STEHIDRAFT_81527)
fatty acid-2 hydroxylase" points="503,25 524,25 524,10 554,40 524,70 524,55 503,55" fill="rgb(255,255,255)" fill-opacity="1.0" stroke="rgb(0,0,0)" stroke-width="2"  />
			<g>
				<title>Cyt-b5 (PF00173)
"Cytochrome b5-like Heme/Steroid binding domain"</title>
				<rect class="PF00173" x="503" y="28" stroke-linejoin="round" width="7" height="24" fill="rgb(149,209,92)" stroke="rgb(119,167,73)" stroke-width="1" opacity="0.75" />
			</g>
			<g>
				<title>FA_hydroxylase (PF04116)
"Fatty acid hydroxylase"</title>
				<polygon class="PF04116" points="525,28 537,28 539,30 539,50 537,52 525,52" stroke-linejoin="round" width="14" height="24" fill="rgb(171,60,209)" stroke="rgb(136,48,167)" stroke-width="1" opacity="0.75" />
			</g>
		</g>
		<g>
			<title> (STEHIDRAFT_99669)
hypothetical protein</title>
			<polygon class=" (STEHIDRAFT_99669)
hypothetical protein" points="606,25 606,25 606,10 576,40 606,70 606,55 606,55" fill="rgb(255,255,255)" fill-opacity="1.0" stroke="rgb(0,0,0)" stroke-width="2"  />
		</g>
		<g>
			<title> (STEHIDRAFT_148138)
FAD/NAD-P-binding domain-containing protein</title>
			<polygon class=" (STEHIDRAFT_148138)
FAD/NAD-P-binding domain-containing protein" points="626,25 690,25 690,10 720,40 690,70 690,55 626,55" fill="rgb(255,255,255)" fill-opacity="1.0" stroke="rgb(0,0,0)" stroke-width="2"  />
			<g>
				<title>NAD_binding_8 (PF13450)
"NAD(P)-binding Rossmann-like domain"</title>
				<rect class="PF13450" x="634" y="28" stroke-linejoin="round" width="6" height="24" fill="rgb(91,180,227)" stroke="rgb(72,144,181)" stroke-width="1" opacity="0.75" />
			</g>
		</g>
		<g>
			<title> (STEHIDRAFT_122781)
Piwi-domain-containing protein</title>
			<polygon class=" (STEHIDRAFT_122781)
Piwi-domain-containing protein" points="776,25 859,25 859,10 889,40 859,70 859,55 776,55" fill="rgb(255,255,255)" fill-opacity="1.0" stroke="rgb(0,0,0)" stroke-width="2"  />
			<g>
				<title>ArgoN (PF16486)
"N-terminal domain of argonaute"</title>
				<rect class="PF16486" x="791" y="28" stroke-linejoin="round" width="13" height="24" fill="rgb(187,176,54)" stroke="rgb(149,140,43)" stroke-width="1" opacity="0.75" />
			</g>
			<g>
				<title>ArgoL1 (PF08699)
"Argonaute linker 1 domain"</title>
				<rect class="PF08699" x="806" y="28" stroke-linejoin="round" width="4" height="24" fill="rgb(203,81,166)" stroke="rgb(162,64,132)" stroke-width="1" opacity="0.75" />
			</g>
			<g>
				<title>PAZ (PF02170)
"PAZ domain"</title>
				<rect class="PF02170" x="812" y="28" stroke-linejoin="round" width="11" height="24" fill="rgb(100,100,202)" stroke="rgb(80,80,161)" stroke-width="1" opacity="0.75" />
			</g>
			<g>
				<title>ArgoL2 (PF16488)
"Argonaute linker 2 domain"</title>
				<rect class="PF16488" x="824" y="28" stroke-linejoin="round" width="4" height="24" fill="rgb(135,108,224)" stroke="rgb(107,86,179)" stroke-width="1" opacity="0.75" />
			</g>
			<g>
				<title>Piwi (PF02171)
"Piwi domain"</title>
				<rect class="PF02171" x="841" y="28" stroke-linejoin="round" width="30" height="24" fill="rgb(229,192,72)" stroke="rgb(183,153,57)" stroke-width="1" opacity="0.75" />
			</g>
		</g>
	</g>
</svg>
