<svg version="1.1" baseProfile="full" xmlns="http://www.w3.org/2000/svg" width="1058.3333333333333" height="80">
	<g>
		<line x1="10" y1="40.0" x2="1048.3333333333333" y2="40.0" style="stroke:rgb(70,70,70); stroke-width:3 "/>
		<g>
			<title> (TSTA_083230)
aldo/keto reductase, putative</title>
			<polygon class=" (TSTA_083230)
aldo/keto reductase, putative" points="10,40 33,10 33,70" fill="rgb(255,255,255)" fill-opacity="1.0" stroke="rgb(0,0,0)" stroke-width="2"  />
			<g>
				<title>Aldo_ket_red (PF00248)
"Aldo/keto reductase family"</title>
				<polygon class="PF00248" points="14,40 23,28 32,28 32,52 23,52" stroke-linejoin="round" width="20" height="24" fill="rgb(225,205,58)" stroke="rgb(180,164,46)" stroke-width="1" opacity="0.75" />
			</g>
		</g>
		<g>
			<title> (TSTA_083240)
conserved hypothetical protein</title>
			<polygon class=" (TSTA_083240)
conserved hypothetical protein" points="130,25 106,25 106,10 76,40 106,70 106,55 130,55" fill="rgb(255,255,255)" fill-opacity="1.0" stroke="rgb(0,0,0)" stroke-width="2"  />
			<g>
				<title>NAD_binding_8 (PF13450)
"NAD(P)-binding Rossmann-like domain"</title>
				<rect class="PF13450" x="119" y="28" stroke-linejoin="round" width="6" height="24" fill="rgb(91,180,227)" stroke="rgb(72,144,181)" stroke-width="1" opacity="0.75" />
			</g>
		</g>
		<g>
			<title> (TSTA_083250)
C6 transcription factor, putative</title>
			<polygon class=" (TSTA_083250)
C6 transcription factor, putative" points="171,25 224,25 224,10 254,40 224,70 224,55 171,55" fill="rgb(255,255,255)" fill-opacity="1.0" stroke="rgb(0,0,0)" stroke-width="2"  />
			<g>
				<title>Zn_clus (PF00172)
"Fungal Zn(2)-Cys(6) binuclear cluster domain"</title>
				<rect class="PF00172" x="172" y="28" stroke-linejoin="round" width="3" height="24" fill="rgb(121,178,76)" stroke="rgb(96,142,60)" stroke-width="1" opacity="0.75" />
			</g>
		</g>
		<g>
			<title> (TSTA_083260)
cytochrome P450, putative</title>
			<polygon class=" (TSTA_083260)
cytochrome P450, putative" points="305,25 292,25 292,10 262,40 292,70 292,55 305,55" fill="rgb(255,255,255)" fill-opacity="1.0" stroke="rgb(0,0,0)" stroke-width="2"  />
			<g>
				<title>p450 (PF00067)
"Cytochrome P450"</title>
				<polygon class="PF00067" points="266,40 278,28 305,28 305,52 278,52 266,40" stroke-linejoin="round" width="39" height="24" fill="rgb(85,216,107)" stroke="rgb(68,172,85)" stroke-width="1" opacity="0.75" />
			</g>
		</g>
		<g>
			<title> (TSTA_083270)
monooxygenase, putative</title>
			<polygon class=" (TSTA_083270)
monooxygenase, putative" points="331,25 349,25 349,10 379,40 349,70 349,55 331,55" fill="rgb(255,255,255)" fill-opacity="1.0" stroke="rgb(0,0,0)" stroke-width="2"  />
			<g>
				<title>FAD_binding_3 (PF01494)
"FAD binding domain"</title>
				<polygon class="PF01494" points="331,28 363,28 367,32 367,48 363,52 331,52" stroke-linejoin="round" width="36" height="24" fill="rgb(182,175,59)" stroke="rgb(145,140,47)" stroke-width="1" opacity="0.75" />
			</g>
		</g>
		<g>
			<title> (TSTA_083280)
conserved hypothetical protein</title>
			<polygon class=" (TSTA_083280)
conserved hypothetical protein" points="392,10 407,40 392,70" fill="rgb(255,255,255)" fill-opacity="1.0" stroke="rgb(0,0,0)" stroke-width="2"  />
			<g>
				<title>EthD (PF07110)
"EthD domain"</title>
				<polygon class="PF07110" points="393,28 397,28 402,37 402,43 397,52 393,52" stroke-linejoin="round" width="9" height="24" fill="rgb(64,130,182)" stroke="rgb(51,104,145)" stroke-width="1" opacity="0.75" />
			</g>
		</g>
		<g>
			<title> (TSTA_083290)
conserved hypothetical protein</title>
			<polygon class=" (TSTA_083290)
conserved hypothetical protein" points="423,25 432,25 432,10 462,40 432,70 432,55 423,55" fill="rgb(255,255,255)" fill-opacity="1.0" stroke="rgb(0,0,0)" stroke-width="2"  />
			<g>
				<title>NmrA (PF05368)
"NmrA-like family"</title>
				<rect class="PF05368" x="424" y="28" stroke-linejoin="round" width="21" height="24" fill="rgb(97,49,192)" stroke="rgb(77,39,153)" stroke-width="1" opacity="0.75" />
			</g>
		</g>
		<g>
			<title> (TSTA_083290_rename1)
conserved hypothetical protein</title>
			<polygon class=" (TSTA_083290_rename1)
conserved hypothetical protein" points="428,25 432,25 432,10 462,40 432,70 432,55 428,55" fill="rgb(255,255,255)" fill-opacity="1.0" stroke="rgb(0,0,0)" stroke-width="2"  />
		</g>
		<g>
			<title> (TSTA_083300)
dienelactone hydrolase, putative</title>
			<polygon class=" (TSTA_083300)
dienelactone hydrolase, putative" points="507,25 504,25 504,10 474,40 504,70 504,55 507,55" fill="rgb(255,255,255)" fill-opacity="1.0" stroke="rgb(0,0,0)" stroke-width="2"  />
			<g>
				<title>DLH (PF01738)
"Dienelactone hydrolase family"</title>
				<polygon class="PF01738" points="482,36 490,28 503,28 503,52 490,52 482,44" stroke-linejoin="round" width="21" height="24" fill="rgb(188,185,48)" stroke="rgb(150,147,38)" stroke-width="1" opacity="0.75" />
			</g>
		</g>
		<g>
			<title> (TSTA_083310)
polyketide synthase, putative</title>
			<polygon class=" (TSTA_083310)
polyketide synthase, putative" points="773,25 577,25 577,10 547,40 577,70 577,55 773,55" fill="rgb(255,255,255)" fill-opacity="1.0" stroke="rgb(0,0,0)" stroke-width="2"  />
			<g>
				<title>Thioesterase (PF00975)
"Thioesterase domain"</title>
				<polygon class="PF00975" points="557,34 563,28 581,28 581,52 563,52 557,46" stroke-linejoin="round" width="24" height="24" fill="rgb(207,80,138)" stroke="rgb(165,63,110)" stroke-width="1" opacity="0.75" />
			</g>
			<g>
				<title>PP-binding (PF00550)
"Phosphopantetheine attachment site"</title>
				<rect class="PF00550" x="587" y="28" stroke-linejoin="round" width="6" height="24" fill="rgb(103,191,88)" stroke="rgb(82,152,70)" stroke-width="1" opacity="0.75" />
			</g>
			<g>
				<title>PP-binding (PF00550)
"Phosphopantetheine attachment site"</title>
				<rect class="PF00550" x="598" y="28" stroke-linejoin="round" width="6" height="24" fill="rgb(103,191,88)" stroke="rgb(82,152,70)" stroke-width="1" opacity="0.75" />
			</g>
			<g>
				<title>PS-DH (PF14765)
"Polyketide synthase dehydratase"</title>
				<rect class="PF14765" x="611" y="28" stroke-linejoin="round" width="30" height="24" fill="rgb(173,56,182)" stroke="rgb(138,44,145)" stroke-width="1" opacity="0.75" />
			</g>
			<g>
				<title>Acyl_transf_1 (PF00698)
"Acyl transferase domain"</title>
				<rect class="PF00698" x="648" y="28" stroke-linejoin="round" width="32" height="24" fill="rgb(59,176,209)" stroke="rgb(47,140,167)" stroke-width="1" opacity="0.75" />
			</g>
			<g>
				<title>Ketoacyl-synt_C (PF02801)
"Beta-ketoacyl synthase, C-terminal domain"</title>
				<rect class="PF02801" x="696" y="28" stroke-linejoin="round" width="11" height="24" fill="rgb(215,78,102)" stroke="rgb(172,62,81)" stroke-width="1" opacity="0.75" />
			</g>
			<g>
				<title>ketoacyl-synt (PF00109)
"Beta-ketoacyl synthase, N-terminal domain"</title>
				<rect class="PF00109" x="709" y="28" stroke-linejoin="round" width="25" height="24" fill="rgb(112,116,228)" stroke="rgb(89,92,182)" stroke-width="1" opacity="0.75" />
			</g>
			<g>
				<title>SAT (PF16073)
"Starter unit:ACP transacylase in aflatoxin biosynthesis"</title>
				<rect class="PF16073" x="747" y="28" stroke-linejoin="round" width="23" height="24" fill="rgb(77,115,183)" stroke="rgb(61,91,146)" stroke-width="1" opacity="0.75" />
			</g>
		</g>
		<g>
			<title> (TSTA_083320)
Maleylacetate reductase, putative</title>
			<polygon class=" (TSTA_083320)
Maleylacetate reductase, putative" points="824,25 834,25 834,10 864,40 834,70 834,55 824,55" fill="rgb(255,255,255)" fill-opacity="1.0" stroke="rgb(0,0,0)" stroke-width="2"  />
			<g>
				<title>Fe-ADH (PF00465)
"Iron-containing alcohol dehydrogenase"</title>
				<polygon class="PF00465" points="825,28 847,28 859,40 847,52 825,52" stroke-linejoin="round" width="35" height="24" fill="rgb(73,179,216)" stroke="rgb(58,143,172)" stroke-width="1" opacity="0.75" />
			</g>
		</g>
		<g>
			<title> (TSTA_083330)
O-methyltransferase, putative</title>
			<polygon class=" (TSTA_083330)
O-methyltransferase, putative" points="886,25 906,25 906,10 936,40 906,70 906,55 886,55" fill="rgb(255,255,255)" fill-opacity="1.0" stroke="rgb(0,0,0)" stroke-width="2"  />
			<g>
				<title>Methyltransf_2 (PF00891)
"O-methyltransferase domain"</title>
				<polygon class="PF00891" points="903,28 920,28 925,33 925,47 920,52 903,52" stroke-linejoin="round" width="22" height="24" fill="rgb(50,51,190)" stroke="rgb(39,40,152)" stroke-width="1" opacity="0.75" />
			</g>
		</g>
		<g>
			<title> (TSTA_083340)
cytochrome P450, putative</title>
			<polygon class=" (TSTA_083340)
cytochrome P450, putative" points="1007,25 982,25 982,10 952,40 982,70 982,55 1007,55" fill="rgb(255,255,255)" fill-opacity="1.0" stroke="rgb(0,0,0)" stroke-width="2"  />
			<g>
				<title>p450 (PF00067)
"Cytochrome P450"</title>
				<polygon class="PF00067" points="958,38 968,28 1002,28 1002,52 968,52 958,42" stroke-linejoin="round" width="44" height="24" fill="rgb(85,216,107)" stroke="rgb(68,172,85)" stroke-width="1" opacity="0.75" />
			</g>
		</g>
		<g>
			<title> (TSTA_083350)
conserved hypothetical protein</title>
			<polygon class=" (TSTA_083350)
conserved hypothetical protein" points="1024,10 1047,40 1024,70" fill="rgb(255,255,255)" fill-opacity="1.0" stroke="rgb(0,0,0)" stroke-width="2"  />
			<g>
				<title>Cupin_2 (PF07883)
"Cupin domain"</title>
				<polygon class="PF07883" points="1028,28 1034,28 1035,29 1035,51 1034,52 1028,52" stroke-linejoin="round" width="7" height="24" fill="rgb(211,192,74)" stroke="rgb(168,153,59)" stroke-width="1" opacity="0.75" />
			</g>
		</g>
	</g>
</svg>
