<svg version="1.1" baseProfile="full" xmlns="http://www.w3.org/2000/svg" width="390.6" height="80">
	<g>
		<line x1="10" y1="40.0" x2="380.6" y2="40.0" style="stroke:rgb(70,70,70); stroke-width:3 "/>
		<g>
			<title>
regulator protein</title>
			<polygon class="
regulator protein" points="10,40 27,10 27,70" fill="rgb(255,255,255)" fill-opacity="1.0" stroke="rgb(0,0,0)" stroke-width="2"  />
			<g>
				<title>MarR (PF01047)
"MarR family"</title>
				<polygon class="PF01047" points="15,36 20,28 20,28 20,52 20,52 15,44" stroke-linejoin="round" width="5" height="24" fill="rgb(60,185,86)" stroke="rgb(48,148,68)" stroke-width="1" opacity="0.75" />
			</g>
		</g>
		<g>
			<title>
hydroxylase</title>
			<polygon class="
hydroxylase" points="88,25 65,25 65,10 35,40 65,70 65,55 88,55" fill="rgb(255,255,255)" fill-opacity="1.0" stroke="rgb(0,0,0)" stroke-width="2"  />
			<g>
				<title>FAD_binding_3 (PF01494)
"FAD binding domain"</title>
				<rect class="PF01494" x="53" y="28" stroke-linejoin="round" width="34" height="24" fill="rgb(182,175,59)" stroke="rgb(145,140,47)" stroke-width="1" opacity="0.75" />
			</g>
		</g>
		<g>
			<title>
WhiE I homolog</title>
			<polygon class="
WhiE I homolog" points="101,25 108,25 108,10 138,40 108,70 108,55 101,55" fill="rgb(255,255,255)" fill-opacity="1.0" stroke="rgb(0,0,0)" stroke-width="2"  />
			<g>
				<title>ABM (PF03992)
"Antibiotic biosynthesis monooxygenase"</title>
				<rect class="PF03992" x="102" y="28" stroke-linejoin="round" width="7" height="24" fill="rgb(193,84,127)" stroke="rgb(154,67,101)" stroke-width="1" opacity="0.75" />
			</g>
			<g>
				<title>SchA_CurD (PF04486)
"SchA/CurD like domain"</title>
				<polygon class="PF04486" points="114,28 122,28 125,31 125,49 122,52 114,52" stroke-linejoin="round" width="11" height="24" fill="rgb(75,209,181)" stroke="rgb(60,167,144)" stroke-width="1" opacity="0.75" />
			</g>
		</g>
		<g>
			<title>
WhiE II homolog</title>
			<polygon class="
WhiE II homolog" points="141,10 155,40 141,70" fill="rgb(255,255,255)" fill-opacity="1.0" stroke="rgb(0,0,0)" stroke-width="2"  />
			<g>
				<title>Cupin_2 (PF07883)
"Cupin domain"</title>
				<polygon class="PF07883" points="145,28 146,28 152,40 152,40 146,52 145,52" stroke-linejoin="round" width="7" height="24" fill="rgb(211,192,74)" stroke="rgb(168,153,59)" stroke-width="1" opacity="0.75" />
			</g>
		</g>
		<g>
			<title>
3-oxoacyl-(acyl carrier protein) synthase I</title>
			<polygon class="
3-oxoacyl-(acyl carrier protein) synthase I" points="156,25 168,25 168,10 198,40 168,70 168,55 156,55" fill="rgb(255,255,255)" fill-opacity="1.0" stroke="rgb(0,0,0)" stroke-width="2"  />
			<g>
				<title>ketoacyl-synt (PF00109)
"Beta-ketoacyl synthase, N-terminal domain"</title>
				<rect class="PF00109" x="156" y="28" stroke-linejoin="round" width="25" height="24" fill="rgb(112,116,228)" stroke="rgb(89,92,182)" stroke-width="1" opacity="0.75" />
			</g>
			<g>
				<title>Ketoacyl-synt_C (PF02801)
"Beta-ketoacyl synthase, C-terminal domain"</title>
				<polygon class="PF02801" points="182,29 193,40 193,40 182,51" stroke-linejoin="round" width="11" height="24" fill="rgb(215,78,102)" stroke="rgb(172,62,81)" stroke-width="1" opacity="0.75" />
			</g>
		</g>
		<g>
			<title>
chain length factor</title>
			<polygon class="
chain length factor" points="198,25 209,25 209,10 239,40 209,70 209,55 198,55" fill="rgb(255,255,255)" fill-opacity="1.0" stroke="rgb(0,0,0)" stroke-width="2"  />
			<g>
				<title>ketoacyl-synt (PF00109)
"Beta-ketoacyl synthase, N-terminal domain"</title>
				<rect class="PF00109" x="198" y="28" stroke-linejoin="round" width="24" height="24" fill="rgb(112,116,228)" stroke="rgb(89,92,182)" stroke-width="1" opacity="0.75" />
			</g>
			<g>
				<title>Ketoacyl-synt_C (PF02801)
"Beta-ketoacyl synthase, C-terminal domain"</title>
				<polygon class="PF02801" points="223,28 223,28 234,39 234,41 223,52 223,52" stroke-linejoin="round" width="11" height="24" fill="rgb(215,78,102)" stroke="rgb(172,62,81)" stroke-width="1" opacity="0.75" />
			</g>
		</g>
		<g>
			<title>
acyl carrier protein</title>
			<polygon class="
acyl carrier protein" points="239,10 248,40 239,70" fill="rgb(255,255,255)" fill-opacity="1.0" stroke="rgb(0,0,0)" stroke-width="2"  />
			<g>
				<title>PP-binding (PF00550)
"Phosphopantetheine attachment site"</title>
				<polygon class="PF00550" points="240,28 241,28 245,40 241,52 240,52" stroke-linejoin="round" width="7" height="24" fill="rgb(103,191,88)" stroke="rgb(82,152,70)" stroke-width="1" opacity="0.75" />
			</g>
		</g>
		<g>
			<title>
cyclase I</title>
			<polygon class="
cyclase I" points="249,10 265,40 249,70" fill="rgb(255,255,255)" fill-opacity="1.0" stroke="rgb(0,0,0)" stroke-width="2"  />
			<g>
				<title>Polyketide_cyc (PF03364)
"Polyketide cyclase / dehydrase and lipid transport"</title>
				<polygon class="PF03364" points="250,28 255,28 261,40 255,52 250,52" stroke-linejoin="round" width="12" height="24" fill="rgb(221,94,106)" stroke="rgb(176,75,84)" stroke-width="1" opacity="0.75" />
			</g>
		</g>
		<g>
			<title>
cyclase II</title>
			<polygon class="
cyclase II" points="268,10 278,40 268,70" fill="rgb(255,255,255)" fill-opacity="1.0" stroke="rgb(0,0,0)" stroke-width="2"  />
			<g>
				<title>Cyclase_polyket (PF04673)
"Polyketide synthesis cyclase"</title>
				<polygon class="PF04673" points="268,28 271,28 275,40 271,52 268,52" stroke-linejoin="round" width="10" height="24" fill="rgb(49,187,78)" stroke="rgb(39,149,62)" stroke-width="1" opacity="0.75" />
			</g>
		</g>
		<g>
			<title>
O-methyltransferase</title>
			<polygon class="
O-methyltransferase" points="313,25 310,25 310,10 280,40 310,70 310,55 313,55" fill="rgb(255,255,255)" fill-opacity="1.0" stroke="rgb(0,0,0)" stroke-width="2"  />
			<g>
				<title>Methyltransf_2 (PF00891)
"O-methyltransferase domain"</title>
				<polygon class="PF00891" points="284,40 296,28 302,28 302,52 296,52" stroke-linejoin="round" width="20" height="24" fill="rgb(50,51,190)" stroke="rgb(39,40,152)" stroke-width="1" opacity="0.75" />
			</g>
		</g>
		<g>
			<title>
hypothetical protein</title>
			<polygon class="
hypothetical protein" points="316,40 343,10 343,70" fill="rgb(255,255,255)" fill-opacity="1.0" stroke="rgb(0,0,0)" stroke-width="2"  />
			<g>
				<title>Beta_helix (PF13229)
"Right handed beta helix region"</title>
				<polygon class="PF13229" points="327,32 331,28 341,28 341,52 331,52 327,48" stroke-linejoin="round" width="14" height="24" fill="rgb(197,72,157)" stroke="rgb(157,57,125)" stroke-width="1" opacity="0.75" />
			</g>
		</g>
		<g>
			<title>
regulator protein</title>
			<polygon class="
regulator protein" points="359,40 380,10 380,70" fill="rgb(255,255,255)" fill-opacity="1.0" stroke="rgb(0,0,0)" stroke-width="2"  />
			<g>
				<title>TetR_N (PF00440)
"Bacterial regulatory proteins, tetR family"</title>
				<rect class="PF00440" x="374" y="28" stroke-linejoin="round" width="4" height="24" fill="rgb(73,212,190)" stroke="rgb(58,169,152)" stroke-width="1" opacity="0.75" />
			</g>
		</g>
	</g>
</svg>
