<svg version="1.1" baseProfile="full" xmlns="http://www.w3.org/2000/svg" width="2346.9" height="80">
	<g>
		<line x1="10" y1="40.0" x2="2336.9" y2="40.0" style="stroke:rgb(70,70,70); stroke-width:3 "/>
		<g>
			<title> (ctg3_1)</title>
			<polygon class=" (ctg3_1)" points="61,25 40,25 40,10 10,40 40,70 40,55 61,55" fill="rgb(255,255,255)" fill-opacity="1.0" stroke="rgb(0,0,0)" stroke-width="2"  />
			<g>
				<title>MFS_1 (PF07690)
"Major Facilitator Superfamily"</title>
				<polygon class="PF07690" points="18,36 26,28 57,28 57,52 26,52 18,44" stroke-linejoin="round" width="39" height="24" fill="rgb(193,224,74)" stroke="rgb(154,179,59)" stroke-width="1" opacity="0.75" />
			</g>
		</g>
		<g>
			<title> (ctg3_2)</title>
			<polygon class=" (ctg3_2)" points="66,10 86,40 66,70" fill="rgb(255,255,255)" fill-opacity="1.0" stroke="rgb(0,0,0)" stroke-width="2"  />
			<g>
				<title>TetR_N (PF00440)
"Bacterial regulatory proteins, tetR family"</title>
				<rect class="PF00440" x="69" y="28" stroke-linejoin="round" width="4" height="24" fill="rgb(73,212,190)" stroke="rgb(58,169,152)" stroke-width="1" opacity="0.75" />
			</g>
			<g>
				<title>TetR_C_11 (PF16859)
"Tetracyclin repressor-like, C-terminal domain"</title>
				<polygon class="PF16859" points="74,28 74,28 82,40 74,52 74,52" stroke-linejoin="round" width="11" height="24" fill="rgb(219,77,198)" stroke="rgb(175,61,158)" stroke-width="1" opacity="0.75" />
			</g>
		</g>
		<g>
			<title> (ctg3_3)</title>
			<polygon class=" (ctg3_3)" points="93,40 107,10 107,70" fill="rgb(255,255,255)" fill-opacity="1.0" stroke="rgb(0,0,0)" stroke-width="2"  />
			<g>
				<title>OmdA (PF13376)
"Bacteriocin-protection, YdeI or OmpD-Associated"</title>
				<polygon class="PF13376" points="96,40 98,36 98,44" stroke-linejoin="round" width="5" height="24" fill="rgb(212,104,109)" stroke="rgb(169,83,87)" stroke-width="1" opacity="0.75" />
			</g>
		</g>
		<g>
			<title> (ctg3_4)</title>
			<polygon class=" (ctg3_4)" points="128,25 143,25 143,10 173,40 143,70 143,55 128,55" fill="rgb(255,255,255)" fill-opacity="1.0" stroke="rgb(0,0,0)" stroke-width="2"  />
			<g>
				<title>p450 (PF00067)
"Cytochrome P450"</title>
				<polygon class="PF00067" points="129,28 157,28 169,40 157,52 129,52" stroke-linejoin="round" width="42" height="24" fill="rgb(85,216,107)" stroke="rgb(68,172,85)" stroke-width="1" opacity="0.75" />
			</g>
		</g>
		<g>
			<title> (ctg3_5)</title>
			<polygon class=" (ctg3_5)" points="199,10 221,40 199,70" fill="rgb(255,255,255)" fill-opacity="1.0" stroke="rgb(0,0,0)" stroke-width="2"  />
			<g>
				<title>cNMP_binding (PF00027)
"Cyclic nucleotide-binding domain"</title>
				<polygon class="PF00027" points="201,28 208,28 209,29 209,51 208,52 201,52" stroke-linejoin="round" width="8" height="24" fill="rgb(138,95,204)" stroke="rgb(110,76,163)" stroke-width="1" opacity="0.75" />
			</g>
			<g>
				<title>HTH_Crp_2 (PF13545)
"Crp-like helix-turn-helix domain"</title>
				<polygon class="PF13545" points="213,34 217,40 213,46" stroke-linejoin="round" width="7" height="24" fill="rgb(87,137,202)" stroke="rgb(69,109,161)" stroke-width="1" opacity="0.75" />
			</g>
		</g>
		<g>
			<title> (ctg3_6)</title>
			<polygon class=" (ctg3_6)" points="220,40 245,10 245,70" fill="rgb(255,255,255)" fill-opacity="1.0" stroke="rgb(0,0,0)" stroke-width="2"  />
			<g>
				<title>ACPS (PF01648)
"4'-phosphopantetheinyl transferase superfamily"</title>
				<polygon class="PF01648" points="224,40 232,30 232,50" stroke-linejoin="round" width="10" height="24" fill="rgb(85,184,135)" stroke="rgb(68,147,108)" stroke-width="1" opacity="0.75" />
			</g>
		</g>
		<g>
			<title> (ctg3_7)</title>
			<polygon class=" (ctg3_7)" points="289,25 276,25 276,10 246,40 276,70 276,55 289,55" fill="rgb(255,255,255)" fill-opacity="1.0" stroke="rgb(0,0,0)" stroke-width="2"  />
			<g>
				<title>p450 (PF00067)
"Cytochrome P450"</title>
				<polygon class="PF00067" points="250,40 262,28 280,28 280,52 262,52" stroke-linejoin="round" width="32" height="24" fill="rgb(85,216,107)" stroke="rgb(68,172,85)" stroke-width="1" opacity="0.75" />
			</g>
		</g>
		<g>
			<title> (ctg3_8)</title>
			<polygon class=" (ctg3_8)" points="300,10 325,40 300,70" fill="rgb(255,255,255)" fill-opacity="1.0" stroke="rgb(0,0,0)" stroke-width="2"  />
			<g>
				<title>cNMP_binding (PF00027)
"Cyclic nucleotide-binding domain"</title>
				<polygon class="PF00027" points="305,28 311,28 313,31 313,49 311,52 305,52" stroke-linejoin="round" width="8" height="24" fill="rgb(138,95,204)" stroke="rgb(110,76,163)" stroke-width="1" opacity="0.75" />
			</g>
			<g>
				<title>HTH_Crp_2 (PF13545)
"Crp-like helix-turn-helix domain"</title>
				<polygon class="PF13545" points="316,34 321,40 316,46" stroke-linejoin="round" width="7" height="24" fill="rgb(87,137,202)" stroke="rgb(69,109,161)" stroke-width="1" opacity="0.75" />
			</g>
		</g>
		<g>
			<title> (ctg3_9)</title>
			<polygon class=" (ctg3_9)" points="328,25 341,25 341,10 371,40 341,70 341,55 328,55" fill="rgb(255,255,255)" fill-opacity="1.0" stroke="rgb(0,0,0)" stroke-width="2"  />
			<g>
				<title>Na_H_Exchanger (PF00999)
"Sodium/hydrogen exchanger family"</title>
				<polygon class="PF00999" points="328,28 355,28 367,40 367,40 355,52 328,52" stroke-linejoin="round" width="39" height="24" fill="rgb(229,67,191)" stroke="rgb(183,53,152)" stroke-width="1" opacity="0.75" />
			</g>
		</g>
		<g>
			<title> (ctg3_10)</title>
			<polygon class=" (ctg3_10)" points="374,25 374,25 374,10 404,40 374,70 374,55 374,55" fill="rgb(255,255,255)" fill-opacity="1.0" stroke="rgb(0,0,0)" stroke-width="2"  />
			<g>
				<title>DUF6039 (PF19505)
"Family of unknown function (DUF6039)"</title>
				<polygon class="PF19505" points="375,28 388,28 400,40 388,52 375,52" stroke-linejoin="round" width="29" height="24" fill="rgb(73,134,187)" stroke="rgb(58,107,149)" stroke-width="1" opacity="0.75" />
			</g>
		</g>
		<g>
			<title> (ctg3_11)</title>
			<polygon class=" (ctg3_11)" points="404,25 415,25 415,10 445,40 415,70 415,55 404,55" fill="rgb(255,255,255)" fill-opacity="1.0" stroke="rgb(0,0,0)" stroke-width="2"  />
			<g>
				<title>HMG_CoA_synt_N (PF01154)
"Hydroxymethylglutaryl-coenzyme A synthase N terminal"</title>
				<rect class="PF01154" x="404" y="28" stroke-linejoin="round" width="17" height="24" fill="rgb(88,216,218)" stroke="rgb(70,172,174)" stroke-width="1" opacity="0.75" />
			</g>
			<g>
				<title>HMG_CoA_synt_C (PF08540)
"Hydroxymethylglutaryl-coenzyme A synthase C terminal"</title>
				<polygon class="PF08540" points="429,29 440,40 440,40 429,51" stroke-linejoin="round" width="11" height="24" fill="rgb(49,194,86)" stroke="rgb(39,155,68)" stroke-width="1" opacity="0.75" />
			</g>
		</g>
		<g>
			<title> (ctg3_12)</title>
			<polygon class=" (ctg3_12)" points="445,10 471,40 445,70" fill="rgb(255,255,255)" fill-opacity="1.0" stroke="rgb(0,0,0)" stroke-width="2"  />
			<g>
				<title>ECH_1 (PF00378)
"Enoyl-CoA hydratase/isomerase"</title>
				<polygon class="PF00378" points="446,28 457,28 467,40 457,52 446,52" stroke-linejoin="round" width="24" height="24" fill="rgb(218,72,181)" stroke="rgb(174,57,144)" stroke-width="1" opacity="0.75" />
			</g>
		</g>
		<g>
			<title> (ctg3_13)</title>
			<polygon class=" (ctg3_13)" points="471,25 520,25 520,10 550,40 520,70 520,55 471,55" fill="rgb(255,255,255)" fill-opacity="1.0" stroke="rgb(0,0,0)" stroke-width="2"  />
			<g>
				<title>Acyl_transf_1 (PF00698)
"Acyl transferase domain"</title>
				<rect class="PF00698" x="471" y="28" stroke-linejoin="round" width="28" height="24" fill="rgb(59,176,209)" stroke="rgb(47,140,167)" stroke-width="1" opacity="0.75" />
			</g>
		</g>
		<g>
			<title> (ctg3_14)</title>
			<polygon class=" (ctg3_14)" points="555,25 556,25 556,10 586,40 556,70 556,55 555,55" fill="rgb(255,255,255)" fill-opacity="1.0" stroke="rgb(0,0,0)" stroke-width="2"  />
			<g>
				<title>DUF6039 (PF19505)
"Family of unknown function (DUF6039)"</title>
				<polygon class="PF19505" points="555,28 570,28 582,40 570,52 555,52" stroke-linejoin="round" width="30" height="24" fill="rgb(73,134,187)" stroke="rgb(58,107,149)" stroke-width="1" opacity="0.75" />
			</g>
		</g>
		<g>
			<title> (ctg3_15)</title>
			<polygon class=" (ctg3_15)" points="588,25 618,25 618,10 648,40 618,70 618,55 588,55" fill="rgb(255,255,255)" fill-opacity="1.0" stroke="rgb(0,0,0)" stroke-width="2"  />
			<g>
				<title>AMP-binding (PF00501)
"AMP-binding enzyme"</title>
				<rect class="PF00501" x="589" y="28" stroke-linejoin="round" width="39" height="24" fill="rgb(60,217,223)" stroke="rgb(48,173,178)" stroke-width="1" opacity="0.75" />
			</g>
			<g>
				<title>AMP-binding_C (PF13193)
"AMP-binding enzyme C-terminal domain"</title>
				<polygon class="PF13193" points="629,28 631,28 637,34 637,46 631,52 629,52" stroke-linejoin="round" width="8" height="24" fill="rgb(182,50,118)" stroke="rgb(145,39,94)" stroke-width="1" opacity="0.75" />
			</g>
			<g>
				<title>PP-binding (PF00550)
"Phosphopantetheine attachment site"</title>
				<polygon class="PF00550" points="641,38 643,40 641,42" stroke-linejoin="round" width="6" height="24" fill="rgb(103,191,88)" stroke="rgb(82,152,70)" stroke-width="1" opacity="0.75" />
			</g>
		</g>
		<g>
			<title> (ctg3_16)</title>
			<polygon class=" (ctg3_16)" points="649,25 650,25 650,10 680,40 650,70 650,55 649,55" fill="rgb(255,255,255)" fill-opacity="1.0" stroke="rgb(0,0,0)" stroke-width="2"  />
			<g>
				<title>PhyH (PF05721)
"Phytanoyl-CoA dioxygenase (PhyH)"</title>
				<polygon class="PF05721" points="650,28 664,28 673,37 673,43 664,52 650,52" stroke-linejoin="round" width="23" height="24" fill="rgb(72,132,214)" stroke="rgb(57,105,171)" stroke-width="1" opacity="0.75" />
			</g>
		</g>
		<g>
			<title> (ctg3_17)</title>
			<polygon class=" (ctg3_17)" points="682,25 691,25 691,10 721,40 691,70 691,55 682,55" fill="rgb(255,255,255)" fill-opacity="1.0" stroke="rgb(0,0,0)" stroke-width="2"  />
		</g>
		<g>
			<title> (ctg3_18)</title>
			<polygon class=" (ctg3_18)" points="721,25 1119,25 1119,10 1149,40 1119,70 1119,55 721,55" fill="rgb(255,255,255)" fill-opacity="1.0" stroke="rgb(0,0,0)" stroke-width="2"  />
			<g>
				<title>PP-binding (PF00550)
"Phosphopantetheine attachment site"</title>
				<rect class="PF00550" x="722" y="28" stroke-linejoin="round" width="6" height="24" fill="rgb(103,191,88)" stroke="rgb(82,152,70)" stroke-width="1" opacity="0.75" />
			</g>
			<g>
				<title>Condensation (PF00668)
"Condensation domain"</title>
				<rect class="PF00668" x="730" y="28" stroke-linejoin="round" width="42" height="24" fill="rgb(224,184,98)" stroke="rgb(179,147,78)" stroke-width="1" opacity="0.75" />
			</g>
			<g>
				<title>AMP-binding (PF00501)
"AMP-binding enzyme"</title>
				<rect class="PF00501" x="816" y="28" stroke-linejoin="round" width="40" height="24" fill="rgb(60,217,223)" stroke="rgb(48,173,178)" stroke-width="1" opacity="0.75" />
			</g>
			<g>
				<title>AMP-binding_C (PF13193)
"AMP-binding enzyme C-terminal domain"</title>
				<rect class="PF13193" x="857" y="28" stroke-linejoin="round" width="7" height="24" fill="rgb(182,50,118)" stroke="rgb(145,39,94)" stroke-width="1" opacity="0.75" />
			</g>
			<g>
				<title>PP-binding (PF00550)
"Phosphopantetheine attachment site"</title>
				<rect class="PF00550" x="875" y="28" stroke-linejoin="round" width="6" height="24" fill="rgb(103,191,88)" stroke="rgb(82,152,70)" stroke-width="1" opacity="0.75" />
			</g>
			<g>
				<title>Nitroreductase (PF00881)
"Nitroreductase family"</title>
				<rect class="PF00881" x="888" y="28" stroke-linejoin="round" width="17" height="24" fill="rgb(79,118,187)" stroke="rgb(63,94,149)" stroke-width="1" opacity="0.75" />
			</g>
			<g>
				<title>ketoacyl-synt (PF00109)
"Beta-ketoacyl synthase, N-terminal domain"</title>
				<rect class="PF00109" x="909" y="28" stroke-linejoin="round" width="24" height="24" fill="rgb(112,116,228)" stroke="rgb(89,92,182)" stroke-width="1" opacity="0.75" />
			</g>
			<g>
				<title>Ketoacyl-synt_C (PF02801)
"Beta-ketoacyl synthase, C-terminal domain"</title>
				<rect class="PF02801" x="934" y="28" stroke-linejoin="round" width="11" height="24" fill="rgb(215,78,102)" stroke="rgb(172,62,81)" stroke-width="1" opacity="0.75" />
			</g>
			<g>
				<title>KAsynt_C_assoc (PF16197)
"Ketoacyl-synthetase C-terminal extension"</title>
				<rect class="PF16197" x="946" y="28" stroke-linejoin="round" width="12" height="24" fill="rgb(240,150,172)" stroke="rgb(192,120,137)" stroke-width="1" opacity="0.75" />
			</g>
			<g>
				<title>PP-binding (PF00550)
"Phosphopantetheine attachment site"</title>
				<rect class="PF00550" x="969" y="28" stroke-linejoin="round" width="6" height="24" fill="rgb(103,191,88)" stroke="rgb(82,152,70)" stroke-width="1" opacity="0.75" />
			</g>
			<g>
				<title>ketoacyl-synt (PF00109)
"Beta-ketoacyl synthase, N-terminal domain"</title>
				<rect class="PF00109" x="978" y="28" stroke-linejoin="round" width="24" height="24" fill="rgb(112,116,228)" stroke="rgb(89,92,182)" stroke-width="1" opacity="0.75" />
			</g>
			<g>
				<title>Ketoacyl-synt_C (PF02801)
"Beta-ketoacyl synthase, C-terminal domain"</title>
				<rect class="PF02801" x="1003" y="28" stroke-linejoin="round" width="11" height="24" fill="rgb(215,78,102)" stroke="rgb(172,62,81)" stroke-width="1" opacity="0.75" />
			</g>
			<g>
				<title>KAsynt_C_assoc (PF16197)
"Ketoacyl-synthetase C-terminal extension"</title>
				<rect class="PF16197" x="1015" y="28" stroke-linejoin="round" width="11" height="24" fill="rgb(240,150,172)" stroke="rgb(192,120,137)" stroke-width="1" opacity="0.75" />
			</g>
			<g>
				<title>KR (PF08659)
"KR domain"</title>
				<rect class="PF08659" x="1059" y="28" stroke-linejoin="round" width="19" height="24" fill="rgb(66,209,188)" stroke="rgb(52,167,150)" stroke-width="1" opacity="0.75" />
			</g>
			<g>
				<title>PP-binding (PF00550)
"Phosphopantetheine attachment site"</title>
				<rect class="PF00550" x="1088" y="28" stroke-linejoin="round" width="6" height="24" fill="rgb(103,191,88)" stroke="rgb(82,152,70)" stroke-width="1" opacity="0.75" />
			</g>
			<g>
				<title>ketoacyl-synt (PF00109)
"Beta-ketoacyl synthase, N-terminal domain"</title>
				<rect class="PF00109" x="1099" y="28" stroke-linejoin="round" width="24" height="24" fill="rgb(112,116,228)" stroke="rgb(89,92,182)" stroke-width="1" opacity="0.75" />
			</g>
			<g>
				<title>Ketoacyl-synt_C (PF02801)
"Beta-ketoacyl synthase, C-terminal domain"</title>
				<polygon class="PF02801" points="1124,28 1133,28 1135,30 1135,50 1133,52 1124,52" stroke-linejoin="round" width="11" height="24" fill="rgb(215,78,102)" stroke="rgb(172,62,81)" stroke-width="1" opacity="0.75" />
			</g>
		</g>
		<g>
			<title> (ctg3_19)</title>
			<polygon class=" (ctg3_19)" points="1150,25 1854,25 1854,10 1884,40 1854,70 1854,55 1150,55" fill="rgb(255,255,255)" fill-opacity="1.0" stroke="rgb(0,0,0)" stroke-width="2"  />
			<g>
				<title>PS-DH (PF14765)
"Polyketide synthase dehydratase"</title>
				<rect class="PF14765" x="1150" y="28" stroke-linejoin="round" width="27" height="24" fill="rgb(173,56,182)" stroke="rgb(138,44,145)" stroke-width="1" opacity="0.75" />
			</g>
			<g>
				<title>PP-binding (PF00550)
"Phosphopantetheine attachment site"</title>
				<rect class="PF00550" x="1180" y="28" stroke-linejoin="round" width="6" height="24" fill="rgb(103,191,88)" stroke="rgb(82,152,70)" stroke-width="1" opacity="0.75" />
			</g>
			<g>
				<title>KR (PF08659)
"KR domain"</title>
				<rect class="PF08659" x="1210" y="28" stroke-linejoin="round" width="17" height="24" fill="rgb(66,209,188)" stroke="rgb(52,167,150)" stroke-width="1" opacity="0.75" />
			</g>
			<g>
				<title>ketoacyl-synt (PF00109)
"Beta-ketoacyl synthase, N-terminal domain"</title>
				<rect class="PF00109" x="1239" y="28" stroke-linejoin="round" width="24" height="24" fill="rgb(112,116,228)" stroke="rgb(89,92,182)" stroke-width="1" opacity="0.75" />
			</g>
			<g>
				<title>Ketoacyl-synt_C (PF02801)
"Beta-ketoacyl synthase, C-terminal domain"</title>
				<rect class="PF02801" x="1264" y="28" stroke-linejoin="round" width="11" height="24" fill="rgb(215,78,102)" stroke="rgb(172,62,81)" stroke-width="1" opacity="0.75" />
			</g>
			<g>
				<title>KAsynt_C_assoc (PF16197)
"Ketoacyl-synthetase C-terminal extension"</title>
				<rect class="PF16197" x="1276" y="28" stroke-linejoin="round" width="9" height="24" fill="rgb(240,150,172)" stroke="rgb(192,120,137)" stroke-width="1" opacity="0.75" />
			</g>
			<g>
				<title>ECH_1 (PF00378)
"Enoyl-CoA hydratase/isomerase"</title>
				<rect class="PF00378" x="1309" y="28" stroke-linejoin="round" width="23" height="24" fill="rgb(218,72,181)" stroke="rgb(174,57,144)" stroke-width="1" opacity="0.75" />
			</g>
			<g>
				<title>PP-binding (PF00550)
"Phosphopantetheine attachment site"</title>
				<rect class="PF00550" x="1339" y="28" stroke-linejoin="round" width="6" height="24" fill="rgb(103,191,88)" stroke="rgb(82,152,70)" stroke-width="1" opacity="0.75" />
			</g>
			<g>
				<title>ketoacyl-synt (PF00109)
"Beta-ketoacyl synthase, N-terminal domain"</title>
				<rect class="PF00109" x="1358" y="28" stroke-linejoin="round" width="24" height="24" fill="rgb(112,116,228)" stroke="rgb(89,92,182)" stroke-width="1" opacity="0.75" />
			</g>
			<g>
				<title>Ketoacyl-synt_C (PF02801)
"Beta-ketoacyl synthase, C-terminal domain"</title>
				<rect class="PF02801" x="1384" y="28" stroke-linejoin="round" width="11" height="24" fill="rgb(215,78,102)" stroke="rgb(172,62,81)" stroke-width="1" opacity="0.75" />
			</g>
			<g>
				<title>KAsynt_C_assoc (PF16197)
"Ketoacyl-synthetase C-terminal extension"</title>
				<rect class="PF16197" x="1395" y="28" stroke-linejoin="round" width="11" height="24" fill="rgb(240,150,172)" stroke="rgb(192,120,137)" stroke-width="1" opacity="0.75" />
			</g>
			<g>
				<title>PS-DH (PF14765)
"Polyketide synthase dehydratase"</title>
				<rect class="PF14765" x="1420" y="28" stroke-linejoin="round" width="24" height="24" fill="rgb(173,56,182)" stroke="rgb(138,44,145)" stroke-width="1" opacity="0.75" />
			</g>
			<g>
				<title>KR (PF08659)
"KR domain"</title>
				<rect class="PF08659" x="1465" y="28" stroke-linejoin="round" width="17" height="24" fill="rgb(66,209,188)" stroke="rgb(52,167,150)" stroke-width="1" opacity="0.75" />
			</g>
			<g>
				<title>Methyltransf_12 (PF08242)
"Methyltransferase domain"</title>
				<rect class="PF08242" x="1507" y="28" stroke-linejoin="round" width="10" height="24" fill="rgb(187,59,115)" stroke="rgb(149,47,92)" stroke-width="1" opacity="0.75" />
			</g>
			<g>
				<title>PP-binding (PF00550)
"Phosphopantetheine attachment site"</title>
				<rect class="PF00550" x="1526" y="28" stroke-linejoin="round" width="6" height="24" fill="rgb(103,191,88)" stroke="rgb(82,152,70)" stroke-width="1" opacity="0.75" />
			</g>
			<g>
				<title>ketoacyl-synt (PF00109)
"Beta-ketoacyl synthase, N-terminal domain"</title>
				<rect class="PF00109" x="1540" y="28" stroke-linejoin="round" width="24" height="24" fill="rgb(112,116,228)" stroke="rgb(89,92,182)" stroke-width="1" opacity="0.75" />
			</g>
			<g>
				<title>Ketoacyl-synt_C (PF02801)
"Beta-ketoacyl synthase, C-terminal domain"</title>
				<rect class="PF02801" x="1566" y="28" stroke-linejoin="round" width="12" height="24" fill="rgb(215,78,102)" stroke="rgb(172,62,81)" stroke-width="1" opacity="0.75" />
			</g>
			<g>
				<title>KAsynt_C_assoc (PF16197)
"Ketoacyl-synthetase C-terminal extension"</title>
				<rect class="PF16197" x="1578" y="28" stroke-linejoin="round" width="11" height="24" fill="rgb(240,150,172)" stroke="rgb(192,120,137)" stroke-width="1" opacity="0.75" />
			</g>
			<g>
				<title>KR (PF08659)
"KR domain"</title>
				<rect class="PF08659" x="1625" y="28" stroke-linejoin="round" width="18" height="24" fill="rgb(66,209,188)" stroke="rgb(52,167,150)" stroke-width="1" opacity="0.75" />
			</g>
			<g>
				<title>PP-binding (PF00550)
"Phosphopantetheine attachment site"</title>
				<rect class="PF00550" x="1652" y="28" stroke-linejoin="round" width="6" height="24" fill="rgb(103,191,88)" stroke="rgb(82,152,70)" stroke-width="1" opacity="0.75" />
			</g>
			<g>
				<title>ketoacyl-synt (PF00109)
"Beta-ketoacyl synthase, N-terminal domain"</title>
				<rect class="PF00109" x="1672" y="28" stroke-linejoin="round" width="24" height="24" fill="rgb(112,116,228)" stroke="rgb(89,92,182)" stroke-width="1" opacity="0.75" />
			</g>
			<g>
				<title>Ketoacyl-synt_C (PF02801)
"Beta-ketoacyl synthase, C-terminal domain"</title>
				<rect class="PF02801" x="1697" y="28" stroke-linejoin="round" width="12" height="24" fill="rgb(215,78,102)" stroke="rgb(172,62,81)" stroke-width="1" opacity="0.75" />
			</g>
			<g>
				<title>KAsynt_C_assoc (PF16197)
"Ketoacyl-synthetase C-terminal extension"</title>
				<rect class="PF16197" x="1710" y="28" stroke-linejoin="round" width="11" height="24" fill="rgb(240,150,172)" stroke="rgb(192,120,137)" stroke-width="1" opacity="0.75" />
			</g>
			<g>
				<title>PP-binding (PF00550)
"Phosphopantetheine attachment site"</title>
				<rect class="PF00550" x="1746" y="28" stroke-linejoin="round" width="6" height="24" fill="rgb(103,191,88)" stroke="rgb(82,152,70)" stroke-width="1" opacity="0.75" />
			</g>
			<g>
				<title>LPG_synthase_C (PF09924)
"Phosphatidylglycerol lysyltransferase, C-terminal"</title>
				<rect class="PF09924" x="1776" y="28" stroke-linejoin="round" width="27" height="24" fill="rgb(212,197,83)" stroke="rgb(169,157,66)" stroke-width="1" opacity="0.75" />
			</g>
			<g>
				<title>Beta_elim_lyase (PF01212)
"Beta-eliminating lyase"</title>
				<rect class="PF01212" x="1815" y="28" stroke-linejoin="round" width="30" height="24" fill="rgb(121,182,62)" stroke="rgb(96,145,49)" stroke-width="1" opacity="0.75" />
			</g>
			<g>
				<title>Abhydrolase_1 (PF00561)
"alpha/beta hydrolase fold"</title>
				<polygon class="PF00561" points="1859,28 1867,28 1879,40 1867,52 1859,52" stroke-linejoin="round" width="22" height="24" fill="rgb(86,180,151)" stroke="rgb(68,144,120)" stroke-width="1" opacity="0.75" />
			</g>
		</g>
		<g>
			<title> (ctg3_20)</title>
			<polygon class=" (ctg3_20)" points="1884,25 1887,25 1887,10 1917,40 1887,70 1887,55 1884,55" fill="rgb(255,255,255)" fill-opacity="1.0" stroke="rgb(0,0,0)" stroke-width="2"  />
			<g>
				<title>LnmK_N_HDF (PF18238)
"LnmK N-terminal Hot Dog Fold domain"</title>
				<polygon class="PF18238" points="1886,28 1900,28 1903,31 1903,49 1900,52 1886,52" stroke-linejoin="round" width="17" height="24" fill="rgb(108,225,168)" stroke="rgb(86,180,134)" stroke-width="1" opacity="0.75" />
			</g>
		</g>
		<g>
			<title> (ctg3_21)</title>
			<polygon class=" (ctg3_21)" points="1917,10 1925,40 1917,70" fill="rgb(255,255,255)" fill-opacity="1.0" stroke="rgb(0,0,0)" stroke-width="2"  />
			<g>
				<title>PP-binding (PF00550)
"Phosphopantetheine attachment site"</title>
				<polygon class="PF00550" points="1918,28 1918,28 1922,40 1918,52 1918,52" stroke-linejoin="round" width="6" height="24" fill="rgb(103,191,88)" stroke="rgb(82,152,70)" stroke-width="1" opacity="0.75" />
			</g>
		</g>
		<g>
			<title> (ctg3_22)</title>
			<polygon class=" (ctg3_22)" points="1925,25 1936,25 1936,10 1966,40 1936,70 1936,55 1925,55" fill="rgb(255,255,255)" fill-opacity="1.0" stroke="rgb(0,0,0)" stroke-width="2"  />
			<g>
				<title>HMG_CoA_synt_N (PF01154)
"Hydroxymethylglutaryl-coenzyme A synthase N terminal"</title>
				<rect class="PF01154" x="1925" y="28" stroke-linejoin="round" width="16" height="24" fill="rgb(88,216,218)" stroke="rgb(70,172,174)" stroke-width="1" opacity="0.75" />
			</g>
			<g>
				<title>HMG_CoA_synt_C (PF08540)
"Hydroxymethylglutaryl-coenzyme A synthase C terminal"</title>
				<polygon class="PF08540" points="1950,28 1950,28 1961,39 1961,41 1950,52 1950,52" stroke-linejoin="round" width="11" height="24" fill="rgb(49,194,86)" stroke="rgb(39,155,68)" stroke-width="1" opacity="0.75" />
			</g>
		</g>
		<g>
			<title> (ctg3_23)</title>
			<polygon class=" (ctg3_23)" points="1967,10 1975,40 1967,70" fill="rgb(255,255,255)" fill-opacity="1.0" stroke="rgb(0,0,0)" stroke-width="2"  />
			<g>
				<title>PP-binding (PF00550)
"Phosphopantetheine attachment site"</title>
				<polygon class="PF00550" points="1967,28 1968,28 1971,40 1968,52 1967,52" stroke-linejoin="round" width="7" height="24" fill="rgb(103,191,88)" stroke="rgb(82,152,70)" stroke-width="1" opacity="0.75" />
			</g>
		</g>
		<g>
			<title> (ctg3_24)</title>
			<polygon class=" (ctg3_24)" points="1975,25 1987,25 1987,10 2017,40 1987,70 1987,55 1975,55" fill="rgb(255,255,255)" fill-opacity="1.0" stroke="rgb(0,0,0)" stroke-width="2"  />
			<g>
				<title>ketoacyl-synt (PF00109)
"Beta-ketoacyl synthase, N-terminal domain"</title>
				<rect class="PF00109" x="1975" y="28" stroke-linejoin="round" width="25" height="24" fill="rgb(112,116,228)" stroke="rgb(89,92,182)" stroke-width="1" opacity="0.75" />
			</g>
			<g>
				<title>Ketoacyl-synt_C (PF02801)
"Beta-ketoacyl synthase, C-terminal domain"</title>
				<polygon class="PF02801" points="2001,28 2001,28 2012,39 2012,41 2001,52 2001,52" stroke-linejoin="round" width="11" height="24" fill="rgb(215,78,102)" stroke="rgb(172,62,81)" stroke-width="1" opacity="0.75" />
			</g>
		</g>
		<g>
			<title> (ctg3_25)</title>
			<polygon class=" (ctg3_25)" points="2017,10 2042,40 2017,70" fill="rgb(255,255,255)" fill-opacity="1.0" stroke="rgb(0,0,0)" stroke-width="2"  />
			<g>
				<title>Thioesterase (PF00975)
"Thioesterase domain"</title>
				<polygon class="PF00975" points="2017,28 2028,28 2038,40 2028,52 2017,52" stroke-linejoin="round" width="22" height="24" fill="rgb(207,80,138)" stroke="rgb(165,63,110)" stroke-width="1" opacity="0.75" />
			</g>
		</g>
		<g>
			<title> (ctg3_26)</title>
			<polygon class=" (ctg3_26)" points="2043,10 2067,40 2043,70" fill="rgb(255,255,255)" fill-opacity="1.0" stroke="rgb(0,0,0)" stroke-width="2"  />
			<g>
				<title>PIG-L (PF02585)
"GlcNAc-PI de-N-acetylase"</title>
				<polygon class="PF02585" points="2044,28 2053,28 2056,32 2056,48 2053,52 2044,52" stroke-linejoin="round" width="12" height="24" fill="rgb(97,215,95)" stroke="rgb(77,172,76)" stroke-width="1" opacity="0.75" />
			</g>
		</g>
		<g>
			<title> (ctg3_27)</title>
			<polygon class=" (ctg3_27)" points="2068,40 2081,10 2081,70" fill="rgb(255,255,255)" fill-opacity="1.0" stroke="rgb(0,0,0)" stroke-width="2"  />
			<g>
				<title>DUF3224 (PF11528)
"Protein of unknown function (DUF3224)"</title>
				<polygon class="PF11528" points="2071,40 2076,28 2080,28 2080,52 2076,52" stroke-linejoin="round" width="12" height="24" fill="rgb(194,63,193)" stroke="rgb(155,50,154)" stroke-width="1" opacity="0.75" />
			</g>
		</g>
		<g>
			<title> (ctg3_28)</title>
			<polygon class=" (ctg3_28)" points="2087,25 2105,25 2105,10 2135,40 2105,70 2105,55 2087,55" fill="rgb(255,255,255)" fill-opacity="1.0" stroke="rgb(0,0,0)" stroke-width="2"  />
			<g>
				<title>AMP-binding (PF00501)
"AMP-binding enzyme"</title>
				<polygon class="PF00501" points="2088,28 2119,28 2126,35 2126,45 2119,52 2088,52" stroke-linejoin="round" width="38" height="24" fill="rgb(60,217,223)" stroke="rgb(48,173,178)" stroke-width="1" opacity="0.75" />
			</g>
			<g>
				<title>AMP-binding_C (PF13193)
"AMP-binding enzyme C-terminal domain"</title>
				<polygon class="PF13193" points="2127,36 2131,40 2127,44" stroke-linejoin="round" width="6" height="24" fill="rgb(182,50,118)" stroke="rgb(145,39,94)" stroke-width="1" opacity="0.75" />
			</g>
		</g>
		<g>
			<title> (ctg3_29)</title>
			<polygon class=" (ctg3_29)" points="2140,10 2151,40 2140,70" fill="rgb(255,255,255)" fill-opacity="1.0" stroke="rgb(0,0,0)" stroke-width="2"  />
		</g>
		<g>
			<title> (ctg3_30)</title>
			<polygon class=" (ctg3_30)" points="2150,10 2170,40 2150,70" fill="rgb(255,255,255)" fill-opacity="1.0" stroke="rgb(0,0,0)" stroke-width="2"  />
			<g>
				<title>TetR_N (PF00440)
"Bacterial regulatory proteins, tetR family"</title>
				<rect class="PF00440" x="2152" y="28" stroke-linejoin="round" width="4" height="24" fill="rgb(73,212,190)" stroke="rgb(58,169,152)" stroke-width="1" opacity="0.75" />
			</g>
			<g>
				<title>TetR_C_11 (PF16859)
"Tetracyclin repressor-like, C-terminal domain"</title>
				<polygon class="PF16859" points="2158,28 2158,28 2166,40 2158,52 2158,52" stroke-linejoin="round" width="11" height="24" fill="rgb(219,77,198)" stroke="rgb(175,61,158)" stroke-width="1" opacity="0.75" />
			</g>
		</g>
		<g>
			<title> (ctg3_31)</title>
			<polygon class=" (ctg3_31)" points="2175,25 2184,25 2184,10 2214,40 2184,70 2184,55 2175,55" fill="rgb(255,255,255)" fill-opacity="1.0" stroke="rgb(0,0,0)" stroke-width="2"  />
			<g>
				<title>FAD_binding_3 (PF01494)
"FAD binding domain"</title>
				<polygon class="PF01494" points="2175,28 2198,28 2208,38 2208,42 2198,52 2175,52" stroke-linejoin="round" width="33" height="24" fill="rgb(182,175,59)" stroke="rgb(145,140,47)" stroke-width="1" opacity="0.75" />
			</g>
		</g>
		<g>
			<title> (ctg3_32)</title>
			<polygon class=" (ctg3_32)" points="2220,40 2223,10 2223,70" fill="rgb(255,255,255)" fill-opacity="1.0" stroke="rgb(0,0,0)" stroke-width="2"  />
		</g>
		<g>
			<title> (ctg3_33)</title>
			<polygon class=" (ctg3_33)" points="2226,10 2238,40 2226,70" fill="rgb(255,255,255)" fill-opacity="1.0" stroke="rgb(0,0,0)" stroke-width="2"  />
			<g>
				<title>Glyoxalase_6 (PF18029)
"Glyoxalase-like domain"</title>
				<polygon class="PF18029" points="2226,28 2229,28 2234,40 2229,52 2226,52" stroke-linejoin="round" width="11" height="24" fill="rgb(90,208,104)" stroke="rgb(72,166,83)" stroke-width="1" opacity="0.75" />
			</g>
		</g>
		<g>
			<title> (ctg3_34)</title>
			<polygon class=" (ctg3_34)" points="2244,25 2263,25 2263,10 2293,40 2263,70 2263,55 2244,55" fill="rgb(255,255,255)" fill-opacity="1.0" stroke="rgb(0,0,0)" stroke-width="2"  />
			<g>
				<title>AMP-binding (PF00501)
"AMP-binding enzyme"</title>
				<polygon class="PF00501" points="2245,28 2277,28 2283,34 2283,46 2277,52 2245,52" stroke-linejoin="round" width="38" height="24" fill="rgb(60,217,223)" stroke="rgb(48,173,178)" stroke-width="1" opacity="0.75" />
			</g>
			<g>
				<title>AMP-binding_C (PF13193)
"AMP-binding enzyme C-terminal domain"</title>
				<polygon class="PF13193" points="2284,35 2289,40 2284,45" stroke-linejoin="round" width="7" height="24" fill="rgb(182,50,118)" stroke="rgb(145,39,94)" stroke-width="1" opacity="0.75" />
			</g>
		</g>
		<g>
			<title> (ctg3_35)</title>
			<polygon class=" (ctg3_35)" points="2295,25 2306,25 2306,10 2336,40 2306,70 2306,55 2295,55" fill="rgb(255,255,255)" fill-opacity="1.0" stroke="rgb(0,0,0)" stroke-width="2"  />
			<g>
				<title>p450 (PF00067)
"Cytochrome P450"</title>
				<polygon class="PF00067" points="2323,31 2332,40 2323,49" stroke-linejoin="round" width="10" height="24" fill="rgb(85,216,107)" stroke="rgb(68,172,85)" stroke-width="1" opacity="0.75" />
			</g>
		</g>
	</g>
</svg>
