<svg version="1.1" baseProfile="full" xmlns="http://www.w3.org/2000/svg" width="1213.5" height="80">
	<g>
		<line x1="10" y1="40.0" x2="1203.5" y2="40.0" style="stroke:rgb(70,70,70); stroke-width:3 "/>
		<g>
			<title>
YtkA</title>
			<polygon class="
YtkA" points="83,25 40,25 40,10 10,40 40,70 40,55 83,55" fill="rgb(255,255,255)" fill-opacity="1.0" stroke="rgb(0,0,0)" stroke-width="2"  />
			<g>
				<title>MoCoBD_2 (PF20256)
"Molybdopterin cofactor-binding domain"</title>
				<polygon class="PF20256" points="15,39 26,28 42,28 42,52 26,52 15,41" stroke-linejoin="round" width="27" height="24" fill="rgb(50,138,186)" stroke="rgb(39,110,148)" stroke-width="1" opacity="0.75" />
			</g>
			<g>
				<title>MoCoBD_1 (PF02738)
"Molybdopterin cofactor-binding domain"</title>
				<rect class="PF02738" x="45" y="28" stroke-linejoin="round" width="23" height="24" fill="rgb(194,143,89)" stroke="rgb(155,114,71)" stroke-width="1" opacity="0.75" />
			</g>
			<g>
				<title>Ald_Xan_dh_C (PF01315)
"Aldehyde oxidase and xanthine dehydrogenase, a/b hammerhead domain"</title>
				<rect class="PF01315" x="70" y="28" stroke-linejoin="round" width="10" height="24" fill="rgb(127,182,88)" stroke="rgb(101,145,70)" stroke-width="1" opacity="0.75" />
			</g>
		</g>
		<g>
			<title>
YtkB</title>
			<polygon class="
YtkB" points="116,25 113,25 113,10 83,40 113,70 113,55 116,55" fill="rgb(255,255,255)" fill-opacity="1.0" stroke="rgb(0,0,0)" stroke-width="2"  />
			<g>
				<title>CO_deh_flav_C (PF03450)
"CO dehydrogenase flavoprotein C-terminal domain"</title>
				<polygon class="PF03450" points="87,40 92,35 92,45" stroke-linejoin="round" width="9" height="24" fill="rgb(68,181,100)" stroke="rgb(54,144,80)" stroke-width="1" opacity="0.75" />
			</g>
			<g>
				<title>FAD_binding_5 (PF00941)
"FAD binding domain in molybdopterin dehydrogenase"</title>
				<polygon class="PF00941" points="94,33 99,28 115,28 115,52 99,52 94,47" stroke-linejoin="round" width="21" height="24" fill="rgb(67,160,198)" stroke="rgb(53,128,158)" stroke-width="1" opacity="0.75" />
			</g>
		</g>
		<g>
			<title>
YtkC</title>
			<polygon class="
YtkC" points="116,40 133,10 133,70" fill="rgb(255,255,255)" fill-opacity="1.0" stroke="rgb(0,0,0)" stroke-width="2"  />
			<g>
				<title>Fer2_2 (PF01799)
"[2Fe-2S] binding domain"</title>
				<polygon class="PF01799" points="119,40 124,31 124,49" stroke-linejoin="round" width="7" height="24" fill="rgb(67,193,124)" stroke="rgb(53,154,99)" stroke-width="1" opacity="0.75" />
			</g>
			<g>
				<title>Fer2 (PF00111)
"2Fe-2S iron-sulfur cluster binding domain"</title>
				<polygon class="PF00111" points="125,30 126,28 131,28 131,52 126,52 125,50" stroke-linejoin="round" width="6" height="24" fill="rgb(60,59,191)" stroke="rgb(48,47,152)" stroke-width="1" opacity="0.75" />
			</g>
		</g>
		<g>
			<title>
YtkD</title>
			<polygon class="
YtkD" points="140,40 159,10 159,70" fill="rgb(255,255,255)" fill-opacity="1.0" stroke="rgb(0,0,0)" stroke-width="2"  />
			<g>
				<title>Acetyltransf_9 (PF13527)
"Acetyltransferase (GNAT) domain"</title>
				<polygon class="PF13527" points="145,38 152,28 157,28 157,52 152,52 145,42" stroke-linejoin="round" width="12" height="24" fill="rgb(157,184,47)" stroke="rgb(125,147,37)" stroke-width="1" opacity="0.75" />
			</g>
		</g>
		<g>
			<title>
YtkE</title>
			<polygon class="
YtkE" points="196,25 195,25 195,10 165,40 195,70 195,55 196,55" fill="rgb(255,255,255)" fill-opacity="1.0" stroke="rgb(0,0,0)" stroke-width="2"  />
		</g>
		<g>
			<title>
YtkF</title>
			<polygon class="
YtkF" points="208,25 240,25 240,10 270,40 240,70 240,55 208,55" fill="rgb(255,255,255)" fill-opacity="1.0" stroke="rgb(0,0,0)" stroke-width="2"  />
			<g>
				<title>CoA_transf_3 (PF02515)
"CoA-transferase family III"</title>
				<rect class="PF02515" x="216" y="28" stroke-linejoin="round" width="20" height="24" fill="rgb(226,102,90)" stroke="rgb(180,81,72)" stroke-width="1" opacity="0.75" />
			</g>
			<g>
				<title>CoA_transf_3 (PF02515)
"CoA-transferase family III"</title>
				<polygon class="PF02515" points="240,28 253,28 262,37 262,43 253,52 240,52" stroke-linejoin="round" width="22" height="24" fill="rgb(226,102,90)" stroke="rgb(180,81,72)" stroke-width="1" opacity="0.75" />
			</g>
		</g>
		<g>
			<title>
YtkR1</title>
			<polygon class="
YtkR1" points="273,10 294,40 273,70" fill="rgb(255,255,255)" fill-opacity="1.0" stroke="rgb(0,0,0)" stroke-width="2"  />
		</g>
		<g>
			<title>
YtkG</title>
			<polygon class="
YtkG" points="346,25 322,25 322,10 292,40 322,70 322,55 346,55" fill="rgb(255,255,255)" fill-opacity="1.0" stroke="rgb(0,0,0)" stroke-width="2"  />
			<g>
				<title>AMP-binding_C (PF13193)
"AMP-binding enzyme C-terminal domain"</title>
				<polygon class="PF13193" points="296,40 300,36 300,44" stroke-linejoin="round" width="7" height="24" fill="rgb(182,50,118)" stroke="rgb(145,39,94)" stroke-width="1" opacity="0.75" />
			</g>
			<g>
				<title>AMP-binding (PF00501)
"AMP-binding enzyme"</title>
				<polygon class="PF00501" points="302,34 308,28 342,28 342,52 308,52 302,46" stroke-linejoin="round" width="40" height="24" fill="rgb(60,217,223)" stroke="rgb(48,173,178)" stroke-width="1" opacity="0.75" />
			</g>
		</g>
		<g>
			<title>
YtkR2</title>
			<polygon class="
YtkR2" points="348,40 373,10 373,70" fill="rgb(255,255,255)" fill-opacity="1.0" stroke="rgb(0,0,0)" stroke-width="2"  />
			<g>
				<title>DNA_alkylation (PF08713)
"DNA alkylation repair enzyme"</title>
				<polygon class="PF08713" points="352,40 362,28 371,28 371,52 362,52" stroke-linejoin="round" width="21" height="24" fill="rgb(215,156,71)" stroke="rgb(172,124,56)" stroke-width="1" opacity="0.75" />
			</g>
		</g>
		<g>
			<title>
YtkH</title>
			<polygon class="
YtkH" points="374,40 393,10 393,70" fill="rgb(255,255,255)" fill-opacity="1.0" stroke="rgb(0,0,0)" stroke-width="2"  />
			<g>
				<title>FMN_red (PF03358)
"NADPH-dependent FMN reductase"</title>
				<polygon class="PF03358" points="378,40 386,28 392,28 392,52 386,52 378,40" stroke-linejoin="round" width="14" height="24" fill="rgb(90,228,61)" stroke="rgb(72,182,48)" stroke-width="1" opacity="0.75" />
			</g>
		</g>
		<g>
			<title>
YtkI</title>
			<polygon class="
YtkI" points="394,40 401,10 401,70" fill="rgb(255,255,255)" fill-opacity="1.0" stroke="rgb(0,0,0)" stroke-width="2"  />
			<g>
				<title>Fer4_13 (PF13370)
"4Fe-4S single cluster domain of Ferredoxin I"</title>
				<polygon class="PF13370" points="397,40 399,32 399,48" stroke-linejoin="round" width="5" height="24" fill="rgb(220,216,65)" stroke="rgb(176,172,52)" stroke-width="1" opacity="0.75" />
			</g>
		</g>
		<g>
			<title>
YtkR3</title>
			<polygon class="
YtkR3" points="401,40 422,10 422,70" fill="rgb(255,255,255)" fill-opacity="1.0" stroke="rgb(0,0,0)" stroke-width="2"  />
		</g>
		<g>
			<title>
YtkR4</title>
			<polygon class="
YtkR4" points="423,40 452,10 452,70" fill="rgb(255,255,255)" fill-opacity="1.0" stroke="rgb(0,0,0)" stroke-width="2"  />
		</g>
		<g>
			<title>
YtkR5</title>
			<polygon class="
YtkR5" points="452,40 479,10 479,70" fill="rgb(255,255,255)" fill-opacity="1.0" stroke="rgb(0,0,0)" stroke-width="2"  />
			<g>
				<title>AP_endonuc_2 (PF01261)
"Xylose isomerase-like TIM barrel"</title>
				<polygon class="PF01261" points="456,40 467,28 477,28 477,52 467,52" stroke-linejoin="round" width="25" height="24" fill="rgb(69,222,207)" stroke="rgb(55,177,165)" stroke-width="1" opacity="0.75" />
			</g>
		</g>
		<g>
			<title>
YtkJ</title>
			<polygon class="
YtkJ" points="529,25 513,25 513,10 483,40 513,70 513,55 529,55" fill="rgb(255,255,255)" fill-opacity="1.0" stroke="rgb(0,0,0)" stroke-width="2"  />
			<g>
				<title>PALP (PF00291)
"Pyridoxal-phosphate dependent enzyme"</title>
				<polygon class="PF00291" points="487,40 499,28 517,28 517,52 499,52" stroke-linejoin="round" width="33" height="24" fill="rgb(180,55,145)" stroke="rgb(144,44,116)" stroke-width="1" opacity="0.75" />
			</g>
		</g>
		<g>
			<title>
YtkK</title>
			<polygon class="
YtkK" points="538,25 577,25 577,10 607,40 577,70 577,55 538,55" fill="rgb(255,255,255)" fill-opacity="1.0" stroke="rgb(0,0,0)" stroke-width="2"  />
			<g>
				<title>Molybdop_Fe4S4 (PF04879)
"Molybdopterin oxidoreductase Fe4S4 domain"</title>
				<rect class="PF04879" x="538" y="28" stroke-linejoin="round" width="5" height="24" fill="rgb(186,68,186)" stroke="rgb(148,54,148)" stroke-width="1" opacity="0.75" />
			</g>
			<g>
				<title>Molybdopterin (PF00384)
"Molybdopterin oxidoreductase"</title>
				<rect class="PF00384" x="543" y="28" stroke-linejoin="round" width="41" height="24" fill="rgb(65,194,78)" stroke="rgb(52,155,62)" stroke-width="1" opacity="0.75" />
			</g>
			<g>
				<title>Molydop_binding (PF01568)
"Molydopterin dinucleotide binding domain"</title>
				<polygon class="PF01568" points="593,30 603,40 593,50" stroke-linejoin="round" width="11" height="24" fill="rgb(184,132,64)" stroke="rgb(147,105,51)" stroke-width="1" opacity="0.75" />
			</g>
		</g>
		<g>
			<title>
YtkL</title>
			<polygon class="
YtkL" points="609,25 621,25 621,10 651,40 621,70 621,55 609,55" fill="rgb(255,255,255)" fill-opacity="1.0" stroke="rgb(0,0,0)" stroke-width="2"  />
			<g>
				<title>Pyridoxal_deC (PF00282)
"Pyridoxal-dependent decarboxylase conserved domain"</title>
				<polygon class="PF00282" points="616,28 635,28 644,37 644,43 635,52 616,52" stroke-linejoin="round" width="28" height="24" fill="rgb(100,218,166)" stroke="rgb(80,174,132)" stroke-width="1" opacity="0.75" />
			</g>
		</g>
		<g>
			<title>
YtkM</title>
			<polygon class="
YtkM" points="652,25 659,25 659,10 689,40 659,70 659,55 652,55" fill="rgb(255,255,255)" fill-opacity="1.0" stroke="rgb(0,0,0)" stroke-width="2"  />
			<g>
				<title>ADH_N (PF08240)
"Alcohol dehydrogenase GroES-like domain"</title>
				<rect class="PF08240" x="654" y="28" stroke-linejoin="round" width="10" height="24" fill="rgb(211,65,138)" stroke="rgb(168,51,110)" stroke-width="1" opacity="0.75" />
			</g>
			<g>
				<title>ADH_zinc_N (PF00107)
"Zinc-binding dehydrogenase"</title>
				<polygon class="PF00107" points="669,28 673,28 682,37 682,43 673,52 669,52" stroke-linejoin="round" width="13" height="24" fill="rgb(81,108,215)" stroke="rgb(64,86,172)" stroke-width="1" opacity="0.75" />
			</g>
		</g>
		<g>
			<title>
YtkN</title>
			<polygon class="
YtkN" points="689,25 699,25 699,10 729,40 699,70 699,55 689,55" fill="rgb(255,255,255)" fill-opacity="1.0" stroke="rgb(0,0,0)" stroke-width="2"  />
		</g>
		<g>
			<title>
YtkO</title>
			<polygon class="
YtkO" points="730,25 731,25 731,10 761,40 731,70 731,55 730,55" fill="rgb(255,255,255)" fill-opacity="1.0" stroke="rgb(0,0,0)" stroke-width="2"  />
			<g>
				<title>F420_oxidored (PF03807)
"NADP oxidoreductase coenzyme F420-dependent"</title>
				<rect class="PF03807" x="736" y="28" stroke-linejoin="round" width="8" height="24" fill="rgb(194,51,111)" stroke="rgb(155,40,88)" stroke-width="1" opacity="0.75" />
			</g>
		</g>
		<g>
			<title>
YtkP</title>
			<polygon class="
YtkP" points="764,25 770,25 770,10 800,40 770,70 770,55 764,55" fill="rgb(255,255,255)" fill-opacity="1.0" stroke="rgb(0,0,0)" stroke-width="2"  />
			<g>
				<title>DHQ_synthase (PF01761)
"3-dehydroquinate synthase"</title>
				<polygon class="PF01761" points="771,28 784,28 796,40 796,40 784,52 771,52" stroke-linejoin="round" width="25" height="24" fill="rgb(150,62,180)" stroke="rgb(120,49,144)" stroke-width="1" opacity="0.75" />
			</g>
		</g>
		<g>
			<title>
YtkQ</title>
			<polygon class="
YtkQ" points="801,25 817,25 817,10 847,40 817,70 817,55 801,55" fill="rgb(255,255,255)" fill-opacity="1.0" stroke="rgb(0,0,0)" stroke-width="2"  />
			<g>
				<title>AMP-binding (PF00501)
"AMP-binding enzyme"</title>
				<polygon class="PF00501" points="813,28 830,28 835,33 835,47 830,52 813,52" stroke-linejoin="round" width="22" height="24" fill="rgb(60,217,223)" stroke="rgb(48,173,178)" stroke-width="1" opacity="0.75" />
			</g>
		</g>
		<g>
			<title>
YtkS</title>
			<polygon class="
YtkS" points="847,25 856,25 856,10 886,40 856,70 856,55 847,55" fill="rgb(255,255,255)" fill-opacity="1.0" stroke="rgb(0,0,0)" stroke-width="2"  />
			<g>
				<title>BtrH_N (PF14399)
"Butirosin biosynthesis protein H, N-terminal"</title>
				<rect class="PF14399" x="849" y="28" stroke-linejoin="round" width="13" height="24" fill="rgb(159,218,73)" stroke="rgb(127,174,58)" stroke-width="1" opacity="0.75" />
			</g>
			<g>
				<title>DUF4872 (PF16169)
"Domain of unknown function (DUF4872)"</title>
				<polygon class="PF16169" points="863,28 869,28 881,40 881,40 869,52 863,52" stroke-linejoin="round" width="18" height="24" fill="rgb(63,228,88)" stroke="rgb(50,182,70)" stroke-width="1" opacity="0.75" />
			</g>
		</g>
		<g>
			<title>
YtkT</title>
			<polygon class="
YtkT" points="888,25 908,25 908,10 938,40 908,70 908,55 888,55" fill="rgb(255,255,255)" fill-opacity="1.0" stroke="rgb(0,0,0)" stroke-width="2"  />
			<g>
				<title>Radical_SAM (PF04055)
"Radical SAM superfamily"</title>
				<rect class="PF04055" x="894" y="28" stroke-linejoin="round" width="17" height="24" fill="rgb(149,56,222)" stroke="rgb(119,44,177)" stroke-width="1" opacity="0.75" />
			</g>
		</g>
		<g>
			<title>
YtkU</title>
			<polygon class="
YtkU" points="939,10 963,40 939,70" fill="rgb(255,255,255)" fill-opacity="1.0" stroke="rgb(0,0,0)" stroke-width="2"  />
			<g>
				<title>Methyltransf_11 (PF08241)
"Methyltransferase domain"</title>
				<polygon class="PF08241" points="945,28 950,28 955,34 955,46 950,52 945,52" stroke-linejoin="round" width="10" height="24" fill="rgb(106,219,159)" stroke="rgb(84,175,127)" stroke-width="1" opacity="0.75" />
			</g>
		</g>
		<g>
			<title>
YtkV</title>
			<polygon class="
YtkV" points="967,25 968,25 968,10 998,40 968,70 968,55 967,55" fill="rgb(255,255,255)" fill-opacity="1.0" stroke="rgb(0,0,0)" stroke-width="2"  />
			<g>
				<title>CN_hydrolase (PF00795)
"Carbon-nitrogen hydrolase"</title>
				<polygon class="PF00795" points="967,28 982,28 992,38 992,42 982,52 967,52" stroke-linejoin="round" width="25" height="24" fill="rgb(213,76,196)" stroke="rgb(170,60,156)" stroke-width="1" opacity="0.75" />
			</g>
		</g>
		<g>
			<title>
YtkW</title>
			<polygon class="
YtkW" points="999,10 1020,40 999,70" fill="rgb(255,255,255)" fill-opacity="1.0" stroke="rgb(0,0,0)" stroke-width="2"  />
			<g>
				<title>Methyltransf_25 (PF13649)
"Methyltransferase domain"</title>
				<polygon class="PF13649" points="1003,28 1008,28 1012,34 1012,46 1008,52 1003,52" stroke-linejoin="round" width="9" height="24" fill="rgb(227,135,74)" stroke="rgb(181,108,59)" stroke-width="1" opacity="0.75" />
			</g>
		</g>
		<g>
			<title>
YtkR6</title>
			<polygon class="
YtkR6" points="1020,25 1068,25 1068,10 1098,40 1068,70 1068,55 1020,55" fill="rgb(255,255,255)" fill-opacity="1.0" stroke="rgb(0,0,0)" stroke-width="2"  />
			<g>
				<title>MFS_1 (PF07690)
"Major Facilitator Superfamily"</title>
				<rect class="PF07690" x="1021" y="28" stroke-linejoin="round" width="39" height="24" fill="rgb(193,224,74)" stroke="rgb(154,179,59)" stroke-width="1" opacity="0.75" />
			</g>
		</g>
		<g>
			<title>
YtkR7</title>
			<polygon class="
YtkR7" points="1104,10 1124,40 1104,70" fill="rgb(255,255,255)" fill-opacity="1.0" stroke="rgb(0,0,0)" stroke-width="2"  />
			<g>
				<title>GyrI-like (PF06445)
"GyrI-like small molecule binding domain"</title>
				<polygon class="PF06445" points="1106,28 1112,28 1120,40 1112,52 1106,52" stroke-linejoin="round" width="17" height="24" fill="rgb(61,183,118)" stroke="rgb(48,146,94)" stroke-width="1" opacity="0.75" />
			</g>
		</g>
		<g>
			<title>
YtkR8</title>
			<polygon class="
YtkR8" points="1153,25 1153,25 1153,10 1123,40 1153,70 1153,55 1153,55" fill="rgb(255,255,255)" fill-opacity="1.0" stroke="rgb(0,0,0)" stroke-width="2"  />
			<g>
				<title>HTH_18 (PF12833)
"Helix-turn-helix domain"</title>
				<rect class="PF12833" x="1140" y="28" stroke-linejoin="round" width="7" height="24" fill="rgb(216,58,224)" stroke="rgb(172,46,179)" stroke-width="1" opacity="0.75" />
			</g>
		</g>
		<g>
			<title>
YtkX</title>
			<polygon class="
YtkX" points="1166,25 1172,25 1172,10 1202,40 1172,70 1172,55 1166,55" fill="rgb(255,255,255)" fill-opacity="1.0" stroke="rgb(0,0,0)" stroke-width="2"  />
			<g>
				<title>Abhydrolase_3 (PF07859)
"alpha/beta hydrolase fold"</title>
				<polygon class="PF07859" points="1179,28 1186,28 1198,40 1186,52 1179,52" stroke-linejoin="round" width="20" height="24" fill="rgb(183,51,179)" stroke="rgb(146,40,143)" stroke-width="1" opacity="0.75" />
			</g>
		</g>
	</g>
</svg>
