<svg version="1.1" baseProfile="full" xmlns="http://www.w3.org/2000/svg" width="635.5" height="80">
	<g>
		<line x1="10" y1="40.0" x2="625.5" y2="40.0" style="stroke:rgb(70,70,70); stroke-width:3 "/>
		<g>
			<title>txtC (SCAB_31761)
putative monooxygenase</title>
			<polygon class="txtC (SCAB_31761)
putative monooxygenase" points="52,25 43,25 43,10 13,40 43,70 43,55 52,55" fill="rgb(255,255,255)" fill-opacity="1.0" stroke="rgb(0,0,0)" stroke-width="2"  />
			<g>
				<title>p450 (PF00067)
"Cytochrome P450"</title>
				<polygon class="PF00067" points="17,40 29,28 33,28 33,52 29,52" stroke-linejoin="round" width="17" height="24" fill="rgb(85,216,107)" stroke="rgb(68,172,85)" stroke-width="1" opacity="0.75" />
			</g>
		</g>
		<g>
			<title> (SCAB_31762)
putative pseudogene (fragment)</title>
			<polygon class=" (SCAB_31762)
putative pseudogene (fragment)" points="55,40 60,10 60,70" fill="rgb(255,255,255)" fill-opacity="1.0" stroke="rgb(0,0,0)" stroke-width="2"  />
			<g>
				<title>BBE (PF08031)
"Berberine and berberine like"</title>
				<polygon class="PF08031" points="58,40 59,34 59,46" stroke-linejoin="round" width="4" height="24" fill="rgb(210,73,83)" stroke="rgb(168,58,66)" stroke-width="1" opacity="0.75" />
			</g>
		</g>
		<g>
			<title> (SCAB_31763)
hypothetical protein</title>
			<polygon class=" (SCAB_31763)
hypothetical protein" points="67,40 74,10 74,70" fill="rgb(255,255,255)" fill-opacity="1.0" stroke="rgb(0,0,0)" stroke-width="2"  />
		</g>
		<g>
			<title>txtH (SCAB_31771)
putative MbtH-like antibiotic biosynthesis related protein</title>
			<polygon class="txtH (SCAB_31771)
putative MbtH-like antibiotic biosynthesis related protein" points="78,40 84,10 84,70" fill="rgb(255,255,255)" fill-opacity="1.0" stroke="rgb(0,0,0)" stroke-width="2"  />
			<g>
				<title>MbtH (PF03621)
"MbtH-like protein"</title>
				<polygon class="PF03621" points="81,40 84,28 84,28 84,52 84,52" stroke-linejoin="round" width="5" height="24" fill="rgb(212,165,97)" stroke="rgb(169,132,77)" stroke-width="1" opacity="0.75" />
			</g>
		</g>
		<g>
			<title>txtB (SCAB_31781)
thaxtomin synthetase B</title>
			<polygon class="txtB (SCAB_31781)
thaxtomin synthetase B" points="235,25 117,25 117,10 87,40 117,70 117,55 235,55" fill="rgb(255,255,255)" fill-opacity="1.0" stroke="rgb(0,0,0)" stroke-width="2"  />
			<g>
				<title>Condensation (PF00668)
"Condensation domain"</title>
				<polygon class="PF00668" points="91,40 103,28 132,28 132,52 103,52" stroke-linejoin="round" width="45" height="24" fill="rgb(224,184,98)" stroke="rgb(179,147,78)" stroke-width="1" opacity="0.75" />
			</g>
			<g>
				<title>PP-binding (PF00550)
"Phosphopantetheine attachment site"</title>
				<rect class="PF00550" x="134" y="28" stroke-linejoin="round" width="6" height="24" fill="rgb(103,191,88)" stroke="rgb(82,152,70)" stroke-width="1" opacity="0.75" />
			</g>
			<g>
				<title>Methyltransf_11 (PF08241)
"Methyltransferase domain"</title>
				<rect class="PF08241" x="170" y="28" stroke-linejoin="round" width="10" height="24" fill="rgb(106,219,159)" stroke="rgb(84,175,127)" stroke-width="1" opacity="0.75" />
			</g>
			<g>
				<title>AMP-binding_C (PF13193)
"AMP-binding enzyme C-terminal domain"</title>
				<rect class="PF13193" x="185" y="28" stroke-linejoin="round" width="6" height="24" fill="rgb(182,50,118)" stroke="rgb(145,39,94)" stroke-width="1" opacity="0.75" />
			</g>
			<g>
				<title>AMP-binding (PF00501)
"AMP-binding enzyme"</title>
				<rect class="PF00501" x="192" y="28" stroke-linejoin="round" width="39" height="24" fill="rgb(60,217,223)" stroke="rgb(48,173,178)" stroke-width="1" opacity="0.75" />
			</g>
		</g>
		<g>
			<title>txtA (SCAB_31791)
thaxtomin synthetase A</title>
			<polygon class="txtA (SCAB_31791)
thaxtomin synthetase A" points="383,25 268,25 268,10 238,40 268,70 268,55 383,55" fill="rgb(255,255,255)" fill-opacity="1.0" stroke="rgb(0,0,0)" stroke-width="2"  />
			<g>
				<title>Condensation (PF00668)
"Condensation domain"</title>
				<polygon class="PF00668" points="242,40 254,28 281,28 281,52 254,52" stroke-linejoin="round" width="43" height="24" fill="rgb(224,184,98)" stroke="rgb(179,147,78)" stroke-width="1" opacity="0.75" />
			</g>
			<g>
				<title>PP-binding (PF00550)
"Phosphopantetheine attachment site"</title>
				<rect class="PF00550" x="283" y="28" stroke-linejoin="round" width="6" height="24" fill="rgb(103,191,88)" stroke="rgb(82,152,70)" stroke-width="1" opacity="0.75" />
			</g>
			<g>
				<title>Methyltransf_11 (PF08241)
"Methyltransferase domain"</title>
				<rect class="PF08241" x="319" y="28" stroke-linejoin="round" width="10" height="24" fill="rgb(106,219,159)" stroke="rgb(84,175,127)" stroke-width="1" opacity="0.75" />
			</g>
			<g>
				<title>AMP-binding (PF00501)
"AMP-binding enzyme"</title>
				<rect class="PF00501" x="341" y="28" stroke-linejoin="round" width="39" height="24" fill="rgb(60,217,223)" stroke="rgb(48,173,178)" stroke-width="1" opacity="0.75" />
			</g>
		</g>
		<g>
			<title>txtR (SCAB_31801)
cellobiose-dependent regulator TxtR</title>
			<polygon class="txtR (SCAB_31801)
cellobiose-dependent regulator TxtR" points="439,10 467,40 439,70" fill="rgb(255,255,255)" fill-opacity="1.0" stroke="rgb(0,0,0)" stroke-width="2"  />
			<g>
				<title>HTH_18 (PF12833)
"Helix-turn-helix domain"</title>
				<polygon class="PF12833" points="458,35 463,40 458,45" stroke-linejoin="round" width="8" height="24" fill="rgb(216,58,224)" stroke="rgb(172,46,179)" stroke-width="1" opacity="0.75" />
			</g>
		</g>
		<g>
			<title> (SCAB_31811)
conserved hypothetical protein (fragment)</title>
			<polygon class=" (SCAB_31811)
conserved hypothetical protein (fragment)" points="487,40 495,10 495,70" fill="rgb(255,255,255)" fill-opacity="1.0" stroke="rgb(0,0,0)" stroke-width="2"  />
			<g>
				<title>OrfB_Zn_ribbon (PF07282)
"Putative transposase DNA-binding domain"</title>
				<polygon class="PF07282" points="490,40 492,33 492,47" stroke-linejoin="round" width="4" height="24" fill="rgb(188,84,136)" stroke="rgb(150,67,108)" stroke-width="1" opacity="0.75" />
			</g>
		</g>
		<g>
			<title> (SCAB_31812)
conserved hypothetical protein (fragment)</title>
			<polygon class=" (SCAB_31812)
conserved hypothetical protein (fragment)" points="508,10 521,40 508,70" fill="rgb(255,255,255)" fill-opacity="1.0" stroke="rgb(0,0,0)" stroke-width="2"  />
		</g>
		<g>
			<title> (SCAB_31821)
hypothetical protein</title>
			<polygon class=" (SCAB_31821)
hypothetical protein" points="526,40 533,10 533,70" fill="rgb(255,255,255)" fill-opacity="1.0" stroke="rgb(0,0,0)" stroke-width="2"  />
		</g>
		<g>
			<title> (SCAB_31831)
putative P450-like protein</title>
			<polygon class=" (SCAB_31831)
putative P450-like protein" points="540,25 550,25 550,10 580,40 550,70 550,55 540,55" fill="rgb(255,255,255)" fill-opacity="1.0" stroke="rgb(0,0,0)" stroke-width="2"  />
			<g>
				<title>p450 (PF00067)
"Cytochrome P450"</title>
				<polygon class="PF00067" points="567,31 576,40 567,49" stroke-linejoin="round" width="12" height="24" fill="rgb(85,216,107)" stroke="rgb(68,172,85)" stroke-width="1" opacity="0.75" />
			</g>
		</g>
		<g>
			<title>txtD (SCAB_31841)
putative oxygenase</title>
			<polygon class="txtD (SCAB_31841)
putative oxygenase" points="583,25 592,25 592,10 622,40 592,70 592,55 583,55" fill="rgb(255,255,255)" fill-opacity="1.0" stroke="rgb(0,0,0)" stroke-width="2"  />
			<g>
				<title>NO_synthase (PF02898)
"Nitric oxide synthase, oxygenase domain"</title>
				<polygon class="PF02898" points="586,28 605,28 617,40 605,52 586,52" stroke-linejoin="round" width="35" height="24" fill="rgb(49,184,163)" stroke="rgb(39,147,130)" stroke-width="1" opacity="0.75" />
			</g>
		</g>
	</g>
</svg>
