<svg version="1.1" baseProfile="full" xmlns="http://www.w3.org/2000/svg" width="141.9" height="80">
	<g>
		<line x1="10" y1="40.0" x2="131.9" y2="40.0" style="stroke:rgb(70,70,70); stroke-width:3 "/>
		<g>
			<title>pcmC
cyclodipeptide oxidase</title>
			<polygon class="pcmC
cyclodipeptide oxidase" points="10,10 21,40 10,70" fill="rgb(255,255,255)" fill-opacity="1.0" stroke="rgb(0,0,0)" stroke-width="2"  />
			<g>
				<title>DUF6092 (PF19585)
"Family of unknown function (DUF6092)"</title>
				<polygon class="PF19585" points="11,28 13,28 18,40 13,52 11,52" stroke-linejoin="round" width="8" height="24" fill="rgb(219,185,60)" stroke="rgb(175,147,47)" stroke-width="1" opacity="0.75" />
			</g>
		</g>
		<g>
			<title>pcmB
cyclodipeptide oxidase</title>
			<polygon class="pcmB
cyclodipeptide oxidase" points="21,10 41,40 21,70" fill="rgb(255,255,255)" fill-opacity="1.0" stroke="rgb(0,0,0)" stroke-width="2"  />
			<g>
				<title>Nitroreductase (PF00881)
"Nitroreductase family"</title>
				<polygon class="PF00881" points="28,28 29,28 36,38 36,42 29,52 28,52" stroke-linejoin="round" width="8" height="24" fill="rgb(79,118,187)" stroke="rgb(63,94,149)" stroke-width="1" opacity="0.75" />
			</g>
		</g>
		<g>
			<title>pcmD
P450</title>
			<polygon class="pcmD
P450" points="41,25 52,25 52,10 82,40 52,70 52,55 41,55" fill="rgb(255,255,255)" fill-opacity="1.0" stroke="rgb(0,0,0)" stroke-width="2"  />
			<g>
				<title>p450 (PF00067)
"Cytochrome P450"</title>
				<polygon class="PF00067" points="69,32 77,40 69,48" stroke-linejoin="round" width="10" height="24" fill="rgb(85,216,107)" stroke="rgb(68,172,85)" stroke-width="1" opacity="0.75" />
			</g>
		</g>
		<g>
			<title>pcmA
cyclodipeptide synthase</title>
			<polygon class="pcmA
cyclodipeptide synthase" points="82,10 107,40 82,70" fill="rgb(255,255,255)" fill-opacity="1.0" stroke="rgb(0,0,0)" stroke-width="2"  />
			<g>
				<title>CDPS (PF16715)
"Cyclodipeptide synthase"</title>
				<polygon class="PF16715" points="83,28 93,28 103,40 93,52 83,52" stroke-linejoin="round" width="23" height="24" fill="rgb(66,210,97)" stroke="rgb(52,168,77)" stroke-width="1" opacity="0.75" />
			</g>
		</g>
		<g>
			<title>pcmE
methyltransferase</title>
			<polygon class="pcmE
methyltransferase" points="108,10 131,40 108,70" fill="rgb(255,255,255)" fill-opacity="1.0" stroke="rgb(0,0,0)" stroke-width="2"  />
			<g>
				<title>Methyltransf_25 (PF13649)
"Methyltransferase domain"</title>
				<polygon class="PF13649" points="114,28 118,28 123,35 123,45 118,52 114,52" stroke-linejoin="round" width="9" height="24" fill="rgb(227,135,74)" stroke="rgb(181,108,59)" stroke-width="1" opacity="0.75" />
			</g>
		</g>
	</g>
</svg>
