<svg version="1.1" baseProfile="full" xmlns="http://www.w3.org/2000/svg" width="123.03333333333333" height="80">
	<g>
		<line x1="10" y1="40.0" x2="113.03333333333333" y2="40.0" style="stroke:rgb(70,70,70); stroke-width:3 "/>
		<g>
			<title>bytA
BytA</title>
			<polygon class="bytA
BytA" points="26,10 26,40 26,70" fill="rgb(255,255,255)" fill-opacity="1.0" stroke="rgb(0,0,0)" stroke-width="2"  />
		</g>
		<g>
			<title>bytO
biotin biosynthesis cytochrome P450</title>
			<polygon class="bytO
biotin biosynthesis cytochrome P450" points="30,25 38,25 38,10 68,40 38,70 38,55 30,55" fill="rgb(255,255,255)" fill-opacity="1.0" stroke="rgb(0,0,0)" stroke-width="2"  />
			<g>
				<title>p450 (PF00067)
"Cytochrome P450"</title>
				<polygon class="PF00067" points="52,28 52,28 64,40 64,40 52,52 52,52" stroke-linejoin="round" width="12" height="24" fill="rgb(85,216,107)" stroke="rgb(68,172,85)" stroke-width="1" opacity="0.75" />
			</g>
		</g>
		<g>
			<title>bytZ
class I SAM-dependent methyltransferase</title>
			<polygon class="bytZ
class I SAM-dependent methyltransferase" points="69,10 95,40 69,70" fill="rgb(255,255,255)" fill-opacity="1.0" stroke="rgb(0,0,0)" stroke-width="2"  />
			<g>
				<title>Methyltransf_25 (PF13649)
"Methyltransferase domain"</title>
				<polygon class="PF13649" points="72,28 80,28 81,29 81,51 80,52 72,52" stroke-linejoin="round" width="9" height="24" fill="rgb(227,135,74)" stroke="rgb(181,108,59)" stroke-width="1" opacity="0.75" />
			</g>
		</g>
	</g>
</svg>
