<svg version="1.1" baseProfile="full" xmlns="http://www.w3.org/2000/svg" width="297.4" height="80">
	<g>
		<line x1="10" y1="40.0" x2="287.4" y2="40.0" style="stroke:rgb(70,70,70); stroke-width:3 "/>
		<g>
			<title> (FTT_0024c)
hypothetical protein</title>
			<polygon class=" (FTT_0024c)
hypothetical protein" points="10,40 21,10 21,70" fill="rgb(255,255,255)" fill-opacity="1.0" stroke="rgb(0,0,0)" stroke-width="2"  />
		</g>
		<g>
			<title> (FTT_0025c)
hypothetical membrane protein</title>
			<polygon class=" (FTT_0025c)
hypothetical membrane protein" points="74,25 53,25 53,10 23,40 53,70 53,55 74,55" fill="rgb(255,255,255)" fill-opacity="1.0" stroke="rgb(0,0,0)" stroke-width="2"  />
			<g>
				<title>DUF3573 (PF12097)
"Protein of unknown function (DUF3573)"</title>
				<polygon class="PF12097" points="36,31 39,28 73,28 73,52 39,52 36,49" stroke-linejoin="round" width="37" height="24" fill="rgb(71,139,181)" stroke="rgb(56,111,144)" stroke-width="1" opacity="0.75" />
			</g>
		</g>
		<g>
			<title> (FTT_0026c)
conserved membrane protein</title>
			<polygon class=" (FTT_0026c)
conserved membrane protein" points="115,25 106,25 106,10 76,40 106,70 106,55 115,55" fill="rgb(255,255,255)" fill-opacity="1.0" stroke="rgb(0,0,0)" stroke-width="2"  />
			<g>
				<title>MFS_1 (PF07690)
"Major Facilitator Superfamily"</title>
				<polygon class="PF07690" points="80,40 92,28 113,28 113,52 92,52" stroke-linejoin="round" width="34" height="24" fill="rgb(193,224,74)" stroke="rgb(154,179,59)" stroke-width="1" opacity="0.75" />
			</g>
		</g>
		<g>
			<title>lysA1 (FTT_0027c)
diaminopimelate decarboxylase</title>
			<polygon class="lysA1 (FTT_0027c)
diaminopimelate decarboxylase" points="158,25 147,25 147,10 117,40 147,70 147,55 158,55" fill="rgb(255,255,255)" fill-opacity="1.0" stroke="rgb(0,0,0)" stroke-width="2"  />
			<g>
				<title>Orn_DAP_Arg_deC (PF00278)
"Pyridoxal-dependent decarboxylase, C-terminal sheet domain"</title>
				<polygon class="PF00278" points="121,40 129,32 129,48" stroke-linejoin="round" width="9" height="24" fill="rgb(195,86,191)" stroke="rgb(156,68,152)" stroke-width="1" opacity="0.75" />
			</g>
			<g>
				<title>Orn_Arg_deC_N (PF02784)
"Pyridoxal-dependent decarboxylase, pyridoxal binding domain"</title>
				<polygon class="PF02784" points="129,32 133,28 154,28 154,52 133,52 129,48" stroke-linejoin="round" width="25" height="24" fill="rgb(106,204,212)" stroke="rgb(84,163,169)" stroke-width="1" opacity="0.75" />
			</g>
		</g>
		<g>
			<title> (FTT_0028c)
conserved membrane protein</title>
			<polygon class=" (FTT_0028c)
conserved membrane protein" points="200,25 188,25 188,10 158,40 188,70 188,55 200,55" fill="rgb(255,255,255)" fill-opacity="1.0" stroke="rgb(0,0,0)" stroke-width="2"  />
			<g>
				<title>MFS_1 (PF07690)
"Major Facilitator Superfamily"</title>
				<polygon class="PF07690" points="169,33 174,28 198,28 198,52 174,52 169,47" stroke-linejoin="round" width="29" height="24" fill="rgb(193,224,74)" stroke="rgb(154,179,59)" stroke-width="1" opacity="0.75" />
			</g>
		</g>
		<g>
			<title> (FTT_0029c)
conserved hypothetical protein</title>
			<polygon class=" (FTT_0029c)
conserved hypothetical protein" points="264,25 230,25 230,10 200,40 230,70 230,55 264,55" fill="rgb(255,255,255)" fill-opacity="1.0" stroke="rgb(0,0,0)" stroke-width="2"  />
			<g>
				<title>FhuF (PF06276)
"Ferric iron reductase FhuF-like transporter"</title>
				<polygon class="PF06276" points="204,40 216,28 217,28 217,52 216,52" stroke-linejoin="round" width="16" height="24" fill="rgb(76,151,221)" stroke="rgb(60,120,176)" stroke-width="1" opacity="0.75" />
			</g>
			<g>
				<title>IucA_IucC (PF04183)
"IucA / IucC family"</title>
				<rect class="PF04183" x="220" y="28" stroke-linejoin="round" width="24" height="24" fill="rgb(221,104,121)" stroke="rgb(176,83,96)" stroke-width="1" opacity="0.75" />
			</g>
		</g>
		<g>
			<title>fur (FTT_0030c)
ferric uptake regulation protein</title>
			<polygon class="fur (FTT_0030c)
ferric uptake regulation protein" points="273,40 287,10 287,70" fill="rgb(255,255,255)" fill-opacity="1.0" stroke="rgb(0,0,0)" stroke-width="2"  />
			<g>
				<title>FUR (PF01475)
"Ferric uptake regulator family"</title>
				<polygon class="PF01475" points="276,40 282,28 286,28 286,52 282,52" stroke-linejoin="round" width="12" height="24" fill="rgb(167,195,50)" stroke="rgb(133,156,40)" stroke-width="1" opacity="0.75" />
			</g>
		</g>
	</g>
</svg>
