<svg version="1.1" baseProfile="full" xmlns="http://www.w3.org/2000/svg" width="990.5333333333333" height="80">
	<g>
		<line x1="10" y1="40.0" x2="980.5333333333333" y2="40.0" style="stroke:rgb(70,70,70); stroke-width:3 "/>
		<g>
			<title> (HZU44_05225)
pyridoxamine 5'-phosphate oxidase family protein</title>
			<polygon class=" (HZU44_05225)
pyridoxamine 5'-phosphate oxidase family protein" points="10,40 27,10 27,70" fill="rgb(255,255,255)" fill-opacity="1.0" stroke="rgb(0,0,0)" stroke-width="2"  />
			<g>
				<title>Putative_PNPOx (PF01243)
"Pyridoxamine 5'-phosphate oxidase"</title>
				<polygon class="PF01243" points="17,33 20,28 25,28 25,52 20,52 17,47" stroke-linejoin="round" width="8" height="24" fill="rgb(177,193,67)" stroke="rgb(141,154,53)" stroke-width="1" opacity="0.75" />
			</g>
		</g>
		<g>
			<title> (HZU44_05230)
hypothetical protein</title>
			<polygon class=" (HZU44_05230)
hypothetical protein" points="112,25 55,25 55,10 25,40 55,70 55,55 112,55" fill="rgb(255,255,255)" fill-opacity="1.0" stroke="rgb(0,0,0)" stroke-width="2"  />
			<g>
				<title>Lant_dehydr_N (PF04738)
"Lantibiotic dehydratase, N terminus"</title>
				<polygon class="PF04738" points="35,34 41,28 98,28 98,52 41,52 35,46" stroke-linejoin="round" width="63" height="24" fill="rgb(219,60,229)" stroke="rgb(175,47,183)" stroke-width="1" opacity="0.75" />
			</g>
		</g>
		<g>
			<title> (HZU44_05235)
cytochrome P450</title>
			<polygon class=" (HZU44_05235)
cytochrome P450" points="152,25 143,25 143,10 113,40 143,70 143,55 152,55" fill="rgb(255,255,255)" fill-opacity="1.0" stroke="rgb(0,0,0)" stroke-width="2"  />
		</g>
		<g>
			<title> (HZU44_05240)
AMP-binding protein</title>
			<polygon class=" (HZU44_05240)
AMP-binding protein" points="195,25 182,25 182,10 152,40 182,70 182,55 195,55" fill="rgb(255,255,255)" fill-opacity="1.0" stroke="rgb(0,0,0)" stroke-width="2"  />
			<g>
				<title>AMP-binding (PF00501)
"AMP-binding enzyme"</title>
				<polygon class="PF00501" points="160,36 168,28 186,28 186,52 168,52 160,44" stroke-linejoin="round" width="26" height="24" fill="rgb(60,217,223)" stroke="rgb(48,173,178)" stroke-width="1" opacity="0.75" />
			</g>
		</g>
		<g>
			<title> (HZU44_05245)
cytochrome P450</title>
			<polygon class=" (HZU44_05245)
cytochrome P450" points="240,25 225,25 225,10 195,40 225,70 225,55 240,55" fill="rgb(255,255,255)" fill-opacity="1.0" stroke="rgb(0,0,0)" stroke-width="2"  />
		</g>
		<g>
			<title> (HZU44_05250)
TOMM precursor leader peptide-binding protein</title>
			<polygon class=" (HZU44_05250)
TOMM precursor leader peptide-binding protein" points="303,25 269,25 269,10 239,40 269,70 269,55 303,55" fill="rgb(255,255,255)" fill-opacity="1.0" stroke="rgb(0,0,0)" stroke-width="2"  />
			<g>
				<title>YcaO (PF02624)
"YcaO cyclodehydratase, ATP-ad Mg2+-binding"</title>
				<polygon class="PF02624" points="243,40 255,28 276,28 276,52 255,52 243,40" stroke-linejoin="round" width="33" height="24" fill="rgb(76,84,185)" stroke="rgb(60,67,148)" stroke-width="1" opacity="0.75" />
			</g>
		</g>
		<g>
			<title> (HZU44_05255)
hypothetical protein</title>
			<polygon class=" (HZU44_05255)
hypothetical protein" points="363,25 334,25 334,10 304,40 334,70 334,55 363,55" fill="rgb(255,255,255)" fill-opacity="1.0" stroke="rgb(0,0,0)" stroke-width="2"  />
		</g>
		<g>
			<title> (HZU44_05260)
hypothetical protein</title>
			<polygon class=" (HZU44_05260)
hypothetical protein" points="417,25 393,25 393,10 363,40 393,70 393,55 417,55" fill="rgb(255,255,255)" fill-opacity="1.0" stroke="rgb(0,0,0)" stroke-width="2"  />
			<g>
				<title>Nitroreductase (PF00881)
"Nitroreductase family"</title>
				<polygon class="PF00881" points="367,40 379,28 382,28 382,52 379,52" stroke-linejoin="round" width="16" height="24" fill="rgb(79,118,187)" stroke="rgb(63,94,149)" stroke-width="1" opacity="0.75" />
			</g>
		</g>
		<g>
			<title> (HZU44_05265)
hypothetical protein</title>
			<polygon class=" (HZU44_05265)
hypothetical protein" points="454,25 448,25 448,10 418,40 448,70 448,55 454,55" fill="rgb(255,255,255)" fill-opacity="1.0" stroke="rgb(0,0,0)" stroke-width="2"  />
			<g>
				<title>Lant_dehydr_C (PF14028)
"Lantibiotic biosynthesis dehydratase C-term"</title>
				<polygon class="PF14028" points="422,40 434,28 453,28 453,52 434,52" stroke-linejoin="round" width="33" height="24" fill="rgb(107,223,113)" stroke="rgb(85,178,90)" stroke-width="1" opacity="0.75" />
			</g>
		</g>
		<g>
			<title> (HZU44_05270)
hypothetical protein</title>
			<polygon class=" (HZU44_05270)
hypothetical protein" points="488,25 484,25 484,10 454,40 484,70 484,55 488,55" fill="rgb(255,255,255)" fill-opacity="1.0" stroke="rgb(0,0,0)" stroke-width="2"  />
			<g>
				<title>Lant_dehydr_C (PF14028)
"Lantibiotic biosynthesis dehydratase C-term"</title>
				<polygon class="PF14028" points="458,40 470,28 486,28 486,52 470,52" stroke-linejoin="round" width="30" height="24" fill="rgb(107,223,113)" stroke="rgb(85,178,90)" stroke-width="1" opacity="0.75" />
			</g>
		</g>
		<g>
			<title> (HZU44_05275)
lantibiotic dehydratase</title>
			<polygon class=" (HZU44_05275)
lantibiotic dehydratase" points="575,25 518,25 518,10 488,40 518,70 518,55 575,55" fill="rgb(255,255,255)" fill-opacity="1.0" stroke="rgb(0,0,0)" stroke-width="2"  />
			<g>
				<title>Lant_dehydr_N (PF04738)
"Lantibiotic dehydratase, N terminus"</title>
				<polygon class="PF04738" points="497,35 504,28 525,28 525,52 504,52 497,45" stroke-linejoin="round" width="28" height="24" fill="rgb(219,60,229)" stroke="rgb(175,47,183)" stroke-width="1" opacity="0.75" />
			</g>
			<g>
				<title>Lant_dehydr_N (PF04738)
"Lantibiotic dehydratase, N terminus"</title>
				<rect class="PF04738" x="531" y="28" stroke-linejoin="round" width="30" height="24" fill="rgb(219,60,229)" stroke="rgb(175,47,183)" stroke-width="1" opacity="0.75" />
			</g>
		</g>
		<g>
			<title> (HZU44_05280)
alpha/beta hydrolase</title>
			<polygon class=" (HZU44_05280)
alpha/beta hydrolase" points="576,40 600,10 600,70" fill="rgb(255,255,255)" fill-opacity="1.0" stroke="rgb(0,0,0)" stroke-width="2"  />
			<g>
				<title>Abhydrolase_6 (PF12697)
"Alpha/beta hydrolase family"</title>
				<polygon class="PF12697" points="580,40 590,28 598,28 598,52 590,52" stroke-linejoin="round" width="20" height="24" fill="rgb(113,71,219)" stroke="rgb(90,56,175)" stroke-width="1" opacity="0.75" />
			</g>
		</g>
		<g>
			<title> (HZU44_05285)
thiocillin/thiostrepton family thiazolyl peptide</title>
			<polygon class=" (HZU44_05285)
thiocillin/thiostrepton family thiazolyl peptide" points="608,40 613,10 613,70" fill="rgb(255,255,255)" fill-opacity="1.0" stroke="rgb(0,0,0)" stroke-width="2"  />
		</g>
		<g>
			<title> (HZU44_05290)
cytochrome P450</title>
			<polygon class=" (HZU44_05290)
cytochrome P450" points="622,25 632,25 632,10 662,40 632,70 632,55 622,55" fill="rgb(255,255,255)" fill-opacity="1.0" stroke="rgb(0,0,0)" stroke-width="2"  />
			<g>
				<title>p450 (PF00067)
"Cytochrome P450"</title>
				<polygon class="PF00067" points="624,28 646,28 658,40 646,52 624,52" stroke-linejoin="round" width="36" height="24" fill="rgb(85,216,107)" stroke="rgb(68,172,85)" stroke-width="1" opacity="0.75" />
			</g>
		</g>
		<g>
			<title> (HZU44_05295)
methyltransferase domain-containing protein</title>
			<polygon class=" (HZU44_05295)
methyltransferase domain-containing protein" points="662,10 691,40 662,70" fill="rgb(255,255,255)" fill-opacity="1.0" stroke="rgb(0,0,0)" stroke-width="2"  />
			<g>
				<title>Methyltransf_25 (PF13649)
"Methyltransferase domain"</title>
				<polygon class="PF13649" points="668,28 675,28 677,30 677,50 675,52 668,52" stroke-linejoin="round" width="9" height="24" fill="rgb(227,135,74)" stroke="rgb(181,108,59)" stroke-width="1" opacity="0.75" />
			</g>
		</g>
		<g>
			<title> (HZU44_05300)
NAD(P)H-binding protein</title>
			<polygon class=" (HZU44_05300)
NAD(P)H-binding protein" points="692,25 697,25 697,10 727,40 697,70 697,55 692,55" fill="rgb(255,255,255)" fill-opacity="1.0" stroke="rgb(0,0,0)" stroke-width="2"  />
			<g>
				<title>NAD_binding_10 (PF13460)
"NAD(P)H-binding"</title>
				<rect class="PF13460" x="692" y="28" stroke-linejoin="round" width="16" height="24" fill="rgb(188,201,78)" stroke="rgb(150,160,62)" stroke-width="1" opacity="0.75" />
			</g>
		</g>
		<g>
			<title> (HZU44_05305)
glycosyltransferase family 1 protein</title>
			<polygon class=" (HZU44_05305)
glycosyltransferase family 1 protein" points="727,25 740,25 740,10 770,40 740,70 740,55 727,55" fill="rgb(255,255,255)" fill-opacity="1.0" stroke="rgb(0,0,0)" stroke-width="2"  />
			<g>
				<title>Glyco_transf_28 (PF03033)
"Glycosyltransferase family 28 N-terminal domain"</title>
				<rect class="PF03033" x="727" y="28" stroke-linejoin="round" width="14" height="24" fill="rgb(157,218,79)" stroke="rgb(125,174,63)" stroke-width="1" opacity="0.75" />
			</g>
		</g>
		<g>
			<title>tsrT (HZU44_05310)
tryptophan 2-C-methyltransferase</title>
			<polygon class="tsrT (HZU44_05310)
tryptophan 2-C-methyltransferase" points="774,25 800,25 800,10 830,40 800,70 800,55 774,55" fill="rgb(255,255,255)" fill-opacity="1.0" stroke="rgb(0,0,0)" stroke-width="2"  />
			<g>
				<title>B12-binding (PF02310)
"B12 binding domain"</title>
				<rect class="PF02310" x="774" y="28" stroke-linejoin="round" width="13" height="24" fill="rgb(145,190,60)" stroke="rgb(115,152,48)" stroke-width="1" opacity="0.75" />
			</g>
			<g>
				<title>Radical_SAM (PF04055)
"Radical SAM superfamily"</title>
				<rect class="PF04055" x="795" y="28" stroke-linejoin="round" width="17" height="24" fill="rgb(149,56,222)" stroke="rgb(119,44,177)" stroke-width="1" opacity="0.75" />
			</g>
		</g>
		<g>
			<title> (HZU44_05315)
SDR family oxidoreductase</title>
			<polygon class=" (HZU44_05315)
SDR family oxidoreductase" points="830,10 858,40 830,70" fill="rgb(255,255,255)" fill-opacity="1.0" stroke="rgb(0,0,0)" stroke-width="2"  />
			<g>
				<title>adh_short (PF00106)
"short chain dehydrogenase"</title>
				<polygon class="PF00106" points="831,28 842,28 850,36 850,44 842,52 831,52" stroke-linejoin="round" width="19" height="24" fill="rgb(182,219,73)" stroke="rgb(145,175,58)" stroke-width="1" opacity="0.75" />
			</g>
		</g>
		<g>
			<title> (HZU44_05320)
histidinol-phosphate transaminase</title>
			<polygon class=" (HZU44_05320)
histidinol-phosphate transaminase" points="858,25 864,25 864,10 894,40 864,70 864,55 858,55" fill="rgb(255,255,255)" fill-opacity="1.0" stroke="rgb(0,0,0)" stroke-width="2"  />
			<g>
				<title>Aminotran_1_2 (PF00155)
"Aminotransferase class I and II"</title>
				<polygon class="PF00155" points="860,28 878,28 890,40 878,52 860,52" stroke-linejoin="round" width="32" height="24" fill="rgb(89,113,198)" stroke="rgb(71,90,158)" stroke-width="1" opacity="0.75" />
			</g>
		</g>
		<g>
			<title> (HZU44_05325)
SAM-dependent methyltransferase</title>
			<polygon class=" (HZU44_05325)
SAM-dependent methyltransferase" points="895,10 924,40 895,70" fill="rgb(255,255,255)" fill-opacity="1.0" stroke="rgb(0,0,0)" stroke-width="2"  />
			<g>
				<title>LCM (PF04072)
"Leucine carboxyl methyltransferase"</title>
				<polygon class="PF04072" points="895,28 908,28 912,32 912,48 908,52 895,52" stroke-linejoin="round" width="17" height="24" fill="rgb(94,159,219)" stroke="rgb(75,127,175)" stroke-width="1" opacity="0.75" />
			</g>
		</g>
		<g>
			<title> (HZU44_05330)
acyl-CoA/acyl-ACP dehydrogenase</title>
			<polygon class=" (HZU44_05330)
acyl-CoA/acyl-ACP dehydrogenase" points="924,25 935,25 935,10 965,40 935,70 935,55 924,55" fill="rgb(255,255,255)" fill-opacity="1.0" stroke="rgb(0,0,0)" stroke-width="2"  />
			<g>
				<title>Acyl-CoA_dh_N (PF02771)
"Acyl-CoA dehydrogenase, N-terminal domain"</title>
				<rect class="PF02771" x="924" y="28" stroke-linejoin="round" width="11" height="24" fill="rgb(105,135,218)" stroke="rgb(84,108,174)" stroke-width="1" opacity="0.75" />
			</g>
			<g>
				<title>Acyl-CoA_dh_2 (PF08028)
"Acyl-CoA dehydrogenase, C-terminal domain"</title>
				<polygon class="PF08028" points="948,28 949,28 960,39 960,41 949,52 948,52" stroke-linejoin="round" width="12" height="24" fill="rgb(106,185,56)" stroke="rgb(84,148,44)" stroke-width="1" opacity="0.75" />
			</g>
		</g>
		<g>
			<title> (HZU44_05335)
ester cyclase</title>
			<polygon class=" (HZU44_05335)
ester cyclase" points="966,10 979,40 966,70" fill="rgb(255,255,255)" fill-opacity="1.0" stroke="rgb(0,0,0)" stroke-width="2"  />
			<g>
				<title>SnoaL (PF07366)
"SnoaL-like polyketide cyclase"</title>
				<polygon class="PF07366" points="966,28 970,28 976,40 970,52 966,52" stroke-linejoin="round" width="12" height="24" fill="rgb(206,89,111)" stroke="rgb(164,71,88)" stroke-width="1" opacity="0.75" />
			</g>
		</g>
	</g>
</svg>
