<svg version="1.1" baseProfile="full" xmlns="http://www.w3.org/2000/svg" width="2458.5333333333333" height="80">
	<g>
		<line x1="10" y1="40.0" x2="2448.5333333333333" y2="40.0" style="stroke:rgb(70,70,70); stroke-width:3 "/>
		<g>
			<title> (DMH02_027255)
ABC transporter ATP-binding protein/permease</title>
			<polygon class=" (DMH02_027255)
ABC transporter ATP-binding protein/permease" points="70,25 41,25 41,10 11,40 41,70 41,55 70,55" fill="rgb(255,255,255)" fill-opacity="1.0" stroke="rgb(0,0,0)" stroke-width="2"  />
			<g>
				<title>ABC_tran (PF00005)
"ABC transporter"</title>
				<polygon class="PF00005" points="18,37 27,28 32,28 32,52 27,52 18,43" stroke-linejoin="round" width="14" height="24" fill="rgb(129,201,63)" stroke="rgb(103,160,50)" stroke-width="1" opacity="0.75" />
			</g>
			<g>
				<title>ABC_membrane (PF00664)
"ABC transporter transmembrane region"</title>
				<rect class="PF00664" x="39" y="28" stroke-linejoin="round" width="27" height="24" fill="rgb(149,226,73)" stroke="rgb(119,180,58)" stroke-width="1" opacity="0.75" />
			</g>
		</g>
		<g>
			<title> (DMH02_027260)
ABC transporter ATP-binding protein/permease</title>
			<polygon class=" (DMH02_027260)
ABC transporter ATP-binding protein/permease" points="132,25 100,25 100,10 70,40 100,70 100,55 132,55" fill="rgb(255,255,255)" fill-opacity="1.0" stroke="rgb(0,0,0)" stroke-width="2"  />
			<g>
				<title>ABC_tran (PF00005)
"ABC transporter"</title>
				<polygon class="PF00005" points="80,34 86,28 92,28 92,52 86,52 80,46" stroke-linejoin="round" width="12" height="24" fill="rgb(129,201,63)" stroke="rgb(103,160,50)" stroke-width="1" opacity="0.75" />
			</g>
			<g>
				<title>ABC_membrane (PF00664)
"ABC transporter transmembrane region"</title>
				<rect class="PF00664" x="102" y="28" stroke-linejoin="round" width="26" height="24" fill="rgb(149,226,73)" stroke="rgb(119,180,58)" stroke-width="1" opacity="0.75" />
			</g>
		</g>
		<g>
			<title> (DMH02_027265)
L,D-transpeptidase family protein</title>
			<polygon class=" (DMH02_027265)
L,D-transpeptidase family protein" points="136,10 160,40 136,70" fill="rgb(255,255,255)" fill-opacity="1.0" stroke="rgb(0,0,0)" stroke-width="2"  />
			<g>
				<title>YkuD (PF03734)
"L,D-transpeptidase catalytic domain"</title>
				<polygon class="PF03734" points="143,28 146,28 156,40 146,52 143,52" stroke-linejoin="round" width="16" height="24" fill="rgb(112,183,75)" stroke="rgb(89,146,60)" stroke-width="1" opacity="0.75" />
			</g>
		</g>
		<g>
			<title> (DMH02_027270)
ABC transporter ATP-binding protein/permease</title>
			<polygon class=" (DMH02_027270)
ABC transporter ATP-binding protein/permease" points="166,25 200,25 200,10 230,40 200,70 200,55 166,55" fill="rgb(255,255,255)" fill-opacity="1.0" stroke="rgb(0,0,0)" stroke-width="2"  />
			<g>
				<title>ABC_membrane (PF00664)
"ABC transporter transmembrane region"</title>
				<rect class="PF00664" x="170" y="28" stroke-linejoin="round" width="27" height="24" fill="rgb(149,226,73)" stroke="rgb(119,180,58)" stroke-width="1" opacity="0.75" />
			</g>
			<g>
				<title>ABC_tran (PF00005)
"ABC transporter"</title>
				<polygon class="PF00005" points="204,28 214,28 218,32 218,48 214,52 204,52" stroke-linejoin="round" width="14" height="24" fill="rgb(129,201,63)" stroke="rgb(103,160,50)" stroke-width="1" opacity="0.75" />
			</g>
		</g>
		<g>
			<title> (DMH02_027275)
NAD(P)/FAD-dependent oxidoreductase</title>
			<polygon class=" (DMH02_027275)
NAD(P)/FAD-dependent oxidoreductase" points="267,25 261,25 261,10 231,40 261,70 261,55 267,55" fill="rgb(255,255,255)" fill-opacity="1.0" stroke="rgb(0,0,0)" stroke-width="2"  />
			<g>
				<title>Pyr_redox_3 (PF13738)
"Pyridine nucleotide-disulphide oxidoreductase"</title>
				<polygon class="PF13738" points="245,30 247,28 265,28 265,52 247,52 245,50" stroke-linejoin="round" width="20" height="24" fill="rgb(213,91,84)" stroke="rgb(170,72,67)" stroke-width="1" opacity="0.75" />
			</g>
		</g>
		<g>
			<title> (DMH02_027280)
secondary thiamine-phosphate synthase enzyme YjbQ</title>
			<polygon class=" (DMH02_027280)
secondary thiamine-phosphate synthase enzyme YjbQ" points="269,10 283,40 269,70" fill="rgb(255,255,255)" fill-opacity="1.0" stroke="rgb(0,0,0)" stroke-width="2"  />
			<g>
				<title>UPF0047 (PF01894)
"Uncharacterised protein family UPF0047"</title>
				<polygon class="PF01894" points="271,28 273,28 279,40 273,52 271,52" stroke-linejoin="round" width="11" height="24" fill="rgb(101,99,228)" stroke="rgb(80,79,182)" stroke-width="1" opacity="0.75" />
			</g>
		</g>
		<g>
			<title> (DMH02_027285)
helix-turn-helix domain-containing protein</title>
			<polygon class=" (DMH02_027285)
helix-turn-helix domain-containing protein" points="287,40 294,10 294,70" fill="rgb(255,255,255)" fill-opacity="1.0" stroke="rgb(0,0,0)" stroke-width="2"  />
			<g>
				<title>HTH_30 (PF13556)
"PucR C-terminal helix-turn-helix domain"</title>
				<polygon class="PF13556" points="290,40 292,31 292,49" stroke-linejoin="round" width="5" height="24" fill="rgb(180,199,81)" stroke="rgb(144,159,64)" stroke-width="1" opacity="0.75" />
			</g>
		</g>
		<g>
			<title> (DMH02_027290)
Lrp/AsnC family transcriptional regulator</title>
			<polygon class=" (DMH02_027290)
Lrp/AsnC family transcriptional regulator" points="299,40 315,10 315,70" fill="rgb(255,255,255)" fill-opacity="1.0" stroke="rgb(0,0,0)" stroke-width="2"  />
			<g>
				<title>AsnC_trans_reg (PF01037)
"Lrp/AsnC ligand binding domain"</title>
				<polygon class="PF01037" points="302,40 308,29 308,51" stroke-linejoin="round" width="7" height="24" fill="rgb(134,72,182)" stroke="rgb(107,57,145)" stroke-width="1" opacity="0.75" />
			</g>
			<g>
				<title>HTH_24 (PF13412)
"Winged helix-turn-helix DNA-binding"</title>
				<rect class="PF13412" x="310" y="28" stroke-linejoin="round" width="4" height="24" fill="rgb(222,79,68)" stroke="rgb(177,63,54)" stroke-width="1" opacity="0.75" />
			</g>
		</g>
		<g>
			<title> (DMH02_027295)
HAMP domain-containing protein</title>
			<polygon class=" (DMH02_027295)
HAMP domain-containing protein" points="362,25 348,25 348,10 318,40 348,70 348,55 362,55" fill="rgb(255,255,255)" fill-opacity="1.0" stroke="rgb(0,0,0)" stroke-width="2"  />
			<g>
				<title>HATPase_c (PF02518)
"Histidine kinase-, DNA gyrase B-, and HSP90-like ATPase"</title>
				<polygon class="PF02518" points="322,40 332,30 332,50" stroke-linejoin="round" width="11" height="24" fill="rgb(80,94,225)" stroke="rgb(64,75,180)" stroke-width="1" opacity="0.75" />
			</g>
			<g>
				<title>HisKA (PF00512)
"His Kinase A (phospho-acceptor) domain"</title>
				<rect class="PF00512" x="337" y="28" stroke-linejoin="round" width="6" height="24" fill="rgb(193,125,62)" stroke="rgb(154,100,49)" stroke-width="1" opacity="0.75" />
			</g>
			<g>
				<title>HAMP (PF00672)
"HAMP domain"</title>
				<rect class="PF00672" x="344" y="28" stroke-linejoin="round" width="5" height="24" fill="rgb(124,89,195)" stroke="rgb(99,71,156)" stroke-width="1" opacity="0.75" />
			</g>
		</g>
		<g>
			<title> (DMH02_027300)
response regulator transcription factor</title>
			<polygon class=" (DMH02_027300)
response regulator transcription factor" points="363,40 384,10 384,70" fill="rgb(255,255,255)" fill-opacity="1.0" stroke="rgb(0,0,0)" stroke-width="2"  />
			<g>
				<title>Trans_reg_C (PF00486)
"Transcriptional regulatory protein, C terminal"</title>
				<polygon class="PF00486" points="367,40 370,36 370,44" stroke-linejoin="round" width="7" height="24" fill="rgb(204,153,57)" stroke="rgb(163,122,45)" stroke-width="1" opacity="0.75" />
			</g>
			<g>
				<title>Response_reg (PF00072)
"Response regulator receiver domain"</title>
				<polygon class="PF00072" points="373,32 376,28 384,28 384,52 376,52 373,48" stroke-linejoin="round" width="11" height="24" fill="rgb(100,107,203)" stroke="rgb(80,85,162)" stroke-width="1" opacity="0.75" />
			</g>
		</g>
		<g>
			<title> (DMH02_027305)
AAA family ATPase</title>
			<polygon class=" (DMH02_027305)
AAA family ATPase" points="498,25 434,25 434,10 404,40 434,70 434,55 498,55" fill="rgb(255,255,255)" fill-opacity="1.0" stroke="rgb(0,0,0)" stroke-width="2"  />
			<g>
				<title>GerE (PF00196)
"Bacterial regulatory proteins, luxR family"</title>
				<polygon class="PF00196" points="408,40 411,37 411,43" stroke-linejoin="round" width="5" height="24" fill="rgb(219,94,82)" stroke="rgb(175,75,65)" stroke-width="1" opacity="0.75" />
			</g>
			<g>
				<title>AAA_16 (PF13191)
"AAA ATPase domain"</title>
				<rect class="PF13191" x="482" y="28" stroke-linejoin="round" width="16" height="24" fill="rgb(186,102,77)" stroke="rgb(148,81,61)" stroke-width="1" opacity="0.75" />
			</g>
		</g>
		<g>
			<title> (DMH02_027310)
ParB N-terminal domain-containing protein</title>
			<polygon class=" (DMH02_027310)
ParB N-terminal domain-containing protein" points="550,25 553,25 553,10 583,40 553,70 553,55 550,55" fill="rgb(255,255,255)" fill-opacity="1.0" stroke="rgb(0,0,0)" stroke-width="2"  />
			<g>
				<title>ParBc (PF02195)
"ParB/Sulfiredoxin domain"</title>
				<rect class="PF02195" x="551" y="28" stroke-linejoin="round" width="8" height="24" fill="rgb(55,214,209)" stroke="rgb(44,171,167)" stroke-width="1" opacity="0.75" />
			</g>
		</g>
		<g>
			<title> (DMH02_027315)
ABC transporter ATP-binding protein/permease</title>
			<polygon class=" (DMH02_027315)
ABC transporter ATP-binding protein/permease" points="608,25 643,25 643,10 673,40 643,70 643,55 608,55" fill="rgb(255,255,255)" fill-opacity="1.0" stroke="rgb(0,0,0)" stroke-width="2"  />
			<g>
				<title>ABC_membrane (PF00664)
"ABC transporter transmembrane region"</title>
				<rect class="PF00664" x="608" y="28" stroke-linejoin="round" width="27" height="24" fill="rgb(149,226,73)" stroke="rgb(119,180,58)" stroke-width="1" opacity="0.75" />
			</g>
			<g>
				<title>ABC_tran (PF00005)
"ABC transporter"</title>
				<polygon class="PF00005" points="644,28 657,28 658,29 658,51 657,52 644,52" stroke-linejoin="round" width="14" height="24" fill="rgb(129,201,63)" stroke="rgb(103,160,50)" stroke-width="1" opacity="0.75" />
			</g>
		</g>
		<g>
			<title> (DMH02_027320)
amino acid adenylation domain-containing protein</title>
			<polygon class=" (DMH02_027320)
amino acid adenylation domain-containing protein" points="676,25 741,25 741,10 771,40 741,70 741,55 676,55" fill="rgb(255,255,255)" fill-opacity="1.0" stroke="rgb(0,0,0)" stroke-width="2"  />
			<g>
				<title>Condensation (PF00668)
"Condensation domain"</title>
				<rect class="PF00668" x="676" y="28" stroke-linejoin="round" width="44" height="24" fill="rgb(224,184,98)" stroke="rgb(179,147,78)" stroke-width="1" opacity="0.75" />
			</g>
			<g>
				<title>AMP-binding (PF00501)
"AMP-binding enzyme"</title>
				<polygon class="PF00501" points="722,28 754,28 761,35 761,45 754,52 722,52" stroke-linejoin="round" width="39" height="24" fill="rgb(60,217,223)" stroke="rgb(48,173,178)" stroke-width="1" opacity="0.75" />
			</g>
			<g>
				<title>AMP-binding_C (PF13193)
"AMP-binding enzyme C-terminal domain"</title>
				<polygon class="PF13193" points="763,37 766,40 763,43" stroke-linejoin="round" width="8" height="24" fill="rgb(182,50,118)" stroke="rgb(145,39,94)" stroke-width="1" opacity="0.75" />
			</g>
		</g>
		<g>
			<title> (DMH02_027325)
condensation domain-containing protein</title>
			<polygon class=" (DMH02_027325)
condensation domain-containing protein" points="771,25 797,25 797,10 827,40 797,70 797,55 771,55" fill="rgb(255,255,255)" fill-opacity="1.0" stroke="rgb(0,0,0)" stroke-width="2"  />
			<g>
				<title>PP-binding (PF00550)
"Phosphopantetheine attachment site"</title>
				<rect class="PF00550" x="773" y="28" stroke-linejoin="round" width="6" height="24" fill="rgb(103,191,88)" stroke="rgb(82,152,70)" stroke-width="1" opacity="0.75" />
			</g>
			<g>
				<title>Condensation (PF00668)
"Condensation domain"</title>
				<polygon class="PF00668" points="784,28 811,28 823,40 811,52 784,52" stroke-linejoin="round" width="43" height="24" fill="rgb(224,184,98)" stroke="rgb(179,147,78)" stroke-width="1" opacity="0.75" />
			</g>
		</g>
		<g>
			<title> (DMH02_027330)
amino acid adenylation domain-containing protein</title>
			<polygon class=" (DMH02_027330)
amino acid adenylation domain-containing protein" points="829,25 907,25 907,10 937,40 907,70 907,55 829,55" fill="rgb(255,255,255)" fill-opacity="1.0" stroke="rgb(0,0,0)" stroke-width="2"  />
			<g>
				<title>AMP-binding (PF00501)
"AMP-binding enzyme"</title>
				<rect class="PF00501" x="829" y="28" stroke-linejoin="round" width="39" height="24" fill="rgb(60,217,223)" stroke="rgb(48,173,178)" stroke-width="1" opacity="0.75" />
			</g>
			<g>
				<title>AMP-binding_C (PF13193)
"AMP-binding enzyme C-terminal domain"</title>
				<rect class="PF13193" x="870" y="28" stroke-linejoin="round" width="7" height="24" fill="rgb(182,50,118)" stroke="rgb(145,39,94)" stroke-width="1" opacity="0.75" />
			</g>
			<g>
				<title>PP-binding (PF00550)
"Phosphopantetheine attachment site"</title>
				<rect class="PF00550" x="880" y="28" stroke-linejoin="round" width="6" height="24" fill="rgb(103,191,88)" stroke="rgb(82,152,70)" stroke-width="1" opacity="0.75" />
			</g>
			<g>
				<title>Condensation (PF00668)
"Condensation domain"</title>
				<polygon class="PF00668" points="889,28 921,28 926,33 926,47 921,52 889,52" stroke-linejoin="round" width="37" height="24" fill="rgb(224,184,98)" stroke="rgb(179,147,78)" stroke-width="1" opacity="0.75" />
			</g>
		</g>
		<g>
			<title> (DMH02_027335)
amino acid adenylation domain-containing protein</title>
			<polygon class=" (DMH02_027335)
amino acid adenylation domain-containing protein" points="938,25 1062,25 1062,10 1092,40 1062,70 1062,55 938,55" fill="rgb(255,255,255)" fill-opacity="1.0" stroke="rgb(0,0,0)" stroke-width="2"  />
			<g>
				<title>Condensation (PF00668)
"Condensation domain"</title>
				<rect class="PF00668" x="939" y="28" stroke-linejoin="round" width="43" height="24" fill="rgb(224,184,98)" stroke="rgb(179,147,78)" stroke-width="1" opacity="0.75" />
			</g>
			<g>
				<title>AMP-binding (PF00501)
"AMP-binding enzyme"</title>
				<rect class="PF00501" x="985" y="28" stroke-linejoin="round" width="39" height="24" fill="rgb(60,217,223)" stroke="rgb(48,173,178)" stroke-width="1" opacity="0.75" />
			</g>
			<g>
				<title>AMP-binding_C (PF13193)
"AMP-binding enzyme C-terminal domain"</title>
				<rect class="PF13193" x="1025" y="28" stroke-linejoin="round" width="7" height="24" fill="rgb(182,50,118)" stroke="rgb(145,39,94)" stroke-width="1" opacity="0.75" />
			</g>
			<g>
				<title>PP-binding (PF00550)
"Phosphopantetheine attachment site"</title>
				<rect class="PF00550" x="1035" y="28" stroke-linejoin="round" width="6" height="24" fill="rgb(103,191,88)" stroke="rgb(82,152,70)" stroke-width="1" opacity="0.75" />
			</g>
			<g>
				<title>Condensation (PF00668)
"Condensation domain"</title>
				<polygon class="PF00668" points="1045,28 1076,28 1081,33 1081,47 1076,52 1045,52" stroke-linejoin="round" width="36" height="24" fill="rgb(224,184,98)" stroke="rgb(179,147,78)" stroke-width="1" opacity="0.75" />
			</g>
		</g>
		<g>
			<title> (DMH02_027340)
amino acid adenylation domain-containing protein</title>
			<polygon class=" (DMH02_027340)
amino acid adenylation domain-containing protein" points="1093,25 1527,25 1527,10 1557,40 1527,70 1527,55 1093,55" fill="rgb(255,255,255)" fill-opacity="1.0" stroke="rgb(0,0,0)" stroke-width="2"  />
			<g>
				<title>Condensation (PF00668)
"Condensation domain"</title>
				<rect class="PF00668" x="1093" y="28" stroke-linejoin="round" width="43" height="24" fill="rgb(224,184,98)" stroke="rgb(179,147,78)" stroke-width="1" opacity="0.75" />
			</g>
			<g>
				<title>AMP-binding (PF00501)
"AMP-binding enzyme"</title>
				<rect class="PF00501" x="1139" y="28" stroke-linejoin="round" width="39" height="24" fill="rgb(60,217,223)" stroke="rgb(48,173,178)" stroke-width="1" opacity="0.75" />
			</g>
			<g>
				<title>AMP-binding_C (PF13193)
"AMP-binding enzyme C-terminal domain"</title>
				<rect class="PF13193" x="1179" y="28" stroke-linejoin="round" width="7" height="24" fill="rgb(182,50,118)" stroke="rgb(145,39,94)" stroke-width="1" opacity="0.75" />
			</g>
			<g>
				<title>PP-binding (PF00550)
"Phosphopantetheine attachment site"</title>
				<rect class="PF00550" x="1190" y="28" stroke-linejoin="round" width="6" height="24" fill="rgb(103,191,88)" stroke="rgb(82,152,70)" stroke-width="1" opacity="0.75" />
			</g>
			<g>
				<title>Condensation (PF00668)
"Condensation domain"</title>
				<rect class="PF00668" x="1199" y="28" stroke-linejoin="round" width="46" height="24" fill="rgb(224,184,98)" stroke="rgb(179,147,78)" stroke-width="1" opacity="0.75" />
			</g>
			<g>
				<title>Condensation (PF00668)
"Condensation domain"</title>
				<rect class="PF00668" x="1248" y="28" stroke-linejoin="round" width="44" height="24" fill="rgb(224,184,98)" stroke="rgb(179,147,78)" stroke-width="1" opacity="0.75" />
			</g>
			<g>
				<title>AMP-binding (PF00501)
"AMP-binding enzyme"</title>
				<rect class="PF00501" x="1294" y="28" stroke-linejoin="round" width="39" height="24" fill="rgb(60,217,223)" stroke="rgb(48,173,178)" stroke-width="1" opacity="0.75" />
			</g>
			<g>
				<title>AMP-binding_C (PF13193)
"AMP-binding enzyme C-terminal domain"</title>
				<rect class="PF13193" x="1334" y="28" stroke-linejoin="round" width="7" height="24" fill="rgb(182,50,118)" stroke="rgb(145,39,94)" stroke-width="1" opacity="0.75" />
			</g>
			<g>
				<title>PP-binding (PF00550)
"Phosphopantetheine attachment site"</title>
				<rect class="PF00550" x="1344" y="28" stroke-linejoin="round" width="6" height="24" fill="rgb(103,191,88)" stroke="rgb(82,152,70)" stroke-width="1" opacity="0.75" />
			</g>
			<g>
				<title>Condensation (PF00668)
"Condensation domain"</title>
				<rect class="PF00668" x="1355" y="28" stroke-linejoin="round" width="45" height="24" fill="rgb(224,184,98)" stroke="rgb(179,147,78)" stroke-width="1" opacity="0.75" />
			</g>
			<g>
				<title>Condensation (PF00668)
"Condensation domain"</title>
				<rect class="PF00668" x="1402" y="28" stroke-linejoin="round" width="44" height="24" fill="rgb(224,184,98)" stroke="rgb(179,147,78)" stroke-width="1" opacity="0.75" />
			</g>
			<g>
				<title>AMP-binding (PF00501)
"AMP-binding enzyme"</title>
				<rect class="PF00501" x="1447" y="28" stroke-linejoin="round" width="39" height="24" fill="rgb(60,217,223)" stroke="rgb(48,173,178)" stroke-width="1" opacity="0.75" />
			</g>
			<g>
				<title>AMP-binding_C (PF13193)
"AMP-binding enzyme C-terminal domain"</title>
				<rect class="PF13193" x="1488" y="28" stroke-linejoin="round" width="8" height="24" fill="rgb(182,50,118)" stroke="rgb(145,39,94)" stroke-width="1" opacity="0.75" />
			</g>
			<g>
				<title>PP-binding (PF00550)
"Phosphopantetheine attachment site"</title>
				<rect class="PF00550" x="1499" y="28" stroke-linejoin="round" width="6" height="24" fill="rgb(103,191,88)" stroke="rgb(82,152,70)" stroke-width="1" opacity="0.75" />
			</g>
			<g>
				<title>Condensation (PF00668)
"Condensation domain"</title>
				<polygon class="PF00668" points="1509,28 1541,28 1553,40 1541,52 1509,52" stroke-linejoin="round" width="45" height="24" fill="rgb(224,184,98)" stroke="rgb(179,147,78)" stroke-width="1" opacity="0.75" />
			</g>
		</g>
		<g>
			<title> (DMH02_027345)
amino acid adenylation domain-containing protein</title>
			<polygon class=" (DMH02_027345)
amino acid adenylation domain-containing protein" points="1558,25 1751,25 1751,10 1781,40 1751,70 1751,55 1558,55" fill="rgb(255,255,255)" fill-opacity="1.0" stroke="rgb(0,0,0)" stroke-width="2"  />
			<g>
				<title>Condensation (PF00668)
"Condensation domain"</title>
				<rect class="PF00668" x="1558" y="28" stroke-linejoin="round" width="43" height="24" fill="rgb(224,184,98)" stroke="rgb(179,147,78)" stroke-width="1" opacity="0.75" />
			</g>
			<g>
				<title>AMP-binding (PF00501)
"AMP-binding enzyme"</title>
				<rect class="PF00501" x="1604" y="28" stroke-linejoin="round" width="39" height="24" fill="rgb(60,217,223)" stroke="rgb(48,173,178)" stroke-width="1" opacity="0.75" />
			</g>
			<g>
				<title>AMP-binding_C (PF13193)
"AMP-binding enzyme C-terminal domain"</title>
				<rect class="PF13193" x="1644" y="28" stroke-linejoin="round" width="7" height="24" fill="rgb(182,50,118)" stroke="rgb(145,39,94)" stroke-width="1" opacity="0.75" />
			</g>
			<g>
				<title>PP-binding (PF00550)
"Phosphopantetheine attachment site"</title>
				<rect class="PF00550" x="1654" y="28" stroke-linejoin="round" width="6" height="24" fill="rgb(103,191,88)" stroke="rgb(82,152,70)" stroke-width="1" opacity="0.75" />
			</g>
			<g>
				<title>Condensation (PF00668)
"Condensation domain"</title>
				<rect class="PF00668" x="1662" y="28" stroke-linejoin="round" width="45" height="24" fill="rgb(224,184,98)" stroke="rgb(179,147,78)" stroke-width="1" opacity="0.75" />
			</g>
			<g>
				<title>AMP-binding (PF00501)
"AMP-binding enzyme"</title>
				<rect class="PF00501" x="1710" y="28" stroke-linejoin="round" width="9" height="24" fill="rgb(60,217,223)" stroke="rgb(48,173,178)" stroke-width="1" opacity="0.75" />
			</g>
			<g>
				<title>AMP-binding (PF00501)
"AMP-binding enzyme"</title>
				<rect class="PF00501" x="1732" y="28" stroke-linejoin="round" width="21" height="24" fill="rgb(60,217,223)" stroke="rgb(48,173,178)" stroke-width="1" opacity="0.75" />
			</g>
			<g>
				<title>Thioesterase (PF00975)
"Thioesterase domain"</title>
				<polygon class="PF00975" points="1757,28 1765,28 1777,40 1765,52 1757,52" stroke-linejoin="round" width="23" height="24" fill="rgb(207,80,138)" stroke="rgb(165,63,110)" stroke-width="1" opacity="0.75" />
			</g>
		</g>
		<g>
			<title> (DMH02_027350)
MbtH family protein</title>
			<polygon class=" (DMH02_027350)
MbtH family protein" points="1781,10 1788,40 1781,70" fill="rgb(255,255,255)" fill-opacity="1.0" stroke="rgb(0,0,0)" stroke-width="2"  />
			<g>
				<title>MbtH (PF03621)
"MbtH-like protein"</title>
				<polygon class="PF03621" points="1781,28 1782,28 1785,40 1782,52 1781,52" stroke-linejoin="round" width="5" height="24" fill="rgb(212,165,97)" stroke="rgb(169,132,77)" stroke-width="1" opacity="0.75" />
			</g>
		</g>
		<g>
			<title> (DMH02_027355)
cation:proton antiporter</title>
			<polygon class=" (DMH02_027355)
cation:proton antiporter" points="1792,25 1806,25 1806,10 1836,40 1806,70 1806,55 1792,55" fill="rgb(255,255,255)" fill-opacity="1.0" stroke="rgb(0,0,0)" stroke-width="2"  />
			<g>
				<title>Na_H_Exchanger (PF00999)
"Sodium/hydrogen exchanger family"</title>
				<polygon class="PF00999" points="1793,28 1819,28 1831,40 1819,52 1793,52" stroke-linejoin="round" width="39" height="24" fill="rgb(229,67,191)" stroke="rgb(183,53,152)" stroke-width="1" opacity="0.75" />
			</g>
		</g>
		<g>
			<title> (DMH02_027360)
tryptophan 7-halogenase</title>
			<polygon class=" (DMH02_027360)
tryptophan 7-halogenase" points="1844,25 1864,25 1864,10 1894,40 1864,70 1864,55 1844,55" fill="rgb(255,255,255)" fill-opacity="1.0" stroke="rgb(0,0,0)" stroke-width="2"  />
			<g>
				<title>Trp_halogenase (PF04820)
"Tryptophan halogenase"</title>
				<rect class="PF04820" x="1845" y="28" stroke-linejoin="round" width="9" height="24" fill="rgb(179,74,194)" stroke="rgb(143,59,155)" stroke-width="1" opacity="0.75" />
			</g>
			<g>
				<title>Trp_halogenase (PF04820)
"Tryptophan halogenase"</title>
				<polygon class="PF04820" points="1853,28 1877,28 1886,37 1886,43 1877,52 1853,52" stroke-linejoin="round" width="33" height="24" fill="rgb(179,74,194)" stroke="rgb(143,59,155)" stroke-width="1" opacity="0.75" />
			</g>
		</g>
		<g>
			<title> (DMH02_027365)
cytochrome P450</title>
			<polygon class=" (DMH02_027365)
cytochrome P450" points="1894,25 1903,25 1903,10 1933,40 1903,70 1903,55 1894,55" fill="rgb(255,255,255)" fill-opacity="1.0" stroke="rgb(0,0,0)" stroke-width="2"  />
			<g>
				<title>p450 (PF00067)
"Cytochrome P450"</title>
				<polygon class="PF00067" points="1920,31 1929,40 1920,49" stroke-linejoin="round" width="12" height="24" fill="rgb(85,216,107)" stroke="rgb(68,172,85)" stroke-width="1" opacity="0.75" />
			</g>
		</g>
		<g>
			<title> (DMH02_027370)
cytochrome P450</title>
			<polygon class=" (DMH02_027370)
cytochrome P450" points="1934,25 1945,25 1945,10 1975,40 1945,70 1945,55 1934,55" fill="rgb(255,255,255)" fill-opacity="1.0" stroke="rgb(0,0,0)" stroke-width="2"  />
			<g>
				<title>p450 (PF00067)
"Cytochrome P450"</title>
				<polygon class="PF00067" points="1961,31 1970,40 1961,49" stroke-linejoin="round" width="11" height="24" fill="rgb(85,216,107)" stroke="rgb(68,172,85)" stroke-width="1" opacity="0.75" />
			</g>
		</g>
		<g>
			<title> (DMH02_027375)
ferredoxin</title>
			<polygon class=" (DMH02_027375)
ferredoxin" points="1977,10 1986,40 1977,70" fill="rgb(255,255,255)" fill-opacity="1.0" stroke="rgb(0,0,0)" stroke-width="2"  />
			<g>
				<title>Fer4_15 (PF13459)
"4Fe-4S single cluster domain"</title>
				<polygon class="PF13459" points="1977,28 1979,28 1982,37 1982,43 1979,52 1977,52" stroke-linejoin="round" width="5" height="24" fill="rgb(138,59,179)" stroke="rgb(110,47,143)" stroke-width="1" opacity="0.75" />
			</g>
		</g>
		<g>
			<title> (DMH02_027380)
transposase</title>
			<polygon class=" (DMH02_027380)
transposase" points="2027,25 2017,25 2017,10 1987,40 2017,70 2017,55 2027,55" fill="rgb(255,255,255)" fill-opacity="1.0" stroke="rgb(0,0,0)" stroke-width="2"  />
			<g>
				<title>OrfB_Zn_ribbon (PF07282)
"Putative transposase DNA-binding domain"</title>
				<polygon class="PF07282" points="1991,40 1995,36 1995,44" stroke-linejoin="round" width="7" height="24" fill="rgb(188,84,136)" stroke="rgb(150,67,108)" stroke-width="1" opacity="0.75" />
			</g>
			<g>
				<title>OrfB_IS605 (PF01385)
"Probable transposase"</title>
				<polygon class="PF01385" points="1998,33 2003,28 2011,28 2011,52 2003,52 1998,47" stroke-linejoin="round" width="13" height="24" fill="rgb(95,115,208)" stroke="rgb(76,92,166)" stroke-width="1" opacity="0.75" />
			</g>
		</g>
		<g>
			<title>tnpA (DMH02_027385)
IS200/IS605 family transposase</title>
			<polygon class="tnpA (DMH02_027385)
IS200/IS605 family transposase" points="2028,40 2042,10 2042,70" fill="rgb(255,255,255)" fill-opacity="1.0" stroke="rgb(0,0,0)" stroke-width="2"  />
			<g>
				<title>Y1_Tnp (PF01797)
"Transposase IS200 like"</title>
				<polygon class="PF01797" points="2031,40 2037,28 2040,28 2040,52 2037,52" stroke-linejoin="round" width="11" height="24" fill="rgb(198,164,60)" stroke="rgb(158,131,47)" stroke-width="1" opacity="0.75" />
			</g>
		</g>
		<g>
			<title> (DMH02_027390)
acyl carrier protein</title>
			<polygon class=" (DMH02_027390)
acyl carrier protein" points="2047,10 2057,40 2047,70" fill="rgb(255,255,255)" fill-opacity="1.0" stroke="rgb(0,0,0)" stroke-width="2"  />
			<g>
				<title>PP-binding (PF00550)
"Phosphopantetheine attachment site"</title>
				<polygon class="PF00550" points="2048,28 2049,28 2054,39 2054,41 2049,52 2048,52" stroke-linejoin="round" width="6" height="24" fill="rgb(103,191,88)" stroke="rgb(82,152,70)" stroke-width="1" opacity="0.75" />
			</g>
		</g>
		<g>
			<title> (DMH02_027395)
AMP-binding protein</title>
			<polygon class=" (DMH02_027395)
AMP-binding protein" points="2058,25 2074,25 2074,10 2104,40 2074,70 2074,55 2058,55" fill="rgb(255,255,255)" fill-opacity="1.0" stroke="rgb(0,0,0)" stroke-width="2"  />
			<g>
				<title>AMP-binding (PF00501)
"AMP-binding enzyme"</title>
				<polygon class="PF00501" points="2067,28 2087,28 2093,34 2093,46 2087,52 2067,52" stroke-linejoin="round" width="26" height="24" fill="rgb(60,217,223)" stroke="rgb(48,173,178)" stroke-width="1" opacity="0.75" />
			</g>
			<g>
				<title>AMP-binding_C (PF13193)
"AMP-binding enzyme C-terminal domain"</title>
				<polygon class="PF13193" points="2095,36 2099,40 2095,44" stroke-linejoin="round" width="7" height="24" fill="rgb(182,50,118)" stroke="rgb(145,39,94)" stroke-width="1" opacity="0.75" />
			</g>
		</g>
		<g>
			<title> (DMH02_027400)
phosphosulfolactate synthase</title>
			<polygon class=" (DMH02_027400)
phosphosulfolactate synthase" points="2106,10 2131,40 2106,70" fill="rgb(255,255,255)" fill-opacity="1.0" stroke="rgb(0,0,0)" stroke-width="2"  />
			<g>
				<title>ComA (PF02679)
"(2R)-phospho-3-sulfolactate synthase (ComA)"</title>
				<polygon class="PF02679" points="2106,28 2117,28 2127,40 2117,52 2106,52" stroke-linejoin="round" width="23" height="24" fill="rgb(167,194,96)" stroke="rgb(133,155,76)" stroke-width="1" opacity="0.75" />
			</g>
		</g>
		<g>
			<title> (DMH02_027405)
VOC family protein</title>
			<polygon class=" (DMH02_027405)
VOC family protein" points="2132,10 2145,40 2132,70" fill="rgb(255,255,255)" fill-opacity="1.0" stroke="rgb(0,0,0)" stroke-width="2"  />
			<g>
				<title>Glyoxalase (PF00903)
"Glyoxalase/Bleomycin resistance protein/Dioxygenase superfamily"</title>
				<polygon class="PF00903" points="2132,28 2136,28 2142,40 2136,52 2132,52" stroke-linejoin="round" width="11" height="24" fill="rgb(50,162,189)" stroke="rgb(40,129,151)" stroke-width="1" opacity="0.75" />
			</g>
		</g>
		<g>
			<title> (DMH02_027410)
alpha-hydroxy-acid oxidizing protein</title>
			<polygon class=" (DMH02_027410)
alpha-hydroxy-acid oxidizing protein" points="2182,25 2177,25 2177,10 2147,40 2177,70 2177,55 2182,55" fill="rgb(255,255,255)" fill-opacity="1.0" stroke="rgb(0,0,0)" stroke-width="2"  />
			<g>
				<title>FMN_dh (PF01070)
"FMN-dependent dehydrogenase"</title>
				<polygon class="PF01070" points="2151,40 2163,28 2181,28 2181,52 2163,52" stroke-linejoin="round" width="34" height="24" fill="rgb(59,82,204)" stroke="rgb(47,65,163)" stroke-width="1" opacity="0.75" />
			</g>
		</g>
		<g>
			<title>hppD (DMH02_027415)
4-hydroxyphenylpyruvate dioxygenase</title>
			<polygon class="hppD (DMH02_027415)
4-hydroxyphenylpyruvate dioxygenase" points="2223,25 2217,25 2217,10 2187,40 2217,70 2217,55 2223,55" fill="rgb(255,255,255)" fill-opacity="1.0" stroke="rgb(0,0,0)" stroke-width="2"  />
			<g>
				<title>Glyoxalase (PF00903)
"Glyoxalase/Bleomycin resistance protein/Dioxygenase superfamily"</title>
				<polygon class="PF00903" points="2191,40 2203,28 2205,28 2205,52 2203,52 2191,40" stroke-linejoin="round" width="14" height="24" fill="rgb(50,162,189)" stroke="rgb(40,129,151)" stroke-width="1" opacity="0.75" />
			</g>
			<g>
				<title>Glyoxalase (PF00903)
"Glyoxalase/Bleomycin resistance protein/Dioxygenase superfamily"</title>
				<rect class="PF00903" x="2211" y="28" stroke-linejoin="round" width="10" height="24" fill="rgb(50,162,189)" stroke="rgb(40,129,151)" stroke-width="1" opacity="0.75" />
			</g>
		</g>
		<g>
			<title> (DMH02_027420)
PLP-dependent aminotransferase family protein</title>
			<polygon class=" (DMH02_027420)
PLP-dependent aminotransferase family protein" points="2236,25 2251,25 2251,10 2281,40 2251,70 2251,55 2236,55" fill="rgb(255,255,255)" fill-opacity="1.0" stroke="rgb(0,0,0)" stroke-width="2"  />
			<g>
				<title>Aminotran_1_2 (PF00155)
"Aminotransferase class I and II"</title>
				<polygon class="PF00155" points="2243,28 2265,28 2277,40 2265,52 2243,52" stroke-linejoin="round" width="35" height="24" fill="rgb(89,113,198)" stroke="rgb(71,90,158)" stroke-width="1" opacity="0.75" />
			</g>
		</g>
		<g>
			<title> (DMH02_027425)
prephenate dehydrogenase</title>
			<polygon class=" (DMH02_027425)
prephenate dehydrogenase" points="2281,25 2283,25 2283,10 2313,40 2283,70 2283,55 2281,55" fill="rgb(255,255,255)" fill-opacity="1.0" stroke="rgb(0,0,0)" stroke-width="2"  />
			<g>
				<title>PDH_N (PF02153)
"Prephenate dehydrogenase, nucleotide-binding domain"</title>
				<rect class="PF02153" x="2282" y="28" stroke-linejoin="round" width="14" height="24" fill="rgb(90,185,212)" stroke="rgb(72,148,169)" stroke-width="1" opacity="0.75" />
			</g>
			<g>
				<title>PDH_C (PF20463)
"Prephenate dehydrogenase, dimerization domain"</title>
				<polygon class="PF20463" points="2297,29 2306,38 2306,42 2297,51" stroke-linejoin="round" width="9" height="24" fill="rgb(99,50,183)" stroke="rgb(79,39,146)" stroke-width="1" opacity="0.75" />
			</g>
		</g>
		<g>
			<title> (DMH02_027430)
hypothetical protein</title>
			<polygon class=" (DMH02_027430)
hypothetical protein" points="2320,10 2339,40 2320,70" fill="rgb(255,255,255)" fill-opacity="1.0" stroke="rgb(0,0,0)" stroke-width="2"  />
		</g>
		<g>
			<title> (DMH02_027435)
peptidoglycan-binding protein</title>
			<polygon class=" (DMH02_027435)
peptidoglycan-binding protein" points="2339,25 2356,25 2356,10 2386,40 2356,70 2356,55 2339,55" fill="rgb(255,255,255)" fill-opacity="1.0" stroke="rgb(0,0,0)" stroke-width="2"  />
			<g>
				<title>PG_binding_1 (PF01471)
"Putative peptidoglycan binding domain"</title>
				<rect class="PF01471" x="2362" y="28" stroke-linejoin="round" width="5" height="24" fill="rgb(186,74,131)" stroke="rgb(148,59,104)" stroke-width="1" opacity="0.75" />
			</g>
		</g>
		<g>
			<title> (DMH02_027440)
ABC transporter ATP-binding protein</title>
			<polygon class=" (DMH02_027440)
ABC transporter ATP-binding protein" points="2387,10 2412,40 2387,70" fill="rgb(255,255,255)" fill-opacity="1.0" stroke="rgb(0,0,0)" stroke-width="2"  />
			<g>
				<title>ABC_tran (PF00005)
"ABC transporter"</title>
				<polygon class="PF00005" points="2388,28 2398,28 2402,33 2402,47 2398,52 2388,52" stroke-linejoin="round" width="14" height="24" fill="rgb(129,201,63)" stroke="rgb(103,160,50)" stroke-width="1" opacity="0.75" />
			</g>
		</g>
	</g>
</svg>
