<svg version="1.1" baseProfile="full" xmlns="http://www.w3.org/2000/svg" width="388.8666666666667" height="80">
	<g>
		<line x1="10" y1="40.0" x2="378.8666666666667" y2="40.0" style="stroke:rgb(70,70,70); stroke-width:3 "/>
		<g>
			<title> (AO090102000165)</title>
			<polygon class=" (AO090102000165)" points="76,25 47,25 47,10 17,40 47,70 47,55 76,55" fill="rgb(255,255,255)" fill-opacity="1.0" stroke="rgb(0,0,0)" stroke-width="2"  />
			<g>
				<title>AMP-binding_C (PF13193)
"AMP-binding enzyme C-terminal domain"</title>
				<polygon class="PF13193" points="22,39 29,32 29,48 22,41" stroke-linejoin="round" width="7" height="24" fill="rgb(182,50,118)" stroke="rgb(145,39,94)" stroke-width="1" opacity="0.75" />
			</g>
			<g>
				<title>AMP-binding (PF00501)
"AMP-binding enzyme"</title>
				<polygon class="PF00501" points="31,30 33,28 75,28 75,52 33,52 31,50" stroke-linejoin="round" width="44" height="24" fill="rgb(60,217,223)" stroke="rgb(48,173,178)" stroke-width="1" opacity="0.75" />
			</g>
		</g>
		<g>
			<title> (AO090102000166)</title>
			<polygon class=" (AO090102000166)" points="335,25 122,25 122,10 92,40 122,70 122,55 335,55" fill="rgb(255,255,255)" fill-opacity="1.0" stroke="rgb(0,0,0)" stroke-width="2"  />
			<g>
				<title>PP-binding (PF00550)
"Phosphopantetheine attachment site"</title>
				<polygon class="PF00550" points="96,40 98,38 98,42" stroke-linejoin="round" width="6" height="24" fill="rgb(103,191,88)" stroke="rgb(82,152,70)" stroke-width="1" opacity="0.75" />
			</g>
			<g>
				<title>Methyltransf_12 (PF08242)
"Methyltransferase domain"</title>
				<rect class="PF08242" x="184" y="28" stroke-linejoin="round" width="10" height="24" fill="rgb(187,59,115)" stroke="rgb(149,47,92)" stroke-width="1" opacity="0.75" />
			</g>
			<g>
				<title>PS-DH (PF14765)
"Polyketide synthase dehydratase"</title>
				<rect class="PF14765" x="211" y="28" stroke-linejoin="round" width="28" height="24" fill="rgb(173,56,182)" stroke="rgb(138,44,145)" stroke-width="1" opacity="0.75" />
			</g>
			<g>
				<title>Acyl_transf_1 (PF00698)
"Acyl transferase domain"</title>
				<rect class="PF00698" x="246" y="28" stroke-linejoin="round" width="32" height="24" fill="rgb(59,176,209)" stroke="rgb(47,140,167)" stroke-width="1" opacity="0.75" />
			</g>
			<g>
				<title>KAsynt_C_assoc (PF16197)
"Ketoacyl-synthetase C-terminal extension"</title>
				<rect class="PF16197" x="283" y="28" stroke-linejoin="round" width="12" height="24" fill="rgb(240,150,172)" stroke="rgb(192,120,137)" stroke-width="1" opacity="0.75" />
			</g>
			<g>
				<title>Ketoacyl-synt_C (PF02801)
"Beta-ketoacyl synthase, C-terminal domain"</title>
				<rect class="PF02801" x="295" y="28" stroke-linejoin="round" width="12" height="24" fill="rgb(215,78,102)" stroke="rgb(172,62,81)" stroke-width="1" opacity="0.75" />
			</g>
			<g>
				<title>ketoacyl-synt (PF00109)
"Beta-ketoacyl synthase, N-terminal domain"</title>
				<rect class="PF00109" x="309" y="28" stroke-linejoin="round" width="25" height="24" fill="rgb(112,116,228)" stroke="rgb(89,92,182)" stroke-width="1" opacity="0.75" />
			</g>
		</g>
		<g>
			<title> (AO090102000167)</title>
			<polygon class=" (AO090102000167)" points="361,10 374,40 361,70" fill="rgb(255,255,255)" fill-opacity="1.0" stroke="rgb(0,0,0)" stroke-width="2"  />
			<g>
				<title>Lipocalin_5 (PF13924)
"Lipocalin-like domain"</title>
				<polygon class="PF13924" points="361,28 365,28 371,40 371,40 365,52 361,52" stroke-linejoin="round" width="10" height="24" fill="rgb(187,88,47)" stroke="rgb(149,70,37)" stroke-width="1" opacity="0.75" />
			</g>
		</g>
	</g>
</svg>
