<svg version="1.1" baseProfile="full" xmlns="http://www.w3.org/2000/svg" width="1161.1333333333334" height="80">
	<g>
		<line x1="10" y1="40.0" x2="1151.1333333333334" y2="40.0" style="stroke:rgb(70,70,70); stroke-width:3 "/>
		<g>
			<title>calC_
transcription factor CalC'</title>
			<polygon class="calC_
transcription factor CalC'" points="13,25 26,25 26,10 56,40 26,70 26,55 13,55" fill="rgb(255,255,255)" fill-opacity="1.0" stroke="rgb(0,0,0)" stroke-width="2"  />
			<g>
				<title>Zn_clus (PF00172)
"Fungal Zn(2)-Cys(6) binuclear cluster domain"</title>
				<rect class="PF00172" x="14" y="28" stroke-linejoin="round" width="4" height="24" fill="rgb(121,178,76)" stroke="rgb(96,142,60)" stroke-width="1" opacity="0.75" />
			</g>
		</g>
		<g>
			<title>calB_
major facilitator superfamily transporter CalB'</title>
			<polygon class="calB_
major facilitator superfamily transporter CalB'" points="85,25 121,25 121,10 151,40 121,70 121,55 85,55" fill="rgb(255,255,255)" fill-opacity="1.0" stroke="rgb(0,0,0)" stroke-width="2"  />
			<g>
				<title>MFS_1 (PF07690)
"Major Facilitator Superfamily"</title>
				<rect class="PF07690" x="93" y="28" stroke-linejoin="round" width="40" height="24" fill="rgb(193,224,74)" stroke="rgb(154,179,59)" stroke-width="1" opacity="0.75" />
			</g>
		</g>
		<g>
			<title>calA_
polyketide synthase CalA'</title>
			<polygon class="calA_
polyketide synthase CalA'" points="201,25 466,25 466,10 496,40 466,70 466,55 201,55" fill="rgb(255,255,255)" fill-opacity="1.0" stroke="rgb(0,0,0)" stroke-width="2"  />
			<g>
				<title>ketoacyl-synt (PF00109)
"Beta-ketoacyl synthase, N-terminal domain"</title>
				<rect class="PF00109" x="201" y="28" stroke-linejoin="round" width="25" height="24" fill="rgb(112,116,228)" stroke="rgb(89,92,182)" stroke-width="1" opacity="0.75" />
			</g>
			<g>
				<title>Ketoacyl-synt_C (PF02801)
"Beta-ketoacyl synthase, C-terminal domain"</title>
				<rect class="PF02801" x="227" y="28" stroke-linejoin="round" width="12" height="24" fill="rgb(215,78,102)" stroke="rgb(172,62,81)" stroke-width="1" opacity="0.75" />
			</g>
			<g>
				<title>KAsynt_C_assoc (PF16197)
"Ketoacyl-synthetase C-terminal extension"</title>
				<rect class="PF16197" x="240" y="28" stroke-linejoin="round" width="11" height="24" fill="rgb(240,150,172)" stroke="rgb(192,120,137)" stroke-width="1" opacity="0.75" />
			</g>
			<g>
				<title>Acyl_transf_1 (PF00698)
"Acyl transferase domain"</title>
				<rect class="PF00698" x="256" y="28" stroke-linejoin="round" width="33" height="24" fill="rgb(59,176,209)" stroke="rgb(47,140,167)" stroke-width="1" opacity="0.75" />
			</g>
			<g>
				<title>PS-DH (PF14765)
"Polyketide synthase dehydratase"</title>
				<rect class="PF14765" x="295" y="28" stroke-linejoin="round" width="29" height="24" fill="rgb(173,56,182)" stroke="rgb(138,44,145)" stroke-width="1" opacity="0.75" />
			</g>
			<g>
				<title>Methyltransf_12 (PF08242)
"Methyltransferase domain"</title>
				<rect class="PF08242" x="342" y="28" stroke-linejoin="round" width="10" height="24" fill="rgb(187,59,115)" stroke="rgb(149,47,92)" stroke-width="1" opacity="0.75" />
			</g>
			<g>
				<title>KR (PF08659)
"KR domain"</title>
				<rect class="PF08659" x="412" y="28" stroke-linejoin="round" width="17" height="24" fill="rgb(66,209,188)" stroke="rgb(52,167,150)" stroke-width="1" opacity="0.75" />
			</g>
			<g>
				<title>NAD_binding_4 (PF07993)
"Male sterility protein"</title>
				<polygon class="PF07993" points="459,28 480,28 481,29 481,51 480,52 459,52" stroke-linejoin="round" width="22" height="24" fill="rgb(100,212,204)" stroke="rgb(80,169,163)" stroke-width="1" opacity="0.75" />
			</g>
		</g>
		<g>
			<title>calD_
acyltransferase CalD'</title>
			<polygon class="calD_
acyltransferase CalD'" points="569,25 548,25 548,10 518,40 548,70 548,55 569,55" fill="rgb(255,255,255)" fill-opacity="1.0" stroke="rgb(0,0,0)" stroke-width="2"  />
		</g>
		<g>
			<title>calE_
cytochrome P450 monooxygenase CalE'</title>
			<polygon class="calE_
cytochrome P450 monooxygenase CalE'" points="589,25 618,25 618,10 648,40 618,70 618,55 589,55" fill="rgb(255,255,255)" fill-opacity="1.0" stroke="rgb(0,0,0)" stroke-width="2"  />
			<g>
				<title>p450 (PF00067)
"Cytochrome P450"</title>
				<polygon class="PF00067" points="602,28 632,28 639,35 639,45 632,52 602,52" stroke-linejoin="round" width="37" height="24" fill="rgb(85,216,107)" stroke="rgb(68,172,85)" stroke-width="1" opacity="0.75" />
			</g>
		</g>
		<g>
			<title>calF_
FAD-linked oxidoreductase CalF'</title>
			<polygon class="calF_
FAD-linked oxidoreductase CalF'" points="720,25 690,25 690,10 660,40 690,70 690,55 720,55" fill="rgb(255,255,255)" fill-opacity="1.0" stroke="rgb(0,0,0)" stroke-width="2"  />
			<g>
				<title>BBE (PF08031)
"Berberine and berberine like"</title>
				<polygon class="PF08031" points="664,40 668,36 668,44 664,40" stroke-linejoin="round" width="4" height="24" fill="rgb(210,73,83)" stroke="rgb(168,58,66)" stroke-width="1" opacity="0.75" />
			</g>
			<g>
				<title>FAD_binding_4 (PF01565)
"FAD binding domain"</title>
				<rect class="PF01565" x="694" y="28" stroke-linejoin="round" width="14" height="24" fill="rgb(226,88,136)" stroke="rgb(180,70,108)" stroke-width="1" opacity="0.75" />
			</g>
		</g>
		<g>
			<title>calG_
bifunctional cytochrome P450/NADPH-P450 reductase CalG'</title>
			<polygon class="calG_
bifunctional cytochrome P450/NADPH-P450 reductase CalG'" points="734,25 817,25 817,10 847,40 817,70 817,55 734,55" fill="rgb(255,255,255)" fill-opacity="1.0" stroke="rgb(0,0,0)" stroke-width="2"  />
			<g>
				<title>p450 (PF00067)
"Cytochrome P450"</title>
				<rect class="PF00067" x="734" y="28" stroke-linejoin="round" width="45" height="24" fill="rgb(85,216,107)" stroke="rgb(68,172,85)" stroke-width="1" opacity="0.75" />
			</g>
			<g>
				<title>Flavodoxin_1 (PF00258)
"Flavodoxin"</title>
				<rect class="PF00258" x="784" y="28" stroke-linejoin="round" width="13" height="24" fill="rgb(77,169,183)" stroke="rgb(61,135,146)" stroke-width="1" opacity="0.75" />
			</g>
			<g>
				<title>FAD_binding_1 (PF00667)
"FAD binding domain"</title>
				<rect class="PF00667" x="801" y="28" stroke-linejoin="round" width="21" height="24" fill="rgb(145,74,201)" stroke="rgb(116,59,160)" stroke-width="1" opacity="0.75" />
			</g>
			<g>
				<title>NAD_binding_1 (PF00175)
"Oxidoreductase NAD-binding domain"</title>
				<polygon class="PF00175" points="826,28 831,28 837,34 837,46 831,52 826,52" stroke-linejoin="round" width="11" height="24" fill="rgb(177,211,96)" stroke="rgb(141,168,76)" stroke-width="1" opacity="0.75" />
			</g>
		</g>
		<g>
			<title>calH_
trans-acting methyltransferase CalH'</title>
			<polygon class="calH_
trans-acting methyltransferase CalH'" points="863,25 873,25 873,10 903,40 873,70 873,55 863,55" fill="rgb(255,255,255)" fill-opacity="1.0" stroke="rgb(0,0,0)" stroke-width="2"  />
			<g>
				<title>Methyltransf_12 (PF08242)
"Methyltransferase domain"</title>
				<polygon class="PF08242" points="881,28 886,28 891,33 891,47 886,52 881,52" stroke-linejoin="round" width="10" height="24" fill="rgb(187,59,115)" stroke="rgb(149,47,92)" stroke-width="1" opacity="0.75" />
			</g>
		</g>
		<g>
			<title>calI_
short-chain dehydrogenase/reductase CalI'</title>
			<polygon class="calI_
short-chain dehydrogenase/reductase CalI'" points="939,25 935,25 935,10 905,40 935,70 935,55 939,55" fill="rgb(255,255,255)" fill-opacity="1.0" stroke="rgb(0,0,0)" stroke-width="2"  />
			<g>
				<title>adh_short (PF00106)
"short chain dehydrogenase"</title>
				<polygon class="PF00106" points="913,36 921,28 934,28 934,52 921,52 913,44" stroke-linejoin="round" width="21" height="24" fill="rgb(182,219,73)" stroke="rgb(145,175,58)" stroke-width="1" opacity="0.75" />
			</g>
		</g>
		<g>
			<title>calJ_
esterase CalJ'</title>
			<polygon class="calJ_
esterase CalJ'" points="955,25 966,25 966,10 996,40 966,70 966,55 955,55" fill="rgb(255,255,255)" fill-opacity="1.0" stroke="rgb(0,0,0)" stroke-width="2"  />
			<g>
				<title>Beta-lactamase (PF00144)
"Beta-lactamase"</title>
				<polygon class="PF00144" points="956,28 980,28 992,40 980,52 956,52" stroke-linejoin="round" width="37" height="24" fill="rgb(92,159,200)" stroke="rgb(73,127,160)" stroke-width="1" opacity="0.75" />
			</g>
		</g>
		<g>
			<title>calK_
trans-acting enoylreductase CalK'</title>
			<polygon class="calK_
trans-acting enoylreductase CalK'" points="1034,25 1027,25 1027,10 997,40 1027,70 1027,55 1034,55" fill="rgb(255,255,255)" fill-opacity="1.0" stroke="rgb(0,0,0)" stroke-width="2"  />
			<g>
				<title>ADH_zinc_N (PF00107)
"Zinc-binding dehydrogenase"</title>
				<polygon class="PF00107" points="1008,33 1013,28 1016,28 1016,52 1013,52 1008,47" stroke-linejoin="round" width="8" height="24" fill="rgb(81,108,215)" stroke="rgb(64,86,172)" stroke-width="1" opacity="0.75" />
			</g>
		</g>
		<g>
			<title>calL_
cytochrome P450 monooxygenase CalL'</title>
			<polygon class="calL_
cytochrome P450 monooxygenase CalL'" points="1045,25 1071,25 1071,10 1101,40 1071,70 1071,55 1045,55" fill="rgb(255,255,255)" fill-opacity="1.0" stroke="rgb(0,0,0)" stroke-width="2"  />
			<g>
				<title>p450 (PF00067)
"Cytochrome P450"</title>
				<polygon class="PF00067" points="1054,28 1085,28 1094,37 1094,43 1085,52 1054,52" stroke-linejoin="round" width="40" height="24" fill="rgb(85,216,107)" stroke="rgb(68,172,85)" stroke-width="1" opacity="0.75" />
			</g>
		</g>
		<g>
			<title>calM_
short-chain dehydrogenase/reductase CalM'</title>
			<polygon class="calM_
short-chain dehydrogenase/reductase CalM'" points="1147,25 1144,25 1144,10 1114,40 1144,70 1144,55 1147,55" fill="rgb(255,255,255)" fill-opacity="1.0" stroke="rgb(0,0,0)" stroke-width="2"  />
			<g>
				<title>adh_short (PF00106)
"short chain dehydrogenase"</title>
				<polygon class="PF00106" points="1126,32 1130,28 1145,28 1145,52 1130,52 1126,48" stroke-linejoin="round" width="19" height="24" fill="rgb(182,219,73)" stroke="rgb(145,175,58)" stroke-width="1" opacity="0.75" />
			</g>
		</g>
	</g>
</svg>
