<svg version="1.1" baseProfile="full" xmlns="http://www.w3.org/2000/svg" width="829.8" height="80">
	<g>
		<line x1="10" y1="40.0" x2="819.8" y2="40.0" style="stroke:rgb(70,70,70); stroke-width:3 "/>
		<g>
			<title>
hypothetical protein</title>
			<polygon class="
hypothetical protein" points="10,25 23,25 23,10 53,40 23,70 23,55 10,55" fill="rgb(255,255,255)" fill-opacity="1.0" stroke="rgb(0,0,0)" stroke-width="2"  />
			<g>
				<title>FAD_binding_2 (PF00890)
"FAD binding domain"</title>
				<polygon class="PF00890" points="10,28 37,28 38,29 38,51 37,52 10,52" stroke-linejoin="round" width="28" height="24" fill="rgb(63,199,116)" stroke="rgb(50,159,92)" stroke-width="1" opacity="0.75" />
			</g>
			<g>
				<title>Succ_DH_flav_C (PF02910)
"Fumarate reductase flavoprotein C-term"</title>
				<polygon class="PF02910" points="43,34 49,40 43,46" stroke-linejoin="round" width="9" height="24" fill="rgb(140,80,199)" stroke="rgb(112,64,159)" stroke-width="1" opacity="0.75" />
			</g>
		</g>
		<g>
			<title>
hypothetical protein</title>
			<polygon class="
hypothetical protein" points="53,10 82,40 53,70" fill="rgb(255,255,255)" fill-opacity="1.0" stroke="rgb(0,0,0)" stroke-width="2"  />
			<g>
				<title>QRPTase_N (PF02749)
"Quinolinate phosphoribosyl transferase, N-terminal domain"</title>
				<rect class="PF02749" x="56" y="28" stroke-linejoin="round" width="9" height="24" fill="rgb(75,204,226)" stroke="rgb(60,163,180)" stroke-width="1" opacity="0.75" />
			</g>
			<g>
				<title>QRPTase_C (PF01729)
"Quinolinate phosphoribosyl transferase, C-terminal domain"</title>
				<polygon class="PF01729" points="66,28 66,28 78,40 66,52 66,52" stroke-linejoin="round" width="16" height="24" fill="rgb(89,196,148)" stroke="rgb(71,156,118)" stroke-width="1" opacity="0.75" />
			</g>
		</g>
		<g>
			<title>
hypothetical protein</title>
			<polygon class="
hypothetical protein" points="86,10 111,40 86,70" fill="rgb(255,255,255)" fill-opacity="1.0" stroke="rgb(0,0,0)" stroke-width="2"  />
			<g>
				<title>Pan_kinase (PF03309)
"Type III pantothenate kinase"</title>
				<polygon class="PF03309" points="86,28 97,28 106,39 106,41 97,52 86,52" stroke-linejoin="round" width="20" height="24" fill="rgb(184,180,48)" stroke="rgb(147,144,38)" stroke-width="1" opacity="0.75" />
			</g>
		</g>
		<g>
			<title>
hypothetical protein</title>
			<polygon class="
hypothetical protein" points="111,40 135,10 135,70" fill="rgb(255,255,255)" fill-opacity="1.0" stroke="rgb(0,0,0)" stroke-width="2"  />
			<g>
				<title>Methyltransf_11 (PF08241)
"Methyltransferase domain"</title>
				<polygon class="PF08241" points="122,31 125,28 130,28 130,52 125,52 122,49" stroke-linejoin="round" width="8" height="24" fill="rgb(106,219,159)" stroke="rgb(84,175,127)" stroke-width="1" opacity="0.75" />
			</g>
		</g>
		<g>
			<title>
hypothetical protein</title>
			<polygon class="
hypothetical protein" points="139,40 163,10 163,70" fill="rgb(255,255,255)" fill-opacity="1.0" stroke="rgb(0,0,0)" stroke-width="2"  />
			<g>
				<title>Methyltransf_11 (PF08241)
"Methyltransferase domain"</title>
				<polygon class="PF08241" points="150,31 153,28 159,28 159,52 153,52 150,49" stroke-linejoin="round" width="9" height="24" fill="rgb(106,219,159)" stroke="rgb(84,175,127)" stroke-width="1" opacity="0.75" />
			</g>
		</g>
		<g>
			<title>
hypothetical protein</title>
			<polygon class="
hypothetical protein" points="166,25 186,25 186,10 216,40 186,70 186,55 166,55" fill="rgb(255,255,255)" fill-opacity="1.0" stroke="rgb(0,0,0)" stroke-width="2"  />
			<g>
				<title>tRNA_anti-codon (PF01336)
"OB-fold nucleic acid binding domain"</title>
				<rect class="PF01336" x="172" y="28" stroke-linejoin="round" width="7" height="24" fill="rgb(215,103,173)" stroke="rgb(172,82,138)" stroke-width="1" opacity="0.75" />
			</g>
			<g>
				<title>tRNA-synt_2 (PF00152)
"tRNA synthetases class II (D, K and N)"</title>
				<polygon class="PF00152" points="182,28 200,28 212,40 200,52 182,52" stroke-linejoin="round" width="33" height="24" fill="rgb(90,71,190)" stroke="rgb(72,56,152)" stroke-width="1" opacity="0.75" />
			</g>
		</g>
		<g>
			<title>
hypothetical protein</title>
			<polygon class="
hypothetical protein" points="221,10 232,40 221,70" fill="rgb(255,255,255)" fill-opacity="1.0" stroke="rgb(0,0,0)" stroke-width="2"  />
			<g>
				<title>Lsr2 (PF11774)
"Lsr2"</title>
				<polygon class="PF11774" points="221,28 224,28 229,40 224,52 221,52" stroke-linejoin="round" width="11" height="24" fill="rgb(207,75,68)" stroke="rgb(165,60,54)" stroke-width="1" opacity="0.75" />
			</g>
		</g>
		<g>
			<title>
hypothetical protein</title>
			<polygon class="
hypothetical protein" points="248,25 302,25 302,10 332,40 302,70 302,55 248,55" fill="rgb(255,255,255)" fill-opacity="1.0" stroke="rgb(0,0,0)" stroke-width="2"  />
			<g>
				<title>Clp_N (PF02861)
"Clp amino terminal domain, pathogenicity island component"</title>
				<rect class="PF02861" x="249" y="28" stroke-linejoin="round" width="5" height="24" fill="rgb(97,199,190)" stroke="rgb(77,159,152)" stroke-width="1" opacity="0.75" />
			</g>
			<g>
				<title>Clp_N (PF02861)
"Clp amino terminal domain, pathogenicity island component"</title>
				<rect class="PF02861" x="257" y="28" stroke-linejoin="round" width="5" height="24" fill="rgb(97,199,190)" stroke="rgb(77,159,152)" stroke-width="1" opacity="0.75" />
			</g>
			<g>
				<title>AAA (PF00004)
"ATPase family associated with various cellular activities (AAA)"</title>
				<rect class="PF00004" x="268" y="28" stroke-linejoin="round" width="13" height="24" fill="rgb(57,194,204)" stroke="rgb(45,155,163)" stroke-width="1" opacity="0.75" />
			</g>
			<g>
				<title>AAA_lid_9 (PF17871)
"AAA lid domain"</title>
				<rect class="PF17871" x="282" y="28" stroke-linejoin="round" width="10" height="24" fill="rgb(169,81,187)" stroke="rgb(135,64,149)" stroke-width="1" opacity="0.75" />
			</g>
			<g>
				<title>AAA_2 (PF07724)
"AAA domain (Cdc48 subfamily)"</title>
				<polygon class="PF07724" points="302,28 316,28 319,31 319,49 316,52 302,52" stroke-linejoin="round" width="17" height="24" fill="rgb(132,215,72)" stroke="rgb(105,172,57)" stroke-width="1" opacity="0.75" />
			</g>
			<g>
				<title>ClpB_D2-small (PF10431)
"C-terminal, D2-small domain, of ClpB protein"</title>
				<polygon class="PF10431" points="320,32 328,40 328,40 320,48" stroke-linejoin="round" width="8" height="24" fill="rgb(190,198,67)" stroke="rgb(152,158,53)" stroke-width="1" opacity="0.75" />
			</g>
		</g>
		<g>
			<title>
hypothetical protein</title>
			<polygon class="
hypothetical protein" points="366,25 366,25 366,10 336,40 366,70 366,55 366,55" fill="rgb(255,255,255)" fill-opacity="1.0" stroke="rgb(0,0,0)" stroke-width="2"  />
			<g>
				<title>HhH-GPD (PF00730)
"HhH-GPD superfamily base excision DNA repair protein"</title>
				<polygon class="PF00730" points="349,31 352,28 362,28 362,52 352,52 349,49" stroke-linejoin="round" width="13" height="24" fill="rgb(190,78,115)" stroke="rgb(152,62,92)" stroke-width="1" opacity="0.75" />
			</g>
		</g>
		<g>
			<title>
hypothetical protein</title>
			<polygon class="
hypothetical protein" points="369,10 386,40 369,70" fill="rgb(255,255,255)" fill-opacity="1.0" stroke="rgb(0,0,0)" stroke-width="2"  />
			<g>
				<title>ACT_6 (PF13740)
"ACT domain"</title>
				<polygon class="PF13740" points="369,28 375,28 376,29 376,51 375,52 369,52" stroke-linejoin="round" width="7" height="24" fill="rgb(99,192,209)" stroke="rgb(79,153,167)" stroke-width="1" opacity="0.75" />
			</g>
			<g>
				<title>ACT_6 (PF13740)
"ACT domain"</title>
				<polygon class="PF13740" points="377,31 382,40 377,49" stroke-linejoin="round" width="7" height="24" fill="rgb(99,192,209)" stroke="rgb(79,153,167)" stroke-width="1" opacity="0.75" />
			</g>
		</g>
		<g>
			<title>
hypothetical protein</title>
			<polygon class="
hypothetical protein" points="386,10 404,40 386,70" fill="rgb(255,255,255)" fill-opacity="1.0" stroke="rgb(0,0,0)" stroke-width="2"  />
			<g>
				<title>Pep_deformylase (PF01327)
"Polypeptide deformylase"</title>
				<polygon class="PF01327" points="388,28 393,28 401,40 393,52 388,52" stroke-linejoin="round" width="15" height="24" fill="rgb(104,210,201)" stroke="rgb(83,168,160)" stroke-width="1" opacity="0.75" />
			</g>
		</g>
		<g>
			<title>
hypothetical protein</title>
			<polygon class="
hypothetical protein" points="409,10 434,40 409,70" fill="rgb(255,255,255)" fill-opacity="1.0" stroke="rgb(0,0,0)" stroke-width="2"  />
		</g>
		<g>
			<title>
hypothetical protein</title>
			<polygon class="
hypothetical protein" points="474,25 465,25 465,10 435,40 465,70 465,55 474,55" fill="rgb(255,255,255)" fill-opacity="1.0" stroke="rgb(0,0,0)" stroke-width="2"  />
			<g>
				<title>DisA-linker (PF10635)
"DisA bacterial checkpoint controller linker region"</title>
				<polygon class="PF10635" points="442,37 451,28 456,28 456,52 451,52 442,43" stroke-linejoin="round" width="14" height="24" fill="rgb(108,198,85)" stroke="rgb(86,158,68)" stroke-width="1" opacity="0.75" />
			</g>
			<g>
				<title>DAC (PF02457)
"DisA bacterial checkpoint controller nucleotide-binding"</title>
				<rect class="PF02457" x="457" y="28" stroke-linejoin="round" width="11" height="24" fill="rgb(202,89,54)" stroke="rgb(161,71,43)" stroke-width="1" opacity="0.75" />
			</g>
		</g>
		<g>
			<title>
hypothetical protein</title>
			<polygon class="
hypothetical protein" points="527,25 509,25 509,10 479,40 509,70 509,55 527,55" fill="rgb(255,255,255)" fill-opacity="1.0" stroke="rgb(0,0,0)" stroke-width="2"  />
			<g>
				<title>AAA_25 (PF13481)
"AAA domain"</title>
				<rect class="PF13481" x="503" y="28" stroke-linejoin="round" width="16" height="24" fill="rgb(81,83,185)" stroke="rgb(64,66,148)" stroke-width="1" opacity="0.75" />
			</g>
			<g>
				<title>Rubredoxin_2 (PF18073)
"Rubredoxin metal binding domain"</title>
				<rect class="PF18073" x="521" y="28" stroke-linejoin="round" width="2" height="24" fill="rgb(82,197,196)" stroke="rgb(65,157,156)" stroke-width="1" opacity="0.75" />
			</g>
		</g>
		<g>
			<title>
hypothetical protein</title>
			<polygon class="
hypothetical protein" points="531,40 557,10 557,70" fill="rgb(255,255,255)" fill-opacity="1.0" stroke="rgb(0,0,0)" stroke-width="2"  />
		</g>
		<g>
			<title>
hypothetical protein</title>
			<polygon class="
hypothetical protein" points="561,40 588,10 588,70" fill="rgb(255,255,255)" fill-opacity="1.0" stroke="rgb(0,0,0)" stroke-width="2"  />
			<g>
				<title>UbiA (PF01040)
"UbiA prenyltransferase family"</title>
				<polygon class="PF01040" points="565,40 576,28 587,28 587,52 576,52" stroke-linejoin="round" width="25" height="24" fill="rgb(189,57,100)" stroke="rgb(151,45,80)" stroke-width="1" opacity="0.75" />
			</g>
		</g>
		<g>
			<title>
hypothetical protein</title>
			<polygon class="
hypothetical protein" points="591,10 616,40 591,70" fill="rgb(255,255,255)" fill-opacity="1.0" stroke="rgb(0,0,0)" stroke-width="2"  />
			<g>
				<title>Methyltransf_11 (PF08241)
"Methyltransferase domain"</title>
				<polygon class="PF08241" points="597,28 602,28 605,32 605,48 602,52 597,52" stroke-linejoin="round" width="8" height="24" fill="rgb(106,219,159)" stroke="rgb(84,175,127)" stroke-width="1" opacity="0.75" />
			</g>
		</g>
		<g>
			<title>
hypothetical protein</title>
			<polygon class="
hypothetical protein" points="618,25 626,25 626,10 656,40 626,70 626,55 618,55" fill="rgb(255,255,255)" fill-opacity="1.0" stroke="rgb(0,0,0)" stroke-width="2"  />
			<g>
				<title>Acyl-CoA_dh_N (PF02771)
"Acyl-CoA dehydrogenase, N-terminal domain"</title>
				<rect class="PF02771" x="618" y="28" stroke-linejoin="round" width="9" height="24" fill="rgb(105,135,218)" stroke="rgb(84,108,174)" stroke-width="1" opacity="0.75" />
			</g>
			<g>
				<title>Acyl-CoA_dh_M (PF02770)
"Acyl-CoA dehydrogenase, middle domain"</title>
				<rect class="PF02770" x="630" y="28" stroke-linejoin="round" width="9" height="24" fill="rgb(225,186,97)" stroke="rgb(180,148,77)" stroke-width="1" opacity="0.75" />
			</g>
			<g>
				<title>Acyl-CoA_dh_2 (PF08028)
"Acyl-CoA dehydrogenase, C-terminal domain"</title>
				<polygon class="PF08028" points="642,30 652,40 642,50" stroke-linejoin="round" width="12" height="24" fill="rgb(106,185,56)" stroke="rgb(84,148,44)" stroke-width="1" opacity="0.75" />
			</g>
		</g>
		<g>
			<title>losA
type III polyketide synthase</title>
			<polygon class="losA
type III polyketide synthase" points="661,25 666,25 666,10 696,40 666,70 666,55 661,55" fill="rgb(255,255,255)" fill-opacity="1.0" stroke="rgb(0,0,0)" stroke-width="2"  />
			<g>
				<title>Chal_sti_synt_N (PF00195)
"Chalcone and stilbene synthases, N-terminal domain"</title>
				<polygon class="PF00195" points="661,28 679,28 681,30 681,50 679,52 661,52" stroke-linejoin="round" width="20" height="24" fill="rgb(60,181,161)" stroke="rgb(47,144,128)" stroke-width="1" opacity="0.75" />
			</g>
			<g>
				<title>Chal_sti_synt_C (PF02797)
"Chalcone and stilbene synthases, C-terminal domain"</title>
				<polygon class="PF02797" points="682,31 691,40 682,49" stroke-linejoin="round" width="13" height="24" fill="rgb(139,212,63)" stroke="rgb(111,169,50)" stroke-width="1" opacity="0.75" />
			</g>
		</g>
		<g>
			<title>
hypothetical protein</title>
			<polygon class="
hypothetical protein" points="698,10 716,40 698,70" fill="rgb(255,255,255)" fill-opacity="1.0" stroke="rgb(0,0,0)" stroke-width="2"  />
		</g>
		<g>
			<title>
hypothetical protein</title>
			<polygon class="
hypothetical protein" points="717,40 740,10 740,70" fill="rgb(255,255,255)" fill-opacity="1.0" stroke="rgb(0,0,0)" stroke-width="2"  />
		</g>
		<g>
			<title>
hypothetical protein</title>
			<polygon class="
hypothetical protein" points="751,10 767,40 751,70" fill="rgb(255,255,255)" fill-opacity="1.0" stroke="rgb(0,0,0)" stroke-width="2"  />
			<g>
				<title>CarD_CdnL_TRCF (PF02559)
"CarD-like/TRCF domain"</title>
				<polygon class="PF02559" points="751,28 757,28 761,35 761,45 757,52 751,52" stroke-linejoin="round" width="10" height="24" fill="rgb(216,93,82)" stroke="rgb(172,74,65)" stroke-width="1" opacity="0.75" />
			</g>
		</g>
		<g>
			<title>
hypothetical protein</title>
			<polygon class="
hypothetical protein" points="769,10 792,40 769,70" fill="rgb(255,255,255)" fill-opacity="1.0" stroke="rgb(0,0,0)" stroke-width="2"  />
			<g>
				<title>IspD (PF01128)
"2-C-methyl-D-erythritol 4-phosphate cytidylyltransferase"</title>
				<polygon class="PF01128" points="770,28 779,28 788,40 779,52 770,52" stroke-linejoin="round" width="21" height="24" fill="rgb(113,223,84)" stroke="rgb(90,178,67)" stroke-width="1" opacity="0.75" />
			</g>
		</g>
		<g>
			<title>
hypothetical protein</title>
			<polygon class="
hypothetical protein" points="793,10 809,40 793,70" fill="rgb(255,255,255)" fill-opacity="1.0" stroke="rgb(0,0,0)" stroke-width="2"  />
			<g>
				<title>YgbB (PF02542)
"YgbB family"</title>
				<polygon class="PF02542" points="793,28 799,28 805,40 799,52 793,52" stroke-linejoin="round" width="15" height="24" fill="rgb(183,87,193)" stroke="rgb(146,69,154)" stroke-width="1" opacity="0.75" />
			</g>
		</g>
		<g>
			<title>
hypothetical protein</title>
			<polygon class="
hypothetical protein" points="810,10 819,40 810,70" fill="rgb(255,255,255)" fill-opacity="1.0" stroke="rgb(0,0,0)" stroke-width="2"  />
			<g>
				<title>TPR_14 (PF13428)
"Tetratricopeptide repeat"</title>
				<polygon class="PF13428" points="811,28 812,28 815,37 815,43 812,52 811,52" stroke-linejoin="round" width="4" height="24" fill="rgb(192,222,86)" stroke="rgb(153,177,68)" stroke-width="1" opacity="0.75" />
			</g>
		</g>
	</g>
</svg>
