<svg version="1.1" baseProfile="full" xmlns="http://www.w3.org/2000/svg" width="284.56666666666666" height="80">
	<g>
		<line x1="10" y1="40.0" x2="274.56666666666666" y2="40.0" style="stroke:rgb(70,70,70); stroke-width:3 "/>
		<g>
			<title> (KALB_4067)
hypothetical protein</title>
			<polygon class=" (KALB_4067)
hypothetical protein" points="10,25 75,25 75,10 105,40 75,70 75,55 10,55" fill="rgb(255,255,255)" fill-opacity="1.0" stroke="rgb(0,0,0)" stroke-width="2"  />
			<g>
				<title>AAA_16 (PF13191)
"AAA ATPase domain"</title>
				<rect class="PF13191" x="12" y="28" stroke-linejoin="round" width="15" height="24" fill="rgb(186,102,77)" stroke="rgb(148,81,61)" stroke-width="1" opacity="0.75" />
			</g>
			<g>
				<title>GerE (PF00196)
"Bacterial regulatory proteins, luxR family"</title>
				<polygon class="PF00196" points="98,37 101,40 98,43" stroke-linejoin="round" width="5" height="24" fill="rgb(219,94,82)" stroke="rgb(175,75,65)" stroke-width="1" opacity="0.75" />
			</g>
		</g>
		<g>
			<title> (KALB_4068)
hypothetical protein</title>
			<polygon class=" (KALB_4068)
hypothetical protein" points="110,10 133,40 110,70" fill="rgb(255,255,255)" fill-opacity="1.0" stroke="rgb(0,0,0)" stroke-width="2"  />
			<g>
				<title>QueC (PF06508)
"Queuosine biosynthesis protein QueC"</title>
				<polygon class="PF06508" points="111,28 120,28 130,40 120,52 111,52" stroke-linejoin="round" width="20" height="24" fill="rgb(217,93,123)" stroke="rgb(173,74,98)" stroke-width="1" opacity="0.75" />
			</g>
		</g>
		<g>
			<title> (KALB_4069)
hypothetical protein</title>
			<polygon class=" (KALB_4069)
hypothetical protein" points="135,10 164,40 135,70" fill="rgb(255,255,255)" fill-opacity="1.0" stroke="rgb(0,0,0)" stroke-width="2"  />
			<g>
				<title>Methyltransf_11 (PF08241)
"Methyltransferase domain"</title>
				<polygon class="PF08241" points="142,28 148,28 151,31 151,49 148,52 142,52" stroke-linejoin="round" width="9" height="24" fill="rgb(106,219,159)" stroke="rgb(84,175,127)" stroke-width="1" opacity="0.75" />
			</g>
		</g>
		<g>
			<title> (KALB_4070)
hypothetical protein</title>
			<polygon class=" (KALB_4070)
hypothetical protein" points="178,10 190,40 178,70" fill="rgb(255,255,255)" fill-opacity="1.0" stroke="rgb(0,0,0)" stroke-width="2"  />
			<g>
				<title>PTPS (PF01242)
"6-pyruvoyl tetrahydropterin synthase"</title>
				<polygon class="PF01242" points="178,28 181,28 186,40 181,52 178,52" stroke-linejoin="round" width="11" height="24" fill="rgb(179,224,60)" stroke="rgb(143,179,48)" stroke-width="1" opacity="0.75" />
			</g>
		</g>
		<g>
			<title> (KALB_4071)
hypothetical protein</title>
			<polygon class=" (KALB_4071)
hypothetical protein" points="196,10 216,40 196,70" fill="rgb(255,255,255)" fill-opacity="1.0" stroke="rgb(0,0,0)" stroke-width="2"  />
			<g>
				<title>Radical_SAM (PF04055)
"Radical SAM superfamily"</title>
				<polygon class="PF04055" points="196,28 204,28 212,40 204,52 196,52" stroke-linejoin="round" width="17" height="24" fill="rgb(149,56,222)" stroke="rgb(119,44,177)" stroke-width="1" opacity="0.75" />
			</g>
		</g>
		<g>
			<title> (KALB_4072)
hypothetical protein</title>
			<polygon class=" (KALB_4072)
hypothetical protein" points="216,10 236,40 216,70" fill="rgb(255,255,255)" fill-opacity="1.0" stroke="rgb(0,0,0)" stroke-width="2"  />
			<g>
				<title>GTP_cyclohydroI (PF01227)
"GTP cyclohydrolase I"</title>
				<polygon class="PF01227" points="217,28 224,28 232,40 224,52 217,52" stroke-linejoin="round" width="17" height="24" fill="rgb(48,180,84)" stroke="rgb(38,144,67)" stroke-width="1" opacity="0.75" />
			</g>
		</g>
		<g>
			<title> (KALB_4073)
hypothetical protein</title>
			<polygon class=" (KALB_4073)
hypothetical protein" points="237,25 244,25 244,10 274,40 244,70 244,55 237,55" fill="rgb(255,255,255)" fill-opacity="1.0" stroke="rgb(0,0,0)" stroke-width="2"  />
			<g>
				<title>Glyco_transf_4 (PF13439)
"Glycosyltransferase Family 4"</title>
				<rect class="PF13439" x="238" y="28" stroke-linejoin="round" width="15" height="24" fill="rgb(162,57,186)" stroke="rgb(129,45,148)" stroke-width="1" opacity="0.75" />
			</g>
			<g>
				<title>Glyco_trans_1_4 (PF13692)
"Glycosyl transferases group 1"</title>
				<polygon class="PF13692" points="255,28 257,28 269,40 269,40 257,52 255,52" stroke-linejoin="round" width="14" height="24" fill="rgb(85,182,142)" stroke="rgb(68,145,113)" stroke-width="1" opacity="0.75" />
			</g>
		</g>
	</g>
</svg>
