<svg version="1.1" baseProfile="full" xmlns="http://www.w3.org/2000/svg" width="2481.8333333333335" height="80">
	<g>
		<line x1="10" y1="40.0" x2="2471.8333333333335" y2="40.0" style="stroke:rgb(70,70,70); stroke-width:3 "/>
		<g>
			<title>triB
LuxR family transcriptional regulator</title>
			<polygon class="triB
LuxR family transcriptional regulator" points="10,25 73,25 73,10 103,40 73,70 73,55 10,55" fill="rgb(255,255,255)" fill-opacity="1.0" stroke="rgb(0,0,0)" stroke-width="2"  />
			<g>
				<title>AAA_16 (PF13191)
"AAA ATPase domain"</title>
				<rect class="PF13191" x="10" y="28" stroke-linejoin="round" width="16" height="24" fill="rgb(186,102,77)" stroke="rgb(148,81,61)" stroke-width="1" opacity="0.75" />
			</g>
			<g>
				<title>GerE (PF00196)
"Bacterial regulatory proteins, luxR family"</title>
				<polygon class="PF00196" points="95,37 98,40 95,43" stroke-linejoin="round" width="5" height="24" fill="rgb(219,94,82)" stroke="rgb(175,75,65)" stroke-width="1" opacity="0.75" />
			</g>
		</g>
		<g>
			<title>triA2
type I polyketide synthase</title>
			<polygon class="triA2
type I polyketide synthase" points="455,25 135,25 135,10 105,40 135,70 135,55 455,55" fill="rgb(255,255,255)" fill-opacity="1.0" stroke="rgb(0,0,0)" stroke-width="2"  />
			<g>
				<title>PP-binding (PF00550)
"Phosphopantetheine attachment site"</title>
				<polygon class="PF00550" points="114,35 120,29 120,51 114,45" stroke-linejoin="round" width="6" height="24" fill="rgb(103,191,88)" stroke="rgb(82,152,70)" stroke-width="1" opacity="0.75" />
			</g>
			<g>
				<title>KR (PF08659)
"KR domain"</title>
				<rect class="PF08659" x="132" y="28" stroke-linejoin="round" width="17" height="24" fill="rgb(66,209,188)" stroke="rgb(52,167,150)" stroke-width="1" opacity="0.75" />
			</g>
			<g>
				<title>PS-DH (PF14765)
"Polyketide synthase dehydratase"</title>
				<rect class="PF14765" x="166" y="28" stroke-linejoin="round" width="27" height="24" fill="rgb(173,56,182)" stroke="rgb(138,44,145)" stroke-width="1" opacity="0.75" />
			</g>
			<g>
				<title>Acyl_transf_1 (PF00698)
"Acyl transferase domain"</title>
				<rect class="PF00698" x="198" y="28" stroke-linejoin="round" width="31" height="24" fill="rgb(59,176,209)" stroke="rgb(47,140,167)" stroke-width="1" opacity="0.75" />
			</g>
			<g>
				<title>KAsynt_C_assoc (PF16197)
"Ketoacyl-synthetase C-terminal extension"</title>
				<rect class="PF16197" x="233" y="28" stroke-linejoin="round" width="11" height="24" fill="rgb(240,150,172)" stroke="rgb(192,120,137)" stroke-width="1" opacity="0.75" />
			</g>
			<g>
				<title>Ketoacyl-synt_C (PF02801)
"Beta-ketoacyl synthase, C-terminal domain"</title>
				<rect class="PF02801" x="244" y="28" stroke-linejoin="round" width="11" height="24" fill="rgb(215,78,102)" stroke="rgb(172,62,81)" stroke-width="1" opacity="0.75" />
			</g>
			<g>
				<title>ketoacyl-synt (PF00109)
"Beta-ketoacyl synthase, N-terminal domain"</title>
				<rect class="PF00109" x="257" y="28" stroke-linejoin="round" width="25" height="24" fill="rgb(112,116,228)" stroke="rgb(89,92,182)" stroke-width="1" opacity="0.75" />
			</g>
			<g>
				<title>PP-binding (PF00550)
"Phosphopantetheine attachment site"</title>
				<rect class="PF00550" x="284" y="28" stroke-linejoin="round" width="6" height="24" fill="rgb(103,191,88)" stroke="rgb(82,152,70)" stroke-width="1" opacity="0.75" />
			</g>
			<g>
				<title>KR (PF08659)
"KR domain"</title>
				<rect class="PF08659" x="301" y="28" stroke-linejoin="round" width="17" height="24" fill="rgb(66,209,188)" stroke="rgb(52,167,150)" stroke-width="1" opacity="0.75" />
			</g>
			<g>
				<title>PS-DH (PF14765)
"Polyketide synthase dehydratase"</title>
				<rect class="PF14765" x="335" y="28" stroke-linejoin="round" width="27" height="24" fill="rgb(173,56,182)" stroke="rgb(138,44,145)" stroke-width="1" opacity="0.75" />
			</g>
			<g>
				<title>Acyl_transf_1 (PF00698)
"Acyl transferase domain"</title>
				<rect class="PF00698" x="367" y="28" stroke-linejoin="round" width="31" height="24" fill="rgb(59,176,209)" stroke="rgb(47,140,167)" stroke-width="1" opacity="0.75" />
			</g>
			<g>
				<title>KAsynt_C_assoc (PF16197)
"Ketoacyl-synthetase C-terminal extension"</title>
				<rect class="PF16197" x="402" y="28" stroke-linejoin="round" width="11" height="24" fill="rgb(240,150,172)" stroke="rgb(192,120,137)" stroke-width="1" opacity="0.75" />
			</g>
			<g>
				<title>Ketoacyl-synt_C (PF02801)
"Beta-ketoacyl synthase, C-terminal domain"</title>
				<rect class="PF02801" x="414" y="28" stroke-linejoin="round" width="11" height="24" fill="rgb(215,78,102)" stroke="rgb(172,62,81)" stroke-width="1" opacity="0.75" />
			</g>
			<g>
				<title>ketoacyl-synt (PF00109)
"Beta-ketoacyl synthase, N-terminal domain"</title>
				<rect class="PF00109" x="426" y="28" stroke-linejoin="round" width="25" height="24" fill="rgb(112,116,228)" stroke="rgb(89,92,182)" stroke-width="1" opacity="0.75" />
			</g>
			<g>
				<title>Docking (PF08990)
"Erythronolide synthase docking domain"</title>
				<rect class="PF08990" x="452" y="28" stroke-linejoin="round" width="2" height="24" fill="rgb(180,75,55)" stroke="rgb(144,60,44)" stroke-width="1" opacity="0.75" />
			</g>
		</g>
		<g>
			<title>triA1
type I polyketide synthase</title>
			<polygon class="triA1
type I polyketide synthase" points="817,25 489,25 489,10 459,40 489,70 489,55 817,55" fill="rgb(255,255,255)" fill-opacity="1.0" stroke="rgb(0,0,0)" stroke-width="2"  />
			<g>
				<title>PP-binding (PF00550)
"Phosphopantetheine attachment site"</title>
				<polygon class="PF00550" points="467,36 473,30 473,50 467,44" stroke-linejoin="round" width="6" height="24" fill="rgb(103,191,88)" stroke="rgb(82,152,70)" stroke-width="1" opacity="0.75" />
			</g>
			<g>
				<title>KR (PF08659)
"KR domain"</title>
				<rect class="PF08659" x="484" y="28" stroke-linejoin="round" width="17" height="24" fill="rgb(66,209,188)" stroke="rgb(52,167,150)" stroke-width="1" opacity="0.75" />
			</g>
			<g>
				<title>PS-DH (PF14765)
"Polyketide synthase dehydratase"</title>
				<rect class="PF14765" x="519" y="28" stroke-linejoin="round" width="27" height="24" fill="rgb(173,56,182)" stroke="rgb(138,44,145)" stroke-width="1" opacity="0.75" />
			</g>
			<g>
				<title>Acyl_transf_1 (PF00698)
"Acyl transferase domain"</title>
				<rect class="PF00698" x="551" y="28" stroke-linejoin="round" width="31" height="24" fill="rgb(59,176,209)" stroke="rgb(47,140,167)" stroke-width="1" opacity="0.75" />
			</g>
			<g>
				<title>KAsynt_C_assoc (PF16197)
"Ketoacyl-synthetase C-terminal extension"</title>
				<rect class="PF16197" x="586" y="28" stroke-linejoin="round" width="11" height="24" fill="rgb(240,150,172)" stroke="rgb(192,120,137)" stroke-width="1" opacity="0.75" />
			</g>
			<g>
				<title>Ketoacyl-synt_C (PF02801)
"Beta-ketoacyl synthase, C-terminal domain"</title>
				<rect class="PF02801" x="597" y="28" stroke-linejoin="round" width="11" height="24" fill="rgb(215,78,102)" stroke="rgb(172,62,81)" stroke-width="1" opacity="0.75" />
			</g>
			<g>
				<title>ketoacyl-synt (PF00109)
"Beta-ketoacyl synthase, N-terminal domain"</title>
				<rect class="PF00109" x="610" y="28" stroke-linejoin="round" width="25" height="24" fill="rgb(112,116,228)" stroke="rgb(89,92,182)" stroke-width="1" opacity="0.75" />
			</g>
			<g>
				<title>PP-binding (PF00550)
"Phosphopantetheine attachment site"</title>
				<rect class="PF00550" x="637" y="28" stroke-linejoin="round" width="6" height="24" fill="rgb(103,191,88)" stroke="rgb(82,152,70)" stroke-width="1" opacity="0.75" />
			</g>
			<g>
				<title>KR (PF08659)
"KR domain"</title>
				<rect class="PF08659" x="654" y="28" stroke-linejoin="round" width="17" height="24" fill="rgb(66,209,188)" stroke="rgb(52,167,150)" stroke-width="1" opacity="0.75" />
			</g>
			<g>
				<title>PS-DH (PF14765)
"Polyketide synthase dehydratase"</title>
				<rect class="PF14765" x="687" y="28" stroke-linejoin="round" width="27" height="24" fill="rgb(173,56,182)" stroke="rgb(138,44,145)" stroke-width="1" opacity="0.75" />
			</g>
			<g>
				<title>Acyl_transf_1 (PF00698)
"Acyl transferase domain"</title>
				<rect class="PF00698" x="719" y="28" stroke-linejoin="round" width="31" height="24" fill="rgb(59,176,209)" stroke="rgb(47,140,167)" stroke-width="1" opacity="0.75" />
			</g>
			<g>
				<title>KAsynt_C_assoc (PF16197)
"Ketoacyl-synthetase C-terminal extension"</title>
				<rect class="PF16197" x="754" y="28" stroke-linejoin="round" width="13" height="24" fill="rgb(240,150,172)" stroke="rgb(192,120,137)" stroke-width="1" opacity="0.75" />
			</g>
			<g>
				<title>Ketoacyl-synt_C (PF02801)
"Beta-ketoacyl synthase, C-terminal domain"</title>
				<rect class="PF02801" x="767" y="28" stroke-linejoin="round" width="11" height="24" fill="rgb(215,78,102)" stroke="rgb(172,62,81)" stroke-width="1" opacity="0.75" />
			</g>
			<g>
				<title>ketoacyl-synt (PF00109)
"Beta-ketoacyl synthase, N-terminal domain"</title>
				<rect class="PF00109" x="780" y="28" stroke-linejoin="round" width="25" height="24" fill="rgb(112,116,228)" stroke="rgb(89,92,182)" stroke-width="1" opacity="0.75" />
			</g>
			<g>
				<title>PP-binding (PF00550)
"Phosphopantetheine attachment site"</title>
				<rect class="PF00550" x="807" y="28" stroke-linejoin="round" width="7" height="24" fill="rgb(103,191,88)" stroke="rgb(82,152,70)" stroke-width="1" opacity="0.75" />
			</g>
		</g>
		<g>
			<title>triC
glutamate mutase E-chain</title>
			<polygon class="triC
glutamate mutase E-chain" points="863,25 850,25 850,10 820,40 850,70 850,55 863,55" fill="rgb(255,255,255)" fill-opacity="1.0" stroke="rgb(0,0,0)" stroke-width="2"  />
			<g>
				<title>Met_asp_mut_E (PF06368)
"Methylaspartate mutase E chain (MutE)"</title>
				<polygon class="PF06368" points="824,40 836,28 862,28 862,52 836,52" stroke-linejoin="round" width="39" height="24" fill="rgb(94,203,101)" stroke="rgb(75,162,80)" stroke-width="1" opacity="0.75" />
			</g>
		</g>
		<g>
			<title>triD
glutamate mutase S-chain</title>
			<polygon class="triD
glutamate mutase S-chain" points="863,40 878,10 878,70" fill="rgb(255,255,255)" fill-opacity="1.0" stroke="rgb(0,0,0)" stroke-width="2"  />
			<g>
				<title>B12-binding (PF02310)
"B12 binding domain"</title>
				<polygon class="PF02310" points="866,40 872,28 876,28 876,52 872,52" stroke-linejoin="round" width="12" height="24" fill="rgb(145,190,60)" stroke="rgb(115,152,48)" stroke-width="1" opacity="0.75" />
			</g>
		</g>
		<g>
			<title>triE
decarboxylase</title>
			<polygon class="triE
decarboxylase" points="919,25 908,25 908,10 878,40 908,70 908,55 919,55" fill="rgb(255,255,255)" fill-opacity="1.0" stroke="rgb(0,0,0)" stroke-width="2"  />
			<g>
				<title>Orn_Arg_deC_N (PF02784)
"Pyridoxal-dependent decarboxylase, pyridoxal binding domain"</title>
				<polygon class="PF02784" points="891,31 894,28 916,28 916,52 894,52 891,49" stroke-linejoin="round" width="25" height="24" fill="rgb(106,204,212)" stroke="rgb(84,163,169)" stroke-width="1" opacity="0.75" />
			</g>
		</g>
		<g>
			<title>triF
ATP-dependent ligase</title>
			<polygon class="triF
ATP-dependent ligase" points="969,25 949,25 949,10 919,40 949,70 949,55 969,55" fill="rgb(255,255,255)" fill-opacity="1.0" stroke="rgb(0,0,0)" stroke-width="2"  />
			<g>
				<title>AMP-binding (PF00501)
"AMP-binding enzyme"</title>
				<polygon class="PF00501" points="928,35 935,28 967,28 967,52 935,52 928,45" stroke-linejoin="round" width="39" height="24" fill="rgb(60,217,223)" stroke="rgb(48,173,178)" stroke-width="1" opacity="0.75" />
			</g>
		</g>
		<g>
			<title>triG
ATP-dependent ligase</title>
			<polygon class="triG
ATP-dependent ligase" points="1022,25 1000,25 1000,10 970,40 1000,70 1000,55 1022,55" fill="rgb(255,255,255)" fill-opacity="1.0" stroke="rgb(0,0,0)" stroke-width="2"  />
			<g>
				<title>AMP-binding (PF00501)
"AMP-binding enzyme"</title>
				<polygon class="PF00501" points="981,33 986,28 1021,28 1021,52 986,52 981,47" stroke-linejoin="round" width="40" height="24" fill="rgb(60,217,223)" stroke="rgb(48,173,178)" stroke-width="1" opacity="0.75" />
			</g>
		</g>
		<g>
			<title>triH
acyl carrier protein</title>
			<polygon class="triH
acyl carrier protein" points="1023,40 1031,10 1031,70" fill="rgb(255,255,255)" fill-opacity="1.0" stroke="rgb(0,0,0)" stroke-width="2"  />
			<g>
				<title>PP-binding (PF00550)
"Phosphopantetheine attachment site"</title>
				<polygon class="PF00550" points="1026,40 1029,28 1031,28 1031,52 1029,52" stroke-linejoin="round" width="7" height="24" fill="rgb(103,191,88)" stroke="rgb(82,152,70)" stroke-width="1" opacity="0.75" />
			</g>
		</g>
		<g>
			<title>triI
acyl transferase</title>
			<polygon class="triI
acyl transferase" points="1063,25 1062,25 1062,10 1032,40 1062,70 1062,55 1063,55" fill="rgb(255,255,255)" fill-opacity="1.0" stroke="rgb(0,0,0)" stroke-width="2"  />
			<g>
				<title>Acyl_transf_1 (PF00698)
"Acyl transferase domain"</title>
				<rect class="PF00698" x="1049" y="28" stroke-linejoin="round" width="13" height="24" fill="rgb(59,176,209)" stroke="rgb(47,140,167)" stroke-width="1" opacity="0.75" />
			</g>
		</g>
		<g>
			<title>triJ
peptidase</title>
			<polygon class="triJ
peptidase" points="1067,40 1096,10 1096,70" fill="rgb(255,255,255)" fill-opacity="1.0" stroke="rgb(0,0,0)" stroke-width="2"  />
			<g>
				<title>Abhydrolase_1 (PF00561)
"alpha/beta hydrolase fold"</title>
				<polygon class="PF00561" points="1071,40 1083,28 1093,28 1093,52 1083,52" stroke-linejoin="round" width="25" height="24" fill="rgb(86,180,151)" stroke="rgb(68,144,120)" stroke-width="1" opacity="0.75" />
			</g>
		</g>
		<g>
			<title>triK
cytochrome P450</title>
			<polygon class="triK
cytochrome P450" points="1133,25 1144,25 1144,10 1174,40 1144,70 1144,55 1133,55" fill="rgb(255,255,255)" fill-opacity="1.0" stroke="rgb(0,0,0)" stroke-width="2"  />
			<g>
				<title>p450 (PF00067)
"Cytochrome P450"</title>
				<polygon class="PF00067" points="1152,28 1157,28 1169,40 1157,52 1152,52" stroke-linejoin="round" width="19" height="24" fill="rgb(85,216,107)" stroke="rgb(68,172,85)" stroke-width="1" opacity="0.75" />
			</g>
		</g>
		<g>
			<title>triL
cytochrome P450</title>
			<polygon class="triL
cytochrome P450" points="1176,25 1187,25 1187,10 1217,40 1187,70 1187,55 1176,55" fill="rgb(255,255,255)" fill-opacity="1.0" stroke="rgb(0,0,0)" stroke-width="2"  />
			<g>
				<title>p450 (PF00067)
"Cytochrome P450"</title>
				<polygon class="PF00067" points="1180,28 1200,28 1212,40 1200,52 1180,52" stroke-linejoin="round" width="34" height="24" fill="rgb(85,216,107)" stroke="rgb(68,172,85)" stroke-width="1" opacity="0.75" />
			</g>
		</g>
		<g>
			<title>triM
ferredoxin</title>
			<polygon class="triM
ferredoxin" points="1219,10 1225,40 1219,70" fill="rgb(255,255,255)" fill-opacity="1.0" stroke="rgb(0,0,0)" stroke-width="2"  />
			<g>
				<title>Fer4_15 (PF13459)
"4Fe-4S single cluster domain"</title>
				<polygon class="PF13459" points="1219,28 1219,28 1222,40 1219,52 1219,52" stroke-linejoin="round" width="5" height="24" fill="rgb(138,59,179)" stroke="rgb(110,47,143)" stroke-width="1" opacity="0.75" />
			</g>
		</g>
		<g>
			<title>triN
putative oxidoreductase</title>
			<polygon class="triN
putative oxidoreductase" points="1228,40 1256,10 1256,70" fill="rgb(255,255,255)" fill-opacity="1.0" stroke="rgb(0,0,0)" stroke-width="2"  />
			<g>
				<title>adh_short (PF00106)
"short chain dehydrogenase"</title>
				<polygon class="PF00106" points="1237,35 1244,28 1256,28 1256,52 1244,52 1237,45" stroke-linejoin="round" width="19" height="24" fill="rgb(182,219,73)" stroke="rgb(145,175,58)" stroke-width="1" opacity="0.75" />
			</g>
		</g>
		<g>
			<title>triO
thioesterase</title>
			<polygon class="triO
thioesterase" points="1256,40 1281,10 1281,70" fill="rgb(255,255,255)" fill-opacity="1.0" stroke="rgb(0,0,0)" stroke-width="2"  />
			<g>
				<title>Thioesterase (PF00975)
"Thioesterase domain"</title>
				<polygon class="PF00975" points="1260,40 1270,28 1278,28 1278,52 1270,52" stroke-linejoin="round" width="22" height="24" fill="rgb(207,80,138)" stroke="rgb(165,63,110)" stroke-width="1" opacity="0.75" />
			</g>
		</g>
		<g>
			<title>triP
LuxR family transcriptional regulator</title>
			<polygon class="triP
LuxR family transcriptional regulator" points="1285,40 1306,10 1306,70" fill="rgb(255,255,255)" fill-opacity="1.0" stroke="rgb(0,0,0)" stroke-width="2"  />
			<g>
				<title>GerE (PF00196)
"Bacterial regulatory proteins, luxR family"</title>
				<polygon class="PF00196" points="1289,40 1291,37 1291,43" stroke-linejoin="round" width="6" height="24" fill="rgb(219,94,82)" stroke="rgb(175,75,65)" stroke-width="1" opacity="0.75" />
			</g>
			<g>
				<title>Response_reg (PF00072)
"Response regulator receiver domain"</title>
				<polygon class="PF00072" points="1294,33 1298,28 1305,28 1305,52 1298,52 1294,47" stroke-linejoin="round" width="11" height="24" fill="rgb(100,107,203)" stroke="rgb(80,85,162)" stroke-width="1" opacity="0.75" />
			</g>
		</g>
		<g>
			<title>triQ
histidine kinase</title>
			<polygon class="triQ
histidine kinase" points="1349,25 1335,25 1335,10 1305,40 1335,70 1335,55 1349,55" fill="rgb(255,255,255)" fill-opacity="1.0" stroke="rgb(0,0,0)" stroke-width="2"  />
			<g>
				<title>HisKA_3 (PF07730)
"Histidine kinase"</title>
				<polygon class="PF07730" points="1318,31 1321,28 1324,28 1324,52 1321,52 1318,49" stroke-linejoin="round" width="6" height="24" fill="rgb(190,53,146)" stroke="rgb(152,42,116)" stroke-width="1" opacity="0.75" />
			</g>
			<g>
				<title>Sensor (PF13796)
"Putative sensor"</title>
				<rect class="PF13796" x="1327" y="28" stroke-linejoin="round" width="18" height="24" fill="rgb(58,158,187)" stroke="rgb(46,126,149)" stroke-width="1" opacity="0.75" />
			</g>
		</g>
		<g>
			<title>triR
ABC transporter permease</title>
			<polygon class="triR
ABC transporter permease" points="1435,25 1382,25 1382,10 1352,40 1382,70 1382,55 1435,55" fill="rgb(255,255,255)" fill-opacity="1.0" stroke="rgb(0,0,0)" stroke-width="2"  />
			<g>
				<title>FtsX (PF02687)
"FtsX-like permease family"</title>
				<polygon class="PF02687" points="1356,40 1363,33 1363,47" stroke-linejoin="round" width="11" height="24" fill="rgb(126,55,214)" stroke="rgb(100,44,171)" stroke-width="1" opacity="0.75" />
			</g>
			<g>
				<title>FtsX (PF02687)
"FtsX-like permease family"</title>
				<rect class="PF02687" x="1397" y="28" stroke-linejoin="round" width="12" height="24" fill="rgb(126,55,214)" stroke="rgb(100,44,171)" stroke-width="1" opacity="0.75" />
			</g>
		</g>
		<g>
			<title>triS
ABC transporter</title>
			<polygon class="triS
ABC transporter" points="1435,40 1461,10 1461,70" fill="rgb(255,255,255)" fill-opacity="1.0" stroke="rgb(0,0,0)" stroke-width="2"  />
			<g>
				<title>ABC_tran (PF00005)
"ABC transporter"</title>
				<polygon class="PF00005" points="1443,36 1450,28 1457,28 1457,52 1450,52 1443,44" stroke-linejoin="round" width="14" height="24" fill="rgb(129,201,63)" stroke="rgb(103,160,50)" stroke-width="1" opacity="0.75" />
			</g>
		</g>
		<g>
			<title>triT
hypothetical protein</title>
			<polygon class="triT
hypothetical protein" points="1472,10 1480,40 1472,70" fill="rgb(255,255,255)" fill-opacity="1.0" stroke="rgb(0,0,0)" stroke-width="2"  />
		</g>
		<g>
			<title>triA6
type I polyketide synthase</title>
			<polygon class="triA6
type I polyketide synthase" points="1610,25 1512,25 1512,10 1482,40 1512,70 1512,55 1610,55" fill="rgb(255,255,255)" fill-opacity="1.0" stroke="rgb(0,0,0)" stroke-width="2"  />
			<g>
				<title>Thioesterase (PF00975)
"Thioesterase domain"</title>
				<polygon class="PF00975" points="1486,40 1498,28 1504,28 1504,52 1498,52" stroke-linejoin="round" width="21" height="24" fill="rgb(207,80,138)" stroke="rgb(165,63,110)" stroke-width="1" opacity="0.75" />
			</g>
			<g>
				<title>PP-binding (PF00550)
"Phosphopantetheine attachment site"</title>
				<rect class="PF00550" x="1511" y="28" stroke-linejoin="round" width="6" height="24" fill="rgb(103,191,88)" stroke="rgb(82,152,70)" stroke-width="1" opacity="0.75" />
			</g>
			<g>
				<title>Acyl_transf_1 (PF00698)
"Acyl transferase domain"</title>
				<rect class="PF00698" x="1525" y="28" stroke-linejoin="round" width="30" height="24" fill="rgb(59,176,209)" stroke="rgb(47,140,167)" stroke-width="1" opacity="0.75" />
			</g>
			<g>
				<title>KAsynt_C_assoc (PF16197)
"Ketoacyl-synthetase C-terminal extension"</title>
				<rect class="PF16197" x="1559" y="28" stroke-linejoin="round" width="11" height="24" fill="rgb(240,150,172)" stroke="rgb(192,120,137)" stroke-width="1" opacity="0.75" />
			</g>
			<g>
				<title>Ketoacyl-synt_C (PF02801)
"Beta-ketoacyl synthase, C-terminal domain"</title>
				<rect class="PF02801" x="1570" y="28" stroke-linejoin="round" width="11" height="24" fill="rgb(215,78,102)" stroke="rgb(172,62,81)" stroke-width="1" opacity="0.75" />
			</g>
			<g>
				<title>ketoacyl-synt (PF00109)
"Beta-ketoacyl synthase, N-terminal domain"</title>
				<rect class="PF00109" x="1583" y="28" stroke-linejoin="round" width="23" height="24" fill="rgb(112,116,228)" stroke="rgb(89,92,182)" stroke-width="1" opacity="0.75" />
			</g>
			<g>
				<title>Docking (PF08990)
"Erythronolide synthase docking domain"</title>
				<rect class="PF08990" x="1607" y="28" stroke-linejoin="round" width="2" height="24" fill="rgb(180,75,55)" stroke="rgb(144,60,44)" stroke-width="1" opacity="0.75" />
			</g>
		</g>
		<g>
			<title>triA5
type I polyketide synthase</title>
			<polygon class="triA5
type I polyketide synthase" points="2127,25 1644,25 1644,10 1614,40 1644,70 1644,55 2127,55" fill="rgb(255,255,255)" fill-opacity="1.0" stroke="rgb(0,0,0)" stroke-width="2"  />
			<g>
				<title>PP-binding (PF00550)
"Phosphopantetheine attachment site"</title>
				<polygon class="PF00550" points="1622,36 1628,30 1628,50 1622,44" stroke-linejoin="round" width="6" height="24" fill="rgb(103,191,88)" stroke="rgb(82,152,70)" stroke-width="1" opacity="0.75" />
			</g>
			<g>
				<title>KR (PF08659)
"KR domain"</title>
				<rect class="PF08659" x="1639" y="28" stroke-linejoin="round" width="17" height="24" fill="rgb(66,209,188)" stroke="rgb(52,167,150)" stroke-width="1" opacity="0.75" />
			</g>
			<g>
				<title>PS-DH (PF14765)
"Polyketide synthase dehydratase"</title>
				<rect class="PF14765" x="1676" y="28" stroke-linejoin="round" width="26" height="24" fill="rgb(173,56,182)" stroke="rgb(138,44,145)" stroke-width="1" opacity="0.75" />
			</g>
			<g>
				<title>Acyl_transf_1 (PF00698)
"Acyl transferase domain"</title>
				<rect class="PF00698" x="1706" y="28" stroke-linejoin="round" width="30" height="24" fill="rgb(59,176,209)" stroke="rgb(47,140,167)" stroke-width="1" opacity="0.75" />
			</g>
			<g>
				<title>KAsynt_C_assoc (PF16197)
"Ketoacyl-synthetase C-terminal extension"</title>
				<rect class="PF16197" x="1741" y="28" stroke-linejoin="round" width="11" height="24" fill="rgb(240,150,172)" stroke="rgb(192,120,137)" stroke-width="1" opacity="0.75" />
			</g>
			<g>
				<title>Ketoacyl-synt_C (PF02801)
"Beta-ketoacyl synthase, C-terminal domain"</title>
				<rect class="PF02801" x="1753" y="28" stroke-linejoin="round" width="11" height="24" fill="rgb(215,78,102)" stroke="rgb(172,62,81)" stroke-width="1" opacity="0.75" />
			</g>
			<g>
				<title>ketoacyl-synt (PF00109)
"Beta-ketoacyl synthase, N-terminal domain"</title>
				<rect class="PF00109" x="1765" y="28" stroke-linejoin="round" width="23" height="24" fill="rgb(112,116,228)" stroke="rgb(89,92,182)" stroke-width="1" opacity="0.75" />
			</g>
			<g>
				<title>PP-binding (PF00550)
"Phosphopantetheine attachment site"</title>
				<rect class="PF00550" x="1791" y="28" stroke-linejoin="round" width="6" height="24" fill="rgb(103,191,88)" stroke="rgb(82,152,70)" stroke-width="1" opacity="0.75" />
			</g>
			<g>
				<title>KR (PF08659)
"KR domain"</title>
				<rect class="PF08659" x="1809" y="28" stroke-linejoin="round" width="17" height="24" fill="rgb(66,209,188)" stroke="rgb(52,167,150)" stroke-width="1" opacity="0.75" />
			</g>
			<g>
				<title>PS-DH (PF14765)
"Polyketide synthase dehydratase"</title>
				<rect class="PF14765" x="1841" y="28" stroke-linejoin="round" width="27" height="24" fill="rgb(173,56,182)" stroke="rgb(138,44,145)" stroke-width="1" opacity="0.75" />
			</g>
			<g>
				<title>Acyl_transf_1 (PF00698)
"Acyl transferase domain"</title>
				<rect class="PF00698" x="1873" y="28" stroke-linejoin="round" width="31" height="24" fill="rgb(59,176,209)" stroke="rgb(47,140,167)" stroke-width="1" opacity="0.75" />
			</g>
			<g>
				<title>KAsynt_C_assoc (PF16197)
"Ketoacyl-synthetase C-terminal extension"</title>
				<rect class="PF16197" x="1908" y="28" stroke-linejoin="round" width="11" height="24" fill="rgb(240,150,172)" stroke="rgb(192,120,137)" stroke-width="1" opacity="0.75" />
			</g>
			<g>
				<title>Ketoacyl-synt_C (PF02801)
"Beta-ketoacyl synthase, C-terminal domain"</title>
				<rect class="PF02801" x="1920" y="28" stroke-linejoin="round" width="11" height="24" fill="rgb(215,78,102)" stroke="rgb(172,62,81)" stroke-width="1" opacity="0.75" />
			</g>
			<g>
				<title>ketoacyl-synt (PF00109)
"Beta-ketoacyl synthase, N-terminal domain"</title>
				<rect class="PF00109" x="1932" y="28" stroke-linejoin="round" width="23" height="24" fill="rgb(112,116,228)" stroke="rgb(89,92,182)" stroke-width="1" opacity="0.75" />
			</g>
			<g>
				<title>PP-binding (PF00550)
"Phosphopantetheine attachment site"</title>
				<rect class="PF00550" x="1958" y="28" stroke-linejoin="round" width="6" height="24" fill="rgb(103,191,88)" stroke="rgb(82,152,70)" stroke-width="1" opacity="0.75" />
			</g>
			<g>
				<title>KR (PF08659)
"KR domain"</title>
				<rect class="PF08659" x="1975" y="28" stroke-linejoin="round" width="17" height="24" fill="rgb(66,209,188)" stroke="rgb(52,167,150)" stroke-width="1" opacity="0.75" />
			</g>
			<g>
				<title>PS-DH (PF14765)
"Polyketide synthase dehydratase"</title>
				<rect class="PF14765" x="2008" y="28" stroke-linejoin="round" width="27" height="24" fill="rgb(173,56,182)" stroke="rgb(138,44,145)" stroke-width="1" opacity="0.75" />
			</g>
			<g>
				<title>Acyl_transf_1 (PF00698)
"Acyl transferase domain"</title>
				<rect class="PF00698" x="2040" y="28" stroke-linejoin="round" width="31" height="24" fill="rgb(59,176,209)" stroke="rgb(47,140,167)" stroke-width="1" opacity="0.75" />
			</g>
			<g>
				<title>KAsynt_C_assoc (PF16197)
"Ketoacyl-synthetase C-terminal extension"</title>
				<rect class="PF16197" x="2074" y="28" stroke-linejoin="round" width="11" height="24" fill="rgb(240,150,172)" stroke="rgb(192,120,137)" stroke-width="1" opacity="0.75" />
			</g>
			<g>
				<title>Ketoacyl-synt_C (PF02801)
"Beta-ketoacyl synthase, C-terminal domain"</title>
				<rect class="PF02801" x="2086" y="28" stroke-linejoin="round" width="11" height="24" fill="rgb(215,78,102)" stroke="rgb(172,62,81)" stroke-width="1" opacity="0.75" />
			</g>
			<g>
				<title>ketoacyl-synt (PF00109)
"Beta-ketoacyl synthase, N-terminal domain"</title>
				<rect class="PF00109" x="2099" y="28" stroke-linejoin="round" width="25" height="24" fill="rgb(112,116,228)" stroke="rgb(89,92,182)" stroke-width="1" opacity="0.75" />
			</g>
			<g>
				<title>Docking (PF08990)
"Erythronolide synthase docking domain"</title>
				<rect class="PF08990" x="2124" y="28" stroke-linejoin="round" width="2" height="24" fill="rgb(180,75,55)" stroke="rgb(144,60,44)" stroke-width="1" opacity="0.75" />
			</g>
		</g>
		<g>
			<title>triA4
type I polyketide synthase</title>
			<polygon class="triA4
type I polyketide synthase" points="2288,25 2160,25 2160,10 2130,40 2160,70 2160,55 2288,55" fill="rgb(255,255,255)" fill-opacity="1.0" stroke="rgb(0,0,0)" stroke-width="2"  />
			<g>
				<title>PP-binding (PF00550)
"Phosphopantetheine attachment site"</title>
				<polygon class="PF00550" points="2138,36 2144,30 2144,50 2138,44" stroke-linejoin="round" width="6" height="24" fill="rgb(103,191,88)" stroke="rgb(82,152,70)" stroke-width="1" opacity="0.75" />
			</g>
			<g>
				<title>KR (PF08659)
"KR domain"</title>
				<rect class="PF08659" x="2155" y="28" stroke-linejoin="round" width="17" height="24" fill="rgb(66,209,188)" stroke="rgb(52,167,150)" stroke-width="1" opacity="0.75" />
			</g>
			<g>
				<title>PKS_DE (PF18369)
"Polyketide synthase dimerisation element domain"</title>
				<rect class="PF18369" x="2194" y="28" stroke-linejoin="round" width="4" height="24" fill="rgb(192,179,67)" stroke="rgb(153,143,53)" stroke-width="1" opacity="0.75" />
			</g>
			<g>
				<title>Acyl_transf_1 (PF00698)
"Acyl transferase domain"</title>
				<rect class="PF00698" x="2203" y="28" stroke-linejoin="round" width="30" height="24" fill="rgb(59,176,209)" stroke="rgb(47,140,167)" stroke-width="1" opacity="0.75" />
			</g>
			<g>
				<title>KAsynt_C_assoc (PF16197)
"Ketoacyl-synthetase C-terminal extension"</title>
				<rect class="PF16197" x="2236" y="28" stroke-linejoin="round" width="11" height="24" fill="rgb(240,150,172)" stroke="rgb(192,120,137)" stroke-width="1" opacity="0.75" />
			</g>
			<g>
				<title>Ketoacyl-synt_C (PF02801)
"Beta-ketoacyl synthase, C-terminal domain"</title>
				<rect class="PF02801" x="2248" y="28" stroke-linejoin="round" width="11" height="24" fill="rgb(215,78,102)" stroke="rgb(172,62,81)" stroke-width="1" opacity="0.75" />
			</g>
			<g>
				<title>ketoacyl-synt (PF00109)
"Beta-ketoacyl synthase, N-terminal domain"</title>
				<rect class="PF00109" x="2261" y="28" stroke-linejoin="round" width="23" height="24" fill="rgb(112,116,228)" stroke="rgb(89,92,182)" stroke-width="1" opacity="0.75" />
			</g>
			<g>
				<title>Docking (PF08990)
"Erythronolide synthase docking domain"</title>
				<rect class="PF08990" x="2285" y="28" stroke-linejoin="round" width="2" height="24" fill="rgb(180,75,55)" stroke="rgb(144,60,44)" stroke-width="1" opacity="0.75" />
			</g>
		</g>
		<g>
			<title>triA3
type I polyketide synthase</title>
			<polygon class="triA3
type I polyketide synthase" points="2471,25 2318,25 2318,10 2288,40 2318,70 2318,55 2471,55" fill="rgb(255,255,255)" fill-opacity="1.0" stroke="rgb(0,0,0)" stroke-width="2"  />
			<g>
				<title>Erythro-docking (PF09277)
"Erythronolide synthase, docking"</title>
				<polygon class="PF09277" points="2292,40 2295,37 2295,43" stroke-linejoin="round" width="5" height="24" fill="rgb(69,149,215)" stroke="rgb(55,119,172)" stroke-width="1" opacity="0.75" />
			</g>
			<g>
				<title>PP-binding (PF00550)
"Phosphopantetheine attachment site"</title>
				<polygon class="PF00550" points="2296,36 2302,30 2302,50 2296,44" stroke-linejoin="round" width="6" height="24" fill="rgb(103,191,88)" stroke="rgb(82,152,70)" stroke-width="1" opacity="0.75" />
			</g>
			<g>
				<title>KR (PF08659)
"KR domain"</title>
				<rect class="PF08659" x="2313" y="28" stroke-linejoin="round" width="17" height="24" fill="rgb(66,209,188)" stroke="rgb(52,167,150)" stroke-width="1" opacity="0.75" />
			</g>
			<g>
				<title>PS-DH (PF14765)
"Polyketide synthase dehydratase"</title>
				<rect class="PF14765" x="2351" y="28" stroke-linejoin="round" width="27" height="24" fill="rgb(173,56,182)" stroke="rgb(138,44,145)" stroke-width="1" opacity="0.75" />
			</g>
			<g>
				<title>Acyl_transf_1 (PF00698)
"Acyl transferase domain"</title>
				<rect class="PF00698" x="2383" y="28" stroke-linejoin="round" width="30" height="24" fill="rgb(59,176,209)" stroke="rgb(47,140,167)" stroke-width="1" opacity="0.75" />
			</g>
			<g>
				<title>KAsynt_C_assoc (PF16197)
"Ketoacyl-synthetase C-terminal extension"</title>
				<rect class="PF16197" x="2417" y="28" stroke-linejoin="round" width="13" height="24" fill="rgb(240,150,172)" stroke="rgb(192,120,137)" stroke-width="1" opacity="0.75" />
			</g>
			<g>
				<title>Ketoacyl-synt_C (PF02801)
"Beta-ketoacyl synthase, C-terminal domain"</title>
				<rect class="PF02801" x="2430" y="28" stroke-linejoin="round" width="11" height="24" fill="rgb(215,78,102)" stroke="rgb(172,62,81)" stroke-width="1" opacity="0.75" />
			</g>
			<g>
				<title>ketoacyl-synt (PF00109)
"Beta-ketoacyl synthase, N-terminal domain"</title>
				<rect class="PF00109" x="2443" y="28" stroke-linejoin="round" width="25" height="24" fill="rgb(112,116,228)" stroke="rgb(89,92,182)" stroke-width="1" opacity="0.75" />
			</g>
			<g>
				<title>Docking (PF08990)
"Erythronolide synthase docking domain"</title>
				<rect class="PF08990" x="2468" y="28" stroke-linejoin="round" width="2" height="24" fill="rgb(180,75,55)" stroke="rgb(144,60,44)" stroke-width="1" opacity="0.75" />
			</g>
		</g>
	</g>
</svg>
