<svg version="1.1" baseProfile="full" xmlns="http://www.w3.org/2000/svg" width="635.8666666666667" height="80">
	<g>
		<line x1="10" y1="40.0" x2="625.8666666666667" y2="40.0" style="stroke:rgb(70,70,70); stroke-width:3 "/>
		<g>
			<title>
nitrate reductase subunit alpha</title>
			<polygon class="
nitrate reductase subunit alpha" points="10,25 104,25 104,10 134,40 104,70 104,55 10,55" fill="rgb(255,255,255)" fill-opacity="1.0" stroke="rgb(0,0,0)" stroke-width="2"  />
			<g>
				<title>Molybdopterin (PF00384)
"Molybdopterin oxidoreductase"</title>
				<rect class="PF00384" x="22" y="28" stroke-linejoin="round" width="72" height="24" fill="rgb(65,194,78)" stroke="rgb(52,155,62)" stroke-width="1" opacity="0.75" />
			</g>
			<g>
				<title>Molydop_binding (PF01568)
"Molydopterin dinucleotide binding domain"</title>
				<polygon class="PF01568" points="120,30 130,40 120,50" stroke-linejoin="round" width="11" height="24" fill="rgb(184,132,64)" stroke="rgb(147,105,51)" stroke-width="1" opacity="0.75" />
			</g>
		</g>
		<g>
			<title>
nitrate reductase subunit beta</title>
			<polygon class="
nitrate reductase subunit beta" points="139,25 166,25 166,10 196,40 166,70 166,55 139,55" fill="rgb(255,255,255)" fill-opacity="1.0" stroke="rgb(0,0,0)" stroke-width="2"  />
			<g>
				<title>Fer4_11 (PF13247)
"4Fe-4S dicluster domain"</title>
				<rect class="PF13247" x="157" y="28" stroke-linejoin="round" width="9" height="24" fill="rgb(61,193,49)" stroke="rgb(48,154,39)" stroke-width="1" opacity="0.75" />
			</g>
			<g>
				<title>Nitr_red_bet_C (PF14711)
"Respiratory nitrate reductase beta C-terminal"</title>
				<polygon class="PF14711" points="175,28 180,28 183,31 183,49 180,52 175,52" stroke-linejoin="round" width="8" height="24" fill="rgb(203,122,62)" stroke="rgb(162,97,49)" stroke-width="1" opacity="0.75" />
			</g>
		</g>
		<g>
			<title>
nitrate reductase delta subunit</title>
			<polygon class="
nitrate reductase delta subunit" points="204,10 220,40 204,70" fill="rgb(255,255,255)" fill-opacity="1.0" stroke="rgb(0,0,0)" stroke-width="2"  />
			<g>
				<title>Nitrate_red_del (PF02613)
"Nitrate reductase delta subunit"</title>
				<polygon class="PF02613" points="204,28 210,28 214,36 214,44 210,52 204,52" stroke-linejoin="round" width="10" height="24" fill="rgb(193,50,184)" stroke="rgb(154,39,147)" stroke-width="1" opacity="0.75" />
			</g>
		</g>
		<g>
			<title>
respiratory nitrate reductase subunit gamma</title>
			<polygon class="
respiratory nitrate reductase subunit gamma" points="220,10 244,40 220,70" fill="rgb(255,255,255)" fill-opacity="1.0" stroke="rgb(0,0,0)" stroke-width="2"  />
			<g>
				<title>Nitrate_red_gam (PF02665)
"Nitrate reductase gamma subunit"</title>
				<polygon class="PF02665" points="220,28 231,28 240,40 231,52 220,52" stroke-linejoin="round" width="22" height="24" fill="rgb(227,87,116)" stroke="rgb(181,69,92)" stroke-width="1" opacity="0.75" />
			</g>
		</g>
		<g>
			<title>
FAD dependent oxidoreductase</title>
			<polygon class="
FAD dependent oxidoreductase" points="251,25 272,25 272,10 302,40 272,70 272,55 251,55" fill="rgb(255,255,255)" fill-opacity="1.0" stroke="rgb(0,0,0)" stroke-width="2"  />
			<g>
				<title>NAD_binding_8 (PF13450)
"NAD(P)-binding Rossmann-like domain"</title>
				<rect class="PF13450" x="254" y="28" stroke-linejoin="round" width="6" height="24" fill="rgb(91,180,227)" stroke="rgb(72,144,181)" stroke-width="1" opacity="0.75" />
			</g>
		</g>
		<g>
			<title>
beta-lactamase</title>
			<polygon class="
beta-lactamase" points="368,25 334,25 334,10 304,40 334,70 334,55 368,55" fill="rgb(255,255,255)" fill-opacity="1.0" stroke="rgb(0,0,0)" stroke-width="2"  />
			<g>
				<title>Beta-lactamase (PF00144)
"Beta-lactamase"</title>
				<rect class="PF00144" x="329" y="28" stroke-linejoin="round" width="32" height="24" fill="rgb(92,159,200)" stroke="rgb(73,127,160)" stroke-width="1" opacity="0.75" />
			</g>
		</g>
		<g>
			<title>
TetR family transcriptional regulator</title>
			<polygon class="
TetR family transcriptional regulator" points="371,10 394,40 371,70" fill="rgb(255,255,255)" fill-opacity="1.0" stroke="rgb(0,0,0)" stroke-width="2"  />
			<g>
				<title>TetR_N (PF00440)
"Bacterial regulatory proteins, tetR family"</title>
				<rect class="PF00440" x="372" y="28" stroke-linejoin="round" width="4" height="24" fill="rgb(73,212,190)" stroke="rgb(58,169,152)" stroke-width="1" opacity="0.75" />
			</g>
			<g>
				<title>TetR_C_6 (PF13977)
"BetI-type transcriptional repressor, C-terminal"</title>
				<polygon class="PF13977" points="379,28 381,28 387,36 387,44 381,52 379,52" stroke-linejoin="round" width="8" height="24" fill="rgb(99,210,174)" stroke="rgb(79,168,139)" stroke-width="1" opacity="0.75" />
			</g>
		</g>
		<g>
			<title>
fatty acid CoA ligase</title>
			<polygon class="
fatty acid CoA ligase" points="406,25 425,25 425,10 455,40 425,70 425,55 406,55" fill="rgb(255,255,255)" fill-opacity="1.0" stroke="rgb(0,0,0)" stroke-width="2"  />
			<g>
				<title>AMP-binding (PF00501)
"AMP-binding enzyme"</title>
				<polygon class="PF00501" points="406,28 439,28 445,34 445,46 439,52 406,52" stroke-linejoin="round" width="39" height="24" fill="rgb(60,217,223)" stroke="rgb(48,173,178)" stroke-width="1" opacity="0.75" />
			</g>
			<g>
				<title>AMP-binding_C (PF13193)
"AMP-binding enzyme C-terminal domain"</title>
				<polygon class="PF13193" points="446,35 451,40 446,45" stroke-linejoin="round" width="7" height="24" fill="rgb(182,50,118)" stroke="rgb(145,39,94)" stroke-width="1" opacity="0.75" />
			</g>
		</g>
		<g>
			<title>
cucumopine synthase</title>
			<polygon class="
cucumopine synthase" points="458,25 459,25 459,10 489,40 459,70 459,55 458,55" fill="rgb(255,255,255)" fill-opacity="1.0" stroke="rgb(0,0,0)" stroke-width="2"  />
			<g>
				<title>Cucumopine_C (PF18631)
"Cucumopine synthase C-terminal helical bundle domain"</title>
				<polygon class="PF18631" points="474,29 485,40 474,51" stroke-linejoin="round" width="14" height="24" fill="rgb(66,72,227)" stroke="rgb(52,57,181)" stroke-width="1" opacity="0.75" />
			</g>
		</g>
		<g>
			<title>
glutamate decarboxylase</title>
			<polygon class="
glutamate decarboxylase" points="492,25 517,25 517,10 547,40 517,70 517,55 492,55" fill="rgb(255,255,255)" fill-opacity="1.0" stroke="rgb(0,0,0)" stroke-width="2"  />
		</g>
		<g>
			<title>
NAD(P)H azoreductase</title>
			<polygon class="
NAD(P)H azoreductase" points="555,40 584,10 584,70" fill="rgb(255,255,255)" fill-opacity="1.0" stroke="rgb(0,0,0)" stroke-width="2"  />
			<g>
				<title>NmrA (PF05368)
"NmrA-like family"</title>
				<polygon class="PF05368" points="561,38 571,28 582,28 582,52 571,52 561,42" stroke-linejoin="round" width="21" height="24" fill="rgb(97,49,192)" stroke="rgb(77,39,153)" stroke-width="1" opacity="0.75" />
			</g>
		</g>
		<g>
			<title>
putative drug resistance transporter</title>
			<polygon class="
putative drug resistance transporter" points="584,40 605,10 605,70" fill="rgb(255,255,255)" fill-opacity="1.0" stroke="rgb(0,0,0)" stroke-width="2"  />
		</g>
		<g>
			<title>
TetR family transcriptional regulator</title>
			<polygon class="
TetR family transcriptional regulator" points="607,40 625,10 625,70" fill="rgb(255,255,255)" fill-opacity="1.0" stroke="rgb(0,0,0)" stroke-width="2"  />
			<g>
				<title>TetR_N (PF00440)
"Bacterial regulatory proteins, tetR family"</title>
				<polygon class="PF00440" points="618,29 618,28 622,28 622,52 618,52 618,51" stroke-linejoin="round" width="4" height="24" fill="rgb(73,212,190)" stroke="rgb(58,169,152)" stroke-width="1" opacity="0.75" />
			</g>
		</g>
	</g>
</svg>
