<svg version="1.1" baseProfile="full" xmlns="http://www.w3.org/2000/svg" width="2312.1666666666665" height="80">
	<g>
		<line x1="10" y1="40.0" x2="2302.1666666666665" y2="40.0" style="stroke:rgb(70,70,70); stroke-width:3 "/>
		<g>
			<title> (FRY77_09780)
DUF1513 domain-containing protein</title>
			<polygon class=" (FRY77_09780)
DUF1513 domain-containing protein" points="10,25 16,25 16,10 46,40 16,70 16,55 10,55" fill="rgb(255,255,255)" fill-opacity="1.0" stroke="rgb(0,0,0)" stroke-width="2"  />
			<g>
				<title>DUF1513 (PF07433)
"Protein of unknown function (DUF1513)"</title>
				<polygon class="PF07433" points="16,28 30,28 42,40 30,52 16,52" stroke-linejoin="round" width="30" height="24" fill="rgb(87,109,181)" stroke="rgb(69,87,144)" stroke-width="1" opacity="0.75" />
			</g>
		</g>
		<g>
			<title> (FRY77_09785)
multidrug ABC transporter permease/ATP-binding protein</title>
			<polygon class=" (FRY77_09785)
multidrug ABC transporter permease/ATP-binding protein" points="52,25 77,25 77,10 107,40 77,70 77,55 52,55" fill="rgb(255,255,255)" fill-opacity="1.0" stroke="rgb(0,0,0)" stroke-width="2"  />
			<g>
				<title>ABC_membrane (PF00664)
"ABC transporter transmembrane region"</title>
				<rect class="PF00664" x="53" y="28" stroke-linejoin="round" width="26" height="24" fill="rgb(149,226,73)" stroke="rgb(119,180,58)" stroke-width="1" opacity="0.75" />
			</g>
			<g>
				<title>ABC_tran (PF00005)
"ABC transporter"</title>
				<polygon class="PF00005" points="86,28 90,28 99,37 99,43 90,52 86,52" stroke-linejoin="round" width="13" height="24" fill="rgb(129,201,63)" stroke="rgb(103,160,50)" stroke-width="1" opacity="0.75" />
			</g>
		</g>
		<g>
			<title>fhuF (FRY77_09790)
siderophore-iron reductase FhuF</title>
			<polygon class="fhuF (FRY77_09790)
siderophore-iron reductase FhuF" points="108,40 134,10 134,70" fill="rgb(255,255,255)" fill-opacity="1.0" stroke="rgb(0,0,0)" stroke-width="2"  />
			<g>
				<title>FhuF_C (PF11575)
"FhuF 2Fe-2S C-terminal domain"</title>
				<polygon class="PF11575" points="112,40 111,41 111,39" stroke-linejoin="round" width="2" height="24" fill="rgb(216,71,91)" stroke="rgb(172,56,72)" stroke-width="1" opacity="0.75" />
			</g>
			<g>
				<title>FhuF (PF06276)
"Ferric iron reductase FhuF-like transporter"</title>
				<polygon class="PF06276" points="112,40 123,28 126,28 126,52 123,52 112,40" stroke-linejoin="round" width="14" height="24" fill="rgb(76,151,221)" stroke="rgb(60,120,176)" stroke-width="1" opacity="0.75" />
			</g>
		</g>
		<g>
			<title> (FRY77_09795)
ATP-binding cassette domain-containing protein</title>
			<polygon class=" (FRY77_09795)
ATP-binding cassette domain-containing protein" points="139,40 164,10 164,70" fill="rgb(255,255,255)" fill-opacity="1.0" stroke="rgb(0,0,0)" stroke-width="2"  />
			<g>
				<title>ABC_tran (PF00005)
"ABC transporter"</title>
				<polygon class="PF00005" points="148,34 153,28 162,28 162,52 153,52 148,46" stroke-linejoin="round" width="14" height="24" fill="rgb(129,201,63)" stroke="rgb(103,160,50)" stroke-width="1" opacity="0.75" />
			</g>
		</g>
		<g>
			<title> (FRY77_09800)
inositol monophosphatase</title>
			<polygon class=" (FRY77_09800)
inositol monophosphatase" points="171,40 197,10 197,70" fill="rgb(255,255,255)" fill-opacity="1.0" stroke="rgb(0,0,0)" stroke-width="2"  />
			<g>
				<title>Inositol_P (PF00459)
"Inositol monophosphatase family"</title>
				<polygon class="PF00459" points="175,40 186,28 197,28 197,52 186,52" stroke-linejoin="round" width="26" height="24" fill="rgb(67,210,137)" stroke="rgb(53,168,109)" stroke-width="1" opacity="0.75" />
			</g>
		</g>
		<g>
			<title> (FRY77_09805)
AAA family ATPase</title>
			<polygon class=" (FRY77_09805)
AAA family ATPase" points="253,25 231,25 231,10 201,40 231,70 231,55 253,55" fill="rgb(255,255,255)" fill-opacity="1.0" stroke="rgb(0,0,0)" stroke-width="2"  />
			<g>
				<title>PDDEXK_9 (PF08011)
"PD-(D/E)XK nuclease superfamily"</title>
				<polygon class="PF08011" points="205,40 210,35 210,45" stroke-linejoin="round" width="9" height="24" fill="rgb(188,166,63)" stroke="rgb(150,132,50)" stroke-width="1" opacity="0.75" />
			</g>
			<g>
				<title>AAA-ATPase_like (PF09820)
"Predicted AAA-ATPase"</title>
				<rect class="PF09820" x="225" y="28" stroke-linejoin="round" width="26" height="24" fill="rgb(114,183,67)" stroke="rgb(91,146,53)" stroke-width="1" opacity="0.75" />
			</g>
		</g>
		<g>
			<title> (FRY77_09810)
AAA family ATPase</title>
			<polygon class=" (FRY77_09810)
AAA family ATPase" points="308,25 286,25 286,10 256,40 286,70 286,55 308,55" fill="rgb(255,255,255)" fill-opacity="1.0" stroke="rgb(0,0,0)" stroke-width="2"  />
			<g>
				<title>PDDEXK_9 (PF08011)
"PD-(D/E)XK nuclease superfamily"</title>
				<polygon class="PF08011" points="260,40 265,35 265,45" stroke-linejoin="round" width="9" height="24" fill="rgb(188,166,63)" stroke="rgb(150,132,50)" stroke-width="1" opacity="0.75" />
			</g>
			<g>
				<title>AAA-ATPase_like (PF09820)
"Predicted AAA-ATPase"</title>
				<rect class="PF09820" x="280" y="28" stroke-linejoin="round" width="26" height="24" fill="rgb(114,183,67)" stroke="rgb(91,146,53)" stroke-width="1" opacity="0.75" />
			</g>
		</g>
		<g>
			<title> (FRY77_09815)
TonB-dependent siderophore receptor</title>
			<polygon class=" (FRY77_09815)
TonB-dependent siderophore receptor" points="318,25 360,25 360,10 390,40 360,70 360,55 318,55" fill="rgb(255,255,255)" fill-opacity="1.0" stroke="rgb(0,0,0)" stroke-width="2"  />
			<g>
				<title>Plug (PF07715)
"TonB-dependent Receptor Plug Domain"</title>
				<rect class="PF07715" x="325" y="28" stroke-linejoin="round" width="10" height="24" fill="rgb(99,133,214)" stroke="rgb(79,106,171)" stroke-width="1" opacity="0.75" />
			</g>
			<g>
				<title>TonB_dep_Rec (PF00593)
"TonB dependent receptor"</title>
				<polygon class="PF00593" points="342,28 374,28 386,40 374,52 342,52" stroke-linejoin="round" width="48" height="24" fill="rgb(171,200,51)" stroke="rgb(136,160,40)" stroke-width="1" opacity="0.75" />
			</g>
		</g>
		<g>
			<title> (FRY77_09820)
ABC transporter substrate-binding protein</title>
			<polygon class=" (FRY77_09820)
ABC transporter substrate-binding protein" points="426,25 422,25 422,10 392,40 422,70 422,55 426,55" fill="rgb(255,255,255)" fill-opacity="1.0" stroke="rgb(0,0,0)" stroke-width="2"  />
			<g>
				<title>Peripla_BP_2 (PF01497)
"Periplasmic binding protein"</title>
				<polygon class="PF01497" points="396,40 408,28 419,28 419,52 408,52" stroke-linejoin="round" width="24" height="24" fill="rgb(183,226,104)" stroke="rgb(146,180,83)" stroke-width="1" opacity="0.75" />
			</g>
		</g>
		<g>
			<title> (FRY77_09825)
TonB-dependent siderophore receptor</title>
			<polygon class=" (FRY77_09825)
TonB-dependent siderophore receptor" points="496,25 454,25 454,10 424,40 454,70 454,55 496,55" fill="rgb(255,255,255)" fill-opacity="1.0" stroke="rgb(0,0,0)" stroke-width="2"  />
			<g>
				<title>TonB_dep_Rec (PF00593)
"TonB dependent receptor"</title>
				<polygon class="PF00593" points="428,40 440,28 471,28 471,52 440,52" stroke-linejoin="round" width="47" height="24" fill="rgb(171,200,51)" stroke="rgb(136,160,40)" stroke-width="1" opacity="0.75" />
			</g>
			<g>
				<title>Plug (PF07715)
"TonB-dependent Receptor Plug Domain"</title>
				<rect class="PF07715" x="478" y="28" stroke-linejoin="round" width="10" height="24" fill="rgb(99,133,214)" stroke="rgb(79,106,171)" stroke-width="1" opacity="0.75" />
			</g>
		</g>
		<g>
			<title> (FRY77_09830)
RNA polymerase factor sigma-70</title>
			<polygon class=" (FRY77_09830)
RNA polymerase factor sigma-70" points="504,10 524,40 504,70" fill="rgb(255,255,255)" fill-opacity="1.0" stroke="rgb(0,0,0)" stroke-width="2"  />
			<g>
				<title>Sigma70_r2 (PF04542)
"Sigma-70 region 2"</title>
				<polygon class="PF04542" points="508,28 512,28 514,31 514,49 512,52 508,52" stroke-linejoin="round" width="6" height="24" fill="rgb(184,59,197)" stroke="rgb(147,47,157)" stroke-width="1" opacity="0.75" />
			</g>
			<g>
				<title>Sigma70_r4_2 (PF08281)
"Sigma-70, region 4"</title>
				<polygon class="PF08281" points="517,35 520,40 517,45" stroke-linejoin="round" width="5" height="24" fill="rgb(222,103,144)" stroke="rgb(177,82,115)" stroke-width="1" opacity="0.75" />
			</g>
		</g>
		<g>
			<title> (FRY77_09835)
DUF4880 domain-containing protein</title>
			<polygon class=" (FRY77_09835)
DUF4880 domain-containing protein" points="528,10 534,40 528,70" fill="rgb(255,255,255)" fill-opacity="1.0" stroke="rgb(0,0,0)" stroke-width="2"  />
			<g>
				<title>DUF4880 (PF16220)
"Domain of unknown function (DUF4880)"</title>
				<polygon class="PF16220" points="529,28 531,40 529,52" stroke-linejoin="round" width="4" height="24" fill="rgb(72,211,78)" stroke="rgb(57,168,62)" stroke-width="1" opacity="0.75" />
			</g>
		</g>
		<g>
			<title> (FRY77_09840)
MbtH family NRPS accessory protein</title>
			<polygon class=" (FRY77_09840)
MbtH family NRPS accessory protein" points="543,10 551,40 543,70" fill="rgb(255,255,255)" fill-opacity="1.0" stroke="rgb(0,0,0)" stroke-width="2"  />
			<g>
				<title>MbtH (PF03621)
"MbtH-like protein"</title>
				<polygon class="PF03621" points="543,28 544,28 548,40 548,40 544,52 543,52" stroke-linejoin="round" width="5" height="24" fill="rgb(212,165,97)" stroke="rgb(169,132,77)" stroke-width="1" opacity="0.75" />
			</g>
		</g>
		<g>
			<title> (FRY77_09845)
alpha/beta fold hydrolase</title>
			<polygon class=" (FRY77_09845)
alpha/beta fold hydrolase" points="551,10 575,40 551,70" fill="rgb(255,255,255)" fill-opacity="1.0" stroke="rgb(0,0,0)" stroke-width="2"  />
			<g>
				<title>Thioesterase (PF00975)
"Thioesterase domain"</title>
				<polygon class="PF00975" points="551,28 562,28 571,40 562,52 551,52" stroke-linejoin="round" width="22" height="24" fill="rgb(207,80,138)" stroke="rgb(165,63,110)" stroke-width="1" opacity="0.75" />
			</g>
		</g>
		<g>
			<title> (FRY77_09850)
4'-phosphopantetheinyl transferase superfamily protein</title>
			<polygon class=" (FRY77_09850)
4'-phosphopantetheinyl transferase superfamily protein" points="575,10 602,40 575,70" fill="rgb(255,255,255)" fill-opacity="1.0" stroke="rgb(0,0,0)" stroke-width="2"  />
			<g>
				<title>ACPS (PF01648)
"4'-phosphopantetheinyl transferase superfamily"</title>
				<polygon class="PF01648" points="586,28 586,28 596,38 596,42 586,52 586,52" stroke-linejoin="round" width="10" height="24" fill="rgb(85,184,135)" stroke="rgb(68,147,108)" stroke-width="1" opacity="0.75" />
			</g>
		</g>
		<g>
			<title> (FRY77_09855)
TauD/TfdA family dioxygenase</title>
			<polygon class=" (FRY77_09855)
TauD/TfdA family dioxygenase" points="600,25 603,25 603,10 633,40 603,70 603,55 600,55" fill="rgb(255,255,255)" fill-opacity="1.0" stroke="rgb(0,0,0)" stroke-width="2"  />
			<g>
				<title>TauD (PF02668)
"Taurine catabolism dioxygenase TauD, TfdA family"</title>
				<polygon class="PF02668" points="602,28 617,28 629,40 617,52 602,52" stroke-linejoin="round" width="29" height="24" fill="rgb(180,79,217)" stroke="rgb(144,63,173)" stroke-width="1" opacity="0.75" />
			</g>
		</g>
		<g>
			<title> (FRY77_09860)
AMP-binding protein</title>
			<polygon class=" (FRY77_09860)
AMP-binding protein" points="635,25 758,25 758,10 788,40 758,70 758,55 635,55" fill="rgb(255,255,255)" fill-opacity="1.0" stroke="rgb(0,0,0)" stroke-width="2"  />
			<g>
				<title>AMP-binding (PF00501)
"AMP-binding enzyme"</title>
				<rect class="PF00501" x="637" y="28" stroke-linejoin="round" width="45" height="24" fill="rgb(60,217,223)" stroke="rgb(48,173,178)" stroke-width="1" opacity="0.75" />
			</g>
			<g>
				<title>PP-binding (PF00550)
"Phosphopantetheine attachment site"</title>
				<rect class="PF00550" x="697" y="28" stroke-linejoin="round" width="6" height="24" fill="rgb(103,191,88)" stroke="rgb(82,152,70)" stroke-width="1" opacity="0.75" />
			</g>
			<g>
				<title>Condensation (PF00668)
"Condensation domain"</title>
				<rect class="PF00668" x="706" y="28" stroke-linejoin="round" width="45" height="24" fill="rgb(224,184,98)" stroke="rgb(179,147,78)" stroke-width="1" opacity="0.75" />
			</g>
			<g>
				<title>TauD (PF02668)
"Taurine catabolism dioxygenase TauD, TfdA family"</title>
				<polygon class="PF02668" points="755,28 772,28 784,40 772,52 755,52" stroke-linejoin="round" width="30" height="24" fill="rgb(180,79,217)" stroke="rgb(144,63,173)" stroke-width="1" opacity="0.75" />
			</g>
		</g>
		<g>
			<title> (FRY77_09865)
amino acid adenylation domain-containing protein</title>
			<polygon class=" (FRY77_09865)
amino acid adenylation domain-containing protein" points="789,25 865,25 865,10 895,40 865,70 865,55 789,55" fill="rgb(255,255,255)" fill-opacity="1.0" stroke="rgb(0,0,0)" stroke-width="2"  />
			<g>
				<title>Condensation (PF00668)
"Condensation domain"</title>
				<rect class="PF00668" x="789" y="28" stroke-linejoin="round" width="44" height="24" fill="rgb(224,184,98)" stroke="rgb(179,147,78)" stroke-width="1" opacity="0.75" />
			</g>
			<g>
				<title>AMP-binding (PF00501)
"AMP-binding enzyme"</title>
				<rect class="PF00501" x="836" y="28" stroke-linejoin="round" width="39" height="24" fill="rgb(60,217,223)" stroke="rgb(48,173,178)" stroke-width="1" opacity="0.75" />
			</g>
			<g>
				<title>PP-binding (PF00550)
"Phosphopantetheine attachment site"</title>
				<polygon class="PF00550" points="887,37 890,40 887,43" stroke-linejoin="round" width="6" height="24" fill="rgb(103,191,88)" stroke="rgb(82,152,70)" stroke-width="1" opacity="0.75" />
			</g>
		</g>
		<g>
			<title> (FRY77_09870)
amino acid adenylation domain-containing protein</title>
			<polygon class=" (FRY77_09870)
amino acid adenylation domain-containing protein" points="897,25 1084,25 1084,10 1114,40 1084,70 1084,55 897,55" fill="rgb(255,255,255)" fill-opacity="1.0" stroke="rgb(0,0,0)" stroke-width="2"  />
			<g>
				<title>Condensation (PF00668)
"Condensation domain"</title>
				<rect class="PF00668" x="899" y="28" stroke-linejoin="round" width="45" height="24" fill="rgb(224,184,98)" stroke="rgb(179,147,78)" stroke-width="1" opacity="0.75" />
			</g>
			<g>
				<title>AMP-binding (PF00501)
"AMP-binding enzyme"</title>
				<rect class="PF00501" x="946" y="28" stroke-linejoin="round" width="39" height="24" fill="rgb(60,217,223)" stroke="rgb(48,173,178)" stroke-width="1" opacity="0.75" />
			</g>
			<g>
				<title>AMP-binding_C (PF13193)
"AMP-binding enzyme C-terminal domain"</title>
				<rect class="PF13193" x="987" y="28" stroke-linejoin="round" width="7" height="24" fill="rgb(182,50,118)" stroke="rgb(145,39,94)" stroke-width="1" opacity="0.75" />
			</g>
			<g>
				<title>PP-binding (PF00550)
"Phosphopantetheine attachment site"</title>
				<rect class="PF00550" x="997" y="28" stroke-linejoin="round" width="6" height="24" fill="rgb(103,191,88)" stroke="rgb(82,152,70)" stroke-width="1" opacity="0.75" />
			</g>
			<g>
				<title>Condensation (PF00668)
"Condensation domain"</title>
				<rect class="PF00668" x="1008" y="28" stroke-linejoin="round" width="44" height="24" fill="rgb(224,184,98)" stroke="rgb(179,147,78)" stroke-width="1" opacity="0.75" />
			</g>
			<g>
				<title>AMP-binding (PF00501)
"AMP-binding enzyme"</title>
				<rect class="PF00501" x="1054" y="28" stroke-linejoin="round" width="39" height="24" fill="rgb(60,217,223)" stroke="rgb(48,173,178)" stroke-width="1" opacity="0.75" />
			</g>
			<g>
				<title>AMP-binding_C (PF13193)
"AMP-binding enzyme C-terminal domain"</title>
				<polygon class="PF13193" points="1094,28 1097,28 1101,32 1101,48 1097,52 1094,52" stroke-linejoin="round" width="7" height="24" fill="rgb(182,50,118)" stroke="rgb(145,39,94)" stroke-width="1" opacity="0.75" />
			</g>
			<g>
				<title>PP-binding (PF00550)
"Phosphopantetheine attachment site"</title>
				<polygon class="PF00550" points="1104,35 1109,40 1104,45" stroke-linejoin="round" width="6" height="24" fill="rgb(103,191,88)" stroke="rgb(82,152,70)" stroke-width="1" opacity="0.75" />
			</g>
		</g>
		<g>
			<title> (FRY77_09875)
amino acid adenylation domain-containing protein</title>
			<polygon class=" (FRY77_09875)
amino acid adenylation domain-containing protein" points="1114,25 1303,25 1303,10 1333,40 1303,70 1303,55 1114,55" fill="rgb(255,255,255)" fill-opacity="1.0" stroke="rgb(0,0,0)" stroke-width="2"  />
			<g>
				<title>Condensation (PF00668)
"Condensation domain"</title>
				<rect class="PF00668" x="1118" y="28" stroke-linejoin="round" width="45" height="24" fill="rgb(224,184,98)" stroke="rgb(179,147,78)" stroke-width="1" opacity="0.75" />
			</g>
			<g>
				<title>AMP-binding (PF00501)
"AMP-binding enzyme"</title>
				<rect class="PF00501" x="1165" y="28" stroke-linejoin="round" width="39" height="24" fill="rgb(60,217,223)" stroke="rgb(48,173,178)" stroke-width="1" opacity="0.75" />
			</g>
			<g>
				<title>AMP-binding_C (PF13193)
"AMP-binding enzyme C-terminal domain"</title>
				<rect class="PF13193" x="1206" y="28" stroke-linejoin="round" width="7" height="24" fill="rgb(182,50,118)" stroke="rgb(145,39,94)" stroke-width="1" opacity="0.75" />
			</g>
			<g>
				<title>PP-binding (PF00550)
"Phosphopantetheine attachment site"</title>
				<rect class="PF00550" x="1216" y="28" stroke-linejoin="round" width="6" height="24" fill="rgb(103,191,88)" stroke="rgb(82,152,70)" stroke-width="1" opacity="0.75" />
			</g>
			<g>
				<title>Condensation (PF00668)
"Condensation domain"</title>
				<rect class="PF00668" x="1227" y="28" stroke-linejoin="round" width="44" height="24" fill="rgb(224,184,98)" stroke="rgb(179,147,78)" stroke-width="1" opacity="0.75" />
			</g>
			<g>
				<title>AMP-binding (PF00501)
"AMP-binding enzyme"</title>
				<rect class="PF00501" x="1273" y="28" stroke-linejoin="round" width="39" height="24" fill="rgb(60,217,223)" stroke="rgb(48,173,178)" stroke-width="1" opacity="0.75" />
			</g>
			<g>
				<title>AMP-binding_C (PF13193)
"AMP-binding enzyme C-terminal domain"</title>
				<polygon class="PF13193" points="1313,28 1316,28 1320,32 1320,48 1316,52 1313,52" stroke-linejoin="round" width="7" height="24" fill="rgb(182,50,118)" stroke="rgb(145,39,94)" stroke-width="1" opacity="0.75" />
			</g>
			<g>
				<title>PP-binding (PF00550)
"Phosphopantetheine attachment site"</title>
				<polygon class="PF00550" points="1323,35 1328,40 1323,45" stroke-linejoin="round" width="6" height="24" fill="rgb(103,191,88)" stroke="rgb(82,152,70)" stroke-width="1" opacity="0.75" />
			</g>
		</g>
		<g>
			<title> (FRY77_09880)
amino acid adenylation domain-containing protein</title>
			<polygon class=" (FRY77_09880)
amino acid adenylation domain-containing protein" points="1333,25 1760,25 1760,10 1790,40 1760,70 1760,55 1333,55" fill="rgb(255,255,255)" fill-opacity="1.0" stroke="rgb(0,0,0)" stroke-width="2"  />
			<g>
				<title>Condensation (PF00668)
"Condensation domain"</title>
				<rect class="PF00668" x="1337" y="28" stroke-linejoin="round" width="44" height="24" fill="rgb(224,184,98)" stroke="rgb(179,147,78)" stroke-width="1" opacity="0.75" />
			</g>
			<g>
				<title>AMP-binding (PF00501)
"AMP-binding enzyme"</title>
				<rect class="PF00501" x="1383" y="28" stroke-linejoin="round" width="39" height="24" fill="rgb(60,217,223)" stroke="rgb(48,173,178)" stroke-width="1" opacity="0.75" />
			</g>
			<g>
				<title>AMP-binding_C (PF13193)
"AMP-binding enzyme C-terminal domain"</title>
				<rect class="PF13193" x="1423" y="28" stroke-linejoin="round" width="7" height="24" fill="rgb(182,50,118)" stroke="rgb(145,39,94)" stroke-width="1" opacity="0.75" />
			</g>
			<g>
				<title>PP-binding (PF00550)
"Phosphopantetheine attachment site"</title>
				<rect class="PF00550" x="1434" y="28" stroke-linejoin="round" width="6" height="24" fill="rgb(103,191,88)" stroke="rgb(82,152,70)" stroke-width="1" opacity="0.75" />
			</g>
			<g>
				<title>Condensation (PF00668)
"Condensation domain"</title>
				<rect class="PF00668" x="1442" y="28" stroke-linejoin="round" width="45" height="24" fill="rgb(224,184,98)" stroke="rgb(179,147,78)" stroke-width="1" opacity="0.75" />
			</g>
			<g>
				<title>AMP-binding (PF00501)
"AMP-binding enzyme"</title>
				<rect class="PF00501" x="1489" y="28" stroke-linejoin="round" width="40" height="24" fill="rgb(60,217,223)" stroke="rgb(48,173,178)" stroke-width="1" opacity="0.75" />
			</g>
			<g>
				<title>AMP-binding_C (PF13193)
"AMP-binding enzyme C-terminal domain"</title>
				<rect class="PF13193" x="1530" y="28" stroke-linejoin="round" width="7" height="24" fill="rgb(182,50,118)" stroke="rgb(145,39,94)" stroke-width="1" opacity="0.75" />
			</g>
			<g>
				<title>PP-binding (PF00550)
"Phosphopantetheine attachment site"</title>
				<rect class="PF00550" x="1540" y="28" stroke-linejoin="round" width="6" height="24" fill="rgb(103,191,88)" stroke="rgb(82,152,70)" stroke-width="1" opacity="0.75" />
			</g>
			<g>
				<title>Condensation (PF00668)
"Condensation domain"</title>
				<rect class="PF00668" x="1551" y="28" stroke-linejoin="round" width="44" height="24" fill="rgb(224,184,98)" stroke="rgb(179,147,78)" stroke-width="1" opacity="0.75" />
			</g>
			<g>
				<title>AMP-binding (PF00501)
"AMP-binding enzyme"</title>
				<rect class="PF00501" x="1597" y="28" stroke-linejoin="round" width="39" height="24" fill="rgb(60,217,223)" stroke="rgb(48,173,178)" stroke-width="1" opacity="0.75" />
			</g>
			<g>
				<title>AMP-binding_C (PF13193)
"AMP-binding enzyme C-terminal domain"</title>
				<rect class="PF13193" x="1638" y="28" stroke-linejoin="round" width="7" height="24" fill="rgb(182,50,118)" stroke="rgb(145,39,94)" stroke-width="1" opacity="0.75" />
			</g>
			<g>
				<title>PP-binding (PF00550)
"Phosphopantetheine attachment site"</title>
				<rect class="PF00550" x="1648" y="28" stroke-linejoin="round" width="6" height="24" fill="rgb(103,191,88)" stroke="rgb(82,152,70)" stroke-width="1" opacity="0.75" />
			</g>
			<g>
				<title>Condensation (PF00668)
"Condensation domain"</title>
				<rect class="PF00668" x="1658" y="28" stroke-linejoin="round" width="43" height="24" fill="rgb(224,184,98)" stroke="rgb(179,147,78)" stroke-width="1" opacity="0.75" />
			</g>
			<g>
				<title>AMP-binding (PF00501)
"AMP-binding enzyme"</title>
				<rect class="PF00501" x="1703" y="28" stroke-linejoin="round" width="40" height="24" fill="rgb(60,217,223)" stroke="rgb(48,173,178)" stroke-width="1" opacity="0.75" />
			</g>
			<g>
				<title>AMP-binding_C (PF13193)
"AMP-binding enzyme C-terminal domain"</title>
				<rect class="PF13193" x="1744" y="28" stroke-linejoin="round" width="7" height="24" fill="rgb(182,50,118)" stroke="rgb(145,39,94)" stroke-width="1" opacity="0.75" />
			</g>
			<g>
				<title>PP-binding (PF00550)
"Phosphopantetheine attachment site"</title>
				<rect class="PF00550" x="1754" y="28" stroke-linejoin="round" width="6" height="24" fill="rgb(103,191,88)" stroke="rgb(82,152,70)" stroke-width="1" opacity="0.75" />
			</g>
			<g>
				<title>Thioesterase (PF00975)
"Thioesterase domain"</title>
				<polygon class="PF00975" points="1763,28 1774,28 1777,31 1777,49 1774,52 1763,52" stroke-linejoin="round" width="14" height="24" fill="rgb(207,80,138)" stroke="rgb(165,63,110)" stroke-width="1" opacity="0.75" />
			</g>
		</g>
		<g>
			<title> (FRY77_09885)
IS630 family transposase</title>
			<polygon class=" (FRY77_09885)
IS630 family transposase" points="1793,40 1798,10 1798,70" fill="rgb(255,255,255)" fill-opacity="1.0" stroke="rgb(0,0,0)" stroke-width="2"  />
		</g>
		<g>
			<title> (FRY77_09890)
ABC transporter substrate-binding protein</title>
			<polygon class=" (FRY77_09890)
ABC transporter substrate-binding protein" points="1832,25 1831,25 1831,10 1801,40 1831,70 1831,55 1832,55" fill="rgb(255,255,255)" fill-opacity="1.0" stroke="rgb(0,0,0)" stroke-width="2"  />
			<g>
				<title>Peripla_BP_2 (PF01497)
"Periplasmic binding protein"</title>
				<polygon class="PF01497" points="1805,40 1817,28 1827,28 1827,52 1817,52" stroke-linejoin="round" width="23" height="24" fill="rgb(183,226,104)" stroke="rgb(146,180,83)" stroke-width="1" opacity="0.75" />
			</g>
		</g>
		<g>
			<title> (FRY77_09895)
TonB-dependent siderophore receptor</title>
			<polygon class=" (FRY77_09895)
TonB-dependent siderophore receptor" points="1911,25 1868,25 1868,10 1838,40 1868,70 1868,55 1911,55" fill="rgb(255,255,255)" fill-opacity="1.0" stroke="rgb(0,0,0)" stroke-width="2"  />
			<g>
				<title>TonB_dep_Rec (PF00593)
"TonB dependent receptor"</title>
				<polygon class="PF00593" points="1842,40 1854,28 1886,28 1886,52 1854,52" stroke-linejoin="round" width="48" height="24" fill="rgb(171,200,51)" stroke="rgb(136,160,40)" stroke-width="1" opacity="0.75" />
			</g>
			<g>
				<title>Plug (PF07715)
"TonB-dependent Receptor Plug Domain"</title>
				<rect class="PF07715" x="1893" y="28" stroke-linejoin="round" width="10" height="24" fill="rgb(99,133,214)" stroke="rgb(79,106,171)" stroke-width="1" opacity="0.75" />
			</g>
		</g>
		<g>
			<title> (FRY77_09900)
alpha/beta hydrolase fold domain-containing protein</title>
			<polygon class=" (FRY77_09900)
alpha/beta hydrolase fold domain-containing protein" points="1948,25 1947,25 1947,10 1917,40 1947,70 1947,55 1948,55" fill="rgb(255,255,255)" fill-opacity="1.0" stroke="rgb(0,0,0)" stroke-width="2"  />
			<g>
				<title>Abhydrolase_3 (PF07859)
"alpha/beta hydrolase fold"</title>
				<polygon class="PF07859" points="1921,40 1933,28 1940,28 1940,52 1933,52" stroke-linejoin="round" width="20" height="24" fill="rgb(183,51,179)" stroke="rgb(146,40,143)" stroke-width="1" opacity="0.75" />
			</g>
		</g>
		<g>
			<title> (FRY77_09905)
SidA/IucD/PvdA family monooxygenase</title>
			<polygon class=" (FRY77_09905)
SidA/IucD/PvdA family monooxygenase" points="1994,25 1981,25 1981,10 1951,40 1981,70 1981,55 1994,55" fill="rgb(255,255,255)" fill-opacity="1.0" stroke="rgb(0,0,0)" stroke-width="2"  />
			<g>
				<title>Lys_Orn_oxgnase (PF13434)
"L-lysine 6-monooxygenase/L-ornithine 5-monooxygenase"</title>
				<polygon class="PF13434" points="1959,36 1967,28 1993,28 1993,52 1967,52 1959,44" stroke-linejoin="round" width="34" height="24" fill="rgb(81,213,119)" stroke="rgb(64,170,95)" stroke-width="1" opacity="0.75" />
			</g>
		</g>
		<g>
			<title> (FRY77_09910)
GNAT family N-acetyltransferase</title>
			<polygon class=" (FRY77_09910)
GNAT family N-acetyltransferase" points="2033,25 2025,25 2025,10 1995,40 2025,70 2025,55 2033,55" fill="rgb(255,255,255)" fill-opacity="1.0" stroke="rgb(0,0,0)" stroke-width="2"  />
			<g>
				<title>Acetyltransf_8 (PF13523)
"Acetyltransferase (GNAT) domain"</title>
				<polygon class="PF13523" points="1999,40 2011,28 2013,28 2013,52 2011,52 1999,40" stroke-linejoin="round" width="14" height="24" fill="rgb(106,224,203)" stroke="rgb(84,179,162)" stroke-width="1" opacity="0.75" />
			</g>
		</g>
		<g>
			<title> (FRY77_09915)
cyclic peptide export ABC transporter</title>
			<polygon class=" (FRY77_09915)
cyclic peptide export ABC transporter" points="2039,25 2063,25 2063,10 2093,40 2063,70 2063,55 2039,55" fill="rgb(255,255,255)" fill-opacity="1.0" stroke="rgb(0,0,0)" stroke-width="2"  />
			<g>
				<title>ABC_tran (PF00005)
"ABC transporter"</title>
				<polygon class="PF00005" points="2073,28 2077,28 2086,37 2086,43 2077,52 2073,52" stroke-linejoin="round" width="13" height="24" fill="rgb(129,201,63)" stroke="rgb(103,160,50)" stroke-width="1" opacity="0.75" />
			</g>
		</g>
		<g>
			<title> (FRY77_09920)
cytochrome b</title>
			<polygon class=" (FRY77_09920)
cytochrome b" points="2093,40 2113,10 2113,70" fill="rgb(255,255,255)" fill-opacity="1.0" stroke="rgb(0,0,0)" stroke-width="2"  />
			<g>
				<title>Ni_hydr_CYTB (PF01292)
"Prokaryotic cytochrome b561"</title>
				<polygon class="PF01292" points="2097,40 2105,28 2110,28 2110,52 2105,52" stroke-linejoin="round" width="17" height="24" fill="rgb(210,172,100)" stroke="rgb(168,137,80)" stroke-width="1" opacity="0.75" />
			</g>
		</g>
		<g>
			<title> (FRY77_09925)
siderophore-interacting protein</title>
			<polygon class=" (FRY77_09925)
siderophore-interacting protein" points="2145,25 2144,25 2144,10 2114,40 2144,70 2144,55 2145,55" fill="rgb(255,255,255)" fill-opacity="1.0" stroke="rgb(0,0,0)" stroke-width="2"  />
			<g>
				<title>SIP (PF04954)
"Siderophore-interacting protein"</title>
				<polygon class="PF04954" points="2118,40 2129,29 2129,51" stroke-linejoin="round" width="15" height="24" fill="rgb(75,222,95)" stroke="rgb(60,177,76)" stroke-width="1" opacity="0.75" />
			</g>
			<g>
				<title>FAD_binding_9 (PF08021)
"Siderophore-interacting FAD-binding domain"</title>
				<rect class="PF08021" x="2131" y="28" stroke-linejoin="round" width="12" height="24" fill="rgb(58,190,106)" stroke="rgb(46,152,84)" stroke-width="1" opacity="0.75" />
			</g>
		</g>
		<g>
			<title>fhuB (FRY77_09930)
Fe(3+)-hydroxamate ABC transporter permease FhuB</title>
			<polygon class="fhuB (FRY77_09930)
Fe(3+)-hydroxamate ABC transporter permease FhuB" points="2151,25 2187,25 2187,10 2217,40 2187,70 2187,55 2151,55" fill="rgb(255,255,255)" fill-opacity="1.0" stroke="rgb(0,0,0)" stroke-width="2"  />
			<g>
				<title>FecCD (PF01032)
"FecCD transport family"</title>
				<rect class="PF01032" x="2153" y="28" stroke-linejoin="round" width="31" height="24" fill="rgb(210,177,70)" stroke="rgb(168,141,56)" stroke-width="1" opacity="0.75" />
			</g>
			<g>
				<title>FecCD (PF01032)
"FecCD transport family"</title>
				<polygon class="PF01032" points="2189,28 2201,28 2213,40 2201,52 2189,52" stroke-linejoin="round" width="28" height="24" fill="rgb(210,177,70)" stroke="rgb(168,141,56)" stroke-width="1" opacity="0.75" />
			</g>
		</g>
		<g>
			<title>fhuF (FRY77_09935)
siderophore-iron reductase FhuF</title>
			<polygon class="fhuF (FRY77_09935)
siderophore-iron reductase FhuF" points="2218,10 2244,40 2218,70" fill="rgb(255,255,255)" fill-opacity="1.0" stroke="rgb(0,0,0)" stroke-width="2"  />
			<g>
				<title>FhuF (PF06276)
"Ferric iron reductase FhuF-like transporter"</title>
				<polygon class="PF06276" points="2225,28 2230,28 2239,39 2239,41 2230,52 2225,52" stroke-linejoin="round" width="14" height="24" fill="rgb(76,151,221)" stroke="rgb(60,120,176)" stroke-width="1" opacity="0.75" />
			</g>
			<g>
				<title>FhuF_C (PF11575)
"FhuF 2Fe-2S C-terminal domain"</title>
				<polygon class="PF11575" points="2241,40 2240,40 2241,40" stroke-linejoin="round" width="2" height="24" fill="rgb(216,71,91)" stroke="rgb(172,56,72)" stroke-width="1" opacity="0.75" />
			</g>
		</g>
		<g>
			<title> (FRY77_09940)
multidrug ABC transporter permease/ATP-binding protein</title>
			<polygon class=" (FRY77_09940)
multidrug ABC transporter permease/ATP-binding protein" points="2246,25 2271,25 2271,10 2301,40 2271,70 2271,55 2246,55" fill="rgb(255,255,255)" fill-opacity="1.0" stroke="rgb(0,0,0)" stroke-width="2"  />
			<g>
				<title>ABC_tran (PF00005)
"ABC transporter"</title>
				<polygon class="PF00005" points="2280,28 2285,28 2293,36 2293,44 2285,52 2280,52" stroke-linejoin="round" width="13" height="24" fill="rgb(129,201,63)" stroke="rgb(103,160,50)" stroke-width="1" opacity="0.75" />
			</g>
		</g>
	</g>
</svg>
