<svg version="1.1" baseProfile="full" xmlns="http://www.w3.org/2000/svg" width="465.3333333333333" height="80">
	<g>
		<line x1="10" y1="40.0" x2="455.3333333333333" y2="40.0" style="stroke:rgb(70,70,70); stroke-width:3 "/>
		<g>
			<title>musC2
MusC2</title>
			<polygon class="musC2
MusC2" points="17,40 23,10 23,70" fill="rgb(255,255,255)" fill-opacity="1.0" stroke="rgb(0,0,0)" stroke-width="2"  />
		</g>
		<g>
			<title>musF2
MusF2</title>
			<polygon class="musF2
MusF2" points="56,25 56,25 56,10 26,40 56,70 56,55 56,55" fill="rgb(255,255,255)" fill-opacity="1.0" stroke="rgb(0,0,0)" stroke-width="2"  />
			<g>
				<title>DUF5838 (PF19156)
"Family of unknown function (DUF5838)"</title>
				<polygon class="PF19156" points="30,40 42,28 54,28 54,52 42,52" stroke-linejoin="round" width="28" height="24" fill="rgb(143,78,197)" stroke="rgb(114,62,157)" stroke-width="1" opacity="0.75" />
			</g>
		</g>
		<g>
			<title>musF1
MusF1</title>
			<polygon class="musF1
MusF1" points="87,25 87,25 87,10 57,40 87,70 87,55 87,55" fill="rgb(255,255,255)" fill-opacity="1.0" stroke="rgb(0,0,0)" stroke-width="2"  />
			<g>
				<title>DUF5838 (PF19156)
"Family of unknown function (DUF5838)"</title>
				<polygon class="PF19156" points="61,40 73,28 85,28 85,52 73,52" stroke-linejoin="round" width="28" height="24" fill="rgb(143,78,197)" stroke="rgb(114,62,157)" stroke-width="1" opacity="0.75" />
			</g>
		</g>
		<g>
			<title>musB
MusB</title>
			<polygon class="musB
MusB" points="102,40 108,10 108,70" fill="rgb(255,255,255)" fill-opacity="1.0" stroke="rgb(0,0,0)" stroke-width="2"  />
		</g>
		<g>
			<title>musH
MusH</title>
			<polygon class="musH
MusH" points="164,25 140,25 140,10 110,40 140,70 140,55 164,55" fill="rgb(255,255,255)" fill-opacity="1.0" stroke="rgb(0,0,0)" stroke-width="2"  />
			<g>
				<title>PatG_C (PF18065)
"PatG C-terminal"</title>
				<polygon class="PF18065" points="114,40 121,33 121,47" stroke-linejoin="round" width="11" height="24" fill="rgb(93,82,184)" stroke="rgb(74,65,147)" stroke-width="1" opacity="0.75" />
			</g>
			<g>
				<title>PatG_D (PF18047)
"PatG Domain"</title>
				<polygon class="PF18047" points="126,28 126,28 137,28 137,52 126,52 126,52" stroke-linejoin="round" width="11" height="24" fill="rgb(91,195,69)" stroke="rgb(72,156,55)" stroke-width="1" opacity="0.75" />
			</g>
			<g>
				<title>Methyltransf_11 (PF08241)
"Methyltransferase domain"</title>
				<rect class="PF08241" x="148" y="28" stroke-linejoin="round" width="9" height="24" fill="rgb(106,219,159)" stroke="rgb(84,175,127)" stroke-width="1" opacity="0.75" />
			</g>
		</g>
		<g>
			<title>musA
MusA</title>
			<polygon class="musA
MusA" points="235,25 195,25 195,10 165,40 195,70 195,55 235,55" fill="rgb(255,255,255)" fill-opacity="1.0" stroke="rgb(0,0,0)" stroke-width="2"  />
			<g>
				<title>PatG_C (PF18065)
"PatG C-terminal"</title>
				<polygon class="PF18065" points="169,40 176,33 176,47" stroke-linejoin="round" width="11" height="24" fill="rgb(93,82,184)" stroke="rgb(74,65,147)" stroke-width="1" opacity="0.75" />
			</g>
			<g>
				<title>PatG_D (PF18047)
"PatG Domain"</title>
				<polygon class="PF18047" points="181,28 181,28 192,28 192,52 181,52 181,52" stroke-linejoin="round" width="11" height="24" fill="rgb(91,195,69)" stroke="rgb(72,156,55)" stroke-width="1" opacity="0.75" />
			</g>
			<g>
				<title>Peptidase_S8 (PF00082)
"Subtilase family"</title>
				<rect class="PF00082" x="204" y="28" stroke-linejoin="round" width="28" height="24" fill="rgb(193,159,94)" stroke="rgb(154,127,75)" stroke-width="1" opacity="0.75" />
			</g>
		</g>
		<g>
			<title>musE
MusE</title>
			<polygon class="musE
MusE" points="254,10 260,40 254,70" fill="rgb(255,255,255)" fill-opacity="1.0" stroke="rgb(0,0,0)" stroke-width="2"  />
		</g>
		<g>
			<title>musD
MusD</title>
			<polygon class="musD
MusD" points="274,25 322,25 322,10 352,40 322,70 322,55 274,55" fill="rgb(255,255,255)" fill-opacity="1.0" stroke="rgb(0,0,0)" stroke-width="2"  />
			<g>
				<title>YcaO (PF02624)
"YcaO cyclodehydratase, ATP-ad Mg2+-binding"</title>
				<polygon class="PF02624" points="315,28 335,28 347,40 335,52 315,52" stroke-linejoin="round" width="33" height="24" fill="rgb(76,84,185)" stroke="rgb(60,67,148)" stroke-width="1" opacity="0.75" />
			</g>
		</g>
		<g>
			<title>musG
MusG</title>
			<polygon class="musG
MusG" points="361,25 376,25 376,10 406,40 376,70 376,55 361,55" fill="rgb(255,255,255)" fill-opacity="1.0" stroke="rgb(0,0,0)" stroke-width="2"  />
			<g>
				<title>HTH_57 (PF18679)
"ThcOx helix turn helix domain"</title>
				<rect class="PF18679" x="361" y="28" stroke-linejoin="round" width="10" height="24" fill="rgb(96,205,78)" stroke="rgb(76,164,62)" stroke-width="1" opacity="0.75" />
			</g>
			<g>
				<title>Nitroreductase (PF00881)
"Nitroreductase family"</title>
				<polygon class="PF00881" points="388,28 390,28 402,40 390,52 388,52" stroke-linejoin="round" width="18" height="24" fill="rgb(79,118,187)" stroke="rgb(63,94,149)" stroke-width="1" opacity="0.75" />
			</g>
		</g>
		<g>
			<title>musC1
MusC1</title>
			<polygon class="musC1
MusC1" points="412,25 412,25 412,10 442,40 412,70 412,55 412,55" fill="rgb(255,255,255)" fill-opacity="1.0" stroke="rgb(0,0,0)" stroke-width="2"  />
			<g>
				<title>Laminin_G_3 (PF13385)
"Concanavalin A-like lectin/glucanases superfamily"</title>
				<polygon class="PF13385" points="413,28 426,28 429,31 429,49 426,52 413,52" stroke-linejoin="round" width="16" height="24" fill="rgb(93,162,213)" stroke="rgb(74,129,170)" stroke-width="1" opacity="0.75" />
			</g>
		</g>
	</g>
</svg>
