<svg version="1.1" baseProfile="full" xmlns="http://www.w3.org/2000/svg" width="356.46666666666664" height="80">
	<g>
		<line x1="10" y1="40.0" x2="346.46666666666664" y2="40.0" style="stroke:rgb(70,70,70); stroke-width:3 "/>
		<g>
			<title>
unknown</title>
			<polygon class="
unknown" points="14,25 38,25 38,10 68,40 38,70 38,55 14,55" fill="rgb(255,255,255)" fill-opacity="1.0" stroke="rgb(0,0,0)" stroke-width="2"  />
			<g>
				<title>Exo_endo_phos (PF03372)
"Endonuclease/Exonuclease/phosphatase family"</title>
				<rect class="PF03372" x="16" y="28" stroke-linejoin="round" width="26" height="24" fill="rgb(76,66,180)" stroke="rgb(60,52,144)" stroke-width="1" opacity="0.75" />
			</g>
		</g>
		<g>
			<title>vioA
tryptophan 2-monooxygenase</title>
			<polygon class="vioA
tryptophan 2-monooxygenase" points="75,25 86,25 86,10 116,40 86,70 86,55 75,55" fill="rgb(255,255,255)" fill-opacity="1.0" stroke="rgb(0,0,0)" stroke-width="2"  />
			<g>
				<title>NAD_binding_8 (PF13450)
"NAD(P)-binding Rossmann-like domain"</title>
				<rect class="PF13450" x="75" y="28" stroke-linejoin="round" width="7" height="24" fill="rgb(91,180,227)" stroke="rgb(72,144,181)" stroke-width="1" opacity="0.75" />
			</g>
			<g>
				<title>Amino_oxidase (PF01593)
"Flavin containing amine oxidoreductase"</title>
				<polygon class="PF01593" points="83,28 100,28 112,40 100,52 83,52" stroke-linejoin="round" width="32" height="24" fill="rgb(184,74,52)" stroke="rgb(147,59,41)" stroke-width="1" opacity="0.75" />
			</g>
		</g>
		<g>
			<title>vioB
polyketide synthase-like</title>
			<polygon class="vioB
polyketide synthase-like" points="119,25 188,25 188,10 218,40 188,70 188,55 119,55" fill="rgb(255,255,255)" fill-opacity="1.0" stroke="rgb(0,0,0)" stroke-width="2"  />
			<g>
				<title>Ferritin-like (PF12902)
"Ferritin-like"</title>
				<rect class="PF12902" x="179" y="28" stroke-linejoin="round" width="22" height="24" fill="rgb(159,71,195)" stroke="rgb(127,56,156)" stroke-width="1" opacity="0.75" />
			</g>
		</g>
		<g>
			<title>vioC
monooxygebase</title>
			<polygon class="vioC
monooxygebase" points="219,25 232,25 232,10 262,40 232,70 232,55 219,55" fill="rgb(255,255,255)" fill-opacity="1.0" stroke="rgb(0,0,0)" stroke-width="2"  />
			<g>
				<title>FAD_binding_3 (PF01494)
"FAD binding domain"</title>
				<polygon class="PF01494" points="219,28 245,28 253,36 253,44 245,52 219,52" stroke-linejoin="round" width="34" height="24" fill="rgb(182,175,59)" stroke="rgb(145,140,47)" stroke-width="1" opacity="0.75" />
			</g>
		</g>
		<g>
			<title>vioD
hydroxylase</title>
			<polygon class="vioD
hydroxylase" points="262,25 269,25 269,10 299,40 269,70 269,55 262,55" fill="rgb(255,255,255)" fill-opacity="1.0" stroke="rgb(0,0,0)" stroke-width="2"  />
		</g>
	</g>
</svg>
