<svg version="1.1" baseProfile="full" xmlns="http://www.w3.org/2000/svg" width="219.16666666666666" height="80">
	<g>
		<line x1="10" y1="40.0" x2="209.16666666666666" y2="40.0" style="stroke:rgb(70,70,70); stroke-width:3 "/>
		<g>
			<title>cfbA (MBAR_RS01875)
sirohydrochlorin nickelochelatase</title>
			<polygon class="cfbA (MBAR_RS01875)
sirohydrochlorin nickelochelatase" points="10,10 23,40 10,70" fill="rgb(255,255,255)" fill-opacity="1.0" stroke="rgb(0,0,0)" stroke-width="2"  />
			<g>
				<title>CbiX (PF01903)
"CbiX"</title>
				<polygon class="PF01903" points="11,28 14,28 19,40 14,52 11,52" stroke-linejoin="round" width="11" height="24" fill="rgb(93,58,208)" stroke="rgb(74,46,166)" stroke-width="1" opacity="0.75" />
			</g>
		</g>
		<g>
			<title>cfbE (MBAR_RS01880)
coenzyme F430 synthase</title>
			<polygon class="cfbE (MBAR_RS01880)
coenzyme F430 synthase" points="23,25 45,25 45,10 75,40 45,70 45,55 23,55" fill="rgb(255,255,255)" fill-opacity="1.0" stroke="rgb(0,0,0)" stroke-width="2"  />
			<g>
				<title>Mur_ligase_M (PF08245)
"Mur ligase middle domain"</title>
				<rect class="PF08245" x="34" y="28" stroke-linejoin="round" width="17" height="24" fill="rgb(57,133,195)" stroke="rgb(45,106,156)" stroke-width="1" opacity="0.75" />
			</g>
		</g>
		<g>
			<title>cfbD (MBAR_RS01885)
Ni-sirohydrochlorin a,c-diamide reductive cyclase catalytic subunit</title>
			<polygon class="cfbD (MBAR_RS01885)
Ni-sirohydrochlorin a,c-diamide reductive cyclase catalytic subunit" points="91,25 98,25 98,10 128,40 98,70 98,55 91,55" fill="rgb(255,255,255)" fill-opacity="1.0" stroke="rgb(0,0,0)" stroke-width="2"  />
			<g>
				<title>Oxidored_nitro (PF00148)
"Nitrogenase component 1 type Oxidoreductase"</title>
				<polygon class="PF00148" points="92,28 111,28 119,36 119,44 111,52 92,52" stroke-linejoin="round" width="27" height="24" fill="rgb(55,115,187)" stroke="rgb(44,92,149)" stroke-width="1" opacity="0.75" />
			</g>
		</g>
		<g>
			<title>cfbC (MBAR_RS01890)
Ni-sirohydrochlorin a,c-diamide reductive cyclase ATP-dependent reductase subunit</title>
			<polygon class="cfbC (MBAR_RS01890)
Ni-sirohydrochlorin a,c-diamide reductive cyclase ATP-dependent reductase subunit" points="129,10 155,40 129,70" fill="rgb(255,255,255)" fill-opacity="1.0" stroke="rgb(0,0,0)" stroke-width="2"  />
			<g>
				<title>Fer4_NifH (PF00142)
"4Fe-4S iron sulfur cluster binding proteins, NifH/frxC family"</title>
				<polygon class="PF00142" points="129,28 140,28 151,40 140,52 129,52" stroke-linejoin="round" width="26" height="24" fill="rgb(196,97,135)" stroke="rgb(156,77,108)" stroke-width="1" opacity="0.75" />
			</g>
		</g>
		<g>
			<title>cfbB (MBAR_RS01895)
Ni-sirohydrochlorin a,c-diamide synthase</title>
			<polygon class="cfbB (MBAR_RS01895)
Ni-sirohydrochlorin a,c-diamide synthase" points="159,25 178,25 178,10 208,40 178,70 178,55 159,55" fill="rgb(255,255,255)" fill-opacity="1.0" stroke="rgb(0,0,0)" stroke-width="2"  />
			<g>
				<title>AAA_26 (PF13500)
"AAA domain"</title>
				<rect class="PF13500" x="160" y="28" stroke-linejoin="round" width="18" height="24" fill="rgb(93,118,228)" stroke="rgb(74,94,182)" stroke-width="1" opacity="0.75" />
			</g>
			<g>
				<title>GATase_3 (PF07685)
"CobB/CobQ-like glutamine amidotransferase domain"</title>
				<polygon class="PF07685" points="186,28 192,28 204,40 192,52 186,52" stroke-linejoin="round" width="20" height="24" fill="rgb(206,104,226)" stroke="rgb(164,83,180)" stroke-width="1" opacity="0.75" />
			</g>
		</g>
	</g>
</svg>
