<svg version="1.1" baseProfile="full" xmlns="http://www.w3.org/2000/svg" width="170.76666666666668" height="80">
	<g>
		<line x1="10" y1="40.0" x2="160.76666666666668" y2="40.0" style="stroke:rgb(70,70,70); stroke-width:3 "/>
		<g>
			<title>
putative tRNA (5-methylaminomethyl-2-thiouridylate)-methyltransferase</title>
			<polygon class="
putative tRNA (5-methylaminomethyl-2-thiouridylate)-methyltransferase" points="10,10 17,40 10,70" fill="rgb(255,255,255)" fill-opacity="1.0" stroke="rgb(0,0,0)" stroke-width="2"  />
			<g>
				<title>tRNA_Me_trans_C (PF20258)
"Aminomethyltransferase beta-barrel domain"</title>
				<polygon class="PF20258" points="11,28 11,28 14,40 11,52 11,52" stroke-linejoin="round" width="4" height="24" fill="rgb(206,63,177)" stroke="rgb(164,50,141)" stroke-width="1" opacity="0.75" />
			</g>
		</g>
		<g>
			<title>albA
AlbA</title>
			<polygon class="albA
AlbA" points="33,10 55,40 33,70" fill="rgb(255,255,255)" fill-opacity="1.0" stroke="rgb(0,0,0)" stroke-width="2"  />
			<g>
				<title>Nitroreductase (PF00881)
"Nitroreductase family"</title>
				<polygon class="PF00881" points="37,28 42,28 43,29 43,51 42,52 37,52" stroke-linejoin="round" width="6" height="24" fill="rgb(79,118,187)" stroke="rgb(63,94,149)" stroke-width="1" opacity="0.75" />
			</g>
			<g>
				<title>Nitroreductase (PF00881)
"Nitroreductase family"</title>
				<polygon class="PF00881" points="42,28 42,28 51,40 51,40 42,52 42,52" stroke-linejoin="round" width="9" height="24" fill="rgb(79,118,187)" stroke="rgb(63,94,149)" stroke-width="1" opacity="0.75" />
			</g>
		</g>
		<g>
			<title>albB
AlbB</title>
			<polygon class="albB
AlbB" points="54,10 64,40 54,70" fill="rgb(255,255,255)" fill-opacity="1.0" stroke="rgb(0,0,0)" stroke-width="2"  />
		</g>
		<g>
			<title>albC
AlbC</title>
			<polygon class="albC
AlbC" points="66,10 90,40 66,70" fill="rgb(255,255,255)" fill-opacity="1.0" stroke="rgb(0,0,0)" stroke-width="2"  />
			<g>
				<title>CDPS (PF16715)
"Cyclodipeptide synthase"</title>
				<polygon class="PF16715" points="67,28 76,28 86,40 76,52 67,52" stroke-linejoin="round" width="21" height="24" fill="rgb(66,210,97)" stroke="rgb(52,168,77)" stroke-width="1" opacity="0.75" />
			</g>
		</g>
		<g>
			<title>albD
AlbD</title>
			<polygon class="albD
AlbD" points="92,10 119,40 92,70" fill="rgb(255,255,255)" fill-opacity="1.0" stroke="rgb(0,0,0)" stroke-width="2"  />
		</g>
		<g>
			<title>
putative NADP-specific glutamate dehydrogenase</title>
			<polygon class="
putative NADP-specific glutamate dehydrogenase" points="123,25 130,25 130,10 160,40 130,70 130,55 123,55" fill="rgb(255,255,255)" fill-opacity="1.0" stroke="rgb(0,0,0)" stroke-width="2"  />
			<g>
				<title>ELFV_dehydrog_N (PF02812)
"Glu/Leu/Phe/Val dehydrogenase, dimerisation domain"</title>
				<rect class="PF02812" x="132" y="28" stroke-linejoin="round" width="12" height="24" fill="rgb(157,52,200)" stroke="rgb(125,41,160)" stroke-width="1" opacity="0.75" />
			</g>
			<g>
				<title>ELFV_dehydrog (PF00208)
"Glutamate/Leucine/Phenylalanine/Valine dehydrogenase"</title>
				<polygon class="PF00208" points="147,31 156,40 147,49" stroke-linejoin="round" width="13" height="24" fill="rgb(181,160,45)" stroke="rgb(144,128,36)" stroke-width="1" opacity="0.75" />
			</g>
		</g>
	</g>
</svg>
