<svg version="1.1" baseProfile="full" xmlns="http://www.w3.org/2000/svg" width="1955.5666666666666" height="80">
	<g>
		<line x1="10" y1="40.0" x2="1945.5666666666666" y2="40.0" style="stroke:rgb(70,70,70); stroke-width:3 "/>
		<g>
			<title>
hypothetical protein</title>
			<polygon class="
hypothetical protein" points="10,40 34,10 34,70" fill="rgb(255,255,255)" fill-opacity="1.0" stroke="rgb(0,0,0)" stroke-width="2"  />
		</g>
		<g>
			<title>
thioesterase family protein</title>
			<polygon class="
thioesterase family protein" points="70,25 67,25 67,10 37,40 67,70 67,55 70,55" fill="rgb(255,255,255)" fill-opacity="1.0" stroke="rgb(0,0,0)" stroke-width="2"  />
			<g>
				<title>4HBT_3 (PF13622)
"Thioesterase-like superfamily"</title>
				<polygon class="PF13622" points="41,40 53,28 60,28 60,52 53,52" stroke-linejoin="round" width="23" height="24" fill="rgb(136,87,203)" stroke="rgb(108,69,162)" stroke-width="1" opacity="0.75" />
			</g>
		</g>
		<g>
			<title>
LysR family transcriptional regulator</title>
			<polygon class="
LysR family transcriptional regulator" points="73,10 82,40 73,70" fill="rgb(255,255,255)" fill-opacity="1.0" stroke="rgb(0,0,0)" stroke-width="2"  />
			<g>
				<title>HTH_1 (PF00126)
"Bacterial regulatory helix-turn-helix protein, lysR family"</title>
				<polygon class="PF00126" points="73,28 75,28 78,36 78,44 75,52 73,52" stroke-linejoin="round" width="5" height="24" fill="rgb(125,227,79)" stroke="rgb(99,181,63)" stroke-width="1" opacity="0.75" />
			</g>
		</g>
		<g>
			<title>
MbtH family protein</title>
			<polygon class="
MbtH family protein" points="85,10 92,40 85,70" fill="rgb(255,255,255)" fill-opacity="1.0" stroke="rgb(0,0,0)" stroke-width="2"  />
			<g>
				<title>MbtH (PF03621)
"MbtH-like protein"</title>
				<polygon class="PF03621" points="85,28 85,28 89,40 85,52 85,52" stroke-linejoin="round" width="5" height="24" fill="rgb(212,165,97)" stroke="rgb(169,132,77)" stroke-width="1" opacity="0.75" />
			</g>
		</g>
		<g>
			<title>
thioesterase</title>
			<polygon class="
thioesterase" points="92,10 118,40 92,70" fill="rgb(255,255,255)" fill-opacity="1.0" stroke="rgb(0,0,0)" stroke-width="2"  />
			<g>
				<title>Thioesterase (PF00975)
"Thioesterase domain"</title>
				<polygon class="PF00975" points="94,28 104,28 114,40 104,52 94,52" stroke-linejoin="round" width="22" height="24" fill="rgb(207,80,138)" stroke="rgb(165,63,110)" stroke-width="1" opacity="0.75" />
			</g>
		</g>
		<g>
			<title>
hypothetical protein</title>
			<polygon class="
hypothetical protein" points="151,25 151,25 151,10 121,40 151,70 151,55 151,55" fill="rgb(255,255,255)" fill-opacity="1.0" stroke="rgb(0,0,0)" stroke-width="2"  />
		</g>
		<g>
			<title>
3-oxoacyl-ACP synthase II</title>
			<polygon class="
3-oxoacyl-ACP synthase II" points="188,25 185,25 185,10 155,40 185,70 185,55 188,55" fill="rgb(255,255,255)" fill-opacity="1.0" stroke="rgb(0,0,0)" stroke-width="2"  />
			<g>
				<title>ketoacyl-synt (PF00109)
"Beta-ketoacyl synthase, N-terminal domain"</title>
				<polygon class="PF00109" points="168,31 171,28 186,28 186,52 171,52 168,49" stroke-linejoin="round" width="18" height="24" fill="rgb(112,116,228)" stroke="rgb(89,92,182)" stroke-width="1" opacity="0.75" />
			</g>
		</g>
		<g>
			<title>
3-oxoacyl-ACP synthase II</title>
			<polygon class="
3-oxoacyl-ACP synthase II" points="226,25 218,25 218,10 188,40 218,70 218,55 226,55" fill="rgb(255,255,255)" fill-opacity="1.0" stroke="rgb(0,0,0)" stroke-width="2"  />
			<g>
				<title>Ketoacyl-synt_C (PF02801)
"Beta-ketoacyl synthase, C-terminal domain"</title>
				<polygon class="PF02801" points="192,40 203,29 203,51 192,40" stroke-linejoin="round" width="11" height="24" fill="rgb(215,78,102)" stroke="rgb(172,62,81)" stroke-width="1" opacity="0.75" />
			</g>
			<g>
				<title>ketoacyl-synt (PF00109)
"Beta-ketoacyl synthase, N-terminal domain"</title>
				<polygon class="PF00109" points="204,28 204,28 225,28 225,52 204,52 204,52" stroke-linejoin="round" width="21" height="24" fill="rgb(112,116,228)" stroke="rgb(89,92,182)" stroke-width="1" opacity="0.75" />
			</g>
		</g>
		<g>
			<title>
acyl carrier protein</title>
			<polygon class="
acyl carrier protein" points="233,10 242,40 233,70" fill="rgb(255,255,255)" fill-opacity="1.0" stroke="rgb(0,0,0)" stroke-width="2"  />
			<g>
				<title>PP-binding (PF00550)
"Phosphopantetheine attachment site"</title>
				<polygon class="PF00550" points="234,28 235,28 239,40 235,52 234,52" stroke-linejoin="round" width="6" height="24" fill="rgb(103,191,88)" stroke="rgb(82,152,70)" stroke-width="1" opacity="0.75" />
			</g>
		</g>
		<g>
			<title>
hypothetical protein</title>
			<polygon class="
hypothetical protein" points="242,10 254,40 242,70" fill="rgb(255,255,255)" fill-opacity="1.0" stroke="rgb(0,0,0)" stroke-width="2"  />
		</g>
		<g>
			<title>
hypothetical protein</title>
			<polygon class="
hypothetical protein" points="254,10 268,40 254,70" fill="rgb(255,255,255)" fill-opacity="1.0" stroke="rgb(0,0,0)" stroke-width="2"  />
		</g>
		<g>
			<title>
translation initiation factor IF-2</title>
			<polygon class="
translation initiation factor IF-2" points="268,10 282,40 268,70" fill="rgb(255,255,255)" fill-opacity="1.0" stroke="rgb(0,0,0)" stroke-width="2"  />
		</g>
		<g>
			<title>
3-hydroxyacyl-ACP dehydratase</title>
			<polygon class="
3-hydroxyacyl-ACP dehydratase" points="282,25 283,25 283,10 313,40 283,70 283,55 282,55" fill="rgb(255,255,255)" fill-opacity="1.0" stroke="rgb(0,0,0)" stroke-width="2"  />
			<g>
				<title>FabA (PF07977)
"FabA-like domain"</title>
				<rect class="PF07977" x="283" y="28" stroke-linejoin="round" width="13" height="24" fill="rgb(66,205,188)" stroke="rgb(52,164,150)" stroke-width="1" opacity="0.75" />
			</g>
			<g>
				<title>FabA (PF07977)
"FabA-like domain"</title>
				<polygon class="PF07977" points="298,29 309,40 298,51" stroke-linejoin="round" width="12" height="24" fill="rgb(66,205,188)" stroke="rgb(52,164,150)" stroke-width="1" opacity="0.75" />
			</g>
		</g>
		<g>
			<title>
hypothetical protein</title>
			<polygon class="
hypothetical protein" points="315,40 341,10 341,70" fill="rgb(255,255,255)" fill-opacity="1.0" stroke="rgb(0,0,0)" stroke-width="2"  />
		</g>
		<g>
			<title>
ferredoxin</title>
			<polygon class="
ferredoxin" points="346,40 352,10 352,70" fill="rgb(255,255,255)" fill-opacity="1.0" stroke="rgb(0,0,0)" stroke-width="2"  />
			<g>
				<title>Fer4_15 (PF13459)
"4Fe-4S single cluster domain"</title>
				<polygon class="PF13459" points="349,40 351,31 351,49" stroke-linejoin="round" width="5" height="24" fill="rgb(138,59,179)" stroke="rgb(110,47,143)" stroke-width="1" opacity="0.75" />
			</g>
		</g>
		<g>
			<title>
cytochrome P450</title>
			<polygon class="
cytochrome P450" points="393,25 383,25 383,10 353,40 383,70 383,55 393,55" fill="rgb(255,255,255)" fill-opacity="1.0" stroke="rgb(0,0,0)" stroke-width="2"  />
			<g>
				<title>p450 (PF00067)
"Cytochrome P450"</title>
				<polygon class="PF00067" points="357,40 369,28 375,28 375,52 369,52" stroke-linejoin="round" width="22" height="24" fill="rgb(85,216,107)" stroke="rgb(68,172,85)" stroke-width="1" opacity="0.75" />
			</g>
		</g>
		<g>
			<title>
NRPS</title>
			<polygon class="
NRPS" points="403,25 629,25 629,10 659,40 629,70 629,55 403,55" fill="rgb(255,255,255)" fill-opacity="1.0" stroke="rgb(0,0,0)" stroke-width="2"  />
			<g>
				<title>Condensation (PF00668)
"Condensation domain"</title>
				<rect class="PF00668" x="403" y="28" stroke-linejoin="round" width="44" height="24" fill="rgb(224,184,98)" stroke="rgb(179,147,78)" stroke-width="1" opacity="0.75" />
			</g>
			<g>
				<title>AMP-binding (PF00501)
"AMP-binding enzyme"</title>
				<rect class="PF00501" x="450" y="28" stroke-linejoin="round" width="42" height="24" fill="rgb(60,217,223)" stroke="rgb(48,173,178)" stroke-width="1" opacity="0.75" />
			</g>
			<g>
				<title>AMP-binding_C (PF13193)
"AMP-binding enzyme C-terminal domain"</title>
				<rect class="PF13193" x="493" y="28" stroke-linejoin="round" width="7" height="24" fill="rgb(182,50,118)" stroke="rgb(145,39,94)" stroke-width="1" opacity="0.75" />
			</g>
			<g>
				<title>PP-binding (PF00550)
"Phosphopantetheine attachment site"</title>
				<rect class="PF00550" x="503" y="28" stroke-linejoin="round" width="6" height="24" fill="rgb(103,191,88)" stroke="rgb(82,152,70)" stroke-width="1" opacity="0.75" />
			</g>
			<g>
				<title>Condensation (PF00668)
"Condensation domain"</title>
				<rect class="PF00668" x="511" y="28" stroke-linejoin="round" width="45" height="24" fill="rgb(224,184,98)" stroke="rgb(179,147,78)" stroke-width="1" opacity="0.75" />
			</g>
			<g>
				<title>AMP-binding (PF00501)
"AMP-binding enzyme"</title>
				<rect class="PF00501" x="558" y="28" stroke-linejoin="round" width="39" height="24" fill="rgb(60,217,223)" stroke="rgb(48,173,178)" stroke-width="1" opacity="0.75" />
			</g>
			<g>
				<title>Methyltransf_25 (PF13649)
"Methyltransferase domain"</title>
				<rect class="PF13649" x="610" y="28" stroke-linejoin="round" width="9" height="24" fill="rgb(227,135,74)" stroke="rgb(181,108,59)" stroke-width="1" opacity="0.75" />
			</g>
			<g>
				<title>PP-binding (PF00550)
"Phosphopantetheine attachment site"</title>
				<polygon class="PF00550" points="649,34 655,40 655,40 649,46" stroke-linejoin="round" width="6" height="24" fill="rgb(103,191,88)" stroke="rgb(82,152,70)" stroke-width="1" opacity="0.75" />
			</g>
		</g>
		<g>
			<title>
NRPS</title>
			<polygon class="
NRPS" points="659,25 887,25 887,10 917,40 887,70 887,55 659,55" fill="rgb(255,255,255)" fill-opacity="1.0" stroke="rgb(0,0,0)" stroke-width="2"  />
			<g>
				<title>Condensation (PF00668)
"Condensation domain"</title>
				<rect class="PF00668" x="659" y="28" stroke-linejoin="round" width="43" height="24" fill="rgb(224,184,98)" stroke="rgb(179,147,78)" stroke-width="1" opacity="0.75" />
			</g>
			<g>
				<title>AMP-binding (PF00501)
"AMP-binding enzyme"</title>
				<rect class="PF00501" x="705" y="28" stroke-linejoin="round" width="37" height="24" fill="rgb(60,217,223)" stroke="rgb(48,173,178)" stroke-width="1" opacity="0.75" />
			</g>
			<g>
				<title>AMP-binding_C (PF13193)
"AMP-binding enzyme C-terminal domain"</title>
				<rect class="PF13193" x="744" y="28" stroke-linejoin="round" width="7" height="24" fill="rgb(182,50,118)" stroke="rgb(145,39,94)" stroke-width="1" opacity="0.75" />
			</g>
			<g>
				<title>PP-binding (PF00550)
"Phosphopantetheine attachment site"</title>
				<rect class="PF00550" x="754" y="28" stroke-linejoin="round" width="6" height="24" fill="rgb(103,191,88)" stroke="rgb(82,152,70)" stroke-width="1" opacity="0.75" />
			</g>
			<g>
				<title>Condensation (PF00668)
"Condensation domain"</title>
				<rect class="PF00668" x="762" y="28" stroke-linejoin="round" width="44" height="24" fill="rgb(224,184,98)" stroke="rgb(179,147,78)" stroke-width="1" opacity="0.75" />
			</g>
			<g>
				<title>AMP-binding (PF00501)
"AMP-binding enzyme"</title>
				<rect class="PF00501" x="809" y="28" stroke-linejoin="round" width="39" height="24" fill="rgb(60,217,223)" stroke="rgb(48,173,178)" stroke-width="1" opacity="0.75" />
			</g>
			<g>
				<title>AMP-binding_C (PF13193)
"AMP-binding enzyme C-terminal domain"</title>
				<rect class="PF13193" x="849" y="28" stroke-linejoin="round" width="7" height="24" fill="rgb(182,50,118)" stroke="rgb(145,39,94)" stroke-width="1" opacity="0.75" />
			</g>
			<g>
				<title>PP-binding (PF00550)
"Phosphopantetheine attachment site"</title>
				<rect class="PF00550" x="859" y="28" stroke-linejoin="round" width="6" height="24" fill="rgb(103,191,88)" stroke="rgb(82,152,70)" stroke-width="1" opacity="0.75" />
			</g>
			<g>
				<title>Condensation (PF00668)
"Condensation domain"</title>
				<polygon class="PF00668" points="867,28 901,28 913,40 901,52 867,52" stroke-linejoin="round" width="47" height="24" fill="rgb(224,184,98)" stroke="rgb(179,147,78)" stroke-width="1" opacity="0.75" />
			</g>
		</g>
		<g>
			<title>
NRPS</title>
			<polygon class="
NRPS" points="918,25 1183,25 1183,10 1213,40 1183,70 1183,55 918,55" fill="rgb(255,255,255)" fill-opacity="1.0" stroke="rgb(0,0,0)" stroke-width="2"  />
			<g>
				<title>Condensation (PF00668)
"Condensation domain"</title>
				<rect class="PF00668" x="918" y="28" stroke-linejoin="round" width="43" height="24" fill="rgb(224,184,98)" stroke="rgb(179,147,78)" stroke-width="1" opacity="0.75" />
			</g>
			<g>
				<title>PP-binding (PF00550)
"Phosphopantetheine attachment site"</title>
				<rect class="PF00550" x="966" y="28" stroke-linejoin="round" width="6" height="24" fill="rgb(103,191,88)" stroke="rgb(82,152,70)" stroke-width="1" opacity="0.75" />
			</g>
			<g>
				<title>Condensation (PF00668)
"Condensation domain"</title>
				<rect class="PF00668" x="974" y="28" stroke-linejoin="round" width="45" height="24" fill="rgb(224,184,98)" stroke="rgb(179,147,78)" stroke-width="1" opacity="0.75" />
			</g>
			<g>
				<title>AMP-binding (PF00501)
"AMP-binding enzyme"</title>
				<rect class="PF00501" x="1022" y="28" stroke-linejoin="round" width="39" height="24" fill="rgb(60,217,223)" stroke="rgb(48,173,178)" stroke-width="1" opacity="0.75" />
			</g>
			<g>
				<title>AMP-binding_C (PF13193)
"AMP-binding enzyme C-terminal domain"</title>
				<rect class="PF13193" x="1062" y="28" stroke-linejoin="round" width="7" height="24" fill="rgb(182,50,118)" stroke="rgb(145,39,94)" stroke-width="1" opacity="0.75" />
			</g>
			<g>
				<title>PP-binding (PF00550)
"Phosphopantetheine attachment site"</title>
				<rect class="PF00550" x="1072" y="28" stroke-linejoin="round" width="6" height="24" fill="rgb(103,191,88)" stroke="rgb(82,152,70)" stroke-width="1" opacity="0.75" />
			</g>
			<g>
				<title>Condensation (PF00668)
"Condensation domain"</title>
				<rect class="PF00668" x="1080" y="28" stroke-linejoin="round" width="45" height="24" fill="rgb(224,184,98)" stroke="rgb(179,147,78)" stroke-width="1" opacity="0.75" />
			</g>
			<g>
				<title>AMP-binding (PF00501)
"AMP-binding enzyme"</title>
				<rect class="PF00501" x="1128" y="28" stroke-linejoin="round" width="40" height="24" fill="rgb(60,217,223)" stroke="rgb(48,173,178)" stroke-width="1" opacity="0.75" />
			</g>
			<g>
				<title>AMP-binding_C (PF13193)
"AMP-binding enzyme C-terminal domain"</title>
				<rect class="PF13193" x="1170" y="28" stroke-linejoin="round" width="7" height="24" fill="rgb(182,50,118)" stroke="rgb(145,39,94)" stroke-width="1" opacity="0.75" />
			</g>
			<g>
				<title>PP-binding (PF00550)
"Phosphopantetheine attachment site"</title>
				<rect class="PF00550" x="1180" y="28" stroke-linejoin="round" width="6" height="24" fill="rgb(103,191,88)" stroke="rgb(82,152,70)" stroke-width="1" opacity="0.75" />
			</g>
			<g>
				<title>Thioesterase (PF00975)
"Thioesterase domain"</title>
				<polygon class="PF00975" points="1188,28 1197,28 1209,40 1197,52 1188,52" stroke-linejoin="round" width="23" height="24" fill="rgb(207,80,138)" stroke="rgb(165,63,110)" stroke-width="1" opacity="0.75" />
			</g>
		</g>
		<g>
			<title>
thioesterase</title>
			<polygon class="
thioesterase" points="1214,10 1237,40 1214,70" fill="rgb(255,255,255)" fill-opacity="1.0" stroke="rgb(0,0,0)" stroke-width="2"  />
			<g>
				<title>Thioesterase (PF00975)
"Thioesterase domain"</title>
				<polygon class="PF00975" points="1214,28 1224,28 1233,40 1224,52 1214,52" stroke-linejoin="round" width="22" height="24" fill="rgb(207,80,138)" stroke="rgb(165,63,110)" stroke-width="1" opacity="0.75" />
			</g>
		</g>
		<g>
			<title>
NAD(P)-dependent oxidoreductase</title>
			<polygon class="
NAD(P)-dependent oxidoreductase" points="1238,10 1265,40 1238,70" fill="rgb(255,255,255)" fill-opacity="1.0" stroke="rgb(0,0,0)" stroke-width="2"  />
			<g>
				<title>adh_short_C2 (PF13561)
"Enoyl-(Acyl carrier protein) reductase"</title>
				<polygon class="PF13561" points="1239,28 1249,28 1261,40 1249,52 1239,52" stroke-linejoin="round" width="26" height="24" fill="rgb(73,205,127)" stroke="rgb(58,164,101)" stroke-width="1" opacity="0.75" />
			</g>
		</g>
		<g>
			<title>
NRPS</title>
			<polygon class="
NRPS" points="1267,25 1345,25 1345,10 1375,40 1345,70 1345,55 1267,55" fill="rgb(255,255,255)" fill-opacity="1.0" stroke="rgb(0,0,0)" stroke-width="2"  />
			<g>
				<title>AMP-binding (PF00501)
"AMP-binding enzyme"</title>
				<rect class="PF00501" x="1317" y="28" stroke-linejoin="round" width="39" height="24" fill="rgb(60,217,223)" stroke="rgb(48,173,178)" stroke-width="1" opacity="0.75" />
			</g>
			<g>
				<title>AMP-binding_C (PF13193)
"AMP-binding enzyme C-terminal domain"</title>
				<polygon class="PF13193" points="1357,28 1359,28 1364,33 1364,47 1359,52 1357,52" stroke-linejoin="round" width="7" height="24" fill="rgb(182,50,118)" stroke="rgb(145,39,94)" stroke-width="1" opacity="0.75" />
			</g>
			<g>
				<title>PP-binding (PF00550)
"Phosphopantetheine attachment site"</title>
				<polygon class="PF00550" points="1368,37 1371,40 1368,43" stroke-linejoin="round" width="6" height="24" fill="rgb(103,191,88)" stroke="rgb(82,152,70)" stroke-width="1" opacity="0.75" />
			</g>
		</g>
		<g>
			<title>
NRPS</title>
			<polygon class="
NRPS" points="1377,25 1405,25 1405,10 1435,40 1405,70 1405,55 1377,55" fill="rgb(255,255,255)" fill-opacity="1.0" stroke="rgb(0,0,0)" stroke-width="2"  />
			<g>
				<title>AMP-binding (PF00501)
"AMP-binding enzyme"</title>
				<rect class="PF00501" x="1378" y="28" stroke-linejoin="round" width="39" height="24" fill="rgb(60,217,223)" stroke="rgb(48,173,178)" stroke-width="1" opacity="0.75" />
			</g>
			<g>
				<title>AMP-binding_C (PF13193)
"AMP-binding enzyme C-terminal domain"</title>
				<polygon class="PF13193" points="1418,28 1419,28 1425,34 1425,46 1419,52 1418,52" stroke-linejoin="round" width="7" height="24" fill="rgb(182,50,118)" stroke="rgb(145,39,94)" stroke-width="1" opacity="0.75" />
			</g>
			<g>
				<title>PP-binding (PF00550)
"Phosphopantetheine attachment site"</title>
				<polygon class="PF00550" points="1428,37 1431,40 1428,43" stroke-linejoin="round" width="6" height="24" fill="rgb(103,191,88)" stroke="rgb(82,152,70)" stroke-width="1" opacity="0.75" />
			</g>
		</g>
		<g>
			<title>
ferredoxin reductase or FAD-dependent oxidoreductase</title>
			<polygon class="
ferredoxin reductase or FAD-dependent oxidoreductase" points="1435,25 1445,25 1445,10 1475,40 1445,70 1445,55 1435,55" fill="rgb(255,255,255)" fill-opacity="1.0" stroke="rgb(0,0,0)" stroke-width="2"  />
			<g>
				<title>Pyr_redox_2 (PF07992)
"Pyridine nucleotide-disulphide oxidoreductase"</title>
				<polygon class="PF07992" points="1435,28 1458,28 1464,34 1464,46 1458,52 1435,52" stroke-linejoin="round" width="29" height="24" fill="rgb(83,223,167)" stroke="rgb(66,178,133)" stroke-width="1" opacity="0.75" />
			</g>
			<g>
				<title>Reductase_C (PF14759)
"Reductase C-terminal"</title>
				<polygon class="PF14759" points="1467,37 1470,40 1467,43" stroke-linejoin="round" width="7" height="24" fill="rgb(71,86,184)" stroke="rgb(56,68,147)" stroke-width="1" opacity="0.75" />
			</g>
		</g>
		<g>
			<title>
alpha/beta hydrolase</title>
			<polygon class="
alpha/beta hydrolase" points="1483,10 1510,40 1483,70" fill="rgb(255,255,255)" fill-opacity="1.0" stroke="rgb(0,0,0)" stroke-width="2"  />
			<g>
				<title>Abhydrolase_6 (PF12697)
"Alpha/beta hydrolase family"</title>
				<polygon class="PF12697" points="1485,28 1494,28 1506,40 1494,52 1485,52" stroke-linejoin="round" width="22" height="24" fill="rgb(113,71,219)" stroke="rgb(90,56,175)" stroke-width="1" opacity="0.75" />
			</g>
		</g>
		<g>
			<title>
acyl-CoA thioesterase</title>
			<polygon class="
acyl-CoA thioesterase" points="1511,25 1514,25 1514,10 1544,40 1514,70 1514,55 1511,55" fill="rgb(255,255,255)" fill-opacity="1.0" stroke="rgb(0,0,0)" stroke-width="2"  />
		</g>
		<g>
			<title>
isomerase</title>
			<polygon class="
isomerase" points="1546,10 1570,40 1546,70" fill="rgb(255,255,255)" fill-opacity="1.0" stroke="rgb(0,0,0)" stroke-width="2"  />
			<g>
				<title>DSBA (PF01323)
"DSBA-like thioredoxin domain"</title>
				<polygon class="PF01323" points="1546,28 1557,28 1565,39 1565,41 1557,52 1546,52" stroke-linejoin="round" width="19" height="24" fill="rgb(221,114,99)" stroke="rgb(176,91,79)" stroke-width="1" opacity="0.75" />
			</g>
		</g>
		<g>
			<title>
NAD(P)/FAD-dependent oxidoreductase</title>
			<polygon class="
NAD(P)/FAD-dependent oxidoreductase" points="1573,25 1600,25 1600,10 1630,40 1600,70 1600,55 1573,55" fill="rgb(255,255,255)" fill-opacity="1.0" stroke="rgb(0,0,0)" stroke-width="2"  />
			<g>
				<title>Amino_oxidase (PF01593)
"Flavin containing amine oxidoreductase"</title>
				<polygon class="PF01593" points="1575,28 1613,28 1624,39 1624,41 1613,52 1575,52" stroke-linejoin="round" width="49" height="24" fill="rgb(184,74,52)" stroke="rgb(147,59,41)" stroke-width="1" opacity="0.75" />
			</g>
		</g>
		<g>
			<title>
acyl carrier protein</title>
			<polygon class="
acyl carrier protein" points="1635,10 1643,40 1635,70" fill="rgb(255,255,255)" fill-opacity="1.0" stroke="rgb(0,0,0)" stroke-width="2"  />
			<g>
				<title>PP-binding (PF00550)
"Phosphopantetheine attachment site"</title>
				<polygon class="PF00550" points="1636,28 1636,28 1640,40 1636,52 1636,52" stroke-linejoin="round" width="6" height="24" fill="rgb(103,191,88)" stroke="rgb(82,152,70)" stroke-width="1" opacity="0.75" />
			</g>
		</g>
		<g>
			<title>
3-oxoacyl-ACP synthase</title>
			<polygon class="
3-oxoacyl-ACP synthase" points="1647,25 1658,25 1658,10 1688,40 1658,70 1658,55 1647,55" fill="rgb(255,255,255)" fill-opacity="1.0" stroke="rgb(0,0,0)" stroke-width="2"  />
			<g>
				<title>ketoacyl-synt (PF00109)
"Beta-ketoacyl synthase, N-terminal domain"</title>
				<rect class="PF00109" x="1648" y="28" stroke-linejoin="round" width="23" height="24" fill="rgb(112,116,228)" stroke="rgb(89,92,182)" stroke-width="1" opacity="0.75" />
			</g>
			<g>
				<title>Ketoacyl-synt_C (PF02801)
"Beta-ketoacyl synthase, C-terminal domain"</title>
				<polygon class="PF02801" points="1673,29 1684,40 1684,40 1673,51" stroke-linejoin="round" width="11" height="24" fill="rgb(215,78,102)" stroke="rgb(172,62,81)" stroke-width="1" opacity="0.75" />
			</g>
		</g>
		<g>
			<title>
3-oxoacyl-ACP synthase</title>
			<polygon class="
3-oxoacyl-ACP synthase" points="1689,25 1696,25 1696,10 1726,40 1696,70 1696,55 1689,55" fill="rgb(255,255,255)" fill-opacity="1.0" stroke="rgb(0,0,0)" stroke-width="2"  />
			<g>
				<title>ketoacyl-synt (PF00109)
"Beta-ketoacyl synthase, N-terminal domain"</title>
				<rect class="PF00109" x="1689" y="28" stroke-linejoin="round" width="20" height="24" fill="rgb(112,116,228)" stroke="rgb(89,92,182)" stroke-width="1" opacity="0.75" />
			</g>
			<g>
				<title>Ketoacyl-synt_C (PF02801)
"Beta-ketoacyl synthase, C-terminal domain"</title>
				<polygon class="PF02801" points="1711,29 1722,40 1722,40 1711,51" stroke-linejoin="round" width="11" height="24" fill="rgb(215,78,102)" stroke="rgb(172,62,81)" stroke-width="1" opacity="0.75" />
			</g>
		</g>
		<g>
			<title>
3-oxoacyl-ACP synthase</title>
			<polygon class="
3-oxoacyl-ACP synthase" points="1727,25 1728,25 1728,10 1758,40 1728,70 1728,55 1727,55" fill="rgb(255,255,255)" fill-opacity="1.0" stroke="rgb(0,0,0)" stroke-width="2"  />
			<g>
				<title>ketoacyl-synt (PF00109)
"Beta-ketoacyl synthase, N-terminal domain"</title>
				<polygon class="PF00109" points="1730,28 1742,28 1744,30 1744,50 1742,52 1730,52" stroke-linejoin="round" width="14" height="24" fill="rgb(112,116,228)" stroke="rgb(89,92,182)" stroke-width="1" opacity="0.75" />
			</g>
		</g>
		<g>
			<title>
3-oxoacyl-ACP synthase</title>
			<polygon class="
3-oxoacyl-ACP synthase" points="1760,25 1767,25 1767,10 1797,40 1767,70 1767,55 1760,55" fill="rgb(255,255,255)" fill-opacity="1.0" stroke="rgb(0,0,0)" stroke-width="2"  />
			<g>
				<title>ketoacyl-synt (PF00109)
"Beta-ketoacyl synthase, N-terminal domain"</title>
				<polygon class="PF00109" points="1761,28 1781,28 1783,30 1783,50 1781,52 1761,52" stroke-linejoin="round" width="22" height="24" fill="rgb(112,116,228)" stroke="rgb(89,92,182)" stroke-width="1" opacity="0.75" />
			</g>
		</g>
		<g>
			<title>
acyl carrier protein</title>
			<polygon class="
acyl carrier protein" points="1799,10 1807,40 1799,70" fill="rgb(255,255,255)" fill-opacity="1.0" stroke="rgb(0,0,0)" stroke-width="2"  />
			<g>
				<title>PP-binding (PF00550)
"Phosphopantetheine attachment site"</title>
				<polygon class="PF00550" points="1800,28 1800,28 1804,40 1800,52 1800,52" stroke-linejoin="round" width="6" height="24" fill="rgb(103,191,88)" stroke="rgb(82,152,70)" stroke-width="1" opacity="0.75" />
			</g>
		</g>
		<g>
			<title>
3-oxoacyl-ACP dehydratase</title>
			<polygon class="
3-oxoacyl-ACP dehydratase" points="1808,10 1821,40 1808,70" fill="rgb(255,255,255)" fill-opacity="1.0" stroke="rgb(0,0,0)" stroke-width="2"  />
			<g>
				<title>FabA (PF07977)
"FabA-like domain"</title>
				<polygon class="PF07977" points="1809,28 1812,28 1818,40 1812,52 1809,52" stroke-linejoin="round" width="11" height="24" fill="rgb(66,205,188)" stroke="rgb(52,164,150)" stroke-width="1" opacity="0.75" />
			</g>
		</g>
		<g>
			<title>
3-oxoacyl-ACP dehydratase</title>
			<polygon class="
3-oxoacyl-ACP dehydratase" points="1821,10 1836,40 1821,70" fill="rgb(255,255,255)" fill-opacity="1.0" stroke="rgb(0,0,0)" stroke-width="2"  />
			<g>
				<title>FabA (PF07977)
"FabA-like domain"</title>
				<polygon class="PF07977" points="1822,28 1826,28 1833,40 1826,52 1822,52" stroke-linejoin="round" width="12" height="24" fill="rgb(66,205,188)" stroke="rgb(52,164,150)" stroke-width="1" opacity="0.75" />
			</g>
		</g>
		<g>
			<title>
3-oxoacyl-reductase</title>
			<polygon class="
3-oxoacyl-reductase" points="1838,10 1862,40 1838,70" fill="rgb(255,255,255)" fill-opacity="1.0" stroke="rgb(0,0,0)" stroke-width="2"  />
			<g>
				<title>adh_short_C2 (PF13561)
"Enoyl-(Acyl carrier protein) reductase"</title>
				<polygon class="PF13561" points="1839,28 1849,28 1859,40 1849,52 1839,52" stroke-linejoin="round" width="23" height="24" fill="rgb(73,205,127)" stroke="rgb(58,164,101)" stroke-width="1" opacity="0.75" />
			</g>
		</g>
		<g>
			<title>
tRNA synthetase</title>
			<polygon class="
tRNA synthetase" points="1862,10 1880,40 1862,70" fill="rgb(255,255,255)" fill-opacity="1.0" stroke="rgb(0,0,0)" stroke-width="2"  />
			<g>
				<title>tRNA_edit (PF04073)
"Aminoacyl-tRNA editing domain"</title>
				<polygon class="PF04073" points="1864,28 1869,28 1876,40 1876,40 1869,52 1864,52" stroke-linejoin="round" width="12" height="24" fill="rgb(87,163,195)" stroke="rgb(69,130,156)" stroke-width="1" opacity="0.75" />
			</g>
		</g>
		<g>
			<title>
ABC transporter</title>
			<polygon class="
ABC transporter" points="1884,25 1885,25 1885,10 1915,40 1885,70 1885,55 1884,55" fill="rgb(255,255,255)" fill-opacity="1.0" stroke="rgb(0,0,0)" stroke-width="2"  />
			<g>
				<title>ABC_tran (PF00005)
"ABC transporter"</title>
				<polygon class="PF00005" points="1886,28 1899,28 1900,29 1900,51 1899,52 1886,52" stroke-linejoin="round" width="14" height="24" fill="rgb(129,201,63)" stroke="rgb(103,160,50)" stroke-width="1" opacity="0.75" />
			</g>
			<g>
				<title>DUF4162 (PF13732)
"Domain of unknown function (DUF4162)"</title>
				<polygon class="PF13732" points="1905,34 1911,40 1905,46" stroke-linejoin="round" width="9" height="24" fill="rgb(100,223,143)" stroke="rgb(80,178,114)" stroke-width="1" opacity="0.75" />
			</g>
		</g>
		<g>
			<title>
multidrug ABC transporter permease</title>
			<polygon class="
multidrug ABC transporter permease" points="1917,10 1945,40 1917,70" fill="rgb(255,255,255)" fill-opacity="1.0" stroke="rgb(0,0,0)" stroke-width="2"  />
			<g>
				<title>ABC2_membrane (PF01061)
"ABC-2 type transporter"</title>
				<polygon class="PF01061" points="1920,28 1929,28 1940,40 1929,52 1920,52" stroke-linejoin="round" width="21" height="24" fill="rgb(139,217,106)" stroke="rgb(111,173,84)" stroke-width="1" opacity="0.75" />
			</g>
		</g>
	</g>
</svg>
