<svg version="1.1" baseProfile="full" xmlns="http://www.w3.org/2000/svg" width="490.3333333333333" height="80">
	<g>
		<line x1="10" y1="40.0" x2="480.3333333333333" y2="40.0" style="stroke:rgb(70,70,70); stroke-width:3 "/>
		<g>
			<title>tunC
GNAT family N-acetyltransferase</title>
			<polygon class="tunC
GNAT family N-acetyltransferase" points="43,25 40,25 40,10 10,40 40,70 40,55 43,55" fill="rgb(255,255,255)" fill-opacity="1.0" stroke="rgb(0,0,0)" stroke-width="2"  />
		</g>
		<g>
			<title>tunA
dTDP-glucose 4,6-dehydratase/UDP-glucose 4-epimerase</title>
			<polygon class="tunA
dTDP-glucose 4,6-dehydratase/UDP-glucose 4-epimerase" points="57,25 59,25 59,10 89,40 59,70 59,55 57,55" fill="rgb(255,255,255)" fill-opacity="1.0" stroke="rgb(0,0,0)" stroke-width="2"  />
			<g>
				<title>Epimerase (PF01370)
"NAD dependent epimerase/dehydratase family"</title>
				<polygon class="PF01370" points="58,28 72,28 80,36 80,44 72,52 58,52" stroke-linejoin="round" width="22" height="24" fill="rgb(98,102,214)" stroke="rgb(78,81,171)" stroke-width="1" opacity="0.75" />
			</g>
		</g>
		<g>
			<title>tunB
radical SAM superfamily protein</title>
			<polygon class="tunB
radical SAM superfamily protein" points="89,25 92,25 92,10 122,40 92,70 92,55 89,55" fill="rgb(255,255,255)" fill-opacity="1.0" stroke="rgb(0,0,0)" stroke-width="2"  />
			<g>
				<title>Radical_SAM (PF04055)
"Radical SAM superfamily"</title>
				<polygon class="PF04055" points="90,28 106,28 110,32 110,48 106,52 90,52" stroke-linejoin="round" width="20" height="24" fill="rgb(149,56,222)" stroke="rgb(119,44,177)" stroke-width="1" opacity="0.75" />
			</g>
		</g>
		<g>
			<title>tunK
acyl carrier protein/phosphopantetheine-binding protein</title>
			<polygon class="tunK
acyl carrier protein/phosphopantetheine-binding protein" points="122,10 131,40 122,70" fill="rgb(255,255,255)" fill-opacity="1.0" stroke="rgb(0,0,0)" stroke-width="2"  />
			<g>
				<title>PP-binding (PF00550)
"Phosphopantetheine attachment site"</title>
				<polygon class="PF00550" points="123,28 124,28 128,40 124,52 123,52" stroke-linejoin="round" width="6" height="24" fill="rgb(103,191,88)" stroke="rgb(82,152,70)" stroke-width="1" opacity="0.75" />
			</g>
		</g>
		<g>
			<title>tunS
hypothetical protein</title>
			<polygon class="tunS
hypothetical protein" points="132,10 144,40 132,70" fill="rgb(255,255,255)" fill-opacity="1.0" stroke="rgb(0,0,0)" stroke-width="2"  />
		</g>
		<g>
			<title>tunT
hypothetical protein</title>
			<polygon class="tunT
hypothetical protein" points="142,10 153,40 142,70" fill="rgb(255,255,255)" fill-opacity="1.0" stroke="rgb(0,0,0)" stroke-width="2"  />
		</g>
		<g>
			<title>tunH
type I phosphodiesterase/nucleotide pyrophosphatase</title>
			<polygon class="tunH
type I phosphodiesterase/nucleotide pyrophosphatase" points="152,25 173,25 173,10 203,40 173,70 173,55 152,55" fill="rgb(255,255,255)" fill-opacity="1.0" stroke="rgb(0,0,0)" stroke-width="2"  />
			<g>
				<title>Phosphodiest (PF01663)
"Type I phosphodiesterase / nucleotide pyrophosphatase"</title>
				<rect class="PF01663" x="153" y="28" stroke-linejoin="round" width="13" height="24" fill="rgb(178,65,158)" stroke="rgb(142,52,126)" stroke-width="1" opacity="0.75" />
			</g>
		</g>
		<g>
			<title>tunQ
enoyl-CoA hydratase/isomerase</title>
			<polygon class="tunQ
enoyl-CoA hydratase/isomerase" points="203,25 208,25 208,10 238,40 208,70 208,55 203,55" fill="rgb(255,255,255)" fill-opacity="1.0" stroke="rgb(0,0,0)" stroke-width="2"  />
		</g>
		<g>
			<title>tunP
beta-ketoacyl-[acyl-carrier-protein] synthase II/polyketide synthase</title>
			<polygon class="tunP
beta-ketoacyl-[acyl-carrier-protein] synthase II/polyketide synthase" points="234,25 244,25 244,10 274,40 244,70 244,55 234,55" fill="rgb(255,255,255)" fill-opacity="1.0" stroke="rgb(0,0,0)" stroke-width="2"  />
			<g>
				<title>ketoacyl-synt (PF00109)
"Beta-ketoacyl synthase, N-terminal domain"</title>
				<rect class="PF00109" x="234" y="28" stroke-linejoin="round" width="24" height="24" fill="rgb(112,116,228)" stroke="rgb(89,92,182)" stroke-width="1" opacity="0.75" />
			</g>
			<g>
				<title>Ketoacyl-synt_C (PF02801)
"Beta-ketoacyl synthase, C-terminal domain"</title>
				<polygon class="PF02801" points="259,29 270,40 270,40 259,51" stroke-linejoin="round" width="11" height="24" fill="rgb(215,78,102)" stroke="rgb(172,62,81)" stroke-width="1" opacity="0.75" />
			</g>
		</g>
		<g>
			<title>tunL
phosphatidylglycerophosphatase B</title>
			<polygon class="tunL
phosphatidylglycerophosphatase B" points="275,10 299,40 275,70" fill="rgb(255,255,255)" fill-opacity="1.0" stroke="rgb(0,0,0)" stroke-width="2"  />
			<g>
				<title>PAP2 (PF01569)
"PAP2 superfamily"</title>
				<polygon class="PF01569" points="284,28 286,28 295,40 286,52 284,52" stroke-linejoin="round" width="13" height="24" fill="rgb(133,203,94)" stroke="rgb(106,162,75)" stroke-width="1" opacity="0.75" />
			</g>
		</g>
		<g>
			<title>tunD
glycosyl transferase family 1</title>
			<polygon class="tunD
glycosyl transferase family 1" points="299,25 314,25 314,10 344,40 314,70 314,55 299,55" fill="rgb(255,255,255)" fill-opacity="1.0" stroke="rgb(0,0,0)" stroke-width="2"  />
			<g>
				<title>Glycos_transf_1 (PF00534)
"Glycosyl transferases group 1"</title>
				<polygon class="PF00534" points="316,28 328,28 332,32 332,48 328,52 316,52" stroke-linejoin="round" width="16" height="24" fill="rgb(228,92,150)" stroke="rgb(182,73,119)" stroke-width="1" opacity="0.75" />
			</g>
		</g>
		<g>
			<title>tunE
N-acetylglucosaminyl deacetylase LmbE family</title>
			<polygon class="tunE
N-acetylglucosaminyl deacetylase LmbE family" points="344,10 367,40 344,70" fill="rgb(255,255,255)" fill-opacity="1.0" stroke="rgb(0,0,0)" stroke-width="2"  />
			<g>
				<title>PIG-L (PF02585)
"GlcNAc-PI de-N-acetylase"</title>
				<polygon class="PF02585" points="344,28 354,28 356,31 356,49 354,52 344,52" stroke-linejoin="round" width="12" height="24" fill="rgb(97,215,95)" stroke="rgb(77,172,76)" stroke-width="1" opacity="0.75" />
			</g>
		</g>
		<g>
			<title>tunI
ABC-type multidrug transport system ATPase</title>
			<polygon class="tunI
ABC-type multidrug transport system ATPase" points="367,25 369,25 369,10 399,40 369,70 369,55 367,55" fill="rgb(255,255,255)" fill-opacity="1.0" stroke="rgb(0,0,0)" stroke-width="2"  />
			<g>
				<title>ABC_tran (PF00005)
"ABC transporter"</title>
				<polygon class="PF00005" points="370,28 382,28 384,30 384,50 382,52 370,52" stroke-linejoin="round" width="14" height="24" fill="rgb(129,201,63)" stroke="rgb(103,160,50)" stroke-width="1" opacity="0.75" />
			</g>
		</g>
		<g>
			<title>tunJ
ABC-type multidrug transport system permease</title>
			<polygon class="tunJ
ABC-type multidrug transport system permease" points="398,10 424,40 398,70" fill="rgb(255,255,255)" fill-opacity="1.0" stroke="rgb(0,0,0)" stroke-width="2"  />
			<g>
				<title>ABC2_membrane (PF01061)
"ABC-2 type transporter"</title>
				<polygon class="PF01061" points="400,28 410,28 420,40 420,40 410,52 400,52" stroke-linejoin="round" width="20" height="24" fill="rgb(139,217,106)" stroke="rgb(111,173,84)" stroke-width="1" opacity="0.75" />
			</g>
		</g>
		<g>
			<title>tunF
UDP-glucose 4-epimerase GalE</title>
			<polygon class="tunF
UDP-glucose 4-epimerase GalE" points="426,25 427,25 427,10 457,40 427,70 427,55 426,55" fill="rgb(255,255,255)" fill-opacity="1.0" stroke="rgb(0,0,0)" stroke-width="2"  />
			<g>
				<title>Epimerase (PF01370)
"NAD dependent epimerase/dehydratase family"</title>
				<polygon class="PF01370" points="426,28 441,28 450,37 450,43 441,52 426,52" stroke-linejoin="round" width="24" height="24" fill="rgb(98,102,214)" stroke="rgb(78,81,171)" stroke-width="1" opacity="0.75" />
			</g>
		</g>
		<g>
			<title>tunR
4'-phosphopantetheinyl transferase</title>
			<polygon class="tunR
4'-phosphopantetheinyl transferase" points="457,10 479,40 457,70" fill="rgb(255,255,255)" fill-opacity="1.0" stroke="rgb(0,0,0)" stroke-width="2"  />
			<g>
				<title>ACPS (PF01648)
"4'-phosphopantetheinyl transferase superfamily"</title>
				<polygon class="PF01648" points="466,28 467,28 473,37 473,43 467,52 466,52" stroke-linejoin="round" width="7" height="24" fill="rgb(85,184,135)" stroke="rgb(68,147,108)" stroke-width="1" opacity="0.75" />
			</g>
		</g>
	</g>
</svg>
