<svg version="1.1" baseProfile="full" xmlns="http://www.w3.org/2000/svg" width="229.8" height="80">
	<g>
		<line x1="10" y1="40.0" x2="219.8" y2="40.0" style="stroke:rgb(70,70,70); stroke-width:3 "/>
		<g>
			<title> (MXAN_6634)
conserved hypothetical protein</title>
			<polygon class=" (MXAN_6634)
conserved hypothetical protein" points="52,25 40,25 40,10 10,40 40,70 40,55 52,55" fill="rgb(255,255,255)" fill-opacity="1.0" stroke="rgb(0,0,0)" stroke-width="2"  />
			<g>
				<title>Lactamase_B_2 (PF12706)
"Beta-lactamase superfamily domain"</title>
				<polygon class="PF12706" points="14,40 26,28 33,28 33,52 26,52 14,40" stroke-linejoin="round" width="19" height="24" fill="rgb(62,169,197)" stroke="rgb(49,135,157)" stroke-width="1" opacity="0.75" />
			</g>
		</g>
		<g>
			<title> (MXAN_6635)
monooxygenase, FAD-binding</title>
			<polygon class=" (MXAN_6635)
monooxygenase, FAD-binding" points="88,25 82,25 82,10 52,40 82,70 82,55 88,55" fill="rgb(255,255,255)" fill-opacity="1.0" stroke="rgb(0,0,0)" stroke-width="2"  />
			<g>
				<title>FAD_binding_3 (PF01494)
"FAD binding domain"</title>
				<polygon class="PF01494" points="56,40 68,28 87,28 87,52 68,52" stroke-linejoin="round" width="32" height="24" fill="rgb(182,175,59)" stroke="rgb(145,140,47)" stroke-width="1" opacity="0.75" />
			</g>
		</g>
		<g>
			<title> (MXAN_6636)
AMP-binding protein</title>
			<polygon class=" (MXAN_6636)
AMP-binding protein" points="150,25 121,25 121,10 91,40 121,70 121,55 150,55" fill="rgb(255,255,255)" fill-opacity="1.0" stroke="rgb(0,0,0)" stroke-width="2"  />
			<g>
				<title>AMP-binding (PF00501)
"AMP-binding enzyme"</title>
				<polygon class="PF00501" points="104,31 107,28 147,28 147,52 107,52 104,49" stroke-linejoin="round" width="43" height="24" fill="rgb(60,217,223)" stroke="rgb(48,173,178)" stroke-width="1" opacity="0.75" />
			</g>
		</g>
		<g>
			<title>acp (MXAN_6637)
acyl carrier protein</title>
			<polygon class="acp (MXAN_6637)
acyl carrier protein" points="150,40 158,10 158,70" fill="rgb(255,255,255)" fill-opacity="1.0" stroke="rgb(0,0,0)" stroke-width="2"  />
			<g>
				<title>PP-binding (PF00550)
"Phosphopantetheine attachment site"</title>
				<polygon class="PF00550" points="153,40 156,28 157,28 157,52 156,52" stroke-linejoin="round" width="6" height="24" fill="rgb(103,191,88)" stroke="rgb(82,152,70)" stroke-width="1" opacity="0.75" />
			</g>
		</g>
		<g>
			<title> (MXAN_6638)
conserved hypothetical protein</title>
			<polygon class=" (MXAN_6638)
conserved hypothetical protein" points="160,40 181,10 181,70" fill="rgb(255,255,255)" fill-opacity="1.0" stroke="rgb(0,0,0)" stroke-width="2"  />
		</g>
		<g>
			<title> (MXAN_6639)
chalcone/stilbene synthase family protein</title>
			<polygon class=" (MXAN_6639)
chalcone/stilbene synthase family protein" points="214,25 208,25 208,10 178,40 208,70 208,55 214,55" fill="rgb(255,255,255)" fill-opacity="1.0" stroke="rgb(0,0,0)" stroke-width="2"  />
			<g>
				<title>Chal_sti_synt_C (PF02797)
"Chalcone and stilbene synthases, C-terminal domain"</title>
				<polygon class="PF02797" points="182,40 192,30 192,50" stroke-linejoin="round" width="14" height="24" fill="rgb(139,212,63)" stroke="rgb(111,169,50)" stroke-width="1" opacity="0.75" />
			</g>
			<g>
				<title>Chal_sti_synt_N (PF00195)
"Chalcone and stilbene synthases, N-terminal domain"</title>
				<polygon class="PF00195" points="192,30 194,28 212,28 212,52 194,52 192,50" stroke-linejoin="round" width="20" height="24" fill="rgb(60,181,161)" stroke="rgb(47,144,128)" stroke-width="1" opacity="0.75" />
			</g>
		</g>
	</g>
</svg>
