<svg version="1.1" baseProfile="full" xmlns="http://www.w3.org/2000/svg" width="501.6" height="80">
	<g>
		<line x1="10" y1="40.0" x2="491.6" y2="40.0" style="stroke:rgb(70,70,70); stroke-width:3 "/>
		<g>
			<title>
putative restriction endonuclease</title>
			<polygon class="
putative restriction endonuclease" points="14,10 36,40 14,70" fill="rgb(255,255,255)" fill-opacity="1.0" stroke="rgb(0,0,0)" stroke-width="2"  />
			<g>
				<title>Uma2 (PF05685)
"Putative restriction endonuclease"</title>
				<polygon class="PF05685" points="16,28 24,28 33,40 33,40 24,52 16,52" stroke-linejoin="round" width="17" height="24" fill="rgb(123,107,219)" stroke="rgb(98,85,175)" stroke-width="1" opacity="0.75" />
			</g>
		</g>
		<g>
			<title>musC
MusC</title>
			<polygon class="musC
MusC" points="76,25 76,25 76,10 46,40 76,70 76,55 76,55" fill="rgb(255,255,255)" fill-opacity="1.0" stroke="rgb(0,0,0)" stroke-width="2"  />
			<g>
				<title>Laminin_G_3 (PF13385)
"Concanavalin A-like lectin/glucanases superfamily"</title>
				<polygon class="PF13385" points="58,32 62,28 74,28 74,52 62,52 58,48" stroke-linejoin="round" width="16" height="24" fill="rgb(93,162,213)" stroke="rgb(74,129,170)" stroke-width="1" opacity="0.75" />
			</g>
		</g>
		<g>
			<title>musG
MusG</title>
			<polygon class="musG
MusG" points="133,25 117,25 117,10 87,40 117,70 117,55 133,55" fill="rgb(255,255,255)" fill-opacity="1.0" stroke="rgb(0,0,0)" stroke-width="2"  />
			<g>
				<title>Nitroreductase (PF00881)
"Nitroreductase family"</title>
				<polygon class="PF00881" points="91,40 103,28 105,28 105,52 103,52" stroke-linejoin="round" width="18" height="24" fill="rgb(79,118,187)" stroke="rgb(63,94,149)" stroke-width="1" opacity="0.75" />
			</g>
			<g>
				<title>HTH_57 (PF18679)
"ThcOx helix turn helix domain"</title>
				<rect class="PF18679" x="122" y="28" stroke-linejoin="round" width="10" height="24" fill="rgb(96,205,78)" stroke="rgb(76,164,62)" stroke-width="1" opacity="0.75" />
			</g>
		</g>
		<g>
			<title>musD
MusD</title>
			<polygon class="musD
MusD" points="226,25 178,25 178,10 148,40 178,70 178,55 226,55" fill="rgb(255,255,255)" fill-opacity="1.0" stroke="rgb(0,0,0)" stroke-width="2"  />
			<g>
				<title>YcaO (PF02624)
"YcaO cyclodehydratase, ATP-ad Mg2+-binding"</title>
				<polygon class="PF02624" points="152,40 164,28 184,28 184,52 164,52" stroke-linejoin="round" width="33" height="24" fill="rgb(76,84,185)" stroke="rgb(60,67,148)" stroke-width="1" opacity="0.75" />
			</g>
		</g>
		<g>
			<title>musE
MusE</title>
			<polygon class="musE
MusE" points="240,40 246,10 246,70" fill="rgb(255,255,255)" fill-opacity="1.0" stroke="rgb(0,0,0)" stroke-width="2"  />
		</g>
		<g>
			<title>musA
MusA</title>
			<polygon class="musA
MusA" points="262,25 302,25 302,10 332,40 302,70 302,55 262,55" fill="rgb(255,255,255)" fill-opacity="1.0" stroke="rgb(0,0,0)" stroke-width="2"  />
			<g>
				<title>Peptidase_S8 (PF00082)
"Subtilase family"</title>
				<rect class="PF00082" x="264" y="28" stroke-linejoin="round" width="27" height="24" fill="rgb(193,159,94)" stroke="rgb(154,127,75)" stroke-width="1" opacity="0.75" />
			</g>
			<g>
				<title>PatG_D (PF18047)
"PatG Domain"</title>
				<rect class="PF18047" x="305" y="28" stroke-linejoin="round" width="11" height="24" fill="rgb(91,195,69)" stroke="rgb(72,156,55)" stroke-width="1" opacity="0.75" />
			</g>
			<g>
				<title>PatG_C (PF18065)
"PatG C-terminal"</title>
				<polygon class="PF18065" points="320,32 328,40 320,48" stroke-linejoin="round" width="11" height="24" fill="rgb(93,82,184)" stroke="rgb(74,65,147)" stroke-width="1" opacity="0.75" />
			</g>
		</g>
		<g>
			<title>musH
MusH</title>
			<polygon class="musH
MusH" points="333,25 357,25 357,10 387,40 357,70 357,55 333,55" fill="rgb(255,255,255)" fill-opacity="1.0" stroke="rgb(0,0,0)" stroke-width="2"  />
			<g>
				<title>Methyltransf_11 (PF08241)
"Methyltransferase domain"</title>
				<rect class="PF08241" x="339" y="28" stroke-linejoin="round" width="9" height="24" fill="rgb(106,219,159)" stroke="rgb(84,175,127)" stroke-width="1" opacity="0.75" />
			</g>
			<g>
				<title>PatG_D (PF18047)
"PatG Domain"</title>
				<rect class="PF18047" x="359" y="28" stroke-linejoin="round" width="11" height="24" fill="rgb(91,195,69)" stroke="rgb(72,156,55)" stroke-width="1" opacity="0.75" />
			</g>
			<g>
				<title>PatG_C (PF18065)
"PatG C-terminal"</title>
				<polygon class="PF18065" points="375,32 383,40 375,48" stroke-linejoin="round" width="11" height="24" fill="rgb(93,82,184)" stroke="rgb(74,65,147)" stroke-width="1" opacity="0.75" />
			</g>
		</g>
		<g>
			<title>musB
MusB</title>
			<polygon class="musB
MusB" points="389,10 395,40 389,70" fill="rgb(255,255,255)" fill-opacity="1.0" stroke="rgb(0,0,0)" stroke-width="2"  />
		</g>
		<g>
			<title>musF1
MusF1</title>
			<polygon class="musF1
MusF1" points="417,25 417,25 417,10 447,40 417,70 417,55 417,55" fill="rgb(255,255,255)" fill-opacity="1.0" stroke="rgb(0,0,0)" stroke-width="2"  />
			<g>
				<title>DUF5838 (PF19156)
"Family of unknown function (DUF5838)"</title>
				<polygon class="PF19156" points="418,28 430,28 442,40 430,52 418,52" stroke-linejoin="round" width="28" height="24" fill="rgb(143,78,197)" stroke="rgb(114,62,157)" stroke-width="1" opacity="0.75" />
			</g>
		</g>
		<g>
			<title>musF2
MusF2</title>
			<polygon class="musF2
MusF2" points="449,25 449,25 449,10 479,40 449,70 449,55 449,55" fill="rgb(255,255,255)" fill-opacity="1.0" stroke="rgb(0,0,0)" stroke-width="2"  />
			<g>
				<title>DUF5838 (PF19156)
"Family of unknown function (DUF5838)"</title>
				<polygon class="PF19156" points="450,28 463,28 475,40 463,52 450,52" stroke-linejoin="round" width="29" height="24" fill="rgb(143,78,197)" stroke="rgb(114,62,157)" stroke-width="1" opacity="0.75" />
			</g>
		</g>
		<g>
			<title>musC2
MusC2</title>
			<polygon class="musC2
MusC2" points="482,10 489,40 482,70" fill="rgb(255,255,255)" fill-opacity="1.0" stroke="rgb(0,0,0)" stroke-width="2"  />
		</g>
	</g>
</svg>
