<svg version="1.1" baseProfile="full" xmlns="http://www.w3.org/2000/svg" width="2155.6" height="80">
	<g>
		<line x1="10" y1="40.0" x2="2145.6" y2="40.0" style="stroke:rgb(70,70,70); stroke-width:3 "/>
		<g>
			<title>Bcboa1 (BCIN_01g00010)
Bcboa1</title>
			<polygon class="Bcboa1 (BCIN_01g00010)
Bcboa1" points="10,25 19,25 19,10 49,40 19,70 19,55 10,55" fill="rgb(255,255,255)" fill-opacity="1.0" stroke="rgb(0,0,0)" stroke-width="2"  />
			<g>
				<title>NmrA (PF05368)
"NmrA-like family"</title>
				<polygon class="PF05368" points="10,28 33,28 35,30 35,50 33,52 10,52" stroke-linejoin="round" width="25" height="24" fill="rgb(97,49,192)" stroke="rgb(77,39,153)" stroke-width="1" opacity="0.75" />
			</g>
		</g>
		<g>
			<title>Bcboa2 (BCIN_01g00020)
Bcboa2</title>
			<polygon class="Bcboa2 (BCIN_01g00020)
Bcboa2" points="64,25 99,25 99,10 129,40 99,70 99,55 64,55" fill="rgb(255,255,255)" fill-opacity="1.0" stroke="rgb(0,0,0)" stroke-width="2"  />
			<g>
				<title>FMO-like (PF00743)
"Flavin-binding monooxygenase-like"</title>
				<rect class="PF00743" x="65" y="28" stroke-linejoin="round" width="35" height="24" fill="rgb(203,74,151)" stroke="rgb(162,59,120)" stroke-width="1" opacity="0.75" />
			</g>
		</g>
		<g>
			<title>Bcboa3 (BCIN_01g00030)
Bcboa3</title>
			<polygon class="Bcboa3 (BCIN_01g00030)
Bcboa3" points="218,25 188,25 188,10 158,40 188,70 188,55 218,55" fill="rgb(255,255,255)" fill-opacity="1.0" stroke="rgb(0,0,0)" stroke-width="2"  />
			<g>
				<title>p450 (PF00067)
"Cytochrome P450"</title>
				<polygon class="PF00067" points="168,34 174,28 213,28 213,52 174,52 168,46" stroke-linejoin="round" width="45" height="24" fill="rgb(85,216,107)" stroke="rgb(68,172,85)" stroke-width="1" opacity="0.75" />
			</g>
		</g>
		<g>
			<title>Bcboa4 (BCIN_01g00040)
Bcboa4</title>
			<polygon class="Bcboa4 (BCIN_01g00040)
Bcboa4" points="231,25 260,25 260,10 290,40 260,70 260,55 231,55" fill="rgb(255,255,255)" fill-opacity="1.0" stroke="rgb(0,0,0)" stroke-width="2"  />
			<g>
				<title>p450 (PF00067)
"Cytochrome P450"</title>
				<polygon class="PF00067" points="239,28 273,28 279,34 279,46 273,52 239,52" stroke-linejoin="round" width="40" height="24" fill="rgb(85,216,107)" stroke="rgb(68,172,85)" stroke-width="1" opacity="0.75" />
			</g>
		</g>
		<g>
			<title>Bcboa5 (BCIN_01g00050)
Bcboa5</title>
			<polygon class="Bcboa5 (BCIN_01g00050)
Bcboa5" points="340,25 333,25 333,10 303,40 333,70 333,55 340,55" fill="rgb(255,255,255)" fill-opacity="1.0" stroke="rgb(0,0,0)" stroke-width="2"  />
		</g>
		<g>
			<title>Bcboa6 (BCIN_01g00060)
Bcboa6</title>
			<polygon class="Bcboa6 (BCIN_01g00060)
Bcboa6" points="355,25 577,25 577,10 607,40 577,70 577,55 355,55" fill="rgb(255,255,255)" fill-opacity="1.0" stroke="rgb(0,0,0)" stroke-width="2"  />
			<g>
				<title>ketoacyl-synt (PF00109)
"Beta-ketoacyl synthase, N-terminal domain"</title>
				<rect class="PF00109" x="355" y="28" stroke-linejoin="round" width="25" height="24" fill="rgb(112,116,228)" stroke="rgb(89,92,182)" stroke-width="1" opacity="0.75" />
			</g>
			<g>
				<title>Ketoacyl-synt_C (PF02801)
"Beta-ketoacyl synthase, C-terminal domain"</title>
				<rect class="PF02801" x="381" y="28" stroke-linejoin="round" width="12" height="24" fill="rgb(215,78,102)" stroke="rgb(172,62,81)" stroke-width="1" opacity="0.75" />
			</g>
			<g>
				<title>KAsynt_C_assoc (PF16197)
"Ketoacyl-synthetase C-terminal extension"</title>
				<rect class="PF16197" x="394" y="28" stroke-linejoin="round" width="11" height="24" fill="rgb(240,150,172)" stroke="rgb(192,120,137)" stroke-width="1" opacity="0.75" />
			</g>
			<g>
				<title>Acyl_transf_1 (PF00698)
"Acyl transferase domain"</title>
				<rect class="PF00698" x="409" y="28" stroke-linejoin="round" width="33" height="24" fill="rgb(59,176,209)" stroke="rgb(47,140,167)" stroke-width="1" opacity="0.75" />
			</g>
			<g>
				<title>PS-DH (PF14765)
"Polyketide synthase dehydratase"</title>
				<rect class="PF14765" x="448" y="28" stroke-linejoin="round" width="30" height="24" fill="rgb(173,56,182)" stroke="rgb(138,44,145)" stroke-width="1" opacity="0.75" />
			</g>
			<g>
				<title>Methyltransf_12 (PF08242)
"Methyltransferase domain"</title>
				<rect class="PF08242" x="496" y="28" stroke-linejoin="round" width="10" height="24" fill="rgb(187,59,115)" stroke="rgb(149,47,92)" stroke-width="1" opacity="0.75" />
			</g>
			<g>
				<title>KR (PF08659)
"KR domain"</title>
				<rect class="PF08659" x="564" y="28" stroke-linejoin="round" width="17" height="24" fill="rgb(66,209,188)" stroke="rgb(52,167,150)" stroke-width="1" opacity="0.75" />
			</g>
			<g>
				<title>PP-binding (PF00550)
"Phosphopantetheine attachment site"</title>
				<polygon class="PF00550" points="593,31 599,37 599,43 593,49" stroke-linejoin="round" width="6" height="24" fill="rgb(103,191,88)" stroke="rgb(82,152,70)" stroke-width="1" opacity="0.75" />
			</g>
		</g>
		<g>
			<title>Bcboa7 (BCIN_01g00070)
Bcboa7</title>
			<polygon class="Bcboa7 (BCIN_01g00070)
Bcboa7" points="1201,25 1172,25 1172,10 1142,40 1172,70 1172,55 1201,55" fill="rgb(255,255,255)" fill-opacity="1.0" stroke="rgb(0,0,0)" stroke-width="2"  />
			<g>
				<title>p450 (PF00067)
"Cytochrome P450"</title>
				<polygon class="PF00067" points="1148,38 1158,28 1186,28 1186,52 1158,52 1148,42" stroke-linejoin="round" width="38" height="24" fill="rgb(85,216,107)" stroke="rgb(68,172,85)" stroke-width="1" opacity="0.75" />
			</g>
		</g>
		<g>
			<title>Bcboa8 (BCIN_01g00080)
Bcboa8</title>
			<polygon class="Bcboa8 (BCIN_01g00080)
Bcboa8" points="1301,25 1246,25 1246,10 1216,40 1246,70 1246,55 1301,55" fill="rgb(255,255,255)" fill-opacity="1.0" stroke="rgb(0,0,0)" stroke-width="2"  />
			<g>
				<title>FAD_binding_3 (PF01494)
"FAD binding domain"</title>
				<rect class="PF01494" x="1260" y="28" stroke-linejoin="round" width="37" height="24" fill="rgb(182,175,59)" stroke="rgb(145,140,47)" stroke-width="1" opacity="0.75" />
			</g>
		</g>
		<g>
			<title>Bcboa9 (BCIN_01g00090)
Bcboa9</title>
			<polygon class="Bcboa9 (BCIN_01g00090)
Bcboa9" points="1580,25 1364,25 1364,10 1334,40 1364,70 1364,55 1580,55" fill="rgb(255,255,255)" fill-opacity="1.0" stroke="rgb(0,0,0)" stroke-width="2"  />
			<g>
				<title>PP-binding (PF00550)
"Phosphopantetheine attachment site"</title>
				<polygon class="PF00550" points="1348,30 1350,28 1354,28 1354,52 1350,52 1348,50" stroke-linejoin="round" width="6" height="24" fill="rgb(103,191,88)" stroke="rgb(82,152,70)" stroke-width="1" opacity="0.75" />
			</g>
			<g>
				<title>KR (PF08659)
"KR domain"</title>
				<rect class="PF08659" x="1366" y="28" stroke-linejoin="round" width="17" height="24" fill="rgb(66,209,188)" stroke="rgb(52,167,150)" stroke-width="1" opacity="0.75" />
			</g>
			<g>
				<title>ADH_zinc_N (PF00107)
"Zinc-binding dehydrogenase"</title>
				<rect class="PF00107" x="1391" y="28" stroke-linejoin="round" width="11" height="24" fill="rgb(81,108,215)" stroke="rgb(64,86,172)" stroke-width="1" opacity="0.75" />
			</g>
			<g>
				<title>PS-DH (PF14765)
"Polyketide synthase dehydratase"</title>
				<rect class="PF14765" x="1455" y="28" stroke-linejoin="round" width="30" height="24" fill="rgb(173,56,182)" stroke="rgb(138,44,145)" stroke-width="1" opacity="0.75" />
			</g>
			<g>
				<title>Acyl_transf_1 (PF00698)
"Acyl transferase domain"</title>
				<rect class="PF00698" x="1492" y="28" stroke-linejoin="round" width="32" height="24" fill="rgb(59,176,209)" stroke="rgb(47,140,167)" stroke-width="1" opacity="0.75" />
			</g>
			<g>
				<title>KAsynt_C_assoc (PF16197)
"Ketoacyl-synthetase C-terminal extension"</title>
				<rect class="PF16197" x="1527" y="28" stroke-linejoin="round" width="14" height="24" fill="rgb(240,150,172)" stroke="rgb(192,120,137)" stroke-width="1" opacity="0.75" />
			</g>
			<g>
				<title>Ketoacyl-synt_C (PF02801)
"Beta-ketoacyl synthase, C-terminal domain"</title>
				<rect class="PF02801" x="1542" y="28" stroke-linejoin="round" width="11" height="24" fill="rgb(215,78,102)" stroke="rgb(172,62,81)" stroke-width="1" opacity="0.75" />
			</g>
			<g>
				<title>ketoacyl-synt (PF00109)
"Beta-ketoacyl synthase, N-terminal domain"</title>
				<rect class="PF00109" x="1555" y="28" stroke-linejoin="round" width="25" height="24" fill="rgb(112,116,228)" stroke="rgb(89,92,182)" stroke-width="1" opacity="0.75" />
			</g>
		</g>
		<g>
			<title>Bcboa10 (BCIN_01g00100)
Bcboa10</title>
			<polygon class="Bcboa10 (BCIN_01g00100)
Bcboa10" points="1633,25 1631,25 1631,10 1601,40 1631,70 1631,55 1633,55" fill="rgb(255,255,255)" fill-opacity="1.0" stroke="rgb(0,0,0)" stroke-width="2"  />
		</g>
		<g>
			<title>Bcboa10 (BCIN_01g00100_rename1)
Bcboa10</title>
			<polygon class="Bcboa10 (BCIN_01g00100_rename1)
Bcboa10" points="1633,25 1631,25 1631,10 1601,40 1631,70 1631,55 1633,55" fill="rgb(255,255,255)" fill-opacity="1.0" stroke="rgb(0,0,0)" stroke-width="2"  />
			<g>
				<title>Thioesterase (PF00975)
"Thioesterase domain"</title>
				<polygon class="PF00975" points="1609,36 1617,28 1631,28 1631,52 1617,52 1609,44" stroke-linejoin="round" width="22" height="24" fill="rgb(207,80,138)" stroke="rgb(165,63,110)" stroke-width="1" opacity="0.75" />
			</g>
		</g>
		<g>
			<title>Bcboa11 (BCIN_01g00110)
Bcboa11</title>
			<polygon class="Bcboa11 (BCIN_01g00110)
Bcboa11" points="1646,25 1663,25 1663,10 1693,40 1663,70 1663,55 1646,55" fill="rgb(255,255,255)" fill-opacity="1.0" stroke="rgb(0,0,0)" stroke-width="2"  />
			<g>
				<title>Transferase (PF02458)
"Transferase family"</title>
				<polygon class="PF02458" points="1657,28 1676,28 1688,40 1676,52 1657,52" stroke-linejoin="round" width="34" height="24" fill="rgb(57,117,190)" stroke="rgb(45,93,152)" stroke-width="1" opacity="0.75" />
			</g>
		</g>
		<g>
			<title>Bcboa12 (BCIN_01g00120)
Bcboa12</title>
			<polygon class="Bcboa12 (BCIN_01g00120)
Bcboa12" points="1719,10 1741,40 1719,70" fill="rgb(255,255,255)" fill-opacity="1.0" stroke="rgb(0,0,0)" stroke-width="2"  />
		</g>
		<g>
			<title>Bcboa13 (BCIN_01g00130)
Bcboa13</title>
			<polygon class="Bcboa13 (BCIN_01g00130)
Bcboa13" points="1795,25 1828,25 1828,10 1858,40 1828,70 1828,55 1795,55" fill="rgb(255,255,255)" fill-opacity="1.0" stroke="rgb(0,0,0)" stroke-width="2"  />
		</g>
		<g>
			<title>Bcboa13 (BCIN_01g00130_rename1)
Bcboa13</title>
			<polygon class="Bcboa13 (BCIN_01g00130_rename1)
Bcboa13" points="1797,25 1828,25 1828,10 1858,40 1828,70 1828,55 1797,55" fill="rgb(255,255,255)" fill-opacity="1.0" stroke="rgb(0,0,0)" stroke-width="2"  />
			<g>
				<title>Zn_clus (PF00172)
"Fungal Zn(2)-Cys(6) binuclear cluster domain"</title>
				<rect class="PF00172" x="1798" y="28" stroke-linejoin="round" width="3" height="24" fill="rgb(121,178,76)" stroke="rgb(96,142,60)" stroke-width="1" opacity="0.75" />
			</g>
		</g>
		<g>
			<title>Bcboa15 (BCIN_01g00140)
Bcboa15</title>
			<polygon class="Bcboa15 (BCIN_01g00140)
Bcboa15" points="1979,40 1997,10 1997,70" fill="rgb(255,255,255)" fill-opacity="1.0" stroke="rgb(0,0,0)" stroke-width="2"  />
			<g>
				<title>Fungal_trans (PF04082)
"Fungal specific transcription factor domain"</title>
				<polygon class="PF04082" points="1982,40 1989,28 1992,28 1992,52 1989,52" stroke-linejoin="round" width="13" height="24" fill="rgb(51,172,200)" stroke="rgb(40,137,160)" stroke-width="1" opacity="0.75" />
			</g>
		</g>
		<g>
			<title>Bcboa16 (BCIN_01g00150)
Bcboa16</title>
			<polygon class="Bcboa16 (BCIN_01g00150)
Bcboa16" points="2044,10 2051,40 2044,70" fill="rgb(255,255,255)" fill-opacity="1.0" stroke="rgb(0,0,0)" stroke-width="2"  />
		</g>
		<g>
			<title>Bcboa17 (BCIN_01g00160)
Bcboa17</title>
			<polygon class="Bcboa17 (BCIN_01g00160)
Bcboa17" points="2109,40 2136,10 2136,70" fill="rgb(255,255,255)" fill-opacity="1.0" stroke="rgb(0,0,0)" stroke-width="2"  />
			<g>
				<title>adh_short (PF00106)
"short chain dehydrogenase"</title>
				<polygon class="PF00106" points="2117,36 2124,28 2136,28 2136,52 2124,52 2117,44" stroke-linejoin="round" width="19" height="24" fill="rgb(182,219,73)" stroke="rgb(145,175,58)" stroke-width="1" opacity="0.75" />
			</g>
		</g>
	</g>
</svg>
