<svg version="1.1" baseProfile="full" xmlns="http://www.w3.org/2000/svg" width="1388.7666666666667" height="80">
	<g>
		<line x1="10" y1="40.0" x2="1378.7666666666667" y2="40.0" style="stroke:rgb(70,70,70); stroke-width:3 "/>
		<g>
			<title> (P170DRAFT_439891)
NAD(P)-binding protein</title>
			<polygon class=" (P170DRAFT_439891)
NAD(P)-binding protein" points="17,25 18,25 18,10 48,40 18,70 18,55 17,55" fill="rgb(255,255,255)" fill-opacity="1.0" stroke="rgb(0,0,0)" stroke-width="2"  />
			<g>
				<title>adh_short (PF00106)
"short chain dehydrogenase"</title>
				<rect class="PF00106" x="18" y="28" stroke-linejoin="round" width="14" height="24" fill="rgb(182,219,73)" stroke="rgb(145,175,58)" stroke-width="1" opacity="0.75" />
			</g>
		</g>
		<g>
			<title> (P170DRAFT_458355)
UMTA methyltransferase family protein</title>
			<polygon class=" (P170DRAFT_458355)
UMTA methyltransferase family protein" points="88,25 88,25 88,10 58,40 88,70 88,55 88,55" fill="rgb(255,255,255)" fill-opacity="1.0" stroke="rgb(0,0,0)" stroke-width="2"  />
		</g>
		<g>
			<title> (P170DRAFT_512806)
hypothetical protein</title>
			<polygon class=" (P170DRAFT_512806)
hypothetical protein" points="112,40 128,10 128,70" fill="rgb(255,255,255)" fill-opacity="1.0" stroke="rgb(0,0,0)" stroke-width="2"  />
		</g>
		<g>
			<title> (P170DRAFT_365471)
hypothetical protein</title>
			<polygon class=" (P170DRAFT_365471)
hypothetical protein" points="195,25 170,25 170,10 140,40 170,70 170,55 195,55" fill="rgb(255,255,255)" fill-opacity="1.0" stroke="rgb(0,0,0)" stroke-width="2"  />
			<g>
				<title>Fungal_trans_2 (PF11951)
"Fungal specific transcription factor domain"</title>
				<polygon class="PF11951" points="144,40 156,28 189,28 189,52 156,52" stroke-linejoin="round" width="46" height="24" fill="rgb(102,165,217)" stroke="rgb(81,132,173)" stroke-width="1" opacity="0.75" />
			</g>
		</g>
		<g>
			<title> (P170DRAFT_439893)
putative fructosyl amino acid oxidase</title>
			<polygon class=" (P170DRAFT_439893)
putative fructosyl amino acid oxidase" points="268,25 256,25 256,10 226,40 256,70 256,55 268,55" fill="rgb(255,255,255)" fill-opacity="1.0" stroke="rgb(0,0,0)" stroke-width="2"  />
			<g>
				<title>DAO (PF01266)
"FAD dependent oxidoreductase"</title>
				<polygon class="PF01266" points="231,39 242,28 267,28 267,52 242,52 231,41" stroke-linejoin="round" width="36" height="24" fill="rgb(123,179,59)" stroke="rgb(98,143,47)" stroke-width="1" opacity="0.75" />
			</g>
		</g>
		<g>
			<title> (P170DRAFT_365306)
putative allantoate permease</title>
			<polygon class=" (P170DRAFT_365306)
putative allantoate permease" points="341,25 321,25 321,10 291,40 321,70 321,55 341,55" fill="rgb(255,255,255)" fill-opacity="1.0" stroke="rgb(0,0,0)" stroke-width="2"  />
			<g>
				<title>MFS_1 (PF07690)
"Major Facilitator Superfamily"</title>
				<polygon class="PF07690" points="298,37 307,28 334,28 334,52 307,52 298,43" stroke-linejoin="round" width="36" height="24" fill="rgb(193,224,74)" stroke="rgb(154,179,59)" stroke-width="1" opacity="0.75" />
			</g>
		</g>
		<g>
			<title> (P170DRAFT_390852)
putative 5-oxoprolinase</title>
			<polygon class=" (P170DRAFT_390852)
putative 5-oxoprolinase" points="360,25 474,25 474,10 504,40 474,70 474,55 360,55" fill="rgb(255,255,255)" fill-opacity="1.0" stroke="rgb(0,0,0)" stroke-width="2"  />
			<g>
				<title>Hydant_A_N (PF05378)
"Hydantoinase/oxoprolinase N-terminal region"</title>
				<rect class="PF05378" x="360" y="28" stroke-linejoin="round" width="22" height="24" fill="rgb(116,89,225)" stroke="rgb(92,71,180)" stroke-width="1" opacity="0.75" />
			</g>
			<g>
				<title>Hydantoinase_A (PF01968)
"Hydantoinase/oxoprolinase"</title>
				<rect class="PF01968" x="384" y="28" stroke-linejoin="round" width="29" height="24" fill="rgb(126,186,91)" stroke="rgb(100,148,72)" stroke-width="1" opacity="0.75" />
			</g>
			<g>
				<title>Hydant_A_C (PF19278)
"Hydantoinase/oxoprolinase C-terminal domain"</title>
				<rect class="PF19278" x="415" y="28" stroke-linejoin="round" width="18" height="24" fill="rgb(67,107,185)" stroke="rgb(53,85,148)" stroke-width="1" opacity="0.75" />
			</g>
			<g>
				<title>Hydantoinase_B (PF02538)
"Hydantoinase B/oxoprolinase"</title>
				<rect class="PF02538" x="434" y="28" stroke-linejoin="round" width="53" height="24" fill="rgb(221,153,86)" stroke="rgb(176,122,68)" stroke-width="1" opacity="0.75" />
			</g>
		</g>
		<g>
			<title> (P170DRAFT_365047)
acetyl-CoA synthetase-like protein</title>
			<polygon class=" (P170DRAFT_365047)
acetyl-CoA synthetase-like protein" points="610,25 545,25 545,10 515,40 545,70 545,55 610,55" fill="rgb(255,255,255)" fill-opacity="1.0" stroke="rgb(0,0,0)" stroke-width="2"  />
			<g>
				<title>Thioesterase (PF00975)
"Thioesterase domain"</title>
				<polygon class="PF00975" points="519,40 531,28 541,28 541,52 531,52" stroke-linejoin="round" width="26" height="24" fill="rgb(207,80,138)" stroke="rgb(165,63,110)" stroke-width="1" opacity="0.75" />
			</g>
			<g>
				<title>PP-binding (PF00550)
"Phosphopantetheine attachment site"</title>
				<rect class="PF00550" x="544" y="28" stroke-linejoin="round" width="6" height="24" fill="rgb(103,191,88)" stroke="rgb(82,152,70)" stroke-width="1" opacity="0.75" />
			</g>
			<g>
				<title>AMP-binding (PF00501)
"AMP-binding enzyme"</title>
				<rect class="PF00501" x="564" y="28" stroke-linejoin="round" width="42" height="24" fill="rgb(60,217,223)" stroke="rgb(48,173,178)" stroke-width="1" opacity="0.75" />
			</g>
		</g>
		<g>
			<title> (P170DRAFT_415228)
aromatic prenyltransferase</title>
			<polygon class=" (P170DRAFT_415228)
aromatic prenyltransferase" points="643,25 660,25 660,10 690,40 660,70 660,55 643,55" fill="rgb(255,255,255)" fill-opacity="1.0" stroke="rgb(0,0,0)" stroke-width="2"  />
			<g>
				<title>Trp_DMAT (PF11991)
"Tryptophan dimethylallyltransferase"</title>
				<polygon class="PF11991" points="645,28 673,28 681,36 681,44 673,52 645,52" stroke-linejoin="round" width="36" height="24" fill="rgb(197,197,93)" stroke="rgb(157,157,74)" stroke-width="1" opacity="0.75" />
			</g>
		</g>
		<g>
			<title> (P170DRAFT_429405)
NAD(P)-binding protein</title>
			<polygon class=" (P170DRAFT_429405)
NAD(P)-binding protein" points="725,25 726,25 726,10 756,40 726,70 726,55 725,55" fill="rgb(255,255,255)" fill-opacity="1.0" stroke="rgb(0,0,0)" stroke-width="2"  />
		</g>
		<g>
			<title> (P170DRAFT_479193)
PLP-dependent transferase</title>
			<polygon class=" (P170DRAFT_479193)
PLP-dependent transferase" points="792,25 819,25 819,10 849,40 819,70 819,55 792,55" fill="rgb(255,255,255)" fill-opacity="1.0" stroke="rgb(0,0,0)" stroke-width="2"  />
			<g>
				<title>Aminotran_1_2 (PF00155)
"Aminotransferase class I and II"</title>
				<polygon class="PF00155" points="799,28 833,28 834,29 834,51 833,52 799,52" stroke-linejoin="round" width="35" height="24" fill="rgb(89,113,198)" stroke="rgb(71,90,158)" stroke-width="1" opacity="0.75" />
			</g>
		</g>
		<g>
			<title> (P170DRAFT_365428)
S-adenosyl-L-methionine-dependent methyltransferase</title>
			<polygon class=" (P170DRAFT_365428)
S-adenosyl-L-methionine-dependent methyltransferase" points="900,25 896,25 896,10 866,40 896,70 896,55 900,55" fill="rgb(255,255,255)" fill-opacity="1.0" stroke="rgb(0,0,0)" stroke-width="2"  />
			<g>
				<title>Methyltransf_23 (PF13489)
"Methyltransferase domain"</title>
				<rect class="PF13489" x="883" y="28" stroke-linejoin="round" width="16" height="24" fill="rgb(188,189,66)" stroke="rgb(150,151,52)" stroke-width="1" opacity="0.75" />
			</g>
		</g>
		<g>
			<title> (P170DRAFT_439896)
Phosphoglucomutase, first 3 domain-containing protein</title>
			<polygon class=" (P170DRAFT_439896)
Phosphoglucomutase, first 3 domain-containing protein" points="940,25 966,25 966,10 996,40 966,70 966,55 940,55" fill="rgb(255,255,255)" fill-opacity="1.0" stroke="rgb(0,0,0)" stroke-width="2"  />
			<g>
				<title>PGM_PMM_I (PF02878)
"Phosphoglucomutase/phosphomannomutase, alpha/beta/alpha domain I"</title>
				<rect class="PF02878" x="941" y="28" stroke-linejoin="round" width="14" height="24" fill="rgb(217,133,102)" stroke="rgb(173,106,81)" stroke-width="1" opacity="0.75" />
			</g>
			<g>
				<title>PGM_PMM_II (PF02879)
"Phosphoglucomutase/phosphomannomutase, alpha/beta/alpha domain II"</title>
				<rect class="PF02879" x="959" y="28" stroke-linejoin="round" width="10" height="24" fill="rgb(192,221,60)" stroke="rgb(153,176,48)" stroke-width="1" opacity="0.75" />
			</g>
			<g>
				<title>PGM_PMM_III (PF02880)
"Phosphoglucomutase/phosphomannomutase, alpha/beta/alpha domain III"</title>
				<polygon class="PF02880" points="970,28 980,28 982,30 982,50 980,52 970,52" stroke-linejoin="round" width="12" height="24" fill="rgb(67,204,90)" stroke="rgb(53,163,72)" stroke-width="1" opacity="0.75" />
			</g>
			<g>
				<title>PGM_PMM_IV (PF00408)
"Phosphoglucomutase/phosphomannomutase, C-terminal domain"</title>
				<polygon class="PF00408" points="986,34 992,40 986,46" stroke-linejoin="round" width="7" height="24" fill="rgb(74,205,143)" stroke="rgb(59,164,114)" stroke-width="1" opacity="0.75" />
			</g>
		</g>
		<g>
			<title> (P170DRAFT_479196)
hypothetical protein</title>
			<polygon class=" (P170DRAFT_479196)
hypothetical protein" points="1043,10 1070,40 1043,70" fill="rgb(255,255,255)" fill-opacity="1.0" stroke="rgb(0,0,0)" stroke-width="2"  />
		</g>
		<g>
			<title> (P170DRAFT_479197)
hypothetical protein</title>
			<polygon class=" (P170DRAFT_479197)
hypothetical protein" points="1126,25 1131,25 1131,10 1161,40 1131,70 1131,55 1126,55" fill="rgb(255,255,255)" fill-opacity="1.0" stroke="rgb(0,0,0)" stroke-width="2"  />
			<g>
				<title>UbiA (PF01040)
"UbiA prenyltransferase family"</title>
				<polygon class="PF01040" points="1130,28 1145,28 1155,38 1155,42 1145,52 1130,52" stroke-linejoin="round" width="25" height="24" fill="rgb(189,57,100)" stroke="rgb(151,45,80)" stroke-width="1" opacity="0.75" />
			</g>
		</g>
		<g>
			<title> (P170DRAFT_390865)
cytochrome P450</title>
			<polygon class=" (P170DRAFT_390865)
cytochrome P450" points="1194,25 1224,25 1224,10 1254,40 1224,70 1224,55 1194,55" fill="rgb(255,255,255)" fill-opacity="1.0" stroke="rgb(0,0,0)" stroke-width="2"  />
			<g>
				<title>p450 (PF00067)
"Cytochrome P450"</title>
				<polygon class="PF00067" points="1200,28 1238,28 1247,37 1247,43 1238,52 1200,52" stroke-linejoin="round" width="47" height="24" fill="rgb(85,216,107)" stroke="rgb(68,172,85)" stroke-width="1" opacity="0.75" />
			</g>
		</g>
		<g>
			<title> (P170DRAFT_479199)
cytochrome P450</title>
			<polygon class=" (P170DRAFT_479199)
cytochrome P450" points="1322,25 1348,25 1348,10 1378,40 1348,70 1348,55 1322,55" fill="rgb(255,255,255)" fill-opacity="1.0" stroke="rgb(0,0,0)" stroke-width="2"  />
			<g>
				<title>p450 (PF00067)
"Cytochrome P450"</title>
				<polygon class="PF00067" points="1325,28 1362,28 1371,37 1371,43 1362,52 1325,52" stroke-linejoin="round" width="46" height="24" fill="rgb(85,216,107)" stroke="rgb(68,172,85)" stroke-width="1" opacity="0.75" />
			</g>
		</g>
	</g>
</svg>
