<svg version="1.1" baseProfile="full" xmlns="http://www.w3.org/2000/svg" width="253.36666666666667" height="80">
	<g>
		<line x1="10" y1="40.0" x2="243.36666666666667" y2="40.0" style="stroke:rgb(70,70,70); stroke-width:3 "/>
		<g>
			<title> (AQJ46_36780)
hypothetical protein</title>
			<polygon class=" (AQJ46_36780)
hypothetical protein" points="17,40 45,10 45,70" fill="rgb(255,255,255)" fill-opacity="1.0" stroke="rgb(0,0,0)" stroke-width="2"  />
			<g>
				<title>TauD (PF02668)
"Taurine catabolism dioxygenase TauD, TfdA family"</title>
				<polygon class="PF02668" points="21,40 32,28 44,28 44,52 32,52" stroke-linejoin="round" width="27" height="24" fill="rgb(180,79,217)" stroke="rgb(144,63,173)" stroke-width="1" opacity="0.75" />
			</g>
		</g>
		<g>
			<title> (AQJ46_36785)
hypothetical protein</title>
			<polygon class=" (AQJ46_36785)
hypothetical protein" points="45,40 58,10 58,70" fill="rgb(255,255,255)" fill-opacity="1.0" stroke="rgb(0,0,0)" stroke-width="2"  />
			<g>
				<title>Transglut_core3 (PF13471)
"Transglutaminase-like superfamily"</title>
				<polygon class="PF13471" points="48,40 54,28 56,28 56,52 54,52" stroke-linejoin="round" width="11" height="24" fill="rgb(63,111,179)" stroke="rgb(50,88,143)" stroke-width="1" opacity="0.75" />
			</g>
		</g>
		<g>
			<title> (AQJ46_36790)
hypothetical protein</title>
			<polygon class=" (AQJ46_36790)
hypothetical protein" points="59,40 67,10 67,70" fill="rgb(255,255,255)" fill-opacity="1.0" stroke="rgb(0,0,0)" stroke-width="2"  />
			<g>
				<title>PqqD (PF05402)
"Coenzyme PQQ synthesis protein D (PqqD)"</title>
				<polygon class="PF05402" points="62,40 65,28 65,28 65,52 65,52" stroke-linejoin="round" width="6" height="24" fill="rgb(124,62,188)" stroke="rgb(99,49,150)" stroke-width="1" opacity="0.75" />
			</g>
		</g>
		<g>
			<title> (AQJ46_36795)
hypothetical protein</title>
			<polygon class=" (AQJ46_36795)
hypothetical protein" points="129,25 97,25 97,10 67,40 97,70 97,55 129,55" fill="rgb(255,255,255)" fill-opacity="1.0" stroke="rgb(0,0,0)" stroke-width="2"  />
			<g>
				<title>Asn_synthase (PF00733)
"Asparagine synthase"</title>
				<polygon class="PF00733" points="71,40 83,28 108,28 108,52 83,52" stroke-linejoin="round" width="39" height="24" fill="rgb(97,201,176)" stroke="rgb(77,160,140)" stroke-width="1" opacity="0.75" />
			</g>
		</g>
		<g>
			<title> (AQJ46_36800)
hypothetical protein</title>
			<polygon class=" (AQJ46_36800)
hypothetical protein" points="150,10 172,40 150,70" fill="rgb(255,255,255)" fill-opacity="1.0" stroke="rgb(0,0,0)" stroke-width="2"  />
			<g>
				<title>SNARE_assoc (PF09335)
"SNARE associated Golgi protein"</title>
				<polygon class="PF09335" points="154,28 159,28 166,37 166,43 159,52 154,52" stroke-linejoin="round" width="12" height="24" fill="rgb(145,188,82)" stroke="rgb(116,150,65)" stroke-width="1" opacity="0.75" />
			</g>
		</g>
		<g>
			<title> (AQJ46_36805)
histidine kinase</title>
			<polygon class=" (AQJ46_36805)
histidine kinase" points="178,25 184,25 184,10 214,40 184,70 184,55 178,55" fill="rgb(255,255,255)" fill-opacity="1.0" stroke="rgb(0,0,0)" stroke-width="2"  />
			<g>
				<title>HisKA_3 (PF07730)
"Histidine kinase"</title>
				<polygon class="PF07730" points="196,28 198,28 202,32 202,48 198,52 196,52" stroke-linejoin="round" width="6" height="24" fill="rgb(190,53,146)" stroke="rgb(152,42,116)" stroke-width="1" opacity="0.75" />
			</g>
		</g>
		<g>
			<title> (AQJ46_36810)
LuxR family transcriptional regulator</title>
			<polygon class=" (AQJ46_36810)
LuxR family transcriptional regulator" points="215,10 236,40 215,70" fill="rgb(255,255,255)" fill-opacity="1.0" stroke="rgb(0,0,0)" stroke-width="2"  />
			<g>
				<title>Response_reg (PF00072)
"Response regulator receiver domain"</title>
				<polygon class="PF00072" points="215,28 224,28 226,31 226,49 224,52 215,52" stroke-linejoin="round" width="11" height="24" fill="rgb(100,107,203)" stroke="rgb(80,85,162)" stroke-width="1" opacity="0.75" />
			</g>
			<g>
				<title>GerE (PF00196)
"Bacterial regulatory proteins, luxR family"</title>
				<polygon class="PF00196" points="229,36 232,40 229,44" stroke-linejoin="round" width="5" height="24" fill="rgb(219,94,82)" stroke="rgb(175,75,65)" stroke-width="1" opacity="0.75" />
			</g>
		</g>
	</g>
</svg>
