<svg version="1.1" baseProfile="full" xmlns="http://www.w3.org/2000/svg" width="227.16666666666666" height="80">
	<g>
		<line x1="10" y1="40.0" x2="217.16666666666666" y2="40.0" style="stroke:rgb(70,70,70); stroke-width:3 "/>
		<g>
			<title> (H340_08821)
alcohol dehydrogenase</title>
			<polygon class=" (H340_08821)
alcohol dehydrogenase" points="41,25 40,25 40,10 10,40 40,70 40,55 41,55" fill="rgb(255,255,255)" fill-opacity="1.0" stroke="rgb(0,0,0)" stroke-width="2"  />
			<g>
				<title>ADH_zinc_N (PF00107)
"Zinc-binding dehydrogenase"</title>
				<polygon class="PF00107" points="15,39 26,28 27,28 27,52 26,52 15,41" stroke-linejoin="round" width="12" height="24" fill="rgb(81,108,215)" stroke="rgb(64,86,172)" stroke-width="1" opacity="0.75" />
			</g>
		</g>
		<g>
			<title> (H340_08826)
glycine amidinotransferase</title>
			<polygon class=" (H340_08826)
glycine amidinotransferase" points="79,25 71,25 71,10 41,40 71,70 71,55 79,55" fill="rgb(255,255,255)" fill-opacity="1.0" stroke="rgb(0,0,0)" stroke-width="2"  />
		</g>
		<g>
			<title> (H340_08831)
hypothetical protein</title>
			<polygon class=" (H340_08831)
hypothetical protein" points="123,25 110,25 110,10 80,40 110,70 110,55 123,55" fill="rgb(255,255,255)" fill-opacity="1.0" stroke="rgb(0,0,0)" stroke-width="2"  />
			<g>
				<title>PGM1_C (PF18105)
"PGM1 C-terminal domain"</title>
				<polygon class="PF18105" points="84,40 86,38 86,42" stroke-linejoin="round" width="5" height="24" fill="rgb(71,184,96)" stroke="rgb(56,147,76)" stroke-width="1" opacity="0.75" />
			</g>
			<g>
				<title>PreAtp-grasp (PF18604)
"Pre ATP-grasp domain"</title>
				<rect class="PF18604" x="111" y="28" stroke-linejoin="round" width="8" height="24" fill="rgb(148,214,94)" stroke="rgb(118,171,75)" stroke-width="1" opacity="0.75" />
			</g>
		</g>
		<g>
			<title> (H340_08836)
dehydratase</title>
			<polygon class=" (H340_08836)
dehydratase" points="124,40 142,10 142,70" fill="rgb(255,255,255)" fill-opacity="1.0" stroke="rgb(0,0,0)" stroke-width="2"  />
			<g>
				<title>MaoC_dehydratas (PF01575)
"MaoC like domain"</title>
				<polygon class="PF01575" points="128,40 135,28 139,28 139,52 135,52" stroke-linejoin="round" width="12" height="24" fill="rgb(218,129,86)" stroke="rgb(174,103,68)" stroke-width="1" opacity="0.75" />
			</g>
		</g>
		<g>
			<title> (H340_08841)
hypothetical protein</title>
			<polygon class=" (H340_08841)
hypothetical protein" points="184,25 173,25 173,10 143,40 173,70 173,55 184,55" fill="rgb(255,255,255)" fill-opacity="1.0" stroke="rgb(0,0,0)" stroke-width="2"  />
			<g>
				<title>Aminotran_1_2 (PF00155)
"Aminotransferase class I and II"</title>
				<polygon class="PF00155" points="147,40 159,28 167,28 167,52 159,52" stroke-linejoin="round" width="24" height="24" fill="rgb(89,113,198)" stroke="rgb(71,90,158)" stroke-width="1" opacity="0.75" />
			</g>
		</g>
		<g>
			<title> (H340_08846)
HpcH/HpaI aldolase</title>
			<polygon class=" (H340_08846)
HpcH/HpaI aldolase" points="216,25 214,25 214,10 184,40 214,70 214,55 216,55" fill="rgb(255,255,255)" fill-opacity="1.0" stroke="rgb(0,0,0)" stroke-width="2"  />
			<g>
				<title>HpcH_HpaI (PF03328)
"HpcH/HpaI aldolase/citrate lyase family"</title>
				<polygon class="PF03328" points="194,34 200,28 215,28 215,52 200,52 194,46" stroke-linejoin="round" width="21" height="24" fill="rgb(81,183,94)" stroke="rgb(64,146,75)" stroke-width="1" opacity="0.75" />
			</g>
		</g>
	</g>
</svg>
