<svg version="1.1" baseProfile="full" xmlns="http://www.w3.org/2000/svg" width="695.1333333333333" height="80">
	<g>
		<line x1="10" y1="40.0" x2="685.1333333333333" y2="40.0" style="stroke:rgb(70,70,70); stroke-width:3 "/>
		<g>
			<title> (CWC22_013905)
acyl-CoA dehydrogenase</title>
			<polygon class=" (CWC22_013905)
acyl-CoA dehydrogenase" points="10,25 18,25 18,10 48,40 18,70 18,55 10,55" fill="rgb(255,255,255)" fill-opacity="1.0" stroke="rgb(0,0,0)" stroke-width="2"  />
			<g>
				<title>Acyl-CoA_dh_N (PF02771)
"Acyl-CoA dehydrogenase, N-terminal domain"</title>
				<rect class="PF02771" x="10" y="28" stroke-linejoin="round" width="11" height="24" fill="rgb(105,135,218)" stroke="rgb(84,108,174)" stroke-width="1" opacity="0.75" />
			</g>
			<g>
				<title>Acyl-CoA_dh_M (PF02770)
"Acyl-CoA dehydrogenase, middle domain"</title>
				<rect class="PF02770" x="22" y="28" stroke-linejoin="round" width="9" height="24" fill="rgb(225,186,97)" stroke="rgb(180,148,77)" stroke-width="1" opacity="0.75" />
			</g>
			<g>
				<title>Acyl-CoA_dh_1 (PF00441)
"Acyl-CoA dehydrogenase, C-terminal domain"</title>
				<polygon class="PF00441" points="33,29 44,40 33,51" stroke-linejoin="round" width="14" height="24" fill="rgb(85,191,117)" stroke="rgb(68,152,93)" stroke-width="1" opacity="0.75" />
			</g>
		</g>
		<g>
			<title> (CWC22_013910)
NAD(P)-binding protein</title>
			<polygon class=" (CWC22_013910)
NAD(P)-binding protein" points="48,25 85,25 85,10 115,40 85,70 85,55 48,55" fill="rgb(255,255,255)" fill-opacity="1.0" stroke="rgb(0,0,0)" stroke-width="2"  />
			<g>
				<title>DUF6041 (PF19507)
"Family of unknown function (DUF6041)"</title>
				<rect class="PF19507" x="48" y="28" stroke-linejoin="round" width="13" height="24" fill="rgb(185,224,105)" stroke="rgb(147,179,84)" stroke-width="1" opacity="0.75" />
			</g>
			<g>
				<title>NAD_binding_8 (PF13450)
"NAD(P)-binding Rossmann-like domain"</title>
				<rect class="PF13450" x="63" y="28" stroke-linejoin="round" width="6" height="24" fill="rgb(91,180,227)" stroke="rgb(72,144,181)" stroke-width="1" opacity="0.75" />
			</g>
		</g>
		<g>
			<title> (CWC22_013915)
phosphoenolpyruvate synthase</title>
			<polygon class=" (CWC22_013915)
phosphoenolpyruvate synthase" points="116,25 174,25 174,10 204,40 174,70 174,55 116,55" fill="rgb(255,255,255)" fill-opacity="1.0" stroke="rgb(0,0,0)" stroke-width="2"  />
			<g>
				<title>PPDK_N (PF01326)
"Pyruvate phosphate dikinase, AMP/ATP-binding domain"</title>
				<rect class="PF01326" x="117" y="28" stroke-linejoin="round" width="29" height="24" fill="rgb(112,180,78)" stroke="rgb(89,144,62)" stroke-width="1" opacity="0.75" />
			</g>
			<g>
				<title>PEP-utilizers (PF00391)
"PEP-utilising enzyme, mobile domain"</title>
				<polygon class="PF00391" points="196,36 200,40 196,44" stroke-linejoin="round" width="7" height="24" fill="rgb(206,59,219)" stroke="rgb(164,47,175)" stroke-width="1" opacity="0.75" />
			</g>
		</g>
		<g>
			<title> (CWC22_013920)
biosynthesis protein PigD</title>
			<polygon class=" (CWC22_013920)
biosynthesis protein PigD" points="209,25 264,25 264,10 294,40 264,70 264,55 209,55" fill="rgb(255,255,255)" fill-opacity="1.0" stroke="rgb(0,0,0)" stroke-width="2"  />
		</g>
		<g>
			<title> (CWC22_013925)
aminotransferase class III-fold pyridoxal phosphate-dependent enzyme</title>
			<polygon class=" (CWC22_013925)
aminotransferase class III-fold pyridoxal phosphate-dependent enzyme" points="294,25 349,25 349,10 379,40 349,70 349,55 294,55" fill="rgb(255,255,255)" fill-opacity="1.0" stroke="rgb(0,0,0)" stroke-width="2"  />
			<g>
				<title>Aminotran_3 (PF00202)
"Aminotransferase class-III"</title>
				<polygon class="PF00202" points="334,28 362,28 374,40 362,52 334,52" stroke-linejoin="round" width="43" height="24" fill="rgb(49,163,189)" stroke="rgb(39,130,151)" stroke-width="1" opacity="0.75" />
			</g>
		</g>
		<g>
			<title> (CWC22_013930)
SAM-dependent methyltransferase</title>
			<polygon class=" (CWC22_013930)
SAM-dependent methyltransferase" points="381,25 385,25 385,10 415,40 385,70 385,55 381,55" fill="rgb(255,255,255)" fill-opacity="1.0" stroke="rgb(0,0,0)" stroke-width="2"  />
			<g>
				<title>Dimerisation2 (PF16864)
"Dimerisation domain"</title>
				<rect class="PF16864" x="381" y="28" stroke-linejoin="round" width="8" height="24" fill="rgb(84,199,85)" stroke="rgb(67,159,68)" stroke-width="1" opacity="0.75" />
			</g>
			<g>
				<title>Methyltransf_2 (PF00891)
"O-methyltransferase domain"</title>
				<polygon class="PF00891" points="391,28 398,28 410,40 398,52 391,52" stroke-linejoin="round" width="21" height="24" fill="rgb(50,51,190)" stroke="rgb(39,40,152)" stroke-width="1" opacity="0.75" />
			</g>
		</g>
		<g>
			<title> (CWC22_013935)
acyl carrier protein</title>
			<polygon class=" (CWC22_013935)
acyl carrier protein" points="416,10 424,40 416,70" fill="rgb(255,255,255)" fill-opacity="1.0" stroke="rgb(0,0,0)" stroke-width="2"  />
		</g>
		<g>
			<title> (CWC22_013940)
aminotransferase class I/II-fold pyridoxal phosphate-dependent enzyme</title>
			<polygon class=" (CWC22_013940)
aminotransferase class I/II-fold pyridoxal phosphate-dependent enzyme" points="425,25 459,25 459,10 489,40 459,70 459,55 425,55" fill="rgb(255,255,255)" fill-opacity="1.0" stroke="rgb(0,0,0)" stroke-width="2"  />
			<g>
				<title>PP-binding (PF00550)
"Phosphopantetheine attachment site"</title>
				<rect class="PF00550" x="426" y="28" stroke-linejoin="round" width="6" height="24" fill="rgb(103,191,88)" stroke="rgb(82,152,70)" stroke-width="1" opacity="0.75" />
			</g>
			<g>
				<title>Aminotran_1_2 (PF00155)
"Aminotransferase class I and II"</title>
				<polygon class="PF00155" points="453,28 473,28 485,40 473,52 453,52" stroke-linejoin="round" width="34" height="24" fill="rgb(89,113,198)" stroke="rgb(71,90,158)" stroke-width="1" opacity="0.75" />
			</g>
		</g>
		<g>
			<title> (CWC22_013945)
AMP-binding protein</title>
			<polygon class=" (CWC22_013945)
AMP-binding protein" points="490,25 509,25 509,10 539,40 509,70 509,55 490,55" fill="rgb(255,255,255)" fill-opacity="1.0" stroke="rgb(0,0,0)" stroke-width="2"  />
			<g>
				<title>AMP-binding (PF00501)
"AMP-binding enzyme"</title>
				<polygon class="PF00501" points="491,28 523,28 530,35 530,45 523,52 491,52" stroke-linejoin="round" width="39" height="24" fill="rgb(60,217,223)" stroke="rgb(48,173,178)" stroke-width="1" opacity="0.75" />
			</g>
			<g>
				<title>AMP-binding_C (PF13193)
"AMP-binding enzyme C-terminal domain"</title>
				<polygon class="PF13193" points="531,36 535,40 531,44" stroke-linejoin="round" width="7" height="24" fill="rgb(182,50,118)" stroke="rgb(145,39,94)" stroke-width="1" opacity="0.75" />
			</g>
		</g>
		<g>
			<title> (CWC22_013950)
3-ketoacyl-ACP synthase</title>
			<polygon class=" (CWC22_013950)
3-ketoacyl-ACP synthase" points="540,25 586,25 586,10 616,40 586,70 586,55 540,55" fill="rgb(255,255,255)" fill-opacity="1.0" stroke="rgb(0,0,0)" stroke-width="2"  />
			<g>
				<title>ketoacyl-synt (PF00109)
"Beta-ketoacyl synthase, N-terminal domain"</title>
				<rect class="PF00109" x="540" y="28" stroke-linejoin="round" width="23" height="24" fill="rgb(112,116,228)" stroke="rgb(89,92,182)" stroke-width="1" opacity="0.75" />
			</g>
			<g>
				<title>ketoacyl-synt (PF00109)
"Beta-ketoacyl synthase, N-terminal domain"</title>
				<rect class="PF00109" x="589" y="28" stroke-linejoin="round" width="9" height="24" fill="rgb(112,116,228)" stroke="rgb(89,92,182)" stroke-width="1" opacity="0.75" />
			</g>
			<g>
				<title>Ketoacyl-synt_C (PF02801)
"Beta-ketoacyl synthase, C-terminal domain"</title>
				<polygon class="PF02801" points="599,28 600,28 610,38 610,42 600,52 599,52" stroke-linejoin="round" width="11" height="24" fill="rgb(215,78,102)" stroke="rgb(172,62,81)" stroke-width="1" opacity="0.75" />
			</g>
		</g>
		<g>
			<title> (CWC22_013955)
RedY</title>
			<polygon class=" (CWC22_013955)
RedY" points="616,10 626,40 616,70" fill="rgb(255,255,255)" fill-opacity="1.0" stroke="rgb(0,0,0)" stroke-width="2"  />
			<g>
				<title>HapK (PF11639)
"REDY-like protein HapK"</title>
				<polygon class="PF11639" points="616,28 618,28 623,40 618,52 616,52" stroke-linejoin="round" width="10" height="24" fill="rgb(212,82,116)" stroke="rgb(169,65,92)" stroke-width="1" opacity="0.75" />
			</g>
		</g>
		<g>
			<title> (CWC22_013960)
4'-phosphopantetheinyl transferase superfamily protein</title>
			<polygon class=" (CWC22_013960)
4'-phosphopantetheinyl transferase superfamily protein" points="627,10 649,40 627,70" fill="rgb(255,255,255)" fill-opacity="1.0" stroke="rgb(0,0,0)" stroke-width="2"  />
		</g>
		<g>
			<title> (CWC22_013965)
prodigiosin biosynthesis protein PigM</title>
			<polygon class=" (CWC22_013965)
prodigiosin biosynthesis protein PigM" points="648,25 654,25 654,10 684,40 654,70 654,55 648,55" fill="rgb(255,255,255)" fill-opacity="1.0" stroke="rgb(0,0,0)" stroke-width="2"  />
		</g>
	</g>
</svg>
