<svg version="1.1" baseProfile="full" xmlns="http://www.w3.org/2000/svg" width="1540.7333333333333" height="80">
	<g>
		<line x1="10" y1="40.0" x2="1530.7333333333333" y2="40.0" style="stroke:rgb(70,70,70); stroke-width:3 "/>
		<g>
			<title> (BBA_08174)
putative Heat-labile enterotoxin IIB, A chain</title>
			<polygon class=" (BBA_08174)
putative Heat-labile enterotoxin IIB, A chain" points="10,25 77,25 77,10 107,40 77,70 77,55 10,55" fill="rgb(255,255,255)" fill-opacity="1.0" stroke="rgb(0,0,0)" stroke-width="2"  />
			<g>
				<title>Enterotoxin_a (PF01375)
"Heat-labile enterotoxin alpha chain"</title>
				<rect class="PF01375" x="19" y="28" stroke-linejoin="round" width="14" height="24" fill="rgb(226,155,105)" stroke="rgb(180,123,83)" stroke-width="1" opacity="0.75" />
			</g>
			<g>
				<title>Enterotoxin_a (PF01375)
"Heat-labile enterotoxin alpha chain"</title>
				<rect class="PF01375" x="34" y="28" stroke-linejoin="round" width="8" height="24" fill="rgb(226,155,105)" stroke="rgb(180,123,83)" stroke-width="1" opacity="0.75" />
			</g>
		</g>
		<g>
			<title> (BBA_08175)
evolved D-lactonohydrolase</title>
			<polygon class=" (BBA_08175)
evolved D-lactonohydrolase" points="175,25 200,25 200,10 230,40 200,70 200,55 175,55" fill="rgb(255,255,255)" fill-opacity="1.0" stroke="rgb(0,0,0)" stroke-width="2"  />
			<g>
				<title>SGL (PF08450)
"SMP-30/Gluconolactonase/LRE-like region"</title>
				<rect class="PF08450" x="189" y="28" stroke-linejoin="round" width="25" height="24" fill="rgb(210,60,225)" stroke="rgb(168,48,180)" stroke-width="1" opacity="0.75" />
			</g>
		</g>
		<g>
			<title> (BBA_08176)
mitochondrial CorA family metal ion transporter</title>
			<polygon class=" (BBA_08176)
mitochondrial CorA family metal ion transporter" points="252,25 263,25 263,10 293,40 263,70 263,55 252,55" fill="rgb(255,255,255)" fill-opacity="1.0" stroke="rgb(0,0,0)" stroke-width="2"  />
			<g>
				<title>CorA (PF01544)
"CorA-like Mg2+ transporter protein"</title>
				<polygon class="PF01544" points="263,28 277,28 289,40 277,52 263,52" stroke-linejoin="round" width="30" height="24" fill="rgb(65,141,201)" stroke="rgb(52,112,160)" stroke-width="1" opacity="0.75" />
			</g>
		</g>
		<g>
			<title> (BBA_08177)
cation transporter</title>
			<polygon class=" (BBA_08177)
cation transporter" points="358,25 328,25 328,10 298,40 328,70 328,55 358,55" fill="rgb(255,255,255)" fill-opacity="1.0" stroke="rgb(0,0,0)" stroke-width="2"  />
			<g>
				<title>TrkH (PF02386)
"Cation transport protein"</title>
				<polygon class="PF02386" points="302,40 314,28 345,28 345,52 314,52" stroke-linejoin="round" width="47" height="24" fill="rgb(67,179,142)" stroke="rgb(53,143,113)" stroke-width="1" opacity="0.75" />
			</g>
		</g>
		<g>
			<title> (BBA_08178)
hydantoinase B/oxoprolinase</title>
			<polygon class=" (BBA_08178)
hydantoinase B/oxoprolinase" points="520,25 414,25 414,10 384,40 414,70 414,55 520,55" fill="rgb(255,255,255)" fill-opacity="1.0" stroke="rgb(0,0,0)" stroke-width="2"  />
			<g>
				<title>Hydantoinase_B (PF02538)
"Hydantoinase B/oxoprolinase"</title>
				<polygon class="PF02538" points="388,40 400,28 443,28 443,52 400,52" stroke-linejoin="round" width="56" height="24" fill="rgb(221,153,86)" stroke="rgb(176,122,68)" stroke-width="1" opacity="0.75" />
			</g>
			<g>
				<title>Hydant_A_C (PF19278)
"Hydantoinase/oxoprolinase C-terminal domain"</title>
				<rect class="PF19278" x="444" y="28" stroke-linejoin="round" width="19" height="24" fill="rgb(67,107,185)" stroke="rgb(53,85,148)" stroke-width="1" opacity="0.75" />
			</g>
			<g>
				<title>Hydantoinase_A (PF01968)
"Hydantoinase/oxoprolinase"</title>
				<rect class="PF01968" x="465" y="28" stroke-linejoin="round" width="30" height="24" fill="rgb(126,186,91)" stroke="rgb(100,148,72)" stroke-width="1" opacity="0.75" />
			</g>
			<g>
				<title>Hydant_A_N (PF05378)
"Hydantoinase/oxoprolinase N-terminal region"</title>
				<rect class="PF05378" x="497" y="28" stroke-linejoin="round" width="22" height="24" fill="rgb(116,89,225)" stroke="rgb(92,71,180)" stroke-width="1" opacity="0.75" />
			</g>
		</g>
		<g>
			<title> (BBA_08179)
polyketide synthase</title>
			<polygon class=" (BBA_08179)
polyketide synthase" points="796,25 585,25 585,10 555,40 585,70 585,55 796,55" fill="rgb(255,255,255)" fill-opacity="1.0" stroke="rgb(0,0,0)" stroke-width="2"  />
			<g>
				<title>Thioesterase (PF00975)
"Thioesterase domain"</title>
				<rect class="PF00975" x="591" y="28" stroke-linejoin="round" width="11" height="24" fill="rgb(207,80,138)" stroke="rgb(165,63,110)" stroke-width="1" opacity="0.75" />
			</g>
			<g>
				<title>PP-binding (PF00550)
"Phosphopantetheine attachment site"</title>
				<rect class="PF00550" x="610" y="28" stroke-linejoin="round" width="6" height="24" fill="rgb(103,191,88)" stroke="rgb(82,152,70)" stroke-width="1" opacity="0.75" />
			</g>
			<g>
				<title>PP-binding (PF00550)
"Phosphopantetheine attachment site"</title>
				<rect class="PF00550" x="621" y="28" stroke-linejoin="round" width="6" height="24" fill="rgb(103,191,88)" stroke="rgb(82,152,70)" stroke-width="1" opacity="0.75" />
			</g>
			<g>
				<title>PS-DH (PF14765)
"Polyketide synthase dehydratase"</title>
				<rect class="PF14765" x="634" y="28" stroke-linejoin="round" width="31" height="24" fill="rgb(173,56,182)" stroke="rgb(138,44,145)" stroke-width="1" opacity="0.75" />
			</g>
			<g>
				<title>Acyl_transf_1 (PF00698)
"Acyl transferase domain"</title>
				<rect class="PF00698" x="672" y="28" stroke-linejoin="round" width="33" height="24" fill="rgb(59,176,209)" stroke="rgb(47,140,167)" stroke-width="1" opacity="0.75" />
			</g>
			<g>
				<title>Ketoacyl-synt_C (PF02801)
"Beta-ketoacyl synthase, C-terminal domain"</title>
				<rect class="PF02801" x="721" y="28" stroke-linejoin="round" width="11" height="24" fill="rgb(215,78,102)" stroke="rgb(172,62,81)" stroke-width="1" opacity="0.75" />
			</g>
			<g>
				<title>ketoacyl-synt (PF00109)
"Beta-ketoacyl synthase, N-terminal domain"</title>
				<rect class="PF00109" x="734" y="28" stroke-linejoin="round" width="24" height="24" fill="rgb(112,116,228)" stroke="rgb(89,92,182)" stroke-width="1" opacity="0.75" />
			</g>
			<g>
				<title>SAT (PF16073)
"Starter unit:ACP transacylase in aflatoxin biosynthesis"</title>
				<rect class="PF16073" x="772" y="28" stroke-linejoin="round" width="21" height="24" fill="rgb(77,115,183)" stroke="rgb(61,91,146)" stroke-width="1" opacity="0.75" />
			</g>
		</g>
		<g>
			<title> (BBA_08180)
MFS multidrug resistance transporter, putative</title>
			<polygon class=" (BBA_08180)
MFS multidrug resistance transporter, putative" points="867,25 860,25 860,10 830,40 860,70 860,55 867,55" fill="rgb(255,255,255)" fill-opacity="1.0" stroke="rgb(0,0,0)" stroke-width="2"  />
			<g>
				<title>MFS_1 (PF07690)
"Major Facilitator Superfamily"</title>
				<polygon class="PF07690" points="836,38 846,28 866,28 866,52 846,52 836,42" stroke-linejoin="round" width="30" height="24" fill="rgb(193,224,74)" stroke="rgb(154,179,59)" stroke-width="1" opacity="0.75" />
			</g>
		</g>
		<g>
			<title> (BBA_08181)
fungal specific transcription factor</title>
			<polygon class=" (BBA_08181)
fungal specific transcription factor" points="949,25 993,25 993,10 1023,40 993,70 993,55 949,55" fill="rgb(255,255,255)" fill-opacity="1.0" stroke="rgb(0,0,0)" stroke-width="2"  />
			<g>
				<title>Fungal_trans (PF04082)
"Fungal specific transcription factor domain"</title>
				<rect class="PF04082" x="972" y="28" stroke-linejoin="round" width="25" height="24" fill="rgb(51,172,200)" stroke="rgb(40,137,160)" stroke-width="1" opacity="0.75" />
			</g>
		</g>
		<g>
			<title> (BBA_08182)
FAD binding domain-containing protein</title>
			<polygon class=" (BBA_08182)
FAD binding domain-containing protein" points="1093,25 1065,25 1065,10 1035,40 1065,70 1065,55 1093,55" fill="rgb(255,255,255)" fill-opacity="1.0" stroke="rgb(0,0,0)" stroke-width="2"  />
			<g>
				<title>FAD_binding_3 (PF01494)
"FAD binding domain"</title>
				<rect class="PF01494" x="1057" y="28" stroke-linejoin="round" width="35" height="24" fill="rgb(182,175,59)" stroke="rgb(145,140,47)" stroke-width="1" opacity="0.75" />
			</g>
		</g>
		<g>
			<title> (BBA_08183)
laccase 2</title>
			<polygon class=" (BBA_08183)
laccase 2" points="1126,25 1167,25 1167,10 1197,40 1167,70 1167,55 1126,55" fill="rgb(255,255,255)" fill-opacity="1.0" stroke="rgb(0,0,0)" stroke-width="2"  />
			<g>
				<title>Cu-oxidase_3 (PF07732)
"Multicopper oxidase"</title>
				<rect class="PF07732" x="1133" y="28" stroke-linejoin="round" width="11" height="24" fill="rgb(80,81,179)" stroke="rgb(63,64,143)" stroke-width="1" opacity="0.75" />
			</g>
			<g>
				<title>Cu-oxidase (PF00394)
"Multicopper oxidase"</title>
				<rect class="PF00394" x="1146" y="28" stroke-linejoin="round" width="15" height="24" fill="rgb(172,188,74)" stroke="rgb(137,150,59)" stroke-width="1" opacity="0.75" />
			</g>
			<g>
				<title>Cu-oxidase_2 (PF07731)
"Multicopper oxidase"</title>
				<rect class="PF07731" x="1168" y="28" stroke-linejoin="round" width="13" height="24" fill="rgb(183,55,192)" stroke="rgb(146,44,153)" stroke-width="1" opacity="0.75" />
			</g>
		</g>
		<g>
			<title> (BBA_08184)
glutathione-s-transferase</title>
			<polygon class=" (BBA_08184)
glutathione-s-transferase" points="1211,40 1234,10 1234,70" fill="rgb(255,255,255)" fill-opacity="1.0" stroke="rgb(0,0,0)" stroke-width="2"  />
			<g>
				<title>GST_C_3 (PF14497)
"Glutathione S-transferase, C-terminal domain"</title>
				<polygon class="PF14497" points="1215,40 1222,31 1222,49" stroke-linejoin="round" width="9" height="24" fill="rgb(72,178,48)" stroke="rgb(57,142,38)" stroke-width="1" opacity="0.75" />
			</g>
			<g>
				<title>GST_N_3 (PF13417)
"Glutathione S-transferase, N-terminal domain"</title>
				<polygon class="PF13417" points="1225,27 1225,28 1233,28 1233,52 1225,52 1225,53" stroke-linejoin="round" width="8" height="24" fill="rgb(220,154,91)" stroke="rgb(176,123,72)" stroke-width="1" opacity="0.75" />
			</g>
		</g>
		<g>
			<title> (BBA_08185)
hypothetical protein</title>
			<polygon class=" (BBA_08185)
hypothetical protein" points="1254,25 1259,25 1259,10 1289,40 1259,70 1259,55 1254,55" fill="rgb(255,255,255)" fill-opacity="1.0" stroke="rgb(0,0,0)" stroke-width="2"  />
		</g>
		<g>
			<title> (BBA_08186)
integral membrane protein</title>
			<polygon class=" (BBA_08186)
integral membrane protein" points="1336,10 1354,40 1336,70" fill="rgb(255,255,255)" fill-opacity="1.0" stroke="rgb(0,0,0)" stroke-width="2"  />
			<g>
				<title>MARVEL (PF01284)
"Membrane-associating domain"</title>
				<polygon class="PF01284" points="1336,28 1343,28 1349,37 1349,43 1343,52 1336,52" stroke-linejoin="round" width="13" height="24" fill="rgb(119,224,97)" stroke="rgb(95,179,77)" stroke-width="1" opacity="0.75" />
			</g>
		</g>
		<g>
			<title> (BBA_08187)
cell surface protein, putative</title>
			<polygon class=" (BBA_08187)
cell surface protein, putative" points="1429,25 1500,25 1500,10 1530,40 1500,70 1500,55 1429,55" fill="rgb(255,255,255)" fill-opacity="1.0" stroke="rgb(0,0,0)" stroke-width="2"  />
		</g>
	</g>
</svg>
