<svg version="1.1" baseProfile="full" xmlns="http://www.w3.org/2000/svg" width="1416.9666666666667" height="80">
	<g>
		<line x1="10" y1="40.0" x2="1406.9666666666667" y2="40.0" style="stroke:rgb(70,70,70); stroke-width:3 "/>
		<g>
			<title>
hypothetical protein</title>
			<polygon class="
hypothetical protein" points="10,10 30,40 10,70" fill="rgb(255,255,255)" fill-opacity="1.0" stroke="rgb(0,0,0)" stroke-width="2"  />
			<g>
				<title>NTP_transf_3 (PF12804)
"MobA-like NTP transferase domain"</title>
				<polygon class="PF12804" points="11,28 18,28 26,40 18,52 11,52" stroke-linejoin="round" width="16" height="24" fill="rgb(52,209,196)" stroke="rgb(41,167,156)" stroke-width="1" opacity="0.75" />
			</g>
		</g>
		<g>
			<title>
malate synthase</title>
			<polygon class="
malate synthase" points="35,25 59,25 59,10 89,40 59,70 59,55 35,55" fill="rgb(255,255,255)" fill-opacity="1.0" stroke="rgb(0,0,0)" stroke-width="2"  />
			<g>
				<title>Malate_synthase (PF01274)
"Malate synthase"</title>
				<polygon class="PF01274" points="36,28 72,28 84,40 72,52 36,52" stroke-linejoin="round" width="53" height="24" fill="rgb(84,70,202)" stroke="rgb(67,56,161)" stroke-width="1" opacity="0.75" />
			</g>
		</g>
		<g>
			<title>
hypothetical protein</title>
			<polygon class="
hypothetical protein" points="129,25 129,25 129,10 99,40 129,70 129,55 129,55" fill="rgb(255,255,255)" fill-opacity="1.0" stroke="rgb(0,0,0)" stroke-width="2"  />
			<g>
				<title>HipA_2 (PF20613)
"HipA-like kinase"</title>
				<polygon class="PF20613" points="104,39 115,28 128,28 128,52 115,52 104,41" stroke-linejoin="round" width="24" height="24" fill="rgb(133,87,180)" stroke="rgb(106,69,144)" stroke-width="1" opacity="0.75" />
			</g>
		</g>
		<g>
			<title>
putative oxidoreductase</title>
			<polygon class="
putative oxidoreductase" points="171,25 164,25 164,10 134,40 164,70 164,55 171,55" fill="rgb(255,255,255)" fill-opacity="1.0" stroke="rgb(0,0,0)" stroke-width="2"  />
			<g>
				<title>Oxidored_FMN (PF00724)
"NADH:flavin oxidoreductase / NADH oxidase family"</title>
				<polygon class="PF00724" points="138,40 150,28 169,28 169,52 150,52" stroke-linejoin="round" width="34" height="24" fill="rgb(157,188,65)" stroke="rgb(125,150,52)" stroke-width="1" opacity="0.75" />
			</g>
		</g>
		<g>
			<title>
transporter</title>
			<polygon class="
transporter" points="228,25 208,25 208,10 178,40 208,70 208,55 228,55" fill="rgb(255,255,255)" fill-opacity="1.0" stroke="rgb(0,0,0)" stroke-width="2"  />
			<g>
				<title>MFS_1 (PF07690)
"Major Facilitator Superfamily"</title>
				<polygon class="PF07690" points="186,36 194,28 225,28 225,52 194,52 186,44" stroke-linejoin="round" width="39" height="24" fill="rgb(193,224,74)" stroke="rgb(154,179,59)" stroke-width="1" opacity="0.75" />
			</g>
		</g>
		<g>
			<title>
NADPH-dependent fmn reductase</title>
			<polygon class="
NADPH-dependent fmn reductase" points="230,40 250,10 250,70" fill="rgb(255,255,255)" fill-opacity="1.0" stroke="rgb(0,0,0)" stroke-width="2"  />
			<g>
				<title>FMN_red (PF03358)
"NADPH-dependent FMN reductase"</title>
				<polygon class="PF03358" points="234,40 242,28 248,28 248,52 242,52 234,40" stroke-linejoin="round" width="14" height="24" fill="rgb(90,228,61)" stroke="rgb(72,182,48)" stroke-width="1" opacity="0.75" />
			</g>
		</g>
		<g>
			<title>
tetr family transcriptional regulator</title>
			<polygon class="
tetr family transcriptional regulator" points="251,10 279,40 251,70" fill="rgb(255,255,255)" fill-opacity="1.0" stroke="rgb(0,0,0)" stroke-width="2"  />
			<g>
				<title>TetR_N (PF00440)
"Bacterial regulatory proteins, tetR family"</title>
				<rect class="PF00440" x="258" y="28" stroke-linejoin="round" width="4" height="24" fill="rgb(73,212,190)" stroke="rgb(58,169,152)" stroke-width="1" opacity="0.75" />
			</g>
			<g>
				<title>TetR_C_1 (PF02909)
"Tetracyclin repressor-like, C-terminal domain"</title>
				<polygon class="PF02909" points="263,28 263,28 274,40 263,52 263,52" stroke-linejoin="round" width="14" height="24" fill="rgb(151,203,75)" stroke="rgb(120,162,60)" stroke-width="1" opacity="0.75" />
			</g>
		</g>
		<g>
			<title>
hypothetical protein</title>
			<polygon class="
hypothetical protein" points="284,10 312,40 284,70" fill="rgb(255,255,255)" fill-opacity="1.0" stroke="rgb(0,0,0)" stroke-width="2"  />
		</g>
		<g>
			<title>
oxidoreductase</title>
			<polygon class="
oxidoreductase" points="323,25 342,25 342,10 372,40 342,70 342,55 323,55" fill="rgb(255,255,255)" fill-opacity="1.0" stroke="rgb(0,0,0)" stroke-width="2"  />
			<g>
				<title>FAD_binding_3 (PF01494)
"FAD binding domain"</title>
				<rect class="PF01494" x="323" y="28" stroke-linejoin="round" width="33" height="24" fill="rgb(182,175,59)" stroke="rgb(145,140,47)" stroke-width="1" opacity="0.75" />
			</g>
		</g>
		<g>
			<title>
ketoacyl synthase</title>
			<polygon class="
ketoacyl synthase" points="383,25 395,25 395,10 425,40 395,70 395,55 383,55" fill="rgb(255,255,255)" fill-opacity="1.0" stroke="rgb(0,0,0)" stroke-width="2"  />
			<g>
				<title>ketoacyl-synt (PF00109)
"Beta-ketoacyl synthase, N-terminal domain"</title>
				<rect class="PF00109" x="383" y="28" stroke-linejoin="round" width="25" height="24" fill="rgb(112,116,228)" stroke="rgb(89,92,182)" stroke-width="1" opacity="0.75" />
			</g>
			<g>
				<title>Ketoacyl-synt_C (PF02801)
"Beta-ketoacyl synthase, C-terminal domain"</title>
				<polygon class="PF02801" points="409,28 409,28 420,39 420,41 409,52 409,52" stroke-linejoin="round" width="11" height="24" fill="rgb(215,78,102)" stroke="rgb(172,62,81)" stroke-width="1" opacity="0.75" />
			</g>
		</g>
		<g>
			<title>
chain length determinant</title>
			<polygon class="
chain length determinant" points="426,25 436,25 436,10 466,40 436,70 436,55 426,55" fill="rgb(255,255,255)" fill-opacity="1.0" stroke="rgb(0,0,0)" stroke-width="2"  />
			<g>
				<title>ketoacyl-synt (PF00109)
"Beta-ketoacyl synthase, N-terminal domain"</title>
				<rect class="PF00109" x="426" y="28" stroke-linejoin="round" width="24" height="24" fill="rgb(112,116,228)" stroke="rgb(89,92,182)" stroke-width="1" opacity="0.75" />
			</g>
			<g>
				<title>Ketoacyl-synt_C (PF02801)
"Beta-ketoacyl synthase, C-terminal domain"</title>
				<polygon class="PF02801" points="451,29 462,40 462,40 451,51" stroke-linejoin="round" width="11" height="24" fill="rgb(215,78,102)" stroke="rgb(172,62,81)" stroke-width="1" opacity="0.75" />
			</g>
		</g>
		<g>
			<title>
acyl carrier protein</title>
			<polygon class="
acyl carrier protein" points="469,10 478,40 469,70" fill="rgb(255,255,255)" fill-opacity="1.0" stroke="rgb(0,0,0)" stroke-width="2"  />
			<g>
				<title>PP-binding (PF00550)
"Phosphopantetheine attachment site"</title>
				<polygon class="PF00550" points="469,28 470,28 474,40 470,52 469,52" stroke-linejoin="round" width="7" height="24" fill="rgb(103,191,88)" stroke="rgb(82,152,70)" stroke-width="1" opacity="0.75" />
			</g>
		</g>
		<g>
			<title>
ketoreductase</title>
			<polygon class="
ketoreductase" points="483,10 509,40 483,70" fill="rgb(255,255,255)" fill-opacity="1.0" stroke="rgb(0,0,0)" stroke-width="2"  />
			<g>
				<title>adh_short (PF00106)
"short chain dehydrogenase"</title>
				<polygon class="PF00106" points="483,28 495,28 502,37 502,43 495,52 483,52" stroke-linejoin="round" width="19" height="24" fill="rgb(182,219,73)" stroke="rgb(145,175,58)" stroke-width="1" opacity="0.75" />
			</g>
		</g>
		<g>
			<title>
cyclase</title>
			<polygon class="
cyclase" points="509,25 510,25 510,10 540,40 510,70 510,55 509,55" fill="rgb(255,255,255)" fill-opacity="1.0" stroke="rgb(0,0,0)" stroke-width="2"  />
			<g>
				<title>Polyketide_cyc2 (PF10604)
"Polyketide cyclase / dehydrase and lipid transport"</title>
				<rect class="PF10604" x="509" y="28" stroke-linejoin="round" width="14" height="24" fill="rgb(105,204,74)" stroke="rgb(84,163,59)" stroke-width="1" opacity="0.75" />
			</g>
			<g>
				<title>Polyketide_cyc2 (PF10604)
"Polyketide cyclase / dehydrase and lipid transport"</title>
				<polygon class="PF10604" points="524,29 535,40 524,51" stroke-linejoin="round" width="15" height="24" fill="rgb(105,204,74)" stroke="rgb(84,163,59)" stroke-width="1" opacity="0.75" />
			</g>
		</g>
		<g>
			<title>
oxygenase-reductase</title>
			<polygon class="
oxygenase-reductase" points="541,25 577,25 577,10 607,40 577,70 577,55 541,55" fill="rgb(255,255,255)" fill-opacity="1.0" stroke="rgb(0,0,0)" stroke-width="2"  />
			<g>
				<title>FAD_binding_3 (PF01494)
"FAD binding domain"</title>
				<rect class="PF01494" x="541" y="28" stroke-linejoin="round" width="33" height="24" fill="rgb(182,175,59)" stroke="rgb(145,140,47)" stroke-width="1" opacity="0.75" />
			</g>
			<g>
				<title>adh_short_C2 (PF13561)
"Enoyl-(Acyl carrier protein) reductase"</title>
				<polygon class="PF13561" points="583,28 591,28 603,40 591,52 583,52" stroke-linejoin="round" width="23" height="24" fill="rgb(73,205,127)" stroke="rgb(58,164,101)" stroke-width="1" opacity="0.75" />
			</g>
		</g>
		<g>
			<title>
transporter</title>
			<polygon class="
transporter" points="607,25 617,25 617,10 647,40 617,70 617,55 607,55" fill="rgb(255,255,255)" fill-opacity="1.0" stroke="rgb(0,0,0)" stroke-width="2"  />
			<g>
				<title>MFS_1 (PF07690)
"Major Facilitator Superfamily"</title>
				<polygon class="PF07690" points="609,28 631,28 642,39 642,41 631,52 609,52" stroke-linejoin="round" width="33" height="24" fill="rgb(193,224,74)" stroke="rgb(154,179,59)" stroke-width="1" opacity="0.75" />
			</g>
		</g>
		<g>
			<title>
glycosyltransferase</title>
			<polygon class="
glycosyltransferase" points="649,25 662,25 662,10 692,40 662,70 662,55 649,55" fill="rgb(255,255,255)" fill-opacity="1.0" stroke="rgb(0,0,0)" stroke-width="2"  />
			<g>
				<title>DUF1205 (PF06722)
"Protein of unknown function (DUF1205)"</title>
				<polygon class="PF06722" points="670,28 675,28 679,32 679,48 675,52 670,52" stroke-linejoin="round" width="9" height="24" fill="rgb(200,129,88)" stroke="rgb(160,103,70)" stroke-width="1" opacity="0.75" />
			</g>
		</g>
		<g>
			<title>
glycosyltransferases</title>
			<polygon class="
glycosyltransferases" points="693,25 703,25 703,10 733,40 703,70 703,55 693,55" fill="rgb(255,255,255)" fill-opacity="1.0" stroke="rgb(0,0,0)" stroke-width="2"  />
			<g>
				<title>DUF1205 (PF06722)
"Protein of unknown function (DUF1205)"</title>
				<polygon class="PF06722" points="710,28 717,28 719,30 719,50 717,52 710,52" stroke-linejoin="round" width="9" height="24" fill="rgb(200,129,88)" stroke="rgb(160,103,70)" stroke-width="1" opacity="0.75" />
			</g>
		</g>
		<g>
			<title>
NDP-hexose 3, 5-epimerase</title>
			<polygon class="
NDP-hexose 3, 5-epimerase" points="736,10 752,40 736,70" fill="rgb(255,255,255)" fill-opacity="1.0" stroke="rgb(0,0,0)" stroke-width="2"  />
			<g>
				<title>dTDP_sugar_isom (PF00908)
"dTDP-4-dehydrorhamnose 3,5-epimerase"</title>
				<polygon class="PF00908" points="736,28 742,28 749,40 742,52 736,52" stroke-linejoin="round" width="14" height="24" fill="rgb(184,89,121)" stroke="rgb(147,71,96)" stroke-width="1" opacity="0.75" />
			</g>
		</g>
		<g>
			<title>
glycosyltransferase</title>
			<polygon class="
glycosyltransferase" points="753,25 760,25 760,10 790,40 760,70 760,55 753,55" fill="rgb(255,255,255)" fill-opacity="1.0" stroke="rgb(0,0,0)" stroke-width="2"  />
			<g>
				<title>DUF1205 (PF06722)
"Protein of unknown function (DUF1205)"</title>
				<polygon class="PF06722" points="769,28 774,28 778,32 778,48 774,52 769,52" stroke-linejoin="round" width="9" height="24" fill="rgb(200,129,88)" stroke="rgb(160,103,70)" stroke-width="1" opacity="0.75" />
			</g>
		</g>
		<g>
			<title>
dNDP-glucose synthetase</title>
			<polygon class="
dNDP-glucose synthetase" points="791,25 796,25 796,10 826,40 796,70 796,55 791,55" fill="rgb(255,255,255)" fill-opacity="1.0" stroke="rgb(0,0,0)" stroke-width="2"  />
			<g>
				<title>NTP_transferase (PF00483)
"Nucleotidyl transferase"</title>
				<polygon class="PF00483" points="791,28 810,28 814,32 814,48 810,52 791,52" stroke-linejoin="round" width="23" height="24" fill="rgb(198,101,87)" stroke="rgb(158,80,69)" stroke-width="1" opacity="0.75" />
			</g>
		</g>
		<g>
			<title>
dNDP-glucose 4,6-dehydratase</title>
			<polygon class="
dNDP-glucose 4,6-dehydratase" points="827,25 829,25 829,10 859,40 829,70 829,55 827,55" fill="rgb(255,255,255)" fill-opacity="1.0" stroke="rgb(0,0,0)" stroke-width="2"  />
			<g>
				<title>GDP_Man_Dehyd (PF16363)
"GDP-mannose 4,6 dehydratase"</title>
				<polygon class="PF16363" points="827,28 843,28 855,40 843,52 827,52" stroke-linejoin="round" width="30" height="24" fill="rgb(162,221,65)" stroke="rgb(129,176,51)" stroke-width="1" opacity="0.75" />
			</g>
		</g>
		<g>
			<title>
NDP-hexose 4-ketoreductase</title>
			<polygon class="
NDP-hexose 4-ketoreductase" points="861,25 864,25 864,10 894,40 864,70 864,55 861,55" fill="rgb(255,255,255)" fill-opacity="1.0" stroke="rgb(0,0,0)" stroke-width="2"  />
			<g>
				<title>Epimerase (PF01370)
"NAD dependent epimerase/dehydratase family"</title>
				<polygon class="PF01370" points="861,28 878,28 885,35 885,45 878,52 861,52" stroke-linejoin="round" width="24" height="24" fill="rgb(98,102,214)" stroke="rgb(78,81,171)" stroke-width="1" opacity="0.75" />
			</g>
		</g>
		<g>
			<title>
NDP-hexose 3,4-dehydratase</title>
			<polygon class="
NDP-hexose 3,4-dehydratase" points="894,25 907,25 907,10 937,40 907,70 907,55 894,55" fill="rgb(255,255,255)" fill-opacity="1.0" stroke="rgb(0,0,0)" stroke-width="2"  />
			<g>
				<title>DegT_DnrJ_EryC1 (PF01041)
"DegT/DnrJ/EryC1/StrS aminotransferase family"</title>
				<polygon class="PF01041" points="897,28 921,28 933,40 921,52 897,52" stroke-linejoin="round" width="38" height="24" fill="rgb(59,139,191)" stroke="rgb(47,111,152)" stroke-width="1" opacity="0.75" />
			</g>
		</g>
		<g>
			<title>
NDP-hexose 4-ketoreductase</title>
			<polygon class="
NDP-hexose 4-ketoreductase" points="940,10 965,40 940,70" fill="rgb(255,255,255)" fill-opacity="1.0" stroke="rgb(0,0,0)" stroke-width="2"  />
			<g>
				<title>Epimerase (PF01370)
"NAD dependent epimerase/dehydratase family"</title>
				<polygon class="PF01370" points="941,28 951,28 957,35 957,45 951,52 941,52" stroke-linejoin="round" width="16" height="24" fill="rgb(98,102,214)" stroke="rgb(78,81,171)" stroke-width="1" opacity="0.75" />
			</g>
		</g>
		<g>
			<title>
hypothetical protein</title>
			<polygon class="
hypothetical protein" points="966,25 967,25 967,10 997,40 967,70 967,55 966,55" fill="rgb(255,255,255)" fill-opacity="1.0" stroke="rgb(0,0,0)" stroke-width="2"  />
		</g>
		<g>
			<title>
NDP-hexose 2,3-dehydratase</title>
			<polygon class="
NDP-hexose 2,3-dehydratase" points="1000,25 1016,25 1016,10 1046,40 1016,70 1016,55 1000,55" fill="rgb(255,255,255)" fill-opacity="1.0" stroke="rgb(0,0,0)" stroke-width="2"  />
			<g>
				<title>Hexose_dehydrat (PF03559)
"NDP-hexose 2,3-dehydratase"</title>
				<rect class="PF03559" x="1003" y="28" stroke-linejoin="round" width="20" height="24" fill="rgb(74,201,66)" stroke="rgb(59,160,52)" stroke-width="1" opacity="0.75" />
			</g>
			<g>
				<title>Hexose_dehydrat (PF03559)
"NDP-hexose 2,3-dehydratase"</title>
				<polygon class="PF03559" points="1025,28 1030,28 1042,40 1030,52 1025,52" stroke-linejoin="round" width="20" height="24" fill="rgb(74,201,66)" stroke="rgb(59,160,52)" stroke-width="1" opacity="0.75" />
			</g>
		</g>
		<g>
			<title>
NDP-hexose 3-ketoreductase</title>
			<polygon class="
NDP-hexose 3-ketoreductase" points="1046,25 1048,25 1048,10 1078,40 1048,70 1048,55 1046,55" fill="rgb(255,255,255)" fill-opacity="1.0" stroke="rgb(0,0,0)" stroke-width="2"  />
			<g>
				<title>GFO_IDH_MocA (PF01408)
"Oxidoreductase family, NAD-binding Rossmann fold"</title>
				<rect class="PF01408" x="1046" y="28" stroke-linejoin="round" width="11" height="24" fill="rgb(76,117,190)" stroke="rgb(60,93,152)" stroke-width="1" opacity="0.75" />
			</g>
		</g>
		<g>
			<title>
carboxyl transferase</title>
			<polygon class="
carboxyl transferase" points="1079,25 1100,25 1100,10 1130,40 1100,70 1100,55 1079,55" fill="rgb(255,255,255)" fill-opacity="1.0" stroke="rgb(0,0,0)" stroke-width="2"  />
			<g>
				<title>Carboxyl_trans (PF01039)
"Carboxyl transferase domain"</title>
				<polygon class="PF01039" points="1081,28 1113,28 1125,40 1113,52 1081,52" stroke-linejoin="round" width="48" height="24" fill="rgb(180,136,60)" stroke="rgb(144,108,48)" stroke-width="1" opacity="0.75" />
			</g>
		</g>
		<g>
			<title>
FAD/FMN-containin-g dehydrogenase</title>
			<polygon class="
FAD/FMN-containin-g dehydrogenase" points="1148,25 1171,25 1171,10 1201,40 1171,70 1171,55 1148,55" fill="rgb(255,255,255)" fill-opacity="1.0" stroke="rgb(0,0,0)" stroke-width="2"  />
			<g>
				<title>FAD_binding_4 (PF01565)
"FAD binding domain"</title>
				<rect class="PF01565" x="1154" y="28" stroke-linejoin="round" width="13" height="24" fill="rgb(226,88,136)" stroke="rgb(180,70,108)" stroke-width="1" opacity="0.75" />
			</g>
			<g>
				<title>BBE (PF08031)
"Berberine and berberine like"</title>
				<polygon class="PF08031" points="1195,39 1196,40 1195,41" stroke-linejoin="round" width="5" height="24" fill="rgb(210,73,83)" stroke="rgb(168,58,66)" stroke-width="1" opacity="0.75" />
			</g>
		</g>
		<g>
			<title>
positive regulation regulator</title>
			<polygon class="
positive regulation regulator" points="1224,40 1247,10 1247,70" fill="rgb(255,255,255)" fill-opacity="1.0" stroke="rgb(0,0,0)" stroke-width="2"  />
			<g>
				<title>Trans_reg_C (PF00486)
"Transcriptional regulatory protein, C terminal"</title>
				<polygon class="PF00486" points="1228,40 1231,36 1231,44" stroke-linejoin="round" width="7" height="24" fill="rgb(204,153,57)" stroke="rgb(163,122,45)" stroke-width="1" opacity="0.75" />
			</g>
			<g>
				<title>Response_reg (PF00072)
"Response regulator receiver domain"</title>
				<polygon class="PF00072" points="1235,31 1237,28 1245,28 1245,52 1237,52 1235,49" stroke-linejoin="round" width="10" height="24" fill="rgb(100,107,203)" stroke="rgb(80,85,162)" stroke-width="1" opacity="0.75" />
			</g>
		</g>
		<g>
			<title>
putative oxidoreductase</title>
			<polygon class="
putative oxidoreductase" points="1270,25 1299,25 1299,10 1329,40 1299,70 1299,55 1270,55" fill="rgb(255,255,255)" fill-opacity="1.0" stroke="rgb(0,0,0)" stroke-width="2"  />
			<g>
				<title>POR (PF01558)
"Pyruvate ferredoxin/flavodoxin oxidoreductase"</title>
				<rect class="PF01558" x="1270" y="28" stroke-linejoin="round" width="18" height="24" fill="rgb(89,196,208)" stroke="rgb(71,156,166)" stroke-width="1" opacity="0.75" />
			</g>
			<g>
				<title>POR_N (PF01855)
"Pyruvate flavodoxin/ferredoxin oxidoreductase, thiamine diP-bdg"</title>
				<polygon class="PF01855" points="1293,28 1313,28 1316,31 1316,49 1313,52 1293,52" stroke-linejoin="round" width="23" height="24" fill="rgb(146,196,83)" stroke="rgb(116,156,66)" stroke-width="1" opacity="0.75" />
			</g>
			<g>
				<title>PFOR_II (PF17147)
"Pyruvate:ferredoxin oxidoreductase core domain II"</title>
				<polygon class="PF17147" points="1319,34 1325,40 1319,46" stroke-linejoin="round" width="8" height="24" fill="rgb(179,47,158)" stroke="rgb(143,37,126)" stroke-width="1" opacity="0.75" />
			</g>
		</g>
		<g>
			<title>
putative oxidoreductase</title>
			<polygon class="
putative oxidoreductase" points="1329,25 1333,25 1333,10 1363,40 1333,70 1333,55 1329,55" fill="rgb(255,255,255)" fill-opacity="1.0" stroke="rgb(0,0,0)" stroke-width="2"  />
			<g>
				<title>TPP_enzyme_C (PF02775)
"Thiamine pyrophosphate enzyme, C-terminal TPP binding domain"</title>
				<polygon class="PF02775" points="1334,28 1346,28 1348,30 1348,50 1346,52 1334,52" stroke-linejoin="round" width="14" height="24" fill="rgb(156,179,45)" stroke="rgb(124,143,36)" stroke-width="1" opacity="0.75" />
			</g>
		</g>
		<g>
			<title>
putative integral membrane export protein</title>
			<polygon class="
putative integral membrane export protein" points="1406,25 1405,25 1405,10 1375,40 1405,70 1405,55 1406,55" fill="rgb(255,255,255)" fill-opacity="1.0" stroke="rgb(0,0,0)" stroke-width="2"  />
			<g>
				<title>TerC (PF03741)
"Integral membrane protein TerC family"</title>
				<polygon class="PF03741" points="1379,40 1391,28 1399,28 1399,52 1391,52 1379,40" stroke-linejoin="round" width="20" height="24" fill="rgb(221,113,97)" stroke="rgb(176,90,77)" stroke-width="1" opacity="0.75" />
			</g>
		</g>
	</g>
</svg>
