<svg version="1.1" baseProfile="full" xmlns="http://www.w3.org/2000/svg" width="801.2333333333333" height="80">
	<g>
		<line x1="10" y1="40.0" x2="791.2333333333333" y2="40.0" style="stroke:rgb(70,70,70); stroke-width:3 "/>
		<g>
			<title>pamR2 (SALB_00464)
TetR family transcription regulator</title>
			<polygon class="pamR2 (SALB_00464)
TetR family transcription regulator" points="10,40 34,10 34,70" fill="rgb(255,255,255)" fill-opacity="1.0" stroke="rgb(0,0,0)" stroke-width="2"  />
			<g>
				<title>TetR_C_1 (PF02909)
"Tetracyclin repressor-like, C-terminal domain"</title>
				<polygon class="PF02909" points="14,40 24,28 28,28 28,52 24,52" stroke-linejoin="round" width="18" height="24" fill="rgb(151,203,75)" stroke="rgb(120,162,60)" stroke-width="1" opacity="0.75" />
			</g>
		</g>
		<g>
			<title>pamW (SALB_00465)
drug resistance transporter, EmrB/QacA family</title>
			<polygon class="pamW (SALB_00465)
drug resistance transporter, EmrB/QacA family" points="37,25 62,25 62,10 92,40 62,70 62,55 37,55" fill="rgb(255,255,255)" fill-opacity="1.0" stroke="rgb(0,0,0)" stroke-width="2"  />
			<g>
				<title>MFS_1 (PF07690)
"Major Facilitator Superfamily"</title>
				<polygon class="PF07690" points="40,28 76,28 79,31 79,49 76,52 40,52" stroke-linejoin="round" width="39" height="24" fill="rgb(193,224,74)" stroke="rgb(154,179,59)" stroke-width="1" opacity="0.75" />
			</g>
		</g>
		<g>
			<title>pamC (SALB_00466)
acyl-carrier protein</title>
			<polygon class="pamC (SALB_00466)
acyl-carrier protein" points="97,40 104,10 104,70" fill="rgb(255,255,255)" fill-opacity="1.0" stroke="rgb(0,0,0)" stroke-width="2"  />
			<g>
				<title>PP-binding (PF00550)
"Phosphopantetheine attachment site"</title>
				<polygon class="PF00550" points="100,40 103,28 103,28 103,52 103,52" stroke-linejoin="round" width="6" height="24" fill="rgb(103,191,88)" stroke="rgb(82,152,70)" stroke-width="1" opacity="0.75" />
			</g>
		</g>
		<g>
			<title>pamG (SALB_00467)
Ketoacyl-acyl carrier protein synthase III</title>
			<polygon class="pamG (SALB_00467)
Ketoacyl-acyl carrier protein synthase III" points="140,25 136,25 136,10 106,40 136,70 136,55 140,55" fill="rgb(255,255,255)" fill-opacity="1.0" stroke="rgb(0,0,0)" stroke-width="2"  />
			<g>
				<title>ACP_syn_III_C (PF08541)
"3-Oxoacyl-[acyl-carrier-protein (ACP)] synthase III C terminal"</title>
				<polygon class="PF08541" points="110,40 115,35 115,45" stroke-linejoin="round" width="8" height="24" fill="rgb(146,207,81)" stroke="rgb(116,165,64)" stroke-width="1" opacity="0.75" />
			</g>
			<g>
				<title>ACP_syn_III (PF08545)
"3-Oxoacyl-[acyl-carrier-protein (ACP)] synthase III"</title>
				<polygon class="PF08545" points="121,29 122,28 129,28 129,52 122,52 121,51" stroke-linejoin="round" width="8" height="24" fill="rgb(189,102,84)" stroke="rgb(151,81,67)" stroke-width="1" opacity="0.75" />
			</g>
		</g>
		<g>
			<title>pamF (SALB_00468)
Ketoacyl-acyl carrier protein synthase II</title>
			<polygon class="pamF (SALB_00468)
Ketoacyl-acyl carrier protein synthase II" points="185,25 171,25 171,10 141,40 171,70 171,55 185,55" fill="rgb(255,255,255)" fill-opacity="1.0" stroke="rgb(0,0,0)" stroke-width="2"  />
			<g>
				<title>Ketoacyl-synt_C (PF02801)
"Beta-ketoacyl synthase, C-terminal domain"</title>
				<polygon class="PF02801" points="145,40 156,29 156,51 145,40" stroke-linejoin="round" width="11" height="24" fill="rgb(215,78,102)" stroke="rgb(172,62,81)" stroke-width="1" opacity="0.75" />
			</g>
			<g>
				<title>ketoacyl-synt (PF00109)
"Beta-ketoacyl synthase, N-terminal domain"</title>
				<rect class="PF00109" x="164" y="28" stroke-linejoin="round" width="19" height="24" fill="rgb(112,116,228)" stroke="rgb(89,92,182)" stroke-width="1" opacity="0.75" />
			</g>
		</g>
		<g>
			<title>pamA (SALB_00469)
Ketoacyl-acyl carrier protein synthase II</title>
			<polygon class="pamA (SALB_00469)
Ketoacyl-acyl carrier protein synthase II" points="192,25 206,25 206,10 236,40 206,70 206,55 192,55" fill="rgb(255,255,255)" fill-opacity="1.0" stroke="rgb(0,0,0)" stroke-width="2"  />
			<g>
				<title>ketoacyl-synt (PF00109)
"Beta-ketoacyl synthase, N-terminal domain"</title>
				<rect class="PF00109" x="193" y="28" stroke-linejoin="round" width="26" height="24" fill="rgb(112,116,228)" stroke="rgb(89,92,182)" stroke-width="1" opacity="0.75" />
			</g>
			<g>
				<title>Ketoacyl-synt_C (PF02801)
"Beta-ketoacyl synthase, C-terminal domain"</title>
				<polygon class="PF02801" points="220,28 220,28 231,39 231,41 220,52 220,52" stroke-linejoin="round" width="11" height="24" fill="rgb(215,78,102)" stroke="rgb(172,62,81)" stroke-width="1" opacity="0.75" />
			</g>
		</g>
		<g>
			<title>pamB (SALB_00470)
3-ketoacid (adipate/glutaconate) CoA transferase</title>
			<polygon class="pamB (SALB_00470)
3-ketoacid (adipate/glutaconate) CoA transferase" points="236,25 268,25 268,10 298,40 268,70 268,55 236,55" fill="rgb(255,255,255)" fill-opacity="1.0" stroke="rgb(0,0,0)" stroke-width="2"  />
			<g>
				<title>CoA_trans (PF01144)
"Coenzyme A transferase"</title>
				<rect class="PF01144" x="239" y="28" stroke-linejoin="round" width="24" height="24" fill="rgb(106,96,228)" stroke="rgb(84,76,182)" stroke-width="1" opacity="0.75" />
			</g>
		</g>
		<g>
			<title>pamD (SALB_00471)
Ketoacyl-acyl carrier protein synthase III</title>
			<polygon class="pamD (SALB_00471)
Ketoacyl-acyl carrier protein synthase III" points="300,25 302,25 302,10 332,40 302,70 302,55 300,55" fill="rgb(255,255,255)" fill-opacity="1.0" stroke="rgb(0,0,0)" stroke-width="2"  />
			<g>
				<title>ACP_syn_III (PF08545)
"3-Oxoacyl-[acyl-carrier-protein (ACP)] synthase III"</title>
				<polygon class="PF08545" points="311,28 315,28 318,31 318,49 315,52 311,52" stroke-linejoin="round" width="7" height="24" fill="rgb(189,102,84)" stroke="rgb(151,81,67)" stroke-width="1" opacity="0.75" />
			</g>
			<g>
				<title>ACP_syn_III_C (PF08541)
"3-Oxoacyl-[acyl-carrier-protein (ACP)] synthase III C terminal"</title>
				<polygon class="PF08541" points="323,36 327,40 323,44" stroke-linejoin="round" width="8" height="24" fill="rgb(146,207,81)" stroke="rgb(116,165,64)" stroke-width="1" opacity="0.75" />
			</g>
		</g>
		<g>
			<title>pamE (SALB_00472)
Ketoacyl-acyl carrier protein synthase III</title>
			<polygon class="pamE (SALB_00472)
Ketoacyl-acyl carrier protein synthase III" points="333,25 337,25 337,10 367,40 337,70 337,55 333,55" fill="rgb(255,255,255)" fill-opacity="1.0" stroke="rgb(0,0,0)" stroke-width="2"  />
			<g>
				<title>ACP_syn_III (PF08545)
"3-Oxoacyl-[acyl-carrier-protein (ACP)] synthase III"</title>
				<polygon class="PF08545" points="345,28 351,28 353,30 353,50 351,52 345,52" stroke-linejoin="round" width="8" height="24" fill="rgb(189,102,84)" stroke="rgb(151,81,67)" stroke-width="1" opacity="0.75" />
			</g>
			<g>
				<title>ACP_syn_III_C (PF08541)
"3-Oxoacyl-[acyl-carrier-protein (ACP)] synthase III C terminal"</title>
				<polygon class="PF08541" points="358,35 363,40 358,45" stroke-linejoin="round" width="8" height="24" fill="rgb(146,207,81)" stroke="rgb(116,165,64)" stroke-width="1" opacity="0.75" />
			</g>
		</g>
		<g>
			<title>pamO (SALB_00473)
Ketoacyl-(acyl-carrier-protein) reductase</title>
			<polygon class="pamO (SALB_00473)
Ketoacyl-(acyl-carrier-protein) reductase" points="370,10 396,40 370,70" fill="rgb(255,255,255)" fill-opacity="1.0" stroke="rgb(0,0,0)" stroke-width="2"  />
			<g>
				<title>adh_short_C2 (PF13561)
"Enoyl-(Acyl carrier protein) reductase"</title>
				<polygon class="PF13561" points="371,28 381,28 392,40 381,52 371,52" stroke-linejoin="round" width="24" height="24" fill="rgb(73,205,127)" stroke="rgb(58,164,101)" stroke-width="1" opacity="0.75" />
			</g>
		</g>
		<g>
			<title>pamK (SALB_00474)
Ketoacyl-acyl carrier protein synthase III</title>
			<polygon class="pamK (SALB_00474)
Ketoacyl-acyl carrier protein synthase III" points="399,25 402,25 402,10 432,40 402,70 402,55 399,55" fill="rgb(255,255,255)" fill-opacity="1.0" stroke="rgb(0,0,0)" stroke-width="2"  />
			<g>
				<title>ACP_syn_III (PF08545)
"3-Oxoacyl-[acyl-carrier-protein (ACP)] synthase III"</title>
				<polygon class="PF08545" points="412,28 416,28 419,31 419,49 416,52 412,52" stroke-linejoin="round" width="7" height="24" fill="rgb(189,102,84)" stroke="rgb(151,81,67)" stroke-width="1" opacity="0.75" />
			</g>
			<g>
				<title>ACP_syn_III_C (PF08541)
"3-Oxoacyl-[acyl-carrier-protein (ACP)] synthase III C terminal"</title>
				<polygon class="PF08541" points="423,35 428,40 423,45" stroke-linejoin="round" width="9" height="24" fill="rgb(146,207,81)" stroke="rgb(116,165,64)" stroke-width="1" opacity="0.75" />
			</g>
		</g>
		<g>
			<title>pamJ (SALB_00475)
Ketoacyl-acyl carrier protein synthase II</title>
			<polygon class="pamJ (SALB_00475)
Ketoacyl-acyl carrier protein synthase II" points="433,25 446,25 446,10 476,40 446,70 446,55 433,55" fill="rgb(255,255,255)" fill-opacity="1.0" stroke="rgb(0,0,0)" stroke-width="2"  />
			<g>
				<title>ketoacyl-synt (PF00109)
"Beta-ketoacyl synthase, N-terminal domain"</title>
				<rect class="PF00109" x="433" y="28" stroke-linejoin="round" width="25" height="24" fill="rgb(112,116,228)" stroke="rgb(89,92,182)" stroke-width="1" opacity="0.75" />
			</g>
			<g>
				<title>Ketoacyl-synt_C (PF02801)
"Beta-ketoacyl synthase, C-terminal domain"</title>
				<polygon class="PF02801" points="460,29 471,40 471,40 460,51" stroke-linejoin="round" width="11" height="24" fill="rgb(215,78,102)" stroke="rgb(172,62,81)" stroke-width="1" opacity="0.75" />
			</g>
		</g>
		<g>
			<title>pamM (SALB_00476)
Ketoacyl-(acyl-carrier-protein) reductase</title>
			<polygon class="pamM (SALB_00476)
Ketoacyl-(acyl-carrier-protein) reductase" points="476,25 498,25 498,10 528,40 498,70 498,55 476,55" fill="rgb(255,255,255)" fill-opacity="1.0" stroke="rgb(0,0,0)" stroke-width="2"  />
			<g>
				<title>adh_short_C2 (PF13561)
"Enoyl-(Acyl carrier protein) reductase"</title>
				<rect class="PF13561" x="484" y="28" stroke-linejoin="round" width="12" height="24" fill="rgb(73,205,127)" stroke="rgb(58,164,101)" stroke-width="1" opacity="0.75" />
			</g>
			<g>
				<title>adh_short_C2 (PF13561)
"Enoyl-(Acyl carrier protein) reductase"</title>
				<polygon class="PF13561" points="501,28 512,28 524,40 524,40 512,52 501,52" stroke-linejoin="round" width="23" height="24" fill="rgb(73,205,127)" stroke="rgb(58,164,101)" stroke-width="1" opacity="0.75" />
			</g>
		</g>
		<g>
			<title>pamN (SALB_00477)
Ketoacyl-(acyl-carrier-protein) reductase</title>
			<polygon class="pamN (SALB_00477)
Ketoacyl-(acyl-carrier-protein) reductase" points="529,10 556,40 529,70" fill="rgb(255,255,255)" fill-opacity="1.0" stroke="rgb(0,0,0)" stroke-width="2"  />
			<g>
				<title>adh_short (PF00106)
"short chain dehydrogenase"</title>
				<polygon class="PF00106" points="530,28 541,28 549,37 549,43 541,52 530,52" stroke-linejoin="round" width="19" height="24" fill="rgb(182,219,73)" stroke="rgb(145,175,58)" stroke-width="1" opacity="0.75" />
			</g>
		</g>
		<g>
			<title>pamL (SALB_00478)
Hydroxyl acids CoA ligase</title>
			<polygon class="pamL (SALB_00478)
Hydroxyl acids CoA ligase" points="556,25 582,25 582,10 612,40 582,70 582,55 556,55" fill="rgb(255,255,255)" fill-opacity="1.0" stroke="rgb(0,0,0)" stroke-width="2"  />
			<g>
				<title>AMP-binding (PF00501)
"AMP-binding enzyme"</title>
				<polygon class="PF00501" points="560,28 596,28 600,32 600,48 596,52 560,52" stroke-linejoin="round" width="40" height="24" fill="rgb(60,217,223)" stroke="rgb(48,173,178)" stroke-width="1" opacity="0.75" />
			</g>
			<g>
				<title>AMP-binding_C (PF13193)
"AMP-binding enzyme C-terminal domain"</title>
				<polygon class="PF13193" points="602,34 608,40 602,46" stroke-linejoin="round" width="7" height="24" fill="rgb(182,50,118)" stroke="rgb(145,39,94)" stroke-width="1" opacity="0.75" />
			</g>
		</g>
		<g>
			<title>pamH (SALB_00479)
Metal-dependent hydrolase (resistance)</title>
			<polygon class="pamH (SALB_00479)
Metal-dependent hydrolase (resistance)" points="612,25 614,25 614,10 644,40 614,70 614,55 612,55" fill="rgb(255,255,255)" fill-opacity="1.0" stroke="rgb(0,0,0)" stroke-width="2"  />
			<g>
				<title>Amidohydro_2 (PF04909)
"Amidohydrolase"</title>
				<polygon class="PF04909" points="620,28 628,28 640,40 628,52 620,52" stroke-linejoin="round" width="24" height="24" fill="rgb(95,225,123)" stroke="rgb(76,180,98)" stroke-width="1" opacity="0.75" />
			</g>
		</g>
		<g>
			<title>pamX (SALB_00480)
Aminotransferase</title>
			<polygon class="pamX (SALB_00480)
Aminotransferase" points="648,25 662,25 662,10 692,40 662,70 662,55 648,55" fill="rgb(255,255,255)" fill-opacity="1.0" stroke="rgb(0,0,0)" stroke-width="2"  />
			<g>
				<title>Aminotran_3 (PF00202)
"Aminotransferase class-III"</title>
				<polygon class="PF00202" points="650,28 676,28 688,40 676,52 650,52" stroke-linejoin="round" width="40" height="24" fill="rgb(49,163,189)" stroke="rgb(39,130,151)" stroke-width="1" opacity="0.75" />
			</g>
		</g>
		<g>
			<title>pamY (SALB_00481)
Methyltransferase</title>
			<polygon class="pamY (SALB_00481)
Methyltransferase" points="695,10 722,40 695,70" fill="rgb(255,255,255)" fill-opacity="1.0" stroke="rgb(0,0,0)" stroke-width="2"  />
			<g>
				<title>Methyltransf_11 (PF08241)
"Methyltransferase domain"</title>
				<polygon class="PF08241" points="701,28 706,28 710,31 710,49 706,52 701,52" stroke-linejoin="round" width="9" height="24" fill="rgb(106,219,159)" stroke="rgb(84,175,127)" stroke-width="1" opacity="0.75" />
			</g>
		</g>
		<g>
			<title>pamS (SALB_00482)
Enoyl-CoA hydratase</title>
			<polygon class="pamS (SALB_00482)
Enoyl-CoA hydratase" points="729,10 755,40 729,70" fill="rgb(255,255,255)" fill-opacity="1.0" stroke="rgb(0,0,0)" stroke-width="2"  />
			<g>
				<title>ECH_1 (PF00378)
"Enoyl-CoA hydratase/isomerase"</title>
				<polygon class="PF00378" points="731,28 740,28 751,40 740,52 731,52" stroke-linejoin="round" width="24" height="24" fill="rgb(218,72,181)" stroke="rgb(174,57,144)" stroke-width="1" opacity="0.75" />
			</g>
		</g>
		<g>
			<title>pamR1 (SALB_00483)
Response regulator LuxR family</title>
			<polygon class="pamR1 (SALB_00483)
Response regulator LuxR family" points="757,40 778,10 778,70" fill="rgb(255,255,255)" fill-opacity="1.0" stroke="rgb(0,0,0)" stroke-width="2"  />
			<g>
				<title>GerE (PF00196)
"Bacterial regulatory proteins, luxR family"</title>
				<polygon class="PF00196" points="761,40 763,37 763,43" stroke-linejoin="round" width="5" height="24" fill="rgb(219,94,82)" stroke="rgb(175,75,65)" stroke-width="1" opacity="0.75" />
			</g>
			<g>
				<title>Response_reg (PF00072)
"Response regulator receiver domain"</title>
				<polygon class="PF00072" points="766,33 770,28 777,28 777,52 770,52 766,47" stroke-linejoin="round" width="11" height="24" fill="rgb(100,107,203)" stroke="rgb(80,85,162)" stroke-width="1" opacity="0.75" />
			</g>
		</g>
	</g>
</svg>
