<svg version="1.1" baseProfile="full" xmlns="http://www.w3.org/2000/svg" width="2020.0333333333333" height="80">
	<g>
		<line x1="10" y1="40.0" x2="2010.0333333333333" y2="40.0" style="stroke:rgb(70,70,70); stroke-width:3 "/>
		<g>
			<title> (AT5G36100)
transmembrane protein</title>
			<polygon class=" (AT5G36100)
transmembrane protein" points="131,25 97,25 97,10 67,40 97,70 97,55 131,55" fill="rgb(255,255,255)" fill-opacity="1.0" stroke="rgb(0,0,0)" stroke-width="2"  />
		</g>
		<g>
			<title> (AT5G36100_rename1)
transmembrane protein</title>
			<polygon class=" (AT5G36100_rename1)
transmembrane protein" points="105,40 131,10 131,70" fill="rgb(255,255,255)" fill-opacity="1.0" stroke="rgb(0,0,0)" stroke-width="2"  />
		</g>
		<g>
			<title>CYP716A1 (AT5G36110_rename1)
cytochrome P450, family 716, subfamily A, polypeptide 1</title>
			<polygon class="CYP716A1 (AT5G36110_rename1)
cytochrome P450, family 716, subfamily A, polypeptide 1" points="189,25 221,25 221,10 251,40 221,70 221,55 189,55" fill="rgb(255,255,255)" fill-opacity="1.0" stroke="rgb(0,0,0)" stroke-width="2"  />
		</g>
		<g>
			<title>CYP716A1 (AT5G36110)
cytochrome P450, family 716, subfamily A, polypeptide 1</title>
			<polygon class="CYP716A1 (AT5G36110)
cytochrome P450, family 716, subfamily A, polypeptide 1" points="189,25 233,25 233,10 263,40 233,70 233,55 189,55" fill="rgb(255,255,255)" fill-opacity="1.0" stroke="rgb(0,0,0)" stroke-width="2"  />
			<g>
				<title>p450 (PF00067)
"Cytochrome P450"</title>
				<rect class="PF00067" x="192" y="28" stroke-linejoin="round" width="43" height="24" fill="rgb(85,216,107)" stroke="rgb(68,172,85)" stroke-width="1" opacity="0.75" />
			</g>
		</g>
		<g>
			<title>CCB3 (AT5G36120)
cofactor assembly, complex C (B6F)</title>
			<polygon class="CCB3 (AT5G36120)
cofactor assembly, complex C (B6F)" points="299,40 316,10 316,70" fill="rgb(255,255,255)" fill-opacity="1.0" stroke="rgb(0,0,0)" stroke-width="2"  />
			<g>
				<title>YGGT (PF02325)
"YGGT family"</title>
				<polygon class="PF02325" points="302,40 307,31 307,49" stroke-linejoin="round" width="7" height="24" fill="rgb(224,215,98)" stroke="rgb(179,172,78)" stroke-width="1" opacity="0.75" />
			</g>
		</g>
		<g>
			<title> (AT5G36130)
Cytochrome P450 superfamily protein</title>
			<polygon class=" (AT5G36130)
Cytochrome P450 superfamily protein" points="653,40 670,10 670,70" fill="rgb(255,255,255)" fill-opacity="1.0" stroke="rgb(0,0,0)" stroke-width="2"  />
			<g>
				<title>p450 (PF00067)
"Cytochrome P450"</title>
				<polygon class="PF00067" points="657,38 663,28 669,28 669,52 663,52 657,42" stroke-linejoin="round" width="12" height="24" fill="rgb(85,216,107)" stroke="rgb(68,172,85)" stroke-width="1" opacity="0.75" />
			</g>
		</g>
		<g>
			<title>CYP716A2 (AT5G36140)
cytochrome P450, family 716, subfamily A, polypeptide 2</title>
			<polygon class="CYP716A2 (AT5G36140)
cytochrome P450, family 716, subfamily A, polypeptide 2" points="784,25 780,25 780,10 750,40 780,70 780,55 784,55" fill="rgb(255,255,255)" fill-opacity="1.0" stroke="rgb(0,0,0)" stroke-width="2"  />
			<g>
				<title>p450 (PF00067)
"Cytochrome P450"</title>
				<polygon class="PF00067" points="754,40 766,28 781,28 781,52 766,52" stroke-linejoin="round" width="28" height="24" fill="rgb(85,216,107)" stroke="rgb(68,172,85)" stroke-width="1" opacity="0.75" />
			</g>
		</g>
		<g>
			<title>PEN3 (AT5G36150)
putative pentacyclic triterpene synthase 3</title>
			<polygon class="PEN3 (AT5G36150)
putative pentacyclic triterpene synthase 3" points="1190,25 1064,25 1064,10 1034,40 1064,70 1064,55 1190,55" fill="rgb(255,255,255)" fill-opacity="1.0" stroke="rgb(0,0,0)" stroke-width="2"  />
			<g>
				<title>SQHop_cyclase_C (PF13243)
"Squalene-hopene cyclase C-terminal domain"</title>
				<rect class="PF13243" x="1114" y="28" stroke-linejoin="round" width="33" height="24" fill="rgb(191,58,201)" stroke="rgb(152,46,160)" stroke-width="1" opacity="0.75" />
			</g>
			<g>
				<title>SQHop_cyclase_N (PF13249)
"Squalene-hopene cyclase N-terminal domain"</title>
				<rect class="PF13249" x="1149" y="28" stroke-linejoin="round" width="30" height="24" fill="rgb(88,190,89)" stroke="rgb(70,152,71)" stroke-width="1" opacity="0.75" />
			</g>
		</g>
		<g>
			<title> (AT5G36160)
Tyrosine transaminase family protein</title>
			<polygon class=" (AT5G36160)
Tyrosine transaminase family protein" points="1514,25 1482,25 1482,10 1452,40 1482,70 1482,55 1514,55" fill="rgb(255,255,255)" fill-opacity="1.0" stroke="rgb(0,0,0)" stroke-width="2"  />
			<g>
				<title>Aminotran_1_2 (PF00155)
"Aminotransferase class I and II"</title>
				<rect class="PF00155" x="1473" y="28" stroke-linejoin="round" width="36" height="24" fill="rgb(89,113,198)" stroke="rgb(71,90,158)" stroke-width="1" opacity="0.75" />
			</g>
		</g>
		<g>
			<title>HCF109 (AT5G36170)
high chlorophyll fluorescent 109</title>
			<polygon class="HCF109 (AT5G36170)
high chlorophyll fluorescent 109" points="1609,25 1576,25 1576,10 1546,40 1576,70 1576,55 1609,55" fill="rgb(255,255,255)" fill-opacity="1.0" stroke="rgb(0,0,0)" stroke-width="2"  />
		</g>
		<g>
			<title>HCF109 (AT5G36170_rename1)
high chlorophyll fluorescent 109</title>
			<polygon class="HCF109 (AT5G36170_rename1)
high chlorophyll fluorescent 109" points="1609,25 1576,25 1576,10 1546,40 1576,70 1576,55 1609,55" fill="rgb(255,255,255)" fill-opacity="1.0" stroke="rgb(0,0,0)" stroke-width="2"  />
			<g>
				<title>RF-1 (PF00472)
"RF-1 domain"</title>
				<rect class="PF00472" x="1567" y="28" stroke-linejoin="round" width="11" height="24" fill="rgb(78,76,196)" stroke="rgb(62,60,156)" stroke-width="1" opacity="0.75" />
			</g>
			<g>
				<title>PCRF (PF03462)
"PCRF domain"</title>
				<rect class="PF03462" x="1579" y="28" stroke-linejoin="round" width="19" height="24" fill="rgb(189,168,84)" stroke="rgb(151,134,67)" stroke-width="1" opacity="0.75" />
			</g>
		</g>
		<g>
			<title>HCF109 (AT5G36170_rename2)
high chlorophyll fluorescent 109</title>
			<polygon class="HCF109 (AT5G36170_rename2)
high chlorophyll fluorescent 109" points="1608,25 1583,25 1583,10 1553,40 1583,70 1583,55 1608,55" fill="rgb(255,255,255)" fill-opacity="1.0" stroke="rgb(0,0,0)" stroke-width="2"  />
		</g>
		<g>
			<title>HCF109 (AT5G36170_rename3)
high chlorophyll fluorescent 109</title>
			<polygon class="HCF109 (AT5G36170_rename3)
high chlorophyll fluorescent 109" points="1608,25 1583,25 1583,10 1553,40 1583,70 1583,55 1608,55" fill="rgb(255,255,255)" fill-opacity="1.0" stroke="rgb(0,0,0)" stroke-width="2"  />
		</g>
		<g>
			<title>scpl1 (AT5G36180)
serine carboxypeptidase-like 1</title>
			<polygon class="scpl1 (AT5G36180)
serine carboxypeptidase-like 1" points="1649,25 1707,25 1707,10 1737,40 1707,70 1707,55 1649,55" fill="rgb(255,255,255)" fill-opacity="1.0" stroke="rgb(0,0,0)" stroke-width="2"  />
			<g>
				<title>Peptidase_S10 (PF00450)
"Serine carboxypeptidase"</title>
				<rect class="PF00450" x="1652" y="28" stroke-linejoin="round" width="40" height="24" fill="rgb(228,93,140)" stroke="rgb(182,74,111)" stroke-width="1" opacity="0.75" />
			</g>
		</g>
		<g>
			<title>scpl1 (AT5G36180_rename3)
serine carboxypeptidase-like 1</title>
			<polygon class="scpl1 (AT5G36180_rename3)
serine carboxypeptidase-like 1" points="1665,25 1696,25 1696,10 1726,40 1696,70 1696,55 1665,55" fill="rgb(255,255,255)" fill-opacity="1.0" stroke="rgb(0,0,0)" stroke-width="2"  />
		</g>
		<g>
			<title>scpl1 (AT5G36180_rename2)
serine carboxypeptidase-like 1</title>
			<polygon class="scpl1 (AT5G36180_rename2)
serine carboxypeptidase-like 1" points="1665,25 1708,25 1708,10 1738,40 1708,70 1708,55 1665,55" fill="rgb(255,255,255)" fill-opacity="1.0" stroke="rgb(0,0,0)" stroke-width="2"  />
		</g>
		<g>
			<title>scpl1 (AT5G36180_rename1)
serine carboxypeptidase-like 1</title>
			<polygon class="scpl1 (AT5G36180_rename1)
serine carboxypeptidase-like 1" points="1665,25 1709,25 1709,10 1739,40 1709,70 1709,55 1665,55" fill="rgb(255,255,255)" fill-opacity="1.0" stroke="rgb(0,0,0)" stroke-width="2"  />
		</g>
		<g>
			<title> (AT5G36190)
F-box protein interaction domain protein</title>
			<polygon class=" (AT5G36190)
F-box protein interaction domain protein" points="1780,40 1794,10 1794,70" fill="rgb(255,255,255)" fill-opacity="1.0" stroke="rgb(0,0,0)" stroke-width="2"  />
		</g>
		<g>
			<title> (AT5G36200)
F-box and associated interaction domains-containing protein</title>
			<polygon class=" (AT5G36200)
F-box and associated interaction domains-containing protein" points="1886,25 1843,25 1843,10 1813,40 1843,70 1843,55 1886,55" fill="rgb(255,255,255)" fill-opacity="1.0" stroke="rgb(0,0,0)" stroke-width="2"  />
			<g>
				<title>FBA_1 (PF07734)
"F-box associated"</title>
				<rect class="PF07734" x="1847" y="28" stroke-linejoin="round" width="16" height="24" fill="rgb(217,199,59)" stroke="rgb(173,159,47)" stroke-width="1" opacity="0.75" />
			</g>
			<g>
				<title>F-box (PF00646)
"F-box domain"</title>
				<rect class="PF00646" x="1881" y="28" stroke-linejoin="round" width="4" height="24" fill="rgb(74,109,180)" stroke="rgb(59,87,144)" stroke-width="1" opacity="0.75" />
			</g>
		</g>
	</g>
</svg>
