<svg version="1.1" baseProfile="full" xmlns="http://www.w3.org/2000/svg" width="171.76666666666668" height="80">
	<g>
		<line x1="10" y1="40.0" x2="161.76666666666668" y2="40.0" style="stroke:rgb(70,70,70); stroke-width:3 "/>
		<g>
			<title> (SGLAU_RS35025)
keywimysin-related RiPP</title>
			<polygon class=" (SGLAU_RS35025)
keywimysin-related RiPP" points="10,10 13,40 10,70" fill="rgb(255,255,255)" fill-opacity="1.0" stroke="rgb(0,0,0)" stroke-width="2"  />
			<g>
				<title>DUF5972 (PF19397)
"Family of unknown function (DUF5972)"</title>
				<polygon class="PF19397" points="10,35 10,40 10,45" stroke-linejoin="round" width="2" height="24" fill="rgb(197,103,64)" stroke="rgb(157,82,51)" stroke-width="1" opacity="0.75" />
			</g>
		</g>
		<g>
			<title> (SGLAU_RS30630)
lasso peptide isopeptide bond-forming cyclase</title>
			<polygon class=" (SGLAU_RS30630)
lasso peptide isopeptide bond-forming cyclase" points="14,25 45,25 45,10 75,40 45,70 45,55 14,55" fill="rgb(255,255,255)" fill-opacity="1.0" stroke="rgb(0,0,0)" stroke-width="2"  />
			<g>
				<title>Asn_synthase (PF00733)
"Asparagine synthase"</title>
				<polygon class="PF00733" points="35,28 59,28 71,40 59,52 35,52" stroke-linejoin="round" width="38" height="24" fill="rgb(97,201,176)" stroke="rgb(77,160,140)" stroke-width="1" opacity="0.75" />
			</g>
		</g>
		<g>
			<title> (SGLAU_RS30635)
lasso peptide biosynthesis PqqD family chaperone</title>
			<polygon class=" (SGLAU_RS30635)
lasso peptide biosynthesis PqqD family chaperone" points="77,10 85,40 77,70" fill="rgb(255,255,255)" fill-opacity="1.0" stroke="rgb(0,0,0)" stroke-width="2"  />
			<g>
				<title>PqqD (PF05402)
"Coenzyme PQQ synthesis protein D (PqqD)"</title>
				<polygon class="PF05402" points="78,28 78,28 82,40 78,52 78,52" stroke-linejoin="round" width="6" height="24" fill="rgb(124,62,188)" stroke="rgb(99,49,150)" stroke-width="1" opacity="0.75" />
			</g>
		</g>
		<g>
			<title> (SGLAU_RS30640)
lasso peptide biosynthesis B2 protein</title>
			<polygon class=" (SGLAU_RS30640)
lasso peptide biosynthesis B2 protein" points="85,10 99,40 85,70" fill="rgb(255,255,255)" fill-opacity="1.0" stroke="rgb(0,0,0)" stroke-width="2"  />
			<g>
				<title>Transglut_core3 (PF13471)
"Transglutaminase-like superfamily"</title>
				<polygon class="PF13471" points="87,28 90,28 96,40 90,52 87,52" stroke-linejoin="round" width="11" height="24" fill="rgb(63,111,179)" stroke="rgb(50,88,143)" stroke-width="1" opacity="0.75" />
			</g>
		</g>
		<g>
			<title> (SGLAU_RS30645)
ABC transporter ATP-binding protein/permease</title>
			<polygon class=" (SGLAU_RS30645)
ABC transporter ATP-binding protein/permease" points="104,25 131,25 131,10 161,40 131,70 131,55 104,55" fill="rgb(255,255,255)" fill-opacity="1.0" stroke="rgb(0,0,0)" stroke-width="2"  />
			<g>
				<title>ABC_membrane (PF00664)
"ABC transporter transmembrane region"</title>
				<rect class="PF00664" x="105" y="28" stroke-linejoin="round" width="26" height="24" fill="rgb(149,226,73)" stroke="rgb(119,180,58)" stroke-width="1" opacity="0.75" />
			</g>
			<g>
				<title>ABC_tran (PF00005)
"ABC transporter"</title>
				<polygon class="PF00005" points="138,28 145,28 152,35 152,45 145,52 138,52" stroke-linejoin="round" width="14" height="24" fill="rgb(129,201,63)" stroke="rgb(103,160,50)" stroke-width="1" opacity="0.75" />
			</g>
		</g>
	</g>
</svg>
