<svg version="1.1" baseProfile="full" xmlns="http://www.w3.org/2000/svg" width="1111.9666666666667" height="80">
	<g>
		<line x1="10" y1="40.0" x2="1101.9666666666667" y2="40.0" style="stroke:rgb(70,70,70); stroke-width:3 "/>
		<g>
			<title> (ATEG_00135)
conserved hypothetical protein</title>
			<polygon class=" (ATEG_00135)
conserved hypothetical protein" points="67,25 40,25 40,10 10,40 40,70 40,55 67,55" fill="rgb(255,255,255)" fill-opacity="1.0" stroke="rgb(0,0,0)" stroke-width="2"  />
			<g>
				<title>MFS_1 (PF07690)
"Major Facilitator Superfamily"</title>
				<polygon class="PF07690" points="21,33 26,28 61,28 61,52 26,52 21,47" stroke-linejoin="round" width="40" height="24" fill="rgb(193,224,74)" stroke="rgb(154,179,59)" stroke-width="1" opacity="0.75" />
			</g>
		</g>
		<g>
			<title> (ATEG_00136)
predicted protein</title>
			<polygon class=" (ATEG_00136)
predicted protein" points="92,40 113,10 113,70" fill="rgb(255,255,255)" fill-opacity="1.0" stroke="rgb(0,0,0)" stroke-width="2"  />
		</g>
		<g>
			<title> (ATEG_00137)
conserved hypothetical protein</title>
			<polygon class=" (ATEG_00137)
conserved hypothetical protein" points="131,25 135,25 135,10 165,40 135,70 135,55 131,55" fill="rgb(255,255,255)" fill-opacity="1.0" stroke="rgb(0,0,0)" stroke-width="2"  />
			<g>
				<title>Epimerase (PF01370)
"NAD dependent epimerase/dehydratase family"</title>
				<polygon class="PF01370" points="132,28 148,28 157,37 157,43 148,52 132,52" stroke-linejoin="round" width="25" height="24" fill="rgb(98,102,214)" stroke="rgb(78,81,171)" stroke-width="1" opacity="0.75" />
			</g>
		</g>
		<g>
			<title> (ATEG_00138)
conserved hypothetical protein</title>
			<polygon class=" (ATEG_00138)
conserved hypothetical protein" points="233,25 260,25 260,10 290,40 260,70 260,55 233,55" fill="rgb(255,255,255)" fill-opacity="1.0" stroke="rgb(0,0,0)" stroke-width="2"  />
			<g>
				<title>MFS_1 (PF07690)
"Major Facilitator Superfamily"</title>
				<polygon class="PF07690" points="237,28 274,28 278,32 278,48 274,52 237,52" stroke-linejoin="round" width="41" height="24" fill="rgb(193,224,74)" stroke="rgb(154,179,59)" stroke-width="1" opacity="0.75" />
			</g>
		</g>
		<g>
			<title> (ATEG_00139)
transcription factor</title>
			<polygon class=" (ATEG_00139)
transcription factor" points="395,25 340,25 340,10 310,40 340,70 340,55 395,55" fill="rgb(255,255,255)" fill-opacity="1.0" stroke="rgb(0,0,0)" stroke-width="2"  />
			<g>
				<title>Zn_clus (PF00172)
"Fungal Zn(2)-Cys(6) binuclear cluster domain"</title>
				<rect class="PF00172" x="386" y="28" stroke-linejoin="round" width="3" height="24" fill="rgb(121,178,76)" stroke="rgb(96,142,60)" stroke-width="1" opacity="0.75" />
			</g>
		</g>
		<g>
			<title> (ATEG_00140)
predicted protein</title>
			<polygon class=" (ATEG_00140)
predicted protein" points="461,25 445,25 445,10 415,40 445,70 445,55 461,55" fill="rgb(255,255,255)" fill-opacity="1.0" stroke="rgb(0,0,0)" stroke-width="2"  />
			<g>
				<title>Kelch_6 (PF13964)
"Kelch motif"</title>
				<polygon class="PF13964" points="431,28 431,28 436,28 436,52 431,52 431,52" stroke-linejoin="round" width="5" height="24" fill="rgb(87,121,189)" stroke="rgb(69,96,151)" stroke-width="1" opacity="0.75" />
			</g>
			<g>
				<title>Kelch_6 (PF13964)
"Kelch motif"</title>
				<rect class="PF13964" x="437" y="28" stroke-linejoin="round" width="5" height="24" fill="rgb(87,121,189)" stroke="rgb(69,96,151)" stroke-width="1" opacity="0.75" />
			</g>
			<g>
				<title>Kelch_1 (PF01344)
"Kelch motif"</title>
				<rect class="PF01344" x="442" y="28" stroke-linejoin="round" width="5" height="24" fill="rgb(184,90,139)" stroke="rgb(147,72,111)" stroke-width="1" opacity="0.75" />
			</g>
		</g>
		<g>
			<title> (ATEG_00141)
predicted protein</title>
			<polygon class=" (ATEG_00141)
predicted protein" points="482,25 520,25 520,10 550,40 520,70 520,55 482,55" fill="rgb(255,255,255)" fill-opacity="1.0" stroke="rgb(0,0,0)" stroke-width="2"  />
			<g>
				<title>Cu-oxidase_3 (PF07732)
"Multicopper oxidase"</title>
				<rect class="PF07732" x="482" y="28" stroke-linejoin="round" width="6" height="24" fill="rgb(80,81,179)" stroke="rgb(63,64,143)" stroke-width="1" opacity="0.75" />
			</g>
			<g>
				<title>Cu-oxidase (PF00394)
"Multicopper oxidase"</title>
				<rect class="PF00394" x="489" y="28" stroke-linejoin="round" width="16" height="24" fill="rgb(172,188,74)" stroke="rgb(137,150,59)" stroke-width="1" opacity="0.75" />
			</g>
			<g>
				<title>Cu-oxidase_2 (PF07731)
"Multicopper oxidase"</title>
				<rect class="PF07731" x="515" y="28" stroke-linejoin="round" width="16" height="24" fill="rgb(183,55,192)" stroke="rgb(146,44,153)" stroke-width="1" opacity="0.75" />
			</g>
		</g>
		<g>
			<title> (ATEG_00142)
conserved hypothetical protein</title>
			<polygon class=" (ATEG_00142)
conserved hypothetical protein" points="581,25 619,25 619,10 649,40 619,70 619,55 581,55" fill="rgb(255,255,255)" fill-opacity="1.0" stroke="rgb(0,0,0)" stroke-width="2"  />
			<g>
				<title>FAD_binding_3 (PF01494)
"FAD binding domain"</title>
				<rect class="PF01494" x="581" y="28" stroke-linejoin="round" width="35" height="24" fill="rgb(182,175,59)" stroke="rgb(145,140,47)" stroke-width="1" opacity="0.75" />
			</g>
			<g>
				<title>Phe_hydrox_dim (PF07976)
"Phenol hydroxylase, C-terminal dimerisation domain"</title>
				<polygon class="PF07976" points="620,28 633,28 636,31 636,49 633,52 620,52" stroke-linejoin="round" width="16" height="24" fill="rgb(227,99,176)" stroke="rgb(181,79,140)" stroke-width="1" opacity="0.75" />
			</g>
		</g>
		<g>
			<title> (ATEG_00143)
FAD-dependent monooxygenase</title>
			<polygon class=" (ATEG_00143)
FAD-dependent monooxygenase" points="689,25 697,25 697,10 727,40 697,70 697,55 689,55" fill="rgb(255,255,255)" fill-opacity="1.0" stroke="rgb(0,0,0)" stroke-width="2"  />
			<g>
				<title>FAD_binding_3 (PF01494)
"FAD binding domain"</title>
				<polygon class="PF01494" points="689,28 711,28 718,35 718,45 711,52 689,52" stroke-linejoin="round" width="29" height="24" fill="rgb(182,175,59)" stroke="rgb(145,140,47)" stroke-width="1" opacity="0.75" />
			</g>
		</g>
		<g>
			<title> (ATEG_00144)
predicted protein</title>
			<polygon class=" (ATEG_00144)
predicted protein" points="857,25 789,25 789,10 759,40 789,70 789,55 857,55" fill="rgb(255,255,255)" fill-opacity="1.0" stroke="rgb(0,0,0)" stroke-width="2"  />
			<g>
				<title>KR (PF08659)
"KR domain"</title>
				<polygon class="PF08659" points="763,40 772,31 772,49 763,40" stroke-linejoin="round" width="9" height="24" fill="rgb(66,209,188)" stroke="rgb(52,167,150)" stroke-width="1" opacity="0.75" />
			</g>
			<g>
				<title>PS-DH (PF14765)
"Polyketide synthase dehydratase"</title>
				<rect class="PF14765" x="828" y="28" stroke-linejoin="round" width="27" height="24" fill="rgb(173,56,182)" stroke="rgb(138,44,145)" stroke-width="1" opacity="0.75" />
			</g>
		</g>
		<g>
			<title> (ATEG_00145)
hypothetical protein</title>
			<polygon class=" (ATEG_00145)
hypothetical protein" points="884,25 1071,25 1071,10 1101,40 1071,70 1071,55 884,55" fill="rgb(255,255,255)" fill-opacity="1.0" stroke="rgb(0,0,0)" stroke-width="2"  />
			<g>
				<title>SAT (PF16073)
"Starter unit:ACP transacylase in aflatoxin biosynthesis"</title>
				<rect class="PF16073" x="884" y="28" stroke-linejoin="round" width="8" height="24" fill="rgb(77,115,183)" stroke="rgb(61,91,146)" stroke-width="1" opacity="0.75" />
			</g>
			<g>
				<title>SAT (PF16073)
"Starter unit:ACP transacylase in aflatoxin biosynthesis"</title>
				<rect class="PF16073" x="892" y="28" stroke-linejoin="round" width="10" height="24" fill="rgb(77,115,183)" stroke="rgb(61,91,146)" stroke-width="1" opacity="0.75" />
			</g>
			<g>
				<title>ketoacyl-synt (PF00109)
"Beta-ketoacyl synthase, N-terminal domain"</title>
				<rect class="PF00109" x="915" y="28" stroke-linejoin="round" width="25" height="24" fill="rgb(112,116,228)" stroke="rgb(89,92,182)" stroke-width="1" opacity="0.75" />
			</g>
			<g>
				<title>Ketoacyl-synt_C (PF02801)
"Beta-ketoacyl synthase, C-terminal domain"</title>
				<rect class="PF02801" x="941" y="28" stroke-linejoin="round" width="12" height="24" fill="rgb(215,78,102)" stroke="rgb(172,62,81)" stroke-width="1" opacity="0.75" />
			</g>
			<g>
				<title>Acyl_transf_1 (PF00698)
"Acyl transferase domain"</title>
				<rect class="PF00698" x="968" y="28" stroke-linejoin="round" width="31" height="24" fill="rgb(59,176,209)" stroke="rgb(47,140,167)" stroke-width="1" opacity="0.75" />
			</g>
			<g>
				<title>PS-DH (PF14765)
"Polyketide synthase dehydratase"</title>
				<rect class="PF14765" x="1007" y="28" stroke-linejoin="round" width="30" height="24" fill="rgb(173,56,182)" stroke="rgb(138,44,145)" stroke-width="1" opacity="0.75" />
			</g>
			<g>
				<title>PP-binding (PF00550)
"Phosphopantetheine attachment site"</title>
				<rect class="PF00550" x="1042" y="28" stroke-linejoin="round" width="6" height="24" fill="rgb(103,191,88)" stroke="rgb(82,152,70)" stroke-width="1" opacity="0.75" />
			</g>
			<g>
				<title>PP-binding (PF00550)
"Phosphopantetheine attachment site"</title>
				<rect class="PF00550" x="1054" y="28" stroke-linejoin="round" width="6" height="24" fill="rgb(103,191,88)" stroke="rgb(82,152,70)" stroke-width="1" opacity="0.75" />
			</g>
			<g>
				<title>Thioesterase (PF00975)
"Thioesterase domain"</title>
				<polygon class="PF00975" points="1067,28 1085,28 1091,34 1091,46 1085,52 1067,52" stroke-linejoin="round" width="24" height="24" fill="rgb(207,80,138)" stroke="rgb(165,63,110)" stroke-width="1" opacity="0.75" />
			</g>
		</g>
	</g>
</svg>
