<svg version="1.1" baseProfile="full" xmlns="http://www.w3.org/2000/svg" width="343.1333333333333" height="80">
	<g>
		<line x1="10" y1="40.0" x2="333.1333333333333" y2="40.0" style="stroke:rgb(70,70,70); stroke-width:3 "/>
		<g>
			<title> (CK936_29005)
Iterative polyketide synthase</title>
			<polygon class=" (CK936_29005)
Iterative polyketide synthase" points="10,25 114,25 114,10 144,40 114,70 114,55 10,55" fill="rgb(255,255,255)" fill-opacity="1.0" stroke="rgb(0,0,0)" stroke-width="2"  />
			<g>
				<title>ketoacyl-synt (PF00109)
"Beta-ketoacyl synthase, N-terminal domain"</title>
				<rect class="PF00109" x="12" y="28" stroke-linejoin="round" width="25" height="24" fill="rgb(112,116,228)" stroke="rgb(89,92,182)" stroke-width="1" opacity="0.75" />
			</g>
			<g>
				<title>Ketoacyl-synt_C (PF02801)
"Beta-ketoacyl synthase, C-terminal domain"</title>
				<rect class="PF02801" x="38" y="28" stroke-linejoin="round" width="11" height="24" fill="rgb(215,78,102)" stroke="rgb(172,62,81)" stroke-width="1" opacity="0.75" />
			</g>
			<g>
				<title>KAsynt_C_assoc (PF16197)
"Ketoacyl-synthetase C-terminal extension"</title>
				<rect class="PF16197" x="51" y="28" stroke-linejoin="round" width="11" height="24" fill="rgb(240,150,172)" stroke="rgb(192,120,137)" stroke-width="1" opacity="0.75" />
			</g>
			<g>
				<title>Acyl_transf_1 (PF00698)
"Acyl transferase domain"</title>
				<rect class="PF00698" x="66" y="28" stroke-linejoin="round" width="31" height="24" fill="rgb(59,176,209)" stroke="rgb(47,140,167)" stroke-width="1" opacity="0.75" />
			</g>
			<g>
				<title>PS-DH (PF14765)
"Polyketide synthase dehydratase"</title>
				<polygon class="PF14765" points="103,28 127,28 130,31 130,49 127,52 103,52" stroke-linejoin="round" width="27" height="24" fill="rgb(173,56,182)" stroke="rgb(138,44,145)" stroke-width="1" opacity="0.75" />
			</g>
			<g>
				<title>PP-binding (PF00550)
"Phosphopantetheine attachment site"</title>
				<polygon class="PF00550" points="134,35 139,40 134,45" stroke-linejoin="round" width="7" height="24" fill="rgb(103,191,88)" stroke="rgb(82,152,70)" stroke-width="1" opacity="0.75" />
			</g>
		</g>
		<g>
			<title> (CK936_29010)
PKS associated cyclopropanase</title>
			<polygon class=" (CK936_29010)
PKS associated cyclopropanase" points="145,25 163,25 163,10 193,40 163,70 163,55 145,55" fill="rgb(255,255,255)" fill-opacity="1.0" stroke="rgb(0,0,0)" stroke-width="2"  />
			<g>
				<title>Radical_SAM (PF04055)
"Radical SAM superfamily"</title>
				<rect class="PF04055" x="152" y="28" stroke-linejoin="round" width="16" height="24" fill="rgb(149,56,222)" stroke="rgb(119,44,177)" stroke-width="1" opacity="0.75" />
			</g>
		</g>
		<g>
			<title> (CK936_29015)
beta-ketoacyl-ACP reductase</title>
			<polygon class=" (CK936_29015)
beta-ketoacyl-ACP reductase" points="194,10 219,40 194,70" fill="rgb(255,255,255)" fill-opacity="1.0" stroke="rgb(0,0,0)" stroke-width="2"  />
			<g>
				<title>adh_short_C2 (PF13561)
"Enoyl-(Acyl carrier protein) reductase"</title>
				<polygon class="PF13561" points="195,28 205,28 215,40 205,52 195,52" stroke-linejoin="round" width="24" height="24" fill="rgb(73,205,127)" stroke="rgb(58,164,101)" stroke-width="1" opacity="0.75" />
			</g>
		</g>
		<g>
			<title> (CK936_29020)
Acyl-ACP thioesterase, hot dog family</title>
			<polygon class=" (CK936_29020)
Acyl-ACP thioesterase, hot dog family" points="251,25 251,25 251,10 221,40 251,70 251,55 251,55" fill="rgb(255,255,255)" fill-opacity="1.0" stroke="rgb(0,0,0)" stroke-width="2"  />
			<g>
				<title>4HBT_3 (PF13622)
"Thioesterase-like superfamily"</title>
				<polygon class="PF13622" points="225,40 237,28 247,28 247,52 237,52" stroke-linejoin="round" width="25" height="24" fill="rgb(136,87,203)" stroke="rgb(108,69,162)" stroke-width="1" opacity="0.75" />
			</g>
		</g>
		<g>
			<title> (CK936_29025)
Transporter</title>
			<polygon class=" (CK936_29025)
Transporter" points="256,25 303,25 303,10 333,40 303,70 303,55 256,55" fill="rgb(255,255,255)" fill-opacity="1.0" stroke="rgb(0,0,0)" stroke-width="2"  />
			<g>
				<title>MMPL (PF03176)
"MMPL family"</title>
				<rect class="PF03176" x="263" y="28" stroke-linejoin="round" width="33" height="24" fill="rgb(228,109,193)" stroke="rgb(182,87,154)" stroke-width="1" opacity="0.75" />
			</g>
			<g>
				<title>MMPL (PF03176)
"MMPL family"</title>
				<polygon class="PF03176" points="299,28 316,28 328,40 316,52 299,52" stroke-linejoin="round" width="32" height="24" fill="rgb(228,109,193)" stroke="rgb(182,87,154)" stroke-width="1" opacity="0.75" />
			</g>
		</g>
	</g>
</svg>
