<svg version="1.1" baseProfile="full" xmlns="http://www.w3.org/2000/svg" width="278.6333333333333" height="80">
	<g>
		<line x1="10" y1="40.0" x2="268.6333333333333" y2="40.0" style="stroke:rgb(70,70,70); stroke-width:3 "/>
		<g>
			<title>
putative peptide</title>
			<polygon class="
putative peptide" points="11,40 16,10 16,70" fill="rgb(255,255,255)" fill-opacity="1.0" stroke="rgb(0,0,0)" stroke-width="2"  />
		</g>
		<g>
			<title>
bacteriocin-like prepeptide</title>
			<polygon class="
bacteriocin-like prepeptide" points="20,10 28,40 20,70" fill="rgb(255,255,255)" fill-opacity="1.0" stroke="rgb(0,0,0)" stroke-width="2"  />
			<g>
				<title>DUF5976 (PF19401)
"Family of unknown function (DUF5976)"</title>
				<polygon class="PF19401" points="20,28 21,28 24,35 24,45 21,52 20,52" stroke-linejoin="round" width="4" height="24" fill="rgb(85,185,150)" stroke="rgb(68,148,120)" stroke-width="1" opacity="0.75" />
			</g>
		</g>
		<g>
			<title>
salivaricin CRL1328 alpha peptide</title>
			<polygon class="
salivaricin CRL1328 alpha peptide" points="29,10 35,40 29,70" fill="rgb(255,255,255)" fill-opacity="1.0" stroke="rgb(0,0,0)" stroke-width="2"  />
			<g>
				<title>Bacteriocin_IIc (PF10439)
"Bacteriocin class II with double-glycine leader peptide"</title>
				<polygon class="PF10439" points="29,28 29,28 32,40 29,52 29,52" stroke-linejoin="round" width="6" height="24" fill="rgb(158,186,86)" stroke="rgb(126,148,68)" stroke-width="1" opacity="0.75" />
			</g>
		</g>
		<g>
			<title>
salivaricin CRL1328 beta peptide</title>
			<polygon class="
salivaricin CRL1328 beta peptide" points="36,10 42,40 36,70" fill="rgb(255,255,255)" fill-opacity="1.0" stroke="rgb(0,0,0)" stroke-width="2"  />
			<g>
				<title>Bacteriocin_IIc (PF10439)
"Bacteriocin class II with double-glycine leader peptide"</title>
				<polygon class="PF10439" points="36,28 36,28 39,40 36,52 36,52" stroke-linejoin="round" width="6" height="24" fill="rgb(158,186,86)" stroke="rgb(126,148,68)" stroke-width="1" opacity="0.75" />
			</g>
		</g>
		<g>
			<title>
putative salivaricin immunity protein</title>
			<polygon class="
putative salivaricin immunity protein" points="47,10 52,40 47,70" fill="rgb(255,255,255)" fill-opacity="1.0" stroke="rgb(0,0,0)" stroke-width="2"  />
		</g>
		<g>
			<title>
salivaricin induction peptide</title>
			<polygon class="
salivaricin induction peptide" points="57,10 60,40 57,70" fill="rgb(255,255,255)" fill-opacity="1.0" stroke="rgb(0,0,0)" stroke-width="2"  />
			<g>
				<title>DUF5836 (PF19154)
"Family of unknown function (DUF5836)"</title>
				<polygon class="PF19154" points="57,34 57,40 57,46" stroke-linejoin="round" width="3" height="24" fill="rgb(206,184,64)" stroke="rgb(164,147,51)" stroke-width="1" opacity="0.75" />
			</g>
		</g>
		<g>
			<title>
sensory transduction histidine kinase</title>
			<polygon class="
sensory transduction histidine kinase" points="61,25 74,25 74,10 104,40 74,70 74,55 61,55" fill="rgb(255,255,255)" fill-opacity="1.0" stroke="rgb(0,0,0)" stroke-width="2"  />
			<g>
				<title>HATPase_c_5 (PF14501)
"GHKL domain"</title>
				<polygon class="PF14501" points="93,34 99,40 93,46" stroke-linejoin="round" width="10" height="24" fill="rgb(137,71,210)" stroke="rgb(109,56,168)" stroke-width="1" opacity="0.75" />
			</g>
		</g>
		<g>
			<title>
salivaricin response regulator</title>
			<polygon class="
salivaricin response regulator" points="104,10 130,40 104,70" fill="rgb(255,255,255)" fill-opacity="1.0" stroke="rgb(0,0,0)" stroke-width="2"  />
			<g>
				<title>Response_reg (PF00072)
"Response regulator receiver domain"</title>
				<polygon class="PF00072" points="104,28 115,28 117,30 117,50 115,52 104,52" stroke-linejoin="round" width="13" height="24" fill="rgb(100,107,203)" stroke="rgb(80,85,162)" stroke-width="1" opacity="0.75" />
			</g>
			<g>
				<title>LytTR (PF04397)
"LytTr DNA-binding domain"</title>
				<polygon class="PF04397" points="120,33 126,40 120,47" stroke-linejoin="round" width="9" height="24" fill="rgb(207,76,174)" stroke="rgb(165,60,139)" stroke-width="1" opacity="0.75" />
			</g>
		</g>
		<g>
			<title>
hypothetical membrane protein</title>
			<polygon class="
hypothetical membrane protein" points="132,10 140,40 132,70" fill="rgb(255,255,255)" fill-opacity="1.0" stroke="rgb(0,0,0)" stroke-width="2"  />
		</g>
		<g>
			<title>
salivaricin ABC-transporter</title>
			<polygon class="
salivaricin ABC-transporter" points="145,25 187,25 187,10 217,40 187,70 187,55 145,55" fill="rgb(255,255,255)" fill-opacity="1.0" stroke="rgb(0,0,0)" stroke-width="2"  />
			<g>
				<title>Peptidase_C39 (PF03412)
"Peptidase C39 family"</title>
				<rect class="PF03412" x="145" y="28" stroke-linejoin="round" width="13" height="24" fill="rgb(214,226,77)" stroke="rgb(171,180,61)" stroke-width="1" opacity="0.75" />
			</g>
			<g>
				<title>ABC_membrane (PF00664)
"ABC transporter transmembrane region"</title>
				<rect class="PF00664" x="161" y="28" stroke-linejoin="round" width="27" height="24" fill="rgb(149,226,73)" stroke="rgb(119,180,58)" stroke-width="1" opacity="0.75" />
			</g>
			<g>
				<title>ABC_tran (PF00005)
"ABC transporter"</title>
				<polygon class="PF00005" points="195,28 200,28 210,38 210,42 200,52 195,52" stroke-linejoin="round" width="15" height="24" fill="rgb(129,201,63)" stroke="rgb(103,160,50)" stroke-width="1" opacity="0.75" />
			</g>
		</g>
		<g>
			<title>
salivaricin export accesory protein</title>
			<polygon class="
salivaricin export accesory protein" points="217,25 225,25 225,10 255,40 225,70 225,55 217,55" fill="rgb(255,255,255)" fill-opacity="1.0" stroke="rgb(0,0,0)" stroke-width="2"  />
			<g>
				<title>HlyD_3 (PF13437)
"HlyD family secretion protein"</title>
				<polygon class="PF13437" points="241,30 251,40 241,50" stroke-linejoin="round" width="11" height="24" fill="rgb(82,200,102)" stroke="rgb(65,160,81)" stroke-width="1" opacity="0.75" />
			</g>
		</g>
		<g>
			<title>
hypothetical protein</title>
			<polygon class="
hypothetical protein" points="260,10 267,40 260,70" fill="rgb(255,255,255)" fill-opacity="1.0" stroke="rgb(0,0,0)" stroke-width="2"  />
		</g>
	</g>
</svg>
