<svg version="1.1" baseProfile="full" xmlns="http://www.w3.org/2000/svg" width="329.53333333333336" height="80">
	<g>
		<line x1="10" y1="40.0" x2="319.53333333333336" y2="40.0" style="stroke:rgb(70,70,70); stroke-width:3 "/>
		<g>
			<title> (ICO_06762)
hypothetical protein</title>
			<polygon class=" (ICO_06762)
hypothetical protein" points="26,10 44,40 26,70" fill="rgb(255,255,255)" fill-opacity="1.0" stroke="rgb(0,0,0)" stroke-width="2"  />
		</g>
		<g>
			<title> (ICO_06763)
hypothetical protein</title>
			<polygon class=" (ICO_06763)
hypothetical protein" points="57,40 76,10 76,70" fill="rgb(255,255,255)" fill-opacity="1.0" stroke="rgb(0,0,0)" stroke-width="2"  />
			<g>
				<title>Phage_integrase (PF00589)
"Phage integrase family"</title>
				<polygon class="PF00589" points="61,40 69,28 74,28 74,52 69,52" stroke-linejoin="round" width="16" height="24" fill="rgb(91,96,195)" stroke="rgb(72,76,156)" stroke-width="1" opacity="0.75" />
			</g>
		</g>
		<g>
			<title> (ICO_06764)
hypothetical protein</title>
			<polygon class=" (ICO_06764)
hypothetical protein" points="93,10 101,40 93,70" fill="rgb(255,255,255)" fill-opacity="1.0" stroke="rgb(0,0,0)" stroke-width="2"  />
		</g>
		<g>
			<title> (ICO_06765)
hypothetical protein</title>
			<polygon class=" (ICO_06765)
hypothetical protein" points="104,40 117,10 117,70" fill="rgb(255,255,255)" fill-opacity="1.0" stroke="rgb(0,0,0)" stroke-width="2"  />
			<g>
				<title>DsbB (PF02600)
"Disulfide bond formation protein DsbB"</title>
				<polygon class="PF02600" points="107,40 113,28 116,28 116,52 113,52" stroke-linejoin="round" width="12" height="24" fill="rgb(80,174,206)" stroke="rgb(64,139,164)" stroke-width="1" opacity="0.75" />
			</g>
		</g>
		<g>
			<title> (ICO_06766)
hypothetical protein</title>
			<polygon class=" (ICO_06766)
hypothetical protein" points="161,25 149,25 149,10 119,40 149,70 149,55 161,55" fill="rgb(255,255,255)" fill-opacity="1.0" stroke="rgb(0,0,0)" stroke-width="2"  />
			<g>
				<title>Glycos_transf_2 (PF00535)
"Glycosyl transferase family 2"</title>
				<rect class="PF00535" x="144" y="28" stroke-linejoin="round" width="10" height="24" fill="rgb(224,122,96)" stroke="rgb(179,97,76)" stroke-width="1" opacity="0.75" />
			</g>
		</g>
		<g>
			<title> (ICO_06767)
hypothetical protein</title>
			<polygon class=" (ICO_06767)
hypothetical protein" points="162,40 175,10 175,70" fill="rgb(255,255,255)" fill-opacity="1.0" stroke="rgb(0,0,0)" stroke-width="2"  />
			<g>
				<title>Thioredoxin (PF00085)
"Thioredoxin"</title>
				<polygon class="PF00085" points="165,40 170,28 172,28 172,52 170,52" stroke-linejoin="round" width="10" height="24" fill="rgb(220,109,180)" stroke="rgb(176,87,144)" stroke-width="1" opacity="0.75" />
			</g>
		</g>
		<g>
			<title> (ICO_06768)
hypothetical protein</title>
			<polygon class=" (ICO_06768)
hypothetical protein" points="246,25 206,25 206,10 176,40 206,70 206,55 246,55" fill="rgb(255,255,255)" fill-opacity="1.0" stroke="rgb(0,0,0)" stroke-width="2"  />
			<g>
				<title>ABC_tran (PF00005)
"ABC transporter"</title>
				<polygon class="PF00005" points="181,39 192,28 195,28 195,52 192,52 181,41" stroke-linejoin="round" width="14" height="24" fill="rgb(129,201,63)" stroke="rgb(103,160,50)" stroke-width="1" opacity="0.75" />
			</g>
			<g>
				<title>ABC_membrane (PF00664)
"ABC transporter transmembrane region"</title>
				<rect class="PF00664" x="202" y="28" stroke-linejoin="round" width="27" height="24" fill="rgb(149,226,73)" stroke="rgb(119,180,58)" stroke-width="1" opacity="0.75" />
			</g>
			<g>
				<title>Peptidase_C39 (PF03412)
"Peptidase C39 family"</title>
				<rect class="PF03412" x="232" y="28" stroke-linejoin="round" width="13" height="24" fill="rgb(214,226,77)" stroke="rgb(171,180,61)" stroke-width="1" opacity="0.75" />
			</g>
		</g>
		<g>
			<title> (ICO_06769)
hypothetical protein</title>
			<polygon class=" (ICO_06769)
hypothetical protein" points="250,40 256,10 256,70" fill="rgb(255,255,255)" fill-opacity="1.0" stroke="rgb(0,0,0)" stroke-width="2"  />
		</g>
		<g>
			<title> (ICO_06770)
hypothetical protein</title>
			<polygon class=" (ICO_06770)
hypothetical protein" points="274,10 293,40 274,70" fill="rgb(255,255,255)" fill-opacity="1.0" stroke="rgb(0,0,0)" stroke-width="2"  />
			<g>
				<title>HTH_Crp_2 (PF13545)
"Crp-like helix-turn-helix domain"</title>
				<polygon class="PF13545" points="282,28 282,28 288,37 288,43 282,52 282,52" stroke-linejoin="round" width="6" height="24" fill="rgb(87,137,202)" stroke="rgb(69,109,161)" stroke-width="1" opacity="0.75" />
			</g>
		</g>
	</g>
</svg>
