<svg version="1.1" baseProfile="full" xmlns="http://www.w3.org/2000/svg" width="1555.5333333333333" height="80">
	<g>
		<line x1="10" y1="40.0" x2="1545.5333333333333" y2="40.0" style="stroke:rgb(70,70,70); stroke-width:3 "/>
		<g>
			<title>
hypothetical protein</title>
			<polygon class="
hypothetical protein" points="24,10 49,40 24,70" fill="rgb(255,255,255)" fill-opacity="1.0" stroke="rgb(0,0,0)" stroke-width="2"  />
		</g>
		<g>
			<title>
putative peptidase</title>
			<polygon class="
putative peptidase" points="55,10 77,40 55,70" fill="rgb(255,255,255)" fill-opacity="1.0" stroke="rgb(0,0,0)" stroke-width="2"  />
		</g>
		<g>
			<title>
hypothetical protein</title>
			<polygon class="
hypothetical protein" points="83,25 105,25 105,10 135,40 105,70 105,55 83,55" fill="rgb(255,255,255)" fill-opacity="1.0" stroke="rgb(0,0,0)" stroke-width="2"  />
			<g>
				<title>Radical_SAM (PF04055)
"Radical SAM superfamily"</title>
				<polygon class="PF04055" points="106,28 119,28 122,31 122,49 119,52 106,52" stroke-linejoin="round" width="16" height="24" fill="rgb(149,56,222)" stroke="rgb(119,44,177)" stroke-width="1" opacity="0.75" />
			</g>
		</g>
		<g>
			<title>
aspartate aminotransferase</title>
			<polygon class="
aspartate aminotransferase" points="135,25 137,25 137,10 167,40 137,70 137,55 135,55" fill="rgb(255,255,255)" fill-opacity="1.0" stroke="rgb(0,0,0)" stroke-width="2"  />
			<g>
				<title>Aminotran_1_2 (PF00155)
"Aminotransferase class I and II"</title>
				<polygon class="PF00155" points="137,28 151,28 163,40 151,52 137,52" stroke-linejoin="round" width="29" height="24" fill="rgb(89,113,198)" stroke="rgb(71,90,158)" stroke-width="1" opacity="0.75" />
			</g>
		</g>
		<g>
			<title>
putative acetyltransferase</title>
			<polygon class="
putative acetyltransferase" points="168,40 185,10 185,70" fill="rgb(255,255,255)" fill-opacity="1.0" stroke="rgb(0,0,0)" stroke-width="2"  />
			<g>
				<title>Acetyltransf_1 (PF00583)
"Acetyltransferase (GNAT) family"</title>
				<polygon class="PF00583" points="171,40 178,28 181,28 181,52 178,52" stroke-linejoin="round" width="11" height="24" fill="rgb(121,183,50)" stroke="rgb(96,146,39)" stroke-width="1" opacity="0.75" />
			</g>
		</g>
		<g>
			<title>
putative GCN5-related N-acetyltransferase</title>
			<polygon class="
putative GCN5-related N-acetyltransferase" points="189,10 206,40 189,70" fill="rgb(255,255,255)" fill-opacity="1.0" stroke="rgb(0,0,0)" stroke-width="2"  />
			<g>
				<title>Acetyltransf_3 (PF13302)
"Acetyltransferase (GNAT) domain"</title>
				<polygon class="PF13302" points="191,28 196,28 203,40 196,52 191,52" stroke-linejoin="round" width="13" height="24" fill="rgb(105,146,215)" stroke="rgb(84,116,172)" stroke-width="1" opacity="0.75" />
			</g>
		</g>
		<g>
			<title>
putative flavin-containing monooxygenase</title>
			<polygon class="
putative flavin-containing monooxygenase" points="250,25 235,25 235,10 205,40 235,70 235,55 250,55" fill="rgb(255,255,255)" fill-opacity="1.0" stroke="rgb(0,0,0)" stroke-width="2"  />
			<g>
				<title>FMO-like (PF00743)
"Flavin-binding monooxygenase-like"</title>
				<polygon class="PF00743" points="209,40 221,28 250,28 250,52 221,52" stroke-linejoin="round" width="43" height="24" fill="rgb(203,74,151)" stroke="rgb(162,59,120)" stroke-width="1" opacity="0.75" />
			</g>
		</g>
		<g>
			<title>
transcriptional regulatory protein</title>
			<polygon class="
transcriptional regulatory protein" points="257,10 278,40 257,70" fill="rgb(255,255,255)" fill-opacity="1.0" stroke="rgb(0,0,0)" stroke-width="2"  />
			<g>
				<title>TetR_N (PF00440)
"Bacterial regulatory proteins, tetR family"</title>
				<rect class="PF00440" x="258" y="28" stroke-linejoin="round" width="4" height="24" fill="rgb(73,212,190)" stroke="rgb(58,169,152)" stroke-width="1" opacity="0.75" />
			</g>
			<g>
				<title>TetR_C_11 (PF16859)
"Tetracyclin repressor-like, C-terminal domain"</title>
				<polygon class="PF16859" points="265,28 266,28 275,40 275,40 266,52 265,52" stroke-linejoin="round" width="10" height="24" fill="rgb(219,77,198)" stroke="rgb(175,61,158)" stroke-width="1" opacity="0.75" />
			</g>
		</g>
		<g>
			<title>
putative cholesterol oxidase</title>
			<polygon class="
putative cholesterol oxidase" points="279,25 306,25 306,10 336,40 306,70 306,55 279,55" fill="rgb(255,255,255)" fill-opacity="1.0" stroke="rgb(0,0,0)" stroke-width="2"  />
			<g>
				<title>FAD_binding_2 (PF00890)
"FAD binding domain"</title>
				<rect class="PF00890" x="279" y="28" stroke-linejoin="round" width="3" height="24" fill="rgb(63,199,116)" stroke="rgb(50,159,92)" stroke-width="1" opacity="0.75" />
			</g>
			<g>
				<title>GMC_oxred_N (PF00732)
"GMC oxidoreductase"</title>
				<rect class="PF00732" x="297" y="28" stroke-linejoin="round" width="9" height="24" fill="rgb(180,89,214)" stroke="rgb(143,71,171)" stroke-width="1" opacity="0.75" />
			</g>
			<g>
				<title>GMC_oxred_C (PF05199)
"GMC oxidoreductase"</title>
				<polygon class="PF05199" points="315,28 319,28 330,39 330,41 319,52 315,52" stroke-linejoin="round" width="15" height="24" fill="rgb(186,52,106)" stroke="rgb(148,41,84)" stroke-width="1" opacity="0.75" />
			</g>
		</g>
		<g>
			<title>
hypothetical protein</title>
			<polygon class="
hypothetical protein" points="336,10 356,40 336,70" fill="rgb(255,255,255)" fill-opacity="1.0" stroke="rgb(0,0,0)" stroke-width="2"  />
			<g>
				<title>ADC (PF06314)
"Acetoacetate decarboxylase (ADC)"</title>
				<polygon class="PF06314" points="336,28 344,28 352,40 344,52 336,52" stroke-linejoin="round" width="19" height="24" fill="rgb(80,180,156)" stroke="rgb(64,144,124)" stroke-width="1" opacity="0.75" />
			</g>
		</g>
		<g>
			<title>
hypothetical protein</title>
			<polygon class="
hypothetical protein" points="367,25 368,25 368,10 398,40 368,70 368,55 367,55" fill="rgb(255,255,255)" fill-opacity="1.0" stroke="rgb(0,0,0)" stroke-width="2"  />
			<g>
				<title>Chlorophyllase2 (PF12740)
"Chlorophyllase enzyme"</title>
				<polygon class="PF12740" points="374,28 381,28 389,36 389,44 381,52 374,52" stroke-linejoin="round" width="15" height="24" fill="rgb(225,187,68)" stroke="rgb(180,149,54)" stroke-width="1" opacity="0.75" />
			</g>
		</g>
		<g>
			<title>polB
thymidylate synthase</title>
			<polygon class="polB
thymidylate synthase" points="409,10 434,40 409,70" fill="rgb(255,255,255)" fill-opacity="1.0" stroke="rgb(0,0,0)" stroke-width="2"  />
			<g>
				<title>Thy1 (PF02511)
"Thymidylate synthase complementing protein"</title>
				<polygon class="PF02511" points="412,28 420,28 430,40 420,52 412,52" stroke-linejoin="round" width="21" height="24" fill="rgb(50,175,182)" stroke="rgb(39,140,145)" stroke-width="1" opacity="0.75" />
			</g>
		</g>
		<g>
			<title>polA
uridine-5'-monophosphate enolpyruvyltransferase</title>
			<polygon class="polA
uridine-5'-monophosphate enolpyruvyltransferase" points="437,25 451,25 451,10 481,40 451,70 451,55 437,55" fill="rgb(255,255,255)" fill-opacity="1.0" stroke="rgb(0,0,0)" stroke-width="2"  />
			<g>
				<title>EPSP_synthase (PF00275)
"EPSP synthase (3-phosphoshikimate 1-carboxyvinyltransferase)"</title>
				<polygon class="PF00275" points="437,28 465,28 477,40 465,52 437,52" stroke-linejoin="round" width="42" height="24" fill="rgb(217,213,85)" stroke="rgb(173,170,68)" stroke-width="1" opacity="0.75" />
			</g>
		</g>
		<g>
			<title>polQ2
putative adenylate kinase</title>
			<polygon class="polQ2
putative adenylate kinase" points="484,40 502,10 502,70" fill="rgb(255,255,255)" fill-opacity="1.0" stroke="rgb(0,0,0)" stroke-width="2"  />
		</g>
		<g>
			<title>polQ1
putative membrane protein</title>
			<polygon class="polQ1
putative membrane protein" points="545,25 533,25 533,10 503,40 533,70 533,55 545,55" fill="rgb(255,255,255)" fill-opacity="1.0" stroke="rgb(0,0,0)" stroke-width="2"  />
			<g>
				<title>MFS_1 (PF07690)
"Major Facilitator Superfamily"</title>
				<polygon class="PF07690" points="512,35 519,28 542,28 542,52 519,52 512,45" stroke-linejoin="round" width="30" height="24" fill="rgb(193,224,74)" stroke="rgb(154,179,59)" stroke-width="1" opacity="0.75" />
			</g>
		</g>
		<g>
			<title>polP
acetylglutamate kinase</title>
			<polygon class="polP
acetylglutamate kinase" points="550,40 578,10 578,70" fill="rgb(255,255,255)" fill-opacity="1.0" stroke="rgb(0,0,0)" stroke-width="2"  />
			<g>
				<title>AA_kinase (PF00696)
"Amino acid kinase family"</title>
				<polygon class="PF00696" points="554,40 565,28 576,28 576,52 565,52" stroke-linejoin="round" width="24" height="24" fill="rgb(148,78,224)" stroke="rgb(118,62,179)" stroke-width="1" opacity="0.75" />
			</g>
		</g>
		<g>
			<title>polO
carbamoyltransferase</title>
			<polygon class="polO
carbamoyltransferase" points="635,25 608,25 608,10 578,40 608,70 608,55 635,55" fill="rgb(255,255,255)" fill-opacity="1.0" stroke="rgb(0,0,0)" stroke-width="2"  />
			<g>
				<title>Carbam_trans_C (PF16861)
"Carbamoyltransferase C-terminus"</title>
				<polygon class="PF16861" points="582,40 594,28 594,28 594,52 594,52" stroke-linejoin="round" width="16" height="24" fill="rgb(183,87,154)" stroke="rgb(146,69,123)" stroke-width="1" opacity="0.75" />
			</g>
			<g>
				<title>Carbam_trans_N (PF02543)
"Carbamoyltransferase N-terminus"</title>
				<rect class="PF02543" x="599" y="28" stroke-linejoin="round" width="35" height="24" fill="rgb(146,218,61)" stroke="rgb(116,174,48)" stroke-width="1" opacity="0.75" />
			</g>
		</g>
		<g>
			<title>polN
amino-acid N-acetyltransferase</title>
			<polygon class="polN
amino-acid N-acetyltransferase" points="635,40 651,10 651,70" fill="rgb(255,255,255)" fill-opacity="1.0" stroke="rgb(0,0,0)" stroke-width="2"  />
			<g>
				<title>Acetyltransf_7 (PF13508)
"Acetyltransferase (GNAT) domain"</title>
				<polygon class="PF13508" points="639,38 645,28 648,28 648,52 645,52 639,42" stroke-linejoin="round" width="9" height="24" fill="rgb(183,210,60)" stroke="rgb(146,168,48)" stroke-width="1" opacity="0.75" />
			</g>
		</g>
		<g>
			<title>polM
short-chain dehydrogenase</title>
			<polygon class="polM
short-chain dehydrogenase" points="652,40 677,10 677,70" fill="rgb(255,255,255)" fill-opacity="1.0" stroke="rgb(0,0,0)" stroke-width="2"  />
			<g>
				<title>adh_short (PF00106)
"short chain dehydrogenase"</title>
				<polygon class="PF00106" points="657,39 666,28 676,28 676,52 666,52 657,41" stroke-linejoin="round" width="19" height="24" fill="rgb(182,219,73)" stroke="rgb(145,175,58)" stroke-width="1" opacity="0.75" />
			</g>
		</g>
		<g>
			<title>polL
hypothetical protein</title>
			<polygon class="polL
hypothetical protein" points="679,40 703,10 703,70" fill="rgb(255,255,255)" fill-opacity="1.0" stroke="rgb(0,0,0)" stroke-width="2"  />
			<g>
				<title>2OG-Fe_Oxy_2 (PF10014)
"2OG-Fe dioxygenase"</title>
				<polygon class="PF10014" points="683,40 693,28 698,28 698,52 693,52" stroke-linejoin="round" width="19" height="24" fill="rgb(201,88,89)" stroke="rgb(160,70,71)" stroke-width="1" opacity="0.75" />
			</g>
		</g>
		<g>
			<title>polK
putative hydroxylase</title>
			<polygon class="polK
putative hydroxylase" points="706,40 727,10 727,70" fill="rgb(255,255,255)" fill-opacity="1.0" stroke="rgb(0,0,0)" stroke-width="2"  />
			<g>
				<title>2OG-FeII_Oxy_3 (PF13640)
"2OG-Fe(II) oxygenase superfamily"</title>
				<polygon class="PF13640" points="710,40 715,33 715,47" stroke-linejoin="round" width="9" height="24" fill="rgb(163,67,223)" stroke="rgb(130,53,178)" stroke-width="1" opacity="0.75" />
			</g>
		</g>
		<g>
			<title>polJ
putative phosphatase</title>
			<polygon class="polJ
putative phosphatase" points="727,40 754,10 754,70" fill="rgb(255,255,255)" fill-opacity="1.0" stroke="rgb(0,0,0)" stroke-width="2"  />
			<g>
				<title>Y_phosphatase3 (PF13350)
"Tyrosine phosphatase family"</title>
				<polygon class="PF13350" points="731,40 742,28 751,28 751,52 742,52" stroke-linejoin="round" width="23" height="24" fill="rgb(96,226,59)" stroke="rgb(76,180,47)" stroke-width="1" opacity="0.75" />
			</g>
		</g>
		<g>
			<title>polI
putative aminotransferase</title>
			<polygon class="polI
putative aminotransferase" points="792,25 784,25 784,10 754,40 784,70 784,55 792,55" fill="rgb(255,255,255)" fill-opacity="1.0" stroke="rgb(0,0,0)" stroke-width="2"  />
			<g>
				<title>Aminotran_1_2 (PF00155)
"Aminotransferase class I and II"</title>
				<polygon class="PF00155" points="758,40 770,28 787,28 787,52 770,52" stroke-linejoin="round" width="32" height="24" fill="rgb(89,113,198)" stroke="rgb(71,90,158)" stroke-width="1" opacity="0.75" />
			</g>
		</g>
		<g>
			<title>polH
putative radical SAM protein</title>
			<polygon class="polH
putative radical SAM protein" points="839,25 822,25 822,10 792,40 822,70 822,55 839,55" fill="rgb(255,255,255)" fill-opacity="1.0" stroke="rgb(0,0,0)" stroke-width="2"  />
			<g>
				<title>Radical_SAM (PF04055)
"Radical SAM superfamily"</title>
				<polygon class="PF04055" points="800,36 808,28 816,28 816,52 808,52 800,44" stroke-linejoin="round" width="16" height="24" fill="rgb(149,56,222)" stroke="rgb(119,44,177)" stroke-width="1" opacity="0.75" />
			</g>
		</g>
		<g>
			<title>polG
putative carboxylase</title>
			<polygon class="polG
putative carboxylase" points="882,25 869,25 869,10 839,40 869,70 869,55 882,55" fill="rgb(255,255,255)" fill-opacity="1.0" stroke="rgb(0,0,0)" stroke-width="2"  />
			<g>
				<title>CPSase_L_D2 (PF02786)
"Carbamoyl-phosphate synthase L chain, ATP binding domain"</title>
				<rect class="PF02786" x="862" y="28" stroke-linejoin="round" width="8" height="24" fill="rgb(190,97,205)" stroke="rgb(151,77,164)" stroke-width="1" opacity="0.75" />
			</g>
		</g>
		<g>
			<title>polF
putative molybdopterin oxidoreductase</title>
			<polygon class="polF
putative molybdopterin oxidoreductase" points="883,40 910,10 910,70" fill="rgb(255,255,255)" fill-opacity="1.0" stroke="rgb(0,0,0)" stroke-width="2"  />
			<g>
				<title>DUF6202 (PF19705)
"Family of unknown function (DUF6202)"</title>
				<polygon class="PF19705" points="887,40 898,28 910,28 910,52 898,52" stroke-linejoin="round" width="27" height="24" fill="rgb(166,218,56)" stroke="rgb(132,174,44)" stroke-width="1" opacity="0.75" />
			</g>
		</g>
		<g>
			<title>polE
hypothetical protein</title>
			<polygon class="polE
hypothetical protein" points="949,25 942,25 942,10 912,40 942,70 942,55 949,55" fill="rgb(255,255,255)" fill-opacity="1.0" stroke="rgb(0,0,0)" stroke-width="2"  />
			<g>
				<title>DUF6421 (PF19985)
"Family of unknown function (DUF6421)"</title>
				<polygon class="PF19985" points="916,40 928,28 938,28 938,52 928,52" stroke-linejoin="round" width="23" height="24" fill="rgb(130,77,218)" stroke="rgb(104,61,174)" stroke-width="1" opacity="0.75" />
			</g>
		</g>
		<g>
			<title>polD
putative hydroxylase</title>
			<polygon class="polD
putative hydroxylase" points="950,40 971,10 971,70" fill="rgb(255,255,255)" fill-opacity="1.0" stroke="rgb(0,0,0)" stroke-width="2"  />
			<g>
				<title>2OG-FeII_Oxy_3 (PF13640)
"2OG-Fe(II) oxygenase superfamily"</title>
				<polygon class="PF13640" points="954,40 959,33 959,47" stroke-linejoin="round" width="9" height="24" fill="rgb(163,67,223)" stroke="rgb(130,53,178)" stroke-width="1" opacity="0.75" />
			</g>
		</g>
		<g>
			<title>polC
putative hydroxylase</title>
			<polygon class="polC
putative hydroxylase" points="972,40 992,10 992,70" fill="rgb(255,255,255)" fill-opacity="1.0" stroke="rgb(0,0,0)" stroke-width="2"  />
		</g>
		<g>
			<title>polY
response regulator</title>
			<polygon class="polY
response regulator" points="1095,25 1029,25 1029,10 999,40 1029,70 1029,55 1095,55" fill="rgb(255,255,255)" fill-opacity="1.0" stroke="rgb(0,0,0)" stroke-width="2"  />
			<g>
				<title>TPR_12 (PF13424)
"Tetratricopeptide repeat"</title>
				<polygon class="PF13424" points="1005,38 1012,31 1012,49 1005,42" stroke-linejoin="round" width="7" height="24" fill="rgb(147,215,101)" stroke="rgb(117,172,80)" stroke-width="1" opacity="0.75" />
			</g>
			<g>
				<title>NB-ARC (PF00931)
"NB-ARC domain"</title>
				<rect class="PF00931" x="1043" y="28" stroke-linejoin="round" width="21" height="24" fill="rgb(165,94,211)" stroke="rgb(132,75,168)" stroke-width="1" opacity="0.75" />
			</g>
			<g>
				<title>BTAD (PF03704)
"Bacterial transcriptional activator domain"</title>
				<rect class="PF03704" x="1070" y="28" stroke-linejoin="round" width="14" height="24" fill="rgb(217,89,196)" stroke="rgb(173,71,156)" stroke-width="1" opacity="0.75" />
			</g>
			<g>
				<title>Trans_reg_C (PF00486)
"Transcriptional regulatory protein, C terminal"</title>
				<rect class="PF00486" x="1085" y="28" stroke-linejoin="round" width="7" height="24" fill="rgb(204,153,57)" stroke="rgb(163,122,45)" stroke-width="1" opacity="0.75" />
			</g>
		</g>
		<g>
			<title>polR
pathway-specific regulatory protein</title>
			<polygon class="polR
pathway-specific regulatory protein" points="1102,25 1183,25 1183,10 1213,40 1183,70 1183,55 1102,55" fill="rgb(255,255,255)" fill-opacity="1.0" stroke="rgb(0,0,0)" stroke-width="2"  />
			<g>
				<title>Trans_reg_C (PF00486)
"Transcriptional regulatory protein, C terminal"</title>
				<rect class="PF00486" x="1105" y="28" stroke-linejoin="round" width="8" height="24" fill="rgb(204,153,57)" stroke="rgb(163,122,45)" stroke-width="1" opacity="0.75" />
			</g>
			<g>
				<title>BTAD (PF03704)
"Bacterial transcriptional activator domain"</title>
				<rect class="PF03704" x="1113" y="28" stroke-linejoin="round" width="14" height="24" fill="rgb(217,89,196)" stroke="rgb(173,71,156)" stroke-width="1" opacity="0.75" />
			</g>
			<g>
				<title>AAA_16 (PF13191)
"AAA ATPase domain"</title>
				<rect class="PF13191" x="1135" y="28" stroke-linejoin="round" width="17" height="24" fill="rgb(186,102,77)" stroke="rgb(148,81,61)" stroke-width="1" opacity="0.75" />
			</g>
		</g>
		<g>
			<title>
putative cyclase family protein</title>
			<polygon class="
putative cyclase family protein" points="1218,10 1246,40 1218,70" fill="rgb(255,255,255)" fill-opacity="1.0" stroke="rgb(0,0,0)" stroke-width="2"  />
			<g>
				<title>Cyclase (PF04199)
"Putative cyclase"</title>
				<polygon class="PF04199" points="1223,28 1230,28 1239,37 1239,43 1230,52 1223,52" stroke-linejoin="round" width="16" height="24" fill="rgb(140,47,181)" stroke="rgb(112,37,144)" stroke-width="1" opacity="0.75" />
			</g>
		</g>
		<g>
			<title>
putative transport protein</title>
			<polygon class="
putative transport protein" points="1254,40 1280,10 1280,70" fill="rgb(255,255,255)" fill-opacity="1.0" stroke="rgb(0,0,0)" stroke-width="2"  />
			<g>
				<title>BON (PF04972)
"BON domain"</title>
				<polygon class="PF04972" points="1258,40 1262,36 1262,44" stroke-linejoin="round" width="6" height="24" fill="rgb(62,222,71)" stroke="rgb(49,177,56)" stroke-width="1" opacity="0.75" />
			</g>
			<g>
				<title>CBS (PF00571)
"CBS domain"</title>
				<polygon class="PF00571" points="1263,34 1268,29 1268,51 1263,46" stroke-linejoin="round" width="5" height="24" fill="rgb(220,56,105)" stroke="rgb(176,44,84)" stroke-width="1" opacity="0.75" />
			</g>
			<g>
				<title>CBS (PF00571)
"CBS domain"</title>
				<rect class="PF00571" x="1271" y="28" stroke-linejoin="round" width="5" height="24" fill="rgb(220,56,105)" stroke="rgb(176,44,84)" stroke-width="1" opacity="0.75" />
			</g>
		</g>
		<g>
			<title>
ATPase E1-E2 type</title>
			<polygon class="
ATPase E1-E2 type" points="1287,25 1350,25 1350,10 1380,40 1350,70 1350,55 1287,55" fill="rgb(255,255,255)" fill-opacity="1.0" stroke="rgb(0,0,0)" stroke-width="2"  />
			<g>
				<title>Cation_ATPase_N (PF00690)
"Cation transporter/ATPase, N-terminus"</title>
				<rect class="PF00690" x="1288" y="28" stroke-linejoin="round" width="6" height="24" fill="rgb(174,102,225)" stroke="rgb(139,81,180)" stroke-width="1" opacity="0.75" />
			</g>
			<g>
				<title>E1-E2_ATPase (PF00122)
"E1-E2 ATPase"</title>
				<rect class="PF00122" x="1300" y="28" stroke-linejoin="round" width="19" height="24" fill="rgb(149,204,70)" stroke="rgb(119,163,56)" stroke-width="1" opacity="0.75" />
			</g>
			<g>
				<title>Cation_ATPase (PF13246)
"Cation transport ATPase (P-type)"</title>
				<rect class="PF13246" x="1326" y="28" stroke-linejoin="round" width="8" height="24" fill="rgb(200,58,79)" stroke="rgb(160,46,63)" stroke-width="1" opacity="0.75" />
			</g>
			<g>
				<title>Cation_ATPase_C (PF00689)
"Cation transporting ATPase, C-terminus"</title>
				<polygon class="PF00689" points="1360,28 1363,28 1375,40 1363,52 1360,52" stroke-linejoin="round" width="18" height="24" fill="rgb(76,203,161)" stroke="rgb(60,162,128)" stroke-width="1" opacity="0.75" />
			</g>
		</g>
		<g>
			<title>
TrkA-N domain protein</title>
			<polygon class="
TrkA-N domain protein" points="1380,10 1402,40 1380,70" fill="rgb(255,255,255)" fill-opacity="1.0" stroke="rgb(0,0,0)" stroke-width="2"  />
			<g>
				<title>TrkA_N (PF02254)
"TrkA-N domain"</title>
				<polygon class="PF02254" points="1380,28 1389,28 1391,31 1391,49 1389,52 1380,52" stroke-linejoin="round" width="11" height="24" fill="rgb(120,217,104)" stroke="rgb(96,173,83)" stroke-width="1" opacity="0.75" />
			</g>
		</g>
		<g>
			<title>
putative potassium uptake protein</title>
			<polygon class="
putative potassium uptake protein" points="1402,10 1423,40 1402,70" fill="rgb(255,255,255)" fill-opacity="1.0" stroke="rgb(0,0,0)" stroke-width="2"  />
			<g>
				<title>TrkA_N (PF02254)
"TrkA-N domain"</title>
				<polygon class="PF02254" points="1402,28 1411,28 1413,31 1413,49 1411,52 1402,52" stroke-linejoin="round" width="11" height="24" fill="rgb(120,217,104)" stroke="rgb(96,173,83)" stroke-width="1" opacity="0.75" />
			</g>
			<g>
				<title>TrkA_C (PF02080)
"TrkA-C domain"</title>
				<polygon class="PF02080" points="1417,36 1420,40 1417,44" stroke-linejoin="round" width="6" height="24" fill="rgb(76,186,211)" stroke="rgb(60,148,168)" stroke-width="1" opacity="0.75" />
			</g>
		</g>
		<g>
			<title>
cation-transporting ATPase</title>
			<polygon class="
cation-transporting ATPase" points="1464,25 1456,25 1456,10 1426,40 1456,70 1456,55 1464,55" fill="rgb(255,255,255)" fill-opacity="1.0" stroke="rgb(0,0,0)" stroke-width="2"  />
			<g>
				<title>Hemerythrin (PF01814)
"Hemerythrin HHE cation binding domain"</title>
				<polygon class="PF01814" points="1430,40 1439,31 1439,49" stroke-linejoin="round" width="13" height="24" fill="rgb(120,91,227)" stroke="rgb(95,72,181)" stroke-width="1" opacity="0.75" />
			</g>
			<g>
				<title>Hydrolase (PF00702)
"haloacid dehalogenase-like hydrolase"</title>
				<rect class="PF00702" x="1450" y="28" stroke-linejoin="round" width="11" height="24" fill="rgb(68,220,102)" stroke="rgb(54,176,81)" stroke-width="1" opacity="0.75" />
			</g>
		</g>
		<g>
			<title>
hypothetical protein</title>
			<polygon class="
hypothetical protein" points="1467,10 1484,40 1467,70" fill="rgb(255,255,255)" fill-opacity="1.0" stroke="rgb(0,0,0)" stroke-width="2"  />
			<g>
				<title>DUF2231 (PF09990)
"Predicted membrane protein (DUF2231)"</title>
				<polygon class="PF09990" points="1467,28 1473,28 1480,40 1473,52 1467,52" stroke-linejoin="round" width="15" height="24" fill="rgb(86,187,169)" stroke="rgb(68,149,135)" stroke-width="1" opacity="0.75" />
			</g>
		</g>
		<g>
			<title>
respiratory-chain NADH dehydrogenase</title>
			<polygon class="
respiratory-chain NADH dehydrogenase" points="1543,25 1524,25 1524,10 1494,40 1524,70 1524,55 1543,55" fill="rgb(255,255,255)" fill-opacity="1.0" stroke="rgb(0,0,0)" stroke-width="2"  />
			<g>
				<title>NADH_4Fe-4S (PF10589)
"NADH-ubiquinone oxidoreductase-F iron-sulfur binding region"</title>
				<polygon class="PF10589" points="1498,40 1504,34 1504,46" stroke-linejoin="round" width="8" height="24" fill="rgb(95,196,140)" stroke="rgb(76,156,112)" stroke-width="1" opacity="0.75" />
			</g>
			<g>
				<title>Complex1_51K (PF01512)
"Respiratory-chain NADH dehydrogenase 51 Kd subunit"</title>
				<rect class="PF01512" x="1515" y="28" stroke-linejoin="round" width="16" height="24" fill="rgb(84,180,118)" stroke="rgb(67,144,94)" stroke-width="1" opacity="0.75" />
			</g>
		</g>
	</g>
</svg>
