<svg version="1.1" baseProfile="full" xmlns="http://www.w3.org/2000/svg" width="260.26666666666665" height="80">
	<g>
		<line x1="10" y1="40.0" x2="250.26666666666668" y2="40.0" style="stroke:rgb(70,70,70); stroke-width:3 "/>
		<g>
			<title> (Caci_4239)
serine/threonine protein kinase</title>
			<polygon class=" (Caci_4239)
serine/threonine protein kinase" points="10,25 67,25 67,10 97,40 67,70 67,55 10,55" fill="rgb(255,255,255)" fill-opacity="1.0" stroke="rgb(0,0,0)" stroke-width="2"  />
			<g>
				<title>Pkinase (PF00069)
"Protein kinase domain"</title>
				<rect class="PF00069" x="32" y="28" stroke-linejoin="round" width="22" height="24" fill="rgb(104,187,65)" stroke="rgb(83,149,51)" stroke-width="1" opacity="0.75" />
			</g>
		</g>
		<g>
			<title> (Caci_4240)
precursor</title>
			<polygon class=" (Caci_4240)
precursor" points="97,10 102,40 97,70" fill="rgb(255,255,255)" fill-opacity="1.0" stroke="rgb(0,0,0)" stroke-width="2"  />
			<g>
				<title>RamS (PF19402)
"Lanthionine-containing peptide SapB precursor RamS"</title>
				<polygon class="PF19402" points="97,28 99,40 97,52" stroke-linejoin="round" width="4" height="24" fill="rgb(78,105,213)" stroke="rgb(62,84,170)" stroke-width="1" opacity="0.75" />
			</g>
		</g>
		<g>
			<title> (Caci_4241)
hypothetical protein</title>
			<polygon class=" (Caci_4241)
hypothetical protein" points="107,40 131,10 131,70" fill="rgb(255,255,255)" fill-opacity="1.0" stroke="rgb(0,0,0)" stroke-width="2"  />
		</g>
		<g>
			<title> (Caci_4242)
ABC transporter related</title>
			<polygon class=" (Caci_4242)
ABC transporter related" points="134,25 158,25 158,10 188,40 158,70 158,55 134,55" fill="rgb(255,255,255)" fill-opacity="1.0" stroke="rgb(0,0,0)" stroke-width="2"  />
			<g>
				<title>ABC_membrane (PF00664)
"ABC transporter transmembrane region"</title>
				<rect class="PF00664" x="135" y="28" stroke-linejoin="round" width="26" height="24" fill="rgb(149,226,73)" stroke="rgb(119,180,58)" stroke-width="1" opacity="0.75" />
			</g>
			<g>
				<title>ABC_tran (PF00005)
"ABC transporter"</title>
				<polygon class="PF00005" points="167,28 172,28 181,37 181,43 172,52 167,52" stroke-linejoin="round" width="14" height="24" fill="rgb(129,201,63)" stroke="rgb(103,160,50)" stroke-width="1" opacity="0.75" />
			</g>
		</g>
		<g>
			<title> (Caci_4243)
ABC transporter related</title>
			<polygon class=" (Caci_4243)
ABC transporter related" points="189,25 220,25 220,10 250,40 220,70 220,55 189,55" fill="rgb(255,255,255)" fill-opacity="1.0" stroke="rgb(0,0,0)" stroke-width="2"  />
			<g>
				<title>ABC_tran (PF00005)
"ABC transporter"</title>
				<polygon class="PF00005" points="224,28 233,28 238,33 238,47 233,52 224,52" stroke-linejoin="round" width="14" height="24" fill="rgb(129,201,63)" stroke="rgb(103,160,50)" stroke-width="1" opacity="0.75" />
			</g>
		</g>
	</g>
</svg>
