<svg version="1.1" baseProfile="full" xmlns="http://www.w3.org/2000/svg" width="1526.9" height="80">
	<g>
		<line x1="10" y1="40.0" x2="1516.9" y2="40.0" style="stroke:rgb(70,70,70); stroke-width:3 "/>
		<g>
			<title> (G7054_g10714)
hypothetical protein</title>
			<polygon class=" (G7054_g10714)
hypothetical protein" points="93,25 92,25 92,10 62,40 92,70 92,55 93,55" fill="rgb(255,255,255)" fill-opacity="1.0" stroke="rgb(0,0,0)" stroke-width="2"  />
			<g>
				<title>adh_short_C2 (PF13561)
"Enoyl-(Acyl carrier protein) reductase"</title>
				<polygon class="PF13561" points="66,40 78,28 90,28 90,52 78,52 66,40" stroke-linejoin="round" width="24" height="24" fill="rgb(73,205,127)" stroke="rgb(58,164,101)" stroke-width="1" opacity="0.75" />
			</g>
		</g>
		<g>
			<title> (G7054_g10715)
hypothetical protein</title>
			<polygon class=" (G7054_g10715)
hypothetical protein" points="109,10 129,40 109,70" fill="rgb(255,255,255)" fill-opacity="1.0" stroke="rgb(0,0,0)" stroke-width="2"  />
			<g>
				<title>Scytalone_dh (PF02982)
"Scytalone dehydratase"</title>
				<polygon class="PF02982" points="109,28 117,28 124,38 124,42 117,52 109,52" stroke-linejoin="round" width="15" height="24" fill="rgb(137,188,83)" stroke="rgb(109,150,66)" stroke-width="1" opacity="0.75" />
			</g>
		</g>
		<g>
			<title> (G7054_g10716)
hypothetical protein</title>
			<polygon class=" (G7054_g10716)
hypothetical protein" points="229,25 197,25 197,10 167,40 197,70 197,55 229,55" fill="rgb(255,255,255)" fill-opacity="1.0" stroke="rgb(0,0,0)" stroke-width="2"  />
			<g>
				<title>MFS_1 (PF07690)
"Major Facilitator Superfamily"</title>
				<rect class="PF07690" x="184" y="28" stroke-linejoin="round" width="40" height="24" fill="rgb(193,224,74)" stroke="rgb(154,179,59)" stroke-width="1" opacity="0.75" />
			</g>
		</g>
		<g>
			<title> (G7054_g10717)
hypothetical protein</title>
			<polygon class=" (G7054_g10717)
hypothetical protein" points="305,25 294,25 294,10 264,40 294,70 294,55 305,55" fill="rgb(255,255,255)" fill-opacity="1.0" stroke="rgb(0,0,0)" stroke-width="2"  />
			<g>
				<title>AflR (PF08493)
"Aflatoxin regulatory protein"</title>
				<polygon class="PF08493" points="277,31 280,28 287,28 287,52 280,52 277,49" stroke-linejoin="round" width="10" height="24" fill="rgb(86,63,214)" stroke="rgb(68,50,171)" stroke-width="1" opacity="0.75" />
			</g>
			<g>
				<title>Zn_clus (PF00172)
"Fungal Zn(2)-Cys(6) binuclear cluster domain"</title>
				<rect class="PF00172" x="299" y="28" stroke-linejoin="round" width="3" height="24" fill="rgb(121,178,76)" stroke="rgb(96,142,60)" stroke-width="1" opacity="0.75" />
			</g>
		</g>
		<g>
			<title> (G7054_g10718)
hypothetical protein</title>
			<polygon class=" (G7054_g10718)
hypothetical protein" points="351,25 374,25 374,10 404,40 374,70 374,55 351,55" fill="rgb(255,255,255)" fill-opacity="1.0" stroke="rgb(0,0,0)" stroke-width="2"  />
		</g>
		<g>
			<title> (G7054_g10719)
hypothetical protein</title>
			<polygon class=" (G7054_g10719)
hypothetical protein" points="480,25 464,25 464,10 434,40 464,70 464,55 480,55" fill="rgb(255,255,255)" fill-opacity="1.0" stroke="rgb(0,0,0)" stroke-width="2"  />
			<g>
				<title>Aldo_ket_red (PF00248)
"Aldo/keto reductase family"</title>
				<polygon class="PF00248" points="446,32 450,28 475,28 475,52 450,52 446,48" stroke-linejoin="round" width="29" height="24" fill="rgb(225,205,58)" stroke="rgb(180,164,46)" stroke-width="1" opacity="0.75" />
			</g>
		</g>
		<g>
			<title> (G7054_g10720)
hypothetical protein</title>
			<polygon class=" (G7054_g10720)
hypothetical protein" points="517,10 543,40 517,70" fill="rgb(255,255,255)" fill-opacity="1.0" stroke="rgb(0,0,0)" stroke-width="2"  />
			<g>
				<title>NAD_binding_10 (PF13460)
"NAD(P)H-binding"</title>
				<polygon class="PF13460" points="517,28 529,28 537,38 537,42 529,52 517,52" stroke-linejoin="round" width="20" height="24" fill="rgb(188,201,78)" stroke="rgb(150,160,62)" stroke-width="1" opacity="0.75" />
			</g>
		</g>
		<g>
			<title> (G7054_g10721)
hypothetical protein</title>
			<polygon class=" (G7054_g10721)
hypothetical protein" points="612,25 595,25 595,10 565,40 595,70 595,55 612,55" fill="rgb(255,255,255)" fill-opacity="1.0" stroke="rgb(0,0,0)" stroke-width="2"  />
			<g>
				<title>Methyltransf_2 (PF00891)
"O-methyltransferase domain"</title>
				<polygon class="PF00891" points="574,35 581,28 590,28 590,52 581,52 574,45" stroke-linejoin="round" width="16" height="24" fill="rgb(50,51,190)" stroke="rgb(39,40,152)" stroke-width="1" opacity="0.75" />
			</g>
		</g>
		<g>
			<title> (G7054_g10722)
hypothetical protein</title>
			<polygon class=" (G7054_g10722)
hypothetical protein" points="633,25 674,25 674,10 704,40 674,70 674,55 633,55" fill="rgb(255,255,255)" fill-opacity="1.0" stroke="rgb(0,0,0)" stroke-width="2"  />
			<g>
				<title>Cu-oxidase_3 (PF07732)
"Multicopper oxidase"</title>
				<rect class="PF07732" x="640" y="28" stroke-linejoin="round" width="3" height="24" fill="rgb(80,81,179)" stroke="rgb(63,64,143)" stroke-width="1" opacity="0.75" />
			</g>
			<g>
				<title>Cu-oxidase_3 (PF07732)
"Multicopper oxidase"</title>
				<rect class="PF07732" x="644" y="28" stroke-linejoin="round" width="4" height="24" fill="rgb(80,81,179)" stroke="rgb(63,64,143)" stroke-width="1" opacity="0.75" />
			</g>
			<g>
				<title>Cu-oxidase (PF00394)
"Multicopper oxidase"</title>
				<rect class="PF00394" x="649" y="28" stroke-linejoin="round" width="15" height="24" fill="rgb(172,188,74)" stroke="rgb(137,150,59)" stroke-width="1" opacity="0.75" />
			</g>
			<g>
				<title>Cu-oxidase_2 (PF07731)
"Multicopper oxidase"</title>
				<rect class="PF07731" x="672" y="28" stroke-linejoin="round" width="14" height="24" fill="rgb(183,55,192)" stroke="rgb(146,44,153)" stroke-width="1" opacity="0.75" />
			</g>
		</g>
		<g>
			<title> (G7054_g10723)
hypothetical protein</title>
			<polygon class=" (G7054_g10723)
hypothetical protein" points="720,40 734,10 734,70" fill="rgb(255,255,255)" fill-opacity="1.0" stroke="rgb(0,0,0)" stroke-width="2"  />
		</g>
		<g>
			<title> (G7054_g10724)
hypothetical protein</title>
			<polygon class=" (G7054_g10724)
hypothetical protein" points="756,25 790,25 790,10 820,40 790,70 790,55 756,55" fill="rgb(255,255,255)" fill-opacity="1.0" stroke="rgb(0,0,0)" stroke-width="2"  />
			<g>
				<title>p450 (PF00067)
"Cytochrome P450"</title>
				<rect class="PF00067" x="761" y="28" stroke-linejoin="round" width="39" height="24" fill="rgb(85,216,107)" stroke="rgb(68,172,85)" stroke-width="1" opacity="0.75" />
			</g>
			<g>
				<title>p450 (PF00067)
"Cytochrome P450"</title>
				<polygon class="PF00067" points="803,28 803,28 810,35 810,45 803,52 803,52" stroke-linejoin="round" width="7" height="24" fill="rgb(85,216,107)" stroke="rgb(68,172,85)" stroke-width="1" opacity="0.75" />
			</g>
		</g>
		<g>
			<title> (G7054_g10725)
hypothetical protein</title>
			<polygon class=" (G7054_g10725)
hypothetical protein" points="859,25 888,25 888,10 918,40 888,70 888,55 859,55" fill="rgb(255,255,255)" fill-opacity="1.0" stroke="rgb(0,0,0)" stroke-width="2"  />
			<g>
				<title>GMC_oxred_N (PF00732)
"GMC oxidoreductase"</title>
				<rect class="PF00732" x="861" y="28" stroke-linejoin="round" width="30" height="24" fill="rgb(180,89,214)" stroke="rgb(143,71,171)" stroke-width="1" opacity="0.75" />
			</g>
			<g>
				<title>GMC_oxred_C (PF05199)
"GMC oxidoreductase"</title>
				<polygon class="PF05199" points="902,29 913,40 902,51" stroke-linejoin="round" width="13" height="24" fill="rgb(186,52,106)" stroke="rgb(148,41,84)" stroke-width="1" opacity="0.75" />
			</g>
		</g>
		<g>
			<title> (G7054_g10726)
hypothetical protein</title>
			<polygon class=" (G7054_g10726)
hypothetical protein" points="948,40 976,10 976,70" fill="rgb(255,255,255)" fill-opacity="1.0" stroke="rgb(0,0,0)" stroke-width="2"  />
			<g>
				<title>adh_short (PF00106)
"short chain dehydrogenase"</title>
				<polygon class="PF00106" points="957,35 963,28 975,28 975,52 963,52 957,45" stroke-linejoin="round" width="18" height="24" fill="rgb(182,219,73)" stroke="rgb(145,175,58)" stroke-width="1" opacity="0.75" />
			</g>
		</g>
		<g>
			<title> (G7054_g10727)
hypothetical protein</title>
			<polygon class=" (G7054_g10727)
hypothetical protein" points="996,25 1029,25 1029,10 1059,40 1029,70 1029,55 996,55" fill="rgb(255,255,255)" fill-opacity="1.0" stroke="rgb(0,0,0)" stroke-width="2"  />
			<g>
				<title>Zn_clus (PF00172)
"Fungal Zn(2)-Cys(6) binuclear cluster domain"</title>
				<rect class="PF00172" x="996" y="28" stroke-linejoin="round" width="3" height="24" fill="rgb(121,178,76)" stroke="rgb(96,142,60)" stroke-width="1" opacity="0.75" />
			</g>
			<g>
				<title>Fungal_trans_2 (PF11951)
"Fungal specific transcription factor domain"</title>
				<polygon class="PF11951" points="1015,28 1042,28 1054,40 1042,52 1015,52" stroke-linejoin="round" width="43" height="24" fill="rgb(102,165,217)" stroke="rgb(81,132,173)" stroke-width="1" opacity="0.75" />
			</g>
		</g>
		<g>
			<title> (G7054_g10728)
hypothetical protein</title>
			<polygon class=" (G7054_g10728)
hypothetical protein" points="1103,25 1094,25 1094,10 1064,40 1094,70 1094,55 1103,55" fill="rgb(255,255,255)" fill-opacity="1.0" stroke="rgb(0,0,0)" stroke-width="2"  />
			<g>
				<title>adh_short (PF00106)
"short chain dehydrogenase"</title>
				<rect class="PF00106" x="1088" y="28" stroke-linejoin="round" width="14" height="24" fill="rgb(182,219,73)" stroke="rgb(145,175,58)" stroke-width="1" opacity="0.75" />
			</g>
		</g>
		<g>
			<title> (G7054_g10729)
hypothetical protein</title>
			<polygon class=" (G7054_g10729)
hypothetical protein" points="1128,25 1143,25 1143,10 1173,40 1143,70 1143,55 1128,55" fill="rgb(255,255,255)" fill-opacity="1.0" stroke="rgb(0,0,0)" stroke-width="2"  />
			<g>
				<title>Questin_oxidase (PF14027)
"Questin oxidase-like"</title>
				<polygon class="PF14027" points="1133,28 1156,28 1166,38 1166,42 1156,52 1133,52" stroke-linejoin="round" width="33" height="24" fill="rgb(77,150,178)" stroke="rgb(61,119,142)" stroke-width="1" opacity="0.75" />
			</g>
		</g>
		<g>
			<title> (G7054_g10730)
hypothetical protein</title>
			<polygon class=" (G7054_g10730)
hypothetical protein" points="1197,40 1222,10 1222,70" fill="rgb(255,255,255)" fill-opacity="1.0" stroke="rgb(0,0,0)" stroke-width="2"  />
			<g>
				<title>Lactamase_B (PF00753)
"Metallo-beta-lactamase superfamily"</title>
				<polygon class="PF00753" points="1202,39 1211,28 1217,28 1217,52 1211,52 1202,41" stroke-linejoin="round" width="15" height="24" fill="rgb(206,198,96)" stroke="rgb(164,158,76)" stroke-width="1" opacity="0.75" />
			</g>
		</g>
		<g>
			<title> (G7054_g10731)
hypothetical protein</title>
			<polygon class=" (G7054_g10731)
hypothetical protein" points="1247,25 1404,25 1404,10 1434,40 1404,70 1404,55 1247,55" fill="rgb(255,255,255)" fill-opacity="1.0" stroke="rgb(0,0,0)" stroke-width="2"  />
			<g>
				<title>SAT (PF16073)
"Starter unit:ACP transacylase in aflatoxin biosynthesis"</title>
				<rect class="PF16073" x="1250" y="28" stroke-linejoin="round" width="23" height="24" fill="rgb(77,115,183)" stroke="rgb(61,91,146)" stroke-width="1" opacity="0.75" />
			</g>
			<g>
				<title>ketoacyl-synt (PF00109)
"Beta-ketoacyl synthase, N-terminal domain"</title>
				<rect class="PF00109" x="1287" y="28" stroke-linejoin="round" width="25" height="24" fill="rgb(112,116,228)" stroke="rgb(89,92,182)" stroke-width="1" opacity="0.75" />
			</g>
			<g>
				<title>Ketoacyl-synt_C (PF02801)
"Beta-ketoacyl synthase, C-terminal domain"</title>
				<rect class="PF02801" x="1313" y="28" stroke-linejoin="round" width="12" height="24" fill="rgb(215,78,102)" stroke="rgb(172,62,81)" stroke-width="1" opacity="0.75" />
			</g>
			<g>
				<title>Acyl_transf_1 (PF00698)
"Acyl transferase domain"</title>
				<rect class="PF00698" x="1341" y="28" stroke-linejoin="round" width="32" height="24" fill="rgb(59,176,209)" stroke="rgb(47,140,167)" stroke-width="1" opacity="0.75" />
			</g>
			<g>
				<title>PS-DH (PF14765)
"Polyketide synthase dehydratase"</title>
				<rect class="PF14765" x="1386" y="28" stroke-linejoin="round" width="25" height="24" fill="rgb(173,56,182)" stroke="rgb(138,44,145)" stroke-width="1" opacity="0.75" />
			</g>
			<g>
				<title>PP-binding (PF00550)
"Phosphopantetheine attachment site"</title>
				<polygon class="PF00550" points="1421,31 1427,37 1427,43 1421,49" stroke-linejoin="round" width="6" height="24" fill="rgb(103,191,88)" stroke="rgb(82,152,70)" stroke-width="1" opacity="0.75" />
			</g>
		</g>
		<g>
			<title> (G7054_g10732)
hypothetical protein</title>
			<polygon class=" (G7054_g10732)
hypothetical protein" points="1490,10 1516,40 1490,70" fill="rgb(255,255,255)" fill-opacity="1.0" stroke="rgb(0,0,0)" stroke-width="2"  />
			<g>
				<title>FSH1 (PF03959)
"Serine hydrolase (FSH1)"</title>
				<polygon class="PF03959" points="1491,28 1501,28 1512,40 1501,52 1491,52" stroke-linejoin="round" width="24" height="24" fill="rgb(54,166,181)" stroke="rgb(43,132,144)" stroke-width="1" opacity="0.75" />
			</g>
		</g>
	</g>
</svg>
