<svg version="1.1" baseProfile="full" xmlns="http://www.w3.org/2000/svg" width="436.73333333333335" height="80">
	<g>
		<line x1="10" y1="40.0" x2="426.73333333333335" y2="40.0" style="stroke:rgb(70,70,70); stroke-width:3 "/>
		<g>
			<title> (STRAU_RS10340)
DHA2 family efflux MFS transporter permease subunit</title>
			<polygon class=" (STRAU_RS10340)
DHA2 family efflux MFS transporter permease subunit" points="10,25 30,25 30,10 60,40 30,70 30,55 10,55" fill="rgb(255,255,255)" fill-opacity="1.0" stroke="rgb(0,0,0)" stroke-width="2"  />
			<g>
				<title>MFS_1 (PF07690)
"Major Facilitator Superfamily"</title>
				<polygon class="PF07690" points="11,28 44,28 50,34 50,46 44,52 11,52" stroke-linejoin="round" width="39" height="24" fill="rgb(193,224,74)" stroke="rgb(154,179,59)" stroke-width="1" opacity="0.75" />
			</g>
		</g>
		<g>
			<title> (STRAU_RS38955)
TcmI family type II polyketide cyclase</title>
			<polygon class=" (STRAU_RS38955)
TcmI family type II polyketide cyclase" points="61,10 82,40 61,70" fill="rgb(255,255,255)" fill-opacity="1.0" stroke="rgb(0,0,0)" stroke-width="2"  />
			<g>
				<title>Cyclase_polyket (PF04673)
"Polyketide synthesis cyclase"</title>
				<polygon class="PF04673" points="61,28 70,28 71,29 71,51 70,52 61,52" stroke-linejoin="round" width="10" height="24" fill="rgb(49,187,78)" stroke="rgb(39,149,62)" stroke-width="1" opacity="0.75" />
			</g>
			<g>
				<title>Cyclase_polyket (PF04673)
"Polyketide synthesis cyclase"</title>
				<polygon class="PF04673" points="72,31 79,40 72,49" stroke-linejoin="round" width="9" height="24" fill="rgb(49,187,78)" stroke="rgb(39,149,62)" stroke-width="1" opacity="0.75" />
			</g>
		</g>
		<g>
			<title> (STRAU_RS10350)
nuclear transport factor 2 family protein</title>
			<polygon class=" (STRAU_RS10350)
nuclear transport factor 2 family protein" points="99,10 113,40 99,70" fill="rgb(255,255,255)" fill-opacity="1.0" stroke="rgb(0,0,0)" stroke-width="2"  />
			<g>
				<title>SnoaL_4 (PF13577)
"SnoaL-like domain"</title>
				<polygon class="PF13577" points="99,28 104,28 109,40 104,52 99,52" stroke-linejoin="round" width="12" height="24" fill="rgb(68,223,209)" stroke="rgb(54,178,167)" stroke-width="1" opacity="0.75" />
			</g>
		</g>
		<g>
			<title> (STRAU_RS10355)
response regulator transcription factor</title>
			<polygon class=" (STRAU_RS10355)
response regulator transcription factor" points="116,10 143,40 116,70" fill="rgb(255,255,255)" fill-opacity="1.0" stroke="rgb(0,0,0)" stroke-width="2"  />
			<g>
				<title>Response_reg (PF00072)
"Response regulator receiver domain"</title>
				<polygon class="PF00072" points="120,28 127,28 130,31 130,49 127,52 120,52" stroke-linejoin="round" width="10" height="24" fill="rgb(100,107,203)" stroke="rgb(80,85,162)" stroke-width="1" opacity="0.75" />
			</g>
			<g>
				<title>Trans_reg_C (PF00486)
"Transcriptional regulatory protein, C terminal"</title>
				<polygon class="PF00486" points="135,36 138,40 135,44" stroke-linejoin="round" width="7" height="24" fill="rgb(204,153,57)" stroke="rgb(163,122,45)" stroke-width="1" opacity="0.75" />
			</g>
		</g>
		<g>
			<title> (STRAU_RS10360)
cytochrome P450</title>
			<polygon class=" (STRAU_RS10360)
cytochrome P450" points="146,25 156,25 156,10 186,40 156,70 156,55 146,55" fill="rgb(255,255,255)" fill-opacity="1.0" stroke="rgb(0,0,0)" stroke-width="2"  />
			<g>
				<title>p450 (PF00067)
"Cytochrome P450"</title>
				<polygon class="PF00067" points="148,28 170,28 172,30 172,50 170,52 148,52" stroke-linejoin="round" width="24" height="24" fill="rgb(85,216,107)" stroke="rgb(68,172,85)" stroke-width="1" opacity="0.75" />
			</g>
			<g>
				<title>p450 (PF00067)
"Cytochrome P450"</title>
				<polygon class="PF00067" points="173,31 182,40 173,49" stroke-linejoin="round" width="11" height="24" fill="rgb(85,216,107)" stroke="rgb(68,172,85)" stroke-width="1" opacity="0.75" />
			</g>
		</g>
		<g>
			<title> (STRAU_RS10365)
(4Fe-4S)-binding protein</title>
			<polygon class=" (STRAU_RS10365)
(4Fe-4S)-binding protein" points="187,10 193,40 187,70" fill="rgb(255,255,255)" fill-opacity="1.0" stroke="rgb(0,0,0)" stroke-width="2"  />
			<g>
				<title>Fer4_19 (PF06902)
"Divergent 4Fe-4S mono-cluster"</title>
				<polygon class="PF06902" points="187,28 187,28 190,40 187,52 187,52" stroke-linejoin="round" width="6" height="24" fill="rgb(86,110,201)" stroke="rgb(68,87,160)" stroke-width="1" opacity="0.75" />
			</g>
		</g>
		<g>
			<title> (STRAU_RS10370)
nuclear transport factor 2 family protein</title>
			<polygon class=" (STRAU_RS10370)
nuclear transport factor 2 family protein" points="196,40 211,10 211,70" fill="rgb(255,255,255)" fill-opacity="1.0" stroke="rgb(0,0,0)" stroke-width="2"  />
			<g>
				<title>SnoaL_4 (PF13577)
"SnoaL-like domain"</title>
				<polygon class="PF13577" points="199,40 205,28 209,28 209,52 205,52" stroke-linejoin="round" width="12" height="24" fill="rgb(68,223,209)" stroke="rgb(54,178,167)" stroke-width="1" opacity="0.75" />
			</g>
		</g>
		<g>
			<title> (STRAU_RS41390)
TcmI family type II polyketide cyclase</title>
			<polygon class=" (STRAU_RS41390)
TcmI family type II polyketide cyclase" points="219,10 228,40 219,70" fill="rgb(255,255,255)" fill-opacity="1.0" stroke="rgb(0,0,0)" stroke-width="2"  />
			<g>
				<title>Cyclase_polyket (PF04673)
"Polyketide synthesis cyclase"</title>
				<polygon class="PF04673" points="219,28 221,28 225,40 221,52 219,52" stroke-linejoin="round" width="9" height="24" fill="rgb(49,187,78)" stroke="rgb(39,149,62)" stroke-width="1" opacity="0.75" />
			</g>
		</g>
		<g>
			<title> (STRAU_RS41395)
TcmI family type II polyketide cyclase</title>
			<polygon class=" (STRAU_RS41395)
TcmI family type II polyketide cyclase" points="229,10 240,40 229,70" fill="rgb(255,255,255)" fill-opacity="1.0" stroke="rgb(0,0,0)" stroke-width="2"  />
			<g>
				<title>Cyclase_polyket (PF04673)
"Polyketide synthesis cyclase"</title>
				<polygon class="PF04673" points="229,28 232,28 236,40 232,52 229,52" stroke-linejoin="round" width="10" height="24" fill="rgb(49,187,78)" stroke="rgb(39,149,62)" stroke-width="1" opacity="0.75" />
			</g>
		</g>
		<g>
			<title> (STRAU_RS10380)
beta-ketoacyl-[acyl-carrier-protein] synthase family protein</title>
			<polygon class=" (STRAU_RS10380)
beta-ketoacyl-[acyl-carrier-protein] synthase family protein" points="240,25 252,25 252,10 282,40 252,70 252,55 240,55" fill="rgb(255,255,255)" fill-opacity="1.0" stroke="rgb(0,0,0)" stroke-width="2"  />
			<g>
				<title>ketoacyl-synt (PF00109)
"Beta-ketoacyl synthase, N-terminal domain"</title>
				<rect class="PF00109" x="240" y="28" stroke-linejoin="round" width="25" height="24" fill="rgb(112,116,228)" stroke="rgb(89,92,182)" stroke-width="1" opacity="0.75" />
			</g>
			<g>
				<title>Ketoacyl-synt_C (PF02801)
"Beta-ketoacyl synthase, C-terminal domain"</title>
				<polygon class="PF02801" points="266,28 266,28 277,39 277,41 266,52 266,52" stroke-linejoin="round" width="11" height="24" fill="rgb(215,78,102)" stroke="rgb(172,62,81)" stroke-width="1" opacity="0.75" />
			</g>
		</g>
		<g>
			<title> (STRAU_RS10385)
ketosynthase chain-length factor</title>
			<polygon class=" (STRAU_RS10385)
ketosynthase chain-length factor" points="283,25 292,25 292,10 322,40 292,70 292,55 283,55" fill="rgb(255,255,255)" fill-opacity="1.0" stroke="rgb(0,0,0)" stroke-width="2"  />
			<g>
				<title>ketoacyl-synt (PF00109)
"Beta-ketoacyl synthase, N-terminal domain"</title>
				<polygon class="PF00109" points="283,28 306,28 307,29 307,51 306,52 283,52" stroke-linejoin="round" width="24" height="24" fill="rgb(112,116,228)" stroke="rgb(89,92,182)" stroke-width="1" opacity="0.75" />
			</g>
			<g>
				<title>Ketoacyl-synt_C (PF02801)
"Beta-ketoacyl synthase, C-terminal domain"</title>
				<polygon class="PF02801" points="308,30 318,40 318,40 308,50" stroke-linejoin="round" width="10" height="24" fill="rgb(215,78,102)" stroke="rgb(172,62,81)" stroke-width="1" opacity="0.75" />
			</g>
		</g>
		<g>
			<title> (STRAU_RS10390)
acyl carrier protein</title>
			<polygon class=" (STRAU_RS10390)
acyl carrier protein" points="325,10 333,40 325,70" fill="rgb(255,255,255)" fill-opacity="1.0" stroke="rgb(0,0,0)" stroke-width="2"  />
			<g>
				<title>PP-binding (PF00550)
"Phosphopantetheine attachment site"</title>
				<polygon class="PF00550" points="325,28 326,28 330,40 326,52 325,52" stroke-linejoin="round" width="7" height="24" fill="rgb(103,191,88)" stroke="rgb(82,152,70)" stroke-width="1" opacity="0.75" />
			</g>
		</g>
		<g>
			<title>fabG (STRAU_RS10395)
3-oxoacyl-ACP reductase FabG</title>
			<polygon class="fabG (STRAU_RS10395)
3-oxoacyl-ACP reductase FabG" points="336,10 362,40 336,70" fill="rgb(255,255,255)" fill-opacity="1.0" stroke="rgb(0,0,0)" stroke-width="2"  />
			<g>
				<title>adh_short (PF00106)
"short chain dehydrogenase"</title>
				<polygon class="PF00106" points="336,28 348,28 355,37 355,43 348,52 336,52" stroke-linejoin="round" width="19" height="24" fill="rgb(182,219,73)" stroke="rgb(145,175,58)" stroke-width="1" opacity="0.75" />
			</g>
		</g>
		<g>
			<title> (STRAU_RS10400)
aromatase/cyclase</title>
			<polygon class=" (STRAU_RS10400)
aromatase/cyclase" points="364,25 366,25 366,10 396,40 366,70 366,55 364,55" fill="rgb(255,255,255)" fill-opacity="1.0" stroke="rgb(0,0,0)" stroke-width="2"  />
			<g>
				<title>Polyketide_cyc2 (PF10604)
"Polyketide cyclase / dehydrase and lipid transport"</title>
				<rect class="PF10604" x="364" y="28" stroke-linejoin="round" width="14" height="24" fill="rgb(105,204,74)" stroke="rgb(84,163,59)" stroke-width="1" opacity="0.75" />
			</g>
			<g>
				<title>Polyketide_cyc2 (PF10604)
"Polyketide cyclase / dehydrase and lipid transport"</title>
				<polygon class="PF10604" points="380,29 391,40 380,51" stroke-linejoin="round" width="15" height="24" fill="rgb(105,204,74)" stroke="rgb(84,163,59)" stroke-width="1" opacity="0.75" />
			</g>
		</g>
		<g>
			<title> (STRAU_RS10405)
alpha/beta fold hydrolase</title>
			<polygon class=" (STRAU_RS10405)
alpha/beta fold hydrolase" points="396,25 396,25 396,10 426,40 396,70 396,55 396,55" fill="rgb(255,255,255)" fill-opacity="1.0" stroke="rgb(0,0,0)" stroke-width="2"  />
			<g>
				<title>Abhydrolase_6 (PF12697)
"Alpha/beta hydrolase family"</title>
				<polygon class="PF12697" points="400,28 410,28 422,40 410,52 400,52" stroke-linejoin="round" width="24" height="24" fill="rgb(113,71,219)" stroke="rgb(90,56,175)" stroke-width="1" opacity="0.75" />
			</g>
		</g>
	</g>
</svg>
