<svg version="1.1" baseProfile="full" xmlns="http://www.w3.org/2000/svg" width="6511.533333333334" height="80">
	<g>
		<line x1="10" y1="40.0" x2="6501.533333333334" y2="40.0" style="stroke:rgb(70,70,70); stroke-width:3 "/>
		<g>
			<title>Os10g0377800 (OSNPB_100377800_rename2)</title>
			<polygon class="Os10g0377800 (OSNPB_100377800_rename2)" points="118,25 60,25 60,10 30,40 60,70 60,55 118,55" fill="rgb(255,255,255)" fill-opacity="1.0" stroke="rgb(0,0,0)" stroke-width="2"  />
		</g>
		<g>
			<title>Os10g0377800 (OSNPB_100377800_rename1)</title>
			<polygon class="Os10g0377800 (OSNPB_100377800_rename1)" points="207,25 60,25 60,10 30,40 60,70 60,55 207,55" fill="rgb(255,255,255)" fill-opacity="1.0" stroke="rgb(0,0,0)" stroke-width="2"  />
		</g>
		<g>
			<title>Os10g0377800 (OSNPB_100377800)</title>
			<polygon class="Os10g0377800 (OSNPB_100377800)" points="209,25 60,25 60,10 30,40 60,70 60,55 209,55" fill="rgb(255,255,255)" fill-opacity="1.0" stroke="rgb(0,0,0)" stroke-width="2"  />
			<g>
				<title>PNP_phzG_C (PF10590)
"Pyridoxine 5'-phosphate oxidase C-terminal dimerisation region"</title>
				<rect class="PF10590" x="155" y="28" stroke-linejoin="round" width="4" height="24" fill="rgb(86,221,142)" stroke="rgb(68,176,113)" stroke-width="1" opacity="0.75" />
			</g>
			<g>
				<title>Putative_PNPOx (PF01243)
"Pyridoxamine 5'-phosphate oxidase"</title>
				<rect class="PF01243" x="164" y="28" stroke-linejoin="round" width="8" height="24" fill="rgb(177,193,67)" stroke="rgb(141,154,53)" stroke-width="1" opacity="0.75" />
			</g>
			<g>
				<title>YjeF_N (PF03853)
"YjeF-related protein N-terminus"</title>
				<rect class="PF03853" x="181" y="28" stroke-linejoin="round" width="17" height="24" fill="rgb(201,202,97)" stroke="rgb(160,161,77)" stroke-width="1" opacity="0.75" />
			</g>
		</g>
		<g>
			<title>Os10g0378000 (OSNPB_100378000)</title>
			<polygon class="Os10g0378000 (OSNPB_100378000)" points="671,25 392,25 392,10 362,40 392,70 392,55 671,55" fill="rgb(255,255,255)" fill-opacity="1.0" stroke="rgb(0,0,0)" stroke-width="2"  />
			<g>
				<title>p450 (PF00067)
"Cytochrome P450"</title>
				<rect class="PF00067" x="622" y="28" stroke-linejoin="round" width="42" height="24" fill="rgb(85,216,107)" stroke="rgb(68,172,85)" stroke-width="1" opacity="0.75" />
			</g>
		</g>
		<g>
			<title>Os10g0378100 (OSNPB_100378100)</title>
			<polygon class="Os10g0378100 (OSNPB_100378100)" points="1038,25 803,25 803,10 773,40 803,70 803,55 1038,55" fill="rgb(255,255,255)" fill-opacity="1.0" stroke="rgb(0,0,0)" stroke-width="2"  />
			<g>
				<title>p450 (PF00067)
"Cytochrome P450"</title>
				<rect class="PF00067" x="990" y="28" stroke-linejoin="round" width="43" height="24" fill="rgb(85,216,107)" stroke="rgb(68,172,85)" stroke-width="1" opacity="0.75" />
			</g>
		</g>
		<g>
			<title>Os10g0378300 (OSNPB_100378300)</title>
			<polygon class="Os10g0378300 (OSNPB_100378300)" points="1349,25 1479,25 1479,10 1509,40 1479,70 1479,55 1349,55" fill="rgb(255,255,255)" fill-opacity="1.0" stroke="rgb(0,0,0)" stroke-width="2"  />
			<g>
				<title>CutA1 (PF03091)
"CutA1 divalent ion tolerance protein"</title>
				<rect class="PF03091" x="1356" y="28" stroke-linejoin="round" width="9" height="24" fill="rgb(220,167,58)" stroke="rgb(176,133,46)" stroke-width="1" opacity="0.75" />
			</g>
		</g>
		<g>
			<title>Os10g0378300 (OSNPB_100378300_rename1)</title>
			<polygon class="Os10g0378300 (OSNPB_100378300_rename1)" points="1366,25 1479,25 1479,10 1509,40 1479,70 1479,55 1366,55" fill="rgb(255,255,255)" fill-opacity="1.0" stroke="rgb(0,0,0)" stroke-width="2"  />
		</g>
		<g>
			<title>Os10g0378400 (OSNPB_100378400)</title>
			<polygon class="Os10g0378400 (OSNPB_100378400)" points="1596,25 1584,25 1584,10 1554,40 1584,70 1584,55 1596,55" fill="rgb(255,255,255)" fill-opacity="1.0" stroke="rgb(0,0,0)" stroke-width="2"  />
			<g>
				<title>DUF641 (PF04859)
"Plant protein of unknown function (DUF641)"</title>
				<rect class="PF04859" x="1588" y="28" stroke-linejoin="round" width="6" height="24" fill="rgb(182,54,114)" stroke="rgb(145,43,91)" stroke-width="1" opacity="0.75" />
			</g>
		</g>
		<g>
			<title>Os10g0378450 (OSNPB_100378450)</title>
			<polygon class="Os10g0378450 (OSNPB_100378450)" points="1744,40 1763,10 1763,70" fill="rgb(255,255,255)" fill-opacity="1.0" stroke="rgb(0,0,0)" stroke-width="2"  />
		</g>
		<g>
			<title>Os10g0378800 (OSNPB_100378800)</title>
			<polygon class="Os10g0378800 (OSNPB_100378800)" points="2558,25 2565,25 2565,10 2595,40 2565,70 2565,55 2558,55" fill="rgb(255,255,255)" fill-opacity="1.0" stroke="rgb(0,0,0)" stroke-width="2"  />
			<g>
				<title>DBD_Tnp_Mut (PF03108)
"MuDR family transposase"</title>
				<rect class="PF03108" x="2572" y="28" stroke-linejoin="round" width="6" height="24" fill="rgb(105,68,180)" stroke="rgb(83,54,144)" stroke-width="1" opacity="0.75" />
			</g>
		</g>
		<g>
			<title>Os10g0378900 (OSNPB_100378900)</title>
			<polygon class="Os10g0378900 (OSNPB_100378900)" points="2698,25 2669,25 2669,10 2639,40 2669,70 2669,55 2698,55" fill="rgb(255,255,255)" fill-opacity="1.0" stroke="rgb(0,0,0)" stroke-width="2"  />
		</g>
		<g>
			<title>Os10g0379100 (OSNPB_100379100)</title>
			<polygon class="Os10g0379100 (OSNPB_100379100)" points="3856,25 3830,25 3830,10 3800,40 3830,70 3830,55 3856,55" fill="rgb(255,255,255)" fill-opacity="1.0" stroke="rgb(0,0,0)" stroke-width="2"  />
			<g>
				<title>Transferase (PF02458)
"Transferase family"</title>
				<polygon class="PF02458" points="3813,31 3816,28 3856,28 3856,52 3816,52 3813,49" stroke-linejoin="round" width="43" height="24" fill="rgb(57,117,190)" stroke="rgb(45,93,152)" stroke-width="1" opacity="0.75" />
			</g>
		</g>
		<g>
			<title>Os10g0379233 (OSNPB_100379233)</title>
			<polygon class="Os10g0379233 (OSNPB_100379233)" points="3803,25 3815,25 3815,10 3845,40 3815,70 3815,55 3803,55" fill="rgb(255,255,255)" fill-opacity="1.0" stroke="rgb(0,0,0)" stroke-width="2"  />
		</g>
		<g>
			<title>Os10g0379366 (OSNPB_100379366)</title>
			<polygon class="Os10g0379366 (OSNPB_100379366)" points="4128,40 4139,10 4139,70" fill="rgb(255,255,255)" fill-opacity="1.0" stroke="rgb(0,0,0)" stroke-width="2"  />
		</g>
		<g>
			<title>Os10g0379610 (OSNPB_100379610)</title>
			<polygon class="Os10g0379610 (OSNPB_100379610)" points="4651,10 4668,40 4651,70" fill="rgb(255,255,255)" fill-opacity="1.0" stroke="rgb(0,0,0)" stroke-width="2"  />
		</g>
		<g>
			<title>Os10g0379854 (OSNPB_100379854)</title>
			<polygon class="Os10g0379854 (OSNPB_100379854)" points="4923,40 4941,10 4941,70" fill="rgb(255,255,255)" fill-opacity="1.0" stroke="rgb(0,0,0)" stroke-width="2"  />
		</g>
		<g>
			<title>Os10g0380100 (OSNPB_100380100)</title>
			<polygon class="Os10g0380100 (OSNPB_100380100)" points="4939,25 4939,25 4939,10 4969,40 4939,70 4939,55 4939,55" fill="rgb(255,255,255)" fill-opacity="1.0" stroke="rgb(0,0,0)" stroke-width="2"  />
			<g>
				<title>Transferase (PF02458)
"Transferase family"</title>
				<polygon class="PF02458" points="4939,28 4952,28 4964,40 4952,52 4939,52" stroke-linejoin="round" width="29" height="24" fill="rgb(57,117,190)" stroke="rgb(45,93,152)" stroke-width="1" opacity="0.75" />
			</g>
		</g>
		<g>
			<title>Os10g0380300 (OSNPB_100380300)</title>
			<polygon class="Os10g0380300 (OSNPB_100380300)" points="5255,10 5266,40 5255,70" fill="rgb(255,255,255)" fill-opacity="1.0" stroke="rgb(0,0,0)" stroke-width="2"  />
			<g>
				<title>DUF3475 (PF11961)
"Domain of unknown function (DUF3475)"</title>
				<polygon class="PF11961" points="5257,28 5258,28 5262,37 5262,43 5258,52 5257,52" stroke-linejoin="round" width="5" height="24" fill="rgb(226,112,142)" stroke="rgb(180,89,113)" stroke-width="1" opacity="0.75" />
			</g>
		</g>
		<g>
			<title>Os10g0381200 (OSNPB_100381200)</title>
			<polygon class="Os10g0381200 (OSNPB_100381200)" points="5279,40 5289,10 5289,70" fill="rgb(255,255,255)" fill-opacity="1.0" stroke="rgb(0,0,0)" stroke-width="2"  />
		</g>
		<g>
			<title>Os10g0380800 (OSNPB_100380800)</title>
			<polygon class="Os10g0380800 (OSNPB_100380800)" points="6497,25 6475,25 6475,10 6445,40 6475,70 6475,55 6497,55" fill="rgb(255,255,255)" fill-opacity="1.0" stroke="rgb(0,0,0)" stroke-width="2"  />
			<g>
				<title>Pyridoxal_deC (PF00282)
"Pyridoxal-dependent decarboxylase conserved domain"</title>
				<polygon class="PF00282" points="6452,37 6461,28 6490,28 6490,52 6461,52 6452,43" stroke-linejoin="round" width="38" height="24" fill="rgb(100,218,166)" stroke="rgb(80,174,132)" stroke-width="1" opacity="0.75" />
			</g>
		</g>
	</g>
</svg>
