<svg version="1.1" baseProfile="full" xmlns="http://www.w3.org/2000/svg" width="208.0" height="80">
	<g>
		<line x1="10" y1="40.0" x2="198.0" y2="40.0" style="stroke:rgb(70,70,70); stroke-width:3 "/>
		<g>
			<title></title>
			<polygon class="" points="10,10 18,40 10,70" fill="rgb(255,255,255)" fill-opacity="1.0" stroke="rgb(0,0,0)" stroke-width="2"  />
		</g>
		<g>
			<title></title>
			<polygon class="" points="23,40 38,10 38,70" fill="rgb(255,255,255)" fill-opacity="1.0" stroke="rgb(0,0,0)" stroke-width="2"  />
		</g>
		<g>
			<title></title>
			<polygon class="" points="52,10 79,40 52,70" fill="rgb(255,255,255)" fill-opacity="1.0" stroke="rgb(0,0,0)" stroke-width="2"  />
			<g>
				<title>SBP_bac_3 (PF00497)
"Bacterial extracellular solute-binding proteins, family 3"</title>
				<polygon class="PF00497" points="53,28 63,28 75,40 75,40 63,52 53,52" stroke-linejoin="round" width="22" height="24" fill="rgb(186,76,141)" stroke="rgb(148,60,112)" stroke-width="1" opacity="0.75" />
			</g>
		</g>
		<g>
			<title>mstI
MstI</title>
			<polygon class="mstI
MstI" points="89,10 95,40 89,70" fill="rgb(255,255,255)" fill-opacity="1.0" stroke="rgb(0,0,0)" stroke-width="2"  />
			<g>
				<title>Inhibitor_I10 (PF12559)
"Serine endopeptidase inhibitors"</title>
				<polygon class="PF12559" points="89,28 89,28 92,40 89,52 89,52" stroke-linejoin="round" width="5" height="24" fill="rgb(179,147,51)" stroke="rgb(143,117,40)" stroke-width="1" opacity="0.75" />
			</g>
		</g>
		<g>
			<title></title>
			<polygon class="" points="107,10 131,40 107,70" fill="rgb(255,255,255)" fill-opacity="1.0" stroke="rgb(0,0,0)" stroke-width="2"  />
			<g>
				<title>RimK (PF08443)
"RimK-like ATP-grasp domain"</title>
				<polygon class="PF08443" points="110,28 117,28 127,40 117,52 110,52" stroke-linejoin="round" width="19" height="24" fill="rgb(192,59,192)" stroke="rgb(153,47,153)" stroke-width="1" opacity="0.75" />
			</g>
		</g>
		<g>
			<title></title>
			<polygon class="" points="134,40 147,10 147,70" fill="rgb(255,255,255)" fill-opacity="1.0" stroke="rgb(0,0,0)" stroke-width="2"  />
		</g>
		<g>
			<title></title>
			<polygon class="" points="154,40 178,10 178,70" fill="rgb(255,255,255)" fill-opacity="1.0" stroke="rgb(0,0,0)" stroke-width="2"  />
		</g>
	</g>
</svg>
