<svg version="1.1" baseProfile="full" xmlns="http://www.w3.org/2000/svg" width="162.03333333333333" height="80">
	<g>
		<line x1="10" y1="40.0" x2="152.03333333333333" y2="40.0" style="stroke:rgb(70,70,70); stroke-width:3 "/>
		<g>
			<title> (SMU_1505c)
hypothetical protein</title>
			<polygon class=" (SMU_1505c)
hypothetical protein" points="10,40 14,10 14,70" fill="rgb(255,255,255)" fill-opacity="1.0" stroke="rgb(0,0,0)" stroke-width="2"  />
			<g>
				<title>FDX-ACB (PF03147)
"Ferredoxin-fold anticodon binding domain"</title>
				<polygon class="PF03147" points="13,40 13,40 13,40" stroke-linejoin="round" width="3" height="24" fill="rgb(152,84,215)" stroke="rgb(121,67,172)" stroke-width="1" opacity="0.75" />
			</g>
		</g>
		<g>
			<title> (SMU_1506c)
conserved hypothetical protein</title>
			<polygon class=" (SMU_1506c)
conserved hypothetical protein" points="68,25 56,25 56,10 26,40 56,70 56,55 68,55" fill="rgb(255,255,255)" fill-opacity="1.0" stroke="rgb(0,0,0)" stroke-width="2"  />
			<g>
				<title>MatE (PF01554)
"MatE"</title>
				<rect class="PF01554" x="51" y="28" stroke-linejoin="round" width="16" height="24" fill="rgb(187,69,173)" stroke="rgb(149,55,138)" stroke-width="1" opacity="0.75" />
			</g>
		</g>
		<g>
			<title> (SMU_1507c)
hypothetical protein</title>
			<polygon class=" (SMU_1507c)
hypothetical protein" points="68,40 78,10 78,70" fill="rgb(255,255,255)" fill-opacity="1.0" stroke="rgb(0,0,0)" stroke-width="2"  />
			<g>
				<title>PqqD (PF05402)
"Coenzyme PQQ synthesis protein D (PqqD)"</title>
				<polygon class="PF05402" points="71,40 75,28 76,28 76,52 75,52" stroke-linejoin="round" width="6" height="24" fill="rgb(124,62,188)" stroke="rgb(99,49,150)" stroke-width="1" opacity="0.75" />
			</g>
		</g>
		<g>
			<title> (SMU_1508c)
putative coenzyme PQQ synthesis protein</title>
			<polygon class=" (SMU_1508c)
putative coenzyme PQQ synthesis protein" points="116,25 109,25 109,10 79,40 109,70 109,55 116,55" fill="rgb(255,255,255)" fill-opacity="1.0" stroke="rgb(0,0,0)" stroke-width="2"  />
			<g>
				<title>SPASM (PF13186)
"Iron-sulfur cluster-binding domain"</title>
				<polygon class="PF13186" points="83,40 88,35 88,45" stroke-linejoin="round" width="6" height="24" fill="rgb(183,66,65)" stroke="rgb(146,52,51)" stroke-width="1" opacity="0.75" />
			</g>
			<g>
				<title>Radical_SAM (PF04055)
"Radical SAM superfamily"</title>
				<rect class="PF04055" x="99" y="28" stroke-linejoin="round" width="15" height="24" fill="rgb(149,56,222)" stroke="rgb(119,44,177)" stroke-width="1" opacity="0.75" />
			</g>
		</g>
		<g>
			<title>rgg (SMU_1509)
putative transcriptional regulator</title>
			<polygon class="rgg (SMU_1509)
putative transcriptional regulator" points="123,40 151,10 151,70" fill="rgb(255,255,255)" fill-opacity="1.0" stroke="rgb(0,0,0)" stroke-width="2"  />
			<g>
				<title>HTH_3 (PF01381)
"Helix-turn-helix"</title>
				<rect class="PF01381" x="145" y="28" stroke-linejoin="round" width="5" height="24" fill="rgb(105,79,202)" stroke="rgb(83,63,161)" stroke-width="1" opacity="0.75" />
			</g>
		</g>
	</g>
</svg>
