<svg version="1.1" baseProfile="full" xmlns="http://www.w3.org/2000/svg" width="965.2" height="80">
	<g>
		<line x1="10" y1="40.0" x2="955.2" y2="40.0" style="stroke:rgb(70,70,70); stroke-width:3 "/>
		<g>
			<title>gdmPKS
GdmPKS</title>
			<polygon class="gdmPKS
GdmPKS" points="10,25 285,25 285,10 315,40 285,70 285,55 10,55" fill="rgb(255,255,255)" fill-opacity="1.0" stroke="rgb(0,0,0)" stroke-width="2"  />
			<g>
				<title>PS-DH (PF14765)
"Polyketide synthase dehydratase"</title>
				<rect class="PF14765" x="24" y="28" stroke-linejoin="round" width="27" height="24" fill="rgb(173,56,182)" stroke="rgb(138,44,145)" stroke-width="1" opacity="0.75" />
			</g>
			<g>
				<title>ADH_zinc_N_2 (PF13602)
"Zinc-binding dehydrogenase"</title>
				<rect class="PF13602" x="88" y="28" stroke-linejoin="round" width="12" height="24" fill="rgb(101,131,226)" stroke="rgb(80,104,180)" stroke-width="1" opacity="0.75" />
			</g>
			<g>
				<title>KR (PF08659)
"KR domain"</title>
				<rect class="PF08659" x="101" y="28" stroke-linejoin="round" width="17" height="24" fill="rgb(66,209,188)" stroke="rgb(52,167,150)" stroke-width="1" opacity="0.75" />
			</g>
			<g>
				<title>PP-binding (PF00550)
"Phosphopantetheine attachment site"</title>
				<rect class="PF00550" x="130" y="28" stroke-linejoin="round" width="6" height="24" fill="rgb(103,191,88)" stroke="rgb(82,152,70)" stroke-width="1" opacity="0.75" />
			</g>
			<g>
				<title>ketoacyl-synt (PF00109)
"Beta-ketoacyl synthase, N-terminal domain"</title>
				<rect class="PF00109" x="139" y="28" stroke-linejoin="round" width="25" height="24" fill="rgb(112,116,228)" stroke="rgb(89,92,182)" stroke-width="1" opacity="0.75" />
			</g>
			<g>
				<title>Ketoacyl-synt_C (PF02801)
"Beta-ketoacyl synthase, C-terminal domain"</title>
				<rect class="PF02801" x="165" y="28" stroke-linejoin="round" width="11" height="24" fill="rgb(215,78,102)" stroke="rgb(172,62,81)" stroke-width="1" opacity="0.75" />
			</g>
			<g>
				<title>KAsynt_C_assoc (PF16197)
"Ketoacyl-synthetase C-terminal extension"</title>
				<rect class="PF16197" x="177" y="28" stroke-linejoin="round" width="12" height="24" fill="rgb(240,150,172)" stroke="rgb(192,120,137)" stroke-width="1" opacity="0.75" />
			</g>
			<g>
				<title>Acyl_transf_1 (PF00698)
"Acyl transferase domain"</title>
				<rect class="PF00698" x="193" y="28" stroke-linejoin="round" width="31" height="24" fill="rgb(59,176,209)" stroke="rgb(47,140,167)" stroke-width="1" opacity="0.75" />
			</g>
			<g>
				<title>PS-DH (PF14765)
"Polyketide synthase dehydratase"</title>
				<rect class="PF14765" x="230" y="28" stroke-linejoin="round" width="27" height="24" fill="rgb(173,56,182)" stroke="rgb(138,44,145)" stroke-width="1" opacity="0.75" />
			</g>
			<g>
				<title>KR (PF08659)
"KR domain"</title>
				<rect class="PF08659" x="277" y="28" stroke-linejoin="round" width="17" height="24" fill="rgb(66,209,188)" stroke="rgb(52,167,150)" stroke-width="1" opacity="0.75" />
			</g>
			<g>
				<title>PP-binding (PF00550)
"Phosphopantetheine attachment site"</title>
				<polygon class="PF00550" points="305,34 311,40 311,40 305,46" stroke-linejoin="round" width="6" height="24" fill="rgb(103,191,88)" stroke="rgb(82,152,70)" stroke-width="1" opacity="0.75" />
			</g>
		</g>
		<g>
			<title>gdmF
GdmF</title>
			<polygon class="gdmF
GdmF" points="315,10 340,40 315,70" fill="rgb(255,255,255)" fill-opacity="1.0" stroke="rgb(0,0,0)" stroke-width="2"  />
			<g>
				<title>Acetyltransf_2 (PF00797)
"N-acetyltransferase"</title>
				<polygon class="PF00797" points="317,28 326,28 336,40 326,52 317,52" stroke-linejoin="round" width="23" height="24" fill="rgb(68,124,226)" stroke="rgb(54,99,180)" stroke-width="1" opacity="0.75" />
			</g>
		</g>
		<g>
			<title>gdmM
GdmM</title>
			<polygon class="gdmM
GdmM" points="341,25 365,25 365,10 395,40 365,70 365,55 341,55" fill="rgb(255,255,255)" fill-opacity="1.0" stroke="rgb(0,0,0)" stroke-width="2"  />
			<g>
				<title>FAD_binding_3 (PF01494)
"FAD binding domain"</title>
				<rect class="PF01494" x="343" y="28" stroke-linejoin="round" width="34" height="24" fill="rgb(182,175,59)" stroke="rgb(145,140,47)" stroke-width="1" opacity="0.75" />
			</g>
		</g>
		<g>
			<title>gdmN
GdmN</title>
			<polygon class="gdmN
GdmN" points="480,25 442,25 442,10 412,40 442,70 442,55 480,55" fill="rgb(255,255,255)" fill-opacity="1.0" stroke="rgb(0,0,0)" stroke-width="2"  />
			<g>
				<title>Carbam_trans_C (PF16861)
"Carbamoyltransferase C-terminus"</title>
				<polygon class="PF16861" points="423,33 428,28 440,28 440,52 428,52 423,47" stroke-linejoin="round" width="17" height="24" fill="rgb(183,87,154)" stroke="rgb(146,69,123)" stroke-width="1" opacity="0.75" />
			</g>
			<g>
				<title>Carbam_trans_N (PF02543)
"Carbamoyltransferase N-terminus"</title>
				<rect class="PF02543" x="446" y="28" stroke-linejoin="round" width="32" height="24" fill="rgb(146,218,61)" stroke="rgb(116,174,48)" stroke-width="1" opacity="0.75" />
			</g>
		</g>
		<g>
			<title>gdmH
GdmH</title>
			<polygon class="gdmH
GdmH" points="520,25 513,25 513,10 483,40 513,70 513,55 520,55" fill="rgb(255,255,255)" fill-opacity="1.0" stroke="rgb(0,0,0)" stroke-width="2"  />
		</g>
		<g>
			<title>gdmI
GdmI</title>
			<polygon class="gdmI
GdmI" points="557,25 550,25 550,10 520,40 550,70 550,55 557,55" fill="rgb(255,255,255)" fill-opacity="1.0" stroke="rgb(0,0,0)" stroke-width="2"  />
			<g>
				<title>Acyl-CoA_dh_1 (PF00441)
"Acyl-CoA dehydrogenase, C-terminal domain"</title>
				<polygon class="PF00441" points="524,40 534,30 534,50" stroke-linejoin="round" width="14" height="24" fill="rgb(85,191,117)" stroke="rgb(68,152,93)" stroke-width="1" opacity="0.75" />
			</g>
			<g>
				<title>Acyl-CoA_dh_M (PF02770)
"Acyl-CoA dehydrogenase, middle domain"</title>
				<polygon class="PF02770" points="536,28 536,28 545,28 545,52 536,52 536,52" stroke-linejoin="round" width="9" height="24" fill="rgb(225,186,97)" stroke="rgb(180,148,77)" stroke-width="1" opacity="0.75" />
			</g>
			<g>
				<title>Acyl-CoA_dh_N (PF02771)
"Acyl-CoA dehydrogenase, N-terminal domain"</title>
				<rect class="PF02771" x="546" y="28" stroke-linejoin="round" width="10" height="24" fill="rgb(105,135,218)" stroke="rgb(84,108,174)" stroke-width="1" opacity="0.75" />
			</g>
		</g>
		<g>
			<title>gdmJ
GdmJ</title>
			<polygon class="gdmJ
GdmJ" points="557,40 566,10 566,70" fill="rgb(255,255,255)" fill-opacity="1.0" stroke="rgb(0,0,0)" stroke-width="2"  />
			<g>
				<title>PP-binding (PF00550)
"Phosphopantetheine attachment site"</title>
				<polygon class="PF00550" points="560,40 564,28 564,28 564,52 564,52" stroke-linejoin="round" width="7" height="24" fill="rgb(103,191,88)" stroke="rgb(82,152,70)" stroke-width="1" opacity="0.75" />
			</g>
		</g>
		<g>
			<title>gdmK
GdmK</title>
			<polygon class="gdmK
GdmK" points="566,40 594,10 594,70" fill="rgb(255,255,255)" fill-opacity="1.0" stroke="rgb(0,0,0)" stroke-width="2"  />
			<g>
				<title>3HCDH (PF00725)
"3-hydroxyacyl-CoA dehydrogenase, C-terminal domain"</title>
				<polygon class="PF00725" points="570,40 575,35 575,45" stroke-linejoin="round" width="9" height="24" fill="rgb(180,78,60)" stroke="rgb(144,62,48)" stroke-width="1" opacity="0.75" />
			</g>
			<g>
				<title>3HCDH_N (PF02737)
"3-hydroxyacyl-CoA dehydrogenase, NAD binding domain"</title>
				<polygon class="PF02737" points="576,34 582,28 593,28 593,52 582,52 576,46" stroke-linejoin="round" width="17" height="24" fill="rgb(212,65,199)" stroke="rgb(169,52,159)" stroke-width="1" opacity="0.75" />
			</g>
		</g>
		<g>
			<title>gdmG
gdmG</title>
			<polygon class="gdmG
gdmG" points="603,10 624,40 603,70" fill="rgb(255,255,255)" fill-opacity="1.0" stroke="rgb(0,0,0)" stroke-width="2"  />
			<g>
				<title>Methyltransf_3 (PF01596)
"O-methyltransferase"</title>
				<polygon class="PF01596" points="604,28 612,28 621,40 612,52 604,52" stroke-linejoin="round" width="20" height="24" fill="rgb(168,187,48)" stroke="rgb(134,149,38)" stroke-width="1" opacity="0.75" />
			</g>
		</g>
		<g>
			<title>gdmRII
GdmRII</title>
			<polygon class="gdmRII
GdmRII" points="720,25 658,25 658,10 628,40 658,70 658,55 720,55" fill="rgb(255,255,255)" fill-opacity="1.0" stroke="rgb(0,0,0)" stroke-width="2"  />
			<g>
				<title>GerE (PF00196)
"Bacterial regulatory proteins, luxR family"</title>
				<polygon class="PF00196" points="632,40 634,38 634,42" stroke-linejoin="round" width="5" height="24" fill="rgb(219,94,82)" stroke="rgb(175,75,65)" stroke-width="1" opacity="0.75" />
			</g>
			<g>
				<title>AAA_16 (PF13191)
"AAA ATPase domain"</title>
				<rect class="PF13191" x="703" y="28" stroke-linejoin="round" width="15" height="24" fill="rgb(186,102,77)" stroke="rgb(148,81,61)" stroke-width="1" opacity="0.75" />
			</g>
		</g>
		<g>
			<title>gdmO
GdmO</title>
			<polygon class="gdmO
GdmO" points="766,25 761,25 761,10 731,40 761,70 761,55 766,55" fill="rgb(255,255,255)" fill-opacity="1.0" stroke="rgb(0,0,0)" stroke-width="2"  />
			<g>
				<title>DHQ_synthase (PF01761)
"3-dehydroquinate synthase"</title>
				<polygon class="PF01761" points="735,40 747,28 758,28 758,52 747,52" stroke-linejoin="round" width="24" height="24" fill="rgb(150,62,180)" stroke="rgb(120,49,144)" stroke-width="1" opacity="0.75" />
			</g>
		</g>
		<g>
			<title>gdmP
GdmP</title>
			<polygon class="gdmP
GdmP" points="818,25 808,25 808,10 778,40 808,70 808,55 818,55" fill="rgb(255,255,255)" fill-opacity="1.0" stroke="rgb(0,0,0)" stroke-width="2"  />
			<g>
				<title>p450 (PF00067)
"Cytochrome P450"</title>
				<polygon class="PF00067" points="782,40 790,32 790,48" stroke-linejoin="round" width="12" height="24" fill="rgb(85,216,107)" stroke="rgb(68,172,85)" stroke-width="1" opacity="0.75" />
			</g>
			<g>
				<title>p450 (PF00067)
"Cytochrome P450"</title>
				<polygon class="PF00067" points="791,31 794,28 799,28 799,52 794,52 791,49" stroke-linejoin="round" width="8" height="24" fill="rgb(85,216,107)" stroke="rgb(68,172,85)" stroke-width="1" opacity="0.75" />
			</g>
		</g>
		<g>
			<title>gdmRI
GdmRI</title>
			<polygon class="gdmRI
GdmRI" points="918,25 852,25 852,10 822,40 852,70 852,55 918,55" fill="rgb(255,255,255)" fill-opacity="1.0" stroke="rgb(0,0,0)" stroke-width="2"  />
			<g>
				<title>GerE (PF00196)
"Bacterial regulatory proteins, luxR family"</title>
				<polygon class="PF00196" points="826,40 828,38 828,42" stroke-linejoin="round" width="5" height="24" fill="rgb(219,94,82)" stroke="rgb(175,75,65)" stroke-width="1" opacity="0.75" />
			</g>
			<g>
				<title>AAA_16 (PF13191)
"AAA ATPase domain"</title>
				<rect class="PF13191" x="901" y="28" stroke-linejoin="round" width="15" height="24" fill="rgb(186,102,77)" stroke="rgb(148,81,61)" stroke-width="1" opacity="0.75" />
			</g>
		</g>
	</g>
</svg>
