<svg version="1.1" baseProfile="full" xmlns="http://www.w3.org/2000/svg" width="280.03333333333336" height="80">
	<g>
		<line x1="10" y1="40.0" x2="270.03333333333336" y2="40.0" style="stroke:rgb(70,70,70); stroke-width:3 "/>
		<g>
			<title> (Ccel_2122)
Resolvase domain protein</title>
			<polygon class=" (Ccel_2122)
Resolvase domain protein" points="75,25 51,25 51,10 21,40 51,70 51,55 75,55" fill="rgb(255,255,255)" fill-opacity="1.0" stroke="rgb(0,0,0)" stroke-width="2"  />
			<g>
				<title>Zn_ribbon_recom (PF13408)
"Recombinase zinc beta ribbon domain"</title>
				<polygon class="PF13408" points="37,28 37,28 43,28 43,52 37,52 37,52" stroke-linejoin="round" width="6" height="24" fill="rgb(91,199,80)" stroke="rgb(72,159,64)" stroke-width="1" opacity="0.75" />
			</g>
			<g>
				<title>Recombinase (PF07508)
"Recombinase"</title>
				<rect class="PF07508" x="45" y="28" stroke-linejoin="round" width="10" height="24" fill="rgb(92,198,102)" stroke="rgb(73,158,81)" stroke-width="1" opacity="0.75" />
			</g>
			<g>
				<title>Resolvase (PF00239)
"Resolvase, N terminal domain"</title>
				<rect class="PF00239" x="58" y="28" stroke-linejoin="round" width="14" height="24" fill="rgb(99,177,201)" stroke="rgb(79,141,160)" stroke-width="1" opacity="0.75" />
			</g>
		</g>
		<g>
			<title> (Ccel_2123)
glycosyl hydrolase 53 domain protein</title>
			<polygon class=" (Ccel_2123)
glycosyl hydrolase 53 domain protein" points="119,25 107,25 107,10 77,40 107,70 107,55 119,55" fill="rgb(255,255,255)" fill-opacity="1.0" stroke="rgb(0,0,0)" stroke-width="2"  />
			<g>
				<title>Glyco_hydro_53 (PF07745)
"Glycosyl hydrolase family 53"</title>
				<polygon class="PF07745" points="81,40 93,28 108,28 108,52 93,52" stroke-linejoin="round" width="30" height="24" fill="rgb(181,53,165)" stroke="rgb(144,42,132)" stroke-width="1" opacity="0.75" />
			</g>
			<g>
				<title>Dockerin_1 (PF00404)
"Dockerin type I domain"</title>
				<rect class="PF00404" x="109" y="28" stroke-linejoin="round" width="5" height="24" fill="rgb(66,94,185)" stroke="rgb(52,75,148)" stroke-width="1" opacity="0.75" />
			</g>
		</g>
		<g>
			<title> (Ccel_2124)
hypothetical protein</title>
			<polygon class=" (Ccel_2124)
hypothetical protein" points="124,40 128,10 128,70" fill="rgb(255,255,255)" fill-opacity="1.0" stroke="rgb(0,0,0)" stroke-width="2"  />
		</g>
		<g>
			<title> (Ccel_2125)
signal transduction histidine kinase regulating citrate/malate metabolism</title>
			<polygon class=" (Ccel_2125)
signal transduction histidine kinase regulating citrate/malate metabolism" points="138,25 151,25 151,10 181,40 151,70 151,55 138,55" fill="rgb(255,255,255)" fill-opacity="1.0" stroke="rgb(0,0,0)" stroke-width="2"  />
			<g>
				<title>SPOB_a (PF14689)
"Sensor_kinase_SpoOB-type, alpha-helical domain"</title>
				<polygon class="PF14689" points="160,28 164,28 166,30 166,50 164,52 160,52" stroke-linejoin="round" width="6" height="24" fill="rgb(215,217,87)" stroke="rgb(172,173,69)" stroke-width="1" opacity="0.75" />
			</g>
			<g>
				<title>HATPase_c_5 (PF14501)
"GHKL domain"</title>
				<polygon class="PF14501" points="170,34 176,40 170,46" stroke-linejoin="round" width="9" height="24" fill="rgb(137,71,210)" stroke="rgb(109,56,168)" stroke-width="1" opacity="0.75" />
			</g>
		</g>
		<g>
			<title> (Ccel_2126)
hypothetical protein</title>
			<polygon class=" (Ccel_2126)
hypothetical protein" points="182,40 186,10 186,70" fill="rgb(255,255,255)" fill-opacity="1.0" stroke="rgb(0,0,0)" stroke-width="2"  />
		</g>
		<g>
			<title> (Ccel_2127)
Accessory gene regulator B</title>
			<polygon class=" (Ccel_2127)
Accessory gene regulator B" points="187,40 206,10 206,70" fill="rgb(255,255,255)" fill-opacity="1.0" stroke="rgb(0,0,0)" stroke-width="2"  />
			<g>
				<title>AgrB (PF04647)
"Accessory gene regulator B"</title>
				<polygon class="PF04647" points="191,40 199,28 205,28 205,52 199,52" stroke-linejoin="round" width="17" height="24" fill="rgb(181,182,61)" stroke="rgb(144,145,48)" stroke-width="1" opacity="0.75" />
			</g>
		</g>
	</g>
</svg>
