<svg version="1.1" baseProfile="full" xmlns="http://www.w3.org/2000/svg" width="1613.7333333333333" height="80">
	<g>
		<line x1="10" y1="40.0" x2="1603.7333333333333" y2="40.0" style="stroke:rgb(70,70,70); stroke-width:3 "/>
		<g>
			<title> (P615_14805)
hypothetical protein</title>
			<polygon class=" (P615_14805)
hypothetical protein" points="54,25 40,25 40,10 10,40 40,70 40,55 54,55" fill="rgb(255,255,255)" fill-opacity="1.0" stroke="rgb(0,0,0)" stroke-width="2"  />
			<g>
				<title>Aminotran_1_2 (PF00155)
"Aminotransferase class I and II"</title>
				<polygon class="PF00155" points="14,40 26,28 44,28 44,52 26,52" stroke-linejoin="round" width="34" height="24" fill="rgb(89,113,198)" stroke="rgb(71,90,158)" stroke-width="1" opacity="0.75" />
			</g>
			<g>
				<title>GntR (PF00392)
"Bacterial regulatory proteins, gntR family"</title>
				<rect class="PF00392" x="47" y="28" stroke-linejoin="round" width="6" height="24" fill="rgb(160,85,194)" stroke="rgb(127,68,155)" stroke-width="1" opacity="0.75" />
			</g>
		</g>
		<g>
			<title> (P615_14810)
hypothetical protein</title>
			<polygon class=" (P615_14810)
hypothetical protein" points="58,25 59,25 59,10 89,40 59,70 59,55 58,55" fill="rgb(255,255,255)" fill-opacity="1.0" stroke="rgb(0,0,0)" stroke-width="2"  />
			<g>
				<title>EamA (PF00892)
"EamA-like transporter family"</title>
				<rect class="PF00892" x="58" y="28" stroke-linejoin="round" width="13" height="24" fill="rgb(105,217,77)" stroke="rgb(84,173,61)" stroke-width="1" opacity="0.75" />
			</g>
			<g>
				<title>EamA (PF00892)
"EamA-like transporter family"</title>
				<polygon class="PF00892" points="73,29 84,40 73,51" stroke-linejoin="round" width="14" height="24" fill="rgb(105,217,77)" stroke="rgb(84,173,61)" stroke-width="1" opacity="0.75" />
			</g>
		</g>
		<g>
			<title> (P615_14815)
hypothetical protein</title>
			<polygon class=" (P615_14815)
hypothetical protein" points="91,40 95,10 95,70" fill="rgb(255,255,255)" fill-opacity="1.0" stroke="rgb(0,0,0)" stroke-width="2"  />
		</g>
		<g>
			<title> (P615_14820)
teicoplanin resistance protein VanZ</title>
			<polygon class=" (P615_14820)
teicoplanin resistance protein VanZ" points="97,25 106,25 106,10 136,40 106,70 106,55 97,55" fill="rgb(255,255,255)" fill-opacity="1.0" stroke="rgb(0,0,0)" stroke-width="2"  />
			<g>
				<title>VanZ (PF04892)
"VanZ like family"</title>
				<rect class="PF04892" x="101" y="28" stroke-linejoin="round" width="14" height="24" fill="rgb(81,187,70)" stroke="rgb(64,149,56)" stroke-width="1" opacity="0.75" />
			</g>
			<g>
				<title>RDD (PF06271)
"RDD family"</title>
				<polygon class="PF06271" points="118,28 119,28 131,40 119,52 118,52" stroke-linejoin="round" width="16" height="24" fill="rgb(75,173,207)" stroke="rgb(60,138,165)" stroke-width="1" opacity="0.75" />
			</g>
		</g>
		<g>
			<title> (P615_14825)
hypothetical protein</title>
			<polygon class=" (P615_14825)
hypothetical protein" points="144,10 170,40 144,70" fill="rgb(255,255,255)" fill-opacity="1.0" stroke="rgb(0,0,0)" stroke-width="2"  />
		</g>
		<g>
			<title> (P615_14830)
hypothetical protein</title>
			<polygon class=" (P615_14830)
hypothetical protein" points="172,25 174,25 174,10 204,40 174,70 174,55 172,55" fill="rgb(255,255,255)" fill-opacity="1.0" stroke="rgb(0,0,0)" stroke-width="2"  />
		</g>
		<g>
			<title> (P615_14835)
NAD(P)-binding protein</title>
			<polygon class=" (P615_14835)
NAD(P)-binding protein" points="253,25 240,25 240,10 210,40 240,70 240,55 253,55" fill="rgb(255,255,255)" fill-opacity="1.0" stroke="rgb(0,0,0)" stroke-width="2"  />
		</g>
		<g>
			<title> (P615_14840)
PTS glucose transporter subunit IIABC</title>
			<polygon class=" (P615_14840)
PTS glucose transporter subunit IIABC" points="254,40 266,10 266,70" fill="rgb(255,255,255)" fill-opacity="1.0" stroke="rgb(0,0,0)" stroke-width="2"  />
			<g>
				<title>PTSIIA_gutA (PF03829)
"PTS system glucitol/sorbitol-specific IIA component"</title>
				<polygon class="PF03829" points="257,40 262,28 265,28 265,52 262,52" stroke-linejoin="round" width="11" height="24" fill="rgb(155,199,68)" stroke="rgb(124,159,54)" stroke-width="1" opacity="0.75" />
			</g>
		</g>
		<g>
			<title>srlE (P615_14845)
PTS sorbitol transporter subunit IIB</title>
			<polygon class="srlE (P615_14845)
PTS sorbitol transporter subunit IIB" points="303,25 298,25 298,10 268,40 298,70 298,55 303,55" fill="rgb(255,255,255)" fill-opacity="1.0" stroke="rgb(0,0,0)" stroke-width="2"  />
			<g>
				<title>EIIBC-GUT_C (PF07663)
"Sorbitol phosphotransferase enzyme II C-terminus"</title>
				<polygon class="PF07663" points="272,40 277,35 277,45" stroke-linejoin="round" width="9" height="24" fill="rgb(229,67,175)" stroke="rgb(183,53,140)" stroke-width="1" opacity="0.75" />
			</g>
			<g>
				<title>EIIBC-GUT_N (PF03612)
"Sorbitol phosphotransferase enzyme II N-terminus"</title>
				<polygon class="PF03612" points="283,29 284,28 302,28 302,52 284,52 283,51" stroke-linejoin="round" width="19" height="24" fill="rgb(91,191,156)" stroke="rgb(72,152,124)" stroke-width="1" opacity="0.75" />
			</g>
		</g>
		<g>
			<title>srlA (P615_14850)
PTS sorbitol transporter subunit IIC</title>
			<polygon class="srlA (P615_14850)
PTS sorbitol transporter subunit IIC" points="304,40 321,10 321,70" fill="rgb(255,255,255)" fill-opacity="1.0" stroke="rgb(0,0,0)" stroke-width="2"  />
			<g>
				<title>EII-GUT (PF03608)
"PTS system enzyme II sorbitol-specific factor"</title>
				<polygon class="PF03608" points="307,40 314,28 320,28 320,52 314,52" stroke-linejoin="round" width="16" height="24" fill="rgb(80,156,203)" stroke="rgb(64,124,162)" stroke-width="1" opacity="0.75" />
			</g>
		</g>
		<g>
			<title> (P615_14855)
glucitol operon activator family protein</title>
			<polygon class=" (P615_14855)
glucitol operon activator family protein" points="327,40 342,10 342,70" fill="rgb(255,255,255)" fill-opacity="1.0" stroke="rgb(0,0,0)" stroke-width="2"  />
			<g>
				<title>GutM (PF06923)
"Glucitol operon activator protein (GutM)"</title>
				<polygon class="PF06923" points="331,38 336,28 341,28 341,52 336,52 331,42" stroke-linejoin="round" width="10" height="24" fill="rgb(65,206,55)" stroke="rgb(51,164,44)" stroke-width="1" opacity="0.75" />
			</g>
		</g>
		<g>
			<title> (P615_14860)
hypothetical protein</title>
			<polygon class=" (P615_14860)
hypothetical protein" points="347,40 359,10 359,70" fill="rgb(255,255,255)" fill-opacity="1.0" stroke="rgb(0,0,0)" stroke-width="2"  />
			<g>
				<title>Glyoxalase (PF00903)
"Glyoxalase/Bleomycin resistance protein/Dioxygenase superfamily"</title>
				<polygon class="PF00903" points="350,40 355,28 358,28 358,52 355,52" stroke-linejoin="round" width="11" height="24" fill="rgb(50,162,189)" stroke="rgb(40,129,151)" stroke-width="1" opacity="0.75" />
			</g>
		</g>
		<g>
			<title> (P615_14865)
histidine ammonia-lyase</title>
			<polygon class=" (P615_14865)
histidine ammonia-lyase" points="420,25 395,25 395,10 365,40 395,70 395,55 420,55" fill="rgb(255,255,255)" fill-opacity="1.0" stroke="rgb(0,0,0)" stroke-width="2"  />
			<g>
				<title>Lyase_aromatic (PF00221)
"Aromatic amino acid lyase"</title>
				<polygon class="PF00221" points="369,40 381,28 416,28 416,52 381,52" stroke-linejoin="round" width="48" height="24" fill="rgb(182,133,62)" stroke="rgb(145,106,49)" stroke-width="1" opacity="0.75" />
			</g>
		</g>
		<g>
			<title> (P615_14870)
surfactin synthase subunit 1</title>
			<polygon class=" (P615_14870)
surfactin synthase subunit 1" points="466,25 451,25 451,10 421,40 451,70 451,55 466,55" fill="rgb(255,255,255)" fill-opacity="1.0" stroke="rgb(0,0,0)" stroke-width="2"  />
			<g>
				<title>Condensation (PF00668)
"Condensation domain"</title>
				<polygon class="PF00668" points="425,40 437,28 466,28 466,52 437,52" stroke-linejoin="round" width="45" height="24" fill="rgb(224,184,98)" stroke="rgb(179,147,78)" stroke-width="1" opacity="0.75" />
			</g>
		</g>
		<g>
			<title> (P615_14875)
polyketide synthase</title>
			<polygon class=" (P615_14875)
polyketide synthase" points="594,25 497,25 497,10 467,40 497,70 497,55 594,55" fill="rgb(255,255,255)" fill-opacity="1.0" stroke="rgb(0,0,0)" stroke-width="2"  />
			<g>
				<title>Abhydrolase_1 (PF00561)
"alpha/beta hydrolase fold"</title>
				<polygon class="PF00561" points="476,35 483,28 488,28 488,52 483,52 476,45" stroke-linejoin="round" width="12" height="24" fill="rgb(86,180,151)" stroke="rgb(68,144,120)" stroke-width="1" opacity="0.75" />
			</g>
			<g>
				<title>KR (PF08659)
"KR domain"</title>
				<rect class="PF08659" x="503" y="28" stroke-linejoin="round" width="18" height="24" fill="rgb(66,209,188)" stroke="rgb(52,167,150)" stroke-width="1" opacity="0.75" />
			</g>
			<g>
				<title>PP-binding (PF00550)
"Phosphopantetheine attachment site"</title>
				<rect class="PF00550" x="544" y="28" stroke-linejoin="round" width="6" height="24" fill="rgb(103,191,88)" stroke="rgb(82,152,70)" stroke-width="1" opacity="0.75" />
			</g>
			<g>
				<title>PP-binding (PF00550)
"Phosphopantetheine attachment site"</title>
				<rect class="PF00550" x="553" y="28" stroke-linejoin="round" width="6" height="24" fill="rgb(103,191,88)" stroke="rgb(82,152,70)" stroke-width="1" opacity="0.75" />
			</g>
			<g>
				<title>PS-DH (PF14765)
"Polyketide synthase dehydratase"</title>
				<rect class="PF14765" x="565" y="28" stroke-linejoin="round" width="28" height="24" fill="rgb(173,56,182)" stroke="rgb(138,44,145)" stroke-width="1" opacity="0.75" />
			</g>
		</g>
		<g>
			<title> (P615_14880)
polyketide synthase</title>
			<polygon class=" (P615_14880)
polyketide synthase" points="938,25 624,25 624,10 594,40 624,70 624,55 938,55" fill="rgb(255,255,255)" fill-opacity="1.0" stroke="rgb(0,0,0)" stroke-width="2"  />
			<g>
				<title>Ketoacyl-synt_C (PF02801)
"Beta-ketoacyl synthase, C-terminal domain"</title>
				<polygon class="PF02801" points="605,33 610,28 616,28 616,52 610,52 605,47" stroke-linejoin="round" width="11" height="24" fill="rgb(215,78,102)" stroke="rgb(172,62,81)" stroke-width="1" opacity="0.75" />
			</g>
			<g>
				<title>ketoacyl-synt (PF00109)
"Beta-ketoacyl synthase, N-terminal domain"</title>
				<rect class="PF00109" x="617" y="28" stroke-linejoin="round" width="24" height="24" fill="rgb(112,116,228)" stroke="rgb(89,92,182)" stroke-width="1" opacity="0.75" />
			</g>
			<g>
				<title>PP-binding (PF00550)
"Phosphopantetheine attachment site"</title>
				<rect class="PF00550" x="647" y="28" stroke-linejoin="round" width="6" height="24" fill="rgb(103,191,88)" stroke="rgb(82,152,70)" stroke-width="1" opacity="0.75" />
			</g>
			<g>
				<title>KR (PF08659)
"KR domain"</title>
				<rect class="PF08659" x="663" y="28" stroke-linejoin="round" width="19" height="24" fill="rgb(66,209,188)" stroke="rgb(52,167,150)" stroke-width="1" opacity="0.75" />
			</g>
			<g>
				<title>KAsynt_C_assoc (PF16197)
"Ketoacyl-synthetase C-terminal extension"</title>
				<rect class="PF16197" x="715" y="28" stroke-linejoin="round" width="12" height="24" fill="rgb(240,150,172)" stroke="rgb(192,120,137)" stroke-width="1" opacity="0.75" />
			</g>
			<g>
				<title>Ketoacyl-synt_C (PF02801)
"Beta-ketoacyl synthase, C-terminal domain"</title>
				<rect class="PF02801" x="728" y="28" stroke-linejoin="round" width="11" height="24" fill="rgb(215,78,102)" stroke="rgb(172,62,81)" stroke-width="1" opacity="0.75" />
			</g>
			<g>
				<title>ketoacyl-synt (PF00109)
"Beta-ketoacyl synthase, N-terminal domain"</title>
				<rect class="PF00109" x="741" y="28" stroke-linejoin="round" width="25" height="24" fill="rgb(112,116,228)" stroke="rgb(89,92,182)" stroke-width="1" opacity="0.75" />
			</g>
			<g>
				<title>PP-binding (PF00550)
"Phosphopantetheine attachment site"</title>
				<rect class="PF00550" x="773" y="28" stroke-linejoin="round" width="6" height="24" fill="rgb(103,191,88)" stroke="rgb(82,152,70)" stroke-width="1" opacity="0.75" />
			</g>
			<g>
				<title>KR (PF08659)
"KR domain"</title>
				<rect class="PF08659" x="788" y="28" stroke-linejoin="round" width="18" height="24" fill="rgb(66,209,188)" stroke="rgb(52,167,150)" stroke-width="1" opacity="0.75" />
			</g>
			<g>
				<title>KAsynt_C_assoc (PF16197)
"Ketoacyl-synthetase C-terminal extension"</title>
				<rect class="PF16197" x="836" y="28" stroke-linejoin="round" width="11" height="24" fill="rgb(240,150,172)" stroke="rgb(192,120,137)" stroke-width="1" opacity="0.75" />
			</g>
			<g>
				<title>Ketoacyl-synt_C (PF02801)
"Beta-ketoacyl synthase, C-terminal domain"</title>
				<rect class="PF02801" x="848" y="28" stroke-linejoin="round" width="11" height="24" fill="rgb(215,78,102)" stroke="rgb(172,62,81)" stroke-width="1" opacity="0.75" />
			</g>
			<g>
				<title>ketoacyl-synt (PF00109)
"Beta-ketoacyl synthase, N-terminal domain"</title>
				<rect class="PF00109" x="860" y="28" stroke-linejoin="round" width="23" height="24" fill="rgb(112,116,228)" stroke="rgb(89,92,182)" stroke-width="1" opacity="0.75" />
			</g>
			<g>
				<title>PP-binding (PF00550)
"Phosphopantetheine attachment site"</title>
				<rect class="PF00550" x="890" y="28" stroke-linejoin="round" width="6" height="24" fill="rgb(103,191,88)" stroke="rgb(82,152,70)" stroke-width="1" opacity="0.75" />
			</g>
			<g>
				<title>Methyltransf_12 (PF08242)
"Methyltransferase domain"</title>
				<rect class="PF08242" x="909" y="28" stroke-linejoin="round" width="10" height="24" fill="rgb(187,59,115)" stroke="rgb(149,47,92)" stroke-width="1" opacity="0.75" />
			</g>
		</g>
		<g>
			<title> (P615_14885)
polyketide synthase</title>
			<polygon class=" (P615_14885)
polyketide synthase" points="1141,25 971,25 971,10 941,40 971,70 971,55 1141,55" fill="rgb(255,255,255)" fill-opacity="1.0" stroke="rgb(0,0,0)" stroke-width="2"  />
			<g>
				<title>KR (PF08659)
"KR domain"</title>
				<polygon class="PF08659" points="947,38 957,28 964,28 964,52 957,52 947,42" stroke-linejoin="round" width="17" height="24" fill="rgb(66,209,188)" stroke="rgb(52,167,150)" stroke-width="1" opacity="0.75" />
			</g>
			<g>
				<title>KAsynt_C_assoc (PF16197)
"Ketoacyl-synthetase C-terminal extension"</title>
				<rect class="PF16197" x="1002" y="28" stroke-linejoin="round" width="11" height="24" fill="rgb(240,150,172)" stroke="rgb(192,120,137)" stroke-width="1" opacity="0.75" />
			</g>
			<g>
				<title>Ketoacyl-synt_C (PF02801)
"Beta-ketoacyl synthase, C-terminal domain"</title>
				<rect class="PF02801" x="1013" y="28" stroke-linejoin="round" width="11" height="24" fill="rgb(215,78,102)" stroke="rgb(172,62,81)" stroke-width="1" opacity="0.75" />
			</g>
			<g>
				<title>ketoacyl-synt (PF00109)
"Beta-ketoacyl synthase, N-terminal domain"</title>
				<rect class="PF00109" x="1026" y="28" stroke-linejoin="round" width="23" height="24" fill="rgb(112,116,228)" stroke="rgb(89,92,182)" stroke-width="1" opacity="0.75" />
			</g>
			<g>
				<title>ADH_zinc_N (PF00107)
"Zinc-binding dehydrogenase"</title>
				<rect class="PF00107" x="1055" y="28" stroke-linejoin="round" width="13" height="24" fill="rgb(81,108,215)" stroke="rgb(64,86,172)" stroke-width="1" opacity="0.75" />
			</g>
			<g>
				<title>ADH_N (PF08240)
"Alcohol dehydrogenase GroES-like domain"</title>
				<rect class="PF08240" x="1073" y="28" stroke-linejoin="round" width="7" height="24" fill="rgb(211,65,138)" stroke="rgb(168,51,110)" stroke-width="1" opacity="0.75" />
			</g>
			<g>
				<title>PP-binding (PF00550)
"Phosphopantetheine attachment site"</title>
				<rect class="PF00550" x="1091" y="28" stroke-linejoin="round" width="6" height="24" fill="rgb(103,191,88)" stroke="rgb(82,152,70)" stroke-width="1" opacity="0.75" />
			</g>
			<g>
				<title>Methyltransf_12 (PF08242)
"Methyltransferase domain"</title>
				<rect class="PF08242" x="1111" y="28" stroke-linejoin="round" width="10" height="24" fill="rgb(187,59,115)" stroke="rgb(149,47,92)" stroke-width="1" opacity="0.75" />
			</g>
		</g>
		<g>
			<title> (P615_14890)
polyketide synthase</title>
			<polygon class=" (P615_14890)
polyketide synthase" points="1367,25 1173,25 1173,10 1143,40 1173,70 1173,55 1367,55" fill="rgb(255,255,255)" fill-opacity="1.0" stroke="rgb(0,0,0)" stroke-width="2"  />
			<g>
				<title>KR (PF08659)
"KR domain"</title>
				<polygon class="PF08659" points="1149,38 1159,28 1166,28 1166,52 1159,52 1149,42" stroke-linejoin="round" width="17" height="24" fill="rgb(66,209,188)" stroke="rgb(52,167,150)" stroke-width="1" opacity="0.75" />
			</g>
			<g>
				<title>PS-DH (PF14765)
"Polyketide synthase dehydratase"</title>
				<rect class="PF14765" x="1190" y="28" stroke-linejoin="round" width="29" height="24" fill="rgb(173,56,182)" stroke="rgb(138,44,145)" stroke-width="1" opacity="0.75" />
			</g>
			<g>
				<title>KAsynt_C_assoc (PF16197)
"Ketoacyl-synthetase C-terminal extension"</title>
				<rect class="PF16197" x="1232" y="28" stroke-linejoin="round" width="12" height="24" fill="rgb(240,150,172)" stroke="rgb(192,120,137)" stroke-width="1" opacity="0.75" />
			</g>
			<g>
				<title>Ketoacyl-synt_C (PF02801)
"Beta-ketoacyl synthase, C-terminal domain"</title>
				<rect class="PF02801" x="1244" y="28" stroke-linejoin="round" width="12" height="24" fill="rgb(215,78,102)" stroke="rgb(172,62,81)" stroke-width="1" opacity="0.75" />
			</g>
			<g>
				<title>ketoacyl-synt (PF00109)
"Beta-ketoacyl synthase, N-terminal domain"</title>
				<rect class="PF00109" x="1257" y="28" stroke-linejoin="round" width="24" height="24" fill="rgb(112,116,228)" stroke="rgb(89,92,182)" stroke-width="1" opacity="0.75" />
			</g>
			<g>
				<title>PP-binding (PF00550)
"Phosphopantetheine attachment site"</title>
				<rect class="PF00550" x="1285" y="28" stroke-linejoin="round" width="6" height="24" fill="rgb(103,191,88)" stroke="rgb(82,152,70)" stroke-width="1" opacity="0.75" />
			</g>
		</g>
		<g>
			<title> (P615_14895)
malonyl CoA-acyl carrier protein transacylase</title>
			<polygon class=" (P615_14895)
malonyl CoA-acyl carrier protein transacylase" points="1477,25 1398,25 1398,10 1368,40 1398,70 1398,55 1477,55" fill="rgb(255,255,255)" fill-opacity="1.0" stroke="rgb(0,0,0)" stroke-width="2"  />
			<g>
				<title>Acyl_transf_1 (PF00698)
"Acyl transferase domain"</title>
				<rect class="PF00698" x="1416" y="28" stroke-linejoin="round" width="28" height="24" fill="rgb(59,176,209)" stroke="rgb(47,140,167)" stroke-width="1" opacity="0.75" />
			</g>
			<g>
				<title>Acyl_transf_1 (PF00698)
"Acyl transferase domain"</title>
				<rect class="PF00698" x="1445" y="28" stroke-linejoin="round" width="32" height="24" fill="rgb(59,176,209)" stroke="rgb(47,140,167)" stroke-width="1" opacity="0.75" />
			</g>
		</g>
		<g>
			<title> (P615_14900)
asparagine synthase</title>
			<polygon class=" (P615_14900)
asparagine synthase" points="1542,25 1510,25 1510,10 1480,40 1510,70 1510,55 1542,55" fill="rgb(255,255,255)" fill-opacity="1.0" stroke="rgb(0,0,0)" stroke-width="2"  />
			<g>
				<title>Asn_synthase (PF00733)
"Asparagine synthase"</title>
				<polygon class="PF00733" points="1484,40 1496,28 1517,28 1517,52 1496,52" stroke-linejoin="round" width="36" height="24" fill="rgb(97,201,176)" stroke="rgb(77,160,140)" stroke-width="1" opacity="0.75" />
			</g>
			<g>
				<title>GATase_7 (PF13537)
"Glutamine amidotransferase domain"</title>
				<rect class="PF13537" x="1525" y="28" stroke-linejoin="round" width="12" height="24" fill="rgb(200,63,57)" stroke="rgb(160,50,45)" stroke-width="1" opacity="0.75" />
			</g>
		</g>
		<g>
			<title> (P615_14905)
hypothetical protein</title>
			<polygon class=" (P615_14905)
hypothetical protein" points="1543,40 1552,10 1552,70" fill="rgb(255,255,255)" fill-opacity="1.0" stroke="rgb(0,0,0)" stroke-width="2"  />
			<g>
				<title>PP-binding (PF00550)
"Phosphopantetheine attachment site"</title>
				<polygon class="PF00550" points="1546,40 1550,28 1550,28 1550,52 1550,52" stroke-linejoin="round" width="7" height="24" fill="rgb(103,191,88)" stroke="rgb(82,152,70)" stroke-width="1" opacity="0.75" />
			</g>
		</g>
		<g>
			<title> (P615_14910)
long-chain fatty acid--CoA ligase</title>
			<polygon class=" (P615_14910)
long-chain fatty acid--CoA ligase" points="1603,25 1583,25 1583,10 1553,40 1583,70 1583,55 1603,55" fill="rgb(255,255,255)" fill-opacity="1.0" stroke="rgb(0,0,0)" stroke-width="2"  />
			<g>
				<title>AMP-binding_C (PF13193)
"AMP-binding enzyme C-terminal domain"</title>
				<polygon class="PF13193" points="1557,40 1560,37 1560,43" stroke-linejoin="round" width="7" height="24" fill="rgb(182,50,118)" stroke="rgb(145,39,94)" stroke-width="1" opacity="0.75" />
			</g>
			<g>
				<title>AMP-binding (PF00501)
"AMP-binding enzyme"</title>
				<polygon class="PF00501" points="1561,36 1569,28 1600,28 1600,52 1569,52 1561,44" stroke-linejoin="round" width="39" height="24" fill="rgb(60,217,223)" stroke="rgb(48,173,178)" stroke-width="1" opacity="0.75" />
			</g>
		</g>
	</g>
</svg>
