<svg version="1.1" baseProfile="full" xmlns="http://www.w3.org/2000/svg" width="601.3666666666667" height="80">
	<g>
		<line x1="10" y1="40.0" x2="591.3666666666667" y2="40.0" style="stroke:rgb(70,70,70); stroke-width:3 "/>
		<g>
			<title>azpA
ATP-grasp enzyme</title>
			<polygon class="azpA
ATP-grasp enzyme" points="10,25 20,25 20,10 50,40 20,70 20,55 10,55" fill="rgb(255,255,255)" fill-opacity="1.0" stroke="rgb(0,0,0)" stroke-width="2"  />
			<g>
				<title>ATP-grasp_4 (PF13535)
"ATP-grasp domain"</title>
				<polygon class="PF13535" points="23,28 34,28 37,31 37,49 34,52 23,52" stroke-linejoin="round" width="14" height="24" fill="rgb(197,156,74)" stroke="rgb(157,124,59)" stroke-width="1" opacity="0.75" />
			</g>
		</g>
		<g>
			<title>azpB
major facilitator superfamily (MFS) transporter</title>
			<polygon class="azpB
major facilitator superfamily (MFS) transporter" points="50,25 61,25 61,10 91,40 61,70 61,55 50,55" fill="rgb(255,255,255)" fill-opacity="1.0" stroke="rgb(0,0,0)" stroke-width="2"  />
			<g>
				<title>MFS_1 (PF07690)
"Major Facilitator Superfamily"</title>
				<polygon class="PF07690" points="53,28 75,28 87,40 87,40 75,52 53,52" stroke-linejoin="round" width="34" height="24" fill="rgb(193,224,74)" stroke="rgb(154,179,59)" stroke-width="1" opacity="0.75" />
			</g>
		</g>
		<g>
			<title>azpC
AMP-dependent ligase</title>
			<polygon class="azpC
AMP-dependent ligase" points="94,25 118,25 118,10 148,40 118,70 118,55 94,55" fill="rgb(255,255,255)" fill-opacity="1.0" stroke="rgb(0,0,0)" stroke-width="2"  />
			<g>
				<title>AMP-binding (PF00501)
"AMP-binding enzyme"</title>
				<polygon class="PF00501" points="96,28 132,28 137,33 137,47 132,52 96,52" stroke-linejoin="round" width="41" height="24" fill="rgb(60,217,223)" stroke="rgb(48,173,178)" stroke-width="1" opacity="0.75" />
			</g>
		</g>
		<g>
			<title>azpF
acyl carrier protein</title>
			<polygon class="azpF
acyl carrier protein" points="149,10 157,40 149,70" fill="rgb(255,255,255)" fill-opacity="1.0" stroke="rgb(0,0,0)" stroke-width="2"  />
			<g>
				<title>PP-binding (PF00550)
"Phosphopantetheine attachment site"</title>
				<polygon class="PF00550" points="150,28 150,28 154,40 150,52 150,52" stroke-linejoin="round" width="6" height="24" fill="rgb(103,191,88)" stroke="rgb(82,152,70)" stroke-width="1" opacity="0.75" />
			</g>
		</g>
		<g>
			<title>azpG
alpha/beta hydrolase</title>
			<polygon class="azpG
alpha/beta hydrolase" points="193,25 190,25 190,10 160,40 190,70 190,55 193,55" fill="rgb(255,255,255)" fill-opacity="1.0" stroke="rgb(0,0,0)" stroke-width="2"  />
			<g>
				<title>Abhydrolase_3 (PF07859)
"alpha/beta hydrolase fold"</title>
				<polygon class="PF07859" points="164,40 176,28 183,28 183,52 176,52" stroke-linejoin="round" width="20" height="24" fill="rgb(183,51,179)" stroke="rgb(146,40,143)" stroke-width="1" opacity="0.75" />
			</g>
		</g>
		<g>
			<title>azpH
carbon-nitrogen family hydrolase</title>
			<polygon class="azpH
carbon-nitrogen family hydrolase" points="194,40 221,10 221,70" fill="rgb(255,255,255)" fill-opacity="1.0" stroke="rgb(0,0,0)" stroke-width="2"  />
			<g>
				<title>CN_hydrolase (PF00795)
"Carbon-nitrogen hydrolase"</title>
				<polygon class="PF00795" points="198,40 209,28 220,28 220,52 209,52" stroke-linejoin="round" width="24" height="24" fill="rgb(213,76,196)" stroke="rgb(170,60,156)" stroke-width="1" opacity="0.75" />
			</g>
		</g>
		<g>
			<title>azpI
GNAT-family N-acetyltransferase</title>
			<polygon class="azpI
GNAT-family N-acetyltransferase" points="222,40 247,10 247,70" fill="rgb(255,255,255)" fill-opacity="1.0" stroke="rgb(0,0,0)" stroke-width="2"  />
		</g>
		<g>
			<title>azpJ
ketoreductase</title>
			<polygon class="azpJ
ketoreductase" points="249,40 274,10 274,70" fill="rgb(255,255,255)" fill-opacity="1.0" stroke="rgb(0,0,0)" stroke-width="2"  />
			<g>
				<title>adh_short_C2 (PF13561)
"Enoyl-(Acyl carrier protein) reductase"</title>
				<polygon class="PF13561" points="253,40 263,28 272,28 272,52 263,52" stroke-linejoin="round" width="22" height="24" fill="rgb(73,205,127)" stroke="rgb(58,164,101)" stroke-width="1" opacity="0.75" />
			</g>
		</g>
		<g>
			<title>azpK
hypothetical protein</title>
			<polygon class="azpK
hypothetical protein" points="320,25 305,25 305,10 275,40 305,70 305,55 320,55" fill="rgb(255,255,255)" fill-opacity="1.0" stroke="rgb(0,0,0)" stroke-width="2"  />
		</g>
		<g>
			<title>azpL
hypothetical protein</title>
			<polygon class="azpL
hypothetical protein" points="358,25 350,25 350,10 320,40 350,70 350,55 358,55" fill="rgb(255,255,255)" fill-opacity="1.0" stroke="rgb(0,0,0)" stroke-width="2"  />
		</g>
		<g>
			<title>azpM
alpha/beta hydrolase AzpM</title>
			<polygon class="azpM
alpha/beta hydrolase AzpM" points="368,25 370,25 370,10 400,40 370,70 370,55 368,55" fill="rgb(255,255,255)" fill-opacity="1.0" stroke="rgb(0,0,0)" stroke-width="2"  />
			<g>
				<title>Abhydrolase_3 (PF07859)
"alpha/beta hydrolase fold"</title>
				<polygon class="PF07859" points="377,28 384,28 396,40 384,52 377,52" stroke-linejoin="round" width="20" height="24" fill="rgb(183,51,179)" stroke="rgb(146,40,143)" stroke-width="1" opacity="0.75" />
			</g>
		</g>
		<g>
			<title>azpN
glucose 1-dehydrogenase</title>
			<polygon class="azpN
glucose 1-dehydrogenase" points="403,40 428,10 428,70" fill="rgb(255,255,255)" fill-opacity="1.0" stroke="rgb(0,0,0)" stroke-width="2"  />
			<g>
				<title>adh_short_C2 (PF13561)
"Enoyl-(Acyl carrier protein) reductase"</title>
				<polygon class="PF13561" points="407,40 417,28 426,28 426,52 417,52" stroke-linejoin="round" width="23" height="24" fill="rgb(73,205,127)" stroke="rgb(58,164,101)" stroke-width="1" opacity="0.75" />
			</g>
		</g>
		<g>
			<title>azpO
alpha-ketoacid dehydrogenase subunit beta</title>
			<polygon class="azpO
alpha-ketoacid dehydrogenase subunit beta" points="461,25 459,25 459,10 429,40 459,70 459,55 461,55" fill="rgb(255,255,255)" fill-opacity="1.0" stroke="rgb(0,0,0)" stroke-width="2"  />
			<g>
				<title>Transketolase_C (PF02780)
"Transketolase, C-terminal domain"</title>
				<polygon class="PF02780" points="433,40 442,31 442,49" stroke-linejoin="round" width="12" height="24" fill="rgb(76,206,101)" stroke="rgb(60,164,80)" stroke-width="1" opacity="0.75" />
			</g>
			<g>
				<title>Transket_pyr (PF02779)
"Transketolase, pyrimidine binding domain"</title>
				<polygon class="PF02779" points="443,30 445,28 460,28 460,52 445,52 443,50" stroke-linejoin="round" width="17" height="24" fill="rgb(189,186,84)" stroke="rgb(151,148,67)" stroke-width="1" opacity="0.75" />
			</g>
		</g>
		<g>
			<title>azpP
alpha-ketoacid dehydrogenase subunit alpha</title>
			<polygon class="azpP
alpha-ketoacid dehydrogenase subunit alpha" points="495,25 492,25 492,10 462,40 492,70 492,55 495,55" fill="rgb(255,255,255)" fill-opacity="1.0" stroke="rgb(0,0,0)" stroke-width="2"  />
			<g>
				<title>E1_dh (PF00676)
"Dehydrogenase E1 component"</title>
				<polygon class="PF00676" points="466,40 478,28 492,28 492,52 478,52" stroke-linejoin="round" width="29" height="24" fill="rgb(180,115,48)" stroke="rgb(144,92,38)" stroke-width="1" opacity="0.75" />
			</g>
		</g>
		<g>
			<title>azpQ
major facilitator superfamily (MFS) transporter</title>
			<polygon class="azpQ
major facilitator superfamily (MFS) transporter" points="536,25 525,25 525,10 495,40 525,70 525,55 536,55" fill="rgb(255,255,255)" fill-opacity="1.0" stroke="rgb(0,0,0)" stroke-width="2"  />
			<g>
				<title>MFS_1 (PF07690)
"Major Facilitator Superfamily"</title>
				<polygon class="PF07690" points="499,40 511,28 512,28 512,52 511,52" stroke-linejoin="round" width="17" height="24" fill="rgb(193,224,74)" stroke="rgb(154,179,59)" stroke-width="1" opacity="0.75" />
			</g>
			<g>
				<title>MFS_1 (PF07690)
"Major Facilitator Superfamily"</title>
				<polygon class="PF07690" points="511,28 511,28 533,28 533,52 511,52 511,52" stroke-linejoin="round" width="22" height="24" fill="rgb(193,224,74)" stroke="rgb(154,179,59)" stroke-width="1" opacity="0.75" />
			</g>
		</g>
		<g>
			<title>azpS
ATP-grasp enzyme</title>
			<polygon class="azpS
ATP-grasp enzyme" points="548,25 560,25 560,10 590,40 560,70 560,55 548,55" fill="rgb(255,255,255)" fill-opacity="1.0" stroke="rgb(0,0,0)" stroke-width="2"  />
			<g>
				<title>ATP-grasp_4 (PF13535)
"ATP-grasp domain"</title>
				<polygon class="PF13535" points="562,28 574,28 576,30 576,50 574,52 562,52" stroke-linejoin="round" width="14" height="24" fill="rgb(197,156,74)" stroke="rgb(157,124,59)" stroke-width="1" opacity="0.75" />
			</g>
		</g>
	</g>
</svg>
