<svg version="1.1" baseProfile="full" xmlns="http://www.w3.org/2000/svg" width="1293.9" height="80">
	<g>
		<line x1="10" y1="40.0" x2="1283.9" y2="40.0" style="stroke:rgb(70,70,70); stroke-width:3 "/>
		<g>
			<title>
Sli1</title>
			<polygon class="
Sli1" points="10,10 25,40 10,70" fill="rgb(255,255,255)" fill-opacity="1.0" stroke="rgb(0,0,0)" stroke-width="2"  />
		</g>
		<g>
			<title>
LmrA</title>
			<polygon class="
LmrA" points="93,25 111,25 111,10 141,40 111,70 111,55 93,55" fill="rgb(255,255,255)" fill-opacity="1.0" stroke="rgb(0,0,0)" stroke-width="2"  />
			<g>
				<title>MFS_1 (PF07690)
"Major Facilitator Superfamily"</title>
				<polygon class="PF07690" points="96,28 125,28 135,38 135,42 125,52 96,52" stroke-linejoin="round" width="39" height="24" fill="rgb(193,224,74)" stroke="rgb(154,179,59)" stroke-width="1" opacity="0.75" />
			</g>
		</g>
		<g>
			<title>
LmbA</title>
			<polygon class="
LmbA" points="153,25 183,25 183,10 213,40 183,70 183,55 153,55" fill="rgb(255,255,255)" fill-opacity="1.0" stroke="rgb(0,0,0)" stroke-width="2"  />
			<g>
				<title>G_glu_transpept (PF01019)
"Gamma-glutamyltranspeptidase"</title>
				<polygon class="PF01019" points="155,28 196,28 208,40 196,52 155,52" stroke-linejoin="round" width="56" height="24" fill="rgb(117,205,100)" stroke="rgb(93,164,80)" stroke-width="1" opacity="0.75" />
			</g>
		</g>
		<g>
			<title>
LmbB1</title>
			<polygon class="
LmbB1" points="217,10 232,40 217,70" fill="rgb(255,255,255)" fill-opacity="1.0" stroke="rgb(0,0,0)" stroke-width="2"  />
			<g>
				<title>Glyoxalase (PF00903)
"Glyoxalase/Bleomycin resistance protein/Dioxygenase superfamily"</title>
				<polygon class="PF00903" points="218,28 223,28 229,40 223,52 218,52" stroke-linejoin="round" width="13" height="24" fill="rgb(50,162,189)" stroke="rgb(40,129,151)" stroke-width="1" opacity="0.75" />
			</g>
		</g>
		<g>
			<title>
LmbB2</title>
			<polygon class="
LmbB2" points="232,25 233,25 233,10 263,40 233,70 233,55 232,55" fill="rgb(255,255,255)" fill-opacity="1.0" stroke="rgb(0,0,0)" stroke-width="2"  />
		</g>
		<g>
			<title>
LmbC</title>
			<polygon class="
LmbC" points="318,25 297,25 297,10 267,40 297,70 297,55 318,55" fill="rgb(255,255,255)" fill-opacity="1.0" stroke="rgb(0,0,0)" stroke-width="2"  />
			<g>
				<title>AMP-binding_C (PF13193)
"AMP-binding enzyme C-terminal domain"</title>
				<polygon class="PF13193" points="271,40 275,36 275,44" stroke-linejoin="round" width="7" height="24" fill="rgb(182,50,118)" stroke="rgb(145,39,94)" stroke-width="1" opacity="0.75" />
			</g>
			<g>
				<title>AMP-binding (PF00501)
"AMP-binding enzyme"</title>
				<polygon class="PF00501" points="276,35 283,28 316,28 316,52 283,52 276,45" stroke-linejoin="round" width="40" height="24" fill="rgb(60,217,223)" stroke="rgb(48,173,178)" stroke-width="1" opacity="0.75" />
			</g>
		</g>
		<g>
			<title>
LmbD</title>
			<polygon class="
LmbD" points="319,25 324,25 324,10 354,40 324,70 324,55 319,55" fill="rgb(255,255,255)" fill-opacity="1.0" stroke="rgb(0,0,0)" stroke-width="2"  />
		</g>
		<g>
			<title>
LmbE</title>
			<polygon class="
LmbE" points="355,40 382,10 382,70" fill="rgb(255,255,255)" fill-opacity="1.0" stroke="rgb(0,0,0)" stroke-width="2"  />
			<g>
				<title>PIG-L (PF02585)
"GlcNAc-PI de-N-acetylase"</title>
				<polygon class="PF02585" points="367,31 370,28 381,28 381,52 370,52 367,49" stroke-linejoin="round" width="14" height="24" fill="rgb(97,215,95)" stroke="rgb(77,172,76)" stroke-width="1" opacity="0.75" />
			</g>
		</g>
		<g>
			<title>
LmbF</title>
			<polygon class="
LmbF" points="426,25 414,25 414,10 384,40 414,70 414,55 426,55" fill="rgb(255,255,255)" fill-opacity="1.0" stroke="rgb(0,0,0)" stroke-width="2"  />
			<g>
				<title>Aminotran_1_2 (PF00155)
"Aminotransferase class I and II"</title>
				<polygon class="PF00155" points="388,40 400,28 420,28 420,52 400,52" stroke-linejoin="round" width="35" height="24" fill="rgb(89,113,198)" stroke="rgb(71,90,158)" stroke-width="1" opacity="0.75" />
			</g>
		</g>
		<g>
			<title>
LmbG</title>
			<polygon class="
LmbG" points="427,40 453,10 453,70" fill="rgb(255,255,255)" fill-opacity="1.0" stroke="rgb(0,0,0)" stroke-width="2"  />
			<g>
				<title>Methyltransf_31 (PF13847)
"Methyltransferase domain"</title>
				<polygon class="PF13847" points="434,37 442,28 450,28 450,52 442,52 434,43" stroke-linejoin="round" width="16" height="24" fill="rgb(214,74,181)" stroke="rgb(171,59,144)" stroke-width="1" opacity="0.75" />
			</g>
		</g>
		<g>
			<title>
LmbIH</title>
			<polygon class="
LmbIH" points="503,25 485,25 485,10 455,40 485,70 485,55 503,55" fill="rgb(255,255,255)" fill-opacity="1.0" stroke="rgb(0,0,0)" stroke-width="2"  />
			<g>
				<title>PmbA_TldD_C (PF19289)
"PmbA/TldA metallopeptidase C-terminal domain"</title>
				<polygon class="PF19289" points="459,40 471,28 480,28 480,52 471,52" stroke-linejoin="round" width="24" height="24" fill="rgb(180,66,115)" stroke="rgb(144,52,92)" stroke-width="1" opacity="0.75" />
			</g>
		</g>
		<g>
			<title>
LmbJ</title>
			<polygon class="
LmbJ" points="503,40 528,10 528,70" fill="rgb(255,255,255)" fill-opacity="1.0" stroke="rgb(0,0,0)" stroke-width="2"  />
			<g>
				<title>Methyltransf_25 (PF13649)
"Methyltransferase domain"</title>
				<polygon class="PF13649" points="514,32 517,28 523,28 523,52 517,52 514,48" stroke-linejoin="round" width="9" height="24" fill="rgb(227,135,74)" stroke="rgb(181,108,59)" stroke-width="1" opacity="0.75" />
			</g>
		</g>
		<g>
			<title>
LmbK</title>
			<polygon class="
LmbK" points="530,10 549,40 530,70" fill="rgb(255,255,255)" fill-opacity="1.0" stroke="rgb(0,0,0)" stroke-width="2"  />
			<g>
				<title>Hydrolase_like (PF13242)
"HAD-hyrolase-like"</title>
				<polygon class="PF13242" points="541,33 545,40 541,47" stroke-linejoin="round" width="6" height="24" fill="rgb(202,89,70)" stroke="rgb(161,71,56)" stroke-width="1" opacity="0.75" />
			</g>
		</g>
		<g>
			<title>
LmbL</title>
			<polygon class="
LmbL" points="593,25 580,25 580,10 550,40 580,70 580,55 593,55" fill="rgb(255,255,255)" fill-opacity="1.0" stroke="rgb(0,0,0)" stroke-width="2"  />
			<g>
				<title>UDPG_MGDP_dh_C (PF03720)
"UDP-glucose/GDP-mannose dehydrogenase family, UDP binding domain"</title>
				<polygon class="PF03720" points="554,40 561,33 561,47" stroke-linejoin="round" width="9" height="24" fill="rgb(221,130,74)" stroke="rgb(176,103,59)" stroke-width="1" opacity="0.75" />
			</g>
			<g>
				<title>UDPG_MGDP_dh (PF00984)
"UDP-glucose/GDP-mannose dehydrogenase family, central domain"</title>
				<polygon class="PF00984" points="564,30 566,28 573,28 573,52 566,52 564,50" stroke-linejoin="round" width="9" height="24" fill="rgb(69,189,184)" stroke="rgb(55,151,147)" stroke-width="1" opacity="0.75" />
			</g>
			<g>
				<title>UDPG_MGDP_dh_N (PF03721)
"UDP-glucose/GDP-mannose dehydrogenase family, NAD binding domain"</title>
				<rect class="PF03721" x="575" y="28" stroke-linejoin="round" width="18" height="24" fill="rgb(156,194,58)" stroke="rgb(124,155,46)" stroke-width="1" opacity="0.75" />
			</g>
		</g>
		<g>
			<title>
LmbM</title>
			<polygon class="
LmbM" points="625,25 623,25 623,10 593,40 623,70 623,55 625,55" fill="rgb(255,255,255)" fill-opacity="1.0" stroke="rgb(0,0,0)" stroke-width="2"  />
			<g>
				<title>Epimerase (PF01370)
"NAD dependent epimerase/dehydratase family"</title>
				<polygon class="PF01370" points="601,36 609,28 625,28 625,52 609,52 601,44" stroke-linejoin="round" width="24" height="24" fill="rgb(98,102,214)" stroke="rgb(78,81,171)" stroke-width="1" opacity="0.75" />
			</g>
		</g>
		<g>
			<title>
LmbN</title>
			<polygon class="
LmbN" points="626,40 654,10 654,70" fill="rgb(255,255,255)" fill-opacity="1.0" stroke="rgb(0,0,0)" stroke-width="2"  />
			<g>
				<title>SIS_2 (PF13580)
"SIS domain"</title>
				<polygon class="PF13580" points="631,39 641,28 644,28 644,52 641,52 631,41" stroke-linejoin="round" width="13" height="24" fill="rgb(87,217,81)" stroke="rgb(69,173,64)" stroke-width="1" opacity="0.75" />
			</g>
		</g>
		<g>
			<title>
LmbZ</title>
			<polygon class="
LmbZ" points="687,25 684,25 684,10 654,40 684,70 684,55 687,55" fill="rgb(255,255,255)" fill-opacity="1.0" stroke="rgb(0,0,0)" stroke-width="2"  />
			<g>
				<title>GFO_IDH_MocA_C (PF02894)
"Oxidoreductase family, C-terminal alpha/beta domain"</title>
				<polygon class="PF02894" points="658,40 670,28 673,28 673,52 670,52" stroke-linejoin="round" width="19" height="24" fill="rgb(195,223,82)" stroke="rgb(155,178,65)" stroke-width="1" opacity="0.75" />
			</g>
			<g>
				<title>GFO_IDH_MocA (PF01408)
"Oxidoreductase family, NAD-binding Rossmann fold"</title>
				<rect class="PF01408" x="675" y="28" stroke-linejoin="round" width="11" height="24" fill="rgb(76,117,190)" stroke="rgb(60,93,152)" stroke-width="1" opacity="0.75" />
			</g>
		</g>
		<g>
			<title>
LmbP</title>
			<polygon class="
LmbP" points="720,25 718,25 718,10 688,40 718,70 718,55 720,55" fill="rgb(255,255,255)" fill-opacity="1.0" stroke="rgb(0,0,0)" stroke-width="2"  />
			<g>
				<title>GHMP_kinases_C (PF08544)
"GHMP kinases C terminal"</title>
				<polygon class="PF08544" points="692,40 698,34 698,46" stroke-linejoin="round" width="8" height="24" fill="rgb(95,112,219)" stroke="rgb(76,89,175)" stroke-width="1" opacity="0.75" />
			</g>
			<g>
				<title>GHMP_kinases_N (PF00288)
"GHMP kinases N terminal domain"</title>
				<rect class="PF00288" x="705" y="28" stroke-linejoin="round" width="6" height="24" fill="rgb(190,54,91)" stroke="rgb(152,43,72)" stroke-width="1" opacity="0.75" />
			</g>
		</g>
		<g>
			<title>
LmbO</title>
			<polygon class="
LmbO" points="720,40 743,10 743,70" fill="rgb(255,255,255)" fill-opacity="1.0" stroke="rgb(0,0,0)" stroke-width="2"  />
			<g>
				<title>NTP_transf_3 (PF12804)
"MobA-like NTP transferase domain"</title>
				<polygon class="PF12804" points="724,40 733,28 741,28 741,52 733,52 724,40" stroke-linejoin="round" width="17" height="24" fill="rgb(52,209,196)" stroke="rgb(41,167,156)" stroke-width="1" opacity="0.75" />
			</g>
		</g>
		<g>
			<title>
LmbS</title>
			<polygon class="
LmbS" points="782,25 774,25 774,10 744,40 774,70 774,55 782,55" fill="rgb(255,255,255)" fill-opacity="1.0" stroke="rgb(0,0,0)" stroke-width="2"  />
			<g>
				<title>DegT_DnrJ_EryC1 (PF01041)
"DegT/DnrJ/EryC1/StrS aminotransferase family"</title>
				<polygon class="PF01041" points="748,40 760,28 780,28 780,52 760,52" stroke-linejoin="round" width="36" height="24" fill="rgb(59,139,191)" stroke="rgb(47,111,152)" stroke-width="1" opacity="0.75" />
			</g>
		</g>
		<g>
			<title>
LmbR</title>
			<polygon class="
LmbR" points="782,40 804,10 804,70" fill="rgb(255,255,255)" fill-opacity="1.0" stroke="rgb(0,0,0)" stroke-width="2"  />
			<g>
				<title>TAL_FSA (PF00923)
"Transaldolase/Fructose-6-phosphate aldolase"</title>
				<polygon class="PF00923" points="786,40 795,28 803,28 803,52 795,52" stroke-linejoin="round" width="21" height="24" fill="rgb(208,111,74)" stroke="rgb(166,88,59)" stroke-width="1" opacity="0.75" />
			</g>
		</g>
		<g>
			<title>
LmbQ</title>
			<polygon class="
LmbQ" points="842,25 836,25 836,10 806,40 836,70 836,55 842,55" fill="rgb(255,255,255)" fill-opacity="1.0" stroke="rgb(0,0,0)" stroke-width="2"  />
			<g>
				<title>PmbA_TldD_C (PF19289)
"PmbA/TldA metallopeptidase C-terminal domain"</title>
				<polygon class="PF19289" points="810,40 822,28 827,28 827,52 822,52" stroke-linejoin="round" width="21" height="24" fill="rgb(180,66,115)" stroke="rgb(144,52,92)" stroke-width="1" opacity="0.75" />
			</g>
		</g>
		<g>
			<title>
LmbT</title>
			<polygon class="
LmbT" points="886,25 873,25 873,10 843,40 873,70 873,55 886,55" fill="rgb(255,255,255)" fill-opacity="1.0" stroke="rgb(0,0,0)" stroke-width="2"  />
			<g>
				<title>Glycos_transf_1 (PF00534)
"Glycosyl transferases group 1"</title>
				<polygon class="PF00534" points="847,40 859,28 862,28 862,52 859,52" stroke-linejoin="round" width="17" height="24" fill="rgb(228,92,150)" stroke="rgb(182,73,119)" stroke-width="1" opacity="0.75" />
			</g>
		</g>
		<g>
			<title>
LmbV</title>
			<polygon class="
LmbV" points="887,40 911,10 911,70" fill="rgb(255,255,255)" fill-opacity="1.0" stroke="rgb(0,0,0)" stroke-width="2"  />
			<g>
				<title>MDMPI_N (PF11716)
"Mycothiol maleylpyruvate isomerase N-terminal domain"</title>
				<polygon class="PF11716" points="896,34 901,28 909,28 909,52 901,52 896,46" stroke-linejoin="round" width="13" height="24" fill="rgb(214,107,221)" stroke="rgb(171,85,176)" stroke-width="1" opacity="0.75" />
			</g>
		</g>
		<g>
			<title>
LmbW</title>
			<polygon class="
LmbW" points="921,25 926,25 926,10 956,40 926,70 926,55 921,55" fill="rgb(255,255,255)" fill-opacity="1.0" stroke="rgb(0,0,0)" stroke-width="2"  />
			<g>
				<title>Methyltransf_31 (PF13847)
"Methyltransferase domain"</title>
				<polygon class="PF13847" points="938,28 939,28 948,37 948,43 939,52 938,52" stroke-linejoin="round" width="10" height="24" fill="rgb(214,74,181)" stroke="rgb(171,59,144)" stroke-width="1" opacity="0.75" />
			</g>
		</g>
		<g>
			<title>
LmrB</title>
			<polygon class="
LmrB" points="958,40 986,10 986,70" fill="rgb(255,255,255)" fill-opacity="1.0" stroke="rgb(0,0,0)" stroke-width="2"  />
			<g>
				<title>RrnaAD (PF00398)
"Ribosomal RNA adenine dimethylase"</title>
				<polygon class="PF00398" points="962,40 973,28 984,28 984,52 973,52" stroke-linejoin="round" width="24" height="24" fill="rgb(71,217,122)" stroke="rgb(56,173,97)" stroke-width="1" opacity="0.75" />
			</g>
		</g>
		<g>
			<title>
LmbX</title>
			<polygon class="
LmbX" points="989,40 1018,10 1018,70" fill="rgb(255,255,255)" fill-opacity="1.0" stroke="rgb(0,0,0)" stroke-width="2"  />
			<g>
				<title>PhzC-PhzF (PF02567)
"Phenazine biosynthesis-like protein"</title>
				<polygon class="PF02567" points="993,40 1005,28 1017,28 1017,52 1005,52" stroke-linejoin="round" width="27" height="24" fill="rgb(223,91,96)" stroke="rgb(178,72,76)" stroke-width="1" opacity="0.75" />
			</g>
		</g>
		<g>
			<title>
LmbY</title>
			<polygon class="
LmbY" points="1019,40 1048,10 1048,70" fill="rgb(255,255,255)" fill-opacity="1.0" stroke="rgb(0,0,0)" stroke-width="2"  />
			<g>
				<title>Bac_luciferase (PF00296)
"Luciferase-like monooxygenase"</title>
				<polygon class="PF00296" points="1023,40 1035,28 1048,28 1048,52 1035,52" stroke-linejoin="round" width="26" height="24" fill="rgb(180,112,78)" stroke="rgb(144,89,62)" stroke-width="1" opacity="0.75" />
			</g>
		</g>
		<g>
			<title>
LmbU</title>
			<polygon class="
LmbU" points="1053,40 1075,10 1075,70" fill="rgb(255,255,255)" fill-opacity="1.0" stroke="rgb(0,0,0)" stroke-width="2"  />
		</g>
		<g>
			<title>
LmrC</title>
			<polygon class="
LmrC" points="1154,25 1129,25 1129,10 1099,40 1129,70 1129,55 1154,55" fill="rgb(255,255,255)" fill-opacity="1.0" stroke="rgb(0,0,0)" stroke-width="2"  />
			<g>
				<title>ABC_tran (PF00005)
"ABC transporter"</title>
				<polygon class="PF00005" points="1105,38 1115,28 1118,28 1118,52 1115,52 1105,42" stroke-linejoin="round" width="13" height="24" fill="rgb(129,201,63)" stroke="rgb(103,160,50)" stroke-width="1" opacity="0.75" />
			</g>
			<g>
				<title>ABC_tran (PF00005)
"ABC transporter"</title>
				<rect class="PF00005" x="1137" y="28" stroke-linejoin="round" width="14" height="24" fill="rgb(129,201,63)" stroke="rgb(103,160,50)" stroke-width="1" opacity="0.75" />
			</g>
		</g>
		<g>
			<title>
Sli2</title>
			<polygon class="
Sli2" points="1204,25 1198,25 1198,10 1168,40 1198,70 1198,55 1204,55" fill="rgb(255,255,255)" fill-opacity="1.0" stroke="rgb(0,0,0)" stroke-width="2"  />
			<g>
				<title>Pentapeptide (PF00805)
"Pentapeptide repeats (8 copies)"</title>
				<polygon class="PF00805" points="1172,40 1174,38 1174,42 1172,40" stroke-linejoin="round" width="2" height="24" fill="rgb(186,52,164)" stroke="rgb(148,41,131)" stroke-width="1" opacity="0.75" />
			</g>
			<g>
				<title>Pentapeptide (PF00805)
"Pentapeptide repeats (8 copies)"</title>
				<polygon class="PF00805" points="1175,37 1178,34 1178,46 1175,43" stroke-linejoin="round" width="3" height="24" fill="rgb(186,52,164)" stroke="rgb(148,41,131)" stroke-width="1" opacity="0.75" />
			</g>
			<g>
				<title>Pentapeptide (PF00805)
"Pentapeptide repeats (8 copies)"</title>
				<polygon class="PF00805" points="1182,30 1184,28 1185,28 1185,52 1184,52 1182,50" stroke-linejoin="round" width="3" height="24" fill="rgb(186,52,164)" stroke="rgb(148,41,131)" stroke-width="1" opacity="0.75" />
			</g>
		</g>
		<g>
			<title>
Sli3</title>
			<polygon class="
Sli3" points="1211,40 1228,10 1228,70" fill="rgb(255,255,255)" fill-opacity="1.0" stroke="rgb(0,0,0)" stroke-width="2"  />
		</g>
		<g>
			<title>
Sli4</title>
			<polygon class="
Sli4" points="1236,25 1248,25 1248,10 1278,40 1248,70 1248,55 1236,55" fill="rgb(255,255,255)" fill-opacity="1.0" stroke="rgb(0,0,0)" stroke-width="2"  />
			<g>
				<title>AA_permease_2 (PF13520)
"Amino acid permease"</title>
				<polygon class="PF13520" points="1237,28 1262,28 1274,40 1262,52 1237,52" stroke-linejoin="round" width="39" height="24" fill="rgb(180,217,107)" stroke="rgb(144,173,85)" stroke-width="1" opacity="0.75" />
			</g>
		</g>
	</g>
</svg>
