<svg version="1.1" baseProfile="full" xmlns="http://www.w3.org/2000/svg" width="592.4666666666667" height="80">
	<g>
		<line x1="10" y1="40.0" x2="582.4666666666667" y2="40.0" style="stroke:rgb(70,70,70); stroke-width:3 "/>
		<g>
			<title>
PsyA</title>
			<polygon class="
PsyA" points="31,25 219,25 219,10 249,40 219,70 219,55 31,55" fill="rgb(255,255,255)" fill-opacity="1.0" stroke="rgb(0,0,0)" stroke-width="2"  />
			<g>
				<title>AMP-binding (PF00501)
"AMP-binding enzyme"</title>
				<rect class="PF00501" x="34" y="28" stroke-linejoin="round" width="40" height="24" fill="rgb(60,217,223)" stroke="rgb(48,173,178)" stroke-width="1" opacity="0.75" />
			</g>
			<g>
				<title>PP-binding (PF00550)
"Phosphopantetheine attachment site"</title>
				<rect class="PF00550" x="89" y="28" stroke-linejoin="round" width="6" height="24" fill="rgb(103,191,88)" stroke="rgb(82,152,70)" stroke-width="1" opacity="0.75" />
			</g>
			<g>
				<title>Condensation (PF00668)
"Condensation domain"</title>
				<rect class="PF00668" x="100" y="28" stroke-linejoin="round" width="40" height="24" fill="rgb(224,184,98)" stroke="rgb(179,147,78)" stroke-width="1" opacity="0.75" />
			</g>
			<g>
				<title>AMP-binding (PF00501)
"AMP-binding enzyme"</title>
				<rect class="PF00501" x="142" y="28" stroke-linejoin="round" width="39" height="24" fill="rgb(60,217,223)" stroke="rgb(48,173,178)" stroke-width="1" opacity="0.75" />
			</g>
			<g>
				<title>PP-binding (PF00550)
"Phosphopantetheine attachment site"</title>
				<rect class="PF00550" x="196" y="28" stroke-linejoin="round" width="6" height="24" fill="rgb(103,191,88)" stroke="rgb(82,152,70)" stroke-width="1" opacity="0.75" />
			</g>
			<g>
				<title>Condensation (PF00668)
"Condensation domain"</title>
				<polygon class="PF00668" points="206,28 232,28 244,40 232,52 206,52" stroke-linejoin="round" width="41" height="24" fill="rgb(224,184,98)" stroke="rgb(179,147,78)" stroke-width="1" opacity="0.75" />
			</g>
		</g>
		<g>
			<title>
PsyB</title>
			<polygon class="
PsyB" points="331,25 307,25 307,10 277,40 307,70 307,55 331,55" fill="rgb(255,255,255)" fill-opacity="1.0" stroke="rgb(0,0,0)" stroke-width="2"  />
			<g>
				<title>p450 (PF00067)
"Cytochrome P450"</title>
				<polygon class="PF00067" points="281,40 293,28 325,28 325,52 293,52 281,40" stroke-linejoin="round" width="44" height="24" fill="rgb(85,216,107)" stroke="rgb(68,172,85)" stroke-width="1" opacity="0.75" />
			</g>
		</g>
		<g>
			<title>
PsyC</title>
			<polygon class="
PsyC" points="387,25 474,25 474,10 504,40 474,70 474,55 387,55" fill="rgb(255,255,255)" fill-opacity="1.0" stroke="rgb(0,0,0)" stroke-width="2"  />
			<g>
				<title>AMP-binding (PF00501)
"AMP-binding enzyme"</title>
				<rect class="PF00501" x="395" y="28" stroke-linejoin="round" width="39" height="24" fill="rgb(60,217,223)" stroke="rgb(48,173,178)" stroke-width="1" opacity="0.75" />
			</g>
			<g>
				<title>PP-binding (PF00550)
"Phosphopantetheine attachment site"</title>
				<rect class="PF00550" x="451" y="28" stroke-linejoin="round" width="6" height="24" fill="rgb(103,191,88)" stroke="rgb(82,152,70)" stroke-width="1" opacity="0.75" />
			</g>
			<g>
				<title>Condensation (PF00668)
"Condensation domain"</title>
				<polygon class="PF00668" points="462,28 488,28 500,40 488,52 462,52" stroke-linejoin="round" width="41" height="24" fill="rgb(224,184,98)" stroke="rgb(179,147,78)" stroke-width="1" opacity="0.75" />
			</g>
		</g>
	</g>
</svg>
