<svg version="1.1" baseProfile="full" xmlns="http://www.w3.org/2000/svg" width="595.0" height="80">
	<g>
		<line x1="10" y1="40.0" x2="585.0" y2="40.0" style="stroke:rgb(70,70,70); stroke-width:3 "/>
		<g>
			<title>thdK
putative histidine kinase</title>
			<polygon class="thdK
putative histidine kinase" points="11,25 41,25 41,10 71,40 41,70 41,55 11,55" fill="rgb(255,255,255)" fill-opacity="1.0" stroke="rgb(0,0,0)" stroke-width="2"  />
			<g>
				<title>HisKA_3 (PF07730)
"Histidine kinase"</title>
				<rect class="PF07730" x="32" y="28" stroke-linejoin="round" width="6" height="24" fill="rgb(190,53,146)" stroke="rgb(152,42,116)" stroke-width="1" opacity="0.75" />
			</g>
		</g>
		<g>
			<title>thdL
putative response regulator</title>
			<polygon class="thdL
putative response regulator" points="78,10 100,40 78,70" fill="rgb(255,255,255)" fill-opacity="1.0" stroke="rgb(0,0,0)" stroke-width="2"  />
			<g>
				<title>Response_reg (PF00072)
"Response regulator receiver domain"</title>
				<polygon class="PF00072" points="78,28 87,28 89,30 89,50 87,52 78,52" stroke-linejoin="round" width="11" height="24" fill="rgb(100,107,203)" stroke="rgb(80,85,162)" stroke-width="1" opacity="0.75" />
			</g>
			<g>
				<title>GerE (PF00196)
"Bacterial regulatory proteins, luxR family"</title>
				<polygon class="PF00196" points="93,36 96,40 93,44" stroke-linejoin="round" width="5" height="24" fill="rgb(219,94,82)" stroke="rgb(175,75,65)" stroke-width="1" opacity="0.75" />
			</g>
		</g>
		<g>
			<title>thdD
amido transferase</title>
			<polygon class="thdD
amido transferase" points="135,25 165,25 165,10 195,40 165,70 165,55 135,55" fill="rgb(255,255,255)" fill-opacity="1.0" stroke="rgb(0,0,0)" stroke-width="2"  />
			<g>
				<title>GATase_7 (PF13537)
"Glutamine amidotransferase domain"</title>
				<rect class="PF13537" x="139" y="28" stroke-linejoin="round" width="11" height="24" fill="rgb(200,63,57)" stroke="rgb(160,50,45)" stroke-width="1" opacity="0.75" />
			</g>
			<g>
				<title>Asn_synthase (PF00733)
"Asparagine synthase"</title>
				<polygon class="PF00733" points="158,28 179,28 191,40 179,52 158,52" stroke-linejoin="round" width="36" height="24" fill="rgb(97,201,176)" stroke="rgb(77,160,140)" stroke-width="1" opacity="0.75" />
			</g>
		</g>
		<g>
			<title>thdB
putative DNA binding protein</title>
			<polygon class="thdB
putative DNA binding protein" points="199,10 214,40 199,70" fill="rgb(255,255,255)" fill-opacity="1.0" stroke="rgb(0,0,0)" stroke-width="2"  />
			<g>
				<title>PCC (PF03479)
"Plants and Prokaryotes Conserved (PCC) domain"</title>
				<polygon class="PF03479" points="200,28 204,28 211,40 204,52 200,52" stroke-linejoin="round" width="12" height="24" fill="rgb(69,184,118)" stroke="rgb(55,147,94)" stroke-width="1" opacity="0.75" />
			</g>
		</g>
		<g>
			<title>thdC
putative cytochrome P450</title>
			<polygon class="thdC
putative cytochrome P450" points="215,25 224,25 224,10 254,40 224,70 224,55 215,55" fill="rgb(255,255,255)" fill-opacity="1.0" stroke="rgb(0,0,0)" stroke-width="2"  />
			<g>
				<title>p450 (PF00067)
"Cytochrome P450"</title>
				<polygon class="PF00067" points="229,28 238,28 250,40 238,52 229,52" stroke-linejoin="round" width="23" height="24" fill="rgb(85,216,107)" stroke="rgb(68,172,85)" stroke-width="1" opacity="0.75" />
			</g>
		</g>
		<g>
			<title>thdM
hypothetical protein</title>
			<polygon class="thdM
hypothetical protein" points="255,10 278,40 255,70" fill="rgb(255,255,255)" fill-opacity="1.0" stroke="rgb(0,0,0)" stroke-width="2"  />
		</g>
		<g>
			<title>thdE
putative dehydrogenase/reductase</title>
			<polygon class="thdE
putative dehydrogenase/reductase" points="279,10 306,40 279,70" fill="rgb(255,255,255)" fill-opacity="1.0" stroke="rgb(0,0,0)" stroke-width="2"  />
			<g>
				<title>adh_short_C2 (PF13561)
"Enoyl-(Acyl carrier protein) reductase"</title>
				<polygon class="PF13561" points="286,28 290,28 302,40 290,52 286,52" stroke-linejoin="round" width="20" height="24" fill="rgb(73,205,127)" stroke="rgb(58,164,101)" stroke-width="1" opacity="0.75" />
			</g>
		</g>
		<g>
			<title>thdY
hypothetical protein</title>
			<polygon class="thdY
hypothetical protein" points="306,10 329,40 306,70" fill="rgb(255,255,255)" fill-opacity="1.0" stroke="rgb(0,0,0)" stroke-width="2"  />
		</g>
		<g>
			<title>thdO
putative FAD-dependent oxidase</title>
			<polygon class="thdO
putative FAD-dependent oxidase" points="335,25 351,25 351,10 381,40 351,70 351,55 335,55" fill="rgb(255,255,255)" fill-opacity="1.0" stroke="rgb(0,0,0)" stroke-width="2"  />
			<g>
				<title>FAD_binding_4 (PF01565)
"FAD binding domain"</title>
				<rect class="PF01565" x="338" y="28" stroke-linejoin="round" width="13" height="24" fill="rgb(226,88,136)" stroke="rgb(180,70,108)" stroke-width="1" opacity="0.75" />
			</g>
			<g>
				<title>BBE (PF08031)
"Berberine and berberine like"</title>
				<polygon class="PF08031" points="374,37 377,40 374,43" stroke-linejoin="round" width="4" height="24" fill="rgb(210,73,83)" stroke="rgb(168,58,66)" stroke-width="1" opacity="0.75" />
			</g>
		</g>
		<g>
			<title>thdH
tryptophan 6-halogenase</title>
			<polygon class="thdH
tryptophan 6-halogenase" points="386,25 409,25 409,10 439,40 409,70 409,55 386,55" fill="rgb(255,255,255)" fill-opacity="1.0" stroke="rgb(0,0,0)" stroke-width="2"  />
			<g>
				<title>Trp_halogenase (PF04820)
"Tryptophan halogenase"</title>
				<polygon class="PF04820" points="386,28 422,28 434,40 434,40 422,52 386,52" stroke-linejoin="round" width="48" height="24" fill="rgb(179,74,194)" stroke="rgb(143,59,155)" stroke-width="1" opacity="0.75" />
			</g>
		</g>
		<g>
			<title>thdF
flavin reductase</title>
			<polygon class="thdF
flavin reductase" points="439,10 458,40 439,70" fill="rgb(255,255,255)" fill-opacity="1.0" stroke="rgb(0,0,0)" stroke-width="2"  />
			<g>
				<title>Flavin_Reduct (PF01613)
"Flavin reductase like domain"</title>
				<polygon class="PF01613" points="440,28 447,28 454,39 454,41 447,52 440,52" stroke-linejoin="round" width="14" height="24" fill="rgb(107,197,222)" stroke="rgb(85,157,177)" stroke-width="1" opacity="0.75" />
			</g>
		</g>
		<g>
			<title>thdN
aminotransferase</title>
			<polygon class="thdN
aminotransferase" points="463,25 471,25 471,10 501,40 471,70 471,55 463,55" fill="rgb(255,255,255)" fill-opacity="1.0" stroke="rgb(0,0,0)" stroke-width="2"  />
			<g>
				<title>Aminotran_1_2 (PF00155)
"Aminotransferase class I and II"</title>
				<polygon class="PF00155" points="468,28 485,28 497,40 485,52 468,52" stroke-linejoin="round" width="32" height="24" fill="rgb(89,113,198)" stroke="rgb(71,90,158)" stroke-width="1" opacity="0.75" />
			</g>
		</g>
		<g>
			<title>thdA
putative Na+/H+ antiporter</title>
			<polygon class="thdA
putative Na+/H+ antiporter" points="508,25 520,25 520,10 550,40 520,70 520,55 508,55" fill="rgb(255,255,255)" fill-opacity="1.0" stroke="rgb(0,0,0)" stroke-width="2"  />
			<g>
				<title>Na_H_Exchanger (PF00999)
"Sodium/hydrogen exchanger family"</title>
				<polygon class="PF00999" points="509,28 533,28 545,40 533,52 509,52" stroke-linejoin="round" width="38" height="24" fill="rgb(229,67,191)" stroke="rgb(183,53,152)" stroke-width="1" opacity="0.75" />
			</g>
		</g>
		<g>
			<title>thdR
putative LysR family transcriptional regulator</title>
			<polygon class="thdR
putative LysR family transcriptional regulator" points="582,25 581,25 581,10 551,40 581,70 581,55 582,55" fill="rgb(255,255,255)" fill-opacity="1.0" stroke="rgb(0,0,0)" stroke-width="2"  />
			<g>
				<title>LysR_substrate (PF03466)
"LysR substrate binding domain"</title>
				<polygon class="PF03466" points="555,40 567,28 573,28 573,52 567,52" stroke-linejoin="round" width="20" height="24" fill="rgb(55,136,195)" stroke="rgb(44,108,156)" stroke-width="1" opacity="0.75" />
			</g>
			<g>
				<title>HTH_1 (PF00126)
"Bacterial regulatory helix-turn-helix protein, lysR family"</title>
				<rect class="PF00126" x="576" y="28" stroke-linejoin="round" width="5" height="24" fill="rgb(125,227,79)" stroke="rgb(99,181,63)" stroke-width="1" opacity="0.75" />
			</g>
		</g>
	</g>
</svg>
