<svg version="1.1" baseProfile="full" xmlns="http://www.w3.org/2000/svg" width="2002.5" height="80">
	<g>
		<line x1="10" y1="40.0" x2="1992.5" y2="40.0" style="stroke:rgb(70,70,70); stroke-width:3 "/>
		<g>
			<title>evdM1 (HXZ27_03905)
H-ring C4' O-methyltransferase</title>
			<polygon class="evdM1 (HXZ27_03905)
H-ring C4' O-methyltransferase" points="10,40 35,10 35,70" fill="rgb(255,255,255)" fill-opacity="1.0" stroke="rgb(0,0,0)" stroke-width="2"  />
			<g>
				<title>TylF (PF05711)
"Macrocin-O-methyltransferase (TylF)"</title>
				<polygon class="PF05711" points="14,40 24,28 34,28 34,52 24,52" stroke-linejoin="round" width="24" height="24" fill="rgb(175,228,98)" stroke="rgb(139,182,78)" stroke-width="1" opacity="0.75" />
			</g>
		</g>
		<g>
			<title>evdU1 (HXZ27_03910)
Unknown</title>
			<polygon class="evdU1 (HXZ27_03910)
Unknown" points="61,25 75,25 75,10 105,40 75,70 75,55 61,55" fill="rgb(255,255,255)" fill-opacity="1.0" stroke="rgb(0,0,0)" stroke-width="2"  />
			<g>
				<title>Na_H_Exchanger (PF00999)
"Sodium/hydrogen exchanger family"</title>
				<polygon class="PF00999" points="63,28 89,28 101,40 89,52 63,52" stroke-linejoin="round" width="39" height="24" fill="rgb(229,67,191)" stroke="rgb(183,53,152)" stroke-width="1" opacity="0.75" />
			</g>
		</g>
		<g>
			<title>evdX1 (HXZ27_03915)
RNA methyltrasnferase</title>
			<polygon class="evdX1 (HXZ27_03915)
RNA methyltrasnferase" points="106,25 114,25 114,10 144,40 114,70 114,55 106,55" fill="rgb(255,255,255)" fill-opacity="1.0" stroke="rgb(0,0,0)" stroke-width="2"  />
			<g>
				<title>UPF0020 (PF01170)
"Putative RNA methylase family UPF0020"</title>
				<polygon class="PF01170" points="125,28 128,28 140,40 128,52 125,52" stroke-linejoin="round" width="18" height="24" fill="rgb(89,182,69)" stroke="rgb(71,145,55)" stroke-width="1" opacity="0.75" />
			</g>
		</g>
		<g>
			<title>evdU2 (HXZ27_03920)
Unknown</title>
			<polygon class="evdU2 (HXZ27_03920)
Unknown" points="194,25 175,25 175,10 145,40 175,70 175,55 194,55" fill="rgb(255,255,255)" fill-opacity="1.0" stroke="rgb(0,0,0)" stroke-width="2"  />
			<g>
				<title>Cu-oxidase_2 (PF07731)
"Multicopper oxidase"</title>
				<polygon class="PF07731" points="149,40 158,31 158,49" stroke-linejoin="round" width="13" height="24" fill="rgb(183,55,192)" stroke="rgb(146,44,153)" stroke-width="1" opacity="0.75" />
			</g>
			<g>
				<title>Cu-oxidase_3 (PF07732)
"Multicopper oxidase"</title>
				<rect class="PF07732" x="173" y="28" stroke-linejoin="round" width="11" height="24" fill="rgb(80,81,179)" stroke="rgb(63,64,143)" stroke-width="1" opacity="0.75" />
			</g>
		</g>
		<g>
			<title>evdM2 (HXZ27_03925)
H-ring C2/C3 O-methyltransferase</title>
			<polygon class="evdM2 (HXZ27_03925)
H-ring C2/C3 O-methyltransferase" points="215,10 242,40 215,70" fill="rgb(255,255,255)" fill-opacity="1.0" stroke="rgb(0,0,0)" stroke-width="2"  />
			<g>
				<title>Methyltransf_23 (PF13489)
"Methyltransferase domain"</title>
				<polygon class="PF13489" points="219,28 226,28 233,35 233,45 226,52 219,52" stroke-linejoin="round" width="14" height="24" fill="rgb(188,189,66)" stroke="rgb(150,151,52)" stroke-width="1" opacity="0.75" />
			</g>
		</g>
		<g>
			<title>evdM3 (HXZ27_03930)
D-ring C3 C-methyltransferase</title>
			<polygon class="evdM3 (HXZ27_03930)
D-ring C3 C-methyltransferase" points="243,25 256,25 256,10 286,40 256,70 256,55 243,55" fill="rgb(255,255,255)" fill-opacity="1.0" stroke="rgb(0,0,0)" stroke-width="2"  />
			<g>
				<title>Methyltransf_13 (PF08421)
"Putative zinc binding domain"</title>
				<rect class="PF08421" x="245" y="28" stroke-linejoin="round" width="6" height="24" fill="rgb(209,96,160)" stroke="rgb(167,76,128)" stroke-width="1" opacity="0.75" />
			</g>
			<g>
				<title>Methyltransf_23 (PF13489)
"Methyltransferase domain"</title>
				<rect class="PF13489" x="251" y="28" stroke-linejoin="round" width="16" height="24" fill="rgb(188,189,66)" stroke="rgb(150,151,52)" stroke-width="1" opacity="0.75" />
			</g>
			<g>
				<title>Methyltransf_14 (PF08484)
"C-methyltransferase C-terminal domain"</title>
				<polygon class="PF08484" points="268,28 269,28 281,40 269,52 268,52" stroke-linejoin="round" width="15" height="24" fill="rgb(229,72,107)" stroke="rgb(183,57,85)" stroke-width="1" opacity="0.75" />
			</g>
		</g>
		<g>
			<title>evdM4 (HXZ27_03935)
G-ring C2 O-methyltransferase</title>
			<polygon class="evdM4 (HXZ27_03935)
G-ring C2 O-methyltransferase" points="286,25 295,25 295,10 325,40 295,70 295,55 286,55" fill="rgb(255,255,255)" fill-opacity="1.0" stroke="rgb(0,0,0)" stroke-width="2"  />
			<g>
				<title>MycE_N (PF17843)
"MycE methyltransferase N-terminal"</title>
				<rect class="PF17843" x="286" y="28" stroke-linejoin="round" width="10" height="24" fill="rgb(83,185,170)" stroke="rgb(66,148,136)" stroke-width="1" opacity="0.75" />
			</g>
			<g>
				<title>Methyltransf_24 (PF13578)
"Methyltransferase domain"</title>
				<polygon class="PF13578" points="303,28 309,28 315,34 315,46 309,52 303,52" stroke-linejoin="round" width="12" height="24" fill="rgb(106,221,159)" stroke="rgb(84,176,127)" stroke-width="1" opacity="0.75" />
			</g>
		</g>
		<g>
			<title>evdGT1 (HXZ27_03940)
Glycosyltransferase</title>
			<polygon class="evdGT1 (HXZ27_03940)
Glycosyltransferase" points="325,25 329,25 329,10 359,40 329,70 329,55 325,55" fill="rgb(255,255,255)" fill-opacity="1.0" stroke="rgb(0,0,0)" stroke-width="2"  />
			<g>
				<title>Glycos_transf_1 (PF00534)
"Glycosyl transferases group 1"</title>
				<polygon class="PF00534" points="339,28 342,28 354,40 354,40 342,52 339,52" stroke-linejoin="round" width="15" height="24" fill="rgb(228,92,150)" stroke="rgb(182,73,119)" stroke-width="1" opacity="0.75" />
			</g>
		</g>
		<g>
			<title>evdU3 (HXZ27_03945)
Unknown</title>
			<polygon class="evdU3 (HXZ27_03945)
Unknown" points="363,10 376,40 363,70" fill="rgb(255,255,255)" fill-opacity="1.0" stroke="rgb(0,0,0)" stroke-width="2"  />
		</g>
		<g>
			<title>evdS1 (HXZ27_03950)
4-ketoreductase</title>
			<polygon class="evdS1 (HXZ27_03950)
4-ketoreductase" points="410,25 409,25 409,10 379,40 409,70 409,55 410,55" fill="rgb(255,255,255)" fill-opacity="1.0" stroke="rgb(0,0,0)" stroke-width="2"  />
			<g>
				<title>Epimerase (PF01370)
"NAD dependent epimerase/dehydratase family"</title>
				<polygon class="PF01370" points="386,37 395,28 409,28 409,52 395,52 386,43" stroke-linejoin="round" width="23" height="24" fill="rgb(98,102,214)" stroke="rgb(78,81,171)" stroke-width="1" opacity="0.75" />
			</g>
		</g>
		<g>
			<title>evdM5 (HXZ27_03955)
A1-ring -methyltransferase</title>
			<polygon class="evdM5 (HXZ27_03955)
A1-ring -methyltransferase" points="446,25 442,25 442,10 412,40 442,70 442,55 446,55" fill="rgb(255,255,255)" fill-opacity="1.0" stroke="rgb(0,0,0)" stroke-width="2"  />
			<g>
				<title>Methyltransf_2 (PF00891)
"O-methyltransferase domain"</title>
				<polygon class="PF00891" points="416,40 428,28 435,28 435,52 428,52" stroke-linejoin="round" width="21" height="24" fill="rgb(50,51,190)" stroke="rgb(39,40,152)" stroke-width="1" opacity="0.75" />
			</g>
		</g>
		<g>
			<title>evdU4 (HXZ27_03960)
Unknown</title>
			<polygon class="evdU4 (HXZ27_03960)
Unknown" points="446,40 473,10 473,70" fill="rgb(255,255,255)" fill-opacity="1.0" stroke="rgb(0,0,0)" stroke-width="2"  />
		</g>
		<g>
			<title>evdX2 (HXZ27_03965)
RNA methyltrasnferase</title>
			<polygon class="evdX2 (HXZ27_03965)
RNA methyltrasnferase" points="477,40 503,10 503,70" fill="rgb(255,255,255)" fill-opacity="1.0" stroke="rgb(0,0,0)" stroke-width="2"  />
			<g>
				<title>SpoU_methylase (PF00588)
"SpoU rRNA Methylase family"</title>
				<polygon class="PF00588" points="481,40 491,29 491,51" stroke-linejoin="round" width="14" height="24" fill="rgb(84,205,178)" stroke="rgb(67,164,142)" stroke-width="1" opacity="0.75" />
			</g>
		</g>
		<g>
			<title>evdD1 (HXZ27_03970)
Acyltransferase</title>
			<polygon class="evdD1 (HXZ27_03970)
Acyltransferase" points="515,25 519,25 519,10 549,40 519,70 519,55 515,55" fill="rgb(255,255,255)" fill-opacity="1.0" stroke="rgb(0,0,0)" stroke-width="2"  />
			<g>
				<title>ACP_syn_III (PF08545)
"3-Oxoacyl-[acyl-carrier-protein (ACP)] synthase III"</title>
				<rect class="PF08545" x="525" y="28" stroke-linejoin="round" width="7" height="24" fill="rgb(189,102,84)" stroke="rgb(151,81,67)" stroke-width="1" opacity="0.75" />
			</g>
			<g>
				<title>ACP_syn_III_C (PF08541)
"3-Oxoacyl-[acyl-carrier-protein (ACP)] synthase III C terminal"</title>
				<polygon class="PF08541" points="539,34 545,40 539,46" stroke-linejoin="round" width="9" height="24" fill="rgb(146,207,81)" stroke="rgb(116,165,64)" stroke-width="1" opacity="0.75" />
			</g>
		</g>
		<g>
			<title>evdM6 (HXZ27_03975)
F-ring C6 O-methyltransferase</title>
			<polygon class="evdM6 (HXZ27_03975)
F-ring C6 O-methyltransferase" points="555,40 579,10 579,70" fill="rgb(255,255,255)" fill-opacity="1.0" stroke="rgb(0,0,0)" stroke-width="2"  />
			<g>
				<title>Methyltransf_25 (PF13649)
"Methyltransferase domain"</title>
				<polygon class="PF13649" points="562,36 569,28 571,28 571,52 569,52 562,44" stroke-linejoin="round" width="9" height="24" fill="rgb(227,135,74)" stroke="rgb(181,108,59)" stroke-width="1" opacity="0.75" />
			</g>
		</g>
		<g>
			<title>evdGT2 (HXZ27_03980)
Glycosyltransferase</title>
			<polygon class="evdGT2 (HXZ27_03980)
Glycosyltransferase" points="622,25 609,25 609,10 579,40 609,70 609,55 622,55" fill="rgb(255,255,255)" fill-opacity="1.0" stroke="rgb(0,0,0)" stroke-width="2"  />
			<g>
				<title>DUF1205 (PF06722)
"Protein of unknown function (DUF1205)"</title>
				<polygon class="PF06722" points="593,30 595,28 602,28 602,52 595,52 593,50" stroke-linejoin="round" width="9" height="24" fill="rgb(200,129,88)" stroke="rgb(160,103,70)" stroke-width="1" opacity="0.75" />
			</g>
		</g>
		<g>
			<title>evdS2 (HXZ27_03985)
Epimerase (F-ring C-2)</title>
			<polygon class="evdS2 (HXZ27_03985)
Epimerase (F-ring C-2)" points="672,25 662,25 662,10 632,40 662,70 662,55 672,55" fill="rgb(255,255,255)" fill-opacity="1.0" stroke="rgb(0,0,0)" stroke-width="2"  />
			<g>
				<title>Radical_SAM (PF04055)
"Radical SAM superfamily"</title>
				<polygon class="PF04055" points="639,37 648,28 656,28 656,52 648,52 639,43" stroke-linejoin="round" width="17" height="24" fill="rgb(149,56,222)" stroke="rgb(119,44,177)" stroke-width="1" opacity="0.75" />
			</g>
		</g>
		<g>
			<title>evdO1 (HXZ27_03990)
Orthester synthase</title>
			<polygon class="evdO1 (HXZ27_03990)
Orthester synthase" points="704,25 703,25 703,10 673,40 703,70 703,55 704,55" fill="rgb(255,255,255)" fill-opacity="1.0" stroke="rgb(0,0,0)" stroke-width="2"  />
			<g>
				<title>PhyH (PF05721)
"Phytanoyl-CoA dioxygenase (PhyH)"</title>
				<polygon class="PF05721" points="680,37 689,28 700,28 700,52 689,52 680,43" stroke-linejoin="round" width="20" height="24" fill="rgb(72,132,214)" stroke="rgb(57,105,171)" stroke-width="1" opacity="0.75" />
			</g>
		</g>
		<g>
			<title>evdM7 (HXZ27_03995)
F-ring C2 O-methyltransferase</title>
			<polygon class="evdM7 (HXZ27_03995)
F-ring C2 O-methyltransferase" points="705,40 729,10 729,70" fill="rgb(255,255,255)" fill-opacity="1.0" stroke="rgb(0,0,0)" stroke-width="2"  />
			<g>
				<title>Methyltransf_21 (PF05050)
"Methyltransferase FkbM domain"</title>
				<polygon class="PF05050" points="709,40 719,28 725,28 725,52 719,52 709,40" stroke-linejoin="round" width="16" height="24" fill="rgb(95,204,52)" stroke="rgb(76,163,41)" stroke-width="1" opacity="0.75" />
			</g>
		</g>
		<g>
			<title>evdD2 (HXZ27_04000)
Halogenase</title>
			<polygon class="evdD2 (HXZ27_04000)
Halogenase" points="777,25 759,25 759,10 729,40 759,70 759,55 777,55" fill="rgb(255,255,255)" fill-opacity="1.0" stroke="rgb(0,0,0)" stroke-width="2"  />
			<g>
				<title>Trp_halogenase (PF04820)
"Tryptophan halogenase"</title>
				<polygon class="PF04820" points="736,37 745,28 767,28 767,52 745,52 736,43" stroke-linejoin="round" width="31" height="24" fill="rgb(179,74,194)" stroke="rgb(143,59,155)" stroke-width="1" opacity="0.75" />
			</g>
		</g>
		<g>
			<title>evdGT3 (HXZ27_04005)
Glycosyltransferase</title>
			<polygon class="evdGT3 (HXZ27_04005)
Glycosyltransferase" points="788,25 796,25 796,10 826,40 796,70 796,55 788,55" fill="rgb(255,255,255)" fill-opacity="1.0" stroke="rgb(0,0,0)" stroke-width="2"  />
			<g>
				<title>DUF1205 (PF06722)
"Protein of unknown function (DUF1205)"</title>
				<polygon class="PF06722" points="805,28 809,28 814,33 814,47 809,52 805,52" stroke-linejoin="round" width="9" height="24" fill="rgb(200,129,88)" stroke="rgb(160,103,70)" stroke-width="1" opacity="0.75" />
			</g>
		</g>
		<g>
			<title>evdU5 (HXZ27_04010)
Pyruvate dehydrogenase subunit alpha</title>
			<polygon class="evdU5 (HXZ27_04010)
Pyruvate dehydrogenase subunit alpha" points="828,25 830,25 830,10 860,40 830,70 830,55 828,55" fill="rgb(255,255,255)" fill-opacity="1.0" stroke="rgb(0,0,0)" stroke-width="2"  />
			<g>
				<title>E1_dh (PF00676)
"Dehydrogenase E1 component"</title>
				<polygon class="PF00676" points="829,28 844,28 856,40 844,52 829,52" stroke-linejoin="round" width="29" height="24" fill="rgb(180,115,48)" stroke="rgb(144,92,38)" stroke-width="1" opacity="0.75" />
			</g>
		</g>
		<g>
			<title>evdU6 (HXZ27_04015)
Pyruvate dehydrogenase subunit beta</title>
			<polygon class="evdU6 (HXZ27_04015)
Pyruvate dehydrogenase subunit beta" points="861,25 863,25 863,10 893,40 863,70 863,55 861,55" fill="rgb(255,255,255)" fill-opacity="1.0" stroke="rgb(0,0,0)" stroke-width="2"  />
			<g>
				<title>Transket_pyr (PF02779)
"Transketolase, pyrimidine binding domain"</title>
				<polygon class="PF02779" points="861,28 876,28 878,30 878,50 876,52 861,52" stroke-linejoin="round" width="17" height="24" fill="rgb(189,186,84)" stroke="rgb(151,148,67)" stroke-width="1" opacity="0.75" />
			</g>
			<g>
				<title>Transketolase_C (PF02780)
"Transketolase, C-terminal domain"</title>
				<polygon class="PF02780" points="880,32 888,40 880,48" stroke-linejoin="round" width="12" height="24" fill="rgb(76,206,101)" stroke="rgb(60,164,80)" stroke-width="1" opacity="0.75" />
			</g>
		</g>
		<g>
			<title>evdGT4 (HXZ27_04020)
Glycosyltransferase</title>
			<polygon class="evdGT4 (HXZ27_04020)
Glycosyltransferase" points="895,25 898,25 898,10 928,40 898,70 898,55 895,55" fill="rgb(255,255,255)" fill-opacity="1.0" stroke="rgb(0,0,0)" stroke-width="2"  />
			<g>
				<title>Glycos_transf_2 (PF00535)
"Glycosyl transferase family 2"</title>
				<rect class="PF00535" x="895" y="28" stroke-linejoin="round" width="15" height="24" fill="rgb(224,122,96)" stroke="rgb(179,97,76)" stroke-width="1" opacity="0.75" />
			</g>
		</g>
		<g>
			<title>evdU7 (HXZ27_04025)
Unknown</title>
			<polygon class="evdU7 (HXZ27_04025)
Unknown" points="928,25 933,25 933,10 963,40 933,70 933,55 928,55" fill="rgb(255,255,255)" fill-opacity="1.0" stroke="rgb(0,0,0)" stroke-width="2"  />
		</g>
		<g>
			<title>evdO2 (HXZ27_04030)
Orthester synthase</title>
			<polygon class="evdO2 (HXZ27_04030)
Orthester synthase" points="964,40 989,10 989,70" fill="rgb(255,255,255)" fill-opacity="1.0" stroke="rgb(0,0,0)" stroke-width="2"  />
			<g>
				<title>PhyH (PF05721)
"Phytanoyl-CoA dioxygenase (PhyH)"</title>
				<polygon class="PF05721" points="968,40 978,28 987,28 987,52 978,52" stroke-linejoin="round" width="21" height="24" fill="rgb(72,132,214)" stroke="rgb(57,105,171)" stroke-width="1" opacity="0.75" />
			</g>
		</g>
		<g>
			<title>evdS3 (HXZ27_04035)
Epimerase/dehydratase</title>
			<polygon class="evdS3 (HXZ27_04035)
Epimerase/dehydratase" points="1001,25 1002,25 1002,10 1032,40 1002,70 1002,55 1001,55" fill="rgb(255,255,255)" fill-opacity="1.0" stroke="rgb(0,0,0)" stroke-width="2"  />
			<g>
				<title>GDP_Man_Dehyd (PF16363)
"GDP-mannose 4,6 dehydratase"</title>
				<polygon class="PF16363" points="1004,28 1015,28 1027,40 1015,52 1004,52" stroke-linejoin="round" width="26" height="24" fill="rgb(162,221,65)" stroke="rgb(129,176,51)" stroke-width="1" opacity="0.75" />
			</g>
		</g>
		<g>
			<title>evdS4 (HXZ27_04040)
Glucose-1-phosphate thymidyltransferase</title>
			<polygon class="evdS4 (HXZ27_04040)
Glucose-1-phosphate thymidyltransferase" points="1039,25 1044,25 1044,10 1074,40 1044,70 1044,55 1039,55" fill="rgb(255,255,255)" fill-opacity="1.0" stroke="rgb(0,0,0)" stroke-width="2"  />
			<g>
				<title>NTP_transferase (PF00483)
"Nucleotidyl transferase"</title>
				<polygon class="PF00483" points="1039,28 1058,28 1062,32 1062,48 1058,52 1039,52" stroke-linejoin="round" width="23" height="24" fill="rgb(198,101,87)" stroke="rgb(158,80,69)" stroke-width="1" opacity="0.75" />
			</g>
		</g>
		<g>
			<title>evdS5 (HXZ27_04045)
4,6 dehydratase</title>
			<polygon class="evdS5 (HXZ27_04045)
4,6 dehydratase" points="1074,25 1077,25 1077,10 1107,40 1077,70 1077,55 1074,55" fill="rgb(255,255,255)" fill-opacity="1.0" stroke="rgb(0,0,0)" stroke-width="2"  />
			<g>
				<title>GDP_Man_Dehyd (PF16363)
"GDP-mannose 4,6 dehydratase"</title>
				<polygon class="PF16363" points="1074,28 1090,28 1102,40 1090,52 1074,52" stroke-linejoin="round" width="30" height="24" fill="rgb(162,221,65)" stroke="rgb(129,176,51)" stroke-width="1" opacity="0.75" />
			</g>
		</g>
		<g>
			<title>evdS6 (HXZ27_04050)
4-epimerase</title>
			<polygon class="evdS6 (HXZ27_04050)
4-epimerase" points="1109,25 1113,25 1113,10 1143,40 1113,70 1113,55 1109,55" fill="rgb(255,255,255)" fill-opacity="1.0" stroke="rgb(0,0,0)" stroke-width="2"  />
			<g>
				<title>Epimerase (PF01370)
"NAD dependent epimerase/dehydratase family"</title>
				<polygon class="PF01370" points="1109,28 1127,28 1132,33 1132,47 1127,52 1109,52" stroke-linejoin="round" width="23" height="24" fill="rgb(98,102,214)" stroke="rgb(78,81,171)" stroke-width="1" opacity="0.75" />
			</g>
		</g>
		<g>
			<title>evdMO1 (HXZ27_04060)
Oxidase/E-ring C4 O-methyltransferase</title>
			<polygon class="evdMO1 (HXZ27_04060)
Oxidase/E-ring C4 O-methyltransferase" points="1145,25 1160,25 1160,10 1190,40 1160,70 1160,55 1145,55" fill="rgb(255,255,255)" fill-opacity="1.0" stroke="rgb(0,0,0)" stroke-width="2"  />
			<g>
				<title>Methyltransf_31 (PF13847)
"Methyltransferase domain"</title>
				<rect class="PF13847" x="1150" y="28" stroke-linejoin="round" width="14" height="24" fill="rgb(214,74,181)" stroke="rgb(171,59,144)" stroke-width="1" opacity="0.75" />
			</g>
			<g>
				<title>PhyH (PF05721)
"Phytanoyl-CoA dioxygenase (PhyH)"</title>
				<polygon class="PF05721" points="1169,28 1173,28 1185,40 1173,52 1169,52" stroke-linejoin="round" width="19" height="24" fill="rgb(72,132,214)" stroke="rgb(57,105,171)" stroke-width="1" opacity="0.75" />
			</g>
		</g>
		<g>
			<title>evdD3 (HXZ27_04065)
Polyketide synthase</title>
			<polygon class="evdD3 (HXZ27_04065)
Polyketide synthase" points="1321,25 1225,25 1225,10 1195,40 1225,70 1225,55 1321,55" fill="rgb(255,255,255)" fill-opacity="1.0" stroke="rgb(0,0,0)" stroke-width="2"  />
			<g>
				<title>PP-binding (PF00550)
"Phosphopantetheine attachment site"</title>
				<polygon class="PF00550" points="1199,40 1201,38 1201,42" stroke-linejoin="round" width="6" height="24" fill="rgb(103,191,88)" stroke="rgb(82,152,70)" stroke-width="1" opacity="0.75" />
			</g>
			<g>
				<title>PS-DH (PF14765)
"Polyketide synthase dehydratase"</title>
				<polygon class="PF14765" points="1205,34 1211,28 1231,28 1231,52 1211,52 1205,46" stroke-linejoin="round" width="26" height="24" fill="rgb(173,56,182)" stroke="rgb(138,44,145)" stroke-width="1" opacity="0.75" />
			</g>
			<g>
				<title>Acyl_transf_1 (PF00698)
"Acyl transferase domain"</title>
				<rect class="PF00698" x="1236" y="28" stroke-linejoin="round" width="31" height="24" fill="rgb(59,176,209)" stroke="rgb(47,140,167)" stroke-width="1" opacity="0.75" />
			</g>
			<g>
				<title>KAsynt_C_assoc (PF16197)
"Ketoacyl-synthetase C-terminal extension"</title>
				<rect class="PF16197" x="1271" y="28" stroke-linejoin="round" width="11" height="24" fill="rgb(240,150,172)" stroke="rgb(192,120,137)" stroke-width="1" opacity="0.75" />
			</g>
			<g>
				<title>Ketoacyl-synt_C (PF02801)
"Beta-ketoacyl synthase, C-terminal domain"</title>
				<rect class="PF02801" x="1282" y="28" stroke-linejoin="round" width="11" height="24" fill="rgb(215,78,102)" stroke="rgb(172,62,81)" stroke-width="1" opacity="0.75" />
			</g>
			<g>
				<title>ketoacyl-synt (PF00109)
"Beta-ketoacyl synthase, N-terminal domain"</title>
				<rect class="PF00109" x="1295" y="28" stroke-linejoin="round" width="25" height="24" fill="rgb(112,116,228)" stroke="rgb(89,92,182)" stroke-width="1" opacity="0.75" />
			</g>
		</g>
		<g>
			<title>evdU8 (HXZ27_04070)
Unknown</title>
			<polygon class="evdU8 (HXZ27_04070)
Unknown" points="1338,10 1363,40 1338,70" fill="rgb(255,255,255)" fill-opacity="1.0" stroke="rgb(0,0,0)" stroke-width="2"  />
			<g>
				<title>HAD_2 (PF13419)
"Haloacid dehalogenase-like hydrolase"</title>
				<polygon class="PF13419" points="1339,28 1349,28 1356,37 1356,43 1349,52 1339,52" stroke-linejoin="round" width="17" height="24" fill="rgb(60,223,188)" stroke="rgb(48,178,150)" stroke-width="1" opacity="0.75" />
			</g>
		</g>
		<g>
			<title>evdS7 (HXZ27_04075)
4-ketoreductase</title>
			<polygon class="evdS7 (HXZ27_04075)
4-ketoreductase" points="1363,25 1363,25 1363,10 1393,40 1363,70 1363,55 1363,55" fill="rgb(255,255,255)" fill-opacity="1.0" stroke="rgb(0,0,0)" stroke-width="2"  />
			<g>
				<title>Epimerase (PF01370)
"NAD dependent epimerase/dehydratase family"</title>
				<polygon class="PF01370" points="1364,28 1377,28 1386,37 1386,43 1377,52 1364,52" stroke-linejoin="round" width="22" height="24" fill="rgb(98,102,214)" stroke="rgb(78,81,171)" stroke-width="1" opacity="0.75" />
			</g>
		</g>
		<g>
			<title>evdGT5 (HXZ27_04080)
Glycosyltransferase</title>
			<polygon class="evdGT5 (HXZ27_04080)
Glycosyltransferase" points="1393,40 1422,10 1422,70" fill="rgb(255,255,255)" fill-opacity="1.0" stroke="rgb(0,0,0)" stroke-width="2"  />
		</g>
		<g>
			<title>evdR1 (HXZ27_04085)
Regulator</title>
			<polygon class="evdR1 (HXZ27_04085)
Regulator" points="1425,40 1433,10 1433,70" fill="rgb(255,255,255)" fill-opacity="1.0" stroke="rgb(0,0,0)" stroke-width="2"  />
			<g>
				<title>GerE (PF00196)
"Bacterial regulatory proteins, luxR family"</title>
				<polygon class="PF00196" points="1428,40 1431,28 1432,28 1432,52 1431,52" stroke-linejoin="round" width="5" height="24" fill="rgb(219,94,82)" stroke="rgb(175,75,65)" stroke-width="1" opacity="0.75" />
			</g>
		</g>
		<g>
			<title>evdS8 (HXZ27_04095)
3-ketoreductase</title>
			<polygon class="evdS8 (HXZ27_04095)
3-ketoreductase" points="1495,25 1491,25 1491,10 1461,40 1491,70 1491,55 1495,55" fill="rgb(255,255,255)" fill-opacity="1.0" stroke="rgb(0,0,0)" stroke-width="2"  />
			<g>
				<title>GFO_IDH_MocA (PF01408)
"Oxidoreductase family, NAD-binding Rossmann fold"</title>
				<rect class="PF01408" x="1481" y="28" stroke-linejoin="round" width="11" height="24" fill="rgb(76,117,190)" stroke="rgb(60,93,152)" stroke-width="1" opacity="0.75" />
			</g>
		</g>
		<g>
			<title>evdS9 (HXZ27_04100)
2,3-dehydratase</title>
			<polygon class="evdS9 (HXZ27_04100)
2,3-dehydratase" points="1542,25 1525,25 1525,10 1495,40 1525,70 1525,55 1542,55" fill="rgb(255,255,255)" fill-opacity="1.0" stroke="rgb(0,0,0)" stroke-width="2"  />
			<g>
				<title>Hexose_dehydrat (PF03559)
"NDP-hexose 2,3-dehydratase"</title>
				<polygon class="PF03559" points="1499,40 1511,28 1514,28 1514,52 1511,52" stroke-linejoin="round" width="19" height="24" fill="rgb(74,201,66)" stroke="rgb(59,160,52)" stroke-width="1" opacity="0.75" />
			</g>
			<g>
				<title>Hexose_dehydrat (PF03559)
"NDP-hexose 2,3-dehydratase"</title>
				<rect class="PF03559" x="1518" y="28" stroke-linejoin="round" width="20" height="24" fill="rgb(74,201,66)" stroke="rgb(59,160,52)" stroke-width="1" opacity="0.75" />
			</g>
		</g>
		<g>
			<title>evdS10 (HXZ27_04105)
4,6-dehydratase</title>
			<polygon class="evdS10 (HXZ27_04105)
4,6-dehydratase" points="1576,25 1572,25 1572,10 1542,40 1572,70 1572,55 1576,55" fill="rgb(255,255,255)" fill-opacity="1.0" stroke="rgb(0,0,0)" stroke-width="2"  />
			<g>
				<title>GDP_Man_Dehyd (PF16363)
"GDP-mannose 4,6 dehydratase"</title>
				<polygon class="PF16363" points="1546,40 1558,28 1575,28 1575,52 1558,52" stroke-linejoin="round" width="31" height="24" fill="rgb(162,221,65)" stroke="rgb(129,176,51)" stroke-width="1" opacity="0.75" />
			</g>
		</g>
		<g>
			<title>evdX3 (HXZ27_04110)
RNA Methyltrasnferase</title>
			<polygon class="evdX3 (HXZ27_04110)
RNA Methyltrasnferase" points="1583,40 1608,10 1608,70" fill="rgb(255,255,255)" fill-opacity="1.0" stroke="rgb(0,0,0)" stroke-width="2"  />
			<g>
				<title>AviRa (PF11599)
"RRNA methyltransferase AviRa"</title>
				<polygon class="PF11599" points="1587,40 1597,28 1607,28 1607,52 1597,52" stroke-linejoin="round" width="23" height="24" fill="rgb(221,99,205)" stroke="rgb(176,79,163)" stroke-width="1" opacity="0.75" />
			</g>
		</g>
		<g>
			<title>evdS11 (HXZ27_04115)
UDP-glucose 4-epimerase</title>
			<polygon class="evdS11 (HXZ27_04115)
UDP-glucose 4-epimerase" points="1643,25 1642,25 1642,10 1612,40 1642,70 1642,55 1643,55" fill="rgb(255,255,255)" fill-opacity="1.0" stroke="rgb(0,0,0)" stroke-width="2"  />
			<g>
				<title>Epimerase (PF01370)
"NAD dependent epimerase/dehydratase family"</title>
				<polygon class="PF01370" points="1619,37 1628,28 1642,28 1642,52 1628,52 1619,43" stroke-linejoin="round" width="23" height="24" fill="rgb(98,102,214)" stroke="rgb(78,81,171)" stroke-width="1" opacity="0.75" />
			</g>
		</g>
		<g>
			<title>evdN1 (HXZ27_04120)
Nitrosynthase</title>
			<polygon class="evdN1 (HXZ27_04120)
Nitrosynthase" points="1656,25 1666,25 1666,10 1696,40 1666,70 1666,55 1656,55" fill="rgb(255,255,255)" fill-opacity="1.0" stroke="rgb(0,0,0)" stroke-width="2"  />
			<g>
				<title>Acyl-CoA_dh_N (PF02771)
"Acyl-CoA dehydrogenase, N-terminal domain"</title>
				<rect class="PF02771" x="1656" y="28" stroke-linejoin="round" width="10" height="24" fill="rgb(105,135,218)" stroke="rgb(84,108,174)" stroke-width="1" opacity="0.75" />
			</g>
			<g>
				<title>Acyl-CoA_dh_M (PF02770)
"Acyl-CoA dehydrogenase, middle domain"</title>
				<rect class="PF02770" x="1666" y="28" stroke-linejoin="round" width="9" height="24" fill="rgb(225,186,97)" stroke="rgb(180,148,77)" stroke-width="1" opacity="0.75" />
			</g>
			<g>
				<title>Acyl-CoA_dh_1 (PF00441)
"Acyl-CoA dehydrogenase, C-terminal domain"</title>
				<polygon class="PF00441" points="1678,28 1679,28 1691,40 1691,40 1679,52 1678,52" stroke-linejoin="round" width="13" height="24" fill="rgb(85,191,117)" stroke="rgb(68,152,93)" stroke-width="1" opacity="0.75" />
			</g>
		</g>
		<g>
			<title>evdS12 (HXZ27_04125)
3-aminotransferase</title>
			<polygon class="evdS12 (HXZ27_04125)
3-aminotransferase" points="1696,25 1703,25 1703,10 1733,40 1703,70 1703,55 1696,55" fill="rgb(255,255,255)" fill-opacity="1.0" stroke="rgb(0,0,0)" stroke-width="2"  />
			<g>
				<title>DegT_DnrJ_EryC1 (PF01041)
"DegT/DnrJ/EryC1/StrS aminotransferase family"</title>
				<polygon class="PF01041" points="1697,28 1717,28 1729,40 1717,52 1697,52" stroke-linejoin="round" width="35" height="24" fill="rgb(59,139,191)" stroke="rgb(47,111,152)" stroke-width="1" opacity="0.75" />
			</g>
		</g>
		<g>
			<title>evdM8 (HXZ27_04130)
A-ring C3 C-methyltransferase</title>
			<polygon class="evdM8 (HXZ27_04130)
A-ring C3 C-methyltransferase" points="1735,25 1746,25 1746,10 1776,40 1746,70 1746,55 1735,55" fill="rgb(255,255,255)" fill-opacity="1.0" stroke="rgb(0,0,0)" stroke-width="2"  />
			<g>
				<title>Methyltransf_13 (PF08421)
"Putative zinc binding domain"</title>
				<rect class="PF08421" x="1736" y="28" stroke-linejoin="round" width="5" height="24" fill="rgb(209,96,160)" stroke="rgb(167,76,128)" stroke-width="1" opacity="0.75" />
			</g>
			<g>
				<title>Methyltransf_23 (PF13489)
"Methyltransferase domain"</title>
				<rect class="PF13489" x="1743" y="28" stroke-linejoin="round" width="16" height="24" fill="rgb(188,189,66)" stroke="rgb(150,151,52)" stroke-width="1" opacity="0.75" />
			</g>
			<g>
				<title>Methyltransf_14 (PF08484)
"C-methyltransferase C-terminal domain"</title>
				<polygon class="PF08484" points="1760,28 1760,28 1772,40 1760,52 1760,52" stroke-linejoin="round" width="15" height="24" fill="rgb(229,72,107)" stroke="rgb(183,57,85)" stroke-width="1" opacity="0.75" />
			</g>
		</g>
		<g>
			<title>evdS13 (HXZ27_04133)
3,5 epimerase</title>
			<polygon class="evdS13 (HXZ27_04133)
3,5 epimerase" points="1777,10 1797,40 1777,70" fill="rgb(255,255,255)" fill-opacity="1.0" stroke="rgb(0,0,0)" stroke-width="2"  />
		</g>
		<g>
			<title>evdS14 (HXZ27_04135)
4-ketoreductase</title>
			<polygon class="evdS14 (HXZ27_04135)
4-ketoreductase" points="1829,25 1822,25 1822,10 1792,40 1822,70 1822,55 1829,55" fill="rgb(255,255,255)" fill-opacity="1.0" stroke="rgb(0,0,0)" stroke-width="2"  />
			<g>
				<title>Epimerase (PF01370)
"NAD dependent epimerase/dehydratase family"</title>
				<polygon class="PF01370" points="1804,32 1808,28 1827,28 1827,52 1808,52 1804,48" stroke-linejoin="round" width="23" height="24" fill="rgb(98,102,214)" stroke="rgb(78,81,171)" stroke-width="1" opacity="0.75" />
			</g>
		</g>
		<g>
			<title>evdM9 (HXZ27_04140)
A-ring C4 O-methyltransferase</title>
			<polygon class="evdM9 (HXZ27_04140)
A-ring C4 O-methyltransferase" points="1858,25 1858,25 1858,10 1828,40 1858,70 1858,55 1858,55" fill="rgb(255,255,255)" fill-opacity="1.0" stroke="rgb(0,0,0)" stroke-width="2"  />
		</g>
		<g>
			<title>evdU9 (HXZ27_04145)
Unknown</title>
			<polygon class="evdU9 (HXZ27_04145)
Unknown" points="1916,25 1895,25 1895,10 1865,40 1895,70 1895,55 1916,55" fill="rgb(255,255,255)" fill-opacity="1.0" stroke="rgb(0,0,0)" stroke-width="2"  />
			<g>
				<title>Cellulase (PF00150)
"Cellulase (glycosyl hydrolase family 5)"</title>
				<polygon class="PF00150" points="1869,40 1881,28 1896,28 1896,52 1881,52" stroke-linejoin="round" width="28" height="24" fill="rgb(189,82,188)" stroke="rgb(151,65,150)" stroke-width="1" opacity="0.75" />
			</g>
			<g>
				<title>CBM_2 (PF00553)
"Cellulose binding domain"</title>
				<rect class="PF00553" x="1903" y="28" stroke-linejoin="round" width="10" height="24" fill="rgb(224,89,220)" stroke="rgb(179,71,176)" stroke-width="1" opacity="0.75" />
			</g>
		</g>
		<g>
			<title>evdR2 (HXZ27_04150)
Regulator</title>
			<polygon class="evdR2 (HXZ27_04150)
Regulator" points="1919,40 1947,10 1947,70" fill="rgb(255,255,255)" fill-opacity="1.0" stroke="rgb(0,0,0)" stroke-width="2"  />
			<g>
				<title>Peripla_BP_3 (PF13377)
"Periplasmic binding protein-like domain"</title>
				<polygon class="PF13377" points="1923,40 1934,28 1935,28 1935,52 1934,52" stroke-linejoin="round" width="15" height="24" fill="rgb(101,208,189)" stroke="rgb(80,166,151)" stroke-width="1" opacity="0.75" />
			</g>
		</g>
		<g>
			<title>evdR3 (HXZ27_04155)
Regulator</title>
			<polygon class="evdR3 (HXZ27_04155)
Regulator" points="1991,25 1978,25 1978,10 1948,40 1978,70 1978,55 1991,55" fill="rgb(255,255,255)" fill-opacity="1.0" stroke="rgb(0,0,0)" stroke-width="2"  />
			<g>
				<title>ROK (PF00480)
"ROK family"</title>
				<polygon class="PF00480" points="1952,40 1964,28 1981,28 1981,52 1964,52" stroke-linejoin="round" width="31" height="24" fill="rgb(205,99,210)" stroke="rgb(163,79,168)" stroke-width="1" opacity="0.75" />
			</g>
		</g>
	</g>
</svg>
