<svg version="1.1" baseProfile="full" xmlns="http://www.w3.org/2000/svg" width="952.7666666666667" height="80">
	<g>
		<line x1="10" y1="40.0" x2="942.7666666666667" y2="40.0" style="stroke:rgb(70,70,70); stroke-width:3 "/>
		<g>
			<title>
glyoxalase</title>
			<polygon class="
glyoxalase" points="10,10 21,40 10,70" fill="rgb(255,255,255)" fill-opacity="1.0" stroke="rgb(0,0,0)" stroke-width="2"  />
		</g>
		<g>
			<title>belA
acetyltransferase</title>
			<polygon class="belA
acetyltransferase" points="23,40 42,10 42,70" fill="rgb(255,255,255)" fill-opacity="1.0" stroke="rgb(0,0,0)" stroke-width="2"  />
			<g>
				<title>Acetyltransf_3 (PF13302)
"Acetyltransferase (GNAT) domain"</title>
				<polygon class="PF13302" points="27,40 35,28 40,28 40,52 35,52 27,40" stroke-linejoin="round" width="13" height="24" fill="rgb(105,146,215)" stroke="rgb(84,116,172)" stroke-width="1" opacity="0.75" />
			</g>
		</g>
		<g>
			<title>belB
peptidase U61</title>
			<polygon class="belB
peptidase U61" points="75,25 75,25 75,10 45,40 75,70 75,55 75,55" fill="rgb(255,255,255)" fill-opacity="1.0" stroke="rgb(0,0,0)" stroke-width="2"  />
			<g>
				<title>Peptidase_S66C (PF17676)
"LD-carboxypeptidase C-terminal domain"</title>
				<polygon class="PF17676" points="49,40 57,32 57,48" stroke-linejoin="round" width="11" height="24" fill="rgb(72,81,192)" stroke="rgb(57,64,153)" stroke-width="1" opacity="0.75" />
			</g>
			<g>
				<title>Peptidase_S66 (PF02016)
"LD-carboxypeptidase N-terminal domain"</title>
				<rect class="PF02016" x="62" y="28" stroke-linejoin="round" width="12" height="24" fill="rgb(187,63,139)" stroke="rgb(149,50,111)" stroke-width="1" opacity="0.75" />
			</g>
		</g>
		<g>
			<title>belC
acyl-peptide hydrolase</title>
			<polygon class="belC
acyl-peptide hydrolase" points="140,25 105,25 105,10 75,40 105,70 105,55 140,55" fill="rgb(255,255,255)" fill-opacity="1.0" stroke="rgb(0,0,0)" stroke-width="2"  />
			<g>
				<title>Peptidase_S9 (PF00326)
"Prolyl oligopeptidase family"</title>
				<polygon class="PF00326" points="79,40 91,28 97,28 97,52 91,52" stroke-linejoin="round" width="21" height="24" fill="rgb(77,97,209)" stroke="rgb(61,77,167)" stroke-width="1" opacity="0.75" />
			</g>
			<g>
				<title>PD40 (PF07676)
"WD40-like Beta Propeller Repeat"</title>
				<rect class="PF07676" x="120" y="28" stroke-linejoin="round" width="1" height="24" fill="rgb(49,78,191)" stroke="rgb(39,62,152)" stroke-width="1" opacity="0.75" />
			</g>
		</g>
		<g>
			<title>belD
acetyl-ornithine deacetylase</title>
			<polygon class="belD
acetyl-ornithine deacetylase" points="184,25 171,25 171,10 141,40 171,70 171,55 184,55" fill="rgb(255,255,255)" fill-opacity="1.0" stroke="rgb(0,0,0)" stroke-width="2"  />
			<g>
				<title>Peptidase_M20 (PF01546)
"Peptidase family M20/M25/M40"</title>
				<polygon class="PF01546" points="145,40 157,28 176,28 176,52 157,52" stroke-linejoin="round" width="35" height="24" fill="rgb(88,213,108)" stroke="rgb(70,170,86)" stroke-width="1" opacity="0.75" />
			</g>
		</g>
		<g>
			<title>belE
ABC transporter substrate-binding protein</title>
			<polygon class="belE
ABC transporter substrate-binding protein" points="184,40 211,10 211,70" fill="rgb(255,255,255)" fill-opacity="1.0" stroke="rgb(0,0,0)" stroke-width="2"  />
			<g>
				<title>Peptidase_M55 (PF04951)
"D-aminopeptidase"</title>
				<polygon class="PF04951" points="188,40 199,28 211,28 211,52 199,52" stroke-linejoin="round" width="26" height="24" fill="rgb(94,138,195)" stroke="rgb(75,110,156)" stroke-width="1" opacity="0.75" />
			</g>
		</g>
		<g>
			<title>belF
3-isopropylmalate dehydratase small subunit</title>
			<polygon class="belF
3-isopropylmalate dehydratase small subunit" points="216,40 235,10 235,70" fill="rgb(255,255,255)" fill-opacity="1.0" stroke="rgb(0,0,0)" stroke-width="2"  />
			<g>
				<title>Aconitase_C (PF00694)
"Aconitase C-terminal domain"</title>
				<polygon class="PF00694" points="224,34 228,28 235,28 235,52 228,52 224,46" stroke-linejoin="round" width="11" height="24" fill="rgb(63,185,92)" stroke="rgb(50,148,73)" stroke-width="1" opacity="0.75" />
			</g>
		</g>
		<g>
			<title>belG
3-isopropylmalate dehydratase large subunit</title>
			<polygon class="belG
3-isopropylmalate dehydratase large subunit" points="282,25 266,25 266,10 236,40 266,70 266,55 282,55" fill="rgb(255,255,255)" fill-opacity="1.0" stroke="rgb(0,0,0)" stroke-width="2"  />
			<g>
				<title>Aconitase (PF00330)
"Aconitase family (aconitate hydratase)"</title>
				<polygon class="PF00330" points="240,40 252,28 280,28 280,52 252,52" stroke-linejoin="round" width="44" height="24" fill="rgb(180,189,85)" stroke="rgb(144,151,68)" stroke-width="1" opacity="0.75" />
			</g>
		</g>
		<g>
			<title>belH
AMP-dependent synthetase</title>
			<polygon class="belH
AMP-dependent synthetase" points="333,25 314,25 314,10 284,40 314,70 314,55 333,55" fill="rgb(255,255,255)" fill-opacity="1.0" stroke="rgb(0,0,0)" stroke-width="2"  />
			<g>
				<title>AMP-binding (PF00501)
"AMP-binding enzyme"</title>
				<polygon class="PF00501" points="293,35 300,28 331,28 331,52 300,52 293,45" stroke-linejoin="round" width="38" height="24" fill="rgb(60,217,223)" stroke="rgb(48,173,178)" stroke-width="1" opacity="0.75" />
			</g>
		</g>
		<g>
			<title>belI
SAM dependent methyltransferase</title>
			<polygon class="belI
SAM dependent methyltransferase" points="333,40 355,10 355,70" fill="rgb(255,255,255)" fill-opacity="1.0" stroke="rgb(0,0,0)" stroke-width="2"  />
			<g>
				<title>Methyltransf_25 (PF13649)
"Methyltransferase domain"</title>
				<polygon class="PF13649" points="341,35 346,28 350,28 350,52 346,52 341,45" stroke-linejoin="round" width="9" height="24" fill="rgb(227,135,74)" stroke="rgb(181,108,59)" stroke-width="1" opacity="0.75" />
			</g>
		</g>
		<g>
			<title>belJ
2-IPM synthase</title>
			<polygon class="belJ
2-IPM synthase" points="363,25 389,25 389,10 419,40 389,70 389,55 363,55" fill="rgb(255,255,255)" fill-opacity="1.0" stroke="rgb(0,0,0)" stroke-width="2"  />
			<g>
				<title>HMGL-like (PF00682)
"HMGL-like"</title>
				<rect class="PF00682" x="367" y="28" stroke-linejoin="round" width="28" height="24" fill="rgb(84,228,141)" stroke="rgb(67,182,112)" stroke-width="1" opacity="0.75" />
			</g>
		</g>
		<g>
			<title>belK
Iron-containing redox enzyme</title>
			<polygon class="belK
Iron-containing redox enzyme" points="428,25 433,25 433,10 463,40 433,70 433,55 428,55" fill="rgb(255,255,255)" fill-opacity="1.0" stroke="rgb(0,0,0)" stroke-width="2"  />
			<g>
				<title>Haem_oxygenas_2 (PF14518)
"Iron-containing redox enzyme"</title>
				<polygon class="PF14518" points="444,28 447,28 459,40 447,52 444,52" stroke-linejoin="round" width="17" height="24" fill="rgb(71,185,105)" stroke="rgb(56,148,84)" stroke-width="1" opacity="0.75" />
			</g>
		</g>
		<g>
			<title>belL
BsmA domain containing protein</title>
			<polygon class="belL
BsmA domain containing protein" points="465,10 488,40 465,70" fill="rgb(255,255,255)" fill-opacity="1.0" stroke="rgb(0,0,0)" stroke-width="2"  />
			<g>
				<title>2OG-Fe_Oxy_2 (PF10014)
"2OG-Fe dioxygenase"</title>
				<polygon class="PF10014" points="467,28 475,28 484,40 475,52 467,52" stroke-linejoin="round" width="18" height="24" fill="rgb(201,88,89)" stroke="rgb(160,70,71)" stroke-width="1" opacity="0.75" />
			</g>
		</g>
		<g>
			<title>belM
diaminopimelate epimerase</title>
			<polygon class="belM
diaminopimelate epimerase" points="487,10 516,40 487,70" fill="rgb(255,255,255)" fill-opacity="1.0" stroke="rgb(0,0,0)" stroke-width="2"  />
			<g>
				<title>DAP_epimerase (PF01678)
"Diaminopimelate epimerase"</title>
				<rect class="PF01678" x="487" y="28" stroke-linejoin="round" width="12" height="24" fill="rgb(111,196,62)" stroke="rgb(88,156,49)" stroke-width="1" opacity="0.75" />
			</g>
			<g>
				<title>DAP_epimerase (PF01678)
"Diaminopimelate epimerase"</title>
				<polygon class="PF01678" points="502,30 511,40 502,50" stroke-linejoin="round" width="11" height="24" fill="rgb(111,196,62)" stroke="rgb(88,156,49)" stroke-width="1" opacity="0.75" />
			</g>
		</g>
		<g>
			<title>belN
molybdopterin oxidoreductase</title>
			<polygon class="belN
molybdopterin oxidoreductase" points="516,25 555,25 555,10 585,40 555,70 555,55 516,55" fill="rgb(255,255,255)" fill-opacity="1.0" stroke="rgb(0,0,0)" stroke-width="2"  />
			<g>
				<title>Molybdop_Fe4S4 (PF04879)
"Molybdopterin oxidoreductase Fe4S4 domain"</title>
				<rect class="PF04879" x="517" y="28" stroke-linejoin="round" width="5" height="24" fill="rgb(186,68,186)" stroke="rgb(148,54,148)" stroke-width="1" opacity="0.75" />
			</g>
			<g>
				<title>Molybdopterin (PF00384)
"Molybdopterin oxidoreductase"</title>
				<rect class="PF00384" x="523" y="28" stroke-linejoin="round" width="40" height="24" fill="rgb(65,194,78)" stroke="rgb(52,155,62)" stroke-width="1" opacity="0.75" />
			</g>
			<g>
				<title>Molydop_binding (PF01568)
"Molydopterin dinucleotide binding domain"</title>
				<polygon class="PF01568" points="573,32 581,40 573,48" stroke-linejoin="round" width="11" height="24" fill="rgb(184,132,64)" stroke="rgb(147,105,51)" stroke-width="1" opacity="0.75" />
			</g>
		</g>
		<g>
			<title>belO
LysR family transcription regulator</title>
			<polygon class="belO
LysR family transcription regulator" points="589,40 618,10 618,70" fill="rgb(255,255,255)" fill-opacity="1.0" stroke="rgb(0,0,0)" stroke-width="2"  />
			<g>
				<title>LysR_substrate (PF03466)
"LysR substrate binding domain"</title>
				<polygon class="PF03466" points="595,38 605,28 609,28 609,52 605,52 595,42" stroke-linejoin="round" width="14" height="24" fill="rgb(55,136,195)" stroke="rgb(44,108,156)" stroke-width="1" opacity="0.75" />
			</g>
			<g>
				<title>HTH_1 (PF00126)
"Bacterial regulatory helix-turn-helix protein, lysR family"</title>
				<rect class="PF00126" x="612" y="28" stroke-linejoin="round" width="5" height="24" fill="rgb(125,227,79)" stroke="rgb(99,181,63)" stroke-width="1" opacity="0.75" />
			</g>
		</g>
		<g>
			<title>belP
LuxR family transcription regulator</title>
			<polygon class="belP
LuxR family transcription regulator" points="621,40 631,10 631,70" fill="rgb(255,255,255)" fill-opacity="1.0" stroke="rgb(0,0,0)" stroke-width="2"  />
			<g>
				<title>GerE (PF00196)
"Bacterial regulatory proteins, luxR family"</title>
				<polygon class="PF00196" points="624,40 628,28 628,28 628,52 628,52" stroke-linejoin="round" width="5" height="24" fill="rgb(219,94,82)" stroke="rgb(175,75,65)" stroke-width="1" opacity="0.75" />
			</g>
		</g>
		<g>
			<title>belQ
XRE family transcription regulator</title>
			<polygon class="belQ
XRE family transcription regulator" points="645,40 674,10 674,70" fill="rgb(255,255,255)" fill-opacity="1.0" stroke="rgb(0,0,0)" stroke-width="2"  />
			<g>
				<title>MLTR_LBD (PF17765)
"MmyB-like transcription regulator ligand binding domain"</title>
				<polygon class="PF17765" points="649,40 661,28 663,28 663,52 661,52" stroke-linejoin="round" width="17" height="24" fill="rgb(190,109,59)" stroke="rgb(152,87,47)" stroke-width="1" opacity="0.75" />
			</g>
			<g>
				<title>HTH_31 (PF13560)
"Helix-turn-helix domain"</title>
				<rect class="PF13560" x="665" y="28" stroke-linejoin="round" width="7" height="24" fill="rgb(207,145,90)" stroke="rgb(165,116,72)" stroke-width="1" opacity="0.75" />
			</g>
		</g>
		<g>
			<title>belR
methylesterase</title>
			<polygon class="belR
methylesterase" points="697,10 724,40 697,70" fill="rgb(255,255,255)" fill-opacity="1.0" stroke="rgb(0,0,0)" stroke-width="2"  />
			<g>
				<title>Abhydrolase_1 (PF00561)
"alpha/beta hydrolase fold"</title>
				<polygon class="PF00561" points="698,28 708,28 719,40 708,52 698,52" stroke-linejoin="round" width="23" height="24" fill="rgb(86,180,151)" stroke="rgb(68,144,120)" stroke-width="1" opacity="0.75" />
			</g>
		</g>
		<g>
			<title>belS
MFS transporter</title>
			<polygon class="belS
MFS transporter" points="724,25 740,25 740,10 770,40 740,70 740,55 724,55" fill="rgb(255,255,255)" fill-opacity="1.0" stroke="rgb(0,0,0)" stroke-width="2"  />
			<g>
				<title>MFS_1 (PF07690)
"Major Facilitator Superfamily"</title>
				<polygon class="PF07690" points="725,28 754,28 764,38 764,42 754,52 725,52" stroke-linejoin="round" width="39" height="24" fill="rgb(193,224,74)" stroke="rgb(154,179,59)" stroke-width="1" opacity="0.75" />
			</g>
		</g>
		<g>
			<title>belT
1,4-beta-xylanase</title>
			<polygon class="belT
1,4-beta-xylanase" points="785,25 790,25 790,10 820,40 790,70 790,55 785,55" fill="rgb(255,255,255)" fill-opacity="1.0" stroke="rgb(0,0,0)" stroke-width="2"  />
			<g>
				<title>Glyco_hydro_11 (PF00457)
"Glycosyl hydrolases family 11"</title>
				<polygon class="PF00457" points="790,28 803,28 807,32 807,48 803,52 790,52" stroke-linejoin="round" width="17" height="24" fill="rgb(204,165,59)" stroke="rgb(163,132,47)" stroke-width="1" opacity="0.75" />
			</g>
			<g>
				<title>CBM_2 (PF00553)
"Cellulose binding domain"</title>
				<polygon class="PF00553" points="810,35 815,40 810,45" stroke-linejoin="round" width="9" height="24" fill="rgb(224,89,220)" stroke="rgb(179,71,176)" stroke-width="1" opacity="0.75" />
			</g>
		</g>
		<g>
			<title>belU
ATP-dependent carboxylate-amide ligase</title>
			<polygon class="belU
ATP-dependent carboxylate-amide ligase" points="871,25 859,25 859,10 829,40 859,70 859,55 871,55" fill="rgb(255,255,255)" fill-opacity="1.0" stroke="rgb(0,0,0)" stroke-width="2"  />
			<g>
				<title>ATP-grasp_4 (PF13535)
"ATP-grasp domain"</title>
				<polygon class="PF13535" points="840,33 845,28 856,28 856,52 845,52 840,47" stroke-linejoin="round" width="16" height="24" fill="rgb(197,156,74)" stroke="rgb(157,124,59)" stroke-width="1" opacity="0.75" />
			</g>
		</g>
		<g>
			<title>belV
AMP-dependent synthetase</title>
			<polygon class="belV
AMP-dependent synthetase" points="877,25 886,25 886,10 916,40 886,70 886,55 877,55" fill="rgb(255,255,255)" fill-opacity="1.0" stroke="rgb(0,0,0)" stroke-width="2"  />
			<g>
				<title>AMP-binding (PF00501)
"AMP-binding enzyme"</title>
				<polygon class="PF00501" points="878,28 899,28 903,32 903,48 899,52 878,52" stroke-linejoin="round" width="25" height="24" fill="rgb(60,217,223)" stroke="rgb(48,173,178)" stroke-width="1" opacity="0.75" />
			</g>
		</g>
		<g>
			<title>
SAM-dependent methyltransferase</title>
			<polygon class="
SAM-dependent methyltransferase" points="918,40 942,10 942,70" fill="rgb(255,255,255)" fill-opacity="1.0" stroke="rgb(0,0,0)" stroke-width="2"  />
			<g>
				<title>Methyltransf_25 (PF13649)
"Methyltransferase domain"</title>
				<polygon class="PF13649" points="927,34 932,28 936,28 936,52 932,52 927,46" stroke-linejoin="round" width="9" height="24" fill="rgb(227,135,74)" stroke="rgb(181,108,59)" stroke-width="1" opacity="0.75" />
			</g>
		</g>
	</g>
</svg>
