<svg version="1.1" baseProfile="full" xmlns="http://www.w3.org/2000/svg" width="264.26666666666665" height="80">
	<g>
		<line x1="10" y1="40.0" x2="254.26666666666668" y2="40.0" style="stroke:rgb(70,70,70); stroke-width:3 "/>
		<g>
			<title>SCO2780
Ferric-siderophore lipoprotein receptor</title>
			<polygon class="SCO2780
Ferric-siderophore lipoprotein receptor" points="10,25 15,25 15,10 45,40 15,70 15,55 10,55" fill="rgb(255,255,255)" fill-opacity="1.0" stroke="rgb(0,0,0)" stroke-width="2"  />
			<g>
				<title>Peripla_BP_2 (PF01497)
"Periplasmic binding protein"</title>
				<polygon class="PF01497" points="17,28 28,28 40,40 28,52 17,52" stroke-linejoin="round" width="25" height="24" fill="rgb(183,226,104)" stroke="rgb(146,180,83)" stroke-width="1" opacity="0.75" />
			</g>
		</g>
		<g>
			<title>SCO2781
Ferric-siderophore hydrolase</title>
			<polygon class="SCO2781
Ferric-siderophore hydrolase" points="52,10 80,40 52,70" fill="rgb(255,255,255)" fill-opacity="1.0" stroke="rgb(0,0,0)" stroke-width="2"  />
			<g>
				<title>FAD_binding_9 (PF08021)
"Siderophore-interacting FAD-binding domain"</title>
				<polygon class="PF08021" points="53,28 64,28 66,30 66,50 64,52 53,52" stroke-linejoin="round" width="13" height="24" fill="rgb(58,190,106)" stroke="rgb(46,152,84)" stroke-width="1" opacity="0.75" />
			</g>
			<g>
				<title>SIP (PF04954)
"Siderophore-interacting protein"</title>
				<polygon class="PF04954" points="67,31 76,40 67,49" stroke-linejoin="round" width="11" height="24" fill="rgb(75,222,95)" stroke="rgb(60,177,76)" stroke-width="1" opacity="0.75" />
			</g>
		</g>
		<g>
			<title>SCO2782
putative pyridoxal-dependent decarboxylase</title>
			<polygon class="SCO2782
putative pyridoxal-dependent decarboxylase" points="86,25 104,25 104,10 134,40 104,70 104,55 86,55" fill="rgb(255,255,255)" fill-opacity="1.0" stroke="rgb(0,0,0)" stroke-width="2"  />
			<g>
				<title>Pyridoxal_deC (PF00282)
"Pyridoxal-dependent decarboxylase conserved domain"</title>
				<polygon class="PF00282" points="90,28 117,28 125,36 125,44 117,52 90,52" stroke-linejoin="round" width="35" height="24" fill="rgb(100,218,166)" stroke="rgb(80,174,132)" stroke-width="1" opacity="0.75" />
			</g>
		</g>
		<g>
			<title>SCO2783
putative monooxygenase</title>
			<polygon class="SCO2783
putative monooxygenase" points="135,25 146,25 146,10 176,40 146,70 146,55 135,55" fill="rgb(255,255,255)" fill-opacity="1.0" stroke="rgb(0,0,0)" stroke-width="2"  />
			<g>
				<title>Lys_Orn_oxgnase (PF13434)
"L-lysine 6-monooxygenase/L-ornithine 5-monooxygenase"</title>
				<polygon class="PF13434" points="135,28 160,28 167,35 167,45 160,52 135,52" stroke-linejoin="round" width="32" height="24" fill="rgb(81,213,119)" stroke="rgb(64,170,95)" stroke-width="1" opacity="0.75" />
			</g>
		</g>
		<g>
			<title>SCO2784
Acyl CoA acyl transferase</title>
			<polygon class="SCO2784
Acyl CoA acyl transferase" points="176,10 194,40 176,70" fill="rgb(255,255,255)" fill-opacity="1.0" stroke="rgb(0,0,0)" stroke-width="2"  />
			<g>
				<title>Acetyltransf_8 (PF13523)
"Acetyltransferase (GNAT) domain"</title>
				<polygon class="PF13523" points="177,28 183,28 190,40 183,52 177,52" stroke-linejoin="round" width="14" height="24" fill="rgb(106,224,203)" stroke="rgb(84,179,162)" stroke-width="1" opacity="0.75" />
			</g>
		</g>
		<g>
			<title>SCO2785
ATP-dependent siderophore synthetase (IucA-IucC family)</title>
			<polygon class="SCO2785
ATP-dependent siderophore synthetase (IucA-IucC family)" points="194,25 223,25 223,10 253,40 223,70 223,55 194,55" fill="rgb(255,255,255)" fill-opacity="1.0" stroke="rgb(0,0,0)" stroke-width="2"  />
			<g>
				<title>IucA_IucC (PF04183)
"IucA / IucC family"</title>
				<rect class="PF04183" x="208" y="28" stroke-linejoin="round" width="25" height="24" fill="rgb(221,104,121)" stroke="rgb(176,83,96)" stroke-width="1" opacity="0.75" />
			</g>
			<g>
				<title>FhuF (PF06276)
"Ferric iron reductase FhuF-like transporter"</title>
				<polygon class="PF06276" points="235,28 237,28 249,40 237,52 235,52" stroke-linejoin="round" width="15" height="24" fill="rgb(76,151,221)" stroke="rgb(60,120,176)" stroke-width="1" opacity="0.75" />
			</g>
		</g>
	</g>
</svg>
