<svg version="1.1" baseProfile="full" xmlns="http://www.w3.org/2000/svg" width="559.3666666666667" height="80">
	<g>
		<line x1="10" y1="40.0" x2="549.3666666666667" y2="40.0" style="stroke:rgb(70,70,70); stroke-width:3 "/>
		<g>
			<title>CYP3 (UMAG_05074)
putative cytochrome P450 monooxygenase</title>
			<polygon class="CYP3 (UMAG_05074)
putative cytochrome P450 monooxygenase" points="77,25 43,25 43,10 13,40 43,70 43,55 77,55" fill="rgb(255,255,255)" fill-opacity="1.0" stroke="rgb(0,0,0)" stroke-width="2"  />
			<g>
				<title>p450 (PF00067)
"Cytochrome P450"</title>
				<polygon class="PF00067" points="24,33 29,28 70,28 70,52 29,52 24,47" stroke-linejoin="round" width="46" height="24" fill="rgb(85,216,107)" stroke="rgb(68,172,85)" stroke-width="1" opacity="0.75" />
			</g>
		</g>
		<g>
			<title>RDO1 (UMAG_12299)
putative ring-cleaving dioxygenase 1</title>
			<polygon class="RDO1 (UMAG_12299)
putative ring-cleaving dioxygenase 1" points="108,10 136,40 108,70" fill="rgb(255,255,255)" fill-opacity="1.0" stroke="rgb(0,0,0)" stroke-width="2"  />
			<g>
				<title>Glyoxalase (PF00903)
"Glyoxalase/Bleomycin resistance protein/Dioxygenase superfamily"</title>
				<polygon class="PF00903" points="113,28 120,28 124,32 124,48 120,52 113,52" stroke-linejoin="round" width="11" height="24" fill="rgb(50,162,189)" stroke="rgb(40,129,151)" stroke-width="1" opacity="0.75" />
			</g>
		</g>
		<g>
			<title>TAD1 (UMAG_05076)
trans-aconitate decarboxylase 1</title>
			<polygon class="TAD1 (UMAG_05076)
trans-aconitate decarboxylase 1" points="202,25 183,25 183,10 153,40 183,70 183,55 202,55" fill="rgb(255,255,255)" fill-opacity="1.0" stroke="rgb(0,0,0)" stroke-width="2"  />
			<g>
				<title>ADSL_C (PF10397)
"Adenylosuccinate lyase C-terminus"</title>
				<polygon class="PF10397" points="157,40 160,37 160,43" stroke-linejoin="round" width="7" height="24" fill="rgb(198,156,85)" stroke="rgb(158,124,68)" stroke-width="1" opacity="0.75" />
			</g>
			<g>
				<title>Lyase_1 (PF00206)
"Lyase"</title>
				<polygon class="PF00206" points="167,30 169,28 195,28 195,52 169,52 167,50" stroke-linejoin="round" width="28" height="24" fill="rgb(217,92,141)" stroke="rgb(173,73,112)" stroke-width="1" opacity="0.75" />
			</g>
		</g>
		<g>
			<title>ITP1 (UMAG_11777)
itaconate transport protein 1</title>
			<polygon class="ITP1 (UMAG_11777)
itaconate transport protein 1" points="297,25 267,25 267,10 237,40 267,70 267,55 297,55" fill="rgb(255,255,255)" fill-opacity="1.0" stroke="rgb(0,0,0)" stroke-width="2"  />
			<g>
				<title>MFS_1 (PF07690)
"Major Facilitator Superfamily"</title>
				<polygon class="PF07690" points="253,28 253,28 292,28 292,52 253,52 253,52" stroke-linejoin="round" width="39" height="24" fill="rgb(193,224,74)" stroke="rgb(154,179,59)" stroke-width="1" opacity="0.75" />
			</g>
		</g>
		<g>
			<title>ADI1 (UMAG_11778)
aconitate-delta-isomerase 1</title>
			<polygon class="ADI1 (UMAG_11778)
aconitate-delta-isomerase 1" points="340,25 357,25 357,10 387,40 357,70 357,55 340,55" fill="rgb(255,255,255)" fill-opacity="1.0" stroke="rgb(0,0,0)" stroke-width="2"  />
			<g>
				<title>PrpF (PF04303)
"PrpF protein"</title>
				<polygon class="PF04303" points="340,28 370,28 375,33 375,47 370,52 340,52" stroke-linejoin="round" width="35" height="24" fill="rgb(79,211,187)" stroke="rgb(63,168,149)" stroke-width="1" opacity="0.75" />
			</g>
		</g>
		<g>
			<title>MTT1 (UMAG_05079)
mitochondrial tricarboxylate transporter</title>
			<polygon class="MTT1 (UMAG_05079)
mitochondrial tricarboxylate transporter" points="415,25 426,25 426,10 456,40 426,70 426,55 415,55" fill="rgb(255,255,255)" fill-opacity="1.0" stroke="rgb(0,0,0)" stroke-width="2"  />
			<g>
				<title>Mito_carr (PF00153)
"Mitochondrial carrier protein"</title>
				<rect class="PF00153" x="415" y="28" stroke-linejoin="round" width="9" height="24" fill="rgb(159,187,84)" stroke="rgb(127,149,67)" stroke-width="1" opacity="0.75" />
			</g>
			<g>
				<title>Mito_carr (PF00153)
"Mitochondrial carrier protein"</title>
				<rect class="PF00153" x="425" y="28" stroke-linejoin="round" width="9" height="24" fill="rgb(159,187,84)" stroke="rgb(127,149,67)" stroke-width="1" opacity="0.75" />
			</g>
			<g>
				<title>Mito_carr (PF00153)
"Mitochondrial carrier protein"</title>
				<polygon class="PF00153" points="435,28 439,28 444,33 444,47 439,52 435,52" stroke-linejoin="round" width="9" height="24" fill="rgb(159,187,84)" stroke="rgb(127,149,67)" stroke-width="1" opacity="0.75" />
			</g>
		</g>
		<g>
			<title>RIA1 (UMAG_05080)
regulator of itaconic acid biosynthesis 1</title>
			<polygon class="RIA1 (UMAG_05080)
regulator of itaconic acid biosynthesis 1" points="508,25 497,25 497,10 467,40 497,70 497,55 508,55" fill="rgb(255,255,255)" fill-opacity="1.0" stroke="rgb(0,0,0)" stroke-width="2"  />
			<g>
				<title>HLH (PF00010)
"Helix-loop-helix DNA-binding domain"</title>
				<rect class="PF00010" x="494" y="28" stroke-linejoin="round" width="5" height="24" fill="rgb(222,56,154)" stroke="rgb(177,44,123)" stroke-width="1" opacity="0.75" />
			</g>
		</g>
	</g>
</svg>
