<svg version="1.1" baseProfile="full" xmlns="http://www.w3.org/2000/svg" width="1406.2333333333333" height="80">
	<g>
		<line x1="10" y1="40.0" x2="1396.2333333333333" y2="40.0" style="stroke:rgb(70,70,70); stroke-width:3 "/>
		<g>
			<title></title>
			<polygon class="" points="34,25 46,25 46,10 76,40 46,70 46,55 34,55" fill="rgb(255,255,255)" fill-opacity="1.0" stroke="rgb(0,0,0)" stroke-width="2"  />
			<g>
				<title>Thiolase_N (PF00108)
"Thiolase, N-terminal domain"</title>
				<rect class="PF00108" x="34" y="28" stroke-linejoin="round" width="26" height="24" fill="rgb(82,90,195)" stroke="rgb(65,72,156)" stroke-width="1" opacity="0.75" />
			</g>
			<g>
				<title>Thiolase_C (PF02803)
"Thiolase, C-terminal domain"</title>
				<polygon class="PF02803" points="62,30 72,40 62,50" stroke-linejoin="round" width="14" height="24" fill="rgb(218,187,56)" stroke="rgb(174,149,44)" stroke-width="1" opacity="0.75" />
			</g>
		</g>
		<g>
			<title></title>
			<polygon class="" points="139,25 114,25 114,10 84,40 114,70 114,55 139,55" fill="rgb(255,255,255)" fill-opacity="1.0" stroke="rgb(0,0,0)" stroke-width="2"  />
			<g>
				<title>Asn_synthase (PF00733)
"Asparagine synthase"</title>
				<polygon class="PF00733" points="88,40 100,28 118,28 118,52 100,52" stroke-linejoin="round" width="32" height="24" fill="rgb(97,201,176)" stroke="rgb(77,160,140)" stroke-width="1" opacity="0.75" />
			</g>
			<g>
				<title>GATase_7 (PF13537)
"Glutamine amidotransferase domain"</title>
				<rect class="PF13537" x="122" y="28" stroke-linejoin="round" width="11" height="24" fill="rgb(200,63,57)" stroke="rgb(160,50,45)" stroke-width="1" opacity="0.75" />
			</g>
		</g>
		<g>
			<title></title>
			<polygon class="" points="160,25 161,25 161,10 191,40 161,70 161,55 160,55" fill="rgb(255,255,255)" fill-opacity="1.0" stroke="rgb(0,0,0)" stroke-width="2"  />
			<g>
				<title>Lip_A_acyltrans (PF03279)
"Bacterial lipid A biosynthesis acyltransferase"</title>
				<polygon class="PF03279" points="161,28 175,28 187,40 175,52 161,52" stroke-linejoin="round" width="29" height="24" fill="rgb(95,219,149)" stroke="rgb(76,175,119)" stroke-width="1" opacity="0.75" />
			</g>
		</g>
		<g>
			<title></title>
			<polygon class="" points="204,25 221,25 221,10 251,40 221,70 221,55 204,55" fill="rgb(255,255,255)" fill-opacity="1.0" stroke="rgb(0,0,0)" stroke-width="2"  />
			<g>
				<title>PK (PF00224)
"Pyruvate kinase, barrel domain"</title>
				<polygon class="PF00224" points="204,28 234,28 238,32 238,48 234,52 204,52" stroke-linejoin="round" width="34" height="24" fill="rgb(90,209,79)" stroke="rgb(72,167,63)" stroke-width="1" opacity="0.75" />
			</g>
			<g>
				<title>PK_C (PF02887)
"Pyruvate kinase, alpha/beta domain"</title>
				<polygon class="PF02887" points="239,33 246,40 239,47" stroke-linejoin="round" width="11" height="24" fill="rgb(157,190,51)" stroke="rgb(125,152,40)" stroke-width="1" opacity="0.75" />
			</g>
		</g>
		<g>
			<title></title>
			<polygon class="" points="257,10 285,40 257,70" fill="rgb(255,255,255)" fill-opacity="1.0" stroke="rgb(0,0,0)" stroke-width="2"  />
			<g>
				<title>Patatin (PF01734)
"Patatin-like phospholipase"</title>
				<polygon class="PF01734" points="258,28 269,28 273,32 273,48 269,52 258,52" stroke-linejoin="round" width="15" height="24" fill="rgb(200,132,98)" stroke="rgb(160,105,78)" stroke-width="1" opacity="0.75" />
			</g>
		</g>
		<g>
			<title></title>
			<polygon class="" points="290,10 297,40 290,70" fill="rgb(255,255,255)" fill-opacity="1.0" stroke="rgb(0,0,0)" stroke-width="2"  />
			<g>
				<title>VF530 (PF09905)
"DNA-binding protein VF530"</title>
				<polygon class="PF09905" points="290,28 290,28 294,40 290,52 290,52" stroke-linejoin="round" width="6" height="24" fill="rgb(108,210,95)" stroke="rgb(86,168,76)" stroke-width="1" opacity="0.75" />
			</g>
		</g>
		<g>
			<title></title>
			<polygon class="" points="305,10 318,40 305,70" fill="rgb(255,255,255)" fill-opacity="1.0" stroke="rgb(0,0,0)" stroke-width="2"  />
			<g>
				<title>4HBT (PF03061)
"Thioesterase superfamily"</title>
				<polygon class="PF03061" points="306,28 309,28 314,38 314,42 309,52 306,52" stroke-linejoin="round" width="8" height="24" fill="rgb(143,103,215)" stroke="rgb(114,82,172)" stroke-width="1" opacity="0.75" />
			</g>
		</g>
		<g>
			<title></title>
			<polygon class="" points="343,25 578,25 578,10 608,40 578,70 578,55 343,55" fill="rgb(255,255,255)" fill-opacity="1.0" stroke="rgb(0,0,0)" stroke-width="2"  />
			<g>
				<title>ketoacyl-synt (PF00109)
"Beta-ketoacyl synthase, N-terminal domain"</title>
				<rect class="PF00109" x="345" y="28" stroke-linejoin="round" width="27" height="24" fill="rgb(112,116,228)" stroke="rgb(89,92,182)" stroke-width="1" opacity="0.75" />
			</g>
			<g>
				<title>Ketoacyl-synt_C (PF02801)
"Beta-ketoacyl synthase, C-terminal domain"</title>
				<rect class="PF02801" x="374" y="28" stroke-linejoin="round" width="11" height="24" fill="rgb(215,78,102)" stroke="rgb(172,62,81)" stroke-width="1" opacity="0.75" />
			</g>
			<g>
				<title>KAsynt_C_assoc (PF16197)
"Ketoacyl-synthetase C-terminal extension"</title>
				<rect class="PF16197" x="386" y="28" stroke-linejoin="round" width="10" height="24" fill="rgb(240,150,172)" stroke="rgb(192,120,137)" stroke-width="1" opacity="0.75" />
			</g>
			<g>
				<title>Acyl_transf_1 (PF00698)
"Acyl transferase domain"</title>
				<rect class="PF00698" x="403" y="28" stroke-linejoin="round" width="33" height="24" fill="rgb(59,176,209)" stroke="rgb(47,140,167)" stroke-width="1" opacity="0.75" />
			</g>
			<g>
				<title>PP-binding (PF00550)
"Phosphopantetheine attachment site"</title>
				<rect class="PF00550" x="469" y="28" stroke-linejoin="round" width="6" height="24" fill="rgb(103,191,88)" stroke="rgb(82,152,70)" stroke-width="1" opacity="0.75" />
			</g>
			<g>
				<title>PP-binding (PF00550)
"Phosphopantetheine attachment site"</title>
				<rect class="PF00550" x="479" y="28" stroke-linejoin="round" width="6" height="24" fill="rgb(103,191,88)" stroke="rgb(82,152,70)" stroke-width="1" opacity="0.75" />
			</g>
			<g>
				<title>PP-binding (PF00550)
"Phosphopantetheine attachment site"</title>
				<rect class="PF00550" x="489" y="28" stroke-linejoin="round" width="6" height="24" fill="rgb(103,191,88)" stroke="rgb(82,152,70)" stroke-width="1" opacity="0.75" />
			</g>
			<g>
				<title>PP-binding (PF00550)
"Phosphopantetheine attachment site"</title>
				<rect class="PF00550" x="499" y="28" stroke-linejoin="round" width="6" height="24" fill="rgb(103,191,88)" stroke="rgb(82,152,70)" stroke-width="1" opacity="0.75" />
			</g>
			<g>
				<title>PP-binding (PF00550)
"Phosphopantetheine attachment site"</title>
				<rect class="PF00550" x="510" y="28" stroke-linejoin="round" width="6" height="24" fill="rgb(103,191,88)" stroke="rgb(82,152,70)" stroke-width="1" opacity="0.75" />
			</g>
			<g>
				<title>KR (PF08659)
"KR domain"</title>
				<rect class="PF08659" x="546" y="28" stroke-linejoin="round" width="22" height="24" fill="rgb(66,209,188)" stroke="rgb(52,167,150)" stroke-width="1" opacity="0.75" />
			</g>
			<g>
				<title>PS-DH (PF14765)
"Polyketide synthase dehydratase"</title>
				<polygon class="PF14765" points="578,28 592,28 604,40 592,52 578,52" stroke-linejoin="round" width="29" height="24" fill="rgb(173,56,182)" stroke="rgb(138,44,145)" stroke-width="1" opacity="0.75" />
			</g>
		</g>
		<g>
			<title></title>
			<polygon class="" points="614,25 670,25 670,10 700,40 670,70 670,55 614,55" fill="rgb(255,255,255)" fill-opacity="1.0" stroke="rgb(0,0,0)" stroke-width="2"  />
			<g>
				<title>Ketoacyl-synt_C (PF02801)
"Beta-ketoacyl synthase, C-terminal domain"</title>
				<rect class="PF02801" x="632" y="28" stroke-linejoin="round" width="11" height="24" fill="rgb(215,78,102)" stroke="rgb(172,62,81)" stroke-width="1" opacity="0.75" />
			</g>
		</g>
		<g>
			<title></title>
			<polygon class="" points="704,25 875,25 875,10 905,40 875,70 875,55 704,55" fill="rgb(255,255,255)" fill-opacity="1.0" stroke="rgb(0,0,0)" stroke-width="2"  />
			<g>
				<title>ketoacyl-synt (PF00109)
"Beta-ketoacyl synthase, N-terminal domain"</title>
				<rect class="PF00109" x="704" y="28" stroke-linejoin="round" width="27" height="24" fill="rgb(112,116,228)" stroke="rgb(89,92,182)" stroke-width="1" opacity="0.75" />
			</g>
			<g>
				<title>Ketoacyl-synt_C (PF02801)
"Beta-ketoacyl synthase, C-terminal domain"</title>
				<rect class="PF02801" x="732" y="28" stroke-linejoin="round" width="11" height="24" fill="rgb(215,78,102)" stroke="rgb(172,62,81)" stroke-width="1" opacity="0.75" />
			</g>
			<g>
				<title>ketoacyl-synt (PF00109)
"Beta-ketoacyl synthase, N-terminal domain"</title>
				<rect class="PF00109" x="750" y="28" stroke-linejoin="round" width="29" height="24" fill="rgb(112,116,228)" stroke="rgb(89,92,182)" stroke-width="1" opacity="0.75" />
			</g>
			<g>
				<title>Ketoacyl-synt_C (PF02801)
"Beta-ketoacyl synthase, C-terminal domain"</title>
				<rect class="PF02801" x="780" y="28" stroke-linejoin="round" width="10" height="24" fill="rgb(215,78,102)" stroke="rgb(172,62,81)" stroke-width="1" opacity="0.75" />
			</g>
			<g>
				<title>FabA (PF07977)
"FabA-like domain"</title>
				<rect class="PF07977" x="843" y="28" stroke-linejoin="round" width="13" height="24" fill="rgb(66,205,188)" stroke="rgb(52,164,150)" stroke-width="1" opacity="0.75" />
			</g>
			<g>
				<title>FabA (PF07977)
"FabA-like domain"</title>
				<polygon class="PF07977" points="890,30 900,40 890,50" stroke-linejoin="round" width="13" height="24" fill="rgb(66,205,188)" stroke="rgb(52,164,150)" stroke-width="1" opacity="0.75" />
			</g>
		</g>
		<g>
			<title></title>
			<polygon class="" points="913,25 936,25 936,10 966,40 936,70 936,55 913,55" fill="rgb(255,255,255)" fill-opacity="1.0" stroke="rgb(0,0,0)" stroke-width="2"  />
			<g>
				<title>PfaD_N (PF18328)
"Fatty acid synthase subunit PfaD N-terminal domain"</title>
				<rect class="PF18328" x="914" y="28" stroke-linejoin="round" width="5" height="24" fill="rgb(143,220,82)" stroke="rgb(114,176,65)" stroke-width="1" opacity="0.75" />
			</g>
			<g>
				<title>NMO (PF03060)
"Nitronate monooxygenase"</title>
				<polygon class="PF03060" points="921,28 950,28 951,29 951,51 950,52 921,52" stroke-linejoin="round" width="30" height="24" fill="rgb(100,193,226)" stroke="rgb(80,154,180)" stroke-width="1" opacity="0.75" />
			</g>
		</g>
		<g>
			<title></title>
			<polygon class="" points="975,10 1003,40 975,70" fill="rgb(255,255,255)" fill-opacity="1.0" stroke="rgb(0,0,0)" stroke-width="2"  />
			<g>
				<title>Beta-lactamase2 (PF13354)
"Beta-lactamase enzyme family"</title>
				<polygon class="PF13354" points="979,28 987,28 999,40 987,52 979,52" stroke-linejoin="round" width="21" height="24" fill="rgb(72,61,190)" stroke="rgb(57,48,152)" stroke-width="1" opacity="0.75" />
			</g>
		</g>
		<g>
			<title></title>
			<polygon class="" points="1017,10 1026,40 1017,70" fill="rgb(255,255,255)" fill-opacity="1.0" stroke="rgb(0,0,0)" stroke-width="2"  />
			<g>
				<title>DUF1778 (PF08681)
"Protein of unknown function (DUF1778)"</title>
				<polygon class="PF08681" points="1017,28 1018,28 1022,40 1018,52 1017,52" stroke-linejoin="round" width="7" height="24" fill="rgb(115,223,63)" stroke="rgb(92,178,50)" stroke-width="1" opacity="0.75" />
			</g>
		</g>
		<g>
			<title></title>
			<polygon class="" points="1030,10 1043,40 1030,70" fill="rgb(255,255,255)" fill-opacity="1.0" stroke="rgb(0,0,0)" stroke-width="2"  />
			<g>
				<title>Acetyltransf_10 (PF13673)
"Acetyltransferase (GNAT) domain"</title>
				<polygon class="PF13673" points="1035,28 1040,40 1035,52" stroke-linejoin="round" width="7" height="24" fill="rgb(88,180,95)" stroke="rgb(70,144,76)" stroke-width="1" opacity="0.75" />
			</g>
		</g>
		<g>
			<title></title>
			<polygon class="" points="1050,10 1063,40 1050,70" fill="rgb(255,255,255)" fill-opacity="1.0" stroke="rgb(0,0,0)" stroke-width="2"  />
		</g>
		<g>
			<title></title>
			<polygon class="" points="1077,10 1087,40 1077,70" fill="rgb(255,255,255)" fill-opacity="1.0" stroke="rgb(0,0,0)" stroke-width="2"  />
			<g>
				<title>ASCH (PF04266)
"ASCH domain"</title>
				<polygon class="PF04266" points="1077,28 1080,28 1084,40 1080,52 1077,52" stroke-linejoin="round" width="10" height="24" fill="rgb(208,181,89)" stroke="rgb(166,144,71)" stroke-width="1" opacity="0.75" />
			</g>
		</g>
		<g>
			<title></title>
			<polygon class="" points="1092,10 1117,40 1092,70" fill="rgb(255,255,255)" fill-opacity="1.0" stroke="rgb(0,0,0)" stroke-width="2"  />
			<g>
				<title>adh_short (PF00106)
"short chain dehydrogenase"</title>
				<polygon class="PF00106" points="1092,28 1103,28 1111,38 1111,42 1103,52 1092,52" stroke-linejoin="round" width="19" height="24" fill="rgb(182,219,73)" stroke="rgb(145,175,58)" stroke-width="1" opacity="0.75" />
			</g>
		</g>
		<g>
			<title></title>
			<polygon class="" points="1135,25 1160,25 1160,10 1190,40 1160,70 1160,55 1135,55" fill="rgb(255,255,255)" fill-opacity="1.0" stroke="rgb(0,0,0)" stroke-width="2"  />
			<g>
				<title>SelO (PF02696)
"Protein adenylyltransferase SelO"</title>
				<polygon class="PF02696" points="1135,28 1174,28 1186,40 1186,40 1174,52 1135,52" stroke-linejoin="round" width="51" height="24" fill="rgb(80,146,212)" stroke="rgb(64,116,169)" stroke-width="1" opacity="0.75" />
			</g>
		</g>
		<g>
			<title></title>
			<polygon class="" points="1229,25 1245,25 1245,10 1275,40 1245,70 1245,55 1229,55" fill="rgb(255,255,255)" fill-opacity="1.0" stroke="rgb(0,0,0)" stroke-width="2"  />
			<g>
				<title>COX1 (PF00115)
"Cytochrome C and Quinol oxidase polypeptide I"</title>
				<polygon class="PF00115" points="1229,28 1259,28 1271,40 1259,52 1229,52" stroke-linejoin="round" width="43" height="24" fill="rgb(64,128,197)" stroke="rgb(51,102,157)" stroke-width="1" opacity="0.75" />
			</g>
		</g>
		<g>
			<title></title>
			<polygon class="" points="1276,10 1296,40 1276,70" fill="rgb(255,255,255)" fill-opacity="1.0" stroke="rgb(0,0,0)" stroke-width="2"  />
			<g>
				<title>FixO (PF02433)
"Cytochrome C oxidase, mono-heme subunit/FixO"</title>
				<polygon class="PF02433" points="1276,28 1284,28 1292,40 1284,52 1276,52" stroke-linejoin="round" width="18" height="24" fill="rgb(185,78,189)" stroke="rgb(147,62,151)" stroke-width="1" opacity="0.75" />
			</g>
		</g>
		<g>
			<title></title>
			<polygon class="" points="1296,25 1314,25 1314,10 1344,40 1314,70 1314,55 1296,55" fill="rgb(255,255,255)" fill-opacity="1.0" stroke="rgb(0,0,0)" stroke-width="2"  />
			<g>
				<title>FixP_N (PF14715)
"N-terminal domain of cytochrome oxidase-cbb3, FixP"</title>
				<rect class="PF14715" x="1299" y="28" stroke-linejoin="round" width="4" height="24" fill="rgb(115,208,75)" stroke="rgb(92,166,60)" stroke-width="1" opacity="0.75" />
			</g>
			<g>
				<title>Cytochrome_CBB3 (PF13442)
"Cytochrome C oxidase, cbb3-type, subunit III"</title>
				<rect class="PF13442" x="1308" y="28" stroke-linejoin="round" width="7" height="24" fill="rgb(49,184,120)" stroke="rgb(39,147,96)" stroke-width="1" opacity="0.75" />
			</g>
			<g>
				<title>Cytochrome_CBB3 (PF13442)
"Cytochrome C oxidase, cbb3-type, subunit III"</title>
				<rect class="PF13442" x="1316" y="28" stroke-linejoin="round" width="7" height="24" fill="rgb(49,184,120)" stroke="rgb(39,147,96)" stroke-width="1" opacity="0.75" />
			</g>
			<g>
				<title>Cytochrom_C (PF00034)
"Cytochrome c"</title>
				<polygon class="PF00034" points="1327,28 1328,28 1335,35 1335,45 1328,52 1327,52" stroke-linejoin="round" width="8" height="24" fill="rgb(130,184,61)" stroke="rgb(104,147,48)" stroke-width="1" opacity="0.75" />
			</g>
			<g>
				<title>Cytochrom_C (PF00034)
"Cytochrome c"</title>
				<polygon class="PF00034" points="1337,37 1340,40 1337,43" stroke-linejoin="round" width="7" height="24" fill="rgb(130,184,61)" stroke="rgb(104,147,48)" stroke-width="1" opacity="0.75" />
			</g>
		</g>
		<g>
			<title></title>
			<polygon class="" points="1348,25 1359,25 1359,10 1389,40 1359,70 1359,55 1348,55" fill="rgb(255,255,255)" fill-opacity="1.0" stroke="rgb(0,0,0)" stroke-width="2"  />
			<g>
				<title>Oxidored_molyb (PF00174)
"Oxidoreductase molybdopterin binding domain"</title>
				<polygon class="PF00174" points="1357,28 1373,28 1374,29 1374,51 1373,52 1357,52" stroke-linejoin="round" width="17" height="24" fill="rgb(152,193,93)" stroke="rgb(121,154,74)" stroke-width="1" opacity="0.75" />
			</g>
			<g>
				<title>Mo-co_dimer (PF03404)
"Mo-co oxidoreductase dimerisation domain"</title>
				<polygon class="PF03404" points="1377,32 1385,40 1377,48" stroke-linejoin="round" width="12" height="24" fill="rgb(105,224,154)" stroke="rgb(84,179,123)" stroke-width="1" opacity="0.75" />
			</g>
		</g>
	</g>
</svg>
