<svg version="1.1" baseProfile="full" xmlns="http://www.w3.org/2000/svg" width="3886.6666666666665" height="80">
	<g>
		<line x1="10" y1="40.0" x2="3876.6666666666665" y2="40.0" style="stroke:rgb(70,70,70); stroke-width:3 "/>
		<g>
			<title>
DXP synthase 2</title>
			<polygon class="
DXP synthase 2" points="10,25 21,25 21,10 51,40 21,70 21,55 10,55" fill="rgb(255,255,255)" fill-opacity="1.0" stroke="rgb(0,0,0)" stroke-width="2"  />
			<g>
				<title>DXP_synthase_N (PF13292)
"1-deoxy-D-xylulose-5-phosphate synthase"</title>
				<rect class="PF13292" x="10" y="28" stroke-linejoin="round" width="4" height="24" fill="rgb(46,179,173)" stroke="rgb(36,143,138)" stroke-width="1" opacity="0.75" />
			</g>
			<g>
				<title>Transket_pyr (PF02779)
"Transketolase, pyrimidine binding domain"</title>
				<rect class="PF02779" x="17" y="28" stroke-linejoin="round" width="16" height="24" fill="rgb(189,186,84)" stroke="rgb(151,148,67)" stroke-width="1" opacity="0.75" />
			</g>
			<g>
				<title>Transketolase_C (PF02780)
"Transketolase, C-terminal domain"</title>
				<polygon class="PF02780" points="35,29 46,40 35,51" stroke-linejoin="round" width="12" height="24" fill="rgb(76,206,101)" stroke="rgb(60,164,80)" stroke-width="1" opacity="0.75" />
			</g>
		</g>
		<g>
			<title>
cationic amino acid transporter</title>
			<polygon class="
cationic amino acid transporter" points="56,25 75,25 75,10 105,40 75,70 75,55 56,55" fill="rgb(255,255,255)" fill-opacity="1.0" stroke="rgb(0,0,0)" stroke-width="2"  />
			<g>
				<title>AA_permease_2 (PF13520)
"Amino acid permease"</title>
				<polygon class="PF13520" points="58,28 89,28 101,40 89,52 58,52" stroke-linejoin="round" width="45" height="24" fill="rgb(180,217,107)" stroke="rgb(144,173,85)" stroke-width="1" opacity="0.75" />
			</g>
		</g>
		<g>
			<title>
unknown</title>
			<polygon class="
unknown" points="106,40 119,10 119,70" fill="rgb(255,255,255)" fill-opacity="1.0" stroke="rgb(0,0,0)" stroke-width="2"  />
		</g>
		<g>
			<title>
unknown</title>
			<polygon class="
unknown" points="125,25 132,25 132,10 162,40 132,70 132,55 125,55" fill="rgb(255,255,255)" fill-opacity="1.0" stroke="rgb(0,0,0)" stroke-width="2"  />
		</g>
		<g>
			<title>
transcriptional regulator</title>
			<polygon class="
transcriptional regulator" points="199,25 193,25 193,10 163,40 193,70 193,55 199,55" fill="rgb(255,255,255)" fill-opacity="1.0" stroke="rgb(0,0,0)" stroke-width="2"  />
			<g>
				<title>LytR_cpsA_psr (PF03816)
"LytR_cpsA_psr family"</title>
				<polygon class="PF03816" points="172,35 179,28 187,28 187,52 179,52 172,45" stroke-linejoin="round" width="15" height="24" fill="rgb(212,80,62)" stroke="rgb(169,64,49)" stroke-width="1" opacity="0.75" />
			</g>
		</g>
		<g>
			<title>
glycosyltransferase</title>
			<polygon class="
glycosyltransferase" points="211,25 310,25 310,10 340,40 310,70 310,55 211,55" fill="rgb(255,255,255)" fill-opacity="1.0" stroke="rgb(0,0,0)" stroke-width="2"  />
			<g>
				<title>Glycos_transf_2 (PF00535)
"Glycosyl transferase family 2"</title>
				<rect class="PF00535" x="211" y="28" stroke-linejoin="round" width="16" height="24" fill="rgb(224,122,96)" stroke="rgb(179,97,76)" stroke-width="1" opacity="0.75" />
			</g>
			<g>
				<title>Glyphos_transf (PF04464)
"CDP-Glycerol:Poly(glycerophosphate) glycerophosphotransferase"</title>
				<polygon class="PF04464" points="294,28 323,28 330,35 330,45 323,52 294,52" stroke-linejoin="round" width="36" height="24" fill="rgb(55,181,67)" stroke="rgb(44,144,53)" stroke-width="1" opacity="0.75" />
			</g>
		</g>
		<g>
			<title>
unknown</title>
			<polygon class="
unknown" points="375,25 375,25 375,10 345,40 375,70 375,55 375,55" fill="rgb(255,255,255)" fill-opacity="1.0" stroke="rgb(0,0,0)" stroke-width="2"  />
			<g>
				<title>Exo_endo_phos (PF03372)
"Endonuclease/Exonuclease/phosphatase family"</title>
				<polygon class="PF03372" points="349,40 361,28 374,28 374,52 361,52" stroke-linejoin="round" width="28" height="24" fill="rgb(76,66,180)" stroke="rgb(60,52,144)" stroke-width="1" opacity="0.75" />
			</g>
		</g>
		<g>
			<title>
unknown</title>
			<polygon class="
unknown" points="380,25 398,25 398,10 428,40 398,70 398,55 380,55" fill="rgb(255,255,255)" fill-opacity="1.0" stroke="rgb(0,0,0)" stroke-width="2"  />
		</g>
		<g>
			<title>
unknown</title>
			<polygon class="
unknown" points="430,25 449,25 449,10 479,40 449,70 449,55 430,55" fill="rgb(255,255,255)" fill-opacity="1.0" stroke="rgb(0,0,0)" stroke-width="2"  />
		</g>
		<g>
			<title>
fatty acid oxidation complex alpha-subunit</title>
			<polygon class="
fatty acid oxidation complex alpha-subunit" points="553,25 512,25 512,10 482,40 512,70 512,55 553,55" fill="rgb(255,255,255)" fill-opacity="1.0" stroke="rgb(0,0,0)" stroke-width="2"  />
			<g>
				<title>3HCDH (PF00725)
"3-hydroxyacyl-CoA dehydrogenase, C-terminal domain"</title>
				<polygon class="PF00725" points="492,34 498,28 500,28 500,52 498,52 492,46" stroke-linejoin="round" width="8" height="24" fill="rgb(180,78,60)" stroke="rgb(144,62,48)" stroke-width="1" opacity="0.75" />
			</g>
			<g>
				<title>3HCDH_N (PF02737)
"3-hydroxyacyl-CoA dehydrogenase, NAD binding domain"</title>
				<rect class="PF02737" x="500" y="28" stroke-linejoin="round" width="18" height="24" fill="rgb(212,65,199)" stroke="rgb(169,52,159)" stroke-width="1" opacity="0.75" />
			</g>
			<g>
				<title>ECH_1 (PF00378)
"Enoyl-CoA hydratase/isomerase"</title>
				<rect class="PF00378" x="528" y="28" stroke-linejoin="round" width="21" height="24" fill="rgb(218,72,181)" stroke="rgb(174,57,144)" stroke-width="1" opacity="0.75" />
			</g>
		</g>
		<g>
			<title>
acetyl-CoA acetyltransferase</title>
			<polygon class="
acetyl-CoA acetyltransferase" points="593,25 583,25 583,10 553,40 583,70 583,55 593,55" fill="rgb(255,255,255)" fill-opacity="1.0" stroke="rgb(0,0,0)" stroke-width="2"  />
			<g>
				<title>Thiolase_C (PF02803)
"Thiolase, C-terminal domain"</title>
				<polygon class="PF02803" points="557,40 565,32 565,48" stroke-linejoin="round" width="12" height="24" fill="rgb(218,187,56)" stroke="rgb(174,149,44)" stroke-width="1" opacity="0.75" />
			</g>
			<g>
				<title>Thiolase_N (PF00108)
"Thiolase, N-terminal domain"</title>
				<polygon class="PF00108" points="567,30 569,28 592,28 592,52 569,52 567,50" stroke-linejoin="round" width="25" height="24" fill="rgb(82,90,195)" stroke="rgb(65,72,156)" stroke-width="1" opacity="0.75" />
			</g>
		</g>
		<g>
			<title>
transcriptional regulator</title>
			<polygon class="
transcriptional regulator" points="633,25 629,25 629,10 599,40 629,70 629,55 633,55" fill="rgb(255,255,255)" fill-opacity="1.0" stroke="rgb(0,0,0)" stroke-width="2"  />
			<g>
				<title>Peripla_BP_3 (PF13377)
"Periplasmic binding protein-like domain"</title>
				<polygon class="PF13377" points="603,40 615,28 615,28 615,52 615,52" stroke-linejoin="round" width="16" height="24" fill="rgb(101,208,189)" stroke="rgb(80,166,151)" stroke-width="1" opacity="0.75" />
			</g>
			<g>
				<title>LacI (PF00356)
"Bacterial regulatory proteins, lacI family"</title>
				<rect class="PF00356" x="628" y="28" stroke-linejoin="round" width="4" height="24" fill="rgb(66,188,63)" stroke="rgb(52,150,50)" stroke-width="1" opacity="0.75" />
			</g>
		</g>
		<g>
			<title>
beta-mannosidase</title>
			<polygon class="
beta-mannosidase" points="713,25 664,25 664,10 634,40 664,70 664,55 713,55" fill="rgb(255,255,255)" fill-opacity="1.0" stroke="rgb(0,0,0)" stroke-width="2"  />
			<g>
				<title>Glyco_hydro_2 (PF00703)
"Glycosyl hydrolases family 2"</title>
				<rect class="PF00703" x="685" y="28" stroke-linejoin="round" width="9" height="24" fill="rgb(199,91,180)" stroke="rgb(159,72,144)" stroke-width="1" opacity="0.75" />
			</g>
		</g>
		<g>
			<title>
probable sugar transport system sugar-binding lipoprotein</title>
			<polygon class="
probable sugar transport system sugar-binding lipoprotein" points="718,25 732,25 732,10 762,40 732,70 732,55 718,55" fill="rgb(255,255,255)" fill-opacity="1.0" stroke="rgb(0,0,0)" stroke-width="2"  />
			<g>
				<title>SBP_bac_1 (PF01547)
"Bacterial extracellular solute-binding protein"</title>
				<polygon class="PF01547" points="723,28 745,28 752,35 752,45 745,52 723,52" stroke-linejoin="round" width="29" height="24" fill="rgb(195,119,75)" stroke="rgb(156,95,60)" stroke-width="1" opacity="0.75" />
			</g>
		</g>
		<g>
			<title>
sugar transport system permease protein</title>
			<polygon class="
sugar transport system permease protein" points="768,10 793,40 768,70" fill="rgb(255,255,255)" fill-opacity="1.0" stroke="rgb(0,0,0)" stroke-width="2"  />
			<g>
				<title>BPD_transp_1 (PF00528)
"Binding-protein-dependent transport system inner membrane component"</title>
				<polygon class="PF00528" points="773,28 780,28 789,40 780,52 773,52" stroke-linejoin="round" width="20" height="24" fill="rgb(77,208,225)" stroke="rgb(61,166,180)" stroke-width="1" opacity="0.75" />
			</g>
		</g>
		<g>
			<title>
sugar transport system permease protein</title>
			<polygon class="
sugar transport system permease protein" points="794,10 821,40 794,70" fill="rgb(255,255,255)" fill-opacity="1.0" stroke="rgb(0,0,0)" stroke-width="2"  />
			<g>
				<title>BPD_transp_1 (PF00528)
"Binding-protein-dependent transport system inner membrane component"</title>
				<polygon class="PF00528" points="802,28 806,28 817,40 806,52 802,52" stroke-linejoin="round" width="18" height="24" fill="rgb(77,208,225)" stroke="rgb(61,166,180)" stroke-width="1" opacity="0.75" />
			</g>
		</g>
		<g>
			<title>
ribonuclease D</title>
			<polygon class="
ribonuclease D" points="864,25 851,25 851,10 821,40 851,70 851,55 864,55" fill="rgb(255,255,255)" fill-opacity="1.0" stroke="rgb(0,0,0)" stroke-width="2"  />
			<g>
				<title>DNA_pol_A_exoN (PF18305)
"3' to 5' exonuclease C-terminal domain"</title>
				<polygon class="PF18305" points="825,40 829,36 829,44" stroke-linejoin="round" width="8" height="24" fill="rgb(72,105,216)" stroke="rgb(57,84,172)" stroke-width="1" opacity="0.75" />
			</g>
			<g>
				<title>HRDC (PF00570)
"HRDC domain"</title>
				<polygon class="PF00570" points="832,33 837,28 838,28 838,52 837,52 832,47" stroke-linejoin="round" width="6" height="24" fill="rgb(91,116,211)" stroke="rgb(72,92,168)" stroke-width="1" opacity="0.75" />
			</g>
			<g>
				<title>DNA_pol_A_exo1 (PF01612)
"3'-5' exonuclease"</title>
				<rect class="PF01612" x="843" y="28" stroke-linejoin="round" width="16" height="24" fill="rgb(222,60,61)" stroke="rgb(177,48,48)" stroke-width="1" opacity="0.75" />
			</g>
		</g>
		<g>
			<title>
two-component response regulator</title>
			<polygon class="
two-component response regulator" points="869,40 891,10 891,70" fill="rgb(255,255,255)" fill-opacity="1.0" stroke="rgb(0,0,0)" stroke-width="2"  />
			<g>
				<title>GerE (PF00196)
"Bacterial regulatory proteins, luxR family"</title>
				<polygon class="PF00196" points="873,40 874,39 874,41" stroke-linejoin="round" width="5" height="24" fill="rgb(219,94,82)" stroke="rgb(175,75,65)" stroke-width="1" opacity="0.75" />
			</g>
		</g>
		<g>
			<title>
unknown</title>
			<polygon class="
unknown" points="900,40 922,10 922,70" fill="rgb(255,255,255)" fill-opacity="1.0" stroke="rgb(0,0,0)" stroke-width="2"  />
			<g>
				<title>DUF3000 (PF11452)
"Protein of unknown function (DUF3000)"</title>
				<polygon class="PF11452" points="904,40 913,28 918,28 918,52 913,52" stroke-linejoin="round" width="17" height="24" fill="rgb(97,224,134)" stroke="rgb(77,179,107)" stroke-width="1" opacity="0.75" />
			</g>
		</g>
		<g>
			<title>
uroporphyrinogen decarboxylase</title>
			<polygon class="
uroporphyrinogen decarboxylase" points="928,25 934,25 934,10 964,40 934,70 934,55 928,55" fill="rgb(255,255,255)" fill-opacity="1.0" stroke="rgb(0,0,0)" stroke-width="2"  />
			<g>
				<title>URO-D (PF01208)
"Uroporphyrinogen decarboxylase (URO-D)"</title>
				<polygon class="PF01208" points="930,28 948,28 960,40 948,52 930,52" stroke-linejoin="round" width="33" height="24" fill="rgb(186,206,58)" stroke="rgb(148,164,46)" stroke-width="1" opacity="0.75" />
			</g>
		</g>
		<g>
			<title>
PAS protein phosphatase 2C-like protein</title>
			<polygon class="
PAS protein phosphatase 2C-like protein" points="968,25 1004,25 1004,10 1034,40 1004,70 1004,55 968,55" fill="rgb(255,255,255)" fill-opacity="1.0" stroke="rgb(0,0,0)" stroke-width="2"  />
			<g>
				<title>PAS_4 (PF08448)
"PAS fold"</title>
				<rect class="PF08448" x="968" y="28" stroke-linejoin="round" width="11" height="24" fill="rgb(50,90,192)" stroke="rgb(40,71,153)" stroke-width="1" opacity="0.75" />
			</g>
			<g>
				<title>PAS_3 (PF08447)
"PAS fold"</title>
				<rect class="PF08447" x="983" y="28" stroke-linejoin="round" width="8" height="24" fill="rgb(222,97,193)" stroke="rgb(177,77,154)" stroke-width="1" opacity="0.75" />
			</g>
			<g>
				<title>SpoIIE (PF07228)
"Stage II sporulation protein E (SpoIIE)"</title>
				<polygon class="PF07228" points="1015,28 1018,28 1030,40 1018,52 1015,52" stroke-linejoin="round" width="18" height="24" fill="rgb(85,195,217)" stroke="rgb(68,155,173)" stroke-width="1" opacity="0.75" />
			</g>
		</g>
		<g>
			<title>
StrR-like regulatory protein</title>
			<polygon class="
StrR-like regulatory protein" points="1048,25 1050,25 1050,10 1080,40 1050,70 1050,55 1048,55" fill="rgb(255,255,255)" fill-opacity="1.0" stroke="rgb(0,0,0)" stroke-width="2"  />
		</g>
		<g>
			<title>
prephenate dehydrogenase</title>
			<polygon class="
prephenate dehydrogenase" points="1121,25 1115,25 1115,10 1085,40 1115,70 1115,55 1121,55" fill="rgb(255,255,255)" fill-opacity="1.0" stroke="rgb(0,0,0)" stroke-width="2"  />
			<g>
				<title>PDH_C (PF20463)
"Prephenate dehydrogenase, dimerization domain"</title>
				<polygon class="PF20463" points="1094,35 1101,28 1104,28 1104,52 1101,52 1094,45" stroke-linejoin="round" width="10" height="24" fill="rgb(99,50,183)" stroke="rgb(79,39,146)" stroke-width="1" opacity="0.75" />
			</g>
			<g>
				<title>PDH_N (PF02153)
"Prephenate dehydrogenase, nucleotide-binding domain"</title>
				<rect class="PF02153" x="1105" y="28" stroke-linejoin="round" width="14" height="24" fill="rgb(90,185,212)" stroke="rgb(72,148,169)" stroke-width="1" opacity="0.75" />
			</g>
		</g>
		<g>
			<title>
unknown</title>
			<polygon class="
unknown" points="1130,25 1131,25 1131,10 1161,40 1131,70 1131,55 1130,55" fill="rgb(255,255,255)" fill-opacity="1.0" stroke="rgb(0,0,0)" stroke-width="2"  />
			<g>
				<title>ParBc (PF02195)
"ParB/Sulfiredoxin domain"</title>
				<rect class="PF02195" x="1130" y="28" stroke-linejoin="round" width="8" height="24" fill="rgb(55,214,209)" stroke="rgb(44,171,167)" stroke-width="1" opacity="0.75" />
			</g>
		</g>
		<g>
			<title>
4-hydroxyphenylpyruvate dioxygenase</title>
			<polygon class="
4-hydroxyphenylpyruvate dioxygenase" points="1164,25 1169,25 1169,10 1199,40 1169,70 1169,55 1164,55" fill="rgb(255,255,255)" fill-opacity="1.0" stroke="rgb(0,0,0)" stroke-width="2"  />
			<g>
				<title>Glyoxalase_5 (PF14696)
"Hydroxyphenylpyruvate dioxygenase, HPPD, N-terminal"</title>
				<rect class="PF14696" x="1164" y="28" stroke-linejoin="round" width="14" height="24" fill="rgb(50,199,116)" stroke="rgb(40,159,92)" stroke-width="1" opacity="0.75" />
			</g>
			<g>
				<title>Glyoxalase (PF00903)
"Glyoxalase/Bleomycin resistance protein/Dioxygenase superfamily"</title>
				<polygon class="PF00903" points="1180,28 1183,28 1194,39 1194,41 1183,52 1180,52" stroke-linejoin="round" width="14" height="24" fill="rgb(50,162,189)" stroke="rgb(40,129,151)" stroke-width="1" opacity="0.75" />
			</g>
		</g>
		<g>
			<title>endR
unknown</title>
			<polygon class="endR
unknown" points="1203,40 1231,10 1231,70" fill="rgb(255,255,255)" fill-opacity="1.0" stroke="rgb(0,0,0)" stroke-width="2"  />
			<g>
				<title>ADC (PF06314)
"Acetoacetate decarboxylase (ADC)"</title>
				<polygon class="PF06314" points="1207,40 1218,28 1228,28 1228,52 1218,52" stroke-linejoin="round" width="25" height="24" fill="rgb(80,180,156)" stroke="rgb(64,144,124)" stroke-width="1" opacity="0.75" />
			</g>
		</g>
		<g>
			<title>endQ
PLP-dependent aminotransferse</title>
			<polygon class="endQ
PLP-dependent aminotransferse" points="1272,25 1260,25 1260,10 1230,40 1260,70 1260,55 1272,55" fill="rgb(255,255,255)" fill-opacity="1.0" stroke="rgb(0,0,0)" stroke-width="2"  />
			<g>
				<title>Aminotran_1_2 (PF00155)
"Aminotransferase class I and II"</title>
				<polygon class="PF00155" points="1234,40 1246,28 1266,28 1266,52 1246,52" stroke-linejoin="round" width="35" height="24" fill="rgb(89,113,198)" stroke="rgb(71,90,158)" stroke-width="1" opacity="0.75" />
			</g>
		</g>
		<g>
			<title>endP
PLP-dependent aminotransferase</title>
			<polygon class="endP
PLP-dependent aminotransferase" points="1272,40 1301,10 1301,70" fill="rgb(255,255,255)" fill-opacity="1.0" stroke="rgb(0,0,0)" stroke-width="2"  />
			<g>
				<title>Aminotran_1_2 (PF00155)
"Aminotransferase class I and II"</title>
				<polygon class="PF00155" points="1276,40 1288,28 1300,28 1300,52 1288,52" stroke-linejoin="round" width="28" height="24" fill="rgb(89,113,198)" stroke="rgb(71,90,158)" stroke-width="1" opacity="0.75" />
			</g>
		</g>
		<g>
			<title>
hydroxyphenylglycine aminotransferase/hydroxymandelate oxidase fusion protein</title>
			<polygon class="
hydroxyphenylglycine aminotransferase/hydroxymandelate oxidase fusion protein" points="1323,25 1373,25 1373,10 1403,40 1373,70 1373,55 1323,55" fill="rgb(255,255,255)" fill-opacity="1.0" stroke="rgb(0,0,0)" stroke-width="2"  />
			<g>
				<title>FMN_dh (PF01070)
"FMN-dependent dehydrogenase"</title>
				<rect class="PF01070" x="1324" y="28" stroke-linejoin="round" width="33" height="24" fill="rgb(59,82,204)" stroke="rgb(47,65,163)" stroke-width="1" opacity="0.75" />
			</g>
			<g>
				<title>Aminotran_1_2 (PF00155)
"Aminotransferase class I and II"</title>
				<polygon class="PF00155" points="1366,28 1387,28 1399,40 1387,52 1366,52" stroke-linejoin="round" width="36" height="24" fill="rgb(89,113,198)" stroke="rgb(71,90,158)" stroke-width="1" opacity="0.75" />
			</g>
		</g>
		<g>
			<title>
halogenase</title>
			<polygon class="
halogenase" points="1456,25 1436,25 1436,10 1406,40 1436,70 1436,55 1456,55" fill="rgb(255,255,255)" fill-opacity="1.0" stroke="rgb(0,0,0)" stroke-width="2"  />
			<g>
				<title>Trp_halogenase (PF04820)
"Tryptophan halogenase"</title>
				<polygon class="PF04820" points="1410,40 1422,28 1445,28 1445,52 1422,52" stroke-linejoin="round" width="36" height="24" fill="rgb(179,74,194)" stroke="rgb(143,59,155)" stroke-width="1" opacity="0.75" />
			</g>
		</g>
		<g>
			<title>
transmembrane transport protein</title>
			<polygon class="
transmembrane transport protein" points="1496,25 1492,25 1492,10 1462,40 1492,70 1492,55 1496,55" fill="rgb(255,255,255)" fill-opacity="1.0" stroke="rgb(0,0,0)" stroke-width="2"  />
			<g>
				<title>ABC2_membrane_2 (PF12679)
"ABC-2 family transporter protein"</title>
				<polygon class="PF12679" points="1466,40 1478,28 1495,28 1495,52 1478,52" stroke-linejoin="round" width="33" height="24" fill="rgb(70,194,214)" stroke="rgb(56,155,171)" stroke-width="1" opacity="0.75" />
			</g>
		</g>
		<g>
			<title>
ABC transporter</title>
			<polygon class="
ABC transporter" points="1526,25 1526,25 1526,10 1496,40 1526,70 1526,55 1526,55" fill="rgb(255,255,255)" fill-opacity="1.0" stroke="rgb(0,0,0)" stroke-width="2"  />
			<g>
				<title>ABC_tran (PF00005)
"ABC transporter"</title>
				<polygon class="PF00005" points="1510,30 1512,28 1523,28 1523,52 1512,52 1510,50" stroke-linejoin="round" width="13" height="24" fill="rgb(129,201,63)" stroke="rgb(103,160,50)" stroke-width="1" opacity="0.75" />
			</g>
		</g>
		<g>
			<title>
ABC transporter</title>
			<polygon class="
ABC transporter" points="1593,25 1558,25 1558,10 1528,40 1558,70 1558,55 1593,55" fill="rgb(255,255,255)" fill-opacity="1.0" stroke="rgb(0,0,0)" stroke-width="2"  />
			<g>
				<title>ABC_tran (PF00005)
"ABC transporter"</title>
				<polygon class="PF00005" points="1537,35 1544,28 1551,28 1551,52 1544,52 1537,45" stroke-linejoin="round" width="14" height="24" fill="rgb(129,201,63)" stroke="rgb(103,160,50)" stroke-width="1" opacity="0.75" />
			</g>
			<g>
				<title>ABC_membrane (PF00664)
"ABC transporter transmembrane region"</title>
				<rect class="PF00664" x="1561" y="28" stroke-linejoin="round" width="27" height="24" fill="rgb(149,226,73)" stroke="rgb(119,180,58)" stroke-width="1" opacity="0.75" />
			</g>
		</g>
		<g>
			<title>
type II thioesterase</title>
			<polygon class="
type II thioesterase" points="1596,40 1623,10 1623,70" fill="rgb(255,255,255)" fill-opacity="1.0" stroke="rgb(0,0,0)" stroke-width="2"  />
			<g>
				<title>Abhydrolase_1 (PF00561)
"alpha/beta hydrolase fold"</title>
				<polygon class="PF00561" points="1600,40 1611,28 1620,28 1620,52 1611,52" stroke-linejoin="round" width="23" height="24" fill="rgb(86,180,151)" stroke="rgb(68,144,120)" stroke-width="1" opacity="0.75" />
			</g>
		</g>
		<g>
			<title>
peptidyl carrier protein</title>
			<polygon class="
peptidyl carrier protein" points="1634,10 1643,40 1634,70" fill="rgb(255,255,255)" fill-opacity="1.0" stroke="rgb(0,0,0)" stroke-width="2"  />
			<g>
				<title>PP-binding (PF00550)
"Phosphopantetheine attachment site"</title>
				<polygon class="PF00550" points="1635,28 1635,28 1639,40 1635,52 1635,52" stroke-linejoin="round" width="6" height="24" fill="rgb(103,191,88)" stroke="rgb(82,152,70)" stroke-width="1" opacity="0.75" />
			</g>
		</g>
		<g>
			<title>endA
nonribosomal peptide synthetase</title>
			<polygon class="endA
nonribosomal peptide synthetase" points="1644,25 1824,25 1824,10 1854,40 1824,70 1824,55 1644,55" fill="rgb(255,255,255)" fill-opacity="1.0" stroke="rgb(0,0,0)" stroke-width="2"  />
			<g>
				<title>Condensation (PF00668)
"Condensation domain"</title>
				<rect class="PF00668" x="1644" y="28" stroke-linejoin="round" width="42" height="24" fill="rgb(224,184,98)" stroke="rgb(179,147,78)" stroke-width="1" opacity="0.75" />
			</g>
			<g>
				<title>AMP-binding (PF00501)
"AMP-binding enzyme"</title>
				<rect class="PF00501" x="1690" y="28" stroke-linejoin="round" width="39" height="24" fill="rgb(60,217,223)" stroke="rgb(48,173,178)" stroke-width="1" opacity="0.75" />
			</g>
			<g>
				<title>AMP-binding_C (PF13193)
"AMP-binding enzyme C-terminal domain"</title>
				<rect class="PF13193" x="1730" y="28" stroke-linejoin="round" width="7" height="24" fill="rgb(182,50,118)" stroke="rgb(145,39,94)" stroke-width="1" opacity="0.75" />
			</g>
			<g>
				<title>PP-binding (PF00550)
"Phosphopantetheine attachment site"</title>
				<rect class="PF00550" x="1740" y="28" stroke-linejoin="round" width="6" height="24" fill="rgb(103,191,88)" stroke="rgb(82,152,70)" stroke-width="1" opacity="0.75" />
			</g>
			<g>
				<title>Condensation (PF00668)
"Condensation domain"</title>
				<rect class="PF00668" x="1748" y="28" stroke-linejoin="round" width="45" height="24" fill="rgb(224,184,98)" stroke="rgb(179,147,78)" stroke-width="1" opacity="0.75" />
			</g>
			<g>
				<title>AMP-binding (PF00501)
"AMP-binding enzyme"</title>
				<rect class="PF00501" x="1795" y="28" stroke-linejoin="round" width="39" height="24" fill="rgb(60,217,223)" stroke="rgb(48,173,178)" stroke-width="1" opacity="0.75" />
			</g>
			<g>
				<title>AMP-binding_C (PF13193)
"AMP-binding enzyme C-terminal domain"</title>
				<polygon class="PF13193" points="1835,28 1837,28 1842,33 1842,47 1837,52 1835,52" stroke-linejoin="round" width="7" height="24" fill="rgb(182,50,118)" stroke="rgb(145,39,94)" stroke-width="1" opacity="0.75" />
			</g>
			<g>
				<title>PP-binding (PF00550)
"Phosphopantetheine attachment site"</title>
				<polygon class="PF00550" points="1845,36 1849,40 1845,44" stroke-linejoin="round" width="6" height="24" fill="rgb(103,191,88)" stroke="rgb(82,152,70)" stroke-width="1" opacity="0.75" />
			</g>
		</g>
		<g>
			<title>endB
nonribosomal peptide synthetase</title>
			<polygon class="endB
nonribosomal peptide synthetase" points="1855,25 2519,25 2519,10 2549,40 2519,70 2519,55 1855,55" fill="rgb(255,255,255)" fill-opacity="1.0" stroke="rgb(0,0,0)" stroke-width="2"  />
			<g>
				<title>Condensation (PF00668)
"Condensation domain"</title>
				<rect class="PF00668" x="1855" y="28" stroke-linejoin="round" width="9" height="24" fill="rgb(224,184,98)" stroke="rgb(179,147,78)" stroke-width="1" opacity="0.75" />
			</g>
			<g>
				<title>Condensation (PF00668)
"Condensation domain"</title>
				<rect class="PF00668" x="1866" y="28" stroke-linejoin="round" width="37" height="24" fill="rgb(224,184,98)" stroke="rgb(179,147,78)" stroke-width="1" opacity="0.75" />
			</g>
			<g>
				<title>AMP-binding (PF00501)
"AMP-binding enzyme"</title>
				<rect class="PF00501" x="1906" y="28" stroke-linejoin="round" width="38" height="24" fill="rgb(60,217,223)" stroke="rgb(48,173,178)" stroke-width="1" opacity="0.75" />
			</g>
			<g>
				<title>AMP-binding_C (PF13193)
"AMP-binding enzyme C-terminal domain"</title>
				<rect class="PF13193" x="1945" y="28" stroke-linejoin="round" width="7" height="24" fill="rgb(182,50,118)" stroke="rgb(145,39,94)" stroke-width="1" opacity="0.75" />
			</g>
			<g>
				<title>PP-binding (PF00550)
"Phosphopantetheine attachment site"</title>
				<rect class="PF00550" x="1955" y="28" stroke-linejoin="round" width="6" height="24" fill="rgb(103,191,88)" stroke="rgb(82,152,70)" stroke-width="1" opacity="0.75" />
			</g>
			<g>
				<title>Condensation (PF00668)
"Condensation domain"</title>
				<rect class="PF00668" x="1966" y="28" stroke-linejoin="round" width="41" height="24" fill="rgb(224,184,98)" stroke="rgb(179,147,78)" stroke-width="1" opacity="0.75" />
			</g>
			<g>
				<title>AMP-binding (PF00501)
"AMP-binding enzyme"</title>
				<rect class="PF00501" x="2012" y="28" stroke-linejoin="round" width="37" height="24" fill="rgb(60,217,223)" stroke="rgb(48,173,178)" stroke-width="1" opacity="0.75" />
			</g>
			<g>
				<title>AMP-binding_C (PF13193)
"AMP-binding enzyme C-terminal domain"</title>
				<rect class="PF13193" x="2051" y="28" stroke-linejoin="round" width="7" height="24" fill="rgb(182,50,118)" stroke="rgb(145,39,94)" stroke-width="1" opacity="0.75" />
			</g>
			<g>
				<title>PP-binding (PF00550)
"Phosphopantetheine attachment site"</title>
				<rect class="PF00550" x="2061" y="28" stroke-linejoin="round" width="6" height="24" fill="rgb(103,191,88)" stroke="rgb(82,152,70)" stroke-width="1" opacity="0.75" />
			</g>
			<g>
				<title>Condensation (PF00668)
"Condensation domain"</title>
				<rect class="PF00668" x="2072" y="28" stroke-linejoin="round" width="42" height="24" fill="rgb(224,184,98)" stroke="rgb(179,147,78)" stroke-width="1" opacity="0.75" />
			</g>
			<g>
				<title>AMP-binding (PF00501)
"AMP-binding enzyme"</title>
				<rect class="PF00501" x="2117" y="28" stroke-linejoin="round" width="38" height="24" fill="rgb(60,217,223)" stroke="rgb(48,173,178)" stroke-width="1" opacity="0.75" />
			</g>
			<g>
				<title>AMP-binding_C (PF13193)
"AMP-binding enzyme C-terminal domain"</title>
				<rect class="PF13193" x="2156" y="28" stroke-linejoin="round" width="7" height="24" fill="rgb(182,50,118)" stroke="rgb(145,39,94)" stroke-width="1" opacity="0.75" />
			</g>
			<g>
				<title>PP-binding (PF00550)
"Phosphopantetheine attachment site"</title>
				<rect class="PF00550" x="2167" y="28" stroke-linejoin="round" width="6" height="24" fill="rgb(103,191,88)" stroke="rgb(82,152,70)" stroke-width="1" opacity="0.75" />
			</g>
			<g>
				<title>Condensation (PF00668)
"Condensation domain"</title>
				<rect class="PF00668" x="2178" y="28" stroke-linejoin="round" width="39" height="24" fill="rgb(224,184,98)" stroke="rgb(179,147,78)" stroke-width="1" opacity="0.75" />
			</g>
			<g>
				<title>AMP-binding (PF00501)
"AMP-binding enzyme"</title>
				<rect class="PF00501" x="2223" y="28" stroke-linejoin="round" width="38" height="24" fill="rgb(60,217,223)" stroke="rgb(48,173,178)" stroke-width="1" opacity="0.75" />
			</g>
			<g>
				<title>AMP-binding_C (PF13193)
"AMP-binding enzyme C-terminal domain"</title>
				<rect class="PF13193" x="2263" y="28" stroke-linejoin="round" width="7" height="24" fill="rgb(182,50,118)" stroke="rgb(145,39,94)" stroke-width="1" opacity="0.75" />
			</g>
			<g>
				<title>PP-binding (PF00550)
"Phosphopantetheine attachment site"</title>
				<rect class="PF00550" x="2273" y="28" stroke-linejoin="round" width="6" height="24" fill="rgb(103,191,88)" stroke="rgb(82,152,70)" stroke-width="1" opacity="0.75" />
			</g>
			<g>
				<title>Condensation (PF00668)
"Condensation domain"</title>
				<rect class="PF00668" x="2281" y="28" stroke-linejoin="round" width="45" height="24" fill="rgb(224,184,98)" stroke="rgb(179,147,78)" stroke-width="1" opacity="0.75" />
			</g>
			<g>
				<title>AMP-binding (PF00501)
"AMP-binding enzyme"</title>
				<rect class="PF00501" x="2328" y="28" stroke-linejoin="round" width="39" height="24" fill="rgb(60,217,223)" stroke="rgb(48,173,178)" stroke-width="1" opacity="0.75" />
			</g>
			<g>
				<title>AMP-binding_C (PF13193)
"AMP-binding enzyme C-terminal domain"</title>
				<rect class="PF13193" x="2368" y="28" stroke-linejoin="round" width="7" height="24" fill="rgb(182,50,118)" stroke="rgb(145,39,94)" stroke-width="1" opacity="0.75" />
			</g>
			<g>
				<title>PP-binding (PF00550)
"Phosphopantetheine attachment site"</title>
				<rect class="PF00550" x="2378" y="28" stroke-linejoin="round" width="6" height="24" fill="rgb(103,191,88)" stroke="rgb(82,152,70)" stroke-width="1" opacity="0.75" />
			</g>
			<g>
				<title>Condensation (PF00668)
"Condensation domain"</title>
				<rect class="PF00668" x="2389" y="28" stroke-linejoin="round" width="42" height="24" fill="rgb(224,184,98)" stroke="rgb(179,147,78)" stroke-width="1" opacity="0.75" />
			</g>
			<g>
				<title>PP-binding (PF00550)
"Phosphopantetheine attachment site"</title>
				<rect class="PF00550" x="2436" y="28" stroke-linejoin="round" width="6" height="24" fill="rgb(103,191,88)" stroke="rgb(82,152,70)" stroke-width="1" opacity="0.75" />
			</g>
			<g>
				<title>Condensation (PF00668)
"Condensation domain"</title>
				<rect class="PF00668" x="2444" y="28" stroke-linejoin="round" width="45" height="24" fill="rgb(224,184,98)" stroke="rgb(179,147,78)" stroke-width="1" opacity="0.75" />
			</g>
			<g>
				<title>AMP-binding (PF00501)
"AMP-binding enzyme"</title>
				<rect class="PF00501" x="2491" y="28" stroke-linejoin="round" width="37" height="24" fill="rgb(60,217,223)" stroke="rgb(48,173,178)" stroke-width="1" opacity="0.75" />
			</g>
			<g>
				<title>AMP-binding_C (PF13193)
"AMP-binding enzyme C-terminal domain"</title>
				<polygon class="PF13193" points="2530,28 2533,28 2537,32 2537,48 2533,52 2530,52" stroke-linejoin="round" width="7" height="24" fill="rgb(182,50,118)" stroke="rgb(145,39,94)" stroke-width="1" opacity="0.75" />
			</g>
			<g>
				<title>PP-binding (PF00550)
"Phosphopantetheine attachment site"</title>
				<polygon class="PF00550" points="2540,35 2545,40 2540,45" stroke-linejoin="round" width="6" height="24" fill="rgb(103,191,88)" stroke="rgb(82,152,70)" stroke-width="1" opacity="0.75" />
			</g>
		</g>
		<g>
			<title>endC
nonribosomal peptide synthetase</title>
			<polygon class="endC
nonribosomal peptide synthetase" points="2549,25 3417,25 3417,10 3447,40 3417,70 3417,55 2549,55" fill="rgb(255,255,255)" fill-opacity="1.0" stroke="rgb(0,0,0)" stroke-width="2"  />
			<g>
				<title>Condensation (PF00668)
"Condensation domain"</title>
				<rect class="PF00668" x="2549" y="28" stroke-linejoin="round" width="45" height="24" fill="rgb(224,184,98)" stroke="rgb(179,147,78)" stroke-width="1" opacity="0.75" />
			</g>
			<g>
				<title>AMP-binding (PF00501)
"AMP-binding enzyme"</title>
				<rect class="PF00501" x="2596" y="28" stroke-linejoin="round" width="37" height="24" fill="rgb(60,217,223)" stroke="rgb(48,173,178)" stroke-width="1" opacity="0.75" />
			</g>
			<g>
				<title>AMP-binding_C (PF13193)
"AMP-binding enzyme C-terminal domain"</title>
				<rect class="PF13193" x="2635" y="28" stroke-linejoin="round" width="7" height="24" fill="rgb(182,50,118)" stroke="rgb(145,39,94)" stroke-width="1" opacity="0.75" />
			</g>
			<g>
				<title>PP-binding (PF00550)
"Phosphopantetheine attachment site"</title>
				<rect class="PF00550" x="2645" y="28" stroke-linejoin="round" width="6" height="24" fill="rgb(103,191,88)" stroke="rgb(82,152,70)" stroke-width="1" opacity="0.75" />
			</g>
			<g>
				<title>Condensation (PF00668)
"Condensation domain"</title>
				<rect class="PF00668" x="2656" y="28" stroke-linejoin="round" width="43" height="24" fill="rgb(224,184,98)" stroke="rgb(179,147,78)" stroke-width="1" opacity="0.75" />
			</g>
			<g>
				<title>AMP-binding (PF00501)
"AMP-binding enzyme"</title>
				<rect class="PF00501" x="2702" y="28" stroke-linejoin="round" width="38" height="24" fill="rgb(60,217,223)" stroke="rgb(48,173,178)" stroke-width="1" opacity="0.75" />
			</g>
			<g>
				<title>AMP-binding_C (PF13193)
"AMP-binding enzyme C-terminal domain"</title>
				<rect class="PF13193" x="2741" y="28" stroke-linejoin="round" width="7" height="24" fill="rgb(182,50,118)" stroke="rgb(145,39,94)" stroke-width="1" opacity="0.75" />
			</g>
			<g>
				<title>PP-binding (PF00550)
"Phosphopantetheine attachment site"</title>
				<rect class="PF00550" x="2751" y="28" stroke-linejoin="round" width="6" height="24" fill="rgb(103,191,88)" stroke="rgb(82,152,70)" stroke-width="1" opacity="0.75" />
			</g>
			<g>
				<title>Condensation (PF00668)
"Condensation domain"</title>
				<rect class="PF00668" x="2760" y="28" stroke-linejoin="round" width="45" height="24" fill="rgb(224,184,98)" stroke="rgb(179,147,78)" stroke-width="1" opacity="0.75" />
			</g>
			<g>
				<title>AMP-binding (PF00501)
"AMP-binding enzyme"</title>
				<rect class="PF00501" x="2807" y="28" stroke-linejoin="round" width="39" height="24" fill="rgb(60,217,223)" stroke="rgb(48,173,178)" stroke-width="1" opacity="0.75" />
			</g>
			<g>
				<title>AMP-binding_C (PF13193)
"AMP-binding enzyme C-terminal domain"</title>
				<rect class="PF13193" x="2848" y="28" stroke-linejoin="round" width="7" height="24" fill="rgb(182,50,118)" stroke="rgb(145,39,94)" stroke-width="1" opacity="0.75" />
			</g>
			<g>
				<title>PP-binding (PF00550)
"Phosphopantetheine attachment site"</title>
				<rect class="PF00550" x="2858" y="28" stroke-linejoin="round" width="6" height="24" fill="rgb(103,191,88)" stroke="rgb(82,152,70)" stroke-width="1" opacity="0.75" />
			</g>
			<g>
				<title>Condensation (PF00668)
"Condensation domain"</title>
				<rect class="PF00668" x="2869" y="28" stroke-linejoin="round" width="43" height="24" fill="rgb(224,184,98)" stroke="rgb(179,147,78)" stroke-width="1" opacity="0.75" />
			</g>
			<g>
				<title>AMP-binding (PF00501)
"AMP-binding enzyme"</title>
				<rect class="PF00501" x="2915" y="28" stroke-linejoin="round" width="39" height="24" fill="rgb(60,217,223)" stroke="rgb(48,173,178)" stroke-width="1" opacity="0.75" />
			</g>
			<g>
				<title>AMP-binding_C (PF13193)
"AMP-binding enzyme C-terminal domain"</title>
				<rect class="PF13193" x="2955" y="28" stroke-linejoin="round" width="7" height="24" fill="rgb(182,50,118)" stroke="rgb(145,39,94)" stroke-width="1" opacity="0.75" />
			</g>
			<g>
				<title>PP-binding (PF00550)
"Phosphopantetheine attachment site"</title>
				<rect class="PF00550" x="2965" y="28" stroke-linejoin="round" width="6" height="24" fill="rgb(103,191,88)" stroke="rgb(82,152,70)" stroke-width="1" opacity="0.75" />
			</g>
			<g>
				<title>Condensation (PF00668)
"Condensation domain"</title>
				<rect class="PF00668" x="2973" y="28" stroke-linejoin="round" width="45" height="24" fill="rgb(224,184,98)" stroke="rgb(179,147,78)" stroke-width="1" opacity="0.75" />
			</g>
			<g>
				<title>AMP-binding (PF00501)
"AMP-binding enzyme"</title>
				<rect class="PF00501" x="3020" y="28" stroke-linejoin="round" width="39" height="24" fill="rgb(60,217,223)" stroke="rgb(48,173,178)" stroke-width="1" opacity="0.75" />
			</g>
			<g>
				<title>AMP-binding_C (PF13193)
"AMP-binding enzyme C-terminal domain"</title>
				<rect class="PF13193" x="3061" y="28" stroke-linejoin="round" width="7" height="24" fill="rgb(182,50,118)" stroke="rgb(145,39,94)" stroke-width="1" opacity="0.75" />
			</g>
			<g>
				<title>PP-binding (PF00550)
"Phosphopantetheine attachment site"</title>
				<rect class="PF00550" x="3071" y="28" stroke-linejoin="round" width="6" height="24" fill="rgb(103,191,88)" stroke="rgb(82,152,70)" stroke-width="1" opacity="0.75" />
			</g>
			<g>
				<title>Condensation (PF00668)
"Condensation domain"</title>
				<rect class="PF00668" x="3082" y="28" stroke-linejoin="round" width="44" height="24" fill="rgb(224,184,98)" stroke="rgb(179,147,78)" stroke-width="1" opacity="0.75" />
			</g>
			<g>
				<title>AMP-binding (PF00501)
"AMP-binding enzyme"</title>
				<rect class="PF00501" x="3128" y="28" stroke-linejoin="round" width="37" height="24" fill="rgb(60,217,223)" stroke="rgb(48,173,178)" stroke-width="1" opacity="0.75" />
			</g>
			<g>
				<title>AMP-binding_C (PF13193)
"AMP-binding enzyme C-terminal domain"</title>
				<rect class="PF13193" x="3167" y="28" stroke-linejoin="round" width="7" height="24" fill="rgb(182,50,118)" stroke="rgb(145,39,94)" stroke-width="1" opacity="0.75" />
			</g>
			<g>
				<title>PP-binding (PF00550)
"Phosphopantetheine attachment site"</title>
				<rect class="PF00550" x="3177" y="28" stroke-linejoin="round" width="6" height="24" fill="rgb(103,191,88)" stroke="rgb(82,152,70)" stroke-width="1" opacity="0.75" />
			</g>
			<g>
				<title>Condensation (PF00668)
"Condensation domain"</title>
				<rect class="PF00668" x="3185" y="28" stroke-linejoin="round" width="45" height="24" fill="rgb(224,184,98)" stroke="rgb(179,147,78)" stroke-width="1" opacity="0.75" />
			</g>
			<g>
				<title>AMP-binding (PF00501)
"AMP-binding enzyme"</title>
				<rect class="PF00501" x="3233" y="28" stroke-linejoin="round" width="40" height="24" fill="rgb(60,217,223)" stroke="rgb(48,173,178)" stroke-width="1" opacity="0.75" />
			</g>
			<g>
				<title>AMP-binding_C (PF13193)
"AMP-binding enzyme C-terminal domain"</title>
				<rect class="PF13193" x="3273" y="28" stroke-linejoin="round" width="8" height="24" fill="rgb(182,50,118)" stroke="rgb(145,39,94)" stroke-width="1" opacity="0.75" />
			</g>
			<g>
				<title>PP-binding (PF00550)
"Phosphopantetheine attachment site"</title>
				<rect class="PF00550" x="3285" y="28" stroke-linejoin="round" width="6" height="24" fill="rgb(103,191,88)" stroke="rgb(82,152,70)" stroke-width="1" opacity="0.75" />
			</g>
			<g>
				<title>Condensation (PF00668)
"Condensation domain"</title>
				<rect class="PF00668" x="3296" y="28" stroke-linejoin="round" width="43" height="24" fill="rgb(224,184,98)" stroke="rgb(179,147,78)" stroke-width="1" opacity="0.75" />
			</g>
			<g>
				<title>AMP-binding (PF00501)
"AMP-binding enzyme"</title>
				<rect class="PF00501" x="3341" y="28" stroke-linejoin="round" width="39" height="24" fill="rgb(60,217,223)" stroke="rgb(48,173,178)" stroke-width="1" opacity="0.75" />
			</g>
			<g>
				<title>AMP-binding_C (PF13193)
"AMP-binding enzyme C-terminal domain"</title>
				<rect class="PF13193" x="3381" y="28" stroke-linejoin="round" width="7" height="24" fill="rgb(182,50,118)" stroke="rgb(145,39,94)" stroke-width="1" opacity="0.75" />
			</g>
			<g>
				<title>PP-binding (PF00550)
"Phosphopantetheine attachment site"</title>
				<rect class="PF00550" x="3392" y="28" stroke-linejoin="round" width="6" height="24" fill="rgb(103,191,88)" stroke="rgb(82,152,70)" stroke-width="1" opacity="0.75" />
			</g>
			<g>
				<title>Thioesterase (PF00975)
"Thioesterase domain"</title>
				<rect class="PF00975" x="3400" y="28" stroke-linejoin="round" width="22" height="24" fill="rgb(207,80,138)" stroke="rgb(165,63,110)" stroke-width="1" opacity="0.75" />
			</g>
			<g>
				<title>Thioesterase (PF00975)
"Thioesterase domain"</title>
				<polygon class="PF00975" points="3424,28 3431,28 3443,40 3431,52 3424,52" stroke-linejoin="round" width="22" height="24" fill="rgb(207,80,138)" stroke="rgb(165,63,110)" stroke-width="1" opacity="0.75" />
			</g>
		</g>
		<g>
			<title>
acyl-CoA dehydrogenase/reductase</title>
			<polygon class="
acyl-CoA dehydrogenase/reductase" points="3448,10 3475,40 3448,70" fill="rgb(255,255,255)" fill-opacity="1.0" stroke="rgb(0,0,0)" stroke-width="2"  />
			<g>
				<title>adh_short_C2 (PF13561)
"Enoyl-(Acyl carrier protein) reductase"</title>
				<polygon class="PF13561" points="3449,28 3459,28 3471,40 3459,52 3449,52" stroke-linejoin="round" width="26" height="24" fill="rgb(73,205,127)" stroke="rgb(58,164,101)" stroke-width="1" opacity="0.75" />
			</g>
		</g>
		<g>
			<title>endD
nonribosomal peptide synthetase</title>
			<polygon class="endD
nonribosomal peptide synthetase" points="3476,25 3532,25 3532,10 3562,40 3532,70 3532,55 3476,55" fill="rgb(255,255,255)" fill-opacity="1.0" stroke="rgb(0,0,0)" stroke-width="2"  />
			<g>
				<title>AMP-binding (PF00501)
"AMP-binding enzyme"</title>
				<rect class="PF00501" x="3504" y="28" stroke-linejoin="round" width="39" height="24" fill="rgb(60,217,223)" stroke="rgb(48,173,178)" stroke-width="1" opacity="0.75" />
			</g>
			<g>
				<title>AMP-binding_C (PF13193)
"AMP-binding enzyme C-terminal domain"</title>
				<polygon class="PF13193" points="3545,28 3545,28 3552,35 3552,45 3545,52 3545,52" stroke-linejoin="round" width="7" height="24" fill="rgb(182,50,118)" stroke="rgb(145,39,94)" stroke-width="1" opacity="0.75" />
			</g>
			<g>
				<title>PP-binding (PF00550)
"Phosphopantetheine attachment site"</title>
				<polygon class="PF00550" points="3555,38 3557,40 3555,42" stroke-linejoin="round" width="6" height="24" fill="rgb(103,191,88)" stroke="rgb(82,152,70)" stroke-width="1" opacity="0.75" />
			</g>
		</g>
		<g>
			<title>
two-component system response regulator</title>
			<polygon class="
two-component system response regulator" points="3563,40 3585,10 3585,70" fill="rgb(255,255,255)" fill-opacity="1.0" stroke="rgb(0,0,0)" stroke-width="2"  />
			<g>
				<title>GerE (PF00196)
"Bacterial regulatory proteins, luxR family"</title>
				<polygon class="PF00196" points="3567,40 3569,37 3569,43" stroke-linejoin="round" width="5" height="24" fill="rgb(219,94,82)" stroke="rgb(175,75,65)" stroke-width="1" opacity="0.75" />
			</g>
			<g>
				<title>Response_reg (PF00072)
"Response regulator receiver domain"</title>
				<polygon class="PF00072" points="3573,32 3576,28 3584,28 3584,52 3576,52 3573,48" stroke-linejoin="round" width="11" height="24" fill="rgb(100,107,203)" stroke="rgb(80,85,162)" stroke-width="1" opacity="0.75" />
			</g>
		</g>
		<g>
			<title>
two-component system sensor kinase</title>
			<polygon class="
two-component system sensor kinase" points="3622,25 3615,25 3615,10 3585,40 3615,70 3615,55 3622,55" fill="rgb(255,255,255)" fill-opacity="1.0" stroke="rgb(0,0,0)" stroke-width="2"  />
			<g>
				<title>HisKA_3 (PF07730)
"Histidine kinase"</title>
				<polygon class="PF07730" points="3598,31 3601,28 3604,28 3604,52 3601,52 3598,49" stroke-linejoin="round" width="6" height="24" fill="rgb(190,53,146)" stroke="rgb(152,42,116)" stroke-width="1" opacity="0.75" />
			</g>
		</g>
		<g>
			<title>
two-component system sensor kinase</title>
			<polygon class="
two-component system sensor kinase" points="3627,40 3645,10 3645,70" fill="rgb(255,255,255)" fill-opacity="1.0" stroke="rgb(0,0,0)" stroke-width="2"  />
		</g>
		<g>
			<title>
acyl-CoA dehydrogenase</title>
			<polygon class="
acyl-CoA dehydrogenase" points="3711,25 3679,25 3679,10 3649,40 3679,70 3679,55 3711,55" fill="rgb(255,255,255)" fill-opacity="1.0" stroke="rgb(0,0,0)" stroke-width="2"  />
		</g>
		<g>
			<title>
acyl-CoA ligase/dehydrogenase fusion protein</title>
			<polygon class="
acyl-CoA ligase/dehydrogenase fusion protein" points="3822,25 3735,25 3735,10 3705,40 3735,70 3735,55 3822,55" fill="rgb(255,255,255)" fill-opacity="1.0" stroke="rgb(0,0,0)" stroke-width="2"  />
			<g>
				<title>Acyl-CoA_dh_1 (PF00441)
"Acyl-CoA dehydrogenase, C-terminal domain"</title>
				<rect class="PF00441" x="3724" y="28" stroke-linejoin="round" width="15" height="24" fill="rgb(85,191,117)" stroke="rgb(68,152,93)" stroke-width="1" opacity="0.75" />
			</g>
			<g>
				<title>Acyl-CoA_dh_M (PF02770)
"Acyl-CoA dehydrogenase, middle domain"</title>
				<rect class="PF02770" x="3741" y="28" stroke-linejoin="round" width="9" height="24" fill="rgb(225,186,97)" stroke="rgb(180,148,77)" stroke-width="1" opacity="0.75" />
			</g>
			<g>
				<title>Acyl-CoA_dh_N (PF02771)
"Acyl-CoA dehydrogenase, N-terminal domain"</title>
				<rect class="PF02771" x="3751" y="28" stroke-linejoin="round" width="9" height="24" fill="rgb(105,135,218)" stroke="rgb(84,108,174)" stroke-width="1" opacity="0.75" />
			</g>
			<g>
				<title>AMP-binding (PF00501)
"AMP-binding enzyme"</title>
				<rect class="PF00501" x="3776" y="28" stroke-linejoin="round" width="28" height="24" fill="rgb(60,217,223)" stroke="rgb(48,173,178)" stroke-width="1" opacity="0.75" />
			</g>
			<g>
				<title>AMP-binding (PF00501)
"AMP-binding enzyme"</title>
				<rect class="PF00501" x="3804" y="28" stroke-linejoin="round" width="16" height="24" fill="rgb(60,217,223)" stroke="rgb(48,173,178)" stroke-width="1" opacity="0.75" />
			</g>
		</g>
		<g>
			<title>
MbtH-like protein</title>
			<polygon class="
MbtH-like protein" points="3823,40 3830,10 3830,70" fill="rgb(255,255,255)" fill-opacity="1.0" stroke="rgb(0,0,0)" stroke-width="2"  />
			<g>
				<title>MbtH (PF03621)
"MbtH-like protein"</title>
				<polygon class="PF03621" points="3826,40 3829,28 3829,28 3829,52 3829,52" stroke-linejoin="round" width="5" height="24" fill="rgb(212,165,97)" stroke="rgb(169,132,77)" stroke-width="1" opacity="0.75" />
			</g>
		</g>
		<g>
			<title>
integral membrane protein</title>
			<polygon class="
integral membrane protein" points="3839,40 3863,10 3863,70" fill="rgb(255,255,255)" fill-opacity="1.0" stroke="rgb(0,0,0)" stroke-width="2"  />
			<g>
				<title>Rhomboid (PF01694)
"Rhomboid family"</title>
				<polygon class="PF01694" points="3843,40 3853,28 3853,28 3853,52 3853,52" stroke-linejoin="round" width="13" height="24" fill="rgb(210,72,145)" stroke="rgb(168,57,116)" stroke-width="1" opacity="0.75" />
			</g>
		</g>
		<g>
			<title>
integral membrane protein</title>
			<polygon class="
integral membrane protein" points="3862,40 3873,10 3873,70" fill="rgb(255,255,255)" fill-opacity="1.0" stroke="rgb(0,0,0)" stroke-width="2"  />
		</g>
	</g>
</svg>
