<svg version="1.1" baseProfile="full" xmlns="http://www.w3.org/2000/svg" width="1061.3333333333333" height="80">
	<g>
		<line x1="10" y1="40.0" x2="1051.3333333333333" y2="40.0" style="stroke:rgb(70,70,70); stroke-width:3 "/>
		<g>
			<title> (ASPNIDRAFT_179585)
hypothetical protein</title>
			<polygon class=" (ASPNIDRAFT_179585)
hypothetical protein" points="353,25 147,25 147,10 117,40 147,70 147,55 353,55" fill="rgb(255,255,255)" fill-opacity="1.0" stroke="rgb(0,0,0)" stroke-width="2"  />
			<g>
				<title>PP-binding (PF00550)
"Phosphopantetheine attachment site"</title>
				<polygon class="PF00550" points="121,40 125,36 125,44" stroke-linejoin="round" width="6" height="24" fill="rgb(103,191,88)" stroke="rgb(82,152,70)" stroke-width="1" opacity="0.75" />
			</g>
			<g>
				<title>KR (PF08659)
"KR domain"</title>
				<rect class="PF08659" x="137" y="28" stroke-linejoin="round" width="17" height="24" fill="rgb(66,209,188)" stroke="rgb(52,167,150)" stroke-width="1" opacity="0.75" />
			</g>
			<g>
				<title>ADH_zinc_N_2 (PF13602)
"Zinc-binding dehydrogenase"</title>
				<rect class="PF13602" x="157" y="28" stroke-linejoin="round" width="14" height="24" fill="rgb(101,131,226)" stroke="rgb(80,104,180)" stroke-width="1" opacity="0.75" />
			</g>
			<g>
				<title>PS-DH (PF14765)
"Polyketide synthase dehydratase"</title>
				<rect class="PF14765" x="226" y="28" stroke-linejoin="round" width="31" height="24" fill="rgb(173,56,182)" stroke="rgb(138,44,145)" stroke-width="1" opacity="0.75" />
			</g>
			<g>
				<title>Acyl_transf_1 (PF00698)
"Acyl transferase domain"</title>
				<rect class="PF00698" x="263" y="28" stroke-linejoin="round" width="33" height="24" fill="rgb(59,176,209)" stroke="rgb(47,140,167)" stroke-width="1" opacity="0.75" />
			</g>
			<g>
				<title>KAsynt_C_assoc (PF16197)
"Ketoacyl-synthetase C-terminal extension"</title>
				<rect class="PF16197" x="300" y="28" stroke-linejoin="round" width="12" height="24" fill="rgb(240,150,172)" stroke="rgb(192,120,137)" stroke-width="1" opacity="0.75" />
			</g>
			<g>
				<title>Ketoacyl-synt_C (PF02801)
"Beta-ketoacyl synthase, C-terminal domain"</title>
				<rect class="PF02801" x="313" y="28" stroke-linejoin="round" width="11" height="24" fill="rgb(215,78,102)" stroke="rgb(172,62,81)" stroke-width="1" opacity="0.75" />
			</g>
			<g>
				<title>ketoacyl-synt (PF00109)
"Beta-ketoacyl synthase, N-terminal domain"</title>
				<rect class="PF00109" x="325" y="28" stroke-linejoin="round" width="25" height="24" fill="rgb(112,116,228)" stroke="rgb(89,92,182)" stroke-width="1" opacity="0.75" />
			</g>
		</g>
		<g>
			<title> (ASPNIDRAFT_123599)
hypothetical protein</title>
			<polygon class=" (ASPNIDRAFT_123599)
hypothetical protein" points="446,25 428,25 428,10 398,40 428,70 428,55 446,55" fill="rgb(255,255,255)" fill-opacity="1.0" stroke="rgb(0,0,0)" stroke-width="2"  />
			<g>
				<title>MFS_1 (PF07690)
"Major Facilitator Superfamily"</title>
				<rect class="PF07690" x="416" y="28" stroke-linejoin="round" width="29" height="24" fill="rgb(193,224,74)" stroke="rgb(154,179,59)" stroke-width="1" opacity="0.75" />
			</g>
		</g>
		<g>
			<title> (ASPNIDRAFT_38711)
hypothetical protein</title>
			<polygon class=" (ASPNIDRAFT_38711)
hypothetical protein" points="472,25 478,25 478,10 508,40 478,70 478,55 472,55" fill="rgb(255,255,255)" fill-opacity="1.0" stroke="rgb(0,0,0)" stroke-width="2"  />
			<g>
				<title>p450 (PF00067)
"Cytochrome P450"</title>
				<polygon class="PF00067" points="472,28 492,28 499,35 499,45 492,52 472,52" stroke-linejoin="round" width="27" height="24" fill="rgb(85,216,107)" stroke="rgb(68,172,85)" stroke-width="1" opacity="0.75" />
			</g>
		</g>
		<g>
			<title> (ASPNIDRAFT_178484)
hypothetical protein</title>
			<polygon class=" (ASPNIDRAFT_178484)
hypothetical protein" points="562,10 579,40 562,70" fill="rgb(255,255,255)" fill-opacity="1.0" stroke="rgb(0,0,0)" stroke-width="2"  />
			<g>
				<title>Methyltransf_2 (PF00891)
"O-methyltransferase domain"</title>
				<polygon class="PF00891" points="562,28 568,28 575,40 568,52 562,52" stroke-linejoin="round" width="15" height="24" fill="rgb(50,51,190)" stroke="rgb(39,40,152)" stroke-width="1" opacity="0.75" />
			</g>
		</g>
		<g>
			<title> (ASPNIDRAFT_38712)
hypothetical protein</title>
			<polygon class=" (ASPNIDRAFT_38712)
hypothetical protein" points="749,25 721,25 721,10 691,40 721,70 721,55 749,55" fill="rgb(255,255,255)" fill-opacity="1.0" stroke="rgb(0,0,0)" stroke-width="2"  />
			<g>
				<title>FAD_binding_3 (PF01494)
"FAD binding domain"</title>
				<rect class="PF01494" x="716" y="28" stroke-linejoin="round" width="32" height="24" fill="rgb(182,175,59)" stroke="rgb(145,140,47)" stroke-width="1" opacity="0.75" />
			</g>
		</g>
		<g>
			<title> (ASPNIDRAFT_38713)
aspartic protease</title>
			<polygon class=" (ASPNIDRAFT_38713)
aspartic protease" points="831,25 818,25 818,10 788,40 818,70 818,55 831,55" fill="rgb(255,255,255)" fill-opacity="1.0" stroke="rgb(0,0,0)" stroke-width="2"  />
			<g>
				<title>Asp (PF00026)
"Eukaryotic aspartyl protease"</title>
				<polygon class="PF00026" points="792,40 804,28 827,28 827,52 804,52" stroke-linejoin="round" width="37" height="24" fill="rgb(210,100,210)" stroke="rgb(168,80,168)" stroke-width="1" opacity="0.75" />
			</g>
		</g>
		<g>
			<title> (ASPNIDRAFT_38714)
hypothetical protein</title>
			<polygon class=" (ASPNIDRAFT_38714)
hypothetical protein" points="889,40 917,10 917,70" fill="rgb(255,255,255)" fill-opacity="1.0" stroke="rgb(0,0,0)" stroke-width="2"  />
		</g>
		<g>
			<title> (ASPNIDRAFT_38715)
FAD/FMN-containing dehydrogenase</title>
			<polygon class=" (ASPNIDRAFT_38715)
FAD/FMN-containing dehydrogenase" points="1012,25 990,25 990,10 960,40 990,70 990,55 1012,55" fill="rgb(255,255,255)" fill-opacity="1.0" stroke="rgb(0,0,0)" stroke-width="2"  />
			<g>
				<title>FAD_binding_4 (PF01565)
"FAD binding domain"</title>
				<rect class="PF01565" x="991" y="28" stroke-linejoin="round" width="13" height="24" fill="rgb(226,88,136)" stroke="rgb(180,70,108)" stroke-width="1" opacity="0.75" />
			</g>
		</g>
	</g>
</svg>
