<svg version="1.1" baseProfile="full" xmlns="http://www.w3.org/2000/svg" width="182.93333333333334" height="80">
	<g>
		<line x1="10" y1="40.0" x2="172.93333333333334" y2="40.0" style="stroke:rgb(70,70,70); stroke-width:3 "/>
		<g>
			<title>cpsIaD
CpsIaD</title>
			<polygon class="cpsIaD
CpsIaD" points="10,10 14,40 10,70" fill="rgb(255,255,255)" fill-opacity="1.0" stroke="rgb(0,0,0)" stroke-width="2"  />
		</g>
		<g>
			<title>cpsIaE
CpsIaE</title>
			<polygon class="cpsIaE
CpsIaE" points="22,25 31,25 31,10 61,40 31,70 31,55 22,55" fill="rgb(255,255,255)" fill-opacity="1.0" stroke="rgb(0,0,0)" stroke-width="2"  />
			<g>
				<title>Bac_transf (PF02397)
"Bacterial sugar transferase"</title>
				<polygon class="PF02397" points="41,28 44,28 56,40 44,52 41,52" stroke-linejoin="round" width="18" height="24" fill="rgb(57,165,209)" stroke="rgb(45,131,167)" stroke-width="1" opacity="0.75" />
			</g>
		</g>
		<g>
			<title>cpsIaF
CpsIaF</title>
			<polygon class="cpsIaF
CpsIaF" points="61,10 76,40 61,70" fill="rgb(255,255,255)" fill-opacity="1.0" stroke="rgb(0,0,0)" stroke-width="2"  />
			<g>
				<title>Alg14 (PF08660)
"Oligosaccharide biosynthesis protein Alg14 like"</title>
				<polygon class="PF08660" points="61,28 66,28 72,40 66,52 61,52" stroke-linejoin="round" width="14" height="24" fill="rgb(171,179,66)" stroke="rgb(136,143,52)" stroke-width="1" opacity="0.75" />
			</g>
		</g>
		<g>
			<title>cpsIaG
CpsIaG</title>
			<polygon class="cpsIaG
CpsIaG" points="76,10 92,40 76,70" fill="rgb(255,255,255)" fill-opacity="1.0" stroke="rgb(0,0,0)" stroke-width="2"  />
			<g>
				<title>Glyco_tran_28_C (PF04101)
"Glycosyltransferase family 28 C-terminal domain"</title>
				<polygon class="PF04101" points="76,28 82,28 88,40 82,52 76,52" stroke-linejoin="round" width="15" height="24" fill="rgb(211,90,140)" stroke="rgb(168,72,112)" stroke-width="1" opacity="0.75" />
			</g>
		</g>
		<g>
			<title>cpsIaH
CpsIaH</title>
			<polygon class="cpsIaH
CpsIaH" points="96,25 104,25 104,10 134,40 104,70 104,55 96,55" fill="rgb(255,255,255)" fill-opacity="1.0" stroke="rgb(0,0,0)" stroke-width="2"  />
			<g>
				<title>Wzy_C (PF04932)
"O-Antigen ligase"</title>
				<polygon class="PF04932" points="113,28 117,28 126,37 126,43 117,52 113,52" stroke-linejoin="round" width="13" height="24" fill="rgb(106,219,107)" stroke="rgb(84,175,85)" stroke-width="1" opacity="0.75" />
			</g>
		</g>
		<g>
			<title>cpsIaI
CpsIaI</title>
			<polygon class="cpsIaI
CpsIaI" points="134,25 136,25 136,10 166,40 136,70 136,55 134,55" fill="rgb(255,255,255)" fill-opacity="1.0" stroke="rgb(0,0,0)" stroke-width="2"  />
			<g>
				<title>Glycos_transf_2 (PF00535)
"Glycosyl transferase family 2"</title>
				<rect class="PF00535" x="134" y="28" stroke-linejoin="round" width="16" height="24" fill="rgb(224,122,96)" stroke="rgb(179,97,76)" stroke-width="1" opacity="0.75" />
			</g>
		</g>
		<g>
			<title>cpsIaJ
CpsIaJ</title>
			<polygon class="cpsIaJ
CpsIaJ" points="167,10 172,40 167,70" fill="rgb(255,255,255)" fill-opacity="1.0" stroke="rgb(0,0,0)" stroke-width="2"  />
			<g>
				<title>Glycos_transf_2 (PF00535)
"Glycosyl transferase family 2"</title>
				<polygon class="PF00535" points="168,34 169,40 168,46" stroke-linejoin="round" width="4" height="24" fill="rgb(224,122,96)" stroke="rgb(179,97,76)" stroke-width="1" opacity="0.75" />
			</g>
		</g>
	</g>
</svg>
