<svg version="1.1" baseProfile="full" xmlns="http://www.w3.org/2000/svg" width="328.6333333333333" height="80">
	<g>
		<line x1="10" y1="40.0" x2="318.6333333333333" y2="40.0" style="stroke:rgb(70,70,70); stroke-width:3 "/>
		<g>
			<title> (SAV2462)
antibiotic resistance protein</title>
			<polygon class=" (SAV2462)
antibiotic resistance protein" points="49,25 40,25 40,10 10,40 40,70 40,55 49,55" fill="rgb(255,255,255)" fill-opacity="1.0" stroke="rgb(0,0,0)" stroke-width="2"  />
			<g>
				<title>MFS_1 (PF07690)
"Major Facilitator Superfamily"</title>
				<polygon class="PF07690" points="16,38 26,28 48,28 48,52 26,52 16,42" stroke-linejoin="round" width="32" height="24" fill="rgb(193,224,74)" stroke="rgb(154,179,59)" stroke-width="1" opacity="0.75" />
			</g>
		</g>
		<g>
			<title> (SAV2463)
oligopeptide transporter putative ATPase domain</title>
			<polygon class=" (SAV2463)
oligopeptide transporter putative ATPase domain" points="50,40 75,10 75,70" fill="rgb(255,255,255)" fill-opacity="1.0" stroke="rgb(0,0,0)" stroke-width="2"  />
			<g>
				<title>ABC_tran (PF00005)
"ABC transporter"</title>
				<polygon class="PF00005" points="57,36 64,28 71,28 71,52 64,52 57,44" stroke-linejoin="round" width="14" height="24" fill="rgb(129,201,63)" stroke="rgb(103,160,50)" stroke-width="1" opacity="0.75" />
			</g>
		</g>
		<g>
			<title> (SAV2464)
oligopeptide transporter putative ATPase domain</title>
			<polygon class=" (SAV2464)
oligopeptide transporter putative ATPase domain" points="74,40 101,10 101,70" fill="rgb(255,255,255)" fill-opacity="1.0" stroke="rgb(0,0,0)" stroke-width="2"  />
			<g>
				<title>ABC_tran (PF00005)
"ABC transporter"</title>
				<polygon class="PF00005" points="83,34 89,28 98,28 98,52 89,52 83,46" stroke-linejoin="round" width="15" height="24" fill="rgb(129,201,63)" stroke="rgb(103,160,50)" stroke-width="1" opacity="0.75" />
			</g>
		</g>
		<g>
			<title> (SAV2465)
oligopeptide transporter putative membrane permease domain</title>
			<polygon class=" (SAV2465)
oligopeptide transporter putative membrane permease domain" points="101,40 130,10 130,70" fill="rgb(255,255,255)" fill-opacity="1.0" stroke="rgb(0,0,0)" stroke-width="2"  />
			<g>
				<title>BPD_transp_1 (PF00528)
"Binding-protein-dependent transport system inner membrane component"</title>
				<polygon class="PF00528" points="105,40 117,28 120,28 120,52 117,52" stroke-linejoin="round" width="18" height="24" fill="rgb(77,208,225)" stroke="rgb(61,166,180)" stroke-width="1" opacity="0.75" />
			</g>
			<g>
				<title>OppC_N (PF12911)
"N-terminal TM domain of oligopeptide transport permease C"</title>
				<rect class="PF12911" x="124" y="28" stroke-linejoin="round" width="5" height="24" fill="rgb(167,178,88)" stroke="rgb(133,142,70)" stroke-width="1" opacity="0.75" />
			</g>
		</g>
		<g>
			<title> (SAV2466)
oligopeptide transporter putative membrane permease domain</title>
			<polygon class=" (SAV2466)
oligopeptide transporter putative membrane permease domain" points="161,25 160,25 160,10 130,40 160,70 160,55 161,55" fill="rgb(255,255,255)" fill-opacity="1.0" stroke="rgb(0,0,0)" stroke-width="2"  />
			<g>
				<title>BPD_transp_1 (PF00528)
"Binding-protein-dependent transport system inner membrane component"</title>
				<polygon class="PF00528" points="134,40 146,28 149,28 149,52 146,52" stroke-linejoin="round" width="19" height="24" fill="rgb(77,208,225)" stroke="rgb(61,166,180)" stroke-width="1" opacity="0.75" />
			</g>
			<g>
				<title>BPD_transp_1_N (PF19300)
"Binding-prot-dependent transport system membrane comp, N-term"</title>
				<rect class="PF19300" x="149" y="28" stroke-linejoin="round" width="11" height="24" fill="rgb(201,94,75)" stroke="rgb(160,75,60)" stroke-width="1" opacity="0.75" />
			</g>
		</g>
		<g>
			<title> (SAV2467)
oligopeptide transporter putative substrate binding domain</title>
			<polygon class=" (SAV2467)
oligopeptide transporter putative substrate binding domain" points="215,25 192,25 192,10 162,40 192,70 192,55 215,55" fill="rgb(255,255,255)" fill-opacity="1.0" stroke="rgb(0,0,0)" stroke-width="2"  />
			<g>
				<title>SBP_bac_5 (PF00496)
"Bacterial extracellular solute-binding proteins, family 5 Middle"</title>
				<polygon class="PF00496" points="170,36 178,28 207,28 207,52 178,52 170,44" stroke-linejoin="round" width="37" height="24" fill="rgb(199,94,116)" stroke="rgb(159,75,92)" stroke-width="1" opacity="0.75" />
			</g>
		</g>
		<g>
			<title> (SAV2468)
conserved hypothetical protein</title>
			<polygon class=" (SAV2468)
conserved hypothetical protein" points="263,25 250,25 250,10 220,40 250,70 250,55 263,55" fill="rgb(255,255,255)" fill-opacity="1.0" stroke="rgb(0,0,0)" stroke-width="2"  />
			<g>
				<title>Staph_opine_DH (PF10100)
"Staphylopine dehydrogenase"</title>
				<polygon class="PF10100" points="224,40 236,28 262,28 262,52 236,52" stroke-linejoin="round" width="42" height="24" fill="rgb(60,206,192)" stroke="rgb(48,164,153)" stroke-width="1" opacity="0.75" />
			</g>
		</g>
		<g>
			<title> (SAV2469)
conserved hypothetical protein</title>
			<polygon class=" (SAV2469)
conserved hypothetical protein" points="263,40 290,10 290,70" fill="rgb(255,255,255)" fill-opacity="1.0" stroke="rgb(0,0,0)" stroke-width="2"  />
		</g>
		<g>
			<title> (SAV2470)
similar to diaminopimelate epimerase</title>
			<polygon class=" (SAV2470)
similar to diaminopimelate epimerase" points="291,40 318,10 318,70" fill="rgb(255,255,255)" fill-opacity="1.0" stroke="rgb(0,0,0)" stroke-width="2"  />
		</g>
	</g>
</svg>
