<svg version="1.1" baseProfile="full" xmlns="http://www.w3.org/2000/svg" width="522.6666666666667" height="80">
	<g>
		<line x1="10" y1="40.0" x2="512.6666666666667" y2="40.0" style="stroke:rgb(70,70,70); stroke-width:3 "/>
		<g>
			<title>allA
AllA</title>
			<polygon class="allA
AllA" points="102,25 115,25 115,10 145,40 115,70 115,55 102,55" fill="rgb(255,255,255)" fill-opacity="1.0" stroke="rgb(0,0,0)" stroke-width="2"  />
			<g>
				<title>Acyl_transf_1 (PF00698)
"Acyl transferase domain"</title>
				<polygon class="PF00698" points="102,28 128,28 133,33 133,47 128,52 102,52" stroke-linejoin="round" width="31" height="24" fill="rgb(59,176,209)" stroke="rgb(47,140,167)" stroke-width="1" opacity="0.75" />
			</g>
			<g>
				<title>PP-binding (PF00550)
"Phosphopantetheine attachment site"</title>
				<polygon class="PF00550" points="136,36 140,40 136,44" stroke-linejoin="round" width="6" height="24" fill="rgb(103,191,88)" stroke="rgb(82,152,70)" stroke-width="1" opacity="0.75" />
			</g>
		</g>
		<g>
			<title>allK
AllK</title>
			<polygon class="allK
AllK" points="145,25 194,25 194,10 224,40 194,70 194,55 145,55" fill="rgb(255,255,255)" fill-opacity="1.0" stroke="rgb(0,0,0)" stroke-width="2"  />
			<g>
				<title>ketoacyl-synt (PF00109)
"Beta-ketoacyl synthase, N-terminal domain"</title>
				<rect class="PF00109" x="146" y="28" stroke-linejoin="round" width="12" height="24" fill="rgb(112,116,228)" stroke="rgb(89,92,182)" stroke-width="1" opacity="0.75" />
			</g>
			<g>
				<title>ketoacyl-synt (PF00109)
"Beta-ketoacyl synthase, N-terminal domain"</title>
				<rect class="PF00109" x="165" y="28" stroke-linejoin="round" width="8" height="24" fill="rgb(112,116,228)" stroke="rgb(89,92,182)" stroke-width="1" opacity="0.75" />
			</g>
			<g>
				<title>Ketoacyl-synt_C (PF02801)
"Beta-ketoacyl synthase, C-terminal domain"</title>
				<rect class="PF02801" x="174" y="28" stroke-linejoin="round" width="11" height="24" fill="rgb(215,78,102)" stroke="rgb(172,62,81)" stroke-width="1" opacity="0.75" />
			</g>
			<g>
				<title>ketoacyl-synt (PF00109)
"Beta-ketoacyl synthase, N-terminal domain"</title>
				<polygon class="PF00109" points="197,28 208,28 214,34 214,46 208,52 197,52" stroke-linejoin="round" width="17" height="24" fill="rgb(112,116,228)" stroke="rgb(89,92,182)" stroke-width="1" opacity="0.75" />
			</g>
		</g>
		<g>
			<title>allR
AllR</title>
			<polygon class="allR
AllR" points="225,25 239,25 239,10 269,40 239,70 239,55 225,55" fill="rgb(255,255,255)" fill-opacity="1.0" stroke="rgb(0,0,0)" stroke-width="2"  />
			<g>
				<title>ADH_zinc_N (PF00107)
"Zinc-binding dehydrogenase"</title>
				<polygon class="PF00107" points="248,28 253,28 262,37 262,43 253,52 248,52" stroke-linejoin="round" width="14" height="24" fill="rgb(81,108,215)" stroke="rgb(64,86,172)" stroke-width="1" opacity="0.75" />
			</g>
		</g>
		<g>
			<title>allD
AllD</title>
			<polygon class="allD
AllD" points="269,25 277,25 277,10 307,40 277,70 277,55 269,55" fill="rgb(255,255,255)" fill-opacity="1.0" stroke="rgb(0,0,0)" stroke-width="2"  />
			<g>
				<title>Acyl-CoA_dh_N (PF02771)
"Acyl-CoA dehydrogenase, N-terminal domain"</title>
				<rect class="PF02771" x="269" y="28" stroke-linejoin="round" width="10" height="24" fill="rgb(105,135,218)" stroke="rgb(84,108,174)" stroke-width="1" opacity="0.75" />
			</g>
			<g>
				<title>Acyl-CoA_dh_M (PF02770)
"Acyl-CoA dehydrogenase, middle domain"</title>
				<rect class="PF02770" x="280" y="28" stroke-linejoin="round" width="9" height="24" fill="rgb(225,186,97)" stroke="rgb(180,148,77)" stroke-width="1" opacity="0.75" />
			</g>
			<g>
				<title>Acyl-CoA_dh_1 (PF00441)
"Acyl-CoA dehydrogenase, C-terminal domain"</title>
				<polygon class="PF00441" points="290,28 291,28 303,40 291,52 290,52" stroke-linejoin="round" width="16" height="24" fill="rgb(85,191,117)" stroke="rgb(68,152,93)" stroke-width="1" opacity="0.75" />
			</g>
		</g>
		<g>
			<title>allM
AllM</title>
			<polygon class="allM
AllM" points="347,25 339,25 339,10 309,40 339,70 339,55 347,55" fill="rgb(255,255,255)" fill-opacity="1.0" stroke="rgb(0,0,0)" stroke-width="2"  />
			<g>
				<title>Cys_Met_Meta_PP (PF01053)
"Cys/Met metabolism PLP-dependent enzyme"</title>
				<polygon class="PF01053" points="313,40 325,28 346,28 346,52 325,52" stroke-linejoin="round" width="37" height="24" fill="rgb(142,222,85)" stroke="rgb(113,177,67)" stroke-width="1" opacity="0.75" />
			</g>
		</g>
		<g>
			<title>allN
AllN</title>
			<polygon class="allN
AllN" points="349,10 364,40 349,70" fill="rgb(255,255,255)" fill-opacity="1.0" stroke="rgb(0,0,0)" stroke-width="2"  />
			<g>
				<title>HTH_AsnC-type (PF13404)
"AsnC-type helix-turn-helix domain"</title>
				<rect class="PF13404" x="349" y="28" stroke-linejoin="round" width="4" height="24" fill="rgb(190,195,86)" stroke="rgb(152,156,68)" stroke-width="1" opacity="0.75" />
			</g>
			<g>
				<title>AsnC_trans_reg (PF01037)
"Lrp/AsnC ligand binding domain"</title>
				<polygon class="PF01037" points="356,30 361,40 356,50" stroke-linejoin="round" width="7" height="24" fill="rgb(134,72,182)" stroke="rgb(107,57,145)" stroke-width="1" opacity="0.75" />
			</g>
		</g>
		<g>
			<title>allP
AllP</title>
			<polygon class="allP
AllP" points="368,25 379,25 379,10 409,40 379,70 379,55 368,55" fill="rgb(255,255,255)" fill-opacity="1.0" stroke="rgb(0,0,0)" stroke-width="2"  />
			<g>
				<title>p450 (PF00067)
"Cytochrome P450"</title>
				<polygon class="PF00067" points="395,31 404,40 395,49" stroke-linejoin="round" width="11" height="24" fill="rgb(85,216,107)" stroke="rgb(68,172,85)" stroke-width="1" opacity="0.75" />
			</g>
		</g>
		<g>
			<title>allO
AllO</title>
			<polygon class="allO
AllO" points="415,25 424,25 424,10 454,40 424,70 424,55 415,55" fill="rgb(255,255,255)" fill-opacity="1.0" stroke="rgb(0,0,0)" stroke-width="2"  />
			<g>
				<title>Acyl-CoA_dh_N (PF02771)
"Acyl-CoA dehydrogenase, N-terminal domain"</title>
				<rect class="PF02771" x="416" y="28" stroke-linejoin="round" width="8" height="24" fill="rgb(105,135,218)" stroke="rgb(84,108,174)" stroke-width="1" opacity="0.75" />
			</g>
			<g>
				<title>Acyl-CoA_dh_2 (PF08028)
"Acyl-CoA dehydrogenase, C-terminal domain"</title>
				<polygon class="PF08028" points="438,28 438,28 450,40 438,52 438,52" stroke-linejoin="round" width="13" height="24" fill="rgb(106,185,56)" stroke="rgb(84,148,44)" stroke-width="1" opacity="0.75" />
			</g>
		</g>
		<g>
			<title>allS
AllS</title>
			<polygon class="allS
AllS" points="458,10 479,40 458,70" fill="rgb(255,255,255)" fill-opacity="1.0" stroke="rgb(0,0,0)" stroke-width="2"  />
			<g>
				<title>adh_short_C2 (PF13561)
"Enoyl-(Acyl carrier protein) reductase"</title>
				<polygon class="PF13561" points="458,28 467,28 476,40 467,52 458,52" stroke-linejoin="round" width="21" height="24" fill="rgb(73,205,127)" stroke="rgb(58,164,101)" stroke-width="1" opacity="0.75" />
			</g>
		</g>
		<g>
			<title>fkbG
FkbG</title>
			<polygon class="fkbG
FkbG" points="486,10 508,40 486,70" fill="rgb(255,255,255)" fill-opacity="1.0" stroke="rgb(0,0,0)" stroke-width="2"  />
			<g>
				<title>Methyltransf_3 (PF01596)
"O-methyltransferase"</title>
				<polygon class="PF01596" points="487,28 495,28 504,40 495,52 487,52" stroke-linejoin="round" width="20" height="24" fill="rgb(168,187,48)" stroke="rgb(134,149,38)" stroke-width="1" opacity="0.75" />
			</g>
		</g>
	</g>
</svg>
