<svg version="1.1" baseProfile="full" xmlns="http://www.w3.org/2000/svg" width="794.6666666666666" height="80">
	<g>
		<line x1="10" y1="40.0" x2="784.6666666666666" y2="40.0" style="stroke:rgb(70,70,70); stroke-width:3 "/>
		<g>
			<title>may1
May1</title>
			<polygon class="may1
May1" points="10,25 35,25 35,10 65,40 35,70 35,55 10,55" fill="rgb(255,255,255)" fill-opacity="1.0" stroke="rgb(0,0,0)" stroke-width="2"  />
			<g>
				<title>MFS_1 (PF07690)
"Major Facilitator Superfamily"</title>
				<polygon class="PF07690" points="14,28 48,28 53,33 53,47 48,52 14,52" stroke-linejoin="round" width="39" height="24" fill="rgb(193,224,74)" stroke="rgb(154,179,59)" stroke-width="1" opacity="0.75" />
			</g>
		</g>
		<g>
			<title>may2
May2</title>
			<polygon class="may2
May2" points="68,40 83,10 83,70" fill="rgb(255,255,255)" fill-opacity="1.0" stroke="rgb(0,0,0)" stroke-width="2"  />
			<g>
				<title>SnoaL_4 (PF13577)
"SnoaL-like domain"</title>
				<polygon class="PF13577" points="71,40 77,28 81,28 81,52 77,52" stroke-linejoin="round" width="12" height="24" fill="rgb(68,223,209)" stroke="rgb(54,178,167)" stroke-width="1" opacity="0.75" />
			</g>
		</g>
		<g>
			<title>may3
May3</title>
			<polygon class="may3
May3" points="84,40 110,10 110,70" fill="rgb(255,255,255)" fill-opacity="1.0" stroke="rgb(0,0,0)" stroke-width="2"  />
			<g>
				<title>ACPS (PF01648)
"4'-phosphopantetheinyl transferase superfamily"</title>
				<polygon class="PF01648" points="88,40 96,31 96,49 88,40" stroke-linejoin="round" width="8" height="24" fill="rgb(85,184,135)" stroke="rgb(68,147,108)" stroke-width="1" opacity="0.75" />
			</g>
		</g>
		<g>
			<title>may4
May4</title>
			<polygon class="may4
May4" points="110,40 139,10 139,70" fill="rgb(255,255,255)" fill-opacity="1.0" stroke="rgb(0,0,0)" stroke-width="2"  />
			<g>
				<title>Abhydrolase_6 (PF12697)
"Alpha/beta hydrolase family"</title>
				<polygon class="PF12697" points="114,40 126,28 135,28 135,52 126,52" stroke-linejoin="round" width="25" height="24" fill="rgb(113,71,219)" stroke="rgb(90,56,175)" stroke-width="1" opacity="0.75" />
			</g>
		</g>
		<g>
			<title>may5
May5</title>
			<polygon class="may5
May5" points="187,25 170,25 170,10 140,40 170,70 170,55 187,55" fill="rgb(255,255,255)" fill-opacity="1.0" stroke="rgb(0,0,0)" stroke-width="2"  />
			<g>
				<title>Hexose_dehydrat (PF03559)
"NDP-hexose 2,3-dehydratase"</title>
				<polygon class="PF03559" points="144,40 156,28 162,28 162,52 156,52" stroke-linejoin="round" width="20" height="24" fill="rgb(74,201,66)" stroke="rgb(59,160,52)" stroke-width="1" opacity="0.75" />
			</g>
			<g>
				<title>Hexose_dehydrat (PF03559)
"NDP-hexose 2,3-dehydratase"</title>
				<rect class="PF03559" x="163" y="28" stroke-linejoin="round" width="20" height="24" fill="rgb(74,201,66)" stroke="rgb(59,160,52)" stroke-width="1" opacity="0.75" />
			</g>
		</g>
		<g>
			<title>may6
May6</title>
			<polygon class="may6
May6" points="187,40 212,10 212,70" fill="rgb(255,255,255)" fill-opacity="1.0" stroke="rgb(0,0,0)" stroke-width="2"  />
			<g>
				<title>Methyltransf_25 (PF13649)
"Methyltransferase domain"</title>
				<polygon class="PF13649" points="198,32 201,28 207,28 207,52 201,52 198,48" stroke-linejoin="round" width="9" height="24" fill="rgb(227,135,74)" stroke="rgb(181,108,59)" stroke-width="1" opacity="0.75" />
			</g>
		</g>
		<g>
			<title>may7
May7</title>
			<polygon class="may7
May7" points="252,25 245,25 245,10 215,40 245,70 245,55 252,55" fill="rgb(255,255,255)" fill-opacity="1.0" stroke="rgb(0,0,0)" stroke-width="2"  />
			<g>
				<title>DegT_DnrJ_EryC1 (PF01041)
"DegT/DnrJ/EryC1/StrS aminotransferase family"</title>
				<polygon class="PF01041" points="219,40 231,28 250,28 250,52 231,52" stroke-linejoin="round" width="35" height="24" fill="rgb(59,139,191)" stroke="rgb(47,111,152)" stroke-width="1" opacity="0.75" />
			</g>
		</g>
		<g>
			<title>may8
May8</title>
			<polygon class="may8
May8" points="304,25 284,25 284,10 254,40 284,70 284,55 304,55" fill="rgb(255,255,255)" fill-opacity="1.0" stroke="rgb(0,0,0)" stroke-width="2"  />
			<g>
				<title>FAD_binding_3 (PF01494)
"FAD binding domain"</title>
				<polygon class="PF01494" points="270,28 270,28 303,28 303,52 270,52 270,52" stroke-linejoin="round" width="33" height="24" fill="rgb(182,175,59)" stroke="rgb(145,140,47)" stroke-width="1" opacity="0.75" />
			</g>
		</g>
		<g>
			<title>may9
May9</title>
			<polygon class="may9
May9" points="339,25 336,25 336,10 306,40 336,70 336,55 339,55" fill="rgb(255,255,255)" fill-opacity="1.0" stroke="rgb(0,0,0)" stroke-width="2"  />
			<g>
				<title>GDP_Man_Dehyd (PF16363)
"GDP-mannose 4,6 dehydratase"</title>
				<polygon class="PF16363" points="310,40 322,28 338,28 338,52 322,52" stroke-linejoin="round" width="30" height="24" fill="rgb(162,221,65)" stroke="rgb(129,176,51)" stroke-width="1" opacity="0.75" />
			</g>
		</g>
		<g>
			<title>may10
May10</title>
			<polygon class="may10
May10" points="342,40 370,10 370,70" fill="rgb(255,255,255)" fill-opacity="1.0" stroke="rgb(0,0,0)" stroke-width="2"  />
			<g>
				<title>NTP_transferase (PF00483)
"Nucleotidyl transferase"</title>
				<polygon class="PF00483" points="347,39 358,28 370,28 370,52 358,52 347,41" stroke-linejoin="round" width="23" height="24" fill="rgb(198,101,87)" stroke="rgb(158,80,69)" stroke-width="1" opacity="0.75" />
			</g>
		</g>
		<g>
			<title>may11
May11</title>
			<polygon class="may11
May11" points="427,25 404,25 404,10 374,40 404,70 404,55 427,55" fill="rgb(255,255,255)" fill-opacity="1.0" stroke="rgb(0,0,0)" stroke-width="2"  />
			<g>
				<title>FAD_binding_3 (PF01494)
"FAD binding domain"</title>
				<rect class="PF01494" x="393" y="28" stroke-linejoin="round" width="32" height="24" fill="rgb(182,175,59)" stroke="rgb(145,140,47)" stroke-width="1" opacity="0.75" />
			</g>
		</g>
		<g>
			<title>may12
May12</title>
			<polygon class="may12
May12" points="459,25 458,25 458,10 428,40 458,70 458,55 459,55" fill="rgb(255,255,255)" fill-opacity="1.0" stroke="rgb(0,0,0)" stroke-width="2"  />
			<g>
				<title>Polyketide_cyc2 (PF10604)
"Polyketide cyclase / dehydrase and lipid transport"</title>
				<polygon class="PF10604" points="444,28 444,28 458,28 458,52 444,52 444,52" stroke-linejoin="round" width="14" height="24" fill="rgb(105,204,74)" stroke="rgb(84,163,59)" stroke-width="1" opacity="0.75" />
			</g>
		</g>
		<g>
			<title>may13
May13</title>
			<polygon class="may13
May13" points="461,40 487,10 487,70" fill="rgb(255,255,255)" fill-opacity="1.0" stroke="rgb(0,0,0)" stroke-width="2"  />
			<g>
				<title>adh_short (PF00106)
"short chain dehydrogenase"</title>
				<polygon class="PF00106" points="466,39 476,28 485,28 485,52 476,52 466,41" stroke-linejoin="round" width="19" height="24" fill="rgb(182,219,73)" stroke="rgb(145,175,58)" stroke-width="1" opacity="0.75" />
			</g>
		</g>
		<g>
			<title>may14
May14</title>
			<polygon class="may14
May14" points="492,40 503,10 503,70" fill="rgb(255,255,255)" fill-opacity="1.0" stroke="rgb(0,0,0)" stroke-width="2"  />
			<g>
				<title>PP-binding (PF00550)
"Phosphopantetheine attachment site"</title>
				<polygon class="PF00550" points="495,40 499,30 499,50" stroke-linejoin="round" width="7" height="24" fill="rgb(103,191,88)" stroke="rgb(82,152,70)" stroke-width="1" opacity="0.75" />
			</g>
		</g>
		<g>
			<title>may15
May15</title>
			<polygon class="may15
May15" points="544,25 534,25 534,10 504,40 534,70 534,55 544,55" fill="rgb(255,255,255)" fill-opacity="1.0" stroke="rgb(0,0,0)" stroke-width="2"  />
			<g>
				<title>Ketoacyl-synt_C (PF02801)
"Beta-ketoacyl synthase, C-terminal domain"</title>
				<polygon class="PF02801" points="508,40 519,29 519,51 508,40" stroke-linejoin="round" width="11" height="24" fill="rgb(215,78,102)" stroke="rgb(172,62,81)" stroke-width="1" opacity="0.75" />
			</g>
			<g>
				<title>ketoacyl-synt (PF00109)
"Beta-ketoacyl synthase, N-terminal domain"</title>
				<polygon class="PF00109" points="520,28 520,28 544,28 544,52 520,52 520,52" stroke-linejoin="round" width="24" height="24" fill="rgb(112,116,228)" stroke="rgb(89,92,182)" stroke-width="1" opacity="0.75" />
			</g>
		</g>
		<g>
			<title>may16
May16</title>
			<polygon class="may16
May16" points="586,25 574,25 574,10 544,40 574,70 574,55 586,55" fill="rgb(255,255,255)" fill-opacity="1.0" stroke="rgb(0,0,0)" stroke-width="2"  />
			<g>
				<title>Ketoacyl-synt_C (PF02801)
"Beta-ketoacyl synthase, C-terminal domain"</title>
				<polygon class="PF02801" points="548,40 559,29 559,51 548,40" stroke-linejoin="round" width="11" height="24" fill="rgb(215,78,102)" stroke="rgb(172,62,81)" stroke-width="1" opacity="0.75" />
			</g>
			<g>
				<title>ketoacyl-synt (PF00109)
"Beta-ketoacyl synthase, N-terminal domain"</title>
				<rect class="PF00109" x="561" y="28" stroke-linejoin="round" width="25" height="24" fill="rgb(112,116,228)" stroke="rgb(89,92,182)" stroke-width="1" opacity="0.75" />
			</g>
		</g>
		<g>
			<title>may17
May17</title>
			<polygon class="may17
May17" points="586,40 597,10 597,70" fill="rgb(255,255,255)" fill-opacity="1.0" stroke="rgb(0,0,0)" stroke-width="2"  />
			<g>
				<title>Cyclase_polyket (PF04673)
"Polyketide synthesis cyclase"</title>
				<polygon class="PF04673" points="589,40 593,28 596,28 596,52 593,52" stroke-linejoin="round" width="10" height="24" fill="rgb(49,187,78)" stroke="rgb(39,149,62)" stroke-width="1" opacity="0.75" />
			</g>
		</g>
		<g>
			<title>may18
May18</title>
			<polygon class="may18
May18" points="611,40 633,10 633,70" fill="rgb(255,255,255)" fill-opacity="1.0" stroke="rgb(0,0,0)" stroke-width="2"  />
			<g>
				<title>Trans_reg_C (PF00486)
"Transcriptional regulatory protein, C terminal"</title>
				<polygon class="PF00486" points="615,40 618,36 618,44" stroke-linejoin="round" width="7" height="24" fill="rgb(204,153,57)" stroke="rgb(163,122,45)" stroke-width="1" opacity="0.75" />
			</g>
			<g>
				<title>Response_reg (PF00072)
"Response regulator receiver domain"</title>
				<polygon class="PF00072" points="622,31 624,28 632,28 632,52 624,52 622,49" stroke-linejoin="round" width="10" height="24" fill="rgb(100,107,203)" stroke="rgb(80,85,162)" stroke-width="1" opacity="0.75" />
			</g>
		</g>
		<g>
			<title>may19
May19</title>
			<polygon class="may19
May19" points="662,40 685,10 685,70" fill="rgb(255,255,255)" fill-opacity="1.0" stroke="rgb(0,0,0)" stroke-width="2"  />
		</g>
		<g>
			<title>may20
May20</title>
			<polygon class="may20
May20" points="691,40 707,10 707,70" fill="rgb(255,255,255)" fill-opacity="1.0" stroke="rgb(0,0,0)" stroke-width="2"  />
		</g>
		<g>
			<title>may21
May21</title>
			<polygon class="may21
May21" points="746,25 738,25 738,10 708,40 738,70 738,55 746,55" fill="rgb(255,255,255)" fill-opacity="1.0" stroke="rgb(0,0,0)" stroke-width="2"  />
			<g>
				<title>DUF1205 (PF06722)
"Protein of unknown function (DUF1205)"</title>
				<polygon class="PF06722" points="719,33 724,28 728,28 728,52 724,52 719,47" stroke-linejoin="round" width="9" height="24" fill="rgb(200,129,88)" stroke="rgb(160,103,70)" stroke-width="1" opacity="0.75" />
			</g>
		</g>
		<g>
			<title>may22
May22</title>
			<polygon class="may22
May22" points="783,25 783,25 783,10 753,40 783,70 783,55 783,55" fill="rgb(255,255,255)" fill-opacity="1.0" stroke="rgb(0,0,0)" stroke-width="2"  />
			<g>
				<title>Epimerase (PF01370)
"NAD dependent epimerase/dehydratase family"</title>
				<polygon class="PF01370" points="761,36 769,28 782,28 782,52 769,52 761,44" stroke-linejoin="round" width="21" height="24" fill="rgb(98,102,214)" stroke="rgb(78,81,171)" stroke-width="1" opacity="0.75" />
			</g>
		</g>
	</g>
</svg>
