<svg version="1.1" baseProfile="full" xmlns="http://www.w3.org/2000/svg" width="737.4" height="80">
	<g>
		<line x1="10" y1="40.0" x2="727.4" y2="40.0" style="stroke:rgb(70,70,70); stroke-width:3 "/>
		<g>
			<title>pbtR
TetR transcriptional regulator</title>
			<polygon class="pbtR
TetR transcriptional regulator" points="13,10 36,40 13,70" fill="rgb(255,255,255)" fill-opacity="1.0" stroke="rgb(0,0,0)" stroke-width="2"  />
			<g>
				<title>TetR_N (PF00440)
"Bacterial regulatory proteins, tetR family"</title>
				<rect class="PF00440" x="14" y="28" stroke-linejoin="round" width="4" height="24" fill="rgb(73,212,190)" stroke="rgb(58,169,152)" stroke-width="1" opacity="0.75" />
			</g>
		</g>
		<g>
			<title>pbtG1
cyclodehydratase (oxazoline formation)</title>
			<polygon class="pbtG1
cyclodehydratase (oxazoline formation)" points="38,25 68,25 68,10 98,40 68,70 68,55 38,55" fill="rgb(255,255,255)" fill-opacity="1.0" stroke="rgb(0,0,0)" stroke-width="2"  />
			<g>
				<title>YcaO (PF02624)
"YcaO cyclodehydratase, ATP-ad Mg2+-binding"</title>
				<polygon class="PF02624" points="60,28 82,28 93,39 93,41 82,52 60,52" stroke-linejoin="round" width="33" height="24" fill="rgb(76,84,185)" stroke="rgb(60,67,148)" stroke-width="1" opacity="0.75" />
			</g>
		</g>
		<g>
			<title>pbtB1
dehydratase</title>
			<polygon class="pbtB1
dehydratase" points="99,25 148,25 148,10 178,40 148,70 148,55 99,55" fill="rgb(255,255,255)" fill-opacity="1.0" stroke="rgb(0,0,0)" stroke-width="2"  />
			<g>
				<title>Lant_dehydr_N (PF04738)
"Lantibiotic dehydratase, N terminus"</title>
				<rect class="PF04738" x="111" y="28" stroke-linejoin="round" width="29" height="24" fill="rgb(219,60,229)" stroke="rgb(175,47,183)" stroke-width="1" opacity="0.75" />
			</g>
			<g>
				<title>Lant_dehydr_N (PF04738)
"Lantibiotic dehydratase, N terminus"</title>
				<polygon class="PF04738" points="156,28 162,28 171,37 171,43 162,52 156,52" stroke-linejoin="round" width="15" height="24" fill="rgb(219,60,229)" stroke="rgb(175,47,183)" stroke-width="1" opacity="0.75" />
			</g>
		</g>
		<g>
			<title>pbtO
P450 monooxygenase</title>
			<polygon class="pbtO
P450 monooxygenase" points="178,25 182,25 182,10 212,40 182,70 182,55 178,55" fill="rgb(255,255,255)" fill-opacity="1.0" stroke="rgb(0,0,0)" stroke-width="2"  />
			<g>
				<title>p450 (PF00067)
"Cytochrome P450"</title>
				<polygon class="PF00067" points="200,32 205,37 205,43 200,48" stroke-linejoin="round" width="5" height="24" fill="rgb(85,216,107)" stroke="rgb(68,172,85)" stroke-width="1" opacity="0.75" />
			</g>
			<g>
				<title>p450 (PF00067)
"Cytochrome P450"</title>
				<polygon class="PF00067" points="205,37 208,40 208,40 205,43" stroke-linejoin="round" width="3" height="24" fill="rgb(85,216,107)" stroke="rgb(68,172,85)" stroke-width="1" opacity="0.75" />
			</g>
		</g>
		<g>
			<title>pbtX
hypothetical protein</title>
			<polygon class="pbtX
hypothetical protein" points="217,10 238,40 217,70" fill="rgb(255,255,255)" fill-opacity="1.0" stroke="rgb(0,0,0)" stroke-width="2"  />
		</g>
		<g>
			<title>pbtM1
N-methyltransferase</title>
			<polygon class="pbtM1
N-methyltransferase" points="240,25 247,25 247,10 277,40 247,70 247,55 240,55" fill="rgb(255,255,255)" fill-opacity="1.0" stroke="rgb(0,0,0)" stroke-width="2"  />
			<g>
				<title>MTS (PF05175)
"Methyltransferase small domain"</title>
				<polygon class="PF05175" points="252,28 261,28 265,32 265,48 261,52 252,52" stroke-linejoin="round" width="13" height="24" fill="rgb(99,227,110)" stroke="rgb(79,181,88)" stroke-width="1" opacity="0.75" />
			</g>
		</g>
		<g>
			<title>pbtM2
radical SAM</title>
			<polygon class="pbtM2
radical SAM" points="280,25 289,25 289,10 319,40 289,70 289,55 280,55" fill="rgb(255,255,255)" fill-opacity="1.0" stroke="rgb(0,0,0)" stroke-width="2"  />
			<g>
				<title>Radical_SAM (PF04055)
"Radical SAM superfamily"</title>
				<rect class="PF04055" x="280" y="28" stroke-linejoin="round" width="18" height="24" fill="rgb(149,56,222)" stroke="rgb(119,44,177)" stroke-width="1" opacity="0.75" />
			</g>
		</g>
		<g>
			<title>pbtA
precursor peptide</title>
			<polygon class="pbtA
precursor peptide" points="323,10 328,40 323,70" fill="rgb(255,255,255)" fill-opacity="1.0" stroke="rgb(0,0,0)" stroke-width="2"  />
			<g>
				<title>Thiopep_pre (PF19409)
"Thiopeptide-type bacteriocin precursor"</title>
				<polygon class="PF19409" points="325,38 325,40 325,42" stroke-linejoin="round" width="2" height="24" fill="rgb(119,210,97)" stroke="rgb(95,168,77)" stroke-width="1" opacity="0.75" />
			</g>
		</g>
		<g>
			<title>pbtB
dehydratase (serine dehydration)</title>
			<polygon class="pbtB
dehydratase (serine dehydration)" points="331,25 384,25 384,10 414,40 384,70 384,55 331,55" fill="rgb(255,255,255)" fill-opacity="1.0" stroke="rgb(0,0,0)" stroke-width="2"  />
			<g>
				<title>Lant_dehydr_N (PF04738)
"Lantibiotic dehydratase, N terminus"</title>
				<rect class="PF04738" x="344" y="28" stroke-linejoin="round" width="32" height="24" fill="rgb(219,60,229)" stroke="rgb(175,47,183)" stroke-width="1" opacity="0.75" />
			</g>
		</g>
		<g>
			<title>pbtC
dehydratase (serine dehydration)</title>
			<polygon class="pbtC
dehydratase (serine dehydration)" points="414,25 414,25 414,10 444,40 414,70 414,55 414,55" fill="rgb(255,255,255)" fill-opacity="1.0" stroke="rgb(0,0,0)" stroke-width="2"  />
			<g>
				<title>Lant_dehydr_C (PF14028)
"Lantibiotic biosynthesis dehydratase C-term"</title>
				<polygon class="PF14028" points="414,28 428,28 440,40 428,52 414,52" stroke-linejoin="round" width="27" height="24" fill="rgb(107,223,113)" stroke="rgb(85,178,90)" stroke-width="1" opacity="0.75" />
			</g>
		</g>
		<g>
			<title>pbtD
[4 + 2] cycloaddition</title>
			<polygon class="pbtD
[4 + 2] cycloaddition" points="443,25 446,25 446,10 476,40 446,70 446,55 443,55" fill="rgb(255,255,255)" fill-opacity="1.0" stroke="rgb(0,0,0)" stroke-width="2"  />
			<g>
				<title>Lant_dehydr_C (PF14028)
"Lantibiotic biosynthesis dehydratase C-term"</title>
				<polygon class="PF14028" points="443,28 460,28 472,40 460,52 443,52" stroke-linejoin="round" width="31" height="24" fill="rgb(107,223,113)" stroke="rgb(85,178,90)" stroke-width="1" opacity="0.75" />
			</g>
		</g>
		<g>
			<title>pbtE
azoline-synthesizing dehydrogenase</title>
			<polygon class="pbtE
azoline-synthesizing dehydrogenase" points="477,25 492,25 492,10 522,40 492,70 492,55 477,55" fill="rgb(255,255,255)" fill-opacity="1.0" stroke="rgb(0,0,0)" stroke-width="2"  />
			<g>
				<title>Nitroreductase (PF00881)
"Nitroreductase family"</title>
				<polygon class="PF00881" points="502,28 506,28 518,40 506,52 502,52" stroke-linejoin="round" width="17" height="24" fill="rgb(79,118,187)" stroke="rgb(63,94,149)" stroke-width="1" opacity="0.75" />
			</g>
		</g>
		<g>
			<title>pbtF
hypothetical protein</title>
			<polygon class="pbtF
hypothetical protein" points="522,25 551,25 551,10 581,40 551,70 551,55 522,55" fill="rgb(255,255,255)" fill-opacity="1.0" stroke="rgb(0,0,0)" stroke-width="2"  />
		</g>
		<g>
			<title>pbtG
cyclodehydratase</title>
			<polygon class="pbtG
cyclodehydratase" points="582,25 609,25 609,10 639,40 609,70 609,55 582,55" fill="rgb(255,255,255)" fill-opacity="1.0" stroke="rgb(0,0,0)" stroke-width="2"  />
			<g>
				<title>YcaO (PF02624)
"YcaO cyclodehydratase, ATP-ad Mg2+-binding"</title>
				<polygon class="PF02624" points="602,28 623,28 635,40 623,52 602,52" stroke-linejoin="round" width="34" height="24" fill="rgb(76,84,185)" stroke="rgb(60,67,148)" stroke-width="1" opacity="0.75" />
			</g>
		</g>
		<g>
			<title>pbtH
hypothetical</title>
			<polygon class="pbtH
hypothetical" points="640,10 652,40 640,70" fill="rgb(255,255,255)" fill-opacity="1.0" stroke="rgb(0,0,0)" stroke-width="2"  />
		</g>
		<g>
			<title>pbtM3
radical SAM</title>
			<polygon class="pbtM3
radical SAM" points="654,25 662,25 662,10 692,40 662,70 662,55 654,55" fill="rgb(255,255,255)" fill-opacity="1.0" stroke="rgb(0,0,0)" stroke-width="2"  />
			<g>
				<title>Radical_SAM (PF04055)
"Radical SAM superfamily"</title>
				<rect class="PF04055" x="654" y="28" stroke-linejoin="round" width="18" height="24" fill="rgb(149,56,222)" stroke="rgb(119,44,177)" stroke-width="1" opacity="0.75" />
			</g>
		</g>
		<g>
			<title>pbtM4
O-methyltransferase</title>
			<polygon class="pbtM4
O-methyltransferase" points="693,25 696,25 696,10 726,40 696,70 696,55 693,55" fill="rgb(255,255,255)" fill-opacity="1.0" stroke="rgb(0,0,0)" stroke-width="2"  />
			<g>
				<title>Methyltransf_2 (PF00891)
"O-methyltransferase domain"</title>
				<polygon class="PF00891" points="703,28 710,28 722,40 710,52 703,52" stroke-linejoin="round" width="20" height="24" fill="rgb(50,51,190)" stroke="rgb(39,40,152)" stroke-width="1" opacity="0.75" />
			</g>
		</g>
	</g>
</svg>
