<svg version="1.1" baseProfile="full" xmlns="http://www.w3.org/2000/svg" width="1540.0" height="80">
	<g>
		<line x1="10" y1="40.0" x2="1530.0" y2="40.0" style="stroke:rgb(70,70,70); stroke-width:3 "/>
		<g>
			<title>ecm1
putative AMP-binding ligase</title>
			<polygon class="ecm1
putative AMP-binding ligase" points="215,25 193,25 193,10 163,40 193,70 193,55 215,55" fill="rgb(255,255,255)" fill-opacity="1.0" stroke="rgb(0,0,0)" stroke-width="2"  />
			<g>
				<title>AMP-binding_C (PF13193)
"AMP-binding enzyme C-terminal domain"</title>
				<polygon class="PF13193" points="167,40 171,36 171,44" stroke-linejoin="round" width="7" height="24" fill="rgb(182,50,118)" stroke="rgb(145,39,94)" stroke-width="1" opacity="0.75" />
			</g>
			<g>
				<title>AMP-binding (PF00501)
"AMP-binding enzyme"</title>
				<polygon class="PF00501" points="172,35 179,28 211,28 211,52 179,52 172,45" stroke-linejoin="round" width="39" height="24" fill="rgb(60,217,223)" stroke="rgb(48,173,178)" stroke-width="1" opacity="0.75" />
			</g>
		</g>
		<g>
			<title>ecm2
putative thioesterase</title>
			<polygon class="ecm2
putative thioesterase" points="227,10 251,40 227,70" fill="rgb(255,255,255)" fill-opacity="1.0" stroke="rgb(0,0,0)" stroke-width="2"  />
			<g>
				<title>Thioesterase (PF00975)
"Thioesterase domain"</title>
				<polygon class="PF00975" points="229,28 238,28 248,40 238,52 229,52" stroke-linejoin="round" width="22" height="24" fill="rgb(207,80,138)" stroke="rgb(165,63,110)" stroke-width="1" opacity="0.75" />
			</g>
		</g>
		<g>
			<title>ecm3
putative dehydrogenase</title>
			<polygon class="ecm3
putative dehydrogenase" points="250,25 256,25 256,10 286,40 256,70 256,55 250,55" fill="rgb(255,255,255)" fill-opacity="1.0" stroke="rgb(0,0,0)" stroke-width="2"  />
			<g>
				<title>Iso_dh (PF00180)
"Isocitrate/isopropylmalate dehydrogenase"</title>
				<polygon class="PF00180" points="252,28 270,28 282,40 270,52 252,52" stroke-linejoin="round" width="33" height="24" fill="rgb(109,54,206)" stroke="rgb(87,43,164)" stroke-width="1" opacity="0.75" />
			</g>
		</g>
		<g>
			<title>ecm4
putative FAD-dependent oxidoreductase</title>
			<polygon class="ecm4
putative FAD-dependent oxidoreductase" points="289,25 306,25 306,10 336,40 306,70 306,55 289,55" fill="rgb(255,255,255)" fill-opacity="1.0" stroke="rgb(0,0,0)" stroke-width="2"  />
			<g>
				<title>FAD_binding_3 (PF01494)
"FAD binding domain"</title>
				<polygon class="PF01494" points="291,28 320,28 325,33 325,47 320,52 291,52" stroke-linejoin="round" width="34" height="24" fill="rgb(182,175,59)" stroke="rgb(145,140,47)" stroke-width="1" opacity="0.75" />
			</g>
		</g>
		<g>
			<title>ecm5
putative transposase</title>
			<polygon class="ecm5
putative transposase" points="348,40 374,10 374,70" fill="rgb(255,255,255)" fill-opacity="1.0" stroke="rgb(0,0,0)" stroke-width="2"  />
			<g>
				<title>DUF4096 (PF13340)
"Putative transposase of IS4/5 family (DUF4096)"</title>
				<rect class="PF13340" x="367" y="28" stroke-linejoin="round" width="7" height="24" fill="rgb(196,73,104)" stroke="rgb(156,58,83)" stroke-width="1" opacity="0.75" />
			</g>
		</g>
		<g>
			<title>ecm6
putative non-ribosomal peptide synthetase</title>
			<polygon class="ecm6
putative non-ribosomal peptide synthetase" points="384,25 615,25 615,10 645,40 615,70 615,55 384,55" fill="rgb(255,255,255)" fill-opacity="1.0" stroke="rgb(0,0,0)" stroke-width="2"  />
			<g>
				<title>Condensation (PF00668)
"Condensation domain"</title>
				<rect class="PF00668" x="384" y="28" stroke-linejoin="round" width="45" height="24" fill="rgb(224,184,98)" stroke="rgb(179,147,78)" stroke-width="1" opacity="0.75" />
			</g>
			<g>
				<title>AMP-binding (PF00501)
"AMP-binding enzyme"</title>
				<rect class="PF00501" x="431" y="28" stroke-linejoin="round" width="39" height="24" fill="rgb(60,217,223)" stroke="rgb(48,173,178)" stroke-width="1" opacity="0.75" />
			</g>
			<g>
				<title>AMP-binding_C (PF13193)
"AMP-binding enzyme C-terminal domain"</title>
				<rect class="PF13193" x="471" y="28" stroke-linejoin="round" width="9" height="24" fill="rgb(182,50,118)" stroke="rgb(145,39,94)" stroke-width="1" opacity="0.75" />
			</g>
			<g>
				<title>PP-binding (PF00550)
"Phosphopantetheine attachment site"</title>
				<rect class="PF00550" x="483" y="28" stroke-linejoin="round" width="6" height="24" fill="rgb(103,191,88)" stroke="rgb(82,152,70)" stroke-width="1" opacity="0.75" />
			</g>
			<g>
				<title>Condensation (PF00668)
"Condensation domain"</title>
				<rect class="PF00668" x="493" y="28" stroke-linejoin="round" width="35" height="24" fill="rgb(224,184,98)" stroke="rgb(179,147,78)" stroke-width="1" opacity="0.75" />
			</g>
			<g>
				<title>Condensation (PF00668)
"Condensation domain"</title>
				<rect class="PF00668" x="540" y="28" stroke-linejoin="round" width="45" height="24" fill="rgb(224,184,98)" stroke="rgb(179,147,78)" stroke-width="1" opacity="0.75" />
			</g>
			<g>
				<title>AMP-binding (PF00501)
"AMP-binding enzyme"</title>
				<rect class="PF00501" x="587" y="28" stroke-linejoin="round" width="38" height="24" fill="rgb(60,217,223)" stroke="rgb(48,173,178)" stroke-width="1" opacity="0.75" />
			</g>
			<g>
				<title>AMP-binding_C (PF13193)
"AMP-binding enzyme C-terminal domain"</title>
				<polygon class="PF13193" points="626,28 628,28 633,33 633,47 628,52 626,52" stroke-linejoin="round" width="7" height="24" fill="rgb(182,50,118)" stroke="rgb(145,39,94)" stroke-width="1" opacity="0.75" />
			</g>
			<g>
				<title>PP-binding (PF00550)
"Phosphopantetheine attachment site"</title>
				<polygon class="PF00550" points="636,36 640,40 636,44" stroke-linejoin="round" width="6" height="24" fill="rgb(103,191,88)" stroke="rgb(82,152,70)" stroke-width="1" opacity="0.75" />
			</g>
		</g>
		<g>
			<title>ecm7
putative non-ribosomal peptide synthetase</title>
			<polygon class="ecm7
putative non-ribosomal peptide synthetase" points="645,25 928,25 928,10 958,40 928,70 928,55 645,55" fill="rgb(255,255,255)" fill-opacity="1.0" stroke="rgb(0,0,0)" stroke-width="2"  />
			<g>
				<title>Condensation (PF00668)
"Condensation domain"</title>
				<rect class="PF00668" x="645" y="28" stroke-linejoin="round" width="44" height="24" fill="rgb(224,184,98)" stroke="rgb(179,147,78)" stroke-width="1" opacity="0.75" />
			</g>
			<g>
				<title>AMP-binding (PF00501)
"AMP-binding enzyme"</title>
				<rect class="PF00501" x="692" y="28" stroke-linejoin="round" width="40" height="24" fill="rgb(60,217,223)" stroke="rgb(48,173,178)" stroke-width="1" opacity="0.75" />
			</g>
			<g>
				<title>AMP-binding_C (PF13193)
"AMP-binding enzyme C-terminal domain"</title>
				<rect class="PF13193" x="733" y="28" stroke-linejoin="round" width="5" height="24" fill="rgb(182,50,118)" stroke="rgb(145,39,94)" stroke-width="1" opacity="0.75" />
			</g>
			<g>
				<title>Methyltransf_25 (PF13649)
"Methyltransferase domain"</title>
				<rect class="PF13649" x="744" y="28" stroke-linejoin="round" width="9" height="24" fill="rgb(227,135,74)" stroke="rgb(181,108,59)" stroke-width="1" opacity="0.75" />
			</g>
			<g>
				<title>PP-binding (PF00550)
"Phosphopantetheine attachment site"</title>
				<rect class="PF00550" x="783" y="28" stroke-linejoin="round" width="6" height="24" fill="rgb(103,191,88)" stroke="rgb(82,152,70)" stroke-width="1" opacity="0.75" />
			</g>
			<g>
				<title>Condensation (PF00668)
"Condensation domain"</title>
				<rect class="PF00668" x="791" y="28" stroke-linejoin="round" width="45" height="24" fill="rgb(224,184,98)" stroke="rgb(179,147,78)" stroke-width="1" opacity="0.75" />
			</g>
			<g>
				<title>AMP-binding (PF00501)
"AMP-binding enzyme"</title>
				<rect class="PF00501" x="838" y="28" stroke-linejoin="round" width="38" height="24" fill="rgb(60,217,223)" stroke="rgb(48,173,178)" stroke-width="1" opacity="0.75" />
			</g>
			<g>
				<title>Methyltransf_12 (PF08242)
"Methyltransferase domain"</title>
				<rect class="PF08242" x="888" y="28" stroke-linejoin="round" width="10" height="24" fill="rgb(187,59,115)" stroke="rgb(149,47,92)" stroke-width="1" opacity="0.75" />
			</g>
			<g>
				<title>PP-binding (PF00550)
"Phosphopantetheine attachment site"</title>
				<rect class="PF00550" x="926" y="28" stroke-linejoin="round" width="6" height="24" fill="rgb(103,191,88)" stroke="rgb(82,152,70)" stroke-width="1" opacity="0.75" />
			</g>
			<g>
				<title>Thioesterase (PF00975)
"Thioesterase domain"</title>
				<polygon class="PF00975" points="935,28 942,28 954,40 942,52 935,52" stroke-linejoin="round" width="22" height="24" fill="rgb(207,80,138)" stroke="rgb(165,63,110)" stroke-width="1" opacity="0.75" />
			</g>
		</g>
		<g>
			<title>ecm8
MbtH like protein</title>
			<polygon class="ecm8
MbtH like protein" points="961,10 968,40 961,70" fill="rgb(255,255,255)" fill-opacity="1.0" stroke="rgb(0,0,0)" stroke-width="2"  />
			<g>
				<title>MbtH (PF03621)
"MbtH-like protein"</title>
				<polygon class="PF03621" points="961,28 961,28 965,40 961,52 961,52" stroke-linejoin="round" width="5" height="24" fill="rgb(212,165,97)" stroke="rgb(169,132,77)" stroke-width="1" opacity="0.75" />
			</g>
		</g>
		<g>
			<title>ecm9
putative DNA-binding response regulator</title>
			<polygon class="ecm9
putative DNA-binding response regulator" points="972,10 988,40 972,70" fill="rgb(255,255,255)" fill-opacity="1.0" stroke="rgb(0,0,0)" stroke-width="2"  />
			<g>
				<title>Trans_reg_C (PF00486)
"Transcriptional regulatory protein, C terminal"</title>
				<polygon class="PF00486" points="980,31 985,40 980,49" stroke-linejoin="round" width="7" height="24" fill="rgb(204,153,57)" stroke="rgb(163,122,45)" stroke-width="1" opacity="0.75" />
			</g>
		</g>
		<g>
			<title>ecm10
putative tetR family transcriptional regulatory protein</title>
			<polygon class="ecm10
putative tetR family transcriptional regulatory protein" points="992,10 1017,40 992,70" fill="rgb(255,255,255)" fill-opacity="1.0" stroke="rgb(0,0,0)" stroke-width="2"  />
			<g>
				<title>TetR_N (PF00440)
"Bacterial regulatory proteins, tetR family"</title>
				<rect class="PF00440" x="995" y="28" stroke-linejoin="round" width="4" height="24" fill="rgb(73,212,190)" stroke="rgb(58,169,152)" stroke-width="1" opacity="0.75" />
			</g>
			<g>
				<title>TetR_C_1 (PF02909)
"Tetracyclin repressor-like, C-terminal domain"</title>
				<polygon class="PF02909" points="1001,28 1003,28 1013,40 1003,52 1001,52" stroke-linejoin="round" width="15" height="24" fill="rgb(151,203,75)" stroke="rgb(120,162,60)" stroke-width="1" opacity="0.75" />
			</g>
		</g>
		<g>
			<title>ecm11
putative tryptophan 2,3-dioxygenase</title>
			<polygon class="ecm11
putative tryptophan 2,3-dioxygenase" points="1018,40 1040,10 1040,70" fill="rgb(255,255,255)" fill-opacity="1.0" stroke="rgb(0,0,0)" stroke-width="2"  />
			<g>
				<title>Trp_dioxygenase (PF03301)
"Tryptophan 2,3-dioxygenase"</title>
				<polygon class="PF03301" points="1022,40 1025,36 1025,44" stroke-linejoin="round" width="7" height="24" fill="rgb(50,195,197)" stroke="rgb(40,155,157)" stroke-width="1" opacity="0.75" />
			</g>
			<g>
				<title>Trp_dioxygenase (PF03301)
"Tryptophan 2,3-dioxygenase"</title>
				<polygon class="PF03301" points="1025,36 1031,28 1039,28 1039,52 1031,52 1025,44" stroke-linejoin="round" width="14" height="24" fill="rgb(50,195,197)" stroke="rgb(40,155,157)" stroke-width="1" opacity="0.75" />
			</g>
		</g>
		<g>
			<title>ecm12
putative cytochrome P450</title>
			<polygon class="ecm12
putative cytochrome P450" points="1047,25 1056,25 1056,10 1086,40 1056,70 1056,55 1047,55" fill="rgb(255,255,255)" fill-opacity="1.0" stroke="rgb(0,0,0)" stroke-width="2"  />
			<g>
				<title>p450 (PF00067)
"Cytochrome P450"</title>
				<polygon class="PF00067" points="1073,31 1082,40 1073,49" stroke-linejoin="round" width="10" height="24" fill="rgb(85,216,107)" stroke="rgb(68,172,85)" stroke-width="1" opacity="0.75" />
			</g>
		</g>
		<g>
			<title>ecm13
putative non-ribosomal peptide synthetase</title>
			<polygon class="ecm13
putative non-ribosomal peptide synthetase" points="1146,25 1117,25 1117,10 1087,40 1117,70 1117,55 1146,55" fill="rgb(255,255,255)" fill-opacity="1.0" stroke="rgb(0,0,0)" stroke-width="2"  />
			<g>
				<title>PP-binding (PF00550)
"Phosphopantetheine attachment site"</title>
				<polygon class="PF00550" points="1091,40 1093,38 1093,42" stroke-linejoin="round" width="6" height="24" fill="rgb(103,191,88)" stroke="rgb(82,152,70)" stroke-width="1" opacity="0.75" />
			</g>
			<g>
				<title>AMP-binding_C (PF13193)
"AMP-binding enzyme C-terminal domain"</title>
				<polygon class="PF13193" points="1098,33 1103,28 1105,28 1105,52 1103,52 1098,47" stroke-linejoin="round" width="7" height="24" fill="rgb(182,50,118)" stroke="rgb(145,39,94)" stroke-width="1" opacity="0.75" />
			</g>
			<g>
				<title>AMP-binding (PF00501)
"AMP-binding enzyme"</title>
				<rect class="PF00501" x="1106" y="28" stroke-linejoin="round" width="39" height="24" fill="rgb(60,217,223)" stroke="rgb(48,173,178)" stroke-width="1" opacity="0.75" />
			</g>
		</g>
		<g>
			<title>ecm14
putative esterase</title>
			<polygon class="ecm14
putative esterase" points="1190,25 1180,25 1180,10 1150,40 1180,70 1180,55 1190,55" fill="rgb(255,255,255)" fill-opacity="1.0" stroke="rgb(0,0,0)" stroke-width="2"  />
			<g>
				<title>Erythro_esteras (PF05139)
"Erythromycin esterase"</title>
				<polygon class="PF05139" points="1154,40 1166,28 1185,28 1185,52 1166,52" stroke-linejoin="round" width="33" height="24" fill="rgb(64,208,71)" stroke="rgb(51,166,56)" stroke-width="1" opacity="0.75" />
			</g>
		</g>
		<g>
			<title>ecm15
putative transcriptional regulator</title>
			<polygon class="ecm15
putative transcriptional regulator" points="1193,40 1221,10 1221,70" fill="rgb(255,255,255)" fill-opacity="1.0" stroke="rgb(0,0,0)" stroke-width="2"  />
			<g>
				<title>MerR_1 (PF13411)
"MerR HTH family regulatory protein"</title>
				<polygon class="PF13411" points="1199,38 1205,32 1205,48 1199,42" stroke-linejoin="round" width="6" height="24" fill="rgb(100,202,107)" stroke="rgb(80,161,85)" stroke-width="1" opacity="0.75" />
			</g>
			<g>
				<title>MerR (PF00376)
"MerR family regulatory protein"</title>
				<rect class="PF00376" x="1214" y="28" stroke-linejoin="round" width="3" height="24" fill="rgb(185,57,157)" stroke="rgb(148,45,125)" stroke-width="1" opacity="0.75" />
			</g>
		</g>
		<g>
			<title>ecm16
UvrA-like protein</title>
			<polygon class="ecm16
UvrA-like protein" points="1224,25 1273,25 1273,10 1303,40 1273,70 1273,55 1224,55" fill="rgb(255,255,255)" fill-opacity="1.0" stroke="rgb(0,0,0)" stroke-width="2"  />
			<g>
				<title>ABC_tran (PF00005)
"ABC transporter"</title>
				<polygon class="PF00005" points="1274,28 1287,28 1294,35 1294,45 1287,52 1274,52" stroke-linejoin="round" width="20" height="24" fill="rgb(129,201,63)" stroke="rgb(103,160,50)" stroke-width="1" opacity="0.75" />
			</g>
		</g>
		<g>
			<title>ecm17
putative oxidoreductase</title>
			<polygon class="ecm17
putative oxidoreductase" points="1315,25 1316,25 1316,10 1346,40 1316,70 1316,55 1315,55" fill="rgb(255,255,255)" fill-opacity="1.0" stroke="rgb(0,0,0)" stroke-width="2"  />
			<g>
				<title>Pyr_redox_2 (PF07992)
"Pyridine nucleotide-disulphide oxidoreductase"</title>
				<polygon class="PF07992" points="1315,28 1330,28 1333,31 1333,49 1330,52 1315,52" stroke-linejoin="round" width="18" height="24" fill="rgb(83,223,167)" stroke="rgb(66,178,133)" stroke-width="1" opacity="0.75" />
			</g>
			<g>
				<title>Pyr_redox_2 (PF07992)
"Pyridine nucleotide-disulphide oxidoreductase"</title>
				<polygon class="PF07992" points="1334,32 1342,40 1334,48" stroke-linejoin="round" width="9" height="24" fill="rgb(83,223,167)" stroke="rgb(66,178,133)" stroke-width="1" opacity="0.75" />
			</g>
		</g>
		<g>
			<title>ecm18
putative SAM-dependent methyltransferase</title>
			<polygon class="ecm18
putative SAM-dependent methyltransferase" points="1354,10 1376,40 1354,70" fill="rgb(255,255,255)" fill-opacity="1.0" stroke="rgb(0,0,0)" stroke-width="2"  />
			<g>
				<title>Methyltransf_25 (PF13649)
"Methyltransferase domain"</title>
				<polygon class="PF13649" points="1358,28 1364,28 1367,33 1367,47 1364,52 1358,52" stroke-linejoin="round" width="9" height="24" fill="rgb(227,135,74)" stroke="rgb(181,108,59)" stroke-width="1" opacity="0.75" />
			</g>
		</g>
	</g>
</svg>
