<svg version="1.1" baseProfile="full" xmlns="http://www.w3.org/2000/svg" width="566.2333333333333" height="80">
	<g>
		<line x1="10" y1="40.0" x2="556.2333333333333" y2="40.0" style="stroke:rgb(70,70,70); stroke-width:3 "/>
		<g>
			<title> (Tbis_0545)
Coproporphyrinogen dehydrogenase</title>
			<polygon class=" (Tbis_0545)
Coproporphyrinogen dehydrogenase" points="50,25 40,25 40,10 10,40 40,70 40,55 50,55" fill="rgb(255,255,255)" fill-opacity="1.0" stroke="rgb(0,0,0)" stroke-width="2"  />
			<g>
				<title>Radical_SAM (PF04055)
"Radical SAM superfamily"</title>
				<rect class="PF04055" x="31" y="28" stroke-linejoin="round" width="18" height="24" fill="rgb(149,56,222)" stroke="rgb(119,44,177)" stroke-width="1" opacity="0.75" />
			</g>
		</g>
		<g>
			<title> (Tbis_0546)
cytochrome P450</title>
			<polygon class=" (Tbis_0546)
cytochrome P450" points="96,25 87,25 87,10 57,40 87,70 87,55 96,55" fill="rgb(255,255,255)" fill-opacity="1.0" stroke="rgb(0,0,0)" stroke-width="2"  />
			<g>
				<title>p450 (PF00067)
"Cytochrome P450"</title>
				<polygon class="PF00067" points="61,40 73,28 81,28 81,52 73,52" stroke-linejoin="round" width="22" height="24" fill="rgb(85,216,107)" stroke="rgb(68,172,85)" stroke-width="1" opacity="0.75" />
			</g>
			<g>
				<title>p450 (PF00067)
"Cytochrome P450"</title>
				<rect class="PF00067" x="82" y="28" stroke-linejoin="round" width="11" height="24" fill="rgb(85,216,107)" stroke="rgb(68,172,85)" stroke-width="1" opacity="0.75" />
			</g>
		</g>
		<g>
			<title> (Tbis_0547)
cytochrome P450</title>
			<polygon class=" (Tbis_0547)
cytochrome P450" points="136,25 126,25 126,10 96,40 126,70 126,55 136,55" fill="rgb(255,255,255)" fill-opacity="1.0" stroke="rgb(0,0,0)" stroke-width="2"  />
			<g>
				<title>p450 (PF00067)
"Cytochrome P450"</title>
				<polygon class="PF00067" points="100,40 112,28 120,28 120,52 112,52" stroke-linejoin="round" width="24" height="24" fill="rgb(85,216,107)" stroke="rgb(68,172,85)" stroke-width="1" opacity="0.75" />
			</g>
		</g>
		<g>
			<title> (Tbis_0548)
transcriptional regulator, TetR family</title>
			<polygon class=" (Tbis_0548)
transcriptional regulator, TetR family" points="138,40 161,10 161,70" fill="rgb(255,255,255)" fill-opacity="1.0" stroke="rgb(0,0,0)" stroke-width="2"  />
			<g>
				<title>TetR_N (PF00440)
"Bacterial regulatory proteins, tetR family"</title>
				<rect class="PF00440" x="156" y="28" stroke-linejoin="round" width="4" height="24" fill="rgb(73,212,190)" stroke="rgb(58,169,152)" stroke-width="1" opacity="0.75" />
			</g>
		</g>
		<g>
			<title> (Tbis_0549)
hypothetical protein</title>
			<polygon class=" (Tbis_0549)
hypothetical protein" points="178,10 183,40 178,70" fill="rgb(255,255,255)" fill-opacity="1.0" stroke="rgb(0,0,0)" stroke-width="2"  />
			<g>
				<title>Thiopep_pre (PF19409)
"Thiopeptide-type bacteriocin precursor"</title>
				<polygon class="PF19409" points="179,35 179,40 179,45" stroke-linejoin="round" width="2" height="24" fill="rgb(119,210,97)" stroke="rgb(95,168,77)" stroke-width="1" opacity="0.75" />
			</g>
		</g>
		<g>
			<title> (Tbis_0550)
Lantibiotic dehydratase domain protein</title>
			<polygon class=" (Tbis_0550)
Lantibiotic dehydratase domain protein" points="186,25 241,25 241,10 271,40 241,70 241,55 186,55" fill="rgb(255,255,255)" fill-opacity="1.0" stroke="rgb(0,0,0)" stroke-width="2"  />
			<g>
				<title>Lant_dehydr_N (PF04738)
"Lantibiotic dehydratase, N terminus"</title>
				<rect class="PF04738" x="201" y="28" stroke-linejoin="round" width="25" height="24" fill="rgb(219,60,229)" stroke="rgb(175,47,183)" stroke-width="1" opacity="0.75" />
			</g>
			<g>
				<title>Lant_dehydr_N (PF04738)
"Lantibiotic dehydratase, N terminus"</title>
				<polygon class="PF04738" points="240,28 255,28 265,38 265,42 255,52 240,52" stroke-linejoin="round" width="25" height="24" fill="rgb(219,60,229)" stroke="rgb(175,47,183)" stroke-width="1" opacity="0.75" />
			</g>
		</g>
		<g>
			<title> (Tbis_0551)
hypothetical protein</title>
			<polygon class=" (Tbis_0551)
hypothetical protein" points="271,10 300,40 271,70" fill="rgb(255,255,255)" fill-opacity="1.0" stroke="rgb(0,0,0)" stroke-width="2"  />
			<g>
				<title>Lant_dehydr_C (PF14028)
"Lantibiotic biosynthesis dehydratase C-term"</title>
				<polygon class="PF14028" points="272,28 284,28 296,40 284,52 272,52" stroke-linejoin="round" width="28" height="24" fill="rgb(107,223,113)" stroke="rgb(85,178,90)" stroke-width="1" opacity="0.75" />
			</g>
		</g>
		<g>
			<title> (Tbis_0552)
hypothetical protein</title>
			<polygon class=" (Tbis_0552)
hypothetical protein" points="301,25 306,25 306,10 336,40 306,70 306,55 301,55" fill="rgb(255,255,255)" fill-opacity="1.0" stroke="rgb(0,0,0)" stroke-width="2"  />
			<g>
				<title>Lant_dehydr_C (PF14028)
"Lantibiotic biosynthesis dehydratase C-term"</title>
				<polygon class="PF14028" points="301,28 320,28 332,40 320,52 301,52" stroke-linejoin="round" width="33" height="24" fill="rgb(107,223,113)" stroke="rgb(85,178,90)" stroke-width="1" opacity="0.75" />
			</g>
		</g>
		<g>
			<title> (Tbis_0553)
conserved hypothetical protein</title>
			<polygon class=" (Tbis_0553)
conserved hypothetical protein" points="337,25 352,25 352,10 382,40 352,70 352,55 337,55" fill="rgb(255,255,255)" fill-opacity="1.0" stroke="rgb(0,0,0)" stroke-width="2"  />
			<g>
				<title>Nitroreductase (PF00881)
"Nitroreductase family"</title>
				<polygon class="PF00881" points="362,28 366,28 378,40 366,52 362,52" stroke-linejoin="round" width="18" height="24" fill="rgb(79,118,187)" stroke="rgb(63,94,149)" stroke-width="1" opacity="0.75" />
			</g>
		</g>
		<g>
			<title> (Tbis_0554)
protein of unknown function DUF181</title>
			<polygon class=" (Tbis_0554)
protein of unknown function DUF181" points="383,25 415,25 415,10 445,40 415,70 415,55 383,55" fill="rgb(255,255,255)" fill-opacity="1.0" stroke="rgb(0,0,0)" stroke-width="2"  />
			<g>
				<title>YcaO (PF02624)
"YcaO cyclodehydratase, ATP-ad Mg2+-binding"</title>
				<polygon class="PF02624" points="418,28 429,28 441,40 429,52 418,52" stroke-linejoin="round" width="27" height="24" fill="rgb(76,84,185)" stroke="rgb(60,67,148)" stroke-width="1" opacity="0.75" />
			</g>
		</g>
		<g>
			<title> (Tbis_0555)
protein of unknown function DUF181</title>
			<polygon class=" (Tbis_0555)
protein of unknown function DUF181" points="445,25 480,25 480,10 510,40 480,70 480,55 445,55" fill="rgb(255,255,255)" fill-opacity="1.0" stroke="rgb(0,0,0)" stroke-width="2"  />
			<g>
				<title>YcaO (PF02624)
"YcaO cyclodehydratase, ATP-ad Mg2+-binding"</title>
				<polygon class="PF02624" points="471,28 494,28 506,40 506,40 494,52 471,52" stroke-linejoin="round" width="35" height="24" fill="rgb(76,84,185)" stroke="rgb(60,67,148)" stroke-width="1" opacity="0.75" />
			</g>
		</g>
		<g>
			<title> (Tbis_0556)
amidohydrolase</title>
			<polygon class=" (Tbis_0556)
amidohydrolase" points="511,25 525,25 525,10 555,40 525,70 525,55 511,55" fill="rgb(255,255,255)" fill-opacity="1.0" stroke="rgb(0,0,0)" stroke-width="2"  />
			<g>
				<title>Peptidase_M20 (PF01546)
"Peptidase family M20/M25/M40"</title>
				<polygon class="PF01546" points="519,28 539,28 549,38 549,42 539,52 519,52" stroke-linejoin="round" width="30" height="24" fill="rgb(88,213,108)" stroke="rgb(70,170,86)" stroke-width="1" opacity="0.75" />
			</g>
		</g>
	</g>
</svg>
