<svg version="1.1" baseProfile="full" xmlns="http://www.w3.org/2000/svg" width="1486.6666666666667" height="80">
	<g>
		<line x1="10" y1="40.0" x2="1476.6666666666667" y2="40.0" style="stroke:rgb(70,70,70); stroke-width:3 "/>
		<g>
			<title>ctnD
CtnD</title>
			<polygon class="ctnD
CtnD" points="86,25 53,25 53,10 23,40 53,70 53,55 86,55" fill="rgb(255,255,255)" fill-opacity="1.0" stroke="rgb(0,0,0)" stroke-width="2"  />
			<g>
				<title>GMC_oxred_C (PF05199)
"GMC oxidoreductase"</title>
				<polygon class="PF05199" points="27,40 39,28 39,28 39,52 39,52" stroke-linejoin="round" width="13" height="24" fill="rgb(186,52,106)" stroke="rgb(148,41,84)" stroke-width="1" opacity="0.75" />
			</g>
			<g>
				<title>GMC_oxred_N (PF00732)
"GMC oxidoreductase"</title>
				<rect class="PF00732" x="54" y="28" stroke-linejoin="round" width="31" height="24" fill="rgb(180,89,214)" stroke="rgb(143,71,171)" stroke-width="1" opacity="0.75" />
			</g>
		</g>
		<g>
			<title>ctnE
CtnE</title>
			<polygon class="ctnE
CtnE" points="125,25 124,25 124,10 94,40 124,70 124,55 125,55" fill="rgb(255,255,255)" fill-opacity="1.0" stroke="rgb(0,0,0)" stroke-width="2"  />
			<g>
				<title>adh_short (PF00106)
"short chain dehydrogenase"</title>
				<polygon class="PF00106" points="103,35 110,28 123,28 123,52 110,52 103,45" stroke-linejoin="round" width="20" height="24" fill="rgb(182,219,73)" stroke="rgb(145,175,58)" stroke-width="1" opacity="0.75" />
			</g>
		</g>
		<g>
			<title>ctnF
CtnF</title>
			<polygon class="ctnF
CtnF" points="849,25 867,25 867,10 897,40 867,70 867,55 849,55" fill="rgb(255,255,255)" fill-opacity="1.0" stroke="rgb(0,0,0)" stroke-width="2"  />
			<g>
				<title>His_Phos_1 (PF00300)
"Histidine phosphatase superfamily (branch 1)"</title>
				<rect class="PF00300" x="849" y="28" stroke-linejoin="round" width="19" height="24" fill="rgb(135,184,63)" stroke="rgb(107,147,50)" stroke-width="1" opacity="0.75" />
			</g>
		</g>
		<g>
			<title>ctnR1
CtnR1</title>
			<polygon class="ctnR1
CtnR1" points="1006,25 1050,25 1050,10 1080,40 1050,70 1050,55 1006,55" fill="rgb(255,255,255)" fill-opacity="1.0" stroke="rgb(0,0,0)" stroke-width="2"  />
			<g>
				<title>WD40 (PF00400)
"WD domain, G-beta repeat"</title>
				<rect class="PF00400" x="1059" y="28" stroke-linejoin="round" width="3" height="24" fill="rgb(190,108,62)" stroke="rgb(152,86,49)" stroke-width="1" opacity="0.75" />
			</g>
		</g>
		<g>
			<title>ctnG
CtnG</title>
			<polygon class="ctnG
CtnG" points="1270,25 1151,25 1151,10 1121,40 1151,70 1151,55 1270,55" fill="rgb(255,255,255)" fill-opacity="1.0" stroke="rgb(0,0,0)" stroke-width="2"  />
			<g>
				<title>Ank_2 (PF12796)
"Ankyrin repeats (3 copies)"</title>
				<rect class="PF12796" x="1212" y="28" stroke-linejoin="round" width="9" height="24" fill="rgb(151,90,191)" stroke="rgb(120,72,152)" stroke-width="1" opacity="0.75" />
			</g>
			<g>
				<title>Pro_CA (PF00484)
"Carbonic anhydrase"</title>
				<rect class="PF00484" x="1226" y="28" stroke-linejoin="round" width="15" height="24" fill="rgb(215,92,126)" stroke="rgb(172,73,100)" stroke-width="1" opacity="0.75" />
			</g>
		</g>
		<g>
			<title>ctnH
CtnH</title>
			<polygon class="ctnH
CtnH" points="1295,25 1309,25 1309,10 1339,40 1309,70 1309,55 1295,55" fill="rgb(255,255,255)" fill-opacity="1.0" stroke="rgb(0,0,0)" stroke-width="2"  />
			<g>
				<title>adh_short_C2 (PF13561)
"Enoyl-(Acyl carrier protein) reductase"</title>
				<polygon class="PF13561" points="1299,28 1322,28 1324,30 1324,50 1322,52 1299,52" stroke-linejoin="round" width="25" height="24" fill="rgb(73,205,127)" stroke="rgb(58,164,101)" stroke-width="1" opacity="0.75" />
			</g>
		</g>
		<g>
			<title>ctnI
CtnI</title>
			<polygon class="ctnI
CtnI" points="1349,25 1427,25 1427,10 1457,40 1427,70 1427,55 1349,55" fill="rgb(255,255,255)" fill-opacity="1.0" stroke="rgb(0,0,0)" stroke-width="2"  />
			<g>
				<title>AMP-binding (PF00501)
"AMP-binding enzyme"</title>
				<rect class="PF00501" x="1372" y="28" stroke-linejoin="round" width="20" height="24" fill="rgb(60,217,223)" stroke="rgb(48,173,178)" stroke-width="1" opacity="0.75" />
			</g>
			<g>
				<title>AMP-binding_C (PF13193)
"AMP-binding enzyme C-terminal domain"</title>
				<rect class="PF13193" x="1413" y="28" stroke-linejoin="round" width="8" height="24" fill="rgb(182,50,118)" stroke="rgb(145,39,94)" stroke-width="1" opacity="0.75" />
			</g>
		</g>
	</g>
</svg>
