<svg version="1.1" baseProfile="full" xmlns="http://www.w3.org/2000/svg" width="186.83333333333334" height="80">
	<g>
		<line x1="10" y1="40.0" x2="176.83333333333334" y2="40.0" style="stroke:rgb(70,70,70); stroke-width:3 "/>
		<g>
			<title> (SSGG_RS36910)
keywimysin-related RiPP</title>
			<polygon class=" (SSGG_RS36910)
keywimysin-related RiPP" points="11,10 15,40 11,70" fill="rgb(255,255,255)" fill-opacity="1.0" stroke="rgb(0,0,0)" stroke-width="2"  />
			<g>
				<title>DUF5972 (PF19397)
"Family of unknown function (DUF5972)"</title>
				<polygon class="PF19397" points="11,31 12,40 11,49" stroke-linejoin="round" width="2" height="24" fill="rgb(197,103,64)" stroke="rgb(157,82,51)" stroke-width="1" opacity="0.75" />
			</g>
		</g>
		<g>
			<title> (SSGG_RS0132785)
asparagine synthetase</title>
			<polygon class=" (SSGG_RS0132785)
asparagine synthetase" points="17,25 17,25 17,10 47,40 17,70 17,55 17,55" fill="rgb(255,255,255)" fill-opacity="1.0" stroke="rgb(0,0,0)" stroke-width="2"  />
		</g>
		<g>
			<title> (SSGG_RS35320)
asparagine synthase-related protein</title>
			<polygon class=" (SSGG_RS35320)
asparagine synthase-related protein" points="17,25 22,25 22,10 52,40 22,70 22,55 17,55" fill="rgb(255,255,255)" fill-opacity="1.0" stroke="rgb(0,0,0)" stroke-width="2"  />
			<g>
				<title>Asn_synthase (PF00733)
"Asparagine synthase"</title>
				<polygon class="PF00733" points="40,32 48,40 48,40 40,48" stroke-linejoin="round" width="8" height="24" fill="rgb(97,201,176)" stroke="rgb(77,160,140)" stroke-width="1" opacity="0.75" />
			</g>
		</g>
		<g>
			<title> (SSGG_RS35325)
asparagine synthase-related protein</title>
			<polygon class=" (SSGG_RS35325)
asparagine synthase-related protein" points="56,25 60,25 60,10 90,40 60,70 60,55 56,55" fill="rgb(255,255,255)" fill-opacity="1.0" stroke="rgb(0,0,0)" stroke-width="2"  />
			<g>
				<title>Asn_synthase (PF00733)
"Asparagine synthase"</title>
				<polygon class="PF00733" points="58,28 74,28 86,40 74,52 58,52" stroke-linejoin="round" width="30" height="24" fill="rgb(97,201,176)" stroke="rgb(77,160,140)" stroke-width="1" opacity="0.75" />
			</g>
		</g>
		<g>
			<title> (SSGG_RS13910)
asparagine synthetase</title>
			<polygon class=" (SSGG_RS13910)
asparagine synthetase" points="57,25 61,25 61,10 91,40 61,70 61,55 57,55" fill="rgb(255,255,255)" fill-opacity="1.0" stroke="rgb(0,0,0)" stroke-width="2"  />
		</g>
		<g>
			<title> (SSGG_RS13905)
lasso peptide biosynthesis PqqD family chaperone</title>
			<polygon class=" (SSGG_RS13905)
lasso peptide biosynthesis PqqD family chaperone" points="91,10 99,40 91,70" fill="rgb(255,255,255)" fill-opacity="1.0" stroke="rgb(0,0,0)" stroke-width="2"  />
			<g>
				<title>PqqD (PF05402)
"Coenzyme PQQ synthesis protein D (PqqD)"</title>
				<polygon class="PF05402" points="92,28 92,28 96,40 92,52 92,52" stroke-linejoin="round" width="6" height="24" fill="rgb(124,62,188)" stroke="rgb(99,49,150)" stroke-width="1" opacity="0.75" />
			</g>
		</g>
		<g>
			<title> (SSGG_RS13900)
lasso peptide biosynthesis B2 protein</title>
			<polygon class=" (SSGG_RS13900)
lasso peptide biosynthesis B2 protein" points="99,10 115,40 99,70" fill="rgb(255,255,255)" fill-opacity="1.0" stroke="rgb(0,0,0)" stroke-width="2"  />
			<g>
				<title>Transglut_core3 (PF13471)
"Transglutaminase-like superfamily"</title>
				<polygon class="PF13471" points="100,28 105,28 111,38 111,42 105,52 100,52" stroke-linejoin="round" width="11" height="24" fill="rgb(63,111,179)" stroke="rgb(50,88,143)" stroke-width="1" opacity="0.75" />
			</g>
		</g>
		<g>
			<title> (SSGG_RS13895)
ABC transporter ATP-binding protein/permease</title>
			<polygon class=" (SSGG_RS13895)
ABC transporter ATP-binding protein/permease" points="122,25 146,25 146,10 176,40 146,70 146,55 122,55" fill="rgb(255,255,255)" fill-opacity="1.0" stroke="rgb(0,0,0)" stroke-width="2"  />
			<g>
				<title>ABC_membrane (PF00664)
"ABC transporter transmembrane region"</title>
				<rect class="PF00664" x="122" y="28" stroke-linejoin="round" width="24" height="24" fill="rgb(149,226,73)" stroke="rgb(119,180,58)" stroke-width="1" opacity="0.75" />
			</g>
			<g>
				<title>ABC_tran (PF00005)
"ABC transporter"</title>
				<polygon class="PF00005" points="153,28 159,28 167,36 167,44 159,52 153,52" stroke-linejoin="round" width="14" height="24" fill="rgb(129,201,63)" stroke="rgb(103,160,50)" stroke-width="1" opacity="0.75" />
			</g>
		</g>
	</g>
</svg>
