<svg version="1.1" baseProfile="full" xmlns="http://www.w3.org/2000/svg" width="1509.8" height="80">
	<g>
		<line x1="10" y1="40.0" x2="1499.8" y2="40.0" style="stroke:rgb(70,70,70); stroke-width:3 "/>
		<g>
			<title> (OK006_RS36460)
tryptophan 7-halogenase</title>
			<polygon class=" (OK006_RS36460)
tryptophan 7-halogenase" points="62,25 40,25 40,10 10,40 40,70 40,55 62,55" fill="rgb(255,255,255)" fill-opacity="1.0" stroke="rgb(0,0,0)" stroke-width="2"  />
			<g>
				<title>Trp_halogenase (PF04820)
"Tryptophan halogenase"</title>
				<polygon class="PF04820" points="17,37 26,28 50,28 50,52 26,52 17,43" stroke-linejoin="round" width="33" height="24" fill="rgb(179,74,194)" stroke="rgb(143,59,155)" stroke-width="1" opacity="0.75" />
			</g>
		</g>
		<g>
			<title> (OK006_RS36465)
non-ribosomal peptide synthetase</title>
			<polygon class=" (OK006_RS36465)
non-ribosomal peptide synthetase" points="313,25 92,25 92,10 62,40 92,70 92,55 313,55" fill="rgb(255,255,255)" fill-opacity="1.0" stroke="rgb(0,0,0)" stroke-width="2"  />
			<g>
				<title>PP-binding (PF00550)
"Phosphopantetheine attachment site"</title>
				<polygon class="PF00550" points="66,40 70,36 70,44" stroke-linejoin="round" width="6" height="24" fill="rgb(103,191,88)" stroke="rgb(82,152,70)" stroke-width="1" opacity="0.75" />
			</g>
			<g>
				<title>Methyltransf_23 (PF13489)
"Methyltransferase domain"</title>
				<rect class="PF13489" x="95" y="28" stroke-linejoin="round" width="16" height="24" fill="rgb(188,189,66)" stroke="rgb(150,151,52)" stroke-width="1" opacity="0.75" />
			</g>
			<g>
				<title>AMP-binding_C (PF13193)
"AMP-binding enzyme C-terminal domain"</title>
				<rect class="PF13193" x="115" y="28" stroke-linejoin="round" width="5" height="24" fill="rgb(182,50,118)" stroke="rgb(145,39,94)" stroke-width="1" opacity="0.75" />
			</g>
			<g>
				<title>AMP-binding (PF00501)
"AMP-binding enzyme"</title>
				<rect class="PF00501" x="121" y="28" stroke-linejoin="round" width="39" height="24" fill="rgb(60,217,223)" stroke="rgb(48,173,178)" stroke-width="1" opacity="0.75" />
			</g>
			<g>
				<title>Condensation (PF00668)
"Condensation domain"</title>
				<rect class="PF00668" x="163" y="28" stroke-linejoin="round" width="45" height="24" fill="rgb(224,184,98)" stroke="rgb(179,147,78)" stroke-width="1" opacity="0.75" />
			</g>
			<g>
				<title>PP-binding (PF00550)
"Phosphopantetheine attachment site"</title>
				<rect class="PF00550" x="209" y="28" stroke-linejoin="round" width="6" height="24" fill="rgb(103,191,88)" stroke="rgb(82,152,70)" stroke-width="1" opacity="0.75" />
			</g>
			<g>
				<title>AMP-binding_C (PF13193)
"AMP-binding enzyme C-terminal domain"</title>
				<rect class="PF13193" x="218" y="28" stroke-linejoin="round" width="7" height="24" fill="rgb(182,50,118)" stroke="rgb(145,39,94)" stroke-width="1" opacity="0.75" />
			</g>
			<g>
				<title>AMP-binding (PF00501)
"AMP-binding enzyme"</title>
				<rect class="PF00501" x="227" y="28" stroke-linejoin="round" width="39" height="24" fill="rgb(60,217,223)" stroke="rgb(48,173,178)" stroke-width="1" opacity="0.75" />
			</g>
			<g>
				<title>Condensation (PF00668)
"Condensation domain"</title>
				<rect class="PF00668" x="268" y="28" stroke-linejoin="round" width="43" height="24" fill="rgb(224,184,98)" stroke="rgb(179,147,78)" stroke-width="1" opacity="0.75" />
			</g>
		</g>
		<g>
			<title> (OK006_RS36470)
MbtH family protein</title>
			<polygon class=" (OK006_RS36470)
MbtH family protein" points="315,40 321,10 321,70" fill="rgb(255,255,255)" fill-opacity="1.0" stroke="rgb(0,0,0)" stroke-width="2"  />
			<g>
				<title>MbtH (PF03621)
"MbtH-like protein"</title>
				<polygon class="PF03621" points="318,40 321,28 321,28 321,52 321,52" stroke-linejoin="round" width="5" height="24" fill="rgb(212,165,97)" stroke="rgb(169,132,77)" stroke-width="1" opacity="0.75" />
			</g>
		</g>
		<g>
			<title> (OK006_RS36475)
enediyne antibiotic chromoprotein</title>
			<polygon class=" (OK006_RS36475)
enediyne antibiotic chromoprotein" points="332,10 346,40 332,70" fill="rgb(255,255,255)" fill-opacity="1.0" stroke="rgb(0,0,0)" stroke-width="2"  />
			<g>
				<title>Neocarzinostat (PF00960)
"Neocarzinostatin family"</title>
				<polygon class="PF00960" points="335,28 337,28 343,40 337,52 335,52" stroke-linejoin="round" width="10" height="24" fill="rgb(223,193,87)" stroke="rgb(178,154,69)" stroke-width="1" opacity="0.75" />
			</g>
		</g>
		<g>
			<title> (OK006_RS36480)
ABC transporter permease</title>
			<polygon class=" (OK006_RS36480)
ABC transporter permease" points="351,40 377,10 377,70" fill="rgb(255,255,255)" fill-opacity="1.0" stroke="rgb(0,0,0)" stroke-width="2"  />
			<g>
				<title>ABC2_membrane (PF01061)
"ABC-2 type transporter"</title>
				<polygon class="PF01061" points="355,40 366,28 375,28 375,52 366,52 355,40" stroke-linejoin="round" width="20" height="24" fill="rgb(139,217,106)" stroke="rgb(111,173,84)" stroke-width="1" opacity="0.75" />
			</g>
		</g>
		<g>
			<title> (OK006_RS36485)
ATP-binding cassette domain-containing protein</title>
			<polygon class=" (OK006_RS36485)
ATP-binding cassette domain-containing protein" points="409,25 407,25 407,10 377,40 407,70 407,55 409,55" fill="rgb(255,255,255)" fill-opacity="1.0" stroke="rgb(0,0,0)" stroke-width="2"  />
			<g>
				<title>ABC_tran (PF00005)
"ABC transporter"</title>
				<polygon class="PF00005" points="393,28 393,28 407,28 407,52 393,52 393,52" stroke-linejoin="round" width="14" height="24" fill="rgb(129,201,63)" stroke="rgb(103,160,50)" stroke-width="1" opacity="0.75" />
			</g>
		</g>
		<g>
			<title> (OK006_RS36490)
beta-ketoacyl-[acyl-carrier-protein] synthase family protein</title>
			<polygon class=" (OK006_RS36490)
beta-ketoacyl-[acyl-carrier-protein] synthase family protein" points="416,25 427,25 427,10 457,40 427,70 427,55 416,55" fill="rgb(255,255,255)" fill-opacity="1.0" stroke="rgb(0,0,0)" stroke-width="2"  />
			<g>
				<title>ketoacyl-synt (PF00109)
"Beta-ketoacyl synthase, N-terminal domain"</title>
				<rect class="PF00109" x="417" y="28" stroke-linejoin="round" width="23" height="24" fill="rgb(112,116,228)" stroke="rgb(89,92,182)" stroke-width="1" opacity="0.75" />
			</g>
			<g>
				<title>Ketoacyl-synt_C (PF02801)
"Beta-ketoacyl synthase, C-terminal domain"</title>
				<polygon class="PF02801" points="441,28 441,28 452,39 452,41 441,52 441,52" stroke-linejoin="round" width="11" height="24" fill="rgb(215,78,102)" stroke="rgb(172,62,81)" stroke-width="1" opacity="0.75" />
			</g>
		</g>
		<g>
			<title> (OK006_RS36495)
hypothetical protein</title>
			<polygon class=" (OK006_RS36495)
hypothetical protein" points="457,25 462,25 462,10 492,40 462,70 462,55 457,55" fill="rgb(255,255,255)" fill-opacity="1.0" stroke="rgb(0,0,0)" stroke-width="2"  />
			<g>
				<title>ketoacyl-synt (PF00109)
"Beta-ketoacyl synthase, N-terminal domain"</title>
				<polygon class="PF00109" points="457,28 476,28 478,30 478,50 476,52 457,52" stroke-linejoin="round" width="21" height="24" fill="rgb(112,116,228)" stroke="rgb(89,92,182)" stroke-width="1" opacity="0.75" />
			</g>
		</g>
		<g>
			<title> (OK006_RS36500)
NAD(P)/FAD-dependent oxidoreductase</title>
			<polygon class=" (OK006_RS36500)
NAD(P)/FAD-dependent oxidoreductase" points="493,25 520,25 520,10 550,40 520,70 520,55 493,55" fill="rgb(255,255,255)" fill-opacity="1.0" stroke="rgb(0,0,0)" stroke-width="2"  />
			<g>
				<title>Amino_oxidase (PF01593)
"Flavin containing amine oxidoreductase"</title>
				<polygon class="PF01593" points="495,28 533,28 544,39 544,41 533,52 495,52" stroke-linejoin="round" width="49" height="24" fill="rgb(184,74,52)" stroke="rgb(147,59,41)" stroke-width="1" opacity="0.75" />
			</g>
		</g>
		<g>
			<title> (OK006_RS36505)
class I SAM-dependent methyltransferase</title>
			<polygon class=" (OK006_RS36505)
class I SAM-dependent methyltransferase" points="551,40 573,10 573,70" fill="rgb(255,255,255)" fill-opacity="1.0" stroke="rgb(0,0,0)" stroke-width="2"  />
			<g>
				<title>Methyltransf_3 (PF01596)
"O-methyltransferase"</title>
				<polygon class="PF01596" points="555,40 564,28 571,28 571,52 564,52" stroke-linejoin="round" width="20" height="24" fill="rgb(168,187,48)" stroke="rgb(134,149,38)" stroke-width="1" opacity="0.75" />
			</g>
		</g>
		<g>
			<title> (OK006_RS36510)
hypothetical protein</title>
			<polygon class=" (OK006_RS36510)
hypothetical protein" points="574,40 599,10 599,70" fill="rgb(255,255,255)" fill-opacity="1.0" stroke="rgb(0,0,0)" stroke-width="2"  />
			<g>
				<title>Biopterin_H (PF00351)
"Biopterin-dependent aromatic amino acid hydroxylase"</title>
				<polygon class="PF00351" points="578,40 588,28 599,28 599,52 588,52" stroke-linejoin="round" width="25" height="24" fill="rgb(178,114,49)" stroke="rgb(142,91,39)" stroke-width="1" opacity="0.75" />
			</g>
		</g>
		<g>
			<title> (OK006_RS36515)
acyl carrier protein</title>
			<polygon class=" (OK006_RS36515)
acyl carrier protein" points="608,10 616,40 608,70" fill="rgb(255,255,255)" fill-opacity="1.0" stroke="rgb(0,0,0)" stroke-width="2"  />
			<g>
				<title>PP-binding (PF00550)
"Phosphopantetheine attachment site"</title>
				<polygon class="PF00550" points="609,28 609,28 613,40 609,52 609,52" stroke-linejoin="round" width="6" height="24" fill="rgb(103,191,88)" stroke="rgb(82,152,70)" stroke-width="1" opacity="0.75" />
			</g>
		</g>
		<g>
			<title> (OK006_RS36520)
beta-ketoacyl-[acyl-carrier-protein] synthase family protein</title>
			<polygon class=" (OK006_RS36520)
beta-ketoacyl-[acyl-carrier-protein] synthase family protein" points="618,25 628,25 628,10 658,40 628,70 628,55 618,55" fill="rgb(255,255,255)" fill-opacity="1.0" stroke="rgb(0,0,0)" stroke-width="2"  />
			<g>
				<title>ketoacyl-synt (PF00109)
"Beta-ketoacyl synthase, N-terminal domain"</title>
				<rect class="PF00109" x="618" y="28" stroke-linejoin="round" width="23" height="24" fill="rgb(112,116,228)" stroke="rgb(89,92,182)" stroke-width="1" opacity="0.75" />
			</g>
			<g>
				<title>Ketoacyl-synt_C (PF02801)
"Beta-ketoacyl synthase, C-terminal domain"</title>
				<polygon class="PF02801" points="643,29 654,40 654,40 643,51" stroke-linejoin="round" width="11" height="24" fill="rgb(215,78,102)" stroke="rgb(172,62,81)" stroke-width="1" opacity="0.75" />
			</g>
		</g>
		<g>
			<title> (OK006_RS36525)
3-oxoacyl-ACP synthase</title>
			<polygon class=" (OK006_RS36525)
3-oxoacyl-ACP synthase" points="659,25 667,25 667,10 697,40 667,70 667,55 659,55" fill="rgb(255,255,255)" fill-opacity="1.0" stroke="rgb(0,0,0)" stroke-width="2"  />
			<g>
				<title>ketoacyl-synt (PF00109)
"Beta-ketoacyl synthase, N-terminal domain"</title>
				<rect class="PF00109" x="659" y="28" stroke-linejoin="round" width="20" height="24" fill="rgb(112,116,228)" stroke="rgb(89,92,182)" stroke-width="1" opacity="0.75" />
			</g>
			<g>
				<title>Ketoacyl-synt_C (PF02801)
"Beta-ketoacyl synthase, C-terminal domain"</title>
				<polygon class="PF02801" points="681,29 692,40 692,40 681,51" stroke-linejoin="round" width="11" height="24" fill="rgb(215,78,102)" stroke="rgb(172,62,81)" stroke-width="1" opacity="0.75" />
			</g>
		</g>
		<g>
			<title> (OK006_RS36530)
hypothetical protein</title>
			<polygon class=" (OK006_RS36530)
hypothetical protein" points="697,25 700,25 700,10 730,40 700,70 700,55 697,55" fill="rgb(255,255,255)" fill-opacity="1.0" stroke="rgb(0,0,0)" stroke-width="2"  />
			<g>
				<title>ketoacyl-synt (PF00109)
"Beta-ketoacyl synthase, N-terminal domain"</title>
				<polygon class="PF00109" points="698,28 714,28 720,34 720,46 714,52 698,52" stroke-linejoin="round" width="22" height="24" fill="rgb(112,116,228)" stroke="rgb(89,92,182)" stroke-width="1" opacity="0.75" />
			</g>
		</g>
		<g>
			<title> (OK006_RS36535)
alpha/beta hydrolase</title>
			<polygon class=" (OK006_RS36535)
alpha/beta hydrolase" points="730,10 759,40 730,70" fill="rgb(255,255,255)" fill-opacity="1.0" stroke="rgb(0,0,0)" stroke-width="2"  />
			<g>
				<title>Abhydrolase_6 (PF12697)
"Alpha/beta hydrolase family"</title>
				<polygon class="PF12697" points="733,28 743,28 755,40 743,52 733,52" stroke-linejoin="round" width="23" height="24" fill="rgb(113,71,219)" stroke="rgb(90,56,175)" stroke-width="1" opacity="0.75" />
			</g>
		</g>
		<g>
			<title> (OK006_RS36540)
hypothetical protein</title>
			<polygon class=" (OK006_RS36540)
hypothetical protein" points="759,25 762,25 762,10 792,40 762,70 762,55 759,55" fill="rgb(255,255,255)" fill-opacity="1.0" stroke="rgb(0,0,0)" stroke-width="2"  />
		</g>
		<g>
			<title> (OK006_RS36545)
hypothetical protein</title>
			<polygon class=" (OK006_RS36545)
hypothetical protein" points="793,25 797,25 797,10 827,40 797,70 797,55 793,55" fill="rgb(255,255,255)" fill-opacity="1.0" stroke="rgb(0,0,0)" stroke-width="2"  />
			<g>
				<title>ketoacyl-synt (PF00109)
"Beta-ketoacyl synthase, N-terminal domain"</title>
				<polygon class="PF00109" points="793,28 811,28 815,32 815,48 811,52 793,52" stroke-linejoin="round" width="22" height="24" fill="rgb(112,116,228)" stroke="rgb(89,92,182)" stroke-width="1" opacity="0.75" />
			</g>
		</g>
		<g>
			<title> (OK006_RS36550)
3-oxoacyl-ACP reductase FabG</title>
			<polygon class=" (OK006_RS36550)
3-oxoacyl-ACP reductase FabG" points="831,10 855,40 831,70" fill="rgb(255,255,255)" fill-opacity="1.0" stroke="rgb(0,0,0)" stroke-width="2"  />
			<g>
				<title>adh_short_C2 (PF13561)
"Enoyl-(Acyl carrier protein) reductase"</title>
				<polygon class="PF13561" points="832,28 842,28 852,40 842,52 832,52" stroke-linejoin="round" width="23" height="24" fill="rgb(73,205,127)" stroke="rgb(58,164,101)" stroke-width="1" opacity="0.75" />
			</g>
		</g>
		<g>
			<title> (OK006_RS36555)
DsbA family protein</title>
			<polygon class=" (OK006_RS36555)
DsbA family protein" points="856,10 879,40 856,70" fill="rgb(255,255,255)" fill-opacity="1.0" stroke="rgb(0,0,0)" stroke-width="2"  />
			<g>
				<title>DSBA (PF01323)
"DSBA-like thioredoxin domain"</title>
				<polygon class="PF01323" points="856,28 866,28 875,39 875,41 866,52 856,52" stroke-linejoin="round" width="19" height="24" fill="rgb(221,114,99)" stroke="rgb(176,91,79)" stroke-width="1" opacity="0.75" />
			</g>
		</g>
		<g>
			<title> (OK006_RS36560)
acyl carrier protein</title>
			<polygon class=" (OK006_RS36560)
acyl carrier protein" points="882,10 890,40 882,70" fill="rgb(255,255,255)" fill-opacity="1.0" stroke="rgb(0,0,0)" stroke-width="2"  />
			<g>
				<title>PP-binding (PF00550)
"Phosphopantetheine attachment site"</title>
				<polygon class="PF00550" points="883,28 883,28 887,40 883,52 883,52" stroke-linejoin="round" width="6" height="24" fill="rgb(103,191,88)" stroke="rgb(82,152,70)" stroke-width="1" opacity="0.75" />
			</g>
		</g>
		<g>
			<title> (OK006_RS36565)
hypothetical protein</title>
			<polygon class=" (OK006_RS36565)
hypothetical protein" points="890,10 901,40 890,70" fill="rgb(255,255,255)" fill-opacity="1.0" stroke="rgb(0,0,0)" stroke-width="2"  />
		</g>
		<g>
			<title> (OK006_RS36570)
DsrE family protein</title>
			<polygon class=" (OK006_RS36570)
DsrE family protein" points="901,10 914,40 901,70" fill="rgb(255,255,255)" fill-opacity="1.0" stroke="rgb(0,0,0)" stroke-width="2"  />
			<g>
				<title>DrsE (PF02635)
"DsrE/DsrF-like family"</title>
				<polygon class="PF02635" points="902,28 905,28 911,40 905,52 902,52" stroke-linejoin="round" width="12" height="24" fill="rgb(60,184,153)" stroke="rgb(48,147,122)" stroke-width="1" opacity="0.75" />
			</g>
		</g>
		<g>
			<title> (OK006_RS58490)
DsrE family protein</title>
			<polygon class=" (OK006_RS58490)
DsrE family protein" points="915,10 927,40 915,70" fill="rgb(255,255,255)" fill-opacity="1.0" stroke="rgb(0,0,0)" stroke-width="2"  />
		</g>
		<g>
			<title> (OK006_RS58495)
hypothetical protein</title>
			<polygon class=" (OK006_RS58495)
hypothetical protein" points="928,10 943,40 928,70" fill="rgb(255,255,255)" fill-opacity="1.0" stroke="rgb(0,0,0)" stroke-width="2"  />
			<g>
				<title>FabA (PF07977)
"FabA-like domain"</title>
				<polygon class="PF07977" points="928,28 933,28 939,40 933,52 928,52" stroke-linejoin="round" width="13" height="24" fill="rgb(66,205,188)" stroke="rgb(52,164,150)" stroke-width="1" opacity="0.75" />
			</g>
		</g>
		<g>
			<title> (OK006_RS36585)
hypothetical protein</title>
			<polygon class=" (OK006_RS36585)
hypothetical protein" points="943,10 961,40 943,70" fill="rgb(255,255,255)" fill-opacity="1.0" stroke="rgb(0,0,0)" stroke-width="2"  />
			<g>
				<title>FabA (PF07977)
"FabA-like domain"</title>
				<polygon class="PF07977" points="944,28 950,28 957,40 957,40 950,52 944,52" stroke-linejoin="round" width="13" height="24" fill="rgb(66,205,188)" stroke="rgb(52,164,150)" stroke-width="1" opacity="0.75" />
			</g>
		</g>
		<g>
			<title> (OK006_RS36590)
NB-ARC domain-containing protein</title>
			<polygon class=" (OK006_RS36590)
NB-ARC domain-containing protein" points="1005,25 991,25 991,10 961,40 991,70 991,55 1005,55" fill="rgb(255,255,255)" fill-opacity="1.0" stroke="rgb(0,0,0)" stroke-width="2"  />
			<g>
				<title>NB-ARC (PF00931)
"NB-ARC domain"</title>
				<polygon class="PF00931" points="969,36 977,28 992,28 992,52 977,52 969,44" stroke-linejoin="round" width="23" height="24" fill="rgb(165,94,211)" stroke="rgb(132,75,168)" stroke-width="1" opacity="0.75" />
			</g>
		</g>
		<g>
			<title> (OK006_RS36595)
DUF3995 domain-containing protein</title>
			<polygon class=" (OK006_RS36595)
DUF3995 domain-containing protein" points="1010,40 1026,10 1026,70" fill="rgb(255,255,255)" fill-opacity="1.0" stroke="rgb(0,0,0)" stroke-width="2"  />
			<g>
				<title>DUF3995 (PF13160)
"Protein of unknown function (DUF3995)"</title>
				<polygon class="PF13160" points="1013,40 1020,28 1024,28 1024,52 1020,52" stroke-linejoin="round" width="12" height="24" fill="rgb(84,135,199)" stroke="rgb(67,107,159)" stroke-width="1" opacity="0.75" />
			</g>
		</g>
		<g>
			<title> (OK006_RS36600)
DUF6191 domain-containing protein</title>
			<polygon class=" (OK006_RS36600)
DUF6191 domain-containing protein" points="1037,40 1050,10 1050,70" fill="rgb(255,255,255)" fill-opacity="1.0" stroke="rgb(0,0,0)" stroke-width="2"  />
			<g>
				<title>DUF6191 (PF19690)
"Family of unknown function (DUF6191)"</title>
				<polygon class="PF19690" points="1040,40 1044,31 1044,49 1040,40" stroke-linejoin="round" width="4" height="24" fill="rgb(88,156,192)" stroke="rgb(70,124,153)" stroke-width="1" opacity="0.75" />
			</g>
		</g>
		<g>
			<title> (OK006_RS36605)
non-ribosomal peptide synthetase</title>
			<polygon class=" (OK006_RS36605)
non-ribosomal peptide synthetase" points="1065,25 1416,25 1416,10 1446,40 1416,70 1416,55 1065,55" fill="rgb(255,255,255)" fill-opacity="1.0" stroke="rgb(0,0,0)" stroke-width="2"  />
			<g>
				<title>Condensation (PF00668)
"Condensation domain"</title>
				<rect class="PF00668" x="1065" y="28" stroke-linejoin="round" width="45" height="24" fill="rgb(224,184,98)" stroke="rgb(179,147,78)" stroke-width="1" opacity="0.75" />
			</g>
			<g>
				<title>AMP-binding (PF00501)
"AMP-binding enzyme"</title>
				<rect class="PF00501" x="1112" y="28" stroke-linejoin="round" width="39" height="24" fill="rgb(60,217,223)" stroke="rgb(48,173,178)" stroke-width="1" opacity="0.75" />
			</g>
			<g>
				<title>Methyltransf_12 (PF08242)
"Methyltransferase domain"</title>
				<rect class="PF08242" x="1162" y="28" stroke-linejoin="round" width="10" height="24" fill="rgb(187,59,115)" stroke="rgb(149,47,92)" stroke-width="1" opacity="0.75" />
			</g>
			<g>
				<title>PP-binding (PF00550)
"Phosphopantetheine attachment site"</title>
				<rect class="PF00550" x="1201" y="28" stroke-linejoin="round" width="6" height="24" fill="rgb(103,191,88)" stroke="rgb(82,152,70)" stroke-width="1" opacity="0.75" />
			</g>
			<g>
				<title>Condensation (PF00668)
"Condensation domain"</title>
				<rect class="PF00668" x="1210" y="28" stroke-linejoin="round" width="45" height="24" fill="rgb(224,184,98)" stroke="rgb(179,147,78)" stroke-width="1" opacity="0.75" />
			</g>
			<g>
				<title>AMP-binding (PF00501)
"AMP-binding enzyme"</title>
				<rect class="PF00501" x="1257" y="28" stroke-linejoin="round" width="38" height="24" fill="rgb(60,217,223)" stroke="rgb(48,173,178)" stroke-width="1" opacity="0.75" />
			</g>
			<g>
				<title>AMP-binding_C (PF13193)
"AMP-binding enzyme C-terminal domain"</title>
				<rect class="PF13193" x="1296" y="28" stroke-linejoin="round" width="8" height="24" fill="rgb(182,50,118)" stroke="rgb(145,39,94)" stroke-width="1" opacity="0.75" />
			</g>
			<g>
				<title>PP-binding (PF00550)
"Phosphopantetheine attachment site"</title>
				<rect class="PF00550" x="1307" y="28" stroke-linejoin="round" width="6" height="24" fill="rgb(103,191,88)" stroke="rgb(82,152,70)" stroke-width="1" opacity="0.75" />
			</g>
			<g>
				<title>Condensation (PF00668)
"Condensation domain"</title>
				<rect class="PF00668" x="1315" y="28" stroke-linejoin="round" width="45" height="24" fill="rgb(224,184,98)" stroke="rgb(179,147,78)" stroke-width="1" opacity="0.75" />
			</g>
			<g>
				<title>AMP-binding (PF00501)
"AMP-binding enzyme"</title>
				<rect class="PF00501" x="1362" y="28" stroke-linejoin="round" width="39" height="24" fill="rgb(60,217,223)" stroke="rgb(48,173,178)" stroke-width="1" opacity="0.75" />
			</g>
			<g>
				<title>AMP-binding_C (PF13193)
"AMP-binding enzyme C-terminal domain"</title>
				<rect class="PF13193" x="1402" y="28" stroke-linejoin="round" width="7" height="24" fill="rgb(182,50,118)" stroke="rgb(145,39,94)" stroke-width="1" opacity="0.75" />
			</g>
			<g>
				<title>PP-binding (PF00550)
"Phosphopantetheine attachment site"</title>
				<rect class="PF00550" x="1412" y="28" stroke-linejoin="round" width="6" height="24" fill="rgb(103,191,88)" stroke="rgb(82,152,70)" stroke-width="1" opacity="0.75" />
			</g>
			<g>
				<title>Thioesterase (PF00975)
"Thioesterase domain"</title>
				<polygon class="PF00975" points="1421,28 1429,28 1441,40 1429,52 1421,52" stroke-linejoin="round" width="24" height="24" fill="rgb(207,80,138)" stroke="rgb(165,63,110)" stroke-width="1" opacity="0.75" />
			</g>
		</g>
		<g>
			<title> (OK006_RS36610)
cation:proton antiporter</title>
			<polygon class=" (OK006_RS36610)
cation:proton antiporter" points="1455,25 1469,25 1469,10 1499,40 1469,70 1469,55 1455,55" fill="rgb(255,255,255)" fill-opacity="1.0" stroke="rgb(0,0,0)" stroke-width="2"  />
			<g>
				<title>Na_H_Exchanger (PF00999)
"Sodium/hydrogen exchanger family"</title>
				<polygon class="PF00999" points="1457,28 1483,28 1495,40 1483,52 1457,52" stroke-linejoin="round" width="39" height="24" fill="rgb(229,67,191)" stroke="rgb(183,53,152)" stroke-width="1" opacity="0.75" />
			</g>
		</g>
	</g>
</svg>
