<svg version="1.1" baseProfile="full" xmlns="http://www.w3.org/2000/svg" width="957.3333333333334" height="80">
	<g>
		<line x1="10" y1="40.0" x2="947.3333333333334" y2="40.0" style="stroke:rgb(70,70,70); stroke-width:3 "/>
		<g>
			<title>ORF4
ORF4</title>
			<polygon class="ORF4
ORF4" points="24,10 51,40 24,70" fill="rgb(255,255,255)" fill-opacity="1.0" stroke="rgb(0,0,0)" stroke-width="2"  />
			<g>
				<title>Inositol_P (PF00459)
"Inositol monophosphatase family"</title>
				<polygon class="PF00459" points="24,28 35,28 46,40 35,52 24,52" stroke-linejoin="round" width="26" height="24" fill="rgb(67,210,137)" stroke="rgb(53,168,109)" stroke-width="1" opacity="0.75" />
			</g>
		</g>
		<g>
			<title>ORF3
ORF3</title>
			<polygon class="ORF3
ORF3" points="57,10 74,40 57,70" fill="rgb(255,255,255)" fill-opacity="1.0" stroke="rgb(0,0,0)" stroke-width="2"  />
			<g>
				<title>PEP-CTERM (PF07589)
"PEP-CTERM motif"</title>
				<polygon class="PF07589" points="70,39 70,40 70,41" stroke-linejoin="round" width="2" height="24" fill="rgb(125,218,99)" stroke="rgb(100,174,79)" stroke-width="1" opacity="0.75" />
			</g>
		</g>
		<g>
			<title>epsC
EpsC</title>
			<polygon class="epsC
EpsC" points="111,25 108,25 108,10 78,40 108,70 108,55 111,55" fill="rgb(255,255,255)" fill-opacity="1.0" stroke="rgb(0,0,0)" stroke-width="2"  />
			<g>
				<title>Caps_synth (PF05704)
"Capsular polysaccharide synthesis protein"</title>
				<polygon class="PF05704" points="82,40 94,28 106,28 106,52 94,52" stroke-linejoin="round" width="28" height="24" fill="rgb(199,186,82)" stroke="rgb(159,148,65)" stroke-width="1" opacity="0.75" />
			</g>
		</g>
		<g>
			<title>epsB
glucosyltransferase EpsB</title>
			<polygon class="epsB
glucosyltransferase EpsB" points="158,25 143,25 143,10 113,40 143,70 143,55 158,55" fill="rgb(255,255,255)" fill-opacity="1.0" stroke="rgb(0,0,0)" stroke-width="2"  />
			<g>
				<title>Bac_transf (PF02397)
"Bacterial sugar transferase"</title>
				<polygon class="PF02397" points="117,40 129,28 131,28 131,52 129,52" stroke-linejoin="round" width="18" height="24" fill="rgb(57,165,209)" stroke="rgb(45,131,167)" stroke-width="1" opacity="0.75" />
			</g>
			<g>
				<title>CoA_binding_3 (PF13727)
"CoA-binding domain"</title>
				<rect class="PF13727" x="135" y="28" stroke-linejoin="round" width="17" height="24" fill="rgb(153,200,97)" stroke="rgb(122,160,77)" stroke-width="1" opacity="0.75" />
			</g>
		</g>
		<g>
			<title>epsA
transcription regulator like protein EpsA</title>
			<polygon class="epsA
transcription regulator like protein EpsA" points="161,40 187,10 187,70" fill="rgb(255,255,255)" fill-opacity="1.0" stroke="rgb(0,0,0)" stroke-width="2"  />
			<g>
				<title>GerE (PF00196)
"Bacterial regulatory proteins, luxR family"</title>
				<polygon class="PF00196" points="165,40 166,39 166,41" stroke-linejoin="round" width="5" height="24" fill="rgb(219,94,82)" stroke="rgb(175,75,65)" stroke-width="1" opacity="0.75" />
			</g>
		</g>
		<g>
			<title>epsK
EpsK</title>
			<polygon class="epsK
EpsK" points="208,10 220,40 208,70" fill="rgb(255,255,255)" fill-opacity="1.0" stroke="rgb(0,0,0)" stroke-width="2"  />
			<g>
				<title>cNMP_binding (PF00027)
"Cyclic nucleotide-binding domain"</title>
				<polygon class="PF00027" points="208,28 212,28 216,37 216,43 212,52 208,52" stroke-linejoin="round" width="8" height="24" fill="rgb(138,95,204)" stroke="rgb(110,76,163)" stroke-width="1" opacity="0.75" />
			</g>
		</g>
		<g>
			<title>epsL
EpsL</title>
			<polygon class="epsL
EpsL" points="223,25 233,25 233,10 263,40 233,70 233,55 223,55" fill="rgb(255,255,255)" fill-opacity="1.0" stroke="rgb(0,0,0)" stroke-width="2"  />
			<g>
				<title>BBP2_2 (PF10082)
"Putative beta-barrel porin 2"</title>
				<polygon class="PF10082" points="246,28 246,28 258,40 246,52 246,52" stroke-linejoin="round" width="16" height="24" fill="rgb(194,81,181)" stroke="rgb(155,64,144)" stroke-width="1" opacity="0.75" />
			</g>
		</g>
		<g>
			<title>epsD
EpsD</title>
			<polygon class="epsD
EpsD" points="265,10 288,40 265,70" fill="rgb(255,255,255)" fill-opacity="1.0" stroke="rgb(0,0,0)" stroke-width="2"  />
			<g>
				<title>SurA_N_3 (PF13624)
"SurA N-terminal domain"</title>
				<rect class="PF13624" x="265" y="28" stroke-linejoin="round" width="10" height="24" fill="rgb(84,156,193)" stroke="rgb(67,124,154)" stroke-width="1" opacity="0.75" />
			</g>
			<g>
				<title>Rotamase_2 (PF13145)
"PPIC-type PPIASE domain"</title>
				<polygon class="PF13145" points="276,29 284,40 276,51" stroke-linejoin="round" width="11" height="24" fill="rgb(77,77,182)" stroke="rgb(61,61,145)" stroke-width="1" opacity="0.75" />
			</g>
		</g>
		<g>
			<title>epsE
EpsE</title>
			<polygon class="epsE
EpsE" points="297,25 302,25 302,10 332,40 302,70 302,55 297,55" fill="rgb(255,255,255)" fill-opacity="1.0" stroke="rgb(0,0,0)" stroke-width="2"  />
			<g>
				<title>Poly_export (PF02563)
"Polysaccharide biosynthesis/export protein"</title>
				<rect class="PF02563" x="299" y="28" stroke-linejoin="round" width="7" height="24" fill="rgb(125,185,59)" stroke="rgb(100,148,47)" stroke-width="1" opacity="0.75" />
			</g>
			<g>
				<title>SLBB (PF10531)
"SLBB domain"</title>
				<rect class="PF10531" x="307" y="28" stroke-linejoin="round" width="5" height="24" fill="rgb(92,145,209)" stroke="rgb(73,116,167)" stroke-width="1" opacity="0.75" />
			</g>
			<g>
				<title>SLBB (PF10531)
"SLBB domain"</title>
				<polygon class="PF10531" points="316,29 321,34 321,46 316,51" stroke-linejoin="round" width="5" height="24" fill="rgb(92,145,209)" stroke="rgb(73,116,167)" stroke-width="1" opacity="0.75" />
			</g>
			<g>
				<title>SLBB (PF10531)
"SLBB domain"</title>
				<polygon class="PF10531" points="324,37 327,40 324,43" stroke-linejoin="round" width="5" height="24" fill="rgb(92,145,209)" stroke="rgb(73,116,167)" stroke-width="1" opacity="0.75" />
			</g>
		</g>
		<g>
			<title>epsF
EpsF</title>
			<polygon class="epsF
EpsF" points="333,25 349,25 349,10 379,40 349,70 349,55 333,55" fill="rgb(255,255,255)" fill-opacity="1.0" stroke="rgb(0,0,0)" stroke-width="2"  />
			<g>
				<title>GNVR (PF13807)
"G-rich domain on putative tyrosine kinase"</title>
				<polygon class="PF13807" points="367,32 375,40 375,40 367,48" stroke-linejoin="round" width="8" height="24" fill="rgb(77,110,190)" stroke="rgb(61,87,152)" stroke-width="1" opacity="0.75" />
			</g>
		</g>
		<g>
			<title>epsG
EpsG</title>
			<polygon class="epsG
EpsG" points="380,10 409,40 380,70" fill="rgb(255,255,255)" fill-opacity="1.0" stroke="rgb(0,0,0)" stroke-width="2"  />
		</g>
		<g>
			<title>epsH
EpsH</title>
			<polygon class="epsH
EpsH" points="411,25 411,25 411,10 441,40 411,70 411,55 411,55" fill="rgb(255,255,255)" fill-opacity="1.0" stroke="rgb(0,0,0)" stroke-width="2"  />
			<g>
				<title>Exosortase_EpsH (PF09721)
"Transmembrane exosortase (Exosortase_EpsH)"</title>
				<polygon class="PF09721" points="413,28 425,28 437,40 425,52 413,52" stroke-linejoin="round" width="25" height="24" fill="rgb(94,107,207)" stroke="rgb(75,85,165)" stroke-width="1" opacity="0.75" />
			</g>
		</g>
		<g>
			<title>epsI
EpsI</title>
			<polygon class="epsI
EpsI" points="442,10 465,40 442,70" fill="rgb(255,255,255)" fill-opacity="1.0" stroke="rgb(0,0,0)" stroke-width="2"  />
			<g>
				<title>DUF3485 (PF11984)
"Protein of unknown function (DUF3485)"</title>
				<polygon class="PF11984" points="443,28 452,28 461,40 452,52 443,52" stroke-linejoin="round" width="21" height="24" fill="rgb(77,215,143)" stroke="rgb(61,172,114)" stroke-width="1" opacity="0.75" />
			</g>
		</g>
		<g>
			<title>epsJ
EpsJ</title>
			<polygon class="epsJ
EpsJ" points="469,10 497,40 469,70" fill="rgb(255,255,255)" fill-opacity="1.0" stroke="rgb(0,0,0)" stroke-width="2"  />
			<g>
				<title>Glycos_transf_2 (PF00535)
"Glycosyl transferase family 2"</title>
				<rect class="PF00535" x="469" y="28" stroke-linejoin="round" width="10" height="24" fill="rgb(224,122,96)" stroke="rgb(179,97,76)" stroke-width="1" opacity="0.75" />
			</g>
		</g>
		<g>
			<title>epsM
EpsM</title>
			<polygon class="epsM
EpsM" points="499,25 515,25 515,10 545,40 515,70 515,55 499,55" fill="rgb(255,255,255)" fill-opacity="1.0" stroke="rgb(0,0,0)" stroke-width="2"  />
			<g>
				<title>Wzy_C (PF04932)
"O-Antigen ligase"</title>
				<polygon class="PF04932" points="522,28 529,28 536,35 536,45 529,52 522,52" stroke-linejoin="round" width="14" height="24" fill="rgb(106,219,107)" stroke="rgb(84,175,85)" stroke-width="1" opacity="0.75" />
			</g>
		</g>
		<g>
			<title>epsN
EpsN</title>
			<polygon class="epsN
EpsN" points="546,25 556,25 556,10 586,40 556,70 556,55 546,55" fill="rgb(255,255,255)" fill-opacity="1.0" stroke="rgb(0,0,0)" stroke-width="2"  />
			<g>
				<title>Glycos_transf_1 (PF00534)
"Glycosyl transferases group 1"</title>
				<polygon class="PF00534" points="566,28 570,28 582,40 570,52 566,52" stroke-linejoin="round" width="17" height="24" fill="rgb(228,92,150)" stroke="rgb(182,73,119)" stroke-width="1" opacity="0.75" />
			</g>
		</g>
		<g>
			<title>epsO
EpsO</title>
			<polygon class="epsO
EpsO" points="590,25 599,25 599,10 629,40 599,70 599,55 590,55" fill="rgb(255,255,255)" fill-opacity="1.0" stroke="rgb(0,0,0)" stroke-width="2"  />
			<g>
				<title>Glyco_tranf_2_3 (PF13641)
"Glycosyltransferase like family 2"</title>
				<polygon class="PF13641" points="594,28 613,28 616,31 616,49 613,52 594,52" stroke-linejoin="round" width="22" height="24" fill="rgb(140,74,190)" stroke="rgb(111,59,152)" stroke-width="1" opacity="0.75" />
			</g>
		</g>
		<g>
			<title>epsP
EpsP</title>
			<polygon class="epsP
EpsP" points="639,10 664,40 639,70" fill="rgb(255,255,255)" fill-opacity="1.0" stroke="rgb(0,0,0)" stroke-width="2"  />
			<g>
				<title>Glyco_tran_WecG (PF03808)
"Glycosyl transferase WecG/TagA/CpsF family"</title>
				<polygon class="PF03808" points="645,28 650,28 660,40 650,52 645,52" stroke-linejoin="round" width="17" height="24" fill="rgb(83,144,229)" stroke="rgb(66,115,183)" stroke-width="1" opacity="0.75" />
			</g>
		</g>
		<g>
			<title>epsQ
GDP-mannose pyrophosphorylase EpsQ</title>
			<polygon class="epsQ
GDP-mannose pyrophosphorylase EpsQ" points="667,25 684,25 684,10 714,40 684,70 684,55 667,55" fill="rgb(255,255,255)" fill-opacity="1.0" stroke="rgb(0,0,0)" stroke-width="2"  />
			<g>
				<title>NTP_transferase (PF00483)
"Nucleotidyl transferase"</title>
				<rect class="PF00483" x="667" y="28" stroke-linejoin="round" width="28" height="24" fill="rgb(198,101,87)" stroke="rgb(158,80,69)" stroke-width="1" opacity="0.75" />
			</g>
			<g>
				<title>MannoseP_isomer (PF01050)
"Mannose-6-phosphate isomerase"</title>
				<polygon class="PF01050" points="698,28 698,28 710,40 698,52 698,52" stroke-linejoin="round" width="15" height="24" fill="rgb(53,184,51)" stroke="rgb(42,147,40)" stroke-width="1" opacity="0.75" />
			</g>
		</g>
		<g>
			<title>epsR
EpsR</title>
			<polygon class="epsR
EpsR" points="718,25 719,25 719,10 749,40 719,70 719,55 718,55" fill="rgb(255,255,255)" fill-opacity="1.0" stroke="rgb(0,0,0)" stroke-width="2"  />
		</g>
		<g>
			<title>epsS
UDP-glucose 4-epimerase EpsS</title>
			<polygon class="epsS
UDP-glucose 4-epimerase EpsS" points="751,25 753,25 753,10 783,40 753,70 753,55 751,55" fill="rgb(255,255,255)" fill-opacity="1.0" stroke="rgb(0,0,0)" stroke-width="2"  />
			<g>
				<title>Epimerase (PF01370)
"NAD dependent epimerase/dehydratase family"</title>
				<polygon class="PF01370" points="751,28 767,28 775,36 775,44 767,52 751,52" stroke-linejoin="round" width="24" height="24" fill="rgb(98,102,214)" stroke="rgb(78,81,171)" stroke-width="1" opacity="0.75" />
			</g>
		</g>
		<g>
			<title>epsT
UDP-glucose pyrophosphorylase EpsT</title>
			<polygon class="epsT
UDP-glucose pyrophosphorylase EpsT" points="788,25 788,25 788,10 818,40 788,70 788,55 788,55" fill="rgb(255,255,255)" fill-opacity="1.0" stroke="rgb(0,0,0)" stroke-width="2"  />
			<g>
				<title>NTP_transferase (PF00483)
"Nucleotidyl transferase"</title>
				<polygon class="PF00483" points="788,28 801,28 813,40 801,52 788,52" stroke-linejoin="round" width="26" height="24" fill="rgb(198,101,87)" stroke="rgb(158,80,69)" stroke-width="1" opacity="0.75" />
			</g>
		</g>
		<g>
			<title>epsU
EpsU</title>
			<polygon class="epsU
EpsU" points="818,40 831,10 831,70" fill="rgb(255,255,255)" fill-opacity="1.0" stroke="rgb(0,0,0)" stroke-width="2"  />
			<g>
				<title>SLT (PF01464)
"Transglycosylase SLT domain"</title>
				<polygon class="PF01464" points="823,36 827,28 831,28 831,52 827,52 823,44" stroke-linejoin="round" width="8" height="24" fill="rgb(181,60,156)" stroke="rgb(144,47,124)" stroke-width="1" opacity="0.75" />
			</g>
		</g>
		<g>
			<title>ORF23
ORF23</title>
			<polygon class="ORF23
ORF23" points="844,25 900,25 900,10 930,40 900,70 900,55 844,55" fill="rgb(255,255,255)" fill-opacity="1.0" stroke="rgb(0,0,0)" stroke-width="2"  />
			<g>
				<title>MutS_I (PF01624)
"MutS domain I"</title>
				<rect class="PF01624" x="845" y="28" stroke-linejoin="round" width="11" height="24" fill="rgb(208,180,91)" stroke="rgb(166,144,72)" stroke-width="1" opacity="0.75" />
			</g>
			<g>
				<title>MutS_II (PF05188)
"MutS domain II"</title>
				<rect class="PF05188" x="857" y="28" stroke-linejoin="round" width="12" height="24" fill="rgb(191,184,60)" stroke="rgb(152,147,48)" stroke-width="1" opacity="0.75" />
			</g>
			<g>
				<title>MutS_III (PF05192)
"MutS domain III"</title>
				<rect class="PF05192" x="871" y="28" stroke-linejoin="round" width="28" height="24" fill="rgb(87,171,208)" stroke="rgb(69,136,166)" stroke-width="1" opacity="0.75" />
			</g>
			<g>
				<title>MutS_V (PF00488)
"MutS domain V"</title>
				<polygon class="PF00488" points="905,28 914,28 923,37 923,43 914,52 905,52" stroke-linejoin="round" width="18" height="24" fill="rgb(106,217,199)" stroke="rgb(84,173,159)" stroke-width="1" opacity="0.75" />
			</g>
		</g>
	</g>
</svg>
