<svg version="1.1" baseProfile="full" xmlns="http://www.w3.org/2000/svg" width="102.26666666666667" height="80">
	<g>
		<line x1="10" y1="40.0" x2="92.26666666666667" y2="40.0" style="stroke:rgb(70,70,70); stroke-width:3 "/>
		<g>
			<title>SCO5222
putative lyase</title>
			<polygon class="SCO5222
putative lyase" points="10,25 16,25 16,10 46,40 16,70 16,55 10,55" fill="rgb(255,255,255)" fill-opacity="1.0" stroke="rgb(0,0,0)" stroke-width="2"  />
			<g>
				<title>Terpene_syn_C_2 (PF19086)
"Terpene synthase family 2, C-terminal metal binding"</title>
				<polygon class="PF19086" points="19,28 29,28 38,37 38,43 29,52 19,52" stroke-linejoin="round" width="19" height="24" fill="rgb(55,207,154)" stroke="rgb(43,165,123)" stroke-width="1" opacity="0.75" />
			</g>
		</g>
		<g>
			<title>SCO5223
putative cytochrome P450</title>
			<polygon class="SCO5223
putative cytochrome P450" points="46,25 62,25 62,10 92,40 62,70 62,55 46,55" fill="rgb(255,255,255)" fill-opacity="1.0" stroke="rgb(0,0,0)" stroke-width="2"  />
			<g>
				<title>p450 (PF00067)
"Cytochrome P450"</title>
				<polygon class="PF00067" points="48,28 75,28 87,40 75,52 48,52" stroke-linejoin="round" width="42" height="24" fill="rgb(85,216,107)" stroke="rgb(68,172,85)" stroke-width="1" opacity="0.75" />
			</g>
		</g>
	</g>
</svg>
