<svg version="1.1" baseProfile="full" xmlns="http://www.w3.org/2000/svg" width="203.13333333333333" height="80">
	<g>
		<line x1="10" y1="40.0" x2="193.13333333333333" y2="40.0" style="stroke:rgb(70,70,70); stroke-width:3 "/>
		<g>
			<title>
P91</title>
			<polygon class="
P91" points="23,10 32,40 23,70" fill="rgb(255,255,255)" fill-opacity="1.0" stroke="rgb(0,0,0)" stroke-width="2"  />
		</g>
		<g>
			<title>
P293A</title>
			<polygon class="
P293A" points="33,40 62,10 62,70" fill="rgb(255,255,255)" fill-opacity="1.0" stroke="rgb(0,0,0)" stroke-width="2"  />
		</g>
		<g>
			<title>
P62</title>
			<polygon class="
P62" points="66,40 72,10 72,70" fill="rgb(255,255,255)" fill-opacity="1.0" stroke="rgb(0,0,0)" stroke-width="2"  />
		</g>
		<g>
			<title>
P85</title>
			<polygon class="
P85" points="72,40 80,10 80,70" fill="rgb(255,255,255)" fill-opacity="1.0" stroke="rgb(0,0,0)" stroke-width="2"  />
			<g>
				<title>Glutaredoxin (PF00462)
"Glutaredoxin"</title>
				<polygon class="PF00462" points="75,40 78,28 79,28 79,52 78,52" stroke-linejoin="round" width="5" height="24" fill="rgb(77,192,167)" stroke="rgb(61,153,133)" stroke-width="1" opacity="0.75" />
			</g>
		</g>
		<g>
			<title>
P293B</title>
			<polygon class="
P293B" points="85,40 114,10 114,70" fill="rgb(255,255,255)" fill-opacity="1.0" stroke="rgb(0,0,0)" stroke-width="2"  />
			<g>
				<title>Peptidase_S8 (PF00082)
"Subtilase family"</title>
				<polygon class="PF00082" points="89,40 101,28 112,28 112,52 101,52" stroke-linejoin="round" width="26" height="24" fill="rgb(193,159,94)" stroke="rgb(154,127,75)" stroke-width="1" opacity="0.75" />
			</g>
		</g>
		<g>
			<title>
P188</title>
			<polygon class="
P188" points="122,10 140,40 122,70" fill="rgb(255,255,255)" fill-opacity="1.0" stroke="rgb(0,0,0)" stroke-width="2"  />
			<g>
				<title>Sigma70_r4 (PF04545)
"Sigma-70, region 4"</title>
				<polygon class="PF04545" points="135,37 137,40 135,43" stroke-linejoin="round" width="4" height="24" fill="rgb(75,207,224)" stroke="rgb(60,165,179)" stroke-width="1" opacity="0.75" />
			</g>
		</g>
		<g>
			<title>
P73</title>
			<polygon class="
P73" points="142,10 149,40 142,70" fill="rgb(255,255,255)" fill-opacity="1.0" stroke="rgb(0,0,0)" stroke-width="2"  />
		</g>
		<g>
			<title>
P185</title>
			<polygon class="
P185" points="156,10 174,40 156,70" fill="rgb(255,255,255)" fill-opacity="1.0" stroke="rgb(0,0,0)" stroke-width="2"  />
			<g>
				<title>Amidase_3 (PF01520)
"N-acetylmuramoyl-L-alanine amidase"</title>
				<polygon class="PF01520" points="156,28 163,28 171,40 163,52 156,52" stroke-linejoin="round" width="17" height="24" fill="rgb(174,223,57)" stroke="rgb(139,178,45)" stroke-width="1" opacity="0.75" />
			</g>
		</g>
	</g>
</svg>
