<svg version="1.1" baseProfile="full" xmlns="http://www.w3.org/2000/svg" width="1211.3" height="80">
	<g>
		<line x1="10" y1="40.0" x2="1201.3" y2="40.0" style="stroke:rgb(70,70,70); stroke-width:3 "/>
		<g>
			<title>
hypothetical protein</title>
			<polygon class="
hypothetical protein" points="38,10 67,40 38,70" fill="rgb(255,255,255)" fill-opacity="1.0" stroke="rgb(0,0,0)" stroke-width="2"  />
			<g>
				<title>DHDPS (PF00701)
"Dihydrodipicolinate synthetase family"</title>
				<polygon class="PF00701" points="38,28 50,28 62,40 50,52 38,52" stroke-linejoin="round" width="28" height="24" fill="rgb(80,204,82)" stroke="rgb(64,163,65)" stroke-width="1" opacity="0.75" />
			</g>
		</g>
		<g>
			<title>hapA
putative L-prolyl-PCP dehydrogenase</title>
			<polygon class="hapA
putative L-prolyl-PCP dehydrogenase" points="80,25 88,25 88,10 118,40 88,70 88,55 80,55" fill="rgb(255,255,255)" fill-opacity="1.0" stroke="rgb(0,0,0)" stroke-width="2"  />
			<g>
				<title>Acyl-CoA_dh_N (PF02771)
"Acyl-CoA dehydrogenase, N-terminal domain"</title>
				<rect class="PF02771" x="80" y="28" stroke-linejoin="round" width="11" height="24" fill="rgb(105,135,218)" stroke="rgb(84,108,174)" stroke-width="1" opacity="0.75" />
			</g>
			<g>
				<title>Acyl-CoA_dh_M (PF02770)
"Acyl-CoA dehydrogenase, middle domain"</title>
				<rect class="PF02770" x="92" y="28" stroke-linejoin="round" width="9" height="24" fill="rgb(225,186,97)" stroke="rgb(180,148,77)" stroke-width="1" opacity="0.75" />
			</g>
			<g>
				<title>Acyl-CoA_dh_1 (PF00441)
"Acyl-CoA dehydrogenase, C-terminal domain"</title>
				<polygon class="PF00441" points="103,29 114,40 103,51" stroke-linejoin="round" width="14" height="24" fill="rgb(85,191,117)" stroke="rgb(68,152,93)" stroke-width="1" opacity="0.75" />
			</g>
		</g>
		<g>
			<title>
putative membrane protein</title>
			<polygon class="
putative membrane protein" points="126,10 139,40 126,70" fill="rgb(255,255,255)" fill-opacity="1.0" stroke="rgb(0,0,0)" stroke-width="2"  />
			<g>
				<title>DUF6041 (PF19507)
"Family of unknown function (DUF6041)"</title>
				<polygon class="PF19507" points="126,28 130,28 136,40 130,52 126,52" stroke-linejoin="round" width="13" height="24" fill="rgb(185,224,105)" stroke="rgb(147,179,84)" stroke-width="1" opacity="0.75" />
			</g>
		</g>
		<g>
			<title>hapB
H2MAP oxidase/dehydrogenase</title>
			<polygon class="hapB
H2MAP oxidase/dehydrogenase" points="143,25 169,25 169,10 199,40 169,70 169,55 143,55" fill="rgb(255,255,255)" fill-opacity="1.0" stroke="rgb(0,0,0)" stroke-width="2"  />
			<g>
				<title>Amino_oxidase (PF01593)
"Flavin containing amine oxidoreductase"</title>
				<polygon class="PF01593" points="148,28 183,28 195,40 183,52 148,52" stroke-linejoin="round" width="49" height="24" fill="rgb(184,74,52)" stroke="rgb(147,59,41)" stroke-width="1" opacity="0.75" />
			</g>
		</g>
		<g>
			<title>hapC
condensation enzyme</title>
			<polygon class="hapC
condensation enzyme" points="201,25 261,25 261,10 291,40 261,70 261,55 201,55" fill="rgb(255,255,255)" fill-opacity="1.0" stroke="rgb(0,0,0)" stroke-width="2"  />
			<g>
				<title>PPDK_N (PF01326)
"Pyruvate phosphate dikinase, AMP/ATP-binding domain"</title>
				<rect class="PF01326" x="202" y="28" stroke-linejoin="round" width="31" height="24" fill="rgb(112,180,78)" stroke="rgb(89,144,62)" stroke-width="1" opacity="0.75" />
			</g>
			<g>
				<title>PEP-utilizers (PF00391)
"PEP-utilising enzyme, mobile domain"</title>
				<polygon class="PF00391" points="283,36 287,40 283,44" stroke-linejoin="round" width="7" height="24" fill="rgb(206,59,219)" stroke="rgb(164,47,175)" stroke-width="1" opacity="0.75" />
			</g>
		</g>
		<g>
			<title>hapD
3-acetyloctanal synthase</title>
			<polygon class="hapD
3-acetyloctanal synthase" points="298,25 350,25 350,10 380,40 350,70 350,55 298,55" fill="rgb(255,255,255)" fill-opacity="1.0" stroke="rgb(0,0,0)" stroke-width="2"  />
		</g>
		<g>
			<title>hapE
putative 3-acetyloctanal aminotransferase</title>
			<polygon class="hapE
putative 3-acetyloctanal aminotransferase" points="382,25 436,25 436,10 466,40 436,70 436,55 382,55" fill="rgb(255,255,255)" fill-opacity="1.0" stroke="rgb(0,0,0)" stroke-width="2"  />
			<g>
				<title>Aminotran_3 (PF00202)
"Aminotransferase class-III"</title>
				<polygon class="PF00202" points="422,28 450,28 462,40 450,52 422,52" stroke-linejoin="round" width="43" height="24" fill="rgb(49,163,189)" stroke="rgb(39,130,151)" stroke-width="1" opacity="0.75" />
			</g>
		</g>
		<g>
			<title>hapF
HBC O-methyl transferase</title>
			<polygon class="hapF
HBC O-methyl transferase" points="468,25 472,25 472,10 502,40 472,70 472,55 468,55" fill="rgb(255,255,255)" fill-opacity="1.0" stroke="rgb(0,0,0)" stroke-width="2"  />
			<g>
				<title>Dimerisation2 (PF16864)
"Dimerisation domain"</title>
				<rect class="PF16864" x="468" y="28" stroke-linejoin="round" width="8" height="24" fill="rgb(84,199,85)" stroke="rgb(67,159,68)" stroke-width="1" opacity="0.75" />
			</g>
			<g>
				<title>Methyltransf_2 (PF00891)
"O-methyltransferase domain"</title>
				<polygon class="PF00891" points="478,28 485,28 497,40 485,52 478,52" stroke-linejoin="round" width="21" height="24" fill="rgb(50,51,190)" stroke="rgb(39,40,152)" stroke-width="1" opacity="0.75" />
			</g>
		</g>
		<g>
			<title>hapG
putative peptidyl carrier protein</title>
			<polygon class="hapG
putative peptidyl carrier protein" points="504,10 512,40 504,70" fill="rgb(255,255,255)" fill-opacity="1.0" stroke="rgb(0,0,0)" stroke-width="2"  />
		</g>
		<g>
			<title>hapH
putative HBM synthase/aminotransferase</title>
			<polygon class="hapH
putative HBM synthase/aminotransferase" points="513,25 556,25 556,10 586,40 556,70 556,55 513,55" fill="rgb(255,255,255)" fill-opacity="1.0" stroke="rgb(0,0,0)" stroke-width="2"  />
			<g>
				<title>PP-binding (PF00550)
"Phosphopantetheine attachment site"</title>
				<rect class="PF00550" x="514" y="28" stroke-linejoin="round" width="7" height="24" fill="rgb(103,191,88)" stroke="rgb(82,152,70)" stroke-width="1" opacity="0.75" />
			</g>
			<g>
				<title>Aminotran_1_2 (PF00155)
"Aminotransferase class I and II"</title>
				<polygon class="PF00155" points="551,28 570,28 582,40 570,52 551,52" stroke-linejoin="round" width="34" height="24" fill="rgb(89,113,198)" stroke="rgb(71,90,158)" stroke-width="1" opacity="0.75" />
			</g>
		</g>
		<g>
			<title>hapI
putative L-prolyl-AMP ligase</title>
			<polygon class="hapI
putative L-prolyl-AMP ligase" points="590,25 614,25 614,10 644,40 614,70 614,55 590,55" fill="rgb(255,255,255)" fill-opacity="1.0" stroke="rgb(0,0,0)" stroke-width="2"  />
			<g>
				<title>AMP-binding (PF00501)
"AMP-binding enzyme"</title>
				<polygon class="PF00501" points="591,28 627,28 632,33 632,47 627,52 591,52" stroke-linejoin="round" width="41" height="24" fill="rgb(60,217,223)" stroke="rgb(48,173,178)" stroke-width="1" opacity="0.75" />
			</g>
			<g>
				<title>AMP-binding_C (PF13193)
"AMP-binding enzyme C-terminal domain"</title>
				<polygon class="PF13193" points="634,35 639,40 634,45" stroke-linejoin="round" width="7" height="24" fill="rgb(182,50,118)" stroke="rgb(145,39,94)" stroke-width="1" opacity="0.75" />
			</g>
		</g>
		<g>
			<title>hapJ
putative pyrrolyl-deta-ketoacyl ACP synthase</title>
			<polygon class="hapJ
putative pyrrolyl-deta-ketoacyl ACP synthase" points="642,25 707,25 707,10 737,40 707,70 707,55 642,55" fill="rgb(255,255,255)" fill-opacity="1.0" stroke="rgb(0,0,0)" stroke-width="2"  />
			<g>
				<title>ketoacyl-synt (PF00109)
"Beta-ketoacyl synthase, N-terminal domain"</title>
				<rect class="PF00109" x="645" y="28" stroke-linejoin="round" width="27" height="24" fill="rgb(112,116,228)" stroke="rgb(89,92,182)" stroke-width="1" opacity="0.75" />
			</g>
			<g>
				<title>Ketoacyl-synt_C (PF02801)
"Beta-ketoacyl synthase, C-terminal domain"</title>
				<rect class="PF02801" x="673" y="28" stroke-linejoin="round" width="11" height="24" fill="rgb(215,78,102)" stroke="rgb(172,62,81)" stroke-width="1" opacity="0.75" />
			</g>
			<g>
				<title>ketoacyl-synt (PF00109)
"Beta-ketoacyl synthase, N-terminal domain"</title>
				<rect class="PF00109" x="691" y="28" stroke-linejoin="round" width="27" height="24" fill="rgb(112,116,228)" stroke="rgb(89,92,182)" stroke-width="1" opacity="0.75" />
			</g>
			<g>
				<title>Ketoacyl-synt_C (PF02801)
"Beta-ketoacyl synthase, C-terminal domain"</title>
				<polygon class="PF02801" points="719,28 721,28 730,37 730,43 721,52 719,52" stroke-linejoin="round" width="11" height="24" fill="rgb(215,78,102)" stroke="rgb(172,62,81)" stroke-width="1" opacity="0.75" />
			</g>
		</g>
		<g>
			<title>hapK
hypothetical protein</title>
			<polygon class="hapK
hypothetical protein" points="739,10 749,40 739,70" fill="rgb(255,255,255)" fill-opacity="1.0" stroke="rgb(0,0,0)" stroke-width="2"  />
			<g>
				<title>HapK (PF11639)
"REDY-like protein HapK"</title>
				<polygon class="PF11639" points="739,28 741,28 746,40 741,52 739,52" stroke-linejoin="round" width="10" height="24" fill="rgb(212,82,116)" stroke="rgb(169,65,92)" stroke-width="1" opacity="0.75" />
			</g>
		</g>
		<g>
			<title>hapL
putative 4'-phosphopantetheinyl transferase</title>
			<polygon class="hapL
putative 4'-phosphopantetheinyl transferase" points="749,10 775,40 749,70" fill="rgb(255,255,255)" fill-opacity="1.0" stroke="rgb(0,0,0)" stroke-width="2"  />
			<g>
				<title>4PPT_N (PF17837)
"4'-phosphopantetheinyl transferase N-terminal domain"</title>
				<polygon class="PF17837" points="755,28 760,28 763,31 763,49 760,52 755,52" stroke-linejoin="round" width="8" height="24" fill="rgb(198,68,92)" stroke="rgb(158,54,73)" stroke-width="1" opacity="0.75" />
			</g>
			<g>
				<title>ACPS (PF01648)
"4'-phosphopantetheinyl transferase superfamily"</title>
				<polygon class="PF01648" points="763,31 771,40 771,40 763,49" stroke-linejoin="round" width="8" height="24" fill="rgb(85,184,135)" stroke="rgb(68,147,108)" stroke-width="1" opacity="0.75" />
			</g>
		</g>
		<g>
			<title>hapM
HBM oxidase/dehydrogenase</title>
			<polygon class="hapM
HBM oxidase/dehydrogenase" points="777,25 784,25 784,10 814,40 784,70 784,55 777,55" fill="rgb(255,255,255)" fill-opacity="1.0" stroke="rgb(0,0,0)" stroke-width="2"  />
			<g>
				<title>Nitroreductase (PF00881)
"Nitroreductase family"</title>
				<rect class="PF00881" x="777" y="28" stroke-linejoin="round" width="7" height="24" fill="rgb(79,118,187)" stroke="rgb(63,94,149)" stroke-width="1" opacity="0.75" />
			</g>
		</g>
		<g>
			<title>hapN
putative oxidoreductase</title>
			<polygon class="hapN
putative oxidoreductase" points="818,10 842,40 818,70" fill="rgb(255,255,255)" fill-opacity="1.0" stroke="rgb(0,0,0)" stroke-width="2"  />
			<g>
				<title>DUF1295 (PF06966)
"Protein of unknown function (DUF1295)"</title>
				<polygon class="PF06966" points="819,28 829,28 838,40 829,52 819,52" stroke-linejoin="round" width="21" height="24" fill="rgb(84,216,56)" stroke="rgb(67,172,44)" stroke-width="1" opacity="0.75" />
			</g>
		</g>
		<g>
			<title>
hypothetical protein</title>
			<polygon class="
hypothetical protein" points="859,10 879,40 859,70" fill="rgb(255,255,255)" fill-opacity="1.0" stroke="rgb(0,0,0)" stroke-width="2"  />
			<g>
				<title>DUF5565 (PF17720)
"Family of unknown function (DUF5565)"</title>
				<polygon class="PF17720" points="871,33 875,40 871,47" stroke-linejoin="round" width="8" height="24" fill="rgb(206,64,131)" stroke="rgb(164,51,104)" stroke-width="1" opacity="0.75" />
			</g>
		</g>
		<g>
			<title>
hypothetical protein</title>
			<polygon class="
hypothetical protein" points="888,10 908,40 888,70" fill="rgb(255,255,255)" fill-opacity="1.0" stroke="rgb(0,0,0)" stroke-width="2"  />
			<g>
				<title>DUF2239 (PF09998)
"Uncharacterized protein conserved in bacteria (DUF2239)"</title>
				<polygon class="PF09998" points="888,28 896,28 904,40 896,52 888,52" stroke-linejoin="round" width="18" height="24" fill="rgb(221,109,58)" stroke="rgb(176,87,46)" stroke-width="1" opacity="0.75" />
			</g>
		</g>
		<g>
			<title>
hypothetical protein</title>
			<polygon class="
hypothetical protein" points="910,40 933,10 933,70" fill="rgb(255,255,255)" fill-opacity="1.0" stroke="rgb(0,0,0)" stroke-width="2"  />
		</g>
		<g>
			<title>
hypothetical protein</title>
			<polygon class="
hypothetical protein" points="993,25 970,25 970,10 940,40 970,70 970,55 993,55" fill="rgb(255,255,255)" fill-opacity="1.0" stroke="rgb(0,0,0)" stroke-width="2"  />
			<g>
				<title>HATPase_c (PF02518)
"Histidine kinase-, DNA gyrase B-, and HSP90-like ATPase"</title>
				<polygon class="PF02518" points="944,40 951,33 951,47" stroke-linejoin="round" width="11" height="24" fill="rgb(80,94,225)" stroke="rgb(64,75,180)" stroke-width="1" opacity="0.75" />
			</g>
			<g>
				<title>HisKA (PF00512)
"His Kinase A (phospho-acceptor) domain"</title>
				<polygon class="PF00512" points="956,28 956,28 962,28 962,52 956,52 956,52" stroke-linejoin="round" width="6" height="24" fill="rgb(193,125,62)" stroke="rgb(154,100,49)" stroke-width="1" opacity="0.75" />
			</g>
		</g>
		<g>
			<title>
hypothetical protein</title>
			<polygon class="
hypothetical protein" points="994,40 1019,10 1019,70" fill="rgb(255,255,255)" fill-opacity="1.0" stroke="rgb(0,0,0)" stroke-width="2"  />
			<g>
				<title>Trans_reg_C (PF00486)
"Transcriptional regulatory protein, C terminal"</title>
				<polygon class="PF00486" points="998,40 1002,35 1002,45" stroke-linejoin="round" width="7" height="24" fill="rgb(204,153,57)" stroke="rgb(163,122,45)" stroke-width="1" opacity="0.75" />
			</g>
			<g>
				<title>Response_reg (PF00072)
"Response regulator receiver domain"</title>
				<polygon class="PF00072" points="1007,29 1008,28 1017,28 1017,52 1008,52 1007,51" stroke-linejoin="round" width="10" height="24" fill="rgb(100,107,203)" stroke="rgb(80,85,162)" stroke-width="1" opacity="0.75" />
			</g>
		</g>
		<g>
			<title>
hypothetical protein</title>
			<polygon class="
hypothetical protein" points="1053,10 1070,40 1053,70" fill="rgb(255,255,255)" fill-opacity="1.0" stroke="rgb(0,0,0)" stroke-width="2"  />
			<g>
				<title>Collar (PF07484)
"Phage Tail Collar Domain"</title>
				<rect class="PF07484" x="1053" y="28" stroke-linejoin="round" width="5" height="24" fill="rgb(76,212,168)" stroke="rgb(60,169,134)" stroke-width="1" opacity="0.75" />
			</g>
		</g>
		<g>
			<title>
hypothetical protein</title>
			<polygon class="
hypothetical protein" points="1073,10 1091,40 1073,70" fill="rgb(255,255,255)" fill-opacity="1.0" stroke="rgb(0,0,0)" stroke-width="2"  />
			<g>
				<title>Collar (PF07484)
"Phage Tail Collar Domain"</title>
				<rect class="PF07484" x="1073" y="28" stroke-linejoin="round" width="5" height="24" fill="rgb(76,212,168)" stroke="rgb(60,169,134)" stroke-width="1" opacity="0.75" />
			</g>
		</g>
		<g>
			<title>
hypothetical protein</title>
			<polygon class="
hypothetical protein" points="1092,10 1109,40 1092,70" fill="rgb(255,255,255)" fill-opacity="1.0" stroke="rgb(0,0,0)" stroke-width="2"  />
			<g>
				<title>Collar (PF07484)
"Phage Tail Collar Domain"</title>
				<rect class="PF07484" x="1092" y="28" stroke-linejoin="round" width="5" height="24" fill="rgb(76,212,168)" stroke="rgb(60,169,134)" stroke-width="1" opacity="0.75" />
			</g>
		</g>
		<g>
			<title>
hypothetical protein</title>
			<polygon class="
hypothetical protein" points="1112,40 1122,10 1122,70" fill="rgb(255,255,255)" fill-opacity="1.0" stroke="rgb(0,0,0)" stroke-width="2"  />
		</g>
		<g>
			<title>orf15
hypothetical protein</title>
			<polygon class="orf15
hypothetical protein" points="1178,25 1178,25 1178,10 1148,40 1178,70 1178,55 1178,55" fill="rgb(255,255,255)" fill-opacity="1.0" stroke="rgb(0,0,0)" stroke-width="2"  />
		</g>
	</g>
</svg>
