<svg version="1.1" baseProfile="full" xmlns="http://www.w3.org/2000/svg" width="318.8666666666667" height="80">
	<g>
		<line x1="10" y1="40.0" x2="308.8666666666667" y2="40.0" style="stroke:rgb(70,70,70); stroke-width:3 "/>
		<g>
			<title>bcmG (CYQ11_26520)
2OG-Fe(II) oxygenase</title>
			<polygon class="bcmG (CYQ11_26520)
2OG-Fe(II) oxygenase" points="40,25 40,25 40,10 10,40 40,70 40,55 40,55" fill="rgb(255,255,255)" fill-opacity="1.0" stroke="rgb(0,0,0)" stroke-width="2"  />
			<g>
				<title>2OG-FeII_Oxy (PF03171)
"2OG-Fe(II) oxygenase superfamily"</title>
				<polygon class="PF03171" points="14,40 24,30 24,50 14,40" stroke-linejoin="round" width="10" height="24" fill="rgb(184,68,180)" stroke="rgb(147,54,144)" stroke-width="1" opacity="0.75" />
			</g>
		</g>
		<g>
			<title>bcmF (CYQ11_26525)
2OG-Fe(II) oxygenase</title>
			<polygon class="bcmF (CYQ11_26525)
2OG-Fe(II) oxygenase" points="39,40 68,10 68,70" fill="rgb(255,255,255)" fill-opacity="1.0" stroke="rgb(0,0,0)" stroke-width="2"  />
			<g>
				<title>2OG-FeII_Oxy (PF03171)
"2OG-Fe(II) oxygenase superfamily"</title>
				<polygon class="PF03171" points="43,40 53,30 53,50 43,40" stroke-linejoin="round" width="10" height="24" fill="rgb(184,68,180)" stroke="rgb(147,54,144)" stroke-width="1" opacity="0.75" />
			</g>
		</g>
		<g>
			<title>bcmE (CYQ11_26530)
2OG-Fe(II) oxygenase</title>
			<polygon class="bcmE (CYQ11_26530)
2OG-Fe(II) oxygenase" points="102,25 101,25 101,10 71,40 101,70 101,55 102,55" fill="rgb(255,255,255)" fill-opacity="1.0" stroke="rgb(0,0,0)" stroke-width="2"  />
			<g>
				<title>2OG-FeII_Oxy (PF03171)
"2OG-Fe(II) oxygenase superfamily"</title>
				<polygon class="PF03171" points="75,40 84,31 84,49" stroke-linejoin="round" width="10" height="24" fill="rgb(184,68,180)" stroke="rgb(147,54,144)" stroke-width="1" opacity="0.75" />
			</g>
		</g>
		<g>
			<title>bcmD (CYQ11_26535)
cytochrome P450</title>
			<polygon class="bcmD (CYQ11_26535)
cytochrome P450" points="150,25 132,25 132,10 102,40 132,70 132,55 150,55" fill="rgb(255,255,255)" fill-opacity="1.0" stroke="rgb(0,0,0)" stroke-width="2"  />
			<g>
				<title>p450 (PF00067)
"Cytochrome P450"</title>
				<polygon class="PF00067" points="106,40 118,28 124,28 124,52 118,52" stroke-linejoin="round" width="21" height="24" fill="rgb(85,216,107)" stroke="rgb(68,172,85)" stroke-width="1" opacity="0.75" />
			</g>
		</g>
		<g>
			<title>bcmC (CYQ11_26540)
2OG-Fe(II) oxygenase</title>
			<polygon class="bcmC (CYQ11_26540)
2OG-Fe(II) oxygenase" points="181,25 181,25 181,10 151,40 181,70 181,55 181,55" fill="rgb(255,255,255)" fill-opacity="1.0" stroke="rgb(0,0,0)" stroke-width="2"  />
			<g>
				<title>2OG-FeII_Oxy (PF03171)
"2OG-Fe(II) oxygenase superfamily"</title>
				<polygon class="PF03171" points="156,39 166,29 166,51 156,41" stroke-linejoin="round" width="10" height="24" fill="rgb(184,68,180)" stroke="rgb(147,54,144)" stroke-width="1" opacity="0.75" />
			</g>
		</g>
		<g>
			<title>bcmB (CYQ11_26545)
isopenicillin N synthase family oxygenase</title>
			<polygon class="bcmB (CYQ11_26545)
isopenicillin N synthase family oxygenase" points="213,25 211,25 211,10 181,40 211,70 211,55 213,55" fill="rgb(255,255,255)" fill-opacity="1.0" stroke="rgb(0,0,0)" stroke-width="2"  />
			<g>
				<title>2OG-FeII_Oxy (PF03171)
"2OG-Fe(II) oxygenase superfamily"</title>
				<polygon class="PF03171" points="186,39 195,30 195,50 186,41" stroke-linejoin="round" width="9" height="24" fill="rgb(184,68,180)" stroke="rgb(147,54,144)" stroke-width="1" opacity="0.75" />
			</g>
		</g>
		<g>
			<title>bcmA (CYQ11_26550)
tRNA-dependent cyclodipeptide synthase</title>
			<polygon class="bcmA (CYQ11_26550)
tRNA-dependent cyclodipeptide synthase" points="214,40 238,10 238,70" fill="rgb(255,255,255)" fill-opacity="1.0" stroke="rgb(0,0,0)" stroke-width="2"  />
			<g>
				<title>CDPS (PF16715)
"Cyclodipeptide synthase"</title>
				<polygon class="PF16715" points="218,40 228,28 235,28 235,52 228,52" stroke-linejoin="round" width="19" height="24" fill="rgb(66,210,97)" stroke="rgb(52,168,77)" stroke-width="1" opacity="0.75" />
			</g>
		</g>
		<g>
			<title>bcmT (CYQ11_26555)
MFS transporter</title>
			<polygon class="bcmT (CYQ11_26555)
MFS transporter" points="261,25 278,25 278,10 308,40 278,70 278,55 261,55" fill="rgb(255,255,255)" fill-opacity="1.0" stroke="rgb(0,0,0)" stroke-width="2"  />
			<g>
				<title>MFS_1 (PF07690)
"Major Facilitator Superfamily"</title>
				<polygon class="PF07690" points="262,28 292,28 300,36 300,44 292,52 262,52" stroke-linejoin="round" width="38" height="24" fill="rgb(193,224,74)" stroke="rgb(154,179,59)" stroke-width="1" opacity="0.75" />
			</g>
		</g>
	</g>
</svg>
