<svg version="1.1" baseProfile="full" xmlns="http://www.w3.org/2000/svg" width="178.3" height="80">
	<g>
		<line x1="10" y1="40.0" x2="168.3" y2="40.0" style="stroke:rgb(70,70,70); stroke-width:3 "/>
		<g>
			<title> (EAM_RS05030)
LysR family transcriptional regulator</title>
			<polygon class=" (EAM_RS05030)
LysR family transcriptional regulator" points="10,40 39,10 39,70" fill="rgb(255,255,255)" fill-opacity="1.0" stroke="rgb(0,0,0)" stroke-width="2"  />
			<g>
				<title>LysR_substrate (PF03466)
"LysR substrate binding domain"</title>
				<polygon class="PF03466" points="14,40 26,28 29,28 29,52 26,52" stroke-linejoin="round" width="19" height="24" fill="rgb(55,136,195)" stroke="rgb(44,108,156)" stroke-width="1" opacity="0.75" />
			</g>
			<g>
				<title>HTH_1 (PF00126)
"Bacterial regulatory helix-turn-helix protein, lysR family"</title>
				<rect class="PF00126" x="32" y="28" stroke-linejoin="round" width="5" height="24" fill="rgb(125,227,79)" stroke="rgb(99,181,63)" stroke-width="1" opacity="0.75" />
			</g>
		</g>
		<g>
			<title> (EAM_RS05035)
hypothetical protein</title>
			<polygon class=" (EAM_RS05035)
hypothetical protein" points="46,10 69,40 46,70" fill="rgb(255,255,255)" fill-opacity="1.0" stroke="rgb(0,0,0)" stroke-width="2"  />
		</g>
		<g>
			<title> (EAM_RS05040)
NUDIX domain-containing protein</title>
			<polygon class=" (EAM_RS05040)
NUDIX domain-containing protein" points="71,10 84,40 71,70" fill="rgb(255,255,255)" fill-opacity="1.0" stroke="rgb(0,0,0)" stroke-width="2"  />
			<g>
				<title>NUDIX (PF00293)
"NUDIX domain"</title>
				<polygon class="PF00293" points="71,28 75,28 81,40 75,52 71,52" stroke-linejoin="round" width="12" height="24" fill="rgb(92,56,187)" stroke="rgb(73,44,149)" stroke-width="1" opacity="0.75" />
			</g>
		</g>
		<g>
			<title> (EAM_RS05045)
DUF6024 family protein</title>
			<polygon class=" (EAM_RS05045)
DUF6024 family protein" points="84,10 113,40 84,70" fill="rgb(255,255,255)" fill-opacity="1.0" stroke="rgb(0,0,0)" stroke-width="2"  />
			<g>
				<title>DUF6024 (PF19488)
"Family of unknown function (DUF6024)"</title>
				<polygon class="PF19488" points="84,28 97,28 109,40 97,52 84,52" stroke-linejoin="round" width="28" height="24" fill="rgb(193,85,82)" stroke="rgb(154,68,65)" stroke-width="1" opacity="0.75" />
			</g>
		</g>
		<g>
			<title> (EAM_RS05050)
DMT family transporter</title>
			<polygon class=" (EAM_RS05050)
DMT family transporter" points="113,25 113,25 113,10 143,40 113,70 113,55 113,55" fill="rgb(255,255,255)" fill-opacity="1.0" stroke="rgb(0,0,0)" stroke-width="2"  />
			<g>
				<title>EamA (PF00892)
"EamA-like transporter family"</title>
				<rect class="PF00892" x="113" y="28" stroke-linejoin="round" width="13" height="24" fill="rgb(105,217,77)" stroke="rgb(84,173,61)" stroke-width="1" opacity="0.75" />
			</g>
		</g>
		<g>
			<title>adk (EAM_RS05055)
adenylate kinase</title>
			<polygon class="adk (EAM_RS05055)
adenylate kinase" points="146,10 167,40 146,70" fill="rgb(255,255,255)" fill-opacity="1.0" stroke="rgb(0,0,0)" stroke-width="2"  />
			<g>
				<title>ADK (PF00406)
"Adenylate kinase"</title>
				<polygon class="PF00406" points="146,28 155,28 163,40 155,52 146,52" stroke-linejoin="round" width="18" height="24" fill="rgb(200,63,145)" stroke="rgb(160,50,116)" stroke-width="1" opacity="0.75" />
			</g>
		</g>
	</g>
</svg>
