<svg version="1.1" baseProfile="full" xmlns="http://www.w3.org/2000/svg" width="2991.766666666667" height="80">
	<g>
		<line x1="10" y1="40.0" x2="2981.766666666667" y2="40.0" style="stroke:rgb(70,70,70); stroke-width:3 "/>
		<g>
			<title>
hypothetical protein</title>
			<polygon class="
hypothetical protein" points="10,40 14,10 14,70" fill="rgb(255,255,255)" fill-opacity="1.0" stroke="rgb(0,0,0)" stroke-width="2"  />
		</g>
		<g>
			<title>
hypothetical protein</title>
			<polygon class="
hypothetical protein" points="21,40 49,10 49,70" fill="rgb(255,255,255)" fill-opacity="1.0" stroke="rgb(0,0,0)" stroke-width="2"  />
			<g>
				<title>Abhydrolase_1 (PF00561)
"alpha/beta hydrolase fold"</title>
				<polygon class="PF00561" points="25,40 36,28 46,28 46,52 36,52" stroke-linejoin="round" width="24" height="24" fill="rgb(86,180,151)" stroke="rgb(68,144,120)" stroke-width="1" opacity="0.75" />
			</g>
		</g>
		<g>
			<title>
hypothetical protein</title>
			<polygon class="
hypothetical protein" points="69,40 96,10 96,70" fill="rgb(255,255,255)" fill-opacity="1.0" stroke="rgb(0,0,0)" stroke-width="2"  />
			<g>
				<title>MLTR_LBD (PF17765)
"MmyB-like transcription regulator ligand binding domain"</title>
				<polygon class="PF17765" points="73,40 84,28 85,28 85,52 84,52" stroke-linejoin="round" width="16" height="24" fill="rgb(190,109,59)" stroke="rgb(152,87,47)" stroke-width="1" opacity="0.75" />
			</g>
			<g>
				<title>HTH_31 (PF13560)
"Helix-turn-helix domain"</title>
				<rect class="PF13560" x="88" y="28" stroke-linejoin="round" width="8" height="24" fill="rgb(207,145,90)" stroke="rgb(165,116,72)" stroke-width="1" opacity="0.75" />
			</g>
		</g>
		<g>
			<title>
hypothetical protein</title>
			<polygon class="
hypothetical protein" points="148,25 147,25 147,10 117,40 147,70 147,55 148,55" fill="rgb(255,255,255)" fill-opacity="1.0" stroke="rgb(0,0,0)" stroke-width="2"  />
			<g>
				<title>YceG (PF02618)
"YceG-like family"</title>
				<polygon class="PF02618" points="121,40 133,28 142,28 142,52 133,52" stroke-linejoin="round" width="25" height="24" fill="rgb(187,101,52)" stroke="rgb(149,80,41)" stroke-width="1" opacity="0.75" />
			</g>
		</g>
		<g>
			<title>
hypothetical protein</title>
			<polygon class="
hypothetical protein" points="149,40 166,10 166,70" fill="rgb(255,255,255)" fill-opacity="1.0" stroke="rgb(0,0,0)" stroke-width="2"  />
			<g>
				<title>Sigma70_r4_2 (PF08281)
"Sigma-70, region 4"</title>
				<polygon class="PF08281" points="152,40 155,35 155,45" stroke-linejoin="round" width="5" height="24" fill="rgb(222,103,144)" stroke="rgb(177,82,115)" stroke-width="1" opacity="0.75" />
			</g>
			<g>
				<title>Sigma70_r2 (PF04542)
"Sigma-70 region 2"</title>
				<polygon class="PF04542" points="158,29 159,28 164,28 164,52 159,52 158,51" stroke-linejoin="round" width="6" height="24" fill="rgb(184,59,197)" stroke="rgb(147,47,157)" stroke-width="1" opacity="0.75" />
			</g>
		</g>
		<g>
			<title>
hypothetical protein</title>
			<polygon class="
hypothetical protein" points="171,25 186,25 186,10 216,40 186,70 186,55 171,55" fill="rgb(255,255,255)" fill-opacity="1.0" stroke="rgb(0,0,0)" stroke-width="2"  />
			<g>
				<title>Pup_ligase (PF03136)
"Pup-ligase protein"</title>
				<polygon class="PF03136" points="171,28 200,28 212,40 212,40 200,52 171,52" stroke-linejoin="round" width="41" height="24" fill="rgb(163,91,197)" stroke="rgb(130,72,157)" stroke-width="1" opacity="0.75" />
			</g>
		</g>
		<g>
			<title>dbv1
putative hydroxymandelate oxidase</title>
			<polygon class="dbv1
putative hydroxymandelate oxidase" points="254,25 248,25 248,10 218,40 248,70 248,55 254,55" fill="rgb(255,255,255)" fill-opacity="1.0" stroke="rgb(0,0,0)" stroke-width="2"  />
			<g>
				<title>FMN_dh (PF01070)
"FMN-dependent dehydrogenase"</title>
				<polygon class="PF01070" points="222,40 234,28 253,28 253,52 234,52" stroke-linejoin="round" width="34" height="24" fill="rgb(59,82,204)" stroke="rgb(47,65,163)" stroke-width="1" opacity="0.75" />
			</g>
		</g>
		<g>
			<title>dbv2
putative hydroxymandelate synthase</title>
			<polygon class="dbv2
putative hydroxymandelate synthase" points="293,25 288,25 288,10 258,40 288,70 288,55 293,55" fill="rgb(255,255,255)" fill-opacity="1.0" stroke="rgb(0,0,0)" stroke-width="2"  />
			<g>
				<title>Glyoxalase (PF00903)
"Glyoxalase/Bleomycin resistance protein/Dioxygenase superfamily"</title>
				<polygon class="PF00903" points="262,40 274,28 276,28 276,52 274,52 262,40" stroke-linejoin="round" width="14" height="24" fill="rgb(50,162,189)" stroke="rgb(40,129,151)" stroke-width="1" opacity="0.75" />
			</g>
			<g>
				<title>Glyoxalase_5 (PF14696)
"Hydroxyphenylpyruvate dioxygenase, HPPD, N-terminal"</title>
				<rect class="PF14696" x="279" y="28" stroke-linejoin="round" width="13" height="24" fill="rgb(50,199,116)" stroke="rgb(40,159,92)" stroke-width="1" opacity="0.75" />
			</g>
		</g>
		<g>
			<title>dbv3
putative regulator LuxR family</title>
			<polygon class="dbv3
putative regulator LuxR family" points="387,25 331,25 331,10 301,40 331,70 331,55 387,55" fill="rgb(255,255,255)" fill-opacity="1.0" stroke="rgb(0,0,0)" stroke-width="2"  />
			<g>
				<title>GerE (PF00196)
"Bacterial regulatory proteins, luxR family"</title>
				<polygon class="PF00196" points="305,40 308,37 308,43" stroke-linejoin="round" width="5" height="24" fill="rgb(219,94,82)" stroke="rgb(175,75,65)" stroke-width="1" opacity="0.75" />
			</g>
			<g>
				<title>AAA_16 (PF13191)
"AAA ATPase domain"</title>
				<rect class="PF13191" x="373" y="28" stroke-linejoin="round" width="14" height="24" fill="rgb(186,102,77)" stroke="rgb(148,81,61)" stroke-width="1" opacity="0.75" />
			</g>
		</g>
		<g>
			<title>dbv4
putative regulator StrR family</title>
			<polygon class="dbv4
putative regulator StrR family" points="424,25 422,25 422,10 392,40 422,70 422,55 424,55" fill="rgb(255,255,255)" fill-opacity="1.0" stroke="rgb(0,0,0)" stroke-width="2"  />
			<g>
				<title>ParBc (PF02195)
"ParB/Sulfiredoxin domain"</title>
				<rect class="PF02195" x="414" y="28" stroke-linejoin="round" width="8" height="24" fill="rgb(55,214,209)" stroke="rgb(44,171,167)" stroke-width="1" opacity="0.75" />
			</g>
		</g>
		<g>
			<title>dbv5
putative prephenate dehydrogenase</title>
			<polygon class="dbv5
putative prephenate dehydrogenase" points="456,25 463,25 463,10 493,40 463,70 463,55 456,55" fill="rgb(255,255,255)" fill-opacity="1.0" stroke="rgb(0,0,0)" stroke-width="2"  />
			<g>
				<title>PDH_N (PF02153)
"Prephenate dehydrogenase, nucleotide-binding domain"</title>
				<rect class="PF02153" x="457" y="28" stroke-linejoin="round" width="14" height="24" fill="rgb(90,185,212)" stroke="rgb(72,148,169)" stroke-width="1" opacity="0.75" />
			</g>
			<g>
				<title>PDH_C (PF20463)
"Prephenate dehydrogenase, dimerization domain"</title>
				<polygon class="PF20463" points="472,28 476,28 481,33 481,47 476,52 472,52" stroke-linejoin="round" width="9" height="24" fill="rgb(99,50,183)" stroke="rgb(79,39,146)" stroke-width="1" opacity="0.75" />
			</g>
		</g>
		<g>
			<title>dbv6
putative response regulator</title>
			<polygon class="dbv6
putative response regulator" points="494,10 515,40 494,70" fill="rgb(255,255,255)" fill-opacity="1.0" stroke="rgb(0,0,0)" stroke-width="2"  />
			<g>
				<title>Response_reg (PF00072)
"Response regulator receiver domain"</title>
				<polygon class="PF00072" points="494,28 503,28 505,31 505,49 503,52 494,52" stroke-linejoin="round" width="11" height="24" fill="rgb(100,107,203)" stroke="rgb(80,85,162)" stroke-width="1" opacity="0.75" />
			</g>
			<g>
				<title>Trans_reg_C (PF00486)
"Transcriptional regulatory protein, C terminal"</title>
				<polygon class="PF00486" points="508,35 512,40 508,45" stroke-linejoin="round" width="7" height="24" fill="rgb(204,153,57)" stroke="rgb(163,122,45)" stroke-width="1" opacity="0.75" />
			</g>
		</g>
		<g>
			<title>dbv7
putative VanY-type carboxypeptidase</title>
			<polygon class="dbv7
putative VanY-type carboxypeptidase" points="519,10 538,40 519,70" fill="rgb(255,255,255)" fill-opacity="1.0" stroke="rgb(0,0,0)" stroke-width="2"  />
			<g>
				<title>VanY (PF02557)
"D-alanyl-D-alanine carboxypeptidase"</title>
				<polygon class="PF02557" points="525,28 527,28 535,40 535,40 527,52 525,52" stroke-linejoin="round" width="10" height="24" fill="rgb(210,83,131)" stroke="rgb(168,66,104)" stroke-width="1" opacity="0.75" />
			</g>
		</g>
		<g>
			<title>dbv8
Dbv8 protein</title>
			<polygon class="dbv8
Dbv8 protein" points="572,25 570,25 570,10 540,40 570,70 570,55 572,55" fill="rgb(255,255,255)" fill-opacity="1.0" stroke="rgb(0,0,0)" stroke-width="2"  />
			<g>
				<title>GNAT_C (PF18164)
"GNAT-like C-terminal domain"</title>
				<polygon class="PF18164" points="544,40 554,30 554,50" stroke-linejoin="round" width="14" height="24" fill="rgb(93,113,215)" stroke="rgb(74,90,172)" stroke-width="1" opacity="0.75" />
			</g>
			<g>
				<title>NAT_N (PF18082)
"N-acyltransferase N-terminal domain"</title>
				<polygon class="PF18082" points="554,30 556,28 567,28 567,52 556,52 554,50" stroke-linejoin="round" width="13" height="24" fill="rgb(96,202,155)" stroke="rgb(76,161,124)" stroke-width="1" opacity="0.75" />
			</g>
		</g>
		<g>
			<title>dbv9
glycosyltransferase</title>
			<polygon class="dbv9
glycosyltransferase" points="612,25 602,25 602,10 572,40 602,70 602,55 612,55" fill="rgb(255,255,255)" fill-opacity="1.0" stroke="rgb(0,0,0)" stroke-width="2"  />
			<g>
				<title>Glyco_transf_28 (PF03033)
"Glycosyltransferase family 28 N-terminal domain"</title>
				<rect class="PF03033" x="599" y="28" stroke-linejoin="round" width="13" height="24" fill="rgb(157,218,79)" stroke="rgb(125,174,63)" stroke-width="1" opacity="0.75" />
			</g>
		</g>
		<g>
			<title>dbv10
halogenase</title>
			<polygon class="dbv10
halogenase" points="664,25 645,25 645,10 615,40 645,70 645,55 664,55" fill="rgb(255,255,255)" fill-opacity="1.0" stroke="rgb(0,0,0)" stroke-width="2"  />
			<g>
				<title>Trp_halogenase (PF04820)
"Tryptophan halogenase"</title>
				<polygon class="PF04820" points="621,38 631,28 654,28 654,52 631,52 621,42" stroke-linejoin="round" width="33" height="24" fill="rgb(179,74,194)" stroke="rgb(143,59,155)" stroke-width="1" opacity="0.75" />
			</g>
			<g>
				<title>Trp_halogenase (PF04820)
"Tryptophan halogenase"</title>
				<rect class="PF04820" x="654" y="28" stroke-linejoin="round" width="9" height="24" fill="rgb(179,74,194)" stroke="rgb(143,59,155)" stroke-width="1" opacity="0.75" />
			</g>
		</g>
		<g>
			<title>dbv11
putative oxygenase OxyC</title>
			<polygon class="dbv11
putative oxygenase OxyC" points="708,25 696,25 696,10 666,40 696,70 696,55 708,55" fill="rgb(255,255,255)" fill-opacity="1.0" stroke="rgb(0,0,0)" stroke-width="2"  />
			<g>
				<title>p450 (PF00067)
"Cytochrome P450"</title>
				<polygon class="PF00067" points="670,40 678,32 678,48" stroke-linejoin="round" width="10" height="24" fill="rgb(85,216,107)" stroke="rgb(68,172,85)" stroke-width="1" opacity="0.75" />
			</g>
		</g>
		<g>
			<title>dbv12
putative OxyB monooxigenase</title>
			<polygon class="dbv12
putative OxyB monooxigenase" points="749,25 740,25 740,10 710,40 740,70 740,55 749,55" fill="rgb(255,255,255)" fill-opacity="1.0" stroke="rgb(0,0,0)" stroke-width="2"  />
			<g>
				<title>p450 (PF00067)
"Cytochrome P450"</title>
				<polygon class="PF00067" points="714,40 726,28 733,28 733,52 726,52" stroke-linejoin="round" width="23" height="24" fill="rgb(85,216,107)" stroke="rgb(68,172,85)" stroke-width="1" opacity="0.75" />
			</g>
		</g>
		<g>
			<title>dbv13
putative monooxygenase</title>
			<polygon class="dbv13
putative monooxygenase" points="788,25 780,25 780,10 750,40 780,70 780,55 788,55" fill="rgb(255,255,255)" fill-opacity="1.0" stroke="rgb(0,0,0)" stroke-width="2"  />
			<g>
				<title>p450 (PF00067)
"Cytochrome P450"</title>
				<polygon class="PF00067" points="754,40 766,28 768,28 768,52 766,52" stroke-linejoin="round" width="16" height="24" fill="rgb(85,216,107)" stroke="rgb(68,172,85)" stroke-width="1" opacity="0.75" />
			</g>
		</g>
		<g>
			<title>dbv14
putative OxyA monooxygenase</title>
			<polygon class="dbv14
putative OxyA monooxygenase" points="828,25 819,25 819,10 789,40 819,70 819,55 828,55" fill="rgb(255,255,255)" fill-opacity="1.0" stroke="rgb(0,0,0)" stroke-width="2"  />
			<g>
				<title>p450 (PF00067)
"Cytochrome P450"</title>
				<polygon class="PF00067" points="793,40 805,28 812,28 812,52 805,52" stroke-linejoin="round" width="22" height="24" fill="rgb(85,216,107)" stroke="rgb(68,172,85)" stroke-width="1" opacity="0.75" />
			</g>
		</g>
		<g>
			<title>dbv15
Dbv15 protein</title>
			<polygon class="dbv15
Dbv15 protein" points="832,40 839,10 839,70" fill="rgb(255,255,255)" fill-opacity="1.0" stroke="rgb(0,0,0)" stroke-width="2"  />
			<g>
				<title>MbtH (PF03621)
"MbtH-like protein"</title>
				<polygon class="PF03621" points="835,40 838,28 838,28 838,52 838,52" stroke-linejoin="round" width="5" height="24" fill="rgb(212,165,97)" stroke="rgb(169,132,77)" stroke-width="1" opacity="0.75" />
			</g>
		</g>
		<g>
			<title>dbv16
putative non-ribosomal peptide synthetase, module 7</title>
			<polygon class="dbv16
putative non-ribosomal peptide synthetase, module 7" points="1024,25 868,25 868,10 838,40 868,70 868,55 1024,55" fill="rgb(255,255,255)" fill-opacity="1.0" stroke="rgb(0,0,0)" stroke-width="2"  />
			<g>
				<title>Thioesterase (PF00975)
"Thioesterase domain"</title>
				<polygon class="PF00975" points="842,40 854,28 861,28 861,52 854,52" stroke-linejoin="round" width="22" height="24" fill="rgb(207,80,138)" stroke="rgb(165,63,110)" stroke-width="1" opacity="0.75" />
			</g>
			<g>
				<title>Condensation (PF00668)
"Condensation domain"</title>
				<rect class="PF00668" x="873" y="28" stroke-linejoin="round" width="44" height="24" fill="rgb(224,184,98)" stroke="rgb(179,147,78)" stroke-width="1" opacity="0.75" />
			</g>
			<g>
				<title>PP-binding (PF00550)
"Phosphopantetheine attachment site"</title>
				<rect class="PF00550" x="920" y="28" stroke-linejoin="round" width="6" height="24" fill="rgb(103,191,88)" stroke="rgb(82,152,70)" stroke-width="1" opacity="0.75" />
			</g>
			<g>
				<title>AMP-binding_C (PF13193)
"AMP-binding enzyme C-terminal domain"</title>
				<rect class="PF13193" x="929" y="28" stroke-linejoin="round" width="7" height="24" fill="rgb(182,50,118)" stroke="rgb(145,39,94)" stroke-width="1" opacity="0.75" />
			</g>
			<g>
				<title>AMP-binding (PF00501)
"AMP-binding enzyme"</title>
				<rect class="PF00501" x="937" y="28" stroke-linejoin="round" width="39" height="24" fill="rgb(60,217,223)" stroke="rgb(48,173,178)" stroke-width="1" opacity="0.75" />
			</g>
			<g>
				<title>Condensation (PF00668)
"Condensation domain"</title>
				<rect class="PF00668" x="979" y="28" stroke-linejoin="round" width="43" height="24" fill="rgb(224,184,98)" stroke="rgb(179,147,78)" stroke-width="1" opacity="0.75" />
			</g>
		</g>
		<g>
			<title>dbv17
putative non-ribosomal peptide synthetase, modules 4-6</title>
			<polygon class="dbv17
putative non-ribosomal peptide synthetase, modules 4-6" points="1433,25 1055,25 1055,10 1025,40 1055,70 1055,55 1433,55" fill="rgb(255,255,255)" fill-opacity="1.0" stroke="rgb(0,0,0)" stroke-width="2"  />
			<g>
				<title>PP-binding (PF00550)
"Phosphopantetheine attachment site"</title>
				<polygon class="PF00550" points="1029,40 1034,35 1034,45" stroke-linejoin="round" width="6" height="24" fill="rgb(103,191,88)" stroke="rgb(82,152,70)" stroke-width="1" opacity="0.75" />
			</g>
			<g>
				<title>AMP-binding_C (PF13193)
"AMP-binding enzyme C-terminal domain"</title>
				<polygon class="PF13193" points="1037,32 1041,28 1045,28 1045,52 1041,52 1037,48" stroke-linejoin="round" width="8" height="24" fill="rgb(182,50,118)" stroke="rgb(145,39,94)" stroke-width="1" opacity="0.75" />
			</g>
			<g>
				<title>AMP-binding (PF00501)
"AMP-binding enzyme"</title>
				<rect class="PF00501" x="1047" y="28" stroke-linejoin="round" width="39" height="24" fill="rgb(60,217,223)" stroke="rgb(48,173,178)" stroke-width="1" opacity="0.75" />
			</g>
			<g>
				<title>Condensation (PF00668)
"Condensation domain"</title>
				<rect class="PF00668" x="1088" y="28" stroke-linejoin="round" width="43" height="24" fill="rgb(224,184,98)" stroke="rgb(179,147,78)" stroke-width="1" opacity="0.75" />
			</g>
			<g>
				<title>Condensation (PF00668)
"Condensation domain"</title>
				<rect class="PF00668" x="1134" y="28" stroke-linejoin="round" width="42" height="24" fill="rgb(224,184,98)" stroke="rgb(179,147,78)" stroke-width="1" opacity="0.75" />
			</g>
			<g>
				<title>PP-binding (PF00550)
"Phosphopantetheine attachment site"</title>
				<rect class="PF00550" x="1181" y="28" stroke-linejoin="round" width="6" height="24" fill="rgb(103,191,88)" stroke="rgb(82,152,70)" stroke-width="1" opacity="0.75" />
			</g>
			<g>
				<title>AMP-binding_C (PF13193)
"AMP-binding enzyme C-terminal domain"</title>
				<rect class="PF13193" x="1190" y="28" stroke-linejoin="round" width="7" height="24" fill="rgb(182,50,118)" stroke="rgb(145,39,94)" stroke-width="1" opacity="0.75" />
			</g>
			<g>
				<title>AMP-binding (PF00501)
"AMP-binding enzyme"</title>
				<rect class="PF00501" x="1198" y="28" stroke-linejoin="round" width="39" height="24" fill="rgb(60,217,223)" stroke="rgb(48,173,178)" stroke-width="1" opacity="0.75" />
			</g>
			<g>
				<title>Condensation (PF00668)
"Condensation domain"</title>
				<rect class="PF00668" x="1240" y="28" stroke-linejoin="round" width="43" height="24" fill="rgb(224,184,98)" stroke="rgb(179,147,78)" stroke-width="1" opacity="0.75" />
			</g>
			<g>
				<title>Condensation (PF00668)
"Condensation domain"</title>
				<rect class="PF00668" x="1285" y="28" stroke-linejoin="round" width="42" height="24" fill="rgb(224,184,98)" stroke="rgb(179,147,78)" stroke-width="1" opacity="0.75" />
			</g>
			<g>
				<title>PP-binding (PF00550)
"Phosphopantetheine attachment site"</title>
				<rect class="PF00550" x="1331" y="28" stroke-linejoin="round" width="6" height="24" fill="rgb(103,191,88)" stroke="rgb(82,152,70)" stroke-width="1" opacity="0.75" />
			</g>
			<g>
				<title>AMP-binding_C (PF13193)
"AMP-binding enzyme C-terminal domain"</title>
				<rect class="PF13193" x="1340" y="28" stroke-linejoin="round" width="7" height="24" fill="rgb(182,50,118)" stroke="rgb(145,39,94)" stroke-width="1" opacity="0.75" />
			</g>
			<g>
				<title>AMP-binding (PF00501)
"AMP-binding enzyme"</title>
				<rect class="PF00501" x="1347" y="28" stroke-linejoin="round" width="39" height="24" fill="rgb(60,217,223)" stroke="rgb(48,173,178)" stroke-width="1" opacity="0.75" />
			</g>
			<g>
				<title>Condensation (PF00668)
"Condensation domain"</title>
				<rect class="PF00668" x="1389" y="28" stroke-linejoin="round" width="43" height="24" fill="rgb(224,184,98)" stroke="rgb(179,147,78)" stroke-width="1" opacity="0.75" />
			</g>
		</g>
		<g>
			<title>dbv18
putative ABC transporter, Dbv18</title>
			<polygon class="dbv18
putative ABC transporter, Dbv18" points="1517,25 1472,25 1472,10 1442,40 1472,70 1472,55 1517,55" fill="rgb(255,255,255)" fill-opacity="1.0" stroke="rgb(0,0,0)" stroke-width="2"  />
			<g>
				<title>FtsX (PF02687)
"FtsX-like permease family"</title>
				<polygon class="PF02687" points="1446,40 1454,32 1454,48" stroke-linejoin="round" width="12" height="24" fill="rgb(126,55,214)" stroke="rgb(100,44,171)" stroke-width="1" opacity="0.75" />
			</g>
			<g>
				<title>FtsX (PF02687)
"FtsX-like permease family"</title>
				<rect class="PF02687" x="1486" y="28" stroke-linejoin="round" width="12" height="24" fill="rgb(126,55,214)" stroke="rgb(100,44,171)" stroke-width="1" opacity="0.75" />
			</g>
		</g>
		<g>
			<title>dbv19
putative ABC transporter, Dbv19</title>
			<polygon class="dbv19
putative ABC transporter, Dbv19" points="1521,40 1544,10 1544,70" fill="rgb(255,255,255)" fill-opacity="1.0" stroke="rgb(0,0,0)" stroke-width="2"  />
			<g>
				<title>ABC_tran (PF00005)
"ABC transporter"</title>
				<polygon class="PF00005" points="1526,39 1534,28 1541,28 1541,52 1534,52 1526,41" stroke-linejoin="round" width="15" height="24" fill="rgb(129,201,63)" stroke="rgb(103,160,50)" stroke-width="1" opacity="0.75" />
			</g>
		</g>
		<g>
			<title>dbv20
putative mannosyltransferase</title>
			<polygon class="dbv20
putative mannosyltransferase" points="1607,25 1584,25 1584,10 1554,40 1584,70 1584,55 1607,55" fill="rgb(255,255,255)" fill-opacity="1.0" stroke="rgb(0,0,0)" stroke-width="2"  />
			<g>
				<title>PMT_2 (PF13231)
"Dolichyl-phosphate-mannose-protein mannosyltransferase"</title>
				<rect class="PF13231" x="1582" y="28" stroke-linejoin="round" width="15" height="24" fill="rgb(149,96,194)" stroke="rgb(119,76,155)" stroke-width="1" opacity="0.75" />
			</g>
		</g>
		<g>
			<title>dbv21
Dbv21 protein</title>
			<polygon class="dbv21
Dbv21 protein" points="1609,40 1636,10 1636,70" fill="rgb(255,255,255)" fill-opacity="1.0" stroke="rgb(0,0,0)" stroke-width="2"  />
			<g>
				<title>PIG-L (PF02585)
"GlcNAc-PI de-N-acetylase"</title>
				<polygon class="PF02585" points="1618,34 1624,28 1634,28 1634,52 1624,52 1618,46" stroke-linejoin="round" width="16" height="24" fill="rgb(97,215,95)" stroke="rgb(77,172,76)" stroke-width="1" opacity="0.75" />
			</g>
		</g>
		<g>
			<title>dbv22
putative sensory kinase</title>
			<polygon class="dbv22
putative sensory kinase" points="1687,25 1675,25 1675,10 1645,40 1675,70 1675,55 1687,55" fill="rgb(255,255,255)" fill-opacity="1.0" stroke="rgb(0,0,0)" stroke-width="2"  />
			<g>
				<title>HATPase_c (PF02518)
"Histidine kinase-, DNA gyrase B-, and HSP90-like ATPase"</title>
				<polygon class="PF02518" points="1649,40 1657,32 1657,48" stroke-linejoin="round" width="11" height="24" fill="rgb(80,94,225)" stroke="rgb(64,75,180)" stroke-width="1" opacity="0.75" />
			</g>
			<g>
				<title>HisKA (PF00512)
"His Kinase A (phospho-acceptor) domain"</title>
				<rect class="PF00512" x="1665" y="28" stroke-linejoin="round" width="6" height="24" fill="rgb(193,125,62)" stroke="rgb(154,100,49)" stroke-width="1" opacity="0.75" />
			</g>
			<g>
				<title>HAMP (PF00672)
"HAMP domain"</title>
				<rect class="PF00672" x="1672" y="28" stroke-linejoin="round" width="5" height="24" fill="rgb(124,89,195)" stroke="rgb(99,71,156)" stroke-width="1" opacity="0.75" />
			</g>
		</g>
		<g>
			<title>dbv23
putative acyltransferase</title>
			<polygon class="dbv23
putative acyltransferase" points="1761,25 1720,25 1720,10 1690,40 1720,70 1720,55 1761,55" fill="rgb(255,255,255)" fill-opacity="1.0" stroke="rgb(0,0,0)" stroke-width="2"  />
			<g>
				<title>SGNH (PF19040)
"SGNH domain (fused to AT3 domains)"</title>
				<polygon class="PF19040" points="1694,40 1706,28 1713,28 1713,52 1706,52" stroke-linejoin="round" width="23" height="24" fill="rgb(201,69,112)" stroke="rgb(160,55,89)" stroke-width="1" opacity="0.75" />
			</g>
			<g>
				<title>Acyl_transf_3 (PF01757)
"Acyltransferase family"</title>
				<rect class="PF01757" x="1723" y="28" stroke-linejoin="round" width="34" height="24" fill="rgb(50,152,200)" stroke="rgb(40,121,160)" stroke-width="1" opacity="0.75" />
			</g>
		</g>
		<g>
			<title>dbv24
putative ABC transporter, Dbv24</title>
			<polygon class="dbv24
putative ABC transporter, Dbv24" points="1771,25 1805,25 1805,10 1835,40 1805,70 1805,55 1771,55" fill="rgb(255,255,255)" fill-opacity="1.0" stroke="rgb(0,0,0)" stroke-width="2"  />
			<g>
				<title>ABC_membrane (PF00664)
"ABC transporter transmembrane region"</title>
				<rect class="PF00664" x="1775" y="28" stroke-linejoin="round" width="27" height="24" fill="rgb(149,226,73)" stroke="rgb(119,180,58)" stroke-width="1" opacity="0.75" />
			</g>
			<g>
				<title>ABC_tran (PF00005)
"ABC transporter"</title>
				<polygon class="PF00005" points="1811,28 1819,28 1825,34 1825,46 1819,52 1811,52" stroke-linejoin="round" width="14" height="24" fill="rgb(129,201,63)" stroke="rgb(103,160,50)" stroke-width="1" opacity="0.75" />
			</g>
		</g>
		<g>
			<title>dbv25
putative non-ribosomal peptide synthetase, modules 1-2</title>
			<polygon class="dbv25
putative non-ribosomal peptide synthetase, modules 1-2" points="1835,25 2014,25 2014,10 2044,40 2014,70 2014,55 1835,55" fill="rgb(255,255,255)" fill-opacity="1.0" stroke="rgb(0,0,0)" stroke-width="2"  />
			<g>
				<title>AMP-binding (PF00501)
"AMP-binding enzyme"</title>
				<rect class="PF00501" x="1836" y="28" stroke-linejoin="round" width="38" height="24" fill="rgb(60,217,223)" stroke="rgb(48,173,178)" stroke-width="1" opacity="0.75" />
			</g>
			<g>
				<title>AMP-binding_C (PF13193)
"AMP-binding enzyme C-terminal domain"</title>
				<rect class="PF13193" x="1876" y="28" stroke-linejoin="round" width="6" height="24" fill="rgb(182,50,118)" stroke="rgb(145,39,94)" stroke-width="1" opacity="0.75" />
			</g>
			<g>
				<title>PP-binding (PF00550)
"Phosphopantetheine attachment site"</title>
				<rect class="PF00550" x="1885" y="28" stroke-linejoin="round" width="6" height="24" fill="rgb(103,191,88)" stroke="rgb(82,152,70)" stroke-width="1" opacity="0.75" />
			</g>
			<g>
				<title>Condensation (PF00668)
"Condensation domain"</title>
				<rect class="PF00668" x="1895" y="28" stroke-linejoin="round" width="42" height="24" fill="rgb(224,184,98)" stroke="rgb(179,147,78)" stroke-width="1" opacity="0.75" />
			</g>
			<g>
				<title>AMP-binding (PF00501)
"AMP-binding enzyme"</title>
				<rect class="PF00501" x="1939" y="28" stroke-linejoin="round" width="38" height="24" fill="rgb(60,217,223)" stroke="rgb(48,173,178)" stroke-width="1" opacity="0.75" />
			</g>
			<g>
				<title>AMP-binding_C (PF13193)
"AMP-binding enzyme C-terminal domain"</title>
				<rect class="PF13193" x="1978" y="28" stroke-linejoin="round" width="6" height="24" fill="rgb(182,50,118)" stroke="rgb(145,39,94)" stroke-width="1" opacity="0.75" />
			</g>
			<g>
				<title>PP-binding (PF00550)
"Phosphopantetheine attachment site"</title>
				<rect class="PF00550" x="1988" y="28" stroke-linejoin="round" width="6" height="24" fill="rgb(103,191,88)" stroke="rgb(82,152,70)" stroke-width="1" opacity="0.75" />
			</g>
			<g>
				<title>Condensation (PF00668)
"Condensation domain"</title>
				<polygon class="PF00668" points="1997,28 2028,28 2040,40 2028,52 1997,52" stroke-linejoin="round" width="44" height="24" fill="rgb(224,184,98)" stroke="rgb(179,147,78)" stroke-width="1" opacity="0.75" />
			</g>
		</g>
		<g>
			<title>dbv26
putative non-ribosomal peptide synthetase, module 3</title>
			<polygon class="dbv26
putative non-ribosomal peptide synthetase, module 3" points="2045,25 2121,25 2121,10 2151,40 2121,70 2121,55 2045,55" fill="rgb(255,255,255)" fill-opacity="1.0" stroke="rgb(0,0,0)" stroke-width="2"  />
			<g>
				<title>Condensation (PF00668)
"Condensation domain"</title>
				<rect class="PF00668" x="2046" y="28" stroke-linejoin="round" width="43" height="24" fill="rgb(224,184,98)" stroke="rgb(179,147,78)" stroke-width="1" opacity="0.75" />
			</g>
			<g>
				<title>AMP-binding (PF00501)
"AMP-binding enzyme"</title>
				<rect class="PF00501" x="2091" y="28" stroke-linejoin="round" width="38" height="24" fill="rgb(60,217,223)" stroke="rgb(48,173,178)" stroke-width="1" opacity="0.75" />
			</g>
			<g>
				<title>AMP-binding_C (PF13193)
"AMP-binding enzyme C-terminal domain"</title>
				<polygon class="PF13193" points="2131,28 2135,28 2137,30 2137,50 2135,52 2131,52" stroke-linejoin="round" width="6" height="24" fill="rgb(182,50,118)" stroke="rgb(145,39,94)" stroke-width="1" opacity="0.75" />
			</g>
			<g>
				<title>PP-binding (PF00550)
"Phosphopantetheine attachment site"</title>
				<polygon class="PF00550" points="2140,33 2146,39 2146,41 2140,47" stroke-linejoin="round" width="6" height="24" fill="rgb(103,191,88)" stroke="rgb(82,152,70)" stroke-width="1" opacity="0.75" />
			</g>
		</g>
		<g>
			<title>dbv27
putative methyltransferase</title>
			<polygon class="dbv27
putative methyltransferase" points="2155,10 2182,40 2155,70" fill="rgb(255,255,255)" fill-opacity="1.0" stroke="rgb(0,0,0)" stroke-width="2"  />
			<g>
				<title>Methyltransf_25 (PF13649)
"Methyltransferase domain"</title>
				<polygon class="PF13649" points="2161,28 2167,28 2170,31 2170,49 2167,52 2161,52" stroke-linejoin="round" width="9" height="24" fill="rgb(227,135,74)" stroke="rgb(181,108,59)" stroke-width="1" opacity="0.75" />
			</g>
		</g>
		<g>
			<title>dbv28
putative beta-hydroxylase</title>
			<polygon class="dbv28
putative beta-hydroxylase" points="2184,25 2207,25 2207,10 2237,40 2207,70 2207,55 2184,55" fill="rgb(255,255,255)" fill-opacity="1.0" stroke="rgb(0,0,0)" stroke-width="2"  />
			<g>
				<title>CmlA_N (PF18456)
"Diiron non-heme beta-hydroxylase N-terminal domain"</title>
				<rect class="PF18456" x="2184" y="28" stroke-linejoin="round" width="23" height="24" fill="rgb(81,192,95)" stroke="rgb(64,153,76)" stroke-width="1" opacity="0.75" />
			</g>
			<g>
				<title>Lactamase_B_3 (PF13483)
"Beta-lactamase superfamily domain"</title>
				<polygon class="PF13483" points="2209,28 2220,28 2223,31 2223,49 2220,52 2209,52" stroke-linejoin="round" width="14" height="24" fill="rgb(89,224,69)" stroke="rgb(71,179,55)" stroke-width="1" opacity="0.75" />
			</g>
		</g>
		<g>
			<title>dbv29
putative hexose oxidase</title>
			<polygon class="dbv29
putative hexose oxidase" points="2297,25 2275,25 2275,10 2245,40 2275,70 2275,55 2297,55" fill="rgb(255,255,255)" fill-opacity="1.0" stroke="rgb(0,0,0)" stroke-width="2"  />
			<g>
				<title>BBE (PF08031)
"Berberine and berberine like"</title>
				<polygon class="PF08031" points="2249,40 2250,39 2250,41" stroke-linejoin="round" width="5" height="24" fill="rgb(210,73,83)" stroke="rgb(168,58,66)" stroke-width="1" opacity="0.75" />
			</g>
			<g>
				<title>FAD_binding_4 (PF01565)
"FAD binding domain"</title>
				<rect class="PF01565" x="2277" y="28" stroke-linejoin="round" width="13" height="24" fill="rgb(226,88,136)" stroke="rgb(180,70,108)" stroke-width="1" opacity="0.75" />
			</g>
		</g>
		<g>
			<title>dbv30
Dbv30 protein</title>
			<polygon class="dbv30
Dbv30 protein" points="2312,10 2326,40 2312,70" fill="rgb(255,255,255)" fill-opacity="1.0" stroke="rgb(0,0,0)" stroke-width="2"  />
			<g>
				<title>4HBT_2 (PF13279)
"Thioesterase-like superfamily"</title>
				<polygon class="PF13279" points="2313,28 2317,28 2322,40 2317,52 2313,52" stroke-linejoin="round" width="11" height="24" fill="rgb(213,114,82)" stroke="rgb(170,91,65)" stroke-width="1" opacity="0.75" />
			</g>
		</g>
		<g>
			<title>dbv31
putative DpgA protein</title>
			<polygon class="dbv31
putative DpgA protein" points="2332,25 2339,25 2339,10 2369,40 2339,70 2339,55 2332,55" fill="rgb(255,255,255)" fill-opacity="1.0" stroke="rgb(0,0,0)" stroke-width="2"  />
			<g>
				<title>Chal_sti_synt_N (PF00195)
"Chalcone and stilbene synthases, N-terminal domain"</title>
				<rect class="PF00195" x="2340" y="28" stroke-linejoin="round" width="13" height="24" fill="rgb(60,181,161)" stroke="rgb(47,144,128)" stroke-width="1" opacity="0.75" />
			</g>
			<g>
				<title>Chal_sti_synt_C (PF02797)
"Chalcone and stilbene synthases, C-terminal domain"</title>
				<polygon class="PF02797" points="2357,32 2365,40 2357,48" stroke-linejoin="round" width="12" height="24" fill="rgb(139,212,63)" stroke="rgb(111,169,50)" stroke-width="1" opacity="0.75" />
			</g>
		</g>
		<g>
			<title>dbv32
putative DpgB protein</title>
			<polygon class="dbv32
putative DpgB protein" points="2370,10 2391,40 2370,70" fill="rgb(255,255,255)" fill-opacity="1.0" stroke="rgb(0,0,0)" stroke-width="2"  />
		</g>
		<g>
			<title>dbv33
putative DpgC protein</title>
			<polygon class="dbv33
putative DpgC protein" points="2391,25 2404,25 2404,10 2434,40 2404,70 2404,55 2391,55" fill="rgb(255,255,255)" fill-opacity="1.0" stroke="rgb(0,0,0)" stroke-width="2"  />
			<g>
				<title>ECH_1 (PF00378)
"Enoyl-CoA hydratase/isomerase"</title>
				<polygon class="PF00378" points="2408,28 2418,28 2430,40 2430,40 2418,52 2408,52" stroke-linejoin="round" width="22" height="24" fill="rgb(218,72,181)" stroke="rgb(174,57,144)" stroke-width="1" opacity="0.75" />
			</g>
		</g>
		<g>
			<title>dbv34
putative DpgD protein</title>
			<polygon class="dbv34
putative DpgD protein" points="2434,10 2460,40 2434,70" fill="rgb(255,255,255)" fill-opacity="1.0" stroke="rgb(0,0,0)" stroke-width="2"  />
			<g>
				<title>ECH_1 (PF00378)
"Enoyl-CoA hydratase/isomerase"</title>
				<polygon class="PF00378" points="2434,28 2445,28 2456,40 2445,52 2434,52" stroke-linejoin="round" width="25" height="24" fill="rgb(218,72,181)" stroke="rgb(174,57,144)" stroke-width="1" opacity="0.75" />
			</g>
		</g>
		<g>
			<title>dbv35
putative integral membrane ion antiporter</title>
			<polygon class="dbv35
putative integral membrane ion antiporter" points="2461,25 2473,25 2473,10 2503,40 2473,70 2473,55 2461,55" fill="rgb(255,255,255)" fill-opacity="1.0" stroke="rgb(0,0,0)" stroke-width="2"  />
			<g>
				<title>Na_H_Exchanger (PF00999)
"Sodium/hydrogen exchanger family"</title>
				<polygon class="PF00999" points="2462,28 2487,28 2499,40 2487,52 2462,52" stroke-linejoin="round" width="38" height="24" fill="rgb(229,67,191)" stroke="rgb(183,53,152)" stroke-width="1" opacity="0.75" />
			</g>
		</g>
		<g>
			<title>dbv36
putative type II thioesterase</title>
			<polygon class="dbv36
putative type II thioesterase" points="2506,40 2531,10 2531,70" fill="rgb(255,255,255)" fill-opacity="1.0" stroke="rgb(0,0,0)" stroke-width="2"  />
			<g>
				<title>Thioesterase (PF00975)
"Thioesterase domain"</title>
				<polygon class="PF00975" points="2510,40 2520,28 2529,28 2529,52 2520,52" stroke-linejoin="round" width="22" height="24" fill="rgb(207,80,138)" stroke="rgb(165,63,110)" stroke-width="1" opacity="0.75" />
			</g>
		</g>
		<g>
			<title>dbv37
putative HpgT aminotransferase</title>
			<polygon class="dbv37
putative HpgT aminotransferase" points="2536,25 2548,25 2548,10 2578,40 2548,70 2548,55 2536,55" fill="rgb(255,255,255)" fill-opacity="1.0" stroke="rgb(0,0,0)" stroke-width="2"  />
			<g>
				<title>Aminotran_1_2 (PF00155)
"Aminotransferase class I and II"</title>
				<polygon class="PF00155" points="2542,28 2562,28 2574,40 2562,52 2542,52" stroke-linejoin="round" width="35" height="24" fill="rgb(89,113,198)" stroke="rgb(71,90,158)" stroke-width="1" opacity="0.75" />
			</g>
		</g>
		<g>
			<title>
hypothetical protein</title>
			<polygon class="
hypothetical protein" points="2590,10 2604,40 2590,70" fill="rgb(255,255,255)" fill-opacity="1.0" stroke="rgb(0,0,0)" stroke-width="2"  />
			<g>
				<title>Response_reg (PF00072)
"Response regulator receiver domain"</title>
				<polygon class="PF00072" points="2591,28 2594,28 2600,40 2594,52 2591,52" stroke-linejoin="round" width="11" height="24" fill="rgb(100,107,203)" stroke="rgb(80,85,162)" stroke-width="1" opacity="0.75" />
			</g>
		</g>
		<g>
			<title>
hypothetical protein</title>
			<polygon class="
hypothetical protein" points="2609,10 2631,40 2609,70" fill="rgb(255,255,255)" fill-opacity="1.0" stroke="rgb(0,0,0)" stroke-width="2"  />
			<g>
				<title>AIM24 (PF01987)
"Mitochondrial biogenesis AIM24"</title>
				<polygon class="PF01987" points="2610,28 2618,28 2627,40 2618,52 2610,52" stroke-linejoin="round" width="19" height="24" fill="rgb(186,55,82)" stroke="rgb(148,44,65)" stroke-width="1" opacity="0.75" />
			</g>
		</g>
		<g>
			<title>
hypothetical protein</title>
			<polygon class="
hypothetical protein" points="2631,10 2647,40 2631,70" fill="rgb(255,255,255)" fill-opacity="1.0" stroke="rgb(0,0,0)" stroke-width="2"  />
			<g>
				<title>tRNA_edit (PF04073)
"Aminoacyl-tRNA editing domain"</title>
				<polygon class="PF04073" points="2634,28 2637,28 2644,40 2637,52 2634,52" stroke-linejoin="round" width="12" height="24" fill="rgb(87,163,195)" stroke="rgb(69,130,156)" stroke-width="1" opacity="0.75" />
			</g>
		</g>
		<g>
			<title>
hypothetical protein</title>
			<polygon class="
hypothetical protein" points="2682,25 2678,25 2678,10 2648,40 2678,70 2678,55 2682,55" fill="rgb(255,255,255)" fill-opacity="1.0" stroke="rgb(0,0,0)" stroke-width="2"  />
			<g>
				<title>CBM_2 (PF00553)
"Cellulose binding domain"</title>
				<polygon class="PF00553" points="2652,40 2657,35 2657,45" stroke-linejoin="round" width="9" height="24" fill="rgb(224,89,220)" stroke="rgb(179,71,176)" stroke-width="1" opacity="0.75" />
			</g>
			<g>
				<title>Lipase_GDSL_2 (PF13472)
"GDSL-like Lipase/Acylhydrolase family"</title>
				<polygon class="PF13472" points="2661,31 2664,28 2679,28 2679,52 2664,52 2661,49" stroke-linejoin="round" width="18" height="24" fill="rgb(116,68,184)" stroke="rgb(92,54,147)" stroke-width="1" opacity="0.75" />
			</g>
		</g>
		<g>
			<title>
hypothetical protein</title>
			<polygon class="
hypothetical protein" points="2687,40 2715,10 2715,70" fill="rgb(255,255,255)" fill-opacity="1.0" stroke="rgb(0,0,0)" stroke-width="2"  />
			<g>
				<title>Usp (PF00582)
"Universal stress protein family"</title>
				<polygon class="PF00582" points="2691,40 2700,30 2700,50" stroke-linejoin="round" width="13" height="24" fill="rgb(129,199,88)" stroke="rgb(103,159,70)" stroke-width="1" opacity="0.75" />
			</g>
			<g>
				<title>Usp (PF00582)
"Universal stress protein family"</title>
				<polygon class="PF00582" points="2701,29 2702,28 2714,28 2714,52 2702,52 2701,51" stroke-linejoin="round" width="13" height="24" fill="rgb(129,199,88)" stroke="rgb(103,159,70)" stroke-width="1" opacity="0.75" />
			</g>
		</g>
		<g>
			<title>
hypothetical protein</title>
			<polygon class="
hypothetical protein" points="2733,25 2754,25 2754,10 2784,40 2754,70 2754,55 2733,55" fill="rgb(255,255,255)" fill-opacity="1.0" stroke="rgb(0,0,0)" stroke-width="2"  />
			<g>
				<title>ThiC-associated (PF13667)
"ThiC-associated domain"</title>
				<rect class="PF13667" x="2733" y="28" stroke-linejoin="round" width="6" height="24" fill="rgb(188,145,47)" stroke="rgb(150,116,37)" stroke-width="1" opacity="0.75" />
			</g>
			<g>
				<title>ThiC_Rad_SAM (PF01964)
"Radical SAM ThiC family"</title>
				<polygon class="PF01964" points="2740,28 2768,28 2780,40 2768,52 2740,52" stroke-linejoin="round" width="42" height="24" fill="rgb(195,97,107)" stroke="rgb(156,77,85)" stroke-width="1" opacity="0.75" />
			</g>
		</g>
		<g>
			<title>
hypothetical protein</title>
			<polygon class="
hypothetical protein" points="2799,40 2827,10 2827,70" fill="rgb(255,255,255)" fill-opacity="1.0" stroke="rgb(0,0,0)" stroke-width="2"  />
			<g>
				<title>adh_short_C2 (PF13561)
"Enoyl-(Acyl carrier protein) reductase"</title>
				<polygon class="PF13561" points="2803,40 2814,28 2822,28 2822,52 2814,52" stroke-linejoin="round" width="23" height="24" fill="rgb(73,205,127)" stroke="rgb(58,164,101)" stroke-width="1" opacity="0.75" />
			</g>
		</g>
		<g>
			<title>
hypothetical protein</title>
			<polygon class="
hypothetical protein" points="2860,25 2859,25 2859,10 2829,40 2859,70 2859,55 2860,55" fill="rgb(255,255,255)" fill-opacity="1.0" stroke="rgb(0,0,0)" stroke-width="2"  />
			<g>
				<title>OpuAC (PF04069)
"Substrate binding domain of ABC-type glycine betaine transport system"</title>
				<polygon class="PF04069" points="2833,40 2845,28 2856,28 2856,52 2845,52" stroke-linejoin="round" width="27" height="24" fill="rgb(81,218,80)" stroke="rgb(64,174,64)" stroke-width="1" opacity="0.75" />
			</g>
		</g>
		<g>
			<title>
hypothetical protein</title>
			<polygon class="
hypothetical protein" points="2861,40 2886,10 2886,70" fill="rgb(255,255,255)" fill-opacity="1.0" stroke="rgb(0,0,0)" stroke-width="2"  />
			<g>
				<title>BPD_transp_1 (PF00528)
"Binding-protein-dependent transport system inner membrane component"</title>
				<polygon class="PF00528" points="2865,40 2875,28 2878,28 2878,52 2875,52" stroke-linejoin="round" width="17" height="24" fill="rgb(77,208,225)" stroke="rgb(61,166,180)" stroke-width="1" opacity="0.75" />
			</g>
		</g>
		<g>
			<title>
hypothetical protein</title>
			<polygon class="
hypothetical protein" points="2925,25 2916,25 2916,10 2886,40 2916,70 2916,55 2925,55" fill="rgb(255,255,255)" fill-opacity="1.0" stroke="rgb(0,0,0)" stroke-width="2"  />
			<g>
				<title>ABC_tran (PF00005)
"ABC transporter"</title>
				<rect class="PF00005" x="2907" y="28" stroke-linejoin="round" width="14" height="24" fill="rgb(129,201,63)" stroke="rgb(103,160,50)" stroke-width="1" opacity="0.75" />
			</g>
		</g>
		<g>
			<title>
hypothetical protein</title>
			<polygon class="
hypothetical protein" points="2925,40 2946,10 2946,70" fill="rgb(255,255,255)" fill-opacity="1.0" stroke="rgb(0,0,0)" stroke-width="2"  />
			<g>
				<title>BPD_transp_1 (PF00528)
"Binding-protein-dependent transport system inner membrane component"</title>
				<polygon class="PF00528" points="2929,40 2938,28 2942,28 2942,52 2938,52" stroke-linejoin="round" width="17" height="24" fill="rgb(77,208,225)" stroke="rgb(61,166,180)" stroke-width="1" opacity="0.75" />
			</g>
		</g>
		<g>
			<title>
hypothetical protein</title>
			<polygon class="
hypothetical protein" points="2963,10 2981,40 2963,70" fill="rgb(255,255,255)" fill-opacity="1.0" stroke="rgb(0,0,0)" stroke-width="2"  />
		</g>
	</g>
</svg>
