<svg version="1.1" baseProfile="full" xmlns="http://www.w3.org/2000/svg" width="980.1333333333333" height="80">
	<g>
		<line x1="10" y1="40.0" x2="970.1333333333333" y2="40.0" style="stroke:rgb(70,70,70); stroke-width:3 "/>
		<g>
			<title>spsG
unknown</title>
			<polygon class="spsG
unknown" points="74,25 50,25 50,10 20,40 50,70 50,55 74,55" fill="rgb(255,255,255)" fill-opacity="1.0" stroke="rgb(0,0,0)" stroke-width="2"  />
			<g>
				<title>Wzy_C (PF04932)
"O-Antigen ligase"</title>
				<polygon class="PF04932" points="27,37 36,28 41,28 41,52 36,52 27,43" stroke-linejoin="round" width="14" height="24" fill="rgb(106,219,107)" stroke="rgb(84,175,85)" stroke-width="1" opacity="0.75" />
			</g>
		</g>
		<g>
			<title>spsS
unknown</title>
			<polygon class="spsS
unknown" points="120,25 105,25 105,10 75,40 105,70 105,55 120,55" fill="rgb(255,255,255)" fill-opacity="1.0" stroke="rgb(0,0,0)" stroke-width="2"  />
			<g>
				<title>Polysacc_synt_C (PF14667)
"Polysaccharide biosynthesis C-terminal domain"</title>
				<polygon class="PF14667" points="79,40 83,36 83,44" stroke-linejoin="round" width="8" height="24" fill="rgb(222,92,150)" stroke="rgb(177,73,120)" stroke-width="1" opacity="0.75" />
			</g>
			<g>
				<title>Polysacc_synt (PF01943)
"Polysaccharide biosynthesis protein"</title>
				<polygon class="PF01943" points="88,31 91,28 115,28 115,52 91,52 88,49" stroke-linejoin="round" width="27" height="24" fill="rgb(71,213,101)" stroke="rgb(56,170,80)" stroke-width="1" opacity="0.75" />
			</g>
		</g>
		<g>
			<title>spsR
unknown</title>
			<polygon class="spsR
unknown" points="187,25 150,25 150,10 120,40 150,70 150,55 187,55" fill="rgb(255,255,255)" fill-opacity="1.0" stroke="rgb(0,0,0)" stroke-width="2"  />
			<g>
				<title>Laminin_G_3 (PF13385)
"Concanavalin A-like lectin/glucanases superfamily"</title>
				<polygon class="PF13385" points="130,34 136,28 145,28 145,52 136,52 130,46" stroke-linejoin="round" width="15" height="24" fill="rgb(93,162,213)" stroke="rgb(74,129,170)" stroke-width="1" opacity="0.75" />
			</g>
			<g>
				<title>Beta_helix (PF13229)
"Right handed beta helix region"</title>
				<rect class="PF13229" x="160" y="28" stroke-linejoin="round" width="17" height="24" fill="rgb(197,72,157)" stroke="rgb(157,57,125)" stroke-width="1" opacity="0.75" />
			</g>
		</g>
		<g>
			<title>spsQ
glycosyl transferase</title>
			<polygon class="spsQ
glycosyl transferase" points="194,25 195,25 195,10 225,40 195,70 195,55 194,55" fill="rgb(255,255,255)" fill-opacity="1.0" stroke="rgb(0,0,0)" stroke-width="2"  />
			<g>
				<title>Glyco_tranf_2_3 (PF13641)
"Glycosyltransferase like family 2"</title>
				<polygon class="PF13641" points="194,28 209,28 217,36 217,44 209,52 194,52" stroke-linejoin="round" width="23" height="24" fill="rgb(140,74,190)" stroke="rgb(111,59,152)" stroke-width="1" opacity="0.75" />
			</g>
		</g>
		<g>
			<title>spsI
unknown</title>
			<polygon class="spsI
unknown" points="258,25 258,25 258,10 228,40 258,70 258,55 258,55" fill="rgb(255,255,255)" fill-opacity="1.0" stroke="rgb(0,0,0)" stroke-width="2"  />
			<g>
				<title>Rotamase_2 (PF13145)
"PPIC-type PPIASE domain"</title>
				<polygon class="PF13145" points="234,38 244,28 245,28 245,52 244,52 234,42" stroke-linejoin="round" width="11" height="24" fill="rgb(77,77,182)" stroke="rgb(61,61,145)" stroke-width="1" opacity="0.75" />
			</g>
			<g>
				<title>SurA_N_3 (PF13624)
"SurA N-terminal domain"</title>
				<rect class="PF13624" x="247" y="28" stroke-linejoin="round" width="10" height="24" fill="rgb(84,156,193)" stroke="rgb(67,124,154)" stroke-width="1" opacity="0.75" />
			</g>
		</g>
		<g>
			<title>spsK
glycosyl transferase</title>
			<polygon class="spsK
glycosyl transferase" points="262,25 267,25 267,10 297,40 267,70 267,55 262,55" fill="rgb(255,255,255)" fill-opacity="1.0" stroke="rgb(0,0,0)" stroke-width="2"  />
			<g>
				<title>Alg14 (PF08660)
"Oligosaccharide biosynthesis protein Alg14 like"</title>
				<rect class="PF08660" x="269" y="28" stroke-linejoin="round" width="9" height="24" fill="rgb(171,179,66)" stroke="rgb(136,143,52)" stroke-width="1" opacity="0.75" />
			</g>
			<g>
				<title>Glyco_tran_28_C (PF04101)
"Glycosyltransferase family 28 C-terminal domain"</title>
				<polygon class="PF04101" points="280,28 281,28 293,40 281,52 280,52" stroke-linejoin="round" width="15" height="24" fill="rgb(211,90,140)" stroke="rgb(168,72,112)" stroke-width="1" opacity="0.75" />
			</g>
		</g>
		<g>
			<title>spsL
glycosyl transferase</title>
			<polygon class="spsL
glycosyl transferase" points="298,10 326,40 298,70" fill="rgb(255,255,255)" fill-opacity="1.0" stroke="rgb(0,0,0)" stroke-width="2"  />
			<g>
				<title>Glycos_transf_2 (PF00535)
"Glycosyl transferase family 2"</title>
				<polygon class="PF00535" points="298,28 310,28 313,30 313,50 310,52 298,52" stroke-linejoin="round" width="15" height="24" fill="rgb(224,122,96)" stroke="rgb(179,97,76)" stroke-width="1" opacity="0.75" />
			</g>
		</g>
		<g>
			<title>spsJ
unknown</title>
			<polygon class="spsJ
unknown" points="374,25 358,25 358,10 328,40 358,70 358,55 374,55" fill="rgb(255,255,255)" fill-opacity="1.0" stroke="rgb(0,0,0)" stroke-width="2"  />
			<g>
				<title>AAA_16 (PF13191)
"AAA ATPase domain"</title>
				<rect class="PF13191" x="349" y="28" stroke-linejoin="round" width="15" height="24" fill="rgb(186,102,77)" stroke="rgb(148,81,61)" stroke-width="1" opacity="0.75" />
			</g>
		</g>
		<g>
			<title>spsF
unknown</title>
			<polygon class="spsF
unknown" points="395,25 408,25 408,10 438,40 408,70 408,55 395,55" fill="rgb(255,255,255)" fill-opacity="1.0" stroke="rgb(0,0,0)" stroke-width="2"  />
		</g>
		<g>
			<title>spsD
unknown</title>
			<polygon class="spsD
unknown" points="439,25 439,25 439,10 469,40 439,70 439,55 439,55" fill="rgb(255,255,255)" fill-opacity="1.0" stroke="rgb(0,0,0)" stroke-width="2"  />
			<g>
				<title>Poly_export (PF02563)
"Polysaccharide biosynthesis/export protein"</title>
				<rect class="PF02563" x="445" y="28" stroke-linejoin="round" width="7" height="24" fill="rgb(125,185,59)" stroke="rgb(100,148,47)" stroke-width="1" opacity="0.75" />
			</g>
			<g>
				<title>SLBB (PF10531)
"SLBB domain"</title>
				<polygon class="PF10531" points="454,30 459,35 459,45 454,50" stroke-linejoin="round" width="5" height="24" fill="rgb(92,145,209)" stroke="rgb(73,116,167)" stroke-width="1" opacity="0.75" />
			</g>
			<g>
				<title>SLBB (PF10531)
"SLBB domain"</title>
				<polygon class="PF10531" points="462,38 464,40 462,42" stroke-linejoin="round" width="5" height="24" fill="rgb(92,145,209)" stroke="rgb(73,116,167)" stroke-width="1" opacity="0.75" />
			</g>
		</g>
		<g>
			<title>spsC
unknown</title>
			<polygon class="spsC
unknown" points="470,25 484,25 484,10 514,40 484,70 484,55 470,55" fill="rgb(255,255,255)" fill-opacity="1.0" stroke="rgb(0,0,0)" stroke-width="2"  />
			<g>
				<title>Wzz (PF02706)
"Chain length determinant protein"</title>
				<rect class="PF02706" x="470" y="28" stroke-linejoin="round" width="8" height="24" fill="rgb(184,132,90)" stroke="rgb(147,105,72)" stroke-width="1" opacity="0.75" />
			</g>
			<g>
				<title>GNVR (PF13807)
"G-rich domain on putative tyrosine kinase"</title>
				<polygon class="PF13807" points="501,31 509,39 509,41 501,49" stroke-linejoin="round" width="8" height="24" fill="rgb(77,110,190)" stroke="rgb(61,87,152)" stroke-width="1" opacity="0.75" />
			</g>
		</g>
		<g>
			<title>spsE
unknown</title>
			<polygon class="spsE
unknown" points="515,10 538,40 515,70" fill="rgb(255,255,255)" fill-opacity="1.0" stroke="rgb(0,0,0)" stroke-width="2"  />
			<g>
				<title>ParA (PF10609)
"NUBPL iron-transfer P-loop NTPase"</title>
				<polygon class="PF10609" points="521,28 525,28 534,40 525,52 521,52" stroke-linejoin="round" width="17" height="24" fill="rgb(107,194,90)" stroke="rgb(85,155,72)" stroke-width="1" opacity="0.75" />
			</g>
		</g>
		<g>
			<title>
unknown</title>
			<polygon class="
unknown" points="539,10 568,40 539,70" fill="rgb(255,255,255)" fill-opacity="1.0" stroke="rgb(0,0,0)" stroke-width="2"  />
			<g>
				<title>Exosortase_EpsH (PF09721)
"Transmembrane exosortase (Exosortase_EpsH)"</title>
				<polygon class="PF09721" points="541,28 552,28 564,40 552,52 541,52" stroke-linejoin="round" width="25" height="24" fill="rgb(94,107,207)" stroke="rgb(75,85,165)" stroke-width="1" opacity="0.75" />
			</g>
		</g>
		<g>
			<title>
unknown</title>
			<polygon class="
unknown" points="568,10 591,40 568,70" fill="rgb(255,255,255)" fill-opacity="1.0" stroke="rgb(0,0,0)" stroke-width="2"  />
			<g>
				<title>DUF3485 (PF11984)
"Protein of unknown function (DUF3485)"</title>
				<polygon class="PF11984" points="568,28 578,28 587,40 578,52 568,52" stroke-linejoin="round" width="20" height="24" fill="rgb(77,215,143)" stroke="rgb(61,172,114)" stroke-width="1" opacity="0.75" />
			</g>
		</g>
		<g>
			<title>atrD
unknown</title>
			<polygon class="atrD
unknown" points="639,25 623,25 623,10 593,40 623,70 623,55 639,55" fill="rgb(255,255,255)" fill-opacity="1.0" stroke="rgb(0,0,0)" stroke-width="2"  />
			<g>
				<title>HlyD_3 (PF13437)
"HlyD family secretion protein"</title>
				<polygon class="PF13437" points="597,40 607,30 607,50" stroke-linejoin="round" width="11" height="24" fill="rgb(82,200,102)" stroke="rgb(65,160,81)" stroke-width="1" opacity="0.75" />
			</g>
		</g>
		<g>
			<title>atrB
unknown</title>
			<polygon class="atrB
unknown" points="711,25 669,25 669,10 639,40 669,70 669,55 711,55" fill="rgb(255,255,255)" fill-opacity="1.0" stroke="rgb(0,0,0)" stroke-width="2"  />
			<g>
				<title>ABC_tran (PF00005)
"ABC transporter"</title>
				<polygon class="PF00005" points="646,37 655,28 660,28 660,52 655,52 646,43" stroke-linejoin="round" width="14" height="24" fill="rgb(129,201,63)" stroke="rgb(103,160,50)" stroke-width="1" opacity="0.75" />
			</g>
			<g>
				<title>ABC_membrane (PF00664)
"ABC transporter transmembrane region"</title>
				<rect class="PF00664" x="668" y="28" stroke-linejoin="round" width="27" height="24" fill="rgb(149,226,73)" stroke="rgb(119,180,58)" stroke-width="1" opacity="0.75" />
			</g>
			<g>
				<title>Peptidase_C39 (PF03412)
"Peptidase C39 family"</title>
				<rect class="PF03412" x="697" y="28" stroke-linejoin="round" width="12" height="24" fill="rgb(214,226,77)" stroke="rgb(171,180,61)" stroke-width="1" opacity="0.75" />
			</g>
		</g>
		<g>
			<title>spsB
glucosyl-isoprenylphosphate transferase</title>
			<polygon class="spsB
glucosyl-isoprenylphosphate transferase" points="733,25 750,25 750,10 780,40 750,70 750,55 733,55" fill="rgb(255,255,255)" fill-opacity="1.0" stroke="rgb(0,0,0)" stroke-width="2"  />
			<g>
				<title>Bac_transf (PF02397)
"Bacterial sugar transferase"</title>
				<polygon class="PF02397" points="760,28 763,28 775,40 763,52 760,52" stroke-linejoin="round" width="18" height="24" fill="rgb(57,165,209)" stroke="rgb(45,131,167)" stroke-width="1" opacity="0.75" />
			</g>
		</g>
		<g>
			<title>rhsA
glucose-1-phosphate thymidylyltransferase</title>
			<polygon class="rhsA
glucose-1-phosphate thymidylyltransferase" points="784,10 813,40 784,70" fill="rgb(255,255,255)" fill-opacity="1.0" stroke="rgb(0,0,0)" stroke-width="2"  />
			<g>
				<title>NTP_transferase (PF00483)
"Nucleotidyl transferase"</title>
				<polygon class="PF00483" points="784,28 797,28 808,39 808,41 797,52 784,52" stroke-linejoin="round" width="24" height="24" fill="rgb(198,101,87)" stroke="rgb(158,80,69)" stroke-width="1" opacity="0.75" />
			</g>
		</g>
		<g>
			<title>rhsC
dTDP-6-deoxy-D-glucose-3,5-epimerase</title>
			<polygon class="rhsC
dTDP-6-deoxy-D-glucose-3,5-epimerase" points="813,10 831,40 813,70" fill="rgb(255,255,255)" fill-opacity="1.0" stroke="rgb(0,0,0)" stroke-width="2"  />
			<g>
				<title>dTDP_sugar_isom (PF00908)
"dTDP-4-dehydrorhamnose 3,5-epimerase"</title>
				<polygon class="PF00908" points="813,28 820,28 828,40 820,52 813,52" stroke-linejoin="round" width="17" height="24" fill="rgb(184,89,121)" stroke="rgb(147,71,96)" stroke-width="1" opacity="0.75" />
			</g>
		</g>
		<g>
			<title>rhsB
dTDP-D-glucose-4,6-dehydratase</title>
			<polygon class="rhsB
dTDP-D-glucose-4,6-dehydratase" points="832,25 837,25 837,10 867,40 837,70 837,55 832,55" fill="rgb(255,255,255)" fill-opacity="1.0" stroke="rgb(0,0,0)" stroke-width="2"  />
			<g>
				<title>GDP_Man_Dehyd (PF16363)
"GDP-mannose 4,6 dehydratase"</title>
				<polygon class="PF16363" points="832,28 851,28 863,40 863,40 851,52 832,52" stroke-linejoin="round" width="31" height="24" fill="rgb(162,221,65)" stroke="rgb(129,176,51)" stroke-width="1" opacity="0.75" />
			</g>
		</g>
		<g>
			<title>rhsD
dTDP-6-deoxy-L-mannose-dehydrogenase</title>
			<polygon class="rhsD
dTDP-6-deoxy-L-mannose-dehydrogenase" points="868,10 896,40 868,70" fill="rgb(255,255,255)" fill-opacity="1.0" stroke="rgb(0,0,0)" stroke-width="2"  />
			<g>
				<title>RmlD_sub_bind (PF04321)
"RmlD substrate binding domain"</title>
				<polygon class="PF04321" points="868,28 880,28 892,40 880,52 868,52" stroke-linejoin="round" width="28" height="24" fill="rgb(196,203,60)" stroke="rgb(156,162,47)" stroke-width="1" opacity="0.75" />
			</g>
		</g>
		<g>
			<title>
unknown</title>
			<polygon class="
unknown" points="900,40 927,10 927,70" fill="rgb(255,255,255)" fill-opacity="1.0" stroke="rgb(0,0,0)" stroke-width="2"  />
			<g>
				<title>Rhamno_transf (PF11316)
"Putative rhamnosyl transferase"</title>
				<polygon class="PF11316" points="905,39 915,28 926,28 926,52 915,52 905,41" stroke-linejoin="round" width="21" height="24" fill="rgb(57,62,216)" stroke="rgb(45,49,172)" stroke-width="1" opacity="0.75" />
			</g>
		</g>
		<g>
			<title>
unknown</title>
			<polygon class="
unknown" points="934,25 935,25 935,10 965,40 935,70 935,55 934,55" fill="rgb(255,255,255)" fill-opacity="1.0" stroke="rgb(0,0,0)" stroke-width="2"  />
			<g>
				<title>EamA (PF00892)
"EamA-like transporter family"</title>
				<polygon class="PF00892" points="950,29 961,40 950,51" stroke-linejoin="round" width="13" height="24" fill="rgb(105,217,77)" stroke="rgb(84,173,61)" stroke-width="1" opacity="0.75" />
			</g>
		</g>
	</g>
</svg>
