<svg version="1.1" baseProfile="full" xmlns="http://www.w3.org/2000/svg" width="1601.7" height="80">
	<g>
		<line x1="10" y1="40.0" x2="1591.7" y2="40.0" style="stroke:rgb(70,70,70); stroke-width:3 "/>
		<g>
			<title>
putative transcription factor</title>
			<polygon class="
putative transcription factor" points="106,25 52,25 52,10 22,40 52,70 52,55 106,55" fill="rgb(255,255,255)" fill-opacity="1.0" stroke="rgb(0,0,0)" stroke-width="2"  />
			<g>
				<title>Fungal_trans (PF04082)
"Fungal specific transcription factor domain"</title>
				<rect class="PF04082" x="53" y="28" stroke-linejoin="round" width="26" height="24" fill="rgb(51,172,200)" stroke="rgb(40,137,160)" stroke-width="1" opacity="0.75" />
			</g>
			<g>
				<title>Zn_clus (PF00172)
"Fungal Zn(2)-Cys(6) binuclear cluster domain"</title>
				<rect class="PF00172" x="97" y="28" stroke-linejoin="round" width="3" height="24" fill="rgb(121,178,76)" stroke="rgb(96,142,60)" stroke-width="1" opacity="0.75" />
			</g>
		</g>
		<g>
			<title>prhA
PrhA</title>
			<polygon class="prhA
PrhA" points="191,25 191,25 191,10 161,40 191,70 191,55 191,55" fill="rgb(255,255,255)" fill-opacity="1.0" stroke="rgb(0,0,0)" stroke-width="2"  />
			<g>
				<title>PhyH (PF05721)
"Phytanoyl-CoA dioxygenase (PhyH)"</title>
				<polygon class="PF05721" points="168,37 177,28 188,28 188,52 177,52 168,43" stroke-linejoin="round" width="20" height="24" fill="rgb(72,132,214)" stroke="rgb(57,105,171)" stroke-width="1" opacity="0.75" />
			</g>
		</g>
		<g>
			<title>prhB
PrhB</title>
			<polygon class="prhB
PrhB" points="286,25 257,25 257,10 227,40 257,70 257,55 286,55" fill="rgb(255,255,255)" fill-opacity="1.0" stroke="rgb(0,0,0)" stroke-width="2"  />
			<g>
				<title>p450 (PF00067)
"Cytochrome P450"</title>
				<polygon class="PF00067" points="238,33 243,28 282,28 282,52 243,52 238,47" stroke-linejoin="round" width="44" height="24" fill="rgb(85,216,107)" stroke="rgb(68,172,85)" stroke-width="1" opacity="0.75" />
			</g>
		</g>
		<g>
			<title>prhC
PrhC</title>
			<polygon class="prhC
PrhC" points="298,40 315,10 315,70" fill="rgb(255,255,255)" fill-opacity="1.0" stroke="rgb(0,0,0)" stroke-width="2"  />
		</g>
		<g>
			<title>prhD
PrhD</title>
			<polygon class="prhD
PrhD" points="429,25 396,25 396,10 366,40 396,70 396,55 429,55" fill="rgb(255,255,255)" fill-opacity="1.0" stroke="rgb(0,0,0)" stroke-width="2"  />
			<g>
				<title>p450 (PF00067)
"Cytochrome P450"</title>
				<polygon class="PF00067" points="380,30 382,28 424,28 424,52 382,52 380,50" stroke-linejoin="round" width="44" height="24" fill="rgb(85,216,107)" stroke="rgb(68,172,85)" stroke-width="1" opacity="0.75" />
			</g>
		</g>
		<g>
			<title>prhE
PrhE</title>
			<polygon class="prhE
PrhE" points="493,25 492,25 492,10 462,40 492,70 492,55 493,55" fill="rgb(255,255,255)" fill-opacity="1.0" stroke="rgb(0,0,0)" stroke-width="2"  />
			<g>
				<title>UbiA (PF01040)
"UbiA prenyltransferase family"</title>
				<polygon class="PF01040" points="466,40 478,28 488,28 488,52 478,52" stroke-linejoin="round" width="26" height="24" fill="rgb(189,57,100)" stroke="rgb(151,45,80)" stroke-width="1" opacity="0.75" />
			</g>
		</g>
		<g>
			<title>prhF
PrhF</title>
			<polygon class="prhF
PrhF" points="516,25 539,25 539,10 569,40 539,70 539,55 516,55" fill="rgb(255,255,255)" fill-opacity="1.0" stroke="rgb(0,0,0)" stroke-width="2"  />
			<g>
				<title>FAD_binding_3 (PF01494)
"FAD binding domain"</title>
				<rect class="PF01494" x="517" y="28" stroke-linejoin="round" width="16" height="24" fill="rgb(182,175,59)" stroke="rgb(145,140,47)" stroke-width="1" opacity="0.75" />
			</g>
			<g>
				<title>FAD_binding_3 (PF01494)
"FAD binding domain"</title>
				<polygon class="PF01494" points="541,28 552,28 553,29 553,51 552,52 541,52" stroke-linejoin="round" width="12" height="24" fill="rgb(182,175,59)" stroke="rgb(145,140,47)" stroke-width="1" opacity="0.75" />
			</g>
		</g>
		<g>
			<title>prhG
PrhG</title>
			<polygon class="prhG
PrhG" points="587,25 620,25 620,10 650,40 620,70 620,55 587,55" fill="rgb(255,255,255)" fill-opacity="1.0" stroke="rgb(0,0,0)" stroke-width="2"  />
			<g>
				<title>MFS_1 (PF07690)
"Major Facilitator Superfamily"</title>
				<polygon class="PF07690" points="596,28 634,28 636,30 636,50 634,52 596,52" stroke-linejoin="round" width="40" height="24" fill="rgb(193,224,74)" stroke="rgb(154,179,59)" stroke-width="1" opacity="0.75" />
			</g>
		</g>
		<g>
			<title>prhH
PrhH</title>
			<polygon class="prhH
PrhH" points="678,40 704,10 704,70" fill="rgb(255,255,255)" fill-opacity="1.0" stroke="rgb(0,0,0)" stroke-width="2"  />
		</g>
		<g>
			<title>prhI
PrhI</title>
			<polygon class="prhI
PrhI" points="778,25 775,25 775,10 745,40 775,70 775,55 778,55" fill="rgb(255,255,255)" fill-opacity="1.0" stroke="rgb(0,0,0)" stroke-width="2"  />
			<g>
				<title>adh_short (PF00106)
"short chain dehydrogenase"</title>
				<polygon class="PF00106" points="759,30 761,28 778,28 778,52 761,52 759,50" stroke-linejoin="round" width="19" height="24" fill="rgb(182,219,73)" stroke="rgb(145,175,58)" stroke-width="1" opacity="0.75" />
			</g>
		</g>
		<g>
			<title>prhJ
PrhJ</title>
			<polygon class="prhJ
PrhJ" points="804,25 838,25 838,10 868,40 838,70 838,55 804,55" fill="rgb(255,255,255)" fill-opacity="1.0" stroke="rgb(0,0,0)" stroke-width="2"  />
			<g>
				<title>Pyr_redox_2 (PF07992)
"Pyridine nucleotide-disulphide oxidoreductase"</title>
				<rect class="PF07992" x="811" y="28" stroke-linejoin="round" width="24" height="24" fill="rgb(83,223,167)" stroke="rgb(66,178,133)" stroke-width="1" opacity="0.75" />
			</g>
		</g>
		<g>
			<title>prhK
PrhK</title>
			<polygon class="prhK
PrhK" points="902,25 936,25 936,10 966,40 936,70 936,55 902,55" fill="rgb(255,255,255)" fill-opacity="1.0" stroke="rgb(0,0,0)" stroke-width="2"  />
			<g>
				<title>Pyr_redox_2 (PF07992)
"Pyridine nucleotide-disulphide oxidoreductase"</title>
				<rect class="PF07992" x="909" y="28" stroke-linejoin="round" width="23" height="24" fill="rgb(83,223,167)" stroke="rgb(66,178,133)" stroke-width="1" opacity="0.75" />
			</g>
		</g>
		<g>
			<title>prhL
PrhL</title>
			<polygon class="prhL
PrhL" points="1253,25 1025,25 1025,10 995,40 1025,70 1025,55 1253,55" fill="rgb(255,255,255)" fill-opacity="1.0" stroke="rgb(0,0,0)" stroke-width="2"  />
			<g>
				<title>Abhydrolase_3 (PF07859)
"alpha/beta hydrolase fold"</title>
				<rect class="PF07859" x="1022" y="28" stroke-linejoin="round" width="14" height="24" fill="rgb(183,51,179)" stroke="rgb(146,40,143)" stroke-width="1" opacity="0.75" />
			</g>
			<g>
				<title>Methyltransf_12 (PF08242)
"Methyltransferase domain"</title>
				<rect class="PF08242" x="1048" y="28" stroke-linejoin="round" width="10" height="24" fill="rgb(187,59,115)" stroke="rgb(149,47,92)" stroke-width="1" opacity="0.75" />
			</g>
			<g>
				<title>HTH_51 (PF18558)
"Helix-turn-helix domain"</title>
				<rect class="PF18558" x="1069" y="28" stroke-linejoin="round" width="8" height="24" fill="rgb(104,215,138)" stroke="rgb(83,172,110)" stroke-width="1" opacity="0.75" />
			</g>
			<g>
				<title>PP-binding (PF00550)
"Phosphopantetheine attachment site"</title>
				<rect class="PF00550" x="1083" y="28" stroke-linejoin="round" width="6" height="24" fill="rgb(103,191,88)" stroke="rgb(82,152,70)" stroke-width="1" opacity="0.75" />
			</g>
			<g>
				<title>PS-DH (PF14765)
"Polyketide synthase dehydratase"</title>
				<rect class="PF14765" x="1094" y="28" stroke-linejoin="round" width="27" height="24" fill="rgb(173,56,182)" stroke="rgb(138,44,145)" stroke-width="1" opacity="0.75" />
			</g>
			<g>
				<title>Acyl_transf_1 (PF00698)
"Acyl transferase domain"</title>
				<rect class="PF00698" x="1132" y="28" stroke-linejoin="round" width="29" height="24" fill="rgb(59,176,209)" stroke="rgb(47,140,167)" stroke-width="1" opacity="0.75" />
			</g>
			<g>
				<title>Ketoacyl-synt_C (PF02801)
"Beta-ketoacyl synthase, C-terminal domain"</title>
				<rect class="PF02801" x="1177" y="28" stroke-linejoin="round" width="11" height="24" fill="rgb(215,78,102)" stroke="rgb(172,62,81)" stroke-width="1" opacity="0.75" />
			</g>
			<g>
				<title>ketoacyl-synt (PF00109)
"Beta-ketoacyl synthase, N-terminal domain"</title>
				<rect class="PF00109" x="1190" y="28" stroke-linejoin="round" width="24" height="24" fill="rgb(112,116,228)" stroke="rgb(89,92,182)" stroke-width="1" opacity="0.75" />
			</g>
		</g>
		<g>
			<title>prhM
PrhM</title>
			<polygon class="prhM
PrhM" points="1299,25 1303,25 1303,10 1333,40 1303,70 1303,55 1299,55" fill="rgb(255,255,255)" fill-opacity="1.0" stroke="rgb(0,0,0)" stroke-width="2"  />
		</g>
		<g>
			<title>prhN
PrhN</title>
			<polygon class="prhN
PrhN" points="1429,25 1460,25 1460,10 1490,40 1460,70 1460,55 1429,55" fill="rgb(255,255,255)" fill-opacity="1.0" stroke="rgb(0,0,0)" stroke-width="2"  />
			<g>
				<title>p450 (PF00067)
"Cytochrome P450"</title>
				<polygon class="PF00067" points="1442,28 1474,28 1478,32 1478,48 1474,52 1442,52" stroke-linejoin="round" width="36" height="24" fill="rgb(85,216,107)" stroke="rgb(68,172,85)" stroke-width="1" opacity="0.75" />
			</g>
		</g>
		<g>
			<title>
putative glycosyltransferase</title>
			<polygon class="
putative glycosyltransferase" points="1560,25 1543,25 1543,10 1513,40 1543,70 1543,55 1560,55" fill="rgb(255,255,255)" fill-opacity="1.0" stroke="rgb(0,0,0)" stroke-width="2"  />
			<g>
				<title>Glyco_transf_90 (PF05686)
"Glycosyl transferase family 90"</title>
				<polygon class="PF05686" points="1517,40 1529,28 1551,28 1551,52 1529,52 1517,40" stroke-linejoin="round" width="34" height="24" fill="rgb(184,182,87)" stroke="rgb(147,145,69)" stroke-width="1" opacity="0.75" />
			</g>
		</g>
	</g>
</svg>
