<svg version="1.1" baseProfile="full" xmlns="http://www.w3.org/2000/svg" width="172.66666666666666" height="80">
	<g>
		<line x1="10" y1="40.0" x2="162.66666666666666" y2="40.0" style="stroke:rgb(70,70,70); stroke-width:3 "/>
		<g>
			<title> (SOD_c20750)
putative terpene cyclase</title>
			<polygon class=" (SOD_c20750)
putative terpene cyclase" points="48,25 40,25 40,10 10,40 40,70 40,55 48,55" fill="rgb(255,255,255)" fill-opacity="1.0" stroke="rgb(0,0,0)" stroke-width="2"  />
			<g>
				<title>Terpene_syn_C_2 (PF19086)
"Terpene synthase family 2, C-terminal metal binding"</title>
				<polygon class="PF19086" points="19,35 26,28 38,28 38,52 26,52 19,45" stroke-linejoin="round" width="19" height="24" fill="rgb(55,207,154)" stroke="rgb(43,165,123)" stroke-width="1" opacity="0.75" />
			</g>
		</g>
		<g>
			<title> (SOD_c20760)
hypothetical protein</title>
			<polygon class=" (SOD_c20760)
hypothetical protein" points="81,25 79,25 79,10 49,40 79,70 79,55 81,55" fill="rgb(255,255,255)" fill-opacity="1.0" stroke="rgb(0,0,0)" stroke-width="2"  />
			<g>
				<title>Methyltransf_25 (PF13649)
"Methyltransferase domain"</title>
				<polygon class="PF13649" points="60,33 65,28 70,28 70,52 65,52 60,47" stroke-linejoin="round" width="10" height="24" fill="rgb(227,135,74)" stroke="rgb(181,108,59)" stroke-width="1" opacity="0.75" />
			</g>
		</g>
		<g>
			<title>dxs (SOD_c20770)
1-deoxy-D-xylulose-5-phosphate synthase Dxs</title>
			<polygon class="dxs (SOD_c20770)
1-deoxy-D-xylulose-5-phosphate synthase Dxs" points="143,25 112,25 112,10 82,40 112,70 112,55 143,55" fill="rgb(255,255,255)" fill-opacity="1.0" stroke="rgb(0,0,0)" stroke-width="2"  />
			<g>
				<title>Transketolase_C (PF02780)
"Transketolase, C-terminal domain"</title>
				<polygon class="PF02780" points="86,40 97,29 97,51 86,40" stroke-linejoin="round" width="11" height="24" fill="rgb(76,206,101)" stroke="rgb(60,164,80)" stroke-width="1" opacity="0.75" />
			</g>
			<g>
				<title>Transket_pyr (PF02779)
"Transketolase, pyrimidine binding domain"</title>
				<rect class="PF02779" x="99" y="28" stroke-linejoin="round" width="16" height="24" fill="rgb(189,186,84)" stroke="rgb(151,148,67)" stroke-width="1" opacity="0.75" />
			</g>
			<g>
				<title>DXP_synthase_N (PF13292)
"1-deoxy-D-xylulose-5-phosphate synthase"</title>
				<rect class="PF13292" x="123" y="28" stroke-linejoin="round" width="19" height="24" fill="rgb(46,179,173)" stroke="rgb(36,143,138)" stroke-width="1" opacity="0.75" />
			</g>
		</g>
		<g>
			<title> (SOD_c20780)
hypothetical protein</title>
			<polygon class=" (SOD_c20780)
hypothetical protein" points="144,40 162,10 162,70" fill="rgb(255,255,255)" fill-opacity="1.0" stroke="rgb(0,0,0)" stroke-width="2"  />
			<g>
				<title>NUDIX (PF00293)
"NUDIX domain"</title>
				<polygon class="PF00293" points="147,40 154,28 159,28 159,52 154,52" stroke-linejoin="round" width="13" height="24" fill="rgb(92,56,187)" stroke="rgb(73,44,149)" stroke-width="1" opacity="0.75" />
			</g>
		</g>
	</g>
</svg>
