<svg version="1.1" baseProfile="full" xmlns="http://www.w3.org/2000/svg" width="1773.6" height="80">
	<g>
		<line x1="10" y1="40.0" x2="1763.6" y2="40.0" style="stroke:rgb(70,70,70); stroke-width:3 "/>
		<g>
			<title> (PluTT01m_04500)
tRNA glutamyl-Q(34) synthetase GluQRS</title>
			<polygon class=" (PluTT01m_04500)
tRNA glutamyl-Q(34) synthetase GluQRS" points="41,25 40,25 40,10 10,40 40,70 40,55 41,55" fill="rgb(255,255,255)" fill-opacity="1.0" stroke="rgb(0,0,0)" stroke-width="2"  />
			<g>
				<title>tRNA-synt_1c (PF00749)
"tRNA synthetases class I (E and Q), catalytic domain"</title>
				<polygon class="PF00749" points="14,40 26,28 40,28 40,52 26,52" stroke-linejoin="round" width="27" height="24" fill="rgb(218,142,61)" stroke="rgb(174,113,48)" stroke-width="1" opacity="0.75" />
			</g>
		</g>
		<g>
			<title>dksA (PluTT01m_04505)
RNA polymerase-binding transcription factor DksA</title>
			<polygon class="dksA (PluTT01m_04505)
RNA polymerase-binding transcription factor DksA" points="43,40 58,10 58,70" fill="rgb(255,255,255)" fill-opacity="1.0" stroke="rgb(0,0,0)" stroke-width="2"  />
			<g>
				<title>zf-dskA_traR (PF01258)
"Prokaryotic dksA/traR C4-type zinc finger"</title>
				<polygon class="PF01258" points="46,40 46,40 46,40" stroke-linejoin="round" width="3" height="24" fill="rgb(77,182,70)" stroke="rgb(61,145,56)" stroke-width="1" opacity="0.75" />
			</g>
		</g>
		<g>
			<title> (PluTT01m_04510)
DNA/RNA nuclease SfsA</title>
			<polygon class=" (PluTT01m_04510)
DNA/RNA nuclease SfsA" points="65,40 88,10 88,70" fill="rgb(255,255,255)" fill-opacity="1.0" stroke="rgb(0,0,0)" stroke-width="2"  />
			<g>
				<title>SfsA (PF03749)
"Sugar fermentation stimulation protein RE domain"</title>
				<polygon class="PF03749" points="69,40 78,28 80,28 80,52 78,52" stroke-linejoin="round" width="14" height="24" fill="rgb(191,218,94)" stroke="rgb(152,174,75)" stroke-width="1" opacity="0.75" />
			</g>
			<g>
				<title>SfsA_N (PF17746)
"SfsA N-terminal OB domain"</title>
				<rect class="PF17746" x="80" y="28" stroke-linejoin="round" width="6" height="24" fill="rgb(229,180,78)" stroke="rgb(183,144,62)" stroke-width="1" opacity="0.75" />
			</g>
		</g>
		<g>
			<title> (PluTT01m_04515)
CpmK protein</title>
			<polygon class=" (PluTT01m_04515)
CpmK protein" points="105,40 123,10 123,70" fill="rgb(255,255,255)" fill-opacity="1.0" stroke="rgb(0,0,0)" stroke-width="2"  />
		</g>
		<g>
			<title> (PluTT01m_04520)
spore coat protein CotH</title>
			<polygon class=" (PluTT01m_04520)
spore coat protein CotH" points="123,40 140,10 140,70" fill="rgb(255,255,255)" fill-opacity="1.0" stroke="rgb(0,0,0)" stroke-width="2"  />
		</g>
		<g>
			<title> (PluTT01m_04525)
spore coat protein CotH</title>
			<polygon class=" (PluTT01m_04525)
spore coat protein CotH" points="141,40 168,10 168,70" fill="rgb(255,255,255)" fill-opacity="1.0" stroke="rgb(0,0,0)" stroke-width="2"  />
			<g>
				<title>FGE-sulfatase (PF03781)
"Sulfatase-modifying factor enzyme 1"</title>
				<polygon class="PF03781" points="145,40 156,28 166,28 166,52 156,52" stroke-linejoin="round" width="25" height="24" fill="rgb(206,81,170)" stroke="rgb(164,64,136)" stroke-width="1" opacity="0.75" />
			</g>
		</g>
		<g>
			<title> (PluTT01m_04530)
DUF1933 domain-containing protein</title>
			<polygon class=" (PluTT01m_04530)
DUF1933 domain-containing protein" points="168,40 176,10 176,70" fill="rgb(255,255,255)" fill-opacity="1.0" stroke="rgb(0,0,0)" stroke-width="2"  />
			<g>
				<title>CarA_N (PF09147)
"Carbapenam-3-carboxylate synthase, N-terminal"</title>
				<polygon class="PF09147" points="171,40 175,28 176,28 176,52 175,52" stroke-linejoin="round" width="7" height="24" fill="rgb(136,101,220)" stroke="rgb(108,80,176)" stroke-width="1" opacity="0.75" />
			</g>
		</g>
		<g>
			<title> (PluTT01m_04535)
ATP-dependent helicase HrpB</title>
			<polygon class=" (PluTT01m_04535)
ATP-dependent helicase HrpB" points="187,25 240,25 240,10 270,40 240,70 240,55 187,55" fill="rgb(255,255,255)" fill-opacity="1.0" stroke="rgb(0,0,0)" stroke-width="2"  />
			<g>
				<title>DEAD (PF00270)
"DEAD/DEAH box helicase"</title>
				<rect class="PF00270" x="189" y="28" stroke-linejoin="round" width="15" height="24" fill="rgb(195,100,62)" stroke="rgb(156,80,49)" stroke-width="1" opacity="0.75" />
			</g>
			<g>
				<title>Helicase_C (PF00271)
"Helicase conserved C-terminal domain"</title>
				<rect class="PF00271" x="208" y="28" stroke-linejoin="round" width="12" height="24" fill="rgb(104,224,158)" stroke="rgb(83,179,126)" stroke-width="1" opacity="0.75" />
			</g>
			<g>
				<title>HA2 (PF04408)
"Helicase associated domain (HA2)"</title>
				<rect class="PF04408" x="227" y="28" stroke-linejoin="round" width="9" height="24" fill="rgb(142,68,179)" stroke="rgb(113,54,143)" stroke-width="1" opacity="0.75" />
			</g>
			<g>
				<title>HrpB_C (PF08482)
"ATP-dependent helicase C-terminal"</title>
				<polygon class="PF08482" points="255,30 265,40 255,50" stroke-linejoin="round" width="13" height="24" fill="rgb(214,71,97)" stroke="rgb(171,56,77)" stroke-width="1" opacity="0.75" />
			</g>
		</g>
		<g>
			<title>mrcB (PluTT01m_04540)
penicillin-binding protein 1B</title>
			<polygon class="mrcB (PluTT01m_04540)
penicillin-binding protein 1B" points="273,25 324,25 324,10 354,40 324,70 324,55 273,55" fill="rgb(255,255,255)" fill-opacity="1.0" stroke="rgb(0,0,0)" stroke-width="2"  />
			<g>
				<title>PBP1_TM (PF14812)
"Transmembrane domain of transglycosylase PBP1 at N-terminal"</title>
				<rect class="PF14812" x="273" y="28" stroke-linejoin="round" width="7" height="24" fill="rgb(108,208,95)" stroke="rgb(86,166,76)" stroke-width="1" opacity="0.75" />
			</g>
			<g>
				<title>UB2H (PF14814)
"Bifunctional transglycosylase second domain"</title>
				<rect class="PF14814" x="284" y="28" stroke-linejoin="round" width="8" height="24" fill="rgb(205,61,186)" stroke="rgb(164,48,148)" stroke-width="1" opacity="0.75" />
			</g>
			<g>
				<title>Transgly (PF00912)
"Transglycosylase"</title>
				<rect class="PF00912" x="292" y="28" stroke-linejoin="round" width="18" height="24" fill="rgb(172,107,216)" stroke="rgb(137,85,172)" stroke-width="1" opacity="0.75" />
			</g>
			<g>
				<title>Transpeptidase (PF00905)
"Penicillin binding protein transpeptidase domain"</title>
				<polygon class="PF00905" points="320,28 338,28 347,37 347,43 338,52 320,52" stroke-linejoin="round" width="27" height="24" fill="rgb(161,226,87)" stroke="rgb(128,180,69)" stroke-width="1" opacity="0.75" />
			</g>
		</g>
		<g>
			<title> (PluTT01m_04545)
killer protein of pyocin s3</title>
			<polygon class=" (PluTT01m_04545)
killer protein of pyocin s3" points="371,25 396,25 396,10 426,40 396,70 396,55 371,55" fill="rgb(255,255,255)" fill-opacity="1.0" stroke="rgb(0,0,0)" stroke-width="2"  />
			<g>
				<title>PAAR_motif (PF05488)
"PAAR motif"</title>
				<rect class="PF05488" x="371" y="28" stroke-linejoin="round" width="7" height="24" fill="rgb(184,150,70)" stroke="rgb(147,120,56)" stroke-width="1" opacity="0.75" />
			</g>
			<g>
				<title>Pyocin_S (PF06958)
"S-type Pyocin"</title>
				<polygon class="PF06958" points="399,28 410,28 412,30 412,50 410,52 399,52" stroke-linejoin="round" width="13" height="24" fill="rgb(209,185,77)" stroke="rgb(167,148,61)" stroke-width="1" opacity="0.75" />
			</g>
		</g>
		<g>
			<title> (PluTT01m_04550)
immunity protein</title>
			<polygon class=" (PluTT01m_04550)
immunity protein" points="427,10 442,40 427,70" fill="rgb(255,255,255)" fill-opacity="1.0" stroke="rgb(0,0,0)" stroke-width="2"  />
			<g>
				<title>DUF6392 (PF19929)
"Family of unknown function (DUF6392)"</title>
				<polygon class="PF19929" points="427,28 432,28 438,40 432,52 427,52" stroke-linejoin="round" width="14" height="24" fill="rgb(61,72,181)" stroke="rgb(48,57,144)" stroke-width="1" opacity="0.75" />
			</g>
		</g>
		<g>
			<title> (PluTT01m_04555)
pyocin immunity protein</title>
			<polygon class=" (PluTT01m_04555)
pyocin immunity protein" points="444,10 459,40 444,70" fill="rgb(255,255,255)" fill-opacity="1.0" stroke="rgb(0,0,0)" stroke-width="2"  />
			<g>
				<title>DUF6392 (PF19929)
"Family of unknown function (DUF6392)"</title>
				<polygon class="PF19929" points="444,28 449,28 455,40 449,52 444,52" stroke-linejoin="round" width="14" height="24" fill="rgb(61,72,181)" stroke="rgb(48,57,144)" stroke-width="1" opacity="0.75" />
			</g>
		</g>
		<g>
			<title> (PluTT01m_04560)
HNH endonuclease</title>
			<polygon class=" (PluTT01m_04560)
HNH endonuclease" points="464,10 478,40 464,70" fill="rgb(255,255,255)" fill-opacity="1.0" stroke="rgb(0,0,0)" stroke-width="2"  />
		</g>
		<g>
			<title> (PluTT01m_04565)
bacteriocin immunity protein</title>
			<polygon class=" (PluTT01m_04565)
bacteriocin immunity protein" points="478,10 486,40 478,70" fill="rgb(255,255,255)" fill-opacity="1.0" stroke="rgb(0,0,0)" stroke-width="2"  />
			<g>
				<title>Colicin_Pyocin (PF01320)
"Colicin immunity protein / pyocin immunity protein"</title>
				<polygon class="PF01320" points="478,28 479,28 483,40 479,52 478,52" stroke-linejoin="round" width="8" height="24" fill="rgb(88,174,225)" stroke="rgb(70,139,180)" stroke-width="1" opacity="0.75" />
			</g>
		</g>
		<g>
			<title> (PluTT01m_04570)
killer protein of pyocin s3</title>
			<polygon class=" (PluTT01m_04570)
killer protein of pyocin s3" points="489,10 495,40 489,70" fill="rgb(255,255,255)" fill-opacity="1.0" stroke="rgb(0,0,0)" stroke-width="2"  />
			<g>
				<title>Pyocin_S (PF06958)
"S-type Pyocin"</title>
				<polygon class="PF06958" points="489,28 489,28 491,40 489,52 489,52" stroke-linejoin="round" width="3" height="24" fill="rgb(209,185,77)" stroke="rgb(167,148,61)" stroke-width="1" opacity="0.75" />
			</g>
		</g>
		<g>
			<title> (PluTT01m_04575)
hypothetical protein</title>
			<polygon class=" (PluTT01m_04575)
hypothetical protein" points="496,10 511,40 496,70" fill="rgb(255,255,255)" fill-opacity="1.0" stroke="rgb(0,0,0)" stroke-width="2"  />
			<g>
				<title>DUF6392 (PF19929)
"Family of unknown function (DUF6392)"</title>
				<polygon class="PF19929" points="496,28 501,28 508,40 501,52 496,52" stroke-linejoin="round" width="15" height="24" fill="rgb(61,72,181)" stroke="rgb(48,57,144)" stroke-width="1" opacity="0.75" />
			</g>
		</g>
		<g>
			<title> (PluTT01m_04580)
pyocin immunity protein</title>
			<polygon class=" (PluTT01m_04580)
pyocin immunity protein" points="514,10 529,40 514,70" fill="rgb(255,255,255)" fill-opacity="1.0" stroke="rgb(0,0,0)" stroke-width="2"  />
			<g>
				<title>DUF6392 (PF19929)
"Family of unknown function (DUF6392)"</title>
				<polygon class="PF19929" points="514,28 519,28 526,40 519,52 514,52" stroke-linejoin="round" width="15" height="24" fill="rgb(61,72,181)" stroke="rgb(48,57,144)" stroke-width="1" opacity="0.75" />
			</g>
		</g>
		<g>
			<title> (PluTT01m_04585)
bacteriocin immunity protein</title>
			<polygon class=" (PluTT01m_04585)
bacteriocin immunity protein" points="531,10 539,40 531,70" fill="rgb(255,255,255)" fill-opacity="1.0" stroke="rgb(0,0,0)" stroke-width="2"  />
			<g>
				<title>Colicin_Pyocin (PF01320)
"Colicin immunity protein / pyocin immunity protein"</title>
				<polygon class="PF01320" points="531,28 532,28 536,40 532,52 531,52" stroke-linejoin="round" width="8" height="24" fill="rgb(88,174,225)" stroke="rgb(70,139,180)" stroke-width="1" opacity="0.75" />
			</g>
		</g>
		<g>
			<title> (PluTT01m_04590)
hypothetical protein</title>
			<polygon class=" (PluTT01m_04590)
hypothetical protein" points="547,10 562,40 547,70" fill="rgb(255,255,255)" fill-opacity="1.0" stroke="rgb(0,0,0)" stroke-width="2"  />
			<g>
				<title>DUF6392 (PF19929)
"Family of unknown function (DUF6392)"</title>
				<polygon class="PF19929" points="547,28 552,28 559,40 552,52 547,52" stroke-linejoin="round" width="15" height="24" fill="rgb(61,72,181)" stroke="rgb(48,57,144)" stroke-width="1" opacity="0.75" />
			</g>
		</g>
		<g>
			<title> (PluTT01m_04595)
hypothetical protein</title>
			<polygon class=" (PluTT01m_04595)
hypothetical protein" points="566,10 576,40 566,70" fill="rgb(255,255,255)" fill-opacity="1.0" stroke="rgb(0,0,0)" stroke-width="2"  />
			<g>
				<title>DUF6392 (PF19929)
"Family of unknown function (DUF6392)"</title>
				<polygon class="PF19929" points="566,28 568,28 573,40 568,52 566,52" stroke-linejoin="round" width="9" height="24" fill="rgb(61,72,181)" stroke="rgb(48,57,144)" stroke-width="1" opacity="0.75" />
			</g>
		</g>
		<g>
			<title> (PluTT01m_04600)
XRE family transcriptional regulator</title>
			<polygon class=" (PluTT01m_04600)
XRE family transcriptional regulator" points="582,10 593,40 582,70" fill="rgb(255,255,255)" fill-opacity="1.0" stroke="rgb(0,0,0)" stroke-width="2"  />
			<g>
				<title>HTH_3 (PF01381)
"Helix-turn-helix"</title>
				<polygon class="PF01381" points="583,28 585,28 588,36 588,44 585,52 583,52" stroke-linejoin="round" width="5" height="24" fill="rgb(105,79,202)" stroke="rgb(83,63,161)" stroke-width="1" opacity="0.75" />
			</g>
		</g>
		<g>
			<title> (PluTT01m_04605)
type II toxin-antitoxin system HipA family toxin</title>
			<polygon class=" (PluTT01m_04605)
type II toxin-antitoxin system HipA family toxin" points="592,25 605,25 605,10 635,40 605,70 605,55 592,55" fill="rgb(255,255,255)" fill-opacity="1.0" stroke="rgb(0,0,0)" stroke-width="2"  />
			<g>
				<title>Couple_hipA (PF13657)
"HipA N-terminal domain"</title>
				<rect class="PF13657" x="592" y="28" stroke-linejoin="round" width="11" height="24" fill="rgb(65,181,177)" stroke="rgb(52,144,141)" stroke-width="1" opacity="0.75" />
			</g>
			<g>
				<title>HipA_C (PF07804)
"HipA-like C-terminal domain"</title>
				<polygon class="PF07804" points="609,28 619,28 631,40 619,52 609,52" stroke-linejoin="round" width="24" height="24" fill="rgb(52,106,179)" stroke="rgb(41,84,143)" stroke-width="1" opacity="0.75" />
			</g>
		</g>
		<g>
			<title> (PluTT01m_04610)
non-ribosomal peptide synthetase</title>
			<polygon class=" (PluTT01m_04610)
non-ribosomal peptide synthetase" points="663,25 749,25 749,10 779,40 749,70 749,55 663,55" fill="rgb(255,255,255)" fill-opacity="1.0" stroke="rgb(0,0,0)" stroke-width="2"  />
			<g>
				<title>TubC_N (PF18563)
"TubC N-terminal docking domain"</title>
				<rect class="PF18563" x="663" y="28" stroke-linejoin="round" width="5" height="24" fill="rgb(95,217,77)" stroke="rgb(75,173,61)" stroke-width="1" opacity="0.75" />
			</g>
			<g>
				<title>Condensation (PF00668)
"Condensation domain"</title>
				<rect class="PF00668" x="670" y="28" stroke-linejoin="round" width="43" height="24" fill="rgb(224,184,98)" stroke="rgb(179,147,78)" stroke-width="1" opacity="0.75" />
			</g>
			<g>
				<title>AMP-binding (PF00501)
"AMP-binding enzyme"</title>
				<rect class="PF00501" x="718" y="28" stroke-linejoin="round" width="39" height="24" fill="rgb(60,217,223)" stroke="rgb(48,173,178)" stroke-width="1" opacity="0.75" />
			</g>
			<g>
				<title>AMP-binding_C (PF13193)
"AMP-binding enzyme C-terminal domain"</title>
				<polygon class="PF13193" points="758,28 763,28 767,32 767,48 763,52 758,52" stroke-linejoin="round" width="9" height="24" fill="rgb(182,50,118)" stroke="rgb(145,39,94)" stroke-width="1" opacity="0.75" />
			</g>
			<g>
				<title>PP-binding (PF00550)
"Phosphopantetheine attachment site"</title>
				<polygon class="PF00550" points="770,35 775,40 770,45" stroke-linejoin="round" width="6" height="24" fill="rgb(103,191,88)" stroke="rgb(82,152,70)" stroke-width="1" opacity="0.75" />
			</g>
		</g>
		<g>
			<title> (PluTT01m_04615)
non-ribosomal peptide synthetase</title>
			<polygon class=" (PluTT01m_04615)
non-ribosomal peptide synthetase" points="780,25 907,25 907,10 937,40 907,70 907,55 780,55" fill="rgb(255,255,255)" fill-opacity="1.0" stroke="rgb(0,0,0)" stroke-width="2"  />
			<g>
				<title>TubC_N (PF18563)
"TubC N-terminal docking domain"</title>
				<rect class="PF18563" x="780" y="28" stroke-linejoin="round" width="5" height="24" fill="rgb(95,217,77)" stroke="rgb(75,173,61)" stroke-width="1" opacity="0.75" />
			</g>
			<g>
				<title>Condensation (PF00668)
"Condensation domain"</title>
				<rect class="PF00668" x="787" y="28" stroke-linejoin="round" width="45" height="24" fill="rgb(224,184,98)" stroke="rgb(179,147,78)" stroke-width="1" opacity="0.75" />
			</g>
			<g>
				<title>AMP-binding (PF00501)
"AMP-binding enzyme"</title>
				<rect class="PF00501" x="835" y="28" stroke-linejoin="round" width="39" height="24" fill="rgb(60,217,223)" stroke="rgb(48,173,178)" stroke-width="1" opacity="0.75" />
			</g>
			<g>
				<title>Methyltransf_31 (PF13847)
"Methyltransferase domain"</title>
				<rect class="PF13847" x="888" y="28" stroke-linejoin="round" width="14" height="24" fill="rgb(214,74,181)" stroke="rgb(171,59,144)" stroke-width="1" opacity="0.75" />
			</g>
			<g>
				<title>PP-binding (PF00550)
"Phosphopantetheine attachment site"</title>
				<polygon class="PF00550" points="928,35 933,40 928,45" stroke-linejoin="round" width="6" height="24" fill="rgb(103,191,88)" stroke="rgb(82,152,70)" stroke-width="1" opacity="0.75" />
			</g>
		</g>
		<g>
			<title> (PluTT01m_04620)
non-ribosomal peptide synthetase</title>
			<polygon class=" (PluTT01m_04620)
non-ribosomal peptide synthetase" points="937,25 1108,25 1108,10 1138,40 1108,70 1108,55 937,55" fill="rgb(255,255,255)" fill-opacity="1.0" stroke="rgb(0,0,0)" stroke-width="2"  />
			<g>
				<title>TubC_N (PF18563)
"TubC N-terminal docking domain"</title>
				<rect class="PF18563" x="937" y="28" stroke-linejoin="round" width="5" height="24" fill="rgb(95,217,77)" stroke="rgb(75,173,61)" stroke-width="1" opacity="0.75" />
			</g>
			<g>
				<title>Condensation (PF00668)
"Condensation domain"</title>
				<rect class="PF00668" x="944" y="28" stroke-linejoin="round" width="45" height="24" fill="rgb(224,184,98)" stroke="rgb(179,147,78)" stroke-width="1" opacity="0.75" />
			</g>
			<g>
				<title>AMP-binding (PF00501)
"AMP-binding enzyme"</title>
				<rect class="PF00501" x="992" y="28" stroke-linejoin="round" width="39" height="24" fill="rgb(60,217,223)" stroke="rgb(48,173,178)" stroke-width="1" opacity="0.75" />
			</g>
			<g>
				<title>Methyltransf_31 (PF13847)
"Methyltransferase domain"</title>
				<rect class="PF13847" x="1044" y="28" stroke-linejoin="round" width="15" height="24" fill="rgb(214,74,181)" stroke="rgb(171,59,144)" stroke-width="1" opacity="0.75" />
			</g>
			<g>
				<title>PP-binding (PF00550)
"Phosphopantetheine attachment site"</title>
				<rect class="PF00550" x="1084" y="28" stroke-linejoin="round" width="6" height="24" fill="rgb(103,191,88)" stroke="rgb(82,152,70)" stroke-width="1" opacity="0.75" />
			</g>
			<g>
				<title>Condensation (PF00668)
"Condensation domain"</title>
				<polygon class="PF00668" points="1093,28 1121,28 1133,40 1121,52 1093,52" stroke-linejoin="round" width="44" height="24" fill="rgb(224,184,98)" stroke="rgb(179,147,78)" stroke-width="1" opacity="0.75" />
			</g>
		</g>
		<g>
			<title> (PluTT01m_04625)
XRE family transcriptional regulator</title>
			<polygon class=" (PluTT01m_04625)
XRE family transcriptional regulator" points="1143,40 1152,10 1152,70" fill="rgb(255,255,255)" fill-opacity="1.0" stroke="rgb(0,0,0)" stroke-width="2"  />
			<g>
				<title>HTH_3 (PF01381)
"Helix-turn-helix"</title>
				<polygon class="PF01381" points="1146,40 1148,34 1148,46" stroke-linejoin="round" width="5" height="24" fill="rgb(105,79,202)" stroke="rgb(83,63,161)" stroke-width="1" opacity="0.75" />
			</g>
		</g>
		<g>
			<title> (PluTT01m_04630)
hypothetical protein</title>
			<polygon class=" (PluTT01m_04630)
hypothetical protein" points="1152,40 1159,10 1159,70" fill="rgb(255,255,255)" fill-opacity="1.0" stroke="rgb(0,0,0)" stroke-width="2"  />
			<g>
				<title>Gp49 (PF05973)
"Phage derived protein Gp49-like (DUF891)"</title>
				<polygon class="PF05973" points="1155,40 1156,36 1156,44" stroke-linejoin="round" width="4" height="24" fill="rgb(81,198,58)" stroke="rgb(64,158,46)" stroke-width="1" opacity="0.75" />
			</g>
		</g>
		<g>
			<title> (PluTT01m_04635)
AbrB/MazE/SpoVT family DNA-binding domain-containing protein</title>
			<polygon class=" (PluTT01m_04635)
AbrB/MazE/SpoVT family DNA-binding domain-containing protein" points="1163,10 1171,40 1163,70" fill="rgb(255,255,255)" fill-opacity="1.0" stroke="rgb(0,0,0)" stroke-width="2"  />
		</g>
		<g>
			<title>hemL (PluTT01m_04640)
glutamate-1-semialdehyde 2,1-aminomutase</title>
			<polygon class="hemL (PluTT01m_04640)
glutamate-1-semialdehyde 2,1-aminomutase" points="1215,25 1203,25 1203,10 1173,40 1203,70 1203,55 1215,55" fill="rgb(255,255,255)" fill-opacity="1.0" stroke="rgb(0,0,0)" stroke-width="2"  />
			<g>
				<title>Aminotran_3 (PF00202)
"Aminotransferase class-III"</title>
				<polygon class="PF00202" points="1177,40 1189,28 1212,28 1212,52 1189,52" stroke-linejoin="round" width="39" height="24" fill="rgb(49,163,189)" stroke="rgb(39,130,151)" stroke-width="1" opacity="0.75" />
			</g>
		</g>
		<g>
			<title> (PluTT01m_04645)
DUF1460 domain-containing protein</title>
			<polygon class=" (PluTT01m_04645)
DUF1460 domain-containing protein" points="1217,40 1243,10 1243,70" fill="rgb(255,255,255)" fill-opacity="1.0" stroke="rgb(0,0,0)" stroke-width="2"  />
			<g>
				<title>DUF1460 (PF07313)
"Protein of unknown function (DUF1460)"</title>
				<polygon class="PF07313" points="1221,40 1231,28 1237,28 1237,52 1231,52" stroke-linejoin="round" width="20" height="24" fill="rgb(61,226,163)" stroke="rgb(48,180,130)" stroke-width="1" opacity="0.75" />
			</g>
		</g>
		<g>
			<title> (PluTT01m_04650)
iron-sulfur cluster insertion protein ErpA</title>
			<polygon class=" (PluTT01m_04650)
iron-sulfur cluster insertion protein ErpA" points="1254,10 1265,40 1254,70" fill="rgb(255,255,255)" fill-opacity="1.0" stroke="rgb(0,0,0)" stroke-width="2"  />
			<g>
				<title>Fe-S_biosyn (PF01521)
"Iron-sulphur cluster biosynthesis"</title>
				<polygon class="PF01521" points="1254,28 1257,28 1262,40 1257,52 1254,52" stroke-linejoin="round" width="10" height="24" fill="rgb(179,60,127)" stroke="rgb(143,47,101)" stroke-width="1" opacity="0.75" />
			</g>
		</g>
		<g>
			<title> (PluTT01m_04655)
cobalamin-binding protein</title>
			<polygon class=" (PluTT01m_04655)
cobalamin-binding protein" points="1268,40 1295,10 1295,70" fill="rgb(255,255,255)" fill-opacity="1.0" stroke="rgb(0,0,0)" stroke-width="2"  />
			<g>
				<title>Peripla_BP_2 (PF01497)
"Periplasmic binding protein"</title>
				<polygon class="PF01497" points="1272,40 1283,28 1292,28 1292,52 1283,52 1272,40" stroke-linejoin="round" width="20" height="24" fill="rgb(183,226,104)" stroke="rgb(146,180,83)" stroke-width="1" opacity="0.75" />
			</g>
		</g>
		<g>
			<title> (PluTT01m_04660)
5'-methylthioadenosine/S-adenosylhomocysteine nucleosidase</title>
			<polygon class=" (PluTT01m_04660)
5'-methylthioadenosine/S-adenosylhomocysteine nucleosidase" points="1303,40 1326,10 1326,70" fill="rgb(255,255,255)" fill-opacity="1.0" stroke="rgb(0,0,0)" stroke-width="2"  />
			<g>
				<title>PNP_UDP_1 (PF01048)
"Phosphorylase superfamily"</title>
				<polygon class="PF01048" points="1307,40 1316,28 1325,28 1325,52 1316,52" stroke-linejoin="round" width="22" height="24" fill="rgb(75,186,148)" stroke="rgb(60,148,118)" stroke-width="1" opacity="0.75" />
			</g>
		</g>
		<g>
			<title> (PluTT01m_04665)
dGTPase</title>
			<polygon class=" (PluTT01m_04665)
dGTPase" points="1330,25 1350,25 1350,10 1380,40 1350,70 1350,55 1330,55" fill="rgb(255,255,255)" fill-opacity="1.0" stroke="rgb(0,0,0)" stroke-width="2"  />
			<g>
				<title>HD (PF01966)
"HD domain"</title>
				<rect class="PF01966" x="1336" y="28" stroke-linejoin="round" width="12" height="24" fill="rgb(92,193,119)" stroke="rgb(73,154,95)" stroke-width="1" opacity="0.75" />
			</g>
			<g>
				<title>HD_assoc (PF13286)
"Phosphohydrolase-associated domain"</title>
				<polygon class="PF13286" points="1367,31 1376,40 1367,49" stroke-linejoin="round" width="13" height="24" fill="rgb(228,104,121)" stroke="rgb(182,83,96)" stroke-width="1" opacity="0.75" />
			</g>
		</g>
		<g>
			<title> (PluTT01m_04670)
two-component sensor histidine kinase BarA</title>
			<polygon class=" (PluTT01m_04670)
two-component sensor histidine kinase BarA" points="1459,25 1412,25 1412,10 1382,40 1412,70 1412,55 1459,55" fill="rgb(255,255,255)" fill-opacity="1.0" stroke="rgb(0,0,0)" stroke-width="2"  />
			<g>
				<title>Hpt (PF01627)
"Hpt domain"</title>
				<polygon class="PF01627" points="1386,40 1390,36 1390,44" stroke-linejoin="round" width="8" height="24" fill="rgb(164,204,94)" stroke="rgb(131,163,75)" stroke-width="1" opacity="0.75" />
			</g>
			<g>
				<title>Response_reg (PF00072)
"Response regulator receiver domain"</title>
				<polygon class="PF00072" points="1394,32 1398,28 1405,28 1405,52 1398,52 1394,48" stroke-linejoin="round" width="11" height="24" fill="rgb(100,107,203)" stroke="rgb(80,85,162)" stroke-width="1" opacity="0.75" />
			</g>
			<g>
				<title>HATPase_c (PF02518)
"Histidine kinase-, DNA gyrase B-, and HSP90-like ATPase"</title>
				<rect class="PF02518" x="1407" y="28" stroke-linejoin="round" width="11" height="24" fill="rgb(80,94,225)" stroke="rgb(64,75,180)" stroke-width="1" opacity="0.75" />
			</g>
			<g>
				<title>HisKA (PF00512)
"His Kinase A (phospho-acceptor) domain"</title>
				<rect class="PF00512" x="1424" y="28" stroke-linejoin="round" width="6" height="24" fill="rgb(193,125,62)" stroke="rgb(154,100,49)" stroke-width="1" opacity="0.75" />
			</g>
			<g>
				<title>HAMP_2 (PF18947)
"HAMP domain"</title>
				<rect class="PF18947" x="1434" y="28" stroke-linejoin="round" width="5" height="24" fill="rgb(205,88,60)" stroke="rgb(164,70,48)" stroke-width="1" opacity="0.75" />
			</g>
			<g>
				<title>sCache_4 (PF09984)
"Single cache domain 4"</title>
				<rect class="PF09984" x="1442" y="28" stroke-linejoin="round" width="14" height="24" fill="rgb(209,92,223)" stroke="rgb(167,73,178)" stroke-width="1" opacity="0.75" />
			</g>
		</g>
		<g>
			<title> (PluTT01m_04675)
23S rRNA (uracil(1939)-C(5))-methyltransferase RlmD</title>
			<polygon class=" (PluTT01m_04675)
23S rRNA (uracil(1939)-C(5))-methyltransferase RlmD" points="1461,25 1474,25 1474,10 1504,40 1474,70 1474,55 1461,55" fill="rgb(255,255,255)" fill-opacity="1.0" stroke="rgb(0,0,0)" stroke-width="2"  />
			<g>
				<title>TRAM (PF01938)
"TRAM domain"</title>
				<rect class="PF01938" x="1462" y="28" stroke-linejoin="round" width="5" height="24" fill="rgb(57,121,198)" stroke="rgb(45,96,158)" stroke-width="1" opacity="0.75" />
			</g>
			<g>
				<title>tRNA_U5-meth_tr (PF05958)
"tRNA (Uracil-5-)-methyltransferase"</title>
				<polygon class="PF05958" points="1470,28 1488,28 1500,40 1488,52 1470,52" stroke-linejoin="round" width="34" height="24" fill="rgb(187,48,82)" stroke="rgb(149,38,65)" stroke-width="1" opacity="0.75" />
			</g>
		</g>
		<g>
			<title> (PluTT01m_04680)
GTP diphosphokinase</title>
			<polygon class=" (PluTT01m_04680)
GTP diphosphokinase" points="1506,25 1550,25 1550,10 1580,40 1550,70 1550,55 1506,55" fill="rgb(255,255,255)" fill-opacity="1.0" stroke="rgb(0,0,0)" stroke-width="2"  />
			<g>
				<title>HD_4 (PF13328)
"HD domain"</title>
				<rect class="PF13328" x="1509" y="28" stroke-linejoin="round" width="15" height="24" fill="rgb(215,104,79)" stroke="rgb(172,83,63)" stroke-width="1" opacity="0.75" />
			</g>
			<g>
				<title>RelA_SpoT (PF04607)
"Region found in RelA / SpoT proteins"</title>
				<rect class="PF04607" x="1531" y="28" stroke-linejoin="round" width="11" height="24" fill="rgb(227,74,90)" stroke="rgb(181,59,71)" stroke-width="1" opacity="0.75" />
			</g>
			<g>
				<title>TGS (PF02824)
"TGS domain"</title>
				<rect class="PF02824" x="1546" y="28" stroke-linejoin="round" width="5" height="24" fill="rgb(201,81,163)" stroke="rgb(160,64,130)" stroke-width="1" opacity="0.75" />
			</g>
			<g>
				<title>RelA_AH_RIS (PF19296)
"RelA/SpoT, AH and RIS domains"</title>
				<polygon class="PF19296" points="1554,28 1564,28 1571,35 1571,45 1564,52 1554,52" stroke-linejoin="round" width="17" height="24" fill="rgb(186,55,136)" stroke="rgb(148,44,108)" stroke-width="1" opacity="0.75" />
			</g>
			<g>
				<title>ACT_4 (PF13291)
"ACT domain"</title>
				<polygon class="PF13291" points="1572,36 1576,40 1572,44" stroke-linejoin="round" width="7" height="24" fill="rgb(190,120,83)" stroke="rgb(152,96,66)" stroke-width="1" opacity="0.75" />
			</g>
		</g>
		<g>
			<title> (PluTT01m_04685)
nucleoside triphosphate pyrophosphohydrolase</title>
			<polygon class=" (PluTT01m_04685)
nucleoside triphosphate pyrophosphohydrolase" points="1583,10 1609,40 1583,70" fill="rgb(255,255,255)" fill-opacity="1.0" stroke="rgb(0,0,0)" stroke-width="2"  />
			<g>
				<title>MazG (PF03819)
"MazG nucleotide pyrophosphohydrolase domain"</title>
				<rect class="PF03819" x="1585" y="28" stroke-linejoin="round" width="7" height="24" fill="rgb(199,54,154)" stroke="rgb(159,43,123)" stroke-width="1" opacity="0.75" />
			</g>
			<g>
				<title>MazG (PF03819)
"MazG nucleotide pyrophosphohydrolase domain"</title>
				<polygon class="PF03819" points="1599,34 1605,40 1605,40 1599,46" stroke-linejoin="round" width="6" height="24" fill="rgb(199,54,154)" stroke="rgb(159,43,123)" stroke-width="1" opacity="0.75" />
			</g>
		</g>
		<g>
			<title>pyrG (PluTT01m_04690)
CTP synthetase</title>
			<polygon class="pyrG (PluTT01m_04690)
CTP synthetase" points="1616,25 1640,25 1640,10 1670,40 1640,70 1640,55 1616,55" fill="rgb(255,255,255)" fill-opacity="1.0" stroke="rgb(0,0,0)" stroke-width="2"  />
			<g>
				<title>CTP_synth_N (PF06418)
"CTP synthase N-terminus"</title>
				<rect class="PF06418" x="1616" y="28" stroke-linejoin="round" width="26" height="24" fill="rgb(90,189,145)" stroke="rgb(72,151,116)" stroke-width="1" opacity="0.75" />
			</g>
			<g>
				<title>GATase (PF00117)
"Glutamine amidotransferase class-I"</title>
				<polygon class="PF00117" points="1646,28 1654,28 1666,40 1654,52 1646,52" stroke-linejoin="round" width="23" height="24" fill="rgb(159,201,96)" stroke="rgb(127,160,76)" stroke-width="1" opacity="0.75" />
			</g>
		</g>
		<g>
			<title> (PluTT01m_04695)
enolase</title>
			<polygon class=" (PluTT01m_04695)
enolase" points="1673,25 1686,25 1686,10 1716,40 1686,70 1686,55 1673,55" fill="rgb(255,255,255)" fill-opacity="1.0" stroke="rgb(0,0,0)" stroke-width="2"  />
			<g>
				<title>Enolase_N (PF03952)
"Enolase, N-terminal domain"</title>
				<rect class="PF03952" x="1673" y="28" stroke-linejoin="round" width="13" height="24" fill="rgb(188,63,147)" stroke="rgb(150,50,117)" stroke-width="1" opacity="0.75" />
			</g>
			<g>
				<title>Enolase_C (PF00113)
"Enolase, C-terminal TIM barrel domain"</title>
				<polygon class="PF00113" points="1687,28 1700,28 1712,40 1700,52 1687,52" stroke-linejoin="round" width="28" height="24" fill="rgb(70,106,194)" stroke="rgb(56,84,155)" stroke-width="1" opacity="0.75" />
			</g>
		</g>
		<g>
			<title> (PluTT01m_04700)
hypothetical protein</title>
			<polygon class=" (PluTT01m_04700)
hypothetical protein" points="1727,10 1733,40 1727,70" fill="rgb(255,255,255)" fill-opacity="1.0" stroke="rgb(0,0,0)" stroke-width="2"  />
		</g>
		<g>
			<title> (PluTT01m_04705)
hypothetical protein</title>
			<polygon class=" (PluTT01m_04705)
hypothetical protein" points="1740,10 1763,40 1740,70" fill="rgb(255,255,255)" fill-opacity="1.0" stroke="rgb(0,0,0)" stroke-width="2"  />
		</g>
	</g>
</svg>
