<svg version="1.1" baseProfile="full" xmlns="http://www.w3.org/2000/svg" width="412.23333333333335" height="80">
	<g>
		<line x1="10" y1="40.0" x2="402.23333333333335" y2="40.0" style="stroke:rgb(70,70,70); stroke-width:3 "/>
		<g>
			<title> (ADK82_11800)
FMN-linked alkanal monooxygenase</title>
			<polygon class=" (ADK82_11800)
FMN-linked alkanal monooxygenase" points="43,25 40,25 40,10 10,40 40,70 40,55 43,55" fill="rgb(255,255,255)" fill-opacity="1.0" stroke="rgb(0,0,0)" stroke-width="2"  />
			<g>
				<title>Bac_luciferase (PF00296)
"Luciferase-like monooxygenase"</title>
				<polygon class="PF00296" points="14,40 26,28 43,28 43,52 26,52" stroke-linejoin="round" width="30" height="24" fill="rgb(180,112,78)" stroke="rgb(144,89,62)" stroke-width="1" opacity="0.75" />
			</g>
		</g>
		<g>
			<title> (ADK82_11805)
hypothetical protein</title>
			<polygon class=" (ADK82_11805)
hypothetical protein" points="48,40 74,10 74,70" fill="rgb(255,255,255)" fill-opacity="1.0" stroke="rgb(0,0,0)" stroke-width="2"  />
		</g>
		<g>
			<title> (ADK82_11815)
hypothetical protein</title>
			<polygon class=" (ADK82_11815)
hypothetical protein" points="100,40 127,10 127,70" fill="rgb(255,255,255)" fill-opacity="1.0" stroke="rgb(0,0,0)" stroke-width="2"  />
			<g>
				<title>Peptidase_C1 (PF00112)
"Papain family cysteine protease"</title>
				<polygon class="PF00112" points="104,40 115,28 123,28 123,52 115,52" stroke-linejoin="round" width="21" height="24" fill="rgb(78,125,201)" stroke="rgb(62,99,160)" stroke-width="1" opacity="0.75" />
			</g>
		</g>
		<g>
			<title> (ADK82_11825)
hypothetical protein</title>
			<polygon class=" (ADK82_11825)
hypothetical protein" points="155,40 179,10 179,70" fill="rgb(255,255,255)" fill-opacity="1.0" stroke="rgb(0,0,0)" stroke-width="2"  />
			<g>
				<title>TfuA (PF07812)
"TfuA-like protein"</title>
				<polygon class="PF07812" points="161,38 169,28 172,28 172,52 169,52 161,42" stroke-linejoin="round" width="11" height="24" fill="rgb(196,226,76)" stroke="rgb(156,180,60)" stroke-width="1" opacity="0.75" />
			</g>
		</g>
		<g>
			<title> (ADK82_11830)
hypothetical protein</title>
			<polygon class=" (ADK82_11830)
hypothetical protein" points="224,25 209,25 209,10 179,40 209,70 209,55 224,55" fill="rgb(255,255,255)" fill-opacity="1.0" stroke="rgb(0,0,0)" stroke-width="2"  />
			<g>
				<title>YcaO (PF02624)
"YcaO cyclodehydratase, ATP-ad Mg2+-binding"</title>
				<polygon class="PF02624" points="183,40 195,28 217,28 217,52 195,52 183,40" stroke-linejoin="round" width="34" height="24" fill="rgb(76,84,185)" stroke="rgb(60,67,148)" stroke-width="1" opacity="0.75" />
			</g>
		</g>
		<g>
			<title> (ADK82_11835)
hypothetical protein</title>
			<polygon class=" (ADK82_11835)
hypothetical protein" points="263,25 256,25 256,10 226,40 256,70 256,55 263,55" fill="rgb(255,255,255)" fill-opacity="1.0" stroke="rgb(0,0,0)" stroke-width="2"  />
			<g>
				<title>PrmA (PF06325)
"Ribosomal protein L11 methyltransferase (PrmA)"</title>
				<rect class="PF06325" x="243" y="28" stroke-linejoin="round" width="10" height="24" fill="rgb(165,213,101)" stroke="rgb(132,170,80)" stroke-width="1" opacity="0.75" />
			</g>
		</g>
		<g>
			<title> (ADK82_11845)
hypothetical protein</title>
			<polygon class=" (ADK82_11845)
hypothetical protein" points="320,25 317,25 317,10 287,40 317,70 317,55 320,55" fill="rgb(255,255,255)" fill-opacity="1.0" stroke="rgb(0,0,0)" stroke-width="2"  />
		</g>
		<g>
			<title> (ADK82_11850)
hypothetical protein</title>
			<polygon class=" (ADK82_11850)
hypothetical protein" points="350,25 350,25 350,10 320,40 350,70 350,55 350,55" fill="rgb(255,255,255)" fill-opacity="1.0" stroke="rgb(0,0,0)" stroke-width="2"  />
			<g>
				<title>HopA1 (PF17914)
"HopA1 effector protein family"</title>
				<polygon class="PF17914" points="324,40 336,28 337,28 337,52 336,52" stroke-linejoin="round" width="17" height="24" fill="rgb(77,79,213)" stroke="rgb(61,63,170)" stroke-width="1" opacity="0.75" />
			</g>
		</g>
		<g>
			<title> (ADK82_11855)
hypothetical protein</title>
			<polygon class=" (ADK82_11855)
hypothetical protein" points="354,40 382,10 382,70" fill="rgb(255,255,255)" fill-opacity="1.0" stroke="rgb(0,0,0)" stroke-width="2"  />
			<g>
				<title>APH (PF01636)
"Phosphotransferase enzyme family"</title>
				<polygon class="PF01636" points="360,38 370,28 381,28 381,52 370,52 360,42" stroke-linejoin="round" width="21" height="24" fill="rgb(106,220,228)" stroke="rgb(84,176,182)" stroke-width="1" opacity="0.75" />
			</g>
		</g>
		<g>
			<title> (ADK82_11860)
hypothetical protein</title>
			<polygon class=" (ADK82_11860)
hypothetical protein" points="393,40 401,10 401,70" fill="rgb(255,255,255)" fill-opacity="1.0" stroke="rgb(0,0,0)" stroke-width="2"  />
		</g>
	</g>
</svg>
