<svg version="1.1" baseProfile="full" xmlns="http://www.w3.org/2000/svg" width="860.3" height="80">
	<g>
		<line x1="10" y1="40.0" x2="850.3" y2="40.0" style="stroke:rgb(70,70,70); stroke-width:3 "/>
		<g>
			<title> (MEXAM1_RS33125)
SDR family oxidoreductase</title>
			<polygon class=" (MEXAM1_RS33125)
SDR family oxidoreductase" points="10,10 34,40 10,70" fill="rgb(255,255,255)" fill-opacity="1.0" stroke="rgb(0,0,0)" stroke-width="2"  />
			<g>
				<title>adh_short (PF00106)
"short chain dehydrogenase"</title>
				<polygon class="PF00106" points="10,28 21,28 28,37 28,43 21,52 10,52" stroke-linejoin="round" width="18" height="24" fill="rgb(182,219,73)" stroke="rgb(145,175,58)" stroke-width="1" opacity="0.75" />
			</g>
		</g>
		<g>
			<title> (MEXAM1_RS25395)
SDR family NAD(P)-dependent oxidoreductase</title>
			<polygon class=" (MEXAM1_RS25395)
SDR family NAD(P)-dependent oxidoreductase" points="36,25 233,25 233,10 263,40 233,70 233,55 36,55" fill="rgb(255,255,255)" fill-opacity="1.0" stroke="rgb(0,0,0)" stroke-width="2"  />
			<g>
				<title>PP-binding (PF00550)
"Phosphopantetheine attachment site"</title>
				<rect class="PF00550" x="38" y="28" stroke-linejoin="round" width="6" height="24" fill="rgb(103,191,88)" stroke="rgb(82,152,70)" stroke-width="1" opacity="0.75" />
			</g>
			<g>
				<title>ketoacyl-synt (PF00109)
"Beta-ketoacyl synthase, N-terminal domain"</title>
				<rect class="PF00109" x="51" y="28" stroke-linejoin="round" width="25" height="24" fill="rgb(112,116,228)" stroke="rgb(89,92,182)" stroke-width="1" opacity="0.75" />
			</g>
			<g>
				<title>Ketoacyl-synt_C (PF02801)
"Beta-ketoacyl synthase, C-terminal domain"</title>
				<rect class="PF02801" x="78" y="28" stroke-linejoin="round" width="11" height="24" fill="rgb(215,78,102)" stroke="rgb(172,62,81)" stroke-width="1" opacity="0.75" />
			</g>
			<g>
				<title>KAsynt_C_assoc (PF16197)
"Ketoacyl-synthetase C-terminal extension"</title>
				<rect class="PF16197" x="90" y="28" stroke-linejoin="round" width="11" height="24" fill="rgb(240,150,172)" stroke="rgb(192,120,137)" stroke-width="1" opacity="0.75" />
			</g>
			<g>
				<title>PS-DH (PF14765)
"Polyketide synthase dehydratase"</title>
				<rect class="PF14765" x="110" y="28" stroke-linejoin="round" width="27" height="24" fill="rgb(173,56,182)" stroke="rgb(138,44,145)" stroke-width="1" opacity="0.75" />
			</g>
			<g>
				<title>KR (PF08659)
"KR domain"</title>
				<rect class="PF08659" x="160" y="28" stroke-linejoin="round" width="18" height="24" fill="rgb(66,209,188)" stroke="rgb(52,167,150)" stroke-width="1" opacity="0.75" />
			</g>
			<g>
				<title>PP-binding (PF00550)
"Phosphopantetheine attachment site"</title>
				<rect class="PF00550" x="188" y="28" stroke-linejoin="round" width="6" height="24" fill="rgb(103,191,88)" stroke="rgb(82,152,70)" stroke-width="1" opacity="0.75" />
			</g>
			<g>
				<title>ketoacyl-synt (PF00109)
"Beta-ketoacyl synthase, N-terminal domain"</title>
				<rect class="PF00109" x="199" y="28" stroke-linejoin="round" width="24" height="24" fill="rgb(112,116,228)" stroke="rgb(89,92,182)" stroke-width="1" opacity="0.75" />
			</g>
			<g>
				<title>Ketoacyl-synt_C (PF02801)
"Beta-ketoacyl synthase, C-terminal domain"</title>
				<rect class="PF02801" x="225" y="28" stroke-linejoin="round" width="11" height="24" fill="rgb(215,78,102)" stroke="rgb(172,62,81)" stroke-width="1" opacity="0.75" />
			</g>
			<g>
				<title>KAsynt_C_assoc (PF16197)
"Ketoacyl-synthetase C-terminal extension"</title>
				<polygon class="PF16197" points="237,28 247,28 248,29 248,51 247,52 237,52" stroke-linejoin="round" width="11" height="24" fill="rgb(240,150,172)" stroke="rgb(192,120,137)" stroke-width="1" opacity="0.75" />
			</g>
		</g>
		<g>
			<title> (MEXAM1_RS25400)
NAD(P)-binding domain-containing protein</title>
			<polygon class=" (MEXAM1_RS25400)
NAD(P)-binding domain-containing protein" points="266,25 279,25 279,10 309,40 279,70 279,55 266,55" fill="rgb(255,255,255)" fill-opacity="1.0" stroke="rgb(0,0,0)" stroke-width="2"  />
			<g>
				<title>FMO-like (PF00743)
"Flavin-binding monooxygenase-like"</title>
				<polygon class="PF00743" points="266,28 292,28 301,37 301,43 292,52 266,52" stroke-linejoin="round" width="35" height="24" fill="rgb(203,74,151)" stroke="rgb(162,59,120)" stroke-width="1" opacity="0.75" />
			</g>
		</g>
		<g>
			<title> (MEXAM1_RS25405)
aminotransferase class III-fold pyridoxal phosphate-dependent enzyme</title>
			<polygon class=" (MEXAM1_RS25405)
aminotransferase class III-fold pyridoxal phosphate-dependent enzyme" points="310,25 447,25 447,10 477,40 447,70 447,55 310,55" fill="rgb(255,255,255)" fill-opacity="1.0" stroke="rgb(0,0,0)" stroke-width="2"  />
			<g>
				<title>PP-binding (PF00550)
"Phosphopantetheine attachment site"</title>
				<rect class="PF00550" x="315" y="28" stroke-linejoin="round" width="6" height="24" fill="rgb(103,191,88)" stroke="rgb(82,152,70)" stroke-width="1" opacity="0.75" />
			</g>
			<g>
				<title>Abhydrolase_1 (PF00561)
"alpha/beta hydrolase fold"</title>
				<rect class="PF00561" x="335" y="28" stroke-linejoin="round" width="12" height="24" fill="rgb(86,180,151)" stroke="rgb(68,144,120)" stroke-width="1" opacity="0.75" />
			</g>
			<g>
				<title>Aminotran_3 (PF00202)
"Aminotransferase class-III"</title>
				<rect class="PF00202" x="392" y="28" stroke-linejoin="round" width="33" height="24" fill="rgb(49,163,189)" stroke="rgb(39,130,151)" stroke-width="1" opacity="0.75" />
			</g>
			<g>
				<title>FMO-like (PF00743)
"Flavin-binding monooxygenase-like"</title>
				<polygon class="PF00743" points="432,28 461,28 473,40 461,52 432,52" stroke-linejoin="round" width="43" height="24" fill="rgb(203,74,151)" stroke="rgb(162,59,120)" stroke-width="1" opacity="0.75" />
			</g>
		</g>
		<g>
			<title> (MEXAM1_RS25410)
polyketide synthase</title>
			<polygon class=" (MEXAM1_RS25410)
polyketide synthase" points="479,25 548,25 548,10 578,40 548,70 548,55 479,55" fill="rgb(255,255,255)" fill-opacity="1.0" stroke="rgb(0,0,0)" stroke-width="2"  />
			<g>
				<title>ketoacyl-synt (PF00109)
"Beta-ketoacyl synthase, N-terminal domain"</title>
				<rect class="PF00109" x="480" y="28" stroke-linejoin="round" width="24" height="24" fill="rgb(112,116,228)" stroke="rgb(89,92,182)" stroke-width="1" opacity="0.75" />
			</g>
			<g>
				<title>Ketoacyl-synt_C (PF02801)
"Beta-ketoacyl synthase, C-terminal domain"</title>
				<rect class="PF02801" x="505" y="28" stroke-linejoin="round" width="12" height="24" fill="rgb(215,78,102)" stroke="rgb(172,62,81)" stroke-width="1" opacity="0.75" />
			</g>
			<g>
				<title>KAsynt_C_assoc (PF16197)
"Ketoacyl-synthetase C-terminal extension"</title>
				<rect class="PF16197" x="518" y="28" stroke-linejoin="round" width="9" height="24" fill="rgb(240,150,172)" stroke="rgb(192,120,137)" stroke-width="1" opacity="0.75" />
			</g>
		</g>
		<g>
			<title> (MEXAM1_RS25415)
acyltransferase domain-containing protein</title>
			<polygon class=" (MEXAM1_RS25415)
acyltransferase domain-containing protein" points="578,25 615,25 615,10 645,40 615,70 615,55 578,55" fill="rgb(255,255,255)" fill-opacity="1.0" stroke="rgb(0,0,0)" stroke-width="2"  />
			<g>
				<title>Acyl_transf_1 (PF00698)
"Acyl transferase domain"</title>
				<rect class="PF00698" x="578" y="28" stroke-linejoin="round" width="29" height="24" fill="rgb(59,176,209)" stroke="rgb(47,140,167)" stroke-width="1" opacity="0.75" />
			</g>
		</g>
		<g>
			<title> (MEXAM1_RS25420)
acyl carrier protein</title>
			<polygon class=" (MEXAM1_RS25420)
acyl carrier protein" points="645,10 653,40 645,70" fill="rgb(255,255,255)" fill-opacity="1.0" stroke="rgb(0,0,0)" stroke-width="2"  />
			<g>
				<title>PP-binding (PF00550)
"Phosphopantetheine attachment site"</title>
				<polygon class="PF00550" points="646,28 646,28 650,40 646,52 646,52" stroke-linejoin="round" width="6" height="24" fill="rgb(103,191,88)" stroke="rgb(82,152,70)" stroke-width="1" opacity="0.75" />
			</g>
		</g>
		<g>
			<title> (MEXAM1_RS25425)
fatty acyl-AMP ligase</title>
			<polygon class=" (MEXAM1_RS25425)
fatty acyl-AMP ligase" points="657,25 686,25 686,10 716,40 686,70 686,55 657,55" fill="rgb(255,255,255)" fill-opacity="1.0" stroke="rgb(0,0,0)" stroke-width="2"  />
			<g>
				<title>AMP-binding (PF00501)
"AMP-binding enzyme"</title>
				<polygon class="PF00501" points="659,28 699,28 703,32 703,48 699,52 659,52" stroke-linejoin="round" width="44" height="24" fill="rgb(60,217,223)" stroke="rgb(48,173,178)" stroke-width="1" opacity="0.75" />
			</g>
		</g>
		<g>
			<title> (MEXAM1_RS25430)
alpha/beta fold hydrolase</title>
			<polygon class=" (MEXAM1_RS25430)
alpha/beta fold hydrolase" points="720,10 742,40 720,70" fill="rgb(255,255,255)" fill-opacity="1.0" stroke="rgb(0,0,0)" stroke-width="2"  />
			<g>
				<title>Thioesterase (PF00975)
"Thioesterase domain"</title>
				<polygon class="PF00975" points="720,28 729,28 738,40 729,52 720,52" stroke-linejoin="round" width="20" height="24" fill="rgb(207,80,138)" stroke="rgb(165,63,110)" stroke-width="1" opacity="0.75" />
			</g>
		</g>
		<g>
			<title> (MEXAM1_RS35190)
DUF3047 domain-containing protein</title>
			<polygon class=" (MEXAM1_RS35190)
DUF3047 domain-containing protein" points="746,25 752,25 752,10 782,40 752,70 752,55 746,55" fill="rgb(255,255,255)" fill-opacity="1.0" stroke="rgb(0,0,0)" stroke-width="2"  />
			<g>
				<title>DUF3047 (PF11249)
"Protein of unknown function (DUF3047)"</title>
				<polygon class="PF11249" points="764,28 766,28 778,40 766,52 764,52" stroke-linejoin="round" width="17" height="24" fill="rgb(221,99,184)" stroke="rgb(176,79,147)" stroke-width="1" opacity="0.75" />
			</g>
		</g>
		<g>
			<title> (MEXAM1_RS25440)
cytochrome P450</title>
			<polygon class=" (MEXAM1_RS25440)
cytochrome P450" points="789,25 819,25 819,10 849,40 819,70 819,55 789,55" fill="rgb(255,255,255)" fill-opacity="1.0" stroke="rgb(0,0,0)" stroke-width="2"  />
			<g>
				<title>Rieske (PF00355)
"Rieske [2Fe-2S] domain"</title>
				<rect class="PF00355" x="789" y="28" stroke-linejoin="round" width="8" height="24" fill="rgb(186,77,145)" stroke="rgb(148,61,115)" stroke-width="1" opacity="0.75" />
			</g>
			<g>
				<title>p450 (PF00067)
"Cytochrome P450"</title>
				<polygon class="PF00067" points="802,28 833,28 845,40 833,52 802,52" stroke-linejoin="round" width="45" height="24" fill="rgb(85,216,107)" stroke="rgb(68,172,85)" stroke-width="1" opacity="0.75" />
			</g>
		</g>
	</g>
</svg>
