<svg version="1.1" baseProfile="full" xmlns="http://www.w3.org/2000/svg" width="1330.9333333333334" height="80">
	<g>
		<line x1="10" y1="40.0" x2="1320.9333333333334" y2="40.0" style="stroke:rgb(70,70,70); stroke-width:3 "/>
		<g>
			<title> (QS95_21670)
DNA mismatch repair protein MutS</title>
			<polygon class=" (QS95_21670)
DNA mismatch repair protein MutS" points="96,25 40,25 40,10 10,40 40,70 40,55 96,55" fill="rgb(255,255,255)" fill-opacity="1.0" stroke="rgb(0,0,0)" stroke-width="2"  />
			<g>
				<title>MutS_V (PF00488)
"MutS domain V"</title>
				<polygon class="PF00488" points="16,38 26,28 34,28 34,52 26,52 16,42" stroke-linejoin="round" width="18" height="24" fill="rgb(106,217,199)" stroke="rgb(84,173,159)" stroke-width="1" opacity="0.75" />
			</g>
			<g>
				<title>MutS_III (PF05192)
"MutS domain III"</title>
				<rect class="PF05192" x="39" y="28" stroke-linejoin="round" width="28" height="24" fill="rgb(87,171,208)" stroke="rgb(69,136,166)" stroke-width="1" opacity="0.75" />
			</g>
			<g>
				<title>MutS_II (PF05188)
"MutS domain II"</title>
				<rect class="PF05188" x="70" y="28" stroke-linejoin="round" width="12" height="24" fill="rgb(191,184,60)" stroke="rgb(152,147,48)" stroke-width="1" opacity="0.75" />
			</g>
			<g>
				<title>MutS_I (PF01624)
"MutS domain I"</title>
				<rect class="PF01624" x="83" y="28" stroke-linejoin="round" width="11" height="24" fill="rgb(208,180,91)" stroke="rgb(166,144,72)" stroke-width="1" opacity="0.75" />
			</g>
		</g>
		<g>
			<title> (QS95_21675)
transcriptional regulator</title>
			<polygon class=" (QS95_21675)
transcriptional regulator" points="103,10 127,40 103,70" fill="rgb(255,255,255)" fill-opacity="1.0" stroke="rgb(0,0,0)" stroke-width="2"  />
			<g>
				<title>HTH_3 (PF01381)
"Helix-turn-helix"</title>
				<rect class="PF01381" x="104" y="28" stroke-linejoin="round" width="5" height="24" fill="rgb(105,79,202)" stroke="rgb(83,63,161)" stroke-width="1" opacity="0.75" />
			</g>
			<g>
				<title>Peptidase_S24 (PF00717)
"Peptidase S24-like"</title>
				<polygon class="PF00717" points="113,28 114,28 123,40 114,52 113,52" stroke-linejoin="round" width="13" height="24" fill="rgb(180,76,105)" stroke="rgb(144,60,83)" stroke-width="1" opacity="0.75" />
			</g>
		</g>
		<g>
			<title> (QS95_21680)
hypothetical protein</title>
			<polygon class=" (QS95_21680)
hypothetical protein" points="145,10 158,40 145,70" fill="rgb(255,255,255)" fill-opacity="1.0" stroke="rgb(0,0,0)" stroke-width="2"  />
			<g>
				<title>Caudo_TAP (PF02413)
"Caudovirales tail fibre assembly protein, lambda gpK"</title>
				<polygon class="PF02413" points="146,28 149,28 155,40 149,52 146,52" stroke-linejoin="round" width="12" height="24" fill="rgb(90,214,121)" stroke="rgb(72,171,96)" stroke-width="1" opacity="0.75" />
			</g>
		</g>
		<g>
			<title> (QS95_21685)
hypothetical protein</title>
			<polygon class=" (QS95_21685)
hypothetical protein" points="165,10 178,40 165,70" fill="rgb(255,255,255)" fill-opacity="1.0" stroke="rgb(0,0,0)" stroke-width="2"  />
			<g>
				<title>Caudo_TAP (PF02413)
"Caudovirales tail fibre assembly protein, lambda gpK"</title>
				<polygon class="PF02413" points="167,28 169,28 175,40 169,52 167,52" stroke-linejoin="round" width="11" height="24" fill="rgb(90,214,121)" stroke="rgb(72,171,96)" stroke-width="1" opacity="0.75" />
			</g>
		</g>
		<g>
			<title> (QS95_21690)
pyocin R2, holin</title>
			<polygon class=" (QS95_21690)
pyocin R2, holin" points="183,10 194,40 183,70" fill="rgb(255,255,255)" fill-opacity="1.0" stroke="rgb(0,0,0)" stroke-width="2"  />
			<g>
				<title>Phage_holin_3_5 (PF16085)
"Bacteriophage holin Hol, superfamily III"</title>
				<polygon class="PF16085" points="183,28 186,28 191,40 186,52 183,52" stroke-linejoin="round" width="11" height="24" fill="rgb(49,89,183)" stroke="rgb(39,71,146)" stroke-width="1" opacity="0.75" />
			</g>
		</g>
		<g>
			<title> (QS95_21695)
hypothetical protein</title>
			<polygon class=" (QS95_21695)
hypothetical protein" points="197,10 214,40 197,70" fill="rgb(255,255,255)" fill-opacity="1.0" stroke="rgb(0,0,0)" stroke-width="2"  />
		</g>
		<g>
			<title> (QS95_21700)
baseplate assembly protein</title>
			<polygon class=" (QS95_21700)
baseplate assembly protein" points="214,10 234,40 214,70" fill="rgb(255,255,255)" fill-opacity="1.0" stroke="rgb(0,0,0)" stroke-width="2"  />
			<g>
				<title>Phage_base_V (PF04717)
"Type VI secretion system/phage-baseplate injector OB domain"</title>
				<polygon class="PF04717" points="217,28 222,28 223,29 223,51 222,52 217,52" stroke-linejoin="round" width="6" height="24" fill="rgb(72,223,189)" stroke="rgb(57,178,151)" stroke-width="1" opacity="0.75" />
			</g>
		</g>
		<g>
			<title> (QS95_21705)
phage baseplate protein</title>
			<polygon class=" (QS95_21705)
phage baseplate protein" points="235,10 246,40 235,70" fill="rgb(255,255,255)" fill-opacity="1.0" stroke="rgb(0,0,0)" stroke-width="2"  />
		</g>
		<g>
			<title> (QS95_21710)
baseplate J protein</title>
			<polygon class=" (QS95_21710)
baseplate J protein" points="246,25 249,25 249,10 279,40 249,70 249,55 246,55" fill="rgb(255,255,255)" fill-opacity="1.0" stroke="rgb(0,0,0)" stroke-width="2"  />
			<g>
				<title>Baseplate_J (PF04865)
"Baseplate J-like protein"</title>
				<polygon class="PF04865" points="258,28 262,28 274,40 262,52 258,52" stroke-linejoin="round" width="17" height="24" fill="rgb(156,184,58)" stroke="rgb(124,147,46)" stroke-width="1" opacity="0.75" />
			</g>
		</g>
		<g>
			<title> (QS95_21715)
tail protein</title>
			<polygon class=" (QS95_21715)
tail protein" points="279,10 300,40 279,70" fill="rgb(255,255,255)" fill-opacity="1.0" stroke="rgb(0,0,0)" stroke-width="2"  />
			<g>
				<title>Tail_P2_I (PF09684)
"Phage tail protein (Tail_P2_I)"</title>
				<polygon class="PF09684" points="280,28 288,28 293,36 293,44 288,52 280,52" stroke-linejoin="round" width="13" height="24" fill="rgb(216,86,54)" stroke="rgb(172,68,43)" stroke-width="1" opacity="0.75" />
			</g>
		</g>
		<g>
			<title> (QS95_21730)
hypothetical protein</title>
			<polygon class=" (QS95_21730)
hypothetical protein" points="401,10 419,40 401,70" fill="rgb(255,255,255)" fill-opacity="1.0" stroke="rgb(0,0,0)" stroke-width="2"  />
			<g>
				<title>DUF4376 (PF14301)
"Domain of unknown function (DUF4376)"</title>
				<polygon class="PF14301" points="407,28 408,28 415,40 408,52 407,52" stroke-linejoin="round" width="9" height="24" fill="rgb(60,180,171)" stroke="rgb(48,144,136)" stroke-width="1" opacity="0.75" />
			</g>
		</g>
		<g>
			<title> (QS95_21735)
hypothetical protein</title>
			<polygon class=" (QS95_21735)
hypothetical protein" points="422,10 428,40 422,70" fill="rgb(255,255,255)" fill-opacity="1.0" stroke="rgb(0,0,0)" stroke-width="2"  />
		</g>
		<g>
			<title> (QS95_21740)
tail protein</title>
			<polygon class=" (QS95_21740)
tail protein" points="429,25 437,25 437,10 467,40 437,70 437,55 429,55" fill="rgb(255,255,255)" fill-opacity="1.0" stroke="rgb(0,0,0)" stroke-width="2"  />
		</g>
		<g>
			<title> (QS95_21745)
phage tail protein</title>
			<polygon class=" (QS95_21745)
phage tail protein" points="468,10 484,40 468,70" fill="rgb(255,255,255)" fill-opacity="1.0" stroke="rgb(0,0,0)" stroke-width="2"  />
			<g>
				<title>Phage_tube (PF04985)
"Phage tail tube protein FII"</title>
				<polygon class="PF04985" points="468,28 474,28 481,40 474,52 468,52" stroke-linejoin="round" width="15" height="24" fill="rgb(186,72,96)" stroke="rgb(148,57,76)" stroke-width="1" opacity="0.75" />
			</g>
		</g>
		<g>
			<title> (QS95_21750)
hypothetical protein</title>
			<polygon class=" (QS95_21750)
hypothetical protein" points="488,10 507,40 488,70" fill="rgb(255,255,255)" fill-opacity="1.0" stroke="rgb(0,0,0)" stroke-width="2"  />
			<g>
				<title>Phage_TAC_7 (PF10109)
"Phage tail assembly chaperone proteins, E, or 41 or 14"</title>
				<polygon class="PF10109" points="498,31 503,40 498,49" stroke-linejoin="round" width="7" height="24" fill="rgb(142,59,179)" stroke="rgb(113,47,143)" stroke-width="1" opacity="0.75" />
			</g>
		</g>
		<g>
			<title> (QS95_21755)
phage tape measture bacteriocin</title>
			<polygon class=" (QS95_21755)
phage tape measture bacteriocin" points="511,25 556,25 556,10 586,40 556,70 556,55 511,55" fill="rgb(255,255,255)" fill-opacity="1.0" stroke="rgb(0,0,0)" stroke-width="2"  />
			<g>
				<title>PhageMin_Tail (PF10145)
"Phage-related minor tail protein"</title>
				<rect class="PF10145" x="525" y="28" stroke-linejoin="round" width="20" height="24" fill="rgb(218,104,225)" stroke="rgb(174,83,180)" stroke-width="1" opacity="0.75" />
			</g>
		</g>
		<g>
			<title> (QS95_21760)
phage-like protein</title>
			<polygon class=" (QS95_21760)
phage-like protein" points="587,10 599,40 587,70" fill="rgb(255,255,255)" fill-opacity="1.0" stroke="rgb(0,0,0)" stroke-width="2"  />
			<g>
				<title>Phage_P2_GpU (PF06995)
"Phage P2 GpU"</title>
				<polygon class="PF06995" points="587,28 591,28 596,40 591,52 587,52" stroke-linejoin="round" width="11" height="24" fill="rgb(87,154,184)" stroke="rgb(69,123,147)" stroke-width="1" opacity="0.75" />
			</g>
		</g>
		<g>
			<title> (QS95_21765)
tail protein</title>
			<polygon class=" (QS95_21765)
tail protein" points="599,10 606,40 599,70" fill="rgb(255,255,255)" fill-opacity="1.0" stroke="rgb(0,0,0)" stroke-width="2"  />
			<g>
				<title>Phage_tail_X (PF05489)
"Phage Tail Protein X"</title>
				<polygon class="PF05489" points="599,28 599,28 603,40 599,52 599,52" stroke-linejoin="round" width="6" height="24" fill="rgb(65,200,194)" stroke="rgb(51,160,155)" stroke-width="1" opacity="0.75" />
			</g>
		</g>
		<g>
			<title> (QS95_21770)
phage-like tail protein</title>
			<polygon class=" (QS95_21770)
phage-like tail protein" points="607,25 611,25 611,10 641,40 611,70 611,55 607,55" fill="rgb(255,255,255)" fill-opacity="1.0" stroke="rgb(0,0,0)" stroke-width="2"  />
		</g>
		<g>
			<title> (QS95_21775)
prophage PSSSM-04</title>
			<polygon class=" (QS95_21775)
prophage PSSSM-04" points="643,10 662,40 643,70" fill="rgb(255,255,255)" fill-opacity="1.0" stroke="rgb(0,0,0)" stroke-width="2"  />
		</g>
		<g>
			<title> (QS95_21780)
hypothetical protein</title>
			<polygon class=" (QS95_21780)
hypothetical protein" points="662,10 668,40 662,70" fill="rgb(255,255,255)" fill-opacity="1.0" stroke="rgb(0,0,0)" stroke-width="2"  />
			<g>
				<title>DUF2635 (PF10948)
"Protein of unknown function (DUF2635)"</title>
				<polygon class="PF10948" points="662,28 662,28 664,40 662,52 662,52" stroke-linejoin="round" width="4" height="24" fill="rgb(174,93,205)" stroke="rgb(139,74,164)" stroke-width="1" opacity="0.75" />
			</g>
		</g>
		<g>
			<title> (QS95_21785)
tail sheath protein</title>
			<polygon class=" (QS95_21785)
tail sheath protein" points="668,25 687,25 687,10 717,40 687,70 687,55 668,55" fill="rgb(255,255,255)" fill-opacity="1.0" stroke="rgb(0,0,0)" stroke-width="2"  />
			<g>
				<title>Phage_sheath_1 (PF04984)
"Phage tail sheath protein subtilisin-like domain"</title>
				<polygon class="PF04984" points="688,28 701,28 704,31 704,49 701,52 688,52" stroke-linejoin="round" width="16" height="24" fill="rgb(173,209,71)" stroke="rgb(138,167,56)" stroke-width="1" opacity="0.75" />
			</g>
			<g>
				<title>Phage_sheath_1C (PF17482)
"Phage tail sheath C-terminal domain"</title>
				<polygon class="PF17482" points="705,32 713,40 705,48" stroke-linejoin="round" width="11" height="24" fill="rgb(64,208,189)" stroke="rgb(51,166,151)" stroke-width="1" opacity="0.75" />
			</g>
		</g>
		<g>
			<title> (QS95_21790)
phage tail protein</title>
			<polygon class=" (QS95_21790)
phage tail protein" points="720,10 731,40 720,70" fill="rgb(255,255,255)" fill-opacity="1.0" stroke="rgb(0,0,0)" stroke-width="2"  />
			<g>
				<title>Tail_tube (PF10618)
"Phage tail tube protein"</title>
				<polygon class="PF10618" points="720,28 723,28 728,40 723,52 720,52" stroke-linejoin="round" width="11" height="24" fill="rgb(169,71,196)" stroke="rgb(135,56,156)" stroke-width="1" opacity="0.75" />
			</g>
		</g>
		<g>
			<title> (QS95_21795)
ArsR family transcriptional regulator</title>
			<polygon class=" (QS95_21795)
ArsR family transcriptional regulator" points="732,10 741,40 732,70" fill="rgb(255,255,255)" fill-opacity="1.0" stroke="rgb(0,0,0)" stroke-width="2"  />
			<g>
				<title>Phage_TAC_7 (PF10109)
"Phage tail assembly chaperone proteins, E, or 41 or 14"</title>
				<polygon class="PF10109" points="732,28 734,28 738,40 734,52 732,52" stroke-linejoin="round" width="8" height="24" fill="rgb(142,59,179)" stroke="rgb(113,47,143)" stroke-width="1" opacity="0.75" />
			</g>
		</g>
		<g>
			<title> (QS95_21800)
tail protein</title>
			<polygon class=" (QS95_21800)
tail protein" points="746,25 775,25 775,10 805,40 775,70 775,55 746,55" fill="rgb(255,255,255)" fill-opacity="1.0" stroke="rgb(0,0,0)" stroke-width="2"  />
		</g>
		<g>
			<title> (QS95_21805)
2-hydroxyacid dehydrogenase</title>
			<polygon class=" (QS95_21805)
2-hydroxyacid dehydrogenase" points="805,25 816,25 816,10 846,40 816,70 816,55 805,55" fill="rgb(255,255,255)" fill-opacity="1.0" stroke="rgb(0,0,0)" stroke-width="2"  />
			<g>
				<title>DNA_circ_N (PF07157)
"DNA circularisation protein N-terminus"</title>
				<rect class="PF07157" x="805" y="28" stroke-linejoin="round" width="8" height="24" fill="rgb(212,88,150)" stroke="rgb(169,70,120)" stroke-width="1" opacity="0.75" />
			</g>
		</g>
		<g>
			<title> (QS95_21810)
baseplate protein</title>
			<polygon class=" (QS95_21810)
baseplate protein" points="846,25 850,25 850,10 880,40 850,70 850,55 846,55" fill="rgb(255,255,255)" fill-opacity="1.0" stroke="rgb(0,0,0)" stroke-width="2"  />
			<g>
				<title>Phage_GPD (PF05954)
"Phage tail baseplate hub (GPD)"</title>
				<polygon class="PF05954" points="848,28 864,28 876,40 864,52 848,52" stroke-linejoin="round" width="29" height="24" fill="rgb(123,216,82)" stroke="rgb(98,172,65)" stroke-width="1" opacity="0.75" />
			</g>
		</g>
		<g>
			<title> (QS95_21815)
phage assembly protein</title>
			<polygon class=" (QS95_21815)
phage assembly protein" points="885,10 902,40 885,70" fill="rgb(255,255,255)" fill-opacity="1.0" stroke="rgb(0,0,0)" stroke-width="2"  />
			<g>
				<title>Phage_Mu_Gp45 (PF06890)
"Bacteriophage Mu Gp45 spike protein"</title>
				<polygon class="PF06890" points="886,28 891,28 892,29 892,51 891,52 886,52" stroke-linejoin="round" width="6" height="24" fill="rgb(188,67,203)" stroke="rgb(150,53,162)" stroke-width="1" opacity="0.75" />
			</g>
			<g>
				<title>Apex (PF18946)
"GpV Apex motif"</title>
				<polygon class="PF18946" points="899,40 898,40 899,40" stroke-linejoin="round" width="2" height="24" fill="rgb(97,149,219)" stroke="rgb(77,119,175)" stroke-width="1" opacity="0.75" />
			</g>
		</g>
		<g>
			<title> (QS95_21820)
phage GP46</title>
			<polygon class=" (QS95_21820)
phage GP46" points="902,10 915,40 902,70" fill="rgb(255,255,255)" fill-opacity="1.0" stroke="rgb(0,0,0)" stroke-width="2"  />
			<g>
				<title>GP46 (PF07409)
"Phage protein GP46"</title>
				<polygon class="PF07409" points="903,28 906,28 912,40 906,52 903,52" stroke-linejoin="round" width="10" height="24" fill="rgb(100,179,226)" stroke="rgb(80,143,180)" stroke-width="1" opacity="0.75" />
			</g>
		</g>
		<g>
			<title> (QS95_21825)
baseplate J protein</title>
			<polygon class=" (QS95_21825)
baseplate J protein" points="915,25 919,25 919,10 949,40 919,70 919,55 915,55" fill="rgb(255,255,255)" fill-opacity="1.0" stroke="rgb(0,0,0)" stroke-width="2"  />
			<g>
				<title>Baseplate_J (PF04865)
"Baseplate J-like protein"</title>
				<polygon class="PF04865" points="921,28 933,28 945,40 933,52 921,52" stroke-linejoin="round" width="25" height="24" fill="rgb(156,184,58)" stroke="rgb(124,147,46)" stroke-width="1" opacity="0.75" />
			</g>
		</g>
		<g>
			<title> (QS95_21830)
phage tail protein</title>
			<polygon class=" (QS95_21830)
phage tail protein" points="950,10 970,40 950,70" fill="rgb(255,255,255)" fill-opacity="1.0" stroke="rgb(0,0,0)" stroke-width="2"  />
			<g>
				<title>Phage_Mu_Gp48 (PF10076)
"Bacteriophage Mu-like, Gp48"</title>
				<polygon class="PF10076" points="951,28 958,28 966,40 958,52 951,52" stroke-linejoin="round" width="18" height="24" fill="rgb(109,191,51)" stroke="rgb(87,152,40)" stroke-width="1" opacity="0.75" />
			</g>
		</g>
		<g>
			<title> (QS95_21835)
hypothetical protein</title>
			<polygon class=" (QS95_21835)
hypothetical protein" points="970,10 994,40 970,70" fill="rgb(255,255,255)" fill-opacity="1.0" stroke="rgb(0,0,0)" stroke-width="2"  />
		</g>
		<g>
			<title> (QS95_21840)
Caudovirales tail fiber assembly protein</title>
			<polygon class=" (QS95_21840)
Caudovirales tail fiber assembly protein" points="995,10 1009,40 995,70" fill="rgb(255,255,255)" fill-opacity="1.0" stroke="rgb(0,0,0)" stroke-width="2"  />
			<g>
				<title>Phage_tail_APC (PF16778)
"Phage tail assembly chaperone protein"</title>
				<polygon class="PF16778" points="1001,30 1005,40 1001,50" stroke-linejoin="round" width="6" height="24" fill="rgb(210,123,95)" stroke="rgb(168,98,76)" stroke-width="1" opacity="0.75" />
			</g>
		</g>
		<g>
			<title> (QS95_21845)
phage tail protein</title>
			<polygon class=" (QS95_21845)
phage tail protein" points="1011,25 1017,25 1017,10 1047,40 1017,70 1017,55 1011,55" fill="rgb(255,255,255)" fill-opacity="1.0" stroke="rgb(0,0,0)" stroke-width="2"  />
		</g>
		<g>
			<title> (QS95_21850)
phage tail protein</title>
			<polygon class=" (QS95_21850)
phage tail protein" points="1047,10 1065,40 1047,70" fill="rgb(255,255,255)" fill-opacity="1.0" stroke="rgb(0,0,0)" stroke-width="2"  />
			<g>
				<title>Caudo_TAP (PF02413)
"Caudovirales tail fibre assembly protein, lambda gpK"</title>
				<polygon class="PF02413" points="1053,28 1054,28 1062,40 1054,52 1053,52" stroke-linejoin="round" width="12" height="24" fill="rgb(90,214,121)" stroke="rgb(72,171,96)" stroke-width="1" opacity="0.75" />
			</g>
		</g>
		<g>
			<title> (QS95_21855)
hypothetical protein</title>
			<polygon class=" (QS95_21855)
hypothetical protein" points="1067,25 1067,25 1067,10 1097,40 1067,70 1067,55 1067,55" fill="rgb(255,255,255)" fill-opacity="1.0" stroke="rgb(0,0,0)" stroke-width="2"  />
		</g>
		<g>
			<title> (QS95_21860)
hypothetical protein</title>
			<polygon class=" (QS95_21860)
hypothetical protein" points="1098,10 1113,40 1098,70" fill="rgb(255,255,255)" fill-opacity="1.0" stroke="rgb(0,0,0)" stroke-width="2"  />
			<g>
				<title>Phage_tail_APC (PF16778)
"Phage tail assembly chaperone protein"</title>
				<polygon class="PF16778" points="1106,32 1110,40 1106,48" stroke-linejoin="round" width="6" height="24" fill="rgb(210,123,95)" stroke="rgb(168,98,76)" stroke-width="1" opacity="0.75" />
			</g>
		</g>
		<g>
			<title> (QS95_21865)
tail fiber protein</title>
			<polygon class=" (QS95_21865)
tail fiber protein" points="1115,25 1115,25 1115,10 1145,40 1115,70 1115,55 1115,55" fill="rgb(255,255,255)" fill-opacity="1.0" stroke="rgb(0,0,0)" stroke-width="2"  />
		</g>
		<g>
			<title> (QS95_21870)
hypothetical protein</title>
			<polygon class=" (QS95_21870)
hypothetical protein" points="1145,10 1159,40 1145,70" fill="rgb(255,255,255)" fill-opacity="1.0" stroke="rgb(0,0,0)" stroke-width="2"  />
			<g>
				<title>Phage_tail_APC (PF16778)
"Phage tail assembly chaperone protein"</title>
				<polygon class="PF16778" points="1151,30 1156,40 1151,50" stroke-linejoin="round" width="6" height="24" fill="rgb(210,123,95)" stroke="rgb(168,98,76)" stroke-width="1" opacity="0.75" />
			</g>
		</g>
		<g>
			<title> (QS95_21875)
carbohydrate-binding protein CenC</title>
			<polygon class=" (QS95_21875)
carbohydrate-binding protein CenC" points="1161,25 1171,25 1171,10 1201,40 1171,70 1171,55 1161,55" fill="rgb(255,255,255)" fill-opacity="1.0" stroke="rgb(0,0,0)" stroke-width="2"  />
			<g>
				<title>CBM_4_9 (PF02018)
"Carbohydrate binding domain"</title>
				<rect class="PF02018" x="1169" y="28" stroke-linejoin="round" width="15" height="24" fill="rgb(206,67,169)" stroke="rgb(164,53,135)" stroke-width="1" opacity="0.75" />
			</g>
		</g>
		<g>
			<title> (QS95_21880)
hypothetical protein</title>
			<polygon class=" (QS95_21880)
hypothetical protein" points="1202,10 1210,40 1202,70" fill="rgb(255,255,255)" fill-opacity="1.0" stroke="rgb(0,0,0)" stroke-width="2"  />
		</g>
		<g>
			<title> (QS95_21885)
lysozyme</title>
			<polygon class=" (QS95_21885)
lysozyme" points="1212,10 1230,40 1212,70" fill="rgb(255,255,255)" fill-opacity="1.0" stroke="rgb(0,0,0)" stroke-width="2"  />
			<g>
				<title>Glyco_hydro_19 (PF00182)
"Chitinase class I"</title>
				<polygon class="PF00182" points="1214,28 1219,28 1227,40 1227,40 1219,52 1214,52" stroke-linejoin="round" width="13" height="24" fill="rgb(105,170,214)" stroke="rgb(84,135,171)" stroke-width="1" opacity="0.75" />
			</g>
		</g>
		<g>
			<title> (QS95_21890)
lysozyme</title>
			<polygon class=" (QS95_21890)
lysozyme" points="1230,10 1247,40 1230,70" fill="rgb(255,255,255)" fill-opacity="1.0" stroke="rgb(0,0,0)" stroke-width="2"  />
			<g>
				<title>Phage_lysis (PF03245)
"Bacteriophage Rz lysis protein"</title>
				<polygon class="PF03245" points="1233,28 1237,28 1244,40 1237,52 1233,52" stroke-linejoin="round" width="13" height="24" fill="rgb(85,67,211)" stroke="rgb(68,53,168)" stroke-width="1" opacity="0.75" />
			</g>
		</g>
		<g>
			<title> (QS95_21895)
damage-inducible protein CinA</title>
			<polygon class=" (QS95_21895)
damage-inducible protein CinA" points="1250,10 1266,40 1250,70" fill="rgb(255,255,255)" fill-opacity="1.0" stroke="rgb(0,0,0)" stroke-width="2"  />
			<g>
				<title>CinA (PF02464)
"Competence-damaged protein"</title>
				<polygon class="PF02464" points="1250,28 1256,28 1263,40 1256,52 1250,52" stroke-linejoin="round" width="15" height="24" fill="rgb(137,71,217)" stroke="rgb(109,56,173)" stroke-width="1" opacity="0.75" />
			</g>
		</g>
		<g>
			<title> (QS95_21900)
recombinase RecA</title>
			<polygon class=" (QS95_21900)
recombinase RecA" points="1269,25 1274,25 1274,10 1304,40 1274,70 1274,55 1269,55" fill="rgb(255,255,255)" fill-opacity="1.0" stroke="rgb(0,0,0)" stroke-width="2"  />
			<g>
				<title>RecA (PF00154)
"recA bacterial DNA recombination protein"</title>
				<polygon class="PF00154" points="1269,28 1288,28 1295,35 1295,45 1288,52 1269,52" stroke-linejoin="round" width="26" height="24" fill="rgb(191,79,162)" stroke="rgb(152,63,129)" stroke-width="1" opacity="0.75" />
			</g>
		</g>
		<g>
			<title> (QS95_21905)
recombinase RecX</title>
			<polygon class=" (QS95_21905)
recombinase RecX" points="1305,10 1320,40 1305,70" fill="rgb(255,255,255)" fill-opacity="1.0" stroke="rgb(0,0,0)" stroke-width="2"  />
			<g>
				<title>RecX (PF02631)
"RecX family"</title>
				<polygon class="PF02631" points="1308,28 1310,28 1317,40 1310,52 1308,52" stroke-linejoin="round" width="12" height="24" fill="rgb(212,115,80)" stroke="rgb(169,92,64)" stroke-width="1" opacity="0.75" />
			</g>
		</g>
	</g>
</svg>
