<svg version="1.1" baseProfile="full" xmlns="http://www.w3.org/2000/svg" width="1241.6" height="80">
	<g>
		<line x1="10" y1="40.0" x2="1231.6" y2="40.0" style="stroke:rgb(70,70,70); stroke-width:3 "/>
		<g>
			<title>
hypothetical protein</title>
			<polygon class="
hypothetical protein" points="10,40 24,10 24,70" fill="rgb(255,255,255)" fill-opacity="1.0" stroke="rgb(0,0,0)" stroke-width="2"  />
		</g>
		<g>
			<title>saqI
SaqI</title>
			<polygon class="saqI
SaqI" points="47,25 55,25 55,10 85,40 55,70 55,55 47,55" fill="rgb(255,255,255)" fill-opacity="1.0" stroke="rgb(0,0,0)" stroke-width="2"  />
		</g>
		<g>
			<title>saqP
SaqP</title>
			<polygon class="saqP
SaqP" points="91,25 91,25 91,10 121,40 91,70 91,55 91,55" fill="rgb(255,255,255)" fill-opacity="1.0" stroke="rgb(0,0,0)" stroke-width="2"  />
		</g>
		<g>
			<title>saqE
SaqE</title>
			<polygon class="saqE
SaqE" points="130,25 149,25 149,10 179,40 149,70 149,55 130,55" fill="rgb(255,255,255)" fill-opacity="1.0" stroke="rgb(0,0,0)" stroke-width="2"  />
			<g>
				<title>FAD_binding_3 (PF01494)
"FAD binding domain"</title>
				<polygon class="PF01494" points="130,28 162,28 163,29 163,51 162,52 130,52" stroke-linejoin="round" width="33" height="24" fill="rgb(182,175,59)" stroke="rgb(145,140,47)" stroke-width="1" opacity="0.75" />
			</g>
		</g>
		<g>
			<title>saqF
SaqF</title>
			<polygon class="saqF
SaqF" points="180,10 191,40 180,70" fill="rgb(255,255,255)" fill-opacity="1.0" stroke="rgb(0,0,0)" stroke-width="2"  />
			<g>
				<title>Cyclase_polyket (PF04673)
"Polyketide synthesis cyclase"</title>
				<polygon class="PF04673" points="180,28 183,28 187,40 183,52 180,52" stroke-linejoin="round" width="10" height="24" fill="rgb(49,187,78)" stroke="rgb(39,149,62)" stroke-width="1" opacity="0.75" />
			</g>
		</g>
		<g>
			<title>saqA
SaqA</title>
			<polygon class="saqA
SaqA" points="191,25 203,25 203,10 233,40 203,70 203,55 191,55" fill="rgb(255,255,255)" fill-opacity="1.0" stroke="rgb(0,0,0)" stroke-width="2"  />
			<g>
				<title>ketoacyl-synt (PF00109)
"Beta-ketoacyl synthase, N-terminal domain"</title>
				<rect class="PF00109" x="191" y="28" stroke-linejoin="round" width="25" height="24" fill="rgb(112,116,228)" stroke="rgb(89,92,182)" stroke-width="1" opacity="0.75" />
			</g>
			<g>
				<title>Ketoacyl-synt_C (PF02801)
"Beta-ketoacyl synthase, C-terminal domain"</title>
				<polygon class="PF02801" points="217,28 217,28 228,39 228,41 217,52 217,52" stroke-linejoin="round" width="11" height="24" fill="rgb(215,78,102)" stroke="rgb(172,62,81)" stroke-width="1" opacity="0.75" />
			</g>
		</g>
		<g>
			<title>saqB
SaqB</title>
			<polygon class="saqB
SaqB" points="233,25 243,25 243,10 273,40 243,70 243,55 233,55" fill="rgb(255,255,255)" fill-opacity="1.0" stroke="rgb(0,0,0)" stroke-width="2"  />
			<g>
				<title>ketoacyl-synt (PF00109)
"Beta-ketoacyl synthase, N-terminal domain"</title>
				<rect class="PF00109" x="233" y="28" stroke-linejoin="round" width="24" height="24" fill="rgb(112,116,228)" stroke="rgb(89,92,182)" stroke-width="1" opacity="0.75" />
			</g>
			<g>
				<title>Ketoacyl-synt_C (PF02801)
"Beta-ketoacyl synthase, C-terminal domain"</title>
				<polygon class="PF02801" points="258,29 269,40 269,40 258,51" stroke-linejoin="round" width="11" height="24" fill="rgb(215,78,102)" stroke="rgb(172,62,81)" stroke-width="1" opacity="0.75" />
			</g>
		</g>
		<g>
			<title>saqC
SaqC</title>
			<polygon class="saqC
SaqC" points="275,10 284,40 275,70" fill="rgb(255,255,255)" fill-opacity="1.0" stroke="rgb(0,0,0)" stroke-width="2"  />
			<g>
				<title>PP-binding (PF00550)
"Phosphopantetheine attachment site"</title>
				<polygon class="PF00550" points="275,28 276,28 280,40 276,52 275,52" stroke-linejoin="round" width="7" height="24" fill="rgb(103,191,88)" stroke="rgb(82,152,70)" stroke-width="1" opacity="0.75" />
			</g>
		</g>
		<g>
			<title>saqD
SaqD</title>
			<polygon class="saqD
SaqD" points="285,10 310,40 285,70" fill="rgb(255,255,255)" fill-opacity="1.0" stroke="rgb(0,0,0)" stroke-width="2"  />
			<g>
				<title>adh_short (PF00106)
"short chain dehydrogenase"</title>
				<polygon class="PF00106" points="285,28 296,28 304,37 304,43 296,52 285,52" stroke-linejoin="round" width="19" height="24" fill="rgb(182,219,73)" stroke="rgb(145,175,58)" stroke-width="1" opacity="0.75" />
			</g>
		</g>
		<g>
			<title>saqL
SaqL</title>
			<polygon class="saqL
SaqL" points="312,25 313,25 313,10 343,40 313,70 313,55 312,55" fill="rgb(255,255,255)" fill-opacity="1.0" stroke="rgb(0,0,0)" stroke-width="2"  />
			<g>
				<title>Polyketide_cyc2 (PF10604)
"Polyketide cyclase / dehydrase and lipid transport"</title>
				<rect class="PF10604" x="312" y="28" stroke-linejoin="round" width="14" height="24" fill="rgb(105,204,74)" stroke="rgb(84,163,59)" stroke-width="1" opacity="0.75" />
			</g>
			<g>
				<title>Polyketide_cyc (PF03364)
"Polyketide cyclase / dehydrase and lipid transport"</title>
				<polygon class="PF03364" points="328,29 339,40 328,51" stroke-linejoin="round" width="12" height="24" fill="rgb(221,94,106)" stroke="rgb(176,75,84)" stroke-width="1" opacity="0.75" />
			</g>
		</g>
		<g>
			<title>saqM
SaqM</title>
			<polygon class="saqM
SaqM" points="346,25 365,25 365,10 395,40 365,70 365,55 346,55" fill="rgb(255,255,255)" fill-opacity="1.0" stroke="rgb(0,0,0)" stroke-width="2"  />
			<g>
				<title>FAD_binding_3 (PF01494)
"FAD binding domain"</title>
				<rect class="PF01494" x="346" y="28" stroke-linejoin="round" width="32" height="24" fill="rgb(182,175,59)" stroke="rgb(145,140,47)" stroke-width="1" opacity="0.75" />
			</g>
		</g>
		<g>
			<title>saqN
SaqN</title>
			<polygon class="saqN
SaqN" points="396,10 421,40 396,70" fill="rgb(255,255,255)" fill-opacity="1.0" stroke="rgb(0,0,0)" stroke-width="2"  />
			<g>
				<title>adh_short_C2 (PF13561)
"Enoyl-(Acyl carrier protein) reductase"</title>
				<polygon class="PF13561" points="397,28 407,28 417,40 407,52 397,52" stroke-linejoin="round" width="23" height="24" fill="rgb(73,205,127)" stroke="rgb(58,164,101)" stroke-width="1" opacity="0.75" />
			</g>
		</g>
		<g>
			<title>saqO
SaqO</title>
			<polygon class="saqO
SaqO" points="425,10 444,40 425,70" fill="rgb(255,255,255)" fill-opacity="1.0" stroke="rgb(0,0,0)" stroke-width="2"  />
			<g>
				<title>FMN_red (PF03358)
"NADPH-dependent FMN reductase"</title>
				<polygon class="PF03358" points="425,28 433,28 439,38 439,42 433,52 425,52" stroke-linejoin="round" width="14" height="24" fill="rgb(90,228,61)" stroke="rgb(72,182,48)" stroke-width="1" opacity="0.75" />
			</g>
		</g>
		<g>
			<title>saqGT1
SaqGT1</title>
			<polygon class="saqGT1
SaqGT1" points="446,25 458,25 458,10 488,40 458,70 458,55 446,55" fill="rgb(255,255,255)" fill-opacity="1.0" stroke="rgb(0,0,0)" stroke-width="2"  />
			<g>
				<title>DUF1205 (PF06722)
"Protein of unknown function (DUF1205)"</title>
				<polygon class="PF06722" points="466,28 472,28 475,31 475,49 472,52 466,52" stroke-linejoin="round" width="9" height="24" fill="rgb(200,129,88)" stroke="rgb(160,103,70)" stroke-width="1" opacity="0.75" />
			</g>
		</g>
		<g>
			<title>saqJ
SaqJ</title>
			<polygon class="saqJ
SaqJ" points="489,25 506,25 506,10 536,40 506,70 506,55 489,55" fill="rgb(255,255,255)" fill-opacity="1.0" stroke="rgb(0,0,0)" stroke-width="2"  />
			<g>
				<title>MFS_1 (PF07690)
"Major Facilitator Superfamily"</title>
				<polygon class="PF07690" points="491,28 519,28 530,39 530,41 519,52 491,52" stroke-linejoin="round" width="39" height="24" fill="rgb(193,224,74)" stroke="rgb(154,179,59)" stroke-width="1" opacity="0.75" />
			</g>
		</g>
		<g>
			<title>saqGT2
SaqGT2</title>
			<polygon class="saqGT2
SaqGT2" points="536,25 550,25 550,10 580,40 550,70 550,55 536,55" fill="rgb(255,255,255)" fill-opacity="1.0" stroke="rgb(0,0,0)" stroke-width="2"  />
			<g>
				<title>DUF1205 (PF06722)
"Protein of unknown function (DUF1205)"</title>
				<polygon class="PF06722" points="557,28 564,28 566,30 566,50 564,52 557,52" stroke-linejoin="round" width="9" height="24" fill="rgb(200,129,88)" stroke="rgb(160,103,70)" stroke-width="1" opacity="0.75" />
			</g>
		</g>
		<g>
			<title>saqGT3
SaqGT3</title>
			<polygon class="saqGT3
SaqGT3" points="580,25 590,25 590,10 620,40 590,70 590,55 580,55" fill="rgb(255,255,255)" fill-opacity="1.0" stroke="rgb(0,0,0)" stroke-width="2"  />
			<g>
				<title>DUF1205 (PF06722)
"Protein of unknown function (DUF1205)"</title>
				<polygon class="PF06722" points="597,28 604,28 607,31 607,49 604,52 597,52" stroke-linejoin="round" width="10" height="24" fill="rgb(200,129,88)" stroke="rgb(160,103,70)" stroke-width="1" opacity="0.75" />
			</g>
		</g>
		<g>
			<title>saqGT4
SaqGT4</title>
			<polygon class="saqGT4
SaqGT4" points="621,25 630,25 630,10 660,40 630,70 630,55 621,55" fill="rgb(255,255,255)" fill-opacity="1.0" stroke="rgb(0,0,0)" stroke-width="2"  />
			<g>
				<title>DUF1205 (PF06722)
"Protein of unknown function (DUF1205)"</title>
				<polygon class="PF06722" points="638,28 644,28 648,32 648,48 644,52 638,52" stroke-linejoin="round" width="10" height="24" fill="rgb(200,129,88)" stroke="rgb(160,103,70)" stroke-width="1" opacity="0.75" />
			</g>
		</g>
		<g>
			<title>saqZ1
SaqZ1</title>
			<polygon class="saqZ1
SaqZ1" points="660,10 680,40 660,70" fill="rgb(255,255,255)" fill-opacity="1.0" stroke="rgb(0,0,0)" stroke-width="2"  />
			<g>
				<title>dTDP_sugar_isom (PF00908)
"dTDP-4-dehydrorhamnose 3,5-epimerase"</title>
				<polygon class="PF00908" points="660,28 668,28 676,40 668,52 660,52" stroke-linejoin="round" width="17" height="24" fill="rgb(184,89,121)" stroke="rgb(147,71,96)" stroke-width="1" opacity="0.75" />
			</g>
		</g>
		<g>
			<title>saqR1
SaqR1</title>
			<polygon class="saqR1
SaqR1" points="680,40 696,10 696,70" fill="rgb(255,255,255)" fill-opacity="1.0" stroke="rgb(0,0,0)" stroke-width="2"  />
			<g>
				<title>MerR-DNA-bind (PF09278)
"MerR, DNA binding"</title>
				<polygon class="PF09278" points="684,38 690,28 690,28 690,52 690,52 684,42" stroke-linejoin="round" width="6" height="24" fill="rgb(152,80,196)" stroke="rgb(121,64,156)" stroke-width="1" opacity="0.75" />
			</g>
		</g>
		<g>
			<title>saqK
SaqK</title>
			<polygon class="saqK
SaqK" points="696,40 716,10 716,70" fill="rgb(255,255,255)" fill-opacity="1.0" stroke="rgb(0,0,0)" stroke-width="2"  />
			<g>
				<title>TetR_N (PF00440)
"Bacterial regulatory proteins, tetR family"</title>
				<rect class="PF00440" x="710" y="28" stroke-linejoin="round" width="4" height="24" fill="rgb(73,212,190)" stroke="rgb(58,169,152)" stroke-width="1" opacity="0.75" />
			</g>
		</g>
		<g>
			<title>saqJ1
SaqJ1</title>
			<polygon class="saqJ1
SaqJ1" points="721,25 742,25 742,10 772,40 742,70 742,55 721,55" fill="rgb(255,255,255)" fill-opacity="1.0" stroke="rgb(0,0,0)" stroke-width="2"  />
			<g>
				<title>MFS_1 (PF07690)
"Major Facilitator Superfamily"</title>
				<polygon class="PF07690" points="724,28 756,28 763,35 763,45 756,52 724,52" stroke-linejoin="round" width="39" height="24" fill="rgb(193,224,74)" stroke="rgb(154,179,59)" stroke-width="1" opacity="0.75" />
			</g>
		</g>
		<g>
			<title>saqGT5
SaqGT5</title>
			<polygon class="saqGT5
SaqGT5" points="784,25 792,25 792,10 822,40 792,70 792,55 784,55" fill="rgb(255,255,255)" fill-opacity="1.0" stroke="rgb(0,0,0)" stroke-width="2"  />
			<g>
				<title>DUF1205 (PF06722)
"Protein of unknown function (DUF1205)"</title>
				<polygon class="PF06722" points="801,28 806,28 810,32 810,48 806,52 801,52" stroke-linejoin="round" width="9" height="24" fill="rgb(200,129,88)" stroke="rgb(160,103,70)" stroke-width="1" opacity="0.75" />
			</g>
			<g>
				<title>UDPGT (PF00201)
"UDP-glucoronosyl and UDP-glucosyl transferase"</title>
				<polygon class="PF00201" points="810,32 818,40 810,48" stroke-linejoin="round" width="10" height="24" fill="rgb(225,150,107)" stroke="rgb(180,120,85)" stroke-width="1" opacity="0.75" />
			</g>
		</g>
		<g>
			<title>saqG
SaqG</title>
			<polygon class="saqG
SaqG" points="822,25 827,25 827,10 857,40 827,70 827,55 822,55" fill="rgb(255,255,255)" fill-opacity="1.0" stroke="rgb(0,0,0)" stroke-width="2"  />
			<g>
				<title>NTP_transferase (PF00483)
"Nucleotidyl transferase"</title>
				<polygon class="PF00483" points="822,28 841,28 845,32 845,48 841,52 822,52" stroke-linejoin="round" width="23" height="24" fill="rgb(198,101,87)" stroke="rgb(158,80,69)" stroke-width="1" opacity="0.75" />
			</g>
		</g>
		<g>
			<title>saqH
SaqH</title>
			<polygon class="saqH
SaqH" points="858,25 860,25 860,10 890,40 860,70 860,55 858,55" fill="rgb(255,255,255)" fill-opacity="1.0" stroke="rgb(0,0,0)" stroke-width="2"  />
			<g>
				<title>GDP_Man_Dehyd (PF16363)
"GDP-mannose 4,6 dehydratase"</title>
				<polygon class="PF16363" points="858,28 874,28 886,40 874,52 858,52" stroke-linejoin="round" width="30" height="24" fill="rgb(162,221,65)" stroke="rgb(129,176,51)" stroke-width="1" opacity="0.75" />
			</g>
		</g>
		<g>
			<title>saqZ3
SaqZ3</title>
			<polygon class="saqZ3
SaqZ3" points="893,25 895,25 895,10 925,40 895,70 895,55 893,55" fill="rgb(255,255,255)" fill-opacity="1.0" stroke="rgb(0,0,0)" stroke-width="2"  />
			<g>
				<title>Epimerase (PF01370)
"NAD dependent epimerase/dehydratase family"</title>
				<polygon class="PF01370" points="893,28 909,28 916,35 916,45 909,52 893,52" stroke-linejoin="round" width="23" height="24" fill="rgb(98,102,214)" stroke="rgb(78,81,171)" stroke-width="1" opacity="0.75" />
			</g>
		</g>
		<g>
			<title>saqQ
SaqQ</title>
			<polygon class="saqQ
SaqQ" points="925,25 938,25 938,10 968,40 938,70 938,55 925,55" fill="rgb(255,255,255)" fill-opacity="1.0" stroke="rgb(0,0,0)" stroke-width="2"  />
			<g>
				<title>DegT_DnrJ_EryC1 (PF01041)
"DegT/DnrJ/EryC1/StrS aminotransferase family"</title>
				<polygon class="PF01041" points="929,28 952,28 964,40 952,52 929,52" stroke-linejoin="round" width="38" height="24" fill="rgb(59,139,191)" stroke="rgb(47,111,152)" stroke-width="1" opacity="0.75" />
			</g>
		</g>
		<g>
			<title>saqGT6
SaqGT6</title>
			<polygon class="saqGT6
SaqGT6" points="969,25 980,25 980,10 1010,40 980,70 980,55 969,55" fill="rgb(255,255,255)" fill-opacity="1.0" stroke="rgb(0,0,0)" stroke-width="2"  />
			<g>
				<title>DUF1205 (PF06722)
"Protein of unknown function (DUF1205)"</title>
				<polygon class="PF06722" points="989,28 994,28 998,32 998,48 994,52 989,52" stroke-linejoin="round" width="9" height="24" fill="rgb(200,129,88)" stroke="rgb(160,103,70)" stroke-width="1" opacity="0.75" />
			</g>
		</g>
		<g>
			<title>saqR
SaqR</title>
			<polygon class="saqR
SaqR" points="1012,10 1037,40 1012,70" fill="rgb(255,255,255)" fill-opacity="1.0" stroke="rgb(0,0,0)" stroke-width="2"  />
			<g>
				<title>Epimerase (PF01370)
"NAD dependent epimerase/dehydratase family"</title>
				<polygon class="PF01370" points="1012,28 1023,28 1028,34 1028,46 1023,52 1012,52" stroke-linejoin="round" width="16" height="24" fill="rgb(98,102,214)" stroke="rgb(78,81,171)" stroke-width="1" opacity="0.75" />
			</g>
		</g>
		<g>
			<title>saqS
SaqS</title>
			<polygon class="saqS
SaqS" points="1038,25 1054,25 1054,10 1084,40 1054,70 1054,55 1038,55" fill="rgb(255,255,255)" fill-opacity="1.0" stroke="rgb(0,0,0)" stroke-width="2"  />
			<g>
				<title>Hexose_dehydrat (PF03559)
"NDP-hexose 2,3-dehydratase"</title>
				<rect class="PF03559" x="1042" y="28" stroke-linejoin="round" width="20" height="24" fill="rgb(74,201,66)" stroke="rgb(59,160,52)" stroke-width="1" opacity="0.75" />
			</g>
			<g>
				<title>Hexose_dehydrat (PF03559)
"NDP-hexose 2,3-dehydratase"</title>
				<polygon class="PF03559" points="1063,28 1068,28 1080,40 1068,52 1063,52" stroke-linejoin="round" width="20" height="24" fill="rgb(74,201,66)" stroke="rgb(59,160,52)" stroke-width="1" opacity="0.75" />
			</g>
		</g>
		<g>
			<title>saqT
SaqT</title>
			<polygon class="saqT
SaqT" points="1085,25 1088,25 1088,10 1118,40 1088,70 1088,55 1085,55" fill="rgb(255,255,255)" fill-opacity="1.0" stroke="rgb(0,0,0)" stroke-width="2"  />
			<g>
				<title>GFO_IDH_MocA (PF01408)
"Oxidoreductase family, NAD-binding Rossmann fold"</title>
				<rect class="PF01408" x="1085" y="28" stroke-linejoin="round" width="11" height="24" fill="rgb(76,117,190)" stroke="rgb(60,93,152)" stroke-width="1" opacity="0.75" />
			</g>
		</g>
		<g>
			<title>saqW
SaqW</title>
			<polygon class="saqW
SaqW" points="1129,25 1148,25 1148,10 1178,40 1148,70 1148,55 1129,55" fill="rgb(255,255,255)" fill-opacity="1.0" stroke="rgb(0,0,0)" stroke-width="2"  />
			<g>
				<title>FAD_binding_4 (PF01565)
"FAD binding domain"</title>
				<rect class="PF01565" x="1131" y="28" stroke-linejoin="round" width="13" height="24" fill="rgb(226,88,136)" stroke="rgb(180,70,108)" stroke-width="1" opacity="0.75" />
			</g>
			<g>
				<title>BBE (PF08031)
"Berberine and berberine like"</title>
				<polygon class="PF08031" points="1172,38 1174,40 1172,42" stroke-linejoin="round" width="5" height="24" fill="rgb(210,73,83)" stroke="rgb(168,58,66)" stroke-width="1" opacity="0.75" />
			</g>
		</g>
		<g>
			<title>
hypothetical protein</title>
			<polygon class="
hypothetical protein" points="1181,40 1196,10 1196,70" fill="rgb(255,255,255)" fill-opacity="1.0" stroke="rgb(0,0,0)" stroke-width="2"  />
		</g>
		<g>
			<title>
hypothetical protein</title>
			<polygon class="
hypothetical protein" points="1216,25 1211,25 1211,10 1181,40 1211,70 1211,55 1216,55" fill="rgb(255,255,255)" fill-opacity="1.0" stroke="rgb(0,0,0)" stroke-width="2"  />
			<g>
				<title>F420H2_quin_red (PF04075)
"F420H(2)-dependent quinone reductase"</title>
				<polygon class="PF04075" points="1185,40 1193,32 1193,48" stroke-linejoin="round" width="12" height="24" fill="rgb(184,92,208)" stroke="rgb(147,73,166)" stroke-width="1" opacity="0.75" />
			</g>
			<g>
				<title>DSBA (PF01323)
"DSBA-like thioredoxin domain"</title>
				<polygon class="PF01323" points="1196,29 1197,28 1215,28 1215,52 1197,52 1196,51" stroke-linejoin="round" width="19" height="24" fill="rgb(221,114,99)" stroke="rgb(176,91,79)" stroke-width="1" opacity="0.75" />
			</g>
		</g>
	</g>
</svg>
