<svg version="1.1" baseProfile="full" xmlns="http://www.w3.org/2000/svg" width="413.46666666666664" height="80">
	<g>
		<line x1="10" y1="40.0" x2="403.46666666666664" y2="40.0" style="stroke:rgb(70,70,70); stroke-width:3 "/>
		<g>
			<title> (MDIKOOEB_00002)
response regulator transcription factor</title>
			<polygon class=" (MDIKOOEB_00002)
response regulator transcription factor" points="43,10 67,40 43,70" fill="rgb(255,255,255)" fill-opacity="1.0" stroke="rgb(0,0,0)" stroke-width="2"  />
			<g>
				<title>Response_reg (PF00072)
"Response regulator receiver domain"</title>
				<polygon class="PF00072" points="43,28 54,28 55,30 55,50 54,52 43,52" stroke-linejoin="round" width="12" height="24" fill="rgb(100,107,203)" stroke="rgb(80,85,162)" stroke-width="1" opacity="0.75" />
			</g>
			<g>
				<title>LytTR (PF04397)
"LytTr DNA-binding domain"</title>
				<polygon class="PF04397" points="57,32 63,40 57,48" stroke-linejoin="round" width="9" height="24" fill="rgb(207,76,174)" stroke="rgb(165,60,139)" stroke-width="1" opacity="0.75" />
			</g>
		</g>
		<g>
			<title> (MDIKOOEB_00003)
GHKL domain protein</title>
			<polygon class=" (MDIKOOEB_00003)
GHKL domain protein" points="68,25 82,25 82,10 112,40 82,70 82,55 68,55" fill="rgb(255,255,255)" fill-opacity="1.0" stroke="rgb(0,0,0)" stroke-width="2"  />
			<g>
				<title>HATPase_c_5 (PF14501)
"GHKL domain"</title>
				<polygon class="PF14501" points="101,34 107,40 101,46" stroke-linejoin="round" width="10" height="24" fill="rgb(137,71,210)" stroke="rgb(109,56,168)" stroke-width="1" opacity="0.75" />
			</g>
		</g>
		<g>
			<title> (MDIKOOEB_00004)
ComC/BlpC family leader-containingpheromone/bacteriocin</title>
			<polygon class=" (MDIKOOEB_00004)
ComC/BlpC family leader-containingpheromone/bacteriocin" points="113,40 117,10 117,70" fill="rgb(255,255,255)" fill-opacity="1.0" stroke="rgb(0,0,0)" stroke-width="2"  />
			<g>
				<title>ComC (PF03047)
"COMC family"</title>
				<polygon class="PF03047" points="116,40 117,34 117,46" stroke-linejoin="round" width="2" height="24" fill="rgb(94,149,201)" stroke="rgb(75,119,160)" stroke-width="1" opacity="0.75" />
			</g>
		</g>
		<g>
			<title> (MDIKOOEB_00005)
peptide cleavage/export ABC transporter</title>
			<polygon class=" (MDIKOOEB_00005)
peptide cleavage/export ABC transporter" points="190,25 149,25 149,10 119,40 149,70 149,55 190,55" fill="rgb(255,255,255)" fill-opacity="1.0" stroke="rgb(0,0,0)" stroke-width="2"  />
			<g>
				<title>ABC_tran (PF00005)
"ABC transporter"</title>
				<polygon class="PF00005" points="125,38 135,28 139,28 139,52 135,52 125,42" stroke-linejoin="round" width="14" height="24" fill="rgb(129,201,63)" stroke="rgb(103,160,50)" stroke-width="1" opacity="0.75" />
			</g>
			<g>
				<title>ABC_membrane (PF00664)
"ABC transporter transmembrane region"</title>
				<rect class="PF00664" x="147" y="28" stroke-linejoin="round" width="27" height="24" fill="rgb(149,226,73)" stroke="rgb(119,180,58)" stroke-width="1" opacity="0.75" />
			</g>
			<g>
				<title>Peptidase_C39 (PF03412)
"Peptidase C39 family"</title>
				<rect class="PF03412" x="176" y="28" stroke-linejoin="round" width="13" height="24" fill="rgb(214,226,77)" stroke="rgb(171,180,61)" stroke-width="1" opacity="0.75" />
			</g>
		</g>
		<g>
			<title>
hypothetical protein</title>
			<polygon class="
hypothetical protein" points="211,10 216,40 211,70" fill="rgb(255,255,255)" fill-opacity="1.0" stroke="rgb(0,0,0)" stroke-width="2"  />
		</g>
		<g>
			<title> (MDIKOOEB_00007)
Blp family class II bacteriocin</title>
			<polygon class=" (MDIKOOEB_00007)
Blp family class II bacteriocin" points="226,10 233,40 226,70" fill="rgb(255,255,255)" fill-opacity="1.0" stroke="rgb(0,0,0)" stroke-width="2"  />
			<g>
				<title>Bacteriocin_IIc (PF10439)
"Bacteriocin class II with double-glycine leader peptide"</title>
				<polygon class="PF10439" points="226,28 226,28 230,40 226,52 226,52" stroke-linejoin="round" width="7" height="24" fill="rgb(158,186,86)" stroke="rgb(126,148,68)" stroke-width="1" opacity="0.75" />
			</g>
		</g>
		<g>
			<title> (MDIKOOEB_00008)
hypothetical protein</title>
			<polygon class=" (MDIKOOEB_00008)
hypothetical protein" points="234,10 240,40 234,70" fill="rgb(255,255,255)" fill-opacity="1.0" stroke="rgb(0,0,0)" stroke-width="2"  />
		</g>
		<g>
			<title> (MDIKOOEB_00009)
hypothetical protein</title>
			<polygon class=" (MDIKOOEB_00009)
hypothetical protein" points="241,10 248,40 241,70" fill="rgb(255,255,255)" fill-opacity="1.0" stroke="rgb(0,0,0)" stroke-width="2"  />
		</g>
		<g>
			<title> (MDIKOOEB_00010)
hypothetical protein</title>
			<polygon class=" (MDIKOOEB_00010)
hypothetical protein" points="247,10 257,40 247,70" fill="rgb(255,255,255)" fill-opacity="1.0" stroke="rgb(0,0,0)" stroke-width="2"  />
		</g>
		<g>
			<title> (MDIKOOEB_00011)
ubericin K</title>
			<polygon class=" (MDIKOOEB_00011)
ubericin K" points="264,10 272,40 264,70" fill="rgb(255,255,255)" fill-opacity="1.0" stroke="rgb(0,0,0)" stroke-width="2"  />
		</g>
		<g>
			<title> (MDIKOOEB_00012)
bacteriocin immunity protein</title>
			<polygon class=" (MDIKOOEB_00012)
bacteriocin immunity protein" points="272,10 282,40 272,70" fill="rgb(255,255,255)" fill-opacity="1.0" stroke="rgb(0,0,0)" stroke-width="2"  />
			<g>
				<title>EntA_Immun (PF08951)
"Enterocin A Immunity"</title>
				<polygon class="PF08951" points="272,28 274,28 278,40 274,52 272,52" stroke-linejoin="round" width="7" height="24" fill="rgb(192,143,75)" stroke="rgb(153,114,60)" stroke-width="1" opacity="0.75" />
			</g>
		</g>
		<g>
			<title> (MDIKOOEB_00013)
hypothetical protein</title>
			<polygon class=" (MDIKOOEB_00013)
hypothetical protein" points="290,10 301,40 290,70" fill="rgb(255,255,255)" fill-opacity="1.0" stroke="rgb(0,0,0)" stroke-width="2"  />
		</g>
		<g>
			<title> (MDIKOOEB_00014)
bacteriocin</title>
			<polygon class=" (MDIKOOEB_00014)
bacteriocin" points="310,10 317,40 310,70" fill="rgb(255,255,255)" fill-opacity="1.0" stroke="rgb(0,0,0)" stroke-width="2"  />
		</g>
		<g>
			<title> (MDIKOOEB_00015)
bacteriocin immunity protein</title>
			<polygon class=" (MDIKOOEB_00015)
bacteriocin immunity protein" points="319,10 330,40 319,70" fill="rgb(255,255,255)" fill-opacity="1.0" stroke="rgb(0,0,0)" stroke-width="2"  />
			<g>
				<title>EntA_Immun (PF08951)
"Enterocin A Immunity"</title>
				<polygon class="PF08951" points="320,28 322,28 327,40 327,40 322,52 320,52" stroke-linejoin="round" width="7" height="24" fill="rgb(192,143,75)" stroke="rgb(153,114,60)" stroke-width="1" opacity="0.75" />
			</g>
		</g>
		<g>
			<title> (MDIKOOEB_00016)
hypothetical protein</title>
			<polygon class=" (MDIKOOEB_00016)
hypothetical protein" points="342,10 354,40 342,70" fill="rgb(255,255,255)" fill-opacity="1.0" stroke="rgb(0,0,0)" stroke-width="2"  />
		</g>
		<g>
			<title> (MDIKOOEB_00017)
bacteriocin immunity protein</title>
			<polygon class=" (MDIKOOEB_00017)
bacteriocin immunity protein" points="358,10 368,40 358,70" fill="rgb(255,255,255)" fill-opacity="1.0" stroke="rgb(0,0,0)" stroke-width="2"  />
			<g>
				<title>EntA_Immun (PF08951)
"Enterocin A Immunity"</title>
				<polygon class="PF08951" points="359,28 360,28 364,40 360,52 359,52" stroke-linejoin="round" width="7" height="24" fill="rgb(192,143,75)" stroke="rgb(153,114,60)" stroke-width="1" opacity="0.75" />
			</g>
		</g>
	</g>
</svg>
