<svg version="1.1" baseProfile="full" xmlns="http://www.w3.org/2000/svg" width="389.6666666666667" height="80">
	<g>
		<line x1="10" y1="40.0" x2="379.6666666666667" y2="40.0" style="stroke:rgb(70,70,70); stroke-width:3 "/>
		<g>
			<title>bmp10
Bmp10, Ferredoxin Reductase</title>
			<polygon class="bmp10
Bmp10, Ferredoxin Reductase" points="49,25 40,25 40,10 10,40 40,70 40,55 49,55" fill="rgb(255,255,255)" fill-opacity="1.0" stroke="rgb(0,0,0)" stroke-width="2"  />
			<g>
				<title>Reductase_C (PF14759)
"Reductase C-terminal"</title>
				<polygon class="PF14759" points="14,40 16,38 16,42" stroke-linejoin="round" width="6" height="24" fill="rgb(71,86,184)" stroke="rgb(56,68,147)" stroke-width="1" opacity="0.75" />
			</g>
			<g>
				<title>Pyr_redox_2 (PF07992)
"Pyridine nucleotide-disulphide oxidoreductase"</title>
				<polygon class="PF07992" points="18,36 26,28 48,28 48,52 26,52 18,44" stroke-linejoin="round" width="30" height="24" fill="rgb(83,223,167)" stroke="rgb(66,178,133)" stroke-width="1" opacity="0.75" />
			</g>
		</g>
		<g>
			<title>bmp9
Bmp9, Ferredoxin</title>
			<polygon class="bmp9
Bmp9, Ferredoxin" points="50,40 60,10 60,70" fill="rgb(255,255,255)" fill-opacity="1.0" stroke="rgb(0,0,0)" stroke-width="2"  />
			<g>
				<title>Fer2 (PF00111)
"2Fe-2S iron-sulfur cluster binding domain"</title>
				<polygon class="PF00111" points="53,40 57,28 59,28 59,52 57,52" stroke-linejoin="round" width="8" height="24" fill="rgb(60,59,191)" stroke="rgb(48,47,152)" stroke-width="1" opacity="0.75" />
			</g>
		</g>
		<g>
			<title>bmp8
bmp8</title>
			<polygon class="bmp8
bmp8" points="61,40 80,10 80,70" fill="rgb(255,255,255)" fill-opacity="1.0" stroke="rgb(0,0,0)" stroke-width="2"  />
		</g>
		<g>
			<title>bmp1
Bmp1, ACP-TE didomain</title>
			<polygon class="bmp1
Bmp1, ACP-TE didomain" points="89,25 94,25 94,10 124,40 94,70 94,55 89,55" fill="rgb(255,255,255)" fill-opacity="1.0" stroke="rgb(0,0,0)" stroke-width="2"  />
			<g>
				<title>PP-binding (PF00550)
"Phosphopantetheine attachment site"</title>
				<rect class="PF00550" x="89" y="28" stroke-linejoin="round" width="6" height="24" fill="rgb(103,191,88)" stroke="rgb(82,152,70)" stroke-width="1" opacity="0.75" />
			</g>
			<g>
				<title>Abhydrolase_6 (PF12697)
"Alpha/beta hydrolase family"</title>
				<polygon class="PF12697" points="101,28 108,28 120,40 108,52 101,52" stroke-linejoin="round" width="21" height="24" fill="rgb(113,71,219)" stroke="rgb(90,56,175)" stroke-width="1" opacity="0.75" />
			</g>
		</g>
		<g>
			<title>bmp2
Bmp2, Flavin-dependent pyrroly-S-ACP brominase</title>
			<polygon class="bmp2
Bmp2, Flavin-dependent pyrroly-S-ACP brominase" points="124,25 134,25 134,10 164,40 134,70 134,55 124,55" fill="rgb(255,255,255)" fill-opacity="1.0" stroke="rgb(0,0,0)" stroke-width="2"  />
			<g>
				<title>Trp_halogenase (PF04820)
"Tryptophan halogenase"</title>
				<polygon class="PF04820" points="132,28 148,28 159,39 159,41 148,52 132,52" stroke-linejoin="round" width="27" height="24" fill="rgb(179,74,194)" stroke="rgb(143,59,155)" stroke-width="1" opacity="0.75" />
			</g>
		</g>
		<g>
			<title>bmp3
Bmp3, Flavin-dependent prolyl-S-ACP dehydrogenase</title>
			<polygon class="bmp3
Bmp3, Flavin-dependent prolyl-S-ACP dehydrogenase" points="165,25 173,25 173,10 203,40 173,70 173,55 165,55" fill="rgb(255,255,255)" fill-opacity="1.0" stroke="rgb(0,0,0)" stroke-width="2"  />
			<g>
				<title>Acyl-CoA_dh_N (PF02771)
"Acyl-CoA dehydrogenase, N-terminal domain"</title>
				<rect class="PF02771" x="165" y="28" stroke-linejoin="round" width="11" height="24" fill="rgb(105,135,218)" stroke="rgb(84,108,174)" stroke-width="1" opacity="0.75" />
			</g>
			<g>
				<title>Acyl-CoA_dh_M (PF02770)
"Acyl-CoA dehydrogenase, middle domain"</title>
				<rect class="PF02770" x="177" y="28" stroke-linejoin="round" width="9" height="24" fill="rgb(225,186,97)" stroke="rgb(180,148,77)" stroke-width="1" opacity="0.75" />
			</g>
			<g>
				<title>Acyl-CoA_dh_1 (PF00441)
"Acyl-CoA dehydrogenase, C-terminal domain"</title>
				<polygon class="PF00441" points="187,29 198,40 187,51" stroke-linejoin="round" width="14" height="24" fill="rgb(85,191,117)" stroke="rgb(68,152,93)" stroke-width="1" opacity="0.75" />
			</g>
		</g>
		<g>
			<title>bmp4
Bmp4, prolyl adenylation domain</title>
			<polygon class="bmp4
Bmp4, prolyl adenylation domain" points="203,25 224,25 224,10 254,40 224,70 224,55 203,55" fill="rgb(255,255,255)" fill-opacity="1.0" stroke="rgb(0,0,0)" stroke-width="2"  />
			<g>
				<title>AMP-binding (PF00501)
"AMP-binding enzyme"</title>
				<polygon class="PF00501" points="204,28 238,28 244,34 244,46 238,52 204,52" stroke-linejoin="round" width="40" height="24" fill="rgb(60,217,223)" stroke="rgb(48,173,178)" stroke-width="1" opacity="0.75" />
			</g>
			<g>
				<title>AMP-binding_C (PF13193)
"AMP-binding enzyme C-terminal domain"</title>
				<polygon class="PF13193" points="244,34 250,40 244,46" stroke-linejoin="round" width="7" height="24" fill="rgb(182,50,118)" stroke="rgb(145,39,94)" stroke-width="1" opacity="0.75" />
			</g>
		</g>
		<g>
			<title>bmp5
Bmp5, Flavin-dependent single-component p-hydroxybenzoate brominase/decarboxylase</title>
			<polygon class="bmp5
Bmp5, Flavin-dependent single-component p-hydroxybenzoate brominase/decarboxylase" points="256,25 277,25 277,10 307,40 277,70 277,55 256,55" fill="rgb(255,255,255)" fill-opacity="1.0" stroke="rgb(0,0,0)" stroke-width="2"  />
			<g>
				<title>FMO-like (PF00743)
"Flavin-binding monooxygenase-like"</title>
				<polygon class="PF00743" points="256,28 291,28 303,40 291,52 256,52" stroke-linejoin="round" width="48" height="24" fill="rgb(203,74,151)" stroke="rgb(162,59,120)" stroke-width="1" opacity="0.75" />
			</g>
		</g>
		<g>
			<title>bmp6
Bmp6, Chorismate lyase</title>
			<polygon class="bmp6
Bmp6, Chorismate lyase" points="309,10 330,40 309,70" fill="rgb(255,255,255)" fill-opacity="1.0" stroke="rgb(0,0,0)" stroke-width="2"  />
			<g>
				<title>Rv2949c-like (PF01947)
"Chorismate pyruvate-lyase Rv2949c-like"</title>
				<polygon class="PF01947" points="312,28 318,28 326,40 318,52 312,52" stroke-linejoin="round" width="15" height="24" fill="rgb(200,80,201)" stroke="rgb(160,64,160)" stroke-width="1" opacity="0.75" />
			</g>
		</g>
		<g>
			<title>bmp7
Bmp7, Cytochrome P450</title>
			<polygon class="bmp7
Bmp7, Cytochrome P450" points="330,25 349,25 349,10 379,40 349,70 349,55 330,55" fill="rgb(255,255,255)" fill-opacity="1.0" stroke="rgb(0,0,0)" stroke-width="2"  />
			<g>
				<title>p450 (PF00067)
"Cytochrome P450"</title>
				<polygon class="PF00067" points="332,28 363,28 375,40 363,52 332,52" stroke-linejoin="round" width="46" height="24" fill="rgb(85,216,107)" stroke="rgb(68,172,85)" stroke-width="1" opacity="0.75" />
			</g>
		</g>
	</g>
</svg>
