<svg version="1.1" baseProfile="full" xmlns="http://www.w3.org/2000/svg" width="226.76666666666668" height="80">
	<g>
		<line x1="10" y1="40.0" x2="216.76666666666668" y2="40.0" style="stroke:rgb(70,70,70); stroke-width:3 "/>
		<g>
			<title> (SACE_4230)
serine/threonine protein kinase</title>
			<polygon class=" (SACE_4230)
serine/threonine protein kinase" points="10,25 64,25 64,10 94,40 64,70 64,55 10,55" fill="rgb(255,255,255)" fill-opacity="1.0" stroke="rgb(0,0,0)" stroke-width="2"  />
			<g>
				<title>Pkinase (PF00069)
"Protein kinase domain"</title>
				<rect class="PF00069" x="33" y="28" stroke-linejoin="round" width="20" height="24" fill="rgb(104,187,65)" stroke="rgb(83,149,51)" stroke-width="1" opacity="0.75" />
			</g>
		</g>
		<g>
			<title> (SACE_4231)
hypothetical protein</title>
			<polygon class=" (SACE_4231)
hypothetical protein" points="96,10 100,40 96,70" fill="rgb(255,255,255)" fill-opacity="1.0" stroke="rgb(0,0,0)" stroke-width="2"  />
			<g>
				<title>RamS (PF19402)
"Lanthionine-containing peptide SapB precursor RamS"</title>
				<polygon class="PF19402" points="96,30 97,40 96,50" stroke-linejoin="round" width="4" height="24" fill="rgb(78,105,213)" stroke="rgb(62,84,170)" stroke-width="1" opacity="0.75" />
			</g>
		</g>
		<g>
			<title>ramA (SACE_4232)
putative ABC transporter</title>
			<polygon class="ramA (SACE_4232)
putative ABC transporter" points="104,25 129,25 129,10 159,40 129,70 129,55 104,55" fill="rgb(255,255,255)" fill-opacity="1.0" stroke="rgb(0,0,0)" stroke-width="2"  />
			<g>
				<title>ABC_membrane (PF00664)
"ABC transporter transmembrane region"</title>
				<rect class="PF00664" x="106" y="28" stroke-linejoin="round" width="26" height="24" fill="rgb(149,226,73)" stroke="rgb(119,180,58)" stroke-width="1" opacity="0.75" />
			</g>
			<g>
				<title>ABC_tran (PF00005)
"ABC transporter"</title>
				<polygon class="PF00005" points="137,28 143,28 151,36 151,44 143,52 137,52" stroke-linejoin="round" width="14" height="24" fill="rgb(129,201,63)" stroke="rgb(103,160,50)" stroke-width="1" opacity="0.75" />
			</g>
		</g>
		<g>
			<title>ramB (SACE_4233)
putative ABC transporter</title>
			<polygon class="ramB (SACE_4233)
putative ABC transporter" points="159,25 186,25 186,10 216,40 186,70 186,55 159,55" fill="rgb(255,255,255)" fill-opacity="1.0" stroke="rgb(0,0,0)" stroke-width="2"  />
			<g>
				<title>ABC_tran (PF00005)
"ABC transporter"</title>
				<polygon class="PF00005" points="193,28 199,28 207,36 207,44 199,52 193,52" stroke-linejoin="round" width="14" height="24" fill="rgb(129,201,63)" stroke="rgb(103,160,50)" stroke-width="1" opacity="0.75" />
			</g>
		</g>
	</g>
</svg>
