<svg version="1.1" baseProfile="full" xmlns="http://www.w3.org/2000/svg" width="2772.1666666666665" height="80">
	<g>
		<line x1="10" y1="40.0" x2="2762.1666666666665" y2="40.0" style="stroke:rgb(70,70,70); stroke-width:3 "/>
		<g>
			<title>dmxL5
DmxL5</title>
			<polygon class="dmxL5
DmxL5" points="13,25 24,25 24,10 54,40 24,70 24,55 13,55" fill="rgb(255,255,255)" fill-opacity="1.0" stroke="rgb(0,0,0)" stroke-width="2"  />
			<g>
				<title>MPAB_Lcp_cat (PF09995)
"ER-bound oxygenase mpaB/B'/Rubber oxygenase, catalytic domain"</title>
				<polygon class="PF09995" points="20,28 37,28 42,33 42,47 37,52 20,52" stroke-linejoin="round" width="22" height="24" fill="rgb(194,179,92)" stroke="rgb(155,143,73)" stroke-width="1" opacity="0.75" />
			</g>
		</g>
		<g>
			<title>dmxL4
DmxL4</title>
			<polygon class="dmxL4
DmxL4" points="112,25 95,25 95,10 65,40 95,70 95,55 112,55" fill="rgb(255,255,255)" fill-opacity="1.0" stroke="rgb(0,0,0)" stroke-width="2"  />
			<g>
				<title>DUF3425 (PF11905)
"Domain of unknown function (DUF3425)"</title>
				<polygon class="PF11905" points="74,35 81,28 86,28 86,52 81,52 74,45" stroke-linejoin="round" width="12" height="24" fill="rgb(83,188,146)" stroke="rgb(66,150,116)" stroke-width="1" opacity="0.75" />
			</g>
		</g>
		<g>
			<title>dmxL3
DmxL3</title>
			<polygon class="dmxL3
DmxL3" points="329,25 302,25 302,10 272,40 302,70 302,55 329,55" fill="rgb(255,255,255)" fill-opacity="1.0" stroke="rgb(0,0,0)" stroke-width="2"  />
			<g>
				<title>p450 (PF00067)
"Cytochrome P450"</title>
				<polygon class="PF00067" points="279,37 288,28 325,28 325,52 288,52 279,43" stroke-linejoin="round" width="46" height="24" fill="rgb(85,216,107)" stroke="rgb(68,172,85)" stroke-width="1" opacity="0.75" />
			</g>
		</g>
		<g>
			<title>dmxL2
dmxL2</title>
			<polygon class="dmxL2
dmxL2" points="773,25 556,25 556,10 526,40 556,70 556,55 773,55" fill="rgb(255,255,255)" fill-opacity="1.0" stroke="rgb(0,0,0)" stroke-width="2"  />
			<g>
				<title>KR (PF08659)
"KR domain"</title>
				<rect class="PF08659" x="552" y="28" stroke-linejoin="round" width="17" height="24" fill="rgb(66,209,188)" stroke="rgb(52,167,150)" stroke-width="1" opacity="0.75" />
			</g>
			<g>
				<title>ADH_zinc_N (PF00107)
"Zinc-binding dehydrogenase"</title>
				<rect class="PF00107" x="577" y="28" stroke-linejoin="round" width="13" height="24" fill="rgb(81,108,215)" stroke="rgb(64,86,172)" stroke-width="1" opacity="0.75" />
			</g>
			<g>
				<title>PS-DH (PF14765)
"Polyketide synthase dehydratase"</title>
				<rect class="PF14765" x="645" y="28" stroke-linejoin="round" width="31" height="24" fill="rgb(173,56,182)" stroke="rgb(138,44,145)" stroke-width="1" opacity="0.75" />
			</g>
			<g>
				<title>Acyl_transf_1 (PF00698)
"Acyl transferase domain"</title>
				<rect class="PF00698" x="681" y="28" stroke-linejoin="round" width="34" height="24" fill="rgb(59,176,209)" stroke="rgb(47,140,167)" stroke-width="1" opacity="0.75" />
			</g>
			<g>
				<title>KAsynt_C_assoc (PF16197)
"Ketoacyl-synthetase C-terminal extension"</title>
				<rect class="PF16197" x="719" y="28" stroke-linejoin="round" width="18" height="24" fill="rgb(240,150,172)" stroke="rgb(192,120,137)" stroke-width="1" opacity="0.75" />
			</g>
			<g>
				<title>Ketoacyl-synt_C (PF02801)
"Beta-ketoacyl synthase, C-terminal domain"</title>
				<rect class="PF02801" x="738" y="28" stroke-linejoin="round" width="3" height="24" fill="rgb(215,78,102)" stroke="rgb(172,62,81)" stroke-width="1" opacity="0.75" />
			</g>
			<g>
				<title>Ketoacyl-synt_C (PF02801)
"Beta-ketoacyl synthase, C-terminal domain"</title>
				<rect class="PF02801" x="741" y="28" stroke-linejoin="round" width="10" height="24" fill="rgb(215,78,102)" stroke="rgb(172,62,81)" stroke-width="1" opacity="0.75" />
			</g>
			<g>
				<title>ketoacyl-synt (PF00109)
"Beta-ketoacyl synthase, N-terminal domain"</title>
				<rect class="PF00109" x="752" y="28" stroke-linejoin="round" width="20" height="24" fill="rgb(112,116,228)" stroke="rgb(89,92,182)" stroke-width="1" opacity="0.75" />
			</g>
		</g>
		<g>
			<title>dmxL1
dmxL1</title>
			<polygon class="dmxL1
dmxL1" points="824,25 1032,25 1032,10 1062,40 1032,70 1032,55 824,55" fill="rgb(255,255,255)" fill-opacity="1.0" stroke="rgb(0,0,0)" stroke-width="2"  />
			<g>
				<title>Biotin_carb_N (PF00289)
"Biotin carboxylase, N-terminal domain"</title>
				<rect class="PF00289" x="831" y="28" stroke-linejoin="round" width="12" height="24" fill="rgb(59,114,187)" stroke="rgb(47,91,149)" stroke-width="1" opacity="0.75" />
			</g>
			<g>
				<title>CPSase_L_D2 (PF02786)
"Carbamoyl-phosphate synthase L chain, ATP binding domain"</title>
				<rect class="PF02786" x="847" y="28" stroke-linejoin="round" width="19" height="24" fill="rgb(190,97,205)" stroke="rgb(151,77,164)" stroke-width="1" opacity="0.75" />
			</g>
			<g>
				<title>Biotin_carb_C (PF02785)
"Biotin carboxylase C-terminal domain"</title>
				<rect class="PF02785" x="871" y="28" stroke-linejoin="round" width="10" height="24" fill="rgb(82,186,211)" stroke="rgb(65,148,168)" stroke-width="1" opacity="0.75" />
			</g>
			<g>
				<title>Biotin_lipoyl (PF00364)
"Biotin-requiring enzyme"</title>
				<rect class="PF00364" x="895" y="28" stroke-linejoin="round" width="6" height="24" fill="rgb(67,214,213)" stroke="rgb(53,171,170)" stroke-width="1" opacity="0.75" />
			</g>
			<g>
				<title>ACC_central (PF08326)
"Acetyl-CoA carboxylase, central region"</title>
				<rect class="PF08326" x="902" y="28" stroke-linejoin="round" width="74" height="24" fill="rgb(50,65,192)" stroke="rgb(40,51,153)" stroke-width="1" opacity="0.75" />
			</g>
			<g>
				<title>Carboxyl_trans (PF01039)
"Carboxyl transferase domain"</title>
				<rect class="PF01039" x="987" y="28" stroke-linejoin="round" width="56" height="24" fill="rgb(180,136,60)" stroke="rgb(144,108,48)" stroke-width="1" opacity="0.75" />
			</g>
		</g>
		<g>
			<title>dmx-nrPKS
dmx-nrPKS</title>
			<polygon class="dmx-nrPKS
dmx-nrPKS" points="1371,25 1206,25 1206,10 1176,40 1206,70 1206,55 1371,55" fill="rgb(255,255,255)" fill-opacity="1.0" stroke="rgb(0,0,0)" stroke-width="2"  />
			<g>
				<title>PP-binding (PF00550)
"Phosphopantetheine attachment site"</title>
				<rect class="PF00550" x="1193" y="28" stroke-linejoin="round" width="6" height="24" fill="rgb(103,191,88)" stroke="rgb(82,152,70)" stroke-width="1" opacity="0.75" />
			</g>
			<g>
				<title>PS-DH (PF14765)
"Polyketide synthase dehydratase"</title>
				<rect class="PF14765" x="1208" y="28" stroke-linejoin="round" width="28" height="24" fill="rgb(173,56,182)" stroke="rgb(138,44,145)" stroke-width="1" opacity="0.75" />
			</g>
			<g>
				<title>Acyl_transf_1 (PF00698)
"Acyl transferase domain"</title>
				<rect class="PF00698" x="1246" y="28" stroke-linejoin="round" width="32" height="24" fill="rgb(59,176,209)" stroke="rgb(47,140,167)" stroke-width="1" opacity="0.75" />
			</g>
			<g>
				<title>KAsynt_C_assoc (PF16197)
"Ketoacyl-synthetase C-terminal extension"</title>
				<rect class="PF16197" x="1282" y="28" stroke-linejoin="round" width="11" height="24" fill="rgb(240,150,172)" stroke="rgb(192,120,137)" stroke-width="1" opacity="0.75" />
			</g>
			<g>
				<title>Ketoacyl-synt_C (PF02801)
"Beta-ketoacyl synthase, C-terminal domain"</title>
				<rect class="PF02801" x="1294" y="28" stroke-linejoin="round" width="12" height="24" fill="rgb(215,78,102)" stroke="rgb(172,62,81)" stroke-width="1" opacity="0.75" />
			</g>
			<g>
				<title>ketoacyl-synt (PF00109)
"Beta-ketoacyl synthase, N-terminal domain"</title>
				<rect class="PF00109" x="1307" y="28" stroke-linejoin="round" width="25" height="24" fill="rgb(112,116,228)" stroke="rgb(89,92,182)" stroke-width="1" opacity="0.75" />
			</g>
			<g>
				<title>SAT (PF16073)
"Starter unit:ACP transacylase in aflatoxin biosynthesis"</title>
				<rect class="PF16073" x="1345" y="28" stroke-linejoin="round" width="24" height="24" fill="rgb(77,115,183)" stroke="rgb(61,91,146)" stroke-width="1" opacity="0.75" />
			</g>
		</g>
		<g>
			<title>dmxR1
DmxR1</title>
			<polygon class="dmxR1
DmxR1" points="1400,25 1409,25 1409,10 1439,40 1409,70 1409,55 1400,55" fill="rgb(255,255,255)" fill-opacity="1.0" stroke="rgb(0,0,0)" stroke-width="2"  />
			<g>
				<title>Lactamase_B (PF00753)
"Metallo-beta-lactamase superfamily"</title>
				<rect class="PF00753" x="1405" y="28" stroke-linejoin="round" width="16" height="24" fill="rgb(206,198,96)" stroke="rgb(164,158,76)" stroke-width="1" opacity="0.75" />
			</g>
		</g>
		<g>
			<title>dmxR2
DmxR2</title>
			<polygon class="dmxR2
DmxR2" points="1467,25 1493,25 1493,10 1523,40 1493,70 1493,55 1467,55" fill="rgb(255,255,255)" fill-opacity="1.0" stroke="rgb(0,0,0)" stroke-width="2"  />
			<g>
				<title>Transferase (PF02458)
"Transferase family"</title>
				<rect class="PF02458" x="1478" y="28" stroke-linejoin="round" width="29" height="24" fill="rgb(57,117,190)" stroke="rgb(45,93,152)" stroke-width="1" opacity="0.75" />
			</g>
		</g>
		<g>
			<title>dmxR3
DmxR3</title>
			<polygon class="dmxR3
DmxR3" points="1540,40 1566,10 1566,70" fill="rgb(255,255,255)" fill-opacity="1.0" stroke="rgb(0,0,0)" stroke-width="2"  />
			<g>
				<title>adh_short (PF00106)
"short chain dehydrogenase"</title>
				<polygon class="PF00106" points="1546,38 1554,28 1565,28 1565,52 1554,52 1546,42" stroke-linejoin="round" width="19" height="24" fill="rgb(182,219,73)" stroke="rgb(145,175,58)" stroke-width="1" opacity="0.75" />
			</g>
		</g>
		<g>
			<title>dmxR4
DmxR4</title>
			<polygon class="dmxR4
DmxR4" points="1698,25 1660,25 1660,10 1630,40 1660,70 1660,55 1698,55" fill="rgb(255,255,255)" fill-opacity="1.0" stroke="rgb(0,0,0)" stroke-width="2"  />
			<g>
				<title>MFS_1 (PF07690)
"Major Facilitator Superfamily"</title>
				<rect class="PF07690" x="1653" y="28" stroke-linejoin="round" width="37" height="24" fill="rgb(193,224,74)" stroke="rgb(154,179,59)" stroke-width="1" opacity="0.75" />
			</g>
		</g>
		<g>
			<title>dmxR5
dmxR5</title>
			<polygon class="dmxR5
dmxR5" points="1724,25 1749,25 1749,10 1779,40 1749,70 1749,55 1724,55" fill="rgb(255,255,255)" fill-opacity="1.0" stroke="rgb(0,0,0)" stroke-width="2"  />
			<g>
				<title>p450 (PF00067)
"Cytochrome P450"</title>
				<polygon class="PF00067" points="1729,28 1763,28 1774,39 1774,41 1763,52 1729,52" stroke-linejoin="round" width="45" height="24" fill="rgb(85,216,107)" stroke="rgb(68,172,85)" stroke-width="1" opacity="0.75" />
			</g>
		</g>
		<g>
			<title>dmxR6
dmxR6</title>
			<polygon class="dmxR6
dmxR6" points="1834,25 1848,25 1848,10 1878,40 1848,70 1848,55 1834,55" fill="rgb(255,255,255)" fill-opacity="1.0" stroke="rgb(0,0,0)" stroke-width="2"  />
			<g>
				<title>Questin_oxidase (PF14027)
"Questin oxidase-like"</title>
				<polygon class="PF14027" points="1838,28 1862,28 1871,37 1871,43 1862,52 1838,52" stroke-linejoin="round" width="33" height="24" fill="rgb(77,150,178)" stroke="rgb(61,119,142)" stroke-width="1" opacity="0.75" />
			</g>
		</g>
		<g>
			<title>dmxR7
DmxR7</title>
			<polygon class="dmxR7
DmxR7" points="1898,40 1922,10 1922,70" fill="rgb(255,255,255)" fill-opacity="1.0" stroke="rgb(0,0,0)" stroke-width="2"  />
			<g>
				<title>NAD_binding_10 (PF13460)
"NAD(P)H-binding"</title>
				<polygon class="PF13460" points="1902,40 1912,28 1921,28 1921,52 1912,52" stroke-linejoin="round" width="20" height="24" fill="rgb(188,201,78)" stroke="rgb(150,160,62)" stroke-width="1" opacity="0.75" />
			</g>
		</g>
		<g>
			<title>dmxR8
DmxR8</title>
			<polygon class="dmxR8
DmxR8" points="1947,25 1949,25 1949,10 1979,40 1949,70 1949,55 1947,55" fill="rgb(255,255,255)" fill-opacity="1.0" stroke="rgb(0,0,0)" stroke-width="2"  />
			<g>
				<title>adh_short (PF00106)
"short chain dehydrogenase"</title>
				<rect class="PF00106" x="1949" y="28" stroke-linejoin="round" width="13" height="24" fill="rgb(182,219,73)" stroke="rgb(145,175,58)" stroke-width="1" opacity="0.75" />
			</g>
		</g>
		<g>
			<title>dmxR9
DmxR9</title>
			<polygon class="dmxR9
DmxR9" points="2038,25 2015,25 2015,10 1985,40 2015,70 2015,55 2038,55" fill="rgb(255,255,255)" fill-opacity="1.0" stroke="rgb(0,0,0)" stroke-width="2"  />
			<g>
				<title>FAD_binding_3 (PF01494)
"FAD binding domain"</title>
				<polygon class="PF01494" points="1997,32 2001,28 2032,28 2032,52 2001,52 1997,48" stroke-linejoin="round" width="35" height="24" fill="rgb(182,175,59)" stroke="rgb(145,140,47)" stroke-width="1" opacity="0.75" />
			</g>
		</g>
		<g>
			<title>dmxR10
DmxR10</title>
			<polygon class="dmxR10
DmxR10" points="2068,10 2086,40 2068,70" fill="rgb(255,255,255)" fill-opacity="1.0" stroke="rgb(0,0,0)" stroke-width="2"  />
		</g>
		<g>
			<title>dmxR11
DmxR11</title>
			<polygon class="dmxR11
DmxR11" points="2132,10 2160,40 2132,70" fill="rgb(255,255,255)" fill-opacity="1.0" stroke="rgb(0,0,0)" stroke-width="2"  />
			<g>
				<title>Hemerythrin (PF01814)
"Hemerythrin HHE cation binding domain"</title>
				<polygon class="PF01814" points="2136,28 2144,28 2148,32 2148,48 2144,52 2136,52" stroke-linejoin="round" width="12" height="24" fill="rgb(120,91,227)" stroke="rgb(95,72,181)" stroke-width="1" opacity="0.75" />
			</g>
		</g>
		<g>
			<title>dmxR12
DmxR12</title>
			<polygon class="dmxR12
DmxR12" points="2211,10 2238,40 2211,70" fill="rgb(255,255,255)" fill-opacity="1.0" stroke="rgb(0,0,0)" stroke-width="2"  />
			<g>
				<title>adh_short (PF00106)
"short chain dehydrogenase"</title>
				<polygon class="PF00106" points="2211,28 2223,28 2229,34 2229,46 2223,52 2211,52" stroke-linejoin="round" width="18" height="24" fill="rgb(182,219,73)" stroke="rgb(145,175,58)" stroke-width="1" opacity="0.75" />
			</g>
		</g>
		<g>
			<title>dmxR13
dmxR13</title>
			<polygon class="dmxR13
dmxR13" points="2318,25 2303,25 2303,10 2273,40 2303,70 2303,55 2318,55" fill="rgb(255,255,255)" fill-opacity="1.0" stroke="rgb(0,0,0)" stroke-width="2"  />
			<g>
				<title>Transferase (PF02458)
"Transferase family"</title>
				<polygon class="PF02458" points="2277,40 2289,28 2306,28 2306,52 2289,52" stroke-linejoin="round" width="33" height="24" fill="rgb(57,117,190)" stroke="rgb(45,93,152)" stroke-width="1" opacity="0.75" />
			</g>
		</g>
		<g>
			<title>dmxR14
DmxR14</title>
			<polygon class="dmxR14
DmxR14" points="2333,25 2348,25 2348,10 2378,40 2348,70 2348,55 2333,55" fill="rgb(255,255,255)" fill-opacity="1.0" stroke="rgb(0,0,0)" stroke-width="2"  />
			<g>
				<title>Zn_clus (PF00172)
"Fungal Zn(2)-Cys(6) binuclear cluster domain"</title>
				<rect class="PF00172" x="2336" y="28" stroke-linejoin="round" width="3" height="24" fill="rgb(121,178,76)" stroke="rgb(96,142,60)" stroke-width="1" opacity="0.75" />
			</g>
			<g>
				<title>AflR (PF08493)
"Aflatoxin regulatory protein"</title>
				<polygon class="PF08493" points="2355,28 2362,28 2364,30 2364,50 2362,52 2355,52" stroke-linejoin="round" width="9" height="24" fill="rgb(86,63,214)" stroke="rgb(68,50,171)" stroke-width="1" opacity="0.75" />
			</g>
		</g>
		<g>
			<title>dmxR15
DmxR15</title>
			<polygon class="dmxR15
DmxR15" points="2397,40 2425,10 2425,70" fill="rgb(255,255,255)" fill-opacity="1.0" stroke="rgb(0,0,0)" stroke-width="2"  />
			<g>
				<title>EthD (PF07110)
"EthD domain"</title>
				<polygon class="PF07110" points="2413,28 2413,28 2422,28 2422,52 2413,52 2413,52" stroke-linejoin="round" width="9" height="24" fill="rgb(64,130,182)" stroke="rgb(51,104,145)" stroke-width="1" opacity="0.75" />
			</g>
		</g>
		<g>
			<title>dmxR16
DmxR16</title>
			<polygon class="dmxR16
DmxR16" points="2441,10 2459,40 2441,70" fill="rgb(255,255,255)" fill-opacity="1.0" stroke="rgb(0,0,0)" stroke-width="2"  />
			<g>
				<title>Anthrone_oxy (PF08592)
"Anthrone oxygenase"</title>
				<polygon class="PF08592" points="2447,28 2448,28 2456,40 2448,52 2447,52" stroke-linejoin="round" width="10" height="24" fill="rgb(75,196,107)" stroke="rgb(60,156,85)" stroke-width="1" opacity="0.75" />
			</g>
		</g>
		<g>
			<title>dmxR17
DmxR17</title>
			<polygon class="dmxR17
DmxR17" points="2483,40 2503,10 2503,70" fill="rgb(255,255,255)" fill-opacity="1.0" stroke="rgb(0,0,0)" stroke-width="2"  />
			<g>
				<title>Scytalone_dh (PF02982)
"Scytalone dehydratase"</title>
				<polygon class="PF02982" points="2487,40 2495,28 2502,28 2502,52 2495,52 2487,40" stroke-linejoin="round" width="15" height="24" fill="rgb(137,188,83)" stroke="rgb(109,150,66)" stroke-width="1" opacity="0.75" />
			</g>
		</g>
		<g>
			<title>dmxR18
DmxR18</title>
			<polygon class="dmxR18
DmxR18" points="2525,25 2525,25 2525,10 2555,40 2525,70 2525,55 2525,55" fill="rgb(255,255,255)" fill-opacity="1.0" stroke="rgb(0,0,0)" stroke-width="2"  />
			<g>
				<title>adh_short_C2 (PF13561)
"Enoyl-(Acyl carrier protein) reductase"</title>
				<polygon class="PF13561" points="2526,28 2539,28 2550,39 2550,41 2539,52 2526,52" stroke-linejoin="round" width="24" height="24" fill="rgb(73,205,127)" stroke="rgb(58,164,101)" stroke-width="1" opacity="0.75" />
			</g>
		</g>
		<g>
			<title>dmxR19
DmxR19</title>
			<polygon class="dmxR19
DmxR19" points="2645,25 2622,25 2622,10 2592,40 2622,70 2622,55 2645,55" fill="rgb(255,255,255)" fill-opacity="1.0" stroke="rgb(0,0,0)" stroke-width="2"  />
		</g>
		<g>
			<title>dmxR20
DmxR20</title>
			<polygon class="dmxR20
DmxR20" points="2727,25 2696,25 2696,10 2666,40 2696,70 2696,55 2727,55" fill="rgb(255,255,255)" fill-opacity="1.0" stroke="rgb(0,0,0)" stroke-width="2"  />
			<g>
				<title>zf-C2H2 (PF00096)
"Zinc finger, C2H2 type"</title>
				<polygon class="PF00096" points="2673,37 2675,35 2675,45 2673,43" stroke-linejoin="round" width="2" height="24" fill="rgb(59,185,144)" stroke="rgb(47,148,115)" stroke-width="1" opacity="0.75" />
			</g>
			<g>
				<title>zf-C2H2 (PF00096)
"Zinc finger, C2H2 type"</title>
				<polygon class="PF00096" points="2678,32 2680,30 2680,50 2678,48" stroke-linejoin="round" width="2" height="24" fill="rgb(59,185,144)" stroke="rgb(47,148,115)" stroke-width="1" opacity="0.75" />
			</g>
		</g>
	</g>
</svg>
