<svg version="1.1" baseProfile="full" xmlns="http://www.w3.org/2000/svg" width="1756.0333333333333" height="80">
	<g>
		<line x1="10" y1="40.0" x2="1746.0333333333333" y2="40.0" style="stroke:rgb(70,70,70); stroke-width:3 "/>
		<g>
			<title>cysT
CysT</title>
			<polygon class="cysT
CysT" points="136,25 40,25 40,10 10,40 40,70 40,55 136,55" fill="rgb(255,255,255)" fill-opacity="1.0" stroke="rgb(0,0,0)" stroke-width="2"  />
			<g>
				<title>CBM_20 (PF00686)
"Starch binding domain"</title>
				<polygon class="PF00686" points="14,40 19,35 19,45" stroke-linejoin="round" width="9" height="24" fill="rgb(189,66,101)" stroke="rgb(151,52,80)" stroke-width="1" opacity="0.75" />
			</g>
			<g>
				<title>fn3 (PF00041)
"Fibronectin type III domain"</title>
				<polygon class="PF00041" points="20,34 26,28 27,28 27,52 26,52 20,46" stroke-linejoin="round" width="7" height="24" fill="rgb(203,70,135)" stroke="rgb(162,56,107)" stroke-width="1" opacity="0.75" />
			</g>
			<g>
				<title>CBM_25 (PF03423)
"Carbohydrate binding domain (family 25)"</title>
				<rect class="PF03423" x="28" y="28" stroke-linejoin="round" width="10" height="24" fill="rgb(132,223,95)" stroke="rgb(105,178,76)" stroke-width="1" opacity="0.75" />
			</g>
			<g>
				<title>fn3 (PF00041)
"Fibronectin type III domain"</title>
				<rect class="PF00041" x="38" y="28" stroke-linejoin="round" width="9" height="24" fill="rgb(203,70,135)" stroke="rgb(162,56,107)" stroke-width="1" opacity="0.75" />
			</g>
			<g>
				<title>fn3 (PF00041)
"Fibronectin type III domain"</title>
				<rect class="PF00041" x="48" y="28" stroke-linejoin="round" width="7" height="24" fill="rgb(203,70,135)" stroke="rgb(162,56,107)" stroke-width="1" opacity="0.75" />
			</g>
		</g>
		<g>
			<title>cysS
CysS</title>
			<polygon class="cysS
CysS" points="208,25 174,25 174,10 144,40 174,70 174,55 208,55" fill="rgb(255,255,255)" fill-opacity="1.0" stroke="rgb(0,0,0)" stroke-width="2"  />
			<g>
				<title>B12-binding (PF02310)
"B12 binding domain"</title>
				<rect class="PF02310" x="195" y="28" stroke-linejoin="round" width="10" height="24" fill="rgb(145,190,60)" stroke="rgb(115,152,48)" stroke-width="1" opacity="0.75" />
			</g>
		</g>
		<g>
			<title>cysR
CysR</title>
			<polygon class="cysR
CysR" points="244,25 241,25 241,10 211,40 241,70 241,55 244,55" fill="rgb(255,255,255)" fill-opacity="1.0" stroke="rgb(0,0,0)" stroke-width="2"  />
			<g>
				<title>AurF (PF11583)
"P-aminobenzoate N-oxygenase AurF"</title>
				<polygon class="PF11583" points="215,40 227,28 239,28 239,52 227,52" stroke-linejoin="round" width="25" height="24" fill="rgb(100,210,108)" stroke="rgb(80,168,86)" stroke-width="1" opacity="0.75" />
			</g>
		</g>
		<g>
			<title>cysQ
CysQ</title>
			<polygon class="cysQ
CysQ" points="247,40 273,10 273,70" fill="rgb(255,255,255)" fill-opacity="1.0" stroke="rgb(0,0,0)" stroke-width="2"  />
			<g>
				<title>LCM (PF04072)
"Leucine carboxyl methyltransferase"</title>
				<polygon class="PF04072" points="255,35 262,28 271,28 271,52 262,52 255,45" stroke-linejoin="round" width="16" height="24" fill="rgb(94,159,219)" stroke="rgb(75,127,175)" stroke-width="1" opacity="0.75" />
			</g>
		</g>
		<g>
			<title>cysP
CysP</title>
			<polygon class="cysP
CysP" points="276,40 299,10 299,70" fill="rgb(255,255,255)" fill-opacity="1.0" stroke="rgb(0,0,0)" stroke-width="2"  />
			<g>
				<title>Glyoxalase_6 (PF18029)
"Glyoxalase-like domain"</title>
				<polygon class="PF18029" points="280,40 287,31 287,49" stroke-linejoin="round" width="11" height="24" fill="rgb(90,208,104)" stroke="rgb(72,166,83)" stroke-width="1" opacity="0.75" />
			</g>
			<g>
				<title>Glyoxalase_6 (PF18029)
"Glyoxalase-like domain"</title>
				<polygon class="PF18029" points="289,28 289,28 298,28 298,52 289,52 289,52" stroke-linejoin="round" width="9" height="24" fill="rgb(90,208,104)" stroke="rgb(72,166,83)" stroke-width="1" opacity="0.75" />
			</g>
		</g>
		<g>
			<title>cysO
CysO</title>
			<polygon class="cysO
CysO" points="301,40 321,10 321,70" fill="rgb(255,255,255)" fill-opacity="1.0" stroke="rgb(0,0,0)" stroke-width="2"  />
			<g>
				<title>Pentapeptide_4 (PF13599)
"Pentapeptide repeats (9 copies)"</title>
				<polygon class="PF13599" points="305,40 311,31 311,49" stroke-linejoin="round" width="7" height="24" fill="rgb(228,182,106)" stroke="rgb(182,145,84)" stroke-width="1" opacity="0.75" />
			</g>
			<g>
				<title>Pentapeptide_4 (PF13599)
"Pentapeptide repeats (9 copies)"</title>
				<polygon class="PF13599" points="311,31 313,28 317,28 317,52 313,52 311,49" stroke-linejoin="round" width="6" height="24" fill="rgb(228,182,106)" stroke="rgb(182,145,84)" stroke-width="1" opacity="0.75" />
			</g>
		</g>
		<g>
			<title>cysA
CysA</title>
			<polygon class="cysA
CysA" points="332,10 339,40 332,70" fill="rgb(255,255,255)" fill-opacity="1.0" stroke="rgb(0,0,0)" stroke-width="2"  />
			<g>
				<title>MbtH (PF03621)
"MbtH-like protein"</title>
				<polygon class="PF03621" points="332,28 332,28 336,40 336,40 332,52 332,52" stroke-linejoin="round" width="4" height="24" fill="rgb(212,165,97)" stroke="rgb(169,132,77)" stroke-width="1" opacity="0.75" />
			</g>
		</g>
		<g>
			<title>cysB
CysB</title>
			<polygon class="cysB
CysB" points="342,25 343,25 343,10 373,40 343,70 343,55 342,55" fill="rgb(255,255,255)" fill-opacity="1.0" stroke="rgb(0,0,0)" stroke-width="2"  />
			<g>
				<title>Abhydrolase_6 (PF12697)
"Alpha/beta hydrolase family"</title>
				<polygon class="PF12697" points="347,28 357,28 369,40 357,52 347,52" stroke-linejoin="round" width="24" height="24" fill="rgb(113,71,219)" stroke="rgb(90,56,175)" stroke-width="1" opacity="0.75" />
			</g>
		</g>
		<g>
			<title>cysC
CysC</title>
			<polygon class="cysC
CysC" points="374,25 390,25 390,10 420,40 390,70 390,55 374,55" fill="rgb(255,255,255)" fill-opacity="1.0" stroke="rgb(0,0,0)" stroke-width="2"  />
		</g>
		<g>
			<title>cysD
CysD</title>
			<polygon class="cysD
CysD" points="424,25 467,25 467,10 497,40 467,70 467,55 424,55" fill="rgb(255,255,255)" fill-opacity="1.0" stroke="rgb(0,0,0)" stroke-width="2"  />
			<g>
				<title>GATase (PF00117)
"Glutamine amidotransferase class-I"</title>
				<rect class="PF00117" x="424" y="28" stroke-linejoin="round" width="18" height="24" fill="rgb(159,201,96)" stroke="rgb(127,160,76)" stroke-width="1" opacity="0.75" />
			</g>
			<g>
				<title>Anth_synt_I_N (PF04715)
"Anthranilate synthase component I, N terminal region"</title>
				<rect class="PF04715" x="448" y="28" stroke-linejoin="round" width="13" height="24" fill="rgb(163,87,183)" stroke="rgb(130,69,146)" stroke-width="1" opacity="0.75" />
			</g>
			<g>
				<title>Chorismate_bind (PF00425)
"chorismate binding enzyme"</title>
				<polygon class="PF00425" points="466,28 481,28 491,38 491,42 481,52 466,52" stroke-linejoin="round" width="25" height="24" fill="rgb(188,116,88)" stroke="rgb(150,92,70)" stroke-width="1" opacity="0.75" />
			</g>
		</g>
		<g>
			<title>cysE
CysE</title>
			<polygon class="cysE
CysE" points="500,10 524,40 500,70" fill="rgb(255,255,255)" fill-opacity="1.0" stroke="rgb(0,0,0)" stroke-width="2"  />
			<g>
				<title>Thioesterase (PF00975)
"Thioesterase domain"</title>
				<polygon class="PF00975" points="501,28 511,28 520,40 511,52 501,52" stroke-linejoin="round" width="22" height="24" fill="rgb(207,80,138)" stroke="rgb(165,63,110)" stroke-width="1" opacity="0.75" />
			</g>
		</g>
		<g>
			<title>cysF
CysF</title>
			<polygon class="cysF
CysF" points="525,25 529,25 529,10 559,40 529,70 529,55 525,55" fill="rgb(255,255,255)" fill-opacity="1.0" stroke="rgb(0,0,0)" stroke-width="2"  />
			<g>
				<title>Dimerisation2 (PF16864)
"Dimerisation domain"</title>
				<rect class="PF16864" x="526" y="28" stroke-linejoin="round" width="8" height="24" fill="rgb(84,199,85)" stroke="rgb(67,159,68)" stroke-width="1" opacity="0.75" />
			</g>
			<g>
				<title>Methyltransf_2 (PF00891)
"O-methyltransferase domain"</title>
				<polygon class="PF00891" points="538,28 543,28 555,40 543,52 538,52" stroke-linejoin="round" width="18" height="24" fill="rgb(50,51,190)" stroke="rgb(39,40,152)" stroke-width="1" opacity="0.75" />
			</g>
		</g>
		<g>
			<title>cysG
CysG</title>
			<polygon class="cysG
CysG" points="561,25 730,25 730,10 760,40 730,70 730,55 561,55" fill="rgb(255,255,255)" fill-opacity="1.0" stroke="rgb(0,0,0)" stroke-width="2"  />
			<g>
				<title>AMP-binding (PF00501)
"AMP-binding enzyme"</title>
				<rect class="PF00501" x="564" y="28" stroke-linejoin="round" width="39" height="24" fill="rgb(60,217,223)" stroke="rgb(48,173,178)" stroke-width="1" opacity="0.75" />
			</g>
			<g>
				<title>AMP-binding_C (PF13193)
"AMP-binding enzyme C-terminal domain"</title>
				<rect class="PF13193" x="605" y="28" stroke-linejoin="round" width="7" height="24" fill="rgb(182,50,118)" stroke="rgb(145,39,94)" stroke-width="1" opacity="0.75" />
			</g>
			<g>
				<title>PP-binding (PF00550)
"Phosphopantetheine attachment site"</title>
				<rect class="PF00550" x="615" y="28" stroke-linejoin="round" width="6" height="24" fill="rgb(103,191,88)" stroke="rgb(82,152,70)" stroke-width="1" opacity="0.75" />
			</g>
			<g>
				<title>Condensation (PF00668)
"Condensation domain"</title>
				<rect class="PF00668" x="624" y="28" stroke-linejoin="round" width="43" height="24" fill="rgb(224,184,98)" stroke="rgb(179,147,78)" stroke-width="1" opacity="0.75" />
			</g>
			<g>
				<title>AMP-binding (PF00501)
"AMP-binding enzyme"</title>
				<rect class="PF00501" x="671" y="28" stroke-linejoin="round" width="39" height="24" fill="rgb(60,217,223)" stroke="rgb(48,173,178)" stroke-width="1" opacity="0.75" />
			</g>
			<g>
				<title>AMP-binding_C (PF13193)
"AMP-binding enzyme C-terminal domain"</title>
				<rect class="PF13193" x="711" y="28" stroke-linejoin="round" width="7" height="24" fill="rgb(182,50,118)" stroke="rgb(145,39,94)" stroke-width="1" opacity="0.75" />
			</g>
			<g>
				<title>PP-binding (PF00550)
"Phosphopantetheine attachment site"</title>
				<rect class="PF00550" x="722" y="28" stroke-linejoin="round" width="6" height="24" fill="rgb(103,191,88)" stroke="rgb(82,152,70)" stroke-width="1" opacity="0.75" />
			</g>
			<g>
				<title>Thioesterase (PF00975)
"Thioesterase domain"</title>
				<polygon class="PF00975" points="732,28 744,28 756,40 744,52 732,52" stroke-linejoin="round" width="26" height="24" fill="rgb(207,80,138)" stroke="rgb(165,63,110)" stroke-width="1" opacity="0.75" />
			</g>
		</g>
		<g>
			<title>cysH
CysH</title>
			<polygon class="cysH
CysH" points="763,25 830,25 830,10 860,40 830,70 830,55 763,55" fill="rgb(255,255,255)" fill-opacity="1.0" stroke="rgb(0,0,0)" stroke-width="2"  />
			<g>
				<title>AMP-binding (PF00501)
"AMP-binding enzyme"</title>
				<rect class="PF00501" x="766" y="28" stroke-linejoin="round" width="39" height="24" fill="rgb(60,217,223)" stroke="rgb(48,173,178)" stroke-width="1" opacity="0.75" />
			</g>
			<g>
				<title>QueC (PF06508)
"Queuosine biosynthesis protein QueC"</title>
				<rect class="PF06508" x="816" y="28" stroke-linejoin="round" width="11" height="24" fill="rgb(217,93,123)" stroke="rgb(173,74,98)" stroke-width="1" opacity="0.75" />
			</g>
			<g>
				<title>AMP-binding_C (PF13193)
"AMP-binding enzyme C-terminal domain"</title>
				<polygon class="PF13193" points="843,28 844,28 848,32 848,48 844,52 843,52" stroke-linejoin="round" width="5" height="24" fill="rgb(182,50,118)" stroke="rgb(145,39,94)" stroke-width="1" opacity="0.75" />
			</g>
			<g>
				<title>PP-binding (PF00550)
"Phosphopantetheine attachment site"</title>
				<polygon class="PF00550" points="851,35 856,40 851,45" stroke-linejoin="round" width="6" height="24" fill="rgb(103,191,88)" stroke="rgb(82,152,70)" stroke-width="1" opacity="0.75" />
			</g>
		</g>
		<g>
			<title>cysI
CysI</title>
			<polygon class="cysI
CysI" points="860,10 887,40 860,70" fill="rgb(255,255,255)" fill-opacity="1.0" stroke="rgb(0,0,0)" stroke-width="2"  />
			<g>
				<title>Aminotran_4 (PF01063)
"Amino-transferase class IV"</title>
				<polygon class="PF01063" points="862,28 871,28 883,40 871,52 862,52" stroke-linejoin="round" width="22" height="24" fill="rgb(52,144,188)" stroke="rgb(41,115,150)" stroke-width="1" opacity="0.75" />
			</g>
		</g>
		<g>
			<title>cysJ
CysJ</title>
			<polygon class="cysJ
CysJ" points="888,25 890,25 890,10 920,40 890,70 890,55 888,55" fill="rgb(255,255,255)" fill-opacity="1.0" stroke="rgb(0,0,0)" stroke-width="2"  />
			<g>
				<title>TauD (PF02668)
"Taurine catabolism dioxygenase TauD, TfdA family"</title>
				<polygon class="PF02668" points="889,28 904,28 916,40 904,52 889,52" stroke-linejoin="round" width="29" height="24" fill="rgb(180,79,217)" stroke="rgb(144,63,173)" stroke-width="1" opacity="0.75" />
			</g>
		</g>
		<g>
			<title>cysK
CysK</title>
			<polygon class="cysK
CysK" points="924,25 1348,25 1348,10 1378,40 1348,70 1348,55 924,55" fill="rgb(255,255,255)" fill-opacity="1.0" stroke="rgb(0,0,0)" stroke-width="2"  />
			<g>
				<title>Condensation (PF00668)
"Condensation domain"</title>
				<rect class="PF00668" x="924" y="28" stroke-linejoin="round" width="23" height="24" fill="rgb(224,184,98)" stroke="rgb(179,147,78)" stroke-width="1" opacity="0.75" />
			</g>
			<g>
				<title>AMP-binding (PF00501)
"AMP-binding enzyme"</title>
				<rect class="PF00501" x="950" y="28" stroke-linejoin="round" width="41" height="24" fill="rgb(60,217,223)" stroke="rgb(48,173,178)" stroke-width="1" opacity="0.75" />
			</g>
			<g>
				<title>AMP-binding_C (PF13193)
"AMP-binding enzyme C-terminal domain"</title>
				<rect class="PF13193" x="992" y="28" stroke-linejoin="round" width="7" height="24" fill="rgb(182,50,118)" stroke="rgb(145,39,94)" stroke-width="1" opacity="0.75" />
			</g>
			<g>
				<title>PP-binding (PF00550)
"Phosphopantetheine attachment site"</title>
				<rect class="PF00550" x="1003" y="28" stroke-linejoin="round" width="6" height="24" fill="rgb(103,191,88)" stroke="rgb(82,152,70)" stroke-width="1" opacity="0.75" />
			</g>
			<g>
				<title>Condensation (PF00668)
"Condensation domain"</title>
				<rect class="PF00668" x="1011" y="28" stroke-linejoin="round" width="44" height="24" fill="rgb(224,184,98)" stroke="rgb(179,147,78)" stroke-width="1" opacity="0.75" />
			</g>
			<g>
				<title>AMP-binding (PF00501)
"AMP-binding enzyme"</title>
				<rect class="PF00501" x="1057" y="28" stroke-linejoin="round" width="41" height="24" fill="rgb(60,217,223)" stroke="rgb(48,173,178)" stroke-width="1" opacity="0.75" />
			</g>
			<g>
				<title>AMP-binding_C (PF13193)
"AMP-binding enzyme C-terminal domain"</title>
				<rect class="PF13193" x="1100" y="28" stroke-linejoin="round" width="7" height="24" fill="rgb(182,50,118)" stroke="rgb(145,39,94)" stroke-width="1" opacity="0.75" />
			</g>
			<g>
				<title>PP-binding (PF00550)
"Phosphopantetheine attachment site"</title>
				<rect class="PF00550" x="1110" y="28" stroke-linejoin="round" width="6" height="24" fill="rgb(103,191,88)" stroke="rgb(82,152,70)" stroke-width="1" opacity="0.75" />
			</g>
			<g>
				<title>Condensation (PF00668)
"Condensation domain"</title>
				<rect class="PF00668" x="1118" y="28" stroke-linejoin="round" width="44" height="24" fill="rgb(224,184,98)" stroke="rgb(179,147,78)" stroke-width="1" opacity="0.75" />
			</g>
			<g>
				<title>AMP-binding (PF00501)
"AMP-binding enzyme"</title>
				<rect class="PF00501" x="1164" y="28" stroke-linejoin="round" width="42" height="24" fill="rgb(60,217,223)" stroke="rgb(48,173,178)" stroke-width="1" opacity="0.75" />
			</g>
			<g>
				<title>AMP-binding_C (PF13193)
"AMP-binding enzyme C-terminal domain"</title>
				<rect class="PF13193" x="1208" y="28" stroke-linejoin="round" width="8" height="24" fill="rgb(182,50,118)" stroke="rgb(145,39,94)" stroke-width="1" opacity="0.75" />
			</g>
			<g>
				<title>PP-binding (PF00550)
"Phosphopantetheine attachment site"</title>
				<rect class="PF00550" x="1220" y="28" stroke-linejoin="round" width="6" height="24" fill="rgb(103,191,88)" stroke="rgb(82,152,70)" stroke-width="1" opacity="0.75" />
			</g>
			<g>
				<title>Condensation (PF00668)
"Condensation domain"</title>
				<rect class="PF00668" x="1228" y="28" stroke-linejoin="round" width="44" height="24" fill="rgb(224,184,98)" stroke="rgb(179,147,78)" stroke-width="1" opacity="0.75" />
			</g>
			<g>
				<title>AMP-binding (PF00501)
"AMP-binding enzyme"</title>
				<rect class="PF00501" x="1274" y="28" stroke-linejoin="round" width="41" height="24" fill="rgb(60,217,223)" stroke="rgb(48,173,178)" stroke-width="1" opacity="0.75" />
			</g>
			<g>
				<title>AMP-binding_C (PF13193)
"AMP-binding enzyme C-terminal domain"</title>
				<rect class="PF13193" x="1317" y="28" stroke-linejoin="round" width="7" height="24" fill="rgb(182,50,118)" stroke="rgb(145,39,94)" stroke-width="1" opacity="0.75" />
			</g>
			<g>
				<title>PP-binding (PF00550)
"Phosphopantetheine attachment site"</title>
				<rect class="PF00550" x="1327" y="28" stroke-linejoin="round" width="6" height="24" fill="rgb(103,191,88)" stroke="rgb(82,152,70)" stroke-width="1" opacity="0.75" />
			</g>
			<g>
				<title>Condensation (PF00668)
"Condensation domain"</title>
				<polygon class="PF00668" points="1335,28 1362,28 1374,40 1362,52 1335,52" stroke-linejoin="round" width="42" height="24" fill="rgb(224,184,98)" stroke="rgb(179,147,78)" stroke-width="1" opacity="0.75" />
			</g>
		</g>
		<g>
			<title>cysL
CysL</title>
			<polygon class="cysL
CysL" points="1378,25 1450,25 1450,10 1480,40 1450,70 1450,55 1378,55" fill="rgb(255,255,255)" fill-opacity="1.0" stroke="rgb(0,0,0)" stroke-width="2"  />
			<g>
				<title>AMP-binding (PF00501)
"AMP-binding enzyme"</title>
				<polygon class="PF00501" points="1431,28 1464,28 1469,33 1469,47 1464,52 1431,52" stroke-linejoin="round" width="38" height="24" fill="rgb(60,217,223)" stroke="rgb(48,173,178)" stroke-width="1" opacity="0.75" />
			</g>
			<g>
				<title>AMP-binding_C (PF13193)
"AMP-binding enzyme C-terminal domain"</title>
				<polygon class="PF13193" points="1470,34 1476,40 1470,46" stroke-linejoin="round" width="8" height="24" fill="rgb(182,50,118)" stroke="rgb(145,39,94)" stroke-width="1" opacity="0.75" />
			</g>
		</g>
		<g>
			<title>cysN
CysN</title>
			<polygon class="cysN
CysN" points="1485,25 1490,25 1490,10 1520,40 1490,70 1490,55 1485,55" fill="rgb(255,255,255)" fill-opacity="1.0" stroke="rgb(0,0,0)" stroke-width="2"  />
			<g>
				<title>DAHP_synth_1 (PF00793)
"DAHP synthetase I family"</title>
				<polygon class="PF00793" points="1487,28 1504,28 1516,40 1504,52 1487,52" stroke-linejoin="round" width="31" height="24" fill="rgb(223,103,208)" stroke="rgb(178,82,166)" stroke-width="1" opacity="0.75" />
			</g>
		</g>
		<g>
			<title>
nucleoporin</title>
			<polygon class="
nucleoporin" points="1577,25 1555,25 1555,10 1525,40 1555,70 1555,55 1577,55" fill="rgb(255,255,255)" fill-opacity="1.0" stroke="rgb(0,0,0)" stroke-width="2"  />
		</g>
		<g>
			<title>
hypothetical protein</title>
			<polygon class="
hypothetical protein" points="1577,40 1603,10 1603,70" fill="rgb(255,255,255)" fill-opacity="1.0" stroke="rgb(0,0,0)" stroke-width="2"  />
			<g>
				<title>LolA_like (PF17131)
"Outer membrane lipoprotein-sorting protein"</title>
				<polygon class="PF17131" points="1581,40 1591,28 1595,28 1595,52 1591,52" stroke-linejoin="round" width="18" height="24" fill="rgb(189,100,83)" stroke="rgb(151,80,66)" stroke-width="1" opacity="0.75" />
			</g>
		</g>
		<g>
			<title>
efflux ABC transporter</title>
			<polygon class="
efflux ABC transporter" points="1647,25 1634,25 1634,10 1604,40 1634,70 1634,55 1647,55" fill="rgb(255,255,255)" fill-opacity="1.0" stroke="rgb(0,0,0)" stroke-width="2"  />
			<g>
				<title>FtsX (PF02687)
"FtsX-like permease family"</title>
				<polygon class="PF02687" points="1608,40 1616,32 1616,48" stroke-linejoin="round" width="12" height="24" fill="rgb(126,55,214)" stroke="rgb(100,44,171)" stroke-width="1" opacity="0.75" />
			</g>
		</g>
		<g>
			<title>
ABC transporter permease</title>
			<polygon class="
ABC transporter permease" points="1717,25 1677,25 1677,10 1647,40 1677,70 1677,55 1717,55" fill="rgb(255,255,255)" fill-opacity="1.0" stroke="rgb(0,0,0)" stroke-width="2"  />
			<g>
				<title>FtsX (PF02687)
"FtsX-like permease family"</title>
				<polygon class="PF02687" points="1651,40 1659,32 1659,48" stroke-linejoin="round" width="12" height="24" fill="rgb(126,55,214)" stroke="rgb(100,44,171)" stroke-width="1" opacity="0.75" />
			</g>
		</g>
		<g>
			<title>
ABC transporter ATP-binding protein</title>
			<polygon class="
ABC transporter ATP-binding protein" points="1717,40 1742,10 1742,70" fill="rgb(255,255,255)" fill-opacity="1.0" stroke="rgb(0,0,0)" stroke-width="2"  />
			<g>
				<title>ABC_tran (PF00005)
"ABC transporter"</title>
				<polygon class="PF00005" points="1724,36 1731,28 1739,28 1739,52 1731,52 1724,44" stroke-linejoin="round" width="15" height="24" fill="rgb(129,201,63)" stroke="rgb(103,160,50)" stroke-width="1" opacity="0.75" />
			</g>
		</g>
	</g>
</svg>
