<svg version="1.1" baseProfile="full" xmlns="http://www.w3.org/2000/svg" width="2242.1" height="80">
	<g>
		<line x1="10" y1="40.0" x2="2232.1" y2="40.0" style="stroke:rgb(70,70,70); stroke-width:3 "/>
		<g>
			<title> (DCC84_23115)
ornithine monooxygenase</title>
			<polygon class=" (DCC84_23115)
ornithine monooxygenase" points="54,25 40,25 40,10 10,40 40,70 40,55 54,55" fill="rgb(255,255,255)" fill-opacity="1.0" stroke="rgb(0,0,0)" stroke-width="2"  />
			<g>
				<title>Lys_Orn_oxgnase (PF13434)
"L-lysine 6-monooxygenase/L-ornithine 5-monooxygenase"</title>
				<polygon class="PF13434" points="18,36 26,28 52,28 52,52 26,52 18,44" stroke-linejoin="round" width="34" height="24" fill="rgb(81,213,119)" stroke="rgb(64,170,95)" stroke-width="1" opacity="0.75" />
			</g>
		</g>
		<g>
			<title> (DCC84_23120)
sigma-70 family RNA polymerase sigma factor</title>
			<polygon class=" (DCC84_23120)
sigma-70 family RNA polymerase sigma factor" points="58,40 74,10 74,70" fill="rgb(255,255,255)" fill-opacity="1.0" stroke="rgb(0,0,0)" stroke-width="2"  />
			<g>
				<title>Sigma70_r4_2 (PF08281)
"Sigma-70, region 4"</title>
				<polygon class="PF08281" points="61,40 64,34 64,46" stroke-linejoin="round" width="5" height="24" fill="rgb(222,103,144)" stroke="rgb(177,82,115)" stroke-width="1" opacity="0.75" />
			</g>
			<g>
				<title>Sigma70_r2 (PF04542)
"Sigma-70 region 2"</title>
				<polygon class="PF04542" points="67,29 67,28 73,28 73,52 67,52 67,51" stroke-linejoin="round" width="6" height="24" fill="rgb(184,59,197)" stroke="rgb(147,47,157)" stroke-width="1" opacity="0.75" />
			</g>
		</g>
		<g>
			<title> (DCC84_23125)
efflux RND transporter periplasmic adaptor subunit</title>
			<polygon class=" (DCC84_23125)
efflux RND transporter periplasmic adaptor subunit" points="83,25 92,25 92,10 122,40 92,70 92,55 83,55" fill="rgb(255,255,255)" fill-opacity="1.0" stroke="rgb(0,0,0)" stroke-width="2"  />
			<g>
				<title>HlyD_D23 (PF16576)
"Barrel-sandwich domain of CusB or HlyD membrane-fusion"</title>
				<polygon class="PF16576" points="87,28 105,28 109,32 109,48 105,52 87,52" stroke-linejoin="round" width="22" height="24" fill="rgb(70,190,92)" stroke="rgb(56,152,73)" stroke-width="1" opacity="0.75" />
			</g>
		</g>
		<g>
			<title>macB (DCC84_23130)
MacB family efflux pump subunit</title>
			<polygon class="macB (DCC84_23130)
MacB family efflux pump subunit" points="122,25 157,25 157,10 187,40 157,70 157,55 122,55" fill="rgb(255,255,255)" fill-opacity="1.0" stroke="rgb(0,0,0)" stroke-width="2"  />
			<g>
				<title>ABC_tran (PF00005)
"ABC transporter"</title>
				<rect class="PF00005" x="124" y="28" stroke-linejoin="round" width="14" height="24" fill="rgb(129,201,63)" stroke="rgb(103,160,50)" stroke-width="1" opacity="0.75" />
			</g>
			<g>
				<title>MacB_PCD (PF12704)
"MacB-like periplasmic core domain"</title>
				<rect class="PF12704" x="150" y="28" stroke-linejoin="round" width="21" height="24" fill="rgb(79,76,190)" stroke="rgb(63,60,152)" stroke-width="1" opacity="0.75" />
			</g>
			<g>
				<title>FtsX (PF02687)
"FtsX-like permease family"</title>
				<polygon class="PF02687" points="175,32 183,40 175,48" stroke-linejoin="round" width="11" height="24" fill="rgb(126,55,214)" stroke="rgb(100,44,171)" stroke-width="1" opacity="0.75" />
			</g>
		</g>
		<g>
			<title> (DCC84_23135)
efflux transporter outer membrane subunit</title>
			<polygon class=" (DCC84_23135)
efflux transporter outer membrane subunit" points="188,25 205,25 205,10 235,40 205,70 205,55 188,55" fill="rgb(255,255,255)" fill-opacity="1.0" stroke="rgb(0,0,0)" stroke-width="2"  />
			<g>
				<title>OEP (PF02321)
"Outer membrane efflux protein"</title>
				<rect class="PF02321" x="193" y="28" stroke-linejoin="round" width="19" height="24" fill="rgb(205,57,201)" stroke="rgb(164,45,160)" stroke-width="1" opacity="0.75" />
			</g>
			<g>
				<title>OEP (PF02321)
"Outer membrane efflux protein"</title>
				<polygon class="PF02321" points="215,28 218,28 230,40 218,52 215,52" stroke-linejoin="round" width="18" height="24" fill="rgb(205,57,201)" stroke="rgb(164,45,160)" stroke-width="1" opacity="0.75" />
			</g>
		</g>
		<g>
			<title> (DCC84_23140)
PvdJ/PvdD/PvdP-like protein</title>
			<polygon class=" (DCC84_23140)
PvdJ/PvdD/PvdP-like protein" points="290,25 266,25 266,10 236,40 266,70 266,55 290,55" fill="rgb(255,255,255)" fill-opacity="1.0" stroke="rgb(0,0,0)" stroke-width="2"  />
		</g>
		<g>
			<title> (DCC84_23145)
membrane dipeptidase</title>
			<polygon class=" (DCC84_23145)
membrane dipeptidase" points="296,25 311,25 311,10 341,40 311,70 311,55 296,55" fill="rgb(255,255,255)" fill-opacity="1.0" stroke="rgb(0,0,0)" stroke-width="2"  />
			<g>
				<title>Peptidase_M19 (PF01244)
"Membrane dipeptidase (Peptidase family M19)"</title>
				<polygon class="PF01244" points="300,28 324,28 336,40 324,52 300,52" stroke-linejoin="round" width="38" height="24" fill="rgb(178,227,92)" stroke="rgb(142,181,73)" stroke-width="1" opacity="0.75" />
			</g>
		</g>
		<g>
			<title> (DCC84_23150)
aminotransferase class V-fold PLP-dependent enzyme</title>
			<polygon class=" (DCC84_23150)
aminotransferase class V-fold PLP-dependent enzyme" points="342,25 354,25 354,10 384,40 354,70 354,55 342,55" fill="rgb(255,255,255)" fill-opacity="1.0" stroke="rgb(0,0,0)" stroke-width="2"  />
			<g>
				<title>Aminotran_5 (PF00266)
"Aminotransferase class-V"</title>
				<polygon class="PF00266" points="348,28 368,28 380,40 368,52 348,52" stroke-linejoin="round" width="35" height="24" fill="rgb(214,54,122)" stroke="rgb(171,43,97)" stroke-width="1" opacity="0.75" />
			</g>
		</g>
		<g>
			<title> (DCC84_23155)
formylglycine-generating enzyme family protein</title>
			<polygon class=" (DCC84_23155)
formylglycine-generating enzyme family protein" points="385,10 414,40 385,70" fill="rgb(255,255,255)" fill-opacity="1.0" stroke="rgb(0,0,0)" stroke-width="2"  />
			<g>
				<title>FGE-sulfatase (PF03781)
"Sulfatase-modifying factor enzyme 1"</title>
				<polygon class="PF03781" points="389,28 398,28 410,40 398,52 389,52" stroke-linejoin="round" width="24" height="24" fill="rgb(206,81,170)" stroke="rgb(164,64,136)" stroke-width="1" opacity="0.75" />
			</g>
		</g>
		<g>
			<title> (DCC84_23160)
cyclic peptide export ABC transporter</title>
			<polygon class=" (DCC84_23160)
cyclic peptide export ABC transporter" points="420,25 445,25 445,10 475,40 445,70 445,55 420,55" fill="rgb(255,255,255)" fill-opacity="1.0" stroke="rgb(0,0,0)" stroke-width="2"  />
			<g>
				<title>ABC_membrane (PF00664)
"ABC transporter transmembrane region"</title>
				<rect class="PF00664" x="421" y="28" stroke-linejoin="round" width="19" height="24" fill="rgb(149,226,73)" stroke="rgb(119,180,58)" stroke-width="1" opacity="0.75" />
			</g>
			<g>
				<title>ABC_tran (PF00005)
"ABC transporter"</title>
				<polygon class="PF00005" points="455,28 458,28 468,38 468,42 458,52 455,52" stroke-linejoin="round" width="13" height="24" fill="rgb(129,201,63)" stroke="rgb(103,160,50)" stroke-width="1" opacity="0.75" />
			</g>
		</g>
		<g>
			<title> (DCC84_23165)
TonB-dependent siderophore receptor</title>
			<polygon class=" (DCC84_23165)
TonB-dependent siderophore receptor" points="478,25 530,25 530,10 560,40 530,70 530,55 478,55" fill="rgb(255,255,255)" fill-opacity="1.0" stroke="rgb(0,0,0)" stroke-width="2"  />
			<g>
				<title>STN (PF07660)
"Secretin and TonB N terminus short domain"</title>
				<rect class="PF07660" x="484" y="28" stroke-linejoin="round" width="5" height="24" fill="rgb(78,190,205)" stroke="rgb(62,152,164)" stroke-width="1" opacity="0.75" />
			</g>
			<g>
				<title>Plug (PF07715)
"TonB-dependent Receptor Plug Domain"</title>
				<rect class="PF07715" x="494" y="28" stroke-linejoin="round" width="10" height="24" fill="rgb(99,133,214)" stroke="rgb(79,106,171)" stroke-width="1" opacity="0.75" />
			</g>
			<g>
				<title>TonB_dep_Rec (PF00593)
"TonB dependent receptor"</title>
				<polygon class="PF00593" points="510,28 543,28 555,40 543,52 510,52" stroke-linejoin="round" width="49" height="24" fill="rgb(171,200,51)" stroke="rgb(136,160,40)" stroke-width="1" opacity="0.75" />
			</g>
		</g>
		<g>
			<title> (DCC84_23170)
alpha/beta hydrolase</title>
			<polygon class=" (DCC84_23170)
alpha/beta hydrolase" points="594,25 592,25 592,10 562,40 592,70 592,55 594,55" fill="rgb(255,255,255)" fill-opacity="1.0" stroke="rgb(0,0,0)" stroke-width="2"  />
			<g>
				<title>Abhydrolase_3 (PF07859)
"alpha/beta hydrolase fold"</title>
				<polygon class="PF07859" points="566,40 578,28 585,28 585,52 578,52" stroke-linejoin="round" width="21" height="24" fill="rgb(183,51,179)" stroke="rgb(146,40,143)" stroke-width="1" opacity="0.75" />
			</g>
		</g>
		<g>
			<title> (DCC84_23175)
amino acid adenylation domain-containing protein</title>
			<polygon class=" (DCC84_23175)
amino acid adenylation domain-containing protein" points="1008,25 627,25 627,10 597,40 627,70 627,55 1008,55" fill="rgb(255,255,255)" fill-opacity="1.0" stroke="rgb(0,0,0)" stroke-width="2"  />
			<g>
				<title>Condensation (PF00668)
"Condensation domain"</title>
				<polygon class="PF00668" points="601,40 613,28 641,28 641,52 613,52" stroke-linejoin="round" width="44" height="24" fill="rgb(224,184,98)" stroke="rgb(179,147,78)" stroke-width="1" opacity="0.75" />
			</g>
			<g>
				<title>PP-binding (PF00550)
"Phosphopantetheine attachment site"</title>
				<rect class="PF00550" x="643" y="28" stroke-linejoin="round" width="6" height="24" fill="rgb(103,191,88)" stroke="rgb(82,152,70)" stroke-width="1" opacity="0.75" />
			</g>
			<g>
				<title>AMP-binding_C (PF13193)
"AMP-binding enzyme C-terminal domain"</title>
				<rect class="PF13193" x="652" y="28" stroke-linejoin="round" width="7" height="24" fill="rgb(182,50,118)" stroke="rgb(145,39,94)" stroke-width="1" opacity="0.75" />
			</g>
			<g>
				<title>AMP-binding (PF00501)
"AMP-binding enzyme"</title>
				<rect class="PF00501" x="660" y="28" stroke-linejoin="round" width="40" height="24" fill="rgb(60,217,223)" stroke="rgb(48,173,178)" stroke-width="1" opacity="0.75" />
			</g>
			<g>
				<title>Condensation (PF00668)
"Condensation domain"</title>
				<rect class="PF00668" x="702" y="28" stroke-linejoin="round" width="43" height="24" fill="rgb(224,184,98)" stroke="rgb(179,147,78)" stroke-width="1" opacity="0.75" />
			</g>
			<g>
				<title>Condensation (PF00668)
"Condensation domain"</title>
				<rect class="PF00668" x="747" y="28" stroke-linejoin="round" width="45" height="24" fill="rgb(224,184,98)" stroke="rgb(179,147,78)" stroke-width="1" opacity="0.75" />
			</g>
			<g>
				<title>PP-binding (PF00550)
"Phosphopantetheine attachment site"</title>
				<rect class="PF00550" x="793" y="28" stroke-linejoin="round" width="6" height="24" fill="rgb(103,191,88)" stroke="rgb(82,152,70)" stroke-width="1" opacity="0.75" />
			</g>
			<g>
				<title>AMP-binding_C (PF13193)
"AMP-binding enzyme C-terminal domain"</title>
				<rect class="PF13193" x="802" y="28" stroke-linejoin="round" width="7" height="24" fill="rgb(182,50,118)" stroke="rgb(145,39,94)" stroke-width="1" opacity="0.75" />
			</g>
			<g>
				<title>AMP-binding (PF00501)
"AMP-binding enzyme"</title>
				<rect class="PF00501" x="811" y="28" stroke-linejoin="round" width="39" height="24" fill="rgb(60,217,223)" stroke="rgb(48,173,178)" stroke-width="1" opacity="0.75" />
			</g>
			<g>
				<title>Condensation (PF00668)
"Condensation domain"</title>
				<rect class="PF00668" x="853" y="28" stroke-linejoin="round" width="44" height="24" fill="rgb(224,184,98)" stroke="rgb(179,147,78)" stroke-width="1" opacity="0.75" />
			</g>
			<g>
				<title>PP-binding (PF00550)
"Phosphopantetheine attachment site"</title>
				<rect class="PF00550" x="899" y="28" stroke-linejoin="round" width="6" height="24" fill="rgb(103,191,88)" stroke="rgb(82,152,70)" stroke-width="1" opacity="0.75" />
			</g>
			<g>
				<title>AMP-binding_C (PF13193)
"AMP-binding enzyme C-terminal domain"</title>
				<rect class="PF13193" x="908" y="28" stroke-linejoin="round" width="8" height="24" fill="rgb(182,50,118)" stroke="rgb(145,39,94)" stroke-width="1" opacity="0.75" />
			</g>
			<g>
				<title>AMP-binding (PF00501)
"AMP-binding enzyme"</title>
				<rect class="PF00501" x="917" y="28" stroke-linejoin="round" width="39" height="24" fill="rgb(60,217,223)" stroke="rgb(48,173,178)" stroke-width="1" opacity="0.75" />
			</g>
			<g>
				<title>Condensation (PF00668)
"Condensation domain"</title>
				<rect class="PF00668" x="958" y="28" stroke-linejoin="round" width="44" height="24" fill="rgb(224,184,98)" stroke="rgb(179,147,78)" stroke-width="1" opacity="0.75" />
			</g>
		</g>
		<g>
			<title> (DCC84_23180)
amino acid adenylation domain-containing protein</title>
			<polygon class=" (DCC84_23180)
amino acid adenylation domain-containing protein" points="1376,25 1038,25 1038,10 1008,40 1038,70 1038,55 1376,55" fill="rgb(255,255,255)" fill-opacity="1.0" stroke="rgb(0,0,0)" stroke-width="2"  />
			<g>
				<title>PP-binding (PF00550)
"Phosphopantetheine attachment site"</title>
				<polygon class="PF00550" points="1012,40 1016,36 1016,44" stroke-linejoin="round" width="6" height="24" fill="rgb(103,191,88)" stroke="rgb(82,152,70)" stroke-width="1" opacity="0.75" />
			</g>
			<g>
				<title>AMP-binding_C (PF13193)
"AMP-binding enzyme C-terminal domain"</title>
				<polygon class="PF13193" points="1019,33 1024,28 1027,28 1027,52 1024,52 1019,47" stroke-linejoin="round" width="8" height="24" fill="rgb(182,50,118)" stroke="rgb(145,39,94)" stroke-width="1" opacity="0.75" />
			</g>
			<g>
				<title>AMP-binding (PF00501)
"AMP-binding enzyme"</title>
				<rect class="PF00501" x="1028" y="28" stroke-linejoin="round" width="40" height="24" fill="rgb(60,217,223)" stroke="rgb(48,173,178)" stroke-width="1" opacity="0.75" />
			</g>
			<g>
				<title>Condensation (PF00668)
"Condensation domain"</title>
				<rect class="PF00668" x="1070" y="28" stroke-linejoin="round" width="43" height="24" fill="rgb(224,184,98)" stroke="rgb(179,147,78)" stroke-width="1" opacity="0.75" />
			</g>
			<g>
				<title>Condensation (PF00668)
"Condensation domain"</title>
				<rect class="PF00668" x="1116" y="28" stroke-linejoin="round" width="44" height="24" fill="rgb(224,184,98)" stroke="rgb(179,147,78)" stroke-width="1" opacity="0.75" />
			</g>
			<g>
				<title>PP-binding (PF00550)
"Phosphopantetheine attachment site"</title>
				<rect class="PF00550" x="1162" y="28" stroke-linejoin="round" width="6" height="24" fill="rgb(103,191,88)" stroke="rgb(82,152,70)" stroke-width="1" opacity="0.75" />
			</g>
			<g>
				<title>AMP-binding_C (PF13193)
"AMP-binding enzyme C-terminal domain"</title>
				<rect class="PF13193" x="1171" y="28" stroke-linejoin="round" width="7" height="24" fill="rgb(182,50,118)" stroke="rgb(145,39,94)" stroke-width="1" opacity="0.75" />
			</g>
			<g>
				<title>AMP-binding (PF00501)
"AMP-binding enzyme"</title>
				<rect class="PF00501" x="1179" y="28" stroke-linejoin="round" width="40" height="24" fill="rgb(60,217,223)" stroke="rgb(48,173,178)" stroke-width="1" opacity="0.75" />
			</g>
			<g>
				<title>Condensation (PF00668)
"Condensation domain"</title>
				<rect class="PF00668" x="1221" y="28" stroke-linejoin="round" width="44" height="24" fill="rgb(224,184,98)" stroke="rgb(179,147,78)" stroke-width="1" opacity="0.75" />
			</g>
			<g>
				<title>PP-binding (PF00550)
"Phosphopantetheine attachment site"</title>
				<rect class="PF00550" x="1268" y="28" stroke-linejoin="round" width="6" height="24" fill="rgb(103,191,88)" stroke="rgb(82,152,70)" stroke-width="1" opacity="0.75" />
			</g>
			<g>
				<title>AMP-binding_C (PF13193)
"AMP-binding enzyme C-terminal domain"</title>
				<rect class="PF13193" x="1277" y="28" stroke-linejoin="round" width="7" height="24" fill="rgb(182,50,118)" stroke="rgb(145,39,94)" stroke-width="1" opacity="0.75" />
			</g>
			<g>
				<title>AMP-binding (PF00501)
"AMP-binding enzyme"</title>
				<rect class="PF00501" x="1285" y="28" stroke-linejoin="round" width="40" height="24" fill="rgb(60,217,223)" stroke="rgb(48,173,178)" stroke-width="1" opacity="0.75" />
			</g>
			<g>
				<title>Condensation (PF00668)
"Condensation domain"</title>
				<rect class="PF00668" x="1327" y="28" stroke-linejoin="round" width="44" height="24" fill="rgb(224,184,98)" stroke="rgb(179,147,78)" stroke-width="1" opacity="0.75" />
			</g>
		</g>
		<g>
			<title> (DCC84_23185)
amino acid adenylation domain-containing protein</title>
			<polygon class=" (DCC84_23185)
amino acid adenylation domain-containing protein" points="1788,25 1406,25 1406,10 1376,40 1406,70 1406,55 1788,55" fill="rgb(255,255,255)" fill-opacity="1.0" stroke="rgb(0,0,0)" stroke-width="2"  />
			<g>
				<title>PP-binding (PF00550)
"Phosphopantetheine attachment site"</title>
				<polygon class="PF00550" points="1380,40 1384,36 1384,44" stroke-linejoin="round" width="6" height="24" fill="rgb(103,191,88)" stroke="rgb(82,152,70)" stroke-width="1" opacity="0.75" />
			</g>
			<g>
				<title>AMP-binding_C (PF13193)
"AMP-binding enzyme C-terminal domain"</title>
				<polygon class="PF13193" points="1387,33 1392,28 1395,28 1395,52 1392,52 1387,47" stroke-linejoin="round" width="8" height="24" fill="rgb(182,50,118)" stroke="rgb(145,39,94)" stroke-width="1" opacity="0.75" />
			</g>
			<g>
				<title>AMP-binding (PF00501)
"AMP-binding enzyme"</title>
				<rect class="PF00501" x="1396" y="28" stroke-linejoin="round" width="39" height="24" fill="rgb(60,217,223)" stroke="rgb(48,173,178)" stroke-width="1" opacity="0.75" />
			</g>
			<g>
				<title>Condensation (PF00668)
"Condensation domain"</title>
				<rect class="PF00668" x="1438" y="28" stroke-linejoin="round" width="43" height="24" fill="rgb(224,184,98)" stroke="rgb(179,147,78)" stroke-width="1" opacity="0.75" />
			</g>
			<g>
				<title>Condensation (PF00668)
"Condensation domain"</title>
				<rect class="PF00668" x="1483" y="28" stroke-linejoin="round" width="45" height="24" fill="rgb(224,184,98)" stroke="rgb(179,147,78)" stroke-width="1" opacity="0.75" />
			</g>
			<g>
				<title>PP-binding (PF00550)
"Phosphopantetheine attachment site"</title>
				<rect class="PF00550" x="1530" y="28" stroke-linejoin="round" width="6" height="24" fill="rgb(103,191,88)" stroke="rgb(82,152,70)" stroke-width="1" opacity="0.75" />
			</g>
			<g>
				<title>AMP-binding_C (PF13193)
"AMP-binding enzyme C-terminal domain"</title>
				<rect class="PF13193" x="1539" y="28" stroke-linejoin="round" width="7" height="24" fill="rgb(182,50,118)" stroke="rgb(145,39,94)" stroke-width="1" opacity="0.75" />
			</g>
			<g>
				<title>AMP-binding (PF00501)
"AMP-binding enzyme"</title>
				<rect class="PF00501" x="1547" y="28" stroke-linejoin="round" width="40" height="24" fill="rgb(60,217,223)" stroke="rgb(48,173,178)" stroke-width="1" opacity="0.75" />
			</g>
			<g>
				<title>Condensation (PF00668)
"Condensation domain"</title>
				<rect class="PF00668" x="1589" y="28" stroke-linejoin="round" width="43" height="24" fill="rgb(224,184,98)" stroke="rgb(179,147,78)" stroke-width="1" opacity="0.75" />
			</g>
			<g>
				<title>Condensation (PF00668)
"Condensation domain"</title>
				<rect class="PF00668" x="1634" y="28" stroke-linejoin="round" width="44" height="24" fill="rgb(224,184,98)" stroke="rgb(179,147,78)" stroke-width="1" opacity="0.75" />
			</g>
			<g>
				<title>PP-binding (PF00550)
"Phosphopantetheine attachment site"</title>
				<rect class="PF00550" x="1680" y="28" stroke-linejoin="round" width="6" height="24" fill="rgb(103,191,88)" stroke="rgb(82,152,70)" stroke-width="1" opacity="0.75" />
			</g>
			<g>
				<title>AMP-binding_C (PF13193)
"AMP-binding enzyme C-terminal domain"</title>
				<rect class="PF13193" x="1688" y="28" stroke-linejoin="round" width="7" height="24" fill="rgb(182,50,118)" stroke="rgb(145,39,94)" stroke-width="1" opacity="0.75" />
			</g>
			<g>
				<title>AMP-binding (PF00501)
"AMP-binding enzyme"</title>
				<rect class="PF00501" x="1696" y="28" stroke-linejoin="round" width="39" height="24" fill="rgb(60,217,223)" stroke="rgb(48,173,178)" stroke-width="1" opacity="0.75" />
			</g>
			<g>
				<title>Condensation (PF00668)
"Condensation domain"</title>
				<rect class="PF00668" x="1738" y="28" stroke-linejoin="round" width="45" height="24" fill="rgb(224,184,98)" stroke="rgb(179,147,78)" stroke-width="1" opacity="0.75" />
			</g>
		</g>
		<g>
			<title> (DCC84_23190)
type II toxin-antitoxin system HicA family toxin</title>
			<polygon class=" (DCC84_23190)
type II toxin-antitoxin system HicA family toxin" points="1796,10 1804,40 1796,70" fill="rgb(255,255,255)" fill-opacity="1.0" stroke="rgb(0,0,0)" stroke-width="2"  />
			<g>
				<title>HicA_toxin (PF07927)
"HicA toxin of bacterial toxin-antitoxin,"</title>
				<polygon class="PF07927" points="1798,29 1801,40 1798,51" stroke-linejoin="round" width="5" height="24" fill="rgb(182,96,204)" stroke="rgb(145,76,163)" stroke-width="1" opacity="0.75" />
			</g>
		</g>
		<g>
			<title> (DCC84_23195)
type II toxin-antitoxin system HicB family antitoxin</title>
			<polygon class=" (DCC84_23195)
type II toxin-antitoxin system HicB family antitoxin" points="1804,10 1815,40 1804,70" fill="rgb(255,255,255)" fill-opacity="1.0" stroke="rgb(0,0,0)" stroke-width="2"  />
			<g>
				<title>HicB (PF05534)
"HicB family"</title>
				<polygon class="PF05534" points="1809,31 1812,40 1809,49" stroke-linejoin="round" width="5" height="24" fill="rgb(211,104,205)" stroke="rgb(168,83,164)" stroke-width="1" opacity="0.75" />
			</g>
		</g>
		<g>
			<title> (DCC84_23200)
MFS transporter</title>
			<polygon class=" (DCC84_23200)
MFS transporter" points="1855,25 1846,25 1846,10 1816,40 1846,70 1846,55 1855,55" fill="rgb(255,255,255)" fill-opacity="1.0" stroke="rgb(0,0,0)" stroke-width="2"  />
			<g>
				<title>MFS_1 (PF07690)
"Major Facilitator Superfamily"</title>
				<polygon class="PF07690" points="1820,40 1832,28 1833,28 1833,52 1832,52" stroke-linejoin="round" width="17" height="24" fill="rgb(193,224,74)" stroke="rgb(154,179,59)" stroke-width="1" opacity="0.75" />
			</g>
		</g>
		<g>
			<title> (DCC84_23205)
TetR/AcrR family transcriptional regulator</title>
			<polygon class=" (DCC84_23205)
TetR/AcrR family transcriptional regulator" points="1859,10 1878,40 1859,70" fill="rgb(255,255,255)" fill-opacity="1.0" stroke="rgb(0,0,0)" stroke-width="2"  />
			<g>
				<title>TetR_N (PF00440)
"Bacterial regulatory proteins, tetR family"</title>
				<rect class="PF00440" x="1860" y="28" stroke-linejoin="round" width="4" height="24" fill="rgb(73,212,190)" stroke="rgb(58,169,152)" stroke-width="1" opacity="0.75" />
			</g>
		</g>
		<g>
			<title> (DCC84_23210)
helix-turn-helix domain-containing protein</title>
			<polygon class=" (DCC84_23210)
helix-turn-helix domain-containing protein" points="1885,10 1888,40 1885,70" fill="rgb(255,255,255)" fill-opacity="1.0" stroke="rgb(0,0,0)" stroke-width="2"  />
		</g>
		<g>
			<title> (DCC84_23215)
helix-turn-helix domain-containing protein</title>
			<polygon class=" (DCC84_23215)
helix-turn-helix domain-containing protein" points="1898,40 1901,10 1901,70" fill="rgb(255,255,255)" fill-opacity="1.0" stroke="rgb(0,0,0)" stroke-width="2"  />
		</g>
		<g>
			<title> (DCC84_23220)
DHA2 family efflux MFS transporter permease subunit</title>
			<polygon class=" (DCC84_23220)
DHA2 family efflux MFS transporter permease subunit" points="1959,25 1939,25 1939,10 1909,40 1939,70 1939,55 1959,55" fill="rgb(255,255,255)" fill-opacity="1.0" stroke="rgb(0,0,0)" stroke-width="2"  />
			<g>
				<title>MFS_1 (PF07690)
"Major Facilitator Superfamily"</title>
				<polygon class="PF07690" points="1918,35 1925,28 1957,28 1957,52 1925,52 1918,45" stroke-linejoin="round" width="39" height="24" fill="rgb(193,224,74)" stroke="rgb(154,179,59)" stroke-width="1" opacity="0.75" />
			</g>
		</g>
		<g>
			<title> (DCC84_23225)
HlyD family secretion protein</title>
			<polygon class=" (DCC84_23225)
HlyD family secretion protein" points="1996,25 1989,25 1989,10 1959,40 1989,70 1989,55 1996,55" fill="rgb(255,255,255)" fill-opacity="1.0" stroke="rgb(0,0,0)" stroke-width="2"  />
			<g>
				<title>HlyD_D23 (PF16576)
"Barrel-sandwich domain of CusB or HlyD membrane-fusion"</title>
				<polygon class="PF16576" points="1965,38 1975,28 1981,28 1981,52 1975,52 1965,42" stroke-linejoin="round" width="16" height="24" fill="rgb(70,190,92)" stroke="rgb(56,152,73)" stroke-width="1" opacity="0.75" />
			</g>
			<g>
				<title>Biotin_lipoyl_2 (PF13533)
"Biotin-lipoyl like"</title>
				<rect class="PF13533" x="1986" y="28" stroke-linejoin="round" width="5" height="24" fill="rgb(229,122,112)" stroke="rgb(183,97,89)" stroke-width="1" opacity="0.75" />
			</g>
		</g>
		<g>
			<title> (DCC84_23230)
TolC family protein</title>
			<polygon class=" (DCC84_23230)
TolC family protein" points="2045,25 2027,25 2027,10 1997,40 2027,70 2027,55 2045,55" fill="rgb(255,255,255)" fill-opacity="1.0" stroke="rgb(0,0,0)" stroke-width="2"  />
			<g>
				<title>OEP (PF02321)
"Outer membrane efflux protein"</title>
				<polygon class="PF02321" points="2001,40 2013,28 2017,28 2017,52 2013,52" stroke-linejoin="round" width="18" height="24" fill="rgb(205,57,201)" stroke="rgb(164,45,160)" stroke-width="1" opacity="0.75" />
			</g>
			<g>
				<title>OEP (PF02321)
"Outer membrane efflux protein"</title>
				<rect class="PF02321" x="2020" y="28" stroke-linejoin="round" width="19" height="24" fill="rgb(205,57,201)" stroke="rgb(164,45,160)" stroke-width="1" opacity="0.75" />
			</g>
		</g>
		<g>
			<title> (DCC84_23235)
AraC family transcriptional regulator</title>
			<polygon class=" (DCC84_23235)
AraC family transcriptional regulator" points="2049,40 2073,10 2073,70" fill="rgb(255,255,255)" fill-opacity="1.0" stroke="rgb(0,0,0)" stroke-width="2"  />
			<g>
				<title>HTH_18 (PF12833)
"Helix-turn-helix domain"</title>
				<polygon class="PF12833" points="2053,40 2056,36 2056,44" stroke-linejoin="round" width="7" height="24" fill="rgb(216,58,224)" stroke="rgb(172,46,179)" stroke-width="1" opacity="0.75" />
			</g>
			<g>
				<title>AraC_binding (PF02311)
"AraC-like ligand binding domain"</title>
				<polygon class="PF02311" points="2060,32 2063,28 2072,28 2072,52 2063,52 2060,48" stroke-linejoin="round" width="12" height="24" fill="rgb(81,203,213)" stroke="rgb(64,162,170)" stroke-width="1" opacity="0.75" />
			</g>
		</g>
		<g>
			<title> (DCC84_23240)
SDR family oxidoreductase</title>
			<polygon class=" (DCC84_23240)
SDR family oxidoreductase" points="2079,10 2105,40 2079,70" fill="rgb(255,255,255)" fill-opacity="1.0" stroke="rgb(0,0,0)" stroke-width="2"  />
			<g>
				<title>adh_short_C2 (PF13561)
"Enoyl-(Acyl carrier protein) reductase"</title>
				<polygon class="PF13561" points="2080,28 2090,28 2101,40 2090,52 2080,52" stroke-linejoin="round" width="24" height="24" fill="rgb(73,205,127)" stroke="rgb(58,164,101)" stroke-width="1" opacity="0.75" />
			</g>
		</g>
		<g>
			<title> (DCC84_23245)
glycoside hydrolase family 15 protein</title>
			<polygon class=" (DCC84_23245)
glycoside hydrolase family 15 protein" points="2105,25 2135,25 2135,10 2165,40 2135,70 2135,55 2105,55" fill="rgb(255,255,255)" fill-opacity="1.0" stroke="rgb(0,0,0)" stroke-width="2"  />
			<g>
				<title>TREH_N (PF19291)
"Trehalase-like, N-terminal"</title>
				<rect class="PF19291" x="2105" y="28" stroke-linejoin="round" width="18" height="24" fill="rgb(73,223,127)" stroke="rgb(58,178,101)" stroke-width="1" opacity="0.75" />
			</g>
			<g>
				<title>Glyco_hydro_15 (PF00723)
"Glycosyl hydrolases family 15"</title>
				<polygon class="PF00723" points="2127,28 2149,28 2160,39 2160,41 2149,52 2127,52" stroke-linejoin="round" width="33" height="24" fill="rgb(185,199,89)" stroke="rgb(148,159,71)" stroke-width="1" opacity="0.75" />
			</g>
		</g>
		<g>
			<title> (DCC84_23250)
cysteine hydrolase family protein</title>
			<polygon class=" (DCC84_23250)
cysteine hydrolase family protein" points="2171,10 2186,40 2171,70" fill="rgb(255,255,255)" fill-opacity="1.0" stroke="rgb(0,0,0)" stroke-width="2"  />
			<g>
				<title>Isochorismatase (PF00857)
"Isochorismatase family"</title>
				<polygon class="PF00857" points="2171,28 2176,28 2183,40 2176,52 2171,52" stroke-linejoin="round" width="14" height="24" fill="rgb(144,224,70)" stroke="rgb(115,179,56)" stroke-width="1" opacity="0.75" />
			</g>
		</g>
		<g>
			<title> (DCC84_23255)
NAD-dependent DNA ligase</title>
			<polygon class=" (DCC84_23255)
NAD-dependent DNA ligase" points="2192,10 2194,40 2192,70" fill="rgb(255,255,255)" fill-opacity="1.0" stroke="rgb(0,0,0)" stroke-width="2"  />
		</g>
		<g>
			<title> (DCC84_23260)
glyoxalase/bleomycin resistance/dioxygenase family protein</title>
			<polygon class=" (DCC84_23260)
glyoxalase/bleomycin resistance/dioxygenase family protein" points="2195,10 2200,40 2195,70" fill="rgb(255,255,255)" fill-opacity="1.0" stroke="rgb(0,0,0)" stroke-width="2"  />
		</g>
		<g>
			<title> (DCC84_23265)
alpha/beta hydrolase</title>
			<polygon class=" (DCC84_23265)
alpha/beta hydrolase" points="2201,25 2201,25 2201,10 2231,40 2201,70 2201,55 2201,55" fill="rgb(255,255,255)" fill-opacity="1.0" stroke="rgb(0,0,0)" stroke-width="2"  />
			<g>
				<title>Abhydrolase_1 (PF00561)
"alpha/beta hydrolase fold"</title>
				<polygon class="PF00561" points="2203,28 2215,28 2227,40 2215,52 2203,52" stroke-linejoin="round" width="25" height="24" fill="rgb(86,180,151)" stroke="rgb(68,144,120)" stroke-width="1" opacity="0.75" />
			</g>
		</g>
	</g>
</svg>
