<svg version="1.1" baseProfile="full" xmlns="http://www.w3.org/2000/svg" width="399.6" height="80">
	<g>
		<line x1="10" y1="40.0" x2="389.6" y2="40.0" style="stroke:rgb(70,70,70); stroke-width:3 "/>
		<g>
			<title>cfgR
putative response regulator</title>
			<polygon class="cfgR
putative response regulator" points="15,10 40,40 15,70" fill="rgb(255,255,255)" fill-opacity="1.0" stroke="rgb(0,0,0)" stroke-width="2"  />
			<g>
				<title>Response_reg (PF00072)
"Response regulator receiver domain"</title>
				<rect class="PF00072" x="15" y="28" stroke-linejoin="round" width="11" height="24" fill="rgb(100,107,203)" stroke="rgb(80,85,162)" stroke-width="1" opacity="0.75" />
			</g>
			<g>
				<title>LytTR (PF04397)
"LytTr DNA-binding domain"</title>
				<polygon class="PF04397" points="30,32 36,40 30,48" stroke-linejoin="round" width="9" height="24" fill="rgb(207,76,174)" stroke="rgb(165,60,139)" stroke-width="1" opacity="0.75" />
			</g>
		</g>
		<g>
			<title>cfgK
putative histidine kinase</title>
			<polygon class="cfgK
putative histidine kinase" points="41,25 53,25 53,10 83,40 53,70 53,55 41,55" fill="rgb(255,255,255)" fill-opacity="1.0" stroke="rgb(0,0,0)" stroke-width="2"  />
			<g>
				<title>HATPase_c_5 (PF14501)
"GHKL domain"</title>
				<polygon class="PF14501" points="71,32 79,40 71,48" stroke-linejoin="round" width="10" height="24" fill="rgb(137,71,210)" stroke="rgb(109,56,168)" stroke-width="1" opacity="0.75" />
			</g>
		</g>
		<g>
			<title>cfg02
putative ArgB homologue</title>
			<polygon class="cfg02
putative ArgB homologue" points="84,40 104,10 104,70" fill="rgb(255,255,255)" fill-opacity="1.0" stroke="rgb(0,0,0)" stroke-width="2"  />
			<g>
				<title>AgrB (PF04647)
"Accessory gene regulator B"</title>
				<polygon class="PF04647" points="88,40 96,28 103,28 103,52 96,52" stroke-linejoin="round" width="17" height="24" fill="rgb(181,182,61)" stroke="rgb(144,145,48)" stroke-width="1" opacity="0.75" />
			</g>
		</g>
		<g>
			<title>cfg01
hypothetical protein</title>
			<polygon class="cfg01
hypothetical protein" points="112,40 125,10 125,70" fill="rgb(255,255,255)" fill-opacity="1.0" stroke="rgb(0,0,0)" stroke-width="2"  />
		</g>
		<g>
			<title>cirA
circularin A precursor</title>
			<polygon class="cirA
circularin A precursor" points="136,10 143,40 136,70" fill="rgb(255,255,255)" fill-opacity="1.0" stroke="rgb(0,0,0)" stroke-width="2"  />
			<g>
				<title>Bacteriocin_IId (PF09221)
"Bacteriocin class IId cyclical uberolysin-like"</title>
				<polygon class="PF09221" points="136,28 136,28 140,40 136,52 136,52" stroke-linejoin="round" width="6" height="24" fill="rgb(200,220,70)" stroke="rgb(160,176,56)" stroke-width="1" opacity="0.75" />
			</g>
		</g>
		<g>
			<title>cirB
CirB protein</title>
			<polygon class="cirB
CirB protein" points="146,25 174,25 174,10 204,40 174,70 174,55 146,55" fill="rgb(255,255,255)" fill-opacity="1.0" stroke="rgb(0,0,0)" stroke-width="2"  />
		</g>
		<g>
			<title>cirC
CirC protein</title>
			<polygon class="cirC
CirC protein" points="204,10 222,40 204,70" fill="rgb(255,255,255)" fill-opacity="1.0" stroke="rgb(0,0,0)" stroke-width="2"  />
			<g>
				<title>SpoIIM (PF01944)
"Stage II sporulation protein M"</title>
				<polygon class="PF01944" points="207,28 211,28 219,40 211,52 207,52" stroke-linejoin="round" width="15" height="24" fill="rgb(96,132,207)" stroke="rgb(76,105,165)" stroke-width="1" opacity="0.75" />
			</g>
		</g>
		<g>
			<title>cirD
ATP-binding protein</title>
			<polygon class="cirD
ATP-binding protein" points="222,10 244,40 222,70" fill="rgb(255,255,255)" fill-opacity="1.0" stroke="rgb(0,0,0)" stroke-width="2"  />
			<g>
				<title>ABC_tran (PF00005)
"ABC transporter"</title>
				<polygon class="PF00005" points="224,28 231,28 238,37 238,43 231,52 224,52" stroke-linejoin="round" width="14" height="24" fill="rgb(129,201,63)" stroke="rgb(103,160,50)" stroke-width="1" opacity="0.75" />
			</g>
		</g>
		<g>
			<title>cirE
circularin immunity protein</title>
			<polygon class="cirE
circularin immunity protein" points="246,10 251,40 246,70" fill="rgb(255,255,255)" fill-opacity="1.0" stroke="rgb(0,0,0)" stroke-width="2"  />
		</g>
		<g>
			<title>cirG
putative hylD family protein</title>
			<polygon class="cirG
putative hylD family protein" points="253,25 270,25 270,10 300,40 270,70 270,55 253,55" fill="rgb(255,255,255)" fill-opacity="1.0" stroke="rgb(0,0,0)" stroke-width="2"  />
			<g>
				<title>Biotin_lipoyl_2 (PF13533)
"Biotin-lipoyl like"</title>
				<rect class="PF13533" x="261" y="28" stroke-linejoin="round" width="4" height="24" fill="rgb(229,122,112)" stroke="rgb(183,97,89)" stroke-width="1" opacity="0.75" />
			</g>
			<g>
				<title>HlyD_D23 (PF16576)
"Barrel-sandwich domain of CusB or HlyD membrane-fusion"</title>
				<polygon class="PF16576" points="272,28 284,28 287,31 287,49 284,52 272,52" stroke-linejoin="round" width="15" height="24" fill="rgb(70,190,92)" stroke="rgb(56,152,73)" stroke-width="1" opacity="0.75" />
			</g>
		</g>
		<g>
			<title>cirH
ATP binding protein</title>
			<polygon class="cirH
ATP binding protein" points="300,10 324,40 300,70" fill="rgb(255,255,255)" fill-opacity="1.0" stroke="rgb(0,0,0)" stroke-width="2"  />
			<g>
				<title>ABC_tran (PF00005)
"ABC transporter"</title>
				<polygon class="PF00005" points="302,28 311,28 316,34 316,46 311,52 302,52" stroke-linejoin="round" width="14" height="24" fill="rgb(129,201,63)" stroke="rgb(103,160,50)" stroke-width="1" opacity="0.75" />
			</g>
		</g>
		<g>
			<title>cirI
putative ABC transporter permease</title>
			<polygon class="cirI
putative ABC transporter permease" points="325,25 337,25 337,10 367,40 337,70 337,55 325,55" fill="rgb(255,255,255)" fill-opacity="1.0" stroke="rgb(0,0,0)" stroke-width="2"  />
			<g>
				<title>MacB_PCD (PF12704)
"MacB-like periplasmic core domain"</title>
				<rect class="PF12704" x="327" y="28" stroke-linejoin="round" width="24" height="24" fill="rgb(79,76,190)" stroke="rgb(63,60,152)" stroke-width="1" opacity="0.75" />
			</g>
			<g>
				<title>FtsX (PF02687)
"FtsX-like permease family"</title>
				<polygon class="PF02687" points="353,30 363,40 353,50" stroke-linejoin="round" width="12" height="24" fill="rgb(126,55,214)" stroke="rgb(100,44,171)" stroke-width="1" opacity="0.75" />
			</g>
		</g>
	</g>
</svg>
