<svg version="1.1" baseProfile="full" xmlns="http://www.w3.org/2000/svg" width="625.1333333333333" height="80">
	<g>
		<line x1="10" y1="40.0" x2="615.1333333333333" y2="40.0" style="stroke:rgb(70,70,70); stroke-width:3 "/>
		<g>
			<title>creA
CreA</title>
			<polygon class="creA
CreA" points="10,25 16,25 16,10 46,40 16,70 16,55 10,55" fill="rgb(255,255,255)" fill-opacity="1.0" stroke="rgb(0,0,0)" stroke-width="2"  />
			<g>
				<title>Nitroreductase (PF00881)
"Nitroreductase family"</title>
				<polygon class="PF00881" points="25,28 30,28 42,40 30,52 25,52" stroke-linejoin="round" width="18" height="24" fill="rgb(79,118,187)" stroke="rgb(63,94,149)" stroke-width="1" opacity="0.75" />
			</g>
		</g>
		<g>
			<title>creB
CreB</title>
			<polygon class="creB
CreB" points="49,25 59,25 59,10 89,40 59,70 59,55 49,55" fill="rgb(255,255,255)" fill-opacity="1.0" stroke="rgb(0,0,0)" stroke-width="2"  />
			<g>
				<title>JmjC_2 (PF08007)
"JmjC domain"</title>
				<rect class="PF08007" x="59" y="28" stroke-linejoin="round" width="13" height="24" fill="rgb(100,90,217)" stroke="rgb(80,72,173)" stroke-width="1" opacity="0.75" />
			</g>
		</g>
		<g>
			<title>creC
CreC</title>
			<polygon class="creC
CreC" points="90,25 106,25 106,10 136,40 106,70 106,55 90,55" fill="rgb(255,255,255)" fill-opacity="1.0" stroke="rgb(0,0,0)" stroke-width="2"  />
			<g>
				<title>MFS_3 (PF05977)
"Transmembrane secretion effector"</title>
				<polygon class="PF05977" points="96,28 120,28 132,40 120,52 96,52" stroke-linejoin="round" width="39" height="24" fill="rgb(80,62,217)" stroke="rgb(64,49,173)" stroke-width="1" opacity="0.75" />
			</g>
		</g>
		<g>
			<title>creD
CreD</title>
			<polygon class="creD
CreD" points="204,25 187,25 187,10 157,40 187,70 187,55 204,55" fill="rgb(255,255,255)" fill-opacity="1.0" stroke="rgb(0,0,0)" stroke-width="2"  />
			<g>
				<title>ADSL_C (PF10397)
"Adenylosuccinate lyase C-terminus"</title>
				<polygon class="PF10397" points="161,40 165,36 165,44" stroke-linejoin="round" width="7" height="24" fill="rgb(198,156,85)" stroke="rgb(158,124,68)" stroke-width="1" opacity="0.75" />
			</g>
			<g>
				<title>Lyase_1 (PF00206)
"Lyase"</title>
				<polygon class="PF00206" points="172,29 173,28 201,28 201,52 173,52 172,51" stroke-linejoin="round" width="29" height="24" fill="rgb(217,92,141)" stroke="rgb(173,73,112)" stroke-width="1" opacity="0.75" />
			</g>
		</g>
		<g>
			<title>creE
CreE</title>
			<polygon class="creE
CreE" points="270,25 234,25 234,10 204,40 234,70 234,55 270,55" fill="rgb(255,255,255)" fill-opacity="1.0" stroke="rgb(0,0,0)" stroke-width="2"  />
			<g>
				<title>NAD_binding_9 (PF13454)
"FAD-NAD(P)-binding"</title>
				<rect class="PF13454" x="251" y="28" stroke-linejoin="round" width="18" height="24" fill="rgb(102,219,118)" stroke="rgb(81,175,94)" stroke-width="1" opacity="0.75" />
			</g>
		</g>
		<g>
			<title>creH
CreH</title>
			<polygon class="creH
CreH" points="312,25 306,25 306,10 276,40 306,70 306,55 312,55" fill="rgb(255,255,255)" fill-opacity="1.0" stroke="rgb(0,0,0)" stroke-width="2"  />
			<g>
				<title>DHQS (PF01959)
"3-dehydroquinate synthase II"</title>
				<polygon class="PF01959" points="280,40 292,28 312,28 312,52 292,52" stroke-linejoin="round" width="36" height="24" fill="rgb(199,181,86)" stroke="rgb(159,144,68)" stroke-width="1" opacity="0.75" />
			</g>
		</g>
		<g>
			<title>creI
creI</title>
			<polygon class="creI
creI" points="313,40 340,10 340,70" fill="rgb(255,255,255)" fill-opacity="1.0" stroke="rgb(0,0,0)" stroke-width="2"  />
			<g>
				<title>DeoC (PF01791)
"DeoC/LacD family aldolase"</title>
				<polygon class="PF01791" points="317,40 328,28 338,28 338,52 328,52 317,40" stroke-linejoin="round" width="21" height="24" fill="rgb(151,59,198)" stroke="rgb(120,47,158)" stroke-width="1" opacity="0.75" />
			</g>
		</g>
		<g>
			<title>creF
CreF</title>
			<polygon class="creF
CreF" points="354,10 382,40 354,70" fill="rgb(255,255,255)" fill-opacity="1.0" stroke="rgb(0,0,0)" stroke-width="2"  />
			<g>
				<title>Trans_reg_C (PF00486)
"Transcriptional regulatory protein, C terminal"</title>
				<rect class="PF00486" x="358" y="28" stroke-linejoin="round" width="8" height="24" fill="rgb(204,153,57)" stroke="rgb(163,122,45)" stroke-width="1" opacity="0.75" />
			</g>
			<g>
				<title>BTAD (PF03704)
"Bacterial transcriptional activator domain"</title>
				<polygon class="PF03704" points="367,28 378,40 367,52" stroke-linejoin="round" width="14" height="24" fill="rgb(217,89,196)" stroke="rgb(173,71,156)" stroke-width="1" opacity="0.75" />
			</g>
		</g>
		<g>
			<title>creG
CreG</title>
			<polygon class="creG
CreG" points="382,40 407,10 407,70" fill="rgb(255,255,255)" fill-opacity="1.0" stroke="rgb(0,0,0)" stroke-width="2"  />
			<g>
				<title>HTH_23 (PF13384)
"Homeodomain-like domain"</title>
				<polygon class="PF13384" points="386,40 387,39 387,41" stroke-linejoin="round" width="4" height="24" fill="rgb(77,216,116)" stroke="rgb(61,172,92)" stroke-width="1" opacity="0.75" />
			</g>
		</g>
		<g>
			<title>creJ
CreJ</title>
			<polygon class="creJ
CreJ" points="410,40 426,10 426,70" fill="rgb(255,255,255)" fill-opacity="1.0" stroke="rgb(0,0,0)" stroke-width="2"  />
			<g>
				<title>Rrf2 (PF02082)
"Iron-dependent Transcriptional regulator"</title>
				<polygon class="PF02082" points="413,40 420,28 425,28 425,52 420,52" stroke-linejoin="round" width="13" height="24" fill="rgb(73,178,133)" stroke="rgb(58,142,106)" stroke-width="1" opacity="0.75" />
			</g>
		</g>
		<g>
			<title>creK
CreK</title>
			<polygon class="creK
CreK" points="429,25 442,25 442,10 472,40 442,70 442,55 429,55" fill="rgb(255,255,255)" fill-opacity="1.0" stroke="rgb(0,0,0)" stroke-width="2"  />
			<g>
				<title>MFS_1 (PF07690)
"Major Facilitator Superfamily"</title>
				<polygon class="PF07690" points="432,28 455,28 466,39 466,41 455,52 432,52" stroke-linejoin="round" width="34" height="24" fill="rgb(193,224,74)" stroke="rgb(154,179,59)" stroke-width="1" opacity="0.75" />
			</g>
		</g>
		<g>
			<title>creL
CreL</title>
			<polygon class="creL
CreL" points="481,25 490,25 490,10 520,40 490,70 490,55 481,55" fill="rgb(255,255,255)" fill-opacity="1.0" stroke="rgb(0,0,0)" stroke-width="2"  />
			<g>
				<title>FAD_binding_3 (PF01494)
"FAD binding domain"</title>
				<polygon class="PF01494" points="481,28 504,28 514,38 514,42 504,52 481,52" stroke-linejoin="round" width="33" height="24" fill="rgb(182,175,59)" stroke="rgb(145,140,47)" stroke-width="1" opacity="0.75" />
			</g>
		</g>
		<g>
			<title>creM
CreM</title>
			<polygon class="creM
CreM" points="523,25 548,25 548,10 578,40 548,70 548,55 523,55" fill="rgb(255,255,255)" fill-opacity="1.0" stroke="rgb(0,0,0)" stroke-width="2"  />
			<g>
				<title>AMP-binding (PF00501)
"AMP-binding enzyme"</title>
				<polygon class="PF00501" points="525,28 562,28 568,34 568,46 562,52 525,52" stroke-linejoin="round" width="43" height="24" fill="rgb(60,217,223)" stroke="rgb(48,173,178)" stroke-width="1" opacity="0.75" />
			</g>
		</g>
		<g>
			<title>creN
CreN</title>
			<polygon class="creN
CreN" points="578,25 584,25 584,10 614,40 584,70 584,55 578,55" fill="rgb(255,255,255)" fill-opacity="1.0" stroke="rgb(0,0,0)" stroke-width="2"  />
			<g>
				<title>Dimerisation2 (PF16864)
"Dimerisation domain"</title>
				<rect class="PF16864" x="581" y="28" stroke-linejoin="round" width="8" height="24" fill="rgb(84,199,85)" stroke="rgb(67,159,68)" stroke-width="1" opacity="0.75" />
			</g>
			<g>
				<title>Methyltransf_2 (PF00891)
"O-methyltransferase domain"</title>
				<polygon class="PF00891" points="591,28 598,28 610,40 598,52 591,52" stroke-linejoin="round" width="20" height="24" fill="rgb(50,51,190)" stroke="rgb(39,40,152)" stroke-width="1" opacity="0.75" />
			</g>
		</g>
	</g>
</svg>
