<svg version="1.1" baseProfile="full" xmlns="http://www.w3.org/2000/svg" width="541.7666666666667" height="80">
	<g>
		<line x1="10" y1="40.0" x2="531.7666666666667" y2="40.0" style="stroke:rgb(70,70,70); stroke-width:3 "/>
		<g>
			<title>nsuP
NsuP</title>
			<polygon class="nsuP
NsuP" points="29,25 45,25 45,10 75,40 45,70 45,55 29,55" fill="rgb(255,255,255)" fill-opacity="1.0" stroke="rgb(0,0,0)" stroke-width="2"  />
			<g>
				<title>Peptidase_S8 (PF00082)
"Subtilase family"</title>
				<polygon class="PF00082" points="43,28 58,28 70,40 58,52 43,52" stroke-linejoin="round" width="29" height="24" fill="rgb(193,159,94)" stroke="rgb(154,127,75)" stroke-width="1" opacity="0.75" />
			</g>
		</g>
		<g>
			<title>nsuR
NsuR</title>
			<polygon class="nsuR
NsuR" points="76,10 99,40 76,70" fill="rgb(255,255,255)" fill-opacity="1.0" stroke="rgb(0,0,0)" stroke-width="2"  />
			<g>
				<title>Response_reg (PF00072)
"Response regulator receiver domain"</title>
				<rect class="PF00072" x="76" y="28" stroke-linejoin="round" width="10" height="24" fill="rgb(100,107,203)" stroke="rgb(80,85,162)" stroke-width="1" opacity="0.75" />
			</g>
			<g>
				<title>Trans_reg_C (PF00486)
"Transcriptional regulatory protein, C terminal"</title>
				<polygon class="PF00486" points="91,35 95,40 91,45" stroke-linejoin="round" width="7" height="24" fill="rgb(204,153,57)" stroke="rgb(163,122,45)" stroke-width="1" opacity="0.75" />
			</g>
		</g>
		<g>
			<title>nsuK
NsuK</title>
			<polygon class="nsuK
NsuK" points="99,25 113,25 113,10 143,40 113,70 113,55 99,55" fill="rgb(255,255,255)" fill-opacity="1.0" stroke="rgb(0,0,0)" stroke-width="2"  />
			<g>
				<title>HisKA (PF00512)
"His Kinase A (phospho-acceptor) domain"</title>
				<rect class="PF00512" x="121" y="28" stroke-linejoin="round" width="6" height="24" fill="rgb(193,125,62)" stroke="rgb(154,100,49)" stroke-width="1" opacity="0.75" />
			</g>
			<g>
				<title>HATPase_c (PF02518)
"Histidine kinase-, DNA gyrase B-, and HSP90-like ATPase"</title>
				<polygon class="PF02518" points="132,33 139,40 132,47" stroke-linejoin="round" width="11" height="24" fill="rgb(80,94,225)" stroke="rgb(64,75,180)" stroke-width="1" opacity="0.75" />
			</g>
		</g>
		<g>
			<title>nsuF
NsuF</title>
			<polygon class="nsuF
NsuF" points="147,10 170,40 147,70" fill="rgb(255,255,255)" fill-opacity="1.0" stroke="rgb(0,0,0)" stroke-width="2"  />
			<g>
				<title>ABC_tran (PF00005)
"ABC transporter"</title>
				<polygon class="PF00005" points="148,28 157,28 161,34 161,46 157,52 148,52" stroke-linejoin="round" width="13" height="24" fill="rgb(129,201,63)" stroke="rgb(103,160,50)" stroke-width="1" opacity="0.75" />
			</g>
		</g>
		<g>
			<title>nsuE
NsuE</title>
			<polygon class="nsuE
NsuE" points="170,10 195,40 170,70" fill="rgb(255,255,255)" fill-opacity="1.0" stroke="rgb(0,0,0)" stroke-width="2"  />
		</g>
		<g>
			<title>nsuG
NsuG</title>
			<polygon class="nsuG
NsuG" points="194,10 217,40 194,70" fill="rgb(255,255,255)" fill-opacity="1.0" stroke="rgb(0,0,0)" stroke-width="2"  />
		</g>
		<g>
			<title>nsuA
NsuA</title>
			<polygon class="nsuA
NsuA" points="242,10 247,40 242,70" fill="rgb(255,255,255)" fill-opacity="1.0" stroke="rgb(0,0,0)" stroke-width="2"  />
			<g>
				<title>Gallidermin (PF02052)
"Gallidermin"</title>
				<polygon class="PF02052" points="242,27 244,40 242,53" stroke-linejoin="round" width="4" height="24" fill="rgb(66,195,175)" stroke="rgb(52,156,140)" stroke-width="1" opacity="0.75" />
			</g>
		</g>
		<g>
			<title>nsuB
NsuB</title>
			<polygon class="nsuB
NsuB" points="256,25 325,25 325,10 355,40 325,70 325,55 256,55" fill="rgb(255,255,255)" fill-opacity="1.0" stroke="rgb(0,0,0)" stroke-width="2"  />
			<g>
				<title>Lant_dehydr_N (PF04738)
"Lantibiotic dehydratase, N terminus"</title>
				<rect class="PF04738" x="259" y="28" stroke-linejoin="round" width="62" height="24" fill="rgb(219,60,229)" stroke="rgb(175,47,183)" stroke-width="1" opacity="0.75" />
			</g>
			<g>
				<title>Lant_dehydr_C (PF14028)
"Lantibiotic biosynthesis dehydratase C-term"</title>
				<polygon class="PF14028" points="329,28 338,28 344,34 344,46 338,52 329,52" stroke-linejoin="round" width="15" height="24" fill="rgb(107,223,113)" stroke="rgb(85,178,90)" stroke-width="1" opacity="0.75" />
			</g>
		</g>
		<g>
			<title>nsuT
NsuT</title>
			<polygon class="nsuT
NsuT" points="354,25 383,25 383,10 413,40 383,70 383,55 354,55" fill="rgb(255,255,255)" fill-opacity="1.0" stroke="rgb(0,0,0)" stroke-width="2"  />
			<g>
				<title>ABC_tran (PF00005)
"ABC transporter"</title>
				<polygon class="PF00005" points="390,28 397,28 405,36 405,44 397,52 390,52" stroke-linejoin="round" width="15" height="24" fill="rgb(129,201,63)" stroke="rgb(103,160,50)" stroke-width="1" opacity="0.75" />
			</g>
		</g>
		<g>
			<title>nsuC
NsuC</title>
			<polygon class="nsuC
NsuC" points="414,25 426,25 426,10 456,40 426,70 426,55 414,55" fill="rgb(255,255,255)" fill-opacity="1.0" stroke="rgb(0,0,0)" stroke-width="2"  />
			<g>
				<title>LANC_like (PF05147)
"Lanthionine synthetase C-like protein"</title>
				<polygon class="PF05147" points="417,28 440,28 452,40 440,52 417,52" stroke-linejoin="round" width="38" height="24" fill="rgb(129,182,79)" stroke="rgb(103,145,63)" stroke-width="1" opacity="0.75" />
			</g>
		</g>
		<g>
			<title>nsuI
NsuI</title>
			<polygon class="nsuI
NsuI" points="457,10 480,40 457,70" fill="rgb(255,255,255)" fill-opacity="1.0" stroke="rgb(0,0,0)" stroke-width="2"  />
			<g>
				<title>Spa1_C (PF18218)
"Lantibiotic immunity protein Spa1 C-terminal domain"</title>
				<polygon class="PF18218" points="471,33 477,40 471,47" stroke-linejoin="round" width="9" height="24" fill="rgb(176,180,58)" stroke="rgb(140,144,46)" stroke-width="1" opacity="0.75" />
			</g>
		</g>
	</g>
</svg>
