<svg version="1.1" baseProfile="full" xmlns="http://www.w3.org/2000/svg" width="566.5666666666667" height="80">
	<g>
		<line x1="10" y1="40.0" x2="556.5666666666667" y2="40.0" style="stroke:rgb(70,70,70); stroke-width:3 "/>
		<g>
			<title> (ROTMU0001_0980)
periplasmic binding protein</title>
			<polygon class=" (ROTMU0001_0980)
periplasmic binding protein" points="10,25 15,25 15,10 45,40 15,70 15,55 10,55" fill="rgb(255,255,255)" fill-opacity="1.0" stroke="rgb(0,0,0)" stroke-width="2"  />
			<g>
				<title>Peripla_BP_2 (PF01497)
"Periplasmic binding protein"</title>
				<polygon class="PF01497" points="18,28 29,28 41,40 29,52 18,52" stroke-linejoin="round" width="25" height="24" fill="rgb(183,226,104)" stroke="rgb(146,180,83)" stroke-width="1" opacity="0.75" />
			</g>
		</g>
		<g>
			<title> (ROTMU0001_0981)
hypothetical protein</title>
			<polygon class=" (ROTMU0001_0981)
hypothetical protein" points="50,25 87,25 87,10 117,40 87,70 87,55 50,55" fill="rgb(255,255,255)" fill-opacity="1.0" stroke="rgb(0,0,0)" stroke-width="2"  />
		</g>
		<g>
			<title> (ROTMU0001_0983)
iron chelate uptake ABC transporter, FeCT family, permease protein</title>
			<polygon class=" (ROTMU0001_0983)
iron chelate uptake ABC transporter, FeCT family, permease protein" points="165,25 168,25 168,10 198,40 168,70 168,55 165,55" fill="rgb(255,255,255)" fill-opacity="1.0" stroke="rgb(0,0,0)" stroke-width="2"  />
			<g>
				<title>FecCD (PF01032)
"FecCD transport family"</title>
				<polygon class="PF01032" points="166,28 182,28 194,40 182,52 166,52" stroke-linejoin="round" width="30" height="24" fill="rgb(210,177,70)" stroke="rgb(168,141,56)" stroke-width="1" opacity="0.75" />
			</g>
		</g>
		<g>
			<title>fepG (ROTMU0001_0984)
ferric enterobactin transport system permease protein FepG</title>
			<polygon class="fepG (ROTMU0001_0984)
ferric enterobactin transport system permease protein FepG" points="198,25 204,25 204,10 234,40 204,70 204,55 198,55" fill="rgb(255,255,255)" fill-opacity="1.0" stroke="rgb(0,0,0)" stroke-width="2"  />
			<g>
				<title>FecCD (PF01032)
"FecCD transport family"</title>
				<polygon class="PF01032" points="203,28 218,28 230,40 218,52 203,52" stroke-linejoin="round" width="30" height="24" fill="rgb(210,177,70)" stroke="rgb(168,141,56)" stroke-width="1" opacity="0.75" />
			</g>
		</g>
		<g>
			<title> (ROTMU0001_0985)
ABC transporter, ATP-binding protein</title>
			<polygon class=" (ROTMU0001_0985)
ABC transporter, ATP-binding protein" points="235,10 263,40 235,70" fill="rgb(255,255,255)" fill-opacity="1.0" stroke="rgb(0,0,0)" stroke-width="2"  />
			<g>
				<title>ABC_tran (PF00005)
"ABC transporter"</title>
				<polygon class="PF00005" points="237,28 247,28 251,32 251,48 247,52 237,52" stroke-linejoin="round" width="14" height="24" fill="rgb(129,201,63)" stroke="rgb(103,160,50)" stroke-width="1" opacity="0.75" />
			</g>
		</g>
		<g>
			<title> (ROTMU0001_0986)
putative esterase</title>
			<polygon class=" (ROTMU0001_0986)
putative esterase" points="280,25 296,25 296,10 326,40 296,70 296,55 280,55" fill="rgb(255,255,255)" fill-opacity="1.0" stroke="rgb(0,0,0)" stroke-width="2"  />
			<g>
				<title>Enterochelin_N (PF11806)
"Enterochelin esterase, N-terminal"</title>
				<rect class="PF11806" x="290" y="28" stroke-linejoin="round" width="11" height="24" fill="rgb(49,154,189)" stroke="rgb(39,123,151)" stroke-width="1" opacity="0.75" />
			</g>
			<g>
				<title>Esterase (PF00756)
"Putative esterase"</title>
				<polygon class="PF00756" points="304,28 310,28 322,40 310,52 304,52" stroke-linejoin="round" width="20" height="24" fill="rgb(217,132,77)" stroke="rgb(173,105,61)" stroke-width="1" opacity="0.75" />
			</g>
		</g>
		<g>
			<title> (ROTMU0001_0987)
putative (2,3-dihydroxybenzoyl)adenylate synthase</title>
			<polygon class=" (ROTMU0001_0987)
putative (2,3-dihydroxybenzoyl)adenylate synthase" points="336,25 362,25 362,10 392,40 362,70 362,55 336,55" fill="rgb(255,255,255)" fill-opacity="1.0" stroke="rgb(0,0,0)" stroke-width="2"  />
			<g>
				<title>AMP-binding (PF00501)
"AMP-binding enzyme"</title>
				<polygon class="PF00501" points="339,28 376,28 381,33 381,47 376,52 339,52" stroke-linejoin="round" width="42" height="24" fill="rgb(60,217,223)" stroke="rgb(48,173,178)" stroke-width="1" opacity="0.75" />
			</g>
			<g>
				<title>AMP-binding_C (PF13193)
"AMP-binding enzyme C-terminal domain"</title>
				<polygon class="PF13193" points="383,35 388,40 383,45" stroke-linejoin="round" width="7" height="24" fill="rgb(182,50,118)" stroke="rgb(145,39,94)" stroke-width="1" opacity="0.75" />
			</g>
		</g>
		<g>
			<title> (ROTMU0001_0988)
hypothetical protein</title>
			<polygon class=" (ROTMU0001_0988)
hypothetical protein" points="395,10 402,40 395,70" fill="rgb(255,255,255)" fill-opacity="1.0" stroke="rgb(0,0,0)" stroke-width="2"  />
			<g>
				<title>PP-binding (PF00550)
"Phosphopantetheine attachment site"</title>
				<polygon class="PF00550" points="396,28 396,28 399,40 396,52 396,52" stroke-linejoin="round" width="5" height="24" fill="rgb(103,191,88)" stroke="rgb(82,152,70)" stroke-width="1" opacity="0.75" />
			</g>
		</g>
		<g>
			<title> (ROTMU0001_0989)
AMP-binding enzyme</title>
			<polygon class=" (ROTMU0001_0989)
AMP-binding enzyme" points="411,25 525,25 525,10 555,40 525,70 525,55 411,55" fill="rgb(255,255,255)" fill-opacity="1.0" stroke="rgb(0,0,0)" stroke-width="2"  />
			<g>
				<title>Condensation (PF00668)
"Condensation domain"</title>
				<rect class="PF00668" x="424" y="28" stroke-linejoin="round" width="38" height="24" fill="rgb(224,184,98)" stroke="rgb(179,147,78)" stroke-width="1" opacity="0.75" />
			</g>
			<g>
				<title>AMP-binding (PF00501)
"AMP-binding enzyme"</title>
				<rect class="PF00501" x="465" y="28" stroke-linejoin="round" width="45" height="24" fill="rgb(60,217,223)" stroke="rgb(48,173,178)" stroke-width="1" opacity="0.75" />
			</g>
			<g>
				<title>PP-binding (PF00550)
"Phosphopantetheine attachment site"</title>
				<rect class="PF00550" x="521" y="28" stroke-linejoin="round" width="6" height="24" fill="rgb(103,191,88)" stroke="rgb(82,152,70)" stroke-width="1" opacity="0.75" />
			</g>
			<g>
				<title>Thioesterase (PF00975)
"Thioesterase domain"</title>
				<polygon class="PF00975" points="531,28 539,28 551,40 539,52 531,52" stroke-linejoin="round" width="24" height="24" fill="rgb(207,80,138)" stroke="rgb(165,63,110)" stroke-width="1" opacity="0.75" />
			</g>
		</g>
	</g>
</svg>
