<svg version="1.1" baseProfile="full" xmlns="http://www.w3.org/2000/svg" width="187.06666666666666" height="80">
	<g>
		<line x1="10" y1="40.0" x2="177.06666666666666" y2="40.0" style="stroke:rgb(70,70,70); stroke-width:3 "/>
		<g>
			<title> (AZ029_005049)
hypothetical protein</title>
			<polygon class=" (AZ029_005049)
hypothetical protein" points="10,10 14,40 10,70" fill="rgb(255,255,255)" fill-opacity="1.0" stroke="rgb(0,0,0)" stroke-width="2"  />
		</g>
		<g>
			<title> (AZ029_005050)
hypothetical protein</title>
			<polygon class=" (AZ029_005050)
hypothetical protein" points="16,10 36,40 16,70" fill="rgb(255,255,255)" fill-opacity="1.0" stroke="rgb(0,0,0)" stroke-width="2"  />
			<g>
				<title>Transglut_core3 (PF13471)
"Transglutaminase-like superfamily"</title>
				<polygon class="PF13471" points="25,29 32,40 25,51" stroke-linejoin="round" width="11" height="24" fill="rgb(63,111,179)" stroke="rgb(50,88,143)" stroke-width="1" opacity="0.75" />
			</g>
		</g>
		<g>
			<title> (AZ029_005051)
hypothetical protein</title>
			<polygon class=" (AZ029_005051)
hypothetical protein" points="37,25 60,25 60,10 90,40 60,70 60,55 37,55" fill="rgb(255,255,255)" fill-opacity="1.0" stroke="rgb(0,0,0)" stroke-width="2"  />
		</g>
		<g>
			<title> (AZ029_005052)
hypothetical protein</title>
			<polygon class=" (AZ029_005052)
hypothetical protein" points="90,25 118,25 118,10 148,40 118,70 118,55 90,55" fill="rgb(255,255,255)" fill-opacity="1.0" stroke="rgb(0,0,0)" stroke-width="2"  />
			<g>
				<title>ABC_membrane (PF00664)
"ABC transporter transmembrane region"</title>
				<rect class="PF00664" x="92" y="28" stroke-linejoin="round" width="27" height="24" fill="rgb(149,226,73)" stroke="rgb(119,180,58)" stroke-width="1" opacity="0.75" />
			</g>
			<g>
				<title>ABC_tran (PF00005)
"ABC transporter"</title>
				<polygon class="PF00005" points="125,28 132,28 139,35 139,45 132,52 125,52" stroke-linejoin="round" width="14" height="24" fill="rgb(129,201,63)" stroke="rgb(103,160,50)" stroke-width="1" opacity="0.75" />
			</g>
		</g>
		<g>
			<title> (AZ029_005053)
yedK</title>
			<polygon class=" (AZ029_005053)
yedK" points="154,10 176,40 154,70" fill="rgb(255,255,255)" fill-opacity="1.0" stroke="rgb(0,0,0)" stroke-width="2"  />
			<g>
				<title>SRAP (PF02586)
"SOS response associated peptidase (SRAP)"</title>
				<polygon class="PF02586" points="154,28 163,28 172,40 163,52 154,52" stroke-linejoin="round" width="21" height="24" fill="rgb(152,181,61)" stroke="rgb(121,144,48)" stroke-width="1" opacity="0.75" />
			</g>
		</g>
	</g>
</svg>
