<svg version="1.1" baseProfile="full" xmlns="http://www.w3.org/2000/svg" width="224.16666666666666" height="80">
	<g>
		<line x1="10" y1="40.0" x2="214.16666666666666" y2="40.0" style="stroke:rgb(70,70,70); stroke-width:3 "/>
		<g>
			<title> (SSEG_05172)
prepropeptide</title>
			<polygon class=" (SSEG_05172)
prepropeptide" points="10,10 15,40 10,70" fill="rgb(255,255,255)" fill-opacity="1.0" stroke="rgb(0,0,0)" stroke-width="2"  />
		</g>
		<g>
			<title> (SSEG_RS44950)
lasso RiPP family leader peptide-containing protein</title>
			<polygon class=" (SSEG_RS44950)
lasso RiPP family leader peptide-containing protein" points="11,10 15,40 11,70" fill="rgb(255,255,255)" fill-opacity="1.0" stroke="rgb(0,0,0)" stroke-width="2"  />
		</g>
		<g>
			<title> (SSEG_RS34070)
asparagine synthetase B family protein</title>
			<polygon class=" (SSEG_RS34070)
asparagine synthetase B family protein" points="19,10 29,40 19,70" fill="rgb(255,255,255)" fill-opacity="1.0" stroke="rgb(0,0,0)" stroke-width="2"  />
		</g>
		<g>
			<title> (SSEG_RS34075)
asparagine synthase-related protein</title>
			<polygon class=" (SSEG_RS34075)
asparagine synthase-related protein" points="33,25 51,25 51,10 81,40 51,70 51,55 33,55" fill="rgb(255,255,255)" fill-opacity="1.0" stroke="rgb(0,0,0)" stroke-width="2"  />
			<g>
				<title>Asn_synthase (PF00733)
"Asparagine synthase"</title>
				<polygon class="PF00733" points="41,28 65,28 77,40 65,52 41,52" stroke-linejoin="round" width="38" height="24" fill="rgb(97,201,176)" stroke="rgb(77,160,140)" stroke-width="1" opacity="0.75" />
			</g>
		</g>
		<g>
			<title> (SSEG_09672)
lactamase</title>
			<polygon class=" (SSEG_09672)
lactamase" points="37,25 51,25 51,10 81,40 51,70 51,55 37,55" fill="rgb(255,255,255)" fill-opacity="1.0" stroke="rgb(0,0,0)" stroke-width="2"  />
		</g>
		<g>
			<title> (SSEG_RS34080)
lasso peptide biosynthesis PqqD family chaperone</title>
			<polygon class=" (SSEG_RS34080)
lasso peptide biosynthesis PqqD family chaperone" points="81,10 89,40 81,70" fill="rgb(255,255,255)" fill-opacity="1.0" stroke="rgb(0,0,0)" stroke-width="2"  />
			<g>
				<title>PqqD (PF05402)
"Coenzyme PQQ synthesis protein D (PqqD)"</title>
				<polygon class="PF05402" points="82,28 82,28 86,40 82,52 82,52" stroke-linejoin="round" width="6" height="24" fill="rgb(124,62,188)" stroke="rgb(99,49,150)" stroke-width="1" opacity="0.75" />
			</g>
		</g>
		<g>
			<title> (SSEG_RS34085)
lasso peptide biosynthesis B2 protein</title>
			<polygon class=" (SSEG_RS34085)
lasso peptide biosynthesis B2 protein" points="90,10 106,40 90,70" fill="rgb(255,255,255)" fill-opacity="1.0" stroke="rgb(0,0,0)" stroke-width="2"  />
			<g>
				<title>Transglut_core3 (PF13471)
"Transglutaminase-like superfamily"</title>
				<polygon class="PF13471" points="92,28 96,28 103,40 103,40 96,52 92,52" stroke-linejoin="round" width="11" height="24" fill="rgb(63,111,179)" stroke="rgb(50,88,143)" stroke-width="1" opacity="0.75" />
			</g>
		</g>
		<g>
			<title> (SSEG_RS34090)
daunorubicin resistance protein DrrA family ABC transporter ATP-binding protein</title>
			<polygon class=" (SSEG_RS34090)
daunorubicin resistance protein DrrA family ABC transporter ATP-binding protein" points="107,25 109,25 109,10 139,40 109,70 109,55 107,55" fill="rgb(255,255,255)" fill-opacity="1.0" stroke="rgb(0,0,0)" stroke-width="2"  />
			<g>
				<title>ABC_tran (PF00005)
"ABC transporter"</title>
				<rect class="PF00005" x="109" y="28" stroke-linejoin="round" width="14" height="24" fill="rgb(129,201,63)" stroke="rgb(103,160,50)" stroke-width="1" opacity="0.75" />
			</g>
			<g>
				<title>DUF4162 (PF13732)
"Domain of unknown function (DUF4162)"</title>
				<polygon class="PF13732" points="129,34 135,40 129,46" stroke-linejoin="round" width="8" height="24" fill="rgb(100,223,143)" stroke="rgb(80,178,114)" stroke-width="1" opacity="0.75" />
			</g>
		</g>
		<g>
			<title> (SSEG_RS34095)
ABC transporter permease</title>
			<polygon class=" (SSEG_RS34095)
ABC transporter permease" points="139,10 168,40 139,70" fill="rgb(255,255,255)" fill-opacity="1.0" stroke="rgb(0,0,0)" stroke-width="2"  />
			<g>
				<title>ABC2_membrane (PF01061)
"ABC-2 type transporter"</title>
				<polygon class="PF01061" points="142,28 152,28 163,39 163,41 152,52 142,52" stroke-linejoin="round" width="21" height="24" fill="rgb(139,217,106)" stroke="rgb(111,173,84)" stroke-width="1" opacity="0.75" />
			</g>
		</g>
		<g>
			<title> (SSEG_RS34100)
DoxX family membrane protein</title>
			<polygon class=" (SSEG_RS34100)
DoxX family membrane protein" points="170,10 186,40 170,70" fill="rgb(255,255,255)" fill-opacity="1.0" stroke="rgb(0,0,0)" stroke-width="2"  />
			<g>
				<title>MauE (PF07291)
"Methylamine utilisation protein MauE"</title>
				<polygon class="PF07291" points="170,28 176,28 182,40 176,52 170,52" stroke-linejoin="round" width="15" height="24" fill="rgb(177,83,181)" stroke="rgb(141,66,144)" stroke-width="1" opacity="0.75" />
			</g>
		</g>
		<g>
			<title> (SSEG_RS34105)
thioredoxin domain-containing protein</title>
			<polygon class=" (SSEG_RS34105)
thioredoxin domain-containing protein" points="186,10 213,40 186,70" fill="rgb(255,255,255)" fill-opacity="1.0" stroke="rgb(0,0,0)" stroke-width="2"  />
			<g>
				<title>Thioredoxin_4 (PF13462)
"Thioredoxin"</title>
				<polygon class="PF13462" points="194,28 197,28 209,40 197,52 194,52" stroke-linejoin="round" width="18" height="24" fill="rgb(46,180,48)" stroke="rgb(36,144,38)" stroke-width="1" opacity="0.75" />
			</g>
		</g>
	</g>
</svg>
