<svg version="1.1" baseProfile="full" xmlns="http://www.w3.org/2000/svg" width="4998.866666666667" height="80">
	<g>
		<line x1="10" y1="40.0" x2="4988.866666666667" y2="40.0" style="stroke:rgb(70,70,70); stroke-width:3 "/>
		<g>
			<title>
alcohol oxidase</title>
			<polygon class="
alcohol oxidase" points="391,25 154,25 154,10 124,40 154,70 154,55 391,55" fill="rgb(255,255,255)" fill-opacity="1.0" stroke="rgb(0,0,0)" stroke-width="2"  />
			<g>
				<title>GMC_oxred_C (PF05199)
"GMC oxidoreductase"</title>
				<rect class="PF05199" x="318" y="28" stroke-linejoin="round" width="14" height="24" fill="rgb(186,52,106)" stroke="rgb(148,41,84)" stroke-width="1" opacity="0.75" />
			</g>
			<g>
				<title>GMC_oxred_N (PF00732)
"GMC oxidoreductase"</title>
				<rect class="PF00732" x="342" y="28" stroke-linejoin="round" width="26" height="24" fill="rgb(180,89,214)" stroke="rgb(143,71,171)" stroke-width="1" opacity="0.75" />
			</g>
		</g>
		<g>
			<title>pseudo41607_41856</title>
			<polygon class="pseudo41607_41856" points="1396,10 1404,40 1396,70" fill="rgb(255,255,255)" fill-opacity="1.0" stroke="rgb(0,0,0)" stroke-width="2"  />
		</g>
		<g>
			<title>pseudo52579_52810</title>
			<polygon class="pseudo52579_52810" points="1762,10 1769,40 1762,70" fill="rgb(255,255,255)" fill-opacity="1.0" stroke="rgb(0,0,0)" stroke-width="2"  />
		</g>
		<g>
			<title>
terpene synthase 20</title>
			<polygon class="
terpene synthase 20" points="1993,25 1803,25 1803,10 1773,40 1803,70 1803,55 1993,55" fill="rgb(255,255,255)" fill-opacity="1.0" stroke="rgb(0,0,0)" stroke-width="2"  />
			<g>
				<title>Terpene_synth_C (PF03936)
"Terpene synthase family, metal binding domain"</title>
				<rect class="PF03936" x="1921" y="28" stroke-linejoin="round" width="26" height="24" fill="rgb(219,91,215)" stroke="rgb(175,72,171)" stroke-width="1" opacity="0.75" />
			</g>
			<g>
				<title>Terpene_synth (PF01397)
"Terpene synthase, N-terminal domain"</title>
				<rect class="PF01397" x="1952" y="28" stroke-linejoin="round" width="19" height="24" fill="rgb(74,159,219)" stroke="rgb(59,127,175)" stroke-width="1" opacity="0.75" />
			</g>
		</g>
		<g>
			<title>pseudo64359_64866</title>
			<polygon class="pseudo64359_64866" points="2155,10 2171,40 2155,70" fill="rgb(255,255,255)" fill-opacity="1.0" stroke="rgb(0,0,0)" stroke-width="2"  />
		</g>
		<g>
			<title>pseudo70960_82927</title>
			<polygon class="pseudo70960_82927" points="2773,25 2405,25 2405,10 2375,40 2405,70 2405,55 2773,55" fill="rgb(255,255,255)" fill-opacity="1.0" stroke="rgb(0,0,0)" stroke-width="2"  />
		</g>
		<g>
			<title>pseudo85477_86858</title>
			<polygon class="pseudo85477_86858" points="2905,25 2889,25 2889,10 2859,40 2889,70 2889,55 2905,55" fill="rgb(255,255,255)" fill-opacity="1.0" stroke="rgb(0,0,0)" stroke-width="2"  />
		</g>
		<g>
			<title>pseudo90413_92043</title>
			<polygon class="pseudo90413_92043" points="3023,25 3047,25 3047,10 3077,40 3047,70 3047,55 3023,55" fill="rgb(255,255,255)" fill-opacity="1.0" stroke="rgb(0,0,0)" stroke-width="2"  />
		</g>
		<g>
			<title>
cis-prenyl transferase 1</title>
			<polygon class="
cis-prenyl transferase 1" points="3541,25 3616,25 3616,10 3646,40 3616,70 3616,55 3541,55" fill="rgb(255,255,255)" fill-opacity="1.0" stroke="rgb(0,0,0)" stroke-width="2"  />
			<g>
				<title>Prenyltransf (PF01255)
"Putative undecaprenyl diphosphate synthase"</title>
				<rect class="PF01255" x="3549" y="28" stroke-linejoin="round" width="21" height="24" fill="rgb(129,224,60)" stroke="rgb(103,179,48)" stroke-width="1" opacity="0.75" />
			</g>
		</g>
		<g>
			<title>pseudo114130_116119</title>
			<polygon class="pseudo114130_116119" points="3814,25 3850,25 3850,10 3880,40 3850,70 3850,55 3814,55" fill="rgb(255,255,255)" fill-opacity="1.0" stroke="rgb(0,0,0)" stroke-width="2"  />
		</g>
		<g>
			<title>
terpene synthase 45</title>
			<polygon class="
terpene synthase 45" points="4202,25 4398,25 4398,10 4428,40 4398,70 4398,55 4202,55" fill="rgb(255,255,255)" fill-opacity="1.0" stroke="rgb(0,0,0)" stroke-width="2"  />
			<g>
				<title>Terpene_synth (PF01397)
"Terpene synthase, N-terminal domain"</title>
				<rect class="PF01397" x="4223" y="28" stroke-linejoin="round" width="19" height="24" fill="rgb(74,159,219)" stroke="rgb(59,127,175)" stroke-width="1" opacity="0.75" />
			</g>
			<g>
				<title>Terpene_synth_C (PF03936)
"Terpene synthase family, metal binding domain"</title>
				<rect class="PF03936" x="4247" y="28" stroke-linejoin="round" width="26" height="24" fill="rgb(219,91,215)" stroke="rgb(175,72,171)" stroke-width="1" opacity="0.75" />
			</g>
		</g>
		<g>
			<title>
cis-prenyl transferase 9</title>
			<polygon class="
cis-prenyl transferase 9" points="4529,25 4473,25 4473,10 4443,40 4473,70 4473,55 4529,55" fill="rgb(255,255,255)" fill-opacity="1.0" stroke="rgb(0,0,0)" stroke-width="2"  />
			<g>
				<title>Prenyltransf (PF01255)
"Putative undecaprenyl diphosphate synthase"</title>
				<rect class="PF01255" x="4497" y="28" stroke-linejoin="round" width="21" height="24" fill="rgb(129,224,60)" stroke="rgb(103,179,48)" stroke-width="1" opacity="0.75" />
			</g>
		</g>
		<g>
			<title>
terpene synthase 18</title>
			<polygon class="
terpene synthase 18" points="4605,25 4824,25 4824,10 4854,40 4824,70 4824,55 4605,55" fill="rgb(255,255,255)" fill-opacity="1.0" stroke="rgb(0,0,0)" stroke-width="2"  />
			<g>
				<title>Terpene_synth (PF01397)
"Terpene synthase, N-terminal domain"</title>
				<rect class="PF01397" x="4625" y="28" stroke-linejoin="round" width="19" height="24" fill="rgb(74,159,219)" stroke="rgb(59,127,175)" stroke-width="1" opacity="0.75" />
			</g>
			<g>
				<title>Terpene_synth_C (PF03936)
"Terpene synthase family, metal binding domain"</title>
				<rect class="PF03936" x="4649" y="28" stroke-linejoin="round" width="26" height="24" fill="rgb(219,91,215)" stroke="rgb(175,72,171)" stroke-width="1" opacity="0.75" />
			</g>
		</g>
		<g>
			<title>
cytochrome P450-2</title>
			<polygon class="
cytochrome P450-2" points="4922,25 4958,25 4958,10 4988,40 4958,70 4958,55 4922,55" fill="rgb(255,255,255)" fill-opacity="1.0" stroke="rgb(0,0,0)" stroke-width="2"  />
			<g>
				<title>p450 (PF00067)
"Cytochrome P450"</title>
				<rect class="PF00067" x="4925" y="28" stroke-linejoin="round" width="47" height="24" fill="rgb(85,216,107)" stroke="rgb(68,172,85)" stroke-width="1" opacity="0.75" />
			</g>
		</g>
	</g>
</svg>
