<svg version="1.1" baseProfile="full" xmlns="http://www.w3.org/2000/svg" width="519.2666666666667" height="80">
	<g>
		<line x1="10" y1="40.0" x2="509.26666666666665" y2="40.0" style="stroke:rgb(70,70,70); stroke-width:3 "/>
		<g>
			<title> (AFLA_023000)
Ankyrin domain protein</title>
			<polygon class=" (AFLA_023000)
Ankyrin domain protein" points="45,25 40,25 40,10 10,40 40,70 40,55 45,55" fill="rgb(255,255,255)" fill-opacity="1.0" stroke="rgb(0,0,0)" stroke-width="2"  />
			<g>
				<title>Ank_4 (PF13637)
"Ankyrin repeats (many copies)"</title>
				<polygon class="PF13637" points="16,38 21,33 21,47 16,42" stroke-linejoin="round" width="5" height="24" fill="rgb(62,205,90)" stroke="rgb(49,164,72)" stroke-width="1" opacity="0.75" />
			</g>
		</g>
		<g>
			<title> (AFLA_023010)
GA4 desaturase family protein</title>
			<polygon class=" (AFLA_023010)
GA4 desaturase family protein" points="102,25 105,25 105,10 135,40 105,70 105,55 102,55" fill="rgb(255,255,255)" fill-opacity="1.0" stroke="rgb(0,0,0)" stroke-width="2"  />
		</g>
		<g>
			<title> (AFLA_023020)
NRPS-like enzyme, putative</title>
			<polygon class=" (AFLA_023020)
NRPS-like enzyme, putative" points="255,25 183,25 183,10 153,40 183,70 183,55 255,55" fill="rgb(255,255,255)" fill-opacity="1.0" stroke="rgb(0,0,0)" stroke-width="2"  />
			<g>
				<title>NAD_binding_4 (PF07993)
"Male sterility protein"</title>
				<polygon class="PF07993" points="166,31 169,28 190,28 190,52 169,52 166,49" stroke-linejoin="round" width="24" height="24" fill="rgb(100,212,204)" stroke="rgb(80,169,163)" stroke-width="1" opacity="0.75" />
			</g>
			<g>
				<title>PP-binding (PF00550)
"Phosphopantetheine attachment site"</title>
				<rect class="PF00550" x="195" y="28" stroke-linejoin="round" width="6" height="24" fill="rgb(103,191,88)" stroke="rgb(82,152,70)" stroke-width="1" opacity="0.75" />
			</g>
			<g>
				<title>AMP-binding_C (PF13193)
"AMP-binding enzyme C-terminal domain"</title>
				<rect class="PF13193" x="205" y="28" stroke-linejoin="round" width="7" height="24" fill="rgb(182,50,118)" stroke="rgb(145,39,94)" stroke-width="1" opacity="0.75" />
			</g>
			<g>
				<title>AMP-binding (PF00501)
"AMP-binding enzyme"</title>
				<rect class="PF00501" x="213" y="28" stroke-linejoin="round" width="40" height="24" fill="rgb(60,217,223)" stroke="rgb(48,173,178)" stroke-width="1" opacity="0.75" />
			</g>
		</g>
		<g>
			<title> (AFLA_023030)
cytochrome P450 oxidoreductase GliC-like, putative</title>
			<polygon class=" (AFLA_023030)
cytochrome P450 oxidoreductase GliC-like, putative" points="275,25 300,25 300,10 330,40 300,70 300,55 275,55" fill="rgb(255,255,255)" fill-opacity="1.0" stroke="rgb(0,0,0)" stroke-width="2"  />
			<g>
				<title>p450 (PF00067)
"Cytochrome P450"</title>
				<polygon class="PF00067" points="282,28 314,28 325,39 325,41 314,52 282,52" stroke-linejoin="round" width="43" height="24" fill="rgb(85,216,107)" stroke="rgb(68,172,85)" stroke-width="1" opacity="0.75" />
			</g>
		</g>
		<g>
			<title> (AFLA_023040)
C6 transcription factor, putative</title>
			<polygon class=" (AFLA_023040)
C6 transcription factor, putative" points="338,25 378,25 378,10 408,40 378,70 378,55 338,55" fill="rgb(255,255,255)" fill-opacity="1.0" stroke="rgb(0,0,0)" stroke-width="2"  />
			<g>
				<title>Zn_clus (PF00172)
"Fungal Zn(2)-Cys(6) binuclear cluster domain"</title>
				<rect class="PF00172" x="343" y="28" stroke-linejoin="round" width="3" height="24" fill="rgb(121,178,76)" stroke="rgb(96,142,60)" stroke-width="1" opacity="0.75" />
			</g>
			<g>
				<title>Fungal_trans (PF04082)
"Fungal specific transcription factor domain"</title>
				<rect class="PF04082" x="360" y="28" stroke-linejoin="round" width="20" height="24" fill="rgb(51,172,200)" stroke="rgb(40,137,160)" stroke-width="1" opacity="0.75" />
			</g>
		</g>
		<g>
			<title> (AFLA_023050)
MFS transporter, putative</title>
			<polygon class=" (AFLA_023050)
MFS transporter, putative" points="428,25 448,25 448,10 478,40 448,70 448,55 428,55" fill="rgb(255,255,255)" fill-opacity="1.0" stroke="rgb(0,0,0)" stroke-width="2"  />
			<g>
				<title>MFS_1 (PF07690)
"Major Facilitator Superfamily"</title>
				<rect class="PF07690" x="432" y="28" stroke-linejoin="round" width="25" height="24" fill="rgb(193,224,74)" stroke="rgb(154,179,59)" stroke-width="1" opacity="0.75" />
			</g>
		</g>
		<g>
			<title> (AFLA_023060)
hypothetical protein</title>
			<polygon class=" (AFLA_023060)
hypothetical protein" points="500,40 508,10 508,70" fill="rgb(255,255,255)" fill-opacity="1.0" stroke="rgb(0,0,0)" stroke-width="2"  />
		</g>
	</g>
</svg>
