<svg version="1.1" baseProfile="full" xmlns="http://www.w3.org/2000/svg" width="579.0" height="80">
	<g>
		<line x1="10" y1="40.0" x2="569.0" y2="40.0" style="stroke:rgb(70,70,70); stroke-width:3 "/>
		<g>
			<title> (PGA2_95p440)
FAD dependent oxidoreductase</title>
			<polygon class=" (PGA2_95p440)
FAD dependent oxidoreductase" points="54,25 40,25 40,10 10,40 40,70 40,55 54,55" fill="rgb(255,255,255)" fill-opacity="1.0" stroke="rgb(0,0,0)" stroke-width="2"  />
			<g>
				<title>DAO (PF01266)
"FAD dependent oxidoreductase"</title>
				<polygon class="PF01266" points="14,40 26,28 50,28 50,52 26,52 14,40" stroke-linejoin="round" width="36" height="24" fill="rgb(123,179,59)" stroke="rgb(98,143,47)" stroke-width="1" opacity="0.75" />
			</g>
		</g>
		<g>
			<title> (PGA2_95p450)
putative ferrichrome transport ATP-binding protein</title>
			<polygon class=" (PGA2_95p450)
putative ferrichrome transport ATP-binding protein" points="57,40 82,10 82,70" fill="rgb(255,255,255)" fill-opacity="1.0" stroke="rgb(0,0,0)" stroke-width="2"  />
			<g>
				<title>ABC_tran (PF00005)
"ABC transporter"</title>
				<polygon class="PF00005" points="65,35 71,28 79,28 79,52 71,52 65,45" stroke-linejoin="round" width="14" height="24" fill="rgb(129,201,63)" stroke="rgb(103,160,50)" stroke-width="1" opacity="0.75" />
			</g>
		</g>
		<g>
			<title> (PGA2_95p460)
ABC transporter, permease protein</title>
			<polygon class=" (PGA2_95p460)
ABC transporter, permease protein" points="115,25 113,25 113,10 83,40 113,70 113,55 115,55" fill="rgb(255,255,255)" fill-opacity="1.0" stroke="rgb(0,0,0)" stroke-width="2"  />
			<g>
				<title>FecCD (PF01032)
"FecCD transport family"</title>
				<polygon class="PF01032" points="87,40 99,28 114,28 114,52 99,52" stroke-linejoin="round" width="31" height="24" fill="rgb(210,177,70)" stroke="rgb(168,141,56)" stroke-width="1" opacity="0.75" />
			</g>
		</g>
		<g>
			<title> (PGA2_95p470)
ABC transporter, permease protein</title>
			<polygon class=" (PGA2_95p470)
ABC transporter, permease protein" points="149,25 146,25 146,10 116,40 146,70 146,55 149,55" fill="rgb(255,255,255)" fill-opacity="1.0" stroke="rgb(0,0,0)" stroke-width="2"  />
			<g>
				<title>FecCD (PF01032)
"FecCD transport family"</title>
				<polygon class="PF01032" points="120,40 132,28 146,28 146,52 132,52" stroke-linejoin="round" width="30" height="24" fill="rgb(210,177,70)" stroke="rgb(168,141,56)" stroke-width="1" opacity="0.75" />
			</g>
		</g>
		<g>
			<title> (PGA2_95p480)
periplasmic binding protein</title>
			<polygon class=" (PGA2_95p480)
periplasmic binding protein" points="181,25 179,25 179,10 149,40 179,70 179,55 181,55" fill="rgb(255,255,255)" fill-opacity="1.0" stroke="rgb(0,0,0)" stroke-width="2"  />
			<g>
				<title>Peripla_BP_2 (PF01497)
"Periplasmic binding protein"</title>
				<polygon class="PF01497" points="153,40 165,28 175,28 175,52 165,52" stroke-linejoin="round" width="24" height="24" fill="rgb(183,226,104)" stroke="rgb(146,180,83)" stroke-width="1" opacity="0.75" />
			</g>
		</g>
		<g>
			<title> (PGA2_95p490)
tonB dependent receptor</title>
			<polygon class=" (PGA2_95p490)
tonB dependent receptor" points="190,25 226,25 226,10 256,40 226,70 226,55 190,55" fill="rgb(255,255,255)" fill-opacity="1.0" stroke="rgb(0,0,0)" stroke-width="2"  />
			<g>
				<title>Plug (PF07715)
"TonB-dependent Receptor Plug Domain"</title>
				<rect class="PF07715" x="195" y="28" stroke-linejoin="round" width="10" height="24" fill="rgb(99,133,214)" stroke="rgb(79,106,171)" stroke-width="1" opacity="0.75" />
			</g>
			<g>
				<title>TonB_dep_Rec (PF00593)
"TonB dependent receptor"</title>
				<polygon class="PF00593" points="207,28 240,28 252,40 240,52 207,52" stroke-linejoin="round" width="49" height="24" fill="rgb(171,200,51)" stroke="rgb(136,160,40)" stroke-width="1" opacity="0.75" />
			</g>
		</g>
		<g>
			<title> (PGA2_95p500)
putative siderophore biosynthesis protein</title>
			<polygon class=" (PGA2_95p500)
putative siderophore biosynthesis protein" points="269,25 300,25 300,10 330,40 300,70 300,55 269,55" fill="rgb(255,255,255)" fill-opacity="1.0" stroke="rgb(0,0,0)" stroke-width="2"  />
			<g>
				<title>IucA_IucC (PF04183)
"IucA / IucC family"</title>
				<rect class="PF04183" x="284" y="28" stroke-linejoin="round" width="22" height="24" fill="rgb(221,104,121)" stroke="rgb(176,83,96)" stroke-width="1" opacity="0.75" />
			</g>
			<g>
				<title>FhuF (PF06276)
"Ferric iron reductase FhuF-like transporter"</title>
				<polygon class="PF06276" points="310,28 313,28 325,40 313,52 310,52" stroke-linejoin="round" width="16" height="24" fill="rgb(76,151,221)" stroke="rgb(60,120,176)" stroke-width="1" opacity="0.75" />
			</g>
		</g>
		<g>
			<title> (PGA2_95p510)
putative siderophore biosynthesis protein</title>
			<polygon class=" (PGA2_95p510)
putative siderophore biosynthesis protein" points="330,25 358,25 358,10 388,40 358,70 358,55 330,55" fill="rgb(255,255,255)" fill-opacity="1.0" stroke="rgb(0,0,0)" stroke-width="2"  />
			<g>
				<title>IucA_IucC (PF04183)
"IucA / IucC family"</title>
				<rect class="PF04183" x="343" y="28" stroke-linejoin="round" width="24" height="24" fill="rgb(221,104,121)" stroke="rgb(176,83,96)" stroke-width="1" opacity="0.75" />
			</g>
			<g>
				<title>FhuF (PF06276)
"Ferric iron reductase FhuF-like transporter"</title>
				<polygon class="PF06276" points="369,28 372,28 384,40 372,52 369,52" stroke-linejoin="round" width="17" height="24" fill="rgb(76,151,221)" stroke="rgb(60,120,176)" stroke-width="1" opacity="0.75" />
			</g>
		</g>
		<g>
			<title> (PGA2_95p520)
putative AMP-dependent synthetase and ligase</title>
			<polygon class=" (PGA2_95p520)
putative AMP-dependent synthetase and ligase" points="388,25 401,25 401,10 431,40 401,70 401,55 388,55" fill="rgb(255,255,255)" fill-opacity="1.0" stroke="rgb(0,0,0)" stroke-width="2"  />
			<g>
				<title>AMP-binding (PF00501)
"AMP-binding enzyme"</title>
				<polygon class="PF00501" points="393,28 415,28 421,34 421,46 415,52 393,52" stroke-linejoin="round" width="28" height="24" fill="rgb(60,217,223)" stroke="rgb(48,173,178)" stroke-width="1" opacity="0.75" />
			</g>
			<g>
				<title>AMP-binding_C (PF13193)
"AMP-binding enzyme C-terminal domain"</title>
				<polygon class="PF13193" points="421,34 427,40 421,46" stroke-linejoin="round" width="7" height="24" fill="rgb(182,50,118)" stroke="rgb(145,39,94)" stroke-width="1" opacity="0.75" />
			</g>
		</g>
		<g>
			<title> (PGA2_95p530)
hypothetical protein</title>
			<polygon class=" (PGA2_95p530)
hypothetical protein" points="431,25 444,25 444,10 474,40 444,70 444,55 431,55" fill="rgb(255,255,255)" fill-opacity="1.0" stroke="rgb(0,0,0)" stroke-width="2"  />
			<g>
				<title>PP-binding (PF00550)
"Phosphopantetheine attachment site"</title>
				<rect class="PF00550" x="433" y="28" stroke-linejoin="round" width="5" height="24" fill="rgb(103,191,88)" stroke="rgb(82,152,70)" stroke-width="1" opacity="0.75" />
			</g>
			<g>
				<title>DUF6005 (PF19468)
"Family of unknown function (DUF6005)"</title>
				<polygon class="PF19468" points="441,28 458,28 470,40 458,52 441,52" stroke-linejoin="round" width="32" height="24" fill="rgb(160,201,100)" stroke="rgb(128,160,80)" stroke-width="1" opacity="0.75" />
			</g>
		</g>
		<g>
			<title> (PGA2_95p540)
hypothetical protein</title>
			<polygon class=" (PGA2_95p540)
hypothetical protein" points="475,10 503,40 475,70" fill="rgb(255,255,255)" fill-opacity="1.0" stroke="rgb(0,0,0)" stroke-width="2"  />
			<g>
				<title>AP_endonuc_2 (PF01261)
"Xylose isomerase-like TIM barrel"</title>
				<polygon class="PF01261" points="477,28 487,28 499,40 487,52 477,52" stroke-linejoin="round" width="24" height="24" fill="rgb(69,222,207)" stroke="rgb(55,177,165)" stroke-width="1" opacity="0.75" />
			</g>
		</g>
		<g>
			<title> (PGA2_95p550)
ABC transporter, transmembrane ATP-binding protein</title>
			<polygon class=" (PGA2_95p550)
ABC transporter, transmembrane ATP-binding protein" points="568,25 535,25 535,10 505,40 535,70 535,55 568,55" fill="rgb(255,255,255)" fill-opacity="1.0" stroke="rgb(0,0,0)" stroke-width="2"  />
			<g>
				<title>ABC_tran (PF00005)
"ABC transporter"</title>
				<polygon class="PF00005" points="514,35 521,28 529,28 529,52 521,52 514,45" stroke-linejoin="round" width="15" height="24" fill="rgb(129,201,63)" stroke="rgb(103,160,50)" stroke-width="1" opacity="0.75" />
			</g>
			<g>
				<title>ABC_membrane (PF00664)
"ABC transporter transmembrane region"</title>
				<rect class="PF00664" x="536" y="28" stroke-linejoin="round" width="27" height="24" fill="rgb(149,226,73)" stroke="rgb(119,180,58)" stroke-width="1" opacity="0.75" />
			</g>
		</g>
	</g>
</svg>
