<svg version="1.1" baseProfile="full" xmlns="http://www.w3.org/2000/svg" width="825.2666666666667" height="80">
	<g>
		<line x1="10" y1="40.0" x2="815.2666666666667" y2="40.0" style="stroke:rgb(70,70,70); stroke-width:3 "/>
		<g>
			<title>meaB (G339_RS40700)
methylmalonyl Co-A mutase-associated GTPase MeaB</title>
			<polygon class="meaB (G339_RS40700)
methylmalonyl Co-A mutase-associated GTPase MeaB" points="50,25 40,25 40,10 10,40 40,70 40,55 50,55" fill="rgb(255,255,255)" fill-opacity="1.0" stroke="rgb(0,0,0)" stroke-width="2"  />
			<g>
				<title>Putative_PNPOx (PF01243)
"Pyridoxamine 5'-phosphate oxidase"</title>
				<polygon class="PF01243" points="14,40 21,33 21,47" stroke-linejoin="round" width="8" height="24" fill="rgb(177,193,67)" stroke="rgb(141,154,53)" stroke-width="1" opacity="0.75" />
			</g>
			<g>
				<title>MeaB (PF03308)
"Methylmalonyl Co-A mutase-associated GTPase MeaB"</title>
				<polygon class="PF03308" points="26,28 26,28 48,28 48,52 26,52 26,52" stroke-linejoin="round" width="22" height="24" fill="rgb(200,208,71)" stroke="rgb(160,166,56)" stroke-width="1" opacity="0.75" />
			</g>
		</g>
		<g>
			<title> (G339_RS0128875)
cobalamin B12-binding domain-containing protein</title>
			<polygon class=" (G339_RS0128875)
cobalamin B12-binding domain-containing protein" points="50,40 63,10 63,70" fill="rgb(255,255,255)" fill-opacity="1.0" stroke="rgb(0,0,0)" stroke-width="2"  />
			<g>
				<title>B12-binding (PF02310)
"B12 binding domain"</title>
				<polygon class="PF02310" points="53,40 58,28 62,28 62,52 58,52" stroke-linejoin="round" width="11" height="24" fill="rgb(145,190,60)" stroke="rgb(115,152,48)" stroke-width="1" opacity="0.75" />
			</g>
		</g>
		<g>
			<title> (G339_RS0128880)
alpha/beta fold hydrolase</title>
			<polygon class=" (G339_RS0128880)
alpha/beta fold hydrolase" points="94,25 93,25 93,10 63,40 93,70 93,55 94,55" fill="rgb(255,255,255)" fill-opacity="1.0" stroke="rgb(0,0,0)" stroke-width="2"  />
			<g>
				<title>Thioesterase (PF00975)
"Thioesterase domain"</title>
				<polygon class="PF00975" points="67,40 79,28 86,28 86,52 79,52" stroke-linejoin="round" width="22" height="24" fill="rgb(207,80,138)" stroke="rgb(165,63,110)" stroke-width="1" opacity="0.75" />
			</g>
			<g>
				<title>MbtH (PF03621)
"MbtH-like protein"</title>
				<rect class="PF03621" x="89" y="28" stroke-linejoin="round" width="4" height="24" fill="rgb(212,165,97)" stroke="rgb(169,132,77)" stroke-width="1" opacity="0.75" />
			</g>
		</g>
		<g>
			<title> (G339_RS37205)
type I polyketide synthase</title>
			<polygon class=" (G339_RS37205)
type I polyketide synthase" points="248,25 124,25 124,10 94,40 124,70 124,55 248,55" fill="rgb(255,255,255)" fill-opacity="1.0" stroke="rgb(0,0,0)" stroke-width="2"  />
			<g>
				<title>PP-binding (PF00550)
"Phosphopantetheine attachment site"</title>
				<polygon class="PF00550" points="98,40 101,37 101,43" stroke-linejoin="round" width="6" height="24" fill="rgb(103,191,88)" stroke="rgb(82,152,70)" stroke-width="1" opacity="0.75" />
			</g>
			<g>
				<title>Acyl_transf_1 (PF00698)
"Acyl transferase domain"</title>
				<polygon class="PF00698" points="107,31 110,28 139,28 139,52 110,52 107,49" stroke-linejoin="round" width="32" height="24" fill="rgb(59,176,209)" stroke="rgb(47,140,167)" stroke-width="1" opacity="0.75" />
			</g>
			<g>
				<title>KAsynt_C_assoc (PF16197)
"Ketoacyl-synthetase C-terminal extension"</title>
				<rect class="PF16197" x="141" y="28" stroke-linejoin="round" width="11" height="24" fill="rgb(240,150,172)" stroke="rgb(192,120,137)" stroke-width="1" opacity="0.75" />
			</g>
			<g>
				<title>Ketoacyl-synt_C (PF02801)
"Beta-ketoacyl synthase, C-terminal domain"</title>
				<rect class="PF02801" x="153" y="28" stroke-linejoin="round" width="11" height="24" fill="rgb(215,78,102)" stroke="rgb(172,62,81)" stroke-width="1" opacity="0.75" />
			</g>
			<g>
				<title>ketoacyl-synt (PF00109)
"Beta-ketoacyl synthase, N-terminal domain"</title>
				<rect class="PF00109" x="166" y="28" stroke-linejoin="round" width="23" height="24" fill="rgb(112,116,228)" stroke="rgb(89,92,182)" stroke-width="1" opacity="0.75" />
			</g>
			<g>
				<title>PP-binding (PF00550)
"Phosphopantetheine attachment site"</title>
				<rect class="PF00550" x="191" y="28" stroke-linejoin="round" width="6" height="24" fill="rgb(103,191,88)" stroke="rgb(82,152,70)" stroke-width="1" opacity="0.75" />
			</g>
			<g>
				<title>AMP-binding_C (PF13193)
"AMP-binding enzyme C-terminal domain"</title>
				<rect class="PF13193" x="200" y="28" stroke-linejoin="round" width="7" height="24" fill="rgb(182,50,118)" stroke="rgb(145,39,94)" stroke-width="1" opacity="0.75" />
			</g>
			<g>
				<title>AMP-binding (PF00501)
"AMP-binding enzyme"</title>
				<rect class="PF00501" x="209" y="28" stroke-linejoin="round" width="38" height="24" fill="rgb(60,217,223)" stroke="rgb(48,173,178)" stroke-width="1" opacity="0.75" />
			</g>
		</g>
		<g>
			<title> (G339_RS35690)
MFS transporter</title>
			<polygon class=" (G339_RS35690)
MFS transporter" points="304,25 281,25 281,10 251,40 281,70 281,55 304,55" fill="rgb(255,255,255)" fill-opacity="1.0" stroke="rgb(0,0,0)" stroke-width="2"  />
			<g>
				<title>MFS_1 (PF07690)
"Major Facilitator Superfamily"</title>
				<polygon class="PF07690" points="263,32 267,28 302,28 302,52 267,52 263,48" stroke-linejoin="round" width="39" height="24" fill="rgb(193,224,74)" stroke="rgb(154,179,59)" stroke-width="1" opacity="0.75" />
			</g>
		</g>
		<g>
			<title> (G339_RS0128895)
helix-turn-helix domain-containing protein</title>
			<polygon class=" (G339_RS0128895)
helix-turn-helix domain-containing protein" points="306,40 326,10 326,70" fill="rgb(255,255,255)" fill-opacity="1.0" stroke="rgb(0,0,0)" stroke-width="2"  />
			<g>
				<title>HTH_20 (PF12840)
"Helix-turn-helix domain"</title>
				<rect class="PF12840" x="319" y="28" stroke-linejoin="round" width="5" height="24" fill="rgb(157,225,93)" stroke="rgb(125,180,74)" stroke-width="1" opacity="0.75" />
			</g>
		</g>
		<g>
			<title>ccrA (G339_RS0128900)
crotonyl-CoA carboxylase/reductase</title>
			<polygon class="ccrA (G339_RS0128900)
crotonyl-CoA carboxylase/reductase" points="372,25 358,25 358,10 328,40 358,70 358,55 372,55" fill="rgb(255,255,255)" fill-opacity="1.0" stroke="rgb(0,0,0)" stroke-width="2"  />
			<g>
				<title>ADH_zinc_N (PF00107)
"Zinc-binding dehydrogenase"</title>
				<polygon class="PF00107" points="335,37 344,28 349,28 349,52 344,52 335,43" stroke-linejoin="round" width="14" height="24" fill="rgb(81,108,215)" stroke="rgb(64,86,172)" stroke-width="1" opacity="0.75" />
			</g>
			<g>
				<title>ADH_N (PF08240)
"Alcohol dehydrogenase GroES-like domain"</title>
				<rect class="PF08240" x="354" y="28" stroke-linejoin="round" width="9" height="24" fill="rgb(211,65,138)" stroke="rgb(168,51,110)" stroke-width="1" opacity="0.75" />
			</g>
		</g>
		<g>
			<title> (G339_RS0128905)
condensation domain-containing protein</title>
			<polygon class=" (G339_RS0128905)
condensation domain-containing protein" points="433,25 403,25 403,10 373,40 403,70 403,55 433,55" fill="rgb(255,255,255)" fill-opacity="1.0" stroke="rgb(0,0,0)" stroke-width="2"  />
			<g>
				<title>Condensation (PF00668)
"Condensation domain"</title>
				<rect class="PF00668" x="391" y="28" stroke-linejoin="round" width="41" height="24" fill="rgb(224,184,98)" stroke="rgb(179,147,78)" stroke-width="1" opacity="0.75" />
			</g>
		</g>
		<g>
			<title> (G339_RS0128910)
AMP-binding protein</title>
			<polygon class=" (G339_RS0128910)
AMP-binding protein" points="485,25 463,25 463,10 433,40 463,70 463,55 485,55" fill="rgb(255,255,255)" fill-opacity="1.0" stroke="rgb(0,0,0)" stroke-width="2"  />
			<g>
				<title>AMP-binding_C (PF13193)
"AMP-binding enzyme C-terminal domain"</title>
				<polygon class="PF13193" points="437,40 442,35 442,45" stroke-linejoin="round" width="7" height="24" fill="rgb(182,50,118)" stroke="rgb(145,39,94)" stroke-width="1" opacity="0.75" />
			</g>
			<g>
				<title>AMP-binding (PF00501)
"AMP-binding enzyme"</title>
				<polygon class="PF00501" points="444,33 449,28 482,28 482,52 449,52 444,47" stroke-linejoin="round" width="38" height="24" fill="rgb(60,217,223)" stroke="rgb(48,173,178)" stroke-width="1" opacity="0.75" />
			</g>
		</g>
		<g>
			<title> (G339_RS0128915)
phosphopantetheine-binding protein</title>
			<polygon class=" (G339_RS0128915)
phosphopantetheine-binding protein" points="485,40 493,10 493,70" fill="rgb(255,255,255)" fill-opacity="1.0" stroke="rgb(0,0,0)" stroke-width="2"  />
			<g>
				<title>PP-binding (PF00550)
"Phosphopantetheine attachment site"</title>
				<polygon class="PF00550" points="488,40 491,28 492,28 492,52 491,52" stroke-linejoin="round" width="6" height="24" fill="rgb(103,191,88)" stroke="rgb(82,152,70)" stroke-width="1" opacity="0.75" />
			</g>
		</g>
		<g>
			<title> (G339_RS0128920)
condensation domain-containing protein</title>
			<polygon class=" (G339_RS0128920)
condensation domain-containing protein" points="535,25 523,25 523,10 493,40 523,70 523,55 535,55" fill="rgb(255,255,255)" fill-opacity="1.0" stroke="rgb(0,0,0)" stroke-width="2"  />
			<g>
				<title>Condensation (PF00668)
"Condensation domain"</title>
				<polygon class="PF00668" points="497,40 509,28 534,28 534,52 509,52" stroke-linejoin="round" width="41" height="24" fill="rgb(224,184,98)" stroke="rgb(179,147,78)" stroke-width="1" opacity="0.75" />
			</g>
		</g>
		<g>
			<title> (G339_RS35695)
acyl-CoA/acyl-ACP dehydrogenase</title>
			<polygon class=" (G339_RS35695)
acyl-CoA/acyl-ACP dehydrogenase" points="589,25 565,25 565,10 535,40 565,70 565,55 589,55" fill="rgb(255,255,255)" fill-opacity="1.0" stroke="rgb(0,0,0)" stroke-width="2"  />
			<g>
				<title>Acyl-CoA_dh_1 (PF00441)
"Acyl-CoA dehydrogenase, C-terminal domain"</title>
				<polygon class="PF00441" points="548,31 551,28 563,28 563,52 551,52 548,49" stroke-linejoin="round" width="15" height="24" fill="rgb(85,191,117)" stroke="rgb(68,152,93)" stroke-width="1" opacity="0.75" />
			</g>
			<g>
				<title>Acyl-CoA_dh_M (PF02770)
"Acyl-CoA dehydrogenase, middle domain"</title>
				<rect class="PF02770" x="566" y="28" stroke-linejoin="round" width="8" height="24" fill="rgb(225,186,97)" stroke="rgb(180,148,77)" stroke-width="1" opacity="0.75" />
			</g>
		</g>
		<g>
			<title> (G339_RS35700)
FMN-binding negative transcriptional regulator</title>
			<polygon class=" (G339_RS35700)
FMN-binding negative transcriptional regulator" points="590,40 611,10 611,70" fill="rgb(255,255,255)" fill-opacity="1.0" stroke="rgb(0,0,0)" stroke-width="2"  />
			<g>
				<title>FMN_bind_2 (PF04299)
"Putative FMN-binding domain"</title>
				<polygon class="PF04299" points="596,37 603,28 610,28 610,52 603,52 596,43" stroke-linejoin="round" width="14" height="24" fill="rgb(182,45,159)" stroke="rgb(145,36,127)" stroke-width="1" opacity="0.75" />
			</g>
		</g>
		<g>
			<title>mce (G339_RS0128935)
methylmalonyl-CoA epimerase</title>
			<polygon class="mce (G339_RS0128935)
methylmalonyl-CoA epimerase" points="613,40 626,10 626,70" fill="rgb(255,255,255)" fill-opacity="1.0" stroke="rgb(0,0,0)" stroke-width="2"  />
		</g>
		<g>
			<title> (G339_RS0128940)
lysine N(6)-hydroxylase/L-ornithine N(5)-oxygenase family protein</title>
			<polygon class=" (G339_RS0128940)
lysine N(6)-hydroxylase/L-ornithine N(5)-oxygenase family protein" points="670,25 657,25 657,10 627,40 657,70 657,55 670,55" fill="rgb(255,255,255)" fill-opacity="1.0" stroke="rgb(0,0,0)" stroke-width="2"  />
			<g>
				<title>Lys_Orn_oxgnase (PF13434)
"L-lysine 6-monooxygenase/L-ornithine 5-monooxygenase"</title>
				<polygon class="PF13434" points="635,36 643,28 669,28 669,52 643,52 635,44" stroke-linejoin="round" width="34" height="24" fill="rgb(81,213,119)" stroke="rgb(64,170,95)" stroke-width="1" opacity="0.75" />
			</g>
		</g>
		<g>
			<title>asnB (G339_RS0128945)
asparagine synthase (glutamine-hydrolyzing)</title>
			<polygon class="asnB (G339_RS0128945)
asparagine synthase (glutamine-hydrolyzing)" points="731,25 700,25 700,10 670,40 700,70 700,55 731,55" fill="rgb(255,255,255)" fill-opacity="1.0" stroke="rgb(0,0,0)" stroke-width="2"  />
			<g>
				<title>Asn_synthase (PF00733)
"Asparagine synthase"</title>
				<polygon class="PF00733" points="674,40 686,28 706,28 706,52 686,52" stroke-linejoin="round" width="36" height="24" fill="rgb(97,201,176)" stroke="rgb(77,160,140)" stroke-width="1" opacity="0.75" />
			</g>
			<g>
				<title>GATase_7 (PF13537)
"Glutamine amidotransferase domain"</title>
				<rect class="PF13537" x="714" y="28" stroke-linejoin="round" width="12" height="24" fill="rgb(200,63,57)" stroke="rgb(160,50,45)" stroke-width="1" opacity="0.75" />
			</g>
		</g>
		<g>
			<title> (G339_RS35705)
methylmalonyl-CoA mutase family protein</title>
			<polygon class=" (G339_RS35705)
methylmalonyl-CoA mutase family protein" points="782,25 764,25 764,10 734,40 764,70 764,55 782,55" fill="rgb(255,255,255)" fill-opacity="1.0" stroke="rgb(0,0,0)" stroke-width="2"  />
			<g>
				<title>MM_CoA_mutase (PF01642)
"Methylmalonyl-CoA mutase"</title>
				<polygon class="PF01642" points="738,40 750,28 781,28 781,52 750,52" stroke-linejoin="round" width="47" height="24" fill="rgb(67,86,223)" stroke="rgb(53,68,178)" stroke-width="1" opacity="0.75" />
			</g>
		</g>
		<g>
			<title> (G339_RS0128955)
diiron oxygenase</title>
			<polygon class=" (G339_RS0128955)
diiron oxygenase" points="782,40 809,10 809,70" fill="rgb(255,255,255)" fill-opacity="1.0" stroke="rgb(0,0,0)" stroke-width="2"  />
			<g>
				<title>AurF (PF11583)
"P-aminobenzoate N-oxygenase AurF"</title>
				<polygon class="PF11583" points="786,40 797,28 809,28 809,52 797,52" stroke-linejoin="round" width="25" height="24" fill="rgb(100,210,108)" stroke="rgb(80,168,86)" stroke-width="1" opacity="0.75" />
			</g>
		</g>
	</g>
</svg>
