<svg version="1.1" baseProfile="full" xmlns="http://www.w3.org/2000/svg" width="800.7666666666667" height="80">
	<g>
		<line x1="10" y1="40.0" x2="790.7666666666667" y2="40.0" style="stroke:rgb(70,70,70); stroke-width:3 "/>
		<g>
			<title>fkpA
FkpA</title>
			<polygon class="fkpA
FkpA" points="10,40 34,10 34,70" fill="rgb(255,255,255)" fill-opacity="1.0" stroke="rgb(0,0,0)" stroke-width="2"  />
			<g>
				<title>FKBP_C (PF00254)
"FKBP-type peptidyl-prolyl cis-trans isomerase"</title>
				<polygon class="PF00254" points="14,40 18,35 18,45" stroke-linejoin="round" width="8" height="24" fill="rgb(137,65,200)" stroke="rgb(109,51,160)" stroke-width="1" opacity="0.75" />
			</g>
			<g>
				<title>FKBP_N (PF01346)
"Domain amino terminal to FKBP-type peptidyl-prolyl isomerase"</title>
				<polygon class="PF01346" points="19,34 24,28 29,28 29,52 24,52 19,46" stroke-linejoin="round" width="10" height="24" fill="rgb(157,68,193)" stroke="rgb(125,54,154)" stroke-width="1" opacity="0.75" />
			</g>
		</g>
		<g>
			<title>wzc
Wzc</title>
			<polygon class="wzc
Wzc" points="112,25 70,25 70,10 40,40 70,70 70,55 112,55" fill="rgb(255,255,255)" fill-opacity="1.0" stroke="rgb(0,0,0)" stroke-width="2"  />
			<g>
				<title>AAA_31 (PF13614)
"AAA domain"</title>
				<polygon class="PF13614" points="44,40 56,28 58,28 58,52 56,52" stroke-linejoin="round" width="16" height="24" fill="rgb(144,187,62)" stroke="rgb(115,149,49)" stroke-width="1" opacity="0.75" />
			</g>
			<g>
				<title>GNVR (PF13807)
"G-rich domain on putative tyrosine kinase"</title>
				<rect class="PF13807" x="67" y="28" stroke-linejoin="round" width="8" height="24" fill="rgb(77,110,190)" stroke="rgb(61,87,152)" stroke-width="1" opacity="0.75" />
			</g>
			<g>
				<title>Wzz (PF02706)
"Chain length determinant protein"</title>
				<rect class="PF02706" x="102" y="28" stroke-linejoin="round" width="9" height="24" fill="rgb(184,132,90)" stroke="rgb(147,105,72)" stroke-width="1" opacity="0.75" />
			</g>
		</g>
		<g>
			<title>wzb
Wzb</title>
			<polygon class="wzb
Wzb" points="113,40 127,10 127,70" fill="rgb(255,255,255)" fill-opacity="1.0" stroke="rgb(0,0,0)" stroke-width="2"  />
			<g>
				<title>LMWPc (PF01451)
"Low molecular weight phosphotyrosine protein phosphatase"</title>
				<polygon class="PF01451" points="116,40 122,28 126,28 126,52 122,52" stroke-linejoin="round" width="13" height="24" fill="rgb(199,53,196)" stroke="rgb(159,42,156)" stroke-width="1" opacity="0.75" />
			</g>
		</g>
		<g>
			<title>wza
Wza</title>
			<polygon class="wza
Wza" points="165,25 158,25 158,10 128,40 158,70 158,55 165,55" fill="rgb(255,255,255)" fill-opacity="1.0" stroke="rgb(0,0,0)" stroke-width="2"  />
			<g>
				<title>Poly_export (PF02563)
"Polysaccharide biosynthesis/export protein"</title>
				<rect class="PF02563" x="148" y="28" stroke-linejoin="round" width="9" height="24" fill="rgb(125,185,59)" stroke="rgb(100,148,47)" stroke-width="1" opacity="0.75" />
			</g>
		</g>
		<g>
			<title>gna
Gna</title>
			<polygon class="gna
Gna" points="176,25 189,25 189,10 219,40 189,70 189,55 176,55" fill="rgb(255,255,255)" fill-opacity="1.0" stroke="rgb(0,0,0)" stroke-width="2"  />
			<g>
				<title>UDPG_MGDP_dh_N (PF03721)
"UDP-glucose/GDP-mannose dehydrogenase family, NAD binding domain"</title>
				<rect class="PF03721" x="177" y="28" stroke-linejoin="round" width="18" height="24" fill="rgb(156,194,58)" stroke="rgb(124,155,46)" stroke-width="1" opacity="0.75" />
			</g>
			<g>
				<title>UDPG_MGDP_dh (PF00984)
"UDP-glucose/GDP-mannose dehydrogenase family, central domain"</title>
				<polygon class="PF00984" points="196,28 202,28 205,31 205,49 202,52 196,52" stroke-linejoin="round" width="9" height="24" fill="rgb(69,189,184)" stroke="rgb(55,151,147)" stroke-width="1" opacity="0.75" />
			</g>
			<g>
				<title>UDPG_MGDP_dh_C (PF03720)
"UDP-glucose/GDP-mannose dehydrogenase family, UDP binding domain"</title>
				<polygon class="PF03720" points="208,34 214,40 208,46" stroke-linejoin="round" width="10" height="24" fill="rgb(221,130,74)" stroke="rgb(176,103,59)" stroke-width="1" opacity="0.75" />
			</g>
		</g>
		<g>
			<title>gne2
Gne2</title>
			<polygon class="gne2
Gne2" points="219,25 223,25 223,10 253,40 223,70 223,55 219,55" fill="rgb(255,255,255)" fill-opacity="1.0" stroke="rgb(0,0,0)" stroke-width="2"  />
			<g>
				<title>Epimerase (PF01370)
"NAD dependent epimerase/dehydratase family"</title>
				<polygon class="PF01370" points="221,28 237,28 245,36 245,44 237,52 221,52" stroke-linejoin="round" width="24" height="24" fill="rgb(98,102,214)" stroke="rgb(78,81,171)" stroke-width="1" opacity="0.75" />
			</g>
		</g>
		<g>
			<title>atr18
Atr18</title>
			<polygon class="atr18
Atr18" points="254,10 272,40 254,70" fill="rgb(255,255,255)" fill-opacity="1.0" stroke="rgb(0,0,0)" stroke-width="2"  />
			<g>
				<title>Hexapep (PF00132)
"Bacterial transferase hexapeptide (six repeats)"</title>
				<polygon class="PF00132" points="266,36 268,40 266,44" stroke-linejoin="round" width="3" height="24" fill="rgb(89,131,202)" stroke="rgb(71,104,161)" stroke-width="1" opacity="0.75" />
			</g>
		</g>
		<g>
			<title>wzx
Wzx</title>
			<polygon class="wzx
Wzx" points="272,25 281,25 281,10 311,40 281,70 281,55 272,55" fill="rgb(255,255,255)" fill-opacity="1.0" stroke="rgb(0,0,0)" stroke-width="2"  />
		</g>
		<g>
			<title>wzy
Wzy</title>
			<polygon class="wzy
Wzy" points="311,25 319,25 319,10 349,40 319,70 319,55 311,55" fill="rgb(255,255,255)" fill-opacity="1.0" stroke="rgb(0,0,0)" stroke-width="2"  />
		</g>
		<g>
			<title>gtr2
Gtr2</title>
			<polygon class="gtr2
Gtr2" points="349,25 357,25 357,10 387,40 357,70 357,55 349,55" fill="rgb(255,255,255)" fill-opacity="1.0" stroke="rgb(0,0,0)" stroke-width="2"  />
			<g>
				<title>Glyco_trans_4_2 (PF13477)
"Glycosyl transferase 4-like"</title>
				<rect class="PF13477" x="349" y="28" stroke-linejoin="round" width="15" height="24" fill="rgb(190,91,205)" stroke="rgb(152,72,164)" stroke-width="1" opacity="0.75" />
			</g>
			<g>
				<title>Glycos_transf_1 (PF00534)
"Glycosyl transferases group 1"</title>
				<polygon class="PF00534" points="368,28 370,28 382,40 370,52 368,52" stroke-linejoin="round" width="16" height="24" fill="rgb(228,92,150)" stroke="rgb(182,73,119)" stroke-width="1" opacity="0.75" />
			</g>
		</g>
		<g>
			<title>itrA1
ItrA1</title>
			<polygon class="itrA1
ItrA1" points="387,10 407,40 387,70" fill="rgb(255,255,255)" fill-opacity="1.0" stroke="rgb(0,0,0)" stroke-width="2"  />
			<g>
				<title>Bac_transf (PF02397)
"Bacterial sugar transferase"</title>
				<polygon class="PF02397" points="387,28 395,28 403,40 395,52 387,52" stroke-linejoin="round" width="17" height="24" fill="rgb(57,165,209)" stroke="rgb(45,131,167)" stroke-width="1" opacity="0.75" />
			</g>
		</g>
		<g>
			<title>qhbC
QhbC</title>
			<polygon class="qhbC
QhbC" points="407,10 429,40 407,70" fill="rgb(255,255,255)" fill-opacity="1.0" stroke="rgb(0,0,0)" stroke-width="2"  />
			<g>
				<title>PglD_N (PF17836)
"PglD N-terminal domain"</title>
				<rect class="PF17836" x="407" y="28" stroke-linejoin="round" width="8" height="24" fill="rgb(164,52,206)" stroke="rgb(131,41,164)" stroke-width="1" opacity="0.75" />
			</g>
			<g>
				<title>Hexapep_2 (PF14602)
"Hexapeptide repeat of succinyl-transferase"</title>
				<polygon class="PF14602" points="423,37 425,40 423,43" stroke-linejoin="round" width="4" height="24" fill="rgb(79,205,115)" stroke="rgb(63,164,92)" stroke-width="1" opacity="0.75" />
			</g>
		</g>
		<g>
			<title>qhbB
QhbB</title>
			<polygon class="qhbB
QhbB" points="430,25 439,25 439,10 469,40 439,70 439,55 430,55" fill="rgb(255,255,255)" fill-opacity="1.0" stroke="rgb(0,0,0)" stroke-width="2"  />
			<g>
				<title>DegT_DnrJ_EryC1 (PF01041)
"DegT/DnrJ/EryC1/StrS aminotransferase family"</title>
				<polygon class="PF01041" points="431,28 452,28 464,40 452,52 431,52" stroke-linejoin="round" width="37" height="24" fill="rgb(59,139,191)" stroke="rgb(47,111,152)" stroke-width="1" opacity="0.75" />
			</g>
		</g>
		<g>
			<title>gdr
Gdr</title>
			<polygon class="gdr
Gdr" points="474,25 506,25 506,10 536,40 506,70 506,55 474,55" fill="rgb(255,255,255)" fill-opacity="1.0" stroke="rgb(0,0,0)" stroke-width="2"  />
			<g>
				<title>CoA_binding_3 (PF13727)
"CoA-binding domain"</title>
				<rect class="PF13727" x="480" y="28" stroke-linejoin="round" width="17" height="24" fill="rgb(153,200,97)" stroke="rgb(122,160,77)" stroke-width="1" opacity="0.75" />
			</g>
			<g>
				<title>Polysacc_synt_2 (PF02719)
"Polysaccharide biosynthesis protein"</title>
				<polygon class="PF02719" points="502,28 520,28 531,39 531,41 520,52 502,52" stroke-linejoin="round" width="29" height="24" fill="rgb(103,215,129)" stroke="rgb(82,172,103)" stroke-width="1" opacity="0.75" />
			</g>
		</g>
		<g>
			<title>galU
GalU</title>
			<polygon class="galU
GalU" points="537,10 566,40 537,70" fill="rgb(255,255,255)" fill-opacity="1.0" stroke="rgb(0,0,0)" stroke-width="2"  />
			<g>
				<title>NTP_transferase (PF00483)
"Nucleotidyl transferase"</title>
				<polygon class="PF00483" points="537,28 550,28 562,40 550,52 537,52" stroke-linejoin="round" width="26" height="24" fill="rgb(198,101,87)" stroke="rgb(158,80,69)" stroke-width="1" opacity="0.75" />
			</g>
		</g>
		<g>
			<title>ugd
Ugd</title>
			<polygon class="ugd
Ugd" points="569,25 581,25 581,10 611,40 581,70 581,55 569,55" fill="rgb(255,255,255)" fill-opacity="1.0" stroke="rgb(0,0,0)" stroke-width="2"  />
			<g>
				<title>UDPG_MGDP_dh (PF00984)
"UDP-glucose/GDP-mannose dehydrogenase family, central domain"</title>
				<polygon class="PF00984" points="587,28 595,28 596,29 596,51 595,52 587,52" stroke-linejoin="round" width="9" height="24" fill="rgb(69,189,184)" stroke="rgb(55,151,147)" stroke-width="1" opacity="0.75" />
			</g>
			<g>
				<title>UDPG_MGDP_dh_C (PF03720)
"UDP-glucose/GDP-mannose dehydrogenase family, UDP binding domain"</title>
				<polygon class="PF03720" points="599,32 607,40 599,48" stroke-linejoin="round" width="10" height="24" fill="rgb(221,130,74)" stroke="rgb(176,103,59)" stroke-width="1" opacity="0.75" />
			</g>
		</g>
		<g>
			<title>gpi
Gpi</title>
			<polygon class="gpi
Gpi" points="612,25 637,25 637,10 667,40 637,70 637,55 612,55" fill="rgb(255,255,255)" fill-opacity="1.0" stroke="rgb(0,0,0)" stroke-width="2"  />
			<g>
				<title>PGI (PF00342)
"Phosphoglucose isomerase"</title>
				<polygon class="PF00342" points="617,28 651,28 663,40 651,52 617,52" stroke-linejoin="round" width="49" height="24" fill="rgb(160,69,196)" stroke="rgb(128,55,156)" stroke-width="1" opacity="0.75" />
			</g>
		</g>
		<g>
			<title>pgm
Pgm</title>
			<polygon class="pgm
Pgm" points="722,25 707,25 707,10 677,40 707,70 707,55 722,55" fill="rgb(255,255,255)" fill-opacity="1.0" stroke="rgb(0,0,0)" stroke-width="2"  />
			<g>
				<title>PGM_PMM_IV (PF00408)
"Phosphoglucomutase/phosphomannomutase, C-terminal domain"</title>
				<polygon class="PF00408" points="681,40 684,37 684,43" stroke-linejoin="round" width="7" height="24" fill="rgb(74,205,143)" stroke="rgb(59,164,114)" stroke-width="1" opacity="0.75" />
			</g>
			<g>
				<title>PGM_PMM_III (PF02880)
"Phosphoglucomutase/phosphomannomutase, alpha/beta/alpha domain III"</title>
				<polygon class="PF02880" points="685,36 693,28 696,28 696,52 693,52 685,44" stroke-linejoin="round" width="11" height="24" fill="rgb(67,204,90)" stroke="rgb(53,163,72)" stroke-width="1" opacity="0.75" />
			</g>
			<g>
				<title>PGM_PMM_II (PF02879)
"Phosphoglucomutase/phosphomannomutase, alpha/beta/alpha domain II"</title>
				<rect class="PF02879" x="697" y="28" stroke-linejoin="round" width="10" height="24" fill="rgb(192,221,60)" stroke="rgb(153,176,48)" stroke-width="1" opacity="0.75" />
			</g>
			<g>
				<title>PGM_PMM_I (PF02878)
"Phosphoglucomutase/phosphomannomutase, alpha/beta/alpha domain I"</title>
				<rect class="PF02878" x="709" y="28" stroke-linejoin="round" width="13" height="24" fill="rgb(217,133,102)" stroke="rgb(173,106,81)" stroke-width="1" opacity="0.75" />
			</g>
		</g>
		<g>
			<title>lldP
LldP</title>
			<polygon class="lldP
LldP" points="733,25 760,25 760,10 790,40 760,70 760,55 733,55" fill="rgb(255,255,255)" fill-opacity="1.0" stroke="rgb(0,0,0)" stroke-width="2"  />
			<g>
				<title>Lactate_perm (PF02652)
"L-lactate permease"</title>
				<polygon class="PF02652" points="736,28 773,28 785,40 773,52 736,52" stroke-linejoin="round" width="52" height="24" fill="rgb(61,117,189)" stroke="rgb(48,93,151)" stroke-width="1" opacity="0.75" />
			</g>
		</g>
	</g>
</svg>
