<svg version="1.1" baseProfile="full" xmlns="http://www.w3.org/2000/svg" width="320.6333333333333" height="80">
	<g>
		<line x1="10" y1="40.0" x2="310.6333333333333" y2="40.0" style="stroke:rgb(70,70,70); stroke-width:3 "/>
		<g>
			<title> (WH38_RS18240)
winged helix-turn-helix domain-containing protein</title>
			<polygon class=" (WH38_RS18240)
winged helix-turn-helix domain-containing protein" points="108,25 40,25 40,10 10,40 40,70 40,55 108,55" fill="rgb(255,255,255)" fill-opacity="1.0" stroke="rgb(0,0,0)" stroke-width="2"  />
			<g>
				<title>AAA_22 (PF13401)
"AAA domain"</title>
				<rect class="PF13401" x="67" y="28" stroke-linejoin="round" width="12" height="24" fill="rgb(174,224,73)" stroke="rgb(139,179,58)" stroke-width="1" opacity="0.75" />
			</g>
			<g>
				<title>BTAD (PF03704)
"Bacterial transcriptional activator domain"</title>
				<rect class="PF03704" x="84" y="28" stroke-linejoin="round" width="14" height="24" fill="rgb(217,89,196)" stroke="rgb(173,71,156)" stroke-width="1" opacity="0.75" />
			</g>
			<g>
				<title>Trans_reg_C (PF00486)
"Transcriptional regulatory protein, C terminal"</title>
				<rect class="PF00486" x="99" y="28" stroke-linejoin="round" width="7" height="24" fill="rgb(204,153,57)" stroke="rgb(163,122,45)" stroke-width="1" opacity="0.75" />
			</g>
		</g>
		<g>
			<title> (WH38_RS18245)
hypothetical protein</title>
			<polygon class=" (WH38_RS18245)
hypothetical protein" points="114,25 123,25 123,10 153,40 123,70 123,55 114,55" fill="rgb(255,255,255)" fill-opacity="1.0" stroke="rgb(0,0,0)" stroke-width="2"  />
			<g>
				<title>Trp_DMAT (PF11991)
"Tryptophan dimethylallyltransferase"</title>
				<polygon class="PF11991" points="116,28 137,28 139,30 139,50 137,52 116,52" stroke-linejoin="round" width="23" height="24" fill="rgb(197,197,93)" stroke="rgb(157,157,74)" stroke-width="1" opacity="0.75" />
			</g>
		</g>
		<g>
			<title> (WH38_RS18250)
tryptophanase</title>
			<polygon class=" (WH38_RS18250)
tryptophanase" points="156,25 176,25 176,10 206,40 176,70 176,55 156,55" fill="rgb(255,255,255)" fill-opacity="1.0" stroke="rgb(0,0,0)" stroke-width="2"  />
			<g>
				<title>Beta_elim_lyase (PF01212)
"Beta-eliminating lyase"</title>
				<polygon class="PF01212" points="160,28 190,28 197,35 197,45 190,52 160,52" stroke-linejoin="round" width="37" height="24" fill="rgb(121,182,62)" stroke="rgb(96,145,49)" stroke-width="1" opacity="0.75" />
			</g>
		</g>
		<g>
			<title> (WH38_RS18255)
hypothetical protein</title>
			<polygon class=" (WH38_RS18255)
hypothetical protein" points="220,10 231,40 220,70" fill="rgb(255,255,255)" fill-opacity="1.0" stroke="rgb(0,0,0)" stroke-width="2"  />
		</g>
		<g>
			<title> (WH38_RS39735)
IS5/IS1182 family transposase</title>
			<polygon class=" (WH38_RS39735)
IS5/IS1182 family transposase" points="282,10 290,40 282,70" fill="rgb(255,255,255)" fill-opacity="1.0" stroke="rgb(0,0,0)" stroke-width="2"  />
		</g>
		<g>
			<title> (WH38_RS18260)
hypothetical protein</title>
			<polygon class=" (WH38_RS18260)
hypothetical protein" points="299,10 309,40 299,70" fill="rgb(255,255,255)" fill-opacity="1.0" stroke="rgb(0,0,0)" stroke-width="2"  />
			<g>
				<title>Trypco2 (PF19631)
"Trypsin-co-occurring domain 2"</title>
				<polygon class="PF19631" points="300,28 301,28 306,40 301,52 300,52" stroke-linejoin="round" width="7" height="24" fill="rgb(131,63,211)" stroke="rgb(104,50,168)" stroke-width="1" opacity="0.75" />
			</g>
		</g>
	</g>
</svg>
