<svg version="1.1" baseProfile="full" xmlns="http://www.w3.org/2000/svg" width="359.9" height="80">
	<g>
		<line x1="10" y1="40.0" x2="349.9" y2="40.0" style="stroke:rgb(70,70,70); stroke-width:3 "/>
		<g>
			<title>crtG
2,2'-beta-ionone ring hydroxylase</title>
			<polygon class="crtG
2,2'-beta-ionone ring hydroxylase" points="22,40 47,10 47,70" fill="rgb(255,255,255)" fill-opacity="1.0" stroke="rgb(0,0,0)" stroke-width="2"  />
			<g>
				<title>FA_hydroxylase (PF04116)
"Fatty acid hydroxylase"</title>
				<polygon class="PF04116" points="26,40 36,28 36,28 36,52 36,52" stroke-linejoin="round" width="13" height="24" fill="rgb(171,60,209)" stroke="rgb(136,48,167)" stroke-width="1" opacity="0.75" />
			</g>
		</g>
		<g>
			<title>crtZ
beta-carotene hydroxylase</title>
			<polygon class="crtZ
beta-carotene hydroxylase" points="49,10 65,40 49,70" fill="rgb(255,255,255)" fill-opacity="1.0" stroke="rgb(0,0,0)" stroke-width="2"  />
			<g>
				<title>FA_hydroxylase (PF04116)
"Fatty acid hydroxylase"</title>
				<polygon class="PF04116" points="50,28 55,28 61,40 55,52 50,52" stroke-linejoin="round" width="13" height="24" fill="rgb(171,60,209)" stroke="rgb(136,48,167)" stroke-width="1" opacity="0.75" />
			</g>
		</g>
		<g>
			<title>idi
isopentenyl pyrophosphate isomerase</title>
			<polygon class="idi
isopentenyl pyrophosphate isomerase" points="98,25 94,25 94,10 64,40 94,70 94,55 98,55" fill="rgb(255,255,255)" fill-opacity="1.0" stroke="rgb(0,0,0)" stroke-width="2"  />
			<g>
				<title>FMN_dh (PF01070)
"FMN-dependent dehydrogenase"</title>
				<polygon class="PF01070" points="68,40 80,28 84,28 84,52 80,52" stroke-linejoin="round" width="20" height="24" fill="rgb(59,82,204)" stroke="rgb(47,65,163)" stroke-width="1" opacity="0.75" />
			</g>
			<g>
				<title>FMN_dh (PF01070)
"FMN-dependent dehydrogenase"</title>
				<rect class="PF01070" x="88" y="28" stroke-linejoin="round" width="9" height="24" fill="rgb(59,82,204)" stroke="rgb(47,65,163)" stroke-width="1" opacity="0.75" />
			</g>
		</g>
		<g>
			<title>crtE
geranylgeranyl pyrophosphate synthase</title>
			<polygon class="crtE
geranylgeranyl pyrophosphate synthase" points="103,10 132,40 103,70" fill="rgb(255,255,255)" fill-opacity="1.0" stroke="rgb(0,0,0)" stroke-width="2"  />
			<g>
				<title>polyprenyl_synt (PF00348)
"Polyprenyl synthetase"</title>
				<polygon class="PF00348" points="106,28 116,28 128,40 128,40 116,52 106,52" stroke-linejoin="round" width="22" height="24" fill="rgb(61,206,65)" stroke="rgb(48,164,52)" stroke-width="1" opacity="0.75" />
			</g>
		</g>
		<g>
			<title>
unknown</title>
			<polygon class="
unknown" points="134,10 162,40 134,70" fill="rgb(255,255,255)" fill-opacity="1.0" stroke="rgb(0,0,0)" stroke-width="2"  />
			<g>
				<title>ABC_tran (PF00005)
"ABC transporter"</title>
				<polygon class="PF00005" points="134,28 146,28 147,29 147,51 146,52 134,52" stroke-linejoin="round" width="13" height="24" fill="rgb(129,201,63)" stroke="rgb(103,160,50)" stroke-width="1" opacity="0.75" />
			</g>
		</g>
		<g>
			<title>
unknown</title>
			<polygon class="
unknown" points="163,25 168,25 168,10 198,40 168,70 168,55 163,55" fill="rgb(255,255,255)" fill-opacity="1.0" stroke="rgb(0,0,0)" stroke-width="2"  />
			<g>
				<title>ABC2_membrane_3 (PF12698)
"ABC-2 family transporter protein"</title>
				<polygon class="PF12698" points="164,28 182,28 194,40 182,52 164,52" stroke-linejoin="round" width="33" height="24" fill="rgb(151,189,55)" stroke="rgb(120,151,44)" stroke-width="1" opacity="0.75" />
			</g>
		</g>
		<g>
			<title>crtB
phytoene synthase</title>
			<polygon class="crtB
phytoene synthase" points="229,25 228,25 228,10 198,40 228,70 228,55 229,55" fill="rgb(255,255,255)" fill-opacity="1.0" stroke="rgb(0,0,0)" stroke-width="2"  />
			<g>
				<title>SQS_PSY (PF00494)
"Squalene/phytoene synthase"</title>
				<polygon class="PF00494" points="202,40 214,28 227,28 227,52 214,52" stroke-linejoin="round" width="26" height="24" fill="rgb(178,91,49)" stroke="rgb(142,72,39)" stroke-width="1" opacity="0.75" />
			</g>
		</g>
		<g>
			<title>crtI
phytoene desaturase</title>
			<polygon class="crtI
phytoene desaturase" points="278,25 259,25 259,10 229,40 259,70 259,55 278,55" fill="rgb(255,255,255)" fill-opacity="1.0" stroke="rgb(0,0,0)" stroke-width="2"  />
			<g>
				<title>Amino_oxidase (PF01593)
"Flavin containing amine oxidoreductase"</title>
				<polygon class="PF01593" points="233,40 245,28 276,28 276,52 245,52" stroke-linejoin="round" width="47" height="24" fill="rgb(184,74,52)" stroke="rgb(147,59,41)" stroke-width="1" opacity="0.75" />
			</g>
		</g>
		<g>
			<title>crtY
lycopene cyclase</title>
			<polygon class="crtY
lycopene cyclase" points="317,25 309,25 309,10 279,40 309,70 309,55 317,55" fill="rgb(255,255,255)" fill-opacity="1.0" stroke="rgb(0,0,0)" stroke-width="2"  />
			<g>
				<title>Lycopene_cycl (PF05834)
"Lycopene cyclase protein"</title>
				<polygon class="PF05834" points="283,40 295,28 315,28 315,52 295,52" stroke-linejoin="round" width="36" height="24" fill="rgb(212,80,200)" stroke="rgb(169,64,160)" stroke-width="1" opacity="0.75" />
			</g>
		</g>
		<g>
			<title>crtW
beta-carotene ketolase</title>
			<polygon class="crtW
beta-carotene ketolase" points="320,10 344,40 320,70" fill="rgb(255,255,255)" fill-opacity="1.0" stroke="rgb(0,0,0)" stroke-width="2"  />
			<g>
				<title>FA_desaturase (PF00487)
"Fatty acid desaturase"</title>
				<polygon class="PF00487" points="324,28 331,28 334,33 334,47 331,52 324,52" stroke-linejoin="round" width="10" height="24" fill="rgb(104,51,205)" stroke="rgb(83,40,164)" stroke-width="1" opacity="0.75" />
			</g>
			<g>
				<title>FA_desaturase (PF00487)
"Fatty acid desaturase"</title>
				<polygon class="PF00487" points="333,31 340,40 333,49" stroke-linejoin="round" width="10" height="24" fill="rgb(104,51,205)" stroke="rgb(83,40,164)" stroke-width="1" opacity="0.75" />
			</g>
		</g>
	</g>
</svg>
