<svg version="1.1" baseProfile="full" xmlns="http://www.w3.org/2000/svg" width="2963.9333333333334" height="80">
	<g>
		<line x1="10" y1="40.0" x2="2953.9333333333334" y2="40.0" style="stroke:rgb(70,70,70); stroke-width:3 "/>
		<g>
			<title>aflT
AflT</title>
			<polygon class="aflT
AflT" points="458,25 494,25 494,10 524,40 494,70 494,55 458,55" fill="rgb(255,255,255)" fill-opacity="1.0" stroke="rgb(0,0,0)" stroke-width="2"  />
			<g>
				<title>MFS_1 (PF07690)
"Major Facilitator Superfamily"</title>
				<rect class="PF07690" x="463" y="28" stroke-linejoin="round" width="39" height="24" fill="rgb(193,224,74)" stroke="rgb(154,179,59)" stroke-width="1" opacity="0.75" />
			</g>
		</g>
		<g>
			<title>pksA
PksA</title>
			<polygon class="pksA
PksA" points="800,25 610,25 610,10 580,40 610,70 610,55 800,55" fill="rgb(255,255,255)" fill-opacity="1.0" stroke="rgb(0,0,0)" stroke-width="2"  />
			<g>
				<title>Thioesterase (PF00975)
"Thioesterase domain"</title>
				<polygon class="PF00975" points="590,34 596,28 614,28 614,52 596,52 590,46" stroke-linejoin="round" width="24" height="24" fill="rgb(207,80,138)" stroke="rgb(165,63,110)" stroke-width="1" opacity="0.75" />
			</g>
			<g>
				<title>PP-binding (PF00550)
"Phosphopantetheine attachment site"</title>
				<rect class="PF00550" x="622" y="28" stroke-linejoin="round" width="6" height="24" fill="rgb(103,191,88)" stroke="rgb(82,152,70)" stroke-width="1" opacity="0.75" />
			</g>
			<g>
				<title>PS-DH (PF14765)
"Polyketide synthase dehydratase"</title>
				<rect class="PF14765" x="637" y="28" stroke-linejoin="round" width="31" height="24" fill="rgb(173,56,182)" stroke="rgb(138,44,145)" stroke-width="1" opacity="0.75" />
			</g>
			<g>
				<title>Acyl_transf_1 (PF00698)
"Acyl transferase domain"</title>
				<rect class="PF00698" x="678" y="28" stroke-linejoin="round" width="31" height="24" fill="rgb(59,176,209)" stroke="rgb(47,140,167)" stroke-width="1" opacity="0.75" />
			</g>
			<g>
				<title>KAsynt_C_assoc (PF16197)
"Ketoacyl-synthetase C-terminal extension"</title>
				<rect class="PF16197" x="713" y="28" stroke-linejoin="round" width="11" height="24" fill="rgb(240,150,172)" stroke="rgb(192,120,137)" stroke-width="1" opacity="0.75" />
			</g>
			<g>
				<title>Ketoacyl-synt_C (PF02801)
"Beta-ketoacyl synthase, C-terminal domain"</title>
				<rect class="PF02801" x="725" y="28" stroke-linejoin="round" width="12" height="24" fill="rgb(215,78,102)" stroke="rgb(172,62,81)" stroke-width="1" opacity="0.75" />
			</g>
			<g>
				<title>ketoacyl-synt (PF00109)
"Beta-ketoacyl synthase, N-terminal domain"</title>
				<rect class="PF00109" x="738" y="28" stroke-linejoin="round" width="24" height="24" fill="rgb(112,116,228)" stroke="rgb(89,92,182)" stroke-width="1" opacity="0.75" />
			</g>
			<g>
				<title>SAT (PF16073)
"Starter unit:ACP transacylase in aflatoxin biosynthesis"</title>
				<rect class="PF16073" x="776" y="28" stroke-linejoin="round" width="23" height="24" fill="rgb(77,115,183)" stroke="rgb(61,91,146)" stroke-width="1" opacity="0.75" />
			</g>
		</g>
		<g>
			<title>nor-1
Nor-1</title>
			<polygon class="nor-1
Nor-1" points="857,25 860,25 860,10 890,40 860,70 860,55 857,55" fill="rgb(255,255,255)" fill-opacity="1.0" stroke="rgb(0,0,0)" stroke-width="2"  />
			<g>
				<title>adh_short (PF00106)
"short chain dehydrogenase"</title>
				<polygon class="PF00106" points="859,28 873,28 879,34 879,46 873,52 859,52" stroke-linejoin="round" width="20" height="24" fill="rgb(182,219,73)" stroke="rgb(145,175,58)" stroke-width="1" opacity="0.75" />
			</g>
		</g>
		<g>
			<title>fas-2_hexA
Fas-2/HexA</title>
			<polygon class="fas-2_hexA
Fas-2/HexA" points="1103,25 963,25 963,10 933,40 963,70 963,55 1103,55" fill="rgb(255,255,255)" fill-opacity="1.0" stroke="rgb(0,0,0)" stroke-width="2"  />
			<g>
				<title>ACPS (PF01648)
"4'-phosphopantetheinyl transferase superfamily"</title>
				<polygon class="PF01648" points="937,40 948,29 948,51 937,40" stroke-linejoin="round" width="11" height="24" fill="rgb(85,184,135)" stroke="rgb(68,147,108)" stroke-width="1" opacity="0.75" />
			</g>
			<g>
				<title>Ketoacyl-synt_C (PF02801)
"Beta-ketoacyl synthase, C-terminal domain"</title>
				<rect class="PF02801" x="965" y="28" stroke-linejoin="round" width="12" height="24" fill="rgb(215,78,102)" stroke="rgb(172,62,81)" stroke-width="1" opacity="0.75" />
			</g>
			<g>
				<title>ketoacyl-synt (PF00109)
"Beta-ketoacyl synthase, N-terminal domain"</title>
				<rect class="PF00109" x="983" y="28" stroke-linejoin="round" width="21" height="24" fill="rgb(112,116,228)" stroke="rgb(89,92,182)" stroke-width="1" opacity="0.75" />
			</g>
			<g>
				<title>FAS_I_H (PF18314)
"Fatty acid synthase type I helical domain"</title>
				<rect class="PF18314" x="1058" y="28" stroke-linejoin="round" width="19" height="24" fill="rgb(185,90,146)" stroke="rgb(148,72,116)" stroke-width="1" opacity="0.75" />
			</g>
			<g>
				<title>Fas_alpha_ACP (PF18325)
"Fatty acid synthase subunit alpha Acyl carrier domain"</title>
				<rect class="PF18325" x="1080" y="28" stroke-linejoin="round" width="15" height="24" fill="rgb(186,70,103)" stroke="rgb(148,56,82)" stroke-width="1" opacity="0.75" />
			</g>
		</g>
		<g>
			<title>
Fas-1/HexB</title>
			<polygon class="
Fas-1/HexB" points="1128,25 1292,25 1292,10 1322,40 1292,70 1292,55 1128,55" fill="rgb(255,255,255)" fill-opacity="1.0" stroke="rgb(0,0,0)" stroke-width="2"  />
			<g>
				<title>SAT (PF16073)
"Starter unit:ACP transacylase in aflatoxin biosynthesis"</title>
				<rect class="PF16073" x="1130" y="28" stroke-linejoin="round" width="25" height="24" fill="rgb(77,115,183)" stroke="rgb(61,91,146)" stroke-width="1" opacity="0.75" />
			</g>
			<g>
				<title>DUF1729 (PF08354)
"Domain of unknown function (DUF1729)"</title>
				<rect class="PF08354" x="1186" y="28" stroke-linejoin="round" width="34" height="24" fill="rgb(199,58,132)" stroke="rgb(159,46,105)" stroke-width="1" opacity="0.75" />
			</g>
			<g>
				<title>FAS_meander (PF17951)
"Fatty acid synthase meander beta sheet domain"</title>
				<rect class="PF17951" x="1225" y="28" stroke-linejoin="round" width="14" height="24" fill="rgb(75,195,64)" stroke="rgb(60,156,51)" stroke-width="1" opacity="0.75" />
			</g>
			<g>
				<title>MaoC_dehydrat_N (PF13452)
"N-terminal half of MaoC dehydratase"</title>
				<rect class="PF13452" x="1241" y="28" stroke-linejoin="round" width="12" height="24" fill="rgb(215,186,64)" stroke="rgb(172,148,51)" stroke-width="1" opacity="0.75" />
			</g>
			<g>
				<title>MaoC_dehydratas (PF01575)
"MaoC like domain"</title>
				<rect class="PF01575" x="1266" y="28" stroke-linejoin="round" width="11" height="24" fill="rgb(218,129,86)" stroke="rgb(174,103,68)" stroke-width="1" opacity="0.75" />
			</g>
			<g>
				<title>Acyl_transf_1 (PF00698)
"Acyl transferase domain"</title>
				<polygon class="PF00698" points="1279,28 1306,28 1315,37 1315,43 1306,52 1279,52" stroke-linejoin="round" width="36" height="24" fill="rgb(59,176,209)" stroke="rgb(47,140,167)" stroke-width="1" opacity="0.75" />
			</g>
		</g>
		<g>
			<title>
AflR</title>
			<polygon class="
AflR" points="1409,25 1395,25 1395,10 1365,40 1395,70 1395,55 1409,55" fill="rgb(255,255,255)" fill-opacity="1.0" stroke="rgb(0,0,0)" stroke-width="2"  />
			<g>
				<title>AflR (PF08493)
"Aflatoxin regulatory protein"</title>
				<polygon class="PF08493" points="1376,33 1381,28 1386,28 1386,52 1381,52 1376,47" stroke-linejoin="round" width="10" height="24" fill="rgb(86,63,214)" stroke="rgb(68,50,171)" stroke-width="1" opacity="0.75" />
			</g>
			<g>
				<title>Zn_clus (PF00172)
"Fungal Zn(2)-Cys(6) binuclear cluster domain"</title>
				<rect class="PF00172" x="1403" y="28" stroke-linejoin="round" width="3" height="24" fill="rgb(121,178,76)" stroke="rgb(96,142,60)" stroke-width="1" opacity="0.75" />
			</g>
		</g>
		<g>
			<title>aflJ
AflJ</title>
			<polygon class="aflJ
AflJ" points="1434,25 1452,25 1452,10 1482,40 1452,70 1452,55 1434,55" fill="rgb(255,255,255)" fill-opacity="1.0" stroke="rgb(0,0,0)" stroke-width="2"  />
		</g>
		<g>
			<title>adhA
AdhA</title>
			<polygon class="adhA
AdhA" points="1501,10 1528,40 1501,70" fill="rgb(255,255,255)" fill-opacity="1.0" stroke="rgb(0,0,0)" stroke-width="2"  />
			<g>
				<title>adh_short (PF00106)
"short chain dehydrogenase"</title>
				<polygon class="PF00106" points="1502,28 1513,28 1523,39 1523,41 1513,52 1502,52" stroke-linejoin="round" width="21" height="24" fill="rgb(182,219,73)" stroke="rgb(145,175,58)" stroke-width="1" opacity="0.75" />
			</g>
		</g>
		<g>
			<title>estA
EstA</title>
			<polygon class="estA
EstA" points="1560,25 1563,25 1563,10 1593,40 1563,70 1563,55 1560,55" fill="rgb(255,255,255)" fill-opacity="1.0" stroke="rgb(0,0,0)" stroke-width="2"  />
			<g>
				<title>Abhydrolase_3 (PF07859)
"alpha/beta hydrolase fold"</title>
				<polygon class="PF07859" points="1568,28 1577,28 1588,39 1588,41 1577,52 1568,52" stroke-linejoin="round" width="20" height="24" fill="rgb(183,51,179)" stroke="rgb(146,40,143)" stroke-width="1" opacity="0.75" />
			</g>
		</g>
		<g>
			<title>norA
NorA</title>
			<polygon class="norA
NorA" points="1603,25 1615,25 1615,10 1645,40 1615,70 1615,55 1603,55" fill="rgb(255,255,255)" fill-opacity="1.0" stroke="rgb(0,0,0)" stroke-width="2"  />
			<g>
				<title>Aldo_ket_red (PF00248)
"Aldo/keto reductase family"</title>
				<polygon class="PF00248" points="1605,28 1629,28 1635,34 1635,46 1629,52 1605,52" stroke-linejoin="round" width="30" height="24" fill="rgb(225,205,58)" stroke="rgb(180,164,46)" stroke-width="1" opacity="0.75" />
			</g>
		</g>
		<g>
			<title>ver-1
Ver-1</title>
			<polygon class="ver-1
Ver-1" points="1673,25 1673,25 1673,10 1703,40 1673,70 1673,55 1673,55" fill="rgb(255,255,255)" fill-opacity="1.0" stroke="rgb(0,0,0)" stroke-width="2"  />
			<g>
				<title>adh_short_C2 (PF13561)
"Enoyl-(Acyl carrier protein) reductase"</title>
				<polygon class="PF13561" points="1674,28 1686,28 1698,40 1698,40 1686,52 1674,52" stroke-linejoin="round" width="24" height="24" fill="rgb(73,205,127)" stroke="rgb(58,164,101)" stroke-width="1" opacity="0.75" />
			</g>
		</g>
		<g>
			<title>verA
verA</title>
			<polygon class="verA
verA" points="1737,25 1758,25 1758,10 1788,40 1758,70 1758,55 1737,55" fill="rgb(255,255,255)" fill-opacity="1.0" stroke="rgb(0,0,0)" stroke-width="2"  />
			<g>
				<title>p450 (PF00067)
"Cytochrome P450"</title>
				<polygon class="PF00067" points="1737,28 1771,28 1782,39 1782,41 1771,52 1737,52" stroke-linejoin="round" width="45" height="24" fill="rgb(85,216,107)" stroke="rgb(68,172,85)" stroke-width="1" opacity="0.75" />
			</g>
		</g>
		<g>
			<title>avnA
AvnA</title>
			<polygon class="avnA
AvnA" points="1877,25 1854,25 1854,10 1824,40 1854,70 1854,55 1877,55" fill="rgb(255,255,255)" fill-opacity="1.0" stroke="rgb(0,0,0)" stroke-width="2"  />
			<g>
				<title>p450 (PF00067)
"Cytochrome P450"</title>
				<polygon class="PF00067" points="1828,40 1840,28 1872,28 1872,52 1840,52 1828,40" stroke-linejoin="round" width="44" height="24" fill="rgb(85,216,107)" stroke="rgb(68,172,85)" stroke-width="1" opacity="0.75" />
			</g>
		</g>
		<g>
			<title>verB
VerB</title>
			<polygon class="verB
VerB" points="1940,25 1919,25 1919,10 1889,40 1919,70 1919,55 1940,55" fill="rgb(255,255,255)" fill-opacity="1.0" stroke="rgb(0,0,0)" stroke-width="2"  />
			<g>
				<title>p450 (PF00067)
"Cytochrome P450"</title>
				<polygon class="PF00067" points="1893,40 1905,28 1937,28 1937,52 1905,52" stroke-linejoin="round" width="45" height="24" fill="rgb(85,216,107)" stroke="rgb(68,172,85)" stroke-width="1" opacity="0.75" />
			</g>
		</g>
		<g>
			<title>avfA
AvfA</title>
			<polygon class="avfA
AvfA" points="1975,40 2003,10 2003,70" fill="rgb(255,255,255)" fill-opacity="1.0" stroke="rgb(0,0,0)" stroke-width="2"  />
			<g>
				<title>NAD_binding_10 (PF13460)
"NAD(P)H-binding"</title>
				<polygon class="PF13460" points="1981,38 1990,28 2002,28 2002,52 1990,52 1981,42" stroke-linejoin="round" width="21" height="24" fill="rgb(188,201,78)" stroke="rgb(150,160,62)" stroke-width="1" opacity="0.75" />
			</g>
		</g>
		<g>
			<title>omtB
OmtB</title>
			<polygon class="omtB
OmtB" points="2054,25 2040,25 2040,10 2010,40 2040,70 2040,55 2054,55" fill="rgb(255,255,255)" fill-opacity="1.0" stroke="rgb(0,0,0)" stroke-width="2"  />
			<g>
				<title>Methyltransf_2 (PF00891)
"O-methyltransferase domain"</title>
				<polygon class="PF00891" points="2018,36 2026,28 2039,28 2039,52 2026,52 2018,44" stroke-linejoin="round" width="21" height="24" fill="rgb(50,51,190)" stroke="rgb(39,40,152)" stroke-width="1" opacity="0.75" />
			</g>
		</g>
		<g>
			<title>omtA
OmtA</title>
			<polygon class="omtA
OmtA" points="2145,25 2126,25 2126,10 2096,40 2126,70 2126,55 2145,55" fill="rgb(255,255,255)" fill-opacity="1.0" stroke="rgb(0,0,0)" stroke-width="2"  />
			<g>
				<title>Methyltransf_2 (PF00891)
"O-methyltransferase domain"</title>
				<polygon class="PF00891" points="2106,34 2112,28 2126,28 2126,52 2112,52 2106,46" stroke-linejoin="round" width="20" height="24" fill="rgb(50,51,190)" stroke="rgb(39,40,152)" stroke-width="1" opacity="0.75" />
			</g>
		</g>
		<g>
			<title>ordA
OrdA</title>
			<polygon class="ordA
OrdA" points="2187,25 2222,25 2222,10 2252,40 2222,70 2222,55 2187,55" fill="rgb(255,255,255)" fill-opacity="1.0" stroke="rgb(0,0,0)" stroke-width="2"  />
			<g>
				<title>p450 (PF00067)
"Cytochrome P450"</title>
				<rect class="PF00067" x="2190" y="28" stroke-linejoin="round" width="45" height="24" fill="rgb(85,216,107)" stroke="rgb(68,172,85)" stroke-width="1" opacity="0.75" />
			</g>
		</g>
		<g>
			<title>vbs
VBS</title>
			<polygon class="vbs
VBS" points="2269,25 2305,25 2305,10 2335,40 2305,70 2305,55 2269,55" fill="rgb(255,255,255)" fill-opacity="1.0" stroke="rgb(0,0,0)" stroke-width="2"  />
			<g>
				<title>GMC_oxred_N (PF00732)
"GMC oxidoreductase"</title>
				<rect class="PF00732" x="2276" y="28" stroke-linejoin="round" width="31" height="24" fill="rgb(180,89,214)" stroke="rgb(143,71,171)" stroke-width="1" opacity="0.75" />
			</g>
			<g>
				<title>GMC_oxred_C (PF05199)
"GMC oxidoreductase"</title>
				<polygon class="PF05199" points="2318,28 2318,28 2330,40 2318,52 2318,52" stroke-linejoin="round" width="13" height="24" fill="rgb(186,52,106)" stroke="rgb(148,41,84)" stroke-width="1" opacity="0.75" />
			</g>
		</g>
		<g>
			<title>cypX
CypX</title>
			<polygon class="cypX
CypX" points="2409,25 2385,25 2385,10 2355,40 2385,70 2385,55 2409,55" fill="rgb(255,255,255)" fill-opacity="1.0" stroke="rgb(0,0,0)" stroke-width="2"  />
			<g>
				<title>p450 (PF00067)
"Cytochrome P450"</title>
				<polygon class="PF00067" points="2360,39 2371,28 2404,28 2404,52 2371,52 2360,41" stroke-linejoin="round" width="44" height="24" fill="rgb(85,216,107)" stroke="rgb(68,172,85)" stroke-width="1" opacity="0.75" />
			</g>
		</g>
		<g>
			<title>moxY
MoxY</title>
			<polygon class="moxY
MoxY" points="2430,25 2458,25 2458,10 2488,40 2458,70 2458,55 2430,55" fill="rgb(255,255,255)" fill-opacity="1.0" stroke="rgb(0,0,0)" stroke-width="2"  />
			<g>
				<title>FMO-like (PF00743)
"Flavin-binding monooxygenase-like"</title>
				<rect class="PF00743" x="2430" y="28" stroke-linejoin="round" width="22" height="24" fill="rgb(203,74,151)" stroke="rgb(162,59,120)" stroke-width="1" opacity="0.75" />
			</g>
		</g>
		<g>
			<title>ordB
OrdB</title>
			<polygon class="ordB
OrdB" points="2497,40 2523,10 2523,70" fill="rgb(255,255,255)" fill-opacity="1.0" stroke="rgb(0,0,0)" stroke-width="2"  />
			<g>
				<title>NAD_binding_10 (PF13460)
"NAD(P)H-binding"</title>
				<polygon class="PF13460" points="2502,39 2512,28 2522,28 2522,52 2512,52 2502,41" stroke-linejoin="round" width="20" height="24" fill="rgb(188,201,78)" stroke="rgb(150,160,62)" stroke-width="1" opacity="0.75" />
			</g>
		</g>
		<g>
			<title>hypA
hypothetical protein</title>
			<polygon class="hypA
hypothetical protein" points="2589,25 2566,25 2566,10 2536,40 2566,70 2566,55 2589,55" fill="rgb(255,255,255)" fill-opacity="1.0" stroke="rgb(0,0,0)" stroke-width="2"  />
			<g>
				<title>Questin_oxidase (PF14027)
"Questin oxidase-like"</title>
				<polygon class="PF14027" points="2549,31 2552,28 2582,28 2582,52 2552,52 2549,49" stroke-linejoin="round" width="33" height="24" fill="rgb(77,150,178)" stroke="rgb(61,119,142)" stroke-width="1" opacity="0.75" />
			</g>
		</g>
	</g>
</svg>
