<svg version="1.1" baseProfile="full" xmlns="http://www.w3.org/2000/svg" width="2487.5666666666666" height="80">
	<g>
		<line x1="10" y1="40.0" x2="2477.5666666666666" y2="40.0" style="stroke:rgb(70,70,70); stroke-width:3 "/>
		<g>
			<title>
peptidoglycan binding protein</title>
			<polygon class="
peptidoglycan binding protein" points="14,25 63,25 63,10 93,40 63,70 63,55 14,55" fill="rgb(255,255,255)" fill-opacity="1.0" stroke="rgb(0,0,0)" stroke-width="2"  />
			<g>
				<title>DUF1906 (PF08924)
"Domain of unknown function (DUF1906)"</title>
				<rect class="PF08924" x="36" y="28" stroke-linejoin="round" width="20" height="24" fill="rgb(179,135,79)" stroke="rgb(143,108,63)" stroke-width="1" opacity="0.75" />
			</g>
		</g>
		<g>
			<title>
putative peptidoglycan binding protein</title>
			<polygon class="
putative peptidoglycan binding protein" points="96,25 116,25 116,10 146,40 116,70 116,55 96,55" fill="rgb(255,255,255)" fill-opacity="1.0" stroke="rgb(0,0,0)" stroke-width="2"  />
		</g>
		<g>
			<title>
glycoside hydrolase</title>
			<polygon class="
glycoside hydrolase" points="216,25 181,25 181,10 151,40 181,70 181,55 216,55" fill="rgb(255,255,255)" fill-opacity="1.0" stroke="rgb(0,0,0)" stroke-width="2"  />
			<g>
				<title>Cellulase (PF00150)
"Cellulase (glycosyl hydrolase family 5)"</title>
				<rect class="PF00150" x="174" y="28" stroke-linejoin="round" width="32" height="24" fill="rgb(189,82,188)" stroke="rgb(151,65,150)" stroke-width="1" opacity="0.75" />
			</g>
		</g>
		<g>
			<title>
esterase LipW</title>
			<polygon class="
esterase LipW" points="258,25 254,25 254,10 224,40 254,70 254,55 258,55" fill="rgb(255,255,255)" fill-opacity="1.0" stroke="rgb(0,0,0)" stroke-width="2"  />
			<g>
				<title>Abhydrolase_3 (PF07859)
"alpha/beta hydrolase fold"</title>
				<polygon class="PF07859" points="228,40 240,28 247,28 247,52 240,52" stroke-linejoin="round" width="21" height="24" fill="rgb(183,51,179)" stroke="rgb(146,40,143)" stroke-width="1" opacity="0.75" />
			</g>
		</g>
		<g>
			<title>
alkaline D-peptidase</title>
			<polygon class="
alkaline D-peptidase" points="267,25 281,25 281,10 311,40 281,70 281,55 267,55" fill="rgb(255,255,255)" fill-opacity="1.0" stroke="rgb(0,0,0)" stroke-width="2"  />
			<g>
				<title>Beta-lactamase (PF00144)
"Beta-lactamase"</title>
				<polygon class="PF00144" points="271,28 295,28 307,40 307,40 295,52 271,52" stroke-linejoin="round" width="36" height="24" fill="rgb(92,159,200)" stroke="rgb(73,127,160)" stroke-width="1" opacity="0.75" />
			</g>
		</g>
		<g>
			<title>
hypothetical protein</title>
			<polygon class="
hypothetical protein" points="318,10 343,40 318,70" fill="rgb(255,255,255)" fill-opacity="1.0" stroke="rgb(0,0,0)" stroke-width="2"  />
			<g>
				<title>MDMPI_N (PF11716)
"Mycothiol maleylpyruvate isomerase N-terminal domain"</title>
				<polygon class="PF11716" points="318,28 329,28 330,29 330,51 329,52 318,52" stroke-linejoin="round" width="12" height="24" fill="rgb(214,107,221)" stroke="rgb(171,85,176)" stroke-width="1" opacity="0.75" />
			</g>
			<g>
				<title>MDMPI_C (PF07398)
"MDMPI C-terminal domain"</title>
				<polygon class="PF07398" points="332,32 339,40 332,48" stroke-linejoin="round" width="10" height="24" fill="rgb(69,145,202)" stroke="rgb(55,115,161)" stroke-width="1" opacity="0.75" />
			</g>
		</g>
		<g>
			<title>
SAM-dependent methlyltransferase</title>
			<polygon class="
SAM-dependent methlyltransferase" points="349,40 378,10 378,70" fill="rgb(255,255,255)" fill-opacity="1.0" stroke="rgb(0,0,0)" stroke-width="2"  />
			<g>
				<title>CMAS (PF02353)
"Mycolic acid cyclopropane synthetase"</title>
				<polygon class="PF02353" points="356,37 365,28 372,28 372,52 365,52 356,43" stroke-linejoin="round" width="16" height="24" fill="rgb(56,174,188)" stroke="rgb(44,139,150)" stroke-width="1" opacity="0.75" />
			</g>
		</g>
		<g>
			<title>
2-methylisoborneol synthase</title>
			<polygon class="
2-methylisoborneol synthase" points="414,25 409,25 409,10 379,40 409,70 409,55 414,55" fill="rgb(255,255,255)" fill-opacity="1.0" stroke="rgb(0,0,0)" stroke-width="2"  />
			<g>
				<title>Terpene_syn_C_2 (PF19086)
"Terpene synthase family 2, C-terminal metal binding"</title>
				<polygon class="PF19086" points="383,40 395,28 403,28 403,52 395,52 383,40" stroke-linejoin="round" width="20" height="24" fill="rgb(55,207,154)" stroke="rgb(43,165,123)" stroke-width="1" opacity="0.75" />
			</g>
		</g>
		<g>
			<title>
hypothetical protein</title>
			<polygon class="
hypothetical protein" points="430,40 449,10 449,70" fill="rgb(255,255,255)" fill-opacity="1.0" stroke="rgb(0,0,0)" stroke-width="2"  />
		</g>
		<g>
			<title>
ebeA-type I polyketide synthase KSQ-ATa-ACP</title>
			<polygon class="
ebeA-type I polyketide synthase KSQ-ATa-ACP" points="472,25 547,25 547,10 577,40 547,70 547,55 472,55" fill="rgb(255,255,255)" fill-opacity="1.0" stroke="rgb(0,0,0)" stroke-width="2"  />
			<g>
				<title>ketoacyl-synt (PF00109)
"Beta-ketoacyl synthase, N-terminal domain"</title>
				<rect class="PF00109" x="472" y="28" stroke-linejoin="round" width="20" height="24" fill="rgb(112,116,228)" stroke="rgb(89,92,182)" stroke-width="1" opacity="0.75" />
			</g>
			<g>
				<title>Ketoacyl-synt_C (PF02801)
"Beta-ketoacyl synthase, C-terminal domain"</title>
				<rect class="PF02801" x="493" y="28" stroke-linejoin="round" width="11" height="24" fill="rgb(215,78,102)" stroke="rgb(172,62,81)" stroke-width="1" opacity="0.75" />
			</g>
			<g>
				<title>KAsynt_C_assoc (PF16197)
"Ketoacyl-synthetase C-terminal extension"</title>
				<rect class="PF16197" x="505" y="28" stroke-linejoin="round" width="11" height="24" fill="rgb(240,150,172)" stroke="rgb(192,120,137)" stroke-width="1" opacity="0.75" />
			</g>
			<g>
				<title>Acyl_transf_1 (PF00698)
"Acyl transferase domain"</title>
				<rect class="PF00698" x="520" y="28" stroke-linejoin="round" width="33" height="24" fill="rgb(59,176,209)" stroke="rgb(47,140,167)" stroke-width="1" opacity="0.75" />
			</g>
			<g>
				<title>PP-binding (PF00550)
"Phosphopantetheine attachment site"</title>
				<polygon class="PF00550" points="562,29 568,35 568,45 562,51" stroke-linejoin="round" width="6" height="24" fill="rgb(103,191,88)" stroke="rgb(82,152,70)" stroke-width="1" opacity="0.75" />
			</g>
		</g>
		<g>
			<title>
EbeB-type I polyketide synthase</title>
			<polygon class="
EbeB-type I polyketide synthase" points="579,25 769,25 769,10 799,40 769,70 769,55 579,55" fill="rgb(255,255,255)" fill-opacity="1.0" stroke="rgb(0,0,0)" stroke-width="2"  />
			<g>
				<title>Docking (PF08990)
"Erythronolide synthase docking domain"</title>
				<rect class="PF08990" x="579" y="28" stroke-linejoin="round" width="2" height="24" fill="rgb(180,75,55)" stroke="rgb(144,60,44)" stroke-width="1" opacity="0.75" />
			</g>
			<g>
				<title>ketoacyl-synt (PF00109)
"Beta-ketoacyl synthase, N-terminal domain"</title>
				<rect class="PF00109" x="582" y="28" stroke-linejoin="round" width="25" height="24" fill="rgb(112,116,228)" stroke="rgb(89,92,182)" stroke-width="1" opacity="0.75" />
			</g>
			<g>
				<title>Ketoacyl-synt_C (PF02801)
"Beta-ketoacyl synthase, C-terminal domain"</title>
				<rect class="PF02801" x="608" y="28" stroke-linejoin="round" width="11" height="24" fill="rgb(215,78,102)" stroke="rgb(172,62,81)" stroke-width="1" opacity="0.75" />
			</g>
			<g>
				<title>KAsynt_C_assoc (PF16197)
"Ketoacyl-synthetase C-terminal extension"</title>
				<rect class="PF16197" x="620" y="28" stroke-linejoin="round" width="12" height="24" fill="rgb(240,150,172)" stroke="rgb(192,120,137)" stroke-width="1" opacity="0.75" />
			</g>
			<g>
				<title>Acyl_transf_1 (PF00698)
"Acyl transferase domain"</title>
				<rect class="PF00698" x="636" y="28" stroke-linejoin="round" width="31" height="24" fill="rgb(59,176,209)" stroke="rgb(47,140,167)" stroke-width="1" opacity="0.75" />
			</g>
			<g>
				<title>PS-DH (PF14765)
"Polyketide synthase dehydratase"</title>
				<rect class="PF14765" x="672" y="28" stroke-linejoin="round" width="28" height="24" fill="rgb(173,56,182)" stroke="rgb(138,44,145)" stroke-width="1" opacity="0.75" />
			</g>
			<g>
				<title>ADH_zinc_N_2 (PF13602)
"Zinc-binding dehydrogenase"</title>
				<rect class="PF13602" x="739" y="28" stroke-linejoin="round" width="13" height="24" fill="rgb(101,131,226)" stroke="rgb(80,104,180)" stroke-width="1" opacity="0.75" />
			</g>
			<g>
				<title>KR (PF08659)
"KR domain"</title>
				<rect class="PF08659" x="754" y="28" stroke-linejoin="round" width="17" height="24" fill="rgb(66,209,188)" stroke="rgb(52,167,150)" stroke-width="1" opacity="0.75" />
			</g>
			<g>
				<title>PP-binding (PF00550)
"Phosphopantetheine attachment site"</title>
				<polygon class="PF00550" points="783,28 783,28 789,34 789,46 783,52 783,52" stroke-linejoin="round" width="6" height="24" fill="rgb(103,191,88)" stroke="rgb(82,152,70)" stroke-width="1" opacity="0.75" />
			</g>
		</g>
		<g>
			<title>
ebeC-type I polyketide synthase</title>
			<polygon class="
ebeC-type I polyketide synthase" points="805,25 1081,25 1081,10 1111,40 1081,70 1081,55 805,55" fill="rgb(255,255,255)" fill-opacity="1.0" stroke="rgb(0,0,0)" stroke-width="2"  />
			<g>
				<title>Docking (PF08990)
"Erythronolide synthase docking domain"</title>
				<rect class="PF08990" x="805" y="28" stroke-linejoin="round" width="2" height="24" fill="rgb(180,75,55)" stroke="rgb(144,60,44)" stroke-width="1" opacity="0.75" />
			</g>
			<g>
				<title>ketoacyl-synt (PF00109)
"Beta-ketoacyl synthase, N-terminal domain"</title>
				<rect class="PF00109" x="808" y="28" stroke-linejoin="round" width="25" height="24" fill="rgb(112,116,228)" stroke="rgb(89,92,182)" stroke-width="1" opacity="0.75" />
			</g>
			<g>
				<title>Ketoacyl-synt_C (PF02801)
"Beta-ketoacyl synthase, C-terminal domain"</title>
				<rect class="PF02801" x="834" y="28" stroke-linejoin="round" width="11" height="24" fill="rgb(215,78,102)" stroke="rgb(172,62,81)" stroke-width="1" opacity="0.75" />
			</g>
			<g>
				<title>KAsynt_C_assoc (PF16197)
"Ketoacyl-synthetase C-terminal extension"</title>
				<rect class="PF16197" x="846" y="28" stroke-linejoin="round" width="11" height="24" fill="rgb(240,150,172)" stroke="rgb(192,120,137)" stroke-width="1" opacity="0.75" />
			</g>
			<g>
				<title>Acyl_transf_1 (PF00698)
"Acyl transferase domain"</title>
				<rect class="PF00698" x="861" y="28" stroke-linejoin="round" width="32" height="24" fill="rgb(59,176,209)" stroke="rgb(47,140,167)" stroke-width="1" opacity="0.75" />
			</g>
			<g>
				<title>KR (PF08659)
"KR domain"</title>
				<rect class="PF08659" x="919" y="28" stroke-linejoin="round" width="17" height="24" fill="rgb(66,209,188)" stroke="rgb(52,167,150)" stroke-width="1" opacity="0.75" />
			</g>
			<g>
				<title>PP-binding (PF00550)
"Phosphopantetheine attachment site"</title>
				<rect class="PF00550" x="947" y="28" stroke-linejoin="round" width="6" height="24" fill="rgb(103,191,88)" stroke="rgb(82,152,70)" stroke-width="1" opacity="0.75" />
			</g>
			<g>
				<title>ketoacyl-synt (PF00109)
"Beta-ketoacyl synthase, N-terminal domain"</title>
				<rect class="PF00109" x="956" y="28" stroke-linejoin="round" width="25" height="24" fill="rgb(112,116,228)" stroke="rgb(89,92,182)" stroke-width="1" opacity="0.75" />
			</g>
			<g>
				<title>Ketoacyl-synt_C (PF02801)
"Beta-ketoacyl synthase, C-terminal domain"</title>
				<rect class="PF02801" x="982" y="28" stroke-linejoin="round" width="11" height="24" fill="rgb(215,78,102)" stroke="rgb(172,62,81)" stroke-width="1" opacity="0.75" />
			</g>
			<g>
				<title>KAsynt_C_assoc (PF16197)
"Ketoacyl-synthetase C-terminal extension"</title>
				<rect class="PF16197" x="994" y="28" stroke-linejoin="round" width="11" height="24" fill="rgb(240,150,172)" stroke="rgb(192,120,137)" stroke-width="1" opacity="0.75" />
			</g>
			<g>
				<title>Acyl_transf_1 (PF00698)
"Acyl transferase domain"</title>
				<rect class="PF00698" x="1009" y="28" stroke-linejoin="round" width="32" height="24" fill="rgb(59,176,209)" stroke="rgb(47,140,167)" stroke-width="1" opacity="0.75" />
			</g>
			<g>
				<title>KR (PF08659)
"KR domain"</title>
				<rect class="PF08659" x="1067" y="28" stroke-linejoin="round" width="17" height="24" fill="rgb(66,209,188)" stroke="rgb(52,167,150)" stroke-width="1" opacity="0.75" />
			</g>
			<g>
				<title>PP-binding (PF00550)
"Phosphopantetheine attachment site"</title>
				<polygon class="PF00550" points="1095,28 1095,28 1101,34 1101,46 1095,52 1095,52" stroke-linejoin="round" width="6" height="24" fill="rgb(103,191,88)" stroke="rgb(82,152,70)" stroke-width="1" opacity="0.75" />
			</g>
		</g>
		<g>
			<title>
ebeD-type I polyketide synthase</title>
			<polygon class="
ebeD-type I polyketide synthase" points="1111,25 1474,25 1474,10 1504,40 1474,70 1474,55 1111,55" fill="rgb(255,255,255)" fill-opacity="1.0" stroke="rgb(0,0,0)" stroke-width="2"  />
			<g>
				<title>Docking (PF08990)
"Erythronolide synthase docking domain"</title>
				<rect class="PF08990" x="1111" y="28" stroke-linejoin="round" width="2" height="24" fill="rgb(180,75,55)" stroke="rgb(144,60,44)" stroke-width="1" opacity="0.75" />
			</g>
			<g>
				<title>ketoacyl-synt (PF00109)
"Beta-ketoacyl synthase, N-terminal domain"</title>
				<rect class="PF00109" x="1114" y="28" stroke-linejoin="round" width="25" height="24" fill="rgb(112,116,228)" stroke="rgb(89,92,182)" stroke-width="1" opacity="0.75" />
			</g>
			<g>
				<title>Ketoacyl-synt_C (PF02801)
"Beta-ketoacyl synthase, C-terminal domain"</title>
				<rect class="PF02801" x="1140" y="28" stroke-linejoin="round" width="11" height="24" fill="rgb(215,78,102)" stroke="rgb(172,62,81)" stroke-width="1" opacity="0.75" />
			</g>
			<g>
				<title>KAsynt_C_assoc (PF16197)
"Ketoacyl-synthetase C-terminal extension"</title>
				<rect class="PF16197" x="1152" y="28" stroke-linejoin="round" width="12" height="24" fill="rgb(240,150,172)" stroke="rgb(192,120,137)" stroke-width="1" opacity="0.75" />
			</g>
			<g>
				<title>Acyl_transf_1 (PF00698)
"Acyl transferase domain"</title>
				<rect class="PF00698" x="1168" y="28" stroke-linejoin="round" width="31" height="24" fill="rgb(59,176,209)" stroke="rgb(47,140,167)" stroke-width="1" opacity="0.75" />
			</g>
			<g>
				<title>PS-DH (PF14765)
"Polyketide synthase dehydratase"</title>
				<rect class="PF14765" x="1205" y="28" stroke-linejoin="round" width="28" height="24" fill="rgb(173,56,182)" stroke="rgb(138,44,145)" stroke-width="1" opacity="0.75" />
			</g>
			<g>
				<title>KR (PF08659)
"KR domain"</title>
				<rect class="PF08659" x="1254" y="28" stroke-linejoin="round" width="17" height="24" fill="rgb(66,209,188)" stroke="rgb(52,167,150)" stroke-width="1" opacity="0.75" />
			</g>
			<g>
				<title>PP-binding (PF00550)
"Phosphopantetheine attachment site"</title>
				<rect class="PF00550" x="1282" y="28" stroke-linejoin="round" width="6" height="24" fill="rgb(103,191,88)" stroke="rgb(82,152,70)" stroke-width="1" opacity="0.75" />
			</g>
			<g>
				<title>ketoacyl-synt (PF00109)
"Beta-ketoacyl synthase, N-terminal domain"</title>
				<rect class="PF00109" x="1291" y="28" stroke-linejoin="round" width="25" height="24" fill="rgb(112,116,228)" stroke="rgb(89,92,182)" stroke-width="1" opacity="0.75" />
			</g>
			<g>
				<title>Ketoacyl-synt_C (PF02801)
"Beta-ketoacyl synthase, C-terminal domain"</title>
				<rect class="PF02801" x="1317" y="28" stroke-linejoin="round" width="11" height="24" fill="rgb(215,78,102)" stroke="rgb(172,62,81)" stroke-width="1" opacity="0.75" />
			</g>
			<g>
				<title>KAsynt_C_assoc (PF16197)
"Ketoacyl-synthetase C-terminal extension"</title>
				<rect class="PF16197" x="1329" y="28" stroke-linejoin="round" width="11" height="24" fill="rgb(240,150,172)" stroke="rgb(192,120,137)" stroke-width="1" opacity="0.75" />
			</g>
			<g>
				<title>Acyl_transf_1 (PF00698)
"Acyl transferase domain"</title>
				<rect class="PF00698" x="1344" y="28" stroke-linejoin="round" width="31" height="24" fill="rgb(59,176,209)" stroke="rgb(47,140,167)" stroke-width="1" opacity="0.75" />
			</g>
			<g>
				<title>PS-DH (PF14765)
"Polyketide synthase dehydratase"</title>
				<rect class="PF14765" x="1381" y="28" stroke-linejoin="round" width="27" height="24" fill="rgb(173,56,182)" stroke="rgb(138,44,145)" stroke-width="1" opacity="0.75" />
			</g>
			<g>
				<title>ADH_zinc_N_2 (PF13602)
"Zinc-binding dehydrogenase"</title>
				<rect class="PF13602" x="1443" y="28" stroke-linejoin="round" width="13" height="24" fill="rgb(101,131,226)" stroke="rgb(80,104,180)" stroke-width="1" opacity="0.75" />
			</g>
			<g>
				<title>KR (PF08659)
"KR domain"</title>
				<rect class="PF08659" x="1457" y="28" stroke-linejoin="round" width="17" height="24" fill="rgb(66,209,188)" stroke="rgb(52,167,150)" stroke-width="1" opacity="0.75" />
			</g>
			<g>
				<title>PP-binding (PF00550)
"Phosphopantetheine attachment site"</title>
				<polygon class="PF00550" points="1486,28 1488,28 1492,32 1492,48 1488,52 1486,52" stroke-linejoin="round" width="6" height="24" fill="rgb(103,191,88)" stroke="rgb(82,152,70)" stroke-width="1" opacity="0.75" />
			</g>
		</g>
		<g>
			<title>
ebeE-type I polyketide synthase</title>
			<polygon class="
ebeE-type I polyketide synthase" points="1508,25 1695,25 1695,10 1725,40 1695,70 1695,55 1508,55" fill="rgb(255,255,255)" fill-opacity="1.0" stroke="rgb(0,0,0)" stroke-width="2"  />
			<g>
				<title>Docking (PF08990)
"Erythronolide synthase docking domain"</title>
				<rect class="PF08990" x="1508" y="28" stroke-linejoin="round" width="2" height="24" fill="rgb(180,75,55)" stroke="rgb(144,60,44)" stroke-width="1" opacity="0.75" />
			</g>
			<g>
				<title>ketoacyl-synt (PF00109)
"Beta-ketoacyl synthase, N-terminal domain"</title>
				<rect class="PF00109" x="1511" y="28" stroke-linejoin="round" width="25" height="24" fill="rgb(112,116,228)" stroke="rgb(89,92,182)" stroke-width="1" opacity="0.75" />
			</g>
			<g>
				<title>Ketoacyl-synt_C (PF02801)
"Beta-ketoacyl synthase, C-terminal domain"</title>
				<rect class="PF02801" x="1537" y="28" stroke-linejoin="round" width="11" height="24" fill="rgb(215,78,102)" stroke="rgb(172,62,81)" stroke-width="1" opacity="0.75" />
			</g>
			<g>
				<title>KAsynt_C_assoc (PF16197)
"Ketoacyl-synthetase C-terminal extension"</title>
				<rect class="PF16197" x="1549" y="28" stroke-linejoin="round" width="11" height="24" fill="rgb(240,150,172)" stroke="rgb(192,120,137)" stroke-width="1" opacity="0.75" />
			</g>
			<g>
				<title>Acyl_transf_1 (PF00698)
"Acyl transferase domain"</title>
				<rect class="PF00698" x="1564" y="28" stroke-linejoin="round" width="31" height="24" fill="rgb(59,176,209)" stroke="rgb(47,140,167)" stroke-width="1" opacity="0.75" />
			</g>
			<g>
				<title>PKS_DE (PF18369)
"Polyketide synthase dimerisation element domain"</title>
				<rect class="PF18369" x="1600" y="28" stroke-linejoin="round" width="4" height="24" fill="rgb(192,179,67)" stroke="rgb(153,143,53)" stroke-width="1" opacity="0.75" />
			</g>
			<g>
				<title>KR (PF08659)
"KR domain"</title>
				<rect class="PF08659" x="1628" y="28" stroke-linejoin="round" width="17" height="24" fill="rgb(66,209,188)" stroke="rgb(52,167,150)" stroke-width="1" opacity="0.75" />
			</g>
			<g>
				<title>PP-binding (PF00550)
"Phosphopantetheine attachment site"</title>
				<rect class="PF00550" x="1657" y="28" stroke-linejoin="round" width="6" height="24" fill="rgb(103,191,88)" stroke="rgb(82,152,70)" stroke-width="1" opacity="0.75" />
			</g>
			<g>
				<title>ketoacyl-synt (PF00109)
"Beta-ketoacyl synthase, N-terminal domain"</title>
				<rect class="PF00109" x="1667" y="28" stroke-linejoin="round" width="25" height="24" fill="rgb(112,116,228)" stroke="rgb(89,92,182)" stroke-width="1" opacity="0.75" />
			</g>
			<g>
				<title>Ketoacyl-synt_C (PF02801)
"Beta-ketoacyl synthase, C-terminal domain"</title>
				<rect class="PF02801" x="1692" y="28" stroke-linejoin="round" width="11" height="24" fill="rgb(215,78,102)" stroke="rgb(172,62,81)" stroke-width="1" opacity="0.75" />
			</g>
			<g>
				<title>KAsynt_C_assoc (PF16197)
"Ketoacyl-synthetase C-terminal extension"</title>
				<polygon class="PF16197" points="1704,28 1709,28 1716,35 1716,45 1709,52 1704,52" stroke-linejoin="round" width="12" height="24" fill="rgb(240,150,172)" stroke="rgb(192,120,137)" stroke-width="1" opacity="0.75" />
			</g>
		</g>
		<g>
			<title>
Orf1 putative non-ribosomal peptide synthetase</title>
			<polygon class="
Orf1 putative non-ribosomal peptide synthetase" points="1784,25 1758,25 1758,10 1728,40 1758,70 1758,55 1784,55" fill="rgb(255,255,255)" fill-opacity="1.0" stroke="rgb(0,0,0)" stroke-width="2"  />
			<g>
				<title>AMP-binding (PF00501)
"AMP-binding enzyme"</title>
				<polygon class="PF00501" points="1738,34 1744,28 1781,28 1781,52 1744,52 1738,46" stroke-linejoin="round" width="43" height="24" fill="rgb(60,217,223)" stroke="rgb(48,173,178)" stroke-width="1" opacity="0.75" />
			</g>
		</g>
		<g>
			<title>
short-chain alcohol dehydrogenase</title>
			<polygon class="
short-chain alcohol dehydrogenase" points="1801,10 1830,40 1801,70" fill="rgb(255,255,255)" fill-opacity="1.0" stroke="rgb(0,0,0)" stroke-width="2"  />
			<g>
				<title>adh_short (PF00106)
"short chain dehydrogenase"</title>
				<polygon class="PF00106" points="1802,28 1814,28 1821,35 1821,45 1814,52 1802,52" stroke-linejoin="round" width="19" height="24" fill="rgb(182,219,73)" stroke="rgb(145,175,58)" stroke-width="1" opacity="0.75" />
			</g>
		</g>
		<g>
			<title>
esterase</title>
			<polygon class="
esterase" points="1831,40 1857,10 1857,70" fill="rgb(255,255,255)" fill-opacity="1.0" stroke="rgb(0,0,0)" stroke-width="2"  />
			<g>
				<title>Hydrolase_4 (PF12146)
"Serine aminopeptidase, S33"</title>
				<polygon class="PF12146" points="1842,32 1846,28 1854,28 1854,52 1846,52 1842,48" stroke-linejoin="round" width="12" height="24" fill="rgb(140,98,205)" stroke="rgb(112,78,164)" stroke-width="1" opacity="0.75" />
			</g>
		</g>
		<g>
			<title>
hypothetical protein</title>
			<polygon class="
hypothetical protein" points="1862,40 1873,10 1873,70" fill="rgb(255,255,255)" fill-opacity="1.0" stroke="rgb(0,0,0)" stroke-width="2"  />
			<g>
				<title>DUF6401 (PF19939)
"Family of unknown function (DUF6401)"</title>
				<polygon class="PF19939" points="1865,40 1869,30 1869,50" stroke-linejoin="round" width="7" height="24" fill="rgb(226,193,91)" stroke="rgb(180,154,72)" stroke-width="1" opacity="0.75" />
			</g>
		</g>
		<g>
			<title>
F420-dependent oxidoreductase</title>
			<polygon class="
F420-dependent oxidoreductase" points="1880,25 1880,25 1880,10 1910,40 1880,70 1880,55 1880,55" fill="rgb(255,255,255)" fill-opacity="1.0" stroke="rgb(0,0,0)" stroke-width="2"  />
			<g>
				<title>Bac_luciferase (PF00296)
"Luciferase-like monooxygenase"</title>
				<polygon class="PF00296" points="1880,28 1894,28 1905,39 1905,41 1894,52 1880,52" stroke-linejoin="round" width="25" height="24" fill="rgb(180,112,78)" stroke="rgb(144,89,62)" stroke-width="1" opacity="0.75" />
			</g>
		</g>
		<g>
			<title>
ATP/GTP-binding protein</title>
			<polygon class="
ATP/GTP-binding protein" points="1921,10 1944,40 1921,70" fill="rgb(255,255,255)" fill-opacity="1.0" stroke="rgb(0,0,0)" stroke-width="2"  />
		</g>
		<g>
			<title>
metalloprotease MEP1-like protein</title>
			<polygon class="
metalloprotease MEP1-like protein" points="1954,25 1958,25 1958,10 1988,40 1958,70 1958,55 1954,55" fill="rgb(255,255,255)" fill-opacity="1.0" stroke="rgb(0,0,0)" stroke-width="2"  />
			<g>
				<title>Peptidase_M43 (PF05572)
"Pregnancy-associated plasma protein-A"</title>
				<polygon class="PF05572" points="1974,31 1983,40 1974,49" stroke-linejoin="round" width="13" height="24" fill="rgb(214,95,186)" stroke="rgb(171,76,148)" stroke-width="1" opacity="0.75" />
			</g>
		</g>
		<g>
			<title>
universal stress protein UspA</title>
			<polygon class="
universal stress protein UspA" points="1997,10 2012,40 1997,70" fill="rgb(255,255,255)" fill-opacity="1.0" stroke="rgb(0,0,0)" stroke-width="2"  />
			<g>
				<title>Usp (PF00582)
"Universal stress protein family"</title>
				<polygon class="PF00582" points="1997,28 2002,28 2009,40 2002,52 1997,52" stroke-linejoin="round" width="13" height="24" fill="rgb(129,199,88)" stroke="rgb(103,159,70)" stroke-width="1" opacity="0.75" />
			</g>
		</g>
		<g>
			<title>
cold-shock DNA-binding protein</title>
			<polygon class="
cold-shock DNA-binding protein" points="2017,10 2024,40 2017,70" fill="rgb(255,255,255)" fill-opacity="1.0" stroke="rgb(0,0,0)" stroke-width="2"  />
			<g>
				<title>CSD (PF00313)
"'Cold-shock' DNA-binding domain"</title>
				<polygon class="PF00313" points="2017,28 2017,28 2021,40 2017,52 2017,52" stroke-linejoin="round" width="6" height="24" fill="rgb(87,72,181)" stroke="rgb(69,57,144)" stroke-width="1" opacity="0.75" />
			</g>
		</g>
		<g>
			<title>
DNA glycosylase</title>
			<polygon class="
DNA glycosylase" points="2026,10 2054,40 2026,70" fill="rgb(255,255,255)" fill-opacity="1.0" stroke="rgb(0,0,0)" stroke-width="2"  />
			<g>
				<title>Fapy_DNA_glyco (PF01149)
"Formamidopyrimidine-DNA glycosylase N-terminal domain"</title>
				<rect class="PF01149" x="2026" y="28" stroke-linejoin="round" width="12" height="24" fill="rgb(124,229,81)" stroke="rgb(99,183,64)" stroke-width="1" opacity="0.75" />
			</g>
			<g>
				<title>H2TH (PF06831)
"Formamidopyrimidine-DNA glycosylase H2TH domain"</title>
				<polygon class="PF06831" points="2038,28 2038,28 2046,36 2046,44 2038,52 2038,52" stroke-linejoin="round" width="8" height="24" fill="rgb(57,227,194)" stroke="rgb(45,181,155)" stroke-width="1" opacity="0.75" />
			</g>
		</g>
		<g>
			<title>
uridine kinase</title>
			<polygon class="
uridine kinase" points="2053,40 2074,10 2074,70" fill="rgb(255,255,255)" fill-opacity="1.0" stroke="rgb(0,0,0)" stroke-width="2"  />
		</g>
		<g>
			<title>
hypothetical protein</title>
			<polygon class="
hypothetical protein" points="2120,25 2106,25 2106,10 2076,40 2106,70 2106,55 2120,55" fill="rgb(255,255,255)" fill-opacity="1.0" stroke="rgb(0,0,0)" stroke-width="2"  />
			<g>
				<title>PQQ_2 (PF13360)
"PQQ-like domain"</title>
				<polygon class="PF13360" points="2080,40 2092,28 2093,28 2093,52 2092,52" stroke-linejoin="round" width="17" height="24" fill="rgb(98,210,146)" stroke="rgb(78,168,116)" stroke-width="1" opacity="0.75" />
			</g>
		</g>
		<g>
			<title>
hypothetical protein</title>
			<polygon class="
hypothetical protein" points="2124,40 2135,10 2135,70" fill="rgb(255,255,255)" fill-opacity="1.0" stroke="rgb(0,0,0)" stroke-width="2"  />
			<g>
				<title>DUF4326 (PF14216)
"Domain of unknown function (DUF4326)"</title>
				<polygon class="PF14216" points="2127,40 2131,28 2132,28 2132,52 2131,52" stroke-linejoin="round" width="8" height="24" fill="rgb(79,196,132)" stroke="rgb(63,156,105)" stroke-width="1" opacity="0.75" />
			</g>
		</g>
		<g>
			<title>
putative serine phosphatase RsbU, regulator of sigma subunit</title>
			<polygon class="
putative serine phosphatase RsbU, regulator of sigma subunit" points="2141,25 2191,25 2191,10 2221,40 2191,70 2191,55 2141,55" fill="rgb(255,255,255)" fill-opacity="1.0" stroke="rgb(0,0,0)" stroke-width="2"  />
			<g>
				<title>GAF_2 (PF13185)
"GAF domain"</title>
				<rect class="PF13185" x="2141" y="28" stroke-linejoin="round" width="14" height="24" fill="rgb(158,189,90)" stroke="rgb(126,151,72)" stroke-width="1" opacity="0.75" />
			</g>
			<g>
				<title>PAS_3 (PF08447)
"PAS fold"</title>
				<rect class="PF08447" x="2159" y="28" stroke-linejoin="round" width="8" height="24" fill="rgb(222,97,193)" stroke="rgb(177,77,154)" stroke-width="1" opacity="0.75" />
			</g>
			<g>
				<title>PAS_4 (PF08448)
"PAS fold"</title>
				<rect class="PF08448" x="2170" y="28" stroke-linejoin="round" width="9" height="24" fill="rgb(50,90,192)" stroke="rgb(40,71,153)" stroke-width="1" opacity="0.75" />
			</g>
			<g>
				<title>GAF_2 (PF13185)
"GAF domain"</title>
				<rect class="PF13185" x="2183" y="28" stroke-linejoin="round" width="14" height="24" fill="rgb(158,189,90)" stroke="rgb(126,151,72)" stroke-width="1" opacity="0.75" />
			</g>
			<g>
				<title>SpoIIE (PF07228)
"Stage II sporulation protein E (SpoIIE)"</title>
				<polygon class="PF07228" points="2202,28 2205,28 2217,40 2205,52 2202,52" stroke-linejoin="round" width="19" height="24" fill="rgb(85,195,217)" stroke="rgb(68,155,173)" stroke-width="1" opacity="0.75" />
			</g>
		</g>
		<g>
			<title>
putative two-component system sensor kinase</title>
			<polygon class="
putative two-component system sensor kinase" points="2226,25 2252,25 2252,10 2282,40 2252,70 2252,55 2226,55" fill="rgb(255,255,255)" fill-opacity="1.0" stroke="rgb(0,0,0)" stroke-width="2"  />
			<g>
				<title>HisKA_3 (PF07730)
"Histidine kinase"</title>
				<rect class="PF07730" x="2245" y="28" stroke-linejoin="round" width="6" height="24" fill="rgb(190,53,146)" stroke="rgb(152,42,116)" stroke-width="1" opacity="0.75" />
			</g>
		</g>
		<g>
			<title>
LuxR family transcriptional regulator</title>
			<polygon class="
LuxR family transcriptional regulator" points="2286,10 2308,40 2286,70" fill="rgb(255,255,255)" fill-opacity="1.0" stroke="rgb(0,0,0)" stroke-width="2"  />
			<g>
				<title>Response_reg (PF00072)
"Response regulator receiver domain"</title>
				<polygon class="PF00072" points="2286,28 2295,28 2297,30 2297,50 2295,52 2286,52" stroke-linejoin="round" width="11" height="24" fill="rgb(100,107,203)" stroke="rgb(80,85,162)" stroke-width="1" opacity="0.75" />
			</g>
			<g>
				<title>GerE (PF00196)
"Bacterial regulatory proteins, luxR family"</title>
				<polygon class="PF00196" points="2301,36 2304,40 2301,44" stroke-linejoin="round" width="5" height="24" fill="rgb(219,94,82)" stroke="rgb(175,75,65)" stroke-width="1" opacity="0.75" />
			</g>
		</g>
		<g>
			<title>
AsnC family transcriptional regulator</title>
			<polygon class="
AsnC family transcriptional regulator" points="2312,40 2326,10 2326,70" fill="rgb(255,255,255)" fill-opacity="1.0" stroke="rgb(0,0,0)" stroke-width="2"  />
			<g>
				<title>AsnC_trans_reg (PF01037)
"Lrp/AsnC ligand binding domain"</title>
				<polygon class="PF01037" points="2315,40 2319,32 2319,48" stroke-linejoin="round" width="7" height="24" fill="rgb(134,72,182)" stroke="rgb(107,57,145)" stroke-width="1" opacity="0.75" />
			</g>
			<g>
				<title>HTH_AsnC-type (PF13404)
"AsnC-type helix-turn-helix domain"</title>
				<rect class="PF13404" x="2322" y="28" stroke-linejoin="round" width="4" height="24" fill="rgb(190,195,86)" stroke="rgb(152,156,68)" stroke-width="1" opacity="0.75" />
			</g>
		</g>
		<g>
			<title>
lysine exporter protein LysE</title>
			<polygon class="
lysine exporter protein LysE" points="2329,10 2350,40 2329,70" fill="rgb(255,255,255)" fill-opacity="1.0" stroke="rgb(0,0,0)" stroke-width="2"  />
			<g>
				<title>LysE (PF01810)
"LysE type translocator"</title>
				<polygon class="PF01810" points="2330,28 2338,28 2346,40 2338,52 2330,52" stroke-linejoin="round" width="18" height="24" fill="rgb(198,75,167)" stroke="rgb(158,60,133)" stroke-width="1" opacity="0.75" />
			</g>
		</g>
		<g>
			<title>
putative transglycosylase</title>
			<polygon class="
putative transglycosylase" points="2368,10 2394,40 2368,70" fill="rgb(255,255,255)" fill-opacity="1.0" stroke="rgb(0,0,0)" stroke-width="2"  />
			<g>
				<title>Transglycosylas (PF06737)
"Transglycosylase-like domain"</title>
				<rect class="PF06737" x="2372" y="28" stroke-linejoin="round" width="7" height="24" fill="rgb(206,100,217)" stroke="rgb(164,80,173)" stroke-width="1" opacity="0.75" />
			</g>
			<g>
				<title>LysM (PF01476)
"LysM domain"</title>
				<polygon class="PF01476" points="2389,39 2390,40 2389,41" stroke-linejoin="round" width="4" height="24" fill="rgb(200,86,203)" stroke="rgb(160,68,162)" stroke-width="1" opacity="0.75" />
			</g>
		</g>
		<g>
			<title>
ubiquinone biosynthesis methyltransferase UbiE</title>
			<polygon class="
ubiquinone biosynthesis methyltransferase UbiE" points="2396,10 2419,40 2396,70" fill="rgb(255,255,255)" fill-opacity="1.0" stroke="rgb(0,0,0)" stroke-width="2"  />
		</g>
		<g>
			<title>
short-chain dehydrogenase/reductase SDR</title>
			<polygon class="
short-chain dehydrogenase/reductase SDR" points="2423,10 2448,40 2423,70" fill="rgb(255,255,255)" fill-opacity="1.0" stroke="rgb(0,0,0)" stroke-width="2"  />
			<g>
				<title>adh_short_C2 (PF13561)
"Enoyl-(Acyl carrier protein) reductase"</title>
				<polygon class="PF13561" points="2424,28 2434,28 2444,40 2434,52 2424,52" stroke-linejoin="round" width="23" height="24" fill="rgb(73,205,127)" stroke="rgb(58,164,101)" stroke-width="1" opacity="0.75" />
			</g>
		</g>
		<g>
			<title>
putative ArsR family transcriptional regulator</title>
			<polygon class="
putative ArsR family transcriptional regulator" points="2454,10 2473,40 2454,70" fill="rgb(255,255,255)" fill-opacity="1.0" stroke="rgb(0,0,0)" stroke-width="2"  />
			<g>
				<title>MDMPI_N (PF11716)
"Mycothiol maleylpyruvate isomerase N-terminal domain"</title>
				<polygon class="PF11716" points="2455,28 2462,28 2467,36 2467,44 2462,52 2455,52" stroke-linejoin="round" width="12" height="24" fill="rgb(214,107,221)" stroke="rgb(171,85,176)" stroke-width="1" opacity="0.75" />
			</g>
		</g>
	</g>
</svg>
