<svg version="1.1" baseProfile="full" xmlns="http://www.w3.org/2000/svg" width="569.1666666666666" height="80">
	<g>
		<line x1="10" y1="40.0" x2="559.1666666666666" y2="40.0" style="stroke:rgb(70,70,70); stroke-width:3 "/>
		<g>
			<title> (VO63_13540)
diaminopimelate decarboxylase</title>
			<polygon class=" (VO63_13540)
diaminopimelate decarboxylase" points="54,25 40,25 40,10 10,40 40,70 40,55 54,55" fill="rgb(255,255,255)" fill-opacity="1.0" stroke="rgb(0,0,0)" stroke-width="2"  />
			<g>
				<title>Orn_Arg_deC_N (PF02784)
"Pyridoxal-dependent decarboxylase, pyridoxal binding domain"</title>
				<polygon class="PF02784" points="23,31 26,28 48,28 48,52 26,52 23,49" stroke-linejoin="round" width="25" height="24" fill="rgb(106,204,212)" stroke="rgb(84,163,169)" stroke-width="1" opacity="0.75" />
			</g>
		</g>
		<g>
			<title> (VO63_13550)
hypothetical protein</title>
			<polygon class=" (VO63_13550)
hypothetical protein" points="79,25 86,25 86,10 116,40 86,70 86,55 79,55" fill="rgb(255,255,255)" fill-opacity="1.0" stroke="rgb(0,0,0)" stroke-width="2"  />
		</g>
		<g>
			<title> (VO63_13555)
phosphoribosylanthranilate isomerase</title>
			<polygon class=" (VO63_13555)
phosphoribosylanthranilate isomerase" points="120,10 142,40 120,70" fill="rgb(255,255,255)" fill-opacity="1.0" stroke="rgb(0,0,0)" stroke-width="2"  />
			<g>
				<title>PRAI (PF00697)
"N-(5'phosphoribosyl)anthranilate (PRA) isomerase"</title>
				<polygon class="PF00697" points="120,28 129,28 138,40 129,52 120,52" stroke-linejoin="round" width="19" height="24" fill="rgb(123,74,199)" stroke="rgb(98,59,159)" stroke-width="1" opacity="0.75" />
			</g>
		</g>
		<g>
			<title> (VO63_13565)
MFS transporter</title>
			<polygon class=" (VO63_13565)
MFS transporter" points="222,25 206,25 206,10 176,40 206,70 206,55 222,55" fill="rgb(255,255,255)" fill-opacity="1.0" stroke="rgb(0,0,0)" stroke-width="2"  />
			<g>
				<title>MFS_1 (PF07690)
"Major Facilitator Superfamily"</title>
				<polygon class="PF07690" points="180,40 192,28 219,28 219,52 192,52 180,40" stroke-linejoin="round" width="39" height="24" fill="rgb(193,224,74)" stroke="rgb(154,179,59)" stroke-width="1" opacity="0.75" />
			</g>
		</g>
		<g>
			<title> (VO63_13575)
pseudouridine-5'-phosphate glycosidase</title>
			<polygon class=" (VO63_13575)
pseudouridine-5'-phosphate glycosidase" points="279,25 278,25 278,10 248,40 278,70 278,55 279,55" fill="rgb(255,255,255)" fill-opacity="1.0" stroke="rgb(0,0,0)" stroke-width="2"  />
			<g>
				<title>Indigoidine_A (PF04227)
"Indigoidine synthase A like protein"</title>
				<polygon class="PF04227" points="252,40 264,28 276,28 276,52 264,52" stroke-linejoin="round" width="28" height="24" fill="rgb(186,184,81)" stroke="rgb(148,147,64)" stroke-width="1" opacity="0.75" />
			</g>
		</g>
		<g>
			<title> (VO63_13580)
2-hydroxychromene-2-carboxylate isomerase</title>
			<polygon class=" (VO63_13580)
2-hydroxychromene-2-carboxylate isomerase" points="284,40 304,10 304,70" fill="rgb(255,255,255)" fill-opacity="1.0" stroke="rgb(0,0,0)" stroke-width="2"  />
			<g>
				<title>DSBA (PF01323)
"DSBA-like thioredoxin domain"</title>
				<polygon class="PF01323" points="288,40 296,28 303,28 303,52 296,52" stroke-linejoin="round" width="17" height="24" fill="rgb(221,114,99)" stroke="rgb(176,91,79)" stroke-width="1" opacity="0.75" />
			</g>
		</g>
		<g>
			<title> (VO63_13585)
deaminase</title>
			<polygon class=" (VO63_13585)
deaminase" points="308,40 324,10 324,70" fill="rgb(255,255,255)" fill-opacity="1.0" stroke="rgb(0,0,0)" stroke-width="2"  />
			<g>
				<title>dCMP_cyt_deam_1 (PF00383)
"Cytidine and deoxycytidylate deaminase zinc-binding region"</title>
				<polygon class="PF00383" points="313,36 318,28 323,28 323,52 318,52 313,44" stroke-linejoin="round" width="10" height="24" fill="rgb(91,149,216)" stroke="rgb(72,119,172)" stroke-width="1" opacity="0.75" />
			</g>
		</g>
		<g>
			<title> (VO63_13590)
molecular chaperone</title>
			<polygon class=" (VO63_13590)
molecular chaperone" points="324,40 334,10 334,70" fill="rgb(255,255,255)" fill-opacity="1.0" stroke="rgb(0,0,0)" stroke-width="2"  />
			<g>
				<title>Multi_Drug_Res (PF00893)
"Small Multidrug Resistance protein"</title>
				<polygon class="PF00893" points="327,40 331,28 334,28 334,52 331,52" stroke-linejoin="round" width="9" height="24" fill="rgb(199,75,202)" stroke="rgb(159,60,161)" stroke-width="1" opacity="0.75" />
			</g>
		</g>
		<g>
			<title> (VO63_13595)
multidrug transporter</title>
			<polygon class=" (VO63_13595)
multidrug transporter" points="337,40 349,10 349,70" fill="rgb(255,255,255)" fill-opacity="1.0" stroke="rgb(0,0,0)" stroke-width="2"  />
			<g>
				<title>Multi_Drug_Res (PF00893)
"Small Multidrug Resistance protein"</title>
				<polygon class="PF00893" points="340,40 345,28 349,28 349,52 345,52 340,40" stroke-linejoin="round" width="9" height="24" fill="rgb(199,75,202)" stroke="rgb(159,60,161)" stroke-width="1" opacity="0.75" />
			</g>
		</g>
		<g>
			<title> (VO63_13600)
MarR family transcriptional regulator</title>
			<polygon class=" (VO63_13600)
MarR family transcriptional regulator" points="355,10 370,40 355,70" fill="rgb(255,255,255)" fill-opacity="1.0" stroke="rgb(0,0,0)" stroke-width="2"  />
			<g>
				<title>MarR_2 (PF12802)
"MarR family"</title>
				<polygon class="PF12802" points="359,28 360,28 365,37 365,43 360,52 359,52" stroke-linejoin="round" width="6" height="24" fill="rgb(46,89,185)" stroke="rgb(36,71,148)" stroke-width="1" opacity="0.75" />
			</g>
		</g>
		<g>
			<title> (VO63_13605)
fatty acid--CoA ligase</title>
			<polygon class=" (VO63_13605)
fatty acid--CoA ligase" points="383,25 401,25 401,10 431,40 401,70 401,55 383,55" fill="rgb(255,255,255)" fill-opacity="1.0" stroke="rgb(0,0,0)" stroke-width="2"  />
			<g>
				<title>AMP-binding (PF00501)
"AMP-binding enzyme"</title>
				<polygon class="PF00501" points="384,28 415,28 421,34 421,46 415,52 384,52" stroke-linejoin="round" width="37" height="24" fill="rgb(60,217,223)" stroke="rgb(48,173,178)" stroke-width="1" opacity="0.75" />
			</g>
			<g>
				<title>AMP-binding_C (PF13193)
"AMP-binding enzyme C-terminal domain"</title>
				<polygon class="PF13193" points="422,35 427,40 422,45" stroke-linejoin="round" width="7" height="24" fill="rgb(182,50,118)" stroke="rgb(145,39,94)" stroke-width="1" opacity="0.75" />
			</g>
		</g>
		<g>
			<title> (VO63_13610)
phosphopantetheine attachment site family protein</title>
			<polygon class=" (VO63_13610)
phosphopantetheine attachment site family protein" points="431,10 440,40 431,70" fill="rgb(255,255,255)" fill-opacity="1.0" stroke="rgb(0,0,0)" stroke-width="2"  />
		</g>
		<g>
			<title> (VO63_13615)
ectoine synthase</title>
			<polygon class=" (VO63_13615)
ectoine synthase" points="445,10 457,40 445,70" fill="rgb(255,255,255)" fill-opacity="1.0" stroke="rgb(0,0,0)" stroke-width="2"  />
			<g>
				<title>Ectoine_synth (PF06339)
"Ectoine synthase"</title>
				<polygon class="PF06339" points="445,28 449,28 454,40 449,52 445,52" stroke-linejoin="round" width="12" height="24" fill="rgb(225,176,81)" stroke="rgb(180,140,64)" stroke-width="1" opacity="0.75" />
			</g>
		</g>
		<g>
			<title> (VO63_13620)
acyl-CoA dehydrogenase</title>
			<polygon class=" (VO63_13620)
acyl-CoA dehydrogenase" points="461,25 468,25 468,10 498,40 468,70 468,55 461,55" fill="rgb(255,255,255)" fill-opacity="1.0" stroke="rgb(0,0,0)" stroke-width="2"  />
			<g>
				<title>Acyl-CoA_dh_N (PF02771)
"Acyl-CoA dehydrogenase, N-terminal domain"</title>
				<rect class="PF02771" x="461" y="28" stroke-linejoin="round" width="10" height="24" fill="rgb(105,135,218)" stroke="rgb(84,108,174)" stroke-width="1" opacity="0.75" />
			</g>
			<g>
				<title>Acyl-CoA_dh_M (PF02770)
"Acyl-CoA dehydrogenase, middle domain"</title>
				<rect class="PF02770" x="472" y="28" stroke-linejoin="round" width="9" height="24" fill="rgb(225,186,97)" stroke="rgb(180,148,77)" stroke-width="1" opacity="0.75" />
			</g>
			<g>
				<title>Acyl-CoA_dh_1 (PF00441)
"Acyl-CoA dehydrogenase, C-terminal domain"</title>
				<polygon class="PF00441" points="483,29 494,40 483,51" stroke-linejoin="round" width="14" height="24" fill="rgb(85,191,117)" stroke="rgb(68,152,93)" stroke-width="1" opacity="0.75" />
			</g>
		</g>
		<g>
			<title> (VO63_13625)
transglutaminase-like superfamily protein</title>
			<polygon class=" (VO63_13625)
transglutaminase-like superfamily protein" points="499,10 523,40 499,70" fill="rgb(255,255,255)" fill-opacity="1.0" stroke="rgb(0,0,0)" stroke-width="2"  />
			<g>
				<title>Transglut_core (PF01841)
"Transglutaminase-like superfamily"</title>
				<polygon class="PF01841" points="501,28 509,28 512,32 512,48 509,52 501,52" stroke-linejoin="round" width="11" height="24" fill="rgb(208,223,79)" stroke="rgb(166,178,63)" stroke-width="1" opacity="0.75" />
			</g>
		</g>
		<g>
			<title> (VO63_13630)
maleate cis-trans isomerase</title>
			<polygon class=" (VO63_13630)
maleate cis-trans isomerase" points="523,10 550,40 523,70" fill="rgb(255,255,255)" fill-opacity="1.0" stroke="rgb(0,0,0)" stroke-width="2"  />
			<g>
				<title>Amdase (PF17645)
"Arylmalonate decarboxylase"</title>
				<polygon class="PF17645" points="529,28 534,28 545,40 534,52 529,52" stroke-linejoin="round" width="19" height="24" fill="rgb(72,105,187)" stroke="rgb(57,83,149)" stroke-width="1" opacity="0.75" />
			</g>
		</g>
		<g>
			<title> (VO63_13635)
hypothetical protein</title>
			<polygon class=" (VO63_13635)
hypothetical protein" points="550,10 558,40 550,70" fill="rgb(255,255,255)" fill-opacity="1.0" stroke="rgb(0,0,0)" stroke-width="2"  />
			<g>
				<title>DUF6253 (PF19766)
"Family of unknown function (DUF6253)"</title>
				<polygon class="PF19766" points="550,28 551,28 555,40 551,52 550,52" stroke-linejoin="round" width="8" height="24" fill="rgb(218,68,158)" stroke="rgb(174,54,126)" stroke-width="1" opacity="0.75" />
			</g>
		</g>
	</g>
</svg>
