<svg version="1.1" baseProfile="full" xmlns="http://www.w3.org/2000/svg" width="884.0333333333333" height="80">
	<g>
		<line x1="10" y1="40.0" x2="874.0333333333333" y2="40.0" style="stroke:rgb(70,70,70); stroke-width:3 "/>
		<g>
			<title> (MB828_08060)
histidine kinase dimerization/phosphoacceptor domain-containing protein</title>
			<polygon class=" (MB828_08060)
histidine kinase dimerization/phosphoacceptor domain-containing protein" points="28,10 32,40 28,70" fill="rgb(255,255,255)" fill-opacity="1.0" stroke="rgb(0,0,0)" stroke-width="2"  />
			<g>
				<title>HisKA_3 (PF07730)
"Histidine kinase"</title>
				<polygon class="PF07730" points="28,33 29,40 28,47" stroke-linejoin="round" width="4" height="24" fill="rgb(190,53,146)" stroke="rgb(152,42,116)" stroke-width="1" opacity="0.75" />
			</g>
		</g>
		<g>
			<title> (MB828_08065)
response regulator transcription factor</title>
			<polygon class=" (MB828_08065)
response regulator transcription factor" points="47,40 67,10 67,70" fill="rgb(255,255,255)" fill-opacity="1.0" stroke="rgb(0,0,0)" stroke-width="2"  />
			<g>
				<title>GerE (PF00196)
"Bacterial regulatory proteins, luxR family"</title>
				<polygon class="PF00196" points="51,40 52,39 52,41" stroke-linejoin="round" width="5" height="24" fill="rgb(219,94,82)" stroke="rgb(175,75,65)" stroke-width="1" opacity="0.75" />
			</g>
			<g>
				<title>Response_reg (PF00072)
"Response regulator receiver domain"</title>
				<polygon class="PF00072" points="55,34 59,28 66,28 66,52 59,52 55,46" stroke-linejoin="round" width="11" height="24" fill="rgb(100,107,203)" stroke="rgb(80,85,162)" stroke-width="1" opacity="0.75" />
			</g>
		</g>
		<g>
			<title> (MB828_08070)
MBL fold metallo-hydrolase</title>
			<polygon class=" (MB828_08070)
MBL fold metallo-hydrolase" points="79,25 80,25 80,10 110,40 80,70 80,55 79,55" fill="rgb(255,255,255)" fill-opacity="1.0" stroke="rgb(0,0,0)" stroke-width="2"  />
			<g>
				<title>Lactamase_B (PF00753)
"Metallo-beta-lactamase superfamily"</title>
				<polygon class="PF00753" points="82,28 93,28 100,35 100,45 93,52 82,52" stroke-linejoin="round" width="18" height="24" fill="rgb(206,198,96)" stroke="rgb(164,158,76)" stroke-width="1" opacity="0.75" />
			</g>
		</g>
		<g>
			<title> (MB828_08075)
flavin reductase family protein</title>
			<polygon class=" (MB828_08075)
flavin reductase family protein" points="109,40 126,10 126,70" fill="rgb(255,255,255)" fill-opacity="1.0" stroke="rgb(0,0,0)" stroke-width="2"  />
			<g>
				<title>Flavin_Reduct (PF01613)
"Flavin reductase like domain"</title>
				<polygon class="PF01613" points="112,40 119,28 124,28 124,52 119,52" stroke-linejoin="round" width="14" height="24" fill="rgb(107,197,222)" stroke="rgb(85,157,177)" stroke-width="1" opacity="0.75" />
			</g>
		</g>
		<g>
			<title> (MB828_08080)
acyl-CoA carboxylase subunit beta</title>
			<polygon class=" (MB828_08080)
acyl-CoA carboxylase subunit beta" points="136,25 157,25 157,10 187,40 157,70 157,55 136,55" fill="rgb(255,255,255)" fill-opacity="1.0" stroke="rgb(0,0,0)" stroke-width="2"  />
			<g>
				<title>Carboxyl_trans (PF01039)
"Carboxyl transferase domain"</title>
				<polygon class="PF01039" points="138,28 170,28 182,40 170,52 138,52" stroke-linejoin="round" width="48" height="24" fill="rgb(180,136,60)" stroke="rgb(144,108,48)" stroke-width="1" opacity="0.75" />
			</g>
		</g>
		<g>
			<title> (MB828_08085)
AfsR/SARP family transcriptional regulator</title>
			<polygon class=" (MB828_08085)
AfsR/SARP family transcriptional regulator" points="193,10 220,40 193,70" fill="rgb(255,255,255)" fill-opacity="1.0" stroke="rgb(0,0,0)" stroke-width="2"  />
			<g>
				<title>Trans_reg_C (PF00486)
"Transcriptional regulatory protein, C terminal"</title>
				<rect class="PF00486" x="194" y="28" stroke-linejoin="round" width="8" height="24" fill="rgb(204,153,57)" stroke="rgb(163,122,45)" stroke-width="1" opacity="0.75" />
			</g>
			<g>
				<title>BTAD (PF03704)
"Bacterial transcriptional activator domain"</title>
				<polygon class="PF03704" points="203,28 204,28 215,40 204,52 203,52" stroke-linejoin="round" width="14" height="24" fill="rgb(217,89,196)" stroke="rgb(173,71,156)" stroke-width="1" opacity="0.75" />
			</g>
		</g>
		<g>
			<title> (MB828_08090)
nuclear transport factor 2 family protein</title>
			<polygon class=" (MB828_08090)
nuclear transport factor 2 family protein" points="228,40 242,10 242,70" fill="rgb(255,255,255)" fill-opacity="1.0" stroke="rgb(0,0,0)" stroke-width="2"  />
			<g>
				<title>SnoaL_4 (PF13577)
"SnoaL-like domain"</title>
				<polygon class="PF13577" points="231,40 237,28 240,28 240,52 237,52" stroke-linejoin="round" width="12" height="24" fill="rgb(68,223,209)" stroke="rgb(54,178,167)" stroke-width="1" opacity="0.75" />
			</g>
		</g>
		<g>
			<title> (MB828_08095)
3-oxoacyl-ACP reductase</title>
			<polygon class=" (MB828_08095)
3-oxoacyl-ACP reductase" points="250,10 276,40 250,70" fill="rgb(255,255,255)" fill-opacity="1.0" stroke="rgb(0,0,0)" stroke-width="2"  />
			<g>
				<title>adh_short (PF00106)
"short chain dehydrogenase"</title>
				<polygon class="PF00106" points="250,28 262,28 269,37 269,43 262,52 250,52" stroke-linejoin="round" width="19" height="24" fill="rgb(182,219,73)" stroke="rgb(145,175,58)" stroke-width="1" opacity="0.75" />
			</g>
		</g>
		<g>
			<title> (MB828_08100)
SDR family oxidoreductase</title>
			<polygon class=" (MB828_08100)
SDR family oxidoreductase" points="276,10 300,40 276,70" fill="rgb(255,255,255)" fill-opacity="1.0" stroke="rgb(0,0,0)" stroke-width="2"  />
			<g>
				<title>adh_short_C2 (PF13561)
"Enoyl-(Acyl carrier protein) reductase"</title>
				<polygon class="PF13561" points="277,28 287,28 296,40 287,52 277,52" stroke-linejoin="round" width="23" height="24" fill="rgb(73,205,127)" stroke="rgb(58,164,101)" stroke-width="1" opacity="0.75" />
			</g>
		</g>
		<g>
			<title> (MB828_08105)
LLM class flavin-dependent oxidoreductase</title>
			<polygon class=" (MB828_08105)
LLM class flavin-dependent oxidoreductase" points="303,25 307,25 307,10 337,40 307,70 307,55 303,55" fill="rgb(255,255,255)" fill-opacity="1.0" stroke="rgb(0,0,0)" stroke-width="2"  />
			<g>
				<title>Bac_luciferase (PF00296)
"Luciferase-like monooxygenase"</title>
				<polygon class="PF00296" points="303,28 321,28 333,40 321,52 303,52" stroke-linejoin="round" width="31" height="24" fill="rgb(180,112,78)" stroke="rgb(144,89,62)" stroke-width="1" opacity="0.75" />
			</g>
		</g>
		<g>
			<title> (MB828_08110)
DUF6081 family protein</title>
			<polygon class=" (MB828_08110)
DUF6081 family protein" points="344,10 370,40 344,70" fill="rgb(255,255,255)" fill-opacity="1.0" stroke="rgb(0,0,0)" stroke-width="2"  />
			<g>
				<title>DUF6081 (PF19559)
"Family of unknown function (DUF6081)"</title>
				<polygon class="PF19559" points="344,28 355,28 366,40 355,52 344,52" stroke-linejoin="round" width="26" height="24" fill="rgb(97,60,210)" stroke="rgb(77,48,168)" stroke-width="1" opacity="0.75" />
			</g>
		</g>
		<g>
			<title> (MB828_08115)
flavin-dependent monooxygenase</title>
			<polygon class=" (MB828_08115)
flavin-dependent monooxygenase" points="414,25 404,25 404,10 374,40 404,70 404,55 414,55" fill="rgb(255,255,255)" fill-opacity="1.0" stroke="rgb(0,0,0)" stroke-width="2"  />
			<g>
				<title>Acyl-CoA_dh_2 (PF08028)
"Acyl-CoA dehydrogenase, C-terminal domain"</title>
				<polygon class="PF08028" points="378,40 388,30 388,50" stroke-linejoin="round" width="13" height="24" fill="rgb(106,185,56)" stroke="rgb(84,148,44)" stroke-width="1" opacity="0.75" />
			</g>
		</g>
		<g>
			<title> (MB828_08120)
DoxX family protein</title>
			<polygon class=" (MB828_08120)
DoxX family protein" points="415,40 428,10 428,70" fill="rgb(255,255,255)" fill-opacity="1.0" stroke="rgb(0,0,0)" stroke-width="2"  />
			<g>
				<title>DoxX (PF07681)
"DoxX"</title>
				<polygon class="PF07681" points="419,38 423,28 427,28 427,52 423,52 419,42" stroke-linejoin="round" width="8" height="24" fill="rgb(93,188,216)" stroke="rgb(74,150,172)" stroke-width="1" opacity="0.75" />
			</g>
		</g>
		<g>
			<title> (MB828_08125)
NmrA/HSCARG family protein</title>
			<polygon class=" (MB828_08125)
NmrA/HSCARG family protein" points="436,10 465,40 436,70" fill="rgb(255,255,255)" fill-opacity="1.0" stroke="rgb(0,0,0)" stroke-width="2"  />
			<g>
				<title>NmrA (PF05368)
"NmrA-like family"</title>
				<polygon class="PF05368" points="436,28 449,28 458,37 458,43 449,52 436,52" stroke-linejoin="round" width="22" height="24" fill="rgb(97,49,192)" stroke="rgb(77,39,153)" stroke-width="1" opacity="0.75" />
			</g>
		</g>
		<g>
			<title> (MB828_08130)
acyltransferase</title>
			<polygon class=" (MB828_08130)
acyltransferase" points="466,25 476,25 476,10 506,40 476,70 476,55 466,55" fill="rgb(255,255,255)" fill-opacity="1.0" stroke="rgb(0,0,0)" stroke-width="2"  />
			<g>
				<title>Acyl_transf_3 (PF01757)
"Acyltransferase family"</title>
				<polygon class="PF01757" points="467,28 489,28 501,40 501,40 489,52 467,52" stroke-linejoin="round" width="34" height="24" fill="rgb(50,152,200)" stroke="rgb(40,121,160)" stroke-width="1" opacity="0.75" />
			</g>
		</g>
		<g>
			<title> (MB828_08135)
DHA2 family efflux MFS transporter permease subunit</title>
			<polygon class=" (MB828_08135)
DHA2 family efflux MFS transporter permease subunit" points="559,25 540,25 540,10 510,40 540,70 540,55 559,55" fill="rgb(255,255,255)" fill-opacity="1.0" stroke="rgb(0,0,0)" stroke-width="2"  />
			<g>
				<title>MFS_1 (PF07690)
"Major Facilitator Superfamily"</title>
				<polygon class="PF07690" points="517,37 526,28 556,28 556,52 526,52 517,43" stroke-linejoin="round" width="39" height="24" fill="rgb(193,224,74)" stroke="rgb(154,179,59)" stroke-width="1" opacity="0.75" />
			</g>
		</g>
		<g>
			<title> (MB828_08140)
TetR family transcriptional regulator</title>
			<polygon class=" (MB828_08140)
TetR family transcriptional regulator" points="564,10 590,40 564,70" fill="rgb(255,255,255)" fill-opacity="1.0" stroke="rgb(0,0,0)" stroke-width="2"  />
			<g>
				<title>TetR_N (PF00440)
"Bacterial regulatory proteins, tetR family"</title>
				<rect class="PF00440" x="568" y="28" stroke-linejoin="round" width="4" height="24" fill="rgb(73,212,190)" stroke="rgb(58,169,152)" stroke-width="1" opacity="0.75" />
			</g>
			<g>
				<title>TetR_C_21 (PF17926)
"Tetracyclin repressor-like, C-terminal domain"</title>
				<polygon class="PF17926" points="574,28 575,28 584,38 584,42 575,52 574,52" stroke-linejoin="round" width="10" height="24" fill="rgb(220,76,64)" stroke="rgb(176,60,51)" stroke-width="1" opacity="0.75" />
			</g>
		</g>
		<g>
			<title> (MB828_08145)
PPOX class F420-dependent oxidoreductase</title>
			<polygon class=" (MB828_08145)
PPOX class F420-dependent oxidoreductase" points="590,10 604,40 590,70" fill="rgb(255,255,255)" fill-opacity="1.0" stroke="rgb(0,0,0)" stroke-width="2"  />
			<g>
				<title>Putative_PNPOx (PF01243)
"Pyridoxamine 5'-phosphate oxidase"</title>
				<polygon class="PF01243" points="590,28 595,28 599,36 599,44 595,52 590,52" stroke-linejoin="round" width="9" height="24" fill="rgb(177,193,67)" stroke="rgb(141,154,53)" stroke-width="1" opacity="0.75" />
			</g>
		</g>
		<g>
			<title> (MB828_08150)
TIGR03619 family F420-dependent LLM class oxidoreductase</title>
			<polygon class=" (MB828_08150)
TIGR03619 family F420-dependent LLM class oxidoreductase" points="637,25 636,25 636,10 606,40 636,70 636,55 637,55" fill="rgb(255,255,255)" fill-opacity="1.0" stroke="rgb(0,0,0)" stroke-width="2"  />
			<g>
				<title>Bac_luciferase (PF00296)
"Luciferase-like monooxygenase"</title>
				<polygon class="PF00296" points="610,40 622,28 636,28 636,52 622,52" stroke-linejoin="round" width="30" height="24" fill="rgb(180,112,78)" stroke="rgb(144,89,62)" stroke-width="1" opacity="0.75" />
			</g>
		</g>
		<g>
			<title> (MB828_08155)
SAM-dependent methyltransferase</title>
			<polygon class=" (MB828_08155)
SAM-dependent methyltransferase" points="646,10 674,40 646,70" fill="rgb(255,255,255)" fill-opacity="1.0" stroke="rgb(0,0,0)" stroke-width="2"  />
			<g>
				<title>LCM (PF04072)
"Leucine carboxyl methyltransferase"</title>
				<polygon class="PF04072" points="648,28 658,28 664,34 664,46 658,52 648,52" stroke-linejoin="round" width="16" height="24" fill="rgb(94,159,219)" stroke="rgb(75,127,175)" stroke-width="1" opacity="0.75" />
			</g>
		</g>
		<g>
			<title> (MB828_08160)
hypothetical protein</title>
			<polygon class=" (MB828_08160)
hypothetical protein" points="675,10 693,40 675,70" fill="rgb(255,255,255)" fill-opacity="1.0" stroke="rgb(0,0,0)" stroke-width="2"  />
		</g>
		<g>
			<title> (MB828_08165)
aromatase/cyclase</title>
			<polygon class=" (MB828_08165)
aromatase/cyclase" points="730,25 729,25 729,10 699,40 729,70 729,55 730,55" fill="rgb(255,255,255)" fill-opacity="1.0" stroke="rgb(0,0,0)" stroke-width="2"  />
			<g>
				<title>Polyketide_cyc2 (PF10604)
"Polyketide cyclase / dehydrase and lipid transport"</title>
				<polygon class="PF10604" points="715,28 715,28 729,28 729,52 715,52 715,52" stroke-linejoin="round" width="14" height="24" fill="rgb(105,204,74)" stroke="rgb(84,163,59)" stroke-width="1" opacity="0.75" />
			</g>
		</g>
		<g>
			<title> (MB828_08170)
acyl carrier protein</title>
			<polygon class=" (MB828_08170)
acyl carrier protein" points="730,40 738,10 738,70" fill="rgb(255,255,255)" fill-opacity="1.0" stroke="rgb(0,0,0)" stroke-width="2"  />
			<g>
				<title>PP-binding (PF00550)
"Phosphopantetheine attachment site"</title>
				<polygon class="PF00550" points="733,40 736,28 737,28 737,52 736,52" stroke-linejoin="round" width="6" height="24" fill="rgb(103,191,88)" stroke="rgb(82,152,70)" stroke-width="1" opacity="0.75" />
			</g>
		</g>
		<g>
			<title> (MB828_08175)
ketosynthase chain-length factor</title>
			<polygon class=" (MB828_08175)
ketosynthase chain-length factor" points="783,25 770,25 770,10 740,40 770,70 770,55 783,55" fill="rgb(255,255,255)" fill-opacity="1.0" stroke="rgb(0,0,0)" stroke-width="2"  />
			<g>
				<title>Ketoacyl-synt_C (PF02801)
"Beta-ketoacyl synthase, C-terminal domain"</title>
				<polygon class="PF02801" points="744,40 755,29 755,51 744,40" stroke-linejoin="round" width="11" height="24" fill="rgb(215,78,102)" stroke="rgb(172,62,81)" stroke-width="1" opacity="0.75" />
			</g>
			<g>
				<title>ketoacyl-synt (PF00109)
"Beta-ketoacyl synthase, N-terminal domain"</title>
				<polygon class="PF00109" points="756,28 756,28 780,28 780,52 756,52 756,52" stroke-linejoin="round" width="24" height="24" fill="rgb(112,116,228)" stroke="rgb(89,92,182)" stroke-width="1" opacity="0.75" />
			</g>
		</g>
		<g>
			<title> (MB828_08180)
beta-ketoacyl-[acyl-carrier-protein] synthase family protein</title>
			<polygon class=" (MB828_08180)
beta-ketoacyl-[acyl-carrier-protein] synthase family protein" points="825,25 813,25 813,10 783,40 813,70 813,55 825,55" fill="rgb(255,255,255)" fill-opacity="1.0" stroke="rgb(0,0,0)" stroke-width="2"  />
			<g>
				<title>Ketoacyl-synt_C (PF02801)
"Beta-ketoacyl synthase, C-terminal domain"</title>
				<polygon class="PF02801" points="787,40 798,29 798,51 787,40" stroke-linejoin="round" width="11" height="24" fill="rgb(215,78,102)" stroke="rgb(172,62,81)" stroke-width="1" opacity="0.75" />
			</g>
			<g>
				<title>ketoacyl-synt (PF00109)
"Beta-ketoacyl synthase, N-terminal domain"</title>
				<rect class="PF00109" x="800" y="28" stroke-linejoin="round" width="25" height="24" fill="rgb(112,116,228)" stroke="rgb(89,92,182)" stroke-width="1" opacity="0.75" />
			</g>
		</g>
		<g>
			<title> (MB828_08185)
M56 family metallopeptidase</title>
			<polygon class=" (MB828_08185)
M56 family metallopeptidase" points="860,25 859,25 859,10 829,40 859,70 859,55 860,55" fill="rgb(255,255,255)" fill-opacity="1.0" stroke="rgb(0,0,0)" stroke-width="2"  />
			<g>
				<title>Peptidase_M48 (PF01435)
"Peptidase family M48"</title>
				<polygon class="PF01435" points="841,32 845,28 850,28 850,52 845,52 841,48" stroke-linejoin="round" width="9" height="24" fill="rgb(70,152,228)" stroke="rgb(56,121,182)" stroke-width="1" opacity="0.75" />
			</g>
		</g>
		<g>
			<title> (MB828_08190)
BlaI/MecI/CopY family transcriptional regulator</title>
			<polygon class=" (MB828_08190)
BlaI/MecI/CopY family transcriptional regulator" points="861,40 873,10 873,70" fill="rgb(255,255,255)" fill-opacity="1.0" stroke="rgb(0,0,0)" stroke-width="2"  />
			<g>
				<title>Penicillinase_R (PF03965)
"Penicillinase repressor"</title>
				<polygon class="PF03965" points="864,40 869,28 871,28 871,52 869,52" stroke-linejoin="round" width="10" height="24" fill="rgb(208,59,133)" stroke="rgb(166,47,106)" stroke-width="1" opacity="0.75" />
			</g>
		</g>
	</g>
</svg>
