<svg version="1.1" baseProfile="full" xmlns="http://www.w3.org/2000/svg" width="1238.9333333333334" height="80">
	<g>
		<line x1="10" y1="40.0" x2="1228.9333333333334" y2="40.0" style="stroke:rgb(70,70,70); stroke-width:3 "/>
		<g>
			<title>qui1
putative ABC transporter</title>
			<polygon class="qui1
putative ABC transporter" points="10,10 15,40 10,70" fill="rgb(255,255,255)" fill-opacity="1.0" stroke="rgb(0,0,0)" stroke-width="2"  />
		</g>
		<g>
			<title>qui2
putative ABC transporter</title>
			<polygon class="qui2
putative ABC transporter" points="15,10 42,40 15,70" fill="rgb(255,255,255)" fill-opacity="1.0" stroke="rgb(0,0,0)" stroke-width="2"  />
			<g>
				<title>ABC2_membrane (PF01061)
"ABC-2 type transporter"</title>
				<polygon class="PF01061" points="17,28 26,28 38,40 38,40 26,52 17,52" stroke-linejoin="round" width="21" height="24" fill="rgb(139,217,106)" stroke="rgb(111,173,84)" stroke-width="1" opacity="0.75" />
			</g>
		</g>
		<g>
			<title>qui3
putative esterase</title>
			<polygon class="qui3
putative esterase" points="46,25 56,25 56,10 86,40 56,70 56,55 46,55" fill="rgb(255,255,255)" fill-opacity="1.0" stroke="rgb(0,0,0)" stroke-width="2"  />
			<g>
				<title>Erythro_esteras (PF05139)
"Erythromycin esterase"</title>
				<polygon class="PF05139" points="50,28 69,28 81,40 69,52 50,52" stroke-linejoin="round" width="34" height="24" fill="rgb(64,208,71)" stroke="rgb(51,166,56)" stroke-width="1" opacity="0.75" />
			</g>
		</g>
		<g>
			<title>qui4
putative DNA-binding response regulator</title>
			<polygon class="qui4
putative DNA-binding response regulator" points="90,40 107,10 107,70" fill="rgb(255,255,255)" fill-opacity="1.0" stroke="rgb(0,0,0)" stroke-width="2"  />
			<g>
				<title>Trans_reg_C (PF00486)
"Transcriptional regulatory protein, C terminal"</title>
				<polygon class="PF00486" points="93,40 97,33 97,47" stroke-linejoin="round" width="7" height="24" fill="rgb(204,153,57)" stroke="rgb(163,122,45)" stroke-width="1" opacity="0.75" />
			</g>
		</g>
		<g>
			<title>qui5
MbtH-like protein</title>
			<polygon class="qui5
MbtH-like protein" points="111,40 118,10 118,70" fill="rgb(255,255,255)" fill-opacity="1.0" stroke="rgb(0,0,0)" stroke-width="2"  />
			<g>
				<title>MbtH (PF03621)
"MbtH-like protein"</title>
				<polygon class="PF03621" points="114,40 117,28 117,28 117,52 117,52" stroke-linejoin="round" width="5" height="24" fill="rgb(212,165,97)" stroke="rgb(169,132,77)" stroke-width="1" opacity="0.75" />
			</g>
		</g>
		<g>
			<title>qui6
putative non-ribosomal peptide synthetase</title>
			<polygon class="qui6
putative non-ribosomal peptide synthetase" points="434,25 150,25 150,10 120,40 150,70 150,55 434,55" fill="rgb(255,255,255)" fill-opacity="1.0" stroke="rgb(0,0,0)" stroke-width="2"  />
			<g>
				<title>Thioesterase (PF00975)
"Thioesterase domain"</title>
				<polygon class="PF00975" points="124,40 136,28 142,28 142,52 136,52" stroke-linejoin="round" width="22" height="24" fill="rgb(207,80,138)" stroke="rgb(165,63,110)" stroke-width="1" opacity="0.75" />
			</g>
			<g>
				<title>PP-binding (PF00550)
"Phosphopantetheine attachment site"</title>
				<rect class="PF00550" x="145" y="28" stroke-linejoin="round" width="6" height="24" fill="rgb(103,191,88)" stroke="rgb(82,152,70)" stroke-width="1" opacity="0.75" />
			</g>
			<g>
				<title>Methyltransf_12 (PF08242)
"Methyltransferase domain"</title>
				<rect class="PF08242" x="180" y="28" stroke-linejoin="round" width="10" height="24" fill="rgb(187,59,115)" stroke="rgb(149,47,92)" stroke-width="1" opacity="0.75" />
			</g>
			<g>
				<title>AMP-binding (PF00501)
"AMP-binding enzyme"</title>
				<rect class="PF00501" x="201" y="28" stroke-linejoin="round" width="38" height="24" fill="rgb(60,217,223)" stroke="rgb(48,173,178)" stroke-width="1" opacity="0.75" />
			</g>
			<g>
				<title>Condensation (PF00668)
"Condensation domain"</title>
				<rect class="PF00668" x="242" y="28" stroke-linejoin="round" width="45" height="24" fill="rgb(224,184,98)" stroke="rgb(179,147,78)" stroke-width="1" opacity="0.75" />
			</g>
			<g>
				<title>PP-binding (PF00550)
"Phosphopantetheine attachment site"</title>
				<rect class="PF00550" x="288" y="28" stroke-linejoin="round" width="6" height="24" fill="rgb(103,191,88)" stroke="rgb(82,152,70)" stroke-width="1" opacity="0.75" />
			</g>
			<g>
				<title>Methyltransf_25 (PF13649)
"Methyltransferase domain"</title>
				<rect class="PF13649" x="323" y="28" stroke-linejoin="round" width="9" height="24" fill="rgb(227,135,74)" stroke="rgb(181,108,59)" stroke-width="1" opacity="0.75" />
			</g>
			<g>
				<title>AMP-binding (PF00501)
"AMP-binding enzyme"</title>
				<rect class="PF00501" x="345" y="28" stroke-linejoin="round" width="40" height="24" fill="rgb(60,217,223)" stroke="rgb(48,173,178)" stroke-width="1" opacity="0.75" />
			</g>
			<g>
				<title>Condensation (PF00668)
"Condensation domain"</title>
				<rect class="PF00668" x="389" y="28" stroke-linejoin="round" width="44" height="24" fill="rgb(224,184,98)" stroke="rgb(179,147,78)" stroke-width="1" opacity="0.75" />
			</g>
		</g>
		<g>
			<title>qui7
putative non-ribosomal peptide synthetase</title>
			<polygon class="qui7
putative non-ribosomal peptide synthetase" points="701,25 465,25 465,10 435,40 465,70 465,55 701,55" fill="rgb(255,255,255)" fill-opacity="1.0" stroke="rgb(0,0,0)" stroke-width="2"  />
			<g>
				<title>PP-binding (PF00550)
"Phosphopantetheine attachment site"</title>
				<polygon class="PF00550" points="439,40 442,37 442,43" stroke-linejoin="round" width="6" height="24" fill="rgb(103,191,88)" stroke="rgb(82,152,70)" stroke-width="1" opacity="0.75" />
			</g>
			<g>
				<title>AMP-binding_C (PF13193)
"AMP-binding enzyme C-terminal domain"</title>
				<polygon class="PF13193" points="445,34 451,28 452,28 452,52 451,52 445,46" stroke-linejoin="round" width="7" height="24" fill="rgb(182,50,118)" stroke="rgb(145,39,94)" stroke-width="1" opacity="0.75" />
			</g>
			<g>
				<title>AMP-binding (PF00501)
"AMP-binding enzyme"</title>
				<rect class="PF00501" x="454" y="28" stroke-linejoin="round" width="37" height="24" fill="rgb(60,217,223)" stroke="rgb(48,173,178)" stroke-width="1" opacity="0.75" />
			</g>
			<g>
				<title>Condensation (PF00668)
"Condensation domain"</title>
				<rect class="PF00668" x="493" y="28" stroke-linejoin="round" width="43" height="24" fill="rgb(224,184,98)" stroke="rgb(179,147,78)" stroke-width="1" opacity="0.75" />
			</g>
			<g>
				<title>Condensation (PF00668)
"Condensation domain"</title>
				<rect class="PF00668" x="548" y="28" stroke-linejoin="round" width="35" height="24" fill="rgb(224,184,98)" stroke="rgb(179,147,78)" stroke-width="1" opacity="0.75" />
			</g>
			<g>
				<title>PP-binding (PF00550)
"Phosphopantetheine attachment site"</title>
				<rect class="PF00550" x="588" y="28" stroke-linejoin="round" width="6" height="24" fill="rgb(103,191,88)" stroke="rgb(82,152,70)" stroke-width="1" opacity="0.75" />
			</g>
			<g>
				<title>AMP-binding_C (PF13193)
"AMP-binding enzyme C-terminal domain"</title>
				<rect class="PF13193" x="597" y="28" stroke-linejoin="round" width="9" height="24" fill="rgb(182,50,118)" stroke="rgb(145,39,94)" stroke-width="1" opacity="0.75" />
			</g>
			<g>
				<title>AMP-binding (PF00501)
"AMP-binding enzyme"</title>
				<rect class="PF00501" x="607" y="28" stroke-linejoin="round" width="39" height="24" fill="rgb(60,217,223)" stroke="rgb(48,173,178)" stroke-width="1" opacity="0.75" />
			</g>
			<g>
				<title>Condensation (PF00668)
"Condensation domain"</title>
				<rect class="PF00668" x="648" y="28" stroke-linejoin="round" width="45" height="24" fill="rgb(224,184,98)" stroke="rgb(179,147,78)" stroke-width="1" opacity="0.75" />
			</g>
		</g>
		<g>
			<title>qui8
putative SAM-dependent methyltransferase</title>
			<polygon class="qui8
putative SAM-dependent methyltransferase" points="703,10 726,40 703,70" fill="rgb(255,255,255)" fill-opacity="1.0" stroke="rgb(0,0,0)" stroke-width="2"  />
			<g>
				<title>Methyltransf_25 (PF13649)
"Methyltransferase domain"</title>
				<polygon class="PF13649" points="708,28 713,28 717,33 717,47 713,52 708,52" stroke-linejoin="round" width="9" height="24" fill="rgb(227,135,74)" stroke="rgb(181,108,59)" stroke-width="1" opacity="0.75" />
			</g>
		</g>
		<g>
			<title>qui10
UvrA-like protein</title>
			<polygon class="qui10
UvrA-like protein" points="781,25 830,25 830,10 860,40 830,70 830,55 781,55" fill="rgb(255,255,255)" fill-opacity="1.0" stroke="rgb(0,0,0)" stroke-width="2"  />
			<g>
				<title>ABC_tran (PF00005)
"ABC transporter"</title>
				<polygon class="PF00005" points="831,28 844,28 851,35 851,45 844,52 831,52" stroke-linejoin="round" width="20" height="24" fill="rgb(129,201,63)" stroke="rgb(103,160,50)" stroke-width="1" opacity="0.75" />
			</g>
		</g>
		<g>
			<title>qui11
putative oxidoreductase</title>
			<polygon class="qui11
putative oxidoreductase" points="863,25 864,25 864,10 894,40 864,70 864,55 863,55" fill="rgb(255,255,255)" fill-opacity="1.0" stroke="rgb(0,0,0)" stroke-width="2"  />
			<g>
				<title>Pyr_redox_2 (PF07992)
"Pyridine nucleotide-disulphide oxidoreductase"</title>
				<polygon class="PF07992" points="863,28 878,28 890,40 878,52 863,52" stroke-linejoin="round" width="29" height="24" fill="rgb(83,223,167)" stroke="rgb(66,178,133)" stroke-width="1" opacity="0.75" />
			</g>
		</g>
		<g>
			<title>qui12
putative FAD-dependent oxidoreductase</title>
			<polygon class="qui12
putative FAD-dependent oxidoreductase" points="954,25 938,25 938,10 908,40 938,70 938,55 954,55" fill="rgb(255,255,255)" fill-opacity="1.0" stroke="rgb(0,0,0)" stroke-width="2"  />
			<g>
				<title>FAD_binding_3 (PF01494)
"FAD binding domain"</title>
				<polygon class="PF01494" points="918,34 924,28 952,28 952,52 924,52 918,46" stroke-linejoin="round" width="34" height="24" fill="rgb(182,175,59)" stroke="rgb(145,140,47)" stroke-width="1" opacity="0.75" />
			</g>
		</g>
		<g>
			<title>qui13
putative dehydrogenase</title>
			<polygon class="qui13
putative dehydrogenase" points="992,25 986,25 986,10 956,40 986,70 986,55 992,55" fill="rgb(255,255,255)" fill-opacity="1.0" stroke="rgb(0,0,0)" stroke-width="2"  />
			<g>
				<title>Iso_dh (PF00180)
"Isocitrate/isopropylmalate dehydrogenase"</title>
				<polygon class="PF00180" points="960,40 972,28 991,28 991,52 972,52" stroke-linejoin="round" width="33" height="24" fill="rgb(109,54,206)" stroke="rgb(87,43,164)" stroke-width="1" opacity="0.75" />
			</g>
		</g>
		<g>
			<title>qui14
putative thioesterase</title>
			<polygon class="qui14
putative thioesterase" points="992,40 1016,10 1016,70" fill="rgb(255,255,255)" fill-opacity="1.0" stroke="rgb(0,0,0)" stroke-width="2"  />
			<g>
				<title>Thioesterase (PF00975)
"Thioesterase domain"</title>
				<polygon class="PF00975" points="996,40 1006,28 1014,28 1014,52 1006,52" stroke-linejoin="round" width="22" height="24" fill="rgb(207,80,138)" stroke="rgb(165,63,110)" stroke-width="1" opacity="0.75" />
			</g>
		</g>
		<g>
			<title>qui15
putative cytochrome P450</title>
			<polygon class="qui15
putative cytochrome P450" points="1022,25 1032,25 1032,10 1062,40 1032,70 1032,55 1022,55" fill="rgb(255,255,255)" fill-opacity="1.0" stroke="rgb(0,0,0)" stroke-width="2"  />
			<g>
				<title>p450 (PF00067)
"Cytochrome P450"</title>
				<polygon class="PF00067" points="1049,32 1057,40 1049,48" stroke-linejoin="round" width="11" height="24" fill="rgb(85,216,107)" stroke="rgb(68,172,85)" stroke-width="1" opacity="0.75" />
			</g>
		</g>
		<g>
			<title>qui16
putative AMP-binding ligase</title>
			<polygon class="qui16
putative AMP-binding ligase" points="1063,25 1085,25 1085,10 1115,40 1085,70 1085,55 1063,55" fill="rgb(255,255,255)" fill-opacity="1.0" stroke="rgb(0,0,0)" stroke-width="2"  />
			<g>
				<title>AMP-binding (PF00501)
"AMP-binding enzyme"</title>
				<polygon class="PF00501" points="1066,28 1099,28 1105,34 1105,46 1099,52 1066,52" stroke-linejoin="round" width="39" height="24" fill="rgb(60,217,223)" stroke="rgb(48,173,178)" stroke-width="1" opacity="0.75" />
			</g>
			<g>
				<title>AMP-binding_C (PF13193)
"AMP-binding enzyme C-terminal domain"</title>
				<polygon class="PF13193" points="1106,35 1111,40 1106,45" stroke-linejoin="round" width="7" height="24" fill="rgb(182,50,118)" stroke="rgb(145,39,94)" stroke-width="1" opacity="0.75" />
			</g>
		</g>
		<g>
			<title>qui17
putative tryptophan 2,3-dioxygenase</title>
			<polygon class="qui17
putative tryptophan 2,3-dioxygenase" points="1118,40 1145,10 1145,70" fill="rgb(255,255,255)" fill-opacity="1.0" stroke="rgb(0,0,0)" stroke-width="2"  />
			<g>
				<title>Trp_dioxygenase (PF03301)
"Tryptophan 2,3-dioxygenase"</title>
				<polygon class="PF03301" points="1122,40 1124,38 1124,42" stroke-linejoin="round" width="6" height="24" fill="rgb(50,195,197)" stroke="rgb(40,155,157)" stroke-width="1" opacity="0.75" />
			</g>
			<g>
				<title>Trp_dioxygenase (PF03301)
"Tryptophan 2,3-dioxygenase"</title>
				<polygon class="PF03301" points="1127,35 1133,28 1142,28 1142,52 1133,52 1127,45" stroke-linejoin="round" width="15" height="24" fill="rgb(50,195,197)" stroke="rgb(40,155,157)" stroke-width="1" opacity="0.75" />
			</g>
		</g>
		<g>
			<title>qui18
putative non-ribosomal peptide synthetase</title>
			<polygon class="qui18
putative non-ribosomal peptide synthetase" points="1147,25 1178,25 1178,10 1208,40 1178,70 1178,55 1147,55" fill="rgb(255,255,255)" fill-opacity="1.0" stroke="rgb(0,0,0)" stroke-width="2"  />
			<g>
				<title>AMP-binding (PF00501)
"AMP-binding enzyme"</title>
				<rect class="PF00501" x="1150" y="28" stroke-linejoin="round" width="39" height="24" fill="rgb(60,217,223)" stroke="rgb(48,173,178)" stroke-width="1" opacity="0.75" />
			</g>
			<g>
				<title>AMP-binding_C (PF13193)
"AMP-binding enzyme C-terminal domain"</title>
				<polygon class="PF13193" points="1190,28 1191,28 1197,34 1197,46 1191,52 1190,52" stroke-linejoin="round" width="7" height="24" fill="rgb(182,50,118)" stroke="rgb(145,39,94)" stroke-width="1" opacity="0.75" />
			</g>
			<g>
				<title>PP-binding (PF00550)
"Phosphopantetheine attachment site"</title>
				<polygon class="PF00550" points="1200,37 1203,40 1200,43" stroke-linejoin="round" width="6" height="24" fill="rgb(103,191,88)" stroke="rgb(82,152,70)" stroke-width="1" opacity="0.75" />
			</g>
		</g>
	</g>
</svg>
