<svg version="1.1" baseProfile="full" xmlns="http://www.w3.org/2000/svg" width="820.8666666666667" height="80">
	<g>
		<line x1="10" y1="40.0" x2="810.8666666666667" y2="40.0" style="stroke:rgb(70,70,70); stroke-width:3 "/>
		<g>
			<title>
RNA polymerase sigma-F factor</title>
			<polygon class="
RNA polymerase sigma-F factor" points="10,10 38,40 10,70" fill="rgb(255,255,255)" fill-opacity="1.0" stroke="rgb(0,0,0)" stroke-width="2"  />
			<g>
				<title>Sigma70_r2 (PF04542)
"Sigma-70 region 2"</title>
				<rect class="PF04542" x="15" y="28" stroke-linejoin="round" width="7" height="24" fill="rgb(184,59,197)" stroke="rgb(147,47,157)" stroke-width="1" opacity="0.75" />
			</g>
			<g>
				<title>Sigma70_r3 (PF04539)
"Sigma-70 region 3"</title>
				<polygon class="PF04539" points="23,29 30,36 30,44 23,51" stroke-linejoin="round" width="7" height="24" fill="rgb(66,187,131)" stroke="rgb(52,149,104)" stroke-width="1" opacity="0.75" />
			</g>
			<g>
				<title>Sigma70_r4 (PF04545)
"Sigma-70, region 4"</title>
				<polygon class="PF04545" points="32,38 34,40 32,42" stroke-linejoin="round" width="4" height="24" fill="rgb(75,207,224)" stroke="rgb(60,165,179)" stroke-width="1" opacity="0.75" />
			</g>
		</g>
		<g>
			<title>
heterokaryon incompatibility protein S</title>
			<polygon class="
heterokaryon incompatibility protein S" points="42,40 64,10 64,70" fill="rgb(255,255,255)" fill-opacity="1.0" stroke="rgb(0,0,0)" stroke-width="2"  />
		</g>
		<g>
			<title>etmA
p-aminobenzoate N-oxygenase AurF</title>
			<polygon class="etmA
p-aminobenzoate N-oxygenase AurF" points="74,10 102,40 74,70" fill="rgb(255,255,255)" fill-opacity="1.0" stroke="rgb(0,0,0)" stroke-width="2"  />
			<g>
				<title>AurF (PF11583)
"P-aminobenzoate N-oxygenase AurF"</title>
				<polygon class="PF11583" points="75,28 86,28 98,40 86,52 75,52" stroke-linejoin="round" width="27" height="24" fill="rgb(100,210,108)" stroke="rgb(80,168,86)" stroke-width="1" opacity="0.75" />
			</g>
		</g>
		<g>
			<title>etmB
amino acid-[acyl-carrier-protein] ligase</title>
			<polygon class="etmB
amino acid-[acyl-carrier-protein] ligase" points="103,10 131,40 103,70" fill="rgb(255,255,255)" fill-opacity="1.0" stroke="rgb(0,0,0)" stroke-width="2"  />
		</g>
		<g>
			<title>etmC
4'-phosphopantetheinyl transferase</title>
			<polygon class="etmC
4'-phosphopantetheinyl transferase" points="131,10 144,40 131,70" fill="rgb(255,255,255)" fill-opacity="1.0" stroke="rgb(0,0,0)" stroke-width="2"  />
			<g>
				<title>ACPS (PF01648)
"4'-phosphopantetheinyl transferase superfamily"</title>
				<polygon class="PF01648" points="131,28 135,28 141,40 135,52 131,52" stroke-linejoin="round" width="11" height="24" fill="rgb(85,184,135)" stroke="rgb(68,147,108)" stroke-width="1" opacity="0.75" />
			</g>
		</g>
		<g>
			<title>etmD
acyl carrier protein</title>
			<polygon class="etmD
acyl carrier protein" points="146,10 154,40 146,70" fill="rgb(255,255,255)" fill-opacity="1.0" stroke="rgb(0,0,0)" stroke-width="2"  />
			<g>
				<title>PP-binding (PF00550)
"Phosphopantetheine attachment site"</title>
				<polygon class="PF00550" points="147,28 147,28 150,40 147,52 147,52" stroke-linejoin="round" width="6" height="24" fill="rgb(103,191,88)" stroke="rgb(82,152,70)" stroke-width="1" opacity="0.75" />
			</g>
		</g>
		<g>
			<title>etmE
SAM-dependent methyltransferase</title>
			<polygon class="etmE
SAM-dependent methyltransferase" points="154,10 181,40 154,70" fill="rgb(255,255,255)" fill-opacity="1.0" stroke="rgb(0,0,0)" stroke-width="2"  />
			<g>
				<title>LCM (PF04072)
"Leucine carboxyl methyltransferase"</title>
				<polygon class="PF04072" points="154,28 166,28 171,33 171,47 166,52 154,52" stroke-linejoin="round" width="17" height="24" fill="rgb(94,159,219)" stroke="rgb(75,127,175)" stroke-width="1" opacity="0.75" />
			</g>
		</g>
		<g>
			<title>etmF
3-oxoacyl-[acyl-carrier-protein] synthase</title>
			<polygon class="etmF
3-oxoacyl-[acyl-carrier-protein] synthase" points="182,25 183,25 183,10 213,40 183,70 183,55 182,55" fill="rgb(255,255,255)" fill-opacity="1.0" stroke="rgb(0,0,0)" stroke-width="2"  />
			<g>
				<title>ACP_syn_III_C (PF08541)
"3-Oxoacyl-[acyl-carrier-protein (ACP)] synthase III C terminal"</title>
				<polygon class="PF08541" points="204,35 209,40 204,45" stroke-linejoin="round" width="9" height="24" fill="rgb(146,207,81)" stroke="rgb(116,165,64)" stroke-width="1" opacity="0.75" />
			</g>
		</g>
		<g>
			<title>etmG
aspartic acid-holo carrier protein ligase</title>
			<polygon class="etmG
aspartic acid-holo carrier protein ligase" points="214,25 230,25 230,10 260,40 230,70 230,55 214,55" fill="rgb(255,255,255)" fill-opacity="1.0" stroke="rgb(0,0,0)" stroke-width="2"  />
			<g>
				<title>PreAtp-grasp (PF18604)
"Pre ATP-grasp domain"</title>
				<rect class="PF18604" x="219" y="28" stroke-linejoin="round" width="9" height="24" fill="rgb(148,214,94)" stroke="rgb(118,171,75)" stroke-width="1" opacity="0.75" />
			</g>
			<g>
				<title>CPSase_L_D2 (PF02786)
"Carbamoyl-phosphate synthase L chain, ATP binding domain"</title>
				<polygon class="PF02786" points="230,28 244,28 249,33 249,47 244,52 230,52" stroke-linejoin="round" width="19" height="24" fill="rgb(190,97,205)" stroke="rgb(151,77,164)" stroke-width="1" opacity="0.75" />
			</g>
		</g>
		<g>
			<title>etmH
L-glutamyl-carrier protein decarboxylase</title>
			<polygon class="etmH
L-glutamyl-carrier protein decarboxylase" points="261,25 273,25 273,10 303,40 273,70 273,55 261,55" fill="rgb(255,255,255)" fill-opacity="1.0" stroke="rgb(0,0,0)" stroke-width="2"  />
			<g>
				<title>Orn_Arg_deC_N (PF02784)
"Pyridoxal-dependent decarboxylase, pyridoxal binding domain"</title>
				<polygon class="PF02784" points="264,28 287,28 289,30 289,50 287,52 264,52" stroke-linejoin="round" width="25" height="24" fill="rgb(106,204,212)" stroke="rgb(84,163,169)" stroke-width="1" opacity="0.75" />
			</g>
		</g>
		<g>
			<title>etmI
peptidyl carrier protein</title>
			<polygon class="etmI
peptidyl carrier protein" points="304,10 312,40 304,70" fill="rgb(255,255,255)" fill-opacity="1.0" stroke="rgb(0,0,0)" stroke-width="2"  />
			<g>
				<title>PP-binding (PF00550)
"Phosphopantetheine attachment site"</title>
				<polygon class="PF00550" points="304,28 305,28 309,40 305,52 304,52" stroke-linejoin="round" width="6" height="24" fill="rgb(103,191,88)" stroke="rgb(82,152,70)" stroke-width="1" opacity="0.75" />
			</g>
		</g>
		<g>
			<title>etmJ
EtmJ</title>
			<polygon class="etmJ
EtmJ" points="313,10 340,40 313,70" fill="rgb(255,255,255)" fill-opacity="1.0" stroke="rgb(0,0,0)" stroke-width="2"  />
		</g>
		<g>
			<title>etmK
short-chain acyl-CoA dehydrogenase</title>
			<polygon class="etmK
short-chain acyl-CoA dehydrogenase" points="341,10 361,40 341,70" fill="rgb(255,255,255)" fill-opacity="1.0" stroke="rgb(0,0,0)" stroke-width="2"  />
		</g>
		<g>
			<title>etmL
butyryl-CoA dehydrogenase</title>
			<polygon class="etmL
butyryl-CoA dehydrogenase" points="361,25 369,25 369,10 399,40 369,70 369,55 361,55" fill="rgb(255,255,255)" fill-opacity="1.0" stroke="rgb(0,0,0)" stroke-width="2"  />
			<g>
				<title>Acyl-CoA_dh_M (PF02770)
"Acyl-CoA dehydrogenase, middle domain"</title>
				<rect class="PF02770" x="374" y="28" stroke-linejoin="round" width="9" height="24" fill="rgb(225,186,97)" stroke="rgb(180,148,77)" stroke-width="1" opacity="0.75" />
			</g>
			<g>
				<title>Acyl-CoA_dh_1 (PF00441)
"Acyl-CoA dehydrogenase, C-terminal domain"</title>
				<polygon class="PF00441" points="385,30 395,40 385,50" stroke-linejoin="round" width="14" height="24" fill="rgb(85,191,117)" stroke="rgb(68,152,93)" stroke-width="1" opacity="0.75" />
			</g>
		</g>
		<g>
			<title>etmM
4'-phosphopantetheinyl transferase</title>
			<polygon class="etmM
4'-phosphopantetheinyl transferase" points="401,10 414,40 401,70" fill="rgb(255,255,255)" fill-opacity="1.0" stroke="rgb(0,0,0)" stroke-width="2"  />
			<g>
				<title>ACPS (PF01648)
"4'-phosphopantetheinyl transferase superfamily"</title>
				<polygon class="PF01648" points="401,28 405,28 411,40 405,52 401,52" stroke-linejoin="round" width="11" height="24" fill="rgb(85,184,135)" stroke="rgb(68,147,108)" stroke-width="1" opacity="0.75" />
			</g>
		</g>
		<g>
			<title>etmN
S-adenosylmethionine synthetase</title>
			<polygon class="etmN
S-adenosylmethionine synthetase" points="418,25 428,25 428,10 458,40 428,70 428,55 418,55" fill="rgb(255,255,255)" fill-opacity="1.0" stroke="rgb(0,0,0)" stroke-width="2"  />
			<g>
				<title>S-AdoMet_synt_N (PF00438)
"S-adenosylmethionine synthetase, N-terminal domain"</title>
				<rect class="PF00438" x="418" y="28" stroke-linejoin="round" width="9" height="24" fill="rgb(202,217,80)" stroke="rgb(161,173,64)" stroke-width="1" opacity="0.75" />
			</g>
			<g>
				<title>S-AdoMet_synt_M (PF02772)
"S-adenosylmethionine synthetase, central domain"</title>
				<rect class="PF02772" x="430" y="28" stroke-linejoin="round" width="12" height="24" fill="rgb(81,223,98)" stroke="rgb(64,178,78)" stroke-width="1" opacity="0.75" />
			</g>
			<g>
				<title>S-AdoMet_synt_C (PF02773)
"S-adenosylmethionine synthetase, C-terminal domain"</title>
				<polygon class="PF02773" points="443,29 454,40 443,51" stroke-linejoin="round" width="13" height="24" fill="rgb(192,53,113)" stroke="rgb(153,42,90)" stroke-width="1" opacity="0.75" />
			</g>
		</g>
		<g>
			<title>etmO
adenosine kinase</title>
			<polygon class="etmO
adenosine kinase" points="460,25 462,25 462,10 492,40 462,70 462,55 460,55" fill="rgb(255,255,255)" fill-opacity="1.0" stroke="rgb(0,0,0)" stroke-width="2"  />
			<g>
				<title>PfkB (PF00294)
"pfkB family carbohydrate kinase"</title>
				<polygon class="PF00294" points="460,28 476,28 488,40 476,52 460,52" stroke-linejoin="round" width="29" height="24" fill="rgb(153,96,212)" stroke="rgb(122,76,169)" stroke-width="1" opacity="0.75" />
			</g>
		</g>
		<g>
			<title>etmP
bacterial conjugation repressor FinO</title>
			<polygon class="etmP
bacterial conjugation repressor FinO" points="531,25 525,25 525,10 495,40 525,70 525,55 531,55" fill="rgb(255,255,255)" fill-opacity="1.0" stroke="rgb(0,0,0)" stroke-width="2"  />
			<g>
				<title>GerE (PF00196)
"Bacterial regulatory proteins, luxR family"</title>
				<polygon class="PF00196" points="499,40 501,38 501,42" stroke-linejoin="round" width="5" height="24" fill="rgb(219,94,82)" stroke="rgb(175,75,65)" stroke-width="1" opacity="0.75" />
			</g>
		</g>
		<g>
			<title>etmQ
type II thioesterase</title>
			<polygon class="etmQ
type II thioesterase" points="532,40 557,10 557,70" fill="rgb(255,255,255)" fill-opacity="1.0" stroke="rgb(0,0,0)" stroke-width="2"  />
			<g>
				<title>Thioesterase (PF00975)
"Thioesterase domain"</title>
				<polygon class="PF00975" points="536,40 546,28 554,28 554,52 546,52" stroke-linejoin="round" width="22" height="24" fill="rgb(207,80,138)" stroke="rgb(165,63,110)" stroke-width="1" opacity="0.75" />
			</g>
		</g>
		<g>
			<title>etmR
TetR-family transcriptional regulator</title>
			<polygon class="etmR
TetR-family transcriptional regulator" points="596,40 611,10 611,70" fill="rgb(255,255,255)" fill-opacity="1.0" stroke="rgb(0,0,0)" stroke-width="2"  />
			<g>
				<title>TetR_N (PF00440)
"Bacterial regulatory proteins, tetR family"</title>
				<rect class="PF00440" x="608" y="28" stroke-linejoin="round" width="3" height="24" fill="rgb(73,212,190)" stroke="rgb(58,169,152)" stroke-width="1" opacity="0.75" />
			</g>
		</g>
		<g>
			<title>etmS
MFS-type transporter</title>
			<polygon class="etmS
MFS-type transporter" points="617,25 628,25 628,10 658,40 628,70 628,55 617,55" fill="rgb(255,255,255)" fill-opacity="1.0" stroke="rgb(0,0,0)" stroke-width="2"  />
			<g>
				<title>MFS_1 (PF07690)
"Major Facilitator Superfamily"</title>
				<polygon class="PF07690" points="620,28 642,28 651,37 651,43 642,52 620,52" stroke-linejoin="round" width="31" height="24" fill="rgb(193,224,74)" stroke="rgb(154,179,59)" stroke-width="1" opacity="0.75" />
			</g>
		</g>
		<g>
			<title>etmT
asparagine synthetase</title>
			<polygon class="etmT
asparagine synthetase" points="660,25 692,25 692,10 722,40 692,70 692,55 660,55" fill="rgb(255,255,255)" fill-opacity="1.0" stroke="rgb(0,0,0)" stroke-width="2"  />
			<g>
				<title>GATase_7 (PF13537)
"Glutamine amidotransferase domain"</title>
				<rect class="PF13537" x="664" y="28" stroke-linejoin="round" width="12" height="24" fill="rgb(200,63,57)" stroke="rgb(160,50,45)" stroke-width="1" opacity="0.75" />
			</g>
			<g>
				<title>Asn_synthase (PF00733)
"Asparagine synthase"</title>
				<polygon class="PF00733" points="684,28 706,28 718,40 706,52 684,52" stroke-linejoin="round" width="36" height="24" fill="rgb(97,201,176)" stroke="rgb(77,160,140)" stroke-width="1" opacity="0.75" />
			</g>
		</g>
		<g>
			<title>
calcium-independent phospholipase A2</title>
			<polygon class="
calcium-independent phospholipase A2" points="768,25 761,25 761,10 731,40 761,70 761,55 768,55" fill="rgb(255,255,255)" fill-opacity="1.0" stroke="rgb(0,0,0)" stroke-width="2"  />
		</g>
		<g>
			<title>
periplasmic Leu/Ile/Val-binding protein</title>
			<polygon class="
periplasmic Leu/Ile/Val-binding protein" points="810,25 800,25 800,10 770,40 800,70 800,55 810,55" fill="rgb(255,255,255)" fill-opacity="1.0" stroke="rgb(0,0,0)" stroke-width="2"  />
			<g>
				<title>Peripla_BP_6 (PF13458)
"Periplasmic binding protein"</title>
				<polygon class="PF13458" points="774,40 786,28 805,28 805,52 786,52" stroke-linejoin="round" width="34" height="24" fill="rgb(94,183,81)" stroke="rgb(75,146,64)" stroke-width="1" opacity="0.75" />
			</g>
		</g>
	</g>
</svg>
