<svg version="1.1" baseProfile="full" xmlns="http://www.w3.org/2000/svg" width="1352.7666666666667" height="80">
	<g>
		<line x1="10" y1="40.0" x2="1342.7666666666667" y2="40.0" style="stroke:rgb(70,70,70); stroke-width:3 "/>
		<g>
			<title>mmps4
mmps4 protein</title>
			<polygon class="mmps4
mmps4 protein" points="10,10 23,40 10,70" fill="rgb(255,255,255)" fill-opacity="1.0" stroke="rgb(0,0,0)" stroke-width="2"  />
			<g>
				<title>Mycobact_memb (PF05423)
"Mycobacterium membrane protein"</title>
				<polygon class="PF05423" points="10,28 14,28 20,40 14,52 10,52" stroke-linejoin="round" width="13" height="24" fill="rgb(64,97,225)" stroke="rgb(51,77,180)" stroke-width="1" opacity="0.75" />
			</g>
		</g>
		<g>
			<title>mmpl4a
Mmpl4a protein</title>
			<polygon class="mmpl4a
Mmpl4a protein" points="23,25 89,25 89,10 119,40 89,70 89,55 23,55" fill="rgb(255,255,255)" fill-opacity="1.0" stroke="rgb(0,0,0)" stroke-width="2"  />
			<g>
				<title>MMPL (PF03176)
"MMPL family"</title>
				<rect class="PF03176" x="28" y="28" stroke-linejoin="round" width="33" height="24" fill="rgb(228,109,193)" stroke="rgb(182,87,154)" stroke-width="1" opacity="0.75" />
			</g>
			<g>
				<title>MMPL (PF03176)
"MMPL family"</title>
				<polygon class="PF03176" points="83,28 102,28 114,40 102,52 83,52" stroke-linejoin="round" width="35" height="24" fill="rgb(228,109,193)" stroke="rgb(182,87,154)" stroke-width="1" opacity="0.75" />
			</g>
		</g>
		<g>
			<title>mmpl4b
Mmpl4b protein</title>
			<polygon class="mmpl4b
Mmpl4b protein" points="120,25 187,25 187,10 217,40 187,70 187,55 120,55" fill="rgb(255,255,255)" fill-opacity="1.0" stroke="rgb(0,0,0)" stroke-width="2"  />
			<g>
				<title>MMPL (PF03176)
"MMPL family"</title>
				<rect class="PF03176" x="125" y="28" stroke-linejoin="round" width="33" height="24" fill="rgb(228,109,193)" stroke="rgb(182,87,154)" stroke-width="1" opacity="0.75" />
			</g>
			<g>
				<title>MMPL (PF03176)
"MMPL family"</title>
				<polygon class="PF03176" points="180,28 201,28 213,40 213,40 201,52 180,52" stroke-linejoin="round" width="33" height="24" fill="rgb(228,109,193)" stroke="rgb(182,87,154)" stroke-width="1" opacity="0.75" />
			</g>
		</g>
		<g>
			<title>rv1174c
Rv1174c protein</title>
			<polygon class="rv1174c
Rv1174c protein" points="221,40 232,10 232,70" fill="rgb(255,255,255)" fill-opacity="1.0" stroke="rgb(0,0,0)" stroke-width="2"  />
		</g>
		<g>
			<title>rmlA
RmlA protein</title>
			<polygon class="rmlA
RmlA protein" points="236,40 264,10 264,70" fill="rgb(255,255,255)" fill-opacity="1.0" stroke="rgb(0,0,0)" stroke-width="2"  />
			<g>
				<title>NTP_transferase (PF00483)
"Nucleotidyl transferase"</title>
				<polygon class="PF00483" points="241,39 252,28 264,28 264,52 252,52 241,41" stroke-linejoin="round" width="23" height="24" fill="rgb(198,101,87)" stroke="rgb(158,80,69)" stroke-width="1" opacity="0.75" />
			</g>
		</g>
		<g>
			<title>gtf3
Gtf3 protein</title>
			<polygon class="gtf3
Gtf3 protein" points="284,25 292,25 292,10 322,40 292,70 292,55 284,55" fill="rgb(255,255,255)" fill-opacity="1.0" stroke="rgb(0,0,0)" stroke-width="2"  />
		</g>
		<g>
			<title>rmlB
RmlB protein</title>
			<polygon class="rmlB
RmlB protein" points="326,25 333,25 333,10 363,40 333,70 333,55 326,55" fill="rgb(255,255,255)" fill-opacity="1.0" stroke="rgb(0,0,0)" stroke-width="2"  />
			<g>
				<title>Epimerase (PF01370)
"NAD dependent epimerase/dehydratase family"</title>
				<polygon class="PF01370" points="328,28 347,28 355,36 355,44 347,52 328,52" stroke-linejoin="round" width="27" height="24" fill="rgb(98,102,214)" stroke="rgb(78,81,171)" stroke-width="1" opacity="0.75" />
			</g>
		</g>
		<g>
			<title>atf2
Atf2 protein</title>
			<polygon class="atf2
Atf2 protein" points="369,25 376,25 376,10 406,40 376,70 376,55 369,55" fill="rgb(255,255,255)" fill-opacity="1.0" stroke="rgb(0,0,0)" stroke-width="2"  />
			<g>
				<title>Acyl_transf_3 (PF01757)
"Acyltransferase family"</title>
				<polygon class="PF01757" points="370,28 390,28 401,39 401,41 390,52 370,52" stroke-linejoin="round" width="31" height="24" fill="rgb(50,152,200)" stroke="rgb(40,121,160)" stroke-width="1" opacity="0.75" />
			</g>
		</g>
		<g>
			<title>rmt2
Rmt2 protein</title>
			<polygon class="rmt2
Rmt2 protein" points="409,10 437,40 409,70" fill="rgb(255,255,255)" fill-opacity="1.0" stroke="rgb(0,0,0)" stroke-width="2"  />
			<g>
				<title>Methyltransf_24 (PF13578)
"Methyltransferase domain"</title>
				<polygon class="PF13578" points="418,28 421,28 428,35 428,45 421,52 418,52" stroke-linejoin="round" width="10" height="24" fill="rgb(106,221,159)" stroke="rgb(84,176,127)" stroke-width="1" opacity="0.75" />
			</g>
		</g>
		<g>
			<title>rmt4
Rmt4 protein</title>
			<polygon class="rmt4
Rmt4 protein" points="444,10 470,40 444,70" fill="rgb(255,255,255)" fill-opacity="1.0" stroke="rgb(0,0,0)" stroke-width="2"  />
			<g>
				<title>TylF (PF05711)
"Macrocin-O-methyltransferase (TylF)"</title>
				<polygon class="PF05711" points="444,28 455,28 466,40 455,52 444,52" stroke-linejoin="round" width="25" height="24" fill="rgb(175,228,98)" stroke="rgb(139,182,78)" stroke-width="1" opacity="0.75" />
			</g>
		</g>
		<g>
			<title>gtf1
Gtf1 protein</title>
			<polygon class="gtf1
Gtf1 protein" points="473,25 485,25 485,10 515,40 485,70 485,55 473,55" fill="rgb(255,255,255)" fill-opacity="1.0" stroke="rgb(0,0,0)" stroke-width="2"  />
			<g>
				<title>Glyco_transf_28 (PF03033)
"Glycosyltransferase family 28 N-terminal domain"</title>
				<rect class="PF03033" x="473" y="28" stroke-linejoin="round" width="13" height="24" fill="rgb(157,218,79)" stroke="rgb(125,174,63)" stroke-width="1" opacity="0.75" />
			</g>
		</g>
		<g>
			<title>atf1
atf1 protein</title>
			<polygon class="atf1
atf1 protein" points="515,25 522,25 522,10 552,40 522,70 522,55 515,55" fill="rgb(255,255,255)" fill-opacity="1.0" stroke="rgb(0,0,0)" stroke-width="2"  />
			<g>
				<title>Acyl_transf_3 (PF01757)
"Acyltransferase family"</title>
				<polygon class="PF01757" points="517,28 536,28 548,40 548,40 536,52 517,52" stroke-linejoin="round" width="31" height="24" fill="rgb(50,152,200)" stroke="rgb(40,121,160)" stroke-width="1" opacity="0.75" />
			</g>
		</g>
		<g>
			<title>rmt3
Rmt3 protein</title>
			<polygon class="rmt3
Rmt3 protein" points="556,10 582,40 556,70" fill="rgb(255,255,255)" fill-opacity="1.0" stroke="rgb(0,0,0)" stroke-width="2"  />
			<g>
				<title>TylF (PF05711)
"Macrocin-O-methyltransferase (TylF)"</title>
				<polygon class="PF05711" points="563,28 568,28 578,40 568,52 563,52" stroke-linejoin="round" width="16" height="24" fill="rgb(175,228,98)" stroke="rgb(139,182,78)" stroke-width="1" opacity="0.75" />
			</g>
		</g>
		<g>
			<title>gtf2
Gtf2 protein</title>
			<polygon class="gtf2
Gtf2 protein" points="625,25 613,25 613,10 583,40 613,70 613,55 625,55" fill="rgb(255,255,255)" fill-opacity="1.0" stroke="rgb(0,0,0)" stroke-width="2"  />
			<g>
				<title>Glyco_transf_28 (PF03033)
"Glycosyltransferase family 28 N-terminal domain"</title>
				<rect class="PF03033" x="616" y="28" stroke-linejoin="round" width="8" height="24" fill="rgb(157,218,79)" stroke="rgb(125,174,63)" stroke-width="1" opacity="0.75" />
			</g>
		</g>
		<g>
			<title>fmt
Fmt protein</title>
			<polygon class="fmt
Fmt protein" points="629,10 656,40 629,70" fill="rgb(255,255,255)" fill-opacity="1.0" stroke="rgb(0,0,0)" stroke-width="2"  />
			<g>
				<title>Methyltransf_11 (PF08241)
"Methyltransferase domain"</title>
				<polygon class="PF08241" points="637,28 640,28 646,34 646,46 640,52 637,52" stroke-linejoin="round" width="9" height="24" fill="rgb(106,219,159)" stroke="rgb(84,175,127)" stroke-width="1" opacity="0.75" />
			</g>
		</g>
		<g>
			<title>mbtH
MbtH protein</title>
			<polygon class="mbtH
MbtH protein" points="698,10 705,40 698,70" fill="rgb(255,255,255)" fill-opacity="1.0" stroke="rgb(0,0,0)" stroke-width="2"  />
			<g>
				<title>MbtH (PF03621)
"MbtH-like protein"</title>
				<polygon class="PF03621" points="698,28 699,28 702,40 699,52 698,52" stroke-linejoin="round" width="5" height="24" fill="rgb(212,165,97)" stroke="rgb(169,132,77)" stroke-width="1" opacity="0.75" />
			</g>
		</g>
		<g>
			<title>mps1
MPS1 protein</title>
			<polygon class="mps1
MPS1 protein" points="706,25 1021,25 1021,10 1051,40 1021,70 1021,55 706,55" fill="rgb(255,255,255)" fill-opacity="1.0" stroke="rgb(0,0,0)" stroke-width="2"  />
			<g>
				<title>Condensation (PF00668)
"Condensation domain"</title>
				<rect class="PF00668" x="706" y="28" stroke-linejoin="round" width="34" height="24" fill="rgb(224,184,98)" stroke="rgb(179,147,78)" stroke-width="1" opacity="0.75" />
			</g>
			<g>
				<title>AMP-binding (PF00501)
"AMP-binding enzyme"</title>
				<rect class="PF00501" x="752" y="28" stroke-linejoin="round" width="38" height="24" fill="rgb(60,217,223)" stroke="rgb(48,173,178)" stroke-width="1" opacity="0.75" />
			</g>
			<g>
				<title>AMP-binding_C (PF13193)
"AMP-binding enzyme C-terminal domain"</title>
				<rect class="PF13193" x="792" y="28" stroke-linejoin="round" width="7" height="24" fill="rgb(182,50,118)" stroke="rgb(145,39,94)" stroke-width="1" opacity="0.75" />
			</g>
			<g>
				<title>PP-binding (PF00550)
"Phosphopantetheine attachment site"</title>
				<rect class="PF00550" x="802" y="28" stroke-linejoin="round" width="6" height="24" fill="rgb(103,191,88)" stroke="rgb(82,152,70)" stroke-width="1" opacity="0.75" />
			</g>
			<g>
				<title>Condensation (PF00668)
"Condensation domain"</title>
				<rect class="PF00668" x="810" y="28" stroke-linejoin="round" width="38" height="24" fill="rgb(224,184,98)" stroke="rgb(179,147,78)" stroke-width="1" opacity="0.75" />
			</g>
			<g>
				<title>Condensation (PF00668)
"Condensation domain"</title>
				<rect class="PF00668" x="857" y="28" stroke-linejoin="round" width="43" height="24" fill="rgb(224,184,98)" stroke="rgb(179,147,78)" stroke-width="1" opacity="0.75" />
			</g>
			<g>
				<title>AMP-binding (PF00501)
"AMP-binding enzyme"</title>
				<rect class="PF00501" x="903" y="28" stroke-linejoin="round" width="40" height="24" fill="rgb(60,217,223)" stroke="rgb(48,173,178)" stroke-width="1" opacity="0.75" />
			</g>
			<g>
				<title>AMP-binding_C (PF13193)
"AMP-binding enzyme C-terminal domain"</title>
				<rect class="PF13193" x="944" y="28" stroke-linejoin="round" width="7" height="24" fill="rgb(182,50,118)" stroke="rgb(145,39,94)" stroke-width="1" opacity="0.75" />
			</g>
			<g>
				<title>PP-binding (PF00550)
"Phosphopantetheine attachment site"</title>
				<rect class="PF00550" x="954" y="28" stroke-linejoin="round" width="6" height="24" fill="rgb(103,191,88)" stroke="rgb(82,152,70)" stroke-width="1" opacity="0.75" />
			</g>
			<g>
				<title>Condensation (PF00668)
"Condensation domain"</title>
				<rect class="PF00668" x="963" y="28" stroke-linejoin="round" width="43" height="24" fill="rgb(224,184,98)" stroke="rgb(179,147,78)" stroke-width="1" opacity="0.75" />
			</g>
			<g>
				<title>Condensation (PF00668)
"Condensation domain"</title>
				<polygon class="PF00668" points="1009,28 1035,28 1047,40 1035,52 1009,52" stroke-linejoin="round" width="42" height="24" fill="rgb(224,184,98)" stroke="rgb(179,147,78)" stroke-width="1" opacity="0.75" />
			</g>
		</g>
		<g>
			<title>mps2
MPS2 protein</title>
			<polygon class="mps2
MPS2 protein" points="1052,25 1279,25 1279,10 1309,40 1279,70 1279,55 1052,55" fill="rgb(255,255,255)" fill-opacity="1.0" stroke="rgb(0,0,0)" stroke-width="2"  />
			<g>
				<title>AMP-binding (PF00501)
"AMP-binding enzyme"</title>
				<rect class="PF00501" x="1056" y="28" stroke-linejoin="round" width="38" height="24" fill="rgb(60,217,223)" stroke="rgb(48,173,178)" stroke-width="1" opacity="0.75" />
			</g>
			<g>
				<title>AMP-binding_C (PF13193)
"AMP-binding enzyme C-terminal domain"</title>
				<rect class="PF13193" x="1096" y="28" stroke-linejoin="round" width="7" height="24" fill="rgb(182,50,118)" stroke="rgb(145,39,94)" stroke-width="1" opacity="0.75" />
			</g>
			<g>
				<title>PP-binding (PF00550)
"Phosphopantetheine attachment site"</title>
				<rect class="PF00550" x="1106" y="28" stroke-linejoin="round" width="6" height="24" fill="rgb(103,191,88)" stroke="rgb(82,152,70)" stroke-width="1" opacity="0.75" />
			</g>
			<g>
				<title>Condensation (PF00668)
"Condensation domain"</title>
				<rect class="PF00668" x="1114" y="28" stroke-linejoin="round" width="39" height="24" fill="rgb(224,184,98)" stroke="rgb(179,147,78)" stroke-width="1" opacity="0.75" />
			</g>
			<g>
				<title>Condensation (PF00668)
"Condensation domain"</title>
				<rect class="PF00668" x="1161" y="28" stroke-linejoin="round" width="43" height="24" fill="rgb(224,184,98)" stroke="rgb(179,147,78)" stroke-width="1" opacity="0.75" />
			</g>
			<g>
				<title>AMP-binding (PF00501)
"AMP-binding enzyme"</title>
				<rect class="PF00501" x="1207" y="28" stroke-linejoin="round" width="39" height="24" fill="rgb(60,217,223)" stroke="rgb(48,173,178)" stroke-width="1" opacity="0.75" />
			</g>
			<g>
				<title>AMP-binding_C (PF13193)
"AMP-binding enzyme C-terminal domain"</title>
				<rect class="PF13193" x="1247" y="28" stroke-linejoin="round" width="7" height="24" fill="rgb(182,50,118)" stroke="rgb(145,39,94)" stroke-width="1" opacity="0.75" />
			</g>
			<g>
				<title>PP-binding (PF00550)
"Phosphopantetheine attachment site"</title>
				<rect class="PF00550" x="1257" y="28" stroke-linejoin="round" width="6" height="24" fill="rgb(103,191,88)" stroke="rgb(82,152,70)" stroke-width="1" opacity="0.75" />
			</g>
			<g>
				<title>NAD_binding_4 (PF07993)
"Male sterility protein"</title>
				<polygon class="PF07993" points="1269,28 1293,28 1295,30 1295,50 1293,52 1269,52" stroke-linejoin="round" width="26" height="24" fill="rgb(100,212,204)" stroke="rgb(80,169,163)" stroke-width="1" opacity="0.75" />
			</g>
		</g>
		<g>
			<title>gap
gap protein</title>
			<polygon class="gap
gap protein" points="1315,10 1341,40 1315,70" fill="rgb(255,255,255)" fill-opacity="1.0" stroke="rgb(0,0,0)" stroke-width="2"  />
			<g>
				<title>SfLAP (PF11139)
"Sap, sulfolipid-1-addressing protein"</title>
				<polygon class="PF11139" points="1315,28 1326,28 1337,40 1326,52 1315,52" stroke-linejoin="round" width="26" height="24" fill="rgb(86,70,182)" stroke="rgb(68,56,145)" stroke-width="1" opacity="0.75" />
			</g>
		</g>
	</g>
</svg>
