<svg version="1.1" baseProfile="full" xmlns="http://www.w3.org/2000/svg" width="417.1" height="80">
	<g>
		<line x1="10" y1="40.0" x2="407.1" y2="40.0" style="stroke:rgb(70,70,70); stroke-width:3 "/>
		<g>
			<title> (SAMN02787118_103369)
two component transcriptional regulator, LuxR family</title>
			<polygon class=" (SAMN02787118_103369)
two component transcriptional regulator, LuxR family" points="10,40 32,10 32,70" fill="rgb(255,255,255)" fill-opacity="1.0" stroke="rgb(0,0,0)" stroke-width="2"  />
			<g>
				<title>GerE (PF00196)
"Bacterial regulatory proteins, luxR family"</title>
				<polygon class="PF00196" points="14,40 16,37 16,43" stroke-linejoin="round" width="5" height="24" fill="rgb(219,94,82)" stroke="rgb(175,75,65)" stroke-width="1" opacity="0.75" />
			</g>
			<g>
				<title>Response_reg (PF00072)
"Response regulator receiver domain"</title>
				<polygon class="PF00072" points="20,32 23,28 31,28 31,52 23,52 20,48" stroke-linejoin="round" width="11" height="24" fill="rgb(100,107,203)" stroke="rgb(80,85,162)" stroke-width="1" opacity="0.75" />
			</g>
		</g>
		<g>
			<title> (SAMN02787118_103370)
poly-gamma-glutamate synthesis protein (capsule biosynthesis protein)</title>
			<polygon class=" (SAMN02787118_103370)
poly-gamma-glutamate synthesis protein (capsule biosynthesis protein)" points="79,25 65,25 65,10 35,40 65,70 65,55 79,55" fill="rgb(255,255,255)" fill-opacity="1.0" stroke="rgb(0,0,0)" stroke-width="2"  />
			<g>
				<title>PGA_cap (PF09587)
"Bacterial capsule synthesis protein PGA_cap"</title>
				<polygon class="PF09587" points="47,32 51,28 78,28 78,52 51,52 47,48" stroke-linejoin="round" width="31" height="24" fill="rgb(179,65,131)" stroke="rgb(143,52,104)" stroke-width="1" opacity="0.75" />
			</g>
		</g>
		<g>
			<title> (SAMN02787118_103371)
Protein-disulfide isomerase</title>
			<polygon class=" (SAMN02787118_103371)
Protein-disulfide isomerase" points="79,40 103,10 103,70" fill="rgb(255,255,255)" fill-opacity="1.0" stroke="rgb(0,0,0)" stroke-width="2"  />
			<g>
				<title>Thioredoxin_4 (PF13462)
"Thioredoxin"</title>
				<polygon class="PF13462" points="83,40 93,28 95,28 95,52 93,52" stroke-linejoin="round" width="16" height="24" fill="rgb(46,180,48)" stroke="rgb(36,144,38)" stroke-width="1" opacity="0.75" />
			</g>
		</g>
		<g>
			<title> (SAMN02787118_103372)
Methylamine utilisation protein MauE</title>
			<polygon class=" (SAMN02787118_103372)
Methylamine utilisation protein MauE" points="103,40 120,10 120,70" fill="rgb(255,255,255)" fill-opacity="1.0" stroke="rgb(0,0,0)" stroke-width="2"  />
			<g>
				<title>MauE (PF07291)
"Methylamine utilisation protein MauE"</title>
				<polygon class="PF07291" points="106,40 113,28 117,28 117,52 113,52" stroke-linejoin="round" width="13" height="24" fill="rgb(177,83,181)" stroke="rgb(141,66,144)" stroke-width="1" opacity="0.75" />
			</g>
		</g>
		<g>
			<title> (SAMN02787118_103373)
ABC-2 type transport system permease protein</title>
			<polygon class=" (SAMN02787118_103373)
ABC-2 type transport system permease protein" points="122,40 151,10 151,70" fill="rgb(255,255,255)" fill-opacity="1.0" stroke="rgb(0,0,0)" stroke-width="2"  />
			<g>
				<title>ABC2_membrane (PF01061)
"ABC-2 type transporter"</title>
				<polygon class="PF01061" points="126,40 138,28 147,28 147,52 138,52 126,40" stroke-linejoin="round" width="21" height="24" fill="rgb(139,217,106)" stroke="rgb(111,173,84)" stroke-width="1" opacity="0.75" />
			</g>
		</g>
		<g>
			<title> (SAMN02787118_103374)
ABC-2 type transport system ATP-binding protein</title>
			<polygon class=" (SAMN02787118_103374)
ABC-2 type transport system ATP-binding protein" points="182,25 180,25 180,10 150,40 180,70 180,55 182,55" fill="rgb(255,255,255)" fill-opacity="1.0" stroke="rgb(0,0,0)" stroke-width="2"  />
			<g>
				<title>ABC_tran (PF00005)
"ABC transporter"</title>
				<polygon class="PF00005" points="165,29 166,28 179,28 179,52 166,52 165,51" stroke-linejoin="round" width="14" height="24" fill="rgb(129,201,63)" stroke="rgb(103,160,50)" stroke-width="1" opacity="0.75" />
			</g>
		</g>
		<g>
			<title> (SAMN02787118_103375)
Transglutaminase-like superfamily protein</title>
			<polygon class=" (SAMN02787118_103375)
Transglutaminase-like superfamily protein" points="183,40 199,10 199,70" fill="rgb(255,255,255)" fill-opacity="1.0" stroke="rgb(0,0,0)" stroke-width="2"  />
			<g>
				<title>Transglut_core3 (PF13471)
"Transglutaminase-like superfamily"</title>
				<polygon class="PF13471" points="186,40 193,28 197,28 197,52 193,52 186,40" stroke-linejoin="round" width="11" height="24" fill="rgb(63,111,179)" stroke="rgb(50,88,143)" stroke-width="1" opacity="0.75" />
			</g>
		</g>
		<g>
			<title> (SAMN02787118_103376)
Coenzyme PQQ synthesis protein D (PqqD)</title>
			<polygon class=" (SAMN02787118_103376)
Coenzyme PQQ synthesis protein D (PqqD)" points="199,40 207,10 207,70" fill="rgb(255,255,255)" fill-opacity="1.0" stroke="rgb(0,0,0)" stroke-width="2"  />
			<g>
				<title>PqqD (PF05402)
"Coenzyme PQQ synthesis protein D (PqqD)"</title>
				<polygon class="PF05402" points="202,40 205,30 205,50" stroke-linejoin="round" width="6" height="24" fill="rgb(124,62,188)" stroke="rgb(99,49,150)" stroke-width="1" opacity="0.75" />
			</g>
		</g>
		<g>
			<title> (SAMN02787118_103377)
asparagine synthase (glutamine-hydrolysing)</title>
			<polygon class=" (SAMN02787118_103377)
asparagine synthase (glutamine-hydrolysing)" points="268,25 237,25 237,10 207,40 237,70 237,55 268,55" fill="rgb(255,255,255)" fill-opacity="1.0" stroke="rgb(0,0,0)" stroke-width="2"  />
			<g>
				<title>Asn_synthase (PF00733)
"Asparagine synthase"</title>
				<polygon class="PF00733" points="211,40 223,28 247,28 247,52 223,52" stroke-linejoin="round" width="38" height="24" fill="rgb(97,201,176)" stroke="rgb(77,160,140)" stroke-width="1" opacity="0.75" />
			</g>
		</g>
		<g>
			<title> (SAMN02787118_103378)
hypothetical protein</title>
			<polygon class=" (SAMN02787118_103378)
hypothetical protein" points="271,40 278,10 278,70" fill="rgb(255,255,255)" fill-opacity="1.0" stroke="rgb(0,0,0)" stroke-width="2"  />
		</g>
		<g>
			<title> (SAMN02787118_103379)
ABC-2 family transporter protein</title>
			<polygon class=" (SAMN02787118_103379)
ABC-2 family transporter protein" points="279,40 304,10 304,70" fill="rgb(255,255,255)" fill-opacity="1.0" stroke="rgb(0,0,0)" stroke-width="2"  />
			<g>
				<title>ABC2_membrane_4 (PF12730)
"ABC-2 family transporter protein"</title>
				<polygon class="PF12730" points="284,39 293,28 303,28 303,52 293,52 284,41" stroke-linejoin="round" width="19" height="24" fill="rgb(203,161,59)" stroke="rgb(162,128,47)" stroke-width="1" opacity="0.75" />
			</g>
		</g>
		<g>
			<title> (SAMN02787118_103380)
ABC-2 type transport system ATP-binding protein</title>
			<polygon class=" (SAMN02787118_103380)
ABC-2 type transport system ATP-binding protein" points="335,25 334,25 334,10 304,40 334,70 334,55 335,55" fill="rgb(255,255,255)" fill-opacity="1.0" stroke="rgb(0,0,0)" stroke-width="2"  />
			<g>
				<title>ABC_tran (PF00005)
"ABC transporter"</title>
				<polygon class="PF00005" points="320,28 320,28 333,28 333,52 320,52 320,52" stroke-linejoin="round" width="13" height="24" fill="rgb(129,201,63)" stroke="rgb(103,160,50)" stroke-width="1" opacity="0.75" />
			</g>
		</g>
		<g>
			<title> (SAMN02787118_103381)
Signal transduction histidine kinase</title>
			<polygon class=" (SAMN02787118_103381)
Signal transduction histidine kinase" points="378,25 371,25 371,10 341,40 371,70 371,55 378,55" fill="rgb(255,255,255)" fill-opacity="1.0" stroke="rgb(0,0,0)" stroke-width="2"  />
			<g>
				<title>HisKA_3 (PF07730)
"Histidine kinase"</title>
				<polygon class="PF07730" points="354,31 357,28 360,28 360,52 357,52 354,49" stroke-linejoin="round" width="6" height="24" fill="rgb(190,53,146)" stroke="rgb(152,42,116)" stroke-width="1" opacity="0.75" />
			</g>
		</g>
		<g>
			<title> (SAMN02787118_103382)
DNA-binding response regulator, NarL/FixJ family, contains REC and HTH domains</title>
			<polygon class=" (SAMN02787118_103382)
DNA-binding response regulator, NarL/FixJ family, contains REC and HTH domains" points="384,10 407,40 384,70" fill="rgb(255,255,255)" fill-opacity="1.0" stroke="rgb(0,0,0)" stroke-width="2"  />
			<g>
				<title>GerE (PF00196)
"Bacterial regulatory proteins, luxR family"</title>
				<polygon class="PF00196" points="399,35 403,40 399,45" stroke-linejoin="round" width="5" height="24" fill="rgb(219,94,82)" stroke="rgb(175,75,65)" stroke-width="1" opacity="0.75" />
			</g>
		</g>
	</g>
</svg>
