<svg version="1.1" baseProfile="full" xmlns="http://www.w3.org/2000/svg" width="604.6666666666666" height="80">
	<g>
		<line x1="10" y1="40.0" x2="594.6666666666666" y2="40.0" style="stroke:rgb(70,70,70); stroke-width:3 "/>
		<g>
			<title>chaK
ChaK protein</title>
			<polygon class="chaK
ChaK protein" points="37,40 51,10 51,70" fill="rgb(255,255,255)" fill-opacity="1.0" stroke="rgb(0,0,0)" stroke-width="2"  />
			<g>
				<title>SnoaL (PF07366)
"SnoaL-like polyketide cyclase"</title>
				<polygon class="PF07366" points="40,40 46,28 51,28 51,52 46,52" stroke-linejoin="round" width="13" height="24" fill="rgb(206,89,111)" stroke="rgb(164,71,88)" stroke-width="1" opacity="0.75" />
			</g>
		</g>
		<g>
			<title>chaL
ChaL protein</title>
			<polygon class="chaL
ChaL protein" points="53,40 77,10 77,70" fill="rgb(255,255,255)" fill-opacity="1.0" stroke="rgb(0,0,0)" stroke-width="2"  />
			<g>
				<title>adh_short_C2 (PF13561)
"Enoyl-(Acyl carrier protein) reductase"</title>
				<polygon class="PF13561" points="57,40 67,28 76,28 76,52 67,52" stroke-linejoin="round" width="23" height="24" fill="rgb(73,205,127)" stroke="rgb(58,164,101)" stroke-width="1" opacity="0.75" />
			</g>
		</g>
		<g>
			<title>chaZ
ChaZ protein</title>
			<polygon class="chaZ
ChaZ protein" points="83,10 109,40 83,70" fill="rgb(255,255,255)" fill-opacity="1.0" stroke="rgb(0,0,0)" stroke-width="2"  />
			<g>
				<title>adh_short (PF00106)
"short chain dehydrogenase"</title>
				<polygon class="PF00106" points="83,28 95,28 102,37 102,43 95,52 83,52" stroke-linejoin="round" width="19" height="24" fill="rgb(182,219,73)" stroke="rgb(145,175,58)" stroke-width="1" opacity="0.75" />
			</g>
		</g>
		<g>
			<title>chaI
ChaI protein</title>
			<polygon class="chaI
ChaI protein" points="156,40 184,10 184,70" fill="rgb(255,255,255)" fill-opacity="1.0" stroke="rgb(0,0,0)" stroke-width="2"  />
			<g>
				<title>Methyltransf_25 (PF13649)
"Methyltransferase domain"</title>
				<polygon class="PF13649" points="170,30 171,28 179,28 179,52 171,52 170,50" stroke-linejoin="round" width="9" height="24" fill="rgb(227,135,74)" stroke="rgb(181,108,59)" stroke-width="1" opacity="0.75" />
			</g>
		</g>
		<g>
			<title>chaJ
ChaJ protein</title>
			<polygon class="chaJ
ChaJ protein" points="192,10 205,40 192,70" fill="rgb(255,255,255)" fill-opacity="1.0" stroke="rgb(0,0,0)" stroke-width="2"  />
			<g>
				<title>SnoaL (PF07366)
"SnoaL-like polyketide cyclase"</title>
				<polygon class="PF07366" points="192,28 196,28 202,40 196,52 192,52" stroke-linejoin="round" width="12" height="24" fill="rgb(206,89,111)" stroke="rgb(164,71,88)" stroke-width="1" opacity="0.75" />
			</g>
		</g>
		<g>
			<title>chaT1
ChaT1 protein</title>
			<polygon class="chaT1
ChaT1 protein" points="217,25 241,25 241,10 271,40 241,70 241,55 217,55" fill="rgb(255,255,255)" fill-opacity="1.0" stroke="rgb(0,0,0)" stroke-width="2"  />
			<g>
				<title>MFS_1 (PF07690)
"Major Facilitator Superfamily"</title>
				<polygon class="PF07690" points="219,28 255,28 258,31 258,49 255,52 219,52" stroke-linejoin="round" width="39" height="24" fill="rgb(193,224,74)" stroke="rgb(154,179,59)" stroke-width="1" opacity="0.75" />
			</g>
		</g>
		<g>
			<title>chaO
ChaO protein</title>
			<polygon class="chaO
ChaO protein" points="278,25 286,25 286,10 316,40 286,70 286,55 278,55" fill="rgb(255,255,255)" fill-opacity="1.0" stroke="rgb(0,0,0)" stroke-width="2"  />
			<g>
				<title>Acyl-CoA_dh_N (PF02771)
"Acyl-CoA dehydrogenase, N-terminal domain"</title>
				<rect class="PF02771" x="278" y="28" stroke-linejoin="round" width="11" height="24" fill="rgb(105,135,218)" stroke="rgb(84,108,174)" stroke-width="1" opacity="0.75" />
			</g>
			<g>
				<title>Acyl-CoA_dh_M (PF02770)
"Acyl-CoA dehydrogenase, middle domain"</title>
				<rect class="PF02770" x="290" y="28" stroke-linejoin="round" width="9" height="24" fill="rgb(225,186,97)" stroke="rgb(180,148,77)" stroke-width="1" opacity="0.75" />
			</g>
			<g>
				<title>Acyl-CoA_dh_1 (PF00441)
"Acyl-CoA dehydrogenase, C-terminal domain"</title>
				<polygon class="PF00441" points="301,29 312,40 301,51" stroke-linejoin="round" width="14" height="24" fill="rgb(85,191,117)" stroke="rgb(68,152,93)" stroke-width="1" opacity="0.75" />
			</g>
		</g>
		<g>
			<title>chaQ
hypothetical protein</title>
			<polygon class="chaQ
hypothetical protein" points="323,10 347,40 323,70" fill="rgb(255,255,255)" fill-opacity="1.0" stroke="rgb(0,0,0)" stroke-width="2"  />
			<g>
				<title>SRAP (PF02586)
"SOS response associated peptidase (SRAP)"</title>
				<polygon class="PF02586" points="323,28 334,28 344,40 334,52 323,52" stroke-linejoin="round" width="23" height="24" fill="rgb(152,181,61)" stroke="rgb(121,144,48)" stroke-width="1" opacity="0.75" />
			</g>
		</g>
		<g>
			<title>chaT2
ChaT2 protein</title>
			<polygon class="chaT2
ChaT2 protein" points="352,25 352,25 352,10 382,40 352,70 352,55 352,55" fill="rgb(255,255,255)" fill-opacity="1.0" stroke="rgb(0,0,0)" stroke-width="2"  />
			<g>
				<title>ZnuA (PF01297)
"Zinc-uptake complex component A periplasmic"</title>
				<polygon class="PF01297" points="356,28 366,28 378,40 366,52 356,52" stroke-linejoin="round" width="26" height="24" fill="rgb(78,178,130)" stroke="rgb(62,142,104)" stroke-width="1" opacity="0.75" />
			</g>
		</g>
		<g>
			<title>chaT3
ChaT3 protein</title>
			<polygon class="chaT3
ChaT3 protein" points="385,10 412,40 385,70" fill="rgb(255,255,255)" fill-opacity="1.0" stroke="rgb(0,0,0)" stroke-width="2"  />
			<g>
				<title>ABC_tran (PF00005)
"ABC transporter"</title>
				<polygon class="PF00005" points="387,28 396,28 401,33 401,47 396,52 387,52" stroke-linejoin="round" width="14" height="24" fill="rgb(129,201,63)" stroke="rgb(103,160,50)" stroke-width="1" opacity="0.75" />
			</g>
		</g>
		<g>
			<title>chaT4
ChaT4 protein</title>
			<polygon class="chaT4
ChaT4 protein" points="412,10 441,40 412,70" fill="rgb(255,255,255)" fill-opacity="1.0" stroke="rgb(0,0,0)" stroke-width="2"  />
			<g>
				<title>ABC-3 (PF00950)
"ABC 3 transport family"</title>
				<polygon class="PF00950" points="414,28 424,28 436,40 424,52 414,52" stroke-linejoin="round" width="25" height="24" fill="rgb(190,102,215)" stroke="rgb(152,81,172)" stroke-width="1" opacity="0.75" />
			</g>
		</g>
		<g>
			<title>chaT5
ChaT5 protein</title>
			<polygon class="chaT5
ChaT5 protein" points="442,25 480,25 480,10 510,40 480,70 480,55 442,55" fill="rgb(255,255,255)" fill-opacity="1.0" stroke="rgb(0,0,0)" stroke-width="2"  />
			<g>
				<title>E1-E2_ATPase (PF00122)
"E1-E2 ATPase"</title>
				<rect class="PF00122" x="456" y="28" stroke-linejoin="round" width="18" height="24" fill="rgb(149,204,70)" stroke="rgb(119,163,56)" stroke-width="1" opacity="0.75" />
			</g>
			<g>
				<title>Hydrolase (PF00702)
"haloacid dehalogenase-like hydrolase"</title>
				<polygon class="PF00702" points="475,28 494,28 498,32 498,48 494,52 475,52" stroke-linejoin="round" width="23" height="24" fill="rgb(68,220,102)" stroke="rgb(54,176,81)" stroke-width="1" opacity="0.75" />
			</g>
		</g>
		<g>
			<title>chaR3
ChaR3 protein</title>
			<polygon class="chaR3
ChaR3 protein" points="549,25 544,25 544,10 514,40 544,70 544,55 549,55" fill="rgb(255,255,255)" fill-opacity="1.0" stroke="rgb(0,0,0)" stroke-width="2"  />
			<g>
				<title>Peripla_BP_3 (PF13377)
"Periplasmic binding protein-like domain"</title>
				<polygon class="PF13377" points="518,40 529,29 529,51" stroke-linejoin="round" width="15" height="24" fill="rgb(101,208,189)" stroke="rgb(80,166,151)" stroke-width="1" opacity="0.75" />
			</g>
			<g>
				<title>LacI (PF00356)
"Bacterial regulatory proteins, lacI family"</title>
				<rect class="PF00356" x="542" y="28" stroke-linejoin="round" width="4" height="24" fill="rgb(66,188,63)" stroke="rgb(52,150,50)" stroke-width="1" opacity="0.75" />
			</g>
		</g>
	</g>
</svg>
