<svg version="1.1" baseProfile="full" xmlns="http://www.w3.org/2000/svg" width="222.53333333333333" height="80">
	<g>
		<line x1="10" y1="40.0" x2="212.53333333333333" y2="40.0" style="stroke:rgb(70,70,70); stroke-width:3 "/>
		<g>
			<title> (Pden_2383)
Isochorismatase</title>
			<polygon class=" (Pden_2383)
Isochorismatase" points="50,10 71,40 50,70" fill="rgb(255,255,255)" fill-opacity="1.0" stroke="rgb(0,0,0)" stroke-width="2"  />
			<g>
				<title>Isochorismatase (PF00857)
"Isochorismatase family"</title>
				<polygon class="PF00857" points="53,28 59,28 68,40 59,52 53,52" stroke-linejoin="round" width="17" height="24" fill="rgb(144,224,70)" stroke="rgb(115,179,56)" stroke-width="1" opacity="0.75" />
			</g>
		</g>
		<g>
			<title> (Pden_2384)
short-chain dehydrogenase/reductase SDR</title>
			<polygon class=" (Pden_2384)
short-chain dehydrogenase/reductase SDR" points="71,10 96,40 71,70" fill="rgb(255,255,255)" fill-opacity="1.0" stroke="rgb(0,0,0)" stroke-width="2"  />
			<g>
				<title>adh_short_C2 (PF13561)
"Enoyl-(Acyl carrier protein) reductase"</title>
				<polygon class="PF13561" points="72,28 82,28 92,40 82,52 72,52" stroke-linejoin="round" width="23" height="24" fill="rgb(73,205,127)" stroke="rgb(58,164,101)" stroke-width="1" opacity="0.75" />
			</g>
		</g>
		<g>
			<title> (Pden_2386)
2,3-dihydroxybenzoate-AMP ligase</title>
			<polygon class=" (Pden_2386)
2,3-dihydroxybenzoate-AMP ligase" points="161,25 137,25 137,10 107,40 137,70 137,55 161,55" fill="rgb(255,255,255)" fill-opacity="1.0" stroke="rgb(0,0,0)" stroke-width="2"  />
			<g>
				<title>AMP-binding_C (PF13193)
"AMP-binding enzyme C-terminal domain"</title>
				<polygon class="PF13193" points="111,40 115,36 115,44" stroke-linejoin="round" width="7" height="24" fill="rgb(182,50,118)" stroke="rgb(145,39,94)" stroke-width="1" opacity="0.75" />
			</g>
			<g>
				<title>AMP-binding (PF00501)
"AMP-binding enzyme"</title>
				<polygon class="PF00501" points="117,34 123,28 157,28 157,52 123,52 117,46" stroke-linejoin="round" width="40" height="24" fill="rgb(60,217,223)" stroke="rgb(48,173,178)" stroke-width="1" opacity="0.75" />
			</g>
		</g>
		<g>
			<title> (Pden_2387)
condensation domain protein</title>
			<polygon class=" (Pden_2387)
condensation domain protein" points="167,25 182,25 182,10 212,40 182,70 182,55 167,55" fill="rgb(255,255,255)" fill-opacity="1.0" stroke="rgb(0,0,0)" stroke-width="2"  />
			<g>
				<title>Condensation (PF00668)
"Condensation domain"</title>
				<polygon class="PF00668" points="168,28 195,28 204,37 204,43 195,52 168,52" stroke-linejoin="round" width="36" height="24" fill="rgb(224,184,98)" stroke="rgb(179,147,78)" stroke-width="1" opacity="0.75" />
			</g>
		</g>
	</g>
</svg>
