<svg version="1.1" baseProfile="full" xmlns="http://www.w3.org/2000/svg" width="309.8333333333333" height="80">
	<g>
		<line x1="10" y1="40.0" x2="299.8333333333333" y2="40.0" style="stroke:rgb(70,70,70); stroke-width:3 "/>
		<g>
			<title>yvnB (BSU_35040)
putative exported hydrolase</title>
			<polygon class="yvnB (BSU_35040)
putative exported hydrolase" points="139,25 40,25 40,10 10,40 40,70 40,55 139,55" fill="rgb(255,255,255)" fill-opacity="1.0" stroke="rgb(0,0,0)" stroke-width="2"  />
			<g>
				<title>Metallophos (PF00149)
"Calcineurin-like phosphoesterase"</title>
				<rect class="PF00149" x="27" y="28" stroke-linejoin="round" width="19" height="24" fill="rgb(181,197,58)" stroke="rgb(144,157,46)" stroke-width="1" opacity="0.75" />
			</g>
		</g>
		<g>
			<title>yvnA (BSU_35050)
putative transcriptional regulator</title>
			<polygon class="yvnA (BSU_35050)
putative transcriptional regulator" points="144,10 159,40 144,70" fill="rgb(255,255,255)" fill-opacity="1.0" stroke="rgb(0,0,0)" stroke-width="2"  />
			<g>
				<title>MarR (PF01047)
"MarR family"</title>
				<polygon class="PF01047" points="148,28 149,28 153,34 153,46 149,52 148,52" stroke-linejoin="round" width="5" height="24" fill="rgb(60,185,86)" stroke="rgb(48,148,68)" stroke-width="1" opacity="0.75" />
			</g>
		</g>
		<g>
			<title>cypX (BSU_35060)
cyclo-L-leucyl-L-leucyl dipeptide oxidase, pulcheriminic synthase</title>
			<polygon class="cypX (BSU_35060)
cyclo-L-leucyl-L-leucyl dipeptide oxidase, pulcheriminic synthase" points="201,25 191,25 191,10 161,40 191,70 191,55 201,55" fill="rgb(255,255,255)" fill-opacity="1.0" stroke="rgb(0,0,0)" stroke-width="2"  />
			<g>
				<title>p450 (PF00067)
"Cytochrome P450"</title>
				<polygon class="PF00067" points="165,40 177,28 200,28 200,52 177,52" stroke-linejoin="round" width="37" height="24" fill="rgb(85,216,107)" stroke="rgb(68,172,85)" stroke-width="1" opacity="0.75" />
			</g>
		</g>
		<g>
			<title>pchC (BSU_35070)
cyclodipeptide synthase (tRNA-dependent), pulcherimminic acid precursor</title>
			<polygon class="pchC (BSU_35070)
cyclodipeptide synthase (tRNA-dependent), pulcherimminic acid precursor" points="202,40 226,10 226,70" fill="rgb(255,255,255)" fill-opacity="1.0" stroke="rgb(0,0,0)" stroke-width="2"  />
			<g>
				<title>CDPS (PF16715)
"Cyclodipeptide synthase"</title>
				<polygon class="PF16715" points="206,40 216,28 225,28 225,52 216,52" stroke-linejoin="round" width="22" height="24" fill="rgb(66,210,97)" stroke="rgb(52,168,77)" stroke-width="1" opacity="0.75" />
			</g>
		</g>
		<g>
			<title>pchR (BSU_35080)
transcriptional regulator for pulcherriminic acid synthesis</title>
			<polygon class="pchR (BSU_35080)
transcriptional regulator for pulcherriminic acid synthesis" points="241,10 258,40 241,70" fill="rgb(255,255,255)" fill-opacity="1.0" stroke="rgb(0,0,0)" stroke-width="2"  />
			<g>
				<title>MarR (PF01047)
"MarR family"</title>
				<polygon class="PF01047" points="245,28 247,28 250,32 250,48 247,52 245,52" stroke-linejoin="round" width="5" height="24" fill="rgb(60,185,86)" stroke="rgb(48,148,68)" stroke-width="1" opacity="0.75" />
			</g>
		</g>
		<g>
			<title>pchE (BSU_35090)
pulcherriminic acid efflux transporter</title>
			<polygon class="pchE (BSU_35090)
pulcherriminic acid efflux transporter" points="259,25 269,25 269,10 299,40 269,70 269,55 259,55" fill="rgb(255,255,255)" fill-opacity="1.0" stroke="rgb(0,0,0)" stroke-width="2"  />
			<g>
				<title>MFS_1 (PF07690)
"Major Facilitator Superfamily"</title>
				<polygon class="PF07690" points="260,28 283,28 294,39 294,41 283,52 260,52" stroke-linejoin="round" width="34" height="24" fill="rgb(193,224,74)" stroke="rgb(154,179,59)" stroke-width="1" opacity="0.75" />
			</g>
		</g>
	</g>
</svg>
