<svg version="1.1" baseProfile="full" xmlns="http://www.w3.org/2000/svg" width="1040.0" height="80">
	<g>
		<line x1="10" y1="40.0" x2="1030.0" y2="40.0" style="stroke:rgb(70,70,70); stroke-width:3 "/>
		<g>
			<title> (AB852_23445)
hypothetical protein</title>
			<polygon class=" (AB852_23445)
hypothetical protein" points="55,25 89,25 89,10 119,40 89,70 89,55 55,55" fill="rgb(255,255,255)" fill-opacity="1.0" stroke="rgb(0,0,0)" stroke-width="2"  />
			<g>
				<title>Trp_halogenase (PF04820)
"Tryptophan halogenase"</title>
				<polygon class="PF04820" points="63,28 103,28 108,33 108,47 103,52 63,52" stroke-linejoin="round" width="45" height="24" fill="rgb(179,74,194)" stroke="rgb(143,59,155)" stroke-width="1" opacity="0.75" />
			</g>
		</g>
		<g>
			<title> (AB852_23450)
hypothetical protein</title>
			<polygon class=" (AB852_23450)
hypothetical protein" points="119,10 133,40 119,70" fill="rgb(255,255,255)" fill-opacity="1.0" stroke="rgb(0,0,0)" stroke-width="2"  />
			<g>
				<title>Putative_PNPOx (PF01243)
"Pyridoxamine 5'-phosphate oxidase"</title>
				<polygon class="PF01243" points="120,28 124,28 128,36 128,44 124,52 120,52" stroke-linejoin="round" width="8" height="24" fill="rgb(177,193,67)" stroke="rgb(141,154,53)" stroke-width="1" opacity="0.75" />
			</g>
		</g>
		<g>
			<title> (AB852_23455)
hypothetical protein</title>
			<polygon class=" (AB852_23455)
hypothetical protein" points="162,10 168,40 162,70" fill="rgb(255,255,255)" fill-opacity="1.0" stroke="rgb(0,0,0)" stroke-width="2"  />
		</g>
		<g>
			<title> (AB852_23460)
hypothetical protein</title>
			<polygon class=" (AB852_23460)
hypothetical protein" points="170,25 199,25 199,10 229,40 199,70 199,55 170,55" fill="rgb(255,255,255)" fill-opacity="1.0" stroke="rgb(0,0,0)" stroke-width="2"  />
		</g>
		<g>
			<title> (AB852_23465)
hypothetical protein</title>
			<polygon class=" (AB852_23465)
hypothetical protein" points="229,25 281,25 281,10 311,40 281,70 281,55 229,55" fill="rgb(255,255,255)" fill-opacity="1.0" stroke="rgb(0,0,0)" stroke-width="2"  />
			<g>
				<title>Lant_dehydr_N (PF04738)
"Lantibiotic dehydratase, N terminus"</title>
				<rect class="PF04738" x="243" y="28" stroke-linejoin="round" width="41" height="24" fill="rgb(219,60,229)" stroke="rgb(175,47,183)" stroke-width="1" opacity="0.75" />
			</g>
		</g>
		<g>
			<title> (AB852_23470)
hypothetical protein</title>
			<polygon class=" (AB852_23470)
hypothetical protein" points="318,25 364,25 364,10 394,40 364,70 364,55 318,55" fill="rgb(255,255,255)" fill-opacity="1.0" stroke="rgb(0,0,0)" stroke-width="2"  />
		</g>
		<g>
			<title> (AB852_23475)
hypothetical protein</title>
			<polygon class=" (AB852_23475)
hypothetical protein" points="394,25 414,25 414,10 444,40 414,70 414,55 394,55" fill="rgb(255,255,255)" fill-opacity="1.0" stroke="rgb(0,0,0)" stroke-width="2"  />
		</g>
		<g>
			<title> (AB852_23480)
lantibiotic dehydratase</title>
			<polygon class=" (AB852_23480)
lantibiotic dehydratase" points="445,25 504,25 504,10 534,40 504,70 504,55 445,55" fill="rgb(255,255,255)" fill-opacity="1.0" stroke="rgb(0,0,0)" stroke-width="2"  />
		</g>
		<g>
			<title> (AB852_23485)
hypothetical protein</title>
			<polygon class=" (AB852_23485)
hypothetical protein" points="534,25 547,25 547,10 577,40 547,70 547,55 534,55" fill="rgb(255,255,255)" fill-opacity="1.0" stroke="rgb(0,0,0)" stroke-width="2"  />
			<g>
				<title>PmbA_TldD_C (PF19289)
"PmbA/TldA metallopeptidase C-terminal domain"</title>
				<polygon class="PF19289" points="551,28 561,28 565,32 565,48 561,52 551,52" stroke-linejoin="round" width="14" height="24" fill="rgb(180,66,115)" stroke="rgb(144,52,92)" stroke-width="1" opacity="0.75" />
			</g>
		</g>
		<g>
			<title> (AB852_23490)
hypothetical protein</title>
			<polygon class=" (AB852_23490)
hypothetical protein" points="578,25 585,25 585,10 615,40 585,70 585,55 578,55" fill="rgb(255,255,255)" fill-opacity="1.0" stroke="rgb(0,0,0)" stroke-width="2"  />
		</g>
		<g>
			<title> (AB852_23495)
FAD-dependent oxidoreductase</title>
			<polygon class=" (AB852_23495)
FAD-dependent oxidoreductase" points="615,25 621,25 621,10 651,40 621,70 621,55 615,55" fill="rgb(255,255,255)" fill-opacity="1.0" stroke="rgb(0,0,0)" stroke-width="2"  />
			<g>
				<title>DAO (PF01266)
"FAD dependent oxidoreductase"</title>
				<polygon class="PF01266" points="615,28 634,28 646,40 634,52 615,52" stroke-linejoin="round" width="32" height="24" fill="rgb(123,179,59)" stroke="rgb(98,143,47)" stroke-width="1" opacity="0.75" />
			</g>
		</g>
		<g>
			<title> (AB852_23500)
hypothetical protein</title>
			<polygon class=" (AB852_23500)
hypothetical protein" points="651,10 673,40 651,70" fill="rgb(255,255,255)" fill-opacity="1.0" stroke="rgb(0,0,0)" stroke-width="2"  />
			<g>
				<title>Glyoxalase_3 (PF13468)
"Glyoxalase-like domain"</title>
				<polygon class="PF13468" points="651,28 660,28 669,40 669,40 660,52 651,52" stroke-linejoin="round" width="18" height="24" fill="rgb(101,113,206)" stroke="rgb(80,90,164)" stroke-width="1" opacity="0.75" />
			</g>
		</g>
		<g>
			<title> (AB852_23510)
NADPH-dependent FMN reductase</title>
			<polygon class=" (AB852_23510)
NADPH-dependent FMN reductase" points="702,10 723,40 702,70" fill="rgb(255,255,255)" fill-opacity="1.0" stroke="rgb(0,0,0)" stroke-width="2"  />
			<g>
				<title>FMN_red (PF03358)
"NADPH-dependent FMN reductase"</title>
				<polygon class="PF03358" points="702,28 711,28 716,35 716,45 711,52 702,52" stroke-linejoin="round" width="14" height="24" fill="rgb(90,228,61)" stroke="rgb(72,182,48)" stroke-width="1" opacity="0.75" />
			</g>
		</g>
		<g>
			<title> (AB852_23515)
hypothetical protein</title>
			<polygon class=" (AB852_23515)
hypothetical protein" points="724,25 777,25 777,10 807,40 777,70 777,55 724,55" fill="rgb(255,255,255)" fill-opacity="1.0" stroke="rgb(0,0,0)" stroke-width="2"  />
			<g>
				<title>Lant_dehydr_N (PF04738)
"Lantibiotic dehydratase, N terminus"</title>
				<polygon class="PF04738" points="795,33 802,40 802,40 795,47" stroke-linejoin="round" width="7" height="24" fill="rgb(219,60,229)" stroke="rgb(175,47,183)" stroke-width="1" opacity="0.75" />
			</g>
		</g>
		<g>
			<title> (AB852_23520)
peptidase M20</title>
			<polygon class=" (AB852_23520)
peptidase M20" points="811,25 820,25 820,10 850,40 820,70 820,55 811,55" fill="rgb(255,255,255)" fill-opacity="1.0" stroke="rgb(0,0,0)" stroke-width="2"  />
			<g>
				<title>Peptidase_M20 (PF01546)
"Peptidase family M20/M25/M40"</title>
				<polygon class="PF01546" points="818,28 834,28 845,39 845,41 834,52 818,52" stroke-linejoin="round" width="27" height="24" fill="rgb(88,213,108)" stroke="rgb(70,170,86)" stroke-width="1" opacity="0.75" />
			</g>
		</g>
		<g>
			<title> (AB852_23525)
hypothetical protein</title>
			<polygon class=" (AB852_23525)
hypothetical protein" points="855,40 880,10 880,70" fill="rgb(255,255,255)" fill-opacity="1.0" stroke="rgb(0,0,0)" stroke-width="2"  />
			<g>
				<title>Glyoxalase_6 (PF18029)
"Glyoxalase-like domain"</title>
				<polygon class="PF18029" points="859,40 866,32 866,48" stroke-linejoin="round" width="11" height="24" fill="rgb(90,208,104)" stroke="rgb(72,166,83)" stroke-width="1" opacity="0.75" />
			</g>
			<g>
				<title>Glyoxalase_6 (PF18029)
"Glyoxalase-like domain"</title>
				<polygon class="PF18029" points="869,28 869,28 879,28 879,52 869,52 869,52" stroke-linejoin="round" width="10" height="24" fill="rgb(90,208,104)" stroke="rgb(72,166,83)" stroke-width="1" opacity="0.75" />
			</g>
		</g>
		<g>
			<title> (AB852_23530)
hypothetical protein</title>
			<polygon class=" (AB852_23530)
hypothetical protein" points="883,40 903,10 903,70" fill="rgb(255,255,255)" fill-opacity="1.0" stroke="rgb(0,0,0)" stroke-width="2"  />
			<g>
				<title>TetR_C_6 (PF13977)
"BetI-type transcriptional repressor, C-terminal"</title>
				<polygon class="PF13977" points="887,40 895,28 895,28 895,52 895,52" stroke-linejoin="round" width="11" height="24" fill="rgb(99,210,174)" stroke="rgb(79,168,139)" stroke-width="1" opacity="0.75" />
			</g>
			<g>
				<title>TetR_N (PF00440)
"Bacterial regulatory proteins, tetR family"</title>
				<rect class="PF00440" x="897" y="28" stroke-linejoin="round" width="4" height="24" fill="rgb(73,212,190)" stroke="rgb(58,169,152)" stroke-width="1" opacity="0.75" />
			</g>
		</g>
		<g>
			<title> (AB852_23535)
hypothetical protein</title>
			<polygon class=" (AB852_23535)
hypothetical protein" points="908,25 911,25 911,10 941,40 911,70 911,55 908,55" fill="rgb(255,255,255)" fill-opacity="1.0" stroke="rgb(0,0,0)" stroke-width="2"  />
			<g>
				<title>Dimerisation2 (PF16864)
"Dimerisation domain"</title>
				<rect class="PF16864" x="908" y="28" stroke-linejoin="round" width="8" height="24" fill="rgb(84,199,85)" stroke="rgb(67,159,68)" stroke-width="1" opacity="0.75" />
			</g>
			<g>
				<title>Methyltransf_2 (PF00891)
"O-methyltransferase domain"</title>
				<polygon class="PF00891" points="918,28 925,28 937,40 925,52 918,52" stroke-linejoin="round" width="20" height="24" fill="rgb(50,51,190)" stroke="rgb(39,40,152)" stroke-width="1" opacity="0.75" />
			</g>
		</g>
		<g>
			<title> (AB852_23540)
hypothetical protein</title>
			<polygon class=" (AB852_23540)
hypothetical protein" points="945,25 967,25 967,10 997,40 967,70 967,55 945,55" fill="rgb(255,255,255)" fill-opacity="1.0" stroke="rgb(0,0,0)" stroke-width="2"  />
		</g>
		<g>
			<title> (AB852_23545)
hypothetical protein</title>
			<polygon class=" (AB852_23545)
hypothetical protein" points="1004,10 1029,40 1004,70" fill="rgb(255,255,255)" fill-opacity="1.0" stroke="rgb(0,0,0)" stroke-width="2"  />
			<g>
				<title>Methyltransf_19 (PF04672)
"S-adenosyl methyltransferase"</title>
				<polygon class="PF04672" points="1004,28 1015,28 1025,40 1015,52 1004,52" stroke-linejoin="round" width="24" height="24" fill="rgb(125,181,73)" stroke="rgb(99,144,58)" stroke-width="1" opacity="0.75" />
			</g>
		</g>
	</g>
</svg>
