<svg version="1.1" baseProfile="full" xmlns="http://www.w3.org/2000/svg" width="780.9" height="80">
	<g>
		<line x1="10" y1="40.0" x2="770.9" y2="40.0" style="stroke:rgb(70,70,70); stroke-width:3 "/>
		<g>
			<title> (DENSPDRAFT_836534)
cytochrome P450</title>
			<polygon class=" (DENSPDRAFT_836534)
cytochrome P450" points="10,25 43,25 43,10 73,40 43,70 43,55 10,55" fill="rgb(255,255,255)" fill-opacity="1.0" stroke="rgb(0,0,0)" stroke-width="2"  />
			<g>
				<title>p450 (PF00067)
"Cytochrome P450"</title>
				<polygon class="PF00067" points="14,28 57,28 58,29 58,51 57,52 14,52" stroke-linejoin="round" width="44" height="24" fill="rgb(85,216,107)" stroke="rgb(68,172,85)" stroke-width="1" opacity="0.75" />
			</g>
		</g>
		<g>
			<title> (DENSPDRAFT_879898)
UDP-Glycosyltransferase/glycogen phosphorylase</title>
			<polygon class=" (DENSPDRAFT_879898)
UDP-Glycosyltransferase/glycogen phosphorylase" points="166,25 136,25 136,10 106,40 136,70 136,55 166,55" fill="rgb(255,255,255)" fill-opacity="1.0" stroke="rgb(0,0,0)" stroke-width="2"  />
			<g>
				<title>UDPGT (PF00201)
"UDP-glucoronosyl and UDP-glucosyl transferase"</title>
				<rect class="PF00201" x="124" y="28" stroke-linejoin="round" width="14" height="24" fill="rgb(225,150,107)" stroke="rgb(180,120,85)" stroke-width="1" opacity="0.75" />
			</g>
		</g>
		<g>
			<title> (DENSPDRAFT_713489)
hypothetical protein</title>
			<polygon class=" (DENSPDRAFT_713489)
hypothetical protein" points="195,10 207,40 195,70" fill="rgb(255,255,255)" fill-opacity="1.0" stroke="rgb(0,0,0)" stroke-width="2"  />
		</g>
		<g>
			<title> (DENSPDRAFT_798081)
cytochrome P450</title>
			<polygon class=" (DENSPDRAFT_798081)
cytochrome P450" points="338,25 283,25 283,10 253,40 283,70 283,55 338,55" fill="rgb(255,255,255)" fill-opacity="1.0" stroke="rgb(0,0,0)" stroke-width="2"  />
			<g>
				<title>p450 (PF00067)
"Cytochrome P450"</title>
				<rect class="PF00067" x="285" y="28" stroke-linejoin="round" width="49" height="24" fill="rgb(85,216,107)" stroke="rgb(68,172,85)" stroke-width="1" opacity="0.75" />
			</g>
		</g>
		<g>
			<title> (DENSPDRAFT_836537)
acetoin reductase family protein</title>
			<polygon class=" (DENSPDRAFT_836537)
acetoin reductase family protein" points="354,25 364,25 364,10 394,40 364,70 364,55 354,55" fill="rgb(255,255,255)" fill-opacity="1.0" stroke="rgb(0,0,0)" stroke-width="2"  />
			<g>
				<title>adh_short_C2 (PF13561)
"Enoyl-(Acyl carrier protein) reductase"</title>
				<polygon class="PF13561" points="355,28 378,28 379,29 379,51 378,52 355,52" stroke-linejoin="round" width="24" height="24" fill="rgb(73,205,127)" stroke="rgb(58,164,101)" stroke-width="1" opacity="0.75" />
			</g>
		</g>
		<g>
			<title> (DENSPDRAFT_713576)
hypothetical protein</title>
			<polygon class=" (DENSPDRAFT_713576)
hypothetical protein" points="522,10 541,40 522,70" fill="rgb(255,255,255)" fill-opacity="1.0" stroke="rgb(0,0,0)" stroke-width="2"  />
		</g>
		<g>
			<title> (DENSPDRAFT_713581)
hypothetical protein</title>
			<polygon class=" (DENSPDRAFT_713581)
hypothetical protein" points="547,25 549,25 549,10 579,40 549,70 549,55 547,55" fill="rgb(255,255,255)" fill-opacity="1.0" stroke="rgb(0,0,0)" stroke-width="2"  />
			<g>
				<title>UbiA (PF01040)
"UbiA prenyltransferase family"</title>
				<polygon class="PF01040" points="549,28 563,28 574,39 574,41 563,52 549,52" stroke-linejoin="round" width="25" height="24" fill="rgb(189,57,100)" stroke="rgb(151,45,80)" stroke-width="1" opacity="0.75" />
			</g>
		</g>
		<g>
			<title> (DENSPDRAFT_858524)
terpenoid synthase</title>
			<polygon class=" (DENSPDRAFT_858524)
terpenoid synthase" points="632,25 647,25 647,10 677,40 647,70 647,55 632,55" fill="rgb(255,255,255)" fill-opacity="1.0" stroke="rgb(0,0,0)" stroke-width="2"  />
			<g>
				<title>polyprenyl_synt (PF00348)
"Polyprenyl synthetase"</title>
				<rect class="PF00348" x="634" y="28" stroke-linejoin="round" width="24" height="24" fill="rgb(61,206,65)" stroke="rgb(48,164,52)" stroke-width="1" opacity="0.75" />
			</g>
		</g>
		<g>
			<title> (DENSPDRAFT_713667)
hypothetical protein</title>
			<polygon class=" (DENSPDRAFT_713667)
hypothetical protein" points="717,40 735,10 735,70" fill="rgb(255,255,255)" fill-opacity="1.0" stroke="rgb(0,0,0)" stroke-width="2"  />
		</g>
		<g>
			<title> (DENSPDRAFT_713652)
hypothetical protein</title>
			<polygon class=" (DENSPDRAFT_713652)
hypothetical protein" points="749,40 763,10 763,70" fill="rgb(255,255,255)" fill-opacity="1.0" stroke="rgb(0,0,0)" stroke-width="2"  />
		</g>
	</g>
</svg>
