<svg version="1.1" baseProfile="full" xmlns="http://www.w3.org/2000/svg" width="1271.8" height="80">
	<g>
		<line x1="10" y1="40.0" x2="1261.8" y2="40.0" style="stroke:rgb(70,70,70); stroke-width:3 "/>
		<g>
			<title> (CGZ69_03745)
4-phosphopantetheinyl transferase</title>
			<polygon class=" (CGZ69_03745)
4-phosphopantetheinyl transferase" points="10,40 32,10 32,70" fill="rgb(255,255,255)" fill-opacity="1.0" stroke="rgb(0,0,0)" stroke-width="2"  />
			<g>
				<title>ACPS (PF01648)
"4'-phosphopantetheinyl transferase superfamily"</title>
				<polygon class="PF01648" points="14,40 20,32 20,48" stroke-linejoin="round" width="7" height="24" fill="rgb(85,184,135)" stroke="rgb(68,147,108)" stroke-width="1" opacity="0.75" />
			</g>
		</g>
		<g>
			<title> (CGZ69_03750)
hypothetical protein</title>
			<polygon class=" (CGZ69_03750)
hypothetical protein" points="33,40 40,10 40,70" fill="rgb(255,255,255)" fill-opacity="1.0" stroke="rgb(0,0,0)" stroke-width="2"  />
		</g>
		<g>
			<title> (CGZ69_03755)
amidohydrolase</title>
			<polygon class=" (CGZ69_03755)
amidohydrolase" points="93,25 71,25 71,10 41,40 71,70 71,55 93,55" fill="rgb(255,255,255)" fill-opacity="1.0" stroke="rgb(0,0,0)" stroke-width="2"  />
			<g>
				<title>Amidohydro_3 (PF07969)
"Amidohydrolase family"</title>
				<polygon class="PF07969" points="45,40 57,28 88,28 88,52 57,52" stroke-linejoin="round" width="47" height="24" fill="rgb(228,157,101)" stroke="rgb(182,125,80)" stroke-width="1" opacity="0.75" />
			</g>
		</g>
		<g>
			<title> (CGZ69_03760)
ABC transporter</title>
			<polygon class=" (CGZ69_03760)
ABC transporter" points="124,25 124,25 124,10 94,40 124,70 124,55 124,55" fill="rgb(255,255,255)" fill-opacity="1.0" stroke="rgb(0,0,0)" stroke-width="2"  />
			<g>
				<title>ABC_tran (PF00005)
"ABC transporter"</title>
				<polygon class="PF00005" points="105,33 110,28 119,28 119,52 110,52 105,47" stroke-linejoin="round" width="14" height="24" fill="rgb(129,201,63)" stroke="rgb(103,160,50)" stroke-width="1" opacity="0.75" />
			</g>
		</g>
		<g>
			<title> (CGZ69_03765)
hypothetical protein</title>
			<polygon class=" (CGZ69_03765)
hypothetical protein" points="160,25 154,25 154,10 124,40 154,70 154,55 160,55" fill="rgb(255,255,255)" fill-opacity="1.0" stroke="rgb(0,0,0)" stroke-width="2"  />
			<g>
				<title>FecCD (PF01032)
"FecCD transport family"</title>
				<polygon class="PF01032" points="128,40 140,28 155,28 155,52 140,52" stroke-linejoin="round" width="31" height="24" fill="rgb(210,177,70)" stroke="rgb(168,141,56)" stroke-width="1" opacity="0.75" />
			</g>
		</g>
		<g>
			<title> (CGZ69_03770)
Fe(3+)-siderophore ABC transporter permease</title>
			<polygon class=" (CGZ69_03770)
Fe(3+)-siderophore ABC transporter permease" points="196,25 191,25 191,10 161,40 191,70 191,55 196,55" fill="rgb(255,255,255)" fill-opacity="1.0" stroke="rgb(0,0,0)" stroke-width="2"  />
			<g>
				<title>FecCD (PF01032)
"FecCD transport family"</title>
				<polygon class="PF01032" points="165,40 177,28 192,28 192,52 177,52" stroke-linejoin="round" width="31" height="24" fill="rgb(210,177,70)" stroke="rgb(168,141,56)" stroke-width="1" opacity="0.75" />
			</g>
		</g>
		<g>
			<title> (CGZ69_03775)
multidrug ABC transporter ATP-binding protein</title>
			<polygon class=" (CGZ69_03775)
multidrug ABC transporter ATP-binding protein" points="207,25 230,25 230,10 260,40 230,70 230,55 207,55" fill="rgb(255,255,255)" fill-opacity="1.0" stroke="rgb(0,0,0)" stroke-width="2"  />
			<g>
				<title>ABC_membrane (PF00664)
"ABC transporter transmembrane region"</title>
				<rect class="PF00664" x="207" y="28" stroke-linejoin="round" width="26" height="24" fill="rgb(149,226,73)" stroke="rgb(119,180,58)" stroke-width="1" opacity="0.75" />
			</g>
			<g>
				<title>ABC_tran (PF00005)
"ABC transporter"</title>
				<polygon class="PF00005" points="238,28 244,28 252,36 252,44 244,52 238,52" stroke-linejoin="round" width="14" height="24" fill="rgb(129,201,63)" stroke="rgb(103,160,50)" stroke-width="1" opacity="0.75" />
			</g>
		</g>
		<g>
			<title> (CGZ69_03780)
multidrug ABC transporter permease</title>
			<polygon class=" (CGZ69_03780)
multidrug ABC transporter permease" points="263,25 292,25 292,10 322,40 292,70 292,55 263,55" fill="rgb(255,255,255)" fill-opacity="1.0" stroke="rgb(0,0,0)" stroke-width="2"  />
			<g>
				<title>ABC_membrane (PF00664)
"ABC transporter transmembrane region"</title>
				<rect class="PF00664" x="266" y="28" stroke-linejoin="round" width="27" height="24" fill="rgb(149,226,73)" stroke="rgb(119,180,58)" stroke-width="1" opacity="0.75" />
			</g>
			<g>
				<title>ABC_tran (PF00005)
"ABC transporter"</title>
				<polygon class="PF00005" points="299,28 306,28 313,35 313,45 306,52 299,52" stroke-linejoin="round" width="14" height="24" fill="rgb(129,201,63)" stroke="rgb(103,160,50)" stroke-width="1" opacity="0.75" />
			</g>
		</g>
		<g>
			<title> (CGZ69_03785)
hypothetical protein</title>
			<polygon class=" (CGZ69_03785)
hypothetical protein" points="326,10 334,40 326,70" fill="rgb(255,255,255)" fill-opacity="1.0" stroke="rgb(0,0,0)" stroke-width="2"  />
		</g>
		<g>
			<title> (CGZ69_03790)
MbtH family protein</title>
			<polygon class=" (CGZ69_03790)
MbtH family protein" points="338,40 345,10 345,70" fill="rgb(255,255,255)" fill-opacity="1.0" stroke="rgb(0,0,0)" stroke-width="2"  />
			<g>
				<title>MbtH (PF03621)
"MbtH-like protein"</title>
				<polygon class="PF03621" points="341,40 344,28 344,28 344,52 344,52" stroke-linejoin="round" width="5" height="24" fill="rgb(212,165,97)" stroke="rgb(169,132,77)" stroke-width="1" opacity="0.75" />
			</g>
		</g>
		<g>
			<title> (CGZ69_03795)
non-ribosomal peptide synthetase</title>
			<polygon class=" (CGZ69_03795)
non-ribosomal peptide synthetase" points="863,25 375,25 375,10 345,40 375,70 375,55 863,55" fill="rgb(255,255,255)" fill-opacity="1.0" stroke="rgb(0,0,0)" stroke-width="2"  />
			<g>
				<title>Condensation (PF00668)
"Condensation domain"</title>
				<polygon class="PF00668" points="349,40 361,28 388,28 388,52 361,52" stroke-linejoin="round" width="43" height="24" fill="rgb(224,184,98)" stroke="rgb(179,147,78)" stroke-width="1" opacity="0.75" />
			</g>
			<g>
				<title>PP-binding (PF00550)
"Phosphopantetheine attachment site"</title>
				<rect class="PF00550" x="390" y="28" stroke-linejoin="round" width="6" height="24" fill="rgb(103,191,88)" stroke="rgb(82,152,70)" stroke-width="1" opacity="0.75" />
			</g>
			<g>
				<title>AMP-binding_C (PF13193)
"AMP-binding enzyme C-terminal domain"</title>
				<rect class="PF13193" x="399" y="28" stroke-linejoin="round" width="7" height="24" fill="rgb(182,50,118)" stroke="rgb(145,39,94)" stroke-width="1" opacity="0.75" />
			</g>
			<g>
				<title>AMP-binding (PF00501)
"AMP-binding enzyme"</title>
				<rect class="PF00501" x="408" y="28" stroke-linejoin="round" width="39" height="24" fill="rgb(60,217,223)" stroke="rgb(48,173,178)" stroke-width="1" opacity="0.75" />
			</g>
			<g>
				<title>Condensation (PF00668)
"Condensation domain"</title>
				<rect class="PF00668" x="450" y="28" stroke-linejoin="round" width="45" height="24" fill="rgb(224,184,98)" stroke="rgb(179,147,78)" stroke-width="1" opacity="0.75" />
			</g>
			<g>
				<title>PP-binding (PF00550)
"Phosphopantetheine attachment site"</title>
				<rect class="PF00550" x="497" y="28" stroke-linejoin="round" width="6" height="24" fill="rgb(103,191,88)" stroke="rgb(82,152,70)" stroke-width="1" opacity="0.75" />
			</g>
			<g>
				<title>AMP-binding_C (PF13193)
"AMP-binding enzyme C-terminal domain"</title>
				<rect class="PF13193" x="506" y="28" stroke-linejoin="round" width="7" height="24" fill="rgb(182,50,118)" stroke="rgb(145,39,94)" stroke-width="1" opacity="0.75" />
			</g>
			<g>
				<title>AMP-binding (PF00501)
"AMP-binding enzyme"</title>
				<rect class="PF00501" x="514" y="28" stroke-linejoin="round" width="42" height="24" fill="rgb(60,217,223)" stroke="rgb(48,173,178)" stroke-width="1" opacity="0.75" />
			</g>
			<g>
				<title>Condensation (PF00668)
"Condensation domain"</title>
				<rect class="PF00668" x="559" y="28" stroke-linejoin="round" width="43" height="24" fill="rgb(224,184,98)" stroke="rgb(179,147,78)" stroke-width="1" opacity="0.75" />
			</g>
			<g>
				<title>Condensation (PF00668)
"Condensation domain"</title>
				<rect class="PF00668" x="610" y="28" stroke-linejoin="round" width="40" height="24" fill="rgb(224,184,98)" stroke="rgb(179,147,78)" stroke-width="1" opacity="0.75" />
			</g>
			<g>
				<title>PP-binding (PF00550)
"Phosphopantetheine attachment site"</title>
				<rect class="PF00550" x="652" y="28" stroke-linejoin="round" width="6" height="24" fill="rgb(103,191,88)" stroke="rgb(82,152,70)" stroke-width="1" opacity="0.75" />
			</g>
			<g>
				<title>AMP-binding_C (PF13193)
"AMP-binding enzyme C-terminal domain"</title>
				<rect class="PF13193" x="661" y="28" stroke-linejoin="round" width="7" height="24" fill="rgb(182,50,118)" stroke="rgb(145,39,94)" stroke-width="1" opacity="0.75" />
			</g>
			<g>
				<title>AMP-binding (PF00501)
"AMP-binding enzyme"</title>
				<rect class="PF00501" x="670" y="28" stroke-linejoin="round" width="40" height="24" fill="rgb(60,217,223)" stroke="rgb(48,173,178)" stroke-width="1" opacity="0.75" />
			</g>
			<g>
				<title>Condensation (PF00668)
"Condensation domain"</title>
				<rect class="PF00668" x="712" y="28" stroke-linejoin="round" width="43" height="24" fill="rgb(224,184,98)" stroke="rgb(179,147,78)" stroke-width="1" opacity="0.75" />
			</g>
			<g>
				<title>PP-binding (PF00550)
"Phosphopantetheine attachment site"</title>
				<rect class="PF00550" x="760" y="28" stroke-linejoin="round" width="6" height="24" fill="rgb(103,191,88)" stroke="rgb(82,152,70)" stroke-width="1" opacity="0.75" />
			</g>
			<g>
				<title>AMP-binding_C (PF13193)
"AMP-binding enzyme C-terminal domain"</title>
				<rect class="PF13193" x="768" y="28" stroke-linejoin="round" width="7" height="24" fill="rgb(182,50,118)" stroke="rgb(145,39,94)" stroke-width="1" opacity="0.75" />
			</g>
			<g>
				<title>AMP-binding (PF00501)
"AMP-binding enzyme"</title>
				<rect class="PF00501" x="777" y="28" stroke-linejoin="round" width="39" height="24" fill="rgb(60,217,223)" stroke="rgb(48,173,178)" stroke-width="1" opacity="0.75" />
			</g>
			<g>
				<title>Condensation (PF00668)
"Condensation domain"</title>
				<rect class="PF00668" x="819" y="28" stroke-linejoin="round" width="43" height="24" fill="rgb(224,184,98)" stroke="rgb(179,147,78)" stroke-width="1" opacity="0.75" />
			</g>
		</g>
		<g>
			<title> (CGZ69_03800)
iron ABC transporter substrate-binding protein</title>
			<polygon class=" (CGZ69_03800)
iron ABC transporter substrate-binding protein" points="907,25 904,25 904,10 874,40 904,70 904,55 907,55" fill="rgb(255,255,255)" fill-opacity="1.0" stroke="rgb(0,0,0)" stroke-width="2"  />
			<g>
				<title>Peripla_BP_2 (PF01497)
"Periplasmic binding protein"</title>
				<polygon class="PF01497" points="878,40 890,28 900,28 900,52 890,52" stroke-linejoin="round" width="23" height="24" fill="rgb(183,226,104)" stroke="rgb(146,180,83)" stroke-width="1" opacity="0.75" />
			</g>
		</g>
		<g>
			<title> (CGZ69_03805)
L-lysine 6-monooxygenase</title>
			<polygon class=" (CGZ69_03805)
L-lysine 6-monooxygenase" points="958,25 943,25 943,10 913,40 943,70 943,55 958,55" fill="rgb(255,255,255)" fill-opacity="1.0" stroke="rgb(0,0,0)" stroke-width="2"  />
			<g>
				<title>Lys_Orn_oxgnase (PF13434)
"L-lysine 6-monooxygenase/L-ornithine 5-monooxygenase"</title>
				<polygon class="PF13434" points="922,35 929,28 956,28 956,52 929,52 922,45" stroke-linejoin="round" width="34" height="24" fill="rgb(81,213,119)" stroke="rgb(64,170,95)" stroke-width="1" opacity="0.75" />
			</g>
		</g>
		<g>
			<title> (CGZ69_03810)
methionyl-tRNA formyltransferase</title>
			<polygon class=" (CGZ69_03810)
methionyl-tRNA formyltransferase" points="967,25 968,25 968,10 998,40 968,70 968,55 967,55" fill="rgb(255,255,255)" fill-opacity="1.0" stroke="rgb(0,0,0)" stroke-width="2"  />
			<g>
				<title>Formyl_trans_N (PF00551)
"Formyl transferase"</title>
				<polygon class="PF00551" points="967,28 982,28 984,30 984,50 982,52 967,52" stroke-linejoin="round" width="17" height="24" fill="rgb(111,183,66)" stroke="rgb(88,146,52)" stroke-width="1" opacity="0.75" />
			</g>
		</g>
		<g>
			<title> (CGZ69_03815)
hypothetical protein</title>
			<polygon class=" (CGZ69_03815)
hypothetical protein" points="1008,40 1020,10 1020,70" fill="rgb(255,255,255)" fill-opacity="1.0" stroke="rgb(0,0,0)" stroke-width="2"  />
		</g>
		<g>
			<title> (CGZ69_03820)
iron-sulfur protein</title>
			<polygon class=" (CGZ69_03820)
iron-sulfur protein" points="1020,40 1048,10 1048,70" fill="rgb(255,255,255)" fill-opacity="1.0" stroke="rgb(0,0,0)" stroke-width="2"  />
			<g>
				<title>FhuF_C (PF11575)
"FhuF 2Fe-2S C-terminal domain"</title>
				<polygon class="PF11575" points="1024,40 1023,41 1023,39" stroke-linejoin="round" width="2" height="24" fill="rgb(216,71,91)" stroke="rgb(172,56,72)" stroke-width="1" opacity="0.75" />
			</g>
		</g>
		<g>
			<title> (CGZ69_03825)
siderophore biosynthesis protein</title>
			<polygon class=" (CGZ69_03825)
siderophore biosynthesis protein" points="1057,25 1066,25 1066,10 1096,40 1066,70 1066,55 1057,55" fill="rgb(255,255,255)" fill-opacity="1.0" stroke="rgb(0,0,0)" stroke-width="2"  />
			<g>
				<title>ATP-grasp_4 (PF13535)
"ATP-grasp domain"</title>
				<polygon class="PF13535" points="1071,28 1080,28 1085,33 1085,47 1080,52 1071,52" stroke-linejoin="round" width="14" height="24" fill="rgb(197,156,74)" stroke="rgb(157,124,59)" stroke-width="1" opacity="0.75" />
			</g>
		</g>
		<g>
			<title> (CGZ69_03830)
siderophore biosynthesis protein</title>
			<polygon class=" (CGZ69_03830)
siderophore biosynthesis protein" points="1096,25 1125,25 1125,10 1155,40 1125,70 1125,55 1096,55" fill="rgb(255,255,255)" fill-opacity="1.0" stroke="rgb(0,0,0)" stroke-width="2"  />
			<g>
				<title>IucA_IucC (PF04183)
"IucA / IucC family"</title>
				<rect class="PF04183" x="1111" y="28" stroke-linejoin="round" width="22" height="24" fill="rgb(221,104,121)" stroke="rgb(176,83,96)" stroke-width="1" opacity="0.75" />
			</g>
			<g>
				<title>FhuF (PF06276)
"Ferric iron reductase FhuF-like transporter"</title>
				<polygon class="PF06276" points="1136,28 1139,28 1151,40 1139,52 1136,52" stroke-linejoin="round" width="17" height="24" fill="rgb(76,151,221)" stroke="rgb(60,120,176)" stroke-width="1" opacity="0.75" />
			</g>
		</g>
		<g>
			<title> (CGZ69_03835)
iron transporter</title>
			<polygon class=" (CGZ69_03835)
iron transporter" points="1163,25 1191,25 1191,10 1221,40 1191,70 1191,55 1163,55" fill="rgb(255,255,255)" fill-opacity="1.0" stroke="rgb(0,0,0)" stroke-width="2"  />
			<g>
				<title>IucA_IucC (PF04183)
"IucA / IucC family"</title>
				<rect class="PF04183" x="1178" y="28" stroke-linejoin="round" width="22" height="24" fill="rgb(221,104,121)" stroke="rgb(176,83,96)" stroke-width="1" opacity="0.75" />
			</g>
			<g>
				<title>FhuF (PF06276)
"Ferric iron reductase FhuF-like transporter"</title>
				<polygon class="PF06276" points="1203,28 1205,28 1217,40 1205,52 1203,52" stroke-linejoin="round" width="16" height="24" fill="rgb(76,151,221)" stroke="rgb(60,120,176)" stroke-width="1" opacity="0.75" />
			</g>
		</g>
		<g>
			<title> (CGZ69_03840)
diaminopimelate decarboxylase</title>
			<polygon class=" (CGZ69_03840)
diaminopimelate decarboxylase" points="1221,25 1231,25 1231,10 1261,40 1231,70 1231,55 1221,55" fill="rgb(255,255,255)" fill-opacity="1.0" stroke="rgb(0,0,0)" stroke-width="2"  />
			<g>
				<title>Orn_Arg_deC_N (PF02784)
"Pyridoxal-dependent decarboxylase, pyridoxal binding domain"</title>
				<polygon class="PF02784" points="1223,28 1244,28 1248,32 1248,48 1244,52 1223,52" stroke-linejoin="round" width="25" height="24" fill="rgb(106,204,212)" stroke="rgb(84,163,169)" stroke-width="1" opacity="0.75" />
			</g>
		</g>
	</g>
</svg>
