<svg version="1.1" baseProfile="full" xmlns="http://www.w3.org/2000/svg" width="850.8666666666667" height="80">
	<g>
		<line x1="10" y1="40.0" x2="840.8666666666667" y2="40.0" style="stroke:rgb(70,70,70); stroke-width:3 "/>
		<g>
			<title> (ATEG_08449)
conserved hypothetical protein</title>
			<polygon class=" (ATEG_08449)
conserved hypothetical protein" points="64,25 40,25 40,10 10,40 40,70 40,55 64,55" fill="rgb(255,255,255)" fill-opacity="1.0" stroke="rgb(0,0,0)" stroke-width="2"  />
			<g>
				<title>Methyltransf_2 (PF00891)
"O-methyltransferase domain"</title>
				<polygon class="PF00891" points="18,36 26,28 35,28 35,52 26,52 18,44" stroke-linejoin="round" width="17" height="24" fill="rgb(50,51,190)" stroke="rgb(39,40,152)" stroke-width="1" opacity="0.75" />
			</g>
		</g>
		<g>
			<title> (ATEG_08450)
conserved hypothetical protein</title>
			<polygon class=" (ATEG_08450)
conserved hypothetical protein" points="117,25 113,25 113,10 83,40 113,70 113,55 117,55" fill="rgb(255,255,255)" fill-opacity="1.0" stroke="rgb(0,0,0)" stroke-width="2"  />
			<g>
				<title>Lactamase_B (PF00753)
"Metallo-beta-lactamase superfamily"</title>
				<rect class="PF00753" x="105" y="28" stroke-linejoin="round" width="6" height="24" fill="rgb(206,198,96)" stroke="rgb(164,158,76)" stroke-width="1" opacity="0.75" />
			</g>
		</g>
		<g>
			<title> (ATEG_08451)
hypothetical protein</title>
			<polygon class=" (ATEG_08451)
hypothetical protein" points="135,25 290,25 290,10 320,40 290,70 290,55 135,55" fill="rgb(255,255,255)" fill-opacity="1.0" stroke="rgb(0,0,0)" stroke-width="2"  />
			<g>
				<title>SAT (PF16073)
"Starter unit:ACP transacylase in aflatoxin biosynthesis"</title>
				<rect class="PF16073" x="138" y="28" stroke-linejoin="round" width="23" height="24" fill="rgb(77,115,183)" stroke="rgb(61,91,146)" stroke-width="1" opacity="0.75" />
			</g>
			<g>
				<title>ketoacyl-synt (PF00109)
"Beta-ketoacyl synthase, N-terminal domain"</title>
				<rect class="PF00109" x="175" y="28" stroke-linejoin="round" width="25" height="24" fill="rgb(112,116,228)" stroke="rgb(89,92,182)" stroke-width="1" opacity="0.75" />
			</g>
			<g>
				<title>Ketoacyl-synt_C (PF02801)
"Beta-ketoacyl synthase, C-terminal domain"</title>
				<rect class="PF02801" x="201" y="28" stroke-linejoin="round" width="12" height="24" fill="rgb(215,78,102)" stroke="rgb(172,62,81)" stroke-width="1" opacity="0.75" />
			</g>
			<g>
				<title>Acyl_transf_1 (PF00698)
"Acyl transferase domain"</title>
				<rect class="PF00698" x="228" y="28" stroke-linejoin="round" width="32" height="24" fill="rgb(59,176,209)" stroke="rgb(47,140,167)" stroke-width="1" opacity="0.75" />
			</g>
			<g>
				<title>PS-DH (PF14765)
"Polyketide synthase dehydratase"</title>
				<rect class="PF14765" x="273" y="28" stroke-linejoin="round" width="25" height="24" fill="rgb(173,56,182)" stroke="rgb(138,44,145)" stroke-width="1" opacity="0.75" />
			</g>
			<g>
				<title>PP-binding (PF00550)
"Phosphopantetheine attachment site"</title>
				<polygon class="PF00550" points="305,30 311,36 311,44 305,50" stroke-linejoin="round" width="6" height="24" fill="rgb(103,191,88)" stroke="rgb(82,152,70)" stroke-width="1" opacity="0.75" />
			</g>
		</g>
		<g>
			<title> (ATEG_08452)
predicted protein</title>
			<polygon class=" (ATEG_08452)
predicted protein" points="340,25 352,25 352,10 382,40 352,70 352,55 340,55" fill="rgb(255,255,255)" fill-opacity="1.0" stroke="rgb(0,0,0)" stroke-width="2"  />
		</g>
		<g>
			<title> (ATEG_08453)
predicted protein</title>
			<polygon class=" (ATEG_08453)
predicted protein" points="407,10 430,40 407,70" fill="rgb(255,255,255)" fill-opacity="1.0" stroke="rgb(0,0,0)" stroke-width="2"  />
			<g>
				<title>Zn_clus (PF00172)
"Fungal Zn(2)-Cys(6) binuclear cluster domain"</title>
				<rect class="PF00172" x="408" y="28" stroke-linejoin="round" width="3" height="24" fill="rgb(121,178,76)" stroke="rgb(96,142,60)" stroke-width="1" opacity="0.75" />
			</g>
		</g>
		<g>
			<title> (ATEG_08454)
hypothetical protein</title>
			<polygon class=" (ATEG_08454)
hypothetical protein" points="452,40 474,10 474,70" fill="rgb(255,255,255)" fill-opacity="1.0" stroke="rgb(0,0,0)" stroke-width="2"  />
			<g>
				<title>GST_C (PF00043)
"Glutathione S-transferase, C-terminal domain"</title>
				<polygon class="PF00043" points="456,40 463,31 463,49" stroke-linejoin="round" width="10" height="24" fill="rgb(102,108,211)" stroke="rgb(81,86,168)" stroke-width="1" opacity="0.75" />
			</g>
			<g>
				<title>GST_N (PF02798)
"Glutathione S-transferase, N-terminal domain"</title>
				<rect class="PF02798" x="466" y="28" stroke-linejoin="round" width="7" height="24" fill="rgb(82,167,186)" stroke="rgb(65,133,148)" stroke-width="1" opacity="0.75" />
			</g>
		</g>
		<g>
			<title> (ATEG_08455)
conserved hypothetical protein</title>
			<polygon class=" (ATEG_08455)
conserved hypothetical protein" points="492,40 506,10 506,70" fill="rgb(255,255,255)" fill-opacity="1.0" stroke="rgb(0,0,0)" stroke-width="2"  />
		</g>
		<g>
			<title> (ATEG_08456)
predicted protein</title>
			<polygon class=" (ATEG_08456)
predicted protein" points="566,25 564,25 564,10 534,40 564,70 564,55 566,55" fill="rgb(255,255,255)" fill-opacity="1.0" stroke="rgb(0,0,0)" stroke-width="2"  />
			<g>
				<title>Methyltransf_11 (PF08241)
"Methyltransferase domain"</title>
				<polygon class="PF08241" points="550,28 550,28 559,28 559,52 550,52 550,52" stroke-linejoin="round" width="9" height="24" fill="rgb(106,219,159)" stroke="rgb(84,175,127)" stroke-width="1" opacity="0.75" />
			</g>
		</g>
		<g>
			<title> (ATEG_08457)
conserved hypothetical protein</title>
			<polygon class=" (ATEG_08457)
conserved hypothetical protein" points="585,25 595,25 595,10 625,40 595,70 595,55 585,55" fill="rgb(255,255,255)" fill-opacity="1.0" stroke="rgb(0,0,0)" stroke-width="2"  />
			<g>
				<title>EthD (PF07110)
"EthD domain"</title>
				<polygon class="PF07110" points="604,28 609,28 613,32 613,48 609,52 604,52" stroke-linejoin="round" width="9" height="24" fill="rgb(64,130,182)" stroke="rgb(51,104,145)" stroke-width="1" opacity="0.75" />
			</g>
		</g>
		<g>
			<title> (ATEG_08458)
predicted protein</title>
			<polygon class=" (ATEG_08458)
predicted protein" points="639,25 681,25 681,10 711,40 681,70 681,55 639,55" fill="rgb(255,255,255)" fill-opacity="1.0" stroke="rgb(0,0,0)" stroke-width="2"  />
			<g>
				<title>Cu-oxidase_3 (PF07732)
"Multicopper oxidase"</title>
				<rect class="PF07732" x="645" y="28" stroke-linejoin="round" width="11" height="24" fill="rgb(80,81,179)" stroke="rgb(63,64,143)" stroke-width="1" opacity="0.75" />
			</g>
			<g>
				<title>Cu-oxidase (PF00394)
"Multicopper oxidase"</title>
				<rect class="PF00394" x="657" y="28" stroke-linejoin="round" width="15" height="24" fill="rgb(172,188,74)" stroke="rgb(137,150,59)" stroke-width="1" opacity="0.75" />
			</g>
			<g>
				<title>Cu-oxidase_2 (PF07731)
"Multicopper oxidase"</title>
				<polygon class="PF07731" points="681,28 694,28 695,29 695,51 694,52 681,52" stroke-linejoin="round" width="14" height="24" fill="rgb(183,55,192)" stroke="rgb(146,44,153)" stroke-width="1" opacity="0.75" />
			</g>
		</g>
		<g>
			<title> (ATEG_08459)
predicted protein</title>
			<polygon class=" (ATEG_08459)
predicted protein" points="725,25 739,25 739,10 769,40 739,70 739,55 725,55" fill="rgb(255,255,255)" fill-opacity="1.0" stroke="rgb(0,0,0)" stroke-width="2"  />
			<g>
				<title>Questin_oxidase (PF14027)
"Questin oxidase-like"</title>
				<polygon class="PF14027" points="730,28 753,28 763,38 763,42 753,52 730,52" stroke-linejoin="round" width="33" height="24" fill="rgb(77,150,178)" stroke="rgb(61,119,142)" stroke-width="1" opacity="0.75" />
			</g>
		</g>
		<g>
			<title> (ATEG_08460)
conserved hypothetical protein</title>
			<polygon class=" (ATEG_08460)
conserved hypothetical protein" points="790,25 810,25 810,10 840,40 810,70 810,55 790,55" fill="rgb(255,255,255)" fill-opacity="1.0" stroke="rgb(0,0,0)" stroke-width="2"  />
			<g>
				<title>Trp_halogenase (PF04820)
"Tryptophan halogenase"</title>
				<rect class="PF04820" x="801" y="28" stroke-linejoin="round" width="20" height="24" fill="rgb(179,74,194)" stroke="rgb(143,59,155)" stroke-width="1" opacity="0.75" />
			</g>
		</g>
	</g>
</svg>
