<svg version="1.1" baseProfile="full" xmlns="http://www.w3.org/2000/svg" width="8826.9" height="80">
	<g>
		<line x1="10" y1="40.0" x2="8816.9" y2="40.0" style="stroke:rgb(70,70,70); stroke-width:3 "/>
		<g>
			<title> (ZEAMMB73_863714)
benzoxazinone synthesis3</title>
			<polygon class=" (ZEAMMB73_863714)
benzoxazinone synthesis3" points="80,25 48,25 48,10 18,40 48,70 48,55 80,55" fill="rgb(255,255,255)" fill-opacity="1.0" stroke="rgb(0,0,0)" stroke-width="2"  />
			<g>
				<title>p450 (PF00067)
"Cytochrome P450"</title>
				<polygon class="PF00067" points="27,35 34,28 74,28 74,52 34,52 27,45" stroke-linejoin="round" width="47" height="24" fill="rgb(85,216,107)" stroke="rgb(68,172,85)" stroke-width="1" opacity="0.75" />
			</g>
		</g>
		<g>
			<title> (ZEAMMB73_863714_rename2)
benzoxazinone synthesis3 isoform 1</title>
			<polygon class=" (ZEAMMB73_863714_rename2)
benzoxazinone synthesis3 isoform 1" points="58,25 52,25 52,10 22,40 52,70 52,55 58,55" fill="rgb(255,255,255)" fill-opacity="1.0" stroke="rgb(0,0,0)" stroke-width="2"  />
		</g>
		<g>
			<title> (ZEAMMB73_863714_rename1)
benzoxazinone synthesis3</title>
			<polygon class=" (ZEAMMB73_863714_rename1)
benzoxazinone synthesis3" points="81,25 52,25 52,10 22,40 52,70 52,55 81,55" fill="rgb(255,255,255)" fill-opacity="1.0" stroke="rgb(0,0,0)" stroke-width="2"  />
		</g>
		<g>
			<title> (ZEAMMB73_863714_rename3)
benzoxazinone synthesis3</title>
			<polygon class=" (ZEAMMB73_863714_rename3)
benzoxazinone synthesis3" points="80,25 71,25 71,10 41,40 71,70 71,55 80,55" fill="rgb(255,255,255)" fill-opacity="1.0" stroke="rgb(0,0,0)" stroke-width="2"  />
		</g>
		<g>
			<title> (ZEAMMB73_162311)
benzoxazinone synthesis4</title>
			<polygon class=" (ZEAMMB73_162311)
benzoxazinone synthesis4" points="1673,25 1648,25 1648,10 1618,40 1648,70 1648,55 1673,55" fill="rgb(255,255,255)" fill-opacity="1.0" stroke="rgb(0,0,0)" stroke-width="2"  />
			<g>
				<title>p450 (PF00067)
"Cytochrome P450"</title>
				<polygon class="PF00067" points="1622,40 1634,28 1667,28 1667,52 1634,52" stroke-linejoin="round" width="46" height="24" fill="rgb(85,216,107)" stroke="rgb(68,172,85)" stroke-width="1" opacity="0.75" />
			</g>
		</g>
		<g>
			<title> (ZEAMMB73_240456)
benzoxazinone synthesis5</title>
			<polygon class=" (ZEAMMB73_240456)
benzoxazinone synthesis5" points="3686,25 3716,25 3716,10 3746,40 3716,70 3716,55 3686,55" fill="rgb(255,255,255)" fill-opacity="1.0" stroke="rgb(0,0,0)" stroke-width="2"  />
			<g>
				<title>p450 (PF00067)
"Cytochrome P450"</title>
				<polygon class="PF00067" points="3691,28 3730,28 3738,36 3738,44 3730,52 3691,52" stroke-linejoin="round" width="47" height="24" fill="rgb(85,216,107)" stroke="rgb(68,172,85)" stroke-width="1" opacity="0.75" />
			</g>
		</g>
		<g>
			<title> (ZEAMMB73_545831)
benzoxazinone synthesis8</title>
			<polygon class=" (ZEAMMB73_545831)
benzoxazinone synthesis8" points="7119,25 7100,25 7100,10 7070,40 7100,70 7100,55 7119,55" fill="rgb(255,255,255)" fill-opacity="1.0" stroke="rgb(0,0,0)" stroke-width="2"  />
		</g>
		<g>
			<title> (ZEAMMB73_545831_rename1)
benzoxazinone synthesis8</title>
			<polygon class=" (ZEAMMB73_545831_rename1)
benzoxazinone synthesis8" points="7120,25 7102,25 7102,10 7072,40 7102,70 7102,55 7120,55" fill="rgb(255,255,255)" fill-opacity="1.0" stroke="rgb(0,0,0)" stroke-width="2"  />
		</g>
		<g>
			<title> (ZEAMMB73_560692)
hypothetical protein</title>
			<polygon class=" (ZEAMMB73_560692)
hypothetical protein" points="7767,40 7772,10 7772,70" fill="rgb(255,255,255)" fill-opacity="1.0" stroke="rgb(0,0,0)" stroke-width="2"  />
		</g>
		<g>
			<title> (ZEAMMB73_785706)
hypothetical protein</title>
			<polygon class=" (ZEAMMB73_785706)
hypothetical protein" points="7767,10 7779,40 7767,70" fill="rgb(255,255,255)" fill-opacity="1.0" stroke="rgb(0,0,0)" stroke-width="2"  />
		</g>
		<g>
			<title> (ZEAMMB73_785706_rename1)
hypothetical protein</title>
			<polygon class=" (ZEAMMB73_785706_rename1)
hypothetical protein" points="7861,10 7865,40 7861,70" fill="rgb(255,255,255)" fill-opacity="1.0" stroke="rgb(0,0,0)" stroke-width="2"  />
		</g>
		<g>
			<title> (ZEAMMB73_785706_rename2)
hypothetical protein</title>
			<polygon class=" (ZEAMMB73_785706_rename2)
hypothetical protein" points="7864,10 7868,40 7864,70" fill="rgb(255,255,255)" fill-opacity="1.0" stroke="rgb(0,0,0)" stroke-width="2"  />
		</g>
		<g>
			<title> (ZEAMMB73_812273_rename2)
benzoxazinless1</title>
			<polygon class=" (ZEAMMB73_812273_rename2)
benzoxazinless1" points="8598,25 8615,25 8615,10 8645,40 8615,70 8615,55 8598,55" fill="rgb(255,255,255)" fill-opacity="1.0" stroke="rgb(0,0,0)" stroke-width="2"  />
		</g>
		<g>
			<title> (ZEAMMB73_812273)
benzoxazinless1</title>
			<polygon class=" (ZEAMMB73_812273)
benzoxazinless1" points="8598,25 8620,25 8620,10 8650,40 8620,70 8620,55 8598,55" fill="rgb(255,255,255)" fill-opacity="1.0" stroke="rgb(0,0,0)" stroke-width="2"  />
			<g>
				<title>Trp_syntA (PF00290)
"Tryptophan synthase alpha chain"</title>
				<rect class="PF00290" x="8607" y="28" stroke-linejoin="round" width="25" height="24" fill="rgb(101,209,118)" stroke="rgb(80,167,94)" stroke-width="1" opacity="0.75" />
			</g>
		</g>
		<g>
			<title> (ZEAMMB73_812273_rename1)
benzoxazinless1</title>
			<polygon class=" (ZEAMMB73_812273_rename1)
benzoxazinless1" points="8598,25 8620,25 8620,10 8650,40 8620,70 8620,55 8598,55" fill="rgb(255,255,255)" fill-opacity="1.0" stroke="rgb(0,0,0)" stroke-width="2"  />
		</g>
		<g>
			<title> (ZEAMMB73_560826)
benzoxazinone synthesis2</title>
			<polygon class=" (ZEAMMB73_560826)
benzoxazinone synthesis2" points="8750,25 8777,25 8777,10 8807,40 8777,70 8777,55 8750,55" fill="rgb(255,255,255)" fill-opacity="1.0" stroke="rgb(0,0,0)" stroke-width="2"  />
			<g>
				<title>p450 (PF00067)
"Cytochrome P450"</title>
				<polygon class="PF00067" points="8757,28 8791,28 8803,40 8803,40 8791,52 8757,52" stroke-linejoin="round" width="46" height="24" fill="rgb(85,216,107)" stroke="rgb(68,172,85)" stroke-width="1" opacity="0.75" />
			</g>
		</g>
		<g>
			<title> (ZEAMMB73_560826_rename1)
benzoxazinone synthesis2</title>
			<polygon class=" (ZEAMMB73_560826_rename1)
benzoxazinone synthesis2" points="8765,25 8777,25 8777,10 8807,40 8777,70 8777,55 8765,55" fill="rgb(255,255,255)" fill-opacity="1.0" stroke="rgb(0,0,0)" stroke-width="2"  />
		</g>
	</g>
</svg>
