<svg version="1.1" baseProfile="full" xmlns="http://www.w3.org/2000/svg" width="1239.0" height="80">
	<g>
		<line x1="10" y1="40.0" x2="1229.0" y2="40.0" style="stroke:rgb(70,70,70); stroke-width:3 "/>
		<g>
			<title>
halogenase, 2OG-Fe(II) oxygenase family</title>
			<polygon class="
halogenase, 2OG-Fe(II) oxygenase family" points="14,40 43,10 43,70" fill="rgb(255,255,255)" fill-opacity="1.0" stroke="rgb(0,0,0)" stroke-width="2"  />
		</g>
		<g>
			<title>
N-methyl transferase</title>
			<polygon class="
N-methyl transferase" points="103,25 99,25 99,10 69,40 99,70 99,55 103,55" fill="rgb(255,255,255)" fill-opacity="1.0" stroke="rgb(0,0,0)" stroke-width="2"  />
			<g>
				<title>Methyltransf_2 (PF00891)
"O-methyltransferase domain"</title>
				<polygon class="PF00891" points="73,40 85,28 91,28 91,52 85,52" stroke-linejoin="round" width="20" height="24" fill="rgb(50,51,190)" stroke="rgb(39,40,152)" stroke-width="1" opacity="0.75" />
			</g>
		</g>
		<g>
			<title>
Unknown</title>
			<polygon class="
Unknown" points="106,40 128,10 128,70" fill="rgb(255,255,255)" fill-opacity="1.0" stroke="rgb(0,0,0)" stroke-width="2"  />
		</g>
		<g>
			<title>
Rieske oxygenase</title>
			<polygon class="
Rieske oxygenase" points="165,25 159,25 159,10 129,40 159,70 159,55 165,55" fill="rgb(255,255,255)" fill-opacity="1.0" stroke="rgb(0,0,0)" stroke-width="2"  />
			<g>
				<title>Rieske (PF00355)
"Rieske [2Fe-2S] domain"</title>
				<rect class="PF00355" x="152" y="28" stroke-linejoin="round" width="9" height="24" fill="rgb(186,77,145)" stroke="rgb(148,61,115)" stroke-width="1" opacity="0.75" />
			</g>
		</g>
		<g>
			<title>
Rieske oxygenase</title>
			<polygon class="
Rieske oxygenase" points="207,25 201,25 201,10 171,40 201,70 201,55 207,55" fill="rgb(255,255,255)" fill-opacity="1.0" stroke="rgb(0,0,0)" stroke-width="2"  />
			<g>
				<title>KshA_C (PF19298)
"3-Ketosteroid 9alpha-hydroxylase C-terminal domain"</title>
				<polygon class="PF19298" points="175,40 187,28 192,28 192,52 187,52" stroke-linejoin="round" width="21" height="24" fill="rgb(155,81,203)" stroke="rgb(123,64,162)" stroke-width="1" opacity="0.75" />
			</g>
			<g>
				<title>Rieske (PF00355)
"Rieske [2Fe-2S] domain"</title>
				<rect class="PF00355" x="193" y="28" stroke-linejoin="round" width="10" height="24" fill="rgb(186,77,145)" stroke="rgb(148,61,115)" stroke-width="1" opacity="0.75" />
			</g>
		</g>
		<g>
			<title>
Rieske oxygenase</title>
			<polygon class="
Rieske oxygenase" points="249,25 244,25 244,10 214,40 244,70 244,55 249,55" fill="rgb(255,255,255)" fill-opacity="1.0" stroke="rgb(0,0,0)" stroke-width="2"  />
			<g>
				<title>KshA_C (PF19298)
"3-Ketosteroid 9alpha-hydroxylase C-terminal domain"</title>
				<polygon class="PF19298" points="218,40 230,28 235,28 235,52 230,52" stroke-linejoin="round" width="21" height="24" fill="rgb(155,81,203)" stroke="rgb(123,64,162)" stroke-width="1" opacity="0.75" />
			</g>
			<g>
				<title>Rieske (PF00355)
"Rieske [2Fe-2S] domain"</title>
				<rect class="PF00355" x="237" y="28" stroke-linejoin="round" width="9" height="24" fill="rgb(186,77,145)" stroke="rgb(148,61,115)" stroke-width="1" opacity="0.75" />
			</g>
		</g>
		<g>
			<title>
Rieske oxygenase</title>
			<polygon class="
Rieske oxygenase" points="292,25 286,25 286,10 256,40 286,70 286,55 292,55" fill="rgb(255,255,255)" fill-opacity="1.0" stroke="rgb(0,0,0)" stroke-width="2"  />
			<g>
				<title>KshA_C (PF19298)
"3-Ketosteroid 9alpha-hydroxylase C-terminal domain"</title>
				<polygon class="PF19298" points="260,40 272,28 278,28 278,52 272,52" stroke-linejoin="round" width="22" height="24" fill="rgb(155,81,203)" stroke="rgb(123,64,162)" stroke-width="1" opacity="0.75" />
			</g>
			<g>
				<title>Rieske (PF00355)
"Rieske [2Fe-2S] domain"</title>
				<rect class="PF00355" x="279" y="28" stroke-linejoin="round" width="9" height="24" fill="rgb(186,77,145)" stroke="rgb(148,61,115)" stroke-width="1" opacity="0.75" />
			</g>
		</g>
		<g>
			<title>
Unknown</title>
			<polygon class="
Unknown" points="298,40 320,10 320,70" fill="rgb(255,255,255)" fill-opacity="1.0" stroke="rgb(0,0,0)" stroke-width="2"  />
		</g>
		<g>
			<title>
4-hydroxy-3-methylbut-2-enyl diphosphate reductase(IspH)</title>
			<polygon class="
4-hydroxy-3-methylbut-2-enyl diphosphate reductase(IspH)" points="366,25 354,25 354,10 324,40 354,70 354,55 366,55" fill="rgb(255,255,255)" fill-opacity="1.0" stroke="rgb(0,0,0)" stroke-width="2"  />
			<g>
				<title>LYTB (PF02401)
"LytB protein"</title>
				<polygon class="PF02401" points="328,40 340,28 357,28 357,52 340,52" stroke-linejoin="round" width="33" height="24" fill="rgb(155,62,193)" stroke="rgb(124,49,154)" stroke-width="1" opacity="0.75" />
			</g>
		</g>
		<g>
			<title>
geranyl diphosphate synthase</title>
			<polygon class="
geranyl diphosphate synthase" points="400,25 397,25 397,10 367,40 397,70 397,55 400,55" fill="rgb(255,255,255)" fill-opacity="1.0" stroke="rgb(0,0,0)" stroke-width="2"  />
			<g>
				<title>polyprenyl_synt (PF00348)
"Polyprenyl synthetase"</title>
				<polygon class="PF00348" points="371,40 383,28 393,28 393,52 383,52" stroke-linejoin="round" width="25" height="24" fill="rgb(61,206,65)" stroke="rgb(48,164,52)" stroke-width="1" opacity="0.75" />
			</g>
		</g>
		<g>
			<title>
LuxR family transcriptional regulator</title>
			<polygon class="
LuxR family transcriptional regulator" points="455,10 478,40 455,70" fill="rgb(255,255,255)" fill-opacity="1.0" stroke="rgb(0,0,0)" stroke-width="2"  />
			<g>
				<title>Response_reg (PF00072)
"Response regulator receiver domain"</title>
				<polygon class="PF00072" points="455,28 465,28 466,29 466,51 465,52 455,52" stroke-linejoin="round" width="11" height="24" fill="rgb(100,107,203)" stroke="rgb(80,85,162)" stroke-width="1" opacity="0.75" />
			</g>
			<g>
				<title>GerE (PF00196)
"Bacterial regulatory proteins, luxR family"</title>
				<polygon class="PF00196" points="469,33 474,40 474,40 469,47" stroke-linejoin="round" width="5" height="24" fill="rgb(219,94,82)" stroke="rgb(175,75,65)" stroke-width="1" opacity="0.75" />
			</g>
		</g>
		<g>
			<title>
LuxR family transcriptional regulator</title>
			<polygon class="
LuxR family transcriptional regulator" points="485,40 509,10 509,70" fill="rgb(255,255,255)" fill-opacity="1.0" stroke="rgb(0,0,0)" stroke-width="2"  />
			<g>
				<title>GerE (PF00196)
"Bacterial regulatory proteins, luxR family"</title>
				<polygon class="PF00196" points="489,40 491,38 491,42" stroke-linejoin="round" width="5" height="24" fill="rgb(219,94,82)" stroke="rgb(175,75,65)" stroke-width="1" opacity="0.75" />
			</g>
		</g>
		<g>
			<title>
putative two component response regulator</title>
			<polygon class="
putative two component response regulator" points="529,25 535,25 535,10 565,40 535,70 535,55 529,55" fill="rgb(255,255,255)" fill-opacity="1.0" stroke="rgb(0,0,0)" stroke-width="2"  />
			<g>
				<title>Response_reg (PF00072)
"Response regulator receiver domain"</title>
				<rect class="PF00072" x="529" y="28" stroke-linejoin="round" width="11" height="24" fill="rgb(100,107,203)" stroke="rgb(80,85,162)" stroke-width="1" opacity="0.75" />
			</g>
			<g>
				<title>HisKA (PF00512)
"His Kinase A (phospho-acceptor) domain"</title>
				<rect class="PF00512" x="542" y="28" stroke-linejoin="round" width="6" height="24" fill="rgb(193,125,62)" stroke="rgb(154,100,49)" stroke-width="1" opacity="0.75" />
			</g>
			<g>
				<title>HATPase_c (PF02518)
"Histidine kinase-, DNA gyrase B-, and HSP90-like ATPase"</title>
				<polygon class="PF02518" points="554,33 561,40 554,47" stroke-linejoin="round" width="10" height="24" fill="rgb(80,94,225)" stroke="rgb(64,75,180)" stroke-width="1" opacity="0.75" />
			</g>
		</g>
		<g>
			<title>
phosphoglycerate mutase family protein</title>
			<polygon class="
phosphoglycerate mutase family protein" points="569,40 590,10 590,70" fill="rgb(255,255,255)" fill-opacity="1.0" stroke="rgb(0,0,0)" stroke-width="2"  />
			<g>
				<title>His_Phos_1 (PF00300)
"Histidine phosphatase superfamily (branch 1)"</title>
				<polygon class="PF00300" points="573,40 582,28 589,28 589,52 582,52" stroke-linejoin="round" width="19" height="24" fill="rgb(135,184,63)" stroke="rgb(107,147,50)" stroke-width="1" opacity="0.75" />
			</g>
		</g>
		<g>
			<title>
anthranilate phosphoribosyltransferase (TrpD)</title>
			<polygon class="
anthranilate phosphoribosyltransferase (TrpD)" points="627,25 621,25 621,10 591,40 621,70 621,55 627,55" fill="rgb(255,255,255)" fill-opacity="1.0" stroke="rgb(0,0,0)" stroke-width="2"  />
			<g>
				<title>Glycos_transf_3 (PF00591)
"Glycosyl transferase family, a/b domain"</title>
				<polygon class="PF00591" points="595,40 607,28 618,28 618,52 607,52" stroke-linejoin="round" width="26" height="24" fill="rgb(73,116,182)" stroke="rgb(58,92,145)" stroke-width="1" opacity="0.75" />
			</g>
			<g>
				<title>Glycos_trans_3N (PF02885)
"Glycosyl transferase family, helical bundle domain"</title>
				<rect class="PF02885" x="619" y="28" stroke-linejoin="round" width="6" height="24" fill="rgb(156,69,183)" stroke="rgb(124,55,146)" stroke-width="1" opacity="0.75" />
			</g>
		</g>
		<g>
			<title>
tryptophan synthase subunit beta (TrpB)</title>
			<polygon class="
tryptophan synthase subunit beta (TrpB)" points="669,25 658,25 658,10 628,40 658,70 658,55 669,55" fill="rgb(255,255,255)" fill-opacity="1.0" stroke="rgb(0,0,0)" stroke-width="2"  />
			<g>
				<title>PALP (PF00291)
"Pyridoxal-phosphate dependent enzyme"</title>
				<polygon class="PF00291" points="632,40 644,28 662,28 662,52 644,52" stroke-linejoin="round" width="33" height="24" fill="rgb(180,55,145)" stroke="rgb(144,44,116)" stroke-width="1" opacity="0.75" />
			</g>
		</g>
		<g>
			<title>
tryptophan synthase subunit alpha (TrpA)</title>
			<polygon class="
tryptophan synthase subunit alpha (TrpA)" points="675,40 702,10 702,70" fill="rgb(255,255,255)" fill-opacity="1.0" stroke="rgb(0,0,0)" stroke-width="2"  />
			<g>
				<title>Trp_syntA (PF00290)
"Tryptophan synthase alpha chain"</title>
				<polygon class="PF00290" points="679,40 690,28 701,28 701,52 690,52" stroke-linejoin="round" width="25" height="24" fill="rgb(101,209,118)" stroke="rgb(80,167,94)" stroke-width="1" opacity="0.75" />
			</g>
		</g>
		<g>
			<title>
indole-3-glycerol phosphate synthase (TrpC)</title>
			<polygon class="
indole-3-glycerol phosphate synthase (TrpC)" points="705,40 733,10 733,70" fill="rgb(255,255,255)" fill-opacity="1.0" stroke="rgb(0,0,0)" stroke-width="2"  />
			<g>
				<title>IGPS (PF00218)
"Indole-3-glycerol phosphate synthase"</title>
				<polygon class="PF00218" points="709,40 721,28 730,28 730,52 721,52" stroke-linejoin="round" width="25" height="24" fill="rgb(183,89,153)" stroke="rgb(146,71,122)" stroke-width="1" opacity="0.75" />
			</g>
		</g>
		<g>
			<title>
anthranilate synthase (TrpE)</title>
			<polygon class="
anthranilate synthase (TrpE)" points="811,25 768,25 768,10 738,40 768,70 768,55 811,55" fill="rgb(255,255,255)" fill-opacity="1.0" stroke="rgb(0,0,0)" stroke-width="2"  />
			<g>
				<title>GATase (PF00117)
"Glutamine amidotransferase class-I"</title>
				<polygon class="PF00117" points="742,40 754,28 757,28 757,52 754,52" stroke-linejoin="round" width="18" height="24" fill="rgb(159,201,96)" stroke="rgb(127,160,76)" stroke-width="1" opacity="0.75" />
			</g>
			<g>
				<title>Chorismate_bind (PF00425)
"chorismate binding enzyme"</title>
				<rect class="PF00425" x="762" y="28" stroke-linejoin="round" width="25" height="24" fill="rgb(188,116,88)" stroke="rgb(150,92,70)" stroke-width="1" opacity="0.75" />
			</g>
			<g>
				<title>Anth_synt_I_N (PF04715)
"Anthranilate synthase component I, N terminal region"</title>
				<rect class="PF04715" x="791" y="28" stroke-linejoin="round" width="17" height="24" fill="rgb(163,87,183)" stroke="rgb(130,69,146)" stroke-width="1" opacity="0.75" />
			</g>
		</g>
		<g>
			<title>
3-deoxy-D-arabinoheptulosonate 7-phosphate (DAHP) synthase</title>
			<polygon class="
3-deoxy-D-arabinoheptulosonate 7-phosphate (DAHP) synthase" points="844,25 844,25 844,10 814,40 844,70 844,55 844,55" fill="rgb(255,255,255)" fill-opacity="1.0" stroke="rgb(0,0,0)" stroke-width="2"  />
			<g>
				<title>DAHP_synth_1 (PF00793)
"DAHP synthetase I family"</title>
				<polygon class="PF00793" points="818,40 830,28 841,28 841,52 830,52" stroke-linejoin="round" width="25" height="24" fill="rgb(223,103,208)" stroke="rgb(178,82,166)" stroke-width="1" opacity="0.75" />
			</g>
		</g>
		<g>
			<title>
4-hydroxy-3-methylbut-2-en-1-yl diphosphate synthase (IspG)</title>
			<polygon class="
4-hydroxy-3-methylbut-2-en-1-yl diphosphate synthase (IspG)" points="889,25 879,25 879,10 849,40 879,70 879,55 889,55" fill="rgb(255,255,255)" fill-opacity="1.0" stroke="rgb(0,0,0)" stroke-width="2"  />
			<g>
				<title>GcpE (PF04551)
"GcpE protein"</title>
				<polygon class="PF04551" points="853,40 865,28 886,28 886,52 865,52" stroke-linejoin="round" width="37" height="24" fill="rgb(61,170,205)" stroke="rgb(48,136,164)" stroke-width="1" opacity="0.75" />
			</g>
		</g>
		<g>
			<title>
1-deoxy-D-xylulose-5-phosphate synthase (DXS)</title>
			<polygon class="
1-deoxy-D-xylulose-5-phosphate synthase (DXS)" points="956,25 922,25 922,10 892,40 922,70 922,55 956,55" fill="rgb(255,255,255)" fill-opacity="1.0" stroke="rgb(0,0,0)" stroke-width="2"  />
			<g>
				<title>Transketolase_C (PF02780)
"Transketolase, C-terminal domain"</title>
				<polygon class="PF02780" points="896,40 907,29 907,51" stroke-linejoin="round" width="12" height="24" fill="rgb(76,206,101)" stroke="rgb(60,164,80)" stroke-width="1" opacity="0.75" />
			</g>
			<g>
				<title>Transket_pyr (PF02779)
"Transketolase, pyrimidine binding domain"</title>
				<polygon class="PF02779" points="908,28 908,28 924,28 924,52 908,52 908,52" stroke-linejoin="round" width="16" height="24" fill="rgb(189,186,84)" stroke="rgb(151,148,67)" stroke-width="1" opacity="0.75" />
			</g>
			<g>
				<title>DXP_synthase_N (PF13292)
"1-deoxy-D-xylulose-5-phosphate synthase"</title>
				<rect class="PF13292" x="928" y="28" stroke-linejoin="round" width="27" height="24" fill="rgb(46,179,173)" stroke="rgb(36,143,138)" stroke-width="1" opacity="0.75" />
			</g>
		</g>
		<g>
			<title>
aromatic prenyl transferase</title>
			<polygon class="
aromatic prenyl transferase" points="995,25 995,25 995,10 965,40 995,70 995,55 995,55" fill="rgb(255,255,255)" fill-opacity="1.0" stroke="rgb(0,0,0)" stroke-width="2"  />
			<g>
				<title>PTase_Orf2 (PF11468)
"Aromatic prenyltransferase Orf2"</title>
				<polygon class="PF11468" points="969,40 981,28 995,28 995,52 981,52" stroke-linejoin="round" width="29" height="24" fill="rgb(121,52,185)" stroke="rgb(96,41,148)" stroke-width="1" opacity="0.75" />
			</g>
		</g>
		<g>
			<title>
isonitrile indole synthase B (IsnB)</title>
			<polygon class="
isonitrile indole synthase B (IsnB)" points="1006,40 1033,10 1033,70" fill="rgb(255,255,255)" fill-opacity="1.0" stroke="rgb(0,0,0)" stroke-width="2"  />
			<g>
				<title>TauD (PF02668)
"Taurine catabolism dioxygenase TauD, TfdA family"</title>
				<polygon class="PF02668" points="1010,40 1021,28 1031,28 1031,52 1021,52" stroke-linejoin="round" width="25" height="24" fill="rgb(180,79,217)" stroke="rgb(144,63,173)" stroke-width="1" opacity="0.75" />
			</g>
		</g>
		<g>
			<title>
isonitrile indole synthase A (IsnA)</title>
			<polygon class="
isonitrile indole synthase A (IsnA)" points="1067,25 1064,25 1064,10 1034,40 1064,70 1064,55 1067,55" fill="rgb(255,255,255)" fill-opacity="1.0" stroke="rgb(0,0,0)" stroke-width="2"  />
			<g>
				<title>DIT1_PvcA (PF05141)
"Pyoverdine/dityrosine biosynthesis protein"</title>
				<polygon class="PF05141" points="1038,40 1050,28 1061,28 1061,52 1050,52" stroke-linejoin="round" width="25" height="24" fill="rgb(213,100,188)" stroke="rgb(170,80,150)" stroke-width="1" opacity="0.75" />
			</g>
		</g>
		<g>
			<title>
isonitrile indole synthase A (IsnA)</title>
			<polygon class="
isonitrile indole synthase A (IsnA)" points="1113,25 1111,25 1111,10 1081,40 1111,70 1111,55 1113,55" fill="rgb(255,255,255)" fill-opacity="1.0" stroke="rgb(0,0,0)" stroke-width="2"  />
			<g>
				<title>DIT1_PvcA (PF05141)
"Pyoverdine/dityrosine biosynthesis protein"</title>
				<polygon class="PF05141" points="1085,40 1097,28 1108,28 1108,52 1097,52" stroke-linejoin="round" width="25" height="24" fill="rgb(213,100,188)" stroke="rgb(170,80,150)" stroke-width="1" opacity="0.75" />
			</g>
		</g>
		<g>
			<title>
transposase</title>
			<polygon class="
transposase" points="1122,10 1139,40 1122,70" fill="rgb(255,255,255)" fill-opacity="1.0" stroke="rgb(0,0,0)" stroke-width="2"  />
			<g>
				<title>HTH_32 (PF13565)
"Homeodomain-like domain"</title>
				<polygon class="PF13565" points="1127,28 1128,28 1134,38 1134,42 1128,52 1127,52" stroke-linejoin="round" width="7" height="24" fill="rgb(89,225,112)" stroke="rgb(71,180,89)" stroke-width="1" opacity="0.75" />
			</g>
		</g>
		<g>
			<title>
transposase</title>
			<polygon class="
transposase" points="1141,10 1158,40 1141,70" fill="rgb(255,255,255)" fill-opacity="1.0" stroke="rgb(0,0,0)" stroke-width="2"  />
			<g>
				<title>DDE_3 (PF13358)
"DDE superfamily endonuclease"</title>
				<polygon class="PF13358" points="1141,28 1147,28 1154,39 1154,41 1147,52 1141,52" stroke-linejoin="round" width="13" height="24" fill="rgb(50,81,198)" stroke="rgb(40,64,158)" stroke-width="1" opacity="0.75" />
			</g>
		</g>
		<g>
			<title>
1-deoxy-D-xylulose 5-phosphate reductoisomerase (IspC, Dxr)</title>
			<polygon class="
1-deoxy-D-xylulose 5-phosphate reductoisomerase (IspC, Dxr)" points="1205,25 1196,25 1196,10 1166,40 1196,70 1196,55 1205,55" fill="rgb(255,255,255)" fill-opacity="1.0" stroke="rgb(0,0,0)" stroke-width="2"  />
			<g>
				<title>DXPR_C (PF13288)
"DXP reductoisomerase C-terminal domain"</title>
				<polygon class="PF13288" points="1170,40 1179,31 1179,49" stroke-linejoin="round" width="11" height="24" fill="rgb(184,95,48)" stroke="rgb(147,76,38)" stroke-width="1" opacity="0.75" />
			</g>
			<g>
				<title>DXP_redisom_C (PF08436)
"1-deoxy-D-xylulose 5-phosphate reductoisomerase C-terminal domain"</title>
				<rect class="PF08436" x="1183" y="28" stroke-linejoin="round" width="8" height="24" fill="rgb(160,186,55)" stroke="rgb(127,148,44)" stroke-width="1" opacity="0.75" />
			</g>
			<g>
				<title>DXP_reductoisom (PF02670)
"1-deoxy-D-xylulose 5-phosphate reductoisomerase"</title>
				<rect class="PF02670" x="1193" y="28" stroke-linejoin="round" width="11" height="24" fill="rgb(106,225,169)" stroke="rgb(84,180,135)" stroke-width="1" opacity="0.75" />
			</g>
		</g>
		<g>
			<title>
dephospho-CoA kinase-like protein</title>
			<polygon class="
dephospho-CoA kinase-like protein" points="1209,40 1228,10 1228,70" fill="rgb(255,255,255)" fill-opacity="1.0" stroke="rgb(0,0,0)" stroke-width="2"  />
			<g>
				<title>AAA_17 (PF13207)
"AAA domain"</title>
				<polygon class="PF13207" points="1214,38 1221,28 1227,28 1227,52 1221,52 1214,42" stroke-linejoin="round" width="13" height="24" fill="rgb(217,172,75)" stroke="rgb(173,137,59)" stroke-width="1" opacity="0.75" />
			</g>
		</g>
	</g>
</svg>
