<svg version="1.1" baseProfile="full" xmlns="http://www.w3.org/2000/svg" width="605.9333333333333" height="80">
	<g>
		<line x1="10" y1="40.0" x2="595.9333333333333" y2="40.0" style="stroke:rgb(70,70,70); stroke-width:3 "/>
		<g>
			<title> (AQI70_32520)
hypothetical protein</title>
			<polygon class=" (AQI70_32520)
hypothetical protein" points="10,40 36,10 36,70" fill="rgb(255,255,255)" fill-opacity="1.0" stroke="rgb(0,0,0)" stroke-width="2"  />
			<g>
				<title>MDMPI_C (PF07398)
"MDMPI C-terminal domain"</title>
				<polygon class="PF07398" points="14,40 19,34 19,46" stroke-linejoin="round" width="9" height="24" fill="rgb(69,145,202)" stroke="rgb(55,115,161)" stroke-width="1" opacity="0.75" />
			</g>
			<g>
				<title>MDMPI_N (PF11716)
"Mycothiol maleylpyruvate isomerase N-terminal domain"</title>
				<polygon class="PF11716" points="21,32 25,28 34,28 34,52 25,52 21,48" stroke-linejoin="round" width="13" height="24" fill="rgb(214,107,221)" stroke="rgb(171,85,176)" stroke-width="1" opacity="0.75" />
			</g>
		</g>
		<g>
			<title> (AQI70_32525)
hypothetical protein</title>
			<polygon class=" (AQI70_32525)
hypothetical protein" points="61,10 72,40 61,70" fill="rgb(255,255,255)" fill-opacity="1.0" stroke="rgb(0,0,0)" stroke-width="2"  />
		</g>
		<g>
			<title> (AQI70_32530)
hypothetical protein</title>
			<polygon class=" (AQI70_32530)
hypothetical protein" points="71,40 97,10 97,70" fill="rgb(255,255,255)" fill-opacity="1.0" stroke="rgb(0,0,0)" stroke-width="2"  />
			<g>
				<title>Thioesterase (PF00975)
"Thioesterase domain"</title>
				<polygon class="PF00975" points="75,40 85,28 93,28 93,52 85,52" stroke-linejoin="round" width="22" height="24" fill="rgb(207,80,138)" stroke="rgb(165,63,110)" stroke-width="1" opacity="0.75" />
			</g>
		</g>
		<g>
			<title> (AQI70_32535)
hypothetical protein</title>
			<polygon class=" (AQI70_32535)
hypothetical protein" points="136,25 127,25 127,10 97,40 127,70 127,55 136,55" fill="rgb(255,255,255)" fill-opacity="1.0" stroke="rgb(0,0,0)" stroke-width="2"  />
			<g>
				<title>MFS_3 (PF05977)
"Transmembrane secretion effector"</title>
				<polygon class="PF05977" points="101,40 113,28 134,28 134,52 113,52" stroke-linejoin="round" width="37" height="24" fill="rgb(80,62,217)" stroke="rgb(64,49,173)" stroke-width="1" opacity="0.75" />
			</g>
		</g>
		<g>
			<title> (AQI70_32540)
hypothetical protein</title>
			<polygon class=" (AQI70_32540)
hypothetical protein" points="149,10 156,40 149,70" fill="rgb(255,255,255)" fill-opacity="1.0" stroke="rgb(0,0,0)" stroke-width="2"  />
		</g>
		<g>
			<title> (AQI70_32545)
hypothetical protein</title>
			<polygon class=" (AQI70_32545)
hypothetical protein" points="158,10 172,40 158,70" fill="rgb(255,255,255)" fill-opacity="1.0" stroke="rgb(0,0,0)" stroke-width="2"  />
		</g>
		<g>
			<title> (AQI70_32550)
LuxR family transcriptional regulator</title>
			<polygon class=" (AQI70_32550)
LuxR family transcriptional regulator" points="183,40 205,10 205,70" fill="rgb(255,255,255)" fill-opacity="1.0" stroke="rgb(0,0,0)" stroke-width="2"  />
			<g>
				<title>GerE (PF00196)
"Bacterial regulatory proteins, luxR family"</title>
				<polygon class="PF00196" points="187,40 190,36 190,44" stroke-linejoin="round" width="5" height="24" fill="rgb(219,94,82)" stroke="rgb(175,75,65)" stroke-width="1" opacity="0.75" />
			</g>
			<g>
				<title>Response_reg (PF00072)
"Response regulator receiver domain"</title>
				<polygon class="PF00072" points="193,32 196,28 204,28 204,52 196,52 193,48" stroke-linejoin="round" width="11" height="24" fill="rgb(100,107,203)" stroke="rgb(80,85,162)" stroke-width="1" opacity="0.75" />
			</g>
		</g>
		<g>
			<title> (AQI70_32555)
histidine kinase</title>
			<polygon class=" (AQI70_32555)
histidine kinase" points="245,25 235,25 235,10 205,40 235,70 235,55 245,55" fill="rgb(255,255,255)" fill-opacity="1.0" stroke="rgb(0,0,0)" stroke-width="2"  />
			<g>
				<title>HisKA_3 (PF07730)
"Histidine kinase"</title>
				<polygon class="PF07730" points="217,32 221,28 223,28 223,52 221,52 217,48" stroke-linejoin="round" width="6" height="24" fill="rgb(190,53,146)" stroke="rgb(152,42,116)" stroke-width="1" opacity="0.75" />
			</g>
			<g>
				<title>Sensor (PF13796)
"Putative sensor"</title>
				<rect class="PF13796" x="227" y="28" stroke-linejoin="round" width="16" height="24" fill="rgb(58,158,187)" stroke="rgb(46,126,149)" stroke-width="1" opacity="0.75" />
			</g>
		</g>
		<g>
			<title> (AQI70_32560)
ABC transporter ATP-binding protein</title>
			<polygon class=" (AQI70_32560)
ABC transporter ATP-binding protein" points="252,10 279,40 252,70" fill="rgb(255,255,255)" fill-opacity="1.0" stroke="rgb(0,0,0)" stroke-width="2"  />
			<g>
				<title>ABC_tran (PF00005)
"ABC transporter"</title>
				<polygon class="PF00005" points="256,28 263,28 271,36 271,44 263,52 256,52" stroke-linejoin="round" width="15" height="24" fill="rgb(129,201,63)" stroke="rgb(103,160,50)" stroke-width="1" opacity="0.75" />
			</g>
		</g>
		<g>
			<title> (AQI70_32565)
ABC transporter permease</title>
			<polygon class=" (AQI70_32565)
ABC transporter permease" points="279,25 340,25 340,10 370,40 340,70 340,55 279,55" fill="rgb(255,255,255)" fill-opacity="1.0" stroke="rgb(0,0,0)" stroke-width="2"  />
			<g>
				<title>FtsX (PF02687)
"FtsX-like permease family"</title>
				<rect class="PF02687" x="312" y="28" stroke-linejoin="round" width="12" height="24" fill="rgb(126,55,214)" stroke="rgb(100,44,171)" stroke-width="1" opacity="0.75" />
			</g>
			<g>
				<title>FtsX (PF02687)
"FtsX-like permease family"</title>
				<polygon class="PF02687" points="358,32 366,40 358,48" stroke-linejoin="round" width="11" height="24" fill="rgb(126,55,214)" stroke="rgb(100,44,171)" stroke-width="1" opacity="0.75" />
			</g>
		</g>
		<g>
			<title> (AQI70_32570)
hypothetical protein</title>
			<polygon class=" (AQI70_32570)
hypothetical protein" points="375,10 388,40 375,70" fill="rgb(255,255,255)" fill-opacity="1.0" stroke="rgb(0,0,0)" stroke-width="2"  />
		</g>
		<g>
			<title> (AQI70_32575)
hypothetical protein</title>
			<polygon class=" (AQI70_32575)
hypothetical protein" points="399,25 411,25 411,10 441,40 411,70 411,55 399,55" fill="rgb(255,255,255)" fill-opacity="1.0" stroke="rgb(0,0,0)" stroke-width="2"  />
			<g>
				<title>Beta-lactamase (PF00144)
"Beta-lactamase"</title>
				<polygon class="PF00144" points="399,28 425,28 431,34 431,46 425,52 399,52" stroke-linejoin="round" width="32" height="24" fill="rgb(92,159,200)" stroke="rgb(73,127,160)" stroke-width="1" opacity="0.75" />
			</g>
		</g>
		<g>
			<title> (AQI70_32580)</title>
			<polygon class=" (AQI70_32580)" points="444,25 565,25 565,10 595,40 565,70 565,55 444,55" fill="rgb(255,255,255)" fill-opacity="1.0" stroke="rgb(0,0,0)" stroke-width="2"  />
			<g>
				<title>AMP-binding (PF00501)
"AMP-binding enzyme"</title>
				<rect class="PF00501" x="446" y="28" stroke-linejoin="round" width="39" height="24" fill="rgb(60,217,223)" stroke="rgb(48,173,178)" stroke-width="1" opacity="0.75" />
			</g>
			<g>
				<title>AMP-binding_C (PF13193)
"AMP-binding enzyme C-terminal domain"</title>
				<rect class="PF13193" x="486" y="28" stroke-linejoin="round" width="7" height="24" fill="rgb(182,50,118)" stroke="rgb(145,39,94)" stroke-width="1" opacity="0.75" />
			</g>
			<g>
				<title>PP-binding (PF00550)
"Phosphopantetheine attachment site"</title>
				<rect class="PF00550" x="496" y="28" stroke-linejoin="round" width="6" height="24" fill="rgb(103,191,88)" stroke="rgb(82,152,70)" stroke-width="1" opacity="0.75" />
			</g>
			<g>
				<title>Condensation (PF00668)
"Condensation domain"</title>
				<rect class="PF00668" x="505" y="28" stroke-linejoin="round" width="45" height="24" fill="rgb(224,184,98)" stroke="rgb(179,147,78)" stroke-width="1" opacity="0.75" />
			</g>
			<g>
				<title>AMP-binding (PF00501)
"AMP-binding enzyme"</title>
				<polygon class="PF00501" points="552,28 579,28 591,40 591,40 579,52 552,52" stroke-linejoin="round" width="39" height="24" fill="rgb(60,217,223)" stroke="rgb(48,173,178)" stroke-width="1" opacity="0.75" />
			</g>
		</g>
	</g>
</svg>
