<svg version="1.1" baseProfile="full" xmlns="http://www.w3.org/2000/svg" width="1227.2" height="80">
	<g>
		<line x1="10" y1="40.0" x2="1217.2" y2="40.0" style="stroke:rgb(70,70,70); stroke-width:3 "/>
		<g>
			<title>
amidohydrolase</title>
			<polygon class="
amidohydrolase" points="10,25 25,25 25,10 55,40 25,70 25,55 10,55" fill="rgb(255,255,255)" fill-opacity="1.0" stroke="rgb(0,0,0)" stroke-width="2"  />
			<g>
				<title>Amidohydro_1 (PF01979)
"Amidohydrolase family"</title>
				<rect class="PF01979" x="18" y="28" stroke-linejoin="round" width="13" height="24" fill="rgb(210,93,184)" stroke="rgb(168,74,147)" stroke-width="1" opacity="0.75" />
			</g>
			<g>
				<title>Amidohydro_1 (PF01979)
"Amidohydrolase family"</title>
				<polygon class="PF01979" points="32,28 38,28 50,40 38,52 32,52" stroke-linejoin="round" width="19" height="24" fill="rgb(210,93,184)" stroke="rgb(168,74,147)" stroke-width="1" opacity="0.75" />
			</g>
		</g>
		<g>
			<title>
marR family transcriptional regulator</title>
			<polygon class="
marR family transcriptional regulator" points="57,40 74,10 74,70" fill="rgb(255,255,255)" fill-opacity="1.0" stroke="rgb(0,0,0)" stroke-width="2"  />
			<g>
				<title>MarR_2 (PF12802)
"MarR family"</title>
				<polygon class="PF12802" points="62,36 67,28 68,28 68,52 67,52 62,44" stroke-linejoin="round" width="6" height="24" fill="rgb(46,89,185)" stroke="rgb(36,71,148)" stroke-width="1" opacity="0.75" />
			</g>
		</g>
		<g>
			<title>
hypothetical protein</title>
			<polygon class="
hypothetical protein" points="78,25 83,25 83,10 113,40 83,70 83,55 78,55" fill="rgb(255,255,255)" fill-opacity="1.0" stroke="rgb(0,0,0)" stroke-width="2"  />
		</g>
		<g>
			<title>
transposase</title>
			<polygon class="
transposase" points="146,25 146,25 146,10 116,40 146,70 146,55 146,55" fill="rgb(255,255,255)" fill-opacity="1.0" stroke="rgb(0,0,0)" stroke-width="2"  />
			<g>
				<title>DDE_Tnp_ISL3 (PF01610)
"Transposase"</title>
				<polygon class="PF01610" points="120,40 125,35 125,45" stroke-linejoin="round" width="9" height="24" fill="rgb(227,129,58)" stroke="rgb(181,103,46)" stroke-width="1" opacity="0.75" />
			</g>
			<g>
				<title>DDE_Tnp_ISL3 (PF01610)
"Transposase"</title>
				<rect class="PF01610" x="133" y="28" stroke-linejoin="round" width="12" height="24" fill="rgb(227,129,58)" stroke="rgb(181,103,46)" stroke-width="1" opacity="0.75" />
			</g>
		</g>
		<g>
			<title>
hypothetical protein</title>
			<polygon class="
hypothetical protein" points="148,40 161,10 161,70" fill="rgb(255,255,255)" fill-opacity="1.0" stroke="rgb(0,0,0)" stroke-width="2"  />
		</g>
		<g>
			<title>
hypothetical protein</title>
			<polygon class="
hypothetical protein" points="163,10 176,40 163,70" fill="rgb(255,255,255)" fill-opacity="1.0" stroke="rgb(0,0,0)" stroke-width="2"  />
		</g>
		<g>
			<title>
zinc-containing alcohol dehydrogenase</title>
			<polygon class="
zinc-containing alcohol dehydrogenase" points="208,25 207,25 207,10 177,40 207,70 207,55 208,55" fill="rgb(255,255,255)" fill-opacity="1.0" stroke="rgb(0,0,0)" stroke-width="2"  />
			<g>
				<title>ADH_zinc_N_2 (PF13602)
"Zinc-binding dehydrogenase"</title>
				<polygon class="PF13602" points="181,40 189,32 189,48" stroke-linejoin="round" width="12" height="24" fill="rgb(101,131,226)" stroke="rgb(80,104,180)" stroke-width="1" opacity="0.75" />
			</g>
			<g>
				<title>ADH_N (PF08240)
"Alcohol dehydrogenase GroES-like domain"</title>
				<rect class="PF08240" x="198" y="28" stroke-linejoin="round" width="7" height="24" fill="rgb(211,65,138)" stroke="rgb(168,51,110)" stroke-width="1" opacity="0.75" />
			</g>
		</g>
		<g>
			<title>rubS1
FAD-linked oxidoreductase</title>
			<polygon class="rubS1
FAD-linked oxidoreductase" points="218,25 237,25 237,10 267,40 237,70 237,55 218,55" fill="rgb(255,255,255)" fill-opacity="1.0" stroke="rgb(0,0,0)" stroke-width="2"  />
			<g>
				<title>FAD_binding_4 (PF01565)
"FAD binding domain"</title>
				<rect class="PF01565" x="219" y="28" stroke-linejoin="round" width="13" height="24" fill="rgb(226,88,136)" stroke="rgb(180,70,108)" stroke-width="1" opacity="0.75" />
			</g>
			<g>
				<title>BBE (PF08031)
"Berberine and berberine like"</title>
				<polygon class="PF08031" points="261,38 263,40 261,42" stroke-linejoin="round" width="5" height="24" fill="rgb(210,73,83)" stroke="rgb(168,58,66)" stroke-width="1" opacity="0.75" />
			</g>
		</g>
		<g>
			<title>rubN1
hypothetical protein</title>
			<polygon class="rubN1
hypothetical protein" points="267,10 280,40 267,70" fill="rgb(255,255,255)" fill-opacity="1.0" stroke="rgb(0,0,0)" stroke-width="2"  />
			<g>
				<title>SnoaL_3 (PF13474)
"SnoaL-like domain"</title>
				<polygon class="PF13474" points="268,28 271,28 277,40 271,52 268,52" stroke-linejoin="round" width="11" height="24" fill="rgb(182,82,66)" stroke="rgb(145,65,52)" stroke-width="1" opacity="0.75" />
			</g>
		</g>
		<g>
			<title>rubS2
dTDP-4-keto-6-deoxy-D-glucose 3,5-epimerase</title>
			<polygon class="rubS2
dTDP-4-keto-6-deoxy-D-glucose 3,5-epimerase" points="285,10 305,40 285,70" fill="rgb(255,255,255)" fill-opacity="1.0" stroke="rgb(0,0,0)" stroke-width="2"  />
			<g>
				<title>dTDP_sugar_isom (PF00908)
"dTDP-4-dehydrorhamnose 3,5-epimerase"</title>
				<polygon class="PF00908" points="285,28 293,28 301,40 293,52 285,52" stroke-linejoin="round" width="17" height="24" fill="rgb(184,89,121)" stroke="rgb(147,71,96)" stroke-width="1" opacity="0.75" />
			</g>
		</g>
		<g>
			<title>rubS3
dTDP-glucose-4-ketoreductase</title>
			<polygon class="rubS3
dTDP-glucose-4-ketoreductase" points="341,25 340,25 340,10 310,40 340,70 340,55 341,55" fill="rgb(255,255,255)" fill-opacity="1.0" stroke="rgb(0,0,0)" stroke-width="2"  />
			<g>
				<title>RmlD_sub_bind (PF04321)
"RmlD substrate binding domain"</title>
				<polygon class="PF04321" points="314,40 326,28 340,28 340,52 326,52" stroke-linejoin="round" width="29" height="24" fill="rgb(196,203,60)" stroke="rgb(156,162,47)" stroke-width="1" opacity="0.75" />
			</g>
		</g>
		<g>
			<title>rubS4
dTDP-glucose 4,6 dehydratase</title>
			<polygon class="rubS4
dTDP-glucose 4,6 dehydratase" points="375,25 371,25 371,10 341,40 371,70 371,55 375,55" fill="rgb(255,255,255)" fill-opacity="1.0" stroke="rgb(0,0,0)" stroke-width="2"  />
			<g>
				<title>GDP_Man_Dehyd (PF16363)
"GDP-mannose 4,6 dehydratase"</title>
				<polygon class="PF16363" points="345,40 357,28 374,28 374,52 357,52" stroke-linejoin="round" width="30" height="24" fill="rgb(162,221,65)" stroke="rgb(129,176,51)" stroke-width="1" opacity="0.75" />
			</g>
		</g>
		<g>
			<title>rubS5
Glucose-1-phosphate thymidylyltransferase</title>
			<polygon class="rubS5
Glucose-1-phosphate thymidylyltransferase" points="376,40 405,10 405,70" fill="rgb(255,255,255)" fill-opacity="1.0" stroke="rgb(0,0,0)" stroke-width="2"  />
			<g>
				<title>NTP_transferase (PF00483)
"Nucleotidyl transferase"</title>
				<polygon class="PF00483" points="381,39 392,28 404,28 404,52 392,52 381,41" stroke-linejoin="round" width="23" height="24" fill="rgb(198,101,87)" stroke="rgb(158,80,69)" stroke-width="1" opacity="0.75" />
			</g>
		</g>
		<g>
			<title>rubS6
NAD dependent epimerase/dehydratase</title>
			<polygon class="rubS6
NAD dependent epimerase/dehydratase" points="405,40 432,10 432,70" fill="rgb(255,255,255)" fill-opacity="1.0" stroke="rgb(0,0,0)" stroke-width="2"  />
			<g>
				<title>NAD_binding_10 (PF13460)
"NAD(P)H-binding"</title>
				<polygon class="PF13460" points="415,34 420,28 432,28 432,52 420,52 415,46" stroke-linejoin="round" width="17" height="24" fill="rgb(188,201,78)" stroke="rgb(150,160,62)" stroke-width="1" opacity="0.75" />
			</g>
		</g>
		<g>
			<title>rubS7
Glycosyltransferase</title>
			<polygon class="rubS7
Glycosyltransferase" points="475,25 467,25 467,10 437,40 467,70 467,55 475,55" fill="rgb(255,255,255)" fill-opacity="1.0" stroke="rgb(0,0,0)" stroke-width="2"  />
			<g>
				<title>DUF1205 (PF06722)
"Protein of unknown function (DUF1205)"</title>
				<polygon class="PF06722" points="448,33 453,28 457,28 457,52 453,52 448,47" stroke-linejoin="round" width="9" height="24" fill="rgb(200,129,88)" stroke="rgb(160,103,70)" stroke-width="1" opacity="0.75" />
			</g>
		</g>
		<g>
			<title>rubR
SARP family transcriptional regulator</title>
			<polygon class="rubR
SARP family transcriptional regulator" points="516,25 512,25 512,10 482,40 512,70 512,55 516,55" fill="rgb(255,255,255)" fill-opacity="1.0" stroke="rgb(0,0,0)" stroke-width="2"  />
			<g>
				<title>BTAD (PF03704)
"Bacterial transcriptional activator domain"</title>
				<polygon class="PF03704" points="486,40 497,29 497,51" stroke-linejoin="round" width="14" height="24" fill="rgb(217,89,196)" stroke="rgb(173,71,156)" stroke-width="1" opacity="0.75" />
			</g>
			<g>
				<title>Trans_reg_C (PF00486)
"Transcriptional regulatory protein, C terminal"</title>
				<polygon class="PF00486" points="498,28 498,28 506,28 506,52 498,52 498,52" stroke-linejoin="round" width="8" height="24" fill="rgb(204,153,57)" stroke="rgb(163,122,45)" stroke-width="1" opacity="0.75" />
			</g>
		</g>
		<g>
			<title>rubN2
hypothetical protein</title>
			<polygon class="rubN2
hypothetical protein" points="519,40 530,10 530,70" fill="rgb(255,255,255)" fill-opacity="1.0" stroke="rgb(0,0,0)" stroke-width="2"  />
		</g>
		<g>
			<title>rubA
F420-dependent oxidoreductase</title>
			<polygon class="rubA
F420-dependent oxidoreductase" points="552,25 553,25 553,10 583,40 553,70 553,55 552,55" fill="rgb(255,255,255)" fill-opacity="1.0" stroke="rgb(0,0,0)" stroke-width="2"  />
			<g>
				<title>Bac_luciferase (PF00296)
"Luciferase-like monooxygenase"</title>
				<polygon class="PF00296" points="552,28 566,28 577,39 577,41 566,52 552,52" stroke-linejoin="round" width="25" height="24" fill="rgb(180,112,78)" stroke="rgb(144,89,62)" stroke-width="1" opacity="0.75" />
			</g>
		</g>
		<g>
			<title>rubB
oxygenase</title>
			<polygon class="rubB
oxygenase" points="602,25 623,25 623,10 653,40 623,70 623,55 602,55" fill="rgb(255,255,255)" fill-opacity="1.0" stroke="rgb(0,0,0)" stroke-width="2"  />
			<g>
				<title>FAD_binding_3 (PF01494)
"FAD binding domain"</title>
				<rect class="PF01494" x="602" y="28" stroke-linejoin="round" width="35" height="24" fill="rgb(182,175,59)" stroke="rgb(145,140,47)" stroke-width="1" opacity="0.75" />
			</g>
		</g>
		<g>
			<title>rubC
naphthocyclinone hydroxylase</title>
			<polygon class="rubC
naphthocyclinone hydroxylase" points="654,25 663,25 663,10 693,40 663,70 663,55 654,55" fill="rgb(255,255,255)" fill-opacity="1.0" stroke="rgb(0,0,0)" stroke-width="2"  />
			<g>
				<title>Acyl-CoA_dh_2 (PF08028)
"Acyl-CoA dehydrogenase, C-terminal domain"</title>
				<polygon class="PF08028" points="679,31 688,40 679,49" stroke-linejoin="round" width="12" height="24" fill="rgb(106,185,56)" stroke="rgb(84,148,44)" stroke-width="1" opacity="0.75" />
			</g>
		</g>
		<g>
			<title>rubE1
ketoacylsynthase III</title>
			<polygon class="rubE1
ketoacylsynthase III" points="737,25 735,25 735,10 705,40 735,70 735,55 737,55" fill="rgb(255,255,255)" fill-opacity="1.0" stroke="rgb(0,0,0)" stroke-width="2"  />
			<g>
				<title>ACP_syn_III_C (PF08541)
"3-Oxoacyl-[acyl-carrier-protein (ACP)] synthase III C terminal"</title>
				<polygon class="PF08541" points="709,40 715,34 715,46" stroke-linejoin="round" width="9" height="24" fill="rgb(146,207,81)" stroke="rgb(116,165,64)" stroke-width="1" opacity="0.75" />
			</g>
			<g>
				<title>ACP_syn_III (PF08545)
"3-Oxoacyl-[acyl-carrier-protein (ACP)] synthase III"</title>
				<polygon class="PF08545" points="720,29 721,28 727,28 727,52 721,52 720,51" stroke-linejoin="round" width="7" height="24" fill="rgb(189,102,84)" stroke="rgb(151,81,67)" stroke-width="1" opacity="0.75" />
			</g>
		</g>
		<g>
			<title>rubE2
acyl carrier protein</title>
			<polygon class="rubE2
acyl carrier protein" points="747,10 756,40 747,70" fill="rgb(255,255,255)" fill-opacity="1.0" stroke="rgb(0,0,0)" stroke-width="2"  />
			<g>
				<title>PP-binding (PF00550)
"Phosphopantetheine attachment site"</title>
				<polygon class="PF00550" points="747,28 749,28 753,40 749,52 747,52" stroke-linejoin="round" width="7" height="24" fill="rgb(103,191,88)" stroke="rgb(82,152,70)" stroke-width="1" opacity="0.75" />
			</g>
		</g>
		<g>
			<title>rubE3
acyl transferase</title>
			<polygon class="rubE3
acyl transferase" points="761,25 761,25 761,10 791,40 761,70 761,55 761,55" fill="rgb(255,255,255)" fill-opacity="1.0" stroke="rgb(0,0,0)" stroke-width="2"  />
			<g>
				<title>Acyl_transf_1 (PF00698)
"Acyl transferase domain"</title>
				<polygon class="PF00698" points="761,28 775,28 787,40 775,52 761,52" stroke-linejoin="round" width="30" height="24" fill="rgb(59,176,209)" stroke="rgb(47,140,167)" stroke-width="1" opacity="0.75" />
			</g>
		</g>
		<g>
			<title>rubE4
acyl carrier protein</title>
			<polygon class="rubE4
acyl carrier protein" points="794,10 802,40 794,70" fill="rgb(255,255,255)" fill-opacity="1.0" stroke="rgb(0,0,0)" stroke-width="2"  />
			<g>
				<title>PP-binding (PF00550)
"Phosphopantetheine attachment site"</title>
				<polygon class="PF00550" points="794,28 795,28 799,40 795,52 794,52" stroke-linejoin="round" width="7" height="24" fill="rgb(103,191,88)" stroke="rgb(82,152,70)" stroke-width="1" opacity="0.75" />
			</g>
		</g>
		<g>
			<title>rubE5
bifunctional cyclase/dehydratase</title>
			<polygon class="rubE5
bifunctional cyclase/dehydratase" points="817,10 833,40 817,70" fill="rgb(255,255,255)" fill-opacity="1.0" stroke="rgb(0,0,0)" stroke-width="2"  />
			<g>
				<title>Polyketide_cyc (PF03364)
"Polyketide cyclase / dehydrase and lipid transport"</title>
				<polygon class="PF03364" points="818,28 823,28 830,40 830,40 823,52 818,52" stroke-linejoin="round" width="12" height="24" fill="rgb(221,94,106)" stroke="rgb(176,75,84)" stroke-width="1" opacity="0.75" />
			</g>
		</g>
		<g>
			<title>rubE6
cyclase</title>
			<polygon class="rubE6
cyclase" points="834,10 859,40 834,70" fill="rgb(255,255,255)" fill-opacity="1.0" stroke="rgb(0,0,0)" stroke-width="2"  />
			<g>
				<title>Cyclase (PF04199)
"Putative cyclase"</title>
				<polygon class="PF04199" points="834,28 845,28 851,35 851,45 845,52 834,52" stroke-linejoin="round" width="17" height="24" fill="rgb(140,47,181)" stroke="rgb(112,37,144)" stroke-width="1" opacity="0.75" />
			</g>
		</g>
		<g>
			<title>rubE7
NADH dehydrogenase/NADPH nitroreductase</title>
			<polygon class="rubE7
NADH dehydrogenase/NADPH nitroreductase" points="859,10 879,40 859,70" fill="rgb(255,255,255)" fill-opacity="1.0" stroke="rgb(0,0,0)" stroke-width="2"  />
			<g>
				<title>Nitroreductase (PF00881)
"Nitroreductase family"</title>
				<polygon class="PF00881" points="861,28 867,28 876,40 867,52 861,52" stroke-linejoin="round" width="16" height="24" fill="rgb(79,118,187)" stroke="rgb(63,94,149)" stroke-width="1" opacity="0.75" />
			</g>
		</g>
		<g>
			<title>rubE8
beta-ketoacylsynthase I</title>
			<polygon class="rubE8
beta-ketoacylsynthase I" points="884,25 895,25 895,10 925,40 895,70 895,55 884,55" fill="rgb(255,255,255)" fill-opacity="1.0" stroke="rgb(0,0,0)" stroke-width="2"  />
			<g>
				<title>ketoacyl-synt (PF00109)
"Beta-ketoacyl synthase, N-terminal domain"</title>
				<rect class="PF00109" x="884" y="28" stroke-linejoin="round" width="23" height="24" fill="rgb(112,116,228)" stroke="rgb(89,92,182)" stroke-width="1" opacity="0.75" />
			</g>
			<g>
				<title>Ketoacyl-synt_C (PF02801)
"Beta-ketoacyl synthase, C-terminal domain"</title>
				<polygon class="PF02801" points="908,28 908,28 919,39 919,41 908,52 908,52" stroke-linejoin="round" width="11" height="24" fill="rgb(215,78,102)" stroke="rgb(172,62,81)" stroke-width="1" opacity="0.75" />
			</g>
		</g>
		<g>
			<title>rubE9
chain length factor</title>
			<polygon class="rubE9
chain length factor" points="926,25 936,25 936,10 966,40 936,70 936,55 926,55" fill="rgb(255,255,255)" fill-opacity="1.0" stroke="rgb(0,0,0)" stroke-width="2"  />
			<g>
				<title>ketoacyl-synt (PF00109)
"Beta-ketoacyl synthase, N-terminal domain"</title>
				<rect class="PF00109" x="926" y="28" stroke-linejoin="round" width="23" height="24" fill="rgb(112,116,228)" stroke="rgb(89,92,182)" stroke-width="1" opacity="0.75" />
			</g>
			<g>
				<title>Ketoacyl-synt_C (PF02801)
"Beta-ketoacyl synthase, C-terminal domain"</title>
				<polygon class="PF02801" points="950,29 961,40 961,40 950,51" stroke-linejoin="round" width="11" height="24" fill="rgb(215,78,102)" stroke="rgb(172,62,81)" stroke-width="1" opacity="0.75" />
			</g>
		</g>
		<g>
			<title>
Isopentenyl-diphosphate delta-isomerase</title>
			<polygon class="
Isopentenyl-diphosphate delta-isomerase" points="1007,25 1000,25 1000,10 970,40 1000,70 1000,55 1007,55" fill="rgb(255,255,255)" fill-opacity="1.0" stroke="rgb(0,0,0)" stroke-width="2"  />
			<g>
				<title>FMN_dh (PF01070)
"FMN-dependent dehydrogenase"</title>
				<polygon class="PF01070" points="974,40 986,28 1006,28 1006,52 986,52" stroke-linejoin="round" width="34" height="24" fill="rgb(59,82,204)" stroke="rgb(47,65,163)" stroke-width="1" opacity="0.75" />
			</g>
		</g>
		<g>
			<title>
hypothetical protein</title>
			<polygon class="
hypothetical protein" points="1016,40 1024,10 1024,70" fill="rgb(255,255,255)" fill-opacity="1.0" stroke="rgb(0,0,0)" stroke-width="2"  />
		</g>
		<g>
			<title>
methylmalonyl-CoA decarboxylase subunit alpha</title>
			<polygon class="
methylmalonyl-CoA decarboxylase subunit alpha" points="1023,25 1044,25 1044,10 1074,40 1044,70 1044,55 1023,55" fill="rgb(255,255,255)" fill-opacity="1.0" stroke="rgb(0,0,0)" stroke-width="2"  />
			<g>
				<title>Carboxyl_trans (PF01039)
"Carboxyl transferase domain"</title>
				<polygon class="PF01039" points="1025,28 1057,28 1069,40 1057,52 1025,52" stroke-linejoin="round" width="48" height="24" fill="rgb(180,136,60)" stroke="rgb(144,108,48)" stroke-width="1" opacity="0.75" />
			</g>
		</g>
		<g>
			<title>
3-oxoadipate enol-lactonase</title>
			<polygon class="
3-oxoadipate enol-lactonase" points="1099,25 1109,25 1109,10 1139,40 1109,70 1109,55 1099,55" fill="rgb(255,255,255)" fill-opacity="1.0" stroke="rgb(0,0,0)" stroke-width="2"  />
			<g>
				<title>Abhydrolase_6 (PF12697)
"Alpha/beta hydrolase family"</title>
				<rect class="PF12697" x="1099" y="28" stroke-linejoin="round" width="21" height="24" fill="rgb(113,71,219)" stroke="rgb(90,56,175)" stroke-width="1" opacity="0.75" />
			</g>
			<g>
				<title>CMD (PF02627)
"Carboxymuconolactone decarboxylase family"</title>
				<polygon class="PF02627" points="1129,35 1134,40 1129,45" stroke-linejoin="round" width="8" height="24" fill="rgb(58,205,164)" stroke="rgb(46,164,131)" stroke-width="1" opacity="0.75" />
			</g>
		</g>
		<g>
			<title>
metallo-beta-lactamase domain protein</title>
			<polygon class="
metallo-beta-lactamase domain protein" points="1144,10 1165,40 1144,70" fill="rgb(255,255,255)" fill-opacity="1.0" stroke="rgb(0,0,0)" stroke-width="2"  />
			<g>
				<title>Lactamase_B_3 (PF13483)
"Beta-lactamase superfamily domain"</title>
				<polygon class="PF13483" points="1144,28 1153,28 1161,39 1161,41 1153,52 1144,52" stroke-linejoin="round" width="17" height="24" fill="rgb(89,224,69)" stroke="rgb(71,179,55)" stroke-width="1" opacity="0.75" />
			</g>
		</g>
		<g>
			<title>
exodeoxyribonuclease III</title>
			<polygon class="
exodeoxyribonuclease III" points="1169,10 1195,40 1169,70" fill="rgb(255,255,255)" fill-opacity="1.0" stroke="rgb(0,0,0)" stroke-width="2"  />
			<g>
				<title>Exo_endo_phos (PF03372)
"Endonuclease/Exonuclease/phosphatase family"</title>
				<polygon class="PF03372" points="1169,28 1181,28 1191,40 1181,52 1169,52" stroke-linejoin="round" width="24" height="24" fill="rgb(76,66,180)" stroke="rgb(60,52,144)" stroke-width="1" opacity="0.75" />
			</g>
		</g>
		<g>
			<title>
hypothetical protein</title>
			<polygon class="
hypothetical protein" points="1202,10 1216,40 1202,70" fill="rgb(255,255,255)" fill-opacity="1.0" stroke="rgb(0,0,0)" stroke-width="2"  />
			<g>
				<title>DUF6278 (PF19794)
"Family of unknown function (DUF6278)"</title>
				<polygon class="PF19794" points="1202,28 1207,28 1213,40 1207,52 1202,52" stroke-linejoin="round" width="14" height="24" fill="rgb(82,189,90)" stroke="rgb(65,151,72)" stroke-width="1" opacity="0.75" />
			</g>
		</g>
	</g>
</svg>
