<svg version="1.1" baseProfile="full" xmlns="http://www.w3.org/2000/svg" width="739.0333333333333" height="80">
	<g>
		<line x1="10" y1="40.0" x2="729.0333333333333" y2="40.0" style="stroke:rgb(70,70,70); stroke-width:3 "/>
		<g>
			<title> (G4B84_005461)
hypothetical protein</title>
			<polygon class=" (G4B84_005461)
hypothetical protein" points="95,25 40,25 40,10 10,40 40,70 40,55 95,55" fill="rgb(255,255,255)" fill-opacity="1.0" stroke="rgb(0,0,0)" stroke-width="2"  />
			<g>
				<title>2OG-Fe_Oxy_2 (PF10014)
"2OG-Fe dioxygenase"</title>
				<polygon class="PF10014" points="14,40 26,28 34,28 34,52 26,52" stroke-linejoin="round" width="21" height="24" fill="rgb(201,88,89)" stroke="rgb(160,70,71)" stroke-width="1" opacity="0.75" />
			</g>
			<g>
				<title>Cys_Met_Meta_PP (PF01053)
"Cys/Met metabolism PLP-dependent enzyme"</title>
				<rect class="PF01053" x="48" y="28" stroke-linejoin="round" width="30" height="24" fill="rgb(142,222,85)" stroke="rgb(113,177,67)" stroke-width="1" opacity="0.75" />
			</g>
		</g>
		<g>
			<title> (G4B84_005462)
hypothetical protein</title>
			<polygon class=" (G4B84_005462)
hypothetical protein" points="124,25 129,25 129,10 159,40 129,70 129,55 124,55" fill="rgb(255,255,255)" fill-opacity="1.0" stroke="rgb(0,0,0)" stroke-width="2"  />
			<g>
				<title>NmrA (PF05368)
"NmrA-like family"</title>
				<polygon class="PF05368" points="124,28 143,28 146,31 146,49 143,52 124,52" stroke-linejoin="round" width="22" height="24" fill="rgb(97,49,192)" stroke="rgb(77,39,153)" stroke-width="1" opacity="0.75" />
			</g>
		</g>
		<g>
			<title> (G4B84_005463)
hypothetical protein</title>
			<polygon class=" (G4B84_005463)
hypothetical protein" points="319,25 201,25 201,10 171,40 201,70 201,55 319,55" fill="rgb(255,255,255)" fill-opacity="1.0" stroke="rgb(0,0,0)" stroke-width="2"  />
			<g>
				<title>p450 (PF00067)
"Cytochrome P450"</title>
				<rect class="PF00067" x="219" y="28" stroke-linejoin="round" width="44" height="24" fill="rgb(85,216,107)" stroke="rgb(68,172,85)" stroke-width="1" opacity="0.75" />
			</g>
			<g>
				<title>p450 (PF00067)
"Cytochrome P450"</title>
				<rect class="PF00067" x="269" y="28" stroke-linejoin="round" width="45" height="24" fill="rgb(85,216,107)" stroke="rgb(68,172,85)" stroke-width="1" opacity="0.75" />
			</g>
		</g>
		<g>
			<title> (G4B84_005464)
hypothetical protein</title>
			<polygon class=" (G4B84_005464)
hypothetical protein" points="340,25 349,25 349,10 379,40 349,70 349,55 340,55" fill="rgb(255,255,255)" fill-opacity="1.0" stroke="rgb(0,0,0)" stroke-width="2"  />
			<g>
				<title>TRI5 (PF06330)
"Trichodiene synthase (TRI5)"</title>
				<polygon class="PF06330" points="340,28 362,28 374,40 362,52 340,52" stroke-linejoin="round" width="36" height="24" fill="rgb(66,189,108)" stroke="rgb(52,151,86)" stroke-width="1" opacity="0.75" />
			</g>
		</g>
		<g>
			<title> (G4B84_005465)
hypothetical protein</title>
			<polygon class=" (G4B84_005465)
hypothetical protein" points="466,25 453,25 453,10 423,40 453,70 453,55 466,55" fill="rgb(255,255,255)" fill-opacity="1.0" stroke="rgb(0,0,0)" stroke-width="2"  />
			<g>
				<title>Terpene_syn_C_2 (PF19086)
"Terpene synthase family 2, C-terminal metal binding"</title>
				<polygon class="PF19086" points="438,29 439,28 457,28 457,52 439,52 438,51" stroke-linejoin="round" width="19" height="24" fill="rgb(55,207,154)" stroke="rgb(43,165,123)" stroke-width="1" opacity="0.75" />
			</g>
		</g>
		<g>
			<title> (G4B84_005466)
hypothetical protein</title>
			<polygon class=" (G4B84_005466)
hypothetical protein" points="541,25 532,25 532,10 502,40 532,70 532,55 541,55" fill="rgb(255,255,255)" fill-opacity="1.0" stroke="rgb(0,0,0)" stroke-width="2"  />
			<g>
				<title>Orn_Arg_deC_N (PF02784)
"Pyridoxal-dependent decarboxylase, pyridoxal binding domain"</title>
				<polygon class="PF02784" points="515,31 518,28 538,28 538,52 518,52 515,49" stroke-linejoin="round" width="23" height="24" fill="rgb(106,204,212)" stroke="rgb(84,163,169)" stroke-width="1" opacity="0.75" />
			</g>
		</g>
		<g>
			<title> (G4B84_005467)
hypothetical protein</title>
			<polygon class=" (G4B84_005467)
hypothetical protein" points="572,10 589,40 572,70" fill="rgb(255,255,255)" fill-opacity="1.0" stroke="rgb(0,0,0)" stroke-width="2"  />
		</g>
		<g>
			<title> (G4B84_005468)
hypothetical protein</title>
			<polygon class=" (G4B84_005468)
hypothetical protein" points="621,25 698,25 698,10 728,40 698,70 698,55 621,55" fill="rgb(255,255,255)" fill-opacity="1.0" stroke="rgb(0,0,0)" stroke-width="2"  />
			<g>
				<title>AMP-binding (PF00501)
"AMP-binding enzyme"</title>
				<rect class="PF00501" x="624" y="28" stroke-linejoin="round" width="39" height="24" fill="rgb(60,217,223)" stroke="rgb(48,173,178)" stroke-width="1" opacity="0.75" />
			</g>
			<g>
				<title>PP-binding (PF00550)
"Phosphopantetheine attachment site"</title>
				<rect class="PF00550" x="677" y="28" stroke-linejoin="round" width="6" height="24" fill="rgb(103,191,88)" stroke="rgb(82,152,70)" stroke-width="1" opacity="0.75" />
			</g>
			<g>
				<title>Condensation (PF00668)
"Condensation domain"</title>
				<polygon class="PF00668" points="687,28 711,28 720,37 720,43 711,52 687,52" stroke-linejoin="round" width="33" height="24" fill="rgb(224,184,98)" stroke="rgb(179,147,78)" stroke-width="1" opacity="0.75" />
			</g>
		</g>
	</g>
</svg>
