<svg version="1.1" baseProfile="full" xmlns="http://www.w3.org/2000/svg" width="1282.4666666666667" height="80">
	<g>
		<line x1="10" y1="40.0" x2="1272.4666666666667" y2="40.0" style="stroke:rgb(70,70,70); stroke-width:3 "/>
		<g>
			<title> (L6494_13750)
tetratricopeptide repeat protein</title>
			<polygon class=" (L6494_13750)
tetratricopeptide repeat protein" points="10,10 25,40 10,70" fill="rgb(255,255,255)" fill-opacity="1.0" stroke="rgb(0,0,0)" stroke-width="2"  />
			<g>
				<title>TPR_1 (PF00515)
"Tetratricopeptide repeat"</title>
				<polygon class="PF00515" points="20,36 22,40 20,44" stroke-linejoin="round" width="3" height="24" fill="rgb(193,73,189)" stroke="rgb(154,58,151)" stroke-width="1" opacity="0.75" />
			</g>
		</g>
		<g>
			<title> (L6494_13755)
FAD-binding oxidoreductase</title>
			<polygon class=" (L6494_13755)
FAD-binding oxidoreductase" points="40,25 55,25 55,10 85,40 55,70 55,55 40,55" fill="rgb(255,255,255)" fill-opacity="1.0" stroke="rgb(0,0,0)" stroke-width="2"  />
			<g>
				<title>FAD_binding_4 (PF01565)
"FAD binding domain"</title>
				<rect class="PF01565" x="44" y="28" stroke-linejoin="round" width="13" height="24" fill="rgb(226,88,136)" stroke="rgb(180,70,108)" stroke-width="1" opacity="0.75" />
			</g>
		</g>
		<g>
			<title> (L6494_13760)
amino acid adenylation domain-containing protein</title>
			<polygon class=" (L6494_13760)
amino acid adenylation domain-containing protein" points="108,25 363,25 363,10 393,40 363,70 363,55 108,55" fill="rgb(255,255,255)" fill-opacity="1.0" stroke="rgb(0,0,0)" stroke-width="2"  />
			<g>
				<title>Methyltransf_21 (PF05050)
"Methyltransferase FkbM domain"</title>
				<rect class="PF05050" x="122" y="28" stroke-linejoin="round" width="19" height="24" fill="rgb(95,204,52)" stroke="rgb(76,163,41)" stroke-width="1" opacity="0.75" />
			</g>
			<g>
				<title>PP-binding (PF00550)
"Phosphopantetheine attachment site"</title>
				<rect class="PF00550" x="199" y="28" stroke-linejoin="round" width="6" height="24" fill="rgb(103,191,88)" stroke="rgb(82,152,70)" stroke-width="1" opacity="0.75" />
			</g>
			<g>
				<title>Sulfotransfer_3 (PF13469)
"Sulfotransferase family"</title>
				<rect class="PF13469" x="211" y="28" stroke-linejoin="round" width="21" height="24" fill="rgb(59,182,84)" stroke="rgb(47,145,67)" stroke-width="1" opacity="0.75" />
			</g>
			<g>
				<title>Condensation (PF00668)
"Condensation domain"</title>
				<rect class="PF00668" x="240" y="28" stroke-linejoin="round" width="44" height="24" fill="rgb(224,184,98)" stroke="rgb(179,147,78)" stroke-width="1" opacity="0.75" />
			</g>
			<g>
				<title>AMP-binding (PF00501)
"AMP-binding enzyme"</title>
				<rect class="PF00501" x="287" y="28" stroke-linejoin="round" width="39" height="24" fill="rgb(60,217,223)" stroke="rgb(48,173,178)" stroke-width="1" opacity="0.75" />
			</g>
			<g>
				<title>AMP-binding_C (PF13193)
"AMP-binding enzyme C-terminal domain"</title>
				<rect class="PF13193" x="328" y="28" stroke-linejoin="round" width="7" height="24" fill="rgb(182,50,118)" stroke="rgb(145,39,94)" stroke-width="1" opacity="0.75" />
			</g>
			<g>
				<title>PP-binding (PF00550)
"Phosphopantetheine attachment site"</title>
				<rect class="PF00550" x="338" y="28" stroke-linejoin="round" width="6" height="24" fill="rgb(103,191,88)" stroke="rgb(82,152,70)" stroke-width="1" opacity="0.75" />
			</g>
			<g>
				<title>Condensation (PF00668)
"Condensation domain"</title>
				<polygon class="PF00668" points="346,28 377,28 389,40 377,52 346,52" stroke-linejoin="round" width="45" height="24" fill="rgb(224,184,98)" stroke="rgb(179,147,78)" stroke-width="1" opacity="0.75" />
			</g>
		</g>
		<g>
			<title> (L6494_13765)
hypothetical protein</title>
			<polygon class=" (L6494_13765)
hypothetical protein" points="400,10 423,40 400,70" fill="rgb(255,255,255)" fill-opacity="1.0" stroke="rgb(0,0,0)" stroke-width="2"  />
		</g>
		<g>
			<title> (L6494_13770)
nuclear transport factor 2 family protein</title>
			<polygon class=" (L6494_13770)
nuclear transport factor 2 family protein" points="427,10 439,40 427,70" fill="rgb(255,255,255)" fill-opacity="1.0" stroke="rgb(0,0,0)" stroke-width="2"  />
			<g>
				<title>SnoaL_2 (PF12680)
"SnoaL-like domain"</title>
				<polygon class="PF12680" points="428,28 431,28 436,40 431,52 428,52" stroke-linejoin="round" width="10" height="24" fill="rgb(184,69,155)" stroke="rgb(147,55,124)" stroke-width="1" opacity="0.75" />
			</g>
		</g>
		<g>
			<title>cysC (L6494_13775)
adenylyl-sulfate kinase</title>
			<polygon class="cysC (L6494_13775)
adenylyl-sulfate kinase" points="440,10 459,40 440,70" fill="rgb(255,255,255)" fill-opacity="1.0" stroke="rgb(0,0,0)" stroke-width="2"  />
			<g>
				<title>APS_kinase (PF01583)
"Adenylylsulphate kinase"</title>
				<polygon class="PF01583" points="440,28 448,28 455,39 455,41 448,52 440,52" stroke-linejoin="round" width="15" height="24" fill="rgb(48,131,188)" stroke="rgb(38,104,150)" stroke-width="1" opacity="0.75" />
			</g>
		</g>
		<g>
			<title> (L6494_13780)
Rieske 2Fe-2S domain-containing protein</title>
			<polygon class=" (L6494_13780)
Rieske 2Fe-2S domain-containing protein" points="466,25 504,25 504,10 534,40 504,70 504,55 466,55" fill="rgb(255,255,255)" fill-opacity="1.0" stroke="rgb(0,0,0)" stroke-width="2"  />
			<g>
				<title>Rieske (PF00355)
"Rieske [2Fe-2S] domain"</title>
				<rect class="PF00355" x="472" y="28" stroke-linejoin="round" width="10" height="24" fill="rgb(186,77,145)" stroke="rgb(148,61,115)" stroke-width="1" opacity="0.75" />
			</g>
			<g>
				<title>Ring_hydroxyl_A (PF00848)
"Ring hydroxylating alpha subunit (catalytic domain)"</title>
				<polygon class="PF00848" points="510,28 517,28 529,40 517,52 510,52" stroke-linejoin="round" width="22" height="24" fill="rgb(76,134,184)" stroke="rgb(60,107,147)" stroke-width="1" opacity="0.75" />
			</g>
		</g>
		<g>
			<title>fni (L6494_13785)
type 2 isopentenyl-diphosphate Delta-isomerase</title>
			<polygon class="fni (L6494_13785)
type 2 isopentenyl-diphosphate Delta-isomerase" points="534,25 539,25 539,10 569,40 539,70 539,55 534,55" fill="rgb(255,255,255)" fill-opacity="1.0" stroke="rgb(0,0,0)" stroke-width="2"  />
			<g>
				<title>FMN_dh (PF01070)
"FMN-dependent dehydrogenase"</title>
				<rect class="PF01070" x="535" y="28" stroke-linejoin="round" width="11" height="24" fill="rgb(59,82,204)" stroke="rgb(47,65,163)" stroke-width="1" opacity="0.75" />
			</g>
			<g>
				<title>FMN_dh (PF01070)
"FMN-dependent dehydrogenase"</title>
				<polygon class="PF01070" points="549,28 552,28 564,40 552,52 549,52" stroke-linejoin="round" width="19" height="24" fill="rgb(59,82,204)" stroke="rgb(47,65,163)" stroke-width="1" opacity="0.75" />
			</g>
		</g>
		<g>
			<title> (L6494_13790)
LysR family transcriptional regulator</title>
			<polygon class=" (L6494_13790)
LysR family transcriptional regulator" points="572,10 591,40 572,70" fill="rgb(255,255,255)" fill-opacity="1.0" stroke="rgb(0,0,0)" stroke-width="2"  />
		</g>
		<g>
			<title> (L6494_13795)
cupin domain-containing protein</title>
			<polygon class=" (L6494_13795)
cupin domain-containing protein" points="592,10 615,40 592,70" fill="rgb(255,255,255)" fill-opacity="1.0" stroke="rgb(0,0,0)" stroke-width="2"  />
			<g>
				<title>Cupin_2 (PF07883)
"Cupin domain"</title>
				<rect class="PF07883" x="595" y="28" stroke-linejoin="round" width="7" height="24" fill="rgb(211,192,74)" stroke="rgb(168,153,59)" stroke-width="1" opacity="0.75" />
			</g>
			<g>
				<title>Cupin_2 (PF07883)
"Cupin domain"</title>
				<polygon class="PF07883" points="606,33 611,40 606,47" stroke-linejoin="round" width="6" height="24" fill="rgb(211,192,74)" stroke="rgb(168,153,59)" stroke-width="1" opacity="0.75" />
			</g>
		</g>
		<g>
			<title> (L6494_13800)
SDR family oxidoreductase</title>
			<polygon class=" (L6494_13800)
SDR family oxidoreductase" points="616,10 642,40 616,70" fill="rgb(255,255,255)" fill-opacity="1.0" stroke="rgb(0,0,0)" stroke-width="2"  />
			<g>
				<title>adh_short_C2 (PF13561)
"Enoyl-(Acyl carrier protein) reductase"</title>
				<polygon class="PF13561" points="617,28 627,28 638,40 627,52 617,52" stroke-linejoin="round" width="24" height="24" fill="rgb(73,205,127)" stroke="rgb(58,164,101)" stroke-width="1" opacity="0.75" />
			</g>
		</g>
		<g>
			<title> (L6494_13805)
amino acid adenylation domain-containing protein</title>
			<polygon class=" (L6494_13805)
amino acid adenylation domain-containing protein" points="650,25 781,25 781,10 811,40 781,70 781,55 650,55" fill="rgb(255,255,255)" fill-opacity="1.0" stroke="rgb(0,0,0)" stroke-width="2"  />
			<g>
				<title>Condensation (PF00668)
"Condensation domain"</title>
				<rect class="PF00668" x="651" y="28" stroke-linejoin="round" width="44" height="24" fill="rgb(224,184,98)" stroke="rgb(179,147,78)" stroke-width="1" opacity="0.75" />
			</g>
			<g>
				<title>AMP-binding (PF00501)
"AMP-binding enzyme"</title>
				<rect class="PF00501" x="697" y="28" stroke-linejoin="round" width="40" height="24" fill="rgb(60,217,223)" stroke="rgb(48,173,178)" stroke-width="1" opacity="0.75" />
			</g>
			<g>
				<title>AMP-binding_C (PF13193)
"AMP-binding enzyme C-terminal domain"</title>
				<rect class="PF13193" x="738" y="28" stroke-linejoin="round" width="7" height="24" fill="rgb(182,50,118)" stroke="rgb(145,39,94)" stroke-width="1" opacity="0.75" />
			</g>
			<g>
				<title>PP-binding (PF00550)
"Phosphopantetheine attachment site"</title>
				<rect class="PF00550" x="749" y="28" stroke-linejoin="round" width="6" height="24" fill="rgb(103,191,88)" stroke="rgb(82,152,70)" stroke-width="1" opacity="0.75" />
			</g>
			<g>
				<title>Condensation (PF00668)
"Condensation domain"</title>
				<polygon class="PF00668" points="757,28 795,28 801,34 801,46 795,52 757,52" stroke-linejoin="round" width="44" height="24" fill="rgb(224,184,98)" stroke="rgb(179,147,78)" stroke-width="1" opacity="0.75" />
			</g>
			<g>
				<title>PP-binding (PF00550)
"Phosphopantetheine attachment site"</title>
				<polygon class="PF00550" points="804,37 807,40 804,43" stroke-linejoin="round" width="6" height="24" fill="rgb(103,191,88)" stroke="rgb(82,152,70)" stroke-width="1" opacity="0.75" />
			</g>
		</g>
		<g>
			<title> (L6494_13810)
SDR family oxidoreductase</title>
			<polygon class=" (L6494_13810)
SDR family oxidoreductase" points="814,10 839,40 814,70" fill="rgb(255,255,255)" fill-opacity="1.0" stroke="rgb(0,0,0)" stroke-width="2"  />
			<g>
				<title>adh_short_C2 (PF13561)
"Enoyl-(Acyl carrier protein) reductase"</title>
				<polygon class="PF13561" points="815,28 826,28 835,40 826,52 815,52" stroke-linejoin="round" width="23" height="24" fill="rgb(73,205,127)" stroke="rgb(58,164,101)" stroke-width="1" opacity="0.75" />
			</g>
		</g>
		<g>
			<title> (L6494_13815)
ABC transporter substrate-binding protein</title>
			<polygon class=" (L6494_13815)
ABC transporter substrate-binding protein" points="841,25 870,25 870,10 900,40 870,70 870,55 841,55" fill="rgb(255,255,255)" fill-opacity="1.0" stroke="rgb(0,0,0)" stroke-width="2"  />
			<g>
				<title>SBP_bac_5 (PF00496)
"Bacterial extracellular solute-binding proteins, family 5 Middle"</title>
				<polygon class="PF00496" points="849,28 884,28 890,34 890,46 884,52 849,52" stroke-linejoin="round" width="41" height="24" fill="rgb(199,94,116)" stroke="rgb(159,75,92)" stroke-width="1" opacity="0.75" />
			</g>
		</g>
		<g>
			<title> (L6494_13820)
hypothetical protein</title>
			<polygon class=" (L6494_13820)
hypothetical protein" points="905,25 913,25 913,10 943,40 913,70 913,55 905,55" fill="rgb(255,255,255)" fill-opacity="1.0" stroke="rgb(0,0,0)" stroke-width="2"  />
		</g>
		<g>
			<title> (L6494_13825)
hypothetical protein</title>
			<polygon class=" (L6494_13825)
hypothetical protein" points="948,10 969,40 948,70" fill="rgb(255,255,255)" fill-opacity="1.0" stroke="rgb(0,0,0)" stroke-width="2"  />
		</g>
		<g>
			<title> (L6494_13830)
amino acid adenylation domain-containing protein</title>
			<polygon class=" (L6494_13830)
amino acid adenylation domain-containing protein" points="971,25 995,25 995,10 1025,40 995,70 995,55 971,55" fill="rgb(255,255,255)" fill-opacity="1.0" stroke="rgb(0,0,0)" stroke-width="2"  />
			<g>
				<title>AMP-binding (PF00501)
"AMP-binding enzyme"</title>
				<polygon class="PF00501" points="971,28 1008,28 1013,33 1013,47 1008,52 971,52" stroke-linejoin="round" width="42" height="24" fill="rgb(60,217,223)" stroke="rgb(48,173,178)" stroke-width="1" opacity="0.75" />
			</g>
			<g>
				<title>AMP-binding_C (PF13193)
"AMP-binding enzyme C-terminal domain"</title>
				<polygon class="PF13193" points="1015,35 1020,40 1015,45" stroke-linejoin="round" width="7" height="24" fill="rgb(182,50,118)" stroke="rgb(145,39,94)" stroke-width="1" opacity="0.75" />
			</g>
		</g>
		<g>
			<title> (L6494_13835)
acyl carrier protein</title>
			<polygon class=" (L6494_13835)
acyl carrier protein" points="1026,10 1034,40 1026,70" fill="rgb(255,255,255)" fill-opacity="1.0" stroke="rgb(0,0,0)" stroke-width="2"  />
			<g>
				<title>PP-binding (PF00550)
"Phosphopantetheine attachment site"</title>
				<polygon class="PF00550" points="1027,28 1027,28 1031,40 1027,52 1027,52" stroke-linejoin="round" width="7" height="24" fill="rgb(103,191,88)" stroke="rgb(82,152,70)" stroke-width="1" opacity="0.75" />
			</g>
		</g>
		<g>
			<title> (L6494_13840)
hypothetical protein</title>
			<polygon class=" (L6494_13840)
hypothetical protein" points="1035,25 1055,25 1055,10 1085,40 1055,70 1055,55 1035,55" fill="rgb(255,255,255)" fill-opacity="1.0" stroke="rgb(0,0,0)" stroke-width="2"  />
			<g>
				<title>MBOAT (PF03062)
"MBOAT, membrane-bound O-acyltransferase family"</title>
				<polygon class="PF03062" points="1052,28 1069,28 1076,35 1076,45 1069,52 1052,52" stroke-linejoin="round" width="24" height="24" fill="rgb(116,79,215)" stroke="rgb(92,63,172)" stroke-width="1" opacity="0.75" />
			</g>
		</g>
		<g>
			<title> (L6494_13845)
glycosyltransferase family 4 protein</title>
			<polygon class=" (L6494_13845)
glycosyltransferase family 4 protein" points="1087,25 1099,25 1099,10 1129,40 1099,70 1099,55 1087,55" fill="rgb(255,255,255)" fill-opacity="1.0" stroke="rgb(0,0,0)" stroke-width="2"  />
			<g>
				<title>Glyco_transf_4 (PF13439)
"Glycosyltransferase Family 4"</title>
				<rect class="PF13439" x="1088" y="28" stroke-linejoin="round" width="17" height="24" fill="rgb(162,57,186)" stroke="rgb(129,45,148)" stroke-width="1" opacity="0.75" />
			</g>
			<g>
				<title>Glycos_transf_1 (PF00534)
"Glycosyl transferases group 1"</title>
				<polygon class="PF00534" points="1106,28 1113,28 1125,40 1125,40 1113,52 1106,52" stroke-linejoin="round" width="19" height="24" fill="rgb(228,92,150)" stroke="rgb(182,73,119)" stroke-width="1" opacity="0.75" />
			</g>
		</g>
		<g>
			<title> (L6494_13850)
MFS transporter</title>
			<polygon class=" (L6494_13850)
MFS transporter" points="1130,25 1145,25 1145,10 1175,40 1145,70 1145,55 1130,55" fill="rgb(255,255,255)" fill-opacity="1.0" stroke="rgb(0,0,0)" stroke-width="2"  />
			<g>
				<title>MFS_1 (PF07690)
"Major Facilitator Superfamily"</title>
				<polygon class="PF07690" points="1132,28 1159,28 1166,35 1166,45 1159,52 1132,52" stroke-linejoin="round" width="34" height="24" fill="rgb(193,224,74)" stroke="rgb(154,179,59)" stroke-width="1" opacity="0.75" />
			</g>
		</g>
		<g>
			<title> (L6494_13855)
ATP-binding cassette domain-containing protein</title>
			<polygon class=" (L6494_13855)
ATP-binding cassette domain-containing protein" points="1179,25 1209,25 1209,10 1239,40 1209,70 1209,55 1179,55" fill="rgb(255,255,255)" fill-opacity="1.0" stroke="rgb(0,0,0)" stroke-width="2"  />
			<g>
				<title>ABC_membrane_2 (PF06472)
"ABC transporter transmembrane region 2"</title>
				<rect class="PF06472" x="1183" y="28" stroke-linejoin="round" width="25" height="24" fill="rgb(120,179,45)" stroke="rgb(96,143,36)" stroke-width="1" opacity="0.75" />
			</g>
			<g>
				<title>ABC_tran (PF00005)
"ABC transporter"</title>
				<polygon class="PF00005" points="1218,28 1222,28 1231,37 1231,43 1222,52 1218,52" stroke-linejoin="round" width="13" height="24" fill="rgb(129,201,63)" stroke="rgb(103,160,50)" stroke-width="1" opacity="0.75" />
			</g>
		</g>
	</g>
</svg>
