<svg version="1.1" baseProfile="full" xmlns="http://www.w3.org/2000/svg" width="1108.7" height="80">
	<g>
		<line x1="10" y1="40.0" x2="1098.7" y2="40.0" style="stroke:rgb(70,70,70); stroke-width:3 "/>
		<g>
			<title>
putative glycosyl transferase</title>
			<polygon class="
putative glycosyl transferase" points="20,25 24,25 24,10 54,40 24,70 24,55 20,55" fill="rgb(255,255,255)" fill-opacity="1.0" stroke="rgb(0,0,0)" stroke-width="2"  />
			<g>
				<title>Glycos_transf_2 (PF00535)
"Glycosyl transferase family 2"</title>
				<polygon class="PF00535" points="22,28 37,28 39,30 39,50 37,52 22,52" stroke-linejoin="round" width="17" height="24" fill="rgb(224,122,96)" stroke="rgb(179,97,76)" stroke-width="1" opacity="0.75" />
			</g>
		</g>
		<g>
			<title>
putative glycosyl transferase</title>
			<polygon class="
putative glycosyl transferase" points="53,10 82,40 53,70" fill="rgb(255,255,255)" fill-opacity="1.0" stroke="rgb(0,0,0)" stroke-width="2"  />
			<g>
				<title>Glycos_transf_2 (PF00535)
"Glycosyl transferase family 2"</title>
				<polygon class="PF00535" points="53,28 66,28 71,33 71,47 66,52 53,52" stroke-linejoin="round" width="18" height="24" fill="rgb(224,122,96)" stroke="rgb(179,97,76)" stroke-width="1" opacity="0.75" />
			</g>
		</g>
		<g>
			<title>
hypothetical protein</title>
			<polygon class="
hypothetical protein" points="122,25 114,25 114,10 84,40 114,70 114,55 122,55" fill="rgb(255,255,255)" fill-opacity="1.0" stroke="rgb(0,0,0)" stroke-width="2"  />
			<g>
				<title>A-2_8-polyST (PF07388)
"Alpha-2,8-polysialyltransferase (POLYST)"</title>
				<polygon class="PF07388" points="88,40 100,28 121,28 121,52 100,52" stroke-linejoin="round" width="34" height="24" fill="rgb(226,102,210)" stroke="rgb(180,81,168)" stroke-width="1" opacity="0.75" />
			</g>
		</g>
		<g>
			<title>wzt
Wzt protein</title>
			<polygon class="wzt
Wzt protein" points="169,25 152,25 152,10 122,40 152,70 152,55 169,55" fill="rgb(255,255,255)" fill-opacity="1.0" stroke="rgb(0,0,0)" stroke-width="2"  />
			<g>
				<title>ABC_tran (PF00005)
"ABC transporter"</title>
				<rect class="PF00005" x="148" y="28" stroke-linejoin="round" width="13" height="24" fill="rgb(129,201,63)" stroke="rgb(103,160,50)" stroke-width="1" opacity="0.75" />
			</g>
		</g>
		<g>
			<title>wzm
Wzm protein</title>
			<polygon class="wzm
Wzm protein" points="169,40 197,10 197,70" fill="rgb(255,255,255)" fill-opacity="1.0" stroke="rgb(0,0,0)" stroke-width="2"  />
			<g>
				<title>ABC2_membrane (PF01061)
"ABC-2 type transporter"</title>
				<polygon class="PF01061" points="173,40 184,28 192,28 192,52 184,52" stroke-linejoin="round" width="20" height="24" fill="rgb(139,217,106)" stroke="rgb(111,173,84)" stroke-width="1" opacity="0.75" />
			</g>
		</g>
		<g>
			<title>
hypothetical protein</title>
			<polygon class="
hypothetical protein" points="251,25 227,25 227,10 197,40 227,70 227,55 251,55" fill="rgb(255,255,255)" fill-opacity="1.0" stroke="rgb(0,0,0)" stroke-width="2"  />
		</g>
		<g>
			<title>
hypothetical protein</title>
			<polygon class="
hypothetical protein" points="309,25 289,25 289,10 259,40 289,70 289,55 309,55" fill="rgb(255,255,255)" fill-opacity="1.0" stroke="rgb(0,0,0)" stroke-width="2"  />
		</g>
		<g>
			<title>
hypothetical protein</title>
			<polygon class="
hypothetical protein" points="320,10 344,40 320,70" fill="rgb(255,255,255)" fill-opacity="1.0" stroke="rgb(0,0,0)" stroke-width="2"  />
			<g>
				<title>Methyltransf_12 (PF08242)
"Methyltransferase domain"</title>
				<polygon class="PF08242" points="324,28 330,28 333,32 333,48 330,52 324,52" stroke-linejoin="round" width="9" height="24" fill="rgb(187,59,115)" stroke="rgb(149,47,92)" stroke-width="1" opacity="0.75" />
			</g>
		</g>
		<g>
			<title>
hypothetical protein</title>
			<polygon class="
hypothetical protein" points="345,25 351,25 351,10 381,40 351,70 351,55 345,55" fill="rgb(255,255,255)" fill-opacity="1.0" stroke="rgb(0,0,0)" stroke-width="2"  />
			<g>
				<title>NeuB (PF03102)
"NeuB family"</title>
				<polygon class="PF03102" points="350,28 365,28 373,36 373,44 365,52 350,52" stroke-linejoin="round" width="23" height="24" fill="rgb(225,145,80)" stroke="rgb(180,116,64)" stroke-width="1" opacity="0.75" />
			</g>
			<g>
				<title>SAF (PF08666)
"SAF domain"</title>
				<polygon class="PF08666" points="375,38 377,40 375,42" stroke-linejoin="round" width="5" height="24" fill="rgb(203,50,144)" stroke="rgb(162,40,115)" stroke-width="1" opacity="0.75" />
			</g>
		</g>
		<g>
			<title>
hypothetical protein</title>
			<polygon class="
hypothetical protein" points="381,25 384,25 384,10 414,40 384,70 384,55 381,55" fill="rgb(255,255,255)" fill-opacity="1.0" stroke="rgb(0,0,0)" stroke-width="2"  />
			<g>
				<title>APH (PF01636)
"Phosphotransferase enzyme family"</title>
				<polygon class="PF01636" points="385,28 398,28 406,36 406,44 398,52 385,52" stroke-linejoin="round" width="21" height="24" fill="rgb(106,220,228)" stroke="rgb(84,176,182)" stroke-width="1" opacity="0.75" />
			</g>
		</g>
		<g>
			<title>
hypothetical protein</title>
			<polygon class="
hypothetical protein" points="415,25 422,25 422,10 452,40 422,70 422,55 415,55" fill="rgb(255,255,255)" fill-opacity="1.0" stroke="rgb(0,0,0)" stroke-width="2"  />
		</g>
		<g>
			<title>
hypothetical protein</title>
			<polygon class="
hypothetical protein" points="452,25 481,25 481,10 511,40 481,70 481,55 452,55" fill="rgb(255,255,255)" fill-opacity="1.0" stroke="rgb(0,0,0)" stroke-width="2"  />
		</g>
		<g>
			<title>
hypothetical protein</title>
			<polygon class="
hypothetical protein" points="556,25 551,25 551,10 521,40 551,70 551,55 556,55" fill="rgb(255,255,255)" fill-opacity="1.0" stroke="rgb(0,0,0)" stroke-width="2"  />
		</g>
		<g>
			<title>wecA
WecA protein</title>
			<polygon class="wecA
WecA protein" points="593,25 590,25 590,10 560,40 590,70 590,55 593,55" fill="rgb(255,255,255)" fill-opacity="1.0" stroke="rgb(0,0,0)" stroke-width="2"  />
			<g>
				<title>Glycos_transf_4 (PF00953)
"Glycosyl transferase family 4"</title>
				<polygon class="PF00953" points="570,34 576,28 585,28 585,52 576,52 570,46" stroke-linejoin="round" width="15" height="24" fill="rgb(179,46,82)" stroke="rgb(143,36,65)" stroke-width="1" opacity="0.75" />
			</g>
		</g>
		<g>
			<title>
hypothetical protein</title>
			<polygon class="
hypothetical protein" points="624,25 623,25 623,10 593,40 623,70 623,55 624,55" fill="rgb(255,255,255)" fill-opacity="1.0" stroke="rgb(0,0,0)" stroke-width="2"  />
			<g>
				<title>Epimerase (PF01370)
"NAD dependent epimerase/dehydratase family"</title>
				<polygon class="PF01370" points="601,36 609,28 623,28 623,52 609,52 601,44" stroke-linejoin="round" width="22" height="24" fill="rgb(98,102,214)" stroke="rgb(78,81,171)" stroke-width="1" opacity="0.75" />
			</g>
		</g>
		<g>
			<title>rmlA
RmlA protein</title>
			<polygon class="rmlA
RmlA protein" points="626,40 655,10 655,70" fill="rgb(255,255,255)" fill-opacity="1.0" stroke="rgb(0,0,0)" stroke-width="2"  />
			<g>
				<title>NTP_transferase (PF00483)
"Nucleotidyl transferase"</title>
				<polygon class="PF00483" points="631,39 642,28 654,28 654,52 642,52 631,41" stroke-linejoin="round" width="23" height="24" fill="rgb(198,101,87)" stroke="rgb(158,80,69)" stroke-width="1" opacity="0.75" />
			</g>
		</g>
		<g>
			<title>gpi
Gpi protein</title>
			<polygon class="gpi
Gpi protein" points="709,25 690,25 690,10 660,40 690,70 690,55 709,55" fill="rgb(255,255,255)" fill-opacity="1.0" stroke="rgb(0,0,0)" stroke-width="2"  />
			<g>
				<title>PGI (PF00342)
"Phosphoglucose isomerase"</title>
				<polygon class="PF00342" points="664,40 676,28 704,28 704,52 676,52" stroke-linejoin="round" width="44" height="24" fill="rgb(160,69,196)" stroke="rgb(128,55,156)" stroke-width="1" opacity="0.75" />
			</g>
		</g>
		<g>
			<title>rmlB
RmlB protein</title>
			<polygon class="rmlB
RmlB protein" points="746,25 741,25 741,10 711,40 741,70 741,55 746,55" fill="rgb(255,255,255)" fill-opacity="1.0" stroke="rgb(0,0,0)" stroke-width="2"  />
			<g>
				<title>GDP_Man_Dehyd (PF16363)
"GDP-mannose 4,6 dehydratase"</title>
				<polygon class="PF16363" points="715,40 727,28 743,28 743,52 727,52" stroke-linejoin="round" width="31" height="24" fill="rgb(162,221,65)" stroke="rgb(129,176,51)" stroke-width="1" opacity="0.75" />
			</g>
		</g>
		<g>
			<title>rmlD
RmlD protein</title>
			<polygon class="rmlD
RmlD protein" points="745,40 774,10 774,70" fill="rgb(255,255,255)" fill-opacity="1.0" stroke="rgb(0,0,0)" stroke-width="2"  />
			<g>
				<title>RmlD_sub_bind (PF04321)
"RmlD substrate binding domain"</title>
				<polygon class="PF04321" points="749,40 761,28 774,28 774,52 761,52" stroke-linejoin="round" width="29" height="24" fill="rgb(196,203,60)" stroke="rgb(156,162,47)" stroke-width="1" opacity="0.75" />
			</g>
		</g>
		<g>
			<title>rmlC
RmlC protein</title>
			<polygon class="rmlC
RmlC protein" points="774,40 792,10 792,70" fill="rgb(255,255,255)" fill-opacity="1.0" stroke="rgb(0,0,0)" stroke-width="2"  />
			<g>
				<title>dTDP_sugar_isom (PF00908)
"dTDP-4-dehydrorhamnose 3,5-epimerase"</title>
				<polygon class="PF00908" points="778,40 786,28 792,28 792,52 786,52" stroke-linejoin="round" width="17" height="24" fill="rgb(184,89,121)" stroke="rgb(147,71,96)" stroke-width="1" opacity="0.75" />
			</g>
		</g>
		<g>
			<title>
hypothetical protein</title>
			<polygon class="
hypothetical protein" points="796,40 824,10 824,70" fill="rgb(255,255,255)" fill-opacity="1.0" stroke="rgb(0,0,0)" stroke-width="2"  />
			<g>
				<title>DegT_DnrJ_EryC1 (PF01041)
"DegT/DnrJ/EryC1/StrS aminotransferase family"</title>
				<polygon class="PF01041" points="800,40 811,28 823,28 823,52 811,52" stroke-linejoin="round" width="26" height="24" fill="rgb(59,139,191)" stroke="rgb(47,111,152)" stroke-width="1" opacity="0.75" />
			</g>
		</g>
		<g>
			<title>
putative acetyl transferase</title>
			<polygon class="
putative acetyl transferase" points="867,25 855,25 855,10 825,40 855,70 855,55 867,55" fill="rgb(255,255,255)" fill-opacity="1.0" stroke="rgb(0,0,0)" stroke-width="2"  />
			<g>
				<title>DegT_DnrJ_EryC1 (PF01041)
"DegT/DnrJ/EryC1/StrS aminotransferase family"</title>
				<polygon class="PF01041" points="829,40 833,36 833,44" stroke-linejoin="round" width="8" height="24" fill="rgb(59,139,191)" stroke="rgb(47,111,152)" stroke-width="1" opacity="0.75" />
			</g>
			<g>
				<title>CBS (PF00571)
"CBS domain"</title>
				<polygon class="PF00571" points="834,35 839,30 839,50 834,45" stroke-linejoin="round" width="5" height="24" fill="rgb(220,56,105)" stroke="rgb(176,44,84)" stroke-width="1" opacity="0.75" />
			</g>
			<g>
				<title>Hexapep (PF00132)
"Bacterial transferase hexapeptide (six repeats)"</title>
				<rect class="PF00132" x="848" y="28" stroke-linejoin="round" width="3" height="24" fill="rgb(89,131,202)" stroke="rgb(71,104,161)" stroke-width="1" opacity="0.75" />
			</g>
			<g>
				<title>PglD_N (PF17836)
"PglD N-terminal domain"</title>
				<rect class="PF17836" x="859" y="28" stroke-linejoin="round" width="7" height="24" fill="rgb(164,52,206)" stroke="rgb(131,41,164)" stroke-width="1" opacity="0.75" />
			</g>
		</g>
		<g>
			<title>neuC
N-acylglucosamine 2-epimerase</title>
			<polygon class="neuC
N-acylglucosamine 2-epimerase" points="904,25 897,25 897,10 867,40 897,70 897,55 904,55" fill="rgb(255,255,255)" fill-opacity="1.0" stroke="rgb(0,0,0)" stroke-width="2"  />
			<g>
				<title>Epimerase_2 (PF02350)
"UDP-N-acetylglucosamine 2-epimerase"</title>
				<polygon class="PF02350" points="871,40 883,28 901,28 901,52 883,52" stroke-linejoin="round" width="33" height="24" fill="rgb(212,113,103)" stroke="rgb(169,90,82)" stroke-width="1" opacity="0.75" />
			</g>
		</g>
		<g>
			<title>neuB
N-acetylneuraminic acid condensing enzyme</title>
			<polygon class="neuB
N-acetylneuraminic acid condensing enzyme" points="938,25 935,25 935,10 905,40 935,70 935,55 938,55" fill="rgb(255,255,255)" fill-opacity="1.0" stroke="rgb(0,0,0)" stroke-width="2"  />
			<g>
				<title>SAF (PF08666)
"SAF domain"</title>
				<polygon class="PF08666" points="909,40 910,39 910,41" stroke-linejoin="round" width="5" height="24" fill="rgb(203,50,144)" stroke="rgb(162,40,115)" stroke-width="1" opacity="0.75" />
			</g>
			<g>
				<title>NeuB (PF03102)
"NeuB family"</title>
				<polygon class="PF03102" points="912,37 921,28 936,28 936,52 921,52 912,43" stroke-linejoin="round" width="24" height="24" fill="rgb(225,145,80)" stroke="rgb(180,116,64)" stroke-width="1" opacity="0.75" />
			</g>
		</g>
		<g>
			<title>neuA
CMP-N-acetlyneuraminic acid synthetase</title>
			<polygon class="neuA
CMP-N-acetlyneuraminic acid synthetase" points="939,40 962,10 962,70" fill="rgb(255,255,255)" fill-opacity="1.0" stroke="rgb(0,0,0)" stroke-width="2"  />
			<g>
				<title>CTP_transf_3 (PF02348)
"Cytidylyltransferase"</title>
				<polygon class="PF02348" points="943,40 952,28 961,28 961,52 952,52" stroke-linejoin="round" width="22" height="24" fill="rgb(198,69,151)" stroke="rgb(158,55,120)" stroke-width="1" opacity="0.75" />
			</g>
		</g>
		<g>
			<title>hisH
glutamine amidotransferase</title>
			<polygon class="hisH
glutamine amidotransferase" points="962,40 983,10 983,70" fill="rgb(255,255,255)" fill-opacity="1.0" stroke="rgb(0,0,0)" stroke-width="2"  />
			<g>
				<title>GATase (PF00117)
"Glutamine amidotransferase class-I"</title>
				<polygon class="PF00117" points="966,40 975,28 982,28 982,52 975,52" stroke-linejoin="round" width="20" height="24" fill="rgb(159,201,96)" stroke="rgb(127,160,76)" stroke-width="1" opacity="0.75" />
			</g>
		</g>
		<g>
			<title>hisF
HisF protein</title>
			<polygon class="hisF
HisF protein" points="988,40 1009,10 1009,70" fill="rgb(255,255,255)" fill-opacity="1.0" stroke="rgb(0,0,0)" stroke-width="2"  />
			<g>
				<title>His_biosynth (PF00977)
"Histidine biosynthesis protein"</title>
				<polygon class="PF00977" points="992,40 1001,28 1008,28 1008,52 1001,52" stroke-linejoin="round" width="20" height="24" fill="rgb(200,144,79)" stroke="rgb(160,115,63)" stroke-width="1" opacity="0.75" />
			</g>
		</g>
		<g>
			<title>
hypothetical protein</title>
			<polygon class="
hypothetical protein" points="1055,25 1039,25 1039,10 1009,40 1039,70 1039,55 1055,55" fill="rgb(255,255,255)" fill-opacity="1.0" stroke="rgb(0,0,0)" stroke-width="2"  />
		</g>
		<g>
			<title>
hypothetical protein</title>
			<polygon class="
hypothetical protein" points="1060,10 1087,40 1060,70" fill="rgb(255,255,255)" fill-opacity="1.0" stroke="rgb(0,0,0)" stroke-width="2"  />
			<g>
				<title>Methyltransf_25 (PF13649)
"Methyltransferase domain"</title>
				<polygon class="PF13649" points="1064,28 1071,28 1073,29 1073,51 1071,52 1064,52" stroke-linejoin="round" width="9" height="24" fill="rgb(227,135,74)" stroke="rgb(181,108,59)" stroke-width="1" opacity="0.75" />
			</g>
		</g>
		<g>
			<title>
hypothetical protein</title>
			<polygon class="
hypothetical protein" points="1089,10 1098,40 1089,70" fill="rgb(255,255,255)" fill-opacity="1.0" stroke="rgb(0,0,0)" stroke-width="2"  />
		</g>
	</g>
</svg>
