<svg version="1.1" baseProfile="full" xmlns="http://www.w3.org/2000/svg" width="437.1666666666667" height="80">
	<g>
		<line x1="10" y1="40.0" x2="427.1666666666667" y2="40.0" style="stroke:rgb(70,70,70); stroke-width:3 "/>
		<g>
			<title> (TeryDRAFT_3503)
Peptidase S8 and S53, subtilisin, kexin, sedolisin</title>
			<polygon class=" (TeryDRAFT_3503)
Peptidase S8 and S53, subtilisin, kexin, sedolisin" points="80,25 40,25 40,10 10,40 40,70 40,55 80,55" fill="rgb(255,255,255)" fill-opacity="1.0" stroke="rgb(0,0,0)" stroke-width="2"  />
			<g>
				<title>PatG_C (PF18065)
"PatG C-terminal"</title>
				<polygon class="PF18065" points="14,40 21,33 21,47" stroke-linejoin="round" width="11" height="24" fill="rgb(93,82,184)" stroke="rgb(74,65,147)" stroke-width="1" opacity="0.75" />
			</g>
			<g>
				<title>PatG_D (PF18047)
"PatG Domain"</title>
				<polygon class="PF18047" points="26,28 26,28 37,28 37,52 26,52 26,52" stroke-linejoin="round" width="11" height="24" fill="rgb(91,195,69)" stroke="rgb(72,156,55)" stroke-width="1" opacity="0.75" />
			</g>
			<g>
				<title>Peptidase_S8 (PF00082)
"Subtilase family"</title>
				<rect class="PF00082" x="46" y="28" stroke-linejoin="round" width="31" height="24" fill="rgb(193,159,94)" stroke="rgb(154,127,75)" stroke-width="1" opacity="0.75" />
			</g>
		</g>
		<g>
			<title> (TeryDRAFT_3504)
hypothetical protein</title>
			<polygon class=" (TeryDRAFT_3504)
hypothetical protein" points="85,10 92,40 85,70" fill="rgb(255,255,255)" fill-opacity="1.0" stroke="rgb(0,0,0)" stroke-width="2"  />
		</g>
		<g>
			<title> (TeryDRAFT_3543)
hypothetical protein</title>
			<polygon class=" (TeryDRAFT_3543)
hypothetical protein" points="103,10 110,40 103,70" fill="rgb(255,255,255)" fill-opacity="1.0" stroke="rgb(0,0,0)" stroke-width="2"  />
		</g>
		<g>
			<title> (TeryDRAFT_3505)
Peptidase S8 and S53, subtilisin, kexin, sedolisin</title>
			<polygon class=" (TeryDRAFT_3505)
Peptidase S8 and S53, subtilisin, kexin, sedolisin" points="184,25 148,25 148,10 118,40 148,70 148,55 184,55" fill="rgb(255,255,255)" fill-opacity="1.0" stroke="rgb(0,0,0)" stroke-width="2"  />
			<g>
				<title>PatG_C (PF18065)
"PatG C-terminal"</title>
				<polygon class="PF18065" points="122,40 129,33 129,47" stroke-linejoin="round" width="11" height="24" fill="rgb(93,82,184)" stroke="rgb(74,65,147)" stroke-width="1" opacity="0.75" />
			</g>
			<g>
				<title>PatG_D (PF18047)
"PatG Domain"</title>
				<polygon class="PF18047" points="134,28 134,28 145,28 145,52 134,52 134,52" stroke-linejoin="round" width="11" height="24" fill="rgb(91,195,69)" stroke="rgb(72,156,55)" stroke-width="1" opacity="0.75" />
			</g>
			<g>
				<title>Peptidase_S8 (PF00082)
"Subtilase family"</title>
				<rect class="PF00082" x="154" y="28" stroke-linejoin="round" width="28" height="24" fill="rgb(193,159,94)" stroke="rgb(154,127,75)" stroke-width="1" opacity="0.75" />
			</g>
		</g>
		<g>
			<title> (TeryDRAFT_3506)
hypothetical protein</title>
			<polygon class=" (TeryDRAFT_3506)
hypothetical protein" points="217,40 228,10 228,70" fill="rgb(255,255,255)" fill-opacity="1.0" stroke="rgb(0,0,0)" stroke-width="2"  />
		</g>
		<g>
			<title> (TeryDRAFT_3507)
Protein of unknown function DUF1568</title>
			<polygon class=" (TeryDRAFT_3507)
Protein of unknown function DUF1568" points="232,40 242,10 242,70" fill="rgb(255,255,255)" fill-opacity="1.0" stroke="rgb(0,0,0)" stroke-width="2"  />
			<g>
				<title>Y1_Tnp (PF01797)
"Transposase IS200 like"</title>
				<polygon class="PF01797" points="235,40 239,28 241,28 241,52 239,52" stroke-linejoin="round" width="9" height="24" fill="rgb(198,164,60)" stroke="rgb(158,131,47)" stroke-width="1" opacity="0.75" />
			</g>
		</g>
		<g>
			<title> (TeryDRAFT_3508)
hypothetical protein</title>
			<polygon class=" (TeryDRAFT_3508)
hypothetical protein" points="294,25 277,25 277,10 247,40 277,70 277,55 294,55" fill="rgb(255,255,255)" fill-opacity="1.0" stroke="rgb(0,0,0)" stroke-width="2"  />
			<g>
				<title>Nitroreductase (PF00881)
"Nitroreductase family"</title>
				<polygon class="PF00881" points="251,40 263,28 266,28 266,52 263,52" stroke-linejoin="round" width="19" height="24" fill="rgb(79,118,187)" stroke="rgb(63,94,149)" stroke-width="1" opacity="0.75" />
			</g>
			<g>
				<title>HTH_57 (PF18679)
"ThcOx helix turn helix domain"</title>
				<rect class="PF18679" x="282" y="28" stroke-linejoin="round" width="11" height="24" fill="rgb(96,205,78)" stroke="rgb(76,164,62)" stroke-width="1" opacity="0.75" />
			</g>
		</g>
		<g>
			<title> (TeryDRAFT_3509)
similar to XisI protein</title>
			<polygon class=" (TeryDRAFT_3509)
similar to XisI protein" points="304,40 308,10 308,70" fill="rgb(255,255,255)" fill-opacity="1.0" stroke="rgb(0,0,0)" stroke-width="2"  />
			<g>
				<title>XisI (PF08869)
"XisI protein"</title>
				<polygon class="PF08869" points="307,40 308,34 308,46" stroke-linejoin="round" width="4" height="24" fill="rgb(139,215,88)" stroke="rgb(111,172,70)" stroke-width="1" opacity="0.75" />
			</g>
		</g>
		<g>
			<title> (TeryDRAFT_3510)
Protein of unknown function DUF433</title>
			<polygon class=" (TeryDRAFT_3510)
Protein of unknown function DUF433" points="316,10 328,40 316,70" fill="rgb(255,255,255)" fill-opacity="1.0" stroke="rgb(0,0,0)" stroke-width="2"  />
			<g>
				<title>ParD_antitoxin (PF03693)
"Bacterial antitoxin of ParD toxin-antitoxin type II system and RHH"</title>
				<rect class="PF03693" x="316" y="28" stroke-linejoin="round" width="4" height="24" fill="rgb(185,115,52)" stroke="rgb(148,92,41)" stroke-width="1" opacity="0.75" />
			</g>
			<g>
				<title>DUF433 (PF04255)
"Protein of unknown function (DUF433)"</title>
				<polygon class="PF04255" points="320,28 320,28 325,40 325,40 320,52 320,52" stroke-linejoin="round" width="5" height="24" fill="rgb(205,68,213)" stroke="rgb(164,54,170)" stroke-width="1" opacity="0.75" />
			</g>
		</g>
		<g>
			<title> (TeryDRAFT_3511)
hypothetical protein</title>
			<polygon class=" (TeryDRAFT_3511)
hypothetical protein" points="328,10 339,40 328,70" fill="rgb(255,255,255)" fill-opacity="1.0" stroke="rgb(0,0,0)" stroke-width="2"  />
			<g>
				<title>DUF5615 (PF18480)
"Domain of unknown function (DUF5615)"</title>
				<polygon class="PF18480" points="328,28 331,28 335,38 335,42 331,52 328,52" stroke-linejoin="round" width="7" height="24" fill="rgb(193,159,69)" stroke="rgb(154,127,55)" stroke-width="1" opacity="0.75" />
			</g>
		</g>
		<g>
			<title> (TeryDRAFT_3512)
Protein of unknown function DUF181</title>
			<polygon class=" (TeryDRAFT_3512)
Protein of unknown function DUF181" points="350,25 397,25 397,10 427,40 397,70 397,55 350,55" fill="rgb(255,255,255)" fill-opacity="1.0" stroke="rgb(0,0,0)" stroke-width="2"  />
			<g>
				<title>YcaO (PF02624)
"YcaO cyclodehydratase, ATP-ad Mg2+-binding"</title>
				<polygon class="PF02624" points="390,28 410,28 422,40 410,52 390,52" stroke-linejoin="round" width="33" height="24" fill="rgb(76,84,185)" stroke="rgb(60,67,148)" stroke-width="1" opacity="0.75" />
			</g>
		</g>
	</g>
</svg>
