<svg version="1.1" baseProfile="full" xmlns="http://www.w3.org/2000/svg" width="20007.933333333334" height="80">
	<g>
		<line x1="10" y1="40.0" x2="19997.933333333334" y2="40.0" style="stroke:rgb(70,70,70); stroke-width:3 "/>
		<g>
			<title>LOC123429120
cytochrome P450 99A2-like</title>
			<polygon class="LOC123429120
cytochrome P450 99A2-like" points="23,25 48,25 48,10 78,40 48,70 48,55 23,55" fill="rgb(255,255,255)" fill-opacity="1.0" stroke="rgb(0,0,0)" stroke-width="2"  />
			<g>
				<title>p450 (PF00067)
"Cytochrome P450"</title>
				<polygon class="PF00067" points="26,28 62,28 71,37 71,43 62,52 26,52" stroke-linejoin="round" width="45" height="24" fill="rgb(85,216,107)" stroke="rgb(68,172,85)" stroke-width="1" opacity="0.75" />
			</g>
		</g>
		<g>
			<title>LOC123424873
uncharacterized protein LOC123424873</title>
			<polygon class="LOC123424873
uncharacterized protein LOC123424873" points="636,25 624,25 624,10 594,40 624,70 624,55 636,55" fill="rgb(255,255,255)" fill-opacity="1.0" stroke="rgb(0,0,0)" stroke-width="2"  />
		</g>
		<g>
			<title>LOC123429121
cytochrome P450 99A2-like</title>
			<polygon class="LOC123429121
cytochrome P450 99A2-like" points="1747,25 1947,25 1947,10 1977,40 1947,70 1947,55 1747,55" fill="rgb(255,255,255)" fill-opacity="1.0" stroke="rgb(0,0,0)" stroke-width="2"  />
			<g>
				<title>p450 (PF00067)
"Cytochrome P450"</title>
				<rect class="PF00067" x="1750" y="28" stroke-linejoin="round" width="45" height="24" fill="rgb(85,216,107)" stroke="rgb(68,172,85)" stroke-width="1" opacity="0.75" />
			</g>
		</g>
		<g>
			<title>LOC123424378
cytochrome P450 99A2-like</title>
			<polygon class="LOC123424378
cytochrome P450 99A2-like" points="3835,25 3857,25 3857,10 3887,40 3857,70 3857,55 3835,55" fill="rgb(255,255,255)" fill-opacity="1.0" stroke="rgb(0,0,0)" stroke-width="2"  />
			<g>
				<title>p450 (PF00067)
"Cytochrome P450"</title>
				<polygon class="PF00067" points="3838,28 3871,28 3883,40 3883,40 3871,52 3838,52" stroke-linejoin="round" width="45" height="24" fill="rgb(85,216,107)" stroke="rgb(68,172,85)" stroke-width="1" opacity="0.75" />
			</g>
		</g>
		<g>
			<title>LOC123424377
cytochrome P450 99A2-like</title>
			<polygon class="LOC123424377
cytochrome P450 99A2-like" points="4285,25 4307,25 4307,10 4337,40 4307,70 4307,55 4285,55" fill="rgb(255,255,255)" fill-opacity="1.0" stroke="rgb(0,0,0)" stroke-width="2"  />
			<g>
				<title>p450 (PF00067)
"Cytochrome P450"</title>
				<polygon class="PF00067" points="4288,28 4321,28 4333,40 4333,40 4321,52 4288,52" stroke-linejoin="round" width="45" height="24" fill="rgb(85,216,107)" stroke="rgb(68,172,85)" stroke-width="1" opacity="0.75" />
			</g>
		</g>
		<g>
			<title>LOC123429122
ent-kaur-16-ene synthase, chloroplastic-like</title>
			<polygon class="LOC123429122
ent-kaur-16-ene synthase, chloroplastic-like" points="4574,25 4704,25 4704,10 4734,40 4704,70 4704,55 4574,55" fill="rgb(255,255,255)" fill-opacity="1.0" stroke="rgb(0,0,0)" stroke-width="2"  />
			<g>
				<title>Terpene_synth (PF01397)
"Terpene synthase, N-terminal domain"</title>
				<rect class="PF01397" x="4599" y="28" stroke-linejoin="round" width="19" height="24" fill="rgb(74,159,219)" stroke="rgb(59,127,175)" stroke-width="1" opacity="0.75" />
			</g>
			<g>
				<title>Terpene_synth_C (PF03936)
"Terpene synthase family, metal binding domain"</title>
				<rect class="PF03936" x="4623" y="28" stroke-linejoin="round" width="26" height="24" fill="rgb(219,91,215)" stroke="rgb(175,72,171)" stroke-width="1" opacity="0.75" />
			</g>
		</g>
		<g>
			<title>LOC123424379
cytochrome P450 89A2-like</title>
			<polygon class="LOC123424379
cytochrome P450 89A2-like" points="8002,25 7964,25 7964,10 7934,40 7964,70 7964,55 8002,55" fill="rgb(255,255,255)" fill-opacity="1.0" stroke="rgb(0,0,0)" stroke-width="2"  />
			<g>
				<title>p450 (PF00067)
"Cytochrome P450"</title>
				<polygon class="PF00067" points="7943,35 7950,28 7990,28 7990,52 7950,52 7943,45" stroke-linejoin="round" width="47" height="24" fill="rgb(85,216,107)" stroke="rgb(68,172,85)" stroke-width="1" opacity="0.75" />
			</g>
		</g>
		<g>
			<title>LOC123429124
cytochrome P450 89A2-like</title>
			<polygon class="LOC123429124
cytochrome P450 89A2-like" points="9104,25 9066,25 9066,10 9036,40 9066,70 9066,55 9104,55" fill="rgb(255,255,255)" fill-opacity="1.0" stroke="rgb(0,0,0)" stroke-width="2"  />
			<g>
				<title>p450 (PF00067)
"Cytochrome P450"</title>
				<polygon class="PF00067" points="9045,35 9052,28 9092,28 9092,52 9052,52 9045,45" stroke-linejoin="round" width="47" height="24" fill="rgb(85,216,107)" stroke="rgb(68,172,85)" stroke-width="1" opacity="0.75" />
			</g>
		</g>
		<g>
			<title>LOC123429125
cytochrome P450 89A2-like</title>
			<polygon class="LOC123429125
cytochrome P450 89A2-like" points="10251,25 10213,25 10213,10 10183,40 10213,70 10213,55 10251,55" fill="rgb(255,255,255)" fill-opacity="1.0" stroke="rgb(0,0,0)" stroke-width="2"  />
			<g>
				<title>p450 (PF00067)
"Cytochrome P450"</title>
				<polygon class="PF00067" points="10192,35 10199,28 10239,28 10239,52 10199,52 10192,45" stroke-linejoin="round" width="47" height="24" fill="rgb(85,216,107)" stroke="rgb(68,172,85)" stroke-width="1" opacity="0.75" />
			</g>
		</g>
		<g>
			<title>LOC123429126
cytochrome P450 99A2-like</title>
			<polygon class="LOC123429126
cytochrome P450 99A2-like" points="14772,25 14750,25 14750,10 14720,40 14750,70 14750,55 14772,55" fill="rgb(255,255,255)" fill-opacity="1.0" stroke="rgb(0,0,0)" stroke-width="2"  />
			<g>
				<title>p450 (PF00067)
"Cytochrome P450"</title>
				<polygon class="PF00067" points="14724,40 14736,28 14768,28 14768,52 14736,52" stroke-linejoin="round" width="45" height="24" fill="rgb(85,216,107)" stroke="rgb(68,172,85)" stroke-width="1" opacity="0.75" />
			</g>
		</g>
		<g>
			<title>LOC123429127
cytochrome P450 99A2-like</title>
			<polygon class="LOC123429127
cytochrome P450 99A2-like" points="16685,25 16663,25 16663,10 16633,40 16663,70 16663,55 16685,55" fill="rgb(255,255,255)" fill-opacity="1.0" stroke="rgb(0,0,0)" stroke-width="2"  />
			<g>
				<title>p450 (PF00067)
"Cytochrome P450"</title>
				<polygon class="PF00067" points="16637,40 16649,28 16681,28 16681,52 16649,52" stroke-linejoin="round" width="45" height="24" fill="rgb(85,216,107)" stroke="rgb(68,172,85)" stroke-width="1" opacity="0.75" />
			</g>
		</g>
		<g>
			<title>LOC123424381
cytochrome P450 99A2-like</title>
			<polygon class="LOC123424381
cytochrome P450 99A2-like" points="18064,25 18042,25 18042,10 18012,40 18042,70 18042,55 18064,55" fill="rgb(255,255,255)" fill-opacity="1.0" stroke="rgb(0,0,0)" stroke-width="2"  />
			<g>
				<title>p450 (PF00067)
"Cytochrome P450"</title>
				<polygon class="PF00067" points="18016,40 18028,28 18060,28 18060,52 18028,52" stroke-linejoin="round" width="45" height="24" fill="rgb(85,216,107)" stroke="rgb(68,172,85)" stroke-width="1" opacity="0.75" />
			</g>
		</g>
		<g>
			<title>LOC123424884
probable poly(ADP-ribose) glycohydrolase 2</title>
			<polygon class="LOC123424884
probable poly(ADP-ribose) glycohydrolase 2" points="18087,25 18134,25 18134,10 18164,40 18134,70 18134,55 18087,55" fill="rgb(255,255,255)" fill-opacity="1.0" stroke="rgb(0,0,0)" stroke-width="2"  />
			<g>
				<title>PARG_cat (PF05028)
"Poly (ADP-ribose) glycohydrolase (PARG)"</title>
				<rect class="PF05028" x="18093" y="28" stroke-linejoin="round" width="9" height="24" fill="rgb(212,87,228)" stroke="rgb(169,69,182)" stroke-width="1" opacity="0.75" />
			</g>
		</g>
		<g>
			<title>LOC123424380
syn-copalyl diphosphate synthase-like</title>
			<polygon class="LOC123424380
syn-copalyl diphosphate synthase-like" points="19825,25 19938,25 19938,10 19968,40 19938,70 19938,55 19825,55" fill="rgb(255,255,255)" fill-opacity="1.0" stroke="rgb(0,0,0)" stroke-width="2"  />
			<g>
				<title>Terpene_synth (PF01397)
"Terpene synthase, N-terminal domain"</title>
				<rect class="PF01397" x="19850" y="28" stroke-linejoin="round" width="20" height="24" fill="rgb(74,159,219)" stroke="rgb(59,127,175)" stroke-width="1" opacity="0.75" />
			</g>
			<g>
				<title>Terpene_synth_C (PF03936)
"Terpene synthase family, metal binding domain"</title>
				<rect class="PF03936" x="19875" y="28" stroke-linejoin="round" width="22" height="24" fill="rgb(219,91,215)" stroke="rgb(175,72,171)" stroke-width="1" opacity="0.75" />
			</g>
		</g>
	</g>
</svg>
