<svg version="1.1" baseProfile="full" xmlns="http://www.w3.org/2000/svg" width="1057.0666666666666" height="80">
	<g>
		<line x1="10" y1="40.0" x2="1047.0666666666666" y2="40.0" style="stroke:rgb(70,70,70); stroke-width:3 "/>
		<g>
			<title> (SYNPCC7002_G0005)
Periplasmic binding protein</title>
			<polygon class=" (SYNPCC7002_G0005)
Periplasmic binding protein" points="43,25 40,25 40,10 10,40 40,70 40,55 43,55" fill="rgb(255,255,255)" fill-opacity="1.0" stroke="rgb(0,0,0)" stroke-width="2"  />
			<g>
				<title>Peripla_BP_2 (PF01497)
"Periplasmic binding protein"</title>
				<polygon class="PF01497" points="14,40 26,28 36,28 36,52 26,52" stroke-linejoin="round" width="24" height="24" fill="rgb(183,226,104)" stroke="rgb(146,180,83)" stroke-width="1" opacity="0.75" />
			</g>
		</g>
		<g>
			<title> (SYNPCC7002_G0006)
TonB dependent receptor</title>
			<polygon class=" (SYNPCC7002_G0006)
TonB dependent receptor" points="126,25 73,25 73,10 43,40 73,70 73,55 126,55" fill="rgb(255,255,255)" fill-opacity="1.0" stroke="rgb(0,0,0)" stroke-width="2"  />
			<g>
				<title>TonB_dep_Rec (PF00593)
"TonB dependent receptor"</title>
				<polygon class="PF00593" points="47,40 59,28 96,28 96,52 59,52" stroke-linejoin="round" width="53" height="24" fill="rgb(171,200,51)" stroke="rgb(136,160,40)" stroke-width="1" opacity="0.75" />
			</g>
			<g>
				<title>Plug (PF07715)
"TonB-dependent Receptor Plug Domain"</title>
				<rect class="PF07715" x="99" y="28" stroke-linejoin="round" width="10" height="24" fill="rgb(99,133,214)" stroke="rgb(79,106,171)" stroke-width="1" opacity="0.75" />
			</g>
			<g>
				<title>AMIN (PF11741)
"AMIN domain"</title>
				<rect class="PF11741" x="113" y="28" stroke-linejoin="round" width="9" height="24" fill="rgb(73,137,207)" stroke="rgb(58,109,165)" stroke-width="1" opacity="0.75" />
			</g>
		</g>
		<g>
			<title> (SYNPCC7002_G0007)
transcriptional regulator, AraC family</title>
			<polygon class=" (SYNPCC7002_G0007)
transcriptional regulator, AraC family" points="163,25 159,25 159,10 129,40 159,70 159,55 163,55" fill="rgb(255,255,255)" fill-opacity="1.0" stroke="rgb(0,0,0)" stroke-width="2"  />
			<g>
				<title>HTH_18 (PF12833)
"Helix-turn-helix domain"</title>
				<polygon class="PF12833" points="133,40 137,36 137,44" stroke-linejoin="round" width="7" height="24" fill="rgb(216,58,224)" stroke="rgb(172,46,179)" stroke-width="1" opacity="0.75" />
			</g>
		</g>
		<g>
			<title> (SYNPCC7002_G0008)
conserved hypothetical protein with GTPase domain</title>
			<polygon class=" (SYNPCC7002_G0008)
conserved hypothetical protein with GTPase domain" points="268,25 206,25 206,10 176,40 206,70 206,55 268,55" fill="rgb(255,255,255)" fill-opacity="1.0" stroke="rgb(0,0,0)" stroke-width="2"  />
			<g>
				<title>HEAT_2 (PF13646)
"HEAT repeats"</title>
				<polygon class="PF13646" points="191,29 192,28 199,28 199,52 192,52 191,51" stroke-linejoin="round" width="8" height="24" fill="rgb(161,180,58)" stroke="rgb(128,144,46)" stroke-width="1" opacity="0.75" />
			</g>
			<g>
				<title>NACHT (PF05729)
"NACHT domain"</title>
				<rect class="PF05729" x="230" y="28" stroke-linejoin="round" width="15" height="24" fill="rgb(60,194,110)" stroke="rgb(48,155,88)" stroke-width="1" opacity="0.75" />
			</g>
			<g>
				<title>EAD4 (PF19959)
"Effector-associated domain 4"</title>
				<rect class="PF19959" x="255" y="28" stroke-linejoin="round" width="12" height="24" fill="rgb(64,107,201)" stroke="rgb(51,85,160)" stroke-width="1" opacity="0.75" />
			</g>
		</g>
		<g>
			<title> (SYNPCC7002_G0009)
conserved hypothetical protein; domain of unknown function (DUF427)</title>
			<polygon class=" (SYNPCC7002_G0009)
conserved hypothetical protein; domain of unknown function (DUF427)" points="271,40 280,10 280,70" fill="rgb(255,255,255)" fill-opacity="1.0" stroke="rgb(0,0,0)" stroke-width="2"  />
			<g>
				<title>NTP_transf_9 (PF04248)
"Domain of unknown function (DUF427)"</title>
				<polygon class="PF04248" points="274,40 278,28 279,28 279,52 278,52" stroke-linejoin="round" width="8" height="24" fill="rgb(184,123,83)" stroke="rgb(147,98,66)" stroke-width="1" opacity="0.75" />
			</g>
		</g>
		<g>
			<title> (SYNPCC7002_G0010)
hypothetical protein</title>
			<polygon class=" (SYNPCC7002_G0010)
hypothetical protein" points="311,40 332,10 332,70" fill="rgb(255,255,255)" fill-opacity="1.0" stroke="rgb(0,0,0)" stroke-width="2"  />
		</g>
		<g>
			<title> (SYNPCC7002_G0011)
conserved outer membrane protein</title>
			<polygon class=" (SYNPCC7002_G0011)
conserved outer membrane protein" points="393,25 366,25 366,10 336,40 366,70 366,55 393,55" fill="rgb(255,255,255)" fill-opacity="1.0" stroke="rgb(0,0,0)" stroke-width="2"  />
			<g>
				<title>OprB (PF04966)
"Carbohydrate-selective porin, OprB family"</title>
				<polygon class="PF04966" points="340,40 352,28 380,28 380,52 352,52" stroke-linejoin="round" width="44" height="24" fill="rgb(188,181,83)" stroke="rgb(150,144,66)" stroke-width="1" opacity="0.75" />
			</g>
			<g>
				<title>SLH (PF00395)
"S-layer homology domain"</title>
				<rect class="PF00395" x="383" y="28" stroke-linejoin="round" width="4" height="24" fill="rgb(106,215,138)" stroke="rgb(84,172,110)" stroke-width="1" opacity="0.75" />
			</g>
		</g>
		<g>
			<title> (SYNPCC7002_G0012)
ATPase, P-type (transporting), HAD superfamily, subfamily IC</title>
			<polygon class=" (SYNPCC7002_G0012)
ATPase, P-type (transporting), HAD superfamily, subfamily IC" points="414,25 481,25 481,10 511,40 481,70 481,55 414,55" fill="rgb(255,255,255)" fill-opacity="1.0" stroke="rgb(0,0,0)" stroke-width="2"  />
			<g>
				<title>Cation_ATPase_N (PF00690)
"Cation transporter/ATPase, N-terminus"</title>
				<rect class="PF00690" x="414" y="28" stroke-linejoin="round" width="6" height="24" fill="rgb(174,102,225)" stroke="rgb(139,81,180)" stroke-width="1" opacity="0.75" />
			</g>
			<g>
				<title>E1-E2_ATPase (PF00122)
"E1-E2 ATPase"</title>
				<rect class="PF00122" x="425" y="28" stroke-linejoin="round" width="21" height="24" fill="rgb(149,204,70)" stroke="rgb(119,163,56)" stroke-width="1" opacity="0.75" />
			</g>
			<g>
				<title>Hydrolase (PF00702)
"haloacid dehalogenase-like hydrolase"</title>
				<rect class="PF00702" x="448" y="28" stroke-linejoin="round" width="36" height="24" fill="rgb(68,220,102)" stroke="rgb(54,176,81)" stroke-width="1" opacity="0.75" />
			</g>
			<g>
				<title>Cation_ATPase_C (PF00689)
"Cation transporting ATPase, C-terminus"</title>
				<polygon class="PF00689" points="491,28 495,28 507,40 495,52 491,52" stroke-linejoin="round" width="19" height="24" fill="rgb(76,203,161)" stroke="rgb(60,162,128)" stroke-width="1" opacity="0.75" />
			</g>
		</g>
		<g>
			<title> (SYNPCC7002_G0013)
Exopolysaccharide synthesis, ExoD family</title>
			<polygon class=" (SYNPCC7002_G0013)
Exopolysaccharide synthesis, ExoD family" points="512,40 531,10 531,70" fill="rgb(255,255,255)" fill-opacity="1.0" stroke="rgb(0,0,0)" stroke-width="2"  />
			<g>
				<title>ExoD (PF06055)
"Exopolysaccharide synthesis, ExoD"</title>
				<polygon class="PF06055" points="516,40 524,28 530,28 530,52 524,52" stroke-linejoin="round" width="17" height="24" fill="rgb(89,214,141)" stroke="rgb(71,171,112)" stroke-width="1" opacity="0.75" />
			</g>
		</g>
		<g>
			<title> (SYNPCC7002_G0014)
ABC-type nitrate/sulfonate/bicarbonate transport system, ATP-binding protein</title>
			<polygon class=" (SYNPCC7002_G0014)
ABC-type nitrate/sulfonate/bicarbonate transport system, ATP-binding protein" points="533,40 560,10 560,70" fill="rgb(255,255,255)" fill-opacity="1.0" stroke="rgb(0,0,0)" stroke-width="2"  />
			<g>
				<title>ABC_tran (PF00005)
"ABC transporter"</title>
				<polygon class="PF00005" points="542,35 548,28 556,28 556,52 548,52 542,45" stroke-linejoin="round" width="14" height="24" fill="rgb(129,201,63)" stroke="rgb(103,160,50)" stroke-width="1" opacity="0.75" />
			</g>
		</g>
		<g>
			<title> (SYNPCC7002_G0015)
ABC-type nitrate/sulfonate/bicarbonate transport system, periplasmic component</title>
			<polygon class=" (SYNPCC7002_G0015)
ABC-type nitrate/sulfonate/bicarbonate transport system, periplasmic component" points="607,25 591,25 591,10 561,40 591,70 591,55 607,55" fill="rgb(255,255,255)" fill-opacity="1.0" stroke="rgb(0,0,0)" stroke-width="2"  />
			<g>
				<title>NMT1_2 (PF13379)
"NMT1-like family"</title>
				<polygon class="PF13379" points="576,29 577,28 602,28 602,52 577,52 576,51" stroke-linejoin="round" width="26" height="24" fill="rgb(139,182,81)" stroke="rgb(111,145,64)" stroke-width="1" opacity="0.75" />
			</g>
		</g>
		<g>
			<title> (SYNPCC7002_G0016)
ABC-type nitrate/sulfonate/bicarbonate transport system, permease</title>
			<polygon class=" (SYNPCC7002_G0016)
ABC-type nitrate/sulfonate/bicarbonate transport system, permease" points="608,40 636,10 636,70" fill="rgb(255,255,255)" fill-opacity="1.0" stroke="rgb(0,0,0)" stroke-width="2"  />
			<g>
				<title>BPD_transp_1 (PF00528)
"Binding-protein-dependent transport system inner membrane component"</title>
				<polygon class="PF00528" points="612,40 623,28 625,28 625,52 623,52" stroke-linejoin="round" width="17" height="24" fill="rgb(77,208,225)" stroke="rgb(61,166,180)" stroke-width="1" opacity="0.75" />
			</g>
		</g>
		<g>
			<title> (SYNPCC7002_G0017)
hypothetical protein</title>
			<polygon class=" (SYNPCC7002_G0017)
hypothetical protein" points="646,40 650,10 650,70" fill="rgb(255,255,255)" fill-opacity="1.0" stroke="rgb(0,0,0)" stroke-width="2"  />
		</g>
		<g>
			<title> (SYNPCC7002_G0018)
esterase/lipase</title>
			<polygon class=" (SYNPCC7002_G0018)
esterase/lipase" points="695,25 693,25 693,10 663,40 693,70 693,55 695,55" fill="rgb(255,255,255)" fill-opacity="1.0" stroke="rgb(0,0,0)" stroke-width="2"  />
			<g>
				<title>Abhydrolase_3 (PF07859)
"alpha/beta hydrolase fold"</title>
				<polygon class="PF07859" points="667,40 679,28 685,28 685,52 679,52" stroke-linejoin="round" width="20" height="24" fill="rgb(183,51,179)" stroke="rgb(146,40,143)" stroke-width="1" opacity="0.75" />
			</g>
		</g>
		<g>
			<title> (SYNPCC7002_G0019)
Siderophore biosynthesis protein, IucA / IucC family</title>
			<polygon class=" (SYNPCC7002_G0019)
Siderophore biosynthesis protein, IucA / IucC family" points="780,25 729,25 729,10 699,40 729,70 729,55 780,55" fill="rgb(255,255,255)" fill-opacity="1.0" stroke="rgb(0,0,0)" stroke-width="2"  />
			<g>
				<title>Acetyltransf_8 (PF13523)
"Acetyltransferase (GNAT) domain"</title>
				<polygon class="PF13523" points="703,40 715,28 716,28 716,52 715,52" stroke-linejoin="round" width="14" height="24" fill="rgb(106,224,203)" stroke="rgb(84,179,162)" stroke-width="1" opacity="0.75" />
			</g>
			<g>
				<title>FhuF (PF06276)
"Ferric iron reductase FhuF-like transporter"</title>
				<rect class="PF06276" x="722" y="28" stroke-linejoin="round" width="16" height="24" fill="rgb(76,151,221)" stroke="rgb(60,120,176)" stroke-width="1" opacity="0.75" />
			</g>
			<g>
				<title>IucA_IucC (PF04183)
"IucA / IucC family"</title>
				<rect class="PF04183" x="741" y="28" stroke-linejoin="round" width="25" height="24" fill="rgb(221,104,121)" stroke="rgb(176,83,96)" stroke-width="1" opacity="0.75" />
			</g>
		</g>
		<g>
			<title> (SYNPCC7002_G0020)
major facilitator transport protein</title>
			<polygon class=" (SYNPCC7002_G0020)
major facilitator transport protein" points="822,25 812,25 812,10 782,40 812,70 812,55 822,55" fill="rgb(255,255,255)" fill-opacity="1.0" stroke="rgb(0,0,0)" stroke-width="2"  />
			<g>
				<title>MFS_1 (PF07690)
"Major Facilitator Superfamily"</title>
				<polygon class="PF07690" points="793,33 798,28 821,28 821,52 798,52 793,47" stroke-linejoin="round" width="28" height="24" fill="rgb(193,224,74)" stroke="rgb(154,179,59)" stroke-width="1" opacity="0.75" />
			</g>
		</g>
		<g>
			<title> (SYNPCC7002_G0021)
siderophore biosynthesis protein; N-monooxygenase</title>
			<polygon class=" (SYNPCC7002_G0021)
siderophore biosynthesis protein; N-monooxygenase" points="866,25 853,25 853,10 823,40 853,70 853,55 866,55" fill="rgb(255,255,255)" fill-opacity="1.0" stroke="rgb(0,0,0)" stroke-width="2"  />
			<g>
				<title>Lys_Orn_oxgnase (PF13434)
"L-lysine 6-monooxygenase/L-ornithine 5-monooxygenase"</title>
				<polygon class="PF13434" points="832,35 839,28 865,28 865,52 839,52 832,45" stroke-linejoin="round" width="33" height="24" fill="rgb(81,213,119)" stroke="rgb(64,170,95)" stroke-width="1" opacity="0.75" />
			</g>
		</g>
		<g>
			<title> (SYNPCC7002_G0022)
Siderophore biosynthesis protein, IucB family; acetyl transferase</title>
			<polygon class=" (SYNPCC7002_G0022)
Siderophore biosynthesis protein, IucB family; acetyl transferase" points="867,40 887,10 887,70" fill="rgb(255,255,255)" fill-opacity="1.0" stroke="rgb(0,0,0)" stroke-width="2"  />
			<g>
				<title>Acetyltransf_8 (PF13523)
"Acetyltransferase (GNAT) domain"</title>
				<polygon class="PF13523" points="871,40 879,28 883,28 883,52 879,52" stroke-linejoin="round" width="14" height="24" fill="rgb(106,224,203)" stroke="rgb(84,179,162)" stroke-width="1" opacity="0.75" />
			</g>
		</g>
		<g>
			<title> (SYNPCC7002_G0023)
Siderophore biosynthesis protein</title>
			<polygon class=" (SYNPCC7002_G0023)
Siderophore biosynthesis protein" points="948,25 917,25 917,10 887,40 917,70 917,55 948,55" fill="rgb(255,255,255)" fill-opacity="1.0" stroke="rgb(0,0,0)" stroke-width="2"  />
			<g>
				<title>FhuF (PF06276)
"Ferric iron reductase FhuF-like transporter"</title>
				<polygon class="PF06276" points="891,40 903,28 905,28 905,52 903,52" stroke-linejoin="round" width="16" height="24" fill="rgb(76,151,221)" stroke="rgb(60,120,176)" stroke-width="1" opacity="0.75" />
			</g>
			<g>
				<title>IucA_IucC (PF04183)
"IucA / IucC family"</title>
				<rect class="PF04183" x="909" y="28" stroke-linejoin="round" width="24" height="24" fill="rgb(221,104,121)" stroke="rgb(176,83,96)" stroke-width="1" opacity="0.75" />
			</g>
		</g>
		<g>
			<title> (SYNPCC7002_G0024)
L-2,4-diaminobutyrate decarboxylase</title>
			<polygon class=" (SYNPCC7002_G0024)
L-2,4-diaminobutyrate decarboxylase" points="992,25 978,25 978,10 948,40 978,70 978,55 992,55" fill="rgb(255,255,255)" fill-opacity="1.0" stroke="rgb(0,0,0)" stroke-width="2"  />
			<g>
				<title>Pyridoxal_deC (PF00282)
"Pyridoxal-dependent decarboxylase conserved domain"</title>
				<polygon class="PF00282" points="955,37 964,28 992,28 992,52 964,52 955,43" stroke-linejoin="round" width="37" height="24" fill="rgb(100,218,166)" stroke="rgb(80,174,132)" stroke-width="1" opacity="0.75" />
			</g>
		</g>
		<g>
			<title> (SYNPCC7002_G0025)
2,4-diaminobutyrate 4-transaminase</title>
			<polygon class=" (SYNPCC7002_G0025)
2,4-diaminobutyrate 4-transaminase" points="1046,25 1030,25 1030,10 1000,40 1030,70 1030,55 1046,55" fill="rgb(255,255,255)" fill-opacity="1.0" stroke="rgb(0,0,0)" stroke-width="2"  />
			<g>
				<title>Aminotran_3 (PF00202)
"Aminotransferase class-III"</title>
				<polygon class="PF00202" points="1004,40 1016,28 1041,28 1041,52 1016,52" stroke-linejoin="round" width="41" height="24" fill="rgb(49,163,189)" stroke="rgb(39,130,151)" stroke-width="1" opacity="0.75" />
			</g>
		</g>
	</g>
</svg>
