<svg version="1.1" baseProfile="full" xmlns="http://www.w3.org/2000/svg" width="2413.733333333333" height="80">
	<g>
		<line x1="10" y1="40.0" x2="2403.733333333333" y2="40.0" style="stroke:rgb(70,70,70); stroke-width:3 "/>
		<g>
			<title>LOC103644033
cytochrome P450 81Q32</title>
			<polygon class="LOC103644033
cytochrome P450 81Q32" points="2079,25 2107,25 2107,10 2137,40 2107,70 2107,55 2079,55" fill="rgb(255,255,255)" fill-opacity="1.0" stroke="rgb(0,0,0)" stroke-width="2"  />
			<g>
				<title>p450 (PF00067)
"Cytochrome P450"</title>
				<polygon class="PF00067" points="2082,28 2120,28 2128,36 2128,44 2120,52 2082,52" stroke-linejoin="round" width="46" height="24" fill="rgb(85,216,107)" stroke="rgb(68,172,85)" stroke-width="1" opacity="0.75" />
			</g>
		</g>
		<g>
			<title>LOC100191791
uncharacterized protein LOC100191791</title>
			<polygon class="LOC100191791
uncharacterized protein LOC100191791" points="2330,25 2354,25 2354,10 2384,40 2354,70 2354,55 2330,55" fill="rgb(255,255,255)" fill-opacity="1.0" stroke="rgb(0,0,0)" stroke-width="2"  />
			<g>
				<title>p450 (PF00067)
"Cytochrome P450"</title>
				<polygon class="PF00067" points="2333,28 2368,28 2379,39 2379,41 2368,52 2333,52" stroke-linejoin="round" width="46" height="24" fill="rgb(85,216,107)" stroke="rgb(68,172,85)" stroke-width="1" opacity="0.75" />
			</g>
		</g>
	</g>
</svg>
