<svg version="1.1" baseProfile="full" xmlns="http://www.w3.org/2000/svg" width="868.6333333333333" height="80">
	<g>
		<line x1="10" y1="40.0" x2="858.6333333333333" y2="40.0" style="stroke:rgb(70,70,70); stroke-width:3 "/>
		<g>
			<title>strW
StrW</title>
			<polygon class="strW
StrW" points="69,25 40,25 40,10 10,40 40,70 40,55 69,55" fill="rgb(255,255,255)" fill-opacity="1.0" stroke="rgb(0,0,0)" stroke-width="2"  />
			<g>
				<title>ABC_tran (PF00005)
"ABC transporter"</title>
				<polygon class="PF00005" points="18,36 26,28 32,28 32,52 26,52 18,44" stroke-linejoin="round" width="14" height="24" fill="rgb(129,201,63)" stroke="rgb(103,160,50)" stroke-width="1" opacity="0.75" />
			</g>
			<g>
				<title>ABC_membrane (PF00664)
"ABC transporter transmembrane region"</title>
				<rect class="PF00664" x="39" y="28" stroke-linejoin="round" width="27" height="24" fill="rgb(149,226,73)" stroke="rgb(119,180,58)" stroke-width="1" opacity="0.75" />
			</g>
		</g>
		<g>
			<title>strV
StrV</title>
			<polygon class="strV
StrV" points="127,25 99,25 99,10 69,40 99,70 99,55 127,55" fill="rgb(255,255,255)" fill-opacity="1.0" stroke="rgb(0,0,0)" stroke-width="2"  />
			<g>
				<title>ABC_membrane (PF00664)
"ABC transporter transmembrane region"</title>
				<rect class="PF00664" x="97" y="28" stroke-linejoin="round" width="27" height="24" fill="rgb(149,226,73)" stroke="rgb(119,180,58)" stroke-width="1" opacity="0.75" />
			</g>
		</g>
		<g>
			<title>strX
StrX</title>
			<polygon class="strX
StrX" points="133,10 151,40 133,70" fill="rgb(255,255,255)" fill-opacity="1.0" stroke="rgb(0,0,0)" stroke-width="2"  />
			<g>
				<title>dTDP_sugar_isom (PF00908)
"dTDP-4-dehydrorhamnose 3,5-epimerase"</title>
				<polygon class="PF00908" points="133,28 140,28 147,40 140,52 133,52" stroke-linejoin="round" width="17" height="24" fill="rgb(184,89,121)" stroke="rgb(147,71,96)" stroke-width="1" opacity="0.75" />
			</g>
		</g>
		<g>
			<title>strU
StrU</title>
			<polygon class="strU
StrU" points="151,25 163,25 163,10 193,40 163,70 163,55 151,55" fill="rgb(255,255,255)" fill-opacity="1.0" stroke="rgb(0,0,0)" stroke-width="2"  />
			<g>
				<title>NAD_binding_3 (PF03447)
"Homoserine dehydrogenase, NAD binding domain"</title>
				<rect class="PF03447" x="153" y="28" stroke-linejoin="round" width="13" height="24" fill="rgb(89,165,190)" stroke="rgb(71,131,152)" stroke-width="1" opacity="0.75" />
			</g>
			<g>
				<title>SAF (PF08666)
"SAF domain"</title>
				<polygon class="PF08666" points="185,36 189,40 185,44" stroke-linejoin="round" width="6" height="24" fill="rgb(203,50,144)" stroke="rgb(162,40,115)" stroke-width="1" opacity="0.75" />
			</g>
		</g>
		<g>
			<title>strQ
StrQ</title>
			<polygon class="strQ
StrQ" points="221,25 221,25 221,10 191,40 221,70 221,55 221,55" fill="rgb(255,255,255)" fill-opacity="1.0" stroke="rgb(0,0,0)" stroke-width="2"  />
			<g>
				<title>NTP_transferase (PF00483)
"Nucleotidyl transferase"</title>
				<polygon class="PF00483" points="195,40 207,28 219,28 219,52 207,52 195,40" stroke-linejoin="round" width="24" height="24" fill="rgb(198,101,87)" stroke="rgb(158,80,69)" stroke-width="1" opacity="0.75" />
			</g>
		</g>
		<g>
			<title>strP
StrP</title>
			<polygon class="strP
StrP" points="256,25 251,25 251,10 221,40 251,70 251,55 256,55" fill="rgb(255,255,255)" fill-opacity="1.0" stroke="rgb(0,0,0)" stroke-width="2"  />
			<g>
				<title>Epimerase (PF01370)
"NAD dependent epimerase/dehydratase family"</title>
				<polygon class="PF01370" points="233,32 237,28 256,28 256,52 237,52 233,48" stroke-linejoin="round" width="23" height="24" fill="rgb(98,102,214)" stroke="rgb(78,81,171)" stroke-width="1" opacity="0.75" />
			</g>
		</g>
		<g>
			<title>strH
StrH</title>
			<polygon class="strH
StrH" points="298,25 290,25 290,10 260,40 290,70 290,55 298,55" fill="rgb(255,255,255)" fill-opacity="1.0" stroke="rgb(0,0,0)" stroke-width="2"  />
		</g>
		<g>
			<title>strG
StrG</title>
			<polygon class="strG
StrG" points="303,40 323,10 323,70" fill="rgb(255,255,255)" fill-opacity="1.0" stroke="rgb(0,0,0)" stroke-width="2"  />
		</g>
		<g>
			<title>strF
StrF</title>
			<polygon class="strF
StrF" points="323,40 351,10 351,70" fill="rgb(255,255,255)" fill-opacity="1.0" stroke="rgb(0,0,0)" stroke-width="2"  />
			<g>
				<title>Glyco_tranf_2_5 (PF13712)
"Glycosyltransferase like family"</title>
				<polygon class="PF13712" points="330,37 338,28 350,28 350,52 338,52 330,43" stroke-linejoin="round" width="20" height="24" fill="rgb(220,96,135)" stroke="rgb(176,76,108)" stroke-width="1" opacity="0.75" />
			</g>
		</g>
		<g>
			<title>strB1
StrB1</title>
			<polygon class="strB1
StrB1" points="388,25 384,25 384,10 354,40 384,70 384,55 388,55" fill="rgb(255,255,255)" fill-opacity="1.0" stroke="rgb(0,0,0)" stroke-width="2"  />
		</g>
		<g>
			<title>strA__sph_
StrA (Sph)</title>
			<polygon class="strA__sph_
StrA (Sph)" points="432,25 432,25 432,10 402,40 432,70 432,55 432,55" fill="rgb(255,255,255)" fill-opacity="1.0" stroke="rgb(0,0,0)" stroke-width="2"  />
			<g>
				<title>APH_6_hur (PF04655)
"Aminoglycoside/hydroxyurea antibiotic resistance kinase"</title>
				<polygon class="PF04655" points="406,40 418,28 427,28 427,52 418,52" stroke-linejoin="round" width="24" height="24" fill="rgb(92,202,190)" stroke="rgb(73,161,152)" stroke-width="1" opacity="0.75" />
			</g>
		</g>
		<g>
			<title>strK
StrK</title>
			<polygon class="strK
StrK" points="438,25 454,25 454,10 484,40 454,70 454,55 438,55" fill="rgb(255,255,255)" fill-opacity="1.0" stroke="rgb(0,0,0)" stroke-width="2"  />
			<g>
				<title>Alk_phosphatase (PF00245)
"Alkaline phosphatase"</title>
				<polygon class="PF00245" points="443,28 467,28 478,39 478,41 467,52 443,52" stroke-linejoin="round" width="35" height="24" fill="rgb(172,203,66)" stroke="rgb(137,162,52)" stroke-width="1" opacity="0.75" />
			</g>
		</g>
		<g>
			<title>strS
StrS</title>
			<polygon class="strS
StrS" points="489,25 496,25 496,10 526,40 496,70 496,55 489,55" fill="rgb(255,255,255)" fill-opacity="1.0" stroke="rgb(0,0,0)" stroke-width="2"  />
			<g>
				<title>DegT_DnrJ_EryC1 (PF01041)
"DegT/DnrJ/EryC1/StrS aminotransferase family"</title>
				<polygon class="PF01041" points="490,28 510,28 522,40 510,52 490,52" stroke-linejoin="round" width="36" height="24" fill="rgb(59,139,191)" stroke="rgb(47,111,152)" stroke-width="1" opacity="0.75" />
			</g>
		</g>
		<g>
			<title>strT
StrT</title>
			<polygon class="strT
StrT" points="539,25 541,25 541,10 571,40 541,70 541,55 539,55" fill="rgb(255,255,255)" fill-opacity="1.0" stroke="rgb(0,0,0)" stroke-width="2"  />
			<g>
				<title>Aldo_ket_red (PF00248)
"Aldo/keto reductase family"</title>
				<polygon class="PF00248" points="541,28 554,28 566,40 554,52 541,52" stroke-linejoin="round" width="29" height="24" fill="rgb(225,205,58)" stroke="rgb(180,164,46)" stroke-width="1" opacity="0.75" />
			</g>
		</g>
		<g>
			<title>strR
StrR</title>
			<polygon class="strR
StrR" points="620,25 608,25 608,10 578,40 608,70 608,55 620,55" fill="rgb(255,255,255)" fill-opacity="1.0" stroke="rgb(0,0,0)" stroke-width="2"  />
			<g>
				<title>ParBc (PF02195)
"ParB/Sulfiredoxin domain"</title>
				<rect class="PF02195" x="608" y="28" stroke-linejoin="round" width="8" height="24" fill="rgb(55,214,209)" stroke="rgb(44,171,167)" stroke-width="1" opacity="0.75" />
			</g>
		</g>
		<g>
			<title>strD
StrD</title>
			<polygon class="strD
StrD" points="636,25 641,25 641,10 671,40 641,70 641,55 636,55" fill="rgb(255,255,255)" fill-opacity="1.0" stroke="rgb(0,0,0)" stroke-width="2"  />
			<g>
				<title>NTP_transferase (PF00483)
"Nucleotidyl transferase"</title>
				<polygon class="PF00483" points="636,28 655,28 659,32 659,48 655,52 636,52" stroke-linejoin="round" width="23" height="24" fill="rgb(198,101,87)" stroke="rgb(158,80,69)" stroke-width="1" opacity="0.75" />
			</g>
		</g>
		<g>
			<title>strE
StrE</title>
			<polygon class="strE
StrE" points="673,25 676,25 676,10 706,40 676,70 676,55 673,55" fill="rgb(255,255,255)" fill-opacity="1.0" stroke="rgb(0,0,0)" stroke-width="2"  />
			<g>
				<title>GDP_Man_Dehyd (PF16363)
"GDP-mannose 4,6 dehydratase"</title>
				<polygon class="PF16363" points="673,28 689,28 701,40 689,52 673,52" stroke-linejoin="round" width="30" height="24" fill="rgb(162,221,65)" stroke="rgb(129,176,51)" stroke-width="1" opacity="0.75" />
			</g>
		</g>
		<g>
			<title>strL
StrL</title>
			<polygon class="strL
StrL" points="711,25 711,25 711,10 741,40 711,70 711,55 711,55" fill="rgb(255,255,255)" fill-opacity="1.0" stroke="rgb(0,0,0)" stroke-width="2"  />
			<g>
				<title>RmlD_sub_bind (PF04321)
"RmlD substrate binding domain"</title>
				<polygon class="PF04321" points="711,28 725,28 737,40 725,52 711,52" stroke-linejoin="round" width="28" height="24" fill="rgb(196,203,60)" stroke="rgb(156,162,47)" stroke-width="1" opacity="0.75" />
			</g>
		</g>
		<g>
			<title>strM
StrM</title>
			<polygon class="strM
StrM" points="741,40 761,10 761,70" fill="rgb(255,255,255)" fill-opacity="1.0" stroke="rgb(0,0,0)" stroke-width="2"  />
			<g>
				<title>dTDP_sugar_isom (PF00908)
"dTDP-4-dehydrorhamnose 3,5-epimerase"</title>
				<polygon class="PF00908" points="745,40 753,28 760,28 760,52 753,52" stroke-linejoin="round" width="17" height="24" fill="rgb(184,89,121)" stroke="rgb(147,71,96)" stroke-width="1" opacity="0.75" />
			</g>
		</g>
		<g>
			<title>strB2
StrB2</title>
			<polygon class="strB2
StrB2" points="795,25 793,25 793,10 763,40 793,70 793,55 795,55" fill="rgb(255,255,255)" fill-opacity="1.0" stroke="rgb(0,0,0)" stroke-width="2"  />
		</g>
		<g>
			<title>strN
StrN</title>
			<polygon class="strN
StrN" points="828,25 827,25 827,10 797,40 827,70 827,55 828,55" fill="rgb(255,255,255)" fill-opacity="1.0" stroke="rgb(0,0,0)" stroke-width="2"  />
			<g>
				<title>APH (PF01636)
"Phosphotransferase enzyme family"</title>
				<polygon class="PF01636" points="801,40 813,28 822,28 822,52 813,52" stroke-linejoin="round" width="25" height="24" fill="rgb(106,220,228)" stroke="rgb(84,176,182)" stroke-width="1" opacity="0.75" />
			</g>
		</g>
		<g>
			<title>strO
StrO</title>
			<polygon class="strO
StrO" points="831,10 856,40 831,70" fill="rgb(255,255,255)" fill-opacity="1.0" stroke="rgb(0,0,0)" stroke-width="2"  />
			<g>
				<title>Inositol_P (PF00459)
"Inositol monophosphatase family"</title>
				<polygon class="PF00459" points="831,28 842,28 852,40 842,52 831,52" stroke-linejoin="round" width="24" height="24" fill="rgb(67,210,137)" stroke="rgb(53,168,109)" stroke-width="1" opacity="0.75" />
			</g>
		</g>
	</g>
</svg>
