<svg version="1.1" baseProfile="full" xmlns="http://www.w3.org/2000/svg" width="650.8666666666667" height="80">
	<g>
		<line x1="10" y1="40.0" x2="640.8666666666667" y2="40.0" style="stroke:rgb(70,70,70); stroke-width:3 "/>
		<g>
			<title> (ASPACDRAFT_119783)
hypothetical protein</title>
			<polygon class=" (ASPACDRAFT_119783)
hypothetical protein" points="17,10 46,40 17,70" fill="rgb(255,255,255)" fill-opacity="1.0" stroke="rgb(0,0,0)" stroke-width="2"  />
			<g>
				<title>PhyH (PF05721)
"Phytanoyl-CoA dioxygenase (PhyH)"</title>
				<polygon class="PF05721" points="19,28 30,28 39,37 39,43 30,52 19,52" stroke-linejoin="round" width="20" height="24" fill="rgb(72,132,214)" stroke="rgb(57,105,171)" stroke-width="1" opacity="0.75" />
			</g>
		</g>
		<g>
			<title> (ASPACDRAFT_29371)
hypothetical protein</title>
			<polygon class=" (ASPACDRAFT_29371)
hypothetical protein" points="75,25 152,25 152,10 182,40 152,70 152,55 75,55" fill="rgb(255,255,255)" fill-opacity="1.0" stroke="rgb(0,0,0)" stroke-width="2"  />
			<g>
				<title>AMP-binding (PF00501)
"AMP-binding enzyme"</title>
				<rect class="PF00501" x="77" y="28" stroke-linejoin="round" width="39" height="24" fill="rgb(60,217,223)" stroke="rgb(48,173,178)" stroke-width="1" opacity="0.75" />
			</g>
			<g>
				<title>PP-binding (PF00550)
"Phosphopantetheine attachment site"</title>
				<rect class="PF00550" x="131" y="28" stroke-linejoin="round" width="6" height="24" fill="rgb(103,191,88)" stroke="rgb(82,152,70)" stroke-width="1" opacity="0.75" />
			</g>
		</g>
		<g>
			<title> (ASPACDRAFT_60731)
hypothetical protein</title>
			<polygon class=" (ASPACDRAFT_60731)
hypothetical protein" points="269,25 249,25 249,10 219,40 249,70 249,55 269,55" fill="rgb(255,255,255)" fill-opacity="1.0" stroke="rgb(0,0,0)" stroke-width="2"  />
			<g>
				<title>Terpene_syn_C_2 (PF19086)
"Terpene synthase family 2, C-terminal metal binding"</title>
				<polygon class="PF19086" points="231,32 235,28 250,28 250,52 235,52 231,48" stroke-linejoin="round" width="19" height="24" fill="rgb(55,207,154)" stroke="rgb(43,165,123)" stroke-width="1" opacity="0.75" />
			</g>
		</g>
		<g>
			<title> (ASPACDRAFT_60732)
hypothetical protein</title>
			<polygon class=" (ASPACDRAFT_60732)
hypothetical protein" points="292,25 313,25 313,10 343,40 313,70 313,55 292,55" fill="rgb(255,255,255)" fill-opacity="1.0" stroke="rgb(0,0,0)" stroke-width="2"  />
			<g>
				<title>p450 (PF00067)
"Cytochrome P450"</title>
				<polygon class="PF00067" points="295,28 327,28 339,40 339,40 327,52 295,52" stroke-linejoin="round" width="44" height="24" fill="rgb(85,216,107)" stroke="rgb(68,172,85)" stroke-width="1" opacity="0.75" />
			</g>
		</g>
		<g>
			<title> (ASPACDRAFT_78840)
hypothetical protein</title>
			<polygon class=" (ASPACDRAFT_78840)
hypothetical protein" points="372,25 376,25 376,10 406,40 376,70 376,55 372,55" fill="rgb(255,255,255)" fill-opacity="1.0" stroke="rgb(0,0,0)" stroke-width="2"  />
			<g>
				<title>Abhydrolase_6 (PF12697)
"Alpha/beta hydrolase family"</title>
				<polygon class="PF12697" points="375,28 390,28 401,39 401,41 390,52 375,52" stroke-linejoin="round" width="26" height="24" fill="rgb(113,71,219)" stroke="rgb(90,56,175)" stroke-width="1" opacity="0.75" />
			</g>
		</g>
		<g>
			<title> (ASPACDRAFT_78841)
hypothetical protein</title>
			<polygon class=" (ASPACDRAFT_78841)
hypothetical protein" points="489,25 453,25 453,10 423,40 453,70 453,55 489,55" fill="rgb(255,255,255)" fill-opacity="1.0" stroke="rgb(0,0,0)" stroke-width="2"  />
			<g>
				<title>p450 (PF00067)
"Cytochrome P450"</title>
				<rect class="PF00067" x="440" y="28" stroke-linejoin="round" width="45" height="24" fill="rgb(85,216,107)" stroke="rgb(68,172,85)" stroke-width="1" opacity="0.75" />
			</g>
		</g>
		<g>
			<title> (ASPACDRAFT_119792)
hypothetical protein</title>
			<polygon class=" (ASPACDRAFT_119792)
hypothetical protein" points="510,25 538,25 538,10 568,40 538,70 538,55 510,55" fill="rgb(255,255,255)" fill-opacity="1.0" stroke="rgb(0,0,0)" stroke-width="2"  />
			<g>
				<title>p450 (PF00067)
"Cytochrome P450"</title>
				<polygon class="PF00067" points="517,28 552,28 562,38 562,42 552,52 517,52" stroke-linejoin="round" width="45" height="24" fill="rgb(85,216,107)" stroke="rgb(68,172,85)" stroke-width="1" opacity="0.75" />
			</g>
		</g>
		<g>
			<title> (ASPACDRAFT_43554)
hypothetical protein</title>
			<polygon class=" (ASPACDRAFT_43554)
hypothetical protein" points="640,25 610,25 610,10 580,40 610,70 610,55 640,55" fill="rgb(255,255,255)" fill-opacity="1.0" stroke="rgb(0,0,0)" stroke-width="2"  />
			<g>
				<title>Abhydrolase_1 (PF00561)
"alpha/beta hydrolase fold"</title>
				<rect class="PF00561" x="618" y="28" stroke-linejoin="round" width="15" height="24" fill="rgb(86,180,151)" stroke="rgb(68,144,120)" stroke-width="1" opacity="0.75" />
			</g>
		</g>
	</g>
</svg>
