<svg version="1.1" baseProfile="full" xmlns="http://www.w3.org/2000/svg" width="1328.3" height="80">
	<g>
		<line x1="10" y1="40.0" x2="1318.3" y2="40.0" style="stroke:rgb(70,70,70); stroke-width:3 "/>
		<g>
			<title> (JHY03_06920)
adenosylmethionine--8-amino-7-oxononanoate transaminase</title>
			<polygon class=" (JHY03_06920)
adenosylmethionine--8-amino-7-oxononanoate transaminase" points="10,25 25,25 25,10 55,40 25,70 25,55 10,55" fill="rgb(255,255,255)" fill-opacity="1.0" stroke="rgb(0,0,0)" stroke-width="2"  />
			<g>
				<title>Aminotran_3 (PF00202)
"Aminotransferase class-III"</title>
				<polygon class="PF00202" points="13,28 38,28 50,40 38,52 13,52" stroke-linejoin="round" width="40" height="24" fill="rgb(49,163,189)" stroke="rgb(39,130,151)" stroke-width="1" opacity="0.75" />
			</g>
		</g>
		<g>
			<title> (JHY03_06930)
ATP-dependent dethiobiotin synthetase BioD</title>
			<polygon class=" (JHY03_06930)
ATP-dependent dethiobiotin synthetase BioD" points="55,10 78,40 55,70" fill="rgb(255,255,255)" fill-opacity="1.0" stroke="rgb(0,0,0)" stroke-width="2"  />
			<g>
				<title>AAA_26 (PF13500)
"AAA domain"</title>
				<polygon class="PF13500" points="55,28 65,28 74,40 65,52 55,52" stroke-linejoin="round" width="20" height="24" fill="rgb(93,118,228)" stroke="rgb(74,94,182)" stroke-width="1" opacity="0.75" />
			</g>
		</g>
		<g>
			<title> (JHY03_06940)
class I SAM-dependent methyltransferase</title>
			<polygon class=" (JHY03_06940)
class I SAM-dependent methyltransferase" points="81,10 103,40 81,70" fill="rgb(255,255,255)" fill-opacity="1.0" stroke="rgb(0,0,0)" stroke-width="2"  />
			<g>
				<title>Methyltransf_11 (PF08241)
"Methyltransferase domain"</title>
				<polygon class="PF08241" points="86,28 91,28 95,34 95,46 91,52 86,52" stroke-linejoin="round" width="9" height="24" fill="rgb(106,219,159)" stroke="rgb(84,175,127)" stroke-width="1" opacity="0.75" />
			</g>
		</g>
		<g>
			<title> (JHY03_06950)
hypothetical protein</title>
			<polygon class=" (JHY03_06950)
hypothetical protein" points="105,40 117,10 117,70" fill="rgb(255,255,255)" fill-opacity="1.0" stroke="rgb(0,0,0)" stroke-width="2"  />
		</g>
		<g>
			<title> (JHY03_06960)
toxin-antitoxin system HicB family antitoxin</title>
			<polygon class=" (JHY03_06960)
toxin-antitoxin system HicB family antitoxin" points="117,40 124,10 124,70" fill="rgb(255,255,255)" fill-opacity="1.0" stroke="rgb(0,0,0)" stroke-width="2"  />
		</g>
		<g>
			<title> (JHY03_06970)
GNAT family N-acetyltransferase</title>
			<polygon class=" (JHY03_06970)
GNAT family N-acetyltransferase" points="128,10 142,40 128,70" fill="rgb(255,255,255)" fill-opacity="1.0" stroke="rgb(0,0,0)" stroke-width="2"  />
			<g>
				<title>Acetyltransf_1 (PF00583)
"Acetyltransferase (GNAT) family"</title>
				<polygon class="PF00583" points="129,28 133,28 138,40 133,52 129,52" stroke-linejoin="round" width="11" height="24" fill="rgb(121,183,50)" stroke="rgb(96,146,39)" stroke-width="1" opacity="0.75" />
			</g>
		</g>
		<g>
			<title> (JHY03_06980)
HlyC/CorC family transporter</title>
			<polygon class=" (JHY03_06980)
HlyC/CorC family transporter" points="148,25 162,25 162,10 192,40 162,70 162,55 148,55" fill="rgb(255,255,255)" fill-opacity="1.0" stroke="rgb(0,0,0)" stroke-width="2"  />
			<g>
				<title>CNNM (PF01595)
"Cyclin M transmembrane N-terminal domain"</title>
				<rect class="PF01595" x="148" y="28" stroke-linejoin="round" width="19" height="24" fill="rgb(76,67,187)" stroke="rgb(60,53,149)" stroke-width="1" opacity="0.75" />
			</g>
			<g>
				<title>CBS (PF00571)
"CBS domain"</title>
				<polygon class="PF00571" points="176,28 176,28 181,33 181,47 176,52 176,52" stroke-linejoin="round" width="5" height="24" fill="rgb(220,56,105)" stroke="rgb(176,44,84)" stroke-width="1" opacity="0.75" />
			</g>
			<g>
				<title>CorC_HlyC (PF03471)
"Transporter associated domain"</title>
				<polygon class="PF03471" points="183,35 188,40 183,45" stroke-linejoin="round" width="7" height="24" fill="rgb(60,114,228)" stroke="rgb(47,91,182)" stroke-width="1" opacity="0.75" />
			</g>
		</g>
		<g>
			<title> (JHY03_06990)
HlyC/CorC family transporter</title>
			<polygon class=" (JHY03_06990)
HlyC/CorC family transporter" points="193,25 197,25 197,10 227,40 197,70 197,55 193,55" fill="rgb(255,255,255)" fill-opacity="1.0" stroke="rgb(0,0,0)" stroke-width="2"  />
			<g>
				<title>CNNM (PF01595)
"Cyclin M transmembrane N-terminal domain"</title>
				<polygon class="PF01595" points="193,28 210,28 212,30 212,50 210,52 193,52" stroke-linejoin="round" width="19" height="24" fill="rgb(76,67,187)" stroke="rgb(60,53,149)" stroke-width="1" opacity="0.75" />
			</g>
			<g>
				<title>CBS (PF00571)
"CBS domain"</title>
				<polygon class="PF00571" points="214,32 219,37 219,43 214,48" stroke-linejoin="round" width="5" height="24" fill="rgb(220,56,105)" stroke="rgb(176,44,84)" stroke-width="1" opacity="0.75" />
			</g>
			<g>
				<title>CBS (PF00571)
"CBS domain"</title>
				<polygon class="PF00571" points="221,39 222,40 221,41" stroke-linejoin="round" width="5" height="24" fill="rgb(220,56,105)" stroke="rgb(176,44,84)" stroke-width="1" opacity="0.75" />
			</g>
		</g>
		<g>
			<title> (JHY03_07000)
SGNH/GDSL hydrolase family protein</title>
			<polygon class=" (JHY03_07000)
SGNH/GDSL hydrolase family protein" points="229,25 229,25 229,10 259,40 229,70 229,55 229,55" fill="rgb(255,255,255)" fill-opacity="1.0" stroke="rgb(0,0,0)" stroke-width="2"  />
			<g>
				<title>Lipase_GDSL_2 (PF13472)
"GDSL-like Lipase/Acylhydrolase family"</title>
				<polygon class="PF13472" points="230,28 242,28 247,33 247,47 242,52 230,52" stroke-linejoin="round" width="17" height="24" fill="rgb(116,68,184)" stroke="rgb(92,54,147)" stroke-width="1" opacity="0.75" />
			</g>
		</g>
		<g>
			<title>rfbB (JHY03_07010)
dTDP-glucose 4,6-dehydratase</title>
			<polygon class="rfbB (JHY03_07010)
dTDP-glucose 4,6-dehydratase" points="294,25 291,25 291,10 261,40 291,70 291,55 294,55" fill="rgb(255,255,255)" fill-opacity="1.0" stroke="rgb(0,0,0)" stroke-width="2"  />
			<g>
				<title>GDP_Man_Dehyd (PF16363)
"GDP-mannose 4,6 dehydratase"</title>
				<polygon class="PF16363" points="265,40 277,28 292,28 292,52 277,52" stroke-linejoin="round" width="30" height="24" fill="rgb(162,221,65)" stroke="rgb(129,176,51)" stroke-width="1" opacity="0.75" />
			</g>
		</g>
		<g>
			<title> (JHY03_07020)
transcriptional regulator</title>
			<polygon class=" (JHY03_07020)
transcriptional regulator" points="296,40 323,10 323,70" fill="rgb(255,255,255)" fill-opacity="1.0" stroke="rgb(0,0,0)" stroke-width="2"  />
			<g>
				<title>BTAD (PF03704)
"Bacterial transcriptional activator domain"</title>
				<polygon class="PF03704" points="300,40 311,28 312,28 312,52 311,52" stroke-linejoin="round" width="14" height="24" fill="rgb(217,89,196)" stroke="rgb(173,71,156)" stroke-width="1" opacity="0.75" />
			</g>
			<g>
				<title>Trans_reg_C (PF00486)
"Transcriptional regulatory protein, C terminal"</title>
				<rect class="PF00486" x="314" y="28" stroke-linejoin="round" width="8" height="24" fill="rgb(204,153,57)" stroke="rgb(163,122,45)" stroke-width="1" opacity="0.75" />
			</g>
		</g>
		<g>
			<title> (JHY03_07030)
DegT/DnrJ/EryC1/StrS family aminotransferase</title>
			<polygon class=" (JHY03_07030)
DegT/DnrJ/EryC1/StrS family aminotransferase" points="364,25 355,25 355,10 325,40 355,70 355,55 364,55" fill="rgb(255,255,255)" fill-opacity="1.0" stroke="rgb(0,0,0)" stroke-width="2"  />
			<g>
				<title>DegT_DnrJ_EryC1 (PF01041)
"DegT/DnrJ/EryC1/StrS aminotransferase family"</title>
				<polygon class="PF01041" points="329,40 341,28 361,28 361,52 341,52" stroke-linejoin="round" width="36" height="24" fill="rgb(59,139,191)" stroke="rgb(47,111,152)" stroke-width="1" opacity="0.75" />
			</g>
		</g>
		<g>
			<title> (JHY03_07040)
SDR family NAD(P)-dependent oxidoreductase</title>
			<polygon class=" (JHY03_07040)
SDR family NAD(P)-dependent oxidoreductase" points="372,10 398,40 372,70" fill="rgb(255,255,255)" fill-opacity="1.0" stroke="rgb(0,0,0)" stroke-width="2"  />
			<g>
				<title>adh_short (PF00106)
"short chain dehydrogenase"</title>
				<polygon class="PF00106" points="372,28 384,28 391,37 391,43 384,52 372,52" stroke-linejoin="round" width="19" height="24" fill="rgb(182,219,73)" stroke="rgb(145,175,58)" stroke-width="1" opacity="0.75" />
			</g>
		</g>
		<g>
			<title> (JHY03_07050)
actinorhodin polyketide synthase bifunctional cyclase/dehydratase</title>
			<polygon class=" (JHY03_07050)
actinorhodin polyketide synthase bifunctional cyclase/dehydratase" points="400,25 401,25 401,10 431,40 401,70 401,55 400,55" fill="rgb(255,255,255)" fill-opacity="1.0" stroke="rgb(0,0,0)" stroke-width="2"  />
			<g>
				<title>Polyketide_cyc2 (PF10604)
"Polyketide cyclase / dehydrase and lipid transport"</title>
				<rect class="PF10604" x="400" y="28" stroke-linejoin="round" width="14" height="24" fill="rgb(105,204,74)" stroke="rgb(84,163,59)" stroke-width="1" opacity="0.75" />
			</g>
			<g>
				<title>Polyketide_cyc2 (PF10604)
"Polyketide cyclase / dehydrase and lipid transport"</title>
				<polygon class="PF10604" points="415,28 415,28 427,40 415,52 415,52" stroke-linejoin="round" width="15" height="24" fill="rgb(105,204,74)" stroke="rgb(84,163,59)" stroke-width="1" opacity="0.75" />
			</g>
		</g>
		<g>
			<title> (JHY03_07060)
short chain dehydrogenase</title>
			<polygon class=" (JHY03_07060)
short chain dehydrogenase" points="432,10 460,40 432,70" fill="rgb(255,255,255)" fill-opacity="1.0" stroke="rgb(0,0,0)" stroke-width="2"  />
			<g>
				<title>adh_short (PF00106)
"short chain dehydrogenase"</title>
				<polygon class="PF00106" points="432,28 444,28 450,34 450,46 444,52 432,52" stroke-linejoin="round" width="18" height="24" fill="rgb(182,219,73)" stroke="rgb(145,175,58)" stroke-width="1" opacity="0.75" />
			</g>
		</g>
		<g>
			<title> (JHY03_07070)
acyltransferase</title>
			<polygon class=" (JHY03_07070)
acyltransferase" points="501,25 493,25 493,10 463,40 493,70 493,55 501,55" fill="rgb(255,255,255)" fill-opacity="1.0" stroke="rgb(0,0,0)" stroke-width="2"  />
			<g>
				<title>Acyl_transf_3 (PF01757)
"Acyltransferase family"</title>
				<polygon class="PF01757" points="467,40 479,28 499,28 499,52 479,52" stroke-linejoin="round" width="33" height="24" fill="rgb(50,152,200)" stroke="rgb(40,121,160)" stroke-width="1" opacity="0.75" />
			</g>
		</g>
		<g>
			<title>hcaB_1 (JHY03_07080)
3-phenylpropionate-dihydrodiol/cinnamic acid-dihydrodiol dehydrogenase</title>
			<polygon class="hcaB_1 (JHY03_07080)
3-phenylpropionate-dihydrodiol/cinnamic acid-dihydrodiol dehydrogenase" points="506,40 533,10 533,70" fill="rgb(255,255,255)" fill-opacity="1.0" stroke="rgb(0,0,0)" stroke-width="2"  />
			<g>
				<title>adh_short (PF00106)
"short chain dehydrogenase"</title>
				<polygon class="PF00106" points="512,38 521,28 532,28 532,52 521,52 512,42" stroke-linejoin="round" width="20" height="24" fill="rgb(182,219,73)" stroke="rgb(145,175,58)" stroke-width="1" opacity="0.75" />
			</g>
		</g>
		<g>
			<title> (JHY03_07090)
luciferase family protein</title>
			<polygon class=" (JHY03_07090)
luciferase family protein" points="573,25 568,25 568,10 538,40 568,70 568,55 573,55" fill="rgb(255,255,255)" fill-opacity="1.0" stroke="rgb(0,0,0)" stroke-width="2"  />
			<g>
				<title>Bac_luciferase (PF00296)
"Luciferase-like monooxygenase"</title>
				<polygon class="PF00296" points="542,40 554,28 572,28 572,52 554,52" stroke-linejoin="round" width="31" height="24" fill="rgb(180,112,78)" stroke="rgb(144,89,62)" stroke-width="1" opacity="0.75" />
			</g>
		</g>
		<g>
			<title> (JHY03_07100)
nuclear transport factor 2 family protein</title>
			<polygon class=" (JHY03_07100)
nuclear transport factor 2 family protein" points="573,40 588,10 588,70" fill="rgb(255,255,255)" fill-opacity="1.0" stroke="rgb(0,0,0)" stroke-width="2"  />
			<g>
				<title>SnoaL_4 (PF13577)
"SnoaL-like domain"</title>
				<polygon class="PF13577" points="576,40 582,28 585,28 585,52 582,52" stroke-linejoin="round" width="12" height="24" fill="rgb(68,223,209)" stroke="rgb(54,178,167)" stroke-width="1" opacity="0.75" />
			</g>
		</g>
		<g>
			<title> (JHY03_07110)
hydrolase</title>
			<polygon class=" (JHY03_07110)
hydrolase" points="629,25 621,25 621,10 591,40 621,70 621,55 629,55" fill="rgb(255,255,255)" fill-opacity="1.0" stroke="rgb(0,0,0)" stroke-width="2"  />
			<g>
				<title>Acyl-CoA_dh_2 (PF08028)
"Acyl-CoA dehydrogenase, C-terminal domain"</title>
				<polygon class="PF08028" points="595,40 605,30 605,50" stroke-linejoin="round" width="12" height="24" fill="rgb(106,185,56)" stroke="rgb(84,148,44)" stroke-width="1" opacity="0.75" />
			</g>
			<g>
				<title>Acyl-CoA_dh_N (PF02771)
"Acyl-CoA dehydrogenase, N-terminal domain"</title>
				<rect class="PF02771" x="618" y="28" stroke-linejoin="round" width="9" height="24" fill="rgb(105,135,218)" stroke="rgb(84,108,174)" stroke-width="1" opacity="0.75" />
			</g>
		</g>
		<g>
			<title> (JHY03_07120)
regulatory protein</title>
			<polygon class=" (JHY03_07120)
regulatory protein" points="641,40 667,10 667,70" fill="rgb(255,255,255)" fill-opacity="1.0" stroke="rgb(0,0,0)" stroke-width="2"  />
			<g>
				<title>BTAD (PF03704)
"Bacterial transcriptional activator domain"</title>
				<polygon class="PF03704" points="645,40 655,28 656,28 656,52 655,52" stroke-linejoin="round" width="14" height="24" fill="rgb(217,89,196)" stroke="rgb(173,71,156)" stroke-width="1" opacity="0.75" />
			</g>
			<g>
				<title>Trans_reg_C (PF00486)
"Transcriptional regulatory protein, C terminal"</title>
				<rect class="PF00486" x="657" y="28" stroke-linejoin="round" width="8" height="24" fill="rgb(204,153,57)" stroke="rgb(163,122,45)" stroke-width="1" opacity="0.75" />
			</g>
		</g>
		<g>
			<title> (JHY03_07130)
cyclase</title>
			<polygon class=" (JHY03_07130)
cyclase" points="689,25 689,25 689,10 719,40 689,70 689,55 689,55" fill="rgb(255,255,255)" fill-opacity="1.0" stroke="rgb(0,0,0)" stroke-width="2"  />
			<g>
				<title>Lactamase_B (PF00753)
"Metallo-beta-lactamase superfamily"</title>
				<polygon class="PF00753" points="691,28 703,28 709,34 709,46 703,52 691,52" stroke-linejoin="round" width="18" height="24" fill="rgb(206,198,96)" stroke="rgb(164,158,76)" stroke-width="1" opacity="0.75" />
			</g>
		</g>
		<g>
			<title>rfbH (JHY03_07140)
lipopolysaccharide biosynthesis protein RfbH</title>
			<polygon class="rfbH (JHY03_07140)
lipopolysaccharide biosynthesis protein RfbH" points="764,25 750,25 750,10 720,40 750,70 750,55 764,55" fill="rgb(255,255,255)" fill-opacity="1.0" stroke="rgb(0,0,0)" stroke-width="2"  />
			<g>
				<title>DegT_DnrJ_EryC1 (PF01041)
"DegT/DnrJ/EryC1/StrS aminotransferase family"</title>
				<polygon class="PF01041" points="724,40 736,28 758,28 758,52 736,52" stroke-linejoin="round" width="38" height="24" fill="rgb(59,139,191)" stroke="rgb(47,111,152)" stroke-width="1" opacity="0.75" />
			</g>
		</g>
		<g>
			<title> (JHY03_07150)
Gfo/Idh/MocA family oxidoreductase</title>
			<polygon class=" (JHY03_07150)
Gfo/Idh/MocA family oxidoreductase" points="799,25 794,25 794,10 764,40 794,70 794,55 799,55" fill="rgb(255,255,255)" fill-opacity="1.0" stroke="rgb(0,0,0)" stroke-width="2"  />
			<g>
				<title>GFO_IDH_MocA (PF01408)
"Oxidoreductase family, NAD-binding Rossmann fold"</title>
				<rect class="PF01408" x="787" y="28" stroke-linejoin="round" width="11" height="24" fill="rgb(76,117,190)" stroke="rgb(60,93,152)" stroke-width="1" opacity="0.75" />
			</g>
		</g>
		<g>
			<title> (JHY03_07160)
NDP-hexose 2,3-dehydratase</title>
			<polygon class=" (JHY03_07160)
NDP-hexose 2,3-dehydratase" points="844,25 829,25 829,10 799,40 829,70 829,55 844,55" fill="rgb(255,255,255)" fill-opacity="1.0" stroke="rgb(0,0,0)" stroke-width="2"  />
			<g>
				<title>Hexose_dehydrat (PF03559)
"NDP-hexose 2,3-dehydratase"</title>
				<polygon class="PF03559" points="803,40 815,28 819,28 819,52 815,52" stroke-linejoin="round" width="20" height="24" fill="rgb(74,201,66)" stroke="rgb(59,160,52)" stroke-width="1" opacity="0.75" />
			</g>
			<g>
				<title>Hexose_dehydrat (PF03559)
"NDP-hexose 2,3-dehydratase"</title>
				<rect class="PF03559" x="823" y="28" stroke-linejoin="round" width="20" height="24" fill="rgb(74,201,66)" stroke="rgb(59,160,52)" stroke-width="1" opacity="0.75" />
			</g>
		</g>
		<g>
			<title> (JHY03_07170)
hypothetical protein</title>
			<polygon class=" (JHY03_07170)
hypothetical protein" points="850,40 872,10 872,70" fill="rgb(255,255,255)" fill-opacity="1.0" stroke="rgb(0,0,0)" stroke-width="2"  />
			<g>
				<title>ACPS (PF01648)
"4'-phosphopantetheinyl transferase superfamily"</title>
				<polygon class="PF01648" points="854,40 861,31 861,49" stroke-linejoin="round" width="11" height="24" fill="rgb(85,184,135)" stroke="rgb(68,147,108)" stroke-width="1" opacity="0.75" />
			</g>
			<g>
				<title>4PPT_N (PF17837)
"4'-phosphopantetheinyl transferase N-terminal domain"</title>
				<polygon class="PF17837" points="862,29 863,28 868,28 868,52 863,52 862,51" stroke-linejoin="round" width="6" height="24" fill="rgb(198,68,92)" stroke="rgb(158,54,73)" stroke-width="1" opacity="0.75" />
			</g>
		</g>
		<g>
			<title> (JHY03_07180)
NADPH-dependent oxidoreductase</title>
			<polygon class=" (JHY03_07180)
NADPH-dependent oxidoreductase" points="873,40 892,10 892,70" fill="rgb(255,255,255)" fill-opacity="1.0" stroke="rgb(0,0,0)" stroke-width="2"  />
			<g>
				<title>FMN_red (PF03358)
"NADPH-dependent FMN reductase"</title>
				<polygon class="PF03358" points="877,40 885,28 891,28 891,52 885,52 877,40" stroke-linejoin="round" width="14" height="24" fill="rgb(90,228,61)" stroke="rgb(72,182,48)" stroke-width="1" opacity="0.75" />
			</g>
		</g>
		<g>
			<title> (JHY03_07190)
thioesterase</title>
			<polygon class=" (JHY03_07190)
thioesterase" points="901,10 927,40 901,70" fill="rgb(255,255,255)" fill-opacity="1.0" stroke="rgb(0,0,0)" stroke-width="2"  />
			<g>
				<title>Thioesterase (PF00975)
"Thioesterase domain"</title>
				<polygon class="PF00975" points="901,28 913,28 923,40 913,52 901,52" stroke-linejoin="round" width="24" height="24" fill="rgb(207,80,138)" stroke="rgb(165,63,110)" stroke-width="1" opacity="0.75" />
			</g>
		</g>
		<g>
			<title> (JHY03_07200)
beta-ketoacyl-[acyl-carrier-protein] synthase family protein</title>
			<polygon class=" (JHY03_07200)
beta-ketoacyl-[acyl-carrier-protein] synthase family protein" points="927,25 939,25 939,10 969,40 939,70 939,55 927,55" fill="rgb(255,255,255)" fill-opacity="1.0" stroke="rgb(0,0,0)" stroke-width="2"  />
			<g>
				<title>ketoacyl-synt (PF00109)
"Beta-ketoacyl synthase, N-terminal domain"</title>
				<rect class="PF00109" x="927" y="28" stroke-linejoin="round" width="24" height="24" fill="rgb(112,116,228)" stroke="rgb(89,92,182)" stroke-width="1" opacity="0.75" />
			</g>
			<g>
				<title>Ketoacyl-synt_C (PF02801)
"Beta-ketoacyl synthase, C-terminal domain"</title>
				<polygon class="PF02801" points="952,28 952,28 963,39 963,41 952,52 952,52" stroke-linejoin="round" width="11" height="24" fill="rgb(215,78,102)" stroke="rgb(172,62,81)" stroke-width="1" opacity="0.75" />
			</g>
		</g>
		<g>
			<title> (JHY03_07210)
ketosynthase chain-length factor</title>
			<polygon class=" (JHY03_07210)
ketosynthase chain-length factor" points="969,25 980,25 980,10 1010,40 980,70 980,55 969,55" fill="rgb(255,255,255)" fill-opacity="1.0" stroke="rgb(0,0,0)" stroke-width="2"  />
			<g>
				<title>ketoacyl-synt (PF00109)
"Beta-ketoacyl synthase, N-terminal domain"</title>
				<rect class="PF00109" x="970" y="28" stroke-linejoin="round" width="24" height="24" fill="rgb(112,116,228)" stroke="rgb(89,92,182)" stroke-width="1" opacity="0.75" />
			</g>
			<g>
				<title>Ketoacyl-synt_C (PF02801)
"Beta-ketoacyl synthase, C-terminal domain"</title>
				<polygon class="PF02801" points="995,29 1005,39 1005,41 995,51" stroke-linejoin="round" width="10" height="24" fill="rgb(215,78,102)" stroke="rgb(172,62,81)" stroke-width="1" opacity="0.75" />
			</g>
		</g>
		<g>
			<title> (JHY03_07220)
acyl carrier protein</title>
			<polygon class=" (JHY03_07220)
acyl carrier protein" points="1012,10 1021,40 1012,70" fill="rgb(255,255,255)" fill-opacity="1.0" stroke="rgb(0,0,0)" stroke-width="2"  />
			<g>
				<title>PP-binding (PF00550)
"Phosphopantetheine attachment site"</title>
				<polygon class="PF00550" points="1012,28 1013,28 1017,40 1013,52 1012,52" stroke-linejoin="round" width="7" height="24" fill="rgb(103,191,88)" stroke="rgb(82,152,70)" stroke-width="1" opacity="0.75" />
			</g>
		</g>
		<g>
			<title> (JHY03_07230)
actinorhodin polyketide synthase bifunctional cyclase/dehydratase</title>
			<polygon class=" (JHY03_07230)
actinorhodin polyketide synthase bifunctional cyclase/dehydratase" points="1024,25 1026,25 1026,10 1056,40 1026,70 1026,55 1024,55" fill="rgb(255,255,255)" fill-opacity="1.0" stroke="rgb(0,0,0)" stroke-width="2"  />
			<g>
				<title>Polyketide_cyc2 (PF10604)
"Polyketide cyclase / dehydrase and lipid transport"</title>
				<rect class="PF10604" x="1025" y="28" stroke-linejoin="round" width="14" height="24" fill="rgb(105,204,74)" stroke="rgb(84,163,59)" stroke-width="1" opacity="0.75" />
			</g>
			<g>
				<title>Polyketide_cyc2 (PF10604)
"Polyketide cyclase / dehydrase and lipid transport"</title>
				<polygon class="PF10604" points="1041,29 1052,40 1041,51" stroke-linejoin="round" width="15" height="24" fill="rgb(105,204,74)" stroke="rgb(84,163,59)" stroke-width="1" opacity="0.75" />
			</g>
		</g>
		<g>
			<title>rfbA (JHY03_07240)
glucose-1-phosphate thymidylyltransferase</title>
			<polygon class="rfbA (JHY03_07240)
glucose-1-phosphate thymidylyltransferase" points="1092,25 1089,25 1089,10 1059,40 1089,70 1089,55 1092,55" fill="rgb(255,255,255)" fill-opacity="1.0" stroke="rgb(0,0,0)" stroke-width="2"  />
			<g>
				<title>NTP_transferase (PF00483)
"Nucleotidyl transferase"</title>
				<polygon class="PF00483" points="1066,37 1075,28 1089,28 1089,52 1075,52 1066,43" stroke-linejoin="round" width="23" height="24" fill="rgb(198,101,87)" stroke="rgb(158,80,69)" stroke-width="1" opacity="0.75" />
			</g>
		</g>
		<g>
			<title>desVI (JHY03_07250)
dTDP-3-amino-3,4, 6-trideoxy-alpha-D-glucopyranose</title>
			<polygon class="desVI (JHY03_07250)
dTDP-3-amino-3,4, 6-trideoxy-alpha-D-glucopyranose" points="1099,10 1122,40 1099,70" fill="rgb(255,255,255)" fill-opacity="1.0" stroke="rgb(0,0,0)" stroke-width="2"  />
			<g>
				<title>Methyltransf_25 (PF13649)
"Methyltransferase domain"</title>
				<polygon class="PF13649" points="1103,28 1109,28 1112,32 1112,48 1109,52 1103,52" stroke-linejoin="round" width="9" height="24" fill="rgb(227,135,74)" stroke="rgb(181,108,59)" stroke-width="1" opacity="0.75" />
			</g>
		</g>
		<g>
			<title> (JHY03_07260)
hypothetical protein</title>
			<polygon class=" (JHY03_07260)
hypothetical protein" points="1126,25 1131,25 1131,10 1161,40 1131,70 1131,55 1126,55" fill="rgb(255,255,255)" fill-opacity="1.0" stroke="rgb(0,0,0)" stroke-width="2"  />
		</g>
		<g>
			<title> (JHY03_07270)
glycosyl transferase family protein</title>
			<polygon class=" (JHY03_07270)
glycosyl transferase family protein" points="1167,25 1175,25 1175,10 1205,40 1175,70 1175,55 1167,55" fill="rgb(255,255,255)" fill-opacity="1.0" stroke="rgb(0,0,0)" stroke-width="2"  />
			<g>
				<title>DUF1205 (PF06722)
"Protein of unknown function (DUF1205)"</title>
				<polygon class="PF06722" points="1185,28 1189,28 1194,33 1194,47 1189,52 1185,52" stroke-linejoin="round" width="9" height="24" fill="rgb(200,129,88)" stroke="rgb(160,103,70)" stroke-width="1" opacity="0.75" />
			</g>
		</g>
		<g>
			<title> (JHY03_07280)
sorbitol utilization protein SOU2</title>
			<polygon class=" (JHY03_07280)
sorbitol utilization protein SOU2" points="1210,10 1234,40 1210,70" fill="rgb(255,255,255)" fill-opacity="1.0" stroke="rgb(0,0,0)" stroke-width="2"  />
			<g>
				<title>adh_short_C2 (PF13561)
"Enoyl-(Acyl carrier protein) reductase"</title>
				<polygon class="PF13561" points="1211,28 1221,28 1230,40 1221,52 1211,52" stroke-linejoin="round" width="23" height="24" fill="rgb(73,205,127)" stroke="rgb(58,164,101)" stroke-width="1" opacity="0.75" />
			</g>
		</g>
		<g>
			<title> (JHY03_07290)
export protein</title>
			<polygon class=" (JHY03_07290)
export protein" points="1285,25 1269,25 1269,10 1239,40 1269,70 1269,55 1285,55" fill="rgb(255,255,255)" fill-opacity="1.0" stroke="rgb(0,0,0)" stroke-width="2"  />
			<g>
				<title>MFS_1 (PF07690)
"Major Facilitator Superfamily"</title>
				<polygon class="PF07690" points="1243,40 1255,28 1282,28 1282,52 1255,52 1243,40" stroke-linejoin="round" width="39" height="24" fill="rgb(193,224,74)" stroke="rgb(154,179,59)" stroke-width="1" opacity="0.75" />
			</g>
		</g>
		<g>
			<title>qor (JHY03_07300)
NADPH:quinone reductase-dependent oxidoreductase</title>
			<polygon class="qor (JHY03_07300)
NADPH:quinone reductase-dependent oxidoreductase" points="1317,25 1315,25 1315,10 1285,40 1315,70 1315,55 1317,55" fill="rgb(255,255,255)" fill-opacity="1.0" stroke="rgb(0,0,0)" stroke-width="2"  />
			<g>
				<title>ADH_zinc_N_2 (PF13602)
"Zinc-binding dehydrogenase"</title>
				<polygon class="PF13602" points="1289,40 1297,32 1297,48" stroke-linejoin="round" width="12" height="24" fill="rgb(101,131,226)" stroke="rgb(80,104,180)" stroke-width="1" opacity="0.75" />
			</g>
		</g>
	</g>
</svg>
