<svg version="1.1" baseProfile="full" xmlns="http://www.w3.org/2000/svg" width="1520.2" height="80">
	<g>
		<line x1="10" y1="40.0" x2="1510.2" y2="40.0" style="stroke:rgb(70,70,70); stroke-width:3 "/>
		<g>
			<title>CYP-Arm1
CYP-Arm1</title>
			<polygon class="CYP-Arm1
CYP-Arm1" points="421,25 462,25 462,10 492,40 462,70 462,55 421,55" fill="rgb(255,255,255)" fill-opacity="1.0" stroke="rgb(0,0,0)" stroke-width="2"  />
			<g>
				<title>p450 (PF00067)
"Cytochrome P450"</title>
				<rect class="PF00067" x="424" y="28" stroke-linejoin="round" width="47" height="24" fill="rgb(85,216,107)" stroke="rgb(68,172,85)" stroke-width="1" opacity="0.75" />
			</g>
		</g>
		<g>
			<title>CYP-Arm2
CYP-Arm2</title>
			<polygon class="CYP-Arm2
CYP-Arm2" points="660,25 620,25 620,10 590,40 620,70 620,55 660,55" fill="rgb(255,255,255)" fill-opacity="1.0" stroke="rgb(0,0,0)" stroke-width="2"  />
			<g>
				<title>p450 (PF00067)
"Cytochrome P450"</title>
				<rect class="PF00067" x="611" y="28" stroke-linejoin="round" width="46" height="24" fill="rgb(85,216,107)" stroke="rgb(68,172,85)" stroke-width="1" opacity="0.75" />
			</g>
		</g>
		<g>
			<title>CYP-Arm3
CYP-Arm3</title>
			<polygon class="CYP-Arm3
CYP-Arm3" points="886,25 845,25 845,10 815,40 845,70 845,55 886,55" fill="rgb(255,255,255)" fill-opacity="1.0" stroke="rgb(0,0,0)" stroke-width="2"  />
			<g>
				<title>p450 (PF00067)
"Cytochrome P450"</title>
				<rect class="PF00067" x="836" y="28" stroke-linejoin="round" width="46" height="24" fill="rgb(85,216,107)" stroke="rgb(68,172,85)" stroke-width="1" opacity="0.75" />
			</g>
		</g>
		<g>
			<title>6-protoilludene_synthase
Pro1</title>
			<polygon class="6-protoilludene_synthase
Pro1" points="1025,25 1006,25 1006,10 976,40 1006,70 1006,55 1025,55" fill="rgb(255,255,255)" fill-opacity="1.0" stroke="rgb(0,0,0)" stroke-width="2"  />
			<g>
				<title>Terpene_syn_C_2 (PF19086)
"Terpene synthase family 2, C-terminal metal binding"</title>
				<rect class="PF19086" x="998" y="28" stroke-linejoin="round" width="19" height="24" fill="rgb(55,207,154)" stroke="rgb(43,165,123)" stroke-width="1" opacity="0.75" />
			</g>
		</g>
		<g>
			<title>CYP-Arm4
CYP-Arm4</title>
			<polygon class="CYP-Arm4
CYP-Arm4" points="1086,25 1131,25 1131,10 1161,40 1131,70 1131,55 1086,55" fill="rgb(255,255,255)" fill-opacity="1.0" stroke="rgb(0,0,0)" stroke-width="2"  />
			<g>
				<title>p450 (PF00067)
"Cytochrome P450"</title>
				<rect class="PF00067" x="1089" y="28" stroke-linejoin="round" width="45" height="24" fill="rgb(85,216,107)" stroke="rgb(68,172,85)" stroke-width="1" opacity="0.75" />
			</g>
		</g>
	</g>
</svg>
