<svg version="1.1" baseProfile="full" xmlns="http://www.w3.org/2000/svg" width="217.26666666666668" height="80">
	<g>
		<line x1="10" y1="40.0" x2="207.26666666666668" y2="40.0" style="stroke:rgb(70,70,70); stroke-width:3 "/>
		<g>
			<title> (KSE_70630)
putative cytochrome P450</title>
			<polygon class=" (KSE_70630)
putative cytochrome P450" points="49,25 40,25 40,10 10,40 40,70 40,55 49,55" fill="rgb(255,255,255)" fill-opacity="1.0" stroke="rgb(0,0,0)" stroke-width="2"  />
			<g>
				<title>p450 (PF00067)
"Cytochrome P450"</title>
				<polygon class="PF00067" points="14,40 26,28 33,28 33,52 26,52" stroke-linejoin="round" width="23" height="24" fill="rgb(85,216,107)" stroke="rgb(68,172,85)" stroke-width="1" opacity="0.75" />
			</g>
		</g>
		<g>
			<title> (KSE_70640)
hypothetical protein</title>
			<polygon class=" (KSE_70640)
hypothetical protein" points="82,25 81,25 81,10 51,40 81,70 81,55 82,55" fill="rgb(255,255,255)" fill-opacity="1.0" stroke="rgb(0,0,0)" stroke-width="2"  />
			<g>
				<title>Cucumopine_C (PF18631)
"Cucumopine synthase C-terminal helical bundle domain"</title>
				<rect class="PF18631" x="69" y="28" stroke-linejoin="round" width="13" height="24" fill="rgb(66,72,227)" stroke="rgb(52,57,181)" stroke-width="1" opacity="0.75" />
			</g>
		</g>
		<g>
			<title> (KSE_70650)
putative oxidoreductase</title>
			<polygon class=" (KSE_70650)
putative oxidoreductase" points="122,25 115,25 115,10 85,40 115,70 115,55 122,55" fill="rgb(255,255,255)" fill-opacity="1.0" stroke="rgb(0,0,0)" stroke-width="2"  />
			<g>
				<title>DAO (PF01266)
"FAD dependent oxidoreductase"</title>
				<polygon class="PF01266" points="89,40 101,28 121,28 121,52 101,52" stroke-linejoin="round" width="34" height="24" fill="rgb(123,179,59)" stroke="rgb(98,143,47)" stroke-width="1" opacity="0.75" />
			</g>
		</g>
		<g>
			<title>pabB1 (KSE_70660)
putative p-aminobenzoate synthase</title>
			<polygon class="pabB1 (KSE_70660)
putative p-aminobenzoate synthase" points="140,25 157,25 157,10 187,40 157,70 157,55 140,55" fill="rgb(255,255,255)" fill-opacity="1.0" stroke="rgb(0,0,0)" stroke-width="2"  />
			<g>
				<title>Anth_synt_I_N (PF04715)
"Anthranilate synthase component I, N terminal region"</title>
				<rect class="PF04715" x="142" y="28" stroke-linejoin="round" width="13" height="24" fill="rgb(163,87,183)" stroke="rgb(130,69,146)" stroke-width="1" opacity="0.75" />
			</g>
			<g>
				<title>Chorismate_bind (PF00425)
"chorismate binding enzyme"</title>
				<polygon class="PF00425" points="160,28 171,28 183,40 171,52 160,52" stroke-linejoin="round" width="25" height="24" fill="rgb(188,116,88)" stroke="rgb(150,92,70)" stroke-width="1" opacity="0.75" />
			</g>
		</g>
		<g>
			<title>pabA (KSE_70670)
putative p-aminobenzoate synthase glutamine amidotransferase</title>
			<polygon class="pabA (KSE_70670)
putative p-aminobenzoate synthase glutamine amidotransferase" points="187,10 206,40 187,70" fill="rgb(255,255,255)" fill-opacity="1.0" stroke="rgb(0,0,0)" stroke-width="2"  />
			<g>
				<title>GATase (PF00117)
"Glutamine amidotransferase class-I"</title>
				<polygon class="PF00117" points="187,28 195,28 202,40 195,52 187,52" stroke-linejoin="round" width="18" height="24" fill="rgb(159,201,96)" stroke="rgb(127,160,76)" stroke-width="1" opacity="0.75" />
			</g>
		</g>
	</g>
</svg>
