<svg version="1.1" baseProfile="full" xmlns="http://www.w3.org/2000/svg" width="11284.833333333334" height="80">
	<g>
		<line x1="10" y1="40.0" x2="11274.833333333334" y2="40.0" style="stroke:rgb(70,70,70); stroke-width:3 "/>
		<g>
			<title>LOC102598519
auxin response factor 6-like isoform X1</title>
			<polygon class="LOC102598519
auxin response factor 6-like isoform X1" points="10,25 207,25 207,10 237,40 207,70 207,55 10,55" fill="rgb(255,255,255)" fill-opacity="1.0" stroke="rgb(0,0,0)" stroke-width="2"  />
			<g>
				<title>B3 (PF02362)
"B3 DNA binding domain"</title>
				<rect class="PF02362" x="22" y="28" stroke-linejoin="round" width="10" height="24" fill="rgb(79,200,178)" stroke="rgb(63,160,142)" stroke-width="1" opacity="0.75" />
			</g>
			<g>
				<title>Auxin_resp (PF06507)
"Auxin response factor"</title>
				<rect class="PF06507" x="35" y="28" stroke-linejoin="round" width="8" height="24" fill="rgb(179,91,211)" stroke="rgb(143,72,168)" stroke-width="1" opacity="0.75" />
			</g>
		</g>
		<g>
			<title>LOC102598519_rename1
auxin response factor 6-like isoform X2</title>
			<polygon class="LOC102598519_rename1
auxin response factor 6-like isoform X2" points="10,25 207,25 207,10 237,40 207,70 207,55 10,55" fill="rgb(255,255,255)" fill-opacity="1.0" stroke="rgb(0,0,0)" stroke-width="2"  />
		</g>
		<g>
			<title>LOC102594239
protein DETOXIFICATION 41</title>
			<polygon class="LOC102594239
protein DETOXIFICATION 41" points="289,25 387,25 387,10 417,40 387,70 387,55 289,55" fill="rgb(255,255,255)" fill-opacity="1.0" stroke="rgb(0,0,0)" stroke-width="2"  />
			<g>
				<title>MatE (PF01554)
"MatE"</title>
				<rect class="PF01554" x="294" y="28" stroke-linejoin="round" width="16" height="24" fill="rgb(187,69,173)" stroke="rgb(149,55,138)" stroke-width="1" opacity="0.75" />
			</g>
			<g>
				<title>MatE (PF01554)
"MatE"</title>
				<rect class="PF01554" x="316" y="28" stroke-linejoin="round" width="16" height="24" fill="rgb(187,69,173)" stroke="rgb(149,55,138)" stroke-width="1" opacity="0.75" />
			</g>
		</g>
		<g>
			<title>LOC102598184
probable polyamine oxidase 2</title>
			<polygon class="LOC102598184
probable polyamine oxidase 2" points="626,25 470,25 470,10 440,40 470,70 470,55 626,55" fill="rgb(255,255,255)" fill-opacity="1.0" stroke="rgb(0,0,0)" stroke-width="2"  />
			<g>
				<title>Amino_oxidase (PF01593)
"Flavin containing amine oxidoreductase"</title>
				<rect class="PF01593" x="580" y="28" stroke-linejoin="round" width="42" height="24" fill="rgb(184,74,52)" stroke="rgb(147,59,41)" stroke-width="1" opacity="0.75" />
			</g>
		</g>
		<g>
			<title>LOC102597873
1-aminocyclopropane-1-carboxylate oxidase homolog</title>
			<polygon class="LOC102597873
1-aminocyclopropane-1-carboxylate oxidase homolog" points="740,25 710,25 710,10 680,40 710,70 710,55 740,55" fill="rgb(255,255,255)" fill-opacity="1.0" stroke="rgb(0,0,0)" stroke-width="2"  />
			<g>
				<title>2OG-FeII_Oxy (PF03171)
"2OG-Fe(II) oxygenase superfamily"</title>
				<rect class="PF03171" x="709" y="28" stroke-linejoin="round" width="9" height="24" fill="rgb(184,68,180)" stroke="rgb(147,54,144)" stroke-width="1" opacity="0.75" />
			</g>
			<g>
				<title>DIOX_N (PF14226)
"non-haem dioxygenase in morphine synthesis N-terminal"</title>
				<rect class="PF14226" x="723" y="28" stroke-linejoin="round" width="11" height="24" fill="rgb(122,206,79)" stroke="rgb(97,164,63)" stroke-width="1" opacity="0.75" />
			</g>
		</g>
		<g>
			<title>LOC102594577
1-aminocyclopropane-1-carboxylate oxidase homolog</title>
			<polygon class="LOC102594577
1-aminocyclopropane-1-carboxylate oxidase homolog" points="1056,25 995,25 995,10 965,40 995,70 995,55 1056,55" fill="rgb(255,255,255)" fill-opacity="1.0" stroke="rgb(0,0,0)" stroke-width="2"  />
			<g>
				<title>2OG-FeII_Oxy (PF03171)
"2OG-Fe(II) oxygenase superfamily"</title>
				<rect class="PF03171" x="1025" y="28" stroke-linejoin="round" width="9" height="24" fill="rgb(184,68,180)" stroke="rgb(147,54,144)" stroke-width="1" opacity="0.75" />
			</g>
			<g>
				<title>DIOX_N (PF14226)
"non-haem dioxygenase in morphine synthesis N-terminal"</title>
				<rect class="PF14226" x="1038" y="28" stroke-linejoin="round" width="11" height="24" fill="rgb(122,206,79)" stroke="rgb(97,164,63)" stroke-width="1" opacity="0.75" />
			</g>
		</g>
		<g>
			<title>LOC102597559_rename1
UDP-arabinose 4-epimerase 1-like isoform X3</title>
			<polygon class="LOC102597559_rename1
UDP-arabinose 4-epimerase 1-like isoform X3" points="1351,25 1276,25 1276,10 1246,40 1276,70 1276,55 1351,55" fill="rgb(255,255,255)" fill-opacity="1.0" stroke="rgb(0,0,0)" stroke-width="2"  />
		</g>
		<g>
			<title>LOC102597559
probable UDP-arabinose 4-epimerase 2 isoform X2</title>
			<polygon class="LOC102597559
probable UDP-arabinose 4-epimerase 2 isoform X2" points="1420,25 1276,25 1276,10 1246,40 1276,70 1276,55 1420,55" fill="rgb(255,255,255)" fill-opacity="1.0" stroke="rgb(0,0,0)" stroke-width="2"  />
			<g>
				<title>GDP_Man_Dehyd (PF16363)
"GDP-mannose 4,6 dehydratase"</title>
				<rect class="PF16363" x="1381" y="28" stroke-linejoin="round" width="32" height="24" fill="rgb(162,221,65)" stroke="rgb(129,176,51)" stroke-width="1" opacity="0.75" />
			</g>
		</g>
		<g>
			<title>LOC102597559_rename2
serine/threonine-protein phosphatase 7 long form homolog isoform X1</title>
			<polygon class="LOC102597559_rename2
serine/threonine-protein phosphatase 7 long form homolog isoform X1" points="1488,25 1450,25 1450,10 1420,40 1450,70 1450,55 1488,55" fill="rgb(255,255,255)" fill-opacity="1.0" stroke="rgb(0,0,0)" stroke-width="2"  />
			<g>
				<title>PMD (PF10536)
"Plant mobile domain"</title>
				<rect class="PF10536" x="1444" y="28" stroke-linejoin="round" width="37" height="24" fill="rgb(204,92,123)" stroke="rgb(163,73,98)" stroke-width="1" opacity="0.75" />
			</g>
		</g>
		<g>
			<title>LOC102596910
protein PAT1 homolog 1</title>
			<polygon class="LOC102596910
protein PAT1 homolog 1" points="1801,25 1620,25 1620,10 1590,40 1620,70 1620,55 1801,55" fill="rgb(255,255,255)" fill-opacity="1.0" stroke="rgb(0,0,0)" stroke-width="2"  />
		</g>
		<g>
			<title>LOC102594899
UDP-glycosyltransferase 82A1</title>
			<polygon class="LOC102594899
UDP-glycosyltransferase 82A1" points="2051,25 1975,25 1975,10 1945,40 1975,70 1975,55 2051,55" fill="rgb(255,255,255)" fill-opacity="1.0" stroke="rgb(0,0,0)" stroke-width="2"  />
			<g>
				<title>UDPGT (PF00201)
"UDP-glucoronosyl and UDP-glucosyl transferase"</title>
				<rect class="PF00201" x="2008" y="28" stroke-linejoin="round" width="19" height="24" fill="rgb(225,150,107)" stroke="rgb(180,120,85)" stroke-width="1" opacity="0.75" />
			</g>
		</g>
		<g>
			<title>LOC102596570
uncharacterized protein LOC102596570</title>
			<polygon class="LOC102596570
uncharacterized protein LOC102596570" points="2320,10 2349,40 2320,70" fill="rgb(255,255,255)" fill-opacity="1.0" stroke="rgb(0,0,0)" stroke-width="2"  />
		</g>
		<g>
			<title>LOC102596238
gamma aminobutyrate transaminase 3, chloroplastic</title>
			<polygon class="LOC102596238
gamma aminobutyrate transaminase 3, chloroplastic" points="2527,25 2393,25 2393,10 2363,40 2393,70 2393,55 2527,55" fill="rgb(255,255,255)" fill-opacity="1.0" stroke="rgb(0,0,0)" stroke-width="2"  />
			<g>
				<title>Aminotran_3 (PF00202)
"Aminotransferase class-III"</title>
				<rect class="PF00202" x="2477" y="28" stroke-linejoin="round" width="42" height="24" fill="rgb(49,163,189)" stroke="rgb(39,130,151)" stroke-width="1" opacity="0.75" />
			</g>
		</g>
		<g>
			<title>LOC102595896
beta-amyrin 11-oxidase-like</title>
			<polygon class="LOC102595896
beta-amyrin 11-oxidase-like" points="3173,25 2958,25 2958,10 2928,40 2958,70 2958,55 3173,55" fill="rgb(255,255,255)" fill-opacity="1.0" stroke="rgb(0,0,0)" stroke-width="2"  />
			<g>
				<title>p450 (PF00067)
"Cytochrome P450"</title>
				<rect class="PF00067" x="3125" y="28" stroke-linejoin="round" width="43" height="24" fill="rgb(85,216,107)" stroke="rgb(68,172,85)" stroke-width="1" opacity="0.75" />
			</g>
		</g>
		<g>
			<title>LOC102595558
gamma aminobutyrate transaminase 2</title>
			<polygon class="LOC102595558
gamma aminobutyrate transaminase 2" points="5397,25 5699,25 5699,10 5729,40 5699,70 5699,55 5397,55" fill="rgb(255,255,255)" fill-opacity="1.0" stroke="rgb(0,0,0)" stroke-width="2"  />
			<g>
				<title>Aminotran_3 (PF00202)
"Aminotransferase class-III"</title>
				<rect class="PF00202" x="5398" y="28" stroke-linejoin="round" width="42" height="24" fill="rgb(49,163,189)" stroke="rgb(39,130,151)" stroke-width="1" opacity="0.75" />
			</g>
		</g>
		<g>
			<title>LOC102595233
nuclear pore complex protein NUP205</title>
			<polygon class="LOC102595233
nuclear pore complex protein NUP205" points="7310,25 6026,25 6026,10 5996,40 6026,70 6026,55 7310,55" fill="rgb(255,255,255)" fill-opacity="1.0" stroke="rgb(0,0,0)" stroke-width="2"  />
			<g>
				<title>Nup192 (PF11894)
"Nuclear pore complex scaffold, nucleoporins 186/192/205"</title>
				<rect class="PF11894" x="7148" y="28" stroke-linejoin="round" width="160" height="24" fill="rgb(117,195,63)" stroke="rgb(93,156,50)" stroke-width="1" opacity="0.75" />
			</g>
		</g>
		<g>
			<title>LOC102594898
beta-glucuronosyltransferase GlcAT14B-like</title>
			<polygon class="LOC102594898
beta-glucuronosyltransferase GlcAT14B-like" points="7515,25 7391,25 7391,10 7361,40 7391,70 7391,55 7515,55" fill="rgb(255,255,255)" fill-opacity="1.0" stroke="rgb(0,0,0)" stroke-width="2"  />
			<g>
				<title>Branch (PF02485)
"Core-2/I-Branching enzyme"</title>
				<rect class="PF02485" x="7482" y="28" stroke-linejoin="round" width="26" height="24" fill="rgb(141,183,61)" stroke="rgb(112,146,48)" stroke-width="1" opacity="0.75" />
			</g>
		</g>
		<g>
			<title>LOC102594576
probable sugar phosphate/phosphate translocator At4g32390</title>
			<polygon class="LOC102594576
probable sugar phosphate/phosphate translocator At4g32390" points="7758,25 7763,25 7763,10 7793,40 7763,70 7763,55 7758,55" fill="rgb(255,255,255)" fill-opacity="1.0" stroke="rgb(0,0,0)" stroke-width="2"  />
			<g>
				<title>TPT (PF03151)
"Triose-phosphate Transporter family"</title>
				<polygon class="PF03151" points="7759,28 7776,28 7788,40 7788,40 7776,52 7759,52" stroke-linejoin="round" width="29" height="24" fill="rgb(212,74,220)" stroke="rgb(169,59,176)" stroke-width="1" opacity="0.75" />
			</g>
		</g>
		<g>
			<title>LOC102594238
tyrosine decarboxylase 1-like</title>
			<polygon class="LOC102594238
tyrosine decarboxylase 1-like" points="9406,25 9432,25 9432,10 9462,40 9432,70 9432,55 9406,55" fill="rgb(255,255,255)" fill-opacity="1.0" stroke="rgb(0,0,0)" stroke-width="2"  />
			<g>
				<title>Pyridoxal_deC (PF00282)
"Pyridoxal-dependent decarboxylase conserved domain"</title>
				<polygon class="PF00282" points="9412,28 9446,28 9449,31 9449,49 9446,52 9412,52" stroke-linejoin="round" width="37" height="24" fill="rgb(100,218,166)" stroke="rgb(80,174,132)" stroke-width="1" opacity="0.75" />
			</g>
		</g>
		<g>
			<title>LOC107061455
uncharacterized protein LOC107061455</title>
			<polygon class="LOC107061455
uncharacterized protein LOC107061455" points="10134,10 10157,40 10134,70" fill="rgb(255,255,255)" fill-opacity="1.0" stroke="rgb(0,0,0)" stroke-width="2"  />
			<g>
				<title>Retrotran_gag_3 (PF14244)
"gag-polypeptide of LTR copia-type"</title>
				<rect class="PF14244" x="10136" y="28" stroke-linejoin="round" width="4" height="24" fill="rgb(59,96,219)" stroke="rgb(47,76,175)" stroke-width="1" opacity="0.75" />
			</g>
			<g>
				<title>Retrotrans_gag (PF03732)
"Retrotransposon gag protein"</title>
				<polygon class="PF03732" points="10142,28 10144,28 10153,40 10153,40 10144,52 10142,52" stroke-linejoin="round" width="11" height="24" fill="rgb(128,204,95)" stroke="rgb(102,163,76)" stroke-width="1" opacity="0.75" />
			</g>
		</g>
		<g>
			<title>LOC102595559
uncharacterized protein LOC102595559</title>
			<polygon class="LOC102595559
uncharacterized protein LOC102595559" points="10158,10 10187,40 10158,70" fill="rgb(255,255,255)" fill-opacity="1.0" stroke="rgb(0,0,0)" stroke-width="2"  />
		</g>
		<g>
			<title>LOC102593367
LOW QUALITY PROTEIN: beta-amyrin synthase-like</title>
			<polygon class="LOC102593367
LOW QUALITY PROTEIN: beta-amyrin synthase-like" points="11065,25 11244,25 11244,10 11274,40 11244,70 11244,55 11065,55" fill="rgb(255,255,255)" fill-opacity="1.0" stroke="rgb(0,0,0)" stroke-width="2"  />
			<g>
				<title>SQHop_cyclase_N (PF13249)
"Squalene-hopene cyclase N-terminal domain"</title>
				<rect class="PF13249" x="11074" y="28" stroke-linejoin="round" width="30" height="24" fill="rgb(88,190,89)" stroke="rgb(70,152,71)" stroke-width="1" opacity="0.75" />
			</g>
			<g>
				<title>SQHop_cyclase_C (PF13243)
"Squalene-hopene cyclase C-terminal domain"</title>
				<rect class="PF13243" x="11106" y="28" stroke-linejoin="round" width="28" height="24" fill="rgb(191,58,201)" stroke="rgb(152,46,160)" stroke-width="1" opacity="0.75" />
			</g>
		</g>
	</g>
</svg>
