<svg version="1.1" baseProfile="full" xmlns="http://www.w3.org/2000/svg" width="560.6666666666666" height="80">
	<g>
		<line x1="10" y1="40.0" x2="550.6666666666666" y2="40.0" style="stroke:rgb(70,70,70); stroke-width:3 "/>
		<g>
			<title>nsoF
NsoF</title>
			<polygon class="nsoF
NsoF" points="35,10 58,40 35,70" fill="rgb(255,255,255)" fill-opacity="1.0" stroke="rgb(0,0,0)" stroke-width="2"  />
			<g>
				<title>ABC_tran (PF00005)
"ABC transporter"</title>
				<polygon class="PF00005" points="37,28 45,28 50,35 50,45 45,52 37,52" stroke-linejoin="round" width="13" height="24" fill="rgb(129,201,63)" stroke="rgb(103,160,50)" stroke-width="1" opacity="0.75" />
			</g>
		</g>
		<g>
			<title>nsoE
NsoE</title>
			<polygon class="nsoE
NsoE" points="59,10 83,40 59,70" fill="rgb(255,255,255)" fill-opacity="1.0" stroke="rgb(0,0,0)" stroke-width="2"  />
		</g>
		<g>
			<title>nsoG
NsoG</title>
			<polygon class="nsoG
NsoG" points="83,10 108,40 83,70" fill="rgb(255,255,255)" fill-opacity="1.0" stroke="rgb(0,0,0)" stroke-width="2"  />
		</g>
		<g>
			<title>nsoI
NsoI</title>
			<polygon class="nsoI
NsoI" points="108,10 135,40 108,70" fill="rgb(255,255,255)" fill-opacity="1.0" stroke="rgb(0,0,0)" stroke-width="2"  />
			<g>
				<title>Spa1_C (PF18218)
"Lantibiotic immunity protein Spa1 C-terminal domain"</title>
				<polygon class="PF18218" points="112,28 120,28 122,30 122,50 120,52 112,52" stroke-linejoin="round" width="10" height="24" fill="rgb(176,180,58)" stroke="rgb(140,144,46)" stroke-width="1" opacity="0.75" />
			</g>
			<g>
				<title>Spa1_C (PF18218)
"Lantibiotic immunity protein Spa1 C-terminal domain"</title>
				<polygon class="PF18218" points="125,33 131,40 125,47" stroke-linejoin="round" width="9" height="24" fill="rgb(176,180,58)" stroke="rgb(140,144,46)" stroke-width="1" opacity="0.75" />
			</g>
		</g>
		<g>
			<title>nsoR1
NsoR1</title>
			<polygon class="nsoR1
NsoR1" points="138,10 160,40 138,70" fill="rgb(255,255,255)" fill-opacity="1.0" stroke="rgb(0,0,0)" stroke-width="2"  />
			<g>
				<title>Response_reg (PF00072)
"Response regulator receiver domain"</title>
				<polygon class="PF00072" points="138,28 147,28 148,29 148,51 147,52 138,52" stroke-linejoin="round" width="10" height="24" fill="rgb(100,107,203)" stroke="rgb(80,85,162)" stroke-width="1" opacity="0.75" />
			</g>
			<g>
				<title>Trans_reg_C (PF00486)
"Transcriptional regulatory protein, C terminal"</title>
				<polygon class="PF00486" points="152,35 156,40 152,45" stroke-linejoin="round" width="7" height="24" fill="rgb(204,153,57)" stroke="rgb(163,122,45)" stroke-width="1" opacity="0.75" />
			</g>
		</g>
		<g>
			<title>nsoK1
NsoK1</title>
			<polygon class="nsoK1
NsoK1" points="159,25 174,25 174,10 204,40 174,70 174,55 159,55" fill="rgb(255,255,255)" fill-opacity="1.0" stroke="rgb(0,0,0)" stroke-width="2"  />
			<g>
				<title>HisKA (PF00512)
"His Kinase A (phospho-acceptor) domain"</title>
				<rect class="PF00512" x="182" y="28" stroke-linejoin="round" width="6" height="24" fill="rgb(193,125,62)" stroke="rgb(154,100,49)" stroke-width="1" opacity="0.75" />
			</g>
			<g>
				<title>HATPase_c (PF02518)
"Histidine kinase-, DNA gyrase B-, and HSP90-like ATPase"</title>
				<polygon class="PF02518" points="193,33 200,40 193,47" stroke-linejoin="round" width="10" height="24" fill="rgb(80,94,225)" stroke="rgb(64,75,180)" stroke-width="1" opacity="0.75" />
			</g>
		</g>
		<g>
			<title>nsoA1
NsoA1</title>
			<polygon class="nsoA1
NsoA1" points="222,10 227,40 222,70" fill="rgb(255,255,255)" fill-opacity="1.0" stroke="rgb(0,0,0)" stroke-width="2"  />
			<g>
				<title>Gallidermin (PF02052)
"Gallidermin"</title>
				<polygon class="PF02052" points="222,27 224,40 222,53" stroke-linejoin="round" width="3" height="24" fill="rgb(66,195,175)" stroke="rgb(52,156,140)" stroke-width="1" opacity="0.75" />
			</g>
		</g>
		<g>
			<title>nsoA2
NsoA2</title>
			<polygon class="nsoA2
NsoA2" points="228,10 233,40 228,70" fill="rgb(255,255,255)" fill-opacity="1.0" stroke="rgb(0,0,0)" stroke-width="2"  />
			<g>
				<title>Gallidermin (PF02052)
"Gallidermin"</title>
				<polygon class="PF02052" points="228,27 230,40 228,53" stroke-linejoin="round" width="3" height="24" fill="rgb(66,195,175)" stroke="rgb(52,156,140)" stroke-width="1" opacity="0.75" />
			</g>
		</g>
		<g>
			<title>nsoA3
NsoA3</title>
			<polygon class="nsoA3
NsoA3" points="235,10 240,40 235,70" fill="rgb(255,255,255)" fill-opacity="1.0" stroke="rgb(0,0,0)" stroke-width="2"  />
			<g>
				<title>Gallidermin (PF02052)
"Gallidermin"</title>
				<polygon class="PF02052" points="235,27 237,40 235,53" stroke-linejoin="round" width="3" height="24" fill="rgb(66,195,175)" stroke="rgb(52,156,140)" stroke-width="1" opacity="0.75" />
			</g>
		</g>
		<g>
			<title>nsoA4
NsoA4</title>
			<polygon class="nsoA4
NsoA4" points="241,10 246,40 241,70" fill="rgb(255,255,255)" fill-opacity="1.0" stroke="rgb(0,0,0)" stroke-width="2"  />
		</g>
		<g>
			<title>nsoR2
NsoR2</title>
			<polygon class="nsoR2
NsoR2" points="251,10 273,40 251,70" fill="rgb(255,255,255)" fill-opacity="1.0" stroke="rgb(0,0,0)" stroke-width="2"  />
			<g>
				<title>Response_reg (PF00072)
"Response regulator receiver domain"</title>
				<polygon class="PF00072" points="251,28 260,28 261,29 261,51 260,52 251,52" stroke-linejoin="round" width="10" height="24" fill="rgb(100,107,203)" stroke="rgb(80,85,162)" stroke-width="1" opacity="0.75" />
			</g>
			<g>
				<title>Trans_reg_C (PF00486)
"Transcriptional regulatory protein, C terminal"</title>
				<polygon class="PF00486" points="265,34 269,40 265,46" stroke-linejoin="round" width="7" height="24" fill="rgb(204,153,57)" stroke="rgb(163,122,45)" stroke-width="1" opacity="0.75" />
			</g>
		</g>
		<g>
			<title>nsoK2
NsoK2</title>
			<polygon class="nsoK2
NsoK2" points="273,25 288,25 288,10 318,40 288,70 288,55 273,55" fill="rgb(255,255,255)" fill-opacity="1.0" stroke="rgb(0,0,0)" stroke-width="2"  />
			<g>
				<title>HATPase_c (PF02518)
"Histidine kinase-, DNA gyrase B-, and HSP90-like ATPase"</title>
				<polygon class="PF02518" points="307,33 314,40 307,47" stroke-linejoin="round" width="10" height="24" fill="rgb(80,94,225)" stroke="rgb(64,75,180)" stroke-width="1" opacity="0.75" />
			</g>
		</g>
		<g>
			<title>nsoB
NsoB</title>
			<polygon class="nsoB
NsoB" points="331,25 403,25 403,10 433,40 403,70 403,55 331,55" fill="rgb(255,255,255)" fill-opacity="1.0" stroke="rgb(0,0,0)" stroke-width="2"  />
			<g>
				<title>Lant_dehydr_N (PF04738)
"Lantibiotic dehydratase, N terminus"</title>
				<rect class="PF04738" x="334" y="28" stroke-linejoin="round" width="64" height="24" fill="rgb(219,60,229)" stroke="rgb(175,47,183)" stroke-width="1" opacity="0.75" />
			</g>
			<g>
				<title>Lant_dehydr_C (PF14028)
"Lantibiotic biosynthesis dehydratase C-term"</title>
				<polygon class="PF14028" points="405,28 416,28 428,40 416,52 405,52" stroke-linejoin="round" width="25" height="24" fill="rgb(107,223,113)" stroke="rgb(85,178,90)" stroke-width="1" opacity="0.75" />
			</g>
		</g>
		<g>
			<title>nsoT
NsoT</title>
			<polygon class="nsoT
NsoT" points="432,25 462,25 462,10 492,40 462,70 462,55 432,55" fill="rgb(255,255,255)" fill-opacity="1.0" stroke="rgb(0,0,0)" stroke-width="2"  />
			<g>
				<title>ABC_tran (PF00005)
"ABC transporter"</title>
				<polygon class="PF00005" points="469,28 476,28 484,36 484,44 476,52 469,52" stroke-linejoin="round" width="15" height="24" fill="rgb(129,201,63)" stroke="rgb(103,160,50)" stroke-width="1" opacity="0.75" />
			</g>
		</g>
		<g>
			<title>nsoC
NsoC</title>
			<polygon class="nsoC
NsoC" points="492,25 506,25 506,10 536,40 506,70 506,55 492,55" fill="rgb(255,255,255)" fill-opacity="1.0" stroke="rgb(0,0,0)" stroke-width="2"  />
			<g>
				<title>LANC_like (PF05147)
"Lanthionine synthetase C-like protein"</title>
				<polygon class="PF05147" points="497,28 520,28 532,40 520,52 497,52" stroke-linejoin="round" width="39" height="24" fill="rgb(129,182,79)" stroke="rgb(103,145,63)" stroke-width="1" opacity="0.75" />
			</g>
		</g>
	</g>
</svg>
