<svg version="1.1" baseProfile="full" xmlns="http://www.w3.org/2000/svg" width="403.6333333333333" height="80">
	<g>
		<line x1="10" y1="40.0" x2="393.6333333333333" y2="40.0" style="stroke:rgb(70,70,70); stroke-width:3 "/>
		<g>
			<title>sssK
sensor histidine kinase</title>
			<polygon class="sssK
sensor histidine kinase" points="70,25 55,25 55,10 25,40 55,70 55,55 70,55" fill="rgb(255,255,255)" fill-opacity="1.0" stroke="rgb(0,0,0)" stroke-width="2"  />
			<g>
				<title>HATPase_c (PF02518)
"Histidine kinase-, DNA gyrase B-, and HSP90-like ATPase"</title>
				<polygon class="PF02518" points="29,40 35,34 35,46" stroke-linejoin="round" width="10" height="24" fill="rgb(80,94,225)" stroke="rgb(64,75,180)" stroke-width="1" opacity="0.75" />
			</g>
			<g>
				<title>HisKA (PF00512)
"His Kinase A (phospho-acceptor) domain"</title>
				<polygon class="PF00512" points="41,28 41,28 47,28 47,52 41,52 41,52" stroke-linejoin="round" width="6" height="24" fill="rgb(193,125,62)" stroke="rgb(154,100,49)" stroke-width="1" opacity="0.75" />
			</g>
		</g>
		<g>
			<title>sssR
response regulator</title>
			<polygon class="sssR
response regulator" points="71,40 94,10 94,70" fill="rgb(255,255,255)" fill-opacity="1.0" stroke="rgb(0,0,0)" stroke-width="2"  />
			<g>
				<title>Trans_reg_C (PF00486)
"Transcriptional regulatory protein, C terminal"</title>
				<polygon class="PF00486" points="75,40 78,36 78,44" stroke-linejoin="round" width="7" height="24" fill="rgb(204,153,57)" stroke="rgb(163,122,45)" stroke-width="1" opacity="0.75" />
			</g>
			<g>
				<title>Response_reg (PF00072)
"Response regulator receiver domain"</title>
				<polygon class="PF00072" points="82,31 84,28 93,28 93,52 84,52 82,49" stroke-linejoin="round" width="11" height="24" fill="rgb(100,107,203)" stroke="rgb(80,85,162)" stroke-width="1" opacity="0.75" />
			</g>
		</g>
		<g>
			<title>sssA
suicin 65 precursor</title>
			<polygon class="sssA
suicin 65 precursor" points="106,10 111,40 106,70" fill="rgb(255,255,255)" fill-opacity="1.0" stroke="rgb(0,0,0)" stroke-width="2"  />
			<g>
				<title>L_biotic_typeA (PF04604)
"Type-A lantibiotic"</title>
				<polygon class="PF04604" points="106,28 108,40 106,52" stroke-linejoin="round" width="4" height="24" fill="rgb(206,129,75)" stroke="rgb(164,103,60)" stroke-width="1" opacity="0.75" />
			</g>
		</g>
		<g>
			<title>sssA_
suicin 65 precursor</title>
			<polygon class="sssA_
suicin 65 precursor" points="112,10 117,40 112,70" fill="rgb(255,255,255)" fill-opacity="1.0" stroke="rgb(0,0,0)" stroke-width="2"  />
			<g>
				<title>L_biotic_typeA (PF04604)
"Type-A lantibiotic"</title>
				<polygon class="PF04604" points="112,28 114,40 112,52" stroke-linejoin="round" width="4" height="24" fill="rgb(206,129,75)" stroke="rgb(164,103,60)" stroke-width="1" opacity="0.75" />
			</g>
		</g>
		<g>
			<title>sssA1
hypothetical protein</title>
			<polygon class="sssA1
hypothetical protein" points="135,10 140,40 135,70" fill="rgb(255,255,255)" fill-opacity="1.0" stroke="rgb(0,0,0)" stroke-width="2"  />
			<g>
				<title>L_biotic_typeA (PF04604)
"Type-A lantibiotic"</title>
				<polygon class="PF04604" points="135,27 137,40 135,53" stroke-linejoin="round" width="5" height="24" fill="rgb(206,129,75)" stroke="rgb(164,103,60)" stroke-width="1" opacity="0.75" />
			</g>
		</g>
		<g>
			<title>sssM
synthetase</title>
			<polygon class="sssM
synthetase" points="141,25 203,25 203,10 233,40 203,70 203,55 141,55" fill="rgb(255,255,255)" fill-opacity="1.0" stroke="rgb(0,0,0)" stroke-width="2"  />
			<g>
				<title>DUF4135 (PF13575)
"Domain of unknown function (DUF4135)"</title>
				<rect class="PF13575" x="150" y="28" stroke-linejoin="round" width="37" height="24" fill="rgb(228,84,217)" stroke="rgb(182,67,173)" stroke-width="1" opacity="0.75" />
			</g>
			<g>
				<title>LANC_like (PF05147)
"Lanthionine synthetase C-like protein"</title>
				<polygon class="PF05147" points="198,28 217,28 229,40 217,52 198,52" stroke-linejoin="round" width="34" height="24" fill="rgb(129,182,79)" stroke="rgb(103,145,63)" stroke-width="1" opacity="0.75" />
			</g>
		</g>
		<g>
			<title>sssT
ABC transporter</title>
			<polygon class="sssT
ABC transporter" points="235,25 274,25 274,10 304,40 274,70 274,55 235,55" fill="rgb(255,255,255)" fill-opacity="1.0" stroke="rgb(0,0,0)" stroke-width="2"  />
			<g>
				<title>Peptidase_C39 (PF03412)
"Peptidase C39 family"</title>
				<rect class="PF03412" x="235" y="28" stroke-linejoin="round" width="13" height="24" fill="rgb(214,226,77)" stroke="rgb(171,180,61)" stroke-width="1" opacity="0.75" />
			</g>
			<g>
				<title>ABC_membrane (PF00664)
"ABC transporter transmembrane region"</title>
				<rect class="PF00664" x="250" y="28" stroke-linejoin="round" width="26" height="24" fill="rgb(149,226,73)" stroke="rgb(119,180,58)" stroke-width="1" opacity="0.75" />
			</g>
			<g>
				<title>ABC_tran (PF00005)
"ABC transporter"</title>
				<polygon class="PF00005" points="282,28 287,28 295,36 295,44 287,52 282,52" stroke-linejoin="round" width="13" height="24" fill="rgb(129,201,63)" stroke="rgb(103,160,50)" stroke-width="1" opacity="0.75" />
			</g>
		</g>
		<g>
			<title>sssF
immunity protein</title>
			<polygon class="sssF
immunity protein" points="307,25 307,25 307,10 337,40 307,70 307,55 307,55" fill="rgb(255,255,255)" fill-opacity="1.0" stroke="rgb(0,0,0)" stroke-width="2"  />
			<g>
				<title>ABC_tran (PF00005)
"ABC transporter"</title>
				<polygon class="PF00005" points="309,28 321,28 323,30 323,50 321,52 309,52" stroke-linejoin="round" width="14" height="24" fill="rgb(129,201,63)" stroke="rgb(103,160,50)" stroke-width="1" opacity="0.75" />
			</g>
		</g>
		<g>
			<title>sssE
immunity protein</title>
			<polygon class="sssE
immunity protein" points="338,10 363,40 338,70" fill="rgb(255,255,255)" fill-opacity="1.0" stroke="rgb(0,0,0)" stroke-width="2"  />
			<g>
				<title>ABC2_membrane_4 (PF12730)
"ABC-2 family transporter protein"</title>
				<polygon class="PF12730" points="338,28 349,28 355,35 355,45 349,52 338,52" stroke-linejoin="round" width="17" height="24" fill="rgb(203,161,59)" stroke="rgb(162,128,47)" stroke-width="1" opacity="0.75" />
			</g>
		</g>
		<g>
			<title>sssG
immunity protein</title>
			<polygon class="sssG
immunity protein" points="363,10 387,40 363,70" fill="rgb(255,255,255)" fill-opacity="1.0" stroke="rgb(0,0,0)" stroke-width="2"  />
			<g>
				<title>ABC2_membrane_4 (PF12730)
"ABC-2 family transporter protein"</title>
				<polygon class="PF12730" points="363,28 374,28 380,36 380,44 374,52 363,52" stroke-linejoin="round" width="17" height="24" fill="rgb(203,161,59)" stroke="rgb(162,128,47)" stroke-width="1" opacity="0.75" />
			</g>
		</g>
	</g>
</svg>
