<svg version="1.1" baseProfile="full" xmlns="http://www.w3.org/2000/svg" width="545.0333333333333" height="80">
	<g>
		<line x1="10" y1="40.0" x2="535.0333333333333" y2="40.0" style="stroke:rgb(70,70,70); stroke-width:3 "/>
		<g>
			<title>ppgO
glutamine amidotransferase</title>
			<polygon class="ppgO
glutamine amidotransferase" points="76,25 40,25 40,10 10,40 40,70 40,55 76,55" fill="rgb(255,255,255)" fill-opacity="1.0" stroke="rgb(0,0,0)" stroke-width="2"  />
			<g>
				<title>Asn_synthase (PF00733)
"Asparagine synthase"</title>
				<polygon class="PF00733" points="14,40 26,28 51,28 51,52 26,52 14,40" stroke-linejoin="round" width="37" height="24" fill="rgb(97,201,176)" stroke="rgb(77,160,140)" stroke-width="1" opacity="0.75" />
			</g>
			<g>
				<title>GATase_7 (PF13537)
"Glutamine amidotransferase domain"</title>
				<rect class="PF13537" x="59" y="28" stroke-linejoin="round" width="12" height="24" fill="rgb(200,63,57)" stroke="rgb(160,50,45)" stroke-width="1" opacity="0.75" />
			</g>
		</g>
		<g>
			<title>ppgN
Rieske [2Fe-2S] domain protein</title>
			<polygon class="ppgN
Rieske [2Fe-2S] domain protein" points="110,25 107,25 107,10 77,40 107,70 107,55 110,55" fill="rgb(255,255,255)" fill-opacity="1.0" stroke="rgb(0,0,0)" stroke-width="2"  />
			<g>
				<title>VanA_C (PF19112)
"Vanillate O-demethylase oxygenase C-terminal domain"</title>
				<polygon class="PF19112" points="81,40 93,28 95,28 95,52 93,52" stroke-linejoin="round" width="18" height="24" fill="rgb(95,196,187)" stroke="rgb(76,156,149)" stroke-width="1" opacity="0.75" />
			</g>
			<g>
				<title>Rieske (PF00355)
"Rieske [2Fe-2S] domain"</title>
				<rect class="PF00355" x="99" y="28" stroke-linejoin="round" width="9" height="24" fill="rgb(186,77,145)" stroke="rgb(148,61,115)" stroke-width="1" opacity="0.75" />
			</g>
		</g>
		<g>
			<title>ppgA
carrier protein</title>
			<polygon class="ppgA
carrier protein" points="124,10 131,40 124,70" fill="rgb(255,255,255)" fill-opacity="1.0" stroke="rgb(0,0,0)" stroke-width="2"  />
			<g>
				<title>PP-binding (PF00550)
"Phosphopantetheine attachment site"</title>
				<polygon class="PF00550" points="124,28 125,28 128,40 125,52 124,52" stroke-linejoin="round" width="6" height="24" fill="rgb(103,191,88)" stroke="rgb(82,152,70)" stroke-width="1" opacity="0.75" />
			</g>
		</g>
		<g>
			<title>ppgB
hypothetical protein</title>
			<polygon class="ppgB
hypothetical protein" points="132,10 157,40 132,70" fill="rgb(255,255,255)" fill-opacity="1.0" stroke="rgb(0,0,0)" stroke-width="2"  />
			<g>
				<title>Abhydrolase_6 (PF12697)
"Alpha/beta hydrolase family"</title>
				<polygon class="PF12697" points="137,28 143,28 153,40 143,52 137,52" stroke-linejoin="round" width="19" height="24" fill="rgb(113,71,219)" stroke="rgb(90,56,175)" stroke-width="1" opacity="0.75" />
			</g>
		</g>
		<g>
			<title>ppgC
acyl carrier protein</title>
			<polygon class="ppgC
acyl carrier protein" points="158,10 168,40 158,70" fill="rgb(255,255,255)" fill-opacity="1.0" stroke="rgb(0,0,0)" stroke-width="2"  />
			<g>
				<title>PP-binding (PF00550)
"Phosphopantetheine attachment site"</title>
				<polygon class="PF00550" points="158,28 160,28 164,38 164,42 160,52 158,52" stroke-linejoin="round" width="6" height="24" fill="rgb(103,191,88)" stroke="rgb(82,152,70)" stroke-width="1" opacity="0.75" />
			</g>
		</g>
		<g>
			<title>ppgD
beta-hydroxymyristoyl-acyl carrier protein dehydratase</title>
			<polygon class="ppgD
beta-hydroxymyristoyl-acyl carrier protein dehydratase" points="168,10 183,40 168,70" fill="rgb(255,255,255)" fill-opacity="1.0" stroke="rgb(0,0,0)" stroke-width="2"  />
			<g>
				<title>FabA (PF07977)
"FabA-like domain"</title>
				<polygon class="PF07977" points="168,28 173,28 179,39 179,41 173,52 168,52" stroke-linejoin="round" width="11" height="24" fill="rgb(66,205,188)" stroke="rgb(52,164,150)" stroke-width="1" opacity="0.75" />
			</g>
		</g>
		<g>
			<title>ppgE
beta-ketoacyl synthase</title>
			<polygon class="ppgE
beta-ketoacyl synthase" points="183,25 185,25 185,10 215,40 185,70 185,55 183,55" fill="rgb(255,255,255)" fill-opacity="1.0" stroke="rgb(0,0,0)" stroke-width="2"  />
			<g>
				<title>ketoacyl-synt (PF00109)
"Beta-ketoacyl synthase, N-terminal domain"</title>
				<polygon class="PF00109" points="184,28 199,28 201,30 201,50 199,52 184,52" stroke-linejoin="round" width="17" height="24" fill="rgb(112,116,228)" stroke="rgb(89,92,182)" stroke-width="1" opacity="0.75" />
			</g>
		</g>
		<g>
			<title>ppgF
Rieske [2Fe-2S] domain protein</title>
			<polygon class="ppgF
Rieske [2Fe-2S] domain protein" points="216,25 219,25 219,10 249,40 219,70 219,55 216,55" fill="rgb(255,255,255)" fill-opacity="1.0" stroke="rgb(0,0,0)" stroke-width="2"  />
			<g>
				<title>Rieske (PF00355)
"Rieske [2Fe-2S] domain"</title>
				<rect class="PF00355" x="218" y="28" stroke-linejoin="round" width="9" height="24" fill="rgb(186,77,145)" stroke="rgb(148,61,115)" stroke-width="1" opacity="0.75" />
			</g>
			<g>
				<title>KshA_C (PF19298)
"3-Ketosteroid 9alpha-hydroxylase C-terminal domain"</title>
				<polygon class="PF19298" points="229,28 232,28 244,40 232,52 229,52" stroke-linejoin="round" width="19" height="24" fill="rgb(155,81,203)" stroke="rgb(123,64,162)" stroke-width="1" opacity="0.75" />
			</g>
		</g>
		<g>
			<title>ppgG
isochorismate-pyruvate lyase</title>
			<polygon class="ppgG
isochorismate-pyruvate lyase" points="251,10 261,40 251,70" fill="rgb(255,255,255)" fill-opacity="1.0" stroke="rgb(0,0,0)" stroke-width="2"  />
			<g>
				<title>CM_2 (PF01817)
"Chorismate mutase type II"</title>
				<polygon class="PF01817" points="252,28 253,28 258,40 253,52 252,52" stroke-linejoin="round" width="7" height="24" fill="rgb(118,210,66)" stroke="rgb(94,168,52)" stroke-width="1" opacity="0.75" />
			</g>
		</g>
		<g>
			<title>ppgH
isochorismate synthase</title>
			<polygon class="ppgH
isochorismate synthase" points="262,25 279,25 279,10 309,40 279,70 279,55 262,55" fill="rgb(255,255,255)" fill-opacity="1.0" stroke="rgb(0,0,0)" stroke-width="2"  />
			<g>
				<title>Chorismate_bind (PF00425)
"chorismate binding enzyme"</title>
				<polygon class="PF00425" points="281,28 292,28 304,40 292,52 281,52" stroke-linejoin="round" width="25" height="24" fill="rgb(188,116,88)" stroke="rgb(150,92,70)" stroke-width="1" opacity="0.75" />
			</g>
		</g>
		<g>
			<title>ppgI
metal-dependent hydrolase</title>
			<polygon class="ppgI
metal-dependent hydrolase" points="310,10 338,40 310,70" fill="rgb(255,255,255)" fill-opacity="1.0" stroke="rgb(0,0,0)" stroke-width="2"  />
			<g>
				<title>Metal_hydrol (PF10118)
"Predicted metal-dependent hydrolase"</title>
				<polygon class="PF10118" points="311,28 322,28 333,40 322,52 311,52" stroke-linejoin="round" width="24" height="24" fill="rgb(72,190,117)" stroke="rgb(57,152,93)" stroke-width="1" opacity="0.75" />
			</g>
		</g>
		<g>
			<title>ppgJ
amino acid adenylation protein</title>
			<polygon class="ppgJ
amino acid adenylation protein" points="339,25 368,25 368,10 398,40 368,70 368,55 339,55" fill="rgb(255,255,255)" fill-opacity="1.0" stroke="rgb(0,0,0)" stroke-width="2"  />
			<g>
				<title>AMP-binding (PF00501)
"AMP-binding enzyme"</title>
				<rect class="PF00501" x="340" y="28" stroke-linejoin="round" width="40" height="24" fill="rgb(60,217,223)" stroke="rgb(48,173,178)" stroke-width="1" opacity="0.75" />
			</g>
			<g>
				<title>AMP-binding_C (PF13193)
"AMP-binding enzyme C-terminal domain"</title>
				<polygon class="PF13193" points="381,28 382,28 388,34 388,46 382,52 381,52" stroke-linejoin="round" width="7" height="24" fill="rgb(182,50,118)" stroke="rgb(145,39,94)" stroke-width="1" opacity="0.75" />
			</g>
			<g>
				<title>PP-binding (PF00550)
"Phosphopantetheine attachment site"</title>
				<polygon class="PF00550" points="391,37 394,40 391,43" stroke-linejoin="round" width="6" height="24" fill="rgb(103,191,88)" stroke="rgb(82,152,70)" stroke-width="1" opacity="0.75" />
			</g>
		</g>
		<g>
			<title>ppgK
beta-ketoacyl synthase</title>
			<polygon class="ppgK
beta-ketoacyl synthase" points="399,25 408,25 408,10 438,40 408,70 408,55 399,55" fill="rgb(255,255,255)" fill-opacity="1.0" stroke="rgb(0,0,0)" stroke-width="2"  />
			<g>
				<title>ketoacyl-synt (PF00109)
"Beta-ketoacyl synthase, N-terminal domain"</title>
				<rect class="PF00109" x="406" y="28" stroke-linejoin="round" width="15" height="24" fill="rgb(112,116,228)" stroke="rgb(89,92,182)" stroke-width="1" opacity="0.75" />
			</g>
			<g>
				<title>Ketoacyl-synt_C (PF02801)
"Beta-ketoacyl synthase, C-terminal domain"</title>
				<polygon class="PF02801" points="422,28 422,28 433,39 433,41 422,52 422,52" stroke-linejoin="round" width="11" height="24" fill="rgb(215,78,102)" stroke="rgb(172,62,81)" stroke-width="1" opacity="0.75" />
			</g>
		</g>
		<g>
			<title>ppgL
BAHD family acyl transferase</title>
			<polygon class="ppgL
BAHD family acyl transferase" points="438,25 450,25 450,10 480,40 450,70 450,55 438,55" fill="rgb(255,255,255)" fill-opacity="1.0" stroke="rgb(0,0,0)" stroke-width="2"  />
		</g>
		<g>
			<title>ppgM
salicylyl-AMP ligase</title>
			<polygon class="ppgM
salicylyl-AMP ligase" points="481,25 503,25 503,10 533,40 503,70 503,55 481,55" fill="rgb(255,255,255)" fill-opacity="1.0" stroke="rgb(0,0,0)" stroke-width="2"  />
			<g>
				<title>AMP-binding (PF00501)
"AMP-binding enzyme"</title>
				<polygon class="PF00501" points="483,28 517,28 523,34 523,46 517,52 483,52" stroke-linejoin="round" width="40" height="24" fill="rgb(60,217,223)" stroke="rgb(48,173,178)" stroke-width="1" opacity="0.75" />
			</g>
			<g>
				<title>AMP-binding_C (PF13193)
"AMP-binding enzyme C-terminal domain"</title>
				<polygon class="PF13193" points="524,35 529,40 524,45" stroke-linejoin="round" width="7" height="24" fill="rgb(182,50,118)" stroke="rgb(145,39,94)" stroke-width="1" opacity="0.75" />
			</g>
		</g>
	</g>
</svg>
