<svg version="1.1" baseProfile="full" xmlns="http://www.w3.org/2000/svg" width="737.7333333333333" height="80">
	<g>
		<line x1="10" y1="40.0" x2="727.7333333333333" y2="40.0" style="stroke:rgb(70,70,70); stroke-width:3 "/>
		<g>
			<title>gne
UDP-GlcNAc 4-epimerase</title>
			<polygon class="gne
UDP-GlcNAc 4-epimerase" points="16,25 19,25 19,10 49,40 19,70 19,55 16,55" fill="rgb(255,255,255)" fill-opacity="1.0" stroke="rgb(0,0,0)" stroke-width="2"  />
			<g>
				<title>Epimerase (PF01370)
"NAD dependent epimerase/dehydratase family"</title>
				<polygon class="PF01370" points="16,28 32,28 37,33 37,47 32,52 16,52" stroke-linejoin="round" width="21" height="24" fill="rgb(98,102,214)" stroke="rgb(78,81,171)" stroke-width="1" opacity="0.75" />
			</g>
		</g>
		<g>
			<title>galF
UDP-glucose pyrophosporylase</title>
			<polygon class="galF
UDP-glucose pyrophosporylase" points="58,10 87,40 58,70" fill="rgb(255,255,255)" fill-opacity="1.0" stroke="rgb(0,0,0)" stroke-width="2"  />
			<g>
				<title>NTP_transferase (PF00483)
"Nucleotidyl transferase"</title>
				<polygon class="PF00483" points="58,28 71,28 83,40 71,52 58,52" stroke-linejoin="round" width="27" height="24" fill="rgb(198,101,87)" stroke="rgb(158,80,69)" stroke-width="1" opacity="0.75" />
			</g>
		</g>
		<g>
			<title>wbdM
glycosyltransferase</title>
			<polygon class="wbdM
glycosyltransferase" points="101,25 108,25 108,10 138,40 108,70 108,55 101,55" fill="rgb(255,255,255)" fill-opacity="1.0" stroke="rgb(0,0,0)" stroke-width="2"  />
			<g>
				<title>Glyco_transf_4 (PF13439)
"Glycosyltransferase Family 4"</title>
				<rect class="PF13439" x="102" y="28" stroke-linejoin="round" width="16" height="24" fill="rgb(162,57,186)" stroke="rgb(129,45,148)" stroke-width="1" opacity="0.75" />
			</g>
			<g>
				<title>Glycos_transf_1 (PF00534)
"Glycosyl transferases group 1"</title>
				<polygon class="PF00534" points="119,28 121,28 133,40 121,52 119,52" stroke-linejoin="round" width="16" height="24" fill="rgb(228,92,150)" stroke="rgb(182,73,119)" stroke-width="1" opacity="0.75" />
			</g>
		</g>
		<g>
			<title>gmd
GDP-mannose dehydratase</title>
			<polygon class="gmd
GDP-mannose dehydratase" points="138,25 145,25 145,10 175,40 145,70 145,55 138,55" fill="rgb(255,255,255)" fill-opacity="1.0" stroke="rgb(0,0,0)" stroke-width="2"  />
			<g>
				<title>GDP_Man_Dehyd (PF16363)
"GDP-mannose 4,6 dehydratase"</title>
				<polygon class="PF16363" points="138,28 159,28 171,40 159,52 138,52" stroke-linejoin="round" width="34" height="24" fill="rgb(162,221,65)" stroke="rgb(129,176,51)" stroke-width="1" opacity="0.75" />
			</g>
		</g>
		<g>
			<title>fcl
fucose synthetase</title>
			<polygon class="fcl
fucose synthetase" points="182,10 205,40 182,70" fill="rgb(255,255,255)" fill-opacity="1.0" stroke="rgb(0,0,0)" stroke-width="2"  />
			<g>
				<title>Epimerase (PF01370)
"NAD dependent epimerase/dehydratase family"</title>
				<polygon class="PF01370" points="182,28 192,28 198,35 198,45 192,52 182,52" stroke-linejoin="round" width="16" height="24" fill="rgb(98,102,214)" stroke="rgb(78,81,171)" stroke-width="1" opacity="0.75" />
			</g>
		</g>
		<g>
			<title>gmm
GDP-mannose mannosylhydrolase</title>
			<polygon class="gmm
GDP-mannose mannosylhydrolase" points="206,10 222,40 206,70" fill="rgb(255,255,255)" fill-opacity="1.0" stroke="rgb(0,0,0)" stroke-width="2"  />
			<g>
				<title>NUDIX (PF00293)
"NUDIX domain"</title>
				<polygon class="PF00293" points="207,28 212,28 219,40 212,52 207,52" stroke-linejoin="round" width="13" height="24" fill="rgb(92,56,187)" stroke="rgb(73,44,149)" stroke-width="1" opacity="0.75" />
			</g>
		</g>
		<g>
			<title>manC
mannose-1-P guanosyltransferase</title>
			<polygon class="manC
mannose-1-P guanosyltransferase" points="223,25 241,25 241,10 271,40 241,70 241,55 223,55" fill="rgb(255,255,255)" fill-opacity="1.0" stroke="rgb(0,0,0)" stroke-width="2"  />
			<g>
				<title>NTP_transferase (PF00483)
"Nucleotidyl transferase"</title>
				<rect class="PF00483" x="223" y="28" stroke-linejoin="round" width="29" height="24" fill="rgb(198,101,87)" stroke="rgb(158,80,69)" stroke-width="1" opacity="0.75" />
			</g>
			<g>
				<title>MannoseP_isomer (PF01050)
"Mannose-6-phosphate isomerase"</title>
				<polygon class="PF01050" points="255,28 255,28 267,40 255,52 255,52" stroke-linejoin="round" width="15" height="24" fill="rgb(53,184,51)" stroke="rgb(42,147,40)" stroke-width="1" opacity="0.75" />
			</g>
		</g>
		<g>
			<title>manB
phosphomannomutase</title>
			<polygon class="manB
phosphomannomutase" points="271,25 287,25 287,10 317,40 287,70 287,55 271,55" fill="rgb(255,255,255)" fill-opacity="1.0" stroke="rgb(0,0,0)" stroke-width="2"  />
			<g>
				<title>PGM_PMM_I (PF02878)
"Phosphoglucomutase/phosphomannomutase, alpha/beta/alpha domain I"</title>
				<rect class="PF02878" x="271" y="28" stroke-linejoin="round" width="13" height="24" fill="rgb(217,133,102)" stroke="rgb(173,106,81)" stroke-width="1" opacity="0.75" />
			</g>
			<g>
				<title>PGM_PMM_II (PF02879)
"Phosphoglucomutase/phosphomannomutase, alpha/beta/alpha domain II"</title>
				<rect class="PF02879" x="286" y="28" stroke-linejoin="round" width="10" height="24" fill="rgb(192,221,60)" stroke="rgb(153,176,48)" stroke-width="1" opacity="0.75" />
			</g>
			<g>
				<title>PGM_PMM_III (PF02880)
"Phosphoglucomutase/phosphomannomutase, alpha/beta/alpha domain III"</title>
				<polygon class="PF02880" points="297,28 300,28 308,36 308,44 300,52 297,52" stroke-linejoin="round" width="11" height="24" fill="rgb(67,204,90)" stroke="rgb(53,163,72)" stroke-width="1" opacity="0.75" />
			</g>
			<g>
				<title>PGM_PMM_IV (PF00408)
"Phosphoglucomutase/phosphomannomutase, C-terminal domain"</title>
				<polygon class="PF00408" points="308,36 312,40 308,44" stroke-linejoin="round" width="7" height="24" fill="rgb(74,205,143)" stroke="rgb(59,164,114)" stroke-width="1" opacity="0.75" />
			</g>
		</g>
		<g>
			<title>wbdN
glycosyltransferase</title>
			<polygon class="wbdN
glycosyltransferase" points="317,10 345,40 317,70" fill="rgb(255,255,255)" fill-opacity="1.0" stroke="rgb(0,0,0)" stroke-width="2"  />
			<g>
				<title>Glyco_transf_11 (PF01531)
"Glycosyl transferase family 11"</title>
				<polygon class="PF01531" points="317,28 329,28 341,40 329,52 317,52" stroke-linejoin="round" width="28" height="24" fill="rgb(101,92,208)" stroke="rgb(80,73,166)" stroke-width="1" opacity="0.75" />
			</g>
		</g>
		<g>
			<title>wzy
O-antigen polymerase</title>
			<polygon class="wzy
O-antigen polymerase" points="346,25 348,25 348,10 378,40 348,70 348,55 346,55" fill="rgb(255,255,255)" fill-opacity="1.0" stroke="rgb(0,0,0)" stroke-width="2"  />
		</g>
		<g>
			<title>wzx
O-antigen flippase</title>
			<polygon class="wzx
O-antigen flippase" points="380,25 392,25 392,10 422,40 392,70 392,55 380,55" fill="rgb(255,255,255)" fill-opacity="1.0" stroke="rgb(0,0,0)" stroke-width="2"  />
			<g>
				<title>Polysacc_synt (PF01943)
"Polysaccharide biosynthesis protein"</title>
				<polygon class="PF01943" points="381,28 406,28 409,31 409,49 406,52 381,52" stroke-linejoin="round" width="28" height="24" fill="rgb(71,213,101)" stroke="rgb(56,170,80)" stroke-width="1" opacity="0.75" />
			</g>
		</g>
		<g>
			<title>wbdO
glycosyltransferase</title>
			<polygon class="wbdO
glycosyltransferase" points="422,10 448,40 422,70" fill="rgb(255,255,255)" fill-opacity="1.0" stroke="rgb(0,0,0)" stroke-width="2"  />
			<g>
				<title>Glycos_transf_2 (PF00535)
"Glycosyl transferase family 2"</title>
				<polygon class="PF00535" points="423,28 433,28 439,34 439,46 433,52 423,52" stroke-linejoin="round" width="16" height="24" fill="rgb(224,122,96)" stroke="rgb(179,97,76)" stroke-width="1" opacity="0.75" />
			</g>
		</g>
		<g>
			<title>wbdP
glycosyltransferase</title>
			<polygon class="wbdP
glycosyltransferase" points="455,10 473,40 455,70" fill="rgb(255,255,255)" fill-opacity="1.0" stroke="rgb(0,0,0)" stroke-width="2"  />
			<g>
				<title>Glyco_tranf_2_2 (PF10111)
"Glycosyltransferase like family 2"</title>
				<polygon class="PF10111" points="455,28 462,28 469,38 469,42 462,52 455,52" stroke-linejoin="round" width="14" height="24" fill="rgb(77,210,64)" stroke="rgb(61,168,51)" stroke-width="1" opacity="0.75" />
			</g>
		</g>
		<g>
			<title>gnd
6-phosphogluconate dehydrogenase</title>
			<polygon class="gnd
6-phosphogluconate dehydrogenase" points="476,25 492,25 492,10 522,40 492,70 492,55 476,55" fill="rgb(255,255,255)" fill-opacity="1.0" stroke="rgb(0,0,0)" stroke-width="2"  />
			<g>
				<title>NAD_binding_2 (PF03446)
"NAD binding domain of 6-phosphogluconate dehydrogenase"</title>
				<rect class="PF03446" x="476" y="28" stroke-linejoin="round" width="16" height="24" fill="rgb(205,164,98)" stroke="rgb(164,131,78)" stroke-width="1" opacity="0.75" />
			</g>
			<g>
				<title>6PGD (PF00393)
"6-phosphogluconate dehydrogenase, C-terminal domain"</title>
				<polygon class="PF00393" points="493,28 506,28 518,40 506,52 493,52" stroke-linejoin="round" width="28" height="24" fill="rgb(57,119,210)" stroke="rgb(45,95,168)" stroke-width="1" opacity="0.75" />
			</g>
		</g>
		<g>
			<title>col1
putative GDP-colitose biosynthetic protein</title>
			<polygon class="col1
putative GDP-colitose biosynthetic protein" points="527,25 527,25 527,10 557,40 527,70 527,55 527,55" fill="rgb(255,255,255)" fill-opacity="1.0" stroke="rgb(0,0,0)" stroke-width="2"  />
			<g>
				<title>Epimerase (PF01370)
"NAD dependent epimerase/dehydratase family"</title>
				<polygon class="PF01370" points="527,28 541,28 550,37 550,43 541,52 527,52" stroke-linejoin="round" width="23" height="24" fill="rgb(98,102,214)" stroke="rgb(78,81,171)" stroke-width="1" opacity="0.75" />
			</g>
		</g>
		<g>
			<title>col2
putative GDP-colitose biosynthetic protein</title>
			<polygon class="col2
putative GDP-colitose biosynthetic protein" points="558,25 566,25 566,10 596,40 566,70 566,55 558,55" fill="rgb(255,255,255)" fill-opacity="1.0" stroke="rgb(0,0,0)" stroke-width="2"  />
			<g>
				<title>DegT_DnrJ_EryC1 (PF01041)
"DegT/DnrJ/EryC1/StrS aminotransferase family"</title>
				<polygon class="PF01041" points="559,28 580,28 592,40 580,52 559,52" stroke-linejoin="round" width="36" height="24" fill="rgb(59,139,191)" stroke="rgb(47,111,152)" stroke-width="1" opacity="0.75" />
			</g>
		</g>
		<g>
			<title>ugd
UDP-glucose-6-dehydrogenase</title>
			<polygon class="ugd
UDP-glucose-6-dehydrogenase" points="633,25 641,25 641,10 671,40 641,70 641,55 633,55" fill="rgb(255,255,255)" fill-opacity="1.0" stroke="rgb(0,0,0)" stroke-width="2"  />
			<g>
				<title>UDPG_MGDP_dh_N (PF03721)
"UDP-glucose/GDP-mannose dehydrogenase family, NAD binding domain"</title>
				<rect class="PF03721" x="633" y="28" stroke-linejoin="round" width="17" height="24" fill="rgb(156,194,58)" stroke="rgb(124,155,46)" stroke-width="1" opacity="0.75" />
			</g>
			<g>
				<title>UDPG_MGDP_dh (PF00984)
"UDP-glucose/GDP-mannose dehydrogenase family, central domain"</title>
				<polygon class="PF00984" points="652,28 655,28 661,34 661,46 655,52 652,52" stroke-linejoin="round" width="9" height="24" fill="rgb(69,189,184)" stroke="rgb(55,151,147)" stroke-width="1" opacity="0.75" />
			</g>
		</g>
		<g>
			<title>wzz
O-antigen chain length determinant</title>
			<polygon class="wzz
O-antigen chain length determinant" points="676,10 705,40 676,70" fill="rgb(255,255,255)" fill-opacity="1.0" stroke="rgb(0,0,0)" stroke-width="2"  />
			<g>
				<title>Wzz (PF02706)
"Chain length determinant protein"</title>
				<rect class="PF02706" x="677" y="28" stroke-linejoin="round" width="10" height="24" fill="rgb(184,132,90)" stroke="rgb(147,105,72)" stroke-width="1" opacity="0.75" />
			</g>
		</g>
		<g>
			<title>hisI
phosphoribosyl-AMP cyclohydrolase</title>
			<polygon class="hisI
phosphoribosyl-AMP cyclohydrolase" points="712,10 721,40 712,70" fill="rgb(255,255,255)" fill-opacity="1.0" stroke="rgb(0,0,0)" stroke-width="2"  />
		</g>
	</g>
</svg>
