<svg version="1.1" baseProfile="full" xmlns="http://www.w3.org/2000/svg" width="527.4666666666667" height="80">
	<g>
		<line x1="10" y1="40.0" x2="517.4666666666667" y2="40.0" style="stroke:rgb(70,70,70); stroke-width:3 "/>
		<g>
			<title> (ABAYE1997)
putative acetyltransferase; putative siderophore biosynthesis protein</title>
			<polygon class=" (ABAYE1997)
putative acetyltransferase; putative siderophore biosynthesis protein" points="10,40 30,10 30,70" fill="rgb(255,255,255)" fill-opacity="1.0" stroke="rgb(0,0,0)" stroke-width="2"  />
			<g>
				<title>Acetyltransf_8 (PF13523)
"Acetyltransferase (GNAT) domain"</title>
				<polygon class="PF13523" points="14,40 22,28 27,28 27,52 22,52" stroke-linejoin="round" width="14" height="24" fill="rgb(106,224,203)" stroke="rgb(84,179,162)" stroke-width="1" opacity="0.75" />
			</g>
		</g>
		<g>
			<title> (ABAYE1999)
conserved hypothetical protein; putative membrane protein</title>
			<polygon class=" (ABAYE1999)
conserved hypothetical protein; putative membrane protein" points="96,25 76,25 76,10 46,40 76,70 76,55 96,55" fill="rgb(255,255,255)" fill-opacity="1.0" stroke="rgb(0,0,0)" stroke-width="2"  />
			<g>
				<title>PepSY_TM (PF03929)
"PepSY-associated TM region"</title>
				<polygon class="PF03929" points="60,30 62,28 95,28 95,52 62,52 60,50" stroke-linejoin="round" width="35" height="24" fill="rgb(68,227,157)" stroke="rgb(54,181,125)" stroke-width="1" opacity="0.75" />
			</g>
		</g>
		<g>
			<title> (ABAYE2000)
conserved hypothetical protein; putative membrane protein</title>
			<polygon class=" (ABAYE2000)
conserved hypothetical protein; putative membrane protein" points="97,40 106,10 106,70" fill="rgb(255,255,255)" fill-opacity="1.0" stroke="rgb(0,0,0)" stroke-width="2"  />
		</g>
		<g>
			<title> (ABAYE2001)
putative ferric siderophore receptor protein</title>
			<polygon class=" (ABAYE2001)
putative ferric siderophore receptor protein" points="186,25 139,25 139,10 109,40 139,70 139,55 186,55" fill="rgb(255,255,255)" fill-opacity="1.0" stroke="rgb(0,0,0)" stroke-width="2"  />
			<g>
				<title>TonB_dep_Rec (PF00593)
"TonB dependent receptor"</title>
				<polygon class="PF00593" points="113,40 125,28 163,28 163,52 125,52" stroke-linejoin="round" width="54" height="24" fill="rgb(171,200,51)" stroke="rgb(136,160,40)" stroke-width="1" opacity="0.75" />
			</g>
			<g>
				<title>Plug (PF07715)
"TonB-dependent Receptor Plug Domain"</title>
				<rect class="PF07715" x="168" y="28" stroke-linejoin="round" width="10" height="24" fill="rgb(99,133,214)" stroke="rgb(79,106,171)" stroke-width="1" opacity="0.75" />
			</g>
		</g>
		<g>
			<title> (ABAYE2002)
putative demethylmenaquinone methyltransferase</title>
			<polygon class=" (ABAYE2002)
putative demethylmenaquinone methyltransferase" points="189,40 209,10 209,70" fill="rgb(255,255,255)" fill-opacity="1.0" stroke="rgb(0,0,0)" stroke-width="2"  />
			<g>
				<title>RraA-like (PF03737)
"Aldolase/RraA"</title>
				<polygon class="PF03737" points="193,40 201,28 207,28 207,52 201,52" stroke-linejoin="round" width="15" height="24" fill="rgb(59,211,194)" stroke="rgb(47,168,155)" stroke-width="1" opacity="0.75" />
			</g>
		</g>
		<g>
			<title> (ABAYE2003)
conserved hypothetical protein</title>
			<polygon class=" (ABAYE2003)
conserved hypothetical protein" points="209,40 234,10 234,70" fill="rgb(255,255,255)" fill-opacity="1.0" stroke="rgb(0,0,0)" stroke-width="2"  />
			<g>
				<title>FhuF_C (PF11575)
"FhuF 2Fe-2S C-terminal domain"</title>
				<polygon class="PF11575" points="213,40 212,41 212,39" stroke-linejoin="round" width="2" height="24" fill="rgb(216,71,91)" stroke="rgb(172,56,72)" stroke-width="1" opacity="0.75" />
			</g>
		</g>
		<g>
			<title> (ABAYE2004)
conserved hypothetical protein; putative siderophore biosynthesis protein</title>
			<polygon class=" (ABAYE2004)
conserved hypothetical protein; putative siderophore biosynthesis protein" points="299,25 266,25 266,10 236,40 266,70 266,55 299,55" fill="rgb(255,255,255)" fill-opacity="1.0" stroke="rgb(0,0,0)" stroke-width="2"  />
			<g>
				<title>FhuF (PF06276)
"Ferric iron reductase FhuF-like transporter"</title>
				<polygon class="PF06276" points="240,40 252,28 254,28 254,52 252,52" stroke-linejoin="round" width="16" height="24" fill="rgb(76,151,221)" stroke="rgb(60,120,176)" stroke-width="1" opacity="0.75" />
			</g>
			<g>
				<title>IucA_IucC (PF04183)
"IucA / IucC family"</title>
				<rect class="PF04183" x="257" y="28" stroke-linejoin="round" width="25" height="24" fill="rgb(221,104,121)" stroke="rgb(176,83,96)" stroke-width="1" opacity="0.75" />
			</g>
		</g>
		<g>
			<title> (ABAYE2005)
conserved hypothetical protein</title>
			<polygon class=" (ABAYE2005)
conserved hypothetical protein" points="361,25 330,25 330,10 300,40 330,70 330,55 361,55" fill="rgb(255,255,255)" fill-opacity="1.0" stroke="rgb(0,0,0)" stroke-width="2"  />
			<g>
				<title>FhuF (PF06276)
"Ferric iron reductase FhuF-like transporter"</title>
				<polygon class="PF06276" points="304,40 316,28 318,28 318,52 316,52" stroke-linejoin="round" width="17" height="24" fill="rgb(76,151,221)" stroke="rgb(60,120,176)" stroke-width="1" opacity="0.75" />
			</g>
			<g>
				<title>IucA_IucC (PF04183)
"IucA / IucC family"</title>
				<rect class="PF04183" x="320" y="28" stroke-linejoin="round" width="24" height="24" fill="rgb(221,104,121)" stroke="rgb(176,83,96)" stroke-width="1" opacity="0.75" />
			</g>
		</g>
		<g>
			<title> (ABAYE2006)
putative multidrug resistance protein (MFS superfamily)</title>
			<polygon class=" (ABAYE2006)
putative multidrug resistance protein (MFS superfamily)" points="409,25 391,25 391,10 361,40 391,70 391,55 409,55" fill="rgb(255,255,255)" fill-opacity="1.0" stroke="rgb(0,0,0)" stroke-width="2"  />
			<g>
				<title>MFS_1 (PF07690)
"Major Facilitator Superfamily"</title>
				<polygon class="PF07690" points="367,38 377,28 406,28 406,52 377,52 367,42" stroke-linejoin="round" width="39" height="24" fill="rgb(193,224,74)" stroke="rgb(154,179,59)" stroke-width="1" opacity="0.75" />
			</g>
		</g>
		<g>
			<title> (ABAYE2007)
putative lysine/ornithine N-monooxygenase</title>
			<polygon class=" (ABAYE2007)
putative lysine/ornithine N-monooxygenase" points="457,25 440,25 440,10 410,40 440,70 440,55 457,55" fill="rgb(255,255,255)" fill-opacity="1.0" stroke="rgb(0,0,0)" stroke-width="2"  />
			<g>
				<title>Lys_Orn_oxgnase (PF13434)
"L-lysine 6-monooxygenase/L-ornithine 5-monooxygenase"</title>
				<polygon class="PF13434" points="423,31 426,28 457,28 457,52 426,52 423,49" stroke-linejoin="round" width="34" height="24" fill="rgb(81,213,119)" stroke="rgb(64,170,95)" stroke-width="1" opacity="0.75" />
			</g>
		</g>
		<g>
			<title> (ABAYE2008)
putative siderophore biosynthesis protein</title>
			<polygon class=" (ABAYE2008)
putative siderophore biosynthesis protein" points="516,25 487,25 487,10 457,40 487,70 487,55 516,55" fill="rgb(255,255,255)" fill-opacity="1.0" stroke="rgb(0,0,0)" stroke-width="2"  />
			<g>
				<title>FhuF (PF06276)
"Ferric iron reductase FhuF-like transporter"</title>
				<polygon class="PF06276" points="461,40 473,28 475,28 475,52 473,52" stroke-linejoin="round" width="16" height="24" fill="rgb(76,151,221)" stroke="rgb(60,120,176)" stroke-width="1" opacity="0.75" />
			</g>
			<g>
				<title>IucA_IucC (PF04183)
"IucA / IucC family"</title>
				<rect class="PF04183" x="478" y="28" stroke-linejoin="round" width="23" height="24" fill="rgb(221,104,121)" stroke="rgb(176,83,96)" stroke-width="1" opacity="0.75" />
			</g>
		</g>
	</g>
</svg>
