<svg version="1.1" baseProfile="full" xmlns="http://www.w3.org/2000/svg" width="330.8" height="80">
	<g>
		<line x1="10" y1="40.0" x2="320.8" y2="40.0" style="stroke:rgb(70,70,70); stroke-width:3 "/>
		<g>
			<title>pirE2
piricyclamide precursor</title>
			<polygon class="pirE2
piricyclamide precursor" points="10,10 14,40 10,70" fill="rgb(255,255,255)" fill-opacity="1.0" stroke="rgb(0,0,0)" stroke-width="2"  />
			<g>
				<title>DUF5840 (PF19158)
"Family of unknown function (DUF5840)"</title>
				<polygon class="PF19158" points="10,30 11,40 10,50" stroke-linejoin="round" width="4" height="24" fill="rgb(57,105,188)" stroke="rgb(45,83,150)" stroke-width="1" opacity="0.75" />
			</g>
		</g>
		<g>
			<title>pirE3
piricyclamide precursor</title>
			<polygon class="pirE3
piricyclamide precursor" points="22,10 27,40 22,70" fill="rgb(255,255,255)" fill-opacity="1.0" stroke="rgb(0,0,0)" stroke-width="2"  />
			<g>
				<title>DUF5840 (PF19158)
"Family of unknown function (DUF5840)"</title>
				<polygon class="PF19158" points="22,28 24,40 22,52" stroke-linejoin="round" width="5" height="24" fill="rgb(57,105,188)" stroke="rgb(45,83,150)" stroke-width="1" opacity="0.75" />
			</g>
		</g>
		<g>
			<title>pirF
prenyltransferase</title>
			<polygon class="pirF
prenyltransferase" points="36,10 65,40 36,70" fill="rgb(255,255,255)" fill-opacity="1.0" stroke="rgb(0,0,0)" stroke-width="2"  />
			<g>
				<title>DUF5838 (PF19156)
"Family of unknown function (DUF5838)"</title>
				<polygon class="PF19156" points="37,28 49,28 61,40 49,52 37,52" stroke-linejoin="round" width="27" height="24" fill="rgb(143,78,197)" stroke="rgb(114,62,157)" stroke-width="1" opacity="0.75" />
			</g>
		</g>
		<g>
			<title>
hypothetical protein</title>
			<polygon class="
hypothetical protein" points="66,10 81,40 66,70" fill="rgb(255,255,255)" fill-opacity="1.0" stroke="rgb(0,0,0)" stroke-width="2"  />
			<g>
				<title>DUF29 (PF01724)
"Domain of unknown function DUF29"</title>
				<polygon class="PF01724" points="67,28 71,28 77,40 71,52 67,52" stroke-linejoin="round" width="13" height="24" fill="rgb(104,61,184)" stroke="rgb(83,48,147)" stroke-width="1" opacity="0.75" />
			</g>
		</g>
		<g>
			<title>
hypothetical protein</title>
			<polygon class="
hypothetical protein" points="83,10 102,40 83,70" fill="rgb(255,255,255)" fill-opacity="1.0" stroke="rgb(0,0,0)" stroke-width="2"  />
			<g>
				<title>Uma2 (PF05685)
"Putative restriction endonuclease"</title>
				<polygon class="PF05685" points="84,28 91,28 98,40 91,52 84,52" stroke-linejoin="round" width="17" height="24" fill="rgb(123,107,219)" stroke="rgb(98,85,175)" stroke-width="1" opacity="0.75" />
			</g>
		</g>
		<g>
			<title>
hypothetical protein</title>
			<polygon class="
hypothetical protein" points="103,10 125,40 103,70" fill="rgb(255,255,255)" fill-opacity="1.0" stroke="rgb(0,0,0)" stroke-width="2"  />
			<g>
				<title>Uma2 (PF05685)
"Putative restriction endonuclease"</title>
				<polygon class="PF05685" points="105,28 113,28 122,40 122,40 113,52 105,52" stroke-linejoin="round" width="17" height="24" fill="rgb(123,107,219)" stroke="rgb(98,85,175)" stroke-width="1" opacity="0.75" />
			</g>
		</g>
		<g>
			<title>pirA
N-terminal cyanobactin protease</title>
			<polygon class="pirA
N-terminal cyanobactin protease" points="126,25 160,25 160,10 190,40 160,70 160,55 126,55" fill="rgb(255,255,255)" fill-opacity="1.0" stroke="rgb(0,0,0)" stroke-width="2"  />
			<g>
				<title>Peptidase_S8 (PF00082)
"Subtilase family"</title>
				<rect class="PF00082" x="127" y="28" stroke-linejoin="round" width="28" height="24" fill="rgb(193,159,94)" stroke="rgb(154,127,75)" stroke-width="1" opacity="0.75" />
			</g>
			<g>
				<title>PatG_D (PF18047)
"PatG Domain"</title>
				<rect class="PF18047" x="162" y="28" stroke-linejoin="round" width="11" height="24" fill="rgb(91,195,69)" stroke="rgb(72,156,55)" stroke-width="1" opacity="0.75" />
			</g>
			<g>
				<title>PatG_C (PF18065)
"PatG C-terminal"</title>
				<polygon class="PF18065" points="178,32 186,40 178,48" stroke-linejoin="round" width="11" height="24" fill="rgb(93,82,184)" stroke="rgb(74,65,147)" stroke-width="1" opacity="0.75" />
			</g>
		</g>
		<g>
			<title>pirB
hypothetical protein</title>
			<polygon class="pirB
hypothetical protein" points="195,10 202,40 195,70" fill="rgb(255,255,255)" fill-opacity="1.0" stroke="rgb(0,0,0)" stroke-width="2"  />
		</g>
		<g>
			<title>pirC
hypothetical protein</title>
			<polygon class="pirC
hypothetical protein" points="203,10 210,40 203,70" fill="rgb(255,255,255)" fill-opacity="1.0" stroke="rgb(0,0,0)" stroke-width="2"  />
		</g>
		<g>
			<title>pirE4
piricyclamide precursor</title>
			<polygon class="pirE4
piricyclamide precursor" points="215,10 220,40 215,70" fill="rgb(255,255,255)" fill-opacity="1.0" stroke="rgb(0,0,0)" stroke-width="2"  />
		</g>
		<g>
			<title>
hypothetical protein</title>
			<polygon class="
hypothetical protein" points="223,40 249,10 249,70" fill="rgb(255,255,255)" fill-opacity="1.0" stroke="rgb(0,0,0)" stroke-width="2"  />
			<g>
				<title>Uma2 (PF05685)
"Putative restriction endonuclease"</title>
				<polygon class="PF05685" points="228,39 238,28 245,28 245,52 238,52 228,41" stroke-linejoin="round" width="17" height="24" fill="rgb(123,107,219)" stroke="rgb(98,85,175)" stroke-width="1" opacity="0.75" />
			</g>
		</g>
		<g>
			<title>pirG
C-terminal cyanoabactin protease</title>
			<polygon class="pirG
C-terminal cyanoabactin protease" points="251,25 290,25 290,10 320,40 290,70 290,55 251,55" fill="rgb(255,255,255)" fill-opacity="1.0" stroke="rgb(0,0,0)" stroke-width="2"  />
			<g>
				<title>Peptidase_S8 (PF00082)
"Subtilase family"</title>
				<rect class="PF00082" x="253" y="28" stroke-linejoin="round" width="32" height="24" fill="rgb(193,159,94)" stroke="rgb(154,127,75)" stroke-width="1" opacity="0.75" />
			</g>
			<g>
				<title>PatG_D (PF18047)
"PatG Domain"</title>
				<polygon class="PF18047" points="293,28 303,28 304,29 304,51 303,52 293,52" stroke-linejoin="round" width="11" height="24" fill="rgb(91,195,69)" stroke="rgb(72,156,55)" stroke-width="1" opacity="0.75" />
			</g>
			<g>
				<title>PatG_C (PF18065)
"PatG C-terminal"</title>
				<polygon class="PF18065" points="309,34 315,40 309,46" stroke-linejoin="round" width="11" height="24" fill="rgb(93,82,184)" stroke="rgb(74,65,147)" stroke-width="1" opacity="0.75" />
			</g>
		</g>
	</g>
</svg>
