<svg version="1.1" baseProfile="full" xmlns="http://www.w3.org/2000/svg" width="463.93333333333334" height="80">
	<g>
		<line x1="10" y1="40.0" x2="453.93333333333334" y2="40.0" style="stroke:rgb(70,70,70); stroke-width:3 "/>
		<g>
			<title>suiA
suicin 3908 precursor</title>
			<polygon class="suiA
suicin 3908 precursor" points="90,10 95,40 90,70" fill="rgb(255,255,255)" fill-opacity="1.0" stroke="rgb(0,0,0)" stroke-width="2"  />
			<g>
				<title>L_biotic_typeA (PF04604)
"Type-A lantibiotic"</title>
				<polygon class="PF04604" points="90,26 92,40 90,54" stroke-linejoin="round" width="4" height="24" fill="rgb(206,129,75)" stroke="rgb(164,103,60)" stroke-width="1" opacity="0.75" />
			</g>
		</g>
		<g>
			<title>suiM
synthetase</title>
			<polygon class="suiM
synthetase" points="98,25 151,25 151,10 181,40 151,70 151,55 98,55" fill="rgb(255,255,255)" fill-opacity="1.0" stroke="rgb(0,0,0)" stroke-width="2"  />
			<g>
				<title>DUF4135 (PF13575)
"Domain of unknown function (DUF4135)"</title>
				<rect class="PF13575" x="107" y="28" stroke-linejoin="round" width="35" height="24" fill="rgb(228,84,217)" stroke="rgb(182,67,173)" stroke-width="1" opacity="0.75" />
			</g>
			<g>
				<title>LANC_like (PF05147)
"Lanthionine synthetase C-like protein"</title>
				<polygon class="PF05147" points="150,28 165,28 177,40 165,52 150,52" stroke-linejoin="round" width="29" height="24" fill="rgb(129,182,79)" stroke="rgb(103,145,63)" stroke-width="1" opacity="0.75" />
			</g>
		</g>
		<g>
			<title>suiT
ABC transporter</title>
			<polygon class="suiT
ABC transporter" points="182,25 221,25 221,10 251,40 221,70 221,55 182,55" fill="rgb(255,255,255)" fill-opacity="1.0" stroke="rgb(0,0,0)" stroke-width="2"  />
			<g>
				<title>Peptidase_C39 (PF03412)
"Peptidase C39 family"</title>
				<rect class="PF03412" x="182" y="28" stroke-linejoin="round" width="13" height="24" fill="rgb(214,226,77)" stroke="rgb(171,180,61)" stroke-width="1" opacity="0.75" />
			</g>
			<g>
				<title>ABC_membrane (PF00664)
"ABC transporter transmembrane region"</title>
				<rect class="PF00664" x="198" y="28" stroke-linejoin="round" width="26" height="24" fill="rgb(149,226,73)" stroke="rgb(119,180,58)" stroke-width="1" opacity="0.75" />
			</g>
			<g>
				<title>ABC_tran (PF00005)
"ABC transporter"</title>
				<polygon class="PF00005" points="230,28 234,28 245,39 245,41 234,52 230,52" stroke-linejoin="round" width="15" height="24" fill="rgb(129,201,63)" stroke="rgb(103,160,50)" stroke-width="1" opacity="0.75" />
			</g>
		</g>
		<g>
			<title>suiF
immunity protein</title>
			<polygon class="suiF
immunity protein" points="250,25 250,25 250,10 280,40 250,70 250,55 250,55" fill="rgb(255,255,255)" fill-opacity="1.0" stroke="rgb(0,0,0)" stroke-width="2"  />
			<g>
				<title>ABC_tran (PF00005)
"ABC transporter"</title>
				<rect class="PF00005" x="251" y="28" stroke-linejoin="round" width="13" height="24" fill="rgb(129,201,63)" stroke="rgb(103,160,50)" stroke-width="1" opacity="0.75" />
			</g>
		</g>
		<g>
			<title>suiE
immunity protein</title>
			<polygon class="suiE
immunity protein" points="280,10 304,40 280,70" fill="rgb(255,255,255)" fill-opacity="1.0" stroke="rgb(0,0,0)" stroke-width="2"  />
		</g>
		<g>
			<title>suiG
immunity protein</title>
			<polygon class="suiG
immunity protein" points="304,10 327,40 304,70" fill="rgb(255,255,255)" fill-opacity="1.0" stroke="rgb(0,0,0)" stroke-width="2"  />
		</g>
		<g>
			<title>suiK
sensor histidine kinase</title>
			<polygon class="suiK
sensor histidine kinase" points="327,25 347,25 347,10 377,40 347,70 347,55 327,55" fill="rgb(255,255,255)" fill-opacity="1.0" stroke="rgb(0,0,0)" stroke-width="2"  />
		</g>
		<g>
			<title>suiR
response regulator</title>
			<polygon class="suiR
response regulator" points="377,10 397,40 377,70" fill="rgb(255,255,255)" fill-opacity="1.0" stroke="rgb(0,0,0)" stroke-width="2"  />
			<g>
				<title>Response_reg (PF00072)
"Response regulator receiver domain"</title>
				<polygon class="PF00072" points="377,28 385,28 388,32 388,48 385,52 377,52" stroke-linejoin="round" width="11" height="24" fill="rgb(100,107,203)" stroke="rgb(80,85,162)" stroke-width="1" opacity="0.75" />
			</g>
			<g>
				<title>GerE (PF00196)
"Bacterial regulatory proteins, luxR family"</title>
				<polygon class="PF00196" points="390,35 393,40 390,45" stroke-linejoin="round" width="5" height="24" fill="rgb(219,94,82)" stroke="rgb(175,75,65)" stroke-width="1" opacity="0.75" />
			</g>
		</g>
		<g>
			<title>suiI
immunity protein</title>
			<polygon class="suiI
immunity protein" points="399,10 404,40 399,70" fill="rgb(255,255,255)" fill-opacity="1.0" stroke="rgb(0,0,0)" stroke-width="2"  />
		</g>
	</g>
</svg>
