<svg version="1.1" baseProfile="full" xmlns="http://www.w3.org/2000/svg" width="1256.6666666666667" height="80">
	<g>
		<line x1="10" y1="40.0" x2="1246.6666666666667" y2="40.0" style="stroke:rgb(70,70,70); stroke-width:3 "/>
		<g>
			<title>pdmP1
PdmP1</title>
			<polygon class="pdmP1
PdmP1" points="66,25 52,25 52,10 22,40 52,70 52,55 66,55" fill="rgb(255,255,255)" fill-opacity="1.0" stroke="rgb(0,0,0)" stroke-width="2"  />
			<g>
				<title>Biotin_carb_C (PF02785)
"Biotin carboxylase C-terminal domain"</title>
				<polygon class="PF02785" points="26,40 32,34 32,46" stroke-linejoin="round" width="10" height="24" fill="rgb(82,186,211)" stroke="rgb(65,148,168)" stroke-width="1" opacity="0.75" />
			</g>
			<g>
				<title>CPSase_L_D2 (PF02786)
"Carbamoyl-phosphate synthase L chain, ATP binding domain"</title>
				<polygon class="PF02786" points="34,32 38,28 54,28 54,52 38,52 34,48" stroke-linejoin="round" width="20" height="24" fill="rgb(190,97,205)" stroke="rgb(151,77,164)" stroke-width="1" opacity="0.75" />
			</g>
			<g>
				<title>Biotin_carb_N (PF00289)
"Biotin carboxylase, N-terminal domain"</title>
				<rect class="PF00289" x="55" y="28" stroke-linejoin="round" width="10" height="24" fill="rgb(59,114,187)" stroke="rgb(47,91,149)" stroke-width="1" opacity="0.75" />
			</g>
		</g>
		<g>
			<title>pdmP2
PdmP2</title>
			<polygon class="pdmP2
PdmP2" points="67,40 82,10 82,70" fill="rgb(255,255,255)" fill-opacity="1.0" stroke="rgb(0,0,0)" stroke-width="2"  />
			<g>
				<title>Biotin_lipoyl (PF00364)
"Biotin-requiring enzyme"</title>
				<polygon class="PF00364" points="70,40 75,30 75,50" stroke-linejoin="round" width="7" height="24" fill="rgb(67,214,213)" stroke="rgb(53,171,170)" stroke-width="1" opacity="0.75" />
			</g>
		</g>
		<g>
			<title>pdmP3
PdmP3</title>
			<polygon class="pdmP3
PdmP3" points="143,25 118,25 118,10 88,40 118,70 118,55 143,55" fill="rgb(255,255,255)" fill-opacity="1.0" stroke="rgb(0,0,0)" stroke-width="2"  />
		</g>
		<g>
			<title>pdmY
PdmY</title>
			<polygon class="pdmY
PdmY" points="178,25 175,25 175,10 145,40 175,70 175,55 178,55" fill="rgb(255,255,255)" fill-opacity="1.0" stroke="rgb(0,0,0)" stroke-width="2"  />
			<g>
				<title>GDP_Man_Dehyd (PF16363)
"GDP-mannose 4,6 dehydratase"</title>
				<polygon class="PF16363" points="149,40 161,28 177,28 177,52 161,52" stroke-linejoin="round" width="30" height="24" fill="rgb(162,221,65)" stroke="rgb(129,176,51)" stroke-width="1" opacity="0.75" />
			</g>
		</g>
		<g>
			<title>pdmX
PdmX</title>
			<polygon class="pdmX
PdmX" points="213,25 208,25 208,10 178,40 208,70 208,55 213,55" fill="rgb(255,255,255)" fill-opacity="1.0" stroke="rgb(0,0,0)" stroke-width="2"  />
			<g>
				<title>NTP_transferase (PF00483)
"Nucleotidyl transferase"</title>
				<polygon class="PF00483" points="189,33 194,28 212,28 212,52 194,52 189,47" stroke-linejoin="round" width="23" height="24" fill="rgb(198,101,87)" stroke="rgb(158,80,69)" stroke-width="1" opacity="0.75" />
			</g>
		</g>
		<g>
			<title>pdmW
PdmW</title>
			<polygon class="pdmW
PdmW" points="253,25 243,25 243,10 213,40 243,70 243,55 253,55" fill="rgb(255,255,255)" fill-opacity="1.0" stroke="rgb(0,0,0)" stroke-width="2"  />
			<g>
				<title>p450 (PF00067)
"Cytochrome P450"</title>
				<polygon class="PF00067" points="217,40 229,28 237,28 237,52 229,52" stroke-linejoin="round" width="22" height="24" fill="rgb(85,216,107)" stroke="rgb(68,172,85)" stroke-width="1" opacity="0.75" />
			</g>
		</g>
		<g>
			<title>pdmV
PdmV</title>
			<polygon class="pdmV
PdmV" points="259,25 262,25 262,10 292,40 262,70 262,55 259,55" fill="rgb(255,255,255)" fill-opacity="1.0" stroke="rgb(0,0,0)" stroke-width="2"  />
			<g>
				<title>Bac_luciferase (PF00296)
"Luciferase-like monooxygenase"</title>
				<polygon class="PF00296" points="260,28 275,28 287,40 275,52 260,52" stroke-linejoin="round" width="28" height="24" fill="rgb(180,112,78)" stroke="rgb(144,89,62)" stroke-width="1" opacity="0.75" />
			</g>
		</g>
		<g>
			<title>pdmU
PdmU</title>
			<polygon class="pdmU
PdmU" points="296,25 303,25 303,10 333,40 303,70 303,55 296,55" fill="rgb(255,255,255)" fill-opacity="1.0" stroke="rgb(0,0,0)" stroke-width="2"  />
			<g>
				<title>DegT_DnrJ_EryC1 (PF01041)
"DegT/DnrJ/EryC1/StrS aminotransferase family"</title>
				<polygon class="PF01041" points="296,28 317,28 329,40 317,52 296,52" stroke-linejoin="round" width="36" height="24" fill="rgb(59,139,191)" stroke="rgb(47,111,152)" stroke-width="1" opacity="0.75" />
			</g>
		</g>
		<g>
			<title>pdmT
PdmT</title>
			<polygon class="pdmT
PdmT" points="369,25 365,25 365,10 335,40 365,70 365,55 369,55" fill="rgb(255,255,255)" fill-opacity="1.0" stroke="rgb(0,0,0)" stroke-width="2"  />
			<g>
				<title>Methyltransf_2 (PF00891)
"O-methyltransferase domain"</title>
				<polygon class="PF00891" points="339,40 351,28 357,28 357,52 351,52" stroke-linejoin="round" width="20" height="24" fill="rgb(50,51,190)" stroke="rgb(39,40,152)" stroke-width="1" opacity="0.75" />
			</g>
			<g>
				<title>Dimerisation2 (PF16864)
"Dimerisation domain"</title>
				<rect class="PF16864" x="359" y="28" stroke-linejoin="round" width="8" height="24" fill="rgb(84,199,85)" stroke="rgb(67,159,68)" stroke-width="1" opacity="0.75" />
			</g>
		</g>
		<g>
			<title>pdmS
PdmS</title>
			<polygon class="pdmS
PdmS" points="375,25 388,25 388,10 418,40 388,70 388,55 375,55" fill="rgb(255,255,255)" fill-opacity="1.0" stroke="rgb(0,0,0)" stroke-width="2"  />
			<g>
				<title>UDPGT (PF00201)
"UDP-glucoronosyl and UDP-glucosyl transferase"</title>
				<polygon class="PF00201" points="397,28 402,28 414,40 402,52 397,52" stroke-linejoin="round" width="20" height="24" fill="rgb(225,150,107)" stroke="rgb(180,120,85)" stroke-width="1" opacity="0.75" />
			</g>
		</g>
		<g>
			<title>pdmO
PdmO</title>
			<polygon class="pdmO
PdmO" points="419,10 442,40 419,70" fill="rgb(255,255,255)" fill-opacity="1.0" stroke="rgb(0,0,0)" stroke-width="2"  />
			<g>
				<title>Methyltransf_25 (PF13649)
"Methyltransferase domain"</title>
				<polygon class="PF13649" points="423,28 429,28 432,32 432,48 429,52 423,52" stroke-linejoin="round" width="9" height="24" fill="rgb(227,135,74)" stroke="rgb(181,108,59)" stroke-width="1" opacity="0.75" />
			</g>
		</g>
		<g>
			<title>pdmQ
PdmQ</title>
			<polygon class="pdmQ
PdmQ" points="535,25 522,25 522,10 492,40 522,70 522,55 535,55" fill="rgb(255,255,255)" fill-opacity="1.0" stroke="rgb(0,0,0)" stroke-width="2"  />
			<g>
				<title>UDPGT (PF00201)
"UDP-glucoronosyl and UDP-glucosyl transferase"</title>
				<polygon class="PF00201" points="496,40 508,28 510,28 510,52 508,52 496,40" stroke-linejoin="round" width="14" height="24" fill="rgb(225,150,107)" stroke="rgb(180,120,85)" stroke-width="1" opacity="0.75" />
			</g>
			<g>
				<title>Glyco_transf_28 (PF03033)
"Glycosyltransferase family 28 N-terminal domain"</title>
				<rect class="PF03033" x="521" y="28" stroke-linejoin="round" width="14" height="24" fill="rgb(157,218,79)" stroke="rgb(125,174,63)" stroke-width="1" opacity="0.75" />
			</g>
		</g>
		<g>
			<title>pdmR1
PdmR1</title>
			<polygon class="pdmR1
PdmR1" points="537,25 541,25 541,10 571,40 541,70 541,55 537,55" fill="rgb(255,255,255)" fill-opacity="1.0" stroke="rgb(0,0,0)" stroke-width="2"  />
			<g>
				<title>ABC_tran (PF00005)
"ABC transporter"</title>
				<polygon class="PF00005" points="542,28 555,28 556,29 556,51 555,52 542,52" stroke-linejoin="round" width="14" height="24" fill="rgb(129,201,63)" stroke="rgb(103,160,50)" stroke-width="1" opacity="0.75" />
			</g>
			<g>
				<title>DUF4162 (PF13732)
"Domain of unknown function (DUF4162)"</title>
				<polygon class="PF13732" points="561,34 567,40 561,46" stroke-linejoin="round" width="9" height="24" fill="rgb(100,223,143)" stroke="rgb(80,178,114)" stroke-width="1" opacity="0.75" />
			</g>
		</g>
		<g>
			<title>pdmR2
PdmR2</title>
			<polygon class="pdmR2
PdmR2" points="572,10 598,40 572,70" fill="rgb(255,255,255)" fill-opacity="1.0" stroke="rgb(0,0,0)" stroke-width="2"  />
			<g>
				<title>ABC2_membrane (PF01061)
"ABC-2 type transporter"</title>
				<polygon class="PF01061" points="572,28 584,28 593,39 593,41 584,52 572,52" stroke-linejoin="round" width="21" height="24" fill="rgb(139,217,106)" stroke="rgb(111,173,84)" stroke-width="1" opacity="0.75" />
			</g>
		</g>
		<g>
			<title>pdmN
PdmN</title>
			<polygon class="pdmN
PdmN" points="662,25 630,25 630,10 600,40 630,70 630,55 662,55" fill="rgb(255,255,255)" fill-opacity="1.0" stroke="rgb(0,0,0)" stroke-width="2"  />
			<g>
				<title>Asn_synthase (PF00733)
"Asparagine synthase"</title>
				<polygon class="PF00733" points="604,40 616,28 638,28 638,52 616,52" stroke-linejoin="round" width="37" height="24" fill="rgb(97,201,176)" stroke="rgb(77,160,140)" stroke-width="1" opacity="0.75" />
			</g>
			<g>
				<title>GATase_7 (PF13537)
"Glutamine amidotransferase domain"</title>
				<rect class="PF13537" x="645" y="28" stroke-linejoin="round" width="12" height="24" fill="rgb(200,63,57)" stroke="rgb(160,50,45)" stroke-width="1" opacity="0.75" />
			</g>
		</g>
		<g>
			<title>pdmM
PdmM</title>
			<polygon class="pdmM
PdmM" points="662,40 677,10 677,70" fill="rgb(255,255,255)" fill-opacity="1.0" stroke="rgb(0,0,0)" stroke-width="2"  />
			<g>
				<title>Putative_PNPOx (PF01243)
"Pyridoxamine 5'-phosphate oxidase"</title>
				<polygon class="PF01243" points="667,36 671,28 675,28 675,52 671,52 667,44" stroke-linejoin="round" width="8" height="24" fill="rgb(177,193,67)" stroke="rgb(141,154,53)" stroke-width="1" opacity="0.75" />
			</g>
		</g>
		<g>
			<title>pdmL
PdmL</title>
			<polygon class="pdmL
PdmL" points="698,10 712,40 698,70" fill="rgb(255,255,255)" fill-opacity="1.0" stroke="rgb(0,0,0)" stroke-width="2"  />
			<g>
				<title>Cupin_2 (PF07883)
"Cupin domain"</title>
				<polygon class="PF07883" points="702,28 703,28 709,40 709,40 703,52 702,52" stroke-linejoin="round" width="7" height="24" fill="rgb(211,192,74)" stroke="rgb(168,153,59)" stroke-width="1" opacity="0.75" />
			</g>
		</g>
		<g>
			<title>pdmA
PdmA</title>
			<polygon class="pdmA
PdmA" points="712,25 724,25 724,10 754,40 724,70 724,55 712,55" fill="rgb(255,255,255)" fill-opacity="1.0" stroke="rgb(0,0,0)" stroke-width="2"  />
			<g>
				<title>ketoacyl-synt (PF00109)
"Beta-ketoacyl synthase, N-terminal domain"</title>
				<rect class="PF00109" x="712" y="28" stroke-linejoin="round" width="25" height="24" fill="rgb(112,116,228)" stroke="rgb(89,92,182)" stroke-width="1" opacity="0.75" />
			</g>
			<g>
				<title>Ketoacyl-synt_C (PF02801)
"Beta-ketoacyl synthase, C-terminal domain"</title>
				<polygon class="PF02801" points="738,28 738,28 749,39 749,41 738,52 738,52" stroke-linejoin="round" width="11" height="24" fill="rgb(215,78,102)" stroke="rgb(172,62,81)" stroke-width="1" opacity="0.75" />
			</g>
		</g>
		<g>
			<title>pdmB
PdmB</title>
			<polygon class="pdmB
PdmB" points="756,25 765,25 765,10 795,40 765,70 765,55 756,55" fill="rgb(255,255,255)" fill-opacity="1.0" stroke="rgb(0,0,0)" stroke-width="2"  />
			<g>
				<title>ketoacyl-synt (PF00109)
"Beta-ketoacyl synthase, N-terminal domain"</title>
				<rect class="PF00109" x="756" y="28" stroke-linejoin="round" width="23" height="24" fill="rgb(112,116,228)" stroke="rgb(89,92,182)" stroke-width="1" opacity="0.75" />
			</g>
			<g>
				<title>Ketoacyl-synt_C (PF02801)
"Beta-ketoacyl synthase, C-terminal domain"</title>
				<polygon class="PF02801" points="779,28 779,28 789,38 789,42 779,52 779,52" stroke-linejoin="round" width="10" height="24" fill="rgb(215,78,102)" stroke="rgb(172,62,81)" stroke-width="1" opacity="0.75" />
			</g>
		</g>
		<g>
			<title>pdmC
PdmC</title>
			<polygon class="pdmC
PdmC" points="796,10 804,40 796,70" fill="rgb(255,255,255)" fill-opacity="1.0" stroke="rgb(0,0,0)" stroke-width="2"  />
			<g>
				<title>PP-binding (PF00550)
"Phosphopantetheine attachment site"</title>
				<polygon class="PF00550" points="796,28 797,28 801,40 797,52 796,52" stroke-linejoin="round" width="7" height="24" fill="rgb(103,191,88)" stroke="rgb(82,152,70)" stroke-width="1" opacity="0.75" />
			</g>
		</g>
		<g>
			<title>pdmD
PdmD</title>
			<polygon class="pdmD
PdmD" points="805,10 820,40 805,70" fill="rgb(255,255,255)" fill-opacity="1.0" stroke="rgb(0,0,0)" stroke-width="2"  />
			<g>
				<title>Polyketide_cyc (PF03364)
"Polyketide cyclase / dehydrase and lipid transport"</title>
				<polygon class="PF03364" points="806,28 810,28 817,40 810,52 806,52" stroke-linejoin="round" width="12" height="24" fill="rgb(221,94,106)" stroke="rgb(176,75,84)" stroke-width="1" opacity="0.75" />
			</g>
		</g>
		<g>
			<title>pdmE
PdmE</title>
			<polygon class="pdmE
PdmE" points="820,10 835,40 820,70" fill="rgb(255,255,255)" fill-opacity="1.0" stroke="rgb(0,0,0)" stroke-width="2"  />
			<g>
				<title>Anthrone_oxy (PF08592)
"Anthrone oxygenase"</title>
				<polygon class="PF08592" points="824,28 825,28 832,40 825,52 824,52" stroke-linejoin="round" width="10" height="24" fill="rgb(75,196,107)" stroke="rgb(60,156,85)" stroke-width="1" opacity="0.75" />
			</g>
		</g>
		<g>
			<title>pdmF
PdmF</title>
			<polygon class="pdmF
PdmF" points="836,25 840,25 840,10 870,40 840,70 840,55 836,55" fill="rgb(255,255,255)" fill-opacity="1.0" stroke="rgb(0,0,0)" stroke-width="2"  />
			<g>
				<title>Methyltransf_2 (PF00891)
"O-methyltransferase domain"</title>
				<polygon class="PF00891" points="847,28 853,28 865,40 853,52 847,52" stroke-linejoin="round" width="20" height="24" fill="rgb(50,51,190)" stroke="rgb(39,40,152)" stroke-width="1" opacity="0.75" />
			</g>
		</g>
		<g>
			<title>pdmG
PdmG</title>
			<polygon class="pdmG
PdmG" points="872,10 896,40 872,70" fill="rgb(255,255,255)" fill-opacity="1.0" stroke="rgb(0,0,0)" stroke-width="2"  />
			<g>
				<title>adh_short_C2 (PF13561)
"Enoyl-(Acyl carrier protein) reductase"</title>
				<polygon class="PF13561" points="873,28 883,28 892,40 883,52 873,52" stroke-linejoin="round" width="23" height="24" fill="rgb(73,205,127)" stroke="rgb(58,164,101)" stroke-width="1" opacity="0.75" />
			</g>
		</g>
		<g>
			<title>pdmH
PdmH</title>
			<polygon class="pdmH
PdmH" points="896,10 907,40 896,70" fill="rgb(255,255,255)" fill-opacity="1.0" stroke="rgb(0,0,0)" stroke-width="2"  />
			<g>
				<title>ABM (PF03992)
"Antibiotic biosynthesis monooxygenase"</title>
				<polygon class="PF03992" points="896,28 899,28 903,37 903,43 899,52 896,52" stroke-linejoin="round" width="7" height="24" fill="rgb(193,84,127)" stroke="rgb(154,67,101)" stroke-width="1" opacity="0.75" />
			</g>
		</g>
		<g>
			<title>pdmI
PdmI</title>
			<polygon class="pdmI
PdmI" points="908,10 918,40 908,70" fill="rgb(255,255,255)" fill-opacity="1.0" stroke="rgb(0,0,0)" stroke-width="2"  />
			<g>
				<title>ABM (PF03992)
"Antibiotic biosynthesis monooxygenase"</title>
				<polygon class="PF03992" points="908,28 910,28 915,40 915,40 910,52 908,52" stroke-linejoin="round" width="7" height="24" fill="rgb(193,84,127)" stroke="rgb(154,67,101)" stroke-width="1" opacity="0.75" />
			</g>
		</g>
		<g>
			<title>pdmJ
PdmJ</title>
			<polygon class="pdmJ
PdmJ" points="961,25 950,25 950,10 920,40 950,70 950,55 961,55" fill="rgb(255,255,255)" fill-opacity="1.0" stroke="rgb(0,0,0)" stroke-width="2"  />
			<g>
				<title>p450 (PF00067)
"Cytochrome P450"</title>
				<polygon class="PF00067" points="924,40 933,31 933,49" stroke-linejoin="round" width="10" height="24" fill="rgb(85,216,107)" stroke="rgb(68,172,85)" stroke-width="1" opacity="0.75" />
			</g>
			<g>
				<title>p450 (PF00067)
"Cytochrome P450"</title>
				<polygon class="PF00067" points="933,31 936,28 956,28 956,52 936,52 933,49" stroke-linejoin="round" width="23" height="24" fill="rgb(85,216,107)" stroke="rgb(68,172,85)" stroke-width="1" opacity="0.75" />
			</g>
		</g>
		<g>
			<title>pdmK
PdmK</title>
			<polygon class="pdmK
PdmK" points="965,10 976,40 965,70" fill="rgb(255,255,255)" fill-opacity="1.0" stroke="rgb(0,0,0)" stroke-width="2"  />
			<g>
				<title>Cyclase_polyket (PF04673)
"Polyketide synthesis cyclase"</title>
				<polygon class="PF04673" points="965,28 968,28 973,40 968,52 965,52" stroke-linejoin="round" width="10" height="24" fill="rgb(49,187,78)" stroke="rgb(39,149,62)" stroke-width="1" opacity="0.75" />
			</g>
		</g>
	</g>
</svg>
