<svg version="1.1" baseProfile="full" xmlns="http://www.w3.org/2000/svg" width="648.2666666666667" height="80">
	<g>
		<line x1="10" y1="40.0" x2="638.2666666666667" y2="40.0" style="stroke:rgb(70,70,70); stroke-width:3 "/>
		<g>
			<title> (BBP40_009495)
hypothetical protein</title>
			<polygon class=" (BBP40_009495)
hypothetical protein" points="44,25 40,25 40,10 10,40 40,70 40,55 44,55" fill="rgb(255,255,255)" fill-opacity="1.0" stroke="rgb(0,0,0)" stroke-width="2"  />
			<g>
				<title>Lactamase_B (PF00753)
"Metallo-beta-lactamase superfamily"</title>
				<polygon class="PF00753" points="23,31 26,28 38,28 38,52 26,52 23,49" stroke-linejoin="round" width="15" height="24" fill="rgb(206,198,96)" stroke="rgb(164,158,76)" stroke-width="1" opacity="0.75" />
			</g>
		</g>
		<g>
			<title> (BBP40_009496)
hypothetical protein</title>
			<polygon class=" (BBP40_009496)
hypothetical protein" points="149,25 96,25 96,10 66,40 96,70 96,55 149,55" fill="rgb(255,255,255)" fill-opacity="1.0" stroke="rgb(0,0,0)" stroke-width="2"  />
			<g>
				<title>Fungal_trans (PF04082)
"Fungal specific transcription factor domain"</title>
				<rect class="PF04082" x="101" y="28" stroke-linejoin="round" width="24" height="24" fill="rgb(51,172,200)" stroke="rgb(40,137,160)" stroke-width="1" opacity="0.75" />
			</g>
			<g>
				<title>Zn_clus (PF00172)
"Fungal Zn(2)-Cys(6) binuclear cluster domain"</title>
				<rect class="PF00172" x="143" y="28" stroke-linejoin="round" width="3" height="24" fill="rgb(121,178,76)" stroke="rgb(96,142,60)" stroke-width="1" opacity="0.75" />
			</g>
		</g>
		<g>
			<title> (BBP40_009497)
hypothetical protein</title>
			<polygon class=" (BBP40_009497)
hypothetical protein" points="257,25 243,25 243,10 213,40 243,70 243,55 257,55" fill="rgb(255,255,255)" fill-opacity="1.0" stroke="rgb(0,0,0)" stroke-width="2"  />
		</g>
		<g>
			<title> (BBP40_009498)
hypothetical protein</title>
			<polygon class=" (BBP40_009498)
hypothetical protein" points="466,25 310,25 310,10 280,40 310,70 310,55 466,55" fill="rgb(255,255,255)" fill-opacity="1.0" stroke="rgb(0,0,0)" stroke-width="2"  />
			<g>
				<title>PP-binding (PF00550)
"Phosphopantetheine attachment site"</title>
				<polygon class="PF00550" points="286,38 292,32 292,48 286,42" stroke-linejoin="round" width="6" height="24" fill="rgb(103,191,88)" stroke="rgb(82,152,70)" stroke-width="1" opacity="0.75" />
			</g>
			<g>
				<title>PS-DH (PF14765)
"Polyketide synthase dehydratase"</title>
				<rect class="PF14765" x="303" y="28" stroke-linejoin="round" width="29" height="24" fill="rgb(173,56,182)" stroke="rgb(138,44,145)" stroke-width="1" opacity="0.75" />
			</g>
			<g>
				<title>Acyl_transf_1 (PF00698)
"Acyl transferase domain"</title>
				<rect class="PF00698" x="341" y="28" stroke-linejoin="round" width="32" height="24" fill="rgb(59,176,209)" stroke="rgb(47,140,167)" stroke-width="1" opacity="0.75" />
			</g>
			<g>
				<title>KAsynt_C_assoc (PF16197)
"Ketoacyl-synthetase C-terminal extension"</title>
				<rect class="PF16197" x="377" y="28" stroke-linejoin="round" width="11" height="24" fill="rgb(240,150,172)" stroke="rgb(192,120,137)" stroke-width="1" opacity="0.75" />
			</g>
			<g>
				<title>Ketoacyl-synt_C (PF02801)
"Beta-ketoacyl synthase, C-terminal domain"</title>
				<rect class="PF02801" x="389" y="28" stroke-linejoin="round" width="12" height="24" fill="rgb(215,78,102)" stroke="rgb(172,62,81)" stroke-width="1" opacity="0.75" />
			</g>
			<g>
				<title>ketoacyl-synt (PF00109)
"Beta-ketoacyl synthase, N-terminal domain"</title>
				<rect class="PF00109" x="402" y="28" stroke-linejoin="round" width="25" height="24" fill="rgb(112,116,228)" stroke="rgb(89,92,182)" stroke-width="1" opacity="0.75" />
			</g>
			<g>
				<title>SAT (PF16073)
"Starter unit:ACP transacylase in aflatoxin biosynthesis"</title>
				<rect class="PF16073" x="440" y="28" stroke-linejoin="round" width="24" height="24" fill="rgb(77,115,183)" stroke="rgb(61,91,146)" stroke-width="1" opacity="0.75" />
			</g>
		</g>
		<g>
			<title> (BBP40_009499)
hypothetical protein</title>
			<polygon class=" (BBP40_009499)
hypothetical protein" points="481,25 496,25 496,10 526,40 496,70 496,55 481,55" fill="rgb(255,255,255)" fill-opacity="1.0" stroke="rgb(0,0,0)" stroke-width="2"  />
			<g>
				<title>Trp_DMAT (PF11991)
"Tryptophan dimethylallyltransferase"</title>
				<polygon class="PF11991" points="484,28 510,28 519,37 519,43 510,52 484,52" stroke-linejoin="round" width="35" height="24" fill="rgb(197,197,93)" stroke="rgb(157,157,74)" stroke-width="1" opacity="0.75" />
			</g>
		</g>
		<g>
			<title> (BBP40_009500)
hypothetical protein</title>
			<polygon class=" (BBP40_009500)
hypothetical protein" points="588,25 608,25 608,10 638,40 608,70 608,55 588,55" fill="rgb(255,255,255)" fill-opacity="1.0" stroke="rgb(0,0,0)" stroke-width="2"  />
			<g>
				<title>p450 (PF00067)
"Cytochrome P450"</title>
				<polygon class="PF00067" points="588,28 621,28 631,38 631,42 621,52 588,52" stroke-linejoin="round" width="43" height="24" fill="rgb(85,216,107)" stroke="rgb(68,172,85)" stroke-width="1" opacity="0.75" />
			</g>
		</g>
	</g>
</svg>
