<svg version="1.1" baseProfile="full" xmlns="http://www.w3.org/2000/svg" width="1228.1" height="80">
	<g>
		<line x1="10" y1="40.0" x2="1218.1" y2="40.0" style="stroke:rgb(70,70,70); stroke-width:3 "/>
		<g>
			<title>ptaA
PtaA</title>
			<polygon class="ptaA
PtaA" points="197,25 40,25 40,10 10,40 40,70 40,55 197,55" fill="rgb(255,255,255)" fill-opacity="1.0" stroke="rgb(0,0,0)" stroke-width="2"  />
			<g>
				<title>PP-binding (PF00550)
"Phosphopantetheine attachment site"</title>
				<polygon class="PF00550" points="23,31 26,28 29,28 29,52 26,52 23,49" stroke-linejoin="round" width="6" height="24" fill="rgb(103,191,88)" stroke="rgb(82,152,70)" stroke-width="1" opacity="0.75" />
			</g>
			<g>
				<title>PS-DH (PF14765)
"Polyketide synthase dehydratase"</title>
				<rect class="PF14765" x="37" y="28" stroke-linejoin="round" width="26" height="24" fill="rgb(173,56,182)" stroke="rgb(138,44,145)" stroke-width="1" opacity="0.75" />
			</g>
			<g>
				<title>Acyl_transf_1 (PF00698)
"Acyl transferase domain"</title>
				<rect class="PF00698" x="75" y="28" stroke-linejoin="round" width="32" height="24" fill="rgb(59,176,209)" stroke="rgb(47,140,167)" stroke-width="1" opacity="0.75" />
			</g>
			<g>
				<title>Ketoacyl-synt_C (PF02801)
"Beta-ketoacyl synthase, C-terminal domain"</title>
				<rect class="PF02801" x="122" y="28" stroke-linejoin="round" width="12" height="24" fill="rgb(215,78,102)" stroke="rgb(172,62,81)" stroke-width="1" opacity="0.75" />
			</g>
			<g>
				<title>ketoacyl-synt (PF00109)
"Beta-ketoacyl synthase, N-terminal domain"</title>
				<rect class="PF00109" x="135" y="28" stroke-linejoin="round" width="25" height="24" fill="rgb(112,116,228)" stroke="rgb(89,92,182)" stroke-width="1" opacity="0.75" />
			</g>
			<g>
				<title>SAT (PF16073)
"Starter unit:ACP transacylase in aflatoxin biosynthesis"</title>
				<rect class="PF16073" x="174" y="28" stroke-linejoin="round" width="19" height="24" fill="rgb(77,115,183)" stroke="rgb(61,91,146)" stroke-width="1" opacity="0.75" />
			</g>
		</g>
		<g>
			<title>ptaB
PtaB</title>
			<polygon class="ptaB
PtaB" points="215,25 218,25 218,10 248,40 218,70 218,55 215,55" fill="rgb(255,255,255)" fill-opacity="1.0" stroke="rgb(0,0,0)" stroke-width="2"  />
			<g>
				<title>Lactamase_B (PF00753)
"Metallo-beta-lactamase superfamily"</title>
				<polygon class="PF00753" points="220,28 232,28 235,31 235,49 232,52 220,52" stroke-linejoin="round" width="15" height="24" fill="rgb(206,198,96)" stroke="rgb(164,158,76)" stroke-width="1" opacity="0.75" />
			</g>
		</g>
		<g>
			<title>ptaC
PtaC</title>
			<polygon class="ptaC
PtaC" points="277,40 291,10 291,70" fill="rgb(255,255,255)" fill-opacity="1.0" stroke="rgb(0,0,0)" stroke-width="2"  />
			<g>
				<title>Anthrone_oxy (PF08592)
"Anthrone oxygenase"</title>
				<polygon class="PF08592" points="280,40 286,28 287,28 287,52 286,52" stroke-linejoin="round" width="10" height="24" fill="rgb(75,196,107)" stroke="rgb(60,156,85)" stroke-width="1" opacity="0.75" />
			</g>
		</g>
		<g>
			<title>ptaD
PtaD</title>
			<polygon class="ptaD
PtaD" points="312,10 332,40 312,70" fill="rgb(255,255,255)" fill-opacity="1.0" stroke="rgb(0,0,0)" stroke-width="2"  />
			<g>
				<title>EthD (PF07110)
"EthD domain"</title>
				<polygon class="PF07110" points="314,28 320,28 322,31 322,49 320,52 314,52" stroke-linejoin="round" width="8" height="24" fill="rgb(64,130,182)" stroke="rgb(51,104,145)" stroke-width="1" opacity="0.75" />
			</g>
		</g>
		<g>
			<title>ptaE
PtaE</title>
			<polygon class="ptaE
PtaE" points="351,25 397,25 397,10 427,40 397,70 397,55 351,55" fill="rgb(255,255,255)" fill-opacity="1.0" stroke="rgb(0,0,0)" stroke-width="2"  />
			<g>
				<title>Cu-oxidase_3 (PF07732)
"Multicopper oxidase"</title>
				<rect class="PF07732" x="358" y="28" stroke-linejoin="round" width="9" height="24" fill="rgb(80,81,179)" stroke="rgb(63,64,143)" stroke-width="1" opacity="0.75" />
			</g>
			<g>
				<title>Cu-oxidase (PF00394)
"Multicopper oxidase"</title>
				<rect class="PF00394" x="368" y="28" stroke-linejoin="round" width="15" height="24" fill="rgb(172,188,74)" stroke="rgb(137,150,59)" stroke-width="1" opacity="0.75" />
			</g>
			<g>
				<title>Cu-oxidase_2 (PF07731)
"Multicopper oxidase"</title>
				<rect class="PF07731" x="392" y="28" stroke-linejoin="round" width="14" height="24" fill="rgb(183,55,192)" stroke="rgb(146,44,153)" stroke-width="1" opacity="0.75" />
			</g>
		</g>
		<g>
			<title>ptaF
PtaF</title>
			<polygon class="ptaF
PtaF" points="433,40 459,10 459,70" fill="rgb(255,255,255)" fill-opacity="1.0" stroke="rgb(0,0,0)" stroke-width="2"  />
			<g>
				<title>NAD_binding_10 (PF13460)
"NAD(P)H-binding"</title>
				<polygon class="PF13460" points="438,39 447,28 458,28 458,52 447,52 438,41" stroke-linejoin="round" width="20" height="24" fill="rgb(188,201,78)" stroke="rgb(150,160,62)" stroke-width="1" opacity="0.75" />
			</g>
		</g>
		<g>
			<title>ptaG
PtaG</title>
			<polygon class="ptaG
PtaG" points="473,40 489,10 489,70" fill="rgb(255,255,255)" fill-opacity="1.0" stroke="rgb(0,0,0)" stroke-width="2"  />
		</g>
		<g>
			<title>ptaH
PtaH</title>
			<polygon class="ptaH
PtaH" points="550,25 550,25 550,10 520,40 550,70 550,55 550,55" fill="rgb(255,255,255)" fill-opacity="1.0" stroke="rgb(0,0,0)" stroke-width="2"  />
			<g>
				<title>Methyltransf_11 (PF08241)
"Methyltransferase domain"</title>
				<polygon class="PF08241" points="536,28 536,28 545,28 545,52 536,52 536,52" stroke-linejoin="round" width="9" height="24" fill="rgb(106,219,159)" stroke="rgb(84,175,127)" stroke-width="1" opacity="0.75" />
			</g>
		</g>
		<g>
			<title>ptaR1
PtaR1</title>
			<polygon class="ptaR1
PtaR1" points="593,25 614,25 614,10 644,40 614,70 614,55 593,55" fill="rgb(255,255,255)" fill-opacity="1.0" stroke="rgb(0,0,0)" stroke-width="2"  />
		</g>
		<g>
			<title>ptaR2
PtaR2</title>
			<polygon class="ptaR2
PtaR2" points="675,25 689,25 689,10 719,40 689,70 689,55 675,55" fill="rgb(255,255,255)" fill-opacity="1.0" stroke="rgb(0,0,0)" stroke-width="2"  />
			<g>
				<title>Zn_clus (PF00172)
"Fungal Zn(2)-Cys(6) binuclear cluster domain"</title>
				<rect class="PF00172" x="678" y="28" stroke-linejoin="round" width="3" height="24" fill="rgb(121,178,76)" stroke="rgb(96,142,60)" stroke-width="1" opacity="0.75" />
			</g>
			<g>
				<title>AflR (PF08493)
"Aflatoxin regulatory protein"</title>
				<polygon class="PF08493" points="698,28 703,28 708,33 708,47 703,52 698,52" stroke-linejoin="round" width="10" height="24" fill="rgb(86,63,214)" stroke="rgb(68,50,171)" stroke-width="1" opacity="0.75" />
			</g>
		</g>
		<g>
			<title>ptaI
PtaI</title>
			<polygon class="ptaI
PtaI" points="759,25 755,25 755,10 725,40 755,70 755,55 759,55" fill="rgb(255,255,255)" fill-opacity="1.0" stroke="rgb(0,0,0)" stroke-width="2"  />
			<g>
				<title>Methyltransf_25 (PF13649)
"Methyltransferase domain"</title>
				<rect class="PF13649" x="743" y="28" stroke-linejoin="round" width="9" height="24" fill="rgb(227,135,74)" stroke="rgb(181,108,59)" stroke-width="1" opacity="0.75" />
			</g>
		</g>
		<g>
			<title>ptaJ
PtaJ</title>
			<polygon class="ptaJ
PtaJ" points="778,25 792,25 792,10 822,40 792,70 792,55 778,55" fill="rgb(255,255,255)" fill-opacity="1.0" stroke="rgb(0,0,0)" stroke-width="2"  />
			<g>
				<title>Questin_oxidase (PF14027)
"Questin oxidase-like"</title>
				<polygon class="PF14027" points="783,28 806,28 816,38 816,42 806,52 783,52" stroke-linejoin="round" width="33" height="24" fill="rgb(77,150,178)" stroke="rgb(61,119,142)" stroke-width="1" opacity="0.75" />
			</g>
		</g>
		<g>
			<title>ptaK
PtaK</title>
			<polygon class="ptaK
PtaK" points="926,25 877,25 877,10 847,40 877,70 877,55 926,55" fill="rgb(255,255,255)" fill-opacity="1.0" stroke="rgb(0,0,0)" stroke-width="2"  />
			<g>
				<title>Cu-oxidase_2 (PF07731)
"Multicopper oxidase"</title>
				<rect class="PF07731" x="876" y="28" stroke-linejoin="round" width="15" height="24" fill="rgb(183,55,192)" stroke="rgb(146,44,153)" stroke-width="1" opacity="0.75" />
			</g>
			<g>
				<title>Cu-oxidase (PF00394)
"Multicopper oxidase"</title>
				<rect class="PF00394" x="896" y="28" stroke-linejoin="round" width="17" height="24" fill="rgb(172,188,74)" stroke="rgb(137,150,59)" stroke-width="1" opacity="0.75" />
			</g>
			<g>
				<title>Cu-oxidase_3 (PF07732)
"Multicopper oxidase"</title>
				<rect class="PF07732" x="913" y="28" stroke-linejoin="round" width="8" height="24" fill="rgb(80,81,179)" stroke="rgb(63,64,143)" stroke-width="1" opacity="0.75" />
			</g>
		</g>
		<g>
			<title>ptaL
PtaL</title>
			<polygon class="ptaL
PtaL" points="1023,25 1034,25 1034,10 1064,40 1034,70 1034,55 1023,55" fill="rgb(255,255,255)" fill-opacity="1.0" stroke="rgb(0,0,0)" stroke-width="2"  />
			<g>
				<title>Pyr_redox_2 (PF07992)
"Pyridine nucleotide-disulphide oxidoreductase"</title>
				<polygon class="PF07992" points="1023,28 1048,28 1052,32 1052,48 1048,52 1023,52" stroke-linejoin="round" width="29" height="24" fill="rgb(83,223,167)" stroke="rgb(66,178,133)" stroke-width="1" opacity="0.75" />
			</g>
		</g>
		<g>
			<title>ptaR3
PtaR3</title>
			<polygon class="ptaR3
PtaR3" points="1126,25 1101,25 1101,10 1071,40 1101,70 1101,55 1126,55" fill="rgb(255,255,255)" fill-opacity="1.0" stroke="rgb(0,0,0)" stroke-width="2"  />
			<g>
				<title>Fungal_trans_2 (PF11951)
"Fungal specific transcription factor domain"</title>
				<polygon class="PF11951" points="1075,40 1087,28 1116,28 1116,52 1087,52 1075,40" stroke-linejoin="round" width="41" height="24" fill="rgb(102,165,217)" stroke="rgb(81,132,173)" stroke-width="1" opacity="0.75" />
			</g>
		</g>
		<g>
			<title>ptaM
PtaM</title>
			<polygon class="ptaM
PtaM" points="1217,25 1188,25 1188,10 1158,40 1188,70 1188,55 1217,55" fill="rgb(255,255,255)" fill-opacity="1.0" stroke="rgb(0,0,0)" stroke-width="2"  />
			<g>
				<title>Trp_halogenase (PF04820)
"Tryptophan halogenase"</title>
				<rect class="PF04820" x="1182" y="28" stroke-linejoin="round" width="26" height="24" fill="rgb(179,74,194)" stroke="rgb(143,59,155)" stroke-width="1" opacity="0.75" />
			</g>
			<g>
				<title>Trp_halogenase (PF04820)
"Tryptophan halogenase"</title>
				<rect class="PF04820" x="1207" y="28" stroke-linejoin="round" width="9" height="24" fill="rgb(179,74,194)" stroke="rgb(143,59,155)" stroke-width="1" opacity="0.75" />
			</g>
		</g>
	</g>
</svg>
