<svg version="1.1" baseProfile="full" xmlns="http://www.w3.org/2000/svg" width="1993.8333333333333" height="80">
	<g>
		<line x1="10" y1="40.0" x2="1983.8333333333333" y2="40.0" style="stroke:rgb(70,70,70); stroke-width:3 "/>
		<g>
			<title>
hypothetical protein</title>
			<polygon class="
hypothetical protein" points="24,40 37,10 37,70" fill="rgb(255,255,255)" fill-opacity="1.0" stroke="rgb(0,0,0)" stroke-width="2"  />
			<g>
				<title>SnoaL_4 (PF13577)
"SnoaL-like domain"</title>
				<polygon class="PF13577" points="27,40 32,28 36,28 36,52 32,52" stroke-linejoin="round" width="12" height="24" fill="rgb(68,223,209)" stroke="rgb(54,178,167)" stroke-width="1" opacity="0.75" />
			</g>
		</g>
		<g>
			<title>
NADPH-quinone reductase</title>
			<polygon class="
NADPH-quinone reductase" points="71,25 67,25 67,10 37,40 67,70 67,55 71,55" fill="rgb(255,255,255)" fill-opacity="1.0" stroke="rgb(0,0,0)" stroke-width="2"  />
			<g>
				<title>ADH_zinc_N_2 (PF13602)
"Zinc-binding dehydrogenase"</title>
				<polygon class="PF13602" points="41,40 49,32 49,48" stroke-linejoin="round" width="12" height="24" fill="rgb(101,131,226)" stroke="rgb(80,104,180)" stroke-width="1" opacity="0.75" />
			</g>
			<g>
				<title>ADH_N (PF08240)
"Alcohol dehydrogenase GroES-like domain"</title>
				<rect class="PF08240" x="57" y="28" stroke-linejoin="round" width="9" height="24" fill="rgb(211,65,138)" stroke="rgb(168,51,110)" stroke-width="1" opacity="0.75" />
			</g>
		</g>
		<g>
			<title>
LysR family transcriptional regulator</title>
			<polygon class="
LysR family transcriptional regulator" points="72,25 73,25 73,10 103,40 73,70 73,55 72,55" fill="rgb(255,255,255)" fill-opacity="1.0" stroke="rgb(0,0,0)" stroke-width="2"  />
			<g>
				<title>HTH_1 (PF00126)
"Bacterial regulatory helix-turn-helix protein, lysR family"</title>
				<rect class="PF00126" x="75" y="28" stroke-linejoin="round" width="5" height="24" fill="rgb(125,227,79)" stroke="rgb(99,181,63)" stroke-width="1" opacity="0.75" />
			</g>
			<g>
				<title>LysR_substrate (PF03466)
"LysR substrate binding domain"</title>
				<polygon class="PF03466" points="83,28 87,28 99,40 87,52 83,52" stroke-linejoin="round" width="19" height="24" fill="rgb(55,136,195)" stroke="rgb(44,108,156)" stroke-width="1" opacity="0.75" />
			</g>
		</g>
		<g>
			<title>
acyl-CoA dehydrogenase</title>
			<polygon class="
acyl-CoA dehydrogenase" points="150,25 141,25 141,10 111,40 141,70 141,55 150,55" fill="rgb(255,255,255)" fill-opacity="1.0" stroke="rgb(0,0,0)" stroke-width="2"  />
			<g>
				<title>Acyl-CoA_dh_1 (PF00441)
"Acyl-CoA dehydrogenase, C-terminal domain"</title>
				<polygon class="PF00441" points="115,40 127,28 127,28 127,52 127,52" stroke-linejoin="round" width="15" height="24" fill="rgb(85,191,117)" stroke="rgb(68,152,93)" stroke-width="1" opacity="0.75" />
			</g>
			<g>
				<title>Acyl-CoA_dh_M (PF02770)
"Acyl-CoA dehydrogenase, middle domain"</title>
				<rect class="PF02770" x="129" y="28" stroke-linejoin="round" width="9" height="24" fill="rgb(225,186,97)" stroke="rgb(180,148,77)" stroke-width="1" opacity="0.75" />
			</g>
			<g>
				<title>Acyl-CoA_dh_N (PF02771)
"Acyl-CoA dehydrogenase, N-terminal domain"</title>
				<rect class="PF02771" x="138" y="28" stroke-linejoin="round" width="11" height="24" fill="rgb(105,135,218)" stroke="rgb(84,108,174)" stroke-width="1" opacity="0.75" />
			</g>
		</g>
		<g>
			<title>dutS9
NAD-dependent epimerase/dehydratase</title>
			<polygon class="dutS9
NAD-dependent epimerase/dehydratase" points="186,25 185,25 185,10 155,40 185,70 185,55 186,55" fill="rgb(255,255,255)" fill-opacity="1.0" stroke="rgb(0,0,0)" stroke-width="2"  />
			<g>
				<title>Epimerase (PF01370)
"NAD dependent epimerase/dehydratase family"</title>
				<polygon class="PF01370" points="163,36 171,28 185,28 185,52 171,52 163,44" stroke-linejoin="round" width="22" height="24" fill="rgb(98,102,214)" stroke="rgb(78,81,171)" stroke-width="1" opacity="0.75" />
			</g>
		</g>
		<g>
			<title>dutS7
dTDP-4-dehydrorhamnose 3,5-epimerase</title>
			<polygon class="dutS7
dTDP-4-dehydrorhamnose 3,5-epimerase" points="186,40 206,10 206,70" fill="rgb(255,255,255)" fill-opacity="1.0" stroke="rgb(0,0,0)" stroke-width="2"  />
			<g>
				<title>dTDP_sugar_isom (PF00908)
"dTDP-4-dehydrorhamnose 3,5-epimerase"</title>
				<polygon class="PF00908" points="190,40 198,28 205,28 205,52 198,52" stroke-linejoin="round" width="17" height="24" fill="rgb(184,89,121)" stroke="rgb(147,71,96)" stroke-width="1" opacity="0.75" />
			</g>
		</g>
		<g>
			<title>dutO4
Monooxygenase</title>
			<polygon class="dutO4
Monooxygenase" points="257,25 237,25 237,10 207,40 237,70 237,55 257,55" fill="rgb(255,255,255)" fill-opacity="1.0" stroke="rgb(0,0,0)" stroke-width="2"  />
			<g>
				<title>FAD_binding_3 (PF01494)
"FAD binding domain"</title>
				<polygon class="PF01494" points="223,28 223,28 256,28 256,52 223,52 223,52" stroke-linejoin="round" width="33" height="24" fill="rgb(182,175,59)" stroke="rgb(145,140,47)" stroke-width="1" opacity="0.75" />
			</g>
		</g>
		<g>
			<title>dutO2
Monooxygenase</title>
			<polygon class="dutO2
Monooxygenase" points="269,25 293,25 293,10 323,40 293,70 293,55 269,55" fill="rgb(255,255,255)" fill-opacity="1.0" stroke="rgb(0,0,0)" stroke-width="2"  />
			<g>
				<title>FAD_binding_3 (PF01494)
"FAD binding domain"</title>
				<rect class="PF01494" x="269" y="28" stroke-linejoin="round" width="33" height="24" fill="rgb(182,175,59)" stroke="rgb(145,140,47)" stroke-width="1" opacity="0.75" />
			</g>
		</g>
		<g>
			<title>dutJ
3-Ketoacyl-(acyl-carrier-protein) reductase</title>
			<polygon class="dutJ
3-Ketoacyl-(acyl-carrier-protein) reductase" points="323,10 348,40 323,70" fill="rgb(255,255,255)" fill-opacity="1.0" stroke="rgb(0,0,0)" stroke-width="2"  />
			<g>
				<title>adh_short_C2 (PF13561)
"Enoyl-(Acyl carrier protein) reductase"</title>
				<polygon class="PF13561" points="324,28 334,28 344,40 334,52 324,52" stroke-linejoin="round" width="23" height="24" fill="rgb(73,205,127)" stroke="rgb(58,164,101)" stroke-width="1" opacity="0.75" />
			</g>
		</g>
		<g>
			<title>dutD
Aromatase</title>
			<polygon class="dutD
Aromatase" points="351,25 352,25 352,10 382,40 352,70 352,55 351,55" fill="rgb(255,255,255)" fill-opacity="1.0" stroke="rgb(0,0,0)" stroke-width="2"  />
		</g>
		<g>
			<title>dutL
Acyl-CoA ligase</title>
			<polygon class="dutL
Acyl-CoA ligase" points="382,25 401,25 401,10 431,40 401,70 401,55 382,55" fill="rgb(255,255,255)" fill-opacity="1.0" stroke="rgb(0,0,0)" stroke-width="2"  />
			<g>
				<title>AMP-binding (PF00501)
"AMP-binding enzyme"</title>
				<polygon class="PF00501" points="383,28 415,28 421,34 421,46 415,52 383,52" stroke-linejoin="round" width="38" height="24" fill="rgb(60,217,223)" stroke="rgb(48,173,178)" stroke-width="1" opacity="0.75" />
			</g>
			<g>
				<title>AMP-binding_C (PF13193)
"AMP-binding enzyme C-terminal domain"</title>
				<polygon class="PF13193" points="422,35 427,40 422,45" stroke-linejoin="round" width="7" height="24" fill="rgb(182,50,118)" stroke="rgb(145,39,94)" stroke-width="1" opacity="0.75" />
			</g>
		</g>
		<g>
			<title>dutO3
Monooxygenase</title>
			<polygon class="dutO3
Monooxygenase" points="432,10 441,40 432,70" fill="rgb(255,255,255)" fill-opacity="1.0" stroke="rgb(0,0,0)" stroke-width="2"  />
			<g>
				<title>ABM (PF03992)
"Antibiotic biosynthesis monooxygenase"</title>
				<polygon class="PF03992" points="432,28 434,28 438,40 434,52 432,52" stroke-linejoin="round" width="7" height="24" fill="rgb(193,84,127)" stroke="rgb(154,67,101)" stroke-width="1" opacity="0.75" />
			</g>
		</g>
		<g>
			<title>dutE
Cyclase</title>
			<polygon class="dutE
Cyclase" points="444,40 459,10 459,70" fill="rgb(255,255,255)" fill-opacity="1.0" stroke="rgb(0,0,0)" stroke-width="2"  />
			<g>
				<title>SnoaL_4 (PF13577)
"SnoaL-like domain"</title>
				<polygon class="PF13577" points="447,40 453,28 457,28 457,52 453,52" stroke-linejoin="round" width="12" height="24" fill="rgb(68,223,209)" stroke="rgb(54,178,167)" stroke-width="1" opacity="0.75" />
			</g>
		</g>
		<g>
			<title>dutMT2
O-Methyltransferase</title>
			<polygon class="dutMT2
O-Methyltransferase" points="498,25 493,25 493,10 463,40 493,70 493,55 498,55" fill="rgb(255,255,255)" fill-opacity="1.0" stroke="rgb(0,0,0)" stroke-width="2"  />
			<g>
				<title>Methyltransf_2 (PF00891)
"O-methyltransferase domain"</title>
				<polygon class="PF00891" points="467,40 479,28 484,28 484,52 479,52" stroke-linejoin="round" width="20" height="24" fill="rgb(50,51,190)" stroke="rgb(39,40,152)" stroke-width="1" opacity="0.75" />
			</g>
		</g>
		<g>
			<title>dutF
Cyclase</title>
			<polygon class="dutF
Cyclase" points="498,40 524,10 524,70" fill="rgb(255,255,255)" fill-opacity="1.0" stroke="rgb(0,0,0)" stroke-width="2"  />
			<g>
				<title>Cyclase (PF04199)
"Putative cyclase"</title>
				<polygon class="PF04199" points="505,37 512,28 523,28 523,52 512,52 505,43" stroke-linejoin="round" width="18" height="24" fill="rgb(140,47,181)" stroke="rgb(112,37,144)" stroke-width="1" opacity="0.75" />
			</g>
		</g>
		<g>
			<title>dutO1
Monooxygenase</title>
			<polygon class="dutO1
Monooxygenase" points="564,25 554,25 554,10 524,40 554,70 554,55 564,55" fill="rgb(255,255,255)" fill-opacity="1.0" stroke="rgb(0,0,0)" stroke-width="2"  />
			<g>
				<title>FAD_binding_3 (PF01494)
"FAD binding domain"</title>
				<polygon class="PF01494" points="529,39 540,28 563,28 563,52 540,52 529,41" stroke-linejoin="round" width="34" height="24" fill="rgb(182,175,59)" stroke="rgb(145,140,47)" stroke-width="1" opacity="0.75" />
			</g>
		</g>
		<g>
			<title>dutI
Ketoreductase</title>
			<polygon class="dutI
Ketoreductase" points="565,40 591,10 591,70" fill="rgb(255,255,255)" fill-opacity="1.0" stroke="rgb(0,0,0)" stroke-width="2"  />
			<g>
				<title>adh_short_C2 (PF13561)
"Enoyl-(Acyl carrier protein) reductase"</title>
				<polygon class="PF13561" points="569,40 579,28 588,28 588,52 579,52" stroke-linejoin="round" width="23" height="24" fill="rgb(73,205,127)" stroke="rgb(58,164,101)" stroke-width="1" opacity="0.75" />
			</g>
		</g>
		<g>
			<title>dutMT1
Methtyltransferase</title>
			<polygon class="dutMT1
Methtyltransferase" points="601,25 604,25 604,10 634,40 604,70 604,55 601,55" fill="rgb(255,255,255)" fill-opacity="1.0" stroke="rgb(0,0,0)" stroke-width="2"  />
			<g>
				<title>Methyltransf_2 (PF00891)
"O-methyltransferase domain"</title>
				<polygon class="PF00891" points="611,28 618,28 630,40 618,52 611,52" stroke-linejoin="round" width="20" height="24" fill="rgb(50,51,190)" stroke="rgb(39,40,152)" stroke-width="1" opacity="0.75" />
			</g>
		</g>
		<g>
			<title>dutK
SARP family regulator</title>
			<polygon class="dutK
SARP family regulator" points="640,40 667,10 667,70" fill="rgb(255,255,255)" fill-opacity="1.0" stroke="rgb(0,0,0)" stroke-width="2"  />
			<g>
				<title>BTAD (PF03704)
"Bacterial transcriptional activator domain"</title>
				<polygon class="PF03704" points="644,40 655,28 656,28 656,52 655,52" stroke-linejoin="round" width="14" height="24" fill="rgb(217,89,196)" stroke="rgb(173,71,156)" stroke-width="1" opacity="0.75" />
			</g>
			<g>
				<title>Trans_reg_C (PF00486)
"Transcriptional regulatory protein, C terminal"</title>
				<rect class="PF00486" x="657" y="28" stroke-linejoin="round" width="8" height="24" fill="rgb(204,153,57)" stroke="rgb(163,122,45)" stroke-width="1" opacity="0.75" />
			</g>
		</g>
		<g>
			<title>dutS2
NDP-glucose 4,6-dehydratase</title>
			<polygon class="dutS2
NDP-glucose 4,6-dehydratase" points="706,25 704,25 704,10 674,40 704,70 704,55 706,55" fill="rgb(255,255,255)" fill-opacity="1.0" stroke="rgb(0,0,0)" stroke-width="2"  />
			<g>
				<title>GDP_Man_Dehyd (PF16363)
"GDP-mannose 4,6 dehydratase"</title>
				<polygon class="PF16363" points="678,40 690,28 705,28 705,52 690,52" stroke-linejoin="round" width="29" height="24" fill="rgb(162,221,65)" stroke="rgb(129,176,51)" stroke-width="1" opacity="0.75" />
			</g>
		</g>
		<g>
			<title>dutS1
NDP-glucose synthase</title>
			<polygon class="dutS1
NDP-glucose synthase" points="741,25 736,25 736,10 706,40 736,70 736,55 741,55" fill="rgb(255,255,255)" fill-opacity="1.0" stroke="rgb(0,0,0)" stroke-width="2"  />
			<g>
				<title>NTP_transferase (PF00483)
"Nucleotidyl transferase"</title>
				<polygon class="PF00483" points="717,33 722,28 740,28 740,52 722,52 717,47" stroke-linejoin="round" width="23" height="24" fill="rgb(198,101,87)" stroke="rgb(158,80,69)" stroke-width="1" opacity="0.75" />
			</g>
		</g>
		<g>
			<title>dutP
Biotin carboxylase</title>
			<polygon class="dutP
Biotin carboxylase" points="789,25 772,25 772,10 742,40 772,70 772,55 789,55" fill="rgb(255,255,255)" fill-opacity="1.0" stroke="rgb(0,0,0)" stroke-width="2"  />
			<g>
				<title>Biotin_carb_C (PF02785)
"Biotin carboxylase C-terminal domain"</title>
				<polygon class="PF02785" points="746,40 754,32 754,48" stroke-linejoin="round" width="10" height="24" fill="rgb(82,186,211)" stroke="rgb(65,148,168)" stroke-width="1" opacity="0.75" />
			</g>
			<g>
				<title>CPSase_L_D2 (PF02786)
"Carbamoyl-phosphate synthase L chain, ATP binding domain"</title>
				<polygon class="PF02786" points="756,30 758,28 776,28 776,52 758,52 756,50" stroke-linejoin="round" width="20" height="24" fill="rgb(190,97,205)" stroke="rgb(151,77,164)" stroke-width="1" opacity="0.75" />
			</g>
			<g>
				<title>Biotin_carb_N (PF00289)
"Biotin carboxylase, N-terminal domain"</title>
				<rect class="PF00289" x="778" y="28" stroke-linejoin="round" width="10" height="24" fill="rgb(59,114,187)" stroke="rgb(47,91,149)" stroke-width="1" opacity="0.75" />
			</g>
		</g>
		<g>
			<title>dutN
Acetyl-CoA carboxylase</title>
			<polygon class="dutN
Acetyl-CoA carboxylase" points="790,40 807,10 807,70" fill="rgb(255,255,255)" fill-opacity="1.0" stroke="rgb(0,0,0)" stroke-width="2"  />
			<g>
				<title>Biotin_lipoyl (PF00364)
"Biotin-requiring enzyme"</title>
				<polygon class="PF00364" points="793,40 797,33 797,47" stroke-linejoin="round" width="7" height="24" fill="rgb(67,214,213)" stroke="rgb(53,171,170)" stroke-width="1" opacity="0.75" />
			</g>
		</g>
		<g>
			<title>dutM
acetyl-CoA carboxylase</title>
			<polygon class="dutM
acetyl-CoA carboxylase" points="863,25 837,25 837,10 807,40 837,70 837,55 863,55" fill="rgb(255,255,255)" fill-opacity="1.0" stroke="rgb(0,0,0)" stroke-width="2"  />
			<g>
				<title>Carboxyl_trans (PF01039)
"Carboxyl transferase domain"</title>
				<polygon class="PF01039" points="813,38 823,28 859,28 859,52 823,52 813,42" stroke-linejoin="round" width="46" height="24" fill="rgb(180,136,60)" stroke="rgb(144,108,48)" stroke-width="1" opacity="0.75" />
			</g>
		</g>
		<g>
			<title>dutC
Acyl carrier protein</title>
			<polygon class="dutC
Acyl carrier protein" points="864,40 872,10 872,70" fill="rgb(255,255,255)" fill-opacity="1.0" stroke="rgb(0,0,0)" stroke-width="2"  />
			<g>
				<title>PP-binding (PF00550)
"Phosphopantetheine attachment site"</title>
				<polygon class="PF00550" points="867,40 870,28 871,28 871,52 870,52" stroke-linejoin="round" width="7" height="24" fill="rgb(103,191,88)" stroke="rgb(82,152,70)" stroke-width="1" opacity="0.75" />
			</g>
		</g>
		<g>
			<title>dutB
Chain length factor</title>
			<polygon class="dutB
Chain length factor" points="914,25 904,25 904,10 874,40 904,70 904,55 914,55" fill="rgb(255,255,255)" fill-opacity="1.0" stroke="rgb(0,0,0)" stroke-width="2"  />
			<g>
				<title>Ketoacyl-synt_C (PF02801)
"Beta-ketoacyl synthase, C-terminal domain"</title>
				<polygon class="PF02801" points="878,40 889,29 889,51 878,40" stroke-linejoin="round" width="11" height="24" fill="rgb(215,78,102)" stroke="rgb(172,62,81)" stroke-width="1" opacity="0.75" />
			</g>
			<g>
				<title>ketoacyl-synt (PF00109)
"Beta-ketoacyl synthase, N-terminal domain"</title>
				<polygon class="PF00109" points="890,28 890,28 914,28 914,52 890,52 890,52" stroke-linejoin="round" width="24" height="24" fill="rgb(112,116,228)" stroke="rgb(89,92,182)" stroke-width="1" opacity="0.75" />
			</g>
		</g>
		<g>
			<title>dutA
Ketoacyl synthase</title>
			<polygon class="dutA
Ketoacyl synthase" points="955,25 944,25 944,10 914,40 944,70 944,55 955,55" fill="rgb(255,255,255)" fill-opacity="1.0" stroke="rgb(0,0,0)" stroke-width="2"  />
			<g>
				<title>Ketoacyl-synt_C (PF02801)
"Beta-ketoacyl synthase, C-terminal domain"</title>
				<polygon class="PF02801" points="918,40 929,29 929,51 918,40" stroke-linejoin="round" width="11" height="24" fill="rgb(215,78,102)" stroke="rgb(172,62,81)" stroke-width="1" opacity="0.75" />
			</g>
			<g>
				<title>ketoacyl-synt (PF00109)
"Beta-ketoacyl synthase, N-terminal domain"</title>
				<rect class="PF00109" x="931" y="28" stroke-linejoin="round" width="24" height="24" fill="rgb(112,116,228)" stroke="rgb(89,92,182)" stroke-width="1" opacity="0.75" />
			</g>
		</g>
		<g>
			<title>dutS3
NDP-hexose 2,3-dehydratase</title>
			<polygon class="dutS3
NDP-hexose 2,3-dehydratase" points="964,25 981,25 981,10 1011,40 981,70 981,55 964,55" fill="rgb(255,255,255)" fill-opacity="1.0" stroke="rgb(0,0,0)" stroke-width="2"  />
			<g>
				<title>Hexose_dehydrat (PF03559)
"NDP-hexose 2,3-dehydratase"</title>
				<rect class="PF03559" x="967" y="28" stroke-linejoin="round" width="20" height="24" fill="rgb(74,201,66)" stroke="rgb(59,160,52)" stroke-width="1" opacity="0.75" />
			</g>
			<g>
				<title>Hexose_dehydrat (PF03559)
"NDP-hexose 2,3-dehydratase"</title>
				<polygon class="PF03559" points="990,28 995,28 1007,40 995,52 990,52" stroke-linejoin="round" width="20" height="24" fill="rgb(74,201,66)" stroke="rgb(59,160,52)" stroke-width="1" opacity="0.75" />
			</g>
		</g>
		<g>
			<title>dutS4
NDP-hexose 3-ketoreductase</title>
			<polygon class="dutS4
NDP-hexose 3-ketoreductase" points="1011,25 1014,25 1014,10 1044,40 1014,70 1014,55 1011,55" fill="rgb(255,255,255)" fill-opacity="1.0" stroke="rgb(0,0,0)" stroke-width="2"  />
			<g>
				<title>GFO_IDH_MocA (PF01408)
"Oxidoreductase family, NAD-binding Rossmann fold"</title>
				<rect class="PF01408" x="1011" y="28" stroke-linejoin="round" width="11" height="24" fill="rgb(76,117,190)" stroke="rgb(60,93,152)" stroke-width="1" opacity="0.75" />
			</g>
			<g>
				<title>GFO_IDH_MocA_C (PF02894)
"Oxidoreductase family, C-terminal alpha/beta domain"</title>
				<polygon class="PF02894" points="1024,28 1028,28 1040,40 1028,52 1024,52" stroke-linejoin="round" width="19" height="24" fill="rgb(195,223,82)" stroke="rgb(155,178,65)" stroke-width="1" opacity="0.75" />
			</g>
		</g>
		<g>
			<title>dutQ
Flavin reductase</title>
			<polygon class="dutQ
Flavin reductase" points="1044,10 1064,40 1044,70" fill="rgb(255,255,255)" fill-opacity="1.0" stroke="rgb(0,0,0)" stroke-width="2"  />
		</g>
		<g>
			<title>dutR
Acyl-CoA dehydrogenase</title>
			<polygon class="dutR
Acyl-CoA dehydrogenase" points="1062,25 1070,25 1070,10 1100,40 1070,70 1070,55 1062,55" fill="rgb(255,255,255)" fill-opacity="1.0" stroke="rgb(0,0,0)" stroke-width="2"  />
			<g>
				<title>Acyl-CoA_dh_2 (PF08028)
"Acyl-CoA dehydrogenase, C-terminal domain"</title>
				<polygon class="PF08028" points="1086,30 1096,40 1086,50" stroke-linejoin="round" width="12" height="24" fill="rgb(106,185,56)" stroke="rgb(84,148,44)" stroke-width="1" opacity="0.75" />
			</g>
		</g>
		<g>
			<title>dutS5
NDP-hexose 3,4-dehydratase</title>
			<polygon class="dutS5
NDP-hexose 3,4-dehydratase" points="1146,25 1133,25 1133,10 1103,40 1133,70 1133,55 1146,55" fill="rgb(255,255,255)" fill-opacity="1.0" stroke="rgb(0,0,0)" stroke-width="2"  />
			<g>
				<title>DegT_DnrJ_EryC1 (PF01041)
"DegT/DnrJ/EryC1/StrS aminotransferase family"</title>
				<polygon class="PF01041" points="1107,40 1119,28 1141,28 1141,52 1119,52" stroke-linejoin="round" width="38" height="24" fill="rgb(59,139,191)" stroke="rgb(47,111,152)" stroke-width="1" opacity="0.75" />
			</g>
		</g>
		<g>
			<title>dutS6
NDP-4-keto-6-deoxyhexose reductase</title>
			<polygon class="dutS6
NDP-4-keto-6-deoxyhexose reductase" points="1177,25 1176,25 1176,10 1146,40 1176,70 1176,55 1177,55" fill="rgb(255,255,255)" fill-opacity="1.0" stroke="rgb(0,0,0)" stroke-width="2"  />
			<g>
				<title>Epimerase (PF01370)
"NAD dependent epimerase/dehydratase family"</title>
				<polygon class="PF01370" points="1154,36 1162,28 1176,28 1176,52 1162,52 1154,44" stroke-linejoin="round" width="22" height="24" fill="rgb(98,102,214)" stroke="rgb(78,81,171)" stroke-width="1" opacity="0.75" />
			</g>
		</g>
		<g>
			<title>dutGT1
Glycosyltransferase</title>
			<polygon class="dutGT1
Glycosyltransferase" points="1216,25 1207,25 1207,10 1177,40 1207,70 1207,55 1216,55" fill="rgb(255,255,255)" fill-opacity="1.0" stroke="rgb(0,0,0)" stroke-width="2"  />
			<g>
				<title>DUF1205 (PF06722)
"Protein of unknown function (DUF1205)"</title>
				<polygon class="PF06722" points="1188,33 1193,28 1197,28 1197,52 1193,52 1188,47" stroke-linejoin="round" width="9" height="24" fill="rgb(200,129,88)" stroke="rgb(160,103,70)" stroke-width="1" opacity="0.75" />
			</g>
		</g>
		<g>
			<title>dutG
Type I polyketide synthase</title>
			<polygon class="dutG
Type I polyketide synthase" points="1435,25 1248,25 1248,10 1218,40 1248,70 1248,55 1435,55" fill="rgb(255,255,255)" fill-opacity="1.0" stroke="rgb(0,0,0)" stroke-width="2"  />
			<g>
				<title>PP-binding (PF00550)
"Phosphopantetheine attachment site"</title>
				<polygon class="PF00550" points="1222,40 1225,37 1225,43" stroke-linejoin="round" width="6" height="24" fill="rgb(103,191,88)" stroke="rgb(82,152,70)" stroke-width="1" opacity="0.75" />
			</g>
			<g>
				<title>KR (PF08659)
"KR domain"</title>
				<rect class="PF08659" x="1237" y="28" stroke-linejoin="round" width="18" height="24" fill="rgb(66,209,188)" stroke="rgb(52,167,150)" stroke-width="1" opacity="0.75" />
			</g>
			<g>
				<title>ADH_zinc_N_2 (PF13602)
"Zinc-binding dehydrogenase"</title>
				<rect class="PF13602" x="1259" y="28" stroke-linejoin="round" width="14" height="24" fill="rgb(101,131,226)" stroke="rgb(80,104,180)" stroke-width="1" opacity="0.75" />
			</g>
			<g>
				<title>PS-DH (PF14765)
"Polyketide synthase dehydratase"</title>
				<rect class="PF14765" x="1315" y="28" stroke-linejoin="round" width="28" height="24" fill="rgb(173,56,182)" stroke="rgb(138,44,145)" stroke-width="1" opacity="0.75" />
			</g>
			<g>
				<title>Acyl_transf_1 (PF00698)
"Acyl transferase domain"</title>
				<rect class="PF00698" x="1348" y="28" stroke-linejoin="round" width="31" height="24" fill="rgb(59,176,209)" stroke="rgb(47,140,167)" stroke-width="1" opacity="0.75" />
			</g>
			<g>
				<title>KAsynt_C_assoc (PF16197)
"Ketoacyl-synthetase C-terminal extension"</title>
				<rect class="PF16197" x="1384" y="28" stroke-linejoin="round" width="12" height="24" fill="rgb(240,150,172)" stroke="rgb(192,120,137)" stroke-width="1" opacity="0.75" />
			</g>
			<g>
				<title>Ketoacyl-synt_C (PF02801)
"Beta-ketoacyl synthase, C-terminal domain"</title>
				<rect class="PF02801" x="1397" y="28" stroke-linejoin="round" width="11" height="24" fill="rgb(215,78,102)" stroke="rgb(172,62,81)" stroke-width="1" opacity="0.75" />
			</g>
			<g>
				<title>ketoacyl-synt (PF00109)
"Beta-ketoacyl synthase, N-terminal domain"</title>
				<rect class="PF00109" x="1409" y="28" stroke-linejoin="round" width="24" height="24" fill="rgb(112,116,228)" stroke="rgb(89,92,182)" stroke-width="1" opacity="0.75" />
			</g>
		</g>
		<g>
			<title>dutH
ACP shuttle-type acyltransferase</title>
			<polygon class="dutH
ACP shuttle-type acyltransferase" points="1472,25 1468,25 1468,10 1438,40 1468,70 1468,55 1472,55" fill="rgb(255,255,255)" fill-opacity="1.0" stroke="rgb(0,0,0)" stroke-width="2"  />
			<g>
				<title>ACP_syn_III_C (PF08541)
"3-Oxoacyl-[acyl-carrier-protein (ACP)] synthase III C terminal"</title>
				<polygon class="PF08541" points="1442,40 1447,35 1447,45" stroke-linejoin="round" width="9" height="24" fill="rgb(146,207,81)" stroke="rgb(116,165,64)" stroke-width="1" opacity="0.75" />
			</g>
			<g>
				<title>ACP_syn_III (PF08545)
"3-Oxoacyl-[acyl-carrier-protein (ACP)] synthase III"</title>
				<polygon class="PF08545" points="1454,28 1454,28 1461,28 1461,52 1454,52 1454,52" stroke-linejoin="round" width="7" height="24" fill="rgb(189,102,84)" stroke="rgb(151,81,67)" stroke-width="1" opacity="0.75" />
			</g>
		</g>
		<g>
			<title>dutT
ABC transporter</title>
			<polygon class="dutT
ABC transporter" points="1479,25 1480,25 1480,10 1510,40 1480,70 1480,55 1479,55" fill="rgb(255,255,255)" fill-opacity="1.0" stroke="rgb(0,0,0)" stroke-width="2"  />
			<g>
				<title>ABC_tran (PF00005)
"ABC transporter"</title>
				<polygon class="PF00005" points="1481,28 1493,28 1495,30 1495,50 1493,52 1481,52" stroke-linejoin="round" width="14" height="24" fill="rgb(129,201,63)" stroke="rgb(103,160,50)" stroke-width="1" opacity="0.75" />
			</g>
			<g>
				<title>DUF4162 (PF13732)
"Domain of unknown function (DUF4162)"</title>
				<polygon class="PF13732" points="1500,35 1505,40 1500,45" stroke-linejoin="round" width="8" height="24" fill="rgb(100,223,143)" stroke="rgb(80,178,114)" stroke-width="1" opacity="0.75" />
			</g>
		</g>
		<g>
			<title>dutU
ABC transporter</title>
			<polygon class="dutU
ABC transporter" points="1510,10 1536,40 1510,70" fill="rgb(255,255,255)" fill-opacity="1.0" stroke="rgb(0,0,0)" stroke-width="2"  />
			<g>
				<title>ABC2_membrane (PF01061)
"ABC-2 type transporter"</title>
				<polygon class="PF01061" points="1512,28 1521,28 1532,40 1521,52 1512,52" stroke-linejoin="round" width="21" height="24" fill="rgb(139,217,106)" stroke="rgb(111,173,84)" stroke-width="1" opacity="0.75" />
			</g>
		</g>
		<g>
			<title>dutGT2
Glycosyltransferase</title>
			<polygon class="dutGT2
Glycosyltransferase" points="1538,25 1546,25 1546,10 1576,40 1546,70 1546,55 1538,55" fill="rgb(255,255,255)" fill-opacity="1.0" stroke="rgb(0,0,0)" stroke-width="2"  />
			<g>
				<title>DUF1205 (PF06722)
"Protein of unknown function (DUF1205)"</title>
				<polygon class="PF06722" points="1554,28 1560,28 1563,31 1563,49 1560,52 1554,52" stroke-linejoin="round" width="9" height="24" fill="rgb(200,129,88)" stroke="rgb(160,103,70)" stroke-width="1" opacity="0.75" />
			</g>
		</g>
		<g>
			<title>dutV
SARP family transcriptional regulator</title>
			<polygon class="dutV
SARP family transcriptional regulator" points="1683,25 1607,25 1607,10 1577,40 1607,70 1607,55 1683,55" fill="rgb(255,255,255)" fill-opacity="1.0" stroke="rgb(0,0,0)" stroke-width="2"  />
			<g>
				<title>AAA_22 (PF13401)
"AAA domain"</title>
				<rect class="PF13401" x="1642" y="28" stroke-linejoin="round" width="13" height="24" fill="rgb(174,224,73)" stroke="rgb(139,179,58)" stroke-width="1" opacity="0.75" />
			</g>
			<g>
				<title>BTAD (PF03704)
"Bacterial transcriptional activator domain"</title>
				<rect class="PF03704" x="1659" y="28" stroke-linejoin="round" width="14" height="24" fill="rgb(217,89,196)" stroke="rgb(173,71,156)" stroke-width="1" opacity="0.75" />
			</g>
			<g>
				<title>Trans_reg_C (PF00486)
"Transcriptional regulatory protein, C terminal"</title>
				<rect class="PF00486" x="1674" y="28" stroke-linejoin="round" width="6" height="24" fill="rgb(204,153,57)" stroke="rgb(163,122,45)" stroke-width="1" opacity="0.75" />
			</g>
		</g>
		<g>
			<title>dutS8
NDP-hexose 3-C-methyltransferase</title>
			<polygon class="dutS8
NDP-hexose 3-C-methyltransferase" points="1726,25 1715,25 1715,10 1685,40 1715,70 1715,55 1726,55" fill="rgb(255,255,255)" fill-opacity="1.0" stroke="rgb(0,0,0)" stroke-width="2"  />
			<g>
				<title>Methyltransf_14 (PF08484)
"C-methyltransferase C-terminal domain"</title>
				<polygon class="PF08484" points="1689,40 1700,29 1700,51" stroke-linejoin="round" width="15" height="24" fill="rgb(229,72,107)" stroke="rgb(183,57,85)" stroke-width="1" opacity="0.75" />
			</g>
			<g>
				<title>Methyltransf_23 (PF13489)
"Methyltransferase domain"</title>
				<polygon class="PF13489" points="1701,28 1701,28 1717,28 1717,52 1701,52 1701,52" stroke-linejoin="round" width="16" height="24" fill="rgb(188,189,66)" stroke="rgb(150,151,52)" stroke-width="1" opacity="0.75" />
			</g>
			<g>
				<title>Methyltransf_13 (PF08421)
"Putative zinc binding domain"</title>
				<rect class="PF08421" x="1719" y="28" stroke-linejoin="round" width="6" height="24" fill="rgb(209,96,160)" stroke="rgb(167,76,128)" stroke-width="1" opacity="0.75" />
			</g>
		</g>
		<g>
			<title>dutW
Carbohydrate kinase</title>
			<polygon class="dutW
Carbohydrate kinase" points="1758,25 1756,25 1756,10 1726,40 1756,70 1756,55 1758,55" fill="rgb(255,255,255)" fill-opacity="1.0" stroke="rgb(0,0,0)" stroke-width="2"  />
			<g>
				<title>PfkB (PF00294)
"pfkB family carbohydrate kinase"</title>
				<polygon class="PF00294" points="1730,40 1742,28 1757,28 1757,52 1742,52" stroke-linejoin="round" width="29" height="24" fill="rgb(153,96,212)" stroke="rgb(122,76,169)" stroke-width="1" opacity="0.75" />
			</g>
		</g>
		<g>
			<title>dutX
S-Adenosylmethionine synthase</title>
			<polygon class="dutX
S-Adenosylmethionine synthase" points="1798,25 1790,25 1790,10 1760,40 1790,70 1790,55 1798,55" fill="rgb(255,255,255)" fill-opacity="1.0" stroke="rgb(0,0,0)" stroke-width="2"  />
			<g>
				<title>S-AdoMet_synt_C (PF02773)
"S-adenosylmethionine synthetase, C-terminal domain"</title>
				<polygon class="PF02773" points="1764,40 1774,30 1774,50" stroke-linejoin="round" width="13" height="24" fill="rgb(192,53,113)" stroke="rgb(153,42,90)" stroke-width="1" opacity="0.75" />
			</g>
			<g>
				<title>S-AdoMet_synt_M (PF02772)
"S-adenosylmethionine synthetase, central domain"</title>
				<polygon class="PF02772" points="1775,29 1776,28 1787,28 1787,52 1776,52 1775,51" stroke-linejoin="round" width="12" height="24" fill="rgb(81,223,98)" stroke="rgb(64,178,78)" stroke-width="1" opacity="0.75" />
			</g>
			<g>
				<title>S-AdoMet_synt_N (PF00438)
"S-adenosylmethionine synthetase, N-terminal domain"</title>
				<rect class="PF00438" x="1788" y="28" stroke-linejoin="round" width="9" height="24" fill="rgb(202,217,80)" stroke="rgb(161,173,64)" stroke-width="1" opacity="0.75" />
			</g>
		</g>
		<g>
			<title>
Copper oxidase</title>
			<polygon class="
Copper oxidase" points="1855,25 1834,25 1834,10 1804,40 1834,70 1834,55 1855,55" fill="rgb(255,255,255)" fill-opacity="1.0" stroke="rgb(0,0,0)" stroke-width="2"  />
			<g>
				<title>Cu-oxidase_2 (PF07731)
"Multicopper oxidase"</title>
				<polygon class="PF07731" points="1808,40 1816,32 1816,48" stroke-linejoin="round" width="12" height="24" fill="rgb(183,55,192)" stroke="rgb(146,44,153)" stroke-width="1" opacity="0.75" />
			</g>
			<g>
				<title>Cu-oxidase_3 (PF07732)
"Multicopper oxidase"</title>
				<rect class="PF07732" x="1835" y="28" stroke-linejoin="round" width="4" height="24" fill="rgb(80,81,179)" stroke="rgb(63,64,143)" stroke-width="1" opacity="0.75" />
			</g>
			<g>
				<title>Cu-oxidase_3 (PF07732)
"Multicopper oxidase"</title>
				<rect class="PF07732" x="1840" y="28" stroke-linejoin="round" width="8" height="24" fill="rgb(80,81,179)" stroke="rgb(63,64,143)" stroke-width="1" opacity="0.75" />
			</g>
		</g>
		<g>
			<title>
Hypothetical protein</title>
			<polygon class="
Hypothetical protein" points="1856,40 1871,10 1871,70" fill="rgb(255,255,255)" fill-opacity="1.0" stroke="rgb(0,0,0)" stroke-width="2"  />
		</g>
		<g>
			<title>
Acetyltransferase</title>
			<polygon class="
Acetyltransferase" points="1874,25 1875,25 1875,10 1905,40 1875,70 1875,55 1874,55" fill="rgb(255,255,255)" fill-opacity="1.0" stroke="rgb(0,0,0)" stroke-width="2"  />
			<g>
				<title>Abhydrolase_6 (PF12697)
"Alpha/beta hydrolase family"</title>
				<polygon class="PF12697" points="1877,28 1888,28 1900,40 1888,52 1877,52" stroke-linejoin="round" width="26" height="24" fill="rgb(113,71,219)" stroke="rgb(90,56,175)" stroke-width="1" opacity="0.75" />
			</g>
		</g>
		<g>
			<title>
TetR family transcriptional regulator</title>
			<polygon class="
TetR family transcriptional regulator" points="1905,10 1926,40 1905,70" fill="rgb(255,255,255)" fill-opacity="1.0" stroke="rgb(0,0,0)" stroke-width="2"  />
			<g>
				<title>TetR_N (PF00440)
"Bacterial regulatory proteins, tetR family"</title>
				<rect class="PF00440" x="1907" y="28" stroke-linejoin="round" width="4" height="24" fill="rgb(73,212,190)" stroke="rgb(58,169,152)" stroke-width="1" opacity="0.75" />
			</g>
			<g>
				<title>TetR_C_1 (PF02909)
"Tetracyclin repressor-like, C-terminal domain"</title>
				<polygon class="PF02909" points="1913,28 1914,28 1923,40 1914,52 1913,52" stroke-linejoin="round" width="13" height="24" fill="rgb(151,203,75)" stroke="rgb(120,162,60)" stroke-width="1" opacity="0.75" />
			</g>
		</g>
		<g>
			<title>
Membrane protein</title>
			<polygon class="
Membrane protein" points="1929,40 1953,10 1953,70" fill="rgb(255,255,255)" fill-opacity="1.0" stroke="rgb(0,0,0)" stroke-width="2"  />
			<g>
				<title>CbtA (PF09490)
"Probable cobalt transporter subunit (CbtA)"</title>
				<polygon class="PF09490" points="1933,40 1943,28 1952,28 1952,52 1943,52" stroke-linejoin="round" width="21" height="24" fill="rgb(181,124,50)" stroke="rgb(144,99,40)" stroke-width="1" opacity="0.75" />
			</g>
		</g>
		<g>
			<title>
Cobalt transporter</title>
			<polygon class="
Cobalt transporter" points="1955,40 1962,10 1962,70" fill="rgb(255,255,255)" fill-opacity="1.0" stroke="rgb(0,0,0)" stroke-width="2"  />
			<g>
				<title>CbtB (PF09489)
"Probable cobalt transporter subunit (CbtB)"</title>
				<polygon class="PF09489" points="1958,40 1961,28 1962,28 1962,52 1961,52" stroke-linejoin="round" width="7" height="24" fill="rgb(84,178,152)" stroke="rgb(67,142,121)" stroke-width="1" opacity="0.75" />
			</g>
		</g>
	</g>
</svg>
