<svg version="1.1" baseProfile="full" xmlns="http://www.w3.org/2000/svg" width="965.2333333333333" height="80">
	<g>
		<line x1="10" y1="40.0" x2="955.2333333333333" y2="40.0" style="stroke:rgb(70,70,70); stroke-width:3 "/>
		<g>
			<title> (VIBHAR_01379)
hypothetical protein</title>
			<polygon class=" (VIBHAR_01379)
hypothetical protein" points="10,25 33,25 33,10 63,40 33,70 33,55 10,55" fill="rgb(255,255,255)" fill-opacity="1.0" stroke="rgb(0,0,0)" stroke-width="2"  />
			<g>
				<title>AMP-binding (PF00501)
"AMP-binding enzyme"</title>
				<polygon class="PF00501" points="10,28 47,28 53,34 53,46 47,52 10,52" stroke-linejoin="round" width="43" height="24" fill="rgb(60,217,223)" stroke="rgb(48,173,178)" stroke-width="1" opacity="0.75" />
			</g>
			<g>
				<title>AMP-binding_C (PF13193)
"AMP-binding enzyme C-terminal domain"</title>
				<polygon class="PF13193" points="54,35 59,40 54,45" stroke-linejoin="round" width="7" height="24" fill="rgb(182,50,118)" stroke="rgb(145,39,94)" stroke-width="1" opacity="0.75" />
			</g>
		</g>
		<g>
			<title> (VIBHAR_01380)
hypothetical protein</title>
			<polygon class=" (VIBHAR_01380)
hypothetical protein" points="65,25 73,25 73,10 103,40 73,70 73,55 65,55" fill="rgb(255,255,255)" fill-opacity="1.0" stroke="rgb(0,0,0)" stroke-width="2"  />
			<g>
				<title>DNA_pol_A_exo1 (PF01612)
"3'-5' exonuclease"</title>
				<rect class="PF01612" x="66" y="28" stroke-linejoin="round" width="16" height="24" fill="rgb(222,60,61)" stroke="rgb(177,48,48)" stroke-width="1" opacity="0.75" />
			</g>
		</g>
		<g>
			<title> (VIBHAR_01381)
hypothetical protein</title>
			<polygon class=" (VIBHAR_01381)
hypothetical protein" points="113,25 117,25 117,10 147,40 117,70 117,55 113,55" fill="rgb(255,255,255)" fill-opacity="1.0" stroke="rgb(0,0,0)" stroke-width="2"  />
			<g>
				<title>DEDD_Tnp_IS110 (PF01548)
"Transposase"</title>
				<rect class="PF01548" x="113" y="28" stroke-linejoin="round" width="14" height="24" fill="rgb(59,200,207)" stroke="rgb(47,160,165)" stroke-width="1" opacity="0.75" />
			</g>
			<g>
				<title>Transposase_20 (PF02371)
"Transposase IS116/IS110/IS902 family"</title>
				<polygon class="PF02371" points="134,32 142,40 142,40 134,48" stroke-linejoin="round" width="8" height="24" fill="rgb(104,204,65)" stroke="rgb(83,163,52)" stroke-width="1" opacity="0.75" />
			</g>
		</g>
		<g>
			<title> (VIBHAR_01382)
hypothetical protein</title>
			<polygon class=" (VIBHAR_01382)
hypothetical protein" points="163,25 167,25 167,10 197,40 167,70 167,55 163,55" fill="rgb(255,255,255)" fill-opacity="1.0" stroke="rgb(0,0,0)" stroke-width="2"  />
			<g>
				<title>DEDD_Tnp_IS110 (PF01548)
"Transposase"</title>
				<rect class="PF01548" x="163" y="28" stroke-linejoin="round" width="14" height="24" fill="rgb(59,200,207)" stroke="rgb(47,160,165)" stroke-width="1" opacity="0.75" />
			</g>
			<g>
				<title>Transposase_20 (PF02371)
"Transposase IS116/IS110/IS902 family"</title>
				<polygon class="PF02371" points="184,32 192,40 192,40 184,48" stroke-linejoin="round" width="8" height="24" fill="rgb(104,204,65)" stroke="rgb(83,163,52)" stroke-width="1" opacity="0.75" />
			</g>
		</g>
		<g>
			<title> (VIBHAR_01383)
hypothetical protein</title>
			<polygon class=" (VIBHAR_01383)
hypothetical protein" points="213,40 221,10 221,70" fill="rgb(255,255,255)" fill-opacity="1.0" stroke="rgb(0,0,0)" stroke-width="2"  />
			<g>
				<title>MinE (PF03776)
"Septum formation topological specificity factor MinE"</title>
				<polygon class="PF03776" points="216,40 219,30 219,50" stroke-linejoin="round" width="6" height="24" fill="rgb(123,211,87)" stroke="rgb(98,168,69)" stroke-width="1" opacity="0.75" />
			</g>
		</g>
		<g>
			<title> (VIBHAR_01384)
hypothetical protein</title>
			<polygon class=" (VIBHAR_01384)
hypothetical protein" points="222,40 249,10 249,70" fill="rgb(255,255,255)" fill-opacity="1.0" stroke="rgb(0,0,0)" stroke-width="2"  />
			<g>
				<title>AAA_31 (PF13614)
"AAA domain"</title>
				<polygon class="PF13614" points="231,34 237,28 248,28 248,52 237,52 231,46" stroke-linejoin="round" width="17" height="24" fill="rgb(144,187,62)" stroke="rgb(115,149,49)" stroke-width="1" opacity="0.75" />
			</g>
		</g>
		<g>
			<title> (VIBHAR_01386)
hypothetical protein</title>
			<polygon class=" (VIBHAR_01386)
hypothetical protein" points="249,40 271,10 271,70" fill="rgb(255,255,255)" fill-opacity="1.0" stroke="rgb(0,0,0)" stroke-width="2"  />
			<g>
				<title>MinC_C (PF03775)
"Septum formation inhibitor MinC, C-terminal domain"</title>
				<polygon class="PF03775" points="253,40 259,32 259,48" stroke-linejoin="round" width="10" height="24" fill="rgb(63,191,127)" stroke="rgb(50,152,101)" stroke-width="1" opacity="0.75" />
			</g>
			<g>
				<title>MinC_N (PF05209)
"Septum formation inhibitor MinC, N-terminal domain"</title>
				<rect class="PF05209" x="263" y="28" stroke-linejoin="round" width="6" height="24" fill="rgb(97,197,174)" stroke="rgb(77,157,139)" stroke-width="1" opacity="0.75" />
			</g>
		</g>
		<g>
			<title> (VIBHAR_01385)
hypothetical protein</title>
			<polygon class=" (VIBHAR_01385)
hypothetical protein" points="269,10 274,40 269,70" fill="rgb(255,255,255)" fill-opacity="1.0" stroke="rgb(0,0,0)" stroke-width="2"  />
		</g>
		<g>
			<title> (VIBHAR_01387)
hypothetical protein</title>
			<polygon class=" (VIBHAR_01387)
hypothetical protein" points="278,10 287,40 278,70" fill="rgb(255,255,255)" fill-opacity="1.0" stroke="rgb(0,0,0)" stroke-width="2"  />
			<g>
				<title>YcgL (PF05166)
"YcgL domain"</title>
				<polygon class="PF05166" points="278,28 280,28 284,40 280,52 278,52" stroke-linejoin="round" width="7" height="24" fill="rgb(161,52,206)" stroke="rgb(128,41,164)" stroke-width="1" opacity="0.75" />
			</g>
		</g>
		<g>
			<title> (VIBHAR_01388)
hypothetical protein</title>
			<polygon class=" (VIBHAR_01388)
hypothetical protein" points="289,25 291,25 291,10 321,40 291,70 291,55 289,55" fill="rgb(255,255,255)" fill-opacity="1.0" stroke="rgb(0,0,0)" stroke-width="2"  />
			<g>
				<title>SLT_2 (PF13406)
"Transglycosylase SLT domain"</title>
				<polygon class="PF13406" points="291,28 305,28 317,40 305,52 291,52" stroke-linejoin="round" width="29" height="24" fill="rgb(215,60,195)" stroke="rgb(172,47,156)" stroke-width="1" opacity="0.75" />
			</g>
		</g>
		<g>
			<title> (VIBHAR_01389)
hypothetical protein</title>
			<polygon class=" (VIBHAR_01389)
hypothetical protein" points="324,25 324,25 324,10 354,40 324,70 324,55 324,55" fill="rgb(255,255,255)" fill-opacity="1.0" stroke="rgb(0,0,0)" stroke-width="2"  />
			<g>
				<title>HTH_1 (PF00126)
"Bacterial regulatory helix-turn-helix protein, lysR family"</title>
				<rect class="PF00126" x="324" y="28" stroke-linejoin="round" width="5" height="24" fill="rgb(125,227,79)" stroke="rgb(99,181,63)" stroke-width="1" opacity="0.75" />
			</g>
			<g>
				<title>LysR_substrate (PF03466)
"LysR substrate binding domain"</title>
				<polygon class="PF03466" points="332,28 338,28 350,40 338,52 332,52" stroke-linejoin="round" width="20" height="24" fill="rgb(55,136,195)" stroke="rgb(44,108,156)" stroke-width="1" opacity="0.75" />
			</g>
		</g>
		<g>
			<title> (VIBHAR_01390)
hypothetical protein</title>
			<polygon class=" (VIBHAR_01390)
hypothetical protein" points="363,25 373,25 373,10 403,40 373,70 373,55 363,55" fill="rgb(255,255,255)" fill-opacity="1.0" stroke="rgb(0,0,0)" stroke-width="2"  />
			<g>
				<title>Nucleos_tra2_N (PF01773)
"Na+ dependent nucleoside transporter N-terminus"</title>
				<rect class="PF01773" x="363" y="28" stroke-linejoin="round" width="7" height="24" fill="rgb(127,66,183)" stroke="rgb(101,52,146)" stroke-width="1" opacity="0.75" />
			</g>
			<g>
				<title>Gate (PF07670)
"Nucleoside recognition"</title>
				<rect class="PF07670" x="371" y="28" stroke-linejoin="round" width="9" height="24" fill="rgb(124,94,191)" stroke="rgb(99,75,152)" stroke-width="1" opacity="0.75" />
			</g>
			<g>
				<title>Nucleos_tra2_C (PF07662)
"Na+ dependent nucleoside transporter C-terminus"</title>
				<polygon class="PF07662" points="381,28 386,28 398,40 386,52 381,52" stroke-linejoin="round" width="20" height="24" fill="rgb(169,225,108)" stroke="rgb(135,180,86)" stroke-width="1" opacity="0.75" />
			</g>
		</g>
		<g>
			<title> (VIBHAR_01391)
hypothetical protein</title>
			<polygon class=" (VIBHAR_01391)
hypothetical protein" points="417,40 445,10 445,70" fill="rgb(255,255,255)" fill-opacity="1.0" stroke="rgb(0,0,0)" stroke-width="2"  />
			<g>
				<title>THF_DHG_CYH_C (PF02882)
"Tetrahydrofolate dehydrogenase/cyclohydrolase, NAD(P)-binding domain"</title>
				<polygon class="PF02882" points="421,40 432,28 432,28 432,52 432,52" stroke-linejoin="round" width="15" height="24" fill="rgb(147,183,86)" stroke="rgb(117,146,68)" stroke-width="1" opacity="0.75" />
			</g>
			<g>
				<title>THF_DHG_CYH (PF00763)
"Tetrahydrofolate dehydrogenase/cyclohydrolase, catalytic domain"</title>
				<rect class="PF00763" x="433" y="28" stroke-linejoin="round" width="11" height="24" fill="rgb(208,67,229)" stroke="rgb(166,53,183)" stroke-width="1" opacity="0.75" />
			</g>
		</g>
		<g>
			<title> (VIBHAR_01393)
hypothetical protein</title>
			<polygon class=" (VIBHAR_01393)
hypothetical protein" points="463,25 486,25 486,10 516,40 486,70 486,55 463,55" fill="rgb(255,255,255)" fill-opacity="1.0" stroke="rgb(0,0,0)" stroke-width="2"  />
			<g>
				<title>Methyltransf_23 (PF13489)
"Methyltransferase domain"</title>
				<rect class="PF13489" x="463" y="28" stroke-linejoin="round" width="15" height="24" fill="rgb(188,189,66)" stroke="rgb(150,151,52)" stroke-width="1" opacity="0.75" />
			</g>
			<g>
				<title>HNH_4 (PF13395)
"HNH endonuclease"</title>
				<polygon class="PF13395" points="504,32 508,36 508,44 504,48" stroke-linejoin="round" width="4" height="24" fill="rgb(63,171,188)" stroke="rgb(50,136,150)" stroke-width="1" opacity="0.75" />
			</g>
		</g>
		<g>
			<title> (VIBHAR_01394)
hypothetical protein</title>
			<polygon class=" (VIBHAR_01394)
hypothetical protein" points="520,10 534,40 520,70" fill="rgb(255,255,255)" fill-opacity="1.0" stroke="rgb(0,0,0)" stroke-width="2"  />
			<g>
				<title>DUF5991 (PF19453)
"Family of unknown function (DUF5991)"</title>
				<polygon class="PF19453" points="522,28 525,28 530,40 525,52 522,52" stroke-linejoin="round" width="12" height="24" fill="rgb(76,199,67)" stroke="rgb(60,159,53)" stroke-width="1" opacity="0.75" />
			</g>
		</g>
		<g>
			<title> (VIBHAR_01395)
hypothetical protein</title>
			<polygon class=" (VIBHAR_01395)
hypothetical protein" points="538,10 562,40 538,70" fill="rgb(255,255,255)" fill-opacity="1.0" stroke="rgb(0,0,0)" stroke-width="2"  />
			<g>
				<title>SLT (PF01464)
"Transglycosylase SLT domain"</title>
				<polygon class="PF01464" points="546,28 548,28 552,33 552,47 548,52 546,52" stroke-linejoin="round" width="6" height="24" fill="rgb(181,60,156)" stroke="rgb(144,47,124)" stroke-width="1" opacity="0.75" />
			</g>
		</g>
		<g>
			<title> (VIBHAR_01396)
hypothetical protein</title>
			<polygon class=" (VIBHAR_01396)
hypothetical protein" points="563,40 590,10 590,70" fill="rgb(255,255,255)" fill-opacity="1.0" stroke="rgb(0,0,0)" stroke-width="2"  />
			<g>
				<title>adh_short_C2 (PF13561)
"Enoyl-(Acyl carrier protein) reductase"</title>
				<polygon class="PF13561" points="567,40 578,28 587,28 587,52 578,52" stroke-linejoin="round" width="24" height="24" fill="rgb(73,205,127)" stroke="rgb(58,164,101)" stroke-width="1" opacity="0.75" />
			</g>
		</g>
		<g>
			<title> (VIBHAR_01397)
hypothetical protein</title>
			<polygon class=" (VIBHAR_01397)
hypothetical protein" points="591,25 599,25 599,10 629,40 599,70 599,55 591,55" fill="rgb(255,255,255)" fill-opacity="1.0" stroke="rgb(0,0,0)" stroke-width="2"  />
		</g>
		<g>
			<title> (VIBHAR_01398)
hypothetical protein</title>
			<polygon class=" (VIBHAR_01398)
hypothetical protein" points="639,25 649,25 649,10 679,40 649,70 649,55 639,55" fill="rgb(255,255,255)" fill-opacity="1.0" stroke="rgb(0,0,0)" stroke-width="2"  />
			<g>
				<title>Chorismate_bind (PF00425)
"chorismate binding enzyme"</title>
				<polygon class="PF00425" points="651,28 663,28 675,40 663,52 651,52" stroke-linejoin="round" width="26" height="24" fill="rgb(188,116,88)" stroke="rgb(150,92,70)" stroke-width="1" opacity="0.75" />
			</g>
		</g>
		<g>
			<title> (VIBHAR_01399)
hypothetical protein</title>
			<polygon class=" (VIBHAR_01399)
hypothetical protein" points="680,25 704,25 704,10 734,40 704,70 704,55 680,55" fill="rgb(255,255,255)" fill-opacity="1.0" stroke="rgb(0,0,0)" stroke-width="2"  />
			<g>
				<title>AMP-binding (PF00501)
"AMP-binding enzyme"</title>
				<polygon class="PF00501" points="683,28 717,28 723,34 723,46 717,52 683,52" stroke-linejoin="round" width="40" height="24" fill="rgb(60,217,223)" stroke="rgb(48,173,178)" stroke-width="1" opacity="0.75" />
			</g>
			<g>
				<title>AMP-binding_C (PF13193)
"AMP-binding enzyme C-terminal domain"</title>
				<polygon class="PF13193" points="725,36 729,40 725,44" stroke-linejoin="round" width="7" height="24" fill="rgb(182,50,118)" stroke="rgb(145,39,94)" stroke-width="1" opacity="0.75" />
			</g>
		</g>
		<g>
			<title> (VIBHAR_01400)
hypothetical protein</title>
			<polygon class=" (VIBHAR_01400)
hypothetical protein" points="736,10 765,40 736,70" fill="rgb(255,255,255)" fill-opacity="1.0" stroke="rgb(0,0,0)" stroke-width="2"  />
			<g>
				<title>Isochorismatase (PF00857)
"Isochorismatase family"</title>
				<polygon class="PF00857" points="738,28 749,28 755,34 755,46 749,52 738,52" stroke-linejoin="round" width="17" height="24" fill="rgb(144,224,70)" stroke="rgb(115,179,56)" stroke-width="1" opacity="0.75" />
			</g>
			<g>
				<title>PP-binding (PF00550)
"Phosphopantetheine attachment site"</title>
				<polygon class="PF00550" points="758,37 761,40 758,43" stroke-linejoin="round" width="6" height="24" fill="rgb(103,191,88)" stroke="rgb(82,152,70)" stroke-width="1" opacity="0.75" />
			</g>
		</g>
		<g>
			<title> (VIBHAR_01401)
hypothetical protein</title>
			<polygon class=" (VIBHAR_01401)
hypothetical protein" points="767,25 868,25 868,10 898,40 868,70 868,55 767,55" fill="rgb(255,255,255)" fill-opacity="1.0" stroke="rgb(0,0,0)" stroke-width="2"  />
			<g>
				<title>Condensation (PF00668)
"Condensation domain"</title>
				<rect class="PF00668" x="768" y="28" stroke-linejoin="round" width="44" height="24" fill="rgb(224,184,98)" stroke="rgb(179,147,78)" stroke-width="1" opacity="0.75" />
			</g>
			<g>
				<title>AMP-binding (PF00501)
"AMP-binding enzyme"</title>
				<rect class="PF00501" x="814" y="28" stroke-linejoin="round" width="39" height="24" fill="rgb(60,217,223)" stroke="rgb(48,173,178)" stroke-width="1" opacity="0.75" />
			</g>
			<g>
				<title>AMP-binding_C (PF13193)
"AMP-binding enzyme C-terminal domain"</title>
				<rect class="PF13193" x="854" y="28" stroke-linejoin="round" width="7" height="24" fill="rgb(182,50,118)" stroke="rgb(145,39,94)" stroke-width="1" opacity="0.75" />
			</g>
			<g>
				<title>PP-binding (PF00550)
"Phosphopantetheine attachment site"</title>
				<rect class="PF00550" x="865" y="28" stroke-linejoin="round" width="6" height="24" fill="rgb(103,191,88)" stroke="rgb(82,152,70)" stroke-width="1" opacity="0.75" />
			</g>
			<g>
				<title>Thioesterase (PF00975)
"Thioesterase domain"</title>
				<polygon class="PF00975" points="873,28 882,28 894,40 882,52 873,52" stroke-linejoin="round" width="23" height="24" fill="rgb(207,80,138)" stroke="rgb(165,63,110)" stroke-width="1" opacity="0.75" />
			</g>
		</g>
		<g>
			<title> (VIBHAR_01402)
hypothetical protein</title>
			<polygon class=" (VIBHAR_01402)
hypothetical protein" points="898,25 899,25 899,10 929,40 899,70 899,55 898,55" fill="rgb(255,255,255)" fill-opacity="1.0" stroke="rgb(0,0,0)" stroke-width="2"  />
		</g>
		<g>
			<title> (VIBHAR_01403)
hypothetical protein</title>
			<polygon class=" (VIBHAR_01403)
hypothetical protein" points="930,40 954,10 954,70" fill="rgb(255,255,255)" fill-opacity="1.0" stroke="rgb(0,0,0)" stroke-width="2"  />
			<g>
				<title>ACPS (PF01648)
"4'-phosphopantetheinyl transferase superfamily"</title>
				<polygon class="PF01648" points="934,40 941,31 941,49" stroke-linejoin="round" width="11" height="24" fill="rgb(85,184,135)" stroke="rgb(68,147,108)" stroke-width="1" opacity="0.75" />
			</g>
			<g>
				<title>4PPT_N (PF17837)
"4'-phosphopantetheinyl transferase N-terminal domain"</title>
				<polygon class="PF17837" points="942,30 944,28 949,28 949,52 944,52 942,50" stroke-linejoin="round" width="7" height="24" fill="rgb(198,68,92)" stroke="rgb(158,54,73)" stroke-width="1" opacity="0.75" />
			</g>
		</g>
	</g>
</svg>
