<svg version="1.1" baseProfile="full" xmlns="http://www.w3.org/2000/svg" width="1372.7333333333333" height="80">
	<g>
		<line x1="10" y1="40.0" x2="1362.7333333333333" y2="40.0" style="stroke:rgb(70,70,70); stroke-width:3 "/>
		<g>
			<title>arsM (BrL25_22140)
arsenite S-adenosylmethyltransferase</title>
			<polygon class="arsM (BrL25_22140)
arsenite S-adenosylmethyltransferase" points="10,40 36,10 36,70" fill="rgb(255,255,255)" fill-opacity="1.0" stroke="rgb(0,0,0)" stroke-width="2"  />
			<g>
				<title>Methyltransf_31 (PF13847)
"Methyltransferase domain"</title>
				<polygon class="PF13847" points="14,40 25,28 28,28 28,52 25,52" stroke-linejoin="round" width="16" height="24" fill="rgb(214,74,181)" stroke="rgb(171,59,144)" stroke-width="1" opacity="0.75" />
			</g>
		</g>
		<g>
			<title> (BrL25_22145)
arsenate reductase (thioredoxin)</title>
			<polygon class=" (BrL25_22145)
arsenate reductase (thioredoxin)" points="37,40 49,10 49,70" fill="rgb(255,255,255)" fill-opacity="1.0" stroke="rgb(0,0,0)" stroke-width="2"  />
			<g>
				<title>LMWPc (PF01451)
"Low molecular weight phosphotyrosine protein phosphatase"</title>
				<polygon class="PF01451" points="40,40 45,28 48,28 48,52 45,52" stroke-linejoin="round" width="11" height="24" fill="rgb(199,53,196)" stroke="rgb(159,42,156)" stroke-width="1" opacity="0.75" />
			</g>
		</g>
		<g>
			<title> (BrL25_22150)
arsenical-resistance protein</title>
			<polygon class=" (BrL25_22150)
arsenical-resistance protein" points="87,25 82,25 82,10 52,40 82,70 82,55 87,55" fill="rgb(255,255,255)" fill-opacity="1.0" stroke="rgb(0,0,0)" stroke-width="2"  />
			<g>
				<title>SBF (PF01758)
"Sodium Bile acid symporter family"</title>
				<polygon class="PF01758" points="62,34 68,28 81,28 81,52 68,52 62,46" stroke-linejoin="round" width="19" height="24" fill="rgb(139,96,196)" stroke="rgb(111,76,156)" stroke-width="1" opacity="0.75" />
			</g>
		</g>
		<g>
			<title> (BrL25_22155)
transcriptional regulator</title>
			<polygon class=" (BrL25_22155)
transcriptional regulator" points="89,40 99,10 99,70" fill="rgb(255,255,255)" fill-opacity="1.0" stroke="rgb(0,0,0)" stroke-width="2"  />
			<g>
				<title>HTH_5 (PF01022)
"Bacterial regulatory protein, arsR family"</title>
				<polygon class="PF01022" points="93,37 96,28 97,28 97,52 96,52 93,43" stroke-linejoin="round" width="4" height="24" fill="rgb(95,208,123)" stroke="rgb(76,166,98)" stroke-width="1" opacity="0.75" />
			</g>
		</g>
		<g>
			<title> (BrL25_22160)
GNAT family N-acetyltransferase</title>
			<polygon class=" (BrL25_22160)
GNAT family N-acetyltransferase" points="105,40 121,10 121,70" fill="rgb(255,255,255)" fill-opacity="1.0" stroke="rgb(0,0,0)" stroke-width="2"  />
			<g>
				<title>Acetyltransf_10 (PF13673)
"Acetyltransferase (GNAT) domain"</title>
				<polygon class="PF13673" points="108,40 114,28 117,28 117,52 114,52" stroke-linejoin="round" width="12" height="24" fill="rgb(88,180,95)" stroke="rgb(70,144,76)" stroke-width="1" opacity="0.75" />
			</g>
		</g>
		<g>
			<title> (BrL25_22165)
hypothetical protein</title>
			<polygon class=" (BrL25_22165)
hypothetical protein" points="135,40 150,10 150,70" fill="rgb(255,255,255)" fill-opacity="1.0" stroke="rgb(0,0,0)" stroke-width="2"  />
			<g>
				<title>DUF6097 (PF19592)
"Family of unknown function (DUF6097)"</title>
				<polygon class="PF19592" points="138,40 144,28 150,28 150,52 144,52" stroke-linejoin="round" width="15" height="24" fill="rgb(97,132,227)" stroke="rgb(77,105,181)" stroke-width="1" opacity="0.75" />
			</g>
		</g>
		<g>
			<title> (BrL25_22170)
hypothetical protein</title>
			<polygon class=" (BrL25_22170)
hypothetical protein" points="155,40 170,10 170,70" fill="rgb(255,255,255)" fill-opacity="1.0" stroke="rgb(0,0,0)" stroke-width="2"  />
			<g>
				<title>DUF6386 (PF19923)
"Family of unknown function (DUF6386)"</title>
				<polygon class="PF19923" points="158,40 164,28 170,28 170,52 164,52" stroke-linejoin="round" width="15" height="24" fill="rgb(228,136,99)" stroke="rgb(182,108,79)" stroke-width="1" opacity="0.75" />
			</g>
		</g>
		<g>
			<title> (BrL25_22175)
endospore coat-associated protein YheC</title>
			<polygon class=" (BrL25_22175)
endospore coat-associated protein YheC" points="184,40 209,10 209,70" fill="rgb(255,255,255)" fill-opacity="1.0" stroke="rgb(0,0,0)" stroke-width="2"  />
			<g>
				<title>ATPgrasp_YheCD (PF14398)
"YheC/D like ATP-grasp"</title>
				<polygon class="PF14398" points="188,40 198,28 208,28 208,52 198,52" stroke-linejoin="round" width="23" height="24" fill="rgb(73,222,228)" stroke="rgb(58,177,182)" stroke-width="1" opacity="0.75" />
			</g>
		</g>
		<g>
			<title> (BrL25_22180)
MFS transporter</title>
			<polygon class=" (BrL25_22180)
MFS transporter" points="264,25 251,25 251,10 221,40 251,70 251,55 264,55" fill="rgb(255,255,255)" fill-opacity="1.0" stroke="rgb(0,0,0)" stroke-width="2"  />
			<g>
				<title>MFS_3 (PF05977)
"Transmembrane secretion effector"</title>
				<polygon class="PF05977" points="225,40 237,28 263,28 263,52 237,52" stroke-linejoin="round" width="42" height="24" fill="rgb(80,62,217)" stroke="rgb(64,49,173)" stroke-width="1" opacity="0.75" />
			</g>
		</g>
		<g>
			<title> (BrL25_22185)
non-ribosomal peptide synthetase</title>
			<polygon class=" (BrL25_22185)
non-ribosomal peptide synthetase" points="906,25 297,25 297,10 267,40 297,70 297,55 906,55" fill="rgb(255,255,255)" fill-opacity="1.0" stroke="rgb(0,0,0)" stroke-width="2"  />
			<g>
				<title>Thioesterase (PF00975)
"Thioesterase domain"</title>
				<polygon class="PF00975" points="271,40 283,28 288,28 288,52 283,52" stroke-linejoin="round" width="20" height="24" fill="rgb(207,80,138)" stroke="rgb(165,63,110)" stroke-width="1" opacity="0.75" />
			</g>
			<g>
				<title>PP-binding (PF00550)
"Phosphopantetheine attachment site"</title>
				<rect class="PF00550" x="291" y="28" stroke-linejoin="round" width="6" height="24" fill="rgb(103,191,88)" stroke="rgb(82,152,70)" stroke-width="1" opacity="0.75" />
			</g>
			<g>
				<title>AMP-binding (PF00501)
"AMP-binding enzyme"</title>
				<rect class="PF00501" x="308" y="28" stroke-linejoin="round" width="38" height="24" fill="rgb(60,217,223)" stroke="rgb(48,173,178)" stroke-width="1" opacity="0.75" />
			</g>
			<g>
				<title>Condensation (PF00668)
"Condensation domain"</title>
				<rect class="PF00668" x="349" y="28" stroke-linejoin="round" width="43" height="24" fill="rgb(224,184,98)" stroke="rgb(179,147,78)" stroke-width="1" opacity="0.75" />
			</g>
			<g>
				<title>PP-binding (PF00550)
"Phosphopantetheine attachment site"</title>
				<rect class="PF00550" x="394" y="28" stroke-linejoin="round" width="6" height="24" fill="rgb(103,191,88)" stroke="rgb(82,152,70)" stroke-width="1" opacity="0.75" />
			</g>
			<g>
				<title>AMP-binding_C (PF13193)
"AMP-binding enzyme C-terminal domain"</title>
				<rect class="PF13193" x="403" y="28" stroke-linejoin="round" width="7" height="24" fill="rgb(182,50,118)" stroke="rgb(145,39,94)" stroke-width="1" opacity="0.75" />
			</g>
			<g>
				<title>AMP-binding (PF00501)
"AMP-binding enzyme"</title>
				<rect class="PF00501" x="411" y="28" stroke-linejoin="round" width="39" height="24" fill="rgb(60,217,223)" stroke="rgb(48,173,178)" stroke-width="1" opacity="0.75" />
			</g>
			<g>
				<title>Condensation (PF00668)
"Condensation domain"</title>
				<rect class="PF00668" x="452" y="28" stroke-linejoin="round" width="44" height="24" fill="rgb(224,184,98)" stroke="rgb(179,147,78)" stroke-width="1" opacity="0.75" />
			</g>
			<g>
				<title>Condensation (PF00668)
"Condensation domain"</title>
				<rect class="PF00668" x="499" y="28" stroke-linejoin="round" width="45" height="24" fill="rgb(224,184,98)" stroke="rgb(179,147,78)" stroke-width="1" opacity="0.75" />
			</g>
			<g>
				<title>PP-binding (PF00550)
"Phosphopantetheine attachment site"</title>
				<rect class="PF00550" x="546" y="28" stroke-linejoin="round" width="6" height="24" fill="rgb(103,191,88)" stroke="rgb(82,152,70)" stroke-width="1" opacity="0.75" />
			</g>
			<g>
				<title>AMP-binding (PF00501)
"AMP-binding enzyme"</title>
				<rect class="PF00501" x="563" y="28" stroke-linejoin="round" width="38" height="24" fill="rgb(60,217,223)" stroke="rgb(48,173,178)" stroke-width="1" opacity="0.75" />
			</g>
			<g>
				<title>Condensation (PF00668)
"Condensation domain"</title>
				<rect class="PF00668" x="604" y="28" stroke-linejoin="round" width="43" height="24" fill="rgb(224,184,98)" stroke="rgb(179,147,78)" stroke-width="1" opacity="0.75" />
			</g>
			<g>
				<title>PP-binding (PF00550)
"Phosphopantetheine attachment site"</title>
				<rect class="PF00550" x="650" y="28" stroke-linejoin="round" width="6" height="24" fill="rgb(103,191,88)" stroke="rgb(82,152,70)" stroke-width="1" opacity="0.75" />
			</g>
			<g>
				<title>AMP-binding_C (PF13193)
"AMP-binding enzyme C-terminal domain"</title>
				<rect class="PF13193" x="659" y="28" stroke-linejoin="round" width="7" height="24" fill="rgb(182,50,118)" stroke="rgb(145,39,94)" stroke-width="1" opacity="0.75" />
			</g>
			<g>
				<title>AMP-binding (PF00501)
"AMP-binding enzyme"</title>
				<rect class="PF00501" x="667" y="28" stroke-linejoin="round" width="40" height="24" fill="rgb(60,217,223)" stroke="rgb(48,173,178)" stroke-width="1" opacity="0.75" />
			</g>
			<g>
				<title>Condensation (PF00668)
"Condensation domain"</title>
				<rect class="PF00668" x="709" y="28" stroke-linejoin="round" width="44" height="24" fill="rgb(224,184,98)" stroke="rgb(179,147,78)" stroke-width="1" opacity="0.75" />
			</g>
			<g>
				<title>Condensation (PF00668)
"Condensation domain"</title>
				<rect class="PF00668" x="756" y="28" stroke-linejoin="round" width="45" height="24" fill="rgb(224,184,98)" stroke="rgb(179,147,78)" stroke-width="1" opacity="0.75" />
			</g>
			<g>
				<title>PP-binding (PF00550)
"Phosphopantetheine attachment site"</title>
				<rect class="PF00550" x="803" y="28" stroke-linejoin="round" width="6" height="24" fill="rgb(103,191,88)" stroke="rgb(82,152,70)" stroke-width="1" opacity="0.75" />
			</g>
			<g>
				<title>AMP-binding_C (PF13193)
"AMP-binding enzyme C-terminal domain"</title>
				<rect class="PF13193" x="812" y="28" stroke-linejoin="round" width="7" height="24" fill="rgb(182,50,118)" stroke="rgb(145,39,94)" stroke-width="1" opacity="0.75" />
			</g>
			<g>
				<title>AMP-binding (PF00501)
"AMP-binding enzyme"</title>
				<rect class="PF00501" x="820" y="28" stroke-linejoin="round" width="38" height="24" fill="rgb(60,217,223)" stroke="rgb(48,173,178)" stroke-width="1" opacity="0.75" />
			</g>
			<g>
				<title>Condensation (PF00668)
"Condensation domain"</title>
				<rect class="PF00668" x="860" y="28" stroke-linejoin="round" width="44" height="24" fill="rgb(224,184,98)" stroke="rgb(179,147,78)" stroke-width="1" opacity="0.75" />
			</g>
		</g>
		<g>
			<title> (BrL25_22190)
(2Fe-2S)-binding protein</title>
			<polygon class=" (BrL25_22190)
(2Fe-2S)-binding protein" points="983,25 962,25 962,10 932,40 962,70 962,55 983,55" fill="rgb(255,255,255)" fill-opacity="1.0" stroke="rgb(0,0,0)" stroke-width="2"  />
			<g>
				<title>Rieske (PF00355)
"Rieske [2Fe-2S] domain"</title>
				<polygon class="PF00355" points="936,40 941,35 941,45" stroke-linejoin="round" width="9" height="24" fill="rgb(186,77,145)" stroke="rgb(148,61,115)" stroke-width="1" opacity="0.75" />
			</g>
			<g>
				<title>DAO (PF01266)
"FAD dependent oxidoreductase"</title>
				<polygon class="PF01266" points="944,32 948,28 978,28 978,52 948,52 944,48" stroke-linejoin="round" width="34" height="24" fill="rgb(123,179,59)" stroke="rgb(98,143,47)" stroke-width="1" opacity="0.75" />
			</g>
		</g>
		<g>
			<title> (BrL25_22195)
Replication termination protein</title>
			<polygon class=" (BrL25_22195)
Replication termination protein" points="993,40 1005,10 1005,70" fill="rgb(255,255,255)" fill-opacity="1.0" stroke="rgb(0,0,0)" stroke-width="2"  />
			<g>
				<title>RTP (PF02334)
"Replication terminator protein"</title>
				<polygon class="PF02334" points="996,40 1001,28 1004,28 1004,52 1001,52" stroke-linejoin="round" width="11" height="24" fill="rgb(170,189,64)" stroke="rgb(136,151,51)" stroke-width="1" opacity="0.75" />
			</g>
		</g>
		<g>
			<title> (BrL25_22200)
transcriptional regulator</title>
			<polygon class=" (BrL25_22200)
transcriptional regulator" points="1018,40 1040,10 1040,70" fill="rgb(255,255,255)" fill-opacity="1.0" stroke="rgb(0,0,0)" stroke-width="2"  />
			<g>
				<title>DUF1232 (PF06803)
"Protein of unknown function (DUF1232)"</title>
				<polygon class="PF06803" points="1022,40 1022,40 1022,40" stroke-linejoin="round" width="3" height="24" fill="rgb(59,213,159)" stroke="rgb(47,170,127)" stroke-width="1" opacity="0.75" />
			</g>
			<g>
				<title>HTH_3 (PF01381)
"Helix-turn-helix"</title>
				<rect class="PF01381" x="1033" y="28" stroke-linejoin="round" width="5" height="24" fill="rgb(105,79,202)" stroke="rgb(83,63,161)" stroke-width="1" opacity="0.75" />
			</g>
		</g>
		<g>
			<title> (BrL25_22205)
hypothetical protein</title>
			<polygon class=" (BrL25_22205)
hypothetical protein" points="1048,10 1067,40 1048,70" fill="rgb(255,255,255)" fill-opacity="1.0" stroke="rgb(0,0,0)" stroke-width="2"  />
		</g>
		<g>
			<title> (BrL25_22210)
hypothetical protein</title>
			<polygon class=" (BrL25_22210)
hypothetical protein" points="1071,40 1079,10 1079,70" fill="rgb(255,255,255)" fill-opacity="1.0" stroke="rgb(0,0,0)" stroke-width="2"  />
		</g>
		<g>
			<title> (BrL25_22215)
DUF3221 domain-containing protein</title>
			<polygon class=" (BrL25_22215)
DUF3221 domain-containing protein" points="1089,10 1102,40 1089,70" fill="rgb(255,255,255)" fill-opacity="1.0" stroke="rgb(0,0,0)" stroke-width="2"  />
		</g>
		<g>
			<title> (BrL25_22220)
hypothetical protein</title>
			<polygon class=" (BrL25_22220)
hypothetical protein" points="1156,25 1136,25 1136,10 1106,40 1136,70 1136,55 1156,55" fill="rgb(255,255,255)" fill-opacity="1.0" stroke="rgb(0,0,0)" stroke-width="2"  />
			<g>
				<title>ADPrib_exo_Tox (PF03496)
"ADP-ribosyltransferase exoenzyme"</title>
				<polygon class="PF03496" points="1110,40 1122,28 1127,28 1127,52 1122,52" stroke-linejoin="round" width="21" height="24" fill="rgb(85,213,132)" stroke="rgb(68,170,105)" stroke-width="1" opacity="0.75" />
			</g>
			<g>
				<title>ATLF (PF07737)
"Anthrax toxin lethal factor, N- and C-terminal domain"</title>
				<rect class="PF07737" x="1127" y="28" stroke-linejoin="round" width="21" height="24" fill="rgb(89,139,178)" stroke="rgb(71,111,142)" stroke-width="1" opacity="0.75" />
			</g>
		</g>
		<g>
			<title> (BrL25_22225)
peptidase</title>
			<polygon class=" (BrL25_22225)
peptidase" points="1245,25 1193,25 1193,10 1163,40 1193,70 1193,55 1245,55" fill="rgb(255,255,255)" fill-opacity="1.0" stroke="rgb(0,0,0)" stroke-width="2"  />
			<g>
				<title>RicinB_lectin_2 (PF14200)
"Ricin-type beta-trefoil lectin domain-like"</title>
				<polygon class="PF14200" points="1167,40 1169,38 1169,42" stroke-linejoin="round" width="6" height="24" fill="rgb(112,220,73)" stroke="rgb(89,176,58)" stroke-width="1" opacity="0.75" />
			</g>
			<g>
				<title>Choline_bind_1 (PF01473)
"Putative cell wall binding repeat"</title>
				<polygon class="PF01473" points="1177,30 1178,29 1178,51 1177,50" stroke-linejoin="round" width="1" height="24" fill="rgb(185,86,176)" stroke="rgb(148,68,140)" stroke-width="1" opacity="0.75" />
			</g>
			<g>
				<title>Binary_toxB_3 (PF17476)
"Clostridial binary toxin B/anthrax toxin PA domain 3"</title>
				<rect class="PF17476" x="1183" y="28" stroke-linejoin="round" width="10" height="24" fill="rgb(203,83,103)" stroke="rgb(162,66,82)" stroke-width="1" opacity="0.75" />
			</g>
			<g>
				<title>Binary_toxB_2 (PF17475)
"Clostridial binary toxin B/anthrax toxin PA domain 2"</title>
				<rect class="PF17475" x="1193" y="28" stroke-linejoin="round" width="21" height="24" fill="rgb(70,220,141)" stroke="rgb(56,176,112)" stroke-width="1" opacity="0.75" />
			</g>
			<g>
				<title>Binary_toxB (PF03495)
"Clostridial binary toxin B/anthrax toxin PA Ca-binding domain"</title>
				<rect class="PF03495" x="1215" y="28" stroke-linejoin="round" width="8" height="24" fill="rgb(181,146,54)" stroke="rgb(144,116,43)" stroke-width="1" opacity="0.75" />
			</g>
			<g>
				<title>PA14 (PF07691)
"PA14 domain"</title>
				<rect class="PF07691" x="1227" y="28" stroke-linejoin="round" width="13" height="24" fill="rgb(190,51,112)" stroke="rgb(152,40,89)" stroke-width="1" opacity="0.75" />
			</g>
		</g>
		<g>
			<title> (BrL25_22230)
transposase</title>
			<polygon class=" (BrL25_22230)
transposase" points="1257,40 1284,10 1284,70" fill="rgb(255,255,255)" fill-opacity="1.0" stroke="rgb(0,0,0)" stroke-width="2"  />
		</g>
		<g>
			<title> (BrL25_22235)
transposase</title>
			<polygon class=" (BrL25_22235)
transposase" points="1286,40 1295,10 1295,70" fill="rgb(255,255,255)" fill-opacity="1.0" stroke="rgb(0,0,0)" stroke-width="2"  />
			<g>
				<title>HTH_Tnp_1 (PF01527)
"Transposase"</title>
				<polygon class="PF01527" points="1289,40 1293,28 1294,28 1294,52 1293,52" stroke-linejoin="round" width="7" height="24" fill="rgb(85,212,107)" stroke="rgb(68,169,85)" stroke-width="1" opacity="0.75" />
			</g>
		</g>
		<g>
			<title> (BrL25_22240)
hypothetical protein</title>
			<polygon class=" (BrL25_22240)
hypothetical protein" points="1302,40 1308,10 1308,70" fill="rgb(255,255,255)" fill-opacity="1.0" stroke="rgb(0,0,0)" stroke-width="2"  />
		</g>
		<g>
			<title> (BrL25_22245)
branched-chain amino acid transport system II carrier protein</title>
			<polygon class=" (BrL25_22245)
branched-chain amino acid transport system II carrier protein" points="1361,25 1346,25 1346,10 1316,40 1346,70 1346,55 1361,55" fill="rgb(255,255,255)" fill-opacity="1.0" stroke="rgb(0,0,0)" stroke-width="2"  />
			<g>
				<title>Branch_AA_trans (PF05525)
"Branched-chain amino acid transport protein"</title>
				<polygon class="PF05525" points="1320,40 1332,28 1360,28 1360,52 1332,52" stroke-linejoin="round" width="42" height="24" fill="rgb(192,58,193)" stroke="rgb(153,46,154)" stroke-width="1" opacity="0.75" />
			</g>
		</g>
	</g>
</svg>
