<svg version="1.1" baseProfile="full" xmlns="http://www.w3.org/2000/svg" width="332.96666666666664" height="80">
	<g>
		<line x1="10" y1="40.0" x2="322.96666666666664" y2="40.0" style="stroke:rgb(70,70,70); stroke-width:3 "/>
		<g>
			<title>nikP1
NikP1 protein</title>
			<polygon class="nikP1
NikP1 protein" points="12,25 49,25 49,10 79,40 49,70 49,55 12,55" fill="rgb(255,255,255)" fill-opacity="1.0" stroke="rgb(0,0,0)" stroke-width="2"  />
			<g>
				<title>MbtH (PF03621)
"MbtH-like protein"</title>
				<rect class="PF03621" x="12" y="28" stroke-linejoin="round" width="5" height="24" fill="rgb(212,165,97)" stroke="rgb(169,132,77)" stroke-width="1" opacity="0.75" />
			</g>
			<g>
				<title>AMP-binding (PF00501)
"AMP-binding enzyme"</title>
				<rect class="PF00501" x="19" y="28" stroke-linejoin="round" width="41" height="24" fill="rgb(60,217,223)" stroke="rgb(48,173,178)" stroke-width="1" opacity="0.75" />
			</g>
			<g>
				<title>AMP-binding_C (PF13193)
"AMP-binding enzyme C-terminal domain"</title>
				<polygon class="PF13193" points="61,28 63,28 68,33 68,47 63,52 61,52" stroke-linejoin="round" width="7" height="24" fill="rgb(182,50,118)" stroke="rgb(145,39,94)" stroke-width="1" opacity="0.75" />
			</g>
			<g>
				<title>PP-binding (PF00550)
"Phosphopantetheine attachment site"</title>
				<polygon class="PF00550" points="71,36 75,40 71,44" stroke-linejoin="round" width="6" height="24" fill="rgb(103,191,88)" stroke="rgb(82,152,70)" stroke-width="1" opacity="0.75" />
			</g>
		</g>
		<g>
			<title>nikP2
NikP2 protein</title>
			<polygon class="nikP2
NikP2 protein" points="80,10 107,40 80,70" fill="rgb(255,255,255)" fill-opacity="1.0" stroke="rgb(0,0,0)" stroke-width="2"  />
			<g>
				<title>Thioesterase (PF00975)
"Thioesterase domain"</title>
				<polygon class="PF00975" points="82,28 91,28 103,40 91,52 82,52" stroke-linejoin="round" width="23" height="24" fill="rgb(207,80,138)" stroke="rgb(165,63,110)" stroke-width="1" opacity="0.75" />
			</g>
		</g>
		<g>
			<title>nikQ
NikQ protein</title>
			<polygon class="nikQ
NikQ protein" points="107,25 116,25 116,10 146,40 116,70 116,55 107,55" fill="rgb(255,255,255)" fill-opacity="1.0" stroke="rgb(0,0,0)" stroke-width="2"  />
			<g>
				<title>p450 (PF00067)
"Cytochrome P450"</title>
				<polygon class="PF00067" points="122,28 130,28 142,40 130,52 122,52" stroke-linejoin="round" width="23" height="24" fill="rgb(85,216,107)" stroke="rgb(68,172,85)" stroke-width="1" opacity="0.75" />
			</g>
		</g>
		<g>
			<title>nikR
NikR protein</title>
			<polygon class="nikR
NikR protein" points="147,10 169,40 147,70" fill="rgb(255,255,255)" fill-opacity="1.0" stroke="rgb(0,0,0)" stroke-width="2"  />
			<g>
				<title>UPRTase (PF14681)
"Uracil phosphoribosyltransferase"</title>
				<polygon class="PF14681" points="149,28 157,28 165,40 157,52 149,52" stroke-linejoin="round" width="20" height="24" fill="rgb(62,144,207)" stroke="rgb(49,115,165)" stroke-width="1" opacity="0.75" />
			</g>
		</g>
		<g>
			<title>nikS
NikS protein</title>
			<polygon class="nikS
NikS protein" points="172,25 184,25 184,10 214,40 184,70 184,55 172,55" fill="rgb(255,255,255)" fill-opacity="1.0" stroke="rgb(0,0,0)" stroke-width="2"  />
			<g>
				<title>ATP-grasp (PF02222)
"ATP-grasp domain"</title>
				<polygon class="PF02222" points="184,28 198,28 200,30 200,50 198,52 184,52" stroke-linejoin="round" width="16" height="24" fill="rgb(86,179,93)" stroke="rgb(68,143,74)" stroke-width="1" opacity="0.75" />
			</g>
		</g>
		<g>
			<title>nikT
NikT protein</title>
			<polygon class="nikT
NikT protein" points="215,25 229,25 229,10 259,40 229,70 229,55 215,55" fill="rgb(255,255,255)" fill-opacity="1.0" stroke="rgb(0,0,0)" stroke-width="2"  />
			<g>
				<title>PP-binding (PF00550)
"Phosphopantetheine attachment site"</title>
				<rect class="PF00550" x="215" y="28" stroke-linejoin="round" width="6" height="24" fill="rgb(103,191,88)" stroke="rgb(82,152,70)" stroke-width="1" opacity="0.75" />
			</g>
			<g>
				<title>Aminotran_1_2 (PF00155)
"Aminotransferase class I and II"</title>
				<polygon class="PF00155" points="226,28 242,28 254,40 242,52 226,52" stroke-linejoin="round" width="31" height="24" fill="rgb(89,113,198)" stroke="rgb(71,90,158)" stroke-width="1" opacity="0.75" />
			</g>
		</g>
		<g>
			<title>nikU
NikU protein</title>
			<polygon class="nikU
NikU protein" points="259,10 274,40 259,70" fill="rgb(255,255,255)" fill-opacity="1.0" stroke="rgb(0,0,0)" stroke-width="2"  />
		</g>
		<g>
			<title>nikV
NikV protein</title>
			<polygon class="nikV
NikV protein" points="275,25 287,25 287,10 317,40 287,70 287,55 275,55" fill="rgb(255,255,255)" fill-opacity="1.0" stroke="rgb(0,0,0)" stroke-width="2"  />
			<g>
				<title>Met_asp_mut_E (PF06368)
"Methylaspartate mutase E chain (MutE)"</title>
				<polygon class="PF06368" points="275,28 301,28 313,40 301,52 275,52" stroke-linejoin="round" width="40" height="24" fill="rgb(94,203,101)" stroke="rgb(75,162,80)" stroke-width="1" opacity="0.75" />
			</g>
		</g>
	</g>
</svg>
