<svg version="1.1" baseProfile="full" xmlns="http://www.w3.org/2000/svg" width="415.1333333333333" height="80">
	<g>
		<line x1="10" y1="40.0" x2="405.1333333333333" y2="40.0" style="stroke:rgb(70,70,70); stroke-width:3 "/>
		<g>
			<title> (CARUB_v10016089mg)
hypothetical protein</title>
			<polygon class=" (CARUB_v10016089mg)
hypothetical protein" points="88,25 41,25 41,10 11,40 41,70 41,55 88,55" fill="rgb(255,255,255)" fill-opacity="1.0" stroke="rgb(0,0,0)" stroke-width="2"  />
			<g>
				<title>Terpene_synth_C (PF03936)
"Terpene synthase family, metal binding domain"</title>
				<rect class="PF03936" x="34" y="28" stroke-linejoin="round" width="26" height="24" fill="rgb(219,91,215)" stroke="rgb(175,72,171)" stroke-width="1" opacity="0.75" />
			</g>
			<g>
				<title>Terpene_synth (PF01397)
"Terpene synthase, N-terminal domain"</title>
				<rect class="PF01397" x="63" y="28" stroke-linejoin="round" width="17" height="24" fill="rgb(74,159,219)" stroke="rgb(59,127,175)" stroke-width="1" opacity="0.75" />
			</g>
		</g>
		<g>
			<title> (CARUB_v10016413mg)
hypothetical protein</title>
			<polygon class=" (CARUB_v10016413mg)
hypothetical protein" points="193,25 184,25 184,10 154,40 184,70 184,55 193,55" fill="rgb(255,255,255)" fill-opacity="1.0" stroke="rgb(0,0,0)" stroke-width="2"  />
			<g>
				<title>polyprenyl_synt (PF00348)
"Polyprenyl synthetase"</title>
				<polygon class="PF00348" points="159,39 170,28 184,28 184,52 170,52 159,41" stroke-linejoin="round" width="25" height="24" fill="rgb(61,206,65)" stroke="rgb(48,164,52)" stroke-width="1" opacity="0.75" />
			</g>
		</g>
		<g>
			<title> (CARUB_v10016237mg)
hypothetical protein</title>
			<polygon class=" (CARUB_v10016237mg)
hypothetical protein" points="292,25 243,25 243,10 213,40 243,70 243,55 292,55" fill="rgb(255,255,255)" fill-opacity="1.0" stroke="rgb(0,0,0)" stroke-width="2"  />
			<g>
				<title>Terpene_synth_C (PF03936)
"Terpene synthase family, metal binding domain"</title>
				<rect class="PF03936" x="237" y="28" stroke-linejoin="round" width="26" height="24" fill="rgb(219,91,215)" stroke="rgb(175,72,171)" stroke-width="1" opacity="0.75" />
			</g>
			<g>
				<title>Terpene_synth (PF01397)
"Terpene synthase, N-terminal domain"</title>
				<rect class="PF01397" x="267" y="28" stroke-linejoin="round" width="17" height="24" fill="rgb(74,159,219)" stroke="rgb(59,127,175)" stroke-width="1" opacity="0.75" />
			</g>
		</g>
		<g>
			<title> (CARUB_v10014047mg)
hypothetical protein</title>
			<polygon class=" (CARUB_v10014047mg)
hypothetical protein" points="346,25 337,25 337,10 307,40 337,70 337,55 346,55" fill="rgb(255,255,255)" fill-opacity="1.0" stroke="rgb(0,0,0)" stroke-width="2"  />
			<g>
				<title>polyprenyl_synt (PF00348)
"Polyprenyl synthetase"</title>
				<polygon class="PF00348" points="312,39 323,28 337,28 337,52 323,52 312,41" stroke-linejoin="round" width="25" height="24" fill="rgb(61,206,65)" stroke="rgb(48,164,52)" stroke-width="1" opacity="0.75" />
			</g>
		</g>
	</g>
</svg>
