<svg version="1.1" baseProfile="full" xmlns="http://www.w3.org/2000/svg" width="1752.5666666666666" height="80">
	<g>
		<line x1="10" y1="40.0" x2="1742.5666666666666" y2="40.0" style="stroke:rgb(70,70,70); stroke-width:3 "/>
		<g>
			<title>
UV-repair protein</title>
			<polygon class="
UV-repair protein" points="10,25 63,25 63,10 93,40 63,70 63,55 10,55" fill="rgb(255,255,255)" fill-opacity="1.0" stroke="rgb(0,0,0)" stroke-width="2"  />
			<g>
				<title>UvrA_DNA-bind (PF17755)
"UvrA DNA-binding domain"</title>
				<rect class="PF17755" x="26" y="28" stroke-linejoin="round" width="11" height="24" fill="rgb(175,198,76)" stroke="rgb(140,158,60)" stroke-width="1" opacity="0.75" />
			</g>
			<g>
				<title>ABC_tran (PF00005)
"ABC transporter"</title>
				<polygon class="PF00005" points="60,28 76,28 83,35 83,45 76,52 60,52" stroke-linejoin="round" width="23" height="24" fill="rgb(129,201,63)" stroke="rgb(103,160,50)" stroke-width="1" opacity="0.75" />
			</g>
		</g>
		<g>
			<title>
membrane protein</title>
			<polygon class="
membrane protein" points="136,25 124,25 124,10 94,40 124,70 124,55 136,55" fill="rgb(255,255,255)" fill-opacity="1.0" stroke="rgb(0,0,0)" stroke-width="2"  />
			<g>
				<title>Metallophos (PF00149)
"Calcineurin-like phosphoesterase"</title>
				<polygon class="PF00149" points="99,39 110,28 115,28 115,52 110,52 99,41" stroke-linejoin="round" width="16" height="24" fill="rgb(181,197,58)" stroke="rgb(144,157,46)" stroke-width="1" opacity="0.75" />
			</g>
		</g>
		<g>
			<title>
monooxygenase</title>
			<polygon class="
monooxygenase" points="186,25 167,25 167,10 137,40 167,70 167,55 186,55" fill="rgb(255,255,255)" fill-opacity="1.0" stroke="rgb(0,0,0)" stroke-width="2"  />
			<g>
				<title>FAD_binding_3 (PF01494)
"FAD binding domain"</title>
				<polygon class="PF01494" points="152,29 153,28 185,28 185,52 153,52 152,51" stroke-linejoin="round" width="33" height="24" fill="rgb(182,175,59)" stroke="rgb(145,140,47)" stroke-width="1" opacity="0.75" />
			</g>
		</g>
		<g>
			<title>
thiamin diphosphate binding domain of transketolase</title>
			<polygon class="
thiamin diphosphate binding domain of transketolase" points="196,25 199,25 199,10 229,40 199,70 199,55 196,55" fill="rgb(255,255,255)" fill-opacity="1.0" stroke="rgb(0,0,0)" stroke-width="2"  />
			<g>
				<title>E1_dh (PF00676)
"Dehydrogenase E1 component"</title>
				<polygon class="PF00676" points="199,28 213,28 225,40 213,52 199,52" stroke-linejoin="round" width="28" height="24" fill="rgb(180,115,48)" stroke="rgb(144,92,38)" stroke-width="1" opacity="0.75" />
			</g>
		</g>
		<g>
			<title>
acyl carrier protein</title>
			<polygon class="
acyl carrier protein" points="229,10 237,40 229,70" fill="rgb(255,255,255)" fill-opacity="1.0" stroke="rgb(0,0,0)" stroke-width="2"  />
			<g>
				<title>PP-binding (PF00550)
"Phosphopantetheine attachment site"</title>
				<polygon class="PF00550" points="230,28 230,28 234,40 230,52 230,52" stroke-linejoin="round" width="6" height="24" fill="rgb(103,191,88)" stroke="rgb(82,152,70)" stroke-width="1" opacity="0.75" />
			</g>
		</g>
		<g>
			<title>
transketolase</title>
			<polygon class="
transketolase" points="238,25 280,25 280,10 310,40 280,70 280,55 238,55" fill="rgb(255,255,255)" fill-opacity="1.0" stroke="rgb(0,0,0)" stroke-width="2"  />
			<g>
				<title>Transket_pyr (PF02779)
"Transketolase, pyrimidine binding domain"</title>
				<rect class="PF02779" x="238" y="28" stroke-linejoin="round" width="17" height="24" fill="rgb(189,186,84)" stroke="rgb(151,148,67)" stroke-width="1" opacity="0.75" />
			</g>
			<g>
				<title>Transketolase_C (PF02780)
"Transketolase, C-terminal domain"</title>
				<rect class="PF02780" x="258" y="28" stroke-linejoin="round" width="11" height="24" fill="rgb(76,206,101)" stroke="rgb(60,164,80)" stroke-width="1" opacity="0.75" />
			</g>
			<g>
				<title>Biotin_lipoyl (PF00364)
"Biotin-requiring enzyme"</title>
				<rect class="PF00364" x="275" y="28" stroke-linejoin="round" width="7" height="24" fill="rgb(67,214,213)" stroke="rgb(53,171,170)" stroke-width="1" opacity="0.75" />
			</g>
			<g>
				<title>2-oxoacid_dh (PF00198)
"2-oxoacid dehydrogenases acyltransferase (catalytic domain)"</title>
				<polygon class="PF00198" points="287,28 294,28 306,40 294,52 287,52" stroke-linejoin="round" width="22" height="24" fill="rgb(204,74,202)" stroke="rgb(163,59,161)" stroke-width="1" opacity="0.75" />
			</g>
		</g>
		<g>
			<title>
3-oxoacyl-synthase III</title>
			<polygon class="
3-oxoacyl-synthase III" points="313,25 316,25 316,10 346,40 316,70 316,55 313,55" fill="rgb(255,255,255)" fill-opacity="1.0" stroke="rgb(0,0,0)" stroke-width="2"  />
			<g>
				<title>ACP_syn_III (PF08545)
"3-Oxoacyl-[acyl-carrier-protein (ACP)] synthase III"</title>
				<rect class="PF08545" x="323" y="28" stroke-linejoin="round" width="7" height="24" fill="rgb(189,102,84)" stroke="rgb(151,81,67)" stroke-width="1" opacity="0.75" />
			</g>
			<g>
				<title>ACP_syn_III_C (PF08541)
"3-Oxoacyl-[acyl-carrier-protein (ACP)] synthase III C terminal"</title>
				<polygon class="PF08541" points="337,35 342,40 337,45" stroke-linejoin="round" width="9" height="24" fill="rgb(146,207,81)" stroke="rgb(116,165,64)" stroke-width="1" opacity="0.75" />
			</g>
		</g>
		<g>
			<title>
hypothetical protein</title>
			<polygon class="
hypothetical protein" points="349,10 366,40 349,70" fill="rgb(255,255,255)" fill-opacity="1.0" stroke="rgb(0,0,0)" stroke-width="2"  />
		</g>
		<g>
			<title>
peptidase</title>
			<polygon class="
peptidase" points="451,25 400,25 400,10 370,40 400,70 400,55 451,55" fill="rgb(255,255,255)" fill-opacity="1.0" stroke="rgb(0,0,0)" stroke-width="2"  />
			<g>
				<title>Peptidase_M28 (PF04389)
"Peptidase family M28"</title>
				<rect class="PF04389" x="416" y="28" stroke-linejoin="round" width="18" height="24" fill="rgb(190,82,105)" stroke="rgb(152,65,84)" stroke-width="1" opacity="0.75" />
			</g>
		</g>
		<g>
			<title>
regulatory protein</title>
			<polygon class="
regulatory protein" points="517,25 481,25 481,10 451,40 481,70 481,55 517,55" fill="rgb(255,255,255)" fill-opacity="1.0" stroke="rgb(0,0,0)" stroke-width="2"  />
			<g>
				<title>NB-ARC (PF00931)
"NB-ARC domain"</title>
				<polygon class="PF00931" points="465,30 467,28 486,28 486,52 467,52 465,50" stroke-linejoin="round" width="21" height="24" fill="rgb(165,94,211)" stroke="rgb(132,75,168)" stroke-width="1" opacity="0.75" />
			</g>
			<g>
				<title>BTAD (PF03704)
"Bacterial transcriptional activator domain"</title>
				<rect class="PF03704" x="490" y="28" stroke-linejoin="round" width="14" height="24" fill="rgb(217,89,196)" stroke="rgb(173,71,156)" stroke-width="1" opacity="0.75" />
			</g>
			<g>
				<title>Trans_reg_C (PF00486)
"Transcriptional regulatory protein, C terminal"</title>
				<rect class="PF00486" x="505" y="28" stroke-linejoin="round" width="7" height="24" fill="rgb(204,153,57)" stroke="rgb(163,122,45)" stroke-width="1" opacity="0.75" />
			</g>
		</g>
		<g>
			<title>
amino acid adenylation domain-containing protein</title>
			<polygon class="
amino acid adenylation domain-containing protein" points="611,25 553,25 553,10 523,40 553,70 553,55 611,55" fill="rgb(255,255,255)" fill-opacity="1.0" stroke="rgb(0,0,0)" stroke-width="2"  />
			<g>
				<title>AMP-binding_C (PF13193)
"AMP-binding enzyme C-terminal domain"</title>
				<polygon class="PF13193" points="527,40 533,34 533,46" stroke-linejoin="round" width="7" height="24" fill="rgb(182,50,118)" stroke="rgb(145,39,94)" stroke-width="1" opacity="0.75" />
			</g>
			<g>
				<title>AMP-binding (PF00501)
"AMP-binding enzyme"</title>
				<polygon class="PF00501" points="534,33 539,28 573,28 573,52 539,52 534,47" stroke-linejoin="round" width="39" height="24" fill="rgb(60,217,223)" stroke="rgb(48,173,178)" stroke-width="1" opacity="0.75" />
			</g>
		</g>
		<g>
			<title>
non-heme iron hydroxylase</title>
			<polygon class="
non-heme iron hydroxylase" points="647,25 644,25 644,10 614,40 644,70 644,55 647,55" fill="rgb(255,255,255)" fill-opacity="1.0" stroke="rgb(0,0,0)" stroke-width="2"  />
			<g>
				<title>TauD (PF02668)
"Taurine catabolism dioxygenase TauD, TfdA family"</title>
				<polygon class="PF02668" points="618,40 630,28 637,28 637,52 630,52" stroke-linejoin="round" width="21" height="24" fill="rgb(180,79,217)" stroke="rgb(144,63,173)" stroke-width="1" opacity="0.75" />
			</g>
		</g>
		<g>
			<title>
non-ribosomal peptide synthetase</title>
			<polygon class="
non-ribosomal peptide synthetase" points="798,25 680,25 680,10 650,40 680,70 680,55 798,55" fill="rgb(255,255,255)" fill-opacity="1.0" stroke="rgb(0,0,0)" stroke-width="2"  />
			<g>
				<title>NAD_binding_4 (PF07993)
"Male sterility protein"</title>
				<polygon class="PF07993" points="664,30 666,28 687,28 687,52 666,52 664,50" stroke-linejoin="round" width="23" height="24" fill="rgb(100,212,204)" stroke="rgb(80,169,163)" stroke-width="1" opacity="0.75" />
			</g>
			<g>
				<title>PP-binding (PF00550)
"Phosphopantetheine attachment site"</title>
				<rect class="PF00550" x="692" y="28" stroke-linejoin="round" width="6" height="24" fill="rgb(103,191,88)" stroke="rgb(82,152,70)" stroke-width="1" opacity="0.75" />
			</g>
			<g>
				<title>AMP-binding_C (PF13193)
"AMP-binding enzyme C-terminal domain"</title>
				<rect class="PF13193" x="701" y="28" stroke-linejoin="round" width="7" height="24" fill="rgb(182,50,118)" stroke="rgb(145,39,94)" stroke-width="1" opacity="0.75" />
			</g>
			<g>
				<title>AMP-binding (PF00501)
"AMP-binding enzyme"</title>
				<rect class="PF00501" x="709" y="28" stroke-linejoin="round" width="39" height="24" fill="rgb(60,217,223)" stroke="rgb(48,173,178)" stroke-width="1" opacity="0.75" />
			</g>
			<g>
				<title>Condensation (PF00668)
"Condensation domain"</title>
				<rect class="PF00668" x="751" y="28" stroke-linejoin="round" width="44" height="24" fill="rgb(224,184,98)" stroke="rgb(179,147,78)" stroke-width="1" opacity="0.75" />
			</g>
		</g>
		<g>
			<title>
MbtH-like protein</title>
			<polygon class="
MbtH-like protein" points="799,40 805,10 805,70" fill="rgb(255,255,255)" fill-opacity="1.0" stroke="rgb(0,0,0)" stroke-width="2"  />
			<g>
				<title>MbtH (PF03621)
"MbtH-like protein"</title>
				<polygon class="PF03621" points="802,40 804,31 804,49" stroke-linejoin="round" width="4" height="24" fill="rgb(212,165,97)" stroke="rgb(169,132,77)" stroke-width="1" opacity="0.75" />
			</g>
		</g>
		<g>
			<title>
non-ribosomal peptide synthetase</title>
			<polygon class="
non-ribosomal peptide synthetase" points="910,25 837,25 837,10 807,40 837,70 837,55 910,55" fill="rgb(255,255,255)" fill-opacity="1.0" stroke="rgb(0,0,0)" stroke-width="2"  />
			<g>
				<title>PP-binding (PF00550)
"Phosphopantetheine attachment site"</title>
				<polygon class="PF00550" points="811,40 816,35 816,45" stroke-linejoin="round" width="6" height="24" fill="rgb(103,191,88)" stroke="rgb(82,152,70)" stroke-width="1" opacity="0.75" />
			</g>
			<g>
				<title>Condensation (PF00668)
"Condensation domain"</title>
				<rect class="PF00668" x="864" y="28" stroke-linejoin="round" width="44" height="24" fill="rgb(224,184,98)" stroke="rgb(179,147,78)" stroke-width="1" opacity="0.75" />
			</g>
		</g>
		<g>
			<title>
thioesterase II</title>
			<polygon class="
thioesterase II" points="911,40 936,10 936,70" fill="rgb(255,255,255)" fill-opacity="1.0" stroke="rgb(0,0,0)" stroke-width="2"  />
			<g>
				<title>Thioesterase (PF00975)
"Thioesterase domain"</title>
				<polygon class="PF00975" points="915,40 925,28 934,28 934,52 925,52" stroke-linejoin="round" width="22" height="24" fill="rgb(207,80,138)" stroke="rgb(165,63,110)" stroke-width="1" opacity="0.75" />
			</g>
		</g>
		<g>
			<title>
AMP-dependent synthetase and ligase</title>
			<polygon class="
AMP-dependent synthetase and ligase" points="948,25 984,25 984,10 1014,40 984,70 984,55 948,55" fill="rgb(255,255,255)" fill-opacity="1.0" stroke="rgb(0,0,0)" stroke-width="2"  />
			<g>
				<title>AMP-binding (PF00501)
"AMP-binding enzyme"</title>
				<rect class="PF00501" x="949" y="28" stroke-linejoin="round" width="43" height="24" fill="rgb(60,217,223)" stroke="rgb(48,173,178)" stroke-width="1" opacity="0.75" />
			</g>
			<g>
				<title>PP-binding (PF00550)
"Phosphopantetheine attachment site"</title>
				<polygon class="PF00550" points="1005,36 1009,40 1005,44" stroke-linejoin="round" width="6" height="24" fill="rgb(103,191,88)" stroke="rgb(82,152,70)" stroke-width="1" opacity="0.75" />
			</g>
		</g>
		<g>
			<title>
non-ribosomal peptide synthetase</title>
			<polygon class="
non-ribosomal peptide synthetase" points="1016,25 1295,25 1295,10 1325,40 1295,70 1295,55 1016,55" fill="rgb(255,255,255)" fill-opacity="1.0" stroke="rgb(0,0,0)" stroke-width="2"  />
			<g>
				<title>Condensation (PF00668)
"Condensation domain"</title>
				<rect class="PF00668" x="1019" y="28" stroke-linejoin="round" width="42" height="24" fill="rgb(224,184,98)" stroke="rgb(179,147,78)" stroke-width="1" opacity="0.75" />
			</g>
			<g>
				<title>AMP-binding (PF00501)
"AMP-binding enzyme"</title>
				<rect class="PF00501" x="1064" y="28" stroke-linejoin="round" width="37" height="24" fill="rgb(60,217,223)" stroke="rgb(48,173,178)" stroke-width="1" opacity="0.75" />
			</g>
			<g>
				<title>AMP-binding_C (PF13193)
"AMP-binding enzyme C-terminal domain"</title>
				<rect class="PF13193" x="1101" y="28" stroke-linejoin="round" width="7" height="24" fill="rgb(182,50,118)" stroke="rgb(145,39,94)" stroke-width="1" opacity="0.75" />
			</g>
			<g>
				<title>PP-binding (PF00550)
"Phosphopantetheine attachment site"</title>
				<rect class="PF00550" x="1112" y="28" stroke-linejoin="round" width="6" height="24" fill="rgb(103,191,88)" stroke="rgb(82,152,70)" stroke-width="1" opacity="0.75" />
			</g>
			<g>
				<title>Condensation (PF00668)
"Condensation domain"</title>
				<rect class="PF00668" x="1120" y="28" stroke-linejoin="round" width="43" height="24" fill="rgb(224,184,98)" stroke="rgb(179,147,78)" stroke-width="1" opacity="0.75" />
			</g>
			<g>
				<title>AMP-binding (PF00501)
"AMP-binding enzyme"</title>
				<rect class="PF00501" x="1166" y="28" stroke-linejoin="round" width="37" height="24" fill="rgb(60,217,223)" stroke="rgb(48,173,178)" stroke-width="1" opacity="0.75" />
			</g>
			<g>
				<title>AMP-binding_C (PF13193)
"AMP-binding enzyme C-terminal domain"</title>
				<rect class="PF13193" x="1204" y="28" stroke-linejoin="round" width="7" height="24" fill="rgb(182,50,118)" stroke="rgb(145,39,94)" stroke-width="1" opacity="0.75" />
			</g>
			<g>
				<title>PP-binding (PF00550)
"Phosphopantetheine attachment site"</title>
				<rect class="PF00550" x="1214" y="28" stroke-linejoin="round" width="6" height="24" fill="rgb(103,191,88)" stroke="rgb(82,152,70)" stroke-width="1" opacity="0.75" />
			</g>
			<g>
				<title>Condensation (PF00668)
"Condensation domain"</title>
				<rect class="PF00668" x="1223" y="28" stroke-linejoin="round" width="42" height="24" fill="rgb(224,184,98)" stroke="rgb(179,147,78)" stroke-width="1" opacity="0.75" />
			</g>
			<g>
				<title>AMP-binding (PF00501)
"AMP-binding enzyme"</title>
				<rect class="PF00501" x="1268" y="28" stroke-linejoin="round" width="37" height="24" fill="rgb(60,217,223)" stroke="rgb(48,173,178)" stroke-width="1" opacity="0.75" />
			</g>
			<g>
				<title>AMP-binding_C (PF13193)
"AMP-binding enzyme C-terminal domain"</title>
				<polygon class="PF13193" points="1306,28 1309,28 1313,32 1313,48 1309,52 1306,52" stroke-linejoin="round" width="7" height="24" fill="rgb(182,50,118)" stroke="rgb(145,39,94)" stroke-width="1" opacity="0.75" />
			</g>
			<g>
				<title>PP-binding (PF00550)
"Phosphopantetheine attachment site"</title>
				<polygon class="PF00550" points="1316,35 1321,40 1316,45" stroke-linejoin="round" width="6" height="24" fill="rgb(103,191,88)" stroke="rgb(82,152,70)" stroke-width="1" opacity="0.75" />
			</g>
		</g>
		<g>
			<title>
hypothetical protein</title>
			<polygon class="
hypothetical protein" points="1328,10 1352,40 1328,70" fill="rgb(255,255,255)" fill-opacity="1.0" stroke="rgb(0,0,0)" stroke-width="2"  />
			<g>
				<title>Gpr1_Fun34_YaaH (PF01184)
"GPR1/FUN34/yaaH family"</title>
				<polygon class="PF01184" points="1330,28 1339,28 1348,40 1339,52 1330,52" stroke-linejoin="round" width="19" height="24" fill="rgb(191,119,90)" stroke="rgb(152,95,72)" stroke-width="1" opacity="0.75" />
			</g>
		</g>
		<g>
			<title>
hydroxylase</title>
			<polygon class="
hydroxylase" points="1355,25 1360,25 1360,10 1390,40 1360,70 1360,55 1355,55" fill="rgb(255,255,255)" fill-opacity="1.0" stroke="rgb(0,0,0)" stroke-width="2"  />
		</g>
		<g>
			<title>
SAM-dependent methyltransferase</title>
			<polygon class="
SAM-dependent methyltransferase" points="1396,25 1401,25 1401,10 1431,40 1401,70 1401,55 1396,55" fill="rgb(255,255,255)" fill-opacity="1.0" stroke="rgb(0,0,0)" stroke-width="2"  />
			<g>
				<title>Dimerisation2 (PF16864)
"Dimerisation domain"</title>
				<rect class="PF16864" x="1397" y="28" stroke-linejoin="round" width="7" height="24" fill="rgb(84,199,85)" stroke="rgb(67,159,68)" stroke-width="1" opacity="0.75" />
			</g>
			<g>
				<title>Methyltransf_2 (PF00891)
"O-methyltransferase domain"</title>
				<polygon class="PF00891" points="1408,28 1415,28 1427,40 1415,52 1408,52" stroke-linejoin="round" width="21" height="24" fill="rgb(50,51,190)" stroke="rgb(39,40,152)" stroke-width="1" opacity="0.75" />
			</g>
		</g>
		<g>
			<title>
SAM-dependent methyltransferase</title>
			<polygon class="
SAM-dependent methyltransferase" points="1437,25 1441,25 1441,10 1471,40 1441,70 1441,55 1437,55" fill="rgb(255,255,255)" fill-opacity="1.0" stroke="rgb(0,0,0)" stroke-width="2"  />
			<g>
				<title>Dimerisation2 (PF16864)
"Dimerisation domain"</title>
				<rect class="PF16864" x="1438" y="28" stroke-linejoin="round" width="8" height="24" fill="rgb(84,199,85)" stroke="rgb(67,159,68)" stroke-width="1" opacity="0.75" />
			</g>
			<g>
				<title>Methyltransf_2 (PF00891)
"O-methyltransferase domain"</title>
				<polygon class="PF00891" points="1448,28 1455,28 1467,40 1455,52 1448,52" stroke-linejoin="round" width="21" height="24" fill="rgb(50,51,190)" stroke="rgb(39,40,152)" stroke-width="1" opacity="0.75" />
			</g>
		</g>
		<g>
			<title>
transmembrane-transport protein</title>
			<polygon class="
transmembrane-transport protein" points="1476,25 1499,25 1499,10 1529,40 1499,70 1499,55 1476,55" fill="rgb(255,255,255)" fill-opacity="1.0" stroke="rgb(0,0,0)" stroke-width="2"  />
			<g>
				<title>MFS_1 (PF07690)
"Major Facilitator Superfamily"</title>
				<polygon class="PF07690" points="1478,28 1512,28 1517,33 1517,47 1512,52 1478,52" stroke-linejoin="round" width="39" height="24" fill="rgb(193,224,74)" stroke="rgb(154,179,59)" stroke-width="1" opacity="0.75" />
			</g>
		</g>
		<g>
			<title>
oxidoreductase</title>
			<polygon class="
oxidoreductase" points="1540,25 1564,25 1564,10 1594,40 1564,70 1564,55 1540,55" fill="rgb(255,255,255)" fill-opacity="1.0" stroke="rgb(0,0,0)" stroke-width="2"  />
			<g>
				<title>FAD_binding_4 (PF01565)
"FAD binding domain"</title>
				<rect class="PF01565" x="1547" y="28" stroke-linejoin="round" width="13" height="24" fill="rgb(226,88,136)" stroke="rgb(180,70,108)" stroke-width="1" opacity="0.75" />
			</g>
			<g>
				<title>BBE (PF08031)
"Berberine and berberine like"</title>
				<polygon class="PF08031" points="1588,39 1589,40 1588,41" stroke-linejoin="round" width="5" height="24" fill="rgb(210,73,83)" stroke="rgb(168,58,66)" stroke-width="1" opacity="0.75" />
			</g>
		</g>
		<g>
			<title>
methyltransferase</title>
			<polygon class="
methyltransferase" points="1595,25 1604,25 1604,10 1634,40 1604,70 1604,55 1595,55" fill="rgb(255,255,255)" fill-opacity="1.0" stroke="rgb(0,0,0)" stroke-width="2"  />
			<g>
				<title>Methyltransf_11 (PF08241)
"Methyltransferase domain"</title>
				<polygon class="PF08241" points="1612,28 1617,28 1621,32 1621,48 1617,52 1612,52" stroke-linejoin="round" width="9" height="24" fill="rgb(106,219,159)" stroke="rgb(84,175,127)" stroke-width="1" opacity="0.75" />
			</g>
		</g>
		<g>
			<title>
short chain dehydrogenase</title>
			<polygon class="
short chain dehydrogenase" points="1670,25 1669,25 1669,10 1639,40 1669,70 1669,55 1670,55" fill="rgb(255,255,255)" fill-opacity="1.0" stroke="rgb(0,0,0)" stroke-width="2"  />
			<g>
				<title>adh_short_C2 (PF13561)
"Enoyl-(Acyl carrier protein) reductase"</title>
				<polygon class="PF13561" points="1643,40 1655,28 1668,28 1668,52 1655,52 1643,40" stroke-linejoin="round" width="25" height="24" fill="rgb(73,205,127)" stroke="rgb(58,164,101)" stroke-width="1" opacity="0.75" />
			</g>
		</g>
		<g>
			<title>
phosphopantetheinyl transferase</title>
			<polygon class="
phosphopantetheinyl transferase" points="1687,40 1709,10 1709,70" fill="rgb(255,255,255)" fill-opacity="1.0" stroke="rgb(0,0,0)" stroke-width="2"  />
			<g>
				<title>ACPS (PF01648)
"4'-phosphopantetheinyl transferase superfamily"</title>
				<polygon class="PF01648" points="1691,40 1698,31 1698,49" stroke-linejoin="round" width="10" height="24" fill="rgb(85,184,135)" stroke="rgb(68,147,108)" stroke-width="1" opacity="0.75" />
			</g>
			<g>
				<title>4PPT_N (PF17837)
"4'-phosphopantetheinyl transferase N-terminal domain"</title>
				<polygon class="PF17837" points="1699,30 1700,28 1705,28 1705,52 1700,52 1699,50" stroke-linejoin="round" width="6" height="24" fill="rgb(198,68,92)" stroke="rgb(158,54,73)" stroke-width="1" opacity="0.75" />
			</g>
		</g>
		<g>
			<title>
transcriptional regulator</title>
			<polygon class="
transcriptional regulator" points="1720,40 1742,10 1742,70" fill="rgb(255,255,255)" fill-opacity="1.0" stroke="rgb(0,0,0)" stroke-width="2"  />
			<g>
				<title>MerR_1 (PF13411)
"MerR HTH family regulatory protein"</title>
				<rect class="PF13411" x="1735" y="28" stroke-linejoin="round" width="7" height="24" fill="rgb(100,202,107)" stroke="rgb(80,161,85)" stroke-width="1" opacity="0.75" />
			</g>
		</g>
	</g>
</svg>
