<svg version="1.1" baseProfile="full" xmlns="http://www.w3.org/2000/svg" width="774.2" height="80">
	<g>
		<line x1="10" y1="40.0" x2="764.2" y2="40.0" style="stroke:rgb(70,70,70); stroke-width:3 "/>
		<g>
			<title>SCO0489
conserved hypothetical protein</title>
			<polygon class="SCO0489
conserved hypothetical protein" points="10,40 17,10 17,70" fill="rgb(255,255,255)" fill-opacity="1.0" stroke="rgb(0,0,0)" stroke-width="2"  />
			<g>
				<title>MbtH (PF03621)
"MbtH-like protein"</title>
				<polygon class="PF03621" points="13,40 16,28 16,28 16,52 16,52" stroke-linejoin="round" width="5" height="24" fill="rgb(212,165,97)" stroke="rgb(169,132,77)" stroke-width="1" opacity="0.75" />
			</g>
		</g>
		<g>
			<title>SCO0490
putative esterase</title>
			<polygon class="SCO0490
putative esterase" points="20,25 26,25 26,10 56,40 26,70 26,55 20,55" fill="rgb(255,255,255)" fill-opacity="1.0" stroke="rgb(0,0,0)" stroke-width="2"  />
			<g>
				<title>Esterase (PF00756)
"Putative esterase"</title>
				<polygon class="PF00756" points="34,28 40,28 52,40 40,52 34,52" stroke-linejoin="round" width="21" height="24" fill="rgb(217,132,77)" stroke="rgb(173,105,61)" stroke-width="1" opacity="0.75" />
			</g>
		</g>
		<g>
			<title>SCO0491
putative ABC transporter transmembrane protein</title>
			<polygon class="SCO0491
putative ABC transporter transmembrane protein" points="113,25 89,25 89,10 59,40 89,70 89,55 113,55" fill="rgb(255,255,255)" fill-opacity="1.0" stroke="rgb(0,0,0)" stroke-width="2"  />
			<g>
				<title>ABC_tran (PF00005)
"ABC transporter"</title>
				<polygon class="PF00005" points="66,37 75,28 80,28 80,52 75,52 66,43" stroke-linejoin="round" width="14" height="24" fill="rgb(129,201,63)" stroke="rgb(103,160,50)" stroke-width="1" opacity="0.75" />
			</g>
			<g>
				<title>ABC_membrane (PF00664)
"ABC transporter transmembrane region"</title>
				<rect class="PF00664" x="86" y="28" stroke-linejoin="round" width="26" height="24" fill="rgb(149,226,73)" stroke="rgb(119,180,58)" stroke-width="1" opacity="0.75" />
			</g>
		</g>
		<g>
			<title>SCO0492
putative peptide synthetase</title>
			<polygon class="SCO0492
putative peptide synthetase" points="479,25 145,25 145,10 115,40 145,70 145,55 479,55" fill="rgb(255,255,255)" fill-opacity="1.0" stroke="rgb(0,0,0)" stroke-width="2"  />
			<g>
				<title>PP-binding (PF00550)
"Phosphopantetheine attachment site"</title>
				<polygon class="PF00550" points="119,40 121,38 121,42" stroke-linejoin="round" width="6" height="24" fill="rgb(103,191,88)" stroke="rgb(82,152,70)" stroke-width="1" opacity="0.75" />
			</g>
			<g>
				<title>AMP-binding_C (PF13193)
"AMP-binding enzyme C-terminal domain"</title>
				<polygon class="PF13193" points="125,34 131,28 132,28 132,52 131,52 125,46" stroke-linejoin="round" width="7" height="24" fill="rgb(182,50,118)" stroke="rgb(145,39,94)" stroke-width="1" opacity="0.75" />
			</g>
			<g>
				<title>AMP-binding (PF00501)
"AMP-binding enzyme"</title>
				<rect class="PF00501" x="133" y="28" stroke-linejoin="round" width="40" height="24" fill="rgb(60,217,223)" stroke="rgb(48,173,178)" stroke-width="1" opacity="0.75" />
			</g>
			<g>
				<title>Condensation (PF00668)
"Condensation domain"</title>
				<rect class="PF00668" x="176" y="28" stroke-linejoin="round" width="41" height="24" fill="rgb(224,184,98)" stroke="rgb(179,147,78)" stroke-width="1" opacity="0.75" />
			</g>
			<g>
				<title>Condensation (PF00668)
"Condensation domain"</title>
				<rect class="PF00668" x="217" y="28" stroke-linejoin="round" width="35" height="24" fill="rgb(224,184,98)" stroke="rgb(179,147,78)" stroke-width="1" opacity="0.75" />
			</g>
			<g>
				<title>PP-binding (PF00550)
"Phosphopantetheine attachment site"</title>
				<rect class="PF00550" x="258" y="28" stroke-linejoin="round" width="6" height="24" fill="rgb(103,191,88)" stroke="rgb(82,152,70)" stroke-width="1" opacity="0.75" />
			</g>
			<g>
				<title>AMP-binding_C (PF13193)
"AMP-binding enzyme C-terminal domain"</title>
				<rect class="PF13193" x="267" y="28" stroke-linejoin="round" width="6" height="24" fill="rgb(182,50,118)" stroke="rgb(145,39,94)" stroke-width="1" opacity="0.75" />
			</g>
			<g>
				<title>AMP-binding (PF00501)
"AMP-binding enzyme"</title>
				<rect class="PF00501" x="275" y="28" stroke-linejoin="round" width="41" height="24" fill="rgb(60,217,223)" stroke="rgb(48,173,178)" stroke-width="1" opacity="0.75" />
			</g>
			<g>
				<title>Condensation (PF00668)
"Condensation domain"</title>
				<rect class="PF00668" x="318" y="28" stroke-linejoin="round" width="41" height="24" fill="rgb(224,184,98)" stroke="rgb(179,147,78)" stroke-width="1" opacity="0.75" />
			</g>
			<g>
				<title>Condensation (PF00668)
"Condensation domain"</title>
				<rect class="PF00668" x="363" y="28" stroke-linejoin="round" width="42" height="24" fill="rgb(224,184,98)" stroke="rgb(179,147,78)" stroke-width="1" opacity="0.75" />
			</g>
			<g>
				<title>PP-binding (PF00550)
"Phosphopantetheine attachment site"</title>
				<rect class="PF00550" x="408" y="28" stroke-linejoin="round" width="6" height="24" fill="rgb(103,191,88)" stroke="rgb(82,152,70)" stroke-width="1" opacity="0.75" />
			</g>
			<g>
				<title>AMP-binding_C (PF13193)
"AMP-binding enzyme C-terminal domain"</title>
				<rect class="PF13193" x="417" y="28" stroke-linejoin="round" width="7" height="24" fill="rgb(182,50,118)" stroke="rgb(145,39,94)" stroke-width="1" opacity="0.75" />
			</g>
			<g>
				<title>AMP-binding (PF00501)
"AMP-binding enzyme"</title>
				<rect class="PF00501" x="425" y="28" stroke-linejoin="round" width="39" height="24" fill="rgb(60,217,223)" stroke="rgb(48,173,178)" stroke-width="1" opacity="0.75" />
			</g>
		</g>
		<g>
			<title>SCO0493
putative ABC-transporter transmembrane protein</title>
			<polygon class="SCO0493
putative ABC-transporter transmembrane protein" points="541,25 511,25 511,10 481,40 511,70 511,55 541,55" fill="rgb(255,255,255)" fill-opacity="1.0" stroke="rgb(0,0,0)" stroke-width="2"  />
			<g>
				<title>ABC_tran (PF00005)
"ABC transporter"</title>
				<polygon class="PF00005" points="488,37 497,28 502,28 502,52 497,52 488,43" stroke-linejoin="round" width="14" height="24" fill="rgb(129,201,63)" stroke="rgb(103,160,50)" stroke-width="1" opacity="0.75" />
			</g>
			<g>
				<title>ABC_membrane (PF00664)
"ABC transporter transmembrane region"</title>
				<rect class="PF00664" x="510" y="28" stroke-linejoin="round" width="27" height="24" fill="rgb(149,226,73)" stroke="rgb(119,180,58)" stroke-width="1" opacity="0.75" />
			</g>
		</g>
		<g>
			<title>SCO0494
putative iron-siderophore binding lipoprotein</title>
			<polygon class="SCO0494
putative iron-siderophore binding lipoprotein" points="577,25 572,25 572,10 542,40 572,70 572,55 577,55" fill="rgb(255,255,255)" fill-opacity="1.0" stroke="rgb(0,0,0)" stroke-width="2"  />
			<g>
				<title>Peripla_BP_2 (PF01497)
"Periplasmic binding protein"</title>
				<polygon class="PF01497" points="546,40 558,28 569,28 569,52 558,52" stroke-linejoin="round" width="25" height="24" fill="rgb(183,226,104)" stroke="rgb(146,180,83)" stroke-width="1" opacity="0.75" />
			</g>
		</g>
		<g>
			<title>SCO0495
putative iron-siderophore ABC-transporter ATP-binding protein</title>
			<polygon class="SCO0495
putative iron-siderophore ABC-transporter ATP-binding protein" points="578,40 606,10 606,70" fill="rgb(255,255,255)" fill-opacity="1.0" stroke="rgb(0,0,0)" stroke-width="2"  />
			<g>
				<title>ABC_tran (PF00005)
"ABC transporter"</title>
				<polygon class="PF00005" points="588,34 594,28 602,28 602,52 594,52 588,46" stroke-linejoin="round" width="14" height="24" fill="rgb(129,201,63)" stroke="rgb(103,160,50)" stroke-width="1" opacity="0.75" />
			</g>
		</g>
		<g>
			<title>SCO0496
putative iron-siderophore permease transmembrane protein</title>
			<polygon class="SCO0496
putative iron-siderophore permease transmembrane protein" points="644,25 638,25 638,10 608,40 638,70 638,55 644,55" fill="rgb(255,255,255)" fill-opacity="1.0" stroke="rgb(0,0,0)" stroke-width="2"  />
			<g>
				<title>FecCD (PF01032)
"FecCD transport family"</title>
				<polygon class="PF01032" points="612,40 624,28 639,28 639,52 624,52" stroke-linejoin="round" width="31" height="24" fill="rgb(210,177,70)" stroke="rgb(168,141,56)" stroke-width="1" opacity="0.75" />
			</g>
		</g>
		<g>
			<title>SCO0497
putative iron-siderophore permease transmembrane protein</title>
			<polygon class="SCO0497
putative iron-siderophore permease transmembrane protein" points="680,25 675,25 675,10 645,40 675,70 675,55 680,55" fill="rgb(255,255,255)" fill-opacity="1.0" stroke="rgb(0,0,0)" stroke-width="2"  />
			<g>
				<title>FecCD (PF01032)
"FecCD transport family"</title>
				<polygon class="PF01032" points="649,40 661,28 676,28 676,52 661,52" stroke-linejoin="round" width="31" height="24" fill="rgb(210,177,70)" stroke="rgb(168,141,56)" stroke-width="1" opacity="0.75" />
			</g>
		</g>
		<g>
			<title>SCO0498
putative peptide monooxygenase</title>
			<polygon class="SCO0498
putative peptide monooxygenase" points="726,25 711,25 711,10 681,40 711,70 711,55 726,55" fill="rgb(255,255,255)" fill-opacity="1.0" stroke="rgb(0,0,0)" stroke-width="2"  />
			<g>
				<title>Lys_Orn_oxgnase (PF13434)
"L-lysine 6-monooxygenase/L-ornithine 5-monooxygenase"</title>
				<polygon class="PF13434" points="690,35 697,28 724,28 724,52 697,52 690,45" stroke-linejoin="round" width="34" height="24" fill="rgb(81,213,119)" stroke="rgb(64,170,95)" stroke-width="1" opacity="0.75" />
			</g>
		</g>
		<g>
			<title>SCO0499
putative formyltransferase</title>
			<polygon class="SCO0499
putative formyltransferase" points="732,25 733,25 733,10 763,40 733,70 733,55 732,55" fill="rgb(255,255,255)" fill-opacity="1.0" stroke="rgb(0,0,0)" stroke-width="2"  />
			<g>
				<title>Formyl_trans_N (PF00551)
"Formyl transferase"</title>
				<polygon class="PF00551" points="732,28 747,28 749,30 749,50 747,52 732,52" stroke-linejoin="round" width="17" height="24" fill="rgb(111,183,66)" stroke="rgb(88,146,52)" stroke-width="1" opacity="0.75" />
			</g>
			<g>
				<title>Formyl_trans_C (PF02911)
"Formyl transferase, C-terminal domain"</title>
				<polygon class="PF02911" points="752,33 759,40 752,47" stroke-linejoin="round" width="10" height="24" fill="rgb(74,115,225)" stroke="rgb(59,92,180)" stroke-width="1" opacity="0.75" />
			</g>
		</g>
	</g>
</svg>
