<svg version="1.1" baseProfile="full" xmlns="http://www.w3.org/2000/svg" width="2456.0" height="80">
	<g>
		<line x1="10" y1="40.0" x2="2446.0" y2="40.0" style="stroke:rgb(70,70,70); stroke-width:3 "/>
		<g>
			<title> (RCOM_1574060)
cytochrome P450, putative</title>
			<polygon class=" (RCOM_1574060)
cytochrome P450, putative" points="63,25 40,25 40,10 10,40 40,70 40,55 63,55" fill="rgb(255,255,255)" fill-opacity="1.0" stroke="rgb(0,0,0)" stroke-width="2"  />
			<g>
				<title>p450 (PF00067)
"Cytochrome P450"</title>
				<polygon class="PF00067" points="14,40 26,28 59,28 59,52 26,52 14,40" stroke-linejoin="round" width="45" height="24" fill="rgb(85,216,107)" stroke="rgb(68,172,85)" stroke-width="1" opacity="0.75" />
			</g>
		</g>
		<g>
			<title> (RCOM_1574170)
short chain alcohol dehydrogenase, putative</title>
			<polygon class=" (RCOM_1574170)
short chain alcohol dehydrogenase, putative" points="224,25 226,25 226,10 256,40 226,70 226,55 224,55" fill="rgb(255,255,255)" fill-opacity="1.0" stroke="rgb(0,0,0)" stroke-width="2"  />
			<g>
				<title>adh_short_C2 (PF13561)
"Enoyl-(Acyl carrier protein) reductase"</title>
				<polygon class="PF13561" points="226,28 240,28 250,38 250,42 240,52 226,52" stroke-linejoin="round" width="24" height="24" fill="rgb(73,205,127)" stroke="rgb(58,164,101)" stroke-width="1" opacity="0.75" />
			</g>
		</g>
		<g>
			<title> (RCOM_1574180)
cytochrome P450, putative</title>
			<polygon class=" (RCOM_1574180)
cytochrome P450, putative" points="379,25 356,25 356,10 326,40 356,70 356,55 379,55" fill="rgb(255,255,255)" fill-opacity="1.0" stroke="rgb(0,0,0)" stroke-width="2"  />
			<g>
				<title>p450 (PF00067)
"Cytochrome P450"</title>
				<polygon class="PF00067" points="330,40 342,28 375,28 375,52 342,52 330,40" stroke-linejoin="round" width="45" height="24" fill="rgb(85,216,107)" stroke="rgb(68,172,85)" stroke-width="1" opacity="0.75" />
			</g>
		</g>
		<g>
			<title> (RCOM_1574190)
Casbene synthase, chloroplast precursor, putative</title>
			<polygon class=" (RCOM_1574190)
Casbene synthase, chloroplast precursor, putative" points="444,25 505,25 505,10 535,40 505,70 505,55 444,55" fill="rgb(255,255,255)" fill-opacity="1.0" stroke="rgb(0,0,0)" stroke-width="2"  />
			<g>
				<title>Terpene_synth (PF01397)
"Terpene synthase, N-terminal domain"</title>
				<rect class="PF01397" x="451" y="28" stroke-linejoin="round" width="17" height="24" fill="rgb(74,159,219)" stroke="rgb(59,127,175)" stroke-width="1" opacity="0.75" />
			</g>
			<g>
				<title>Terpene_synth_C (PF03936)
"Terpene synthase family, metal binding domain"</title>
				<rect class="PF03936" x="471" y="28" stroke-linejoin="round" width="26" height="24" fill="rgb(219,91,215)" stroke="rgb(175,72,171)" stroke-width="1" opacity="0.75" />
			</g>
		</g>
		<g>
			<title> (RCOM_1574200)
cytochrome P450, putative</title>
			<polygon class=" (RCOM_1574200)
cytochrome P450, putative" points="589,25 616,25 616,10 646,40 616,70 616,55 589,55" fill="rgb(255,255,255)" fill-opacity="1.0" stroke="rgb(0,0,0)" stroke-width="2"  />
			<g>
				<title>p450 (PF00067)
"Cytochrome P450"</title>
				<polygon class="PF00067" points="596,28 630,28 641,39 641,41 630,52 596,52" stroke-linejoin="round" width="45" height="24" fill="rgb(85,216,107)" stroke="rgb(68,172,85)" stroke-width="1" opacity="0.75" />
			</g>
		</g>
		<g>
			<title> (RCOM_1574210)
conserved hypothetical protein</title>
			<polygon class=" (RCOM_1574210)
conserved hypothetical protein" points="670,25 681,25 681,10 711,40 681,70 681,55 670,55" fill="rgb(255,255,255)" fill-opacity="1.0" stroke="rgb(0,0,0)" stroke-width="2"  />
		</g>
		<g>
			<title> (RCOM_1574220)
cytochrome P450, putative</title>
			<polygon class=" (RCOM_1574220)
cytochrome P450, putative" points="791,25 764,25 764,10 734,40 764,70 764,55 791,55" fill="rgb(255,255,255)" fill-opacity="1.0" stroke="rgb(0,0,0)" stroke-width="2"  />
			<g>
				<title>p450 (PF00067)
"Cytochrome P450"</title>
				<polygon class="PF00067" points="740,38 750,28 786,28 786,52 750,52 740,42" stroke-linejoin="round" width="46" height="24" fill="rgb(85,216,107)" stroke="rgb(68,172,85)" stroke-width="1" opacity="0.75" />
			</g>
		</g>
		<g>
			<title> (RCOM_1574330)
transferase, putative</title>
			<polygon class=" (RCOM_1574330)
transferase, putative" points="1114,25 1104,25 1104,10 1074,40 1104,70 1104,55 1114,55" fill="rgb(255,255,255)" fill-opacity="1.0" stroke="rgb(0,0,0)" stroke-width="2"  />
			<g>
				<title>Transferase (PF02458)
"Transferase family"</title>
				<polygon class="PF02458" points="1078,40 1090,28 1101,28 1101,52 1090,52 1078,40" stroke-linejoin="round" width="23" height="24" fill="rgb(57,117,190)" stroke="rgb(45,93,152)" stroke-width="1" opacity="0.75" />
			</g>
			<g>
				<title>Transferase (PF02458)
"Transferase family"</title>
				<rect class="PF02458" x="1101" y="28" stroke-linejoin="round" width="12" height="24" fill="rgb(57,117,190)" stroke="rgb(45,93,152)" stroke-width="1" opacity="0.75" />
			</g>
		</g>
		<g>
			<title> (RCOM_1574340)
cytochrome P450, putative</title>
			<polygon class=" (RCOM_1574340)
cytochrome P450, putative" points="1234,25 1211,25 1211,10 1181,40 1211,70 1211,55 1234,55" fill="rgb(255,255,255)" fill-opacity="1.0" stroke="rgb(0,0,0)" stroke-width="2"  />
			<g>
				<title>p450 (PF00067)
"Cytochrome P450"</title>
				<polygon class="PF00067" points="1185,40 1197,28 1231,28 1231,52 1197,52 1185,40" stroke-linejoin="round" width="46" height="24" fill="rgb(85,216,107)" stroke="rgb(68,172,85)" stroke-width="1" opacity="0.75" />
			</g>
		</g>
		<g>
			<title> (RCOM_1574350)
Casbene synthase, chloroplast precursor</title>
			<polygon class=" (RCOM_1574350)
Casbene synthase, chloroplast precursor" points="1330,25 1380,25 1380,10 1410,40 1380,70 1380,55 1330,55" fill="rgb(255,255,255)" fill-opacity="1.0" stroke="rgb(0,0,0)" stroke-width="2"  />
			<g>
				<title>Terpene_synth (PF01397)
"Terpene synthase, N-terminal domain"</title>
				<rect class="PF01397" x="1337" y="28" stroke-linejoin="round" width="17" height="24" fill="rgb(74,159,219)" stroke="rgb(59,127,175)" stroke-width="1" opacity="0.75" />
			</g>
			<g>
				<title>Terpene_synth_C (PF03936)
"Terpene synthase family, metal binding domain"</title>
				<rect class="PF03936" x="1358" y="28" stroke-linejoin="round" width="26" height="24" fill="rgb(219,91,215)" stroke="rgb(175,72,171)" stroke-width="1" opacity="0.75" />
			</g>
		</g>
		<g>
			<title> (RCOM_1574360)
conserved hypothetical protein</title>
			<polygon class=" (RCOM_1574360)
conserved hypothetical protein" points="1455,10 1461,40 1455,70" fill="rgb(255,255,255)" fill-opacity="1.0" stroke="rgb(0,0,0)" stroke-width="2"  />
		</g>
		<g>
			<title> (RCOM_1574370)
cytochrome P450, putative</title>
			<polygon class=" (RCOM_1574370)
cytochrome P450, putative" points="1553,25 1579,25 1579,10 1609,40 1579,70 1579,55 1553,55" fill="rgb(255,255,255)" fill-opacity="1.0" stroke="rgb(0,0,0)" stroke-width="2"  />
			<g>
				<title>p450 (PF00067)
"Cytochrome P450"</title>
				<polygon class="PF00067" points="1559,28 1593,28 1604,39 1604,41 1593,52 1559,52" stroke-linejoin="round" width="45" height="24" fill="rgb(85,216,107)" stroke="rgb(68,172,85)" stroke-width="1" opacity="0.75" />
			</g>
		</g>
		<g>
			<title> (RCOM_1574380)
Casbene synthase, chloroplast precursor, putative</title>
			<polygon class=" (RCOM_1574380)
Casbene synthase, chloroplast precursor, putative" points="1710,25 1761,25 1761,10 1791,40 1761,70 1761,55 1710,55" fill="rgb(255,255,255)" fill-opacity="1.0" stroke="rgb(0,0,0)" stroke-width="2"  />
			<g>
				<title>Terpene_synth (PF01397)
"Terpene synthase, N-terminal domain"</title>
				<rect class="PF01397" x="1717" y="28" stroke-linejoin="round" width="17" height="24" fill="rgb(74,159,219)" stroke="rgb(59,127,175)" stroke-width="1" opacity="0.75" />
			</g>
			<g>
				<title>Terpene_synth_C (PF03936)
"Terpene synthase family, metal binding domain"</title>
				<rect class="PF03936" x="1737" y="28" stroke-linejoin="round" width="26" height="24" fill="rgb(219,91,215)" stroke="rgb(175,72,171)" stroke-width="1" opacity="0.75" />
			</g>
		</g>
		<g>
			<title> (RCOM_1574390)
short chain alcohol dehydrogenase, putative</title>
			<polygon class=" (RCOM_1574390)
short chain alcohol dehydrogenase, putative" points="2035,25 2034,25 2034,10 2004,40 2034,70 2034,55 2035,55" fill="rgb(255,255,255)" fill-opacity="1.0" stroke="rgb(0,0,0)" stroke-width="2"  />
			<g>
				<title>adh_short_C2 (PF13561)
"Enoyl-(Acyl carrier protein) reductase"</title>
				<polygon class="PF13561" points="2008,40 2020,28 2032,28 2032,52 2020,52 2008,40" stroke-linejoin="round" width="24" height="24" fill="rgb(73,205,127)" stroke="rgb(58,164,101)" stroke-width="1" opacity="0.75" />
			</g>
		</g>
		<g>
			<title> (RCOM_1574400)
cytochrome P450, putative</title>
			<polygon class=" (RCOM_1574400)
cytochrome P450, putative" points="2124,25 2146,25 2146,10 2176,40 2146,70 2146,55 2124,55" fill="rgb(255,255,255)" fill-opacity="1.0" stroke="rgb(0,0,0)" stroke-width="2"  />
			<g>
				<title>p450 (PF00067)
"Cytochrome P450"</title>
				<polygon class="PF00067" points="2127,28 2159,28 2169,38 2169,42 2159,52 2127,52" stroke-linejoin="round" width="42" height="24" fill="rgb(85,216,107)" stroke="rgb(68,172,85)" stroke-width="1" opacity="0.75" />
			</g>
		</g>
		<g>
			<title> (RCOM_1574410)
1,8-cineole synthase, chloroplast precursor, putative</title>
			<polygon class=" (RCOM_1574410)
1,8-cineole synthase, chloroplast precursor, putative" points="2319,25 2272,25 2272,10 2242,40 2272,70 2272,55 2319,55" fill="rgb(255,255,255)" fill-opacity="1.0" stroke="rgb(0,0,0)" stroke-width="2"  />
			<g>
				<title>Terpene_synth_C (PF03936)
"Terpene synthase family, metal binding domain"</title>
				<rect class="PF03936" x="2268" y="28" stroke-linejoin="round" width="26" height="24" fill="rgb(219,91,215)" stroke="rgb(175,72,171)" stroke-width="1" opacity="0.75" />
			</g>
			<g>
				<title>Terpene_synth (PF01397)
"Terpene synthase, N-terminal domain"</title>
				<rect class="PF01397" x="2298" y="28" stroke-linejoin="round" width="17" height="24" fill="rgb(74,159,219)" stroke="rgb(59,127,175)" stroke-width="1" opacity="0.75" />
			</g>
		</g>
		<g>
			<title> (RCOM_1574420)
(S)-N-methylcoclaurine 3'-hydroxylase isozyme, putative</title>
			<polygon class=" (RCOM_1574420)
(S)-N-methylcoclaurine 3'-hydroxylase isozyme, putative" points="2390,25 2414,25 2414,10 2444,40 2414,70 2414,55 2390,55" fill="rgb(255,255,255)" fill-opacity="1.0" stroke="rgb(0,0,0)" stroke-width="2"  />
			<g>
				<title>p450 (PF00067)
"Cytochrome P450"</title>
				<polygon class="PF00067" points="2393,28 2428,28 2438,38 2438,42 2428,52 2393,52" stroke-linejoin="round" width="45" height="24" fill="rgb(85,216,107)" stroke="rgb(68,172,85)" stroke-width="1" opacity="0.75" />
			</g>
		</g>
	</g>
</svg>
