<svg version="1.1" baseProfile="full" xmlns="http://www.w3.org/2000/svg" width="1491.6" height="80">
	<g>
		<line x1="10" y1="40.0" x2="1481.6" y2="40.0" style="stroke:rgb(70,70,70); stroke-width:3 "/>
		<g>
			<title>spr1
putative acyltransferase</title>
			<polygon class="spr1
putative acyltransferase" points="141,25 122,25 122,10 92,40 122,70 122,55 141,55" fill="rgb(255,255,255)" fill-opacity="1.0" stroke="rgb(0,0,0)" stroke-width="2"  />
			<g>
				<title>PP-binding (PF00550)
"Phosphopantetheine attachment site"</title>
				<polygon class="PF00550" points="96,40 99,37 99,43" stroke-linejoin="round" width="6" height="24" fill="rgb(103,191,88)" stroke="rgb(82,152,70)" stroke-width="1" opacity="0.75" />
			</g>
			<g>
				<title>Acyl_transf_1 (PF00698)
"Acyl transferase domain"</title>
				<rect class="PF00698" x="110" y="28" stroke-linejoin="round" width="29" height="24" fill="rgb(59,176,209)" stroke="rgb(47,140,167)" stroke-width="1" opacity="0.75" />
			</g>
		</g>
		<g>
			<title>sprR1
putative transcriptional regulatory protein</title>
			<polygon class="sprR1
putative transcriptional regulatory protein" points="146,40 157,10 157,70" fill="rgb(255,255,255)" fill-opacity="1.0" stroke="rgb(0,0,0)" stroke-width="2"  />
			<g>
				<title>GerE (PF00196)
"Bacterial regulatory proteins, luxR family"</title>
				<polygon class="PF00196" points="149,40 152,32 152,48" stroke-linejoin="round" width="5" height="24" fill="rgb(219,94,82)" stroke="rgb(175,75,65)" stroke-width="1" opacity="0.75" />
			</g>
		</g>
		<g>
			<title>spr2
putative MFS transporter</title>
			<polygon class="spr2
putative MFS transporter" points="216,25 198,25 198,10 168,40 198,70 198,55 216,55" fill="rgb(255,255,255)" fill-opacity="1.0" stroke="rgb(0,0,0)" stroke-width="2"  />
			<g>
				<title>MFS_1 (PF07690)
"Major Facilitator Superfamily"</title>
				<polygon class="PF07690" points="176,36 184,28 207,28 207,52 184,52 176,44" stroke-linejoin="round" width="31" height="24" fill="rgb(193,224,74)" stroke="rgb(154,179,59)" stroke-width="1" opacity="0.75" />
			</g>
		</g>
		<g>
			<title>spr3
putative oxidoreductase</title>
			<polygon class="spr3
putative oxidoreductase" points="251,25 244,25 244,10 214,40 244,70 244,55 251,55" fill="rgb(255,255,255)" fill-opacity="1.0" stroke="rgb(0,0,0)" stroke-width="2"  />
			<g>
				<title>Oxidored_FMN (PF00724)
"NADH:flavin oxidoreductase / NADH oxidase family"</title>
				<polygon class="PF00724" points="218,40 230,28 249,28 249,52 230,52" stroke-linejoin="round" width="34" height="24" fill="rgb(157,188,65)" stroke="rgb(125,150,52)" stroke-width="1" opacity="0.75" />
			</g>
		</g>
		<g>
			<title>spr4
putative transporter</title>
			<polygon class="spr4
putative transporter" points="307,25 285,25 285,10 255,40 285,70 285,55 307,55" fill="rgb(255,255,255)" fill-opacity="1.0" stroke="rgb(0,0,0)" stroke-width="2"  />
			<g>
				<title>MFS_1 (PF07690)
"Major Facilitator Superfamily"</title>
				<polygon class="PF07690" points="266,33 271,28 287,28 287,52 271,52 266,47" stroke-linejoin="round" width="21" height="24" fill="rgb(193,224,74)" stroke="rgb(154,179,59)" stroke-width="1" opacity="0.75" />
			</g>
			<g>
				<title>MFS_1 (PF07690)
"Major Facilitator Superfamily"</title>
				<rect class="PF07690" x="287" y="28" stroke-linejoin="round" width="18" height="24" fill="rgb(193,224,74)" stroke="rgb(154,179,59)" stroke-width="1" opacity="0.75" />
			</g>
		</g>
		<g>
			<title>spr5
putative FMN reductase</title>
			<polygon class="spr5
putative FMN reductase" points="309,40 329,10 329,70" fill="rgb(255,255,255)" fill-opacity="1.0" stroke="rgb(0,0,0)" stroke-width="2"  />
			<g>
				<title>FMN_red (PF03358)
"NADPH-dependent FMN reductase"</title>
				<polygon class="PF03358" points="313,40 321,28 327,28 327,52 321,52 313,40" stroke-linejoin="round" width="14" height="24" fill="rgb(90,228,61)" stroke="rgb(72,182,48)" stroke-width="1" opacity="0.75" />
			</g>
		</g>
		<g>
			<title>sprR2
putative tetR-family regulatory protein</title>
			<polygon class="sprR2
putative tetR-family regulatory protein" points="333,10 357,40 333,70" fill="rgb(255,255,255)" fill-opacity="1.0" stroke="rgb(0,0,0)" stroke-width="2"  />
			<g>
				<title>TetR_N (PF00440)
"Bacterial regulatory proteins, tetR family"</title>
				<rect class="PF00440" x="336" y="28" stroke-linejoin="round" width="4" height="24" fill="rgb(73,212,190)" stroke="rgb(58,169,152)" stroke-width="1" opacity="0.75" />
			</g>
			<g>
				<title>TetR_C_1 (PF02909)
"Tetracyclin repressor-like, C-terminal domain"</title>
				<polygon class="PF02909" points="342,28 344,28 353,40 344,52 342,52" stroke-linejoin="round" width="14" height="24" fill="rgb(151,203,75)" stroke="rgb(120,162,60)" stroke-width="1" opacity="0.75" />
			</g>
		</g>
		<g>
			<title>sprA
hypothetical protein</title>
			<polygon class="sprA
hypothetical protein" points="359,25 360,25 360,10 390,40 360,70 360,55 359,55" fill="rgb(255,255,255)" fill-opacity="1.0" stroke="rgb(0,0,0)" stroke-width="2"  />
		</g>
		<g>
			<title>sprB
putative oxygenase</title>
			<polygon class="sprB
putative oxygenase" points="402,25 421,25 421,10 451,40 421,70 421,55 402,55" fill="rgb(255,255,255)" fill-opacity="1.0" stroke="rgb(0,0,0)" stroke-width="2"  />
			<g>
				<title>FAD_binding_3 (PF01494)
"FAD binding domain"</title>
				<rect class="PF01494" x="402" y="28" stroke-linejoin="round" width="33" height="24" fill="rgb(182,175,59)" stroke="rgb(145,140,47)" stroke-width="1" opacity="0.75" />
			</g>
		</g>
		<g>
			<title>sprC
putative cyclase</title>
			<polygon class="sprC
putative cyclase" points="452,10 462,40 452,70" fill="rgb(255,255,255)" fill-opacity="1.0" stroke="rgb(0,0,0)" stroke-width="2"  />
			<g>
				<title>Cyclase_polyket (PF04673)
"Polyketide synthesis cyclase"</title>
				<polygon class="PF04673" points="452,28 455,28 459,40 455,52 452,52" stroke-linejoin="round" width="10" height="24" fill="rgb(49,187,78)" stroke="rgb(39,149,62)" stroke-width="1" opacity="0.75" />
			</g>
		</g>
		<g>
			<title>sprD
putative ketosynthase</title>
			<polygon class="sprD
putative ketosynthase" points="462,25 474,25 474,10 504,40 474,70 474,55 462,55" fill="rgb(255,255,255)" fill-opacity="1.0" stroke="rgb(0,0,0)" stroke-width="2"  />
			<g>
				<title>ketoacyl-synt (PF00109)
"Beta-ketoacyl synthase, N-terminal domain"</title>
				<rect class="PF00109" x="462" y="28" stroke-linejoin="round" width="25" height="24" fill="rgb(112,116,228)" stroke="rgb(89,92,182)" stroke-width="1" opacity="0.75" />
			</g>
			<g>
				<title>Ketoacyl-synt_C (PF02801)
"Beta-ketoacyl synthase, C-terminal domain"</title>
				<polygon class="PF02801" points="488,28 488,28 499,39 499,41 488,52 488,52" stroke-linejoin="round" width="11" height="24" fill="rgb(215,78,102)" stroke="rgb(172,62,81)" stroke-width="1" opacity="0.75" />
			</g>
		</g>
		<g>
			<title>sprE
putative chain length determinant factor</title>
			<polygon class="sprE
putative chain length determinant factor" points="505,25 516,25 516,10 546,40 516,70 516,55 505,55" fill="rgb(255,255,255)" fill-opacity="1.0" stroke="rgb(0,0,0)" stroke-width="2"  />
			<g>
				<title>ketoacyl-synt (PF00109)
"Beta-ketoacyl synthase, N-terminal domain"</title>
				<rect class="PF00109" x="505" y="28" stroke-linejoin="round" width="24" height="24" fill="rgb(112,116,228)" stroke="rgb(89,92,182)" stroke-width="1" opacity="0.75" />
			</g>
			<g>
				<title>Ketoacyl-synt_C (PF02801)
"Beta-ketoacyl synthase, C-terminal domain"</title>
				<polygon class="PF02801" points="530,28 530,28 541,39 541,41 530,52 530,52" stroke-linejoin="round" width="11" height="24" fill="rgb(215,78,102)" stroke="rgb(172,62,81)" stroke-width="1" opacity="0.75" />
			</g>
		</g>
		<g>
			<title>sprF
putative acyl carrier protein</title>
			<polygon class="sprF
putative acyl carrier protein" points="546,10 558,40 546,70" fill="rgb(255,255,255)" fill-opacity="1.0" stroke="rgb(0,0,0)" stroke-width="2"  />
			<g>
				<title>PP-binding (PF00550)
"Phosphopantetheine attachment site"</title>
				<polygon class="PF00550" points="550,28 550,28 555,40 550,52 550,52" stroke-linejoin="round" width="7" height="24" fill="rgb(103,191,88)" stroke="rgb(82,152,70)" stroke-width="1" opacity="0.75" />
			</g>
		</g>
		<g>
			<title>sprG
putative ketoreductase</title>
			<polygon class="sprG
putative ketoreductase" points="564,10 590,40 564,70" fill="rgb(255,255,255)" fill-opacity="1.0" stroke="rgb(0,0,0)" stroke-width="2"  />
			<g>
				<title>adh_short (PF00106)
"short chain dehydrogenase"</title>
				<polygon class="PF00106" points="564,28 576,28 583,37 583,43 576,52 564,52" stroke-linejoin="round" width="19" height="24" fill="rgb(182,219,73)" stroke="rgb(145,175,58)" stroke-width="1" opacity="0.75" />
			</g>
		</g>
		<g>
			<title>sprH
putative aromatase</title>
			<polygon class="sprH
putative aromatase" points="592,25 593,25 593,10 623,40 593,70 593,55 592,55" fill="rgb(255,255,255)" fill-opacity="1.0" stroke="rgb(0,0,0)" stroke-width="2"  />
			<g>
				<title>Polyketide_cyc2 (PF10604)
"Polyketide cyclase / dehydrase and lipid transport"</title>
				<rect class="PF10604" x="592" y="28" stroke-linejoin="round" width="14" height="24" fill="rgb(105,204,74)" stroke="rgb(84,163,59)" stroke-width="1" opacity="0.75" />
			</g>
		</g>
		<g>
			<title>sprI
putative oxygenase-reductase</title>
			<polygon class="sprI
putative oxygenase-reductase" points="623,25 659,25 659,10 689,40 659,70 659,55 623,55" fill="rgb(255,255,255)" fill-opacity="1.0" stroke="rgb(0,0,0)" stroke-width="2"  />
			<g>
				<title>FAD_binding_3 (PF01494)
"FAD binding domain"</title>
				<rect class="PF01494" x="623" y="28" stroke-linejoin="round" width="33" height="24" fill="rgb(182,175,59)" stroke="rgb(145,140,47)" stroke-width="1" opacity="0.75" />
			</g>
			<g>
				<title>adh_short_C2 (PF13561)
"Enoyl-(Acyl carrier protein) reductase"</title>
				<polygon class="PF13561" points="665,28 673,28 685,40 673,52 665,52" stroke-linejoin="round" width="23" height="24" fill="rgb(73,205,127)" stroke="rgb(58,164,101)" stroke-width="1" opacity="0.75" />
			</g>
		</g>
		<g>
			<title>sprJ
putative transporter</title>
			<polygon class="sprJ
putative transporter" points="690,25 700,25 700,10 730,40 700,70 700,55 690,55" fill="rgb(255,255,255)" fill-opacity="1.0" stroke="rgb(0,0,0)" stroke-width="2"  />
			<g>
				<title>MFS_1 (PF07690)
"Major Facilitator Superfamily"</title>
				<polygon class="PF07690" points="692,28 714,28 725,39 725,41 714,52 692,52" stroke-linejoin="round" width="33" height="24" fill="rgb(193,224,74)" stroke="rgb(154,179,59)" stroke-width="1" opacity="0.75" />
			</g>
		</g>
		<g>
			<title>sprGT1
putative O-glycosyltransferase</title>
			<polygon class="sprGT1
putative O-glycosyltransferase" points="732,25 745,25 745,10 775,40 745,70 745,55 732,55" fill="rgb(255,255,255)" fill-opacity="1.0" stroke="rgb(0,0,0)" stroke-width="2"  />
			<g>
				<title>DUF1205 (PF06722)
"Protein of unknown function (DUF1205)"</title>
				<polygon class="PF06722" points="753,28 758,28 762,32 762,48 758,52 753,52" stroke-linejoin="round" width="9" height="24" fill="rgb(200,129,88)" stroke="rgb(160,103,70)" stroke-width="1" opacity="0.75" />
			</g>
		</g>
		<g>
			<title>sprGT2
putative O-glycosyltransferase</title>
			<polygon class="sprGT2
putative O-glycosyltransferase" points="776,25 786,25 786,10 816,40 786,70 786,55 776,55" fill="rgb(255,255,255)" fill-opacity="1.0" stroke="rgb(0,0,0)" stroke-width="2"  />
			<g>
				<title>DUF1205 (PF06722)
"Protein of unknown function (DUF1205)"</title>
				<polygon class="PF06722" points="793,28 800,28 802,30 802,50 800,52 793,52" stroke-linejoin="round" width="9" height="24" fill="rgb(200,129,88)" stroke="rgb(160,103,70)" stroke-width="1" opacity="0.75" />
			</g>
		</g>
		<g>
			<title>sprK
putative NDP-hexose 3,5-epimerase</title>
			<polygon class="sprK
putative NDP-hexose 3,5-epimerase" points="817,10 835,40 817,70" fill="rgb(255,255,255)" fill-opacity="1.0" stroke="rgb(0,0,0)" stroke-width="2"  />
			<g>
				<title>dTDP_sugar_isom (PF00908)
"dTDP-4-dehydrorhamnose 3,5-epimerase"</title>
				<polygon class="PF00908" points="817,28 824,28 832,40 824,52 817,52" stroke-linejoin="round" width="17" height="24" fill="rgb(184,89,121)" stroke="rgb(147,71,96)" stroke-width="1" opacity="0.75" />
			</g>
		</g>
		<g>
			<title>sprGT3
putative C-glycosyltransferase</title>
			<polygon class="sprGT3
putative C-glycosyltransferase" points="836,25 843,25 843,10 873,40 843,70 843,55 836,55" fill="rgb(255,255,255)" fill-opacity="1.0" stroke="rgb(0,0,0)" stroke-width="2"  />
			<g>
				<title>DUF1205 (PF06722)
"Protein of unknown function (DUF1205)"</title>
				<polygon class="PF06722" points="852,28 857,28 861,32 861,48 857,52 852,52" stroke-linejoin="round" width="9" height="24" fill="rgb(200,129,88)" stroke="rgb(160,103,70)" stroke-width="1" opacity="0.75" />
			</g>
		</g>
		<g>
			<title>sprL
dNDP-glucose synthase</title>
			<polygon class="sprL
dNDP-glucose synthase" points="874,25 879,25 879,10 909,40 879,70 879,55 874,55" fill="rgb(255,255,255)" fill-opacity="1.0" stroke="rgb(0,0,0)" stroke-width="2"  />
			<g>
				<title>NTP_transferase (PF00483)
"Nucleotidyl transferase"</title>
				<polygon class="PF00483" points="874,28 893,28 897,32 897,48 893,52 874,52" stroke-linejoin="round" width="23" height="24" fill="rgb(198,101,87)" stroke="rgb(158,80,69)" stroke-width="1" opacity="0.75" />
			</g>
		</g>
		<g>
			<title>sprM
putative dTDP-glucose 4,6 dehydratase</title>
			<polygon class="sprM
putative dTDP-glucose 4,6 dehydratase" points="910,25 912,25 912,10 942,40 912,70 912,55 910,55" fill="rgb(255,255,255)" fill-opacity="1.0" stroke="rgb(0,0,0)" stroke-width="2"  />
			<g>
				<title>GDP_Man_Dehyd (PF16363)
"GDP-mannose 4,6 dehydratase"</title>
				<polygon class="PF16363" points="910,28 926,28 938,40 926,52 910,52" stroke-linejoin="round" width="30" height="24" fill="rgb(162,221,65)" stroke="rgb(129,176,51)" stroke-width="1" opacity="0.75" />
			</g>
		</g>
		<g>
			<title>sprN
NDP-hexose 4-ketoreductase</title>
			<polygon class="sprN
NDP-hexose 4-ketoreductase" points="943,25 949,25 949,10 979,40 949,70 949,55 943,55" fill="rgb(255,255,255)" fill-opacity="1.0" stroke="rgb(0,0,0)" stroke-width="2"  />
			<g>
				<title>Epimerase (PF01370)
"NAD dependent epimerase/dehydratase family"</title>
				<polygon class="PF01370" points="943,28 963,28 969,34 969,46 963,52 943,52" stroke-linejoin="round" width="26" height="24" fill="rgb(98,102,214)" stroke="rgb(78,81,171)" stroke-width="1" opacity="0.75" />
			</g>
		</g>
		<g>
			<title>sprO
putative NDP-hexose dehydratase</title>
			<polygon class="sprO
putative NDP-hexose dehydratase" points="980,25 993,25 993,10 1023,40 993,70 993,55 980,55" fill="rgb(255,255,255)" fill-opacity="1.0" stroke="rgb(0,0,0)" stroke-width="2"  />
			<g>
				<title>DegT_DnrJ_EryC1 (PF01041)
"DegT/DnrJ/EryC1/StrS aminotransferase family"</title>
				<polygon class="PF01041" points="984,28 1007,28 1019,40 1007,52 984,52" stroke-linejoin="round" width="38" height="24" fill="rgb(59,139,191)" stroke="rgb(47,111,152)" stroke-width="1" opacity="0.75" />
			</g>
		</g>
		<g>
			<title>sprP
putative NDP-hexose 4-ketoreductase</title>
			<polygon class="sprP
putative NDP-hexose 4-ketoreductase" points="1025,10 1050,40 1025,70" fill="rgb(255,255,255)" fill-opacity="1.0" stroke="rgb(0,0,0)" stroke-width="2"  />
			<g>
				<title>Epimerase (PF01370)
"NAD dependent epimerase/dehydratase family"</title>
				<polygon class="PF01370" points="1026,28 1036,28 1042,35 1042,45 1036,52 1026,52" stroke-linejoin="round" width="16" height="24" fill="rgb(98,102,214)" stroke="rgb(78,81,171)" stroke-width="1" opacity="0.75" />
			</g>
		</g>
		<g>
			<title>sprQ
hypothetical protein</title>
			<polygon class="sprQ
hypothetical protein" points="1052,25 1058,25 1058,10 1088,40 1058,70 1058,55 1052,55" fill="rgb(255,255,255)" fill-opacity="1.0" stroke="rgb(0,0,0)" stroke-width="2"  />
		</g>
		<g>
			<title>sprR
putative NDP-hexose 2,3-dehydratase</title>
			<polygon class="sprR
putative NDP-hexose 2,3-dehydratase" points="1091,25 1107,25 1107,10 1137,40 1107,70 1107,55 1091,55" fill="rgb(255,255,255)" fill-opacity="1.0" stroke="rgb(0,0,0)" stroke-width="2"  />
			<g>
				<title>Hexose_dehydrat (PF03559)
"NDP-hexose 2,3-dehydratase"</title>
				<rect class="PF03559" x="1094" y="28" stroke-linejoin="round" width="20" height="24" fill="rgb(74,201,66)" stroke="rgb(59,160,52)" stroke-width="1" opacity="0.75" />
			</g>
			<g>
				<title>Hexose_dehydrat (PF03559)
"NDP-hexose 2,3-dehydratase"</title>
				<polygon class="PF03559" points="1116,28 1121,28 1133,40 1121,52 1116,52" stroke-linejoin="round" width="20" height="24" fill="rgb(74,201,66)" stroke="rgb(59,160,52)" stroke-width="1" opacity="0.75" />
			</g>
		</g>
		<g>
			<title>sprS
putative NDP-hexose 3-ketoreductase</title>
			<polygon class="sprS
putative NDP-hexose 3-ketoreductase" points="1138,25 1139,25 1139,10 1169,40 1139,70 1139,55 1138,55" fill="rgb(255,255,255)" fill-opacity="1.0" stroke="rgb(0,0,0)" stroke-width="2"  />
			<g>
				<title>GFO_IDH_MocA (PF01408)
"Oxidoreductase family, NAD-binding Rossmann fold"</title>
				<rect class="PF01408" x="1138" y="28" stroke-linejoin="round" width="11" height="24" fill="rgb(76,117,190)" stroke="rgb(60,93,152)" stroke-width="1" opacity="0.75" />
			</g>
		</g>
		<g>
			<title>sprT
putative phosphopantetheine transferase</title>
			<polygon class="sprT
putative phosphopantetheine transferase" points="1170,10 1195,40 1170,70" fill="rgb(255,255,255)" fill-opacity="1.0" stroke="rgb(0,0,0)" stroke-width="2"  />
			<g>
				<title>ACPS (PF01648)
"4'-phosphopantetheinyl transferase superfamily"</title>
				<polygon class="PF01648" points="1181,28 1181,28 1187,35 1187,45 1181,52 1181,52" stroke-linejoin="round" width="6" height="24" fill="rgb(85,184,135)" stroke="rgb(68,147,108)" stroke-width="1" opacity="0.75" />
			</g>
		</g>
		<g>
			<title>sprU
putative methylmalonyl-CoA carboxyltransferase</title>
			<polygon class="sprU
putative methylmalonyl-CoA carboxyltransferase" points="1196,25 1219,25 1219,10 1249,40 1219,70 1219,55 1196,55" fill="rgb(255,255,255)" fill-opacity="1.0" stroke="rgb(0,0,0)" stroke-width="2"  />
			<g>
				<title>Carboxyl_trans (PF01039)
"Carboxyl transferase domain"</title>
				<polygon class="PF01039" points="1200,28 1232,28 1244,40 1232,52 1200,52" stroke-linejoin="round" width="48" height="24" fill="rgb(180,136,60)" stroke="rgb(144,108,48)" stroke-width="1" opacity="0.75" />
			</g>
		</g>
		<g>
			<title>sprX
putative oxidoreductase</title>
			<polygon class="sprX
putative oxidoreductase" points="1250,10 1272,40 1250,70" fill="rgb(255,255,255)" fill-opacity="1.0" stroke="rgb(0,0,0)" stroke-width="2"  />
			<g>
				<title>DSBA (PF01323)
"DSBA-like thioredoxin domain"</title>
				<polygon class="PF01323" points="1251,28 1260,28 1269,40 1260,52 1251,52" stroke-linejoin="round" width="20" height="24" fill="rgb(221,114,99)" stroke="rgb(176,91,79)" stroke-width="1" opacity="0.75" />
			</g>
		</g>
		<g>
			<title>sprY
putative FAD/FMN-containing dehydrogenase</title>
			<polygon class="sprY
putative FAD/FMN-containing dehydrogenase" points="1277,25 1301,25 1301,10 1331,40 1301,70 1301,55 1277,55" fill="rgb(255,255,255)" fill-opacity="1.0" stroke="rgb(0,0,0)" stroke-width="2"  />
			<g>
				<title>FAD_binding_4 (PF01565)
"FAD binding domain"</title>
				<rect class="PF01565" x="1284" y="28" stroke-linejoin="round" width="13" height="24" fill="rgb(226,88,136)" stroke="rgb(180,70,108)" stroke-width="1" opacity="0.75" />
			</g>
			<g>
				<title>BBE (PF08031)
"Berberine and berberine like"</title>
				<polygon class="PF08031" points="1325,39 1326,40 1325,41" stroke-linejoin="round" width="5" height="24" fill="rgb(210,73,83)" stroke="rgb(168,58,66)" stroke-width="1" opacity="0.75" />
			</g>
		</g>
		<g>
			<title>sprZ
hypothetical protein</title>
			<polygon class="sprZ
hypothetical protein" points="1335,10 1349,40 1335,70" fill="rgb(255,255,255)" fill-opacity="1.0" stroke="rgb(0,0,0)" stroke-width="2"  />
			<g>
				<title>DUF6069 (PF19545)
"Family of unknown function (DUF6069)"</title>
				<polygon class="PF19545" points="1336,28 1340,28 1346,40 1340,52 1336,52" stroke-linejoin="round" width="12" height="24" fill="rgb(102,226,110)" stroke="rgb(81,180,88)" stroke-width="1" opacity="0.75" />
			</g>
		</g>
		<g>
			<title>sprR3
putative transcriptional regulator</title>
			<polygon class="sprR3
putative transcriptional regulator" points="1369,40 1395,10 1395,70" fill="rgb(255,255,255)" fill-opacity="1.0" stroke="rgb(0,0,0)" stroke-width="2"  />
			<g>
				<title>Trans_reg_C (PF00486)
"Transcriptional regulatory protein, C terminal"</title>
				<polygon class="PF00486" points="1373,40 1376,37 1376,43" stroke-linejoin="round" width="7" height="24" fill="rgb(204,153,57)" stroke="rgb(163,122,45)" stroke-width="1" opacity="0.75" />
			</g>
			<g>
				<title>Response_reg (PF00072)
"Response regulator receiver domain"</title>
				<polygon class="PF00072" points="1380,32 1383,28 1390,28 1390,52 1383,52 1380,48" stroke-linejoin="round" width="10" height="24" fill="rgb(100,107,203)" stroke="rgb(80,85,162)" stroke-width="1" opacity="0.75" />
			</g>
		</g>
		<g>
			<title>spr6
putative oxidoreductase</title>
			<polygon class="spr6
putative oxidoreductase" points="1413,25 1446,25 1446,10 1476,40 1446,70 1446,55 1413,55" fill="rgb(255,255,255)" fill-opacity="1.0" stroke="rgb(0,0,0)" stroke-width="2"  />
			<g>
				<title>POR (PF01558)
"Pyruvate ferredoxin/flavodoxin oxidoreductase"</title>
				<rect class="PF01558" x="1415" y="28" stroke-linejoin="round" width="19" height="24" fill="rgb(89,196,208)" stroke="rgb(71,156,166)" stroke-width="1" opacity="0.75" />
			</g>
			<g>
				<title>POR_N (PF01855)
"Pyruvate flavodoxin/ferredoxin oxidoreductase, thiamine diP-bdg"</title>
				<polygon class="PF01855" points="1439,28 1459,28 1462,31 1462,49 1459,52 1439,52" stroke-linejoin="round" width="23" height="24" fill="rgb(146,196,83)" stroke="rgb(116,156,66)" stroke-width="1" opacity="0.75" />
			</g>
			<g>
				<title>PFOR_II (PF17147)
"Pyruvate:ferredoxin oxidoreductase core domain II"</title>
				<polygon class="PF17147" points="1465,34 1471,40 1465,46" stroke-linejoin="round" width="9" height="24" fill="rgb(179,47,158)" stroke="rgb(143,37,126)" stroke-width="1" opacity="0.75" />
			</g>
		</g>
	</g>
</svg>
