<svg version="1.1" baseProfile="full" xmlns="http://www.w3.org/2000/svg" width="1303.8" height="80">
	<g>
		<line x1="10" y1="40.0" x2="1293.8" y2="40.0" style="stroke:rgb(70,70,70); stroke-width:3 "/>
		<g>
			<title> (Sros_4137)
putative transcriptional regulator, TetR family</title>
			<polygon class=" (Sros_4137)
putative transcriptional regulator, TetR family" points="10,40 36,10 36,70" fill="rgb(255,255,255)" fill-opacity="1.0" stroke="rgb(0,0,0)" stroke-width="2"  />
			<g>
				<title>TetR_C_1 (PF02909)
"Tetracyclin repressor-like, C-terminal domain"</title>
				<polygon class="PF02909" points="14,40 25,28 26,28 26,52 25,52" stroke-linejoin="round" width="16" height="24" fill="rgb(151,203,75)" stroke="rgb(120,162,60)" stroke-width="1" opacity="0.75" />
			</g>
			<g>
				<title>TetR_N (PF00440)
"Bacterial regulatory proteins, tetR family"</title>
				<rect class="PF00440" x="27" y="28" stroke-linejoin="round" width="4" height="24" fill="rgb(73,212,190)" stroke="rgb(58,169,152)" stroke-width="1" opacity="0.75" />
			</g>
		</g>
		<g>
			<title> (Sros_4138)
monooxygenase, FAD-binding protein</title>
			<polygon class=" (Sros_4138)
monooxygenase, FAD-binding protein" points="54,25 64,25 64,10 94,40 64,70 64,55 54,55" fill="rgb(255,255,255)" fill-opacity="1.0" stroke="rgb(0,0,0)" stroke-width="2"  />
			<g>
				<title>FAD_binding_3 (PF01494)
"FAD binding domain"</title>
				<polygon class="PF01494" points="54,28 78,28 88,38 88,42 78,52 54,52" stroke-linejoin="round" width="34" height="24" fill="rgb(182,175,59)" stroke="rgb(145,140,47)" stroke-width="1" opacity="0.75" />
			</g>
		</g>
		<g>
			<title> (Sros_4139)
hypothetical protein</title>
			<polygon class=" (Sros_4139)
hypothetical protein" points="98,40 108,10 108,70" fill="rgb(255,255,255)" fill-opacity="1.0" stroke="rgb(0,0,0)" stroke-width="2"  />
		</g>
		<g>
			<title> (Sros_4140)
hypothetical protein</title>
			<polygon class=" (Sros_4140)
hypothetical protein" points="113,40 128,10 128,70" fill="rgb(255,255,255)" fill-opacity="1.0" stroke="rgb(0,0,0)" stroke-width="2"  />
			<g>
				<title>Anthrone_oxy (PF08592)
"Anthrone oxygenase"</title>
				<polygon class="PF08592" points="116,40 122,28 123,28 123,52 122,52" stroke-linejoin="round" width="9" height="24" fill="rgb(75,196,107)" stroke="rgb(60,156,85)" stroke-width="1" opacity="0.75" />
			</g>
		</g>
		<g>
			<title> (Sros_4141)
Coenzyme F420-dependent N5 N10-methylene tetrahydromethanopterin reductase-like protein</title>
			<polygon class=" (Sros_4141)
Coenzyme F420-dependent N5 N10-methylene tetrahydromethanopterin reductase-like protein" points="129,40 157,10 157,70" fill="rgb(255,255,255)" fill-opacity="1.0" stroke="rgb(0,0,0)" stroke-width="2"  />
			<g>
				<title>Bac_luciferase (PF00296)
"Luciferase-like monooxygenase"</title>
				<polygon class="PF00296" points="133,40 144,28 157,28 157,52 144,52" stroke-linejoin="round" width="28" height="24" fill="rgb(180,112,78)" stroke="rgb(144,89,62)" stroke-width="1" opacity="0.75" />
			</g>
		</g>
		<g>
			<title> (Sros_4142)
hypothetical protein</title>
			<polygon class=" (Sros_4142)
hypothetical protein" points="160,40 172,10 172,70" fill="rgb(255,255,255)" fill-opacity="1.0" stroke="rgb(0,0,0)" stroke-width="2"  />
			<g>
				<title>SchA_CurD (PF04486)
"SchA/CurD like domain"</title>
				<polygon class="PF04486" points="163,40 168,28 171,28 171,52 168,52" stroke-linejoin="round" width="11" height="24" fill="rgb(75,209,181)" stroke="rgb(60,167,144)" stroke-width="1" opacity="0.75" />
			</g>
		</g>
		<g>
			<title> (Sros_4143)
short-chain dehydrogenase/reductase SDR</title>
			<polygon class=" (Sros_4143)
short-chain dehydrogenase/reductase SDR" points="172,40 196,10 196,70" fill="rgb(255,255,255)" fill-opacity="1.0" stroke="rgb(0,0,0)" stroke-width="2"  />
			<g>
				<title>adh_short_C2 (PF13561)
"Enoyl-(Acyl carrier protein) reductase"</title>
				<polygon class="PF13561" points="176,40 186,28 195,28 195,52 186,52" stroke-linejoin="round" width="23" height="24" fill="rgb(73,205,127)" stroke="rgb(58,164,101)" stroke-width="1" opacity="0.75" />
			</g>
		</g>
		<g>
			<title> (Sros_4144)
hypothetical protein</title>
			<polygon class=" (Sros_4144)
hypothetical protein" points="202,40 214,10 214,70" fill="rgb(255,255,255)" fill-opacity="1.0" stroke="rgb(0,0,0)" stroke-width="2"  />
			<g>
				<title>ABM (PF03992)
"Antibiotic biosynthesis monooxygenase"</title>
				<polygon class="PF03992" points="205,40 210,28 211,28 211,52 210,52" stroke-linejoin="round" width="7" height="24" fill="rgb(193,84,127)" stroke="rgb(154,67,101)" stroke-width="1" opacity="0.75" />
			</g>
		</g>
		<g>
			<title> (Sros_4145)
short-chain dehydrogenase/reductase SDR</title>
			<polygon class=" (Sros_4145)
short-chain dehydrogenase/reductase SDR" points="234,10 258,40 234,70" fill="rgb(255,255,255)" fill-opacity="1.0" stroke="rgb(0,0,0)" stroke-width="2"  />
			<g>
				<title>adh_short_C2 (PF13561)
"Enoyl-(Acyl carrier protein) reductase"</title>
				<polygon class="PF13561" points="235,28 245,28 254,40 245,52 235,52" stroke-linejoin="round" width="23" height="24" fill="rgb(73,205,127)" stroke="rgb(58,164,101)" stroke-width="1" opacity="0.75" />
			</g>
		</g>
		<g>
			<title> (Sros_4146)
All-trans-retinol 13,14-reductase</title>
			<polygon class=" (Sros_4146)
All-trans-retinol 13,14-reductase" points="259,25 285,25 285,10 315,40 285,70 285,55 259,55" fill="rgb(255,255,255)" fill-opacity="1.0" stroke="rgb(0,0,0)" stroke-width="2"  />
			<g>
				<title>Amino_oxidase (PF01593)
"Flavin containing amine oxidoreductase"</title>
				<rect class="PF01593" x="261" y="28" stroke-linejoin="round" width="28" height="24" fill="rgb(184,74,52)" stroke="rgb(147,59,41)" stroke-width="1" opacity="0.75" />
			</g>
		</g>
		<g>
			<title> (Sros_4147)
3-hydroxyisobutyrate dehydrogenase family protein</title>
			<polygon class=" (Sros_4147)
3-hydroxyisobutyrate dehydrogenase family protein" points="316,40 345,10 345,70" fill="rgb(255,255,255)" fill-opacity="1.0" stroke="rgb(0,0,0)" stroke-width="2"  />
			<g>
				<title>NAD_binding_11 (PF14833)
"NAD-binding of NADP-dependent 3-hydroxyisobutyrate dehydrogenase"</title>
				<polygon class="PF14833" points="320,40 328,32 328,48" stroke-linejoin="round" width="12" height="24" fill="rgb(141,199,89)" stroke="rgb(112,159,71)" stroke-width="1" opacity="0.75" />
			</g>
			<g>
				<title>NAD_binding_2 (PF03446)
"NAD binding domain of 6-phosphogluconate dehydrogenase"</title>
				<polygon class="PF03446" points="328,32 332,28 343,28 343,52 332,52 328,48" stroke-linejoin="round" width="15" height="24" fill="rgb(205,164,98)" stroke="rgb(164,131,78)" stroke-width="1" opacity="0.75" />
			</g>
		</g>
		<g>
			<title> (Sros_4148)
hypothetical protein</title>
			<polygon class=" (Sros_4148)
hypothetical protein" points="357,10 367,40 357,70" fill="rgb(255,255,255)" fill-opacity="1.0" stroke="rgb(0,0,0)" stroke-width="2"  />
			<g>
				<title>Cyclase_polyket (PF04673)
"Polyketide synthesis cyclase"</title>
				<polygon class="PF04673" points="357,28 360,28 364,40 360,52 357,52" stroke-linejoin="round" width="10" height="24" fill="rgb(49,187,78)" stroke="rgb(39,149,62)" stroke-width="1" opacity="0.75" />
			</g>
		</g>
		<g>
			<title> (Sros_4149)
hypothetical protein</title>
			<polygon class=" (Sros_4149)
hypothetical protein" points="368,10 383,40 368,70" fill="rgb(255,255,255)" fill-opacity="1.0" stroke="rgb(0,0,0)" stroke-width="2"  />
			<g>
				<title>Cupin_2 (PF07883)
"Cupin domain"</title>
				<polygon class="PF07883" points="372,28 373,28 379,39 379,41 373,52 372,52" stroke-linejoin="round" width="7" height="24" fill="rgb(211,192,74)" stroke="rgb(168,153,59)" stroke-width="1" opacity="0.75" />
			</g>
		</g>
		<g>
			<title> (Sros_4150)
3-oxoacyl-(acyl-carrier-protein) synthase II</title>
			<polygon class=" (Sros_4150)
3-oxoacyl-(acyl-carrier-protein) synthase II" points="383,25 395,25 395,10 425,40 395,70 395,55 383,55" fill="rgb(255,255,255)" fill-opacity="1.0" stroke="rgb(0,0,0)" stroke-width="2"  />
			<g>
				<title>ketoacyl-synt (PF00109)
"Beta-ketoacyl synthase, N-terminal domain"</title>
				<rect class="PF00109" x="383" y="28" stroke-linejoin="round" width="25" height="24" fill="rgb(112,116,228)" stroke="rgb(89,92,182)" stroke-width="1" opacity="0.75" />
			</g>
			<g>
				<title>Ketoacyl-synt_C (PF02801)
"Beta-ketoacyl synthase, C-terminal domain"</title>
				<polygon class="PF02801" points="409,28 409,28 420,39 420,41 409,52 409,52" stroke-linejoin="round" width="11" height="24" fill="rgb(215,78,102)" stroke="rgb(172,62,81)" stroke-width="1" opacity="0.75" />
			</g>
		</g>
		<g>
			<title> (Sros_4151)
3-oxoacyl-(acyl-carrier-protein) synthase II</title>
			<polygon class=" (Sros_4151)
3-oxoacyl-(acyl-carrier-protein) synthase II" points="425,25 435,25 435,10 465,40 435,70 435,55 425,55" fill="rgb(255,255,255)" fill-opacity="1.0" stroke="rgb(0,0,0)" stroke-width="2"  />
			<g>
				<title>ketoacyl-synt (PF00109)
"Beta-ketoacyl synthase, N-terminal domain"</title>
				<rect class="PF00109" x="425" y="28" stroke-linejoin="round" width="24" height="24" fill="rgb(112,116,228)" stroke="rgb(89,92,182)" stroke-width="1" opacity="0.75" />
			</g>
			<g>
				<title>Ketoacyl-synt_C (PF02801)
"Beta-ketoacyl synthase, C-terminal domain"</title>
				<polygon class="PF02801" points="450,29 461,40 461,40 450,51" stroke-linejoin="round" width="11" height="24" fill="rgb(215,78,102)" stroke="rgb(172,62,81)" stroke-width="1" opacity="0.75" />
			</g>
		</g>
		<g>
			<title> (Sros_4152)
conserved hypothetical protein</title>
			<polygon class=" (Sros_4152)
conserved hypothetical protein" points="466,10 474,40 466,70" fill="rgb(255,255,255)" fill-opacity="1.0" stroke="rgb(0,0,0)" stroke-width="2"  />
			<g>
				<title>PP-binding (PF00550)
"Phosphopantetheine attachment site"</title>
				<polygon class="PF00550" points="467,28 467,28 471,40 467,52 467,52" stroke-linejoin="round" width="7" height="24" fill="rgb(103,191,88)" stroke="rgb(82,152,70)" stroke-width="1" opacity="0.75" />
			</g>
		</g>
		<g>
			<title> (Sros_4153)
hypothetical protein</title>
			<polygon class=" (Sros_4153)
hypothetical protein" points="477,10 493,40 477,70" fill="rgb(255,255,255)" fill-opacity="1.0" stroke="rgb(0,0,0)" stroke-width="2"  />
			<g>
				<title>Polyketide_cyc2 (PF10604)
"Polyketide cyclase / dehydrase and lipid transport"</title>
				<polygon class="PF10604" points="477,28 483,28 489,40 483,52 477,52" stroke-linejoin="round" width="14" height="24" fill="rgb(105,204,74)" stroke="rgb(84,163,59)" stroke-width="1" opacity="0.75" />
			</g>
		</g>
		<g>
			<title> (Sros_4154)
hypothetical protein</title>
			<polygon class=" (Sros_4154)
hypothetical protein" points="493,10 508,40 493,70" fill="rgb(255,255,255)" fill-opacity="1.0" stroke="rgb(0,0,0)" stroke-width="2"  />
			<g>
				<title>Anthrone_oxy (PF08592)
"Anthrone oxygenase"</title>
				<polygon class="PF08592" points="497,28 498,28 505,40 498,52 497,52" stroke-linejoin="round" width="10" height="24" fill="rgb(75,196,107)" stroke="rgb(60,156,85)" stroke-width="1" opacity="0.75" />
			</g>
		</g>
		<g>
			<title> (Sros_4155)
NAD dependent epimerase/dehydratase family protein</title>
			<polygon class=" (Sros_4155)
NAD dependent epimerase/dehydratase family protein" points="510,10 534,40 510,70" fill="rgb(255,255,255)" fill-opacity="1.0" stroke="rgb(0,0,0)" stroke-width="2"  />
			<g>
				<title>adh_short_C2 (PF13561)
"Enoyl-(Acyl carrier protein) reductase"</title>
				<polygon class="PF13561" points="511,28 521,28 530,40 521,52 511,52" stroke-linejoin="round" width="23" height="24" fill="rgb(73,205,127)" stroke="rgb(58,164,101)" stroke-width="1" opacity="0.75" />
			</g>
		</g>
		<g>
			<title> (Sros_4156)
PheA/TfdB family FAD-binding monooxygenase</title>
			<polygon class=" (Sros_4156)
PheA/TfdB family FAD-binding monooxygenase" points="534,25 558,25 558,10 588,40 558,70 558,55 534,55" fill="rgb(255,255,255)" fill-opacity="1.0" stroke="rgb(0,0,0)" stroke-width="2"  />
			<g>
				<title>FAD_binding_3 (PF01494)
"FAD binding domain"</title>
				<rect class="PF01494" x="534" y="28" stroke-linejoin="round" width="35" height="24" fill="rgb(182,175,59)" stroke="rgb(145,140,47)" stroke-width="1" opacity="0.75" />
			</g>
		</g>
		<g>
			<title> (Sros_4157)
putative transcriptional activator, TenA family</title>
			<polygon class=" (Sros_4157)
putative transcriptional activator, TenA family" points="590,10 612,40 590,70" fill="rgb(255,255,255)" fill-opacity="1.0" stroke="rgb(0,0,0)" stroke-width="2"  />
			<g>
				<title>TENA_THI-4 (PF03070)
"TENA/THI-4/PQQC family"</title>
				<polygon class="PF03070" points="590,28 599,28 608,40 599,52 590,52" stroke-linejoin="round" width="21" height="24" fill="rgb(95,149,219)" stroke="rgb(76,119,175)" stroke-width="1" opacity="0.75" />
			</g>
		</g>
		<g>
			<title> (Sros_4158)
conserved hypothetical protein</title>
			<polygon class=" (Sros_4158)
conserved hypothetical protein" points="618,25 638,25 638,10 668,40 638,70 638,55 618,55" fill="rgb(255,255,255)" fill-opacity="1.0" stroke="rgb(0,0,0)" stroke-width="2"  />
			<g>
				<title>Beta_helix (PF13229)
"Right handed beta helix region"</title>
				<polygon class="PF13229" points="640,28 652,28 661,37 661,43 652,52 640,52" stroke-linejoin="round" width="21" height="24" fill="rgb(197,72,157)" stroke="rgb(157,57,125)" stroke-width="1" opacity="0.75" />
			</g>
		</g>
		<g>
			<title> (Sros_4159)
sodium/hydrogen exchanger</title>
			<polygon class=" (Sros_4159)
sodium/hydrogen exchanger" points="675,25 689,25 689,10 719,40 689,70 689,55 675,55" fill="rgb(255,255,255)" fill-opacity="1.0" stroke="rgb(0,0,0)" stroke-width="2"  />
			<g>
				<title>Na_H_Exchanger (PF00999)
"Sodium/hydrogen exchanger family"</title>
				<polygon class="PF00999" points="677,28 703,28 715,40 703,52 677,52" stroke-linejoin="round" width="39" height="24" fill="rgb(229,67,191)" stroke="rgb(183,53,152)" stroke-width="1" opacity="0.75" />
			</g>
		</g>
		<g>
			<title> (Sros_4160)
hypothetical protein</title>
			<polygon class=" (Sros_4160)
hypothetical protein" points="724,25 730,25 730,10 760,40 730,70 730,55 724,55" fill="rgb(255,255,255)" fill-opacity="1.0" stroke="rgb(0,0,0)" stroke-width="2"  />
		</g>
		<g>
			<title> (Sros_4161)
putative tryptophan halogenase</title>
			<polygon class=" (Sros_4161)
putative tryptophan halogenase" points="762,25 779,25 779,10 809,40 779,70 779,55 762,55" fill="rgb(255,255,255)" fill-opacity="1.0" stroke="rgb(0,0,0)" stroke-width="2"  />
			<g>
				<title>Trp_halogenase (PF04820)
"Tryptophan halogenase"</title>
				<polygon class="PF04820" points="771,28 792,28 802,38 802,42 792,52 771,52" stroke-linejoin="round" width="31" height="24" fill="rgb(179,74,194)" stroke="rgb(143,59,155)" stroke-width="1" opacity="0.75" />
			</g>
		</g>
		<g>
			<title> (Sros_4162)
Coenzyme F420-dependent N5 N10-methylene tetrahydromethanopterin reductase-like protein</title>
			<polygon class=" (Sros_4162)
Coenzyme F420-dependent N5 N10-methylene tetrahydromethanopterin reductase-like protein" points="852,25 849,25 849,10 819,40 849,70 849,55 852,55" fill="rgb(255,255,255)" fill-opacity="1.0" stroke="rgb(0,0,0)" stroke-width="2"  />
			<g>
				<title>Bac_luciferase (PF00296)
"Luciferase-like monooxygenase"</title>
				<polygon class="PF00296" points="823,40 835,28 851,28 851,52 835,52" stroke-linejoin="round" width="30" height="24" fill="rgb(180,112,78)" stroke="rgb(144,89,62)" stroke-width="1" opacity="0.75" />
			</g>
		</g>
		<g>
			<title> (Sros_4163)
Coenzyme F420-dependent N5 N10-methylene tetrahydromethanopterin reductase-like protein</title>
			<polygon class=" (Sros_4163)
Coenzyme F420-dependent N5 N10-methylene tetrahydromethanopterin reductase-like protein" points="867,10 895,40 867,70" fill="rgb(255,255,255)" fill-opacity="1.0" stroke="rgb(0,0,0)" stroke-width="2"  />
			<g>
				<title>Bac_luciferase (PF00296)
"Luciferase-like monooxygenase"</title>
				<polygon class="PF00296" points="867,28 879,28 891,40 879,52 867,52" stroke-linejoin="round" width="27" height="24" fill="rgb(180,112,78)" stroke="rgb(144,89,62)" stroke-width="1" opacity="0.75" />
			</g>
		</g>
		<g>
			<title> (Sros_4164)
putative monoxygenase</title>
			<polygon class=" (Sros_4164)
putative monoxygenase" points="896,25 907,25 907,10 937,40 907,70 907,55 896,55" fill="rgb(255,255,255)" fill-opacity="1.0" stroke="rgb(0,0,0)" stroke-width="2"  />
			<g>
				<title>NAD_binding_8 (PF13450)
"NAD(P)-binding Rossmann-like domain"</title>
				<rect class="PF13450" x="897" y="28" stroke-linejoin="round" width="5" height="24" fill="rgb(91,180,227)" stroke="rgb(72,144,181)" stroke-width="1" opacity="0.75" />
			</g>
			<g>
				<title>FAD_binding_3 (PF01494)
"FAD binding domain"</title>
				<polygon class="PF01494" points="925,32 933,40 925,48" stroke-linejoin="round" width="10" height="24" fill="rgb(182,175,59)" stroke="rgb(145,140,47)" stroke-width="1" opacity="0.75" />
			</g>
		</g>
		<g>
			<title> (Sros_4165)
O-methyltransferase family protein</title>
			<polygon class=" (Sros_4165)
O-methyltransferase family protein" points="938,25 941,25 941,10 971,40 941,70 941,55 938,55" fill="rgb(255,255,255)" fill-opacity="1.0" stroke="rgb(0,0,0)" stroke-width="2"  />
			<g>
				<title>Dimerisation2 (PF16864)
"Dimerisation domain"</title>
				<rect class="PF16864" x="939" y="28" stroke-linejoin="round" width="8" height="24" fill="rgb(84,199,85)" stroke="rgb(67,159,68)" stroke-width="1" opacity="0.75" />
			</g>
			<g>
				<title>Methyltransf_2 (PF00891)
"O-methyltransferase domain"</title>
				<polygon class="PF00891" points="949,28 955,28 967,40 955,52 949,52" stroke-linejoin="round" width="20" height="24" fill="rgb(50,51,190)" stroke="rgb(39,40,152)" stroke-width="1" opacity="0.75" />
			</g>
		</g>
		<g>
			<title> (Sros_4166)
nucleotide-diphosphate-sugar epimerase</title>
			<polygon class=" (Sros_4166)
nucleotide-diphosphate-sugar epimerase" points="977,10 1005,40 977,70" fill="rgb(255,255,255)" fill-opacity="1.0" stroke="rgb(0,0,0)" stroke-width="2"  />
			<g>
				<title>NAD_binding_10 (PF13460)
"NAD(P)H-binding"</title>
				<polygon class="PF13460" points="977,28 989,28 994,33 994,47 989,52 977,52" stroke-linejoin="round" width="17" height="24" fill="rgb(188,201,78)" stroke="rgb(150,160,62)" stroke-width="1" opacity="0.75" />
			</g>
		</g>
		<g>
			<title> (Sros_4167)
O-methyltransferase family protein</title>
			<polygon class=" (Sros_4167)
O-methyltransferase family protein" points="1040,25 1036,25 1036,10 1006,40 1036,70 1036,55 1040,55" fill="rgb(255,255,255)" fill-opacity="1.0" stroke="rgb(0,0,0)" stroke-width="2"  />
			<g>
				<title>Methyltransf_2 (PF00891)
"O-methyltransferase domain"</title>
				<polygon class="PF00891" points="1010,40 1022,28 1028,28 1028,52 1022,52" stroke-linejoin="round" width="20" height="24" fill="rgb(50,51,190)" stroke="rgb(39,40,152)" stroke-width="1" opacity="0.75" />
			</g>
			<g>
				<title>Dimerisation2 (PF16864)
"Dimerisation domain"</title>
				<rect class="PF16864" x="1031" y="28" stroke-linejoin="round" width="8" height="24" fill="rgb(84,199,85)" stroke="rgb(67,159,68)" stroke-width="1" opacity="0.75" />
			</g>
		</g>
		<g>
			<title> (Sros_4168)
ferredoxin (4Fe-4S)</title>
			<polygon class=" (Sros_4168)
ferredoxin (4Fe-4S)" points="1046,10 1052,40 1046,70" fill="rgb(255,255,255)" fill-opacity="1.0" stroke="rgb(0,0,0)" stroke-width="2"  />
			<g>
				<title>Fer4_13 (PF13370)
"4Fe-4S single cluster domain of Ferredoxin I"</title>
				<polygon class="PF13370" points="1046,28 1046,28 1049,40 1046,52 1046,52" stroke-linejoin="round" width="5" height="24" fill="rgb(220,216,65)" stroke="rgb(176,172,52)" stroke-width="1" opacity="0.75" />
			</g>
		</g>
		<g>
			<title> (Sros_4169)
Asparagine synthase (glutamine-hydrolyzing)</title>
			<polygon class=" (Sros_4169)
Asparagine synthase (glutamine-hydrolyzing)" points="1055,25 1087,25 1087,10 1117,40 1087,70 1087,55 1055,55" fill="rgb(255,255,255)" fill-opacity="1.0" stroke="rgb(0,0,0)" stroke-width="2"  />
			<g>
				<title>GATase_7 (PF13537)
"Glutamine amidotransferase domain"</title>
				<rect class="PF13537" x="1059" y="28" stroke-linejoin="round" width="12" height="24" fill="rgb(200,63,57)" stroke="rgb(160,50,45)" stroke-width="1" opacity="0.75" />
			</g>
			<g>
				<title>Asn_synthase (PF00733)
"Asparagine synthase"</title>
				<polygon class="PF00733" points="1079,28 1100,28 1112,40 1100,52 1079,52" stroke-linejoin="round" width="37" height="24" fill="rgb(97,201,176)" stroke="rgb(77,160,140)" stroke-width="1" opacity="0.75" />
			</g>
		</g>
		<g>
			<title> (Sros_4170)
Nitroreductase-like protein</title>
			<polygon class=" (Sros_4170)
Nitroreductase-like protein" points="1118,10 1138,40 1118,70" fill="rgb(255,255,255)" fill-opacity="1.0" stroke="rgb(0,0,0)" stroke-width="2"  />
			<g>
				<title>Nitroreductase (PF00881)
"Nitroreductase family"</title>
				<polygon class="PF00881" points="1118,28 1126,28 1134,40 1134,40 1126,52 1118,52" stroke-linejoin="round" width="16" height="24" fill="rgb(79,118,187)" stroke="rgb(63,94,149)" stroke-width="1" opacity="0.75" />
			</g>
		</g>
		<g>
			<title> (Sros_4171)
NADPH-dependent glutamate synthase beta chain</title>
			<polygon class=" (Sros_4171)
NADPH-dependent glutamate synthase beta chain" points="1139,25 1158,25 1158,10 1188,40 1158,70 1158,55 1139,55" fill="rgb(255,255,255)" fill-opacity="1.0" stroke="rgb(0,0,0)" stroke-width="2"  />
			<g>
				<title>DAO (PF01266)
"FAD dependent oxidoreductase"</title>
				<rect class="PF01266" x="1140" y="28" stroke-linejoin="round" width="17" height="24" fill="rgb(123,179,59)" stroke="rgb(98,143,47)" stroke-width="1" opacity="0.75" />
			</g>
		</g>
		<g>
			<title> (Sros_4172)
hypothetical protein</title>
			<polygon class=" (Sros_4172)
hypothetical protein" points="1201,40 1212,10 1212,70" fill="rgb(255,255,255)" fill-opacity="1.0" stroke="rgb(0,0,0)" stroke-width="2"  />
			<g>
				<title>ABM (PF03992)
"Antibiotic biosynthesis monooxygenase"</title>
				<polygon class="PF03992" points="1204,40 1209,28 1210,28 1210,52 1209,52" stroke-linejoin="round" width="7" height="24" fill="rgb(193,84,127)" stroke="rgb(154,67,101)" stroke-width="1" opacity="0.75" />
			</g>
		</g>
		<g>
			<title> (Sros_4173)
hypothetical protein</title>
			<polygon class=" (Sros_4173)
hypothetical protein" points="1214,40 1227,10 1227,70" fill="rgb(255,255,255)" fill-opacity="1.0" stroke="rgb(0,0,0)" stroke-width="2"  />
			<g>
				<title>ABM (PF03992)
"Antibiotic biosynthesis monooxygenase"</title>
				<polygon class="PF03992" points="1217,40 1222,28 1223,28 1223,52 1222,52" stroke-linejoin="round" width="7" height="24" fill="rgb(193,84,127)" stroke="rgb(154,67,101)" stroke-width="1" opacity="0.75" />
			</g>
		</g>
	</g>
</svg>
