<svg version="1.1" baseProfile="full" xmlns="http://www.w3.org/2000/svg" width="3072.4333333333334" height="80">
	<g>
		<line x1="10" y1="40.0" x2="3062.4333333333334" y2="40.0" style="stroke:rgb(70,70,70); stroke-width:3 "/>
		<g>
			<title> (Sare_1240)
hypothetical protein</title>
			<polygon class=" (Sare_1240)
hypothetical protein" points="10,10 20,40 10,70" fill="rgb(255,255,255)" fill-opacity="1.0" stroke="rgb(0,0,0)" stroke-width="2"  />
		</g>
		<g>
			<title> (Sare_1241)
multicopper oxidase type 2</title>
			<polygon class=" (Sare_1241)
multicopper oxidase type 2" points="42,25 76,25 76,10 106,40 76,70 76,55 42,55" fill="rgb(255,255,255)" fill-opacity="1.0" stroke="rgb(0,0,0)" stroke-width="2"  />
			<g>
				<title>Cu-oxidase_3 (PF07732)
"Multicopper oxidase"</title>
				<rect class="PF07732" x="50" y="28" stroke-linejoin="round" width="5" height="24" fill="rgb(80,81,179)" stroke="rgb(63,64,143)" stroke-width="1" opacity="0.75" />
			</g>
			<g>
				<title>Cu-oxidase_3 (PF07732)
"Multicopper oxidase"</title>
				<rect class="PF07732" x="59" y="28" stroke-linejoin="round" width="7" height="24" fill="rgb(80,81,179)" stroke="rgb(63,64,143)" stroke-width="1" opacity="0.75" />
			</g>
			<g>
				<title>Cu-oxidase_2 (PF07731)
"Multicopper oxidase"</title>
				<polygon class="PF07731" points="89,28 90,28 102,40 90,52 89,52" stroke-linejoin="round" width="15" height="24" fill="rgb(183,55,192)" stroke="rgb(146,44,153)" stroke-width="1" opacity="0.75" />
			</g>
		</g>
		<g>
			<title> (Sare_1242)
oxidoreductase domain protein</title>
			<polygon class=" (Sare_1242)
oxidoreductase domain protein" points="123,25 125,25 125,10 155,40 125,70 125,55 123,55" fill="rgb(255,255,255)" fill-opacity="1.0" stroke="rgb(0,0,0)" stroke-width="2"  />
			<g>
				<title>GFO_IDH_MocA (PF01408)
"Oxidoreductase family, NAD-binding Rossmann fold"</title>
				<rect class="PF01408" x="123" y="28" stroke-linejoin="round" width="11" height="24" fill="rgb(76,117,190)" stroke="rgb(60,93,152)" stroke-width="1" opacity="0.75" />
			</g>
			<g>
				<title>GFO_IDH_MocA_C (PF02894)
"Oxidoreductase family, C-terminal alpha/beta domain"</title>
				<polygon class="PF02894" points="136,28 139,28 151,40 139,52 136,52" stroke-linejoin="round" width="19" height="24" fill="rgb(195,223,82)" stroke="rgb(155,178,65)" stroke-width="1" opacity="0.75" />
			</g>
		</g>
		<g>
			<title> (Sare_1243)
oxidoreductase domain protein</title>
			<polygon class=" (Sare_1243)
oxidoreductase domain protein" points="156,25 157,25 157,10 187,40 157,70 157,55 156,55" fill="rgb(255,255,255)" fill-opacity="1.0" stroke="rgb(0,0,0)" stroke-width="2"  />
			<g>
				<title>GFO_IDH_MocA (PF01408)
"Oxidoreductase family, NAD-binding Rossmann fold"</title>
				<rect class="PF01408" x="156" y="28" stroke-linejoin="round" width="12" height="24" fill="rgb(76,117,190)" stroke="rgb(60,93,152)" stroke-width="1" opacity="0.75" />
			</g>
			<g>
				<title>GFO_IDH_MocA_C (PF02894)
"Oxidoreductase family, C-terminal alpha/beta domain"</title>
				<polygon class="PF02894" points="169,28 171,28 183,40 171,52 169,52" stroke-linejoin="round" width="18" height="24" fill="rgb(195,223,82)" stroke="rgb(155,178,65)" stroke-width="1" opacity="0.75" />
			</g>
		</g>
		<g>
			<title> (Sare_1244)
hypothetical protein</title>
			<polygon class=" (Sare_1244)
hypothetical protein" points="190,10 199,40 190,70" fill="rgb(255,255,255)" fill-opacity="1.0" stroke="rgb(0,0,0)" stroke-width="2"  />
			<g>
				<title>DUF5988 (PF19450)
"Family of unknown function (DUF5988)"</title>
				<polygon class="PF19450" points="192,28 192,28 196,40 192,52 192,52" stroke-linejoin="round" width="6" height="24" fill="rgb(222,85,153)" stroke="rgb(177,67,122)" stroke-width="1" opacity="0.75" />
			</g>
		</g>
		<g>
			<title> (Sare_1245)
cytochrome P450</title>
			<polygon class=" (Sare_1245)
cytochrome P450" points="201,25 210,25 210,10 240,40 210,70 210,55 201,55" fill="rgb(255,255,255)" fill-opacity="1.0" stroke="rgb(0,0,0)" stroke-width="2"  />
			<g>
				<title>p450 (PF00067)
"Cytochrome P450"</title>
				<polygon class="PF00067" points="201,28 224,28 236,40 224,52 201,52" stroke-linejoin="round" width="38" height="24" fill="rgb(85,216,107)" stroke="rgb(68,172,85)" stroke-width="1" opacity="0.75" />
			</g>
		</g>
		<g>
			<title> (Sare_1246)
AMP-dependent synthetase and ligase</title>
			<polygon class=" (Sare_1246)
AMP-dependent synthetase and ligase" points="242,25 727,25 727,10 757,40 727,70 727,55 242,55" fill="rgb(255,255,255)" fill-opacity="1.0" stroke="rgb(0,0,0)" stroke-width="2"  />
			<g>
				<title>AMP-binding (PF00501)
"AMP-binding enzyme"</title>
				<rect class="PF00501" x="243" y="28" stroke-linejoin="round" width="39" height="24" fill="rgb(60,217,223)" stroke="rgb(48,173,178)" stroke-width="1" opacity="0.75" />
			</g>
			<g>
				<title>AMP-binding_C (PF13193)
"AMP-binding enzyme C-terminal domain"</title>
				<rect class="PF13193" x="283" y="28" stroke-linejoin="round" width="7" height="24" fill="rgb(182,50,118)" stroke="rgb(145,39,94)" stroke-width="1" opacity="0.75" />
			</g>
			<g>
				<title>PP-binding (PF00550)
"Phosphopantetheine attachment site"</title>
				<rect class="PF00550" x="296" y="28" stroke-linejoin="round" width="6" height="24" fill="rgb(103,191,88)" stroke="rgb(82,152,70)" stroke-width="1" opacity="0.75" />
			</g>
			<g>
				<title>ketoacyl-synt (PF00109)
"Beta-ketoacyl synthase, N-terminal domain"</title>
				<rect class="PF00109" x="305" y="28" stroke-linejoin="round" width="24" height="24" fill="rgb(112,116,228)" stroke="rgb(89,92,182)" stroke-width="1" opacity="0.75" />
			</g>
			<g>
				<title>Ketoacyl-synt_C (PF02801)
"Beta-ketoacyl synthase, C-terminal domain"</title>
				<rect class="PF02801" x="331" y="28" stroke-linejoin="round" width="11" height="24" fill="rgb(215,78,102)" stroke="rgb(172,62,81)" stroke-width="1" opacity="0.75" />
			</g>
			<g>
				<title>KAsynt_C_assoc (PF16197)
"Ketoacyl-synthetase C-terminal extension"</title>
				<rect class="PF16197" x="343" y="28" stroke-linejoin="round" width="12" height="24" fill="rgb(240,150,172)" stroke="rgb(192,120,137)" stroke-width="1" opacity="0.75" />
			</g>
			<g>
				<title>Acyl_transf_1 (PF00698)
"Acyl transferase domain"</title>
				<rect class="PF00698" x="359" y="28" stroke-linejoin="round" width="32" height="24" fill="rgb(59,176,209)" stroke="rgb(47,140,167)" stroke-width="1" opacity="0.75" />
			</g>
			<g>
				<title>PS-DH (PF14765)
"Polyketide synthase dehydratase"</title>
				<rect class="PF14765" x="395" y="28" stroke-linejoin="round" width="13" height="24" fill="rgb(173,56,182)" stroke="rgb(138,44,145)" stroke-width="1" opacity="0.75" />
			</g>
			<g>
				<title>KR (PF08659)
"KR domain"</title>
				<rect class="PF08659" x="435" y="28" stroke-linejoin="round" width="17" height="24" fill="rgb(66,209,188)" stroke="rgb(52,167,150)" stroke-width="1" opacity="0.75" />
			</g>
			<g>
				<title>PP-binding (PF00550)
"Phosphopantetheine attachment site"</title>
				<rect class="PF00550" x="463" y="28" stroke-linejoin="round" width="6" height="24" fill="rgb(103,191,88)" stroke="rgb(82,152,70)" stroke-width="1" opacity="0.75" />
			</g>
			<g>
				<title>ketoacyl-synt (PF00109)
"Beta-ketoacyl synthase, N-terminal domain"</title>
				<rect class="PF00109" x="472" y="28" stroke-linejoin="round" width="25" height="24" fill="rgb(112,116,228)" stroke="rgb(89,92,182)" stroke-width="1" opacity="0.75" />
			</g>
			<g>
				<title>Ketoacyl-synt_C (PF02801)
"Beta-ketoacyl synthase, C-terminal domain"</title>
				<rect class="PF02801" x="498" y="28" stroke-linejoin="round" width="11" height="24" fill="rgb(215,78,102)" stroke="rgb(172,62,81)" stroke-width="1" opacity="0.75" />
			</g>
			<g>
				<title>KAsynt_C_assoc (PF16197)
"Ketoacyl-synthetase C-terminal extension"</title>
				<rect class="PF16197" x="510" y="28" stroke-linejoin="round" width="12" height="24" fill="rgb(240,150,172)" stroke="rgb(192,120,137)" stroke-width="1" opacity="0.75" />
			</g>
			<g>
				<title>Acyl_transf_1 (PF00698)
"Acyl transferase domain"</title>
				<rect class="PF00698" x="525" y="28" stroke-linejoin="round" width="31" height="24" fill="rgb(59,176,209)" stroke="rgb(47,140,167)" stroke-width="1" opacity="0.75" />
			</g>
			<g>
				<title>PP-binding (PF00550)
"Phosphopantetheine attachment site"</title>
				<rect class="PF00550" x="589" y="28" stroke-linejoin="round" width="6" height="24" fill="rgb(103,191,88)" stroke="rgb(82,152,70)" stroke-width="1" opacity="0.75" />
			</g>
			<g>
				<title>ketoacyl-synt (PF00109)
"Beta-ketoacyl synthase, N-terminal domain"</title>
				<rect class="PF00109" x="598" y="28" stroke-linejoin="round" width="25" height="24" fill="rgb(112,116,228)" stroke="rgb(89,92,182)" stroke-width="1" opacity="0.75" />
			</g>
			<g>
				<title>Ketoacyl-synt_C (PF02801)
"Beta-ketoacyl synthase, C-terminal domain"</title>
				<rect class="PF02801" x="624" y="28" stroke-linejoin="round" width="11" height="24" fill="rgb(215,78,102)" stroke="rgb(172,62,81)" stroke-width="1" opacity="0.75" />
			</g>
			<g>
				<title>KAsynt_C_assoc (PF16197)
"Ketoacyl-synthetase C-terminal extension"</title>
				<rect class="PF16197" x="636" y="28" stroke-linejoin="round" width="10" height="24" fill="rgb(240,150,172)" stroke="rgb(192,120,137)" stroke-width="1" opacity="0.75" />
			</g>
			<g>
				<title>Acyl_transf_1 (PF00698)
"Acyl transferase domain"</title>
				<rect class="PF00698" x="651" y="28" stroke-linejoin="round" width="31" height="24" fill="rgb(59,176,209)" stroke="rgb(47,140,167)" stroke-width="1" opacity="0.75" />
			</g>
			<g>
				<title>PKS_DE (PF18369)
"Polyketide synthase dimerisation element domain"</title>
				<rect class="PF18369" x="687" y="28" stroke-linejoin="round" width="4" height="24" fill="rgb(192,179,67)" stroke="rgb(153,143,53)" stroke-width="1" opacity="0.75" />
			</g>
			<g>
				<title>KR (PF08659)
"KR domain"</title>
				<rect class="PF08659" x="713" y="28" stroke-linejoin="round" width="17" height="24" fill="rgb(66,209,188)" stroke="rgb(52,167,150)" stroke-width="1" opacity="0.75" />
			</g>
			<g>
				<title>PP-binding (PF00550)
"Phosphopantetheine attachment site"</title>
				<polygon class="PF00550" points="742,29 748,35 748,45 742,51" stroke-linejoin="round" width="6" height="24" fill="rgb(103,191,88)" stroke="rgb(82,152,70)" stroke-width="1" opacity="0.75" />
			</g>
		</g>
		<g>
			<title> (Sare_1247)
Beta-ketoacyl synthase</title>
			<polygon class=" (Sare_1247)
Beta-ketoacyl synthase" points="759,25 1254,25 1254,10 1284,40 1254,70 1254,55 759,55" fill="rgb(255,255,255)" fill-opacity="1.0" stroke="rgb(0,0,0)" stroke-width="2"  />
			<g>
				<title>Docking (PF08990)
"Erythronolide synthase docking domain"</title>
				<rect class="PF08990" x="759" y="28" stroke-linejoin="round" width="2" height="24" fill="rgb(180,75,55)" stroke="rgb(144,60,44)" stroke-width="1" opacity="0.75" />
			</g>
			<g>
				<title>ketoacyl-synt (PF00109)
"Beta-ketoacyl synthase, N-terminal domain"</title>
				<rect class="PF00109" x="762" y="28" stroke-linejoin="round" width="25" height="24" fill="rgb(112,116,228)" stroke="rgb(89,92,182)" stroke-width="1" opacity="0.75" />
			</g>
			<g>
				<title>Ketoacyl-synt_C (PF02801)
"Beta-ketoacyl synthase, C-terminal domain"</title>
				<rect class="PF02801" x="788" y="28" stroke-linejoin="round" width="11" height="24" fill="rgb(215,78,102)" stroke="rgb(172,62,81)" stroke-width="1" opacity="0.75" />
			</g>
			<g>
				<title>KAsynt_C_assoc (PF16197)
"Ketoacyl-synthetase C-terminal extension"</title>
				<rect class="PF16197" x="800" y="28" stroke-linejoin="round" width="11" height="24" fill="rgb(240,150,172)" stroke="rgb(192,120,137)" stroke-width="1" opacity="0.75" />
			</g>
			<g>
				<title>Acyl_transf_1 (PF00698)
"Acyl transferase domain"</title>
				<rect class="PF00698" x="815" y="28" stroke-linejoin="round" width="32" height="24" fill="rgb(59,176,209)" stroke="rgb(47,140,167)" stroke-width="1" opacity="0.75" />
			</g>
			<g>
				<title>PS-DH (PF14765)
"Polyketide synthase dehydratase"</title>
				<rect class="PF14765" x="852" y="28" stroke-linejoin="round" width="27" height="24" fill="rgb(173,56,182)" stroke="rgb(138,44,145)" stroke-width="1" opacity="0.75" />
			</g>
			<g>
				<title>KR (PF08659)
"KR domain"</title>
				<rect class="PF08659" x="897" y="28" stroke-linejoin="round" width="17" height="24" fill="rgb(66,209,188)" stroke="rgb(52,167,150)" stroke-width="1" opacity="0.75" />
			</g>
			<g>
				<title>PP-binding (PF00550)
"Phosphopantetheine attachment site"</title>
				<rect class="PF00550" x="925" y="28" stroke-linejoin="round" width="6" height="24" fill="rgb(103,191,88)" stroke="rgb(82,152,70)" stroke-width="1" opacity="0.75" />
			</g>
			<g>
				<title>ketoacyl-synt (PF00109)
"Beta-ketoacyl synthase, N-terminal domain"</title>
				<rect class="PF00109" x="934" y="28" stroke-linejoin="round" width="25" height="24" fill="rgb(112,116,228)" stroke="rgb(89,92,182)" stroke-width="1" opacity="0.75" />
			</g>
			<g>
				<title>Ketoacyl-synt_C (PF02801)
"Beta-ketoacyl synthase, C-terminal domain"</title>
				<rect class="PF02801" x="960" y="28" stroke-linejoin="round" width="11" height="24" fill="rgb(215,78,102)" stroke="rgb(172,62,81)" stroke-width="1" opacity="0.75" />
			</g>
			<g>
				<title>KAsynt_C_assoc (PF16197)
"Ketoacyl-synthetase C-terminal extension"</title>
				<rect class="PF16197" x="972" y="28" stroke-linejoin="round" width="11" height="24" fill="rgb(240,150,172)" stroke="rgb(192,120,137)" stroke-width="1" opacity="0.75" />
			</g>
			<g>
				<title>Acyl_transf_1 (PF00698)
"Acyl transferase domain"</title>
				<rect class="PF00698" x="987" y="28" stroke-linejoin="round" width="31" height="24" fill="rgb(59,176,209)" stroke="rgb(47,140,167)" stroke-width="1" opacity="0.75" />
			</g>
			<g>
				<title>PS-DH (PF14765)
"Polyketide synthase dehydratase"</title>
				<rect class="PF14765" x="1023" y="28" stroke-linejoin="round" width="27" height="24" fill="rgb(173,56,182)" stroke="rgb(138,44,145)" stroke-width="1" opacity="0.75" />
			</g>
			<g>
				<title>KR (PF08659)
"KR domain"</title>
				<rect class="PF08659" x="1069" y="28" stroke-linejoin="round" width="17" height="24" fill="rgb(66,209,188)" stroke="rgb(52,167,150)" stroke-width="1" opacity="0.75" />
			</g>
			<g>
				<title>PP-binding (PF00550)
"Phosphopantetheine attachment site"</title>
				<rect class="PF00550" x="1097" y="28" stroke-linejoin="round" width="6" height="24" fill="rgb(103,191,88)" stroke="rgb(82,152,70)" stroke-width="1" opacity="0.75" />
			</g>
			<g>
				<title>ketoacyl-synt (PF00109)
"Beta-ketoacyl synthase, N-terminal domain"</title>
				<rect class="PF00109" x="1106" y="28" stroke-linejoin="round" width="25" height="24" fill="rgb(112,116,228)" stroke="rgb(89,92,182)" stroke-width="1" opacity="0.75" />
			</g>
			<g>
				<title>Ketoacyl-synt_C (PF02801)
"Beta-ketoacyl synthase, C-terminal domain"</title>
				<rect class="PF02801" x="1132" y="28" stroke-linejoin="round" width="11" height="24" fill="rgb(215,78,102)" stroke="rgb(172,62,81)" stroke-width="1" opacity="0.75" />
			</g>
			<g>
				<title>KAsynt_C_assoc (PF16197)
"Ketoacyl-synthetase C-terminal extension"</title>
				<rect class="PF16197" x="1144" y="28" stroke-linejoin="round" width="9" height="24" fill="rgb(240,150,172)" stroke="rgb(192,120,137)" stroke-width="1" opacity="0.75" />
			</g>
			<g>
				<title>Acyl_transf_1 (PF00698)
"Acyl transferase domain"</title>
				<rect class="PF00698" x="1159" y="28" stroke-linejoin="round" width="31" height="24" fill="rgb(59,176,209)" stroke="rgb(47,140,167)" stroke-width="1" opacity="0.75" />
			</g>
			<g>
				<title>PS-DH (PF14765)
"Polyketide synthase dehydratase"</title>
				<rect class="PF14765" x="1196" y="28" stroke-linejoin="round" width="28" height="24" fill="rgb(173,56,182)" stroke="rgb(138,44,145)" stroke-width="1" opacity="0.75" />
			</g>
			<g>
				<title>KR (PF08659)
"KR domain"</title>
				<rect class="PF08659" x="1241" y="28" stroke-linejoin="round" width="17" height="24" fill="rgb(66,209,188)" stroke="rgb(52,167,150)" stroke-width="1" opacity="0.75" />
			</g>
			<g>
				<title>PP-binding (PF00550)
"Phosphopantetheine attachment site"</title>
				<polygon class="PF00550" points="1270,30 1276,36 1276,44 1270,50" stroke-linejoin="round" width="6" height="24" fill="rgb(103,191,88)" stroke="rgb(82,152,70)" stroke-width="1" opacity="0.75" />
			</g>
		</g>
		<g>
			<title> (Sare_1248)
Beta-ketoacyl synthase</title>
			<polygon class=" (Sare_1248)
Beta-ketoacyl synthase" points="1286,25 1439,25 1439,10 1469,40 1439,70 1439,55 1286,55" fill="rgb(255,255,255)" fill-opacity="1.0" stroke="rgb(0,0,0)" stroke-width="2"  />
			<g>
				<title>Docking (PF08990)
"Erythronolide synthase docking domain"</title>
				<rect class="PF08990" x="1286" y="28" stroke-linejoin="round" width="2" height="24" fill="rgb(180,75,55)" stroke="rgb(144,60,44)" stroke-width="1" opacity="0.75" />
			</g>
			<g>
				<title>ketoacyl-synt (PF00109)
"Beta-ketoacyl synthase, N-terminal domain"</title>
				<rect class="PF00109" x="1289" y="28" stroke-linejoin="round" width="24" height="24" fill="rgb(112,116,228)" stroke="rgb(89,92,182)" stroke-width="1" opacity="0.75" />
			</g>
			<g>
				<title>Ketoacyl-synt_C (PF02801)
"Beta-ketoacyl synthase, C-terminal domain"</title>
				<rect class="PF02801" x="1315" y="28" stroke-linejoin="round" width="11" height="24" fill="rgb(215,78,102)" stroke="rgb(172,62,81)" stroke-width="1" opacity="0.75" />
			</g>
			<g>
				<title>KAsynt_C_assoc (PF16197)
"Ketoacyl-synthetase C-terminal extension"</title>
				<rect class="PF16197" x="1327" y="28" stroke-linejoin="round" width="9" height="24" fill="rgb(240,150,172)" stroke="rgb(192,120,137)" stroke-width="1" opacity="0.75" />
			</g>
			<g>
				<title>Acyl_transf_1 (PF00698)
"Acyl transferase domain"</title>
				<rect class="PF00698" x="1342" y="28" stroke-linejoin="round" width="31" height="24" fill="rgb(59,176,209)" stroke="rgb(47,140,167)" stroke-width="1" opacity="0.75" />
			</g>
			<g>
				<title>PS-DH (PF14765)
"Polyketide synthase dehydratase"</title>
				<rect class="PF14765" x="1378" y="28" stroke-linejoin="round" width="29" height="24" fill="rgb(173,56,182)" stroke="rgb(138,44,145)" stroke-width="1" opacity="0.75" />
			</g>
			<g>
				<title>KR (PF08659)
"KR domain"</title>
				<rect class="PF08659" x="1426" y="28" stroke-linejoin="round" width="17" height="24" fill="rgb(66,209,188)" stroke="rgb(52,167,150)" stroke-width="1" opacity="0.75" />
			</g>
			<g>
				<title>PP-binding (PF00550)
"Phosphopantetheine attachment site"</title>
				<polygon class="PF00550" points="1454,30 1460,36 1460,44 1454,50" stroke-linejoin="round" width="6" height="24" fill="rgb(103,191,88)" stroke="rgb(82,152,70)" stroke-width="1" opacity="0.75" />
			</g>
		</g>
		<g>
			<title> (Sare_1249)
Beta-ketoacyl synthase</title>
			<polygon class=" (Sare_1249)
Beta-ketoacyl synthase" points="1470,25 1619,25 1619,10 1649,40 1619,70 1619,55 1470,55" fill="rgb(255,255,255)" fill-opacity="1.0" stroke="rgb(0,0,0)" stroke-width="2"  />
			<g>
				<title>Docking (PF08990)
"Erythronolide synthase docking domain"</title>
				<rect class="PF08990" x="1470" y="28" stroke-linejoin="round" width="2" height="24" fill="rgb(180,75,55)" stroke="rgb(144,60,44)" stroke-width="1" opacity="0.75" />
			</g>
			<g>
				<title>ketoacyl-synt (PF00109)
"Beta-ketoacyl synthase, N-terminal domain"</title>
				<rect class="PF00109" x="1473" y="28" stroke-linejoin="round" width="25" height="24" fill="rgb(112,116,228)" stroke="rgb(89,92,182)" stroke-width="1" opacity="0.75" />
			</g>
			<g>
				<title>Ketoacyl-synt_C (PF02801)
"Beta-ketoacyl synthase, C-terminal domain"</title>
				<rect class="PF02801" x="1499" y="28" stroke-linejoin="round" width="11" height="24" fill="rgb(215,78,102)" stroke="rgb(172,62,81)" stroke-width="1" opacity="0.75" />
			</g>
			<g>
				<title>KAsynt_C_assoc (PF16197)
"Ketoacyl-synthetase C-terminal extension"</title>
				<rect class="PF16197" x="1511" y="28" stroke-linejoin="round" width="11" height="24" fill="rgb(240,150,172)" stroke="rgb(192,120,137)" stroke-width="1" opacity="0.75" />
			</g>
			<g>
				<title>Acyl_transf_1 (PF00698)
"Acyl transferase domain"</title>
				<rect class="PF00698" x="1526" y="28" stroke-linejoin="round" width="31" height="24" fill="rgb(59,176,209)" stroke="rgb(47,140,167)" stroke-width="1" opacity="0.75" />
			</g>
			<g>
				<title>PS-DH (PF14765)
"Polyketide synthase dehydratase"</title>
				<rect class="PF14765" x="1563" y="28" stroke-linejoin="round" width="27" height="24" fill="rgb(173,56,182)" stroke="rgb(138,44,145)" stroke-width="1" opacity="0.75" />
			</g>
			<g>
				<title>KR (PF08659)
"KR domain"</title>
				<rect class="PF08659" x="1606" y="28" stroke-linejoin="round" width="17" height="24" fill="rgb(66,209,188)" stroke="rgb(52,167,150)" stroke-width="1" opacity="0.75" />
			</g>
			<g>
				<title>PP-binding (PF00550)
"Phosphopantetheine attachment site"</title>
				<polygon class="PF00550" points="1633,29 1639,35 1639,45 1633,51" stroke-linejoin="round" width="6" height="24" fill="rgb(103,191,88)" stroke="rgb(82,152,70)" stroke-width="1" opacity="0.75" />
			</g>
		</g>
		<g>
			<title> (Sare_1250)
Acyl transferase</title>
			<polygon class=" (Sare_1250)
Acyl transferase" points="1651,25 1970,25 1970,10 2000,40 1970,70 1970,55 1651,55" fill="rgb(255,255,255)" fill-opacity="1.0" stroke="rgb(0,0,0)" stroke-width="2"  />
			<g>
				<title>Docking (PF08990)
"Erythronolide synthase docking domain"</title>
				<rect class="PF08990" x="1651" y="28" stroke-linejoin="round" width="2" height="24" fill="rgb(180,75,55)" stroke="rgb(144,60,44)" stroke-width="1" opacity="0.75" />
			</g>
			<g>
				<title>ketoacyl-synt (PF00109)
"Beta-ketoacyl synthase, N-terminal domain"</title>
				<rect class="PF00109" x="1654" y="28" stroke-linejoin="round" width="24" height="24" fill="rgb(112,116,228)" stroke="rgb(89,92,182)" stroke-width="1" opacity="0.75" />
			</g>
			<g>
				<title>Ketoacyl-synt_C (PF02801)
"Beta-ketoacyl synthase, C-terminal domain"</title>
				<rect class="PF02801" x="1679" y="28" stroke-linejoin="round" width="11" height="24" fill="rgb(215,78,102)" stroke="rgb(172,62,81)" stroke-width="1" opacity="0.75" />
			</g>
			<g>
				<title>KAsynt_C_assoc (PF16197)
"Ketoacyl-synthetase C-terminal extension"</title>
				<rect class="PF16197" x="1691" y="28" stroke-linejoin="round" width="12" height="24" fill="rgb(240,150,172)" stroke="rgb(192,120,137)" stroke-width="1" opacity="0.75" />
			</g>
			<g>
				<title>Acyl_transf_1 (PF00698)
"Acyl transferase domain"</title>
				<rect class="PF00698" x="1707" y="28" stroke-linejoin="round" width="32" height="24" fill="rgb(59,176,209)" stroke="rgb(47,140,167)" stroke-width="1" opacity="0.75" />
			</g>
			<g>
				<title>PS-DH (PF14765)
"Polyketide synthase dehydratase"</title>
				<rect class="PF14765" x="1744" y="28" stroke-linejoin="round" width="27" height="24" fill="rgb(173,56,182)" stroke="rgb(138,44,145)" stroke-width="1" opacity="0.75" />
			</g>
			<g>
				<title>KR (PF08659)
"KR domain"</title>
				<rect class="PF08659" x="1789" y="28" stroke-linejoin="round" width="17" height="24" fill="rgb(66,209,188)" stroke="rgb(52,167,150)" stroke-width="1" opacity="0.75" />
			</g>
			<g>
				<title>PP-binding (PF00550)
"Phosphopantetheine attachment site"</title>
				<rect class="PF00550" x="1817" y="28" stroke-linejoin="round" width="6" height="24" fill="rgb(103,191,88)" stroke="rgb(82,152,70)" stroke-width="1" opacity="0.75" />
			</g>
			<g>
				<title>ketoacyl-synt (PF00109)
"Beta-ketoacyl synthase, N-terminal domain"</title>
				<rect class="PF00109" x="1826" y="28" stroke-linejoin="round" width="24" height="24" fill="rgb(112,116,228)" stroke="rgb(89,92,182)" stroke-width="1" opacity="0.75" />
			</g>
			<g>
				<title>Ketoacyl-synt_C (PF02801)
"Beta-ketoacyl synthase, C-terminal domain"</title>
				<rect class="PF02801" x="1851" y="28" stroke-linejoin="round" width="11" height="24" fill="rgb(215,78,102)" stroke="rgb(172,62,81)" stroke-width="1" opacity="0.75" />
			</g>
			<g>
				<title>KAsynt_C_assoc (PF16197)
"Ketoacyl-synthetase C-terminal extension"</title>
				<rect class="PF16197" x="1863" y="28" stroke-linejoin="round" width="11" height="24" fill="rgb(240,150,172)" stroke="rgb(192,120,137)" stroke-width="1" opacity="0.75" />
			</g>
			<g>
				<title>Acyl_transf_1 (PF00698)
"Acyl transferase domain"</title>
				<rect class="PF00698" x="1879" y="28" stroke-linejoin="round" width="31" height="24" fill="rgb(59,176,209)" stroke="rgb(47,140,167)" stroke-width="1" opacity="0.75" />
			</g>
			<g>
				<title>PS-DH (PF14765)
"Polyketide synthase dehydratase"</title>
				<rect class="PF14765" x="1915" y="28" stroke-linejoin="round" width="28" height="24" fill="rgb(173,56,182)" stroke="rgb(138,44,145)" stroke-width="1" opacity="0.75" />
			</g>
			<g>
				<title>KR (PF08659)
"KR domain"</title>
				<rect class="PF08659" x="1963" y="28" stroke-linejoin="round" width="17" height="24" fill="rgb(66,209,188)" stroke="rgb(52,167,150)" stroke-width="1" opacity="0.75" />
			</g>
			<g>
				<title>PP-binding (PF00550)
"Phosphopantetheine attachment site"</title>
				<polygon class="PF00550" points="1992,36 1996,40 1992,44" stroke-linejoin="round" width="6" height="24" fill="rgb(103,191,88)" stroke="rgb(82,152,70)" stroke-width="1" opacity="0.75" />
			</g>
		</g>
		<g>
			<title> (Sare_1251)
N-acetyltransferase</title>
			<polygon class=" (Sare_1251)
N-acetyltransferase" points="2001,10 2026,40 2001,70" fill="rgb(255,255,255)" fill-opacity="1.0" stroke="rgb(0,0,0)" stroke-width="2"  />
			<g>
				<title>Acetyltransf_2 (PF00797)
"N-acetyltransferase"</title>
				<polygon class="PF00797" points="2003,28 2013,28 2022,40 2013,52 2003,52" stroke-linejoin="round" width="23" height="24" fill="rgb(68,124,226)" stroke="rgb(54,99,180)" stroke-width="1" opacity="0.75" />
			</g>
		</g>
		<g>
			<title> (Sare_1252)
hypothetical protein</title>
			<polygon class=" (Sare_1252)
hypothetical protein" points="2028,10 2033,40 2028,70" fill="rgb(255,255,255)" fill-opacity="1.0" stroke="rgb(0,0,0)" stroke-width="2"  />
		</g>
		<g>
			<title> (Sare_1253)
3-dehydroquinate synthase</title>
			<polygon class=" (Sare_1253)
3-dehydroquinate synthase" points="2033,25 2038,25 2038,10 2068,40 2038,70 2038,55 2033,55" fill="rgb(255,255,255)" fill-opacity="1.0" stroke="rgb(0,0,0)" stroke-width="2"  />
			<g>
				<title>DHQ_synthase (PF01761)
"3-dehydroquinate synthase"</title>
				<polygon class="PF01761" points="2038,28 2052,28 2062,38 2062,42 2052,52 2038,52" stroke-linejoin="round" width="24" height="24" fill="rgb(150,62,180)" stroke="rgb(120,49,144)" stroke-width="1" opacity="0.75" />
			</g>
		</g>
		<g>
			<title> (Sare_1254)
3-deoxy-7-phosphoheptulonate synthase</title>
			<polygon class=" (Sare_1254)
3-deoxy-7-phosphoheptulonate synthase" points="2069,25 2083,25 2083,10 2113,40 2083,70 2083,55 2069,55" fill="rgb(255,255,255)" fill-opacity="1.0" stroke="rgb(0,0,0)" stroke-width="2"  />
			<g>
				<title>DAHP_synth_2 (PF01474)
"Class-II DAHP synthetase family"</title>
				<rect class="PF01474" x="2071" y="28" stroke-linejoin="round" width="16" height="24" fill="rgb(126,217,84)" stroke="rgb(100,173,67)" stroke-width="1" opacity="0.75" />
			</g>
			<g>
				<title>DAHP_synth_2 (PF01474)
"Class-II DAHP synthetase family"</title>
				<polygon class="PF01474" points="2087,28 2097,28 2108,39 2108,41 2097,52 2087,52" stroke-linejoin="round" width="21" height="24" fill="rgb(126,217,84)" stroke="rgb(100,173,67)" stroke-width="1" opacity="0.75" />
			</g>
		</g>
		<g>
			<title> (Sare_1255)
Glutamine--scyllo-inositol transaminase</title>
			<polygon class=" (Sare_1255)
Glutamine--scyllo-inositol transaminase" points="2127,25 2135,25 2135,10 2165,40 2135,70 2135,55 2127,55" fill="rgb(255,255,255)" fill-opacity="1.0" stroke="rgb(0,0,0)" stroke-width="2"  />
			<g>
				<title>DegT_DnrJ_EryC1 (PF01041)
"DegT/DnrJ/EryC1/StrS aminotransferase family"</title>
				<polygon class="PF01041" points="2128,28 2149,28 2161,40 2149,52 2128,52" stroke-linejoin="round" width="36" height="24" fill="rgb(59,139,191)" stroke="rgb(47,111,152)" stroke-width="1" opacity="0.75" />
			</g>
		</g>
		<g>
			<title> (Sare_1256)
oxidoreductase domain protein</title>
			<polygon class=" (Sare_1256)
oxidoreductase domain protein" points="2166,25 2171,25 2171,10 2201,40 2171,70 2171,55 2166,55" fill="rgb(255,255,255)" fill-opacity="1.0" stroke="rgb(0,0,0)" stroke-width="2"  />
			<g>
				<title>GFO_IDH_MocA (PF01408)
"Oxidoreductase family, NAD-binding Rossmann fold"</title>
				<rect class="PF01408" x="2166" y="28" stroke-linejoin="round" width="11" height="24" fill="rgb(76,117,190)" stroke="rgb(60,93,152)" stroke-width="1" opacity="0.75" />
			</g>
			<g>
				<title>GFO_IDH_MocA_C (PF02894)
"Oxidoreductase family, C-terminal alpha/beta domain"</title>
				<polygon class="PF02894" points="2179,28 2185,28 2197,40 2185,52 2179,52" stroke-linejoin="round" width="21" height="24" fill="rgb(195,223,82)" stroke="rgb(155,178,65)" stroke-width="1" opacity="0.75" />
			</g>
		</g>
		<g>
			<title> (Sare_1257)
AHBA synthesis associated protein</title>
			<polygon class=" (Sare_1257)
AHBA synthesis associated protein" points="2202,10 2224,40 2202,70" fill="rgb(255,255,255)" fill-opacity="1.0" stroke="rgb(0,0,0)" stroke-width="2"  />
			<g>
				<title>HAD_2 (PF13419)
"Haloacid dehalogenase-like hydrolase"</title>
				<polygon class="PF13419" points="2203,28 2212,28 2220,39 2220,41 2212,52 2203,52" stroke-linejoin="round" width="17" height="24" fill="rgb(60,223,188)" stroke="rgb(48,178,150)" stroke-width="1" opacity="0.75" />
			</g>
		</g>
		<g>
			<title> (Sare_1258)
Rieske (2Fe-2S) domain protein</title>
			<polygon class=" (Sare_1258)
Rieske (2Fe-2S) domain protein" points="2231,40 2243,10 2243,70" fill="rgb(255,255,255)" fill-opacity="1.0" stroke="rgb(0,0,0)" stroke-width="2"  />
			<g>
				<title>Rieske (PF00355)
"Rieske [2Fe-2S] domain"</title>
				<polygon class="PF00355" points="2234,40 2239,28 2240,28 2240,52 2239,52" stroke-linejoin="round" width="8" height="24" fill="rgb(186,77,145)" stroke="rgb(148,61,115)" stroke-width="1" opacity="0.75" />
			</g>
		</g>
		<g>
			<title> (Sare_1259)
cytochrome P450</title>
			<polygon class=" (Sare_1259)
cytochrome P450" points="2295,25 2283,25 2283,10 2253,40 2283,70 2283,55 2295,55" fill="rgb(255,255,255)" fill-opacity="1.0" stroke="rgb(0,0,0)" stroke-width="2"  />
			<g>
				<title>p450 (PF00067)
"Cytochrome P450"</title>
				<polygon class="PF00067" points="2257,40 2269,28 2275,28 2275,52 2269,52" stroke-linejoin="round" width="22" height="24" fill="rgb(85,216,107)" stroke="rgb(68,172,85)" stroke-width="1" opacity="0.75" />
			</g>
		</g>
		<g>
			<title> (Sare_1260)
cytochrome P450</title>
			<polygon class=" (Sare_1260)
cytochrome P450" points="2306,25 2318,25 2318,10 2348,40 2318,70 2318,55 2306,55" fill="rgb(255,255,255)" fill-opacity="1.0" stroke="rgb(0,0,0)" stroke-width="2"  />
			<g>
				<title>p450 (PF00067)
"Cytochrome P450"</title>
				<polygon class="PF00067" points="2311,28 2331,28 2343,40 2331,52 2311,52" stroke-linejoin="round" width="35" height="24" fill="rgb(85,216,107)" stroke="rgb(68,172,85)" stroke-width="1" opacity="0.75" />
			</g>
		</g>
		<g>
			<title> (Sare_1261)
protein of unknown function DUF1271</title>
			<polygon class=" (Sare_1261)
protein of unknown function DUF1271" points="2348,10 2354,40 2348,70" fill="rgb(255,255,255)" fill-opacity="1.0" stroke="rgb(0,0,0)" stroke-width="2"  />
			<g>
				<title>Fer4_19 (PF06902)
"Divergent 4Fe-4S mono-cluster"</title>
				<polygon class="PF06902" points="2348,28 2348,28 2351,40 2348,52 2348,52" stroke-linejoin="round" width="6" height="24" fill="rgb(86,110,201)" stroke="rgb(68,87,160)" stroke-width="1" opacity="0.75" />
			</g>
		</g>
		<g>
			<title> (Sare_1262)
conserved polyketide synthase associated protein PapA5</title>
			<polygon class=" (Sare_1262)
conserved polyketide synthase associated protein PapA5" points="2403,25 2392,25 2392,10 2362,40 2392,70 2392,55 2403,55" fill="rgb(255,255,255)" fill-opacity="1.0" stroke="rgb(0,0,0)" stroke-width="2"  />
			<g>
				<title>PapA_C (PF16911)
"Phthiocerol/phthiodiolone dimycocerosyl transferase C-terminus"</title>
				<polygon class="PF16911" points="2366,40 2373,33 2373,47" stroke-linejoin="round" width="11" height="24" fill="rgb(219,98,127)" stroke="rgb(175,78,101)" stroke-width="1" opacity="0.75" />
			</g>
		</g>
		<g>
			<title> (Sare_1263)
protein of unknown function DUF1205</title>
			<polygon class=" (Sare_1263)
protein of unknown function DUF1205" points="2452,25 2444,25 2444,10 2414,40 2444,70 2444,55 2452,55" fill="rgb(255,255,255)" fill-opacity="1.0" stroke="rgb(0,0,0)" stroke-width="2"  />
			<g>
				<title>Glyco_tran_28_C (PF04101)
"Glycosyltransferase family 28 C-terminal domain"</title>
				<polygon class="PF04101" points="2418,40 2425,33 2425,47" stroke-linejoin="round" width="9" height="24" fill="rgb(211,90,140)" stroke="rgb(168,72,112)" stroke-width="1" opacity="0.75" />
			</g>
			<g>
				<title>DUF1205 (PF06722)
"Protein of unknown function (DUF1205)"</title>
				<polygon class="PF06722" points="2426,32 2430,28 2435,28 2435,52 2430,52 2426,48" stroke-linejoin="round" width="9" height="24" fill="rgb(200,129,88)" stroke="rgb(160,103,70)" stroke-width="1" opacity="0.75" />
			</g>
		</g>
		<g>
			<title> (Sare_1264)
DegT/DnrJ/EryC1/StrS aminotransferase</title>
			<polygon class=" (Sare_1264)
DegT/DnrJ/EryC1/StrS aminotransferase" points="2464,25 2477,25 2477,10 2507,40 2477,70 2477,55 2464,55" fill="rgb(255,255,255)" fill-opacity="1.0" stroke="rgb(0,0,0)" stroke-width="2"  />
			<g>
				<title>DegT_DnrJ_EryC1 (PF01041)
"DegT/DnrJ/EryC1/StrS aminotransferase family"</title>
				<polygon class="PF01041" points="2468,28 2491,28 2503,40 2491,52 2468,52" stroke-linejoin="round" width="38" height="24" fill="rgb(59,139,191)" stroke="rgb(47,111,152)" stroke-width="1" opacity="0.75" />
			</g>
		</g>
		<g>
			<title> (Sare_1265)
aminotransferase class-III</title>
			<polygon class=" (Sare_1265)
aminotransferase class-III" points="2560,25 2545,25 2545,10 2515,40 2545,70 2545,55 2560,55" fill="rgb(255,255,255)" fill-opacity="1.0" stroke="rgb(0,0,0)" stroke-width="2"  />
			<g>
				<title>Aminotran_3 (PF00202)
"Aminotransferase class-III"</title>
				<polygon class="PF00202" points="2519,40 2531,28 2558,28 2558,52 2531,52" stroke-linejoin="round" width="41" height="24" fill="rgb(49,163,189)" stroke="rgb(39,130,151)" stroke-width="1" opacity="0.75" />
			</g>
		</g>
		<g>
			<title> (Sare_1266)
oxidoreductase domain protein</title>
			<polygon class=" (Sare_1266)
oxidoreductase domain protein" points="2599,25 2596,25 2596,10 2566,40 2596,70 2596,55 2599,55" fill="rgb(255,255,255)" fill-opacity="1.0" stroke="rgb(0,0,0)" stroke-width="2"  />
			<g>
				<title>GFO_IDH_MocA (PF01408)
"Oxidoreductase family, NAD-binding Rossmann fold"</title>
				<rect class="PF01408" x="2587" y="28" stroke-linejoin="round" width="11" height="24" fill="rgb(76,117,190)" stroke="rgb(60,93,152)" stroke-width="1" opacity="0.75" />
			</g>
		</g>
		<g>
			<title> (Sare_1267)
NDP-hexose 23-dehydratase</title>
			<polygon class=" (Sare_1267)
NDP-hexose 23-dehydratase" points="2619,25 2637,25 2637,10 2667,40 2637,70 2637,55 2619,55" fill="rgb(255,255,255)" fill-opacity="1.0" stroke="rgb(0,0,0)" stroke-width="2"  />
			<g>
				<title>Hexose_dehydrat (PF03559)
"NDP-hexose 2,3-dehydratase"</title>
				<rect class="PF03559" x="2622" y="28" stroke-linejoin="round" width="20" height="24" fill="rgb(74,201,66)" stroke="rgb(59,160,52)" stroke-width="1" opacity="0.75" />
			</g>
			<g>
				<title>Hexose_dehydrat (PF03559)
"NDP-hexose 2,3-dehydratase"</title>
				<polygon class="PF03559" points="2645,28 2650,28 2662,40 2650,52 2645,52" stroke-linejoin="round" width="20" height="24" fill="rgb(74,201,66)" stroke="rgb(59,160,52)" stroke-width="1" opacity="0.75" />
			</g>
		</g>
		<g>
			<title> (Sare_1268)
monooxygenase FAD-binding</title>
			<polygon class=" (Sare_1268)
monooxygenase FAD-binding" points="2722,25 2699,25 2699,10 2669,40 2699,70 2699,55 2722,55" fill="rgb(255,255,255)" fill-opacity="1.0" stroke="rgb(0,0,0)" stroke-width="2"  />
			<g>
				<title>FAD_binding_3 (PF01494)
"FAD binding domain"</title>
				<rect class="PF01494" x="2687" y="28" stroke-linejoin="round" width="34" height="24" fill="rgb(182,175,59)" stroke="rgb(145,140,47)" stroke-width="1" opacity="0.75" />
			</g>
		</g>
		<g>
			<title> (Sare_1269)
Oleoyl-(acyl-carrier-protein) hydrolase</title>
			<polygon class=" (Sare_1269)
Oleoyl-(acyl-carrier-protein) hydrolase" points="2722,40 2747,10 2747,70" fill="rgb(255,255,255)" fill-opacity="1.0" stroke="rgb(0,0,0)" stroke-width="2"  />
			<g>
				<title>Thioesterase (PF00975)
"Thioesterase domain"</title>
				<polygon class="PF00975" points="2726,40 2736,28 2744,28 2744,52 2736,52" stroke-linejoin="round" width="22" height="24" fill="rgb(207,80,138)" stroke="rgb(165,63,110)" stroke-width="1" opacity="0.75" />
			</g>
		</g>
		<g>
			<title> (Sare_1270)
transcriptional regulator, LuxR family</title>
			<polygon class=" (Sare_1270)
transcriptional regulator, LuxR family" points="2777,25 2789,25 2789,10 2819,40 2789,70 2789,55 2777,55" fill="rgb(255,255,255)" fill-opacity="1.0" stroke="rgb(0,0,0)" stroke-width="2"  />
			<g>
				<title>GerE (PF00196)
"Bacterial regulatory proteins, luxR family"</title>
				<polygon class="PF00196" points="2811,37 2814,40 2811,43" stroke-linejoin="round" width="5" height="24" fill="rgb(219,94,82)" stroke="rgb(175,75,65)" stroke-width="1" opacity="0.75" />
			</g>
		</g>
		<g>
			<title> (Sare_1271)
Methyltransferase type 11</title>
			<polygon class=" (Sare_1271)
Methyltransferase type 11" points="2819,10 2846,40 2819,70" fill="rgb(255,255,255)" fill-opacity="1.0" stroke="rgb(0,0,0)" stroke-width="2"  />
			<g>
				<title>Methyltransf_11 (PF08241)
"Methyltransferase domain"</title>
				<polygon class="PF08241" points="2825,28 2830,28 2834,31 2834,49 2830,52 2825,52" stroke-linejoin="round" width="9" height="24" fill="rgb(106,219,159)" stroke="rgb(84,175,127)" stroke-width="1" opacity="0.75" />
			</g>
		</g>
		<g>
			<title> (Sare_1272)
Transketolase domain protein</title>
			<polygon class=" (Sare_1272)
Transketolase domain protein" points="2850,10 2874,40 2850,70" fill="rgb(255,255,255)" fill-opacity="1.0" stroke="rgb(0,0,0)" stroke-width="2"  />
			<g>
				<title>Transketolase_N (PF00456)
"Transketolase, thiamine diphosphate binding domain"</title>
				<polygon class="PF00456" points="2852,28 2861,28 2870,40 2861,52 2852,52" stroke-linejoin="round" width="21" height="24" fill="rgb(74,202,214)" stroke="rgb(59,161,171)" stroke-width="1" opacity="0.75" />
			</g>
		</g>
		<g>
			<title> (Sare_1273)
Transketolase central region</title>
			<polygon class=" (Sare_1273)
Transketolase central region" points="2874,25 2874,25 2874,10 2904,40 2874,70 2874,55 2874,55" fill="rgb(255,255,255)" fill-opacity="1.0" stroke="rgb(0,0,0)" stroke-width="2"  />
			<g>
				<title>Transket_pyr (PF02779)
"Transketolase, pyrimidine binding domain"</title>
				<polygon class="PF02779" points="2874,28 2888,28 2890,30 2890,50 2888,52 2874,52" stroke-linejoin="round" width="16" height="24" fill="rgb(189,186,84)" stroke="rgb(151,148,67)" stroke-width="1" opacity="0.75" />
			</g>
		</g>
		<g>
			<title> (Sare_1274)
Shikimate dehydrogenase substrate binding domain protein</title>
			<polygon class=" (Sare_1274)
Shikimate dehydrogenase substrate binding domain protein" points="2909,40 2936,10 2936,70" fill="rgb(255,255,255)" fill-opacity="1.0" stroke="rgb(0,0,0)" stroke-width="2"  />
			<g>
				<title>Shikimate_dh_N (PF08501)
"Shikimate dehydrogenase substrate binding domain"</title>
				<rect class="PF08501" x="2925" y="28" stroke-linejoin="round" width="8" height="24" fill="rgb(145,207,53)" stroke="rgb(116,165,42)" stroke-width="1" opacity="0.75" />
			</g>
		</g>
		<g>
			<title> (Sare_1275)
ROK family protein</title>
			<polygon class=" (Sare_1275)
ROK family protein" points="2971,25 2970,25 2970,10 2940,40 2970,70 2970,55 2971,55" fill="rgb(255,255,255)" fill-opacity="1.0" stroke="rgb(0,0,0)" stroke-width="2"  />
			<g>
				<title>ROK (PF00480)
"ROK family"</title>
				<polygon class="PF00480" points="2944,40 2956,28 2969,28 2969,52 2956,52" stroke-linejoin="round" width="28" height="24" fill="rgb(205,99,210)" stroke="rgb(163,79,168)" stroke-width="1" opacity="0.75" />
			</g>
		</g>
		<g>
			<title> (Sare_1276)
DoxX family protein</title>
			<polygon class=" (Sare_1276)
DoxX family protein" points="2971,40 2982,10 2982,70" fill="rgb(255,255,255)" fill-opacity="1.0" stroke="rgb(0,0,0)" stroke-width="2"  />
			<g>
				<title>DoxX_2 (PF13564)
"DoxX-like family"</title>
				<polygon class="PF13564" points="2974,40 2979,28 2981,28 2981,52 2979,52" stroke-linejoin="round" width="10" height="24" fill="rgb(194,67,108)" stroke="rgb(155,53,86)" stroke-width="1" opacity="0.75" />
			</g>
		</g>
		<g>
			<title> (Sare_1277)
3-dehydroquinate dehydratase</title>
			<polygon class=" (Sare_1277)
3-dehydroquinate dehydratase" points="2986,40 3000,10 3000,70" fill="rgb(255,255,255)" fill-opacity="1.0" stroke="rgb(0,0,0)" stroke-width="2"  />
			<g>
				<title>DHquinase_II (PF01220)
"Dehydroquinase class II"</title>
				<polygon class="PF01220" points="2989,40 2995,28 2999,28 2999,52 2995,52" stroke-linejoin="round" width="13" height="24" fill="rgb(130,67,203)" stroke="rgb(103,53,162)" stroke-width="1" opacity="0.75" />
			</g>
		</g>
		<g>
			<title> (Sare_1278)
FAD dependent oxidoreductase</title>
			<polygon class=" (Sare_1278)
FAD dependent oxidoreductase" points="3062,25 3040,25 3040,10 3010,40 3040,70 3040,55 3062,55" fill="rgb(255,255,255)" fill-opacity="1.0" stroke="rgb(0,0,0)" stroke-width="2"  />
			<g>
				<title>Amino_oxidase (PF01593)
"Flavin containing amine oxidoreductase"</title>
				<rect class="PF01593" x="3029" y="28" stroke-linejoin="round" width="17" height="24" fill="rgb(184,74,52)" stroke="rgb(147,59,41)" stroke-width="1" opacity="0.75" />
			</g>
			<g>
				<title>NAD_binding_8 (PF13450)
"NAD(P)-binding Rossmann-like domain"</title>
				<rect class="PF13450" x="3055" y="28" stroke-linejoin="round" width="6" height="24" fill="rgb(91,180,227)" stroke="rgb(72,144,181)" stroke-width="1" opacity="0.75" />
			</g>
		</g>
	</g>
</svg>
