<svg version="1.1" baseProfile="full" xmlns="http://www.w3.org/2000/svg" width="1081.7" height="80">
	<g>
		<line x1="10" y1="40.0" x2="1071.7" y2="40.0" style="stroke:rgb(70,70,70); stroke-width:3 "/>
		<g>
			<title> (C7C45_21175)
aminotransferase</title>
			<polygon class=" (C7C45_21175)
aminotransferase" points="47,25 40,25 40,10 10,40 40,70 40,55 47,55" fill="rgb(255,255,255)" fill-opacity="1.0" stroke="rgb(0,0,0)" stroke-width="2"  />
			<g>
				<title>Aminotran_1_2 (PF00155)
"Aminotransferase class I and II"</title>
				<polygon class="PF00155" points="14,40 26,28 44,28 44,52 26,52" stroke-linejoin="round" width="32" height="24" fill="rgb(89,113,198)" stroke="rgb(71,90,158)" stroke-width="1" opacity="0.75" />
			</g>
		</g>
		<g>
			<title> (C7C45_21180)
NAD(P)-dependent oxidoreductase</title>
			<polygon class=" (C7C45_21180)
NAD(P)-dependent oxidoreductase" points="48,40 75,10 75,70" fill="rgb(255,255,255)" fill-opacity="1.0" stroke="rgb(0,0,0)" stroke-width="2"  />
			<g>
				<title>adh_short (PF00106)
"short chain dehydrogenase"</title>
				<polygon class="PF00106" points="54,38 63,28 73,28 73,52 63,52 54,42" stroke-linejoin="round" width="19" height="24" fill="rgb(182,219,73)" stroke="rgb(145,175,58)" stroke-width="1" opacity="0.75" />
			</g>
		</g>
		<g>
			<title>tsrT (C7C45_21185)
tryptophan 2-C-methyltransferase</title>
			<polygon class="tsrT (C7C45_21185)
tryptophan 2-C-methyltransferase" points="133,25 106,25 106,10 76,40 106,70 106,55 133,55" fill="rgb(255,255,255)" fill-opacity="1.0" stroke="rgb(0,0,0)" stroke-width="2"  />
			<g>
				<title>Radical_SAM (PF04055)
"Radical SAM superfamily"</title>
				<rect class="PF04055" x="93" y="28" stroke-linejoin="round" width="17" height="24" fill="rgb(149,56,222)" stroke="rgb(119,44,177)" stroke-width="1" opacity="0.75" />
			</g>
			<g>
				<title>B12-binding (PF02310)
"B12 binding domain"</title>
				<rect class="PF02310" x="119" y="28" stroke-linejoin="round" width="13" height="24" fill="rgb(145,190,60)" stroke="rgb(115,152,48)" stroke-width="1" opacity="0.75" />
			</g>
		</g>
		<g>
			<title> (C7C45_21190)
hypothetical protein</title>
			<polygon class=" (C7C45_21190)
hypothetical protein" points="190,25 165,25 165,10 135,40 165,70 165,55 190,55" fill="rgb(255,255,255)" fill-opacity="1.0" stroke="rgb(0,0,0)" stroke-width="2"  />
		</g>
		<g>
			<title> (C7C45_21195)
hypothetical protein</title>
			<polygon class=" (C7C45_21195)
hypothetical protein" points="246,25 221,25 221,10 191,40 221,70 221,55 246,55" fill="rgb(255,255,255)" fill-opacity="1.0" stroke="rgb(0,0,0)" stroke-width="2"  />
		</g>
		<g>
			<title> (C7C45_21200)
hypothetical protein</title>
			<polygon class=" (C7C45_21200)
hypothetical protein" points="282,25 276,25 276,10 246,40 276,70 276,55 282,55" fill="rgb(255,255,255)" fill-opacity="1.0" stroke="rgb(0,0,0)" stroke-width="2"  />
			<g>
				<title>Lant_dehydr_C (PF14028)
"Lantibiotic biosynthesis dehydratase C-term"</title>
				<polygon class="PF14028" points="250,40 262,28 281,28 281,52 262,52" stroke-linejoin="round" width="33" height="24" fill="rgb(107,223,113)" stroke="rgb(85,178,90)" stroke-width="1" opacity="0.75" />
			</g>
		</g>
		<g>
			<title> (C7C45_21205)
hypothetical protein</title>
			<polygon class=" (C7C45_21205)
hypothetical protein" points="319,25 313,25 313,10 283,40 313,70 313,55 319,55" fill="rgb(255,255,255)" fill-opacity="1.0" stroke="rgb(0,0,0)" stroke-width="2"  />
			<g>
				<title>Lant_dehydr_C (PF14028)
"Lantibiotic biosynthesis dehydratase C-term"</title>
				<polygon class="PF14028" points="287,40 299,28 315,28 315,52 299,52" stroke-linejoin="round" width="30" height="24" fill="rgb(107,223,113)" stroke="rgb(85,178,90)" stroke-width="1" opacity="0.75" />
			</g>
		</g>
		<g>
			<title> (C7C45_21210)
hypothetical protein</title>
			<polygon class=" (C7C45_21210)
hypothetical protein" points="431,25 346,25 346,10 316,40 346,70 346,55 431,55" fill="rgb(255,255,255)" fill-opacity="1.0" stroke="rgb(0,0,0)" stroke-width="2"  />
		</g>
		<g>
			<title> (C7C45_21215)
thiocillin/thiostrepton family thiazolyl peptide</title>
			<polygon class=" (C7C45_21215)
thiocillin/thiostrepton family thiazolyl peptide" points="438,40 442,10 442,70" fill="rgb(255,255,255)" fill-opacity="1.0" stroke="rgb(0,0,0)" stroke-width="2"  />
		</g>
		<g>
			<title> (C7C45_21220)
hypothetical protein</title>
			<polygon class=" (C7C45_21220)
hypothetical protein" points="459,10 477,40 459,70" fill="rgb(255,255,255)" fill-opacity="1.0" stroke="rgb(0,0,0)" stroke-width="2"  />
			<g>
				<title>DUF2867 (PF11066)
"Protein of unknown function (DUF2867)"</title>
				<polygon class="PF11066" points="461,28 466,28 474,40 466,52 461,52" stroke-linejoin="round" width="14" height="24" fill="rgb(97,120,227)" stroke="rgb(77,96,181)" stroke-width="1" opacity="0.75" />
			</g>
		</g>
		<g>
			<title> (C7C45_21225)
SAM-dependent methyltransferase</title>
			<polygon class=" (C7C45_21225)
SAM-dependent methyltransferase" points="480,10 509,40 480,70" fill="rgb(255,255,255)" fill-opacity="1.0" stroke="rgb(0,0,0)" stroke-width="2"  />
			<g>
				<title>LCM (PF04072)
"Leucine carboxyl methyltransferase"</title>
				<polygon class="PF04072" points="480,28 493,28 497,32 497,48 493,52 480,52" stroke-linejoin="round" width="17" height="24" fill="rgb(94,159,219)" stroke="rgb(75,127,175)" stroke-width="1" opacity="0.75" />
			</g>
		</g>
		<g>
			<title> (C7C45_21230)
acyl-CoA dehydrogenase</title>
			<polygon class=" (C7C45_21230)
acyl-CoA dehydrogenase" points="509,25 519,25 519,10 549,40 519,70 519,55 509,55" fill="rgb(255,255,255)" fill-opacity="1.0" stroke="rgb(0,0,0)" stroke-width="2"  />
			<g>
				<title>Acyl-CoA_dh_N (PF02771)
"Acyl-CoA dehydrogenase, N-terminal domain"</title>
				<rect class="PF02771" x="509" y="28" stroke-linejoin="round" width="11" height="24" fill="rgb(105,135,218)" stroke="rgb(84,108,174)" stroke-width="1" opacity="0.75" />
			</g>
			<g>
				<title>Acyl-CoA_dh_2 (PF08028)
"Acyl-CoA dehydrogenase, C-terminal domain"</title>
				<polygon class="PF08028" points="533,29 544,40 533,51" stroke-linejoin="round" width="12" height="24" fill="rgb(106,185,56)" stroke="rgb(84,148,44)" stroke-width="1" opacity="0.75" />
			</g>
		</g>
		<g>
			<title> (C7C45_21235)
ester cyclase</title>
			<polygon class=" (C7C45_21235)
ester cyclase" points="551,10 564,40 551,70" fill="rgb(255,255,255)" fill-opacity="1.0" stroke="rgb(0,0,0)" stroke-width="2"  />
			<g>
				<title>SnoaL (PF07366)
"SnoaL-like polyketide cyclase"</title>
				<polygon class="PF07366" points="551,28 555,28 561,40 555,52 551,52" stroke-linejoin="round" width="12" height="24" fill="rgb(206,89,111)" stroke="rgb(164,71,88)" stroke-width="1" opacity="0.75" />
			</g>
		</g>
		<g>
			<title> (C7C45_21240)
hypothetical protein</title>
			<polygon class=" (C7C45_21240)
hypothetical protein" points="566,25 587,25 587,10 617,40 587,70 587,55 566,55" fill="rgb(255,255,255)" fill-opacity="1.0" stroke="rgb(0,0,0)" stroke-width="2"  />
		</g>
		<g>
			<title> (C7C45_21245)
hypothetical protein</title>
			<polygon class=" (C7C45_21245)
hypothetical protein" points="617,25 651,25 651,10 681,40 651,70 651,55 617,55" fill="rgb(255,255,255)" fill-opacity="1.0" stroke="rgb(0,0,0)" stroke-width="2"  />
			<g>
				<title>YcaO (PF02624)
"YcaO cyclodehydratase, ATP-ad Mg2+-binding"</title>
				<polygon class="PF02624" points="643,28 665,28 676,39 676,41 665,52 643,52" stroke-linejoin="round" width="33" height="24" fill="rgb(76,84,185)" stroke="rgb(60,67,148)" stroke-width="1" opacity="0.75" />
			</g>
		</g>
		<g>
			<title> (C7C45_21250)
hypothetical protein</title>
			<polygon class=" (C7C45_21250)
hypothetical protein" points="694,25 737,25 737,10 767,40 737,70 737,55 694,55" fill="rgb(255,255,255)" fill-opacity="1.0" stroke="rgb(0,0,0)" stroke-width="2"  />
			<g>
				<title>AMP-binding (PF00501)
"AMP-binding enzyme"</title>
				<polygon class="PF00501" points="731,28 750,28 758,36 758,44 750,52 731,52" stroke-linejoin="round" width="27" height="24" fill="rgb(60,217,223)" stroke="rgb(48,173,178)" stroke-width="1" opacity="0.75" />
			</g>
		</g>
		<g>
			<title> (C7C45_21255)
hypothetical protein</title>
			<polygon class=" (C7C45_21255)
hypothetical protein" points="788,25 861,25 861,10 891,40 861,70 861,55 788,55" fill="rgb(255,255,255)" fill-opacity="1.0" stroke="rgb(0,0,0)" stroke-width="2"  />
			<g>
				<title>Lant_dehydr_N (PF04738)
"Lantibiotic dehydratase, N terminus"</title>
				<polygon class="PF04738" points="821,28 875,28 882,35 882,45 875,52 821,52" stroke-linejoin="round" width="61" height="24" fill="rgb(219,60,229)" stroke="rgb(175,47,183)" stroke-width="1" opacity="0.75" />
			</g>
		</g>
		<g>
			<title> (C7C45_21260)
hypothetical protein</title>
			<polygon class=" (C7C45_21260)
hypothetical protein" points="891,25 901,25 901,10 931,40 901,70 901,55 891,55" fill="rgb(255,255,255)" fill-opacity="1.0" stroke="rgb(0,0,0)" stroke-width="2"  />
			<g>
				<title>YcaO (PF02624)
"YcaO cyclodehydratase, ATP-ad Mg2+-binding"</title>
				<polygon class="PF02624" points="898,28 915,28 927,40 915,52 898,52" stroke-linejoin="round" width="31" height="24" fill="rgb(76,84,185)" stroke="rgb(60,67,148)" stroke-width="1" opacity="0.75" />
			</g>
		</g>
		<g>
			<title> (C7C45_21265)
hypothetical protein</title>
			<polygon class=" (C7C45_21265)
hypothetical protein" points="931,25 950,25 950,10 980,40 950,70 950,55 931,55" fill="rgb(255,255,255)" fill-opacity="1.0" stroke="rgb(0,0,0)" stroke-width="2"  />
			<g>
				<title>TfuA (PF07812)
"TfuA-like protein"</title>
				<rect class="PF07812" x="937" y="28" stroke-linejoin="round" width="11" height="24" fill="rgb(196,226,76)" stroke="rgb(156,180,60)" stroke-width="1" opacity="0.75" />
			</g>
		</g>
		<g>
			<title>asnB (C7C45_21270)
asparagine synthase (glutamine-hydrolyzing)</title>
			<polygon class="asnB (C7C45_21270)
asparagine synthase (glutamine-hydrolyzing)" points="980,25 1011,25 1011,10 1041,40 1011,70 1011,55 980,55" fill="rgb(255,255,255)" fill-opacity="1.0" stroke="rgb(0,0,0)" stroke-width="2"  />
			<g>
				<title>GATase_7 (PF13537)
"Glutamine amidotransferase domain"</title>
				<rect class="PF13537" x="984" y="28" stroke-linejoin="round" width="12" height="24" fill="rgb(200,63,57)" stroke="rgb(160,50,45)" stroke-width="1" opacity="0.75" />
			</g>
			<g>
				<title>Asn_synthase (PF00733)
"Asparagine synthase"</title>
				<polygon class="PF00733" points="1004,28 1025,28 1037,40 1025,52 1004,52" stroke-linejoin="round" width="36" height="24" fill="rgb(97,201,176)" stroke="rgb(77,160,140)" stroke-width="1" opacity="0.75" />
			</g>
		</g>
		<g>
			<title> (C7C45_21275)
lysophospholipase</title>
			<polygon class=" (C7C45_21275)
lysophospholipase" points="1044,10 1071,40 1044,70" fill="rgb(255,255,255)" fill-opacity="1.0" stroke="rgb(0,0,0)" stroke-width="2"  />
			<g>
				<title>Hydrolase_4 (PF12146)
"Serine aminopeptidase, S33"</title>
				<polygon class="PF12146" points="1046,28 1056,28 1067,40 1056,52 1046,52" stroke-linejoin="round" width="22" height="24" fill="rgb(140,98,205)" stroke="rgb(112,78,164)" stroke-width="1" opacity="0.75" />
			</g>
		</g>
	</g>
</svg>
