<svg version="1.1" baseProfile="full" xmlns="http://www.w3.org/2000/svg" width="415.6" height="80">
	<g>
		<line x1="10" y1="40.0" x2="405.6" y2="40.0" style="stroke:rgb(70,70,70); stroke-width:3 "/>
		<g>
			<title>mslR1
LuxR family transcriptional regulator</title>
			<polygon class="mslR1
LuxR family transcriptional regulator" points="10,40 33,10 33,70" fill="rgb(255,255,255)" fill-opacity="1.0" stroke="rgb(0,0,0)" stroke-width="2"  />
			<g>
				<title>GerE (PF00196)
"Bacterial regulatory proteins, luxR family"</title>
				<polygon class="PF00196" points="14,40 16,37 16,43" stroke-linejoin="round" width="5" height="24" fill="rgb(219,94,82)" stroke="rgb(175,75,65)" stroke-width="1" opacity="0.75" />
			</g>
		</g>
		<g>
			<title>mslG
sensor histidine kinase</title>
			<polygon class="mslG
sensor histidine kinase" points="38,25 45,25 45,10 75,40 45,70 45,55 38,55" fill="rgb(255,255,255)" fill-opacity="1.0" stroke="rgb(0,0,0)" stroke-width="2"  />
			<g>
				<title>HisKA_3 (PF07730)
"Histidine kinase"</title>
				<polygon class="PF07730" points="55,28 59,28 61,30 61,50 59,52 55,52" stroke-linejoin="round" width="6" height="24" fill="rgb(190,53,146)" stroke="rgb(152,42,116)" stroke-width="1" opacity="0.75" />
			</g>
		</g>
		<g>
			<title>mslD1
ABC transporter</title>
			<polygon class="mslD1
ABC transporter" points="80,25 80,25 80,10 110,40 80,70 80,55 80,55" fill="rgb(255,255,255)" fill-opacity="1.0" stroke="rgb(0,0,0)" stroke-width="2"  />
			<g>
				<title>ABC_tran (PF00005)
"ABC transporter"</title>
				<rect class="PF00005" x="81" y="28" stroke-linejoin="round" width="13" height="24" fill="rgb(129,201,63)" stroke="rgb(103,160,50)" stroke-width="1" opacity="0.75" />
			</g>
		</g>
		<g>
			<title>mslD2
ABC transporter</title>
			<polygon class="mslD2
ABC transporter" points="111,10 136,40 111,70" fill="rgb(255,255,255)" fill-opacity="1.0" stroke="rgb(0,0,0)" stroke-width="2"  />
			<g>
				<title>ABC2_membrane_4 (PF12730)
"ABC-2 family transporter protein"</title>
				<polygon class="PF12730" points="111,28 122,28 130,38 130,42 122,52 111,52" stroke-linejoin="round" width="19" height="24" fill="rgb(203,161,59)" stroke="rgb(162,128,47)" stroke-width="1" opacity="0.75" />
			</g>
		</g>
		<g>
			<title>mslA
MS-271 precursor peptide</title>
			<polygon class="mslA
MS-271 precursor peptide" points="140,10 144,40 140,70" fill="rgb(255,255,255)" fill-opacity="1.0" stroke="rgb(0,0,0)" stroke-width="2"  />
		</g>
		<g>
			<title>mslC
asparagine synthetase</title>
			<polygon class="mslC
asparagine synthetase" points="146,25 177,25 177,10 207,40 177,70 177,55 146,55" fill="rgb(255,255,255)" fill-opacity="1.0" stroke="rgb(0,0,0)" stroke-width="2"  />
			<g>
				<title>Asn_synthase (PF00733)
"Asparagine synthase"</title>
				<polygon class="PF00733" points="166,28 191,28 203,40 191,52 166,52" stroke-linejoin="round" width="38" height="24" fill="rgb(97,201,176)" stroke="rgb(77,160,140)" stroke-width="1" opacity="0.75" />
			</g>
		</g>
		<g>
			<title>mslB1
PqqD family protein</title>
			<polygon class="mslB1
PqqD family protein" points="208,10 216,40 208,70" fill="rgb(255,255,255)" fill-opacity="1.0" stroke="rgb(0,0,0)" stroke-width="2"  />
			<g>
				<title>PqqD (PF05402)
"Coenzyme PQQ synthesis protein D (PqqD)"</title>
				<polygon class="PF05402" points="209,28 209,28 213,40 209,52 209,52" stroke-linejoin="round" width="6" height="24" fill="rgb(124,62,188)" stroke="rgb(99,49,150)" stroke-width="1" opacity="0.75" />
			</g>
		</g>
		<g>
			<title>mslB2
cysteine protease</title>
			<polygon class="mslB2
cysteine protease" points="216,10 231,40 216,70" fill="rgb(255,255,255)" fill-opacity="1.0" stroke="rgb(0,0,0)" stroke-width="2"  />
			<g>
				<title>Transglut_core3 (PF13471)
"Transglutaminase-like superfamily"</title>
				<polygon class="PF13471" points="218,28 221,28 228,40 221,52 218,52" stroke-linejoin="round" width="11" height="24" fill="rgb(63,111,179)" stroke="rgb(50,88,143)" stroke-width="1" opacity="0.75" />
			</g>
		</g>
		<g>
			<title>mslD3
ABC transporter</title>
			<polygon class="mslD3
ABC transporter" points="232,25 234,25 234,10 264,40 234,70 234,55 232,55" fill="rgb(255,255,255)" fill-opacity="1.0" stroke="rgb(0,0,0)" stroke-width="2"  />
			<g>
				<title>ABC_tran (PF00005)
"ABC transporter"</title>
				<rect class="PF00005" x="233" y="28" stroke-linejoin="round" width="14" height="24" fill="rgb(129,201,63)" stroke="rgb(103,160,50)" stroke-width="1" opacity="0.75" />
			</g>
		</g>
		<g>
			<title>mslD4
ABC transporter</title>
			<polygon class="mslD4
ABC transporter" points="264,10 293,40 264,70" fill="rgb(255,255,255)" fill-opacity="1.0" stroke="rgb(0,0,0)" stroke-width="2"  />
			<g>
				<title>ABC2_membrane (PF01061)
"ABC-2 type transporter"</title>
				<polygon class="PF01061" points="266,28 276,28 287,39 287,41 276,52 266,52" stroke-linejoin="round" width="21" height="24" fill="rgb(139,217,106)" stroke="rgb(111,173,84)" stroke-width="1" opacity="0.75" />
			</g>
		</g>
		<g>
			<title>mslE
DoxX family protein</title>
			<polygon class="mslE
DoxX family protein" points="293,10 311,40 293,70" fill="rgb(255,255,255)" fill-opacity="1.0" stroke="rgb(0,0,0)" stroke-width="2"  />
			<g>
				<title>MauE (PF07291)
"Methylamine utilisation protein MauE"</title>
				<polygon class="PF07291" points="296,28 300,28 307,40 300,52 296,52" stroke-linejoin="round" width="13" height="24" fill="rgb(177,83,181)" stroke="rgb(141,66,144)" stroke-width="1" opacity="0.75" />
			</g>
		</g>
		<g>
			<title>mslF
protein disulfide isomerase</title>
			<polygon class="mslF
protein disulfide isomerase" points="311,10 335,40 311,70" fill="rgb(255,255,255)" fill-opacity="1.0" stroke="rgb(0,0,0)" stroke-width="2"  />
			<g>
				<title>Thioredoxin_4 (PF13462)
"Thioredoxin"</title>
				<polygon class="PF13462" points="318,28 322,28 331,40 322,52 318,52" stroke-linejoin="round" width="16" height="24" fill="rgb(46,180,48)" stroke="rgb(36,144,38)" stroke-width="1" opacity="0.75" />
			</g>
		</g>
		<g>
			<title>mslH
hypothetical protein</title>
			<polygon class="mslH
hypothetical protein" points="336,25 350,25 350,10 380,40 350,70 350,55 336,55" fill="rgb(255,255,255)" fill-opacity="1.0" stroke="rgb(0,0,0)" stroke-width="2"  />
			<g>
				<title>PGA_cap (PF09587)
"Bacterial capsule synthesis protein PGA_cap"</title>
				<polygon class="PF09587" points="336,28 363,28 367,32 367,48 363,52 336,52" stroke-linejoin="round" width="31" height="24" fill="rgb(179,65,131)" stroke="rgb(143,52,104)" stroke-width="1" opacity="0.75" />
			</g>
		</g>
		<g>
			<title>mslR2
LuxR family transcriptional regulator</title>
			<polygon class="mslR2
LuxR family transcriptional regulator" points="383,10 405,40 383,70" fill="rgb(255,255,255)" fill-opacity="1.0" stroke="rgb(0,0,0)" stroke-width="2"  />
			<g>
				<title>Response_reg (PF00072)
"Response regulator receiver domain"</title>
				<polygon class="PF00072" points="383,28 393,28 394,30 394,50 393,52 383,52" stroke-linejoin="round" width="11" height="24" fill="rgb(100,107,203)" stroke="rgb(80,85,162)" stroke-width="1" opacity="0.75" />
			</g>
			<g>
				<title>GerE (PF00196)
"Bacterial regulatory proteins, luxR family"</title>
				<polygon class="PF00196" points="398,35 401,40 398,45" stroke-linejoin="round" width="5" height="24" fill="rgb(219,94,82)" stroke="rgb(175,75,65)" stroke-width="1" opacity="0.75" />
			</g>
		</g>
	</g>
</svg>
