<svg version="1.1" baseProfile="full" xmlns="http://www.w3.org/2000/svg" width="478.4" height="80">
	<g>
		<line x1="10" y1="40.0" x2="468.4" y2="40.0" style="stroke:rgb(70,70,70); stroke-width:3 "/>
		<g>
			<title>tam (PFWH6_5247)
trans-aconitate 2-methyltransferase</title>
			<polygon class="tam (PFWH6_5247)
trans-aconitate 2-methyltransferase" points="10,40 35,10 35,70" fill="rgb(255,255,255)" fill-opacity="1.0" stroke="rgb(0,0,0)" stroke-width="2"  />
			<g>
				<title>Methyltransf_31 (PF13847)
"Methyltransferase domain"</title>
				<polygon class="PF13847" points="18,35 24,28 32,28 32,52 24,52 18,45" stroke-linejoin="round" width="14" height="24" fill="rgb(214,74,181)" stroke="rgb(171,59,144)" stroke-width="1" opacity="0.75" />
			</g>
		</g>
		<g>
			<title>ydcR (PFWH6_5248)
transcriptional regulator, GntR family</title>
			<polygon class="ydcR (PFWH6_5248)
transcriptional regulator, GntR family" points="84,25 66,25 66,10 36,40 66,70 66,55 84,55" fill="rgb(255,255,255)" fill-opacity="1.0" stroke="rgb(0,0,0)" stroke-width="2"  />
			<g>
				<title>Aminotran_1_2 (PF00155)
"Aminotransferase class I and II"</title>
				<polygon class="PF00155" points="40,40 52,28 73,28 73,52 52,52" stroke-linejoin="round" width="35" height="24" fill="rgb(89,113,198)" stroke="rgb(71,90,158)" stroke-width="1" opacity="0.75" />
			</g>
			<g>
				<title>GntR (PF00392)
"Bacterial regulatory proteins, gntR family"</title>
				<rect class="PF00392" x="77" y="28" stroke-linejoin="round" width="6" height="24" fill="rgb(160,85,194)" stroke="rgb(127,68,155)" stroke-width="1" opacity="0.75" />
			</g>
		</g>
		<g>
			<title> (PFWH6_5249)
hypothetical protein</title>
			<polygon class=" (PFWH6_5249)
hypothetical protein" points="95,25 98,25 98,10 128,40 98,70 98,55 95,55" fill="rgb(255,255,255)" fill-opacity="1.0" stroke="rgb(0,0,0)" stroke-width="2"  />
			<g>
				<title>Lipase_GDSL_2 (PF13472)
"GDSL-like Lipase/Acylhydrolase family"</title>
				<polygon class="PF13472" points="102,28 112,28 124,40 112,52 102,52" stroke-linejoin="round" width="25" height="24" fill="rgb(116,68,184)" stroke="rgb(92,54,147)" stroke-width="1" opacity="0.75" />
			</g>
		</g>
		<g>
			<title> (PFWH6_5250)
hypothetical protein</title>
			<polygon class=" (PFWH6_5250)
hypothetical protein" points="128,10 131,40 128,70" fill="rgb(255,255,255)" fill-opacity="1.0" stroke="rgb(0,0,0)" stroke-width="2"  />
		</g>
		<g>
			<title> (PFWH6_5251)
hypothetical protein</title>
			<polygon class=" (PFWH6_5251)
hypothetical protein" points="135,25 176,25 176,10 206,40 176,70 176,55 135,55" fill="rgb(255,255,255)" fill-opacity="1.0" stroke="rgb(0,0,0)" stroke-width="2"  />
			<g>
				<title>Haem_oxygenas_2 (PF14518)
"Iron-containing redox enzyme"</title>
				<polygon class="PF14518" points="182,28 190,28 200,38 200,42 190,52 182,52" stroke-linejoin="round" width="18" height="24" fill="rgb(71,185,105)" stroke="rgb(56,148,84)" stroke-width="1" opacity="0.75" />
			</g>
		</g>
		<g>
			<title>strB1 (PFWH6_5252)
Inosamine-phosphate amidinotransferase 1</title>
			<polygon class="strB1 (PFWH6_5252)
Inosamine-phosphate amidinotransferase 1" points="207,25 211,25 211,10 241,40 211,70 211,55 207,55" fill="rgb(255,255,255)" fill-opacity="1.0" stroke="rgb(0,0,0)" stroke-width="2"  />
		</g>
		<g>
			<title>yfiK (PFWH6_5253)
transporter, LysE family</title>
			<polygon class="yfiK (PFWH6_5253)
transporter, LysE family" points="242,10 262,40 242,70" fill="rgb(255,255,255)" fill-opacity="1.0" stroke="rgb(0,0,0)" stroke-width="2"  />
			<g>
				<title>LysE (PF01810)
"LysE type translocator"</title>
				<polygon class="PF01810" points="243,28 250,28 259,40 250,52 243,52" stroke-linejoin="round" width="18" height="24" fill="rgb(198,75,167)" stroke="rgb(158,60,133)" stroke-width="1" opacity="0.75" />
			</g>
		</g>
		<g>
			<title> (PFWH6_5254)
carbamoyl transferase of the NodU/CmcH family</title>
			<polygon class=" (PFWH6_5254)
carbamoyl transferase of the NodU/CmcH family" points="266,25 297,25 297,10 327,40 297,70 297,55 266,55" fill="rgb(255,255,255)" fill-opacity="1.0" stroke="rgb(0,0,0)" stroke-width="2"  />
			<g>
				<title>Carbam_trans_N (PF02543)
"Carbamoyltransferase N-terminus"</title>
				<rect class="PF02543" x="266" y="28" stroke-linejoin="round" width="34" height="24" fill="rgb(146,218,61)" stroke="rgb(116,174,48)" stroke-width="1" opacity="0.75" />
			</g>
			<g>
				<title>Carbam_trans_C (PF16861)
"Carbamoyltransferase C-terminus"</title>
				<polygon class="PF16861" points="306,28 311,28 323,40 311,52 306,52" stroke-linejoin="round" width="19" height="24" fill="rgb(183,87,154)" stroke="rgb(146,69,123)" stroke-width="1" opacity="0.75" />
			</g>
		</g>
		<g>
			<title> (PFWH6_5255)
hypothetical protein</title>
			<polygon class=" (PFWH6_5255)
hypothetical protein" points="328,10 332,40 328,70" fill="rgb(255,255,255)" fill-opacity="1.0" stroke="rgb(0,0,0)" stroke-width="2"  />
		</g>
		<g>
			<title> (PFWH6_5256)
hypothetical protein</title>
			<polygon class=" (PFWH6_5256)
hypothetical protein" points="334,25 348,25 348,10 378,40 348,70 348,55 334,55" fill="rgb(255,255,255)" fill-opacity="1.0" stroke="rgb(0,0,0)" stroke-width="2"  />
			<g>
				<title>Aminotran_3 (PF00202)
"Aminotransferase class-III"</title>
				<polygon class="PF00202" points="334,28 361,28 373,40 361,52 334,52" stroke-linejoin="round" width="42" height="24" fill="rgb(49,163,189)" stroke="rgb(39,130,151)" stroke-width="1" opacity="0.75" />
			</g>
		</g>
		<g>
			<title> (PFWH6_5257)
hypothetical protein</title>
			<polygon class=" (PFWH6_5257)
hypothetical protein" points="380,10 400,40 380,70" fill="rgb(255,255,255)" fill-opacity="1.0" stroke="rgb(0,0,0)" stroke-width="2"  />
			<g>
				<title>Formyl_trans_N (PF00551)
"Formyl transferase"</title>
				<polygon class="PF00551" points="385,28 388,28 394,37 394,43 388,52 385,52" stroke-linejoin="round" width="9" height="24" fill="rgb(111,183,66)" stroke="rgb(88,146,52)" stroke-width="1" opacity="0.75" />
			</g>
		</g>
		<g>
			<title>yahN (PFWH6_5258)
threonine efflux protein</title>
			<polygon class="yahN (PFWH6_5258)
threonine efflux protein" points="403,10 424,40 403,70" fill="rgb(255,255,255)" fill-opacity="1.0" stroke="rgb(0,0,0)" stroke-width="2"  />
			<g>
				<title>LysE (PF01810)
"LysE type translocator"</title>
				<polygon class="PF01810" points="404,28 412,28 420,40 412,52 404,52" stroke-linejoin="round" width="19" height="24" fill="rgb(198,75,167)" stroke="rgb(158,60,133)" stroke-width="1" opacity="0.75" />
			</g>
		</g>
		<g>
			<title>yfiK (PFWH6_5259)
transporter, LysE family</title>
			<polygon class="yfiK (PFWH6_5259)
transporter, LysE family" points="427,10 447,40 427,70" fill="rgb(255,255,255)" fill-opacity="1.0" stroke="rgb(0,0,0)" stroke-width="2"  />
			<g>
				<title>LysE (PF01810)
"LysE type translocator"</title>
				<polygon class="PF01810" points="428,28 435,28 443,40 435,52 428,52" stroke-linejoin="round" width="17" height="24" fill="rgb(198,75,167)" stroke="rgb(158,60,133)" stroke-width="1" opacity="0.75" />
			</g>
		</g>
		<g>
			<title>ssb (PFWH6_5260)
single-strand DNA-binding protein</title>
			<polygon class="ssb (PFWH6_5260)
single-strand DNA-binding protein" points="451,40 468,10 468,70" fill="rgb(255,255,255)" fill-opacity="1.0" stroke="rgb(0,0,0)" stroke-width="2"  />
			<g>
				<title>SSB (PF00436)
"Single-strand binding protein family"</title>
				<polygon class="PF00436" points="457,35 461,28 467,28 467,52 461,52 457,45" stroke-linejoin="round" width="10" height="24" fill="rgb(64,225,98)" stroke="rgb(51,180,78)" stroke-width="1" opacity="0.75" />
			</g>
		</g>
	</g>
</svg>
