<svg version="1.1" baseProfile="full" xmlns="http://www.w3.org/2000/svg" width="446.2" height="80">
	<g>
		<line x1="10" y1="40.0" x2="436.2" y2="40.0" style="stroke:rgb(70,70,70); stroke-width:3 "/>
		<g>
			<title> (BN844_0705)
RhlB, TDP-rhamnosyltransferase 1</title>
			<polygon class=" (BN844_0705)
RhlB, TDP-rhamnosyltransferase 1" points="10,25 23,25 23,10 53,40 23,70 23,55 10,55" fill="rgb(255,255,255)" fill-opacity="1.0" stroke="rgb(0,0,0)" stroke-width="2"  />
			<g>
				<title>Glyco_transf_28 (PF03033)
"Glycosyltransferase family 28 N-terminal domain"</title>
				<rect class="PF03033" x="12" y="28" stroke-linejoin="round" width="13" height="24" fill="rgb(157,218,79)" stroke="rgb(125,174,63)" stroke-width="1" opacity="0.75" />
			</g>
			<g>
				<title>UDPGT (PF00201)
"UDP-glucoronosyl and UDP-glucosyl transferase"</title>
				<polygon class="PF00201" points="34,28 37,28 49,40 37,52 34,52" stroke-linejoin="round" width="16" height="24" fill="rgb(225,150,107)" stroke="rgb(180,120,85)" stroke-width="1" opacity="0.75" />
			</g>
		</g>
		<g>
			<title> (BN844_0706)
NRPS</title>
			<polygon class=" (BN844_0706)
NRPS" points="56,25 268,25 268,10 298,40 268,70 268,55 56,55" fill="rgb(255,255,255)" fill-opacity="1.0" stroke="rgb(0,0,0)" stroke-width="2"  />
			<g>
				<title>Condensation (PF00668)
"Condensation domain"</title>
				<rect class="PF00668" x="56" y="28" stroke-linejoin="round" width="44" height="24" fill="rgb(224,184,98)" stroke="rgb(179,147,78)" stroke-width="1" opacity="0.75" />
			</g>
			<g>
				<title>AMP-binding (PF00501)
"AMP-binding enzyme"</title>
				<rect class="PF00501" x="102" y="28" stroke-linejoin="round" width="40" height="24" fill="rgb(60,217,223)" stroke="rgb(48,173,178)" stroke-width="1" opacity="0.75" />
			</g>
			<g>
				<title>AMP-binding_C (PF13193)
"AMP-binding enzyme C-terminal domain"</title>
				<rect class="PF13193" x="143" y="28" stroke-linejoin="round" width="7" height="24" fill="rgb(182,50,118)" stroke="rgb(145,39,94)" stroke-width="1" opacity="0.75" />
			</g>
			<g>
				<title>PP-binding (PF00550)
"Phosphopantetheine attachment site"</title>
				<rect class="PF00550" x="154" y="28" stroke-linejoin="round" width="6" height="24" fill="rgb(103,191,88)" stroke="rgb(82,152,70)" stroke-width="1" opacity="0.75" />
			</g>
			<g>
				<title>Condensation (PF00668)
"Condensation domain"</title>
				<rect class="PF00668" x="163" y="28" stroke-linejoin="round" width="42" height="24" fill="rgb(224,184,98)" stroke="rgb(179,147,78)" stroke-width="1" opacity="0.75" />
			</g>
			<g>
				<title>AMP-binding (PF00501)
"AMP-binding enzyme"</title>
				<rect class="PF00501" x="208" y="28" stroke-linejoin="round" width="41" height="24" fill="rgb(60,217,223)" stroke="rgb(48,173,178)" stroke-width="1" opacity="0.75" />
			</g>
			<g>
				<title>PP-binding (PF00550)
"Phosphopantetheine attachment site"</title>
				<rect class="PF00550" x="261" y="28" stroke-linejoin="round" width="6" height="24" fill="rgb(103,191,88)" stroke="rgb(82,152,70)" stroke-width="1" opacity="0.75" />
			</g>
			<g>
				<title>Thioesterase (PF00975)
"Thioesterase domain"</title>
				<polygon class="PF00975" points="270,28 281,28 293,40 281,52 270,52" stroke-linejoin="round" width="26" height="24" fill="rgb(207,80,138)" stroke="rgb(165,63,110)" stroke-width="1" opacity="0.75" />
			</g>
		</g>
		<g>
			<title> (BN844_0707)
FAD-dependent Baeyer—Villiger monooxygenase</title>
			<polygon class=" (BN844_0707)
FAD-dependent Baeyer—Villiger monooxygenase" points="302,25 310,25 310,10 340,40 310,70 310,55 302,55" fill="rgb(255,255,255)" fill-opacity="1.0" stroke="rgb(0,0,0)" stroke-width="2"  />
			<g>
				<title>FAD_binding_3 (PF01494)
"FAD binding domain"</title>
				<polygon class="PF01494" points="302,28 324,28 335,39 335,41 324,52 302,52" stroke-linejoin="round" width="33" height="24" fill="rgb(182,175,59)" stroke="rgb(145,140,47)" stroke-width="1" opacity="0.75" />
			</g>
		</g>
		<g>
			<title> (BN844_0708)
LuxR-type transcriptional regulator</title>
			<polygon class=" (BN844_0708)
LuxR-type transcriptional regulator" points="358,10 385,40 358,70" fill="rgb(255,255,255)" fill-opacity="1.0" stroke="rgb(0,0,0)" stroke-width="2"  />
			<g>
				<title>GerE (PF00196)
"Bacterial regulatory proteins, luxR family"</title>
				<polygon class="PF00196" points="379,38 381,40 379,42" stroke-linejoin="round" width="5" height="24" fill="rgb(219,94,82)" stroke="rgb(175,75,65)" stroke-width="1" opacity="0.75" />
			</g>
		</g>
		<g>
			<title> (BN844_0709)
RND efflux system</title>
			<polygon class=" (BN844_0709)
RND efflux system" points="388,25 405,25 405,10 435,40 405,70 405,55 388,55" fill="rgb(255,255,255)" fill-opacity="1.0" stroke="rgb(0,0,0)" stroke-width="2"  />
			<g>
				<title>OEP (PF02321)
"Outer membrane efflux protein"</title>
				<rect class="PF02321" x="394" y="28" stroke-linejoin="round" width="19" height="24" fill="rgb(205,57,201)" stroke="rgb(164,45,160)" stroke-width="1" opacity="0.75" />
			</g>
			<g>
				<title>OEP (PF02321)
"Outer membrane efflux protein"</title>
				<polygon class="PF02321" points="415,28 419,28 431,40 419,52 415,52" stroke-linejoin="round" width="18" height="24" fill="rgb(205,57,201)" stroke="rgb(164,45,160)" stroke-width="1" opacity="0.75" />
			</g>
		</g>
	</g>
</svg>
