<svg version="1.1" baseProfile="full" xmlns="http://www.w3.org/2000/svg" width="1173.3333333333333" height="80">
	<g>
		<line x1="10" y1="40.0" x2="1163.3333333333333" y2="40.0" style="stroke:rgb(70,70,70); stroke-width:3 "/>
		<g>
			<title>CYP705A12 (AT5G42580)
cytochrome P450, family 705, subfamily A, polypeptide 12</title>
			<polygon class="CYP705A12 (AT5G42580)
cytochrome P450, family 705, subfamily A, polypeptide 12" points="62,25 40,25 40,10 10,40 40,70 40,55 62,55" fill="rgb(255,255,255)" fill-opacity="1.0" stroke="rgb(0,0,0)" stroke-width="2"  />
			<g>
				<title>p450 (PF00067)
"Cytochrome P450"</title>
				<polygon class="PF00067" points="14,40 26,28 58,28 58,52 26,52 14,40" stroke-linejoin="round" width="44" height="24" fill="rgb(85,216,107)" stroke="rgb(68,172,85)" stroke-width="1" opacity="0.75" />
			</g>
		</g>
		<g>
			<title>CYP71A16 (AT5G42590)
cytochrome P450 71A16</title>
			<polygon class="CYP71A16 (AT5G42590)
cytochrome P450 71A16" points="342,25 292,25 292,10 262,40 292,70 292,55 342,55" fill="rgb(255,255,255)" fill-opacity="1.0" stroke="rgb(0,0,0)" stroke-width="2"  />
			<g>
				<title>p450 (PF00067)
"Cytochrome P450"</title>
				<rect class="PF00067" x="294" y="28" stroke-linejoin="round" width="44" height="24" fill="rgb(85,216,107)" stroke="rgb(68,172,85)" stroke-width="1" opacity="0.75" />
			</g>
		</g>
		<g>
			<title> (AT5G42591)
hypothetical protein</title>
			<polygon class=" (AT5G42591)
hypothetical protein" points="444,10 447,40 444,70" fill="rgb(255,255,255)" fill-opacity="1.0" stroke="rgb(0,0,0)" stroke-width="2"  />
		</g>
		<g>
			<title>MRN1 (AT5G42600)
marneral synthase</title>
			<polygon class="MRN1 (AT5G42600)
marneral synthase" points="1007,25 1124,25 1124,10 1154,40 1124,70 1124,55 1007,55" fill="rgb(255,255,255)" fill-opacity="1.0" stroke="rgb(0,0,0)" stroke-width="2"  />
			<g>
				<title>SQHop_cyclase_N (PF13249)
"Squalene-hopene cyclase N-terminal domain"</title>
				<rect class="PF13249" x="1016" y="28" stroke-linejoin="round" width="30" height="24" fill="rgb(88,190,89)" stroke="rgb(70,152,71)" stroke-width="1" opacity="0.75" />
			</g>
			<g>
				<title>SQHop_cyclase_C (PF13243)
"Squalene-hopene cyclase C-terminal domain"</title>
				<rect class="PF13243" x="1048" y="28" stroke-linejoin="round" width="33" height="24" fill="rgb(191,58,201)" stroke="rgb(152,46,160)" stroke-width="1" opacity="0.75" />
			</g>
		</g>
	</g>
</svg>
