<svg version="1.1" baseProfile="full" xmlns="http://www.w3.org/2000/svg" width="321.76666666666665" height="80">
	<g>
		<line x1="10" y1="40.0" x2="311.76666666666665" y2="40.0" style="stroke:rgb(70,70,70); stroke-width:3 "/>
		<g>
			<title> (Caul_5189)
TonB-dependent receptor</title>
			<polygon class=" (Caul_5189)
TonB-dependent receptor" points="10,25 78,25 78,10 108,40 78,70 78,55 10,55" fill="rgb(255,255,255)" fill-opacity="1.0" stroke="rgb(0,0,0)" stroke-width="2"  />
			<g>
				<title>Plug (PF07715)
"TonB-dependent Receptor Plug Domain"</title>
				<rect class="PF07715" x="23" y="28" stroke-linejoin="round" width="12" height="24" fill="rgb(99,133,214)" stroke="rgb(79,106,171)" stroke-width="1" opacity="0.75" />
			</g>
			<g>
				<title>TonB_dep_Rec (PF00593)
"TonB dependent receptor"</title>
				<polygon class="PF00593" points="52,28 91,28 103,40 91,52 52,52" stroke-linejoin="round" width="55" height="24" fill="rgb(171,200,51)" stroke="rgb(136,160,40)" stroke-width="1" opacity="0.75" />
			</g>
		</g>
		<g>
			<title> (Caul_5190)
Dipeptidyl aminopeptidase/acylaminoacyl-peptidase-like protein</title>
			<polygon class=" (Caul_5190)
Dipeptidyl aminopeptidase/acylaminoacyl-peptidase-like protein" points="108,25 146,25 146,10 176,40 146,70 146,55 108,55" fill="rgb(255,255,255)" fill-opacity="1.0" stroke="rgb(0,0,0)" stroke-width="2"  />
			<g>
				<title>Peptidase_S9 (PF00326)
"Prolyl oligopeptidase family"</title>
				<polygon class="PF00326" points="154,28 159,28 171,40 171,40 159,52 154,52" stroke-linejoin="round" width="17" height="24" fill="rgb(77,97,209)" stroke="rgb(61,77,167)" stroke-width="1" opacity="0.75" />
			</g>
		</g>
		<g>
			<title> (Caul_5191)
asparagine synthase</title>
			<polygon class=" (Caul_5191)
asparagine synthase" points="232,25 204,25 204,10 174,40 204,70 204,55 232,55" fill="rgb(255,255,255)" fill-opacity="1.0" stroke="rgb(0,0,0)" stroke-width="2"  />
			<g>
				<title>Asn_synthase (PF00733)
"Asparagine synthase"</title>
				<polygon class="PF00733" points="178,40 190,28 209,28 209,52 190,52" stroke-linejoin="round" width="35" height="24" fill="rgb(97,201,176)" stroke="rgb(77,160,140)" stroke-width="1" opacity="0.75" />
			</g>
		</g>
		<g>
			<title> (Caul_5192)
conserved hypothetical protein</title>
			<polygon class=" (Caul_5192)
conserved hypothetical protein" points="232,40 254,10 254,70" fill="rgb(255,255,255)" fill-opacity="1.0" stroke="rgb(0,0,0)" stroke-width="2"  />
			<g>
				<title>Transglut_core3 (PF13471)
"Transglutaminase-like superfamily"</title>
				<polygon class="PF13471" points="236,40 243,30 243,50" stroke-linejoin="round" width="11" height="24" fill="rgb(63,111,179)" stroke="rgb(50,88,143)" stroke-width="1" opacity="0.75" />
			</g>
		</g>
		<g>
			<title> (Caul_5193)
hypothetical protein</title>
			<polygon class=" (Caul_5193)
hypothetical protein" points="262,40 266,10 266,70" fill="rgb(255,255,255)" fill-opacity="1.0" stroke="rgb(0,0,0)" stroke-width="2"  />
		</g>
		<g>
			<title> (Caul_5194)
hypothetical protein</title>
			<polygon class=" (Caul_5194)
hypothetical protein" points="269,40 273,10 273,70" fill="rgb(255,255,255)" fill-opacity="1.0" stroke="rgb(0,0,0)" stroke-width="2"  />
		</g>
		<g>
			<title> (Caul_5195)
transcriptional regulator, GntR family</title>
			<polygon class=" (Caul_5195)
transcriptional regulator, GntR family" points="277,40 302,10 302,70" fill="rgb(255,255,255)" fill-opacity="1.0" stroke="rgb(0,0,0)" stroke-width="2"  />
			<g>
				<title>GntR (PF00392)
"Bacterial regulatory proteins, gntR family"</title>
				<polygon class="PF00392" points="290,29 291,28 296,28 296,52 291,52 290,51" stroke-linejoin="round" width="6" height="24" fill="rgb(160,85,194)" stroke="rgb(127,68,155)" stroke-width="1" opacity="0.75" />
			</g>
		</g>
		<g>
			<title> (Caul_5196)
hypothetical protein</title>
			<polygon class=" (Caul_5196)
hypothetical protein" points="304,40 311,10 311,70" fill="rgb(255,255,255)" fill-opacity="1.0" stroke="rgb(0,0,0)" stroke-width="2"  />
			<g>
				<title>DUF5961 (PF19386)
"Family of unknown function (DUF5961)"</title>
				<polygon class="PF19386" points="307,40 310,28 311,28 311,52 310,52" stroke-linejoin="round" width="7" height="24" fill="rgb(181,52,173)" stroke="rgb(144,41,138)" stroke-width="1" opacity="0.75" />
			</g>
		</g>
	</g>
</svg>
