<svg version="1.1" baseProfile="full" xmlns="http://www.w3.org/2000/svg" width="410.6666666666667" height="80">
	<g>
		<line x1="10" y1="40.0" x2="400.6666666666667" y2="40.0" style="stroke:rgb(70,70,70); stroke-width:3 "/>
		<g>
			<title>ind0
Ind0</title>
			<polygon class="ind0
Ind0" points="70,25 68,25 68,10 38,40 68,70 68,55 70,55" fill="rgb(255,255,255)" fill-opacity="1.0" stroke="rgb(0,0,0)" stroke-width="2"  />
			<g>
				<title>tRNA-synt_1b (PF00579)
"tRNA synthetases class I (W and Y)"</title>
				<polygon class="PF00579" points="42,40 54,28 69,28 69,52 54,52 42,40" stroke-linejoin="round" width="27" height="24" fill="rgb(82,63,204)" stroke="rgb(65,50,163)" stroke-width="1" opacity="0.75" />
			</g>
		</g>
		<g>
			<title>ind1
Ind1</title>
			<polygon class="ind1
Ind1" points="93,25 96,25 96,10 126,40 96,70 96,55 93,55" fill="rgb(255,255,255)" fill-opacity="1.0" stroke="rgb(0,0,0)" stroke-width="2"  />
			<g>
				<title>Methyltransf_25 (PF13649)
"Methyltransferase domain"</title>
				<polygon class="PF13649" points="108,28 109,28 117,36 117,44 109,52 108,52" stroke-linejoin="round" width="9" height="24" fill="rgb(227,135,74)" stroke="rgb(181,108,59)" stroke-width="1" opacity="0.75" />
			</g>
		</g>
		<g>
			<title>ind2
Ind2</title>
			<polygon class="ind2
Ind2" points="125,25 152,25 152,10 182,40 152,70 152,55 125,55" fill="rgb(255,255,255)" fill-opacity="1.0" stroke="rgb(0,0,0)" stroke-width="2"  />
		</g>
		<g>
			<title>ind3
Ind3</title>
			<polygon class="ind3
Ind3" points="182,25 197,25 197,10 227,40 197,70 197,55 182,55" fill="rgb(255,255,255)" fill-opacity="1.0" stroke="rgb(0,0,0)" stroke-width="2"  />
		</g>
		<g>
			<title>ind4
Ind4</title>
			<polygon class="ind4
Ind4" points="230,25 238,25 238,10 268,40 238,70 238,55 230,55" fill="rgb(255,255,255)" fill-opacity="1.0" stroke="rgb(0,0,0)" stroke-width="2"  />
			<g>
				<title>Aminotran_1_2 (PF00155)
"Aminotransferase class I and II"</title>
				<polygon class="PF00155" points="231,28 252,28 264,40 252,52 231,52" stroke-linejoin="round" width="35" height="24" fill="rgb(89,113,198)" stroke="rgb(71,90,158)" stroke-width="1" opacity="0.75" />
			</g>
		</g>
		<g>
			<title>ind5
Ind5</title>
			<polygon class="ind5
Ind5" points="268,25 270,25 270,10 300,40 270,70 270,55 268,55" fill="rgb(255,255,255)" fill-opacity="1.0" stroke="rgb(0,0,0)" stroke-width="2"  />
			<g>
				<title>2-Hacid_dh_C (PF02826)
"D-isomer specific 2-hydroxyacid dehydrogenase, NAD binding domain"</title>
				<polygon class="PF02826" points="279,28 283,28 295,40 295,40 283,52 279,52" stroke-linejoin="round" width="16" height="24" fill="rgb(192,197,93)" stroke="rgb(153,157,74)" stroke-width="1" opacity="0.75" />
			</g>
		</g>
		<g>
			<title>ind6
Ind6</title>
			<polygon class="ind6
Ind6" points="299,10 322,40 299,70" fill="rgb(255,255,255)" fill-opacity="1.0" stroke="rgb(0,0,0)" stroke-width="2"  />
		</g>
		<g>
			<title>ind7
Ind7</title>
			<polygon class="ind7
Ind7" points="321,10 344,40 321,70" fill="rgb(255,255,255)" fill-opacity="1.0" stroke="rgb(0,0,0)" stroke-width="2"  />
			<g>
				<title>Methyltransf_25 (PF13649)
"Methyltransferase domain"</title>
				<polygon class="PF13649" points="325,28 331,28 334,32 334,48 331,52 325,52" stroke-linejoin="round" width="9" height="24" fill="rgb(227,135,74)" stroke="rgb(181,108,59)" stroke-width="1" opacity="0.75" />
			</g>
		</g>
		<g>
			<title>ind8
Ind8</title>
			<polygon class="ind8
Ind8" points="347,25 353,25 353,10 383,40 353,70 353,55 347,55" fill="rgb(255,255,255)" fill-opacity="1.0" stroke="rgb(0,0,0)" stroke-width="2"  />
			<g>
				<title>Aminotran_1_2 (PF00155)
"Aminotransferase class I and II"</title>
				<polygon class="PF00155" points="350,28 366,28 378,40 366,52 350,52" stroke-linejoin="round" width="32" height="24" fill="rgb(89,113,198)" stroke="rgb(71,90,158)" stroke-width="1" opacity="0.75" />
			</g>
		</g>
	</g>
</svg>
