<svg version="1.1" baseProfile="full" xmlns="http://www.w3.org/2000/svg" width="2353.0" height="80">
	<g>
		<line x1="10" y1="40.0" x2="2343.0" y2="40.0" style="stroke:rgb(70,70,70); stroke-width:3 "/>
		<g>
			<title> (FGSG_00036)
hypothetical protein</title>
			<polygon class=" (FGSG_00036)
hypothetical protein" points="186,25 48,25 48,10 18,40 48,70 48,55 186,55" fill="rgb(255,255,255)" fill-opacity="1.0" stroke="rgb(0,0,0)" stroke-width="2"  />
			<g>
				<title>Ketoacyl-synt_C (PF02801)
"Beta-ketoacyl synthase, C-terminal domain"</title>
				<rect class="PF02801" x="38" y="28" stroke-linejoin="round" width="10" height="24" fill="rgb(215,78,102)" stroke="rgb(172,62,81)" stroke-width="1" opacity="0.75" />
			</g>
			<g>
				<title>ketoacyl-synt (PF00109)
"Beta-ketoacyl synthase, N-terminal domain"</title>
				<rect class="PF00109" x="59" y="28" stroke-linejoin="round" width="24" height="24" fill="rgb(112,116,228)" stroke="rgb(89,92,182)" stroke-width="1" opacity="0.75" />
			</g>
			<g>
				<title>FAS_I_H (PF18314)
"Fatty acid synthase type I helical domain"</title>
				<rect class="PF18314" x="137" y="28" stroke-linejoin="round" width="14" height="24" fill="rgb(185,90,146)" stroke="rgb(148,72,116)" stroke-width="1" opacity="0.75" />
			</g>
			<g>
				<title>Fas_alpha_ACP (PF18325)
"Fatty acid synthase subunit alpha Acyl carrier domain"</title>
				<rect class="PF18325" x="155" y="28" stroke-linejoin="round" width="16" height="24" fill="rgb(186,70,103)" stroke="rgb(148,56,82)" stroke-width="1" opacity="0.75" />
			</g>
		</g>
		<g>
			<title> (FGSG_11655)
hypothetical protein</title>
			<polygon class=" (FGSG_11655)
hypothetical protein" points="213,25 233,25 233,10 263,40 233,70 233,55 213,55" fill="rgb(255,255,255)" fill-opacity="1.0" stroke="rgb(0,0,0)" stroke-width="2"  />
			<g>
				<title>p450 (PF00067)
"Cytochrome P450"</title>
				<polygon class="PF00067" points="213,28 247,28 249,30 249,50 247,52 213,52" stroke-linejoin="round" width="36" height="24" fill="rgb(85,216,107)" stroke="rgb(68,172,85)" stroke-width="1" opacity="0.75" />
			</g>
		</g>
		<g>
			<title> (FGSG_11656)
hypothetical protein</title>
			<polygon class=" (FGSG_11656)
hypothetical protein" points="286,25 470,25 470,10 500,40 470,70 470,55 286,55" fill="rgb(255,255,255)" fill-opacity="1.0" stroke="rgb(0,0,0)" stroke-width="2"  />
			<g>
				<title>FAS_N (PF17828)
"N-terminal domain in fatty acid synthase subunit beta"</title>
				<rect class="PF17828" x="289" y="28" stroke-linejoin="round" width="12" height="24" fill="rgb(105,228,171)" stroke="rgb(84,182,136)" stroke-width="1" opacity="0.75" />
			</g>
			<g>
				<title>SAT (PF16073)
"Starter unit:ACP transacylase in aflatoxin biosynthesis"</title>
				<rect class="PF16073" x="304" y="28" stroke-linejoin="round" width="25" height="24" fill="rgb(77,115,183)" stroke="rgb(61,91,146)" stroke-width="1" opacity="0.75" />
			</g>
			<g>
				<title>DUF1729 (PF08354)
"Domain of unknown function (DUF1729)"</title>
				<rect class="PF08354" x="360" y="28" stroke-linejoin="round" width="34" height="24" fill="rgb(199,58,132)" stroke="rgb(159,46,105)" stroke-width="1" opacity="0.75" />
			</g>
			<g>
				<title>FAS_meander (PF17951)
"Fatty acid synthase meander beta sheet domain"</title>
				<rect class="PF17951" x="399" y="28" stroke-linejoin="round" width="14" height="24" fill="rgb(75,195,64)" stroke="rgb(60,156,51)" stroke-width="1" opacity="0.75" />
			</g>
			<g>
				<title>MaoC_dehydrat_N (PF13452)
"N-terminal half of MaoC dehydratase"</title>
				<rect class="PF13452" x="415" y="28" stroke-linejoin="round" width="12" height="24" fill="rgb(215,186,64)" stroke="rgb(172,148,51)" stroke-width="1" opacity="0.75" />
			</g>
			<g>
				<title>MaoC_dehydratas (PF01575)
"MaoC like domain"</title>
				<rect class="PF01575" x="440" y="28" stroke-linejoin="round" width="11" height="24" fill="rgb(218,129,86)" stroke="rgb(174,103,68)" stroke-width="1" opacity="0.75" />
			</g>
			<g>
				<title>Acyl_transf_1 (PF00698)
"Acyl transferase domain"</title>
				<polygon class="PF00698" points="453,28 484,28 489,33 489,47 484,52 453,52" stroke-linejoin="round" width="36" height="24" fill="rgb(59,176,209)" stroke="rgb(47,140,167)" stroke-width="1" opacity="0.75" />
			</g>
		</g>
		<g>
			<title> (FGSG_00038)
hypothetical protein</title>
			<polygon class=" (FGSG_00038)
hypothetical protein" points="506,40 528,10 528,70" fill="rgb(255,255,255)" fill-opacity="1.0" stroke="rgb(0,0,0)" stroke-width="2"  />
		</g>
		<g>
			<title> (FGSG_00039)
hypothetical protein</title>
			<polygon class=" (FGSG_00039)
hypothetical protein" points="562,25 565,25 565,10 595,40 565,70 565,55 562,55" fill="rgb(255,255,255)" fill-opacity="1.0" stroke="rgb(0,0,0)" stroke-width="2"  />
		</g>
		<g>
			<title> (FGSG_00040)
hypothetical protein</title>
			<polygon class=" (FGSG_00040)
hypothetical protein" points="682,25 634,25 634,10 604,40 634,70 634,55 682,55" fill="rgb(255,255,255)" fill-opacity="1.0" stroke="rgb(0,0,0)" stroke-width="2"  />
			<g>
				<title>SET (PF00856)
"SET domain"</title>
				<rect class="PF00856" x="629" y="28" stroke-linejoin="round" width="18" height="24" fill="rgb(69,182,89)" stroke="rgb(55,145,71)" stroke-width="1" opacity="0.75" />
			</g>
		</g>
		<g>
			<title> (FGSG_11657)
hypothetical protein</title>
			<polygon class=" (FGSG_11657)
hypothetical protein" points="860,25 787,25 787,10 757,40 787,70 787,55 860,55" fill="rgb(255,255,255)" fill-opacity="1.0" stroke="rgb(0,0,0)" stroke-width="2"  />
			<g>
				<title>DUF1752 (PF08550)
"Fungal protein of unknown function (DUF1752)"</title>
				<rect class="PF08550" x="809" y="28" stroke-linejoin="round" width="2" height="24" fill="rgb(213,63,75)" stroke="rgb(170,50,60)" stroke-width="1" opacity="0.75" />
			</g>
		</g>
		<g>
			<title> (FGSG_11658)
hypothetical protein</title>
			<polygon class=" (FGSG_11658)
hypothetical protein" points="909,25 906,25 906,10 876,40 906,70 906,55 909,55" fill="rgb(255,255,255)" fill-opacity="1.0" stroke="rgb(0,0,0)" stroke-width="2"  />
			<g>
				<title>HLH (PF00010)
"Helix-loop-helix DNA-binding domain"</title>
				<polygon class="PF00010" points="880,40 887,33 887,47" stroke-linejoin="round" width="8" height="24" fill="rgb(222,56,154)" stroke="rgb(177,44,123)" stroke-width="1" opacity="0.75" />
			</g>
		</g>
		<g>
			<title> (FGSG_11659)
hypothetical protein</title>
			<polygon class=" (FGSG_11659)
hypothetical protein" points="1524,25 1106,25 1106,10 1076,40 1106,70 1106,55 1524,55" fill="rgb(255,255,255)" fill-opacity="1.0" stroke="rgb(0,0,0)" stroke-width="2"  />
			<g>
				<title>AMP-binding (PF00501)
"AMP-binding enzyme"</title>
				<polygon class="PF00501" points="1080,40 1091,29 1091,51" stroke-linejoin="round" width="13" height="24" fill="rgb(60,217,223)" stroke="rgb(48,173,178)" stroke-width="1" opacity="0.75" />
			</g>
			<g>
				<title>Condensation (PF00668)
"Condensation domain"</title>
				<rect class="PF00668" x="1093" y="28" stroke-linejoin="round" width="41" height="24" fill="rgb(224,184,98)" stroke="rgb(179,147,78)" stroke-width="1" opacity="0.75" />
			</g>
			<g>
				<title>PP-binding (PF00550)
"Phosphopantetheine attachment site"</title>
				<rect class="PF00550" x="1139" y="28" stroke-linejoin="round" width="6" height="24" fill="rgb(103,191,88)" stroke="rgb(82,152,70)" stroke-width="1" opacity="0.75" />
			</g>
			<g>
				<title>AMP-binding (PF00501)
"AMP-binding enzyme"</title>
				<rect class="PF00501" x="1160" y="28" stroke-linejoin="round" width="39" height="24" fill="rgb(60,217,223)" stroke="rgb(48,173,178)" stroke-width="1" opacity="0.75" />
			</g>
			<g>
				<title>Condensation (PF00668)
"Condensation domain"</title>
				<rect class="PF00668" x="1202" y="28" stroke-linejoin="round" width="43" height="24" fill="rgb(224,184,98)" stroke="rgb(179,147,78)" stroke-width="1" opacity="0.75" />
			</g>
			<g>
				<title>PP-binding (PF00550)
"Phosphopantetheine attachment site"</title>
				<rect class="PF00550" x="1248" y="28" stroke-linejoin="round" width="6" height="24" fill="rgb(103,191,88)" stroke="rgb(82,152,70)" stroke-width="1" opacity="0.75" />
			</g>
			<g>
				<title>AMP-binding (PF00501)
"AMP-binding enzyme"</title>
				<rect class="PF00501" x="1269" y="28" stroke-linejoin="round" width="39" height="24" fill="rgb(60,217,223)" stroke="rgb(48,173,178)" stroke-width="1" opacity="0.75" />
			</g>
			<g>
				<title>Condensation (PF00668)
"Condensation domain"</title>
				<rect class="PF00668" x="1310" y="28" stroke-linejoin="round" width="41" height="24" fill="rgb(224,184,98)" stroke="rgb(179,147,78)" stroke-width="1" opacity="0.75" />
			</g>
			<g>
				<title>PP-binding (PF00550)
"Phosphopantetheine attachment site"</title>
				<rect class="PF00550" x="1356" y="28" stroke-linejoin="round" width="6" height="24" fill="rgb(103,191,88)" stroke="rgb(82,152,70)" stroke-width="1" opacity="0.75" />
			</g>
			<g>
				<title>AMP-binding (PF00501)
"AMP-binding enzyme"</title>
				<rect class="PF00501" x="1377" y="28" stroke-linejoin="round" width="40" height="24" fill="rgb(60,217,223)" stroke="rgb(48,173,178)" stroke-width="1" opacity="0.75" />
			</g>
			<g>
				<title>Condensation (PF00668)
"Condensation domain"</title>
				<rect class="PF00668" x="1419" y="28" stroke-linejoin="round" width="41" height="24" fill="rgb(224,184,98)" stroke="rgb(179,147,78)" stroke-width="1" opacity="0.75" />
			</g>
			<g>
				<title>PP-binding (PF00550)
"Phosphopantetheine attachment site"</title>
				<rect class="PF00550" x="1465" y="28" stroke-linejoin="round" width="6" height="24" fill="rgb(103,191,88)" stroke="rgb(82,152,70)" stroke-width="1" opacity="0.75" />
			</g>
			<g>
				<title>AMP-binding (PF00501)
"AMP-binding enzyme"</title>
				<rect class="PF00501" x="1486" y="28" stroke-linejoin="round" width="37" height="24" fill="rgb(60,217,223)" stroke="rgb(48,173,178)" stroke-width="1" opacity="0.75" />
			</g>
		</g>
		<g>
			<title> (FGSG_11660)
hypothetical protein</title>
			<polygon class=" (FGSG_11660)
hypothetical protein" points="1761,25 1696,25 1696,10 1666,40 1696,70 1696,55 1761,55" fill="rgb(255,255,255)" fill-opacity="1.0" stroke="rgb(0,0,0)" stroke-width="2"  />
			<g>
				<title>PP-binding (PF00550)
"Phosphopantetheine attachment site"</title>
				<rect class="PF00550" x="1684" y="28" stroke-linejoin="round" width="6" height="24" fill="rgb(103,191,88)" stroke="rgb(82,152,70)" stroke-width="1" opacity="0.75" />
			</g>
			<g>
				<title>AMP-binding (PF00501)
"AMP-binding enzyme"</title>
				<rect class="PF00501" x="1705" y="28" stroke-linejoin="round" width="39" height="24" fill="rgb(60,217,223)" stroke="rgb(48,173,178)" stroke-width="1" opacity="0.75" />
			</g>
		</g>
		<g>
			<title> (FGSG_00043)
hypothetical protein</title>
			<polygon class=" (FGSG_00043)
hypothetical protein" points="1832,25 1828,25 1828,10 1798,40 1828,70 1828,55 1832,55" fill="rgb(255,255,255)" fill-opacity="1.0" stroke="rgb(0,0,0)" stroke-width="2"  />
			<g>
				<title>Pyr_redox_2 (PF07992)
"Pyridine nucleotide-disulphide oxidoreductase"</title>
				<polygon class="PF07992" points="1802,40 1814,28 1831,28 1831,52 1814,52" stroke-linejoin="round" width="33" height="24" fill="rgb(83,223,167)" stroke="rgb(66,178,133)" stroke-width="1" opacity="0.75" />
			</g>
		</g>
		<g>
			<title> (FGSG_00044)
hypothetical protein</title>
			<polygon class=" (FGSG_00044)
hypothetical protein" points="1840,25 1842,25 1842,10 1872,40 1842,70 1842,55 1840,55" fill="rgb(255,255,255)" fill-opacity="1.0" stroke="rgb(0,0,0)" stroke-width="2"  />
			<g>
				<title>Abhydrolase_6 (PF12697)
"Alpha/beta hydrolase family"</title>
				<polygon class="PF12697" points="1844,28 1856,28 1868,40 1856,52 1844,52" stroke-linejoin="round" width="26" height="24" fill="rgb(113,71,219)" stroke="rgb(90,56,175)" stroke-width="1" opacity="0.75" />
			</g>
		</g>
		<g>
			<title> (FGSG_00045)
hypothetical protein</title>
			<polygon class=" (FGSG_00045)
hypothetical protein" points="1904,40 1932,10 1932,70" fill="rgb(255,255,255)" fill-opacity="1.0" stroke="rgb(0,0,0)" stroke-width="2"  />
			<g>
				<title>Abhydrolase_6 (PF12697)
"Alpha/beta hydrolase family"</title>
				<polygon class="PF12697" points="1908,40 1919,28 1926,28 1926,52 1919,52" stroke-linejoin="round" width="21" height="24" fill="rgb(113,71,219)" stroke="rgb(90,56,175)" stroke-width="1" opacity="0.75" />
			</g>
		</g>
		<g>
			<title> (FGSG_00046)
hypothetical protein</title>
			<polygon class=" (FGSG_00046)
hypothetical protein" points="1948,25 2086,25 2086,10 2116,40 2086,70 2086,55 1948,55" fill="rgb(255,255,255)" fill-opacity="1.0" stroke="rgb(0,0,0)" stroke-width="2"  />
			<g>
				<title>ABC_membrane (PF00664)
"ABC transporter transmembrane region"</title>
				<rect class="PF00664" x="1973" y="28" stroke-linejoin="round" width="27" height="24" fill="rgb(149,226,73)" stroke="rgb(119,180,58)" stroke-width="1" opacity="0.75" />
			</g>
			<g>
				<title>ABC_tran (PF00005)
"ABC transporter"</title>
				<rect class="PF00005" x="2009" y="28" stroke-linejoin="round" width="13" height="24" fill="rgb(129,201,63)" stroke="rgb(103,160,50)" stroke-width="1" opacity="0.75" />
			</g>
			<g>
				<title>ABC_membrane (PF00664)
"ABC transporter transmembrane region"</title>
				<rect class="PF00664" x="2044" y="28" stroke-linejoin="round" width="19" height="24" fill="rgb(149,226,73)" stroke="rgb(119,180,58)" stroke-width="1" opacity="0.75" />
			</g>
			<g>
				<title>ABC_tran (PF00005)
"ABC transporter"</title>
				<rect class="PF00005" x="2070" y="28" stroke-linejoin="round" width="14" height="24" fill="rgb(129,201,63)" stroke="rgb(103,160,50)" stroke-width="1" opacity="0.75" />
			</g>
		</g>
		<g>
			<title> (FGSG_00047)
hypothetical protein</title>
			<polygon class=" (FGSG_00047)
hypothetical protein" points="2138,25 2163,25 2163,10 2193,40 2163,70 2163,55 2138,55" fill="rgb(255,255,255)" fill-opacity="1.0" stroke="rgb(0,0,0)" stroke-width="2"  />
			<g>
				<title>Thioesterase (PF00975)
"Thioesterase domain"</title>
				<rect class="PF00975" x="2140" y="28" stroke-linejoin="round" width="13" height="24" fill="rgb(207,80,138)" stroke="rgb(165,63,110)" stroke-width="1" opacity="0.75" />
			</g>
		</g>
		<g>
			<title> (FGSG_00048)
hypothetical protein</title>
			<polygon class=" (FGSG_00048)
hypothetical protein" points="2217,25 2229,25 2229,10 2259,40 2229,70 2229,55 2217,55" fill="rgb(255,255,255)" fill-opacity="1.0" stroke="rgb(0,0,0)" stroke-width="2"  />
			<g>
				<title>DIOX_N (PF14226)
"non-haem dioxygenase in morphine synthesis N-terminal"</title>
				<rect class="PF14226" x="2217" y="28" stroke-linejoin="round" width="12" height="24" fill="rgb(122,206,79)" stroke="rgb(97,164,63)" stroke-width="1" opacity="0.75" />
			</g>
			<g>
				<title>2OG-FeII_Oxy (PF03171)
"2OG-Fe(II) oxygenase superfamily"</title>
				<polygon class="PF03171" points="2235,28 2242,28 2246,32 2246,48 2242,52 2235,52" stroke-linejoin="round" width="11" height="24" fill="rgb(184,68,180)" stroke="rgb(147,54,144)" stroke-width="1" opacity="0.75" />
			</g>
		</g>
		<g>
			<title> (FGSG_00049)
hypothetical protein</title>
			<polygon class=" (FGSG_00049)
hypothetical protein" points="2279,25 2299,25 2299,10 2329,40 2299,70 2299,55 2279,55" fill="rgb(255,255,255)" fill-opacity="1.0" stroke="rgb(0,0,0)" stroke-width="2"  />
			<g>
				<title>Aminotran_4 (PF01063)
"Amino-transferase class IV"</title>
				<rect class="PF01063" x="2285" y="28" stroke-linejoin="round" width="23" height="24" fill="rgb(52,144,188)" stroke="rgb(41,115,150)" stroke-width="1" opacity="0.75" />
			</g>
		</g>
	</g>
</svg>
