<svg version="1.1" baseProfile="full" xmlns="http://www.w3.org/2000/svg" width="1371.3333333333333" height="80">
	<g>
		<line x1="10" y1="40.0" x2="1361.3333333333333" y2="40.0" style="stroke:rgb(70,70,70); stroke-width:3 "/>
		<g>
			<title> (S40285_07604)
hypothetical protein</title>
			<polygon class=" (S40285_07604)
hypothetical protein" points="10,40 36,10 36,70" fill="rgb(255,255,255)" fill-opacity="1.0" stroke="rgb(0,0,0)" stroke-width="2"  />
			<g>
				<title>DJ-1_PfpI (PF01965)
"DJ-1/PfpI family"</title>
				<polygon class="PF01965" points="14,40 24,28 32,28 32,52 24,52 14,40" stroke-linejoin="round" width="18" height="24" fill="rgb(66,224,145)" stroke="rgb(52,179,116)" stroke-width="1" opacity="0.75" />
			</g>
		</g>
		<g>
			<title> (S40285_07605)
hypothetical protein</title>
			<polygon class=" (S40285_07605)
hypothetical protein" points="229,25 149,25 149,10 119,40 149,70 149,55 229,55" fill="rgb(255,255,255)" fill-opacity="1.0" stroke="rgb(0,0,0)" stroke-width="2"  />
			<g>
				<title>NAD_binding_1 (PF00175)
"Oxidoreductase NAD-binding domain"</title>
				<polygon class="PF00175" points="123,40 132,31 132,49" stroke-linejoin="round" width="10" height="24" fill="rgb(177,211,96)" stroke="rgb(141,168,76)" stroke-width="1" opacity="0.75" />
			</g>
			<g>
				<title>FAD_binding_6 (PF00970)
"Oxidoreductase FAD-binding domain"</title>
				<polygon class="PF00970" points="135,28 135,28 140,28 140,52 135,52 135,52" stroke-linejoin="round" width="5" height="24" fill="rgb(212,194,103)" stroke="rgb(169,155,82)" stroke-width="1" opacity="0.75" />
			</g>
			<g>
				<title>FAD_binding_6 (PF00970)
"Oxidoreductase FAD-binding domain"</title>
				<rect class="PF00970" x="142" y="28" stroke-linejoin="round" width="6" height="24" fill="rgb(212,194,103)" stroke="rgb(169,155,82)" stroke-width="1" opacity="0.75" />
			</g>
			<g>
				<title>Cyt-b5 (PF00173)
"Cytochrome b5-like Heme/Steroid binding domain"</title>
				<rect class="PF00173" x="153" y="28" stroke-linejoin="round" width="7" height="24" fill="rgb(149,209,92)" stroke="rgb(119,167,73)" stroke-width="1" opacity="0.75" />
			</g>
			<g>
				<title>Mo-co_dimer (PF03404)
"Mo-co oxidoreductase dimerisation domain"</title>
				<rect class="PF03404" x="167" y="28" stroke-linejoin="round" width="14" height="24" fill="rgb(105,224,154)" stroke="rgb(84,179,123)" stroke-width="1" opacity="0.75" />
			</g>
			<g>
				<title>Oxidored_molyb (PF00174)
"Oxidoreductase molybdopterin binding domain"</title>
				<rect class="PF00174" x="184" y="28" stroke-linejoin="round" width="18" height="24" fill="rgb(152,193,93)" stroke="rgb(121,154,74)" stroke-width="1" opacity="0.75" />
			</g>
		</g>
		<g>
			<title> (S40285_07606)
hypothetical protein</title>
			<polygon class=" (S40285_07606)
hypothetical protein" points="272,25 293,25 293,10 323,40 293,70 293,55 272,55" fill="rgb(255,255,255)" fill-opacity="1.0" stroke="rgb(0,0,0)" stroke-width="2"  />
			<g>
				<title>Esterase_PHB (PF10503)
"Esterase PHB depolymerase"</title>
				<rect class="PF10503" x="275" y="28" stroke-linejoin="round" width="21" height="24" fill="rgb(189,202,77)" stroke="rgb(151,161,61)" stroke-width="1" opacity="0.75" />
			</g>
		</g>
		<g>
			<title> (S40285_07607)
hypothetical protein</title>
			<polygon class=" (S40285_07607)
hypothetical protein" points="362,25 357,25 357,10 327,40 357,70 357,55 362,55" fill="rgb(255,255,255)" fill-opacity="1.0" stroke="rgb(0,0,0)" stroke-width="2"  />
			<g>
				<title>adh_short_C2 (PF13561)
"Enoyl-(Acyl carrier protein) reductase"</title>
				<polygon class="PF13561" points="333,38 343,28 356,28 356,52 343,52 333,42" stroke-linejoin="round" width="23" height="24" fill="rgb(73,205,127)" stroke="rgb(58,164,101)" stroke-width="1" opacity="0.75" />
			</g>
		</g>
		<g>
			<title> (S40285_07608)
hypothetical protein</title>
			<polygon class=" (S40285_07608)
hypothetical protein" points="379,25 384,25 384,10 414,40 384,70 384,55 379,55" fill="rgb(255,255,255)" fill-opacity="1.0" stroke="rgb(0,0,0)" stroke-width="2"  />
			<g>
				<title>AP_endonuc_2 (PF01261)
"Xylose isomerase-like TIM barrel"</title>
				<polygon class="PF01261" points="382,28 398,28 410,40 398,52 382,52" stroke-linejoin="round" width="30" height="24" fill="rgb(69,222,207)" stroke="rgb(55,177,165)" stroke-width="1" opacity="0.75" />
			</g>
		</g>
		<g>
			<title> (S40285_07609)
hypothetical protein</title>
			<polygon class=" (S40285_07609)
hypothetical protein" points="509,25 504,25 504,10 474,40 504,70 504,55 509,55" fill="rgb(255,255,255)" fill-opacity="1.0" stroke="rgb(0,0,0)" stroke-width="2"  />
			<g>
				<title>AA9 (PF03443)
"Auxiliary Activity family 9 (formerly GH61)"</title>
				<polygon class="PF03443" points="484,34 490,28 507,28 507,52 490,52 484,46" stroke-linejoin="round" width="23" height="24" fill="rgb(180,165,83)" stroke="rgb(144,132,66)" stroke-width="1" opacity="0.75" />
			</g>
		</g>
		<g>
			<title> (S40285_07610)
hypothetical protein</title>
			<polygon class=" (S40285_07610)
hypothetical protein" points="591,10 619,40 591,70" fill="rgb(255,255,255)" fill-opacity="1.0" stroke="rgb(0,0,0)" stroke-width="2"  />
			<g>
				<title>adh_short_C2 (PF13561)
"Enoyl-(Acyl carrier protein) reductase"</title>
				<polygon class="PF13561" points="591,28 603,28 615,40 603,52 591,52" stroke-linejoin="round" width="26" height="24" fill="rgb(73,205,127)" stroke="rgb(58,164,101)" stroke-width="1" opacity="0.75" />
			</g>
		</g>
		<g>
			<title> (S40285_10521)
hypothetical protein</title>
			<polygon class=" (S40285_10521)
hypothetical protein" points="749,25 746,25 746,10 716,40 746,70 746,55 749,55" fill="rgb(255,255,255)" fill-opacity="1.0" stroke="rgb(0,0,0)" stroke-width="2"  />
			<g>
				<title>UbiA (PF01040)
"UbiA prenyltransferase family"</title>
				<polygon class="PF01040" points="720,40 732,28 743,28 743,52 732,52" stroke-linejoin="round" width="24" height="24" fill="rgb(189,57,100)" stroke="rgb(151,45,80)" stroke-width="1" opacity="0.75" />
			</g>
		</g>
		<g>
			<title> (S40285_07611)
hypothetical protein</title>
			<polygon class=" (S40285_07611)
hypothetical protein" points="847,25 926,25 926,10 956,40 926,70 926,55 847,55" fill="rgb(255,255,255)" fill-opacity="1.0" stroke="rgb(0,0,0)" stroke-width="2"  />
			<g>
				<title>AMP-binding (PF00501)
"AMP-binding enzyme"</title>
				<rect class="PF00501" x="850" y="28" stroke-linejoin="round" width="35" height="24" fill="rgb(60,217,223)" stroke="rgb(48,173,178)" stroke-width="1" opacity="0.75" />
			</g>
			<g>
				<title>PP-binding (PF00550)
"Phosphopantetheine attachment site"</title>
				<rect class="PF00550" x="905" y="28" stroke-linejoin="round" width="7" height="24" fill="rgb(103,191,88)" stroke="rgb(82,152,70)" stroke-width="1" opacity="0.75" />
			</g>
			<g>
				<title>NAD_binding_4 (PF07993)
"Male sterility protein"</title>
				<polygon class="PF07993" points="918,28 940,28 942,30 942,50 940,52 918,52" stroke-linejoin="round" width="24" height="24" fill="rgb(100,212,204)" stroke="rgb(80,169,163)" stroke-width="1" opacity="0.75" />
			</g>
		</g>
		<g>
			<title> (S40285_07612)
hypothetical protein</title>
			<polygon class=" (S40285_07612)
hypothetical protein" points="1136,25 1331,25 1331,10 1361,40 1331,70 1331,55 1136,55" fill="rgb(255,255,255)" fill-opacity="1.0" stroke="rgb(0,0,0)" stroke-width="2"  />
			<g>
				<title>SAT (PF16073)
"Starter unit:ACP transacylase in aflatoxin biosynthesis"</title>
				<rect class="PF16073" x="1142" y="28" stroke-linejoin="round" width="18" height="24" fill="rgb(77,115,183)" stroke="rgb(61,91,146)" stroke-width="1" opacity="0.75" />
			</g>
			<g>
				<title>ketoacyl-synt (PF00109)
"Beta-ketoacyl synthase, N-terminal domain"</title>
				<rect class="PF00109" x="1174" y="28" stroke-linejoin="round" width="25" height="24" fill="rgb(112,116,228)" stroke="rgb(89,92,182)" stroke-width="1" opacity="0.75" />
			</g>
			<g>
				<title>Ketoacyl-synt_C (PF02801)
"Beta-ketoacyl synthase, C-terminal domain"</title>
				<rect class="PF02801" x="1199" y="28" stroke-linejoin="round" width="11" height="24" fill="rgb(215,78,102)" stroke="rgb(172,62,81)" stroke-width="1" opacity="0.75" />
			</g>
			<g>
				<title>KAsynt_C_assoc (PF16197)
"Ketoacyl-synthetase C-terminal extension"</title>
				<rect class="PF16197" x="1211" y="28" stroke-linejoin="round" width="11" height="24" fill="rgb(240,150,172)" stroke="rgb(192,120,137)" stroke-width="1" opacity="0.75" />
			</g>
			<g>
				<title>Acyl_transf_1 (PF00698)
"Acyl transferase domain"</title>
				<rect class="PF00698" x="1226" y="28" stroke-linejoin="round" width="31" height="24" fill="rgb(59,176,209)" stroke="rgb(47,140,167)" stroke-width="1" opacity="0.75" />
			</g>
			<g>
				<title>PS-DH (PF14765)
"Polyketide synthase dehydratase"</title>
				<rect class="PF14765" x="1267" y="28" stroke-linejoin="round" width="27" height="24" fill="rgb(173,56,182)" stroke="rgb(138,44,145)" stroke-width="1" opacity="0.75" />
			</g>
			<g>
				<title>PP-binding (PF00550)
"Phosphopantetheine attachment site"</title>
				<rect class="PF00550" x="1300" y="28" stroke-linejoin="round" width="6" height="24" fill="rgb(103,191,88)" stroke="rgb(82,152,70)" stroke-width="1" opacity="0.75" />
			</g>
			<g>
				<title>PP-binding (PF00550)
"Phosphopantetheine attachment site"</title>
				<rect class="PF00550" x="1311" y="28" stroke-linejoin="round" width="6" height="24" fill="rgb(103,191,88)" stroke="rgb(82,152,70)" stroke-width="1" opacity="0.75" />
			</g>
			<g>
				<title>BD-FAE (PF20434)
"BD-FAE"</title>
				<rect class="PF20434" x="1327" y="28" stroke-linejoin="round" width="13" height="24" fill="rgb(127,196,85)" stroke="rgb(101,156,68)" stroke-width="1" opacity="0.75" />
			</g>
		</g>
	</g>
</svg>
