<svg version="1.1" baseProfile="full" xmlns="http://www.w3.org/2000/svg" width="523.3" height="80">
	<g>
		<line x1="10" y1="40.0" x2="513.3" y2="40.0" style="stroke:rgb(70,70,70); stroke-width:3 "/>
		<g>
			<title> (G4B84_009365)
hypothetical protein</title>
			<polygon class=" (G4B84_009365)
hypothetical protein" points="46,25 40,25 40,10 10,40 40,70 40,55 46,55" fill="rgb(255,255,255)" fill-opacity="1.0" stroke="rgb(0,0,0)" stroke-width="2"  />
			<g>
				<title>ADH_zinc_N (PF00107)
"Zinc-binding dehydrogenase"</title>
				<polygon class="PF00107" points="14,40 26,28 29,28 29,52 26,52 14,40" stroke-linejoin="round" width="15" height="24" fill="rgb(81,108,215)" stroke="rgb(64,86,172)" stroke-width="1" opacity="0.75" />
			</g>
			<g>
				<title>ADH_N_2 (PF16884)
"N-terminal domain of oxidoreductase"</title>
				<rect class="PF16884" x="34" y="28" stroke-linejoin="round" width="9" height="24" fill="rgb(185,119,52)" stroke="rgb(148,95,41)" stroke-width="1" opacity="0.75" />
			</g>
		</g>
		<g>
			<title> (G4B84_009366)
hypothetical protein</title>
			<polygon class=" (G4B84_009366)
hypothetical protein" points="197,25 123,25 123,10 93,40 123,70 123,55 197,55" fill="rgb(255,255,255)" fill-opacity="1.0" stroke="rgb(0,0,0)" stroke-width="2"  />
			<g>
				<title>NAD_binding_4 (PF07993)
"Male sterility protein"</title>
				<polygon class="PF07993" points="107,30 109,28 131,28 131,52 109,52 107,50" stroke-linejoin="round" width="24" height="24" fill="rgb(100,212,204)" stroke="rgb(80,169,163)" stroke-width="1" opacity="0.75" />
			</g>
			<g>
				<title>PP-binding (PF00550)
"Phosphopantetheine attachment site"</title>
				<rect class="PF00550" x="136" y="28" stroke-linejoin="round" width="6" height="24" fill="rgb(103,191,88)" stroke="rgb(82,152,70)" stroke-width="1" opacity="0.75" />
			</g>
			<g>
				<title>AMP-binding (PF00501)
"AMP-binding enzyme"</title>
				<rect class="PF00501" x="154" y="28" stroke-linejoin="round" width="39" height="24" fill="rgb(60,217,223)" stroke="rgb(48,173,178)" stroke-width="1" opacity="0.75" />
			</g>
		</g>
		<g>
			<title> (G4B84_009367)
hypothetical protein</title>
			<polygon class=" (G4B84_009367)
hypothetical protein" points="220,25 227,25 227,10 257,40 227,70 227,55 220,55" fill="rgb(255,255,255)" fill-opacity="1.0" stroke="rgb(0,0,0)" stroke-width="2"  />
			<g>
				<title>NmrA (PF05368)
"NmrA-like family"</title>
				<polygon class="PF05368" points="220,28 241,28 244,31 244,49 241,52 220,52" stroke-linejoin="round" width="24" height="24" fill="rgb(97,49,192)" stroke="rgb(77,39,153)" stroke-width="1" opacity="0.75" />
			</g>
		</g>
		<g>
			<title> (G4B84_009368)
hypothetical protein</title>
			<polygon class=" (G4B84_009368)
hypothetical protein" points="366,25 338,25 338,10 308,40 338,70 338,55 366,55" fill="rgb(255,255,255)" fill-opacity="1.0" stroke="rgb(0,0,0)" stroke-width="2"  />
			<g>
				<title>p450 (PF00067)
"Cytochrome P450"</title>
				<polygon class="PF00067" points="314,38 324,28 357,28 357,52 324,52 314,42" stroke-linejoin="round" width="43" height="24" fill="rgb(85,216,107)" stroke="rgb(68,172,85)" stroke-width="1" opacity="0.75" />
			</g>
		</g>
		<g>
			<title> (G4B84_009369)
hypothetical protein</title>
			<polygon class=" (G4B84_009369)
hypothetical protein" points="389,25 417,25 417,10 447,40 417,70 417,55 389,55" fill="rgb(255,255,255)" fill-opacity="1.0" stroke="rgb(0,0,0)" stroke-width="2"  />
			<g>
				<title>p450 (PF00067)
"Cytochrome P450"</title>
				<polygon class="PF00067" points="401,28 431,28 439,36 439,44 431,52 401,52" stroke-linejoin="round" width="38" height="24" fill="rgb(85,216,107)" stroke="rgb(68,172,85)" stroke-width="1" opacity="0.75" />
			</g>
		</g>
		<g>
			<title> (G4B84_009370)
hypothetical protein</title>
			<polygon class=" (G4B84_009370)
hypothetical protein" points="513,25 490,25 490,10 460,40 490,70 490,55 513,55" fill="rgb(255,255,255)" fill-opacity="1.0" stroke="rgb(0,0,0)" stroke-width="2"  />
			<g>
				<title>Sugar_tr (PF00083)
"Sugar (and other) transporter"</title>
				<polygon class="PF00083" points="465,39 476,28 486,28 486,52 476,52 465,41" stroke-linejoin="round" width="21" height="24" fill="rgb(48,186,105)" stroke="rgb(38,148,84)" stroke-width="1" opacity="0.75" />
			</g>
			<g>
				<title>Sugar_tr (PF00083)
"Sugar (and other) transporter"</title>
				<rect class="PF00083" x="486" y="28" stroke-linejoin="round" width="21" height="24" fill="rgb(48,186,105)" stroke="rgb(38,148,84)" stroke-width="1" opacity="0.75" />
			</g>
		</g>
	</g>
</svg>
