<svg version="1.1" baseProfile="full" xmlns="http://www.w3.org/2000/svg" width="1478.1" height="80">
	<g>
		<line x1="10" y1="40.0" x2="1468.1" y2="40.0" style="stroke:rgb(70,70,70); stroke-width:3 "/>
		<g>
			<title> (AO090001000024)</title>
			<polygon class=" (AO090001000024)" points="72,25 40,25 40,10 10,40 40,70 40,55 72,55" fill="rgb(255,255,255)" fill-opacity="1.0" stroke="rgb(0,0,0)" stroke-width="2"  />
			<g>
				<title>Trp_halogenase (PF04820)
"Tryptophan halogenase"</title>
				<rect class="PF04820" x="61" y="28" stroke-linejoin="round" width="10" height="24" fill="rgb(179,74,194)" stroke="rgb(143,59,155)" stroke-width="1" opacity="0.75" />
			</g>
		</g>
		<g>
			<title> (AO090001000025)</title>
			<polygon class=" (AO090001000025)" points="81,40 103,10 103,70" fill="rgb(255,255,255)" fill-opacity="1.0" stroke="rgb(0,0,0)" stroke-width="2"  />
			<g>
				<title>p450 (PF00067)
"Cytochrome P450"</title>
				<polygon class="PF00067" points="86,39 94,28 96,28 96,52 94,52 86,41" stroke-linejoin="round" width="10" height="24" fill="rgb(85,216,107)" stroke="rgb(68,172,85)" stroke-width="1" opacity="0.75" />
			</g>
		</g>
		<g>
			<title> (AO090001000026)</title>
			<polygon class=" (AO090001000026)" points="107,40 122,10 122,70" fill="rgb(255,255,255)" fill-opacity="1.0" stroke="rgb(0,0,0)" stroke-width="2"  />
		</g>
		<g>
			<title> (AO090001000028)</title>
			<polygon class=" (AO090001000028)" points="148,25 178,25 178,10 208,40 178,70 178,55 148,55" fill="rgb(255,255,255)" fill-opacity="1.0" stroke="rgb(0,0,0)" stroke-width="2"  />
			<g>
				<title>p450 (PF00067)
"Cytochrome P450"</title>
				<polygon class="PF00067" points="152,28 192,28 196,32 196,48 192,52 152,52" stroke-linejoin="round" width="44" height="24" fill="rgb(85,216,107)" stroke="rgb(68,172,85)" stroke-width="1" opacity="0.75" />
			</g>
		</g>
		<g>
			<title> (AO090001000029)</title>
			<polygon class=" (AO090001000029)" points="263,25 242,25 242,10 212,40 242,70 242,55 263,55" fill="rgb(255,255,255)" fill-opacity="1.0" stroke="rgb(0,0,0)" stroke-width="2"  />
			<g>
				<title>Zn_clus (PF00172)
"Fungal Zn(2)-Cys(6) binuclear cluster domain"</title>
				<rect class="PF00172" x="255" y="28" stroke-linejoin="round" width="3" height="24" fill="rgb(121,178,76)" stroke="rgb(96,142,60)" stroke-width="1" opacity="0.75" />
			</g>
		</g>
		<g>
			<title> (AO090001000030)</title>
			<polygon class=" (AO090001000030)" points="305,40 334,10 334,70" fill="rgb(255,255,255)" fill-opacity="1.0" stroke="rgb(0,0,0)" stroke-width="2"  />
		</g>
		<g>
			<title> (AO090001000031)</title>
			<polygon class=" (AO090001000031)" points="351,25 376,25 376,10 406,40 376,70 376,55 351,55" fill="rgb(255,255,255)" fill-opacity="1.0" stroke="rgb(0,0,0)" stroke-width="2"  />
			<g>
				<title>MFS_1 (PF07690)
"Major Facilitator Superfamily"</title>
				<polygon class="PF07690" points="354,28 389,28 394,33 394,47 389,52 354,52" stroke-linejoin="round" width="40" height="24" fill="rgb(193,224,74)" stroke="rgb(154,179,59)" stroke-width="1" opacity="0.75" />
			</g>
		</g>
		<g>
			<title> (AO090001000032)</title>
			<polygon class=" (AO090001000032)" points="519,25 456,25 456,10 426,40 456,70 456,55 519,55" fill="rgb(255,255,255)" fill-opacity="1.0" stroke="rgb(0,0,0)" stroke-width="2"  />
			<g>
				<title>ABC_tran (PF00005)
"ABC transporter"</title>
				<rect class="PF00005" x="447" y="28" stroke-linejoin="round" width="14" height="24" fill="rgb(129,201,63)" stroke="rgb(103,160,50)" stroke-width="1" opacity="0.75" />
			</g>
			<g>
				<title>ABC_membrane (PF00664)
"ABC transporter transmembrane region"</title>
				<rect class="PF00664" x="468" y="28" stroke-linejoin="round" width="27" height="24" fill="rgb(149,226,73)" stroke="rgb(119,180,58)" stroke-width="1" opacity="0.75" />
			</g>
		</g>
		<g>
			<title> (AO090001000033)</title>
			<polygon class=" (AO090001000033)" points="527,25 544,25 544,10 574,40 544,70 544,55 527,55" fill="rgb(255,255,255)" fill-opacity="1.0" stroke="rgb(0,0,0)" stroke-width="2"  />
			<g>
				<title>Aminotran_1_2 (PF00155)
"Aminotransferase class I and II"</title>
				<polygon class="PF00155" points="530,28 558,28 567,37 567,43 558,52 530,52" stroke-linejoin="round" width="37" height="24" fill="rgb(89,113,198)" stroke="rgb(71,90,158)" stroke-width="1" opacity="0.75" />
			</g>
		</g>
		<g>
			<title> (AO090001000034)</title>
			<polygon class=" (AO090001000034)" points="580,10 605,40 580,70" fill="rgb(255,255,255)" fill-opacity="1.0" stroke="rgb(0,0,0)" stroke-width="2"  />
		</g>
		<g>
			<title> (AO090001000035)</title>
			<polygon class=" (AO090001000035)" points="734,25 661,25 661,10 631,40 661,70 661,55 734,55" fill="rgb(255,255,255)" fill-opacity="1.0" stroke="rgb(0,0,0)" stroke-width="2"  />
			<g>
				<title>p450 (PF00067)
"Cytochrome P450"</title>
				<rect class="PF00067" x="682" y="28" stroke-linejoin="round" width="43" height="24" fill="rgb(85,216,107)" stroke="rgb(68,172,85)" stroke-width="1" opacity="0.75" />
			</g>
		</g>
		<g>
			<title> (AO090001000036)</title>
			<polygon class=" (AO090001000036)" points="748,25 749,25 749,10 779,40 749,70 749,55 748,55" fill="rgb(255,255,255)" fill-opacity="1.0" stroke="rgb(0,0,0)" stroke-width="2"  />
		</g>
		<g>
			<title> (AO090001000037)</title>
			<polygon class=" (AO090001000037)" points="827,25 824,25 824,10 794,40 824,70 824,55 827,55" fill="rgb(255,255,255)" fill-opacity="1.0" stroke="rgb(0,0,0)" stroke-width="2"  />
			<g>
				<title>Pyr_redox_2 (PF07992)
"Pyridine nucleotide-disulphide oxidoreductase"</title>
				<polygon class="PF07992" points="798,40 810,28 826,28 826,52 810,52" stroke-linejoin="round" width="29" height="24" fill="rgb(83,223,167)" stroke="rgb(66,178,133)" stroke-width="1" opacity="0.75" />
			</g>
		</g>
		<g>
			<title> (AO090001000038)</title>
			<polygon class=" (AO090001000038)" points="894,25 889,25 889,10 859,40 889,70 889,55 894,55" fill="rgb(255,255,255)" fill-opacity="1.0" stroke="rgb(0,0,0)" stroke-width="2"  />
			<g>
				<title>Pyr_redox_2 (PF07992)
"Pyridine nucleotide-disulphide oxidoreductase"</title>
				<polygon class="PF07992" points="863,40 875,28 893,28 893,52 875,52" stroke-linejoin="round" width="31" height="24" fill="rgb(83,223,167)" stroke="rgb(66,178,133)" stroke-width="1" opacity="0.75" />
			</g>
		</g>
		<g>
			<title> (AO090001000039)</title>
			<polygon class=" (AO090001000039)" points="903,25 918,25 918,10 948,40 918,70 918,55 903,55" fill="rgb(255,255,255)" fill-opacity="1.0" stroke="rgb(0,0,0)" stroke-width="2"  />
			<g>
				<title>Methyltransf_2 (PF00891)
"O-methyltransferase domain"</title>
				<polygon class="PF00891" points="927,28 931,28 942,39 942,41 931,52 927,52" stroke-linejoin="round" width="15" height="24" fill="rgb(50,51,190)" stroke="rgb(39,40,152)" stroke-width="1" opacity="0.75" />
			</g>
		</g>
		<g>
			<title> (AO090001000040)</title>
			<polygon class=" (AO090001000040)" points="955,10 983,40 955,70" fill="rgb(255,255,255)" fill-opacity="1.0" stroke="rgb(0,0,0)" stroke-width="2"  />
			<g>
				<title>GST_C (PF00043)
"Glutathione S-transferase, C-terminal domain"</title>
				<polygon class="PF00043" points="966,28 967,28 975,36 975,44 967,52 966,52" stroke-linejoin="round" width="9" height="24" fill="rgb(102,108,211)" stroke="rgb(81,86,168)" stroke-width="1" opacity="0.75" />
			</g>
		</g>
		<g>
			<title> (AO090001000041)</title>
			<polygon class=" (AO090001000041)" points="1046,25 1017,25 1017,10 987,40 1017,70 1017,55 1046,55" fill="rgb(255,255,255)" fill-opacity="1.0" stroke="rgb(0,0,0)" stroke-width="2"  />
			<g>
				<title>p450 (PF00067)
"Cytochrome P450"</title>
				<polygon class="PF00067" points="999,32 1003,28 1040,28 1040,52 1003,52 999,48" stroke-linejoin="round" width="41" height="24" fill="rgb(85,216,107)" stroke="rgb(68,172,85)" stroke-width="1" opacity="0.75" />
			</g>
		</g>
		<g>
			<title> (AO090001000042)</title>
			<polygon class=" (AO090001000042)" points="1050,25 1065,25 1065,10 1095,40 1065,70 1065,55 1050,55" fill="rgb(255,255,255)" fill-opacity="1.0" stroke="rgb(0,0,0)" stroke-width="2"  />
			<g>
				<title>Peptidase_M19 (PF01244)
"Membrane dipeptidase (Peptidase family M19)"</title>
				<polygon class="PF01244" points="1056,28 1079,28 1089,38 1089,42 1079,52 1056,52" stroke-linejoin="round" width="33" height="24" fill="rgb(178,227,92)" stroke="rgb(142,181,73)" stroke-width="1" opacity="0.75" />
			</g>
		</g>
		<g>
			<title> (AO090001000043)</title>
			<polygon class=" (AO090001000043)" points="1270,25 1136,25 1136,10 1106,40 1136,70 1136,55 1270,55" fill="rgb(255,255,255)" fill-opacity="1.0" stroke="rgb(0,0,0)" stroke-width="2"  />
			<g>
				<title>Condensation (PF00668)
"Condensation domain"</title>
				<polygon class="PF00668" points="1110,40 1122,28 1151,28 1151,52 1122,52" stroke-linejoin="round" width="42" height="24" fill="rgb(224,184,98)" stroke="rgb(179,147,78)" stroke-width="1" opacity="0.75" />
			</g>
			<g>
				<title>PP-binding (PF00550)
"Phosphopantetheine attachment site"</title>
				<rect class="PF00550" x="1153" y="28" stroke-linejoin="round" width="6" height="24" fill="rgb(103,191,88)" stroke="rgb(82,152,70)" stroke-width="1" opacity="0.75" />
			</g>
			<g>
				<title>AMP-binding (PF00501)
"AMP-binding enzyme"</title>
				<rect class="PF00501" x="1170" y="28" stroke-linejoin="round" width="38" height="24" fill="rgb(60,217,223)" stroke="rgb(48,173,178)" stroke-width="1" opacity="0.75" />
			</g>
			<g>
				<title>Condensation (PF00668)
"Condensation domain"</title>
				<rect class="PF00668" x="1212" y="28" stroke-linejoin="round" width="39" height="24" fill="rgb(224,184,98)" stroke="rgb(179,147,78)" stroke-width="1" opacity="0.75" />
			</g>
			<g>
				<title>PP-binding (PF00550)
"Phosphopantetheine attachment site"</title>
				<rect class="PF00550" x="1258" y="28" stroke-linejoin="round" width="6" height="24" fill="rgb(103,191,88)" stroke="rgb(82,152,70)" stroke-width="1" opacity="0.75" />
			</g>
		</g>
		<g>
			<title> (AO090001000044)</title>
			<polygon class=" (AO090001000044)" points="1359,25 1327,25 1327,10 1297,40 1327,70 1327,55 1359,55" fill="rgb(255,255,255)" fill-opacity="1.0" stroke="rgb(0,0,0)" stroke-width="2"  />
			<g>
				<title>Transp_cyt_pur (PF02133)
"Permease for cytosine/purines, uracil, thiamine, allantoin"</title>
				<polygon class="PF02133" points="1305,36 1313,28 1329,28 1329,52 1313,52 1305,44" stroke-linejoin="round" width="24" height="24" fill="rgb(84,195,218)" stroke="rgb(67,155,174)" stroke-width="1" opacity="0.75" />
			</g>
			<g>
				<title>Transp_cyt_pur (PF02133)
"Permease for cytosine/purines, uracil, thiamine, allantoin"</title>
				<rect class="PF02133" x="1330" y="28" stroke-linejoin="round" width="16" height="24" fill="rgb(84,195,218)" stroke="rgb(67,155,174)" stroke-width="1" opacity="0.75" />
			</g>
			<g>
				<title>Transp_cyt_pur (PF02133)
"Permease for cytosine/purines, uracil, thiamine, allantoin"</title>
				<rect class="PF02133" x="1346" y="28" stroke-linejoin="round" width="8" height="24" fill="rgb(84,195,218)" stroke="rgb(67,155,174)" stroke-width="1" opacity="0.75" />
			</g>
		</g>
		<g>
			<title> (AO090001000045)</title>
			<polygon class=" (AO090001000045)" points="1367,25 1377,25 1377,10 1407,40 1377,70 1377,55 1367,55" fill="rgb(255,255,255)" fill-opacity="1.0" stroke="rgb(0,0,0)" stroke-width="2"  />
			<g>
				<title>GFO_IDH_MocA (PF01408)
"Oxidoreductase family, NAD-binding Rossmann fold"</title>
				<rect class="PF01408" x="1367" y="28" stroke-linejoin="round" width="12" height="24" fill="rgb(76,117,190)" stroke="rgb(60,93,152)" stroke-width="1" opacity="0.75" />
			</g>
			<g>
				<title>GFO_IDH_MocA_C (PF02894)
"Oxidoreductase family, C-terminal alpha/beta domain"</title>
				<polygon class="PF02894" points="1381,28 1391,28 1402,39 1402,41 1391,52 1381,52" stroke-linejoin="round" width="21" height="24" fill="rgb(195,223,82)" stroke="rgb(155,178,65)" stroke-width="1" opacity="0.75" />
			</g>
		</g>
		<g>
			<title> (AO090001000046)</title>
			<polygon class=" (AO090001000046)" points="1467,25 1446,25 1446,10 1416,40 1446,70 1446,55 1467,55" fill="rgb(255,255,255)" fill-opacity="1.0" stroke="rgb(0,0,0)" stroke-width="2"  />
			<g>
				<title>Methyltransf_2 (PF00891)
"O-methyltransferase domain"</title>
				<polygon class="PF00891" points="1422,38 1432,28 1442,28 1442,52 1432,52 1422,42" stroke-linejoin="round" width="20" height="24" fill="rgb(50,51,190)" stroke="rgb(39,40,152)" stroke-width="1" opacity="0.75" />
			</g>
		</g>
	</g>
</svg>
