<svg version="1.1" baseProfile="full" xmlns="http://www.w3.org/2000/svg" width="999.3" height="80">
	<g>
		<line x1="10" y1="40.0" x2="989.3" y2="40.0" style="stroke:rgb(70,70,70); stroke-width:3 "/>
		<g>
			<title>
TsrV</title>
			<polygon class="
TsrV" points="46,25 40,25 40,10 10,40 40,70 40,55 46,55" fill="rgb(255,255,255)" fill-opacity="1.0" stroke="rgb(0,0,0)" stroke-width="2"  />
			<g>
				<title>Aminotran_1_2 (PF00155)
"Aminotransferase class I and II"</title>
				<polygon class="PF00155" points="14,40 26,28 44,28 44,52 26,52" stroke-linejoin="round" width="31" height="24" fill="rgb(89,113,198)" stroke="rgb(71,90,158)" stroke-width="1" opacity="0.75" />
			</g>
		</g>
		<g>
			<title>
TsrU</title>
			<polygon class="
TsrU" points="47,40 74,10 74,70" fill="rgb(255,255,255)" fill-opacity="1.0" stroke="rgb(0,0,0)" stroke-width="2"  />
			<g>
				<title>Hydrolase_4 (PF12146)
"Serine aminopeptidase, S33"</title>
				<polygon class="PF12146" points="51,40 62,28 71,28 71,52 62,52" stroke-linejoin="round" width="22" height="24" fill="rgb(140,98,205)" stroke="rgb(112,78,164)" stroke-width="1" opacity="0.75" />
			</g>
		</g>
		<g>
			<title>
TsrT</title>
			<polygon class="
TsrT" points="138,25 107,25 107,10 77,40 107,70 107,55 138,55" fill="rgb(255,255,255)" fill-opacity="1.0" stroke="rgb(0,0,0)" stroke-width="2"  />
			<g>
				<title>Asn_synthase (PF00733)
"Asparagine synthase"</title>
				<polygon class="PF00733" points="81,40 93,28 114,28 114,52 93,52" stroke-linejoin="round" width="37" height="24" fill="rgb(97,201,176)" stroke="rgb(77,160,140)" stroke-width="1" opacity="0.75" />
			</g>
			<g>
				<title>GATase_7 (PF13537)
"Glutamine amidotransferase domain"</title>
				<rect class="PF13537" x="121" y="28" stroke-linejoin="round" width="12" height="24" fill="rgb(200,63,57)" stroke="rgb(160,50,45)" stroke-width="1" opacity="0.75" />
			</g>
		</g>
		<g>
			<title>
TsrS</title>
			<polygon class="
TsrS" points="143,40 156,10 156,70" fill="rgb(255,255,255)" fill-opacity="1.0" stroke="rgb(0,0,0)" stroke-width="2"  />
			<g>
				<title>SnoaL (PF07366)
"SnoaL-like polyketide cyclase"</title>
				<polygon class="PF07366" points="146,40 151,28 155,28 155,52 151,52" stroke-linejoin="round" width="12" height="24" fill="rgb(206,89,111)" stroke="rgb(164,71,88)" stroke-width="1" opacity="0.75" />
			</g>
		</g>
		<g>
			<title>
TsrQ</title>
			<polygon class="
TsrQ" points="200,25 189,25 189,10 159,40 189,70 189,55 200,55" fill="rgb(255,255,255)" fill-opacity="1.0" stroke="rgb(0,0,0)" stroke-width="2"  />
			<g>
				<title>Acyl-CoA_dh_2 (PF08028)
"Acyl-CoA dehydrogenase, C-terminal domain"</title>
				<polygon class="PF08028" points="164,39 175,28 176,28 176,52 175,52 164,41" stroke-linejoin="round" width="12" height="24" fill="rgb(106,185,56)" stroke="rgb(84,148,44)" stroke-width="1" opacity="0.75" />
			</g>
			<g>
				<title>Acyl-CoA_dh_N (PF02771)
"Acyl-CoA dehydrogenase, N-terminal domain"</title>
				<rect class="PF02771" x="189" y="28" stroke-linejoin="round" width="10" height="24" fill="rgb(105,135,218)" stroke="rgb(84,108,174)" stroke-width="1" opacity="0.75" />
			</g>
		</g>
		<g>
			<title>
TsrP</title>
			<polygon class="
TsrP" points="238,25 237,25 237,10 207,40 237,70 237,55 238,55" fill="rgb(255,255,255)" fill-opacity="1.0" stroke="rgb(0,0,0)" stroke-width="2"  />
			<g>
				<title>LCM (PF04072)
"Leucine carboxyl methyltransferase"</title>
				<polygon class="PF04072" points="220,31 223,28 237,28 237,52 223,52 220,49" stroke-linejoin="round" width="17" height="24" fill="rgb(94,159,219)" stroke="rgb(75,127,175)" stroke-width="1" opacity="0.75" />
			</g>
		</g>
		<g>
			<title>
TsrO</title>
			<polygon class="
TsrO" points="240,40 258,10 258,70" fill="rgb(255,255,255)" fill-opacity="1.0" stroke="rgb(0,0,0)" stroke-width="2"  />
			<g>
				<title>DUF2867 (PF11066)
"Protein of unknown function (DUF2867)"</title>
				<polygon class="PF11066" points="245,38 251,28 257,28 257,52 251,52 245,42" stroke-linejoin="round" width="12" height="24" fill="rgb(97,120,227)" stroke="rgb(77,96,181)" stroke-width="1" opacity="0.75" />
			</g>
		</g>
		<g>
			<title>
TsrA</title>
			<polygon class="
TsrA" points="273,10 278,40 273,70" fill="rgb(255,255,255)" fill-opacity="1.0" stroke="rgb(0,0,0)" stroke-width="2"  />
		</g>
		<g>
			<title>
TsrB</title>
			<polygon class="
TsrB" points="296,10 322,40 296,70" fill="rgb(255,255,255)" fill-opacity="1.0" stroke="rgb(0,0,0)" stroke-width="2"  />
			<g>
				<title>Abhydrolase_6 (PF12697)
"Alpha/beta hydrolase family"</title>
				<polygon class="PF12697" points="296,28 308,28 316,38 316,42 308,52 296,52" stroke-linejoin="round" width="20" height="24" fill="rgb(113,71,219)" stroke="rgb(90,56,175)" stroke-width="1" opacity="0.75" />
			</g>
		</g>
		<g>
			<title>
TsrC</title>
			<polygon class="
TsrC" points="322,25 385,25 385,10 415,40 385,70 385,55 322,55" fill="rgb(255,255,255)" fill-opacity="1.0" stroke="rgb(0,0,0)" stroke-width="2"  />
			<g>
				<title>Lant_dehydr_N (PF04738)
"Lantibiotic dehydratase, N terminus"</title>
				<polygon class="PF04738" points="399,28 399,28 405,34 405,46 399,52 399,52" stroke-linejoin="round" width="6" height="24" fill="rgb(219,60,229)" stroke="rgb(175,47,183)" stroke-width="1" opacity="0.75" />
			</g>
		</g>
		<g>
			<title>
TsrD</title>
			<polygon class="
TsrD" points="415,25 419,25 419,10 449,40 419,70 419,55 415,55" fill="rgb(255,255,255)" fill-opacity="1.0" stroke="rgb(0,0,0)" stroke-width="2"  />
			<g>
				<title>Lant_dehydr_C (PF14028)
"Lantibiotic biosynthesis dehydratase C-term"</title>
				<polygon class="PF14028" points="415,28 433,28 445,40 445,40 433,52 415,52" stroke-linejoin="round" width="30" height="24" fill="rgb(107,223,113)" stroke="rgb(85,178,90)" stroke-width="1" opacity="0.75" />
			</g>
		</g>
		<g>
			<title>
TsrE</title>
			<polygon class="
TsrE" points="450,25 456,25 456,10 486,40 456,70 456,55 450,55" fill="rgb(255,255,255)" fill-opacity="1.0" stroke="rgb(0,0,0)" stroke-width="2"  />
			<g>
				<title>Lant_dehydr_C (PF14028)
"Lantibiotic biosynthesis dehydratase C-term"</title>
				<polygon class="PF14028" points="451,28 470,28 482,40 470,52 451,52" stroke-linejoin="round" width="33" height="24" fill="rgb(107,223,113)" stroke="rgb(85,178,90)" stroke-width="1" opacity="0.75" />
			</g>
		</g>
		<g>
			<title>
TsrF</title>
			<polygon class="
TsrF" points="486,25 515,25 515,10 545,40 515,70 515,55 486,55" fill="rgb(255,255,255)" fill-opacity="1.0" stroke="rgb(0,0,0)" stroke-width="2"  />
			<g>
				<title>Nitroreductase (PF00881)
"Nitroreductase family"</title>
				<rect class="PF00881" x="499" y="28" stroke-linejoin="round" width="14" height="24" fill="rgb(79,118,187)" stroke="rgb(63,94,149)" stroke-width="1" opacity="0.75" />
			</g>
		</g>
		<g>
			<title>
TsrG</title>
			<polygon class="
TsrG" points="545,25 576,25 576,10 606,40 576,70 576,55 545,55" fill="rgb(255,255,255)" fill-opacity="1.0" stroke="rgb(0,0,0)" stroke-width="2"  />
		</g>
		<g>
			<title>
TsrH</title>
			<polygon class="
TsrH" points="606,25 644,25 644,10 674,40 644,70 644,55 606,55" fill="rgb(255,255,255)" fill-opacity="1.0" stroke="rgb(0,0,0)" stroke-width="2"  />
			<g>
				<title>YcaO (PF02624)
"YcaO cyclodehydratase, ATP-ad Mg2+-binding"</title>
				<polygon class="PF02624" points="633,28 657,28 669,40 669,40 657,52 633,52" stroke-linejoin="round" width="36" height="24" fill="rgb(76,84,185)" stroke="rgb(60,67,148)" stroke-width="1" opacity="0.75" />
			</g>
		</g>
		<g>
			<title>
TsrI</title>
			<polygon class="
TsrI" points="674,25 691,25 691,10 721,40 691,70 691,55 674,55" fill="rgb(255,255,255)" fill-opacity="1.0" stroke="rgb(0,0,0)" stroke-width="2"  />
		</g>
		<g>
			<title>
TsrJ</title>
			<polygon class="
TsrJ" points="720,25 733,25 733,10 763,40 733,70 733,55 720,55" fill="rgb(255,255,255)" fill-opacity="1.0" stroke="rgb(0,0,0)" stroke-width="2"  />
			<g>
				<title>AMP-binding (PF00501)
"AMP-binding enzyme"</title>
				<polygon class="PF00501" points="727,28 747,28 754,35 754,45 747,52 727,52" stroke-linejoin="round" width="27" height="24" fill="rgb(60,217,223)" stroke="rgb(48,173,178)" stroke-width="1" opacity="0.75" />
			</g>
		</g>
		<g>
			<title>
TsrK</title>
			<polygon class="
TsrK" points="768,25 777,25 777,10 807,40 777,70 777,55 768,55" fill="rgb(255,255,255)" fill-opacity="1.0" stroke="rgb(0,0,0)" stroke-width="2"  />
			<g>
				<title>p450 (PF00067)
"Cytochrome P450"</title>
				<polygon class="PF00067" points="788,28 791,28 794,31 794,49 791,52 788,52" stroke-linejoin="round" width="6" height="24" fill="rgb(85,216,107)" stroke="rgb(68,172,85)" stroke-width="1" opacity="0.75" />
			</g>
		</g>
		<g>
			<title>
TsrL</title>
			<polygon class="
TsrL" points="810,25 871,25 871,10 901,40 871,70 871,55 810,55" fill="rgb(255,255,255)" fill-opacity="1.0" stroke="rgb(0,0,0)" stroke-width="2"  />
		</g>
		<g>
			<title>
TsrM</title>
			<polygon class="
TsrM" points="901,25 931,25 931,10 961,40 931,70 931,55 901,55" fill="rgb(255,255,255)" fill-opacity="1.0" stroke="rgb(0,0,0)" stroke-width="2"  />
			<g>
				<title>B12-binding (PF02310)
"B12 binding domain"</title>
				<rect class="PF02310" x="901" y="28" stroke-linejoin="round" width="13" height="24" fill="rgb(145,190,60)" stroke="rgb(115,152,48)" stroke-width="1" opacity="0.75" />
			</g>
			<g>
				<title>Radical_SAM (PF04055)
"Radical SAM superfamily"</title>
				<rect class="PF04055" x="925" y="28" stroke-linejoin="round" width="17" height="24" fill="rgb(149,56,222)" stroke="rgb(119,44,177)" stroke-width="1" opacity="0.75" />
			</g>
		</g>
		<g>
			<title>
TsrN</title>
			<polygon class="
TsrN" points="961,10 988,40 961,70" fill="rgb(255,255,255)" fill-opacity="1.0" stroke="rgb(0,0,0)" stroke-width="2"  />
			<g>
				<title>adh_short (PF00106)
"short chain dehydrogenase"</title>
				<polygon class="PF00106" points="968,28 972,28 983,39 983,41 972,52 968,52" stroke-linejoin="round" width="15" height="24" fill="rgb(182,219,73)" stroke="rgb(145,175,58)" stroke-width="1" opacity="0.75" />
			</g>
		</g>
	</g>
</svg>
