<svg version="1.1" baseProfile="full" xmlns="http://www.w3.org/2000/svg" width="425.26666666666665" height="80">
	<g>
		<line x1="10" y1="40.0" x2="415.26666666666665" y2="40.0" style="stroke:rgb(70,70,70); stroke-width:3 "/>
		<g>
			<title>matC
ATP-binding protein</title>
			<polygon class="matC
ATP-binding protein" points="14,10 39,40 14,70" fill="rgb(255,255,255)" fill-opacity="1.0" stroke="rgb(0,0,0)" stroke-width="2"  />
			<g>
				<title>ABC_tran (PF00005)
"ABC transporter"</title>
				<polygon class="PF00005" points="15,28 25,28 29,33 29,47 25,52 15,52" stroke-linejoin="round" width="14" height="24" fill="rgb(129,201,63)" stroke="rgb(103,160,50)" stroke-width="1" opacity="0.75" />
			</g>
		</g>
		<g>
			<title>matD
periplasmic binding protein</title>
			<polygon class="matD
periplasmic binding protein" points="41,10 70,40 41,70" fill="rgb(255,255,255)" fill-opacity="1.0" stroke="rgb(0,0,0)" stroke-width="2"  />
			<g>
				<title>Peripla_BP_2 (PF01497)
"Periplasmic binding protein"</title>
				<polygon class="PF01497" points="44,28 54,28 66,40 54,52 44,52" stroke-linejoin="round" width="23" height="24" fill="rgb(183,226,104)" stroke="rgb(146,180,83)" stroke-width="1" opacity="0.75" />
			</g>
		</g>
		<g>
			<title>matB
membrane permease</title>
			<polygon class="matB
membrane permease" points="70,25 106,25 106,10 136,40 106,70 106,55 70,55" fill="rgb(255,255,255)" fill-opacity="1.0" stroke="rgb(0,0,0)" stroke-width="2"  />
			<g>
				<title>FecCD (PF01032)
"FecCD transport family"</title>
				<rect class="PF01032" x="72" y="28" stroke-linejoin="round" width="31" height="24" fill="rgb(210,177,70)" stroke="rgb(168,141,56)" stroke-width="1" opacity="0.75" />
			</g>
			<g>
				<title>FecCD (PF01032)
"FecCD transport family"</title>
				<polygon class="PF01032" points="106,28 120,28 132,40 120,52 106,52" stroke-linejoin="round" width="30" height="24" fill="rgb(210,177,70)" stroke="rgb(168,141,56)" stroke-width="1" opacity="0.75" />
			</g>
		</g>
		<g>
			<title>iucA
aerobactin synthetase</title>
			<polygon class="iucA
aerobactin synthetase" points="144,25 173,25 173,10 203,40 173,70 173,55 144,55" fill="rgb(255,255,255)" fill-opacity="1.0" stroke="rgb(0,0,0)" stroke-width="2"  />
			<g>
				<title>IucA_IucC (PF04183)
"IucA / IucC family"</title>
				<rect class="PF04183" x="158" y="28" stroke-linejoin="round" width="23" height="24" fill="rgb(221,104,121)" stroke="rgb(176,83,96)" stroke-width="1" opacity="0.75" />
			</g>
			<g>
				<title>FhuF (PF06276)
"Ferric iron reductase FhuF-like transporter"</title>
				<polygon class="PF06276" points="185,28 187,28 199,40 187,52 185,52" stroke-linejoin="round" width="16" height="24" fill="rgb(76,151,221)" stroke="rgb(60,120,176)" stroke-width="1" opacity="0.75" />
			</g>
		</g>
		<g>
			<title>iucB
N6-hydroxylysine acetyl transferase</title>
			<polygon class="iucB
N6-hydroxylysine acetyl transferase" points="203,25 203,25 203,10 233,40 203,70 203,55 203,55" fill="rgb(255,255,255)" fill-opacity="1.0" stroke="rgb(0,0,0)" stroke-width="2"  />
			<g>
				<title>Acetyltransf_8 (PF13523)
"Acetyltransferase (GNAT) domain"</title>
				<polygon class="PF13523" points="217,28 217,28 229,40 217,52 217,52" stroke-linejoin="round" width="14" height="24" fill="rgb(106,224,203)" stroke="rgb(84,179,162)" stroke-width="1" opacity="0.75" />
			</g>
		</g>
		<g>
			<title>iucC
aerobactin synthetase</title>
			<polygon class="iucC
aerobactin synthetase" points="234,25 263,25 263,10 293,40 263,70 263,55 234,55" fill="rgb(255,255,255)" fill-opacity="1.0" stroke="rgb(0,0,0)" stroke-width="2"  />
			<g>
				<title>IucA_IucC (PF04183)
"IucA / IucC family"</title>
				<rect class="PF04183" x="247" y="28" stroke-linejoin="round" width="4" height="24" fill="rgb(221,104,121)" stroke="rgb(176,83,96)" stroke-width="1" opacity="0.75" />
			</g>
			<g>
				<title>IucA_IucC (PF04183)
"IucA / IucC family"</title>
				<rect class="PF04183" x="256" y="28" stroke-linejoin="round" width="15" height="24" fill="rgb(221,104,121)" stroke="rgb(176,83,96)" stroke-width="1" opacity="0.75" />
			</g>
			<g>
				<title>FhuF (PF06276)
"Ferric iron reductase FhuF-like transporter"</title>
				<polygon class="PF06276" points="274,28 276,28 288,40 276,52 274,52" stroke-linejoin="round" width="16" height="24" fill="rgb(76,151,221)" stroke="rgb(60,120,176)" stroke-width="1" opacity="0.75" />
			</g>
		</g>
		<g>
			<title>iucD
lysine N6-monooxygenase</title>
			<polygon class="iucD
lysine N6-monooxygenase" points="295,25 307,25 307,10 337,40 307,70 307,55 295,55" fill="rgb(255,255,255)" fill-opacity="1.0" stroke="rgb(0,0,0)" stroke-width="2"  />
			<g>
				<title>Lys_Orn_oxgnase (PF13434)
"L-lysine 6-monooxygenase/L-ornithine 5-monooxygenase"</title>
				<polygon class="PF13434" points="295,28 320,28 328,36 328,44 320,52 295,52" stroke-linejoin="round" width="33" height="24" fill="rgb(81,213,119)" stroke="rgb(64,170,95)" stroke-width="1" opacity="0.75" />
			</g>
		</g>
		<g>
			<title>iutA
ferric aerobactin receptor precursor</title>
			<polygon class="iutA
ferric aerobactin receptor precursor" points="342,25 384,25 384,10 414,40 384,70 384,55 342,55" fill="rgb(255,255,255)" fill-opacity="1.0" stroke="rgb(0,0,0)" stroke-width="2"  />
			<g>
				<title>Plug (PF07715)
"TonB-dependent Receptor Plug Domain"</title>
				<rect class="PF07715" x="347" y="28" stroke-linejoin="round" width="10" height="24" fill="rgb(99,133,214)" stroke="rgb(79,106,171)" stroke-width="1" opacity="0.75" />
			</g>
			<g>
				<title>TonB_dep_Rec (PF00593)
"TonB dependent receptor"</title>
				<polygon class="PF00593" points="366,28 398,28 410,40 398,52 366,52" stroke-linejoin="round" width="48" height="24" fill="rgb(171,200,51)" stroke="rgb(136,160,40)" stroke-width="1" opacity="0.75" />
			</g>
		</g>
	</g>
</svg>
