<svg version="1.1" baseProfile="full" xmlns="http://www.w3.org/2000/svg" width="252.33333333333334" height="80">
	<g>
		<line x1="10" y1="40.0" x2="242.33333333333334" y2="40.0" style="stroke:rgb(70,70,70); stroke-width:3 "/>
		<g>
			<title> (SCAT_RS04910)
DMT family transporter</title>
			<polygon class=" (SCAT_RS04910)
DMT family transporter" points="10,40 39,10 39,70" fill="rgb(255,255,255)" fill-opacity="1.0" stroke="rgb(0,0,0)" stroke-width="2"  />
			<g>
				<title>EamA (PF00892)
"EamA-like transporter family"</title>
				<polygon class="PF00892" points="14,40 24,30 24,50" stroke-linejoin="round" width="13" height="24" fill="rgb(105,217,77)" stroke="rgb(84,173,61)" stroke-width="1" opacity="0.75" />
			</g>
			<g>
				<title>EamA (PF00892)
"EamA-like transporter family"</title>
				<polygon class="PF00892" points="26,28 26,28 39,28 39,52 26,52 26,52" stroke-linejoin="round" width="13" height="24" fill="rgb(105,217,77)" stroke="rgb(84,173,61)" stroke-width="1" opacity="0.75" />
			</g>
		</g>
		<g>
			<title> (SCAT_RS04915)
peptide ligase PGM1-related protein</title>
			<polygon class=" (SCAT_RS04915)
peptide ligase PGM1-related protein" points="47,25 64,25 64,10 94,40 64,70 64,55 47,55" fill="rgb(255,255,255)" fill-opacity="1.0" stroke="rgb(0,0,0)" stroke-width="2"  />
			<g>
				<title>PreAtp-grasp (PF18604)
"Pre ATP-grasp domain"</title>
				<rect class="PF18604" x="50" y="28" stroke-linejoin="round" width="10" height="24" fill="rgb(148,214,94)" stroke="rgb(118,171,75)" stroke-width="1" opacity="0.75" />
			</g>
			<g>
				<title>ATP-grasp_3 (PF02655)
"ATP-grasp domain"</title>
				<polygon class="PF02655" points="70,28 78,28 82,32 82,48 78,52 70,52" stroke-linejoin="round" width="12" height="24" fill="rgb(84,156,185)" stroke="rgb(67,124,148)" stroke-width="1" opacity="0.75" />
			</g>
			<g>
				<title>PGM1_C (PF18105)
"PGM1 C-terminal domain"</title>
				<polygon class="PF18105" points="87,37 90,40 87,43" stroke-linejoin="round" width="5" height="24" fill="rgb(71,184,96)" stroke="rgb(56,147,76)" stroke-width="1" opacity="0.75" />
			</g>
		</g>
		<g>
			<title> (SCAT_RS04920)
PLP-dependent transferase</title>
			<polygon class=" (SCAT_RS04920)
PLP-dependent transferase" points="145,25 127,25 127,10 97,40 127,70 127,55 145,55" fill="rgb(255,255,255)" fill-opacity="1.0" stroke="rgb(0,0,0)" stroke-width="2"  />
			<g>
				<title>Cys_Met_Meta_PP (PF01053)
"Cys/Met metabolism PLP-dependent enzyme"</title>
				<polygon class="PF01053" points="101,40 113,28 131,28 131,52 113,52" stroke-linejoin="round" width="34" height="24" fill="rgb(142,222,85)" stroke="rgb(113,177,67)" stroke-width="1" opacity="0.75" />
			</g>
		</g>
		<g>
			<title> (SCAT_RS04925)
iron-containing redox enzyme family protein</title>
			<polygon class=" (SCAT_RS04925)
iron-containing redox enzyme family protein" points="148,40 173,10 173,70" fill="rgb(255,255,255)" fill-opacity="1.0" stroke="rgb(0,0,0)" stroke-width="2"  />
			<g>
				<title>Haem_oxygenas_2 (PF14518)
"Iron-containing redox enzyme"</title>
				<polygon class="PF14518" points="152,40 162,28 166,28 166,52 162,52" stroke-linejoin="round" width="17" height="24" fill="rgb(71,185,105)" stroke="rgb(56,148,84)" stroke-width="1" opacity="0.75" />
			</g>
		</g>
		<g>
			<title> (SCAT_RS04930)
hypothetical protein</title>
			<polygon class=" (SCAT_RS04930)
hypothetical protein" points="176,40 200,10 200,70" fill="rgb(255,255,255)" fill-opacity="1.0" stroke="rgb(0,0,0)" stroke-width="2"  />
		</g>
		<g>
			<title> (SCAT_RS04935)
hypothetical protein</title>
			<polygon class=" (SCAT_RS04935)
hypothetical protein" points="215,10 241,40 215,70" fill="rgb(255,255,255)" fill-opacity="1.0" stroke="rgb(0,0,0)" stroke-width="2"  />
		</g>
	</g>
</svg>
