<svg version="1.1" baseProfile="full" xmlns="http://www.w3.org/2000/svg" width="263.26666666666665" height="80">
	<g>
		<line x1="10" y1="40.0" x2="253.26666666666668" y2="40.0" style="stroke:rgb(70,70,70); stroke-width:3 "/>
		<g>
			<title>ywfG (RBAM_034880)
YwfG</title>
			<polygon class="ywfG (RBAM_034880)
YwfG" points="50,25 40,25 40,10 10,40 40,70 40,55 50,55" fill="rgb(255,255,255)" fill-opacity="1.0" stroke="rgb(0,0,0)" stroke-width="2"  />
			<g>
				<title>Aminotran_1_2 (PF00155)
"Aminotransferase class I and II"</title>
				<polygon class="PF00155" points="14,40 26,28 46,28 46,52 26,52" stroke-linejoin="round" width="35" height="24" fill="rgb(89,113,198)" stroke="rgb(71,90,158)" stroke-width="1" opacity="0.75" />
			</g>
		</g>
		<g>
			<title>bacE (RBAM_034890)
BacE</title>
			<polygon class="bacE (RBAM_034890)
BacE" points="89,25 80,25 80,10 50,40 80,70 80,55 89,55" fill="rgb(255,255,255)" fill-opacity="1.0" stroke="rgb(0,0,0)" stroke-width="2"  />
			<g>
				<title>MFS_1 (PF07690)
"Major Facilitator Superfamily"</title>
				<polygon class="PF07690" points="54,40 66,28 87,28 87,52 66,52 54,40" stroke-linejoin="round" width="33" height="24" fill="rgb(193,224,74)" stroke="rgb(154,179,59)" stroke-width="1" opacity="0.75" />
			</g>
		</g>
		<g>
			<title>bacD (RBAM_034900)
BacD</title>
			<polygon class="bacD (RBAM_034900)
BacD" points="136,25 119,25 119,10 89,40 119,70 119,55 136,55" fill="rgb(255,255,255)" fill-opacity="1.0" stroke="rgb(0,0,0)" stroke-width="2"  />
			<g>
				<title>ATP-grasp_4 (PF13535)
"ATP-grasp domain"</title>
				<polygon class="PF13535" points="102,31 105,28 118,28 118,52 105,52 102,49" stroke-linejoin="round" width="16" height="24" fill="rgb(197,156,74)" stroke="rgb(157,124,59)" stroke-width="1" opacity="0.75" />
			</g>
		</g>
		<g>
			<title>bacC (RBAM_034910)
BacC</title>
			<polygon class="bacC (RBAM_034910)
BacC" points="137,40 162,10 162,70" fill="rgb(255,255,255)" fill-opacity="1.0" stroke="rgb(0,0,0)" stroke-width="2"  />
			<g>
				<title>adh_short_C2 (PF13561)
"Enoyl-(Acyl carrier protein) reductase"</title>
				<polygon class="PF13561" points="141,40 151,28 160,28 160,52 151,52" stroke-linejoin="round" width="23" height="24" fill="rgb(73,205,127)" stroke="rgb(58,164,101)" stroke-width="1" opacity="0.75" />
			</g>
		</g>
		<g>
			<title>bacB (RBAM_034920)
BacB</title>
			<polygon class="bacB (RBAM_034920)
BacB" points="162,40 185,10 185,70" fill="rgb(255,255,255)" fill-opacity="1.0" stroke="rgb(0,0,0)" stroke-width="2"  />
			<g>
				<title>Cupin_2 (PF07883)
"Cupin domain"</title>
				<polygon class="PF07883" points="166,40 170,35 170,45" stroke-linejoin="round" width="7" height="24" fill="rgb(211,192,74)" stroke="rgb(168,153,59)" stroke-width="1" opacity="0.75" />
			</g>
			<g>
				<title>Cupin_2 (PF07883)
"Cupin domain"</title>
				<polygon class="PF07883" points="175,29 176,28 182,28 182,52 176,52 175,51" stroke-linejoin="round" width="7" height="24" fill="rgb(211,192,74)" stroke="rgb(168,153,59)" stroke-width="1" opacity="0.75" />
			</g>
		</g>
		<g>
			<title>bacA (RBAM_034930)
BacA</title>
			<polygon class="bacA (RBAM_034930)
BacA" points="186,40 206,10 206,70" fill="rgb(255,255,255)" fill-opacity="1.0" stroke="rgb(0,0,0)" stroke-width="2"  />
		</g>
		<g>
			<title>ywfA (RBAM_034940)
YwfA</title>
			<polygon class="ywfA (RBAM_034940)
YwfA" points="252,25 241,25 241,10 211,40 241,70 241,55 252,55" fill="rgb(255,255,255)" fill-opacity="1.0" stroke="rgb(0,0,0)" stroke-width="2"  />
			<g>
				<title>MFS_1 (PF07690)
"Major Facilitator Superfamily"</title>
				<polygon class="PF07690" points="218,37 227,28 249,28 249,52 227,52 218,43" stroke-linejoin="round" width="31" height="24" fill="rgb(193,224,74)" stroke="rgb(154,179,59)" stroke-width="1" opacity="0.75" />
			</g>
		</g>
	</g>
</svg>
