<svg version="1.1" baseProfile="full" xmlns="http://www.w3.org/2000/svg" width="1563.9666666666667" height="80">
	<g>
		<line x1="10" y1="40.0" x2="1553.9666666666667" y2="40.0" style="stroke:rgb(70,70,70); stroke-width:3 "/>
		<g>
			<title>verB
putative cytochrome P450</title>
			<polygon class="verB
putative cytochrome P450" points="393,25 363,25 363,10 333,40 363,70 363,55 393,55" fill="rgb(255,255,255)" fill-opacity="1.0" stroke="rgb(0,0,0)" stroke-width="2"  />
			<g>
				<title>p450 (PF00067)
"Cytochrome P450"</title>
				<polygon class="PF00067" points="342,35 349,28 388,28 388,52 349,52 342,45" stroke-linejoin="round" width="46" height="24" fill="rgb(85,216,107)" stroke="rgb(68,172,85)" stroke-width="1" opacity="0.75" />
			</g>
		</g>
		<g>
			<title>verZ
putative zinc finger</title>
			<polygon class="verZ
putative zinc finger" points="479,25 458,25 458,10 428,40 458,70 458,55 479,55" fill="rgb(255,255,255)" fill-opacity="1.0" stroke="rgb(0,0,0)" stroke-width="2"  />
			<g>
				<title>Zn_clus (PF00172)
"Fungal Zn(2)-Cys(6) binuclear cluster domain"</title>
				<rect class="PF00172" x="463" y="28" stroke-linejoin="round" width="3" height="24" fill="rgb(121,178,76)" stroke="rgb(96,142,60)" stroke-width="1" opacity="0.75" />
			</g>
		</g>
		<g>
			<title>verG
putative glutathione S-transferase</title>
			<polygon class="verG
putative glutathione S-transferase" points="529,10 557,40 529,70" fill="rgb(255,255,255)" fill-opacity="1.0" stroke="rgb(0,0,0)" stroke-width="2"  />
			<g>
				<title>GST_N_2 (PF13409)
"Glutathione S-transferase, N-terminal domain"</title>
				<rect class="PF13409" x="532" y="28" stroke-linejoin="round" width="6" height="24" fill="rgb(52,193,170)" stroke="rgb(41,154,136)" stroke-width="1" opacity="0.75" />
			</g>
			<g>
				<title>GST_C (PF00043)
"Glutathione S-transferase, C-terminal domain"</title>
				<polygon class="PF00043" points="541,28 541,28 550,37 550,43 541,52 541,52" stroke-linejoin="round" width="9" height="24" fill="rgb(102,108,211)" stroke="rgb(81,86,168)" stroke-width="1" opacity="0.75" />
			</g>
		</g>
		<g>
			<title>verJ
putative membrane dipeptidase</title>
			<polygon class="verJ
putative membrane dipeptidase" points="578,25 586,25 586,10 616,40 586,70 586,55 578,55" fill="rgb(255,255,255)" fill-opacity="1.0" stroke="rgb(0,0,0)" stroke-width="2"  />
			<g>
				<title>Peptidase_M19 (PF01244)
"Membrane dipeptidase (Peptidase family M19)"</title>
				<polygon class="PF01244" points="578,28 600,28 606,34 606,46 600,52 578,52" stroke-linejoin="round" width="28" height="24" fill="rgb(178,227,92)" stroke="rgb(142,181,73)" stroke-width="1" opacity="0.75" />
			</g>
		</g>
		<g>
			<title>verK
putative Gamma-glutamylcyclotransferase</title>
			<polygon class="verK
putative Gamma-glutamylcyclotransferase" points="631,40 649,10 649,70" fill="rgb(255,255,255)" fill-opacity="1.0" stroke="rgb(0,0,0)" stroke-width="2"  />
		</g>
		<g>
			<title>verP
putative nonribosomal peptide synthase</title>
			<polygon class="verP
putative nonribosomal peptide synthase" points="886,25 706,25 706,10 676,40 706,70 706,55 886,55" fill="rgb(255,255,255)" fill-opacity="1.0" stroke="rgb(0,0,0)" stroke-width="2"  />
			<g>
				<title>Condensation (PF00668)
"Condensation domain"</title>
				<polygon class="PF00668" points="688,32 692,28 703,28 703,52 692,52 688,48" stroke-linejoin="round" width="15" height="24" fill="rgb(224,184,98)" stroke="rgb(179,147,78)" stroke-width="1" opacity="0.75" />
			</g>
			<g>
				<title>PP-binding (PF00550)
"Phosphopantetheine attachment site"</title>
				<rect class="PF00550" x="720" y="28" stroke-linejoin="round" width="6" height="24" fill="rgb(103,191,88)" stroke="rgb(82,152,70)" stroke-width="1" opacity="0.75" />
			</g>
			<g>
				<title>AMP-binding (PF00501)
"AMP-binding enzyme"</title>
				<rect class="PF00501" x="739" y="28" stroke-linejoin="round" width="38" height="24" fill="rgb(60,217,223)" stroke="rgb(48,173,178)" stroke-width="1" opacity="0.75" />
			</g>
			<g>
				<title>Condensation (PF00668)
"Condensation domain"</title>
				<rect class="PF00668" x="780" y="28" stroke-linejoin="round" width="30" height="24" fill="rgb(224,184,98)" stroke="rgb(179,147,78)" stroke-width="1" opacity="0.75" />
			</g>
			<g>
				<title>PP-binding (PF00550)
"Phosphopantetheine attachment site"</title>
				<rect class="PF00550" x="826" y="28" stroke-linejoin="round" width="6" height="24" fill="rgb(103,191,88)" stroke="rgb(82,152,70)" stroke-width="1" opacity="0.75" />
			</g>
			<g>
				<title>AMP-binding (PF00501)
"AMP-binding enzyme"</title>
				<rect class="PF00501" x="845" y="28" stroke-linejoin="round" width="39" height="24" fill="rgb(60,217,223)" stroke="rgb(48,173,178)" stroke-width="1" opacity="0.75" />
			</g>
		</g>
		<g>
			<title>verC
putative cytochrome P450 oxidoreductase</title>
			<polygon class="verC
putative cytochrome P450 oxidoreductase" points="899,25 917,25 917,10 947,40 917,70 917,55 899,55" fill="rgb(255,255,255)" fill-opacity="1.0" stroke="rgb(0,0,0)" stroke-width="2"  />
			<g>
				<title>p450 (PF00067)
"Cytochrome P450"</title>
				<polygon class="PF00067" points="906,28 931,28 938,35 938,45 931,52 906,52" stroke-linejoin="round" width="32" height="24" fill="rgb(85,216,107)" stroke="rgb(68,172,85)" stroke-width="1" opacity="0.75" />
			</g>
		</g>
		<g>
			<title>verI
putative aminotransferase</title>
			<polygon class="verI
putative aminotransferase" points="1014,25 996,25 996,10 966,40 996,70 996,55 1014,55" fill="rgb(255,255,255)" fill-opacity="1.0" stroke="rgb(0,0,0)" stroke-width="2"  />
			<g>
				<title>Aminotran_1_2 (PF00155)
"Aminotransferase class I and II"</title>
				<polygon class="PF00155" points="975,35 982,28 1011,28 1011,52 982,52 975,45" stroke-linejoin="round" width="36" height="24" fill="rgb(89,113,198)" stroke="rgb(71,90,158)" stroke-width="1" opacity="0.75" />
			</g>
		</g>
		<g>
			<title>vern
putative methyltransferase</title>
			<polygon class="vern
putative methyltransferase" points="1031,25 1036,25 1036,10 1066,40 1036,70 1036,55 1031,55" fill="rgb(255,255,255)" fill-opacity="1.0" stroke="rgb(0,0,0)" stroke-width="2"  />
			<g>
				<title>Methyltransf_23 (PF13489)
"Methyltransferase domain"</title>
				<polygon class="PF13489" points="1033,28 1050,28 1051,29 1051,51 1050,52 1033,52" stroke-linejoin="round" width="18" height="24" fill="rgb(188,189,66)" stroke="rgb(150,151,52)" stroke-width="1" opacity="0.75" />
			</g>
		</g>
		<g>
			<title>verM
putative O-methyltransferase</title>
			<polygon class="verM
putative O-methyltransferase" points="1121,25 1108,25 1108,10 1078,40 1108,70 1108,55 1121,55" fill="rgb(255,255,255)" fill-opacity="1.0" stroke="rgb(0,0,0)" stroke-width="2"  />
			<g>
				<title>Methyltransf_2 (PF00891)
"O-methyltransferase domain"</title>
				<polygon class="PF00891" points="1082,40 1094,28 1103,28 1103,52 1094,52 1082,40" stroke-linejoin="round" width="21" height="24" fill="rgb(50,51,190)" stroke="rgb(39,40,152)" stroke-width="1" opacity="0.75" />
			</g>
		</g>
		<g>
			<title>verL
putative cytochrome P450</title>
			<polygon class="verL
putative cytochrome P450" points="1190,25 1162,25 1162,10 1132,40 1162,70 1162,55 1190,55" fill="rgb(255,255,255)" fill-opacity="1.0" stroke="rgb(0,0,0)" stroke-width="2"  />
			<g>
				<title>p450 (PF00067)
"Cytochrome P450"</title>
				<polygon class="PF00067" points="1140,36 1148,28 1186,28 1186,52 1148,52 1140,44" stroke-linejoin="round" width="46" height="24" fill="rgb(85,216,107)" stroke="rgb(68,172,85)" stroke-width="1" opacity="0.75" />
			</g>
		</g>
		<g>
			<title>verT
putative thioredoxin reductase</title>
			<polygon class="verT
putative thioredoxin reductase" points="1209,25 1217,25 1217,10 1247,40 1217,70 1217,55 1209,55" fill="rgb(255,255,255)" fill-opacity="1.0" stroke="rgb(0,0,0)" stroke-width="2"  />
			<g>
				<title>Pyr_redox_2 (PF07992)
"Pyridine nucleotide-disulphide oxidoreductase"</title>
				<polygon class="PF07992" points="1209,28 1231,28 1238,35 1238,45 1231,52 1209,52" stroke-linejoin="round" width="29" height="24" fill="rgb(83,223,167)" stroke="rgb(66,178,133)" stroke-width="1" opacity="0.75" />
			</g>
		</g>
		<g>
			<title>verA
putative ABC multidrug transporter</title>
			<polygon class="verA
putative ABC multidrug transporter" points="1401,25 1287,25 1287,10 1257,40 1287,70 1287,55 1401,55" fill="rgb(255,255,255)" fill-opacity="1.0" stroke="rgb(0,0,0)" stroke-width="2"  />
			<g>
				<title>ABC_tran (PF00005)
"ABC transporter"</title>
				<rect class="PF00005" x="1282" y="28" stroke-linejoin="round" width="15" height="24" fill="rgb(129,201,63)" stroke="rgb(103,160,50)" stroke-width="1" opacity="0.75" />
			</g>
			<g>
				<title>ABC_membrane (PF00664)
"ABC transporter transmembrane region"</title>
				<rect class="PF00664" x="1305" y="28" stroke-linejoin="round" width="27" height="24" fill="rgb(149,226,73)" stroke="rgb(119,180,58)" stroke-width="1" opacity="0.75" />
			</g>
			<g>
				<title>ABC_tran (PF00005)
"ABC transporter"</title>
				<rect class="PF00005" x="1346" y="28" stroke-linejoin="round" width="15" height="24" fill="rgb(129,201,63)" stroke="rgb(103,160,50)" stroke-width="1" opacity="0.75" />
			</g>
			<g>
				<title>ABC_membrane (PF00664)
"ABC transporter transmembrane region"</title>
				<rect class="PF00664" x="1369" y="28" stroke-linejoin="round" width="27" height="24" fill="rgb(149,226,73)" stroke="rgb(119,180,58)" stroke-width="1" opacity="0.75" />
			</g>
		</g>
	</g>
</svg>
