<svg version="1.1" baseProfile="full" xmlns="http://www.w3.org/2000/svg" width="210.03333333333333" height="80">
	<g>
		<line x1="10" y1="40.0" x2="200.03333333333333" y2="40.0" style="stroke:rgb(70,70,70); stroke-width:3 "/>
		<g>
			<title> (PDENDC454_19508)
asparagine synthase</title>
			<polygon class=" (PDENDC454_19508)
asparagine synthase" points="10,25 45,25 45,10 75,40 45,70 45,55 10,55" fill="rgb(255,255,255)" fill-opacity="1.0" stroke="rgb(0,0,0)" stroke-width="2"  />
			<g>
				<title>GATase_7 (PF13537)
"Glutamine amidotransferase domain"</title>
				<rect class="PF13537" x="15" y="28" stroke-linejoin="round" width="11" height="24" fill="rgb(200,63,57)" stroke="rgb(160,50,45)" stroke-width="1" opacity="0.75" />
			</g>
			<g>
				<title>Asn_synthase (PF00733)
"Asparagine synthase"</title>
				<rect class="PF00733" x="34" y="28" stroke-linejoin="round" width="19" height="24" fill="rgb(97,201,176)" stroke="rgb(77,160,140)" stroke-width="1" opacity="0.75" />
			</g>
			<g>
				<title>Asn_synthase (PF00733)
"Asparagine synthase"</title>
				<polygon class="PF00733" points="57,28 58,28 70,40 58,52 57,52" stroke-linejoin="round" width="15" height="24" fill="rgb(97,201,176)" stroke="rgb(77,160,140)" stroke-width="1" opacity="0.75" />
			</g>
		</g>
		<g>
			<title> (PDENDC454_19513)
HPr kinase</title>
			<polygon class=" (PDENDC454_19513)
HPr kinase" points="82,25 83,25 83,10 113,40 83,70 83,55 82,55" fill="rgb(255,255,255)" fill-opacity="1.0" stroke="rgb(0,0,0)" stroke-width="2"  />
		</g>
		<g>
			<title> (PDENDC454_19518)
hypothetical protein</title>
			<polygon class=" (PDENDC454_19518)
hypothetical protein" points="114,10 124,40 114,70" fill="rgb(255,255,255)" fill-opacity="1.0" stroke="rgb(0,0,0)" stroke-width="2"  />
			<g>
				<title>PqqD (PF05402)
"Coenzyme PQQ synthesis protein D (PqqD)"</title>
				<polygon class="PF05402" points="116,28 116,28 120,40 116,52 116,52" stroke-linejoin="round" width="6" height="24" fill="rgb(124,62,188)" stroke="rgb(99,49,150)" stroke-width="1" opacity="0.75" />
			</g>
		</g>
		<g>
			<title> (PDENDC454_19523)
hypothetical protein</title>
			<polygon class=" (PDENDC454_19523)
hypothetical protein" points="125,10 139,40 125,70" fill="rgb(255,255,255)" fill-opacity="1.0" stroke="rgb(0,0,0)" stroke-width="2"  />
			<g>
				<title>Transglut_core3 (PF13471)
"Transglutaminase-like superfamily"</title>
				<polygon class="PF13471" points="126,28 130,28 135,40 130,52 126,52" stroke-linejoin="round" width="11" height="24" fill="rgb(63,111,179)" stroke="rgb(50,88,143)" stroke-width="1" opacity="0.75" />
			</g>
		</g>
		<g>
			<title> (PDENDC454_19528)
ABC transporter</title>
			<polygon class=" (PDENDC454_19528)
ABC transporter" points="139,25 169,25 169,10 199,40 169,70 169,55 139,55" fill="rgb(255,255,255)" fill-opacity="1.0" stroke="rgb(0,0,0)" stroke-width="2"  />
			<g>
				<title>ABC_membrane (PF00664)
"ABC transporter transmembrane region"</title>
				<rect class="PF00664" x="140" y="28" stroke-linejoin="round" width="28" height="24" fill="rgb(149,226,73)" stroke="rgb(119,180,58)" stroke-width="1" opacity="0.75" />
			</g>
			<g>
				<title>ABC_tran (PF00005)
"ABC transporter"</title>
				<polygon class="PF00005" points="176,28 183,28 190,35 190,45 183,52 176,52" stroke-linejoin="round" width="14" height="24" fill="rgb(129,201,63)" stroke="rgb(103,160,50)" stroke-width="1" opacity="0.75" />
			</g>
		</g>
	</g>
</svg>
