<svg version="1.1" baseProfile="full" xmlns="http://www.w3.org/2000/svg" width="872.2666666666667" height="80">
	<g>
		<line x1="10" y1="40.0" x2="862.2666666666667" y2="40.0" style="stroke:rgb(70,70,70); stroke-width:3 "/>
		<g>
			<title>lim1
putative nonribosomal peptide synthetase</title>
			<polygon class="lim1
putative nonribosomal peptide synthetase" points="10,25 40,25 40,10 70,40 40,70 40,55 10,55" fill="rgb(255,255,255)" fill-opacity="1.0" stroke="rgb(0,0,0)" stroke-width="2"  />
			<g>
				<title>AMP-binding (PF00501)
"AMP-binding enzyme"</title>
				<rect class="PF00501" x="11" y="28" stroke-linejoin="round" width="40" height="24" fill="rgb(60,217,223)" stroke="rgb(48,173,178)" stroke-width="1" opacity="0.75" />
			</g>
			<g>
				<title>AMP-binding_C (PF13193)
"AMP-binding enzyme C-terminal domain"</title>
				<polygon class="PF13193" points="52,28 54,28 59,33 59,47 54,52 52,52" stroke-linejoin="round" width="7" height="24" fill="rgb(182,50,118)" stroke="rgb(145,39,94)" stroke-width="1" opacity="0.75" />
			</g>
			<g>
				<title>PP-binding (PF00550)
"Phosphopantetheine attachment site"</title>
				<polygon class="PF00550" points="63,37 66,40 63,43" stroke-linejoin="round" width="6" height="24" fill="rgb(103,191,88)" stroke="rgb(82,152,70)" stroke-width="1" opacity="0.75" />
			</g>
		</g>
		<g>
			<title>lim2
putative nonribosomal peptide synthetase</title>
			<polygon class="lim2
putative nonribosomal peptide synthetase" points="72,25 196,25 196,10 226,40 196,70 196,55 72,55" fill="rgb(255,255,255)" fill-opacity="1.0" stroke="rgb(0,0,0)" stroke-width="2"  />
			<g>
				<title>Condensation (PF00668)
"Condensation domain"</title>
				<rect class="PF00668" x="82" y="28" stroke-linejoin="round" width="44" height="24" fill="rgb(224,184,98)" stroke="rgb(179,147,78)" stroke-width="1" opacity="0.75" />
			</g>
			<g>
				<title>AMP-binding (PF00501)
"AMP-binding enzyme"</title>
				<rect class="PF00501" x="128" y="28" stroke-linejoin="round" width="40" height="24" fill="rgb(60,217,223)" stroke="rgb(48,173,178)" stroke-width="1" opacity="0.75" />
			</g>
			<g>
				<title>AMP-binding_C (PF13193)
"AMP-binding enzyme C-terminal domain"</title>
				<rect class="PF13193" x="169" y="28" stroke-linejoin="round" width="7" height="24" fill="rgb(182,50,118)" stroke="rgb(145,39,94)" stroke-width="1" opacity="0.75" />
			</g>
			<g>
				<title>PP-binding (PF00550)
"Phosphopantetheine attachment site"</title>
				<rect class="PF00550" x="179" y="28" stroke-linejoin="round" width="6" height="24" fill="rgb(103,191,88)" stroke="rgb(82,152,70)" stroke-width="1" opacity="0.75" />
			</g>
			<g>
				<title>NAD_binding_4 (PF07993)
"Male sterility protein"</title>
				<polygon class="PF07993" points="191,28 210,28 214,32 214,48 210,52 191,52" stroke-linejoin="round" width="23" height="24" fill="rgb(100,212,204)" stroke="rgb(80,169,163)" stroke-width="1" opacity="0.75" />
			</g>
		</g>
		<g>
			<title>lim3
putative 3-deoxy-D-arabinoheptulosonate 7-phosphate (DAHP) synthase</title>
			<polygon class="lim3
putative 3-deoxy-D-arabinoheptulosonate 7-phosphate (DAHP) synthase" points="229,25 241,25 241,10 271,40 241,70 241,55 229,55" fill="rgb(255,255,255)" fill-opacity="1.0" stroke="rgb(0,0,0)" stroke-width="2"  />
			<g>
				<title>DAHP_synth_2 (PF01474)
"Class-II DAHP synthetase family"</title>
				<rect class="PF01474" x="230" y="28" stroke-linejoin="round" width="17" height="24" fill="rgb(126,217,84)" stroke="rgb(100,173,67)" stroke-width="1" opacity="0.75" />
			</g>
			<g>
				<title>DAHP_synth_2 (PF01474)
"Class-II DAHP synthetase family"</title>
				<polygon class="PF01474" points="245,28 254,28 266,40 254,52 245,52" stroke-linejoin="round" width="22" height="24" fill="rgb(126,217,84)" stroke="rgb(100,173,67)" stroke-width="1" opacity="0.75" />
			</g>
		</g>
		<g>
			<title>lim4
putative trans-2,3-dihydro-3-hydroxyanthranilic acid (DHHA) oxidoreductase</title>
			<polygon class="lim4
putative trans-2,3-dihydro-3-hydroxyanthranilic acid (DHHA) oxidoreductase" points="271,10 297,40 271,70" fill="rgb(255,255,255)" fill-opacity="1.0" stroke="rgb(0,0,0)" stroke-width="2"  />
			<g>
				<title>adh_short_C2 (PF13561)
"Enoyl-(Acyl carrier protein) reductase"</title>
				<polygon class="PF13561" points="271,28 283,28 293,40 283,52 271,52" stroke-linejoin="round" width="25" height="24" fill="rgb(73,205,127)" stroke="rgb(58,164,101)" stroke-width="1" opacity="0.75" />
			</g>
		</g>
		<g>
			<title>lim5
isochorismatase</title>
			<polygon class="lim5
isochorismatase" points="297,10 320,40 297,70" fill="rgb(255,255,255)" fill-opacity="1.0" stroke="rgb(0,0,0)" stroke-width="2"  />
			<g>
				<title>Isochorismatase (PF00857)
"Isochorismatase family"</title>
				<polygon class="PF00857" points="300,28 307,28 317,40 317,40 307,52 300,52" stroke-linejoin="round" width="17" height="24" fill="rgb(144,224,70)" stroke="rgb(115,179,56)" stroke-width="1" opacity="0.75" />
			</g>
		</g>
		<g>
			<title>lim6
2-amino-2-desoxyisochorismic acid (ADIC) synthase</title>
			<polygon class="lim6
2-amino-2-desoxyisochorismic acid (ADIC) synthase" points="321,25 356,25 356,10 386,40 356,70 356,55 321,55" fill="rgb(255,255,255)" fill-opacity="1.0" stroke="rgb(0,0,0)" stroke-width="2"  />
			<g>
				<title>Chorismate_bind (PF00425)
"chorismate binding enzyme"</title>
				<rect class="PF00425" x="332" y="28" stroke-linejoin="round" width="26" height="24" fill="rgb(188,116,88)" stroke="rgb(150,92,70)" stroke-width="1" opacity="0.75" />
			</g>
			<g>
				<title>GATase (PF00117)
"Glutamine amidotransferase class-I"</title>
				<polygon class="PF00117" points="364,28 370,28 382,40 370,52 364,52" stroke-linejoin="round" width="19" height="24" fill="rgb(159,201,96)" stroke="rgb(127,160,76)" stroke-width="1" opacity="0.75" />
			</g>
		</g>
		<g>
			<title>lim7
putative oxidoreductase</title>
			<polygon class="lim7
putative oxidoreductase" points="386,10 405,40 386,70" fill="rgb(255,255,255)" fill-opacity="1.0" stroke="rgb(0,0,0)" stroke-width="2"  />
			<g>
				<title>Flavin_Reduct (PF01613)
"Flavin reductase like domain"</title>
				<polygon class="PF01613" points="388,28 394,28 401,40 394,52 388,52" stroke-linejoin="round" width="14" height="24" fill="rgb(107,197,222)" stroke="rgb(85,157,177)" stroke-width="1" opacity="0.75" />
			</g>
		</g>
		<g>
			<title>lim8
putative monoxygenase</title>
			<polygon class="lim8
putative monoxygenase" points="406,25 427,25 427,10 457,40 427,70 427,55 406,55" fill="rgb(255,255,255)" fill-opacity="1.0" stroke="rgb(0,0,0)" stroke-width="2"  />
			<g>
				<title>HpaB_N (PF11794)
"4-hydroxyphenylacetate 3-hydroxylase N terminal"</title>
				<rect class="PF11794" x="408" y="28" stroke-linejoin="round" width="26" height="24" fill="rgb(122,202,60)" stroke="rgb(97,161,47)" stroke-width="1" opacity="0.75" />
			</g>
			<g>
				<title>HpaB (PF03241)
"4-hydroxyphenylacetate 3-hydroxylase C terminal"</title>
				<polygon class="PF03241" points="435,28 441,28 453,40 441,52 435,52" stroke-linejoin="round" width="20" height="24" fill="rgb(73,153,185)" stroke="rgb(58,122,148)" stroke-width="1" opacity="0.75" />
			</g>
		</g>
		<g>
			<title>lim9
putative O-methyltransferase</title>
			<polygon class="lim9
putative O-methyltransferase" points="461,40 483,10 483,70" fill="rgb(255,255,255)" fill-opacity="1.0" stroke="rgb(0,0,0)" stroke-width="2"  />
			<g>
				<title>Methyltransf_3 (PF01596)
"O-methyltransferase"</title>
				<polygon class="PF01596" points="465,40 474,28 481,28 481,52 474,52" stroke-linejoin="round" width="20" height="24" fill="rgb(168,187,48)" stroke="rgb(134,149,38)" stroke-width="1" opacity="0.75" />
			</g>
		</g>
		<g>
			<title>lim10
putative L-DOPA-2,3-dioxygenase</title>
			<polygon class="lim10
putative L-DOPA-2,3-dioxygenase" points="493,10 510,40 493,70" fill="rgb(255,255,255)" fill-opacity="1.0" stroke="rgb(0,0,0)" stroke-width="2"  />
			<g>
				<title>Glyoxalase (PF00903)
"Glyoxalase/Bleomycin resistance protein/Dioxygenase superfamily"</title>
				<polygon class="PF00903" points="495,28 499,28 506,40 499,52 495,52" stroke-linejoin="round" width="14" height="24" fill="rgb(50,162,189)" stroke="rgb(40,129,151)" stroke-width="1" opacity="0.75" />
			</g>
		</g>
		<g>
			<title>lim11
putative L-tyrosine hydroxylase</title>
			<polygon class="lim11
putative L-tyrosine hydroxylase" points="510,25 511,25 511,10 541,40 511,70 511,55 510,55" fill="rgb(255,255,255)" fill-opacity="1.0" stroke="rgb(0,0,0)" stroke-width="2"  />
		</g>
		<g>
			<title>lim12
putative F-420 dependent reductase</title>
			<polygon class="lim12
putative F-420 dependent reductase" points="541,25 543,25 543,10 573,40 543,70 543,55 541,55" fill="rgb(255,255,255)" fill-opacity="1.0" stroke="rgb(0,0,0)" stroke-width="2"  />
			<g>
				<title>Bac_luciferase (PF00296)
"Luciferase-like monooxygenase"</title>
				<polygon class="PF00296" points="541,28 556,28 568,40 556,52 541,52" stroke-linejoin="round" width="31" height="24" fill="rgb(180,112,78)" stroke="rgb(144,89,62)" stroke-width="1" opacity="0.75" />
			</g>
		</g>
		<g>
			<title>lim13
putative isomerase</title>
			<polygon class="lim13
putative isomerase" points="573,10 601,40 573,70" fill="rgb(255,255,255)" fill-opacity="1.0" stroke="rgb(0,0,0)" stroke-width="2"  />
			<g>
				<title>PhzC-PhzF (PF02567)
"Phenazine biosynthesis-like protein"</title>
				<polygon class="PF02567" points="573,28 585,28 597,40 585,52 573,52" stroke-linejoin="round" width="27" height="24" fill="rgb(223,91,96)" stroke="rgb(178,72,76)" stroke-width="1" opacity="0.75" />
			</g>
		</g>
		<g>
			<title>lim14
putative gamma-glutamyltransferase-like hydrolase</title>
			<polygon class="lim14
putative gamma-glutamyltransferase-like hydrolase" points="604,25 633,25 633,10 663,40 633,70 633,55 604,55" fill="rgb(255,255,255)" fill-opacity="1.0" stroke="rgb(0,0,0)" stroke-width="2"  />
			<g>
				<title>G_glu_transpept (PF01019)
"Gamma-glutamyltranspeptidase"</title>
				<polygon class="PF01019" points="606,28 647,28 659,40 647,52 606,52" stroke-linejoin="round" width="56" height="24" fill="rgb(117,205,100)" stroke="rgb(93,164,80)" stroke-width="1" opacity="0.75" />
			</g>
		</g>
		<g>
			<title>lim15
putative excinuclease ABC subunit A</title>
			<polygon class="lim15
putative excinuclease ABC subunit A" points="667,25 713,25 713,10 743,40 713,70 713,55 667,55" fill="rgb(255,255,255)" fill-opacity="1.0" stroke="rgb(0,0,0)" stroke-width="2"  />
			<g>
				<title>UvrA_DNA-bind (PF17755)
"UvrA DNA-binding domain"</title>
				<rect class="PF17755" x="682" y="28" stroke-linejoin="round" width="10" height="24" fill="rgb(175,198,76)" stroke="rgb(140,158,60)" stroke-width="1" opacity="0.75" />
			</g>
			<g>
				<title>ABC_tran (PF00005)
"ABC transporter"</title>
				<polygon class="PF00005" points="714,28 727,28 734,35 734,45 727,52 714,52" stroke-linejoin="round" width="20" height="24" fill="rgb(129,201,63)" stroke="rgb(103,160,50)" stroke-width="1" opacity="0.75" />
			</g>
		</g>
		<g>
			<title>lim16
putative LLM class flavin-dependent oxidoreductase</title>
			<polygon class="lim16
putative LLM class flavin-dependent oxidoreductase" points="746,25 755,25 755,10 785,40 755,70 755,55 746,55" fill="rgb(255,255,255)" fill-opacity="1.0" stroke="rgb(0,0,0)" stroke-width="2"  />
			<g>
				<title>Bac_luciferase (PF00296)
"Luciferase-like monooxygenase"</title>
				<polygon class="PF00296" points="747,28 768,28 780,40 780,40 768,52 747,52" stroke-linejoin="round" width="33" height="24" fill="rgb(180,112,78)" stroke="rgb(144,89,62)" stroke-width="1" opacity="0.75" />
			</g>
		</g>
		<g>
			<title>lim17
putative MarR family DNA-binding transcriptional regulator</title>
			<polygon class="lim17
putative MarR family DNA-binding transcriptional regulator" points="789,40 805,10 805,70" fill="rgb(255,255,255)" fill-opacity="1.0" stroke="rgb(0,0,0)" stroke-width="2"  />
			<g>
				<title>MarR_2 (PF12802)
"MarR family"</title>
				<polygon class="PF12802" points="795,34 798,28 800,28 800,52 798,52 795,46" stroke-linejoin="round" width="5" height="24" fill="rgb(46,89,185)" stroke="rgb(36,71,148)" stroke-width="1" opacity="0.75" />
			</g>
		</g>
		<g>
			<title>lim18
putative amine oxidase</title>
			<polygon class="lim18
putative amine oxidase" points="814,25 832,25 832,10 862,40 832,70 832,55 814,55" fill="rgb(255,255,255)" fill-opacity="1.0" stroke="rgb(0,0,0)" stroke-width="2"  />
			<g>
				<title>Amino_oxidase (PF01593)
"Flavin containing amine oxidoreductase"</title>
				<polygon class="PF01593" points="817,28 845,28 857,40 845,52 817,52" stroke-linejoin="round" width="44" height="24" fill="rgb(184,74,52)" stroke="rgb(147,59,41)" stroke-width="1" opacity="0.75" />
			</g>
		</g>
	</g>
</svg>
