<svg version="1.1" baseProfile="full" xmlns="http://www.w3.org/2000/svg" width="928.2" height="80">
	<g>
		<line x1="10" y1="40.0" x2="918.2" y2="40.0" style="stroke:rgb(70,70,70); stroke-width:3 "/>
		<g>
			<title>
molecular chaperone GroES</title>
			<polygon class="
molecular chaperone GroES" points="10,40 20,10 20,70" fill="rgb(255,255,255)" fill-opacity="1.0" stroke="rgb(0,0,0)" stroke-width="2"  />
		</g>
		<g>
			<title>
mobilization protein</title>
			<polygon class="
mobilization protein" points="19,40 38,10 38,70" fill="rgb(255,255,255)" fill-opacity="1.0" stroke="rgb(0,0,0)" stroke-width="2"  />
			<g>
				<title>ADH_N (PF08240)
"Alcohol dehydrogenase GroES-like domain"</title>
				<polygon class="PF08240" points="23,40 24,38 24,42" stroke-linejoin="round" width="5" height="24" fill="rgb(211,65,138)" stroke="rgb(168,51,110)" stroke-width="1" opacity="0.75" />
			</g>
		</g>
		<g>
			<title>
LSU ribosomal protein L11P</title>
			<polygon class="
LSU ribosomal protein L11P" points="88,40 102,10 102,70" fill="rgb(255,255,255)" fill-opacity="1.0" stroke="rgb(0,0,0)" stroke-width="2"  />
			<g>
				<title>Ribosomal_L11 (PF00298)
"Ribosomal protein L11, RNA binding domain"</title>
				<polygon class="PF00298" points="91,40 94,34 94,46" stroke-linejoin="round" width="6" height="24" fill="rgb(227,212,100)" stroke="rgb(181,169,80)" stroke-width="1" opacity="0.75" />
			</g>
			<g>
				<title>Ribosomal_L11_N (PF03946)
"Ribosomal protein L11, N-terminal domain"</title>
				<polygon class="PF03946" points="95,32 97,28 100,28 100,52 97,52 95,48" stroke-linejoin="round" width="5" height="24" fill="rgb(46,118,184)" stroke="rgb(36,94,147)" stroke-width="1" opacity="0.75" />
			</g>
		</g>
		<g>
			<title>
transposase</title>
			<polygon class="
transposase" points="109,25 115,25 115,10 145,40 115,70 115,55 109,55" fill="rgb(255,255,255)" fill-opacity="1.0" stroke="rgb(0,0,0)" stroke-width="2"  />
			<g>
				<title>HTH_29 (PF13551)
"Winged helix-turn helix"</title>
				<rect class="PF13551" x="112" y="28" stroke-linejoin="round" width="6" height="24" fill="rgb(163,71,225)" stroke="rgb(130,56,180)" stroke-width="1" opacity="0.75" />
			</g>
			<g>
				<title>DDE_3 (PF13358)
"DDE superfamily endonuclease"</title>
				<polygon class="PF13358" points="126,28 129,28 140,39 140,41 129,52 126,52" stroke-linejoin="round" width="14" height="24" fill="rgb(50,81,198)" stroke="rgb(40,64,158)" stroke-width="1" opacity="0.75" />
			</g>
		</g>
		<g>
			<title>
NosO</title>
			<polygon class="
NosO" points="184,25 178,25 178,10 148,40 178,70 178,55 184,55" fill="rgb(255,255,255)" fill-opacity="1.0" stroke="rgb(0,0,0)" stroke-width="2"  />
		</g>
		<g>
			<title>
NosN</title>
			<polygon class="
NosN" points="223,25 214,25 214,10 184,40 214,70 214,55 223,55" fill="rgb(255,255,255)" fill-opacity="1.0" stroke="rgb(0,0,0)" stroke-width="2"  />
			<g>
				<title>Radical_SAM (PF04055)
"Radical SAM superfamily"</title>
				<rect class="PF04055" x="204" y="28" stroke-linejoin="round" width="18" height="24" fill="rgb(149,56,222)" stroke="rgb(119,44,177)" stroke-width="1" opacity="0.75" />
			</g>
		</g>
		<g>
			<title>
NosM</title>
			<polygon class="
NosM" points="230,40 235,10 235,70" fill="rgb(255,255,255)" fill-opacity="1.0" stroke="rgb(0,0,0)" stroke-width="2"  />
		</g>
		<g>
			<title>
NosL</title>
			<polygon class="
NosL" points="247,25 256,25 256,10 286,40 256,70 256,55 247,55" fill="rgb(255,255,255)" fill-opacity="1.0" stroke="rgb(0,0,0)" stroke-width="2"  />
			<g>
				<title>BATS (PF06968)
"Biotin and Thiamin Synthesis associated domain"</title>
				<polygon class="PF06968" points="274,32 282,40 274,48" stroke-linejoin="round" width="10" height="24" fill="rgb(91,179,207)" stroke="rgb(72,143,165)" stroke-width="1" opacity="0.75" />
			</g>
		</g>
		<g>
			<title>
NosK</title>
			<polygon class="
NosK" points="298,10 310,40 298,70" fill="rgb(255,255,255)" fill-opacity="1.0" stroke="rgb(0,0,0)" stroke-width="2"  />
		</g>
		<g>
			<title>
NosI</title>
			<polygon class="
NosI" points="322,25 329,25 329,10 359,40 329,70 329,55 322,55" fill="rgb(255,255,255)" fill-opacity="1.0" stroke="rgb(0,0,0)" stroke-width="2"  />
			<g>
				<title>AMP-binding (PF00501)
"AMP-binding enzyme"</title>
				<polygon class="PF00501" points="323,28 343,28 350,35 350,45 343,52 323,52" stroke-linejoin="round" width="27" height="24" fill="rgb(60,217,223)" stroke="rgb(48,173,178)" stroke-width="1" opacity="0.75" />
			</g>
		</g>
		<g>
			<title>
NosH</title>
			<polygon class="
NosH" points="378,25 396,25 396,10 426,40 396,70 396,55 378,55" fill="rgb(255,255,255)" fill-opacity="1.0" stroke="rgb(0,0,0)" stroke-width="2"  />
		</g>
		<g>
			<title>
NosG</title>
			<polygon class="
NosG" points="432,25 461,25 461,10 491,40 461,70 461,55 432,55" fill="rgb(255,255,255)" fill-opacity="1.0" stroke="rgb(0,0,0)" stroke-width="2"  />
			<g>
				<title>YcaO (PF02624)
"YcaO cyclodehydratase, ATP-ad Mg2+-binding"</title>
				<polygon class="PF02624" points="452,28 474,28 486,40 486,40 474,52 452,52" stroke-linejoin="round" width="34" height="24" fill="rgb(76,84,185)" stroke="rgb(60,67,148)" stroke-width="1" opacity="0.75" />
			</g>
		</g>
		<g>
			<title>
NosF</title>
			<polygon class="
NosF" points="506,25 515,25 515,10 545,40 515,70 515,55 506,55" fill="rgb(255,255,255)" fill-opacity="1.0" stroke="rgb(0,0,0)" stroke-width="2"  />
		</g>
		<g>
			<title>
NosE</title>
			<polygon class="
NosE" points="589,25 607,25 607,10 637,40 607,70 607,55 589,55" fill="rgb(255,255,255)" fill-opacity="1.0" stroke="rgb(0,0,0)" stroke-width="2"  />
			<g>
				<title>Lant_dehydr_N (PF04738)
"Lantibiotic dehydratase, N terminus"</title>
				<polygon class="PF04738" points="594,28 621,28 626,33 626,47 621,52 594,52" stroke-linejoin="round" width="32" height="24" fill="rgb(219,60,229)" stroke="rgb(175,47,183)" stroke-width="1" opacity="0.75" />
			</g>
		</g>
		<g>
			<title>
NosD</title>
			<polygon class="
NosD" points="635,25 640,25 640,10 670,40 640,70 640,55 635,55" fill="rgb(255,255,255)" fill-opacity="1.0" stroke="rgb(0,0,0)" stroke-width="2"  />
			<g>
				<title>Lant_dehydr_C (PF14028)
"Lantibiotic biosynthesis dehydratase C-term"</title>
				<polygon class="PF14028" points="637,28 654,28 666,40 666,40 654,52 637,52" stroke-linejoin="round" width="29" height="24" fill="rgb(107,223,113)" stroke="rgb(85,178,90)" stroke-width="1" opacity="0.75" />
			</g>
		</g>
		<g>
			<title>
NosC</title>
			<polygon class="
NosC" points="672,25 687,25 687,10 717,40 687,70 687,55 672,55" fill="rgb(255,255,255)" fill-opacity="1.0" stroke="rgb(0,0,0)" stroke-width="2"  />
			<g>
				<title>p450 (PF00067)
"Cytochrome P450"</title>
				<polygon class="PF00067" points="680,28 701,28 713,40 701,52 680,52" stroke-linejoin="round" width="36" height="24" fill="rgb(85,216,107)" stroke="rgb(68,172,85)" stroke-width="1" opacity="0.75" />
			</g>
		</g>
		<g>
			<title>
NosB</title>
			<polygon class="
NosB" points="718,25 728,25 728,10 758,40 728,70 728,55 718,55" fill="rgb(255,255,255)" fill-opacity="1.0" stroke="rgb(0,0,0)" stroke-width="2"  />
			<g>
				<title>p450 (PF00067)
"Cytochrome P450"</title>
				<polygon class="PF00067" points="736,28 742,28 744,30 744,50 742,52 736,52" stroke-linejoin="round" width="8" height="24" fill="rgb(85,216,107)" stroke="rgb(68,172,85)" stroke-width="1" opacity="0.75" />
			</g>
			<g>
				<title>p450 (PF00067)
"Cytochrome P450"</title>
				<polygon class="PF00067" points="745,31 754,40 745,49" stroke-linejoin="round" width="13" height="24" fill="rgb(85,216,107)" stroke="rgb(68,172,85)" stroke-width="1" opacity="0.75" />
			</g>
		</g>
		<g>
			<title>
NosA</title>
			<polygon class="
NosA" points="759,10 775,40 759,70" fill="rgb(255,255,255)" fill-opacity="1.0" stroke="rgb(0,0,0)" stroke-width="2"  />
		</g>
		<g>
			<title>
serine/threonine protein kinase</title>
			<polygon class="
serine/threonine protein kinase" points="775,40 790,10 790,70" fill="rgb(255,255,255)" fill-opacity="1.0" stroke="rgb(0,0,0)" stroke-width="2"  />
			<g>
				<title>DUF5946 (PF19371)
"Family of unknown function (DUF5946)"</title>
				<polygon class="PF19371" points="778,40 784,28 789,28 789,52 784,52" stroke-linejoin="round" width="13" height="24" fill="rgb(89,74,219)" stroke="rgb(71,59,175)" stroke-width="1" opacity="0.75" />
			</g>
		</g>
		<g>
			<title>
hypothetical protein</title>
			<polygon class="
hypothetical protein" points="793,40 811,10 811,70" fill="rgb(255,255,255)" fill-opacity="1.0" stroke="rgb(0,0,0)" stroke-width="2"  />
			<g>
				<title>DUF5946 (PF19371)
"Family of unknown function (DUF5946)"</title>
				<polygon class="PF19371" points="797,40 804,28 809,28 809,52 804,52" stroke-linejoin="round" width="14" height="24" fill="rgb(89,74,219)" stroke="rgb(71,59,175)" stroke-width="1" opacity="0.75" />
			</g>
		</g>
		<g>
			<title>
transposase</title>
			<polygon class="
transposase" points="832,40 847,10 847,70" fill="rgb(255,255,255)" fill-opacity="1.0" stroke="rgb(0,0,0)" stroke-width="2"  />
		</g>
		<g>
			<title>
serine/threonine protein kinase</title>
			<polygon class="
serine/threonine protein kinase" points="861,40 876,10 876,70" fill="rgb(255,255,255)" fill-opacity="1.0" stroke="rgb(0,0,0)" stroke-width="2"  />
			<g>
				<title>DUF5959 (PF19384)
"Family of unknown function (DUF5959)"</title>
				<polygon class="PF19384" points="864,40 870,28 875,28 875,52 870,52" stroke-linejoin="round" width="13" height="24" fill="rgb(86,150,226)" stroke="rgb(68,120,180)" stroke-width="1" opacity="0.75" />
			</g>
		</g>
		<g>
			<title>
transposase</title>
			<polygon class="
transposase" points="887,25 887,25 887,10 917,40 887,70 887,55 887,55" fill="rgb(255,255,255)" fill-opacity="1.0" stroke="rgb(0,0,0)" stroke-width="2"  />
			<g>
				<title>DUF4096 (PF13340)
"Putative transposase of IS4/5 family (DUF4096)"</title>
				<rect class="PF13340" x="891" y="28" stroke-linejoin="round" width="7" height="24" fill="rgb(196,73,104)" stroke="rgb(156,58,83)" stroke-width="1" opacity="0.75" />
			</g>
			<g>
				<title>DDE_Tnp_1 (PF01609)
"Transposase DDE domain"</title>
				<polygon class="PF01609" points="900,28 901,28 913,40 901,52 900,52" stroke-linejoin="round" width="15" height="24" fill="rgb(229,102,99)" stroke="rgb(183,81,79)" stroke-width="1" opacity="0.75" />
			</g>
		</g>
	</g>
</svg>
