<svg version="1.1" baseProfile="full" xmlns="http://www.w3.org/2000/svg" width="2316.4" height="80">
	<g>
		<line x1="10" y1="40.0" x2="2306.4" y2="40.0" style="stroke:rgb(70,70,70); stroke-width:3 "/>
		<g>
			<title> (DBP21_21545)
Adenylation-domain-containg protein</title>
			<polygon class=" (DBP21_21545)
Adenylation-domain-containg protein" points="10,25 31,25 31,10 61,40 31,70 31,55 10,55" fill="rgb(255,255,255)" fill-opacity="1.0" stroke="rgb(0,0,0)" stroke-width="2"  />
			<g>
				<title>AMP-binding (PF00501)
"AMP-binding enzyme"</title>
				<polygon class="PF00501" points="12,28 45,28 51,34 51,46 45,52 12,52" stroke-linejoin="round" width="39" height="24" fill="rgb(60,217,223)" stroke="rgb(48,173,178)" stroke-width="1" opacity="0.75" />
			</g>
		</g>
		<g>
			<title> (DBP21_21550)
MbtH family protein</title>
			<polygon class=" (DBP21_21550)
MbtH family protein" points="66,10 73,40 66,70" fill="rgb(255,255,255)" fill-opacity="1.0" stroke="rgb(0,0,0)" stroke-width="2"  />
			<g>
				<title>MbtH (PF03621)
"MbtH-like protein"</title>
				<polygon class="PF03621" points="66,28 66,28 70,40 66,52 66,52" stroke-linejoin="round" width="5" height="24" fill="rgb(212,165,97)" stroke="rgb(169,132,77)" stroke-width="1" opacity="0.75" />
			</g>
		</g>
		<g>
			<title> (DBP21_21555)
ABC transporter ATP binding</title>
			<polygon class=" (DBP21_21555)
ABC transporter ATP binding" points="75,25 76,25 76,10 106,40 76,70 76,55 75,55" fill="rgb(255,255,255)" fill-opacity="1.0" stroke="rgb(0,0,0)" stroke-width="2"  />
			<g>
				<title>ABC_tran (PF00005)
"ABC transporter"</title>
				<polygon class="PF00005" points="76,28 89,28 90,29 90,51 89,52 76,52" stroke-linejoin="round" width="14" height="24" fill="rgb(129,201,63)" stroke="rgb(103,160,50)" stroke-width="1" opacity="0.75" />
			</g>
			<g>
				<title>DUF4162 (PF13732)
"Domain of unknown function (DUF4162)"</title>
				<polygon class="PF13732" points="96,35 101,40 96,45" stroke-linejoin="round" width="9" height="24" fill="rgb(100,223,143)" stroke="rgb(80,178,114)" stroke-width="1" opacity="0.75" />
			</g>
		</g>
		<g>
			<title> (DBP21_21560)
ArsR Transcriptional regulator</title>
			<polygon class=" (DBP21_21560)
ArsR Transcriptional regulator" points="107,25 114,25 114,10 144,40 114,70 114,55 107,55" fill="rgb(255,255,255)" fill-opacity="1.0" stroke="rgb(0,0,0)" stroke-width="2"  />
		</g>
		<g>
			<title> (DBP21_21565)
ABC transporter ATP binding</title>
			<polygon class=" (DBP21_21565)
ABC transporter ATP binding" points="233,25 179,25 179,10 149,40 179,70 179,55 233,55" fill="rgb(255,255,255)" fill-opacity="1.0" stroke="rgb(0,0,0)" stroke-width="2"  />
			<g>
				<title>FtsX (PF02687)
"FtsX-like permease family"</title>
				<polygon class="PF02687" points="153,40 160,33 160,47" stroke-linejoin="round" width="11" height="24" fill="rgb(126,55,214)" stroke="rgb(100,44,171)" stroke-width="1" opacity="0.75" />
			</g>
			<g>
				<title>FtsX (PF02687)
"FtsX-like permease family"</title>
				<rect class="PF02687" x="195" y="28" stroke-linejoin="round" width="12" height="24" fill="rgb(126,55,214)" stroke="rgb(100,44,171)" stroke-width="1" opacity="0.75" />
			</g>
		</g>
		<g>
			<title> (DBP21_21570)
ABC transporter ATP binding</title>
			<polygon class=" (DBP21_21570)
ABC transporter ATP binding" points="233,40 259,10 259,70" fill="rgb(255,255,255)" fill-opacity="1.0" stroke="rgb(0,0,0)" stroke-width="2"  />
			<g>
				<title>ABC_tran (PF00005)
"ABC transporter"</title>
				<polygon class="PF00005" points="241,36 248,28 255,28 255,52 248,52 241,44" stroke-linejoin="round" width="14" height="24" fill="rgb(129,201,63)" stroke="rgb(103,160,50)" stroke-width="1" opacity="0.75" />
			</g>
		</g>
		<g>
			<title> (DBP21_21575)
Hypothetical protein</title>
			<polygon class=" (DBP21_21575)
Hypothetical protein" points="260,40 286,10 286,70" fill="rgb(255,255,255)" fill-opacity="1.0" stroke="rgb(0,0,0)" stroke-width="2"  />
			<g>
				<title>Sensor (PF13796)
"Putative sensor"</title>
				<polygon class="PF13796" points="264,40 274,28 283,28 283,52 274,52 264,40" stroke-linejoin="round" width="19" height="24" fill="rgb(58,158,187)" stroke="rgb(46,126,149)" stroke-width="1" opacity="0.75" />
			</g>
		</g>
		<g>
			<title> (DBP21_21580)
Hypothetical protein</title>
			<polygon class=" (DBP21_21580)
Hypothetical protein" points="286,40 293,10 293,70" fill="rgb(255,255,255)" fill-opacity="1.0" stroke="rgb(0,0,0)" stroke-width="2"  />
		</g>
		<g>
			<title> (DBP21_21585)
ArsR transcriptional regulator</title>
			<polygon class=" (DBP21_21585)
ArsR transcriptional regulator" points="294,40 304,10 304,70" fill="rgb(255,255,255)" fill-opacity="1.0" stroke="rgb(0,0,0)" stroke-width="2"  />
			<g>
				<title>HTH_20 (PF12840)
"Helix-turn-helix domain"</title>
				<polygon class="PF12840" points="298,37 301,28 303,28 303,52 301,52 298,43" stroke-linejoin="round" width="5" height="24" fill="rgb(157,225,93)" stroke="rgb(125,180,74)" stroke-width="1" opacity="0.75" />
			</g>
		</g>
		<g>
			<title> (DBP21_21590)
Flavin reductase</title>
			<polygon class=" (DBP21_21590)
Flavin reductase" points="312,40 329,10 329,70" fill="rgb(255,255,255)" fill-opacity="1.0" stroke="rgb(0,0,0)" stroke-width="2"  />
			<g>
				<title>Flavin_Reduct (PF01613)
"Flavin reductase like domain"</title>
				<polygon class="PF01613" points="315,40 322,28 326,28 326,52 322,52" stroke-linejoin="round" width="14" height="24" fill="rgb(107,197,222)" stroke="rgb(85,157,177)" stroke-width="1" opacity="0.75" />
			</g>
		</g>
		<g>
			<title> (DBP21_21595)
Na/H antiporter</title>
			<polygon class=" (DBP21_21595)
Na/H antiporter" points="372,25 359,25 359,10 329,40 359,70 359,55 372,55" fill="rgb(255,255,255)" fill-opacity="1.0" stroke="rgb(0,0,0)" stroke-width="2"  />
			<g>
				<title>Na_H_Exchanger (PF00999)
"Sodium/hydrogen exchanger family"</title>
				<polygon class="PF00999" points="333,40 345,28 370,28 370,52 345,52" stroke-linejoin="round" width="39" height="24" fill="rgb(229,67,191)" stroke="rgb(183,53,152)" stroke-width="1" opacity="0.75" />
			</g>
		</g>
		<g>
			<title> (DBP21_21600)
Tryptophan-7-halogenase</title>
			<polygon class=" (DBP21_21600)
Tryptophan-7-halogenase" points="427,25 403,25 403,10 373,40 403,70 403,55 427,55" fill="rgb(255,255,255)" fill-opacity="1.0" stroke="rgb(0,0,0)" stroke-width="2"  />
			<g>
				<title>Trp_halogenase (PF04820)
"Tryptophan halogenase"</title>
				<polygon class="PF04820" points="377,40 389,28 423,28 423,52 389,52" stroke-linejoin="round" width="47" height="24" fill="rgb(179,74,194)" stroke="rgb(143,59,155)" stroke-width="1" opacity="0.75" />
			</g>
		</g>
		<g>
			<title> (DBP21_21605)
2,3-diaminopropionate biosynthesis protein SbnB</title>
			<polygon class=" (DBP21_21605)
2,3-diaminopropionate biosynthesis protein SbnB" points="435,25 440,25 440,10 470,40 440,70 440,55 435,55" fill="rgb(255,255,255)" fill-opacity="1.0" stroke="rgb(0,0,0)" stroke-width="2"  />
			<g>
				<title>OCD_Mu_crystall (PF02423)
"Ornithine cyclodeaminase/mu-crystallin family"</title>
				<polygon class="PF02423" points="436,28 454,28 466,40 454,52 436,52" stroke-linejoin="round" width="31" height="24" fill="rgb(221,120,93)" stroke="rgb(176,96,74)" stroke-width="1" opacity="0.75" />
			</g>
		</g>
		<g>
			<title> (DBP21_21610)
2,3-diaminopropionate biosynthesis protein SbnA</title>
			<polygon class=" (DBP21_21610)
2,3-diaminopropionate biosynthesis protein SbnA" points="471,25 473,25 473,10 503,40 473,70 473,55 471,55" fill="rgb(255,255,255)" fill-opacity="1.0" stroke="rgb(0,0,0)" stroke-width="2"  />
			<g>
				<title>PALP (PF00291)
"Pyridoxal-phosphate dependent enzyme"</title>
				<polygon class="PF00291" points="472,28 487,28 499,40 499,40 487,52 472,52" stroke-linejoin="round" width="27" height="24" fill="rgb(180,55,145)" stroke="rgb(144,44,116)" stroke-width="1" opacity="0.75" />
			</g>
		</g>
		<g>
			<title> (DBP21_21615)
MMPL family transporter</title>
			<polygon class=" (DBP21_21615)
MMPL family transporter" points="515,25 557,25 557,10 587,40 557,70 557,55 515,55" fill="rgb(255,255,255)" fill-opacity="1.0" stroke="rgb(0,0,0)" stroke-width="2"  />
			<g>
				<title>MMPL (PF03176)
"MMPL family"</title>
				<rect class="PF03176" x="518" y="28" stroke-linejoin="round" width="32" height="24" fill="rgb(228,109,193)" stroke="rgb(182,87,154)" stroke-width="1" opacity="0.75" />
			</g>
			<g>
				<title>MMPL (PF03176)
"MMPL family"</title>
				<polygon class="PF03176" points="553,28 571,28 583,40 571,52 553,52" stroke-linejoin="round" width="32" height="24" fill="rgb(228,109,193)" stroke="rgb(182,87,154)" stroke-width="1" opacity="0.75" />
			</g>
		</g>
		<g>
			<title> (DBP21_21620)
AfsR/SARP family transcriptional regulator</title>
			<polygon class=" (DBP21_21620)
AfsR/SARP family transcriptional regulator" points="593,10 619,40 593,70" fill="rgb(255,255,255)" fill-opacity="1.0" stroke="rgb(0,0,0)" stroke-width="2"  />
			<g>
				<title>Trans_reg_C (PF00486)
"Transcriptional regulatory protein, C terminal"</title>
				<rect class="PF00486" x="594" y="28" stroke-linejoin="round" width="7" height="24" fill="rgb(204,153,57)" stroke="rgb(163,122,45)" stroke-width="1" opacity="0.75" />
			</g>
			<g>
				<title>BTAD (PF03704)
"Bacterial transcriptional activator domain"</title>
				<polygon class="PF03704" points="603,28 604,28 615,40 604,52 603,52" stroke-linejoin="round" width="14" height="24" fill="rgb(217,89,196)" stroke="rgb(173,71,156)" stroke-width="1" opacity="0.75" />
			</g>
		</g>
		<g>
			<title> (DBP21_21625)
LysR family transcriptional regulator</title>
			<polygon class=" (DBP21_21625)
LysR family transcriptional regulator" points="627,25 629,25 629,10 659,40 629,70 629,55 627,55" fill="rgb(255,255,255)" fill-opacity="1.0" stroke="rgb(0,0,0)" stroke-width="2"  />
			<g>
				<title>HTH_1 (PF00126)
"Bacterial regulatory helix-turn-helix protein, lysR family"</title>
				<rect class="PF00126" x="627" y="28" stroke-linejoin="round" width="5" height="24" fill="rgb(125,227,79)" stroke="rgb(99,181,63)" stroke-width="1" opacity="0.75" />
			</g>
			<g>
				<title>LysR_substrate (PF03466)
"LysR substrate binding domain"</title>
				<polygon class="PF03466" points="635,28 643,28 655,40 655,40 643,52 635,52" stroke-linejoin="round" width="20" height="24" fill="rgb(55,136,195)" stroke="rgb(44,108,156)" stroke-width="1" opacity="0.75" />
			</g>
		</g>
		<g>
			<title> (DBP21_21630)
acyl carrier protein</title>
			<polygon class=" (DBP21_21630)
acyl carrier protein" points="663,10 672,40 663,70" fill="rgb(255,255,255)" fill-opacity="1.0" stroke="rgb(0,0,0)" stroke-width="2"  />
			<g>
				<title>PP-binding (PF00550)
"Phosphopantetheine attachment site"</title>
				<polygon class="PF00550" points="664,28 665,28 669,40 665,52 664,52" stroke-linejoin="round" width="6" height="24" fill="rgb(103,191,88)" stroke="rgb(82,152,70)" stroke-width="1" opacity="0.75" />
			</g>
		</g>
		<g>
			<title> (DBP21_21635)
beta-ketoacyl-[acyl-carrier-protein] synthase family protein</title>
			<polygon class=" (DBP21_21635)
beta-ketoacyl-[acyl-carrier-protein] synthase family protein" points="673,25 684,25 684,10 714,40 684,70 684,55 673,55" fill="rgb(255,255,255)" fill-opacity="1.0" stroke="rgb(0,0,0)" stroke-width="2"  />
			<g>
				<title>ketoacyl-synt (PF00109)
"Beta-ketoacyl synthase, N-terminal domain"</title>
				<rect class="PF00109" x="673" y="28" stroke-linejoin="round" width="23" height="24" fill="rgb(112,116,228)" stroke="rgb(89,92,182)" stroke-width="1" opacity="0.75" />
			</g>
			<g>
				<title>Ketoacyl-synt_C (PF02801)
"Beta-ketoacyl synthase, C-terminal domain"</title>
				<polygon class="PF02801" points="698,29 709,40 709,40 698,51" stroke-linejoin="round" width="11" height="24" fill="rgb(215,78,102)" stroke="rgb(172,62,81)" stroke-width="1" opacity="0.75" />
			</g>
		</g>
		<g>
			<title> (DBP21_21640)
3-oxoacyl-ACP synthase</title>
			<polygon class=" (DBP21_21640)
3-oxoacyl-ACP synthase" points="714,25 720,25 720,10 750,40 720,70 720,55 714,55" fill="rgb(255,255,255)" fill-opacity="1.0" stroke="rgb(0,0,0)" stroke-width="2"  />
			<g>
				<title>ketoacyl-synt (PF00109)
"Beta-ketoacyl synthase, N-terminal domain"</title>
				<polygon class="PF00109" points="714,28 734,28 736,30 736,50 734,52 714,52" stroke-linejoin="round" width="22" height="24" fill="rgb(112,116,228)" stroke="rgb(89,92,182)" stroke-width="1" opacity="0.75" />
			</g>
		</g>
		<g>
			<title> (DBP21_21645)
3-oxoacyl-ACP reductase FabG</title>
			<polygon class=" (DBP21_21645)
3-oxoacyl-ACP reductase FabG" points="754,10 778,40 754,70" fill="rgb(255,255,255)" fill-opacity="1.0" stroke="rgb(0,0,0)" stroke-width="2"  />
			<g>
				<title>adh_short_C2 (PF13561)
"Enoyl-(Acyl carrier protein) reductase"</title>
				<polygon class="PF13561" points="755,28 765,28 775,40 765,52 755,52" stroke-linejoin="round" width="23" height="24" fill="rgb(73,205,127)" stroke="rgb(58,164,101)" stroke-width="1" opacity="0.75" />
			</g>
		</g>
		<g>
			<title> (DBP21_21650)
DsbA family protein</title>
			<polygon class=" (DBP21_21650)
DsbA family protein" points="783,10 806,40 783,70" fill="rgb(255,255,255)" fill-opacity="1.0" stroke="rgb(0,0,0)" stroke-width="2"  />
			<g>
				<title>DSBA (PF01323)
"DSBA-like thioredoxin domain"</title>
				<polygon class="PF01323" points="783,28 793,28 802,40 802,40 793,52 783,52" stroke-linejoin="round" width="19" height="24" fill="rgb(221,114,99)" stroke="rgb(176,91,79)" stroke-width="1" opacity="0.75" />
			</g>
		</g>
		<g>
			<title> (DBP21_21655)
non-ribosomal peptide synthetase</title>
			<polygon class=" (DBP21_21655)
non-ribosomal peptide synthetase" points="811,25 1154,25 1154,10 1184,40 1154,70 1154,55 811,55" fill="rgb(255,255,255)" fill-opacity="1.0" stroke="rgb(0,0,0)" stroke-width="2"  />
			<g>
				<title>Condensation (PF00668)
"Condensation domain"</title>
				<rect class="PF00668" x="811" y="28" stroke-linejoin="round" width="44" height="24" fill="rgb(224,184,98)" stroke="rgb(179,147,78)" stroke-width="1" opacity="0.75" />
			</g>
			<g>
				<title>AMP-binding (PF00501)
"AMP-binding enzyme"</title>
				<rect class="PF00501" x="857" y="28" stroke-linejoin="round" width="40" height="24" fill="rgb(60,217,223)" stroke="rgb(48,173,178)" stroke-width="1" opacity="0.75" />
			</g>
			<g>
				<title>AMP-binding_C (PF13193)
"AMP-binding enzyme C-terminal domain"</title>
				<rect class="PF13193" x="898" y="28" stroke-linejoin="round" width="7" height="24" fill="rgb(182,50,118)" stroke="rgb(145,39,94)" stroke-width="1" opacity="0.75" />
			</g>
			<g>
				<title>PP-binding (PF00550)
"Phosphopantetheine attachment site"</title>
				<rect class="PF00550" x="909" y="28" stroke-linejoin="round" width="6" height="24" fill="rgb(103,191,88)" stroke="rgb(82,152,70)" stroke-width="1" opacity="0.75" />
			</g>
			<g>
				<title>Condensation (PF00668)
"Condensation domain"</title>
				<rect class="PF00668" x="918" y="28" stroke-linejoin="round" width="45" height="24" fill="rgb(224,184,98)" stroke="rgb(179,147,78)" stroke-width="1" opacity="0.75" />
			</g>
			<g>
				<title>Condensation (PF00668)
"Condensation domain"</title>
				<rect class="PF00668" x="966" y="28" stroke-linejoin="round" width="44" height="24" fill="rgb(224,184,98)" stroke="rgb(179,147,78)" stroke-width="1" opacity="0.75" />
			</g>
			<g>
				<title>AMP-binding (PF00501)
"AMP-binding enzyme"</title>
				<rect class="PF00501" x="1012" y="28" stroke-linejoin="round" width="40" height="24" fill="rgb(60,217,223)" stroke="rgb(48,173,178)" stroke-width="1" opacity="0.75" />
			</g>
			<g>
				<title>AMP-binding_C (PF13193)
"AMP-binding enzyme C-terminal domain"</title>
				<rect class="PF13193" x="1052" y="28" stroke-linejoin="round" width="7" height="24" fill="rgb(182,50,118)" stroke="rgb(145,39,94)" stroke-width="1" opacity="0.75" />
			</g>
			<g>
				<title>PP-binding (PF00550)
"Phosphopantetheine attachment site"</title>
				<rect class="PF00550" x="1063" y="28" stroke-linejoin="round" width="6" height="24" fill="rgb(103,191,88)" stroke="rgb(82,152,70)" stroke-width="1" opacity="0.75" />
			</g>
			<g>
				<title>Condensation (PF00668)
"Condensation domain"</title>
				<rect class="PF00668" x="1071" y="28" stroke-linejoin="round" width="45" height="24" fill="rgb(224,184,98)" stroke="rgb(179,147,78)" stroke-width="1" opacity="0.75" />
			</g>
			<g>
				<title>AMP-binding (PF00501)
"AMP-binding enzyme"</title>
				<rect class="PF00501" x="1118" y="28" stroke-linejoin="round" width="18" height="24" fill="rgb(60,217,223)" stroke="rgb(48,173,178)" stroke-width="1" opacity="0.75" />
			</g>
			<g>
				<title>PP-binding (PF00550)
"Phosphopantetheine attachment site"</title>
				<rect class="PF00550" x="1147" y="28" stroke-linejoin="round" width="6" height="24" fill="rgb(103,191,88)" stroke="rgb(82,152,70)" stroke-width="1" opacity="0.75" />
			</g>
			<g>
				<title>Thioesterase (PF00975)
"Thioesterase domain"</title>
				<polygon class="PF00975" points="1159,28 1168,28 1180,40 1168,52 1159,52" stroke-linejoin="round" width="23" height="24" fill="rgb(207,80,138)" stroke="rgb(165,63,110)" stroke-width="1" opacity="0.75" />
			</g>
		</g>
		<g>
			<title> (DBP21_21660)
ABC transporter permease</title>
			<polygon class=" (DBP21_21660)
ABC transporter permease" points="1189,10 1215,40 1189,70" fill="rgb(255,255,255)" fill-opacity="1.0" stroke="rgb(0,0,0)" stroke-width="2"  />
			<g>
				<title>ABC2_membrane (PF01061)
"ABC-2 type transporter"</title>
				<polygon class="PF01061" points="1189,28 1201,28 1210,39 1210,41 1201,52 1189,52" stroke-linejoin="round" width="21" height="24" fill="rgb(139,217,106)" stroke="rgb(111,173,84)" stroke-width="1" opacity="0.75" />
			</g>
		</g>
		<g>
			<title> (DBP21_21665)
cytochrome P450</title>
			<polygon class=" (DBP21_21665)
cytochrome P450" points="1216,25 1227,25 1227,10 1257,40 1227,70 1227,55 1216,55" fill="rgb(255,255,255)" fill-opacity="1.0" stroke="rgb(0,0,0)" stroke-width="2"  />
			<g>
				<title>p450 (PF00067)
"Cytochrome P450"</title>
				<polygon class="PF00067" points="1243,30 1253,40 1243,50" stroke-linejoin="round" width="11" height="24" fill="rgb(85,216,107)" stroke="rgb(68,172,85)" stroke-width="1" opacity="0.75" />
			</g>
		</g>
		<g>
			<title> (DBP21_21670)
TauD/TfdA family dioxygenase</title>
			<polygon class=" (DBP21_21670)
TauD/TfdA family dioxygenase" points="1257,25 1259,25 1259,10 1289,40 1259,70 1259,55 1257,55" fill="rgb(255,255,255)" fill-opacity="1.0" stroke="rgb(0,0,0)" stroke-width="2"  />
			<g>
				<title>TauD (PF02668)
"Taurine catabolism dioxygenase TauD, TfdA family"</title>
				<polygon class="PF02668" points="1259,28 1273,28 1285,40 1273,52 1259,52" stroke-linejoin="round" width="29" height="24" fill="rgb(180,79,217)" stroke="rgb(144,63,173)" stroke-width="1" opacity="0.75" />
			</g>
		</g>
		<g>
			<title> (DBP21_21675)
FkbM family methyltransferase</title>
			<polygon class=" (DBP21_21675)
FkbM family methyltransferase" points="1291,40 1320,10 1320,70" fill="rgb(255,255,255)" fill-opacity="1.0" stroke="rgb(0,0,0)" stroke-width="2"  />
			<g>
				<title>Methyltransf_21 (PF05050)
"Methyltransferase FkbM domain"</title>
				<polygon class="PF05050" points="1295,40 1307,28 1312,28 1312,52 1307,52" stroke-linejoin="round" width="19" height="24" fill="rgb(95,204,52)" stroke="rgb(76,163,41)" stroke-width="1" opacity="0.75" />
			</g>
		</g>
		<g>
			<title> (DBP21_21680)
indole-3-glycerol phosphate synthase TrpC</title>
			<polygon class=" (DBP21_21680)
indole-3-glycerol phosphate synthase TrpC" points="1326,10 1353,40 1326,70" fill="rgb(255,255,255)" fill-opacity="1.0" stroke="rgb(0,0,0)" stroke-width="2"  />
			<g>
				<title>IGPS (PF00218)
"Indole-3-glycerol phosphate synthase"</title>
				<polygon class="PF00218" points="1326,28 1337,28 1349,40 1337,52 1326,52" stroke-linejoin="round" width="25" height="24" fill="rgb(183,89,153)" stroke="rgb(146,71,122)" stroke-width="1" opacity="0.75" />
			</g>
		</g>
		<g>
			<title>trpD (DBP21_21685)
anthranilate phosphoribosyltransferase</title>
			<polygon class="trpD (DBP21_21685)
anthranilate phosphoribosyltransferase" points="1387,25 1382,25 1382,10 1352,40 1382,70 1382,55 1387,55" fill="rgb(255,255,255)" fill-opacity="1.0" stroke="rgb(0,0,0)" stroke-width="2"  />
			<g>
				<title>Glycos_transf_3 (PF00591)
"Glycosyl transferase family, a/b domain"</title>
				<polygon class="PF00591" points="1356,40 1368,28 1378,28 1378,52 1368,52" stroke-linejoin="round" width="25" height="24" fill="rgb(73,116,182)" stroke="rgb(58,92,145)" stroke-width="1" opacity="0.75" />
			</g>
			<g>
				<title>Glycos_trans_3N (PF02885)
"Glycosyl transferase family, helical bundle domain"</title>
				<rect class="PF02885" x="1380" y="28" stroke-linejoin="round" width="6" height="24" fill="rgb(156,69,183)" stroke="rgb(124,55,146)" stroke-width="1" opacity="0.75" />
			</g>
		</g>
		<g>
			<title> (DBP21_21690)
PLP-dependent aminotransferase family protein</title>
			<polygon class=" (DBP21_21690)
PLP-dependent aminotransferase family protein" points="1392,25 1408,25 1408,10 1438,40 1408,70 1408,55 1392,55" fill="rgb(255,255,255)" fill-opacity="1.0" stroke="rgb(0,0,0)" stroke-width="2"  />
			<g>
				<title>GntR (PF00392)
"Bacterial regulatory proteins, gntR family"</title>
				<rect class="PF00392" x="1393" y="28" stroke-linejoin="round" width="6" height="24" fill="rgb(160,85,194)" stroke="rgb(127,68,155)" stroke-width="1" opacity="0.75" />
			</g>
			<g>
				<title>Aminotran_1_2 (PF00155)
"Aminotransferase class I and II"</title>
				<polygon class="PF00155" points="1403,28 1422,28 1434,40 1422,52 1403,52" stroke-linejoin="round" width="34" height="24" fill="rgb(89,113,198)" stroke="rgb(71,90,158)" stroke-width="1" opacity="0.75" />
			</g>
		</g>
		<g>
			<title> (DBP21_21695)
aminodeoxychorismate/anthranilate synthase component II</title>
			<polygon class=" (DBP21_21695)
aminodeoxychorismate/anthranilate synthase component II" points="1437,40 1458,10 1458,70" fill="rgb(255,255,255)" fill-opacity="1.0" stroke="rgb(0,0,0)" stroke-width="2"  />
			<g>
				<title>GATase (PF00117)
"Glutamine amidotransferase class-I"</title>
				<polygon class="PF00117" points="1441,40 1449,28 1457,28 1457,52 1449,52" stroke-linejoin="round" width="18" height="24" fill="rgb(159,201,96)" stroke="rgb(127,160,76)" stroke-width="1" opacity="0.75" />
			</g>
		</g>
		<g>
			<title> (DBP21_21700)
anthranilate synthase component I family protein</title>
			<polygon class=" (DBP21_21700)
anthranilate synthase component I family protein" points="1510,25 1490,25 1490,10 1460,40 1490,70 1490,55 1510,55" fill="rgb(255,255,255)" fill-opacity="1.0" stroke="rgb(0,0,0)" stroke-width="2"  />
			<g>
				<title>Chorismate_bind (PF00425)
"chorismate binding enzyme"</title>
				<polygon class="PF00425" points="1464,40 1476,28 1486,28 1486,52 1476,52" stroke-linejoin="round" width="25" height="24" fill="rgb(188,116,88)" stroke="rgb(150,92,70)" stroke-width="1" opacity="0.75" />
			</g>
			<g>
				<title>Anth_synt_I_N (PF04715)
"Anthranilate synthase component I, N terminal region"</title>
				<rect class="PF04715" x="1492" y="28" stroke-linejoin="round" width="16" height="24" fill="rgb(163,87,183)" stroke="rgb(130,69,146)" stroke-width="1" opacity="0.75" />
			</g>
		</g>
		<g>
			<title> (DBP21_21705)
3-deoxy-7-phosphoheptulonate synthase class II</title>
			<polygon class=" (DBP21_21705)
3-deoxy-7-phosphoheptulonate synthase class II" points="1521,25 1537,25 1537,10 1567,40 1537,70 1537,55 1521,55" fill="rgb(255,255,255)" fill-opacity="1.0" stroke="rgb(0,0,0)" stroke-width="2"  />
			<g>
				<title>DAHP_synth_2 (PF01474)
"Class-II DAHP synthetase family"</title>
				<polygon class="PF01474" points="1522,28 1551,28 1563,40 1551,52 1522,52" stroke-linejoin="round" width="43" height="24" fill="rgb(126,217,84)" stroke="rgb(100,173,67)" stroke-width="1" opacity="0.75" />
			</g>
		</g>
		<g>
			<title> (DBP21_21710)
thioesterase</title>
			<polygon class=" (DBP21_21710)
thioesterase" points="1567,40 1591,10 1591,70" fill="rgb(255,255,255)" fill-opacity="1.0" stroke="rgb(0,0,0)" stroke-width="2"  />
			<g>
				<title>Thioesterase (PF00975)
"Thioesterase domain"</title>
				<polygon class="PF00975" points="1571,40 1581,28 1589,28 1589,52 1581,52" stroke-linejoin="round" width="22" height="24" fill="rgb(207,80,138)" stroke="rgb(165,63,110)" stroke-width="1" opacity="0.75" />
			</g>
		</g>
		<g>
			<title> (DBP21_21715)
tetratricopeptide repeat protein</title>
			<polygon class=" (DBP21_21715)
tetratricopeptide repeat protein" points="1707,25 1639,25 1639,10 1609,40 1639,70 1639,55 1707,55" fill="rgb(255,255,255)" fill-opacity="1.0" stroke="rgb(0,0,0)" stroke-width="2"  />
			<g>
				<title>TPR_12 (PF13424)
"Tetratricopeptide repeat"</title>
				<polygon class="PF13424" points="1623,30 1625,28 1630,28 1630,52 1625,52 1623,50" stroke-linejoin="round" width="7" height="24" fill="rgb(147,215,101)" stroke="rgb(117,172,80)" stroke-width="1" opacity="0.75" />
			</g>
			<g>
				<title>NB-ARC (PF00931)
"NB-ARC domain"</title>
				<rect class="PF00931" x="1655" y="28" stroke-linejoin="round" width="22" height="24" fill="rgb(165,94,211)" stroke="rgb(132,75,168)" stroke-width="1" opacity="0.75" />
			</g>
			<g>
				<title>BTAD (PF03704)
"Bacterial transcriptional activator domain"</title>
				<rect class="PF03704" x="1681" y="28" stroke-linejoin="round" width="14" height="24" fill="rgb(217,89,196)" stroke="rgb(173,71,156)" stroke-width="1" opacity="0.75" />
			</g>
			<g>
				<title>Trans_reg_C (PF00486)
"Transcriptional regulatory protein, C terminal"</title>
				<rect class="PF00486" x="1695" y="28" stroke-linejoin="round" width="7" height="24" fill="rgb(204,153,57)" stroke="rgb(163,122,45)" stroke-width="1" opacity="0.75" />
			</g>
		</g>
		<g>
			<title> (DBP21_21720)
amidohydrolase</title>
			<polygon class=" (DBP21_21720)
amidohydrolase" points="1718,25 1728,25 1728,10 1758,40 1728,70 1728,55 1718,55" fill="rgb(255,255,255)" fill-opacity="1.0" stroke="rgb(0,0,0)" stroke-width="2"  />
			<g>
				<title>Amidohydro_2 (PF04909)
"Amidohydrolase"</title>
				<polygon class="PF04909" points="1719,28 1742,28 1754,40 1742,52 1719,52" stroke-linejoin="round" width="37" height="24" fill="rgb(95,225,123)" stroke="rgb(76,180,98)" stroke-width="1" opacity="0.75" />
			</g>
		</g>
		<g>
			<title> (DBP21_21725)
MerR family transcriptional regulator</title>
			<polygon class=" (DBP21_21725)
MerR family transcriptional regulator" points="1762,40 1789,10 1789,70" fill="rgb(255,255,255)" fill-opacity="1.0" stroke="rgb(0,0,0)" stroke-width="2"  />
			<g>
				<title>GyrI-like (PF06445)
"GyrI-like small molecule binding domain"</title>
				<polygon class="PF06445" points="1766,40 1777,28 1777,28 1777,52 1777,52" stroke-linejoin="round" width="15" height="24" fill="rgb(61,183,118)" stroke="rgb(48,146,94)" stroke-width="1" opacity="0.75" />
			</g>
			<g>
				<title>MerR_1 (PF13411)
"MerR HTH family regulatory protein"</title>
				<rect class="PF13411" x="1782" y="28" stroke-linejoin="round" width="7" height="24" fill="rgb(100,202,107)" stroke="rgb(80,161,85)" stroke-width="1" opacity="0.75" />
			</g>
		</g>
		<g>
			<title> (DBP21_21730)
cold-shock protein</title>
			<polygon class=" (DBP21_21730)
cold-shock protein" points="1795,40 1801,10 1801,70" fill="rgb(255,255,255)" fill-opacity="1.0" stroke="rgb(0,0,0)" stroke-width="2"  />
			<g>
				<title>CSD (PF00313)
"'Cold-shock' DNA-binding domain"</title>
				<polygon class="PF00313" points="1798,40 1801,28 1801,28 1801,52 1801,52" stroke-linejoin="round" width="6" height="24" fill="rgb(87,72,181)" stroke="rgb(69,57,144)" stroke-width="1" opacity="0.75" />
			</g>
		</g>
		<g>
			<title> (DBP21_21735)
menaquinone biosynthesis protein</title>
			<polygon class=" (DBP21_21735)
menaquinone biosynthesis protein" points="1811,10 1840,40 1811,70" fill="rgb(255,255,255)" fill-opacity="1.0" stroke="rgb(0,0,0)" stroke-width="2"  />
			<g>
				<title>VitK2_biosynth (PF02621)
"Menaquinone biosynthesis"</title>
				<polygon class="PF02621" points="1812,28 1824,28 1836,40 1824,52 1812,52" stroke-linejoin="round" width="25" height="24" fill="rgb(88,139,189)" stroke="rgb(70,111,151)" stroke-width="1" opacity="0.75" />
			</g>
		</g>
		<g>
			<title> (DBP21_21740)
serine/threonine protein kinase</title>
			<polygon class=" (DBP21_21740)
serine/threonine protein kinase" points="1850,25 1887,25 1887,10 1917,40 1887,70 1887,55 1850,55" fill="rgb(255,255,255)" fill-opacity="1.0" stroke="rgb(0,0,0)" stroke-width="2"  />
			<g>
				<title>Pkinase (PF00069)
"Protein kinase domain"</title>
				<rect class="PF00069" x="1851" y="28" stroke-linejoin="round" width="24" height="24" fill="rgb(104,187,65)" stroke="rgb(83,149,51)" stroke-width="1" opacity="0.75" />
			</g>
		</g>
		<g>
			<title>mqnC (DBP21_21745)
dehypoxanthine futalosine cyclase</title>
			<polygon class="mqnC (DBP21_21745)
dehypoxanthine futalosine cyclase" points="1921,25 1931,25 1931,10 1961,40 1931,70 1931,55 1921,55" fill="rgb(255,255,255)" fill-opacity="1.0" stroke="rgb(0,0,0)" stroke-width="2"  />
			<g>
				<title>Radical_SAM (PF04055)
"Radical SAM superfamily"</title>
				<rect class="PF04055" x="1927" y="28" stroke-linejoin="round" width="17" height="24" fill="rgb(149,56,222)" stroke="rgb(119,44,177)" stroke-width="1" opacity="0.75" />
			</g>
			<g>
				<title>CofH_C (PF19288)
"CofH/MqnC C-terminal region"</title>
				<polygon class="PF19288" points="1945,29 1956,40 1956,40 1945,51" stroke-linejoin="round" width="11" height="24" fill="rgb(84,145,187)" stroke="rgb(67,116,149)" stroke-width="1" opacity="0.75" />
			</g>
		</g>
		<g>
			<title> (DBP21_21750)
hypothetical protein</title>
			<polygon class=" (DBP21_21750)
hypothetical protein" points="1961,10 1983,40 1961,70" fill="rgb(255,255,255)" fill-opacity="1.0" stroke="rgb(0,0,0)" stroke-width="2"  />
		</g>
		<g>
			<title> (DBP21_21755)
DUF3152 domain-containing protein</title>
			<polygon class=" (DBP21_21755)
DUF3152 domain-containing protein" points="2018,25 2014,25 2014,10 1984,40 2014,70 2014,55 2018,55" fill="rgb(255,255,255)" fill-opacity="1.0" stroke="rgb(0,0,0)" stroke-width="2"  />
			<g>
				<title>DUF3152 (PF11350)
"Protein of unknown function (DUF3152)"</title>
				<polygon class="PF11350" points="1988,40 2000,28 2002,28 2002,52 2000,52" stroke-linejoin="round" width="17" height="24" fill="rgb(66,169,188)" stroke="rgb(52,135,150)" stroke-width="1" opacity="0.75" />
			</g>
		</g>
		<g>
			<title> (DBP21_21760)
hypothetical protein</title>
			<polygon class=" (DBP21_21760)
hypothetical protein" points="2019,40 2035,10 2035,70" fill="rgb(255,255,255)" fill-opacity="1.0" stroke="rgb(0,0,0)" stroke-width="2"  />
		</g>
		<g>
			<title> (DBP21_21765)
SigE family RNA polymerase sigma factor</title>
			<polygon class=" (DBP21_21765)
SigE family RNA polymerase sigma factor" points="2036,40 2053,10 2053,70" fill="rgb(255,255,255)" fill-opacity="1.0" stroke="rgb(0,0,0)" stroke-width="2"  />
			<g>
				<title>Sigma70_r4_2 (PF08281)
"Sigma-70, region 4"</title>
				<polygon class="PF08281" points="2039,40 2042,35 2042,45" stroke-linejoin="round" width="5" height="24" fill="rgb(222,103,144)" stroke="rgb(177,82,115)" stroke-width="1" opacity="0.75" />
			</g>
			<g>
				<title>Sigma70_r2 (PF04542)
"Sigma-70 region 2"</title>
				<polygon class="PF04542" points="2045,29 2046,28 2051,28 2051,52 2046,52 2045,51" stroke-linejoin="round" width="6" height="24" fill="rgb(184,59,197)" stroke="rgb(147,47,157)" stroke-width="1" opacity="0.75" />
			</g>
		</g>
		<g>
			<title> (DBP21_21770)
demethylmenaquinone methyltransferase</title>
			<polygon class=" (DBP21_21770)
demethylmenaquinone methyltransferase" points="2061,10 2084,40 2061,70" fill="rgb(255,255,255)" fill-opacity="1.0" stroke="rgb(0,0,0)" stroke-width="2"  />
			<g>
				<title>Ubie_methyltran (PF01209)
"ubiE/COQ5 methyltransferase family"</title>
				<polygon class="PF01209" points="2061,28 2071,28 2080,40 2071,52 2061,52" stroke-linejoin="round" width="22" height="24" fill="rgb(90,83,226)" stroke="rgb(72,66,180)" stroke-width="1" opacity="0.75" />
			</g>
		</g>
		<g>
			<title> (DBP21_21775)
GNAT family N-acetyltransferase</title>
			<polygon class=" (DBP21_21775)
GNAT family N-acetyltransferase" points="2085,40 2102,10 2102,70" fill="rgb(255,255,255)" fill-opacity="1.0" stroke="rgb(0,0,0)" stroke-width="2"  />
			<g>
				<title>Acetyltransf_3 (PF13302)
"Acetyltransferase (GNAT) domain"</title>
				<polygon class="PF13302" points="2088,40 2095,28 2101,28 2101,52 2095,52" stroke-linejoin="round" width="14" height="24" fill="rgb(105,146,215)" stroke="rgb(84,116,172)" stroke-width="1" opacity="0.75" />
			</g>
		</g>
		<g>
			<title> (DBP21_21780)
geranylgeranyl reductase family protein</title>
			<polygon class=" (DBP21_21780)
geranylgeranyl reductase family protein" points="2106,25 2118,25 2118,10 2148,40 2118,70 2118,55 2106,55" fill="rgb(255,255,255)" fill-opacity="1.0" stroke="rgb(0,0,0)" stroke-width="2"  />
			<g>
				<title>FAD_binding_3 (PF01494)
"FAD binding domain"</title>
				<rect class="PF01494" x="2106" y="28" stroke-linejoin="round" width="21" height="24" fill="rgb(182,175,59)" stroke="rgb(145,140,47)" stroke-width="1" opacity="0.75" />
			</g>
		</g>
		<g>
			<title> (DBP21_21785)
CGNR zinc finger domain-containing protein</title>
			<polygon class=" (DBP21_21785)
CGNR zinc finger domain-containing protein" points="2151,40 2171,10 2171,70" fill="rgb(255,255,255)" fill-opacity="1.0" stroke="rgb(0,0,0)" stroke-width="2"  />
			<g>
				<title>zf-CGNR (PF11706)
"CGNR zinc finger"</title>
				<polygon class="PF11706" points="2155,40 2156,39 2156,41" stroke-linejoin="round" width="4" height="24" fill="rgb(115,70,216)" stroke="rgb(92,56,172)" stroke-width="1" opacity="0.75" />
			</g>
			<g>
				<title>ABATE (PF07336)
"Putative stress-induced transcription regulator"</title>
				<polygon class="PF07336" points="2156,39 2163,28 2170,28 2170,52 2163,52 2156,41" stroke-linejoin="round" width="14" height="24" fill="rgb(138,187,82)" stroke="rgb(110,149,65)" stroke-width="1" opacity="0.75" />
			</g>
		</g>
		<g>
			<title> (DBP21_21790)
metallophosphoesterase</title>
			<polygon class=" (DBP21_21790)
metallophosphoesterase" points="2175,10 2199,40 2175,70" fill="rgb(255,255,255)" fill-opacity="1.0" stroke="rgb(0,0,0)" stroke-width="2"  />
			<g>
				<title>Metallophos (PF00149)
"Calcineurin-like phosphoesterase"</title>
				<polygon class="PF00149" points="2175,28 2186,28 2193,37 2193,43 2186,52 2175,52" stroke-linejoin="round" width="18" height="24" fill="rgb(181,197,58)" stroke="rgb(144,157,46)" stroke-width="1" opacity="0.75" />
			</g>
		</g>
		<g>
			<title> (DBP21_21795)
MFS transporter</title>
			<polygon class=" (DBP21_21795)
MFS transporter" points="2225,25 2236,25 2236,10 2266,40 2236,70 2236,55 2225,55" fill="rgb(255,255,255)" fill-opacity="1.0" stroke="rgb(0,0,0)" stroke-width="2"  />
			<g>
				<title>MFS_1 (PF07690)
"Major Facilitator Superfamily"</title>
				<polygon class="PF07690" points="2225,28 2250,28 2257,35 2257,45 2250,52 2225,52" stroke-linejoin="round" width="32" height="24" fill="rgb(193,224,74)" stroke="rgb(154,179,59)" stroke-width="1" opacity="0.75" />
			</g>
		</g>
		<g>
			<title> (DBP21_21800)
C40 family peptidase</title>
			<polygon class=" (DBP21_21800)
C40 family peptidase" points="2266,40 2294,10 2294,70" fill="rgb(255,255,255)" fill-opacity="1.0" stroke="rgb(0,0,0)" stroke-width="2"  />
			<g>
				<title>NLPC_P60 (PF00877)
"NlpC/P60 family"</title>
				<polygon class="PF00877" points="2270,40 2275,35 2275,45" stroke-linejoin="round" width="9" height="24" fill="rgb(187,86,137)" stroke="rgb(149,68,109)" stroke-width="1" opacity="0.75" />
			</g>
		</g>
	</g>
</svg>
