<svg version="1.1" baseProfile="full" xmlns="http://www.w3.org/2000/svg" width="99.93333333333334" height="80">
	<g>
		<line x1="10" y1="40.0" x2="89.93333333333334" y2="40.0" style="stroke:rgb(70,70,70); stroke-width:3 "/>
		<g>
			<title>
putative response regulator</title>
			<polygon class="
putative response regulator" points="10,40 26,10 26,70" fill="rgb(255,255,255)" fill-opacity="1.0" stroke="rgb(0,0,0)" stroke-width="2"  />
			<g>
				<title>Response_reg (PF00072)
"Response regulator receiver domain"</title>
				<polygon class="PF00072" points="13,40 19,28 24,28 24,52 19,52 13,40" stroke-linejoin="round" width="11" height="24" fill="rgb(100,107,203)" stroke="rgb(80,85,162)" stroke-width="1" opacity="0.75" />
			</g>
		</g>
		<g>
			<title>
salivaricin G32</title>
			<polygon class="
salivaricin G32" points="34,10 39,40 34,70" fill="rgb(255,255,255)" fill-opacity="1.0" stroke="rgb(0,0,0)" stroke-width="2"  />
			<g>
				<title>L_biotic_typeA (PF04604)
"Type-A lantibiotic"</title>
				<polygon class="PF04604" points="34,29 35,40 34,51" stroke-linejoin="round" width="4" height="24" fill="rgb(206,129,75)" stroke="rgb(164,103,60)" stroke-width="1" opacity="0.75" />
			</g>
		</g>
		<g>
			<title>
salivaricin G32</title>
			<polygon class="
salivaricin G32" points="40,10 45,40 40,70" fill="rgb(255,255,255)" fill-opacity="1.0" stroke="rgb(0,0,0)" stroke-width="2"  />
			<g>
				<title>L_biotic_typeA (PF04604)
"Type-A lantibiotic"</title>
				<polygon class="PF04604" points="40,29 41,40 40,51" stroke-linejoin="round" width="4" height="24" fill="rgb(206,129,75)" stroke="rgb(164,103,60)" stroke-width="1" opacity="0.75" />
			</g>
		</g>
		<g>
			<title>
SlnA1 putative lantibiotic-like protein</title>
			<polygon class="
SlnA1 putative lantibiotic-like protein" points="53,10 58,40 53,70" fill="rgb(255,255,255)" fill-opacity="1.0" stroke="rgb(0,0,0)" stroke-width="2"  />
			<g>
				<title>L_biotic_typeA (PF04604)
"Type-A lantibiotic"</title>
				<polygon class="PF04604" points="53,28 55,40 53,52" stroke-linejoin="round" width="5" height="24" fill="rgb(206,129,75)" stroke="rgb(164,103,60)" stroke-width="1" opacity="0.75" />
			</g>
		</g>
		<g>
			<title>
putative lantibiotic modification enzyme</title>
			<polygon class="
putative lantibiotic modification enzyme" points="59,25 59,25 59,10 89,40 59,70 59,55 59,55" fill="rgb(255,255,255)" fill-opacity="1.0" stroke="rgb(0,0,0)" stroke-width="2"  />
			<g>
				<title>DUF4135 (PF13575)
"Domain of unknown function (DUF4135)"</title>
				<polygon class="PF13575" points="68,28 72,28 84,40 72,52 68,52" stroke-linejoin="round" width="20" height="24" fill="rgb(228,84,217)" stroke="rgb(182,67,173)" stroke-width="1" opacity="0.75" />
			</g>
		</g>
	</g>
</svg>
