<svg version="1.1" baseProfile="full" xmlns="http://www.w3.org/2000/svg" width="411.5" height="80">
	<g>
		<line x1="10" y1="40.0" x2="401.5" y2="40.0" style="stroke:rgb(70,70,70); stroke-width:3 "/>
		<g>
			<title>lipB
LipB</title>
			<polygon class="lipB
LipB" points="10,40 25,10 25,70" fill="rgb(255,255,255)" fill-opacity="1.0" stroke="rgb(0,0,0)" stroke-width="2"  />
			<g>
				<title>Capsule_synth (PF05159)
"Capsule polysaccharide biosynthesis protein"</title>
				<polygon class="PF05159" points="13,40 16,34 16,46" stroke-linejoin="round" width="6" height="24" fill="rgb(183,215,64)" stroke="rgb(146,172,51)" stroke-width="1" opacity="0.75" />
			</g>
		</g>
		<g>
			<title>ecbA
UDP-N-acetylglucosamine 2-epimerase EcbA</title>
			<polygon class="ecbA
UDP-N-acetylglucosamine 2-epimerase EcbA" points="37,25 44,25 44,10 74,40 44,70 44,55 37,55" fill="rgb(255,255,255)" fill-opacity="1.0" stroke="rgb(0,0,0)" stroke-width="2"  />
			<g>
				<title>Epimerase_2 (PF02350)
"UDP-N-acetylglucosamine 2-epimerase"</title>
				<polygon class="PF02350" points="39,28 58,28 70,40 58,52 39,52" stroke-linejoin="round" width="34" height="24" fill="rgb(212,113,103)" stroke="rgb(169,90,82)" stroke-width="1" opacity="0.75" />
			</g>
		</g>
		<g>
			<title>ecbB
UDP-N-acetyl-D-mannosaminuronic acid dehydrogenase EcbB</title>
			<polygon class="ecbB
UDP-N-acetyl-D-mannosaminuronic acid dehydrogenase EcbB" points="75,25 87,25 87,10 117,40 87,70 87,55 75,55" fill="rgb(255,255,255)" fill-opacity="1.0" stroke="rgb(0,0,0)" stroke-width="2"  />
			<g>
				<title>UDPG_MGDP_dh_N (PF03721)
"UDP-glucose/GDP-mannose dehydrogenase family, NAD binding domain"</title>
				<rect class="PF03721" x="75" y="28" stroke-linejoin="round" width="18" height="24" fill="rgb(156,194,58)" stroke="rgb(124,155,46)" stroke-width="1" opacity="0.75" />
			</g>
			<g>
				<title>UDPG_MGDP_dh (PF00984)
"UDP-glucose/GDP-mannose dehydrogenase family, central domain"</title>
				<polygon class="PF00984" points="95,28 101,28 103,30 103,50 101,52 95,52" stroke-linejoin="round" width="8" height="24" fill="rgb(69,189,184)" stroke="rgb(55,151,147)" stroke-width="1" opacity="0.75" />
			</g>
			<g>
				<title>UDPG_MGDP_dh_C (PF03720)
"UDP-glucose/GDP-mannose dehydrogenase family, UDP binding domain"</title>
				<polygon class="PF03720" points="107,34 113,40 107,46" stroke-linejoin="round" width="9" height="24" fill="rgb(221,130,74)" stroke="rgb(176,103,59)" stroke-width="1" opacity="0.75" />
			</g>
		</g>
		<g>
			<title>ecbJ
putative glycosyltransferase EcbJ</title>
			<polygon class="ecbJ
putative glycosyltransferase EcbJ" points="118,25 158,25 158,10 188,40 158,70 158,55 118,55" fill="rgb(255,255,255)" fill-opacity="1.0" stroke="rgb(0,0,0)" stroke-width="2"  />
			<g>
				<title>Glycos_transf_2 (PF00535)
"Glycosyl transferase family 2"</title>
				<polygon class="PF00535" points="165,28 172,28 179,35 179,45 172,52 165,52" stroke-linejoin="round" width="14" height="24" fill="rgb(224,122,96)" stroke="rgb(179,97,76)" stroke-width="1" opacity="0.75" />
			</g>
		</g>
		<g>
			<title>ecbK
EcbK</title>
			<polygon class="ecbK
EcbK" points="189,25 199,25 199,10 229,40 199,70 199,55 189,55" fill="rgb(255,255,255)" fill-opacity="1.0" stroke="rgb(0,0,0)" stroke-width="2"  />
		</g>
		<g>
			<title>ecbD
EcbD</title>
			<polygon class="ecbD
EcbD" points="229,25 240,25 240,10 270,40 240,70 240,55 229,55" fill="rgb(255,255,255)" fill-opacity="1.0" stroke="rgb(0,0,0)" stroke-width="2"  />
		</g>
		<g>
			<title>ecbE
EcbE</title>
			<polygon class="ecbE
EcbE" points="272,10 294,40 272,70" fill="rgb(255,255,255)" fill-opacity="1.0" stroke="rgb(0,0,0)" stroke-width="2"  />
		</g>
		<g>
			<title>ecbF
EcbF</title>
			<polygon class="ecbF
EcbF" points="296,10 308,40 296,70" fill="rgb(255,255,255)" fill-opacity="1.0" stroke="rgb(0,0,0)" stroke-width="2"  />
		</g>
		<g>
			<title>ecbG
EcbG</title>
			<polygon class="ecbG
EcbG" points="309,25 331,25 331,10 361,40 331,70 331,55 309,55" fill="rgb(255,255,255)" fill-opacity="1.0" stroke="rgb(0,0,0)" stroke-width="2"  />
			<g>
				<title>APH (PF01636)
"Phosphotransferase enzyme family"</title>
				<polygon class="PF01636" points="328,28 345,28 352,35 352,45 345,52 328,52" stroke-linejoin="round" width="24" height="24" fill="rgb(106,220,228)" stroke="rgb(84,176,182)" stroke-width="1" opacity="0.75" />
			</g>
		</g>
		<g>
			<title>ecbI
EcbI</title>
			<polygon class="ecbI
EcbI" points="363,25 365,25 365,10 395,40 365,70 365,55 363,55" fill="rgb(255,255,255)" fill-opacity="1.0" stroke="rgb(0,0,0)" stroke-width="2"  />
			<g>
				<title>Glyco_trans_1_2 (PF13524)
"Glycosyl transferases group 1"</title>
				<polygon class="PF13524" points="385,34 391,40 385,46" stroke-linejoin="round" width="9" height="24" fill="rgb(67,127,200)" stroke="rgb(53,101,160)" stroke-width="1" opacity="0.75" />
			</g>
		</g>
		<g>
			<title>lipA
LipA</title>
			<polygon class="lipA
LipA" points="396,10 400,40 396,70" fill="rgb(255,255,255)" fill-opacity="1.0" stroke="rgb(0,0,0)" stroke-width="2"  />
		</g>
	</g>
</svg>
