<svg version="1.1" baseProfile="full" xmlns="http://www.w3.org/2000/svg" width="2113.733333333333" height="80">
	<g>
		<line x1="10" y1="40.0" x2="2103.733333333333" y2="40.0" style="stroke:rgb(70,70,70); stroke-width:3 "/>
		<g>
			<title>mdpA1
dTDP-1-glucose synthase</title>
			<polygon class="mdpA1
dTDP-1-glucose synthase" points="10,25 14,25 14,10 44,40 14,70 14,55 10,55" fill="rgb(255,255,255)" fill-opacity="1.0" stroke="rgb(0,0,0)" stroke-width="2"  />
			<g>
				<title>NTP_transferase (PF00483)
"Nucleotidyl transferase"</title>
				<polygon class="PF00483" points="10,28 28,28 33,33 33,47 28,52 10,52" stroke-linejoin="round" width="23" height="24" fill="rgb(198,101,87)" stroke="rgb(158,80,69)" stroke-width="1" opacity="0.75" />
			</g>
		</g>
		<g>
			<title>mdpL
epoxidase</title>
			<polygon class="mdpL
epoxidase" points="92,25 76,25 76,10 46,40 76,70 76,55 92,55" fill="rgb(255,255,255)" fill-opacity="1.0" stroke="rgb(0,0,0)" stroke-width="2"  />
			<g>
				<title>FAD_oxidored (PF12831)
"FAD dependent oxidoreductase"</title>
				<rect class="PF12831" x="73" y="28" stroke-linejoin="round" width="17" height="24" fill="rgb(132,217,85)" stroke="rgb(105,173,68)" stroke-width="1" opacity="0.75" />
			</g>
		</g>
		<g>
			<title>mdpC8
Zn-dependent alcohol dehydrogenase</title>
			<polygon class="mdpC8
Zn-dependent alcohol dehydrogenase" points="129,25 125,25 125,10 95,40 125,70 125,55 129,55" fill="rgb(255,255,255)" fill-opacity="1.0" stroke="rgb(0,0,0)" stroke-width="2"  />
			<g>
				<title>ADH_zinc_N (PF00107)
"Zinc-binding dehydrogenase"</title>
				<polygon class="PF00107" points="99,40 110,29 110,51" stroke-linejoin="round" width="12" height="24" fill="rgb(81,108,215)" stroke="rgb(64,86,172)" stroke-width="1" opacity="0.75" />
			</g>
			<g>
				<title>ADH_N (PF08240)
"Alcohol dehydrogenase GroES-like domain"</title>
				<rect class="PF08240" x="115" y="28" stroke-linejoin="round" width="11" height="24" fill="rgb(211,65,138)" stroke="rgb(168,51,110)" stroke-width="1" opacity="0.75" />
			</g>
		</g>
		<g>
			<title>mdpA4
C-methyltransferase</title>
			<polygon class="mdpA4
C-methyltransferase" points="136,25 146,25 146,10 176,40 146,70 146,55 136,55" fill="rgb(255,255,255)" fill-opacity="1.0" stroke="rgb(0,0,0)" stroke-width="2"  />
			<g>
				<title>Methyltransf_13 (PF08421)
"Putative zinc binding domain"</title>
				<rect class="PF08421" x="136" y="28" stroke-linejoin="round" width="5" height="24" fill="rgb(209,96,160)" stroke="rgb(167,76,128)" stroke-width="1" opacity="0.75" />
			</g>
			<g>
				<title>Methyltransf_23 (PF13489)
"Methyltransferase domain"</title>
				<rect class="PF13489" x="143" y="28" stroke-linejoin="round" width="16" height="24" fill="rgb(188,189,66)" stroke="rgb(150,151,52)" stroke-width="1" opacity="0.75" />
			</g>
			<g>
				<title>Methyltransf_14 (PF08484)
"C-methyltransferase C-terminal domain"</title>
				<polygon class="PF08484" points="160,28 160,28 172,40 160,52 160,52" stroke-linejoin="round" width="15" height="24" fill="rgb(229,72,107)" stroke="rgb(183,57,85)" stroke-width="1" opacity="0.75" />
			</g>
		</g>
		<g>
			<title>mdpC3
monooxygenase</title>
			<polygon class="mdpC3
monooxygenase" points="234,25 210,25 210,10 180,40 210,70 210,55 234,55" fill="rgb(255,255,255)" fill-opacity="1.0" stroke="rgb(0,0,0)" stroke-width="2"  />
			<g>
				<title>HpaB (PF03241)
"4-hydroxyphenylacetate 3-hydroxylase C terminal"</title>
				<polygon class="PF03241" points="184,40 196,28 203,28 203,52 196,52" stroke-linejoin="round" width="20" height="24" fill="rgb(73,153,185)" stroke="rgb(58,122,148)" stroke-width="1" opacity="0.75" />
			</g>
			<g>
				<title>HpaB_N (PF11794)
"4-hydroxyphenylacetate 3-hydroxylase N terminal"</title>
				<rect class="PF11794" x="204" y="28" stroke-linejoin="round" width="26" height="24" fill="rgb(122,202,60)" stroke="rgb(97,161,47)" stroke-width="1" opacity="0.75" />
			</g>
		</g>
		<g>
			<title>mdpA3
glucuronic acid decarboxylase</title>
			<polygon class="mdpA3
glucuronic acid decarboxylase" points="266,25 264,25 264,10 234,40 264,70 264,55 266,55" fill="rgb(255,255,255)" fill-opacity="1.0" stroke="rgb(0,0,0)" stroke-width="2"  />
			<g>
				<title>Epimerase (PF01370)
"NAD dependent epimerase/dehydratase family"</title>
				<polygon class="PF01370" points="242,36 250,28 265,28 265,52 250,52 242,44" stroke-linejoin="round" width="23" height="24" fill="rgb(98,102,214)" stroke="rgb(78,81,171)" stroke-width="1" opacity="0.75" />
			</g>
		</g>
		<g>
			<title>mdpA2
NDP glucose dehydrogenase</title>
			<polygon class="mdpA2
NDP glucose dehydrogenase" points="311,25 297,25 297,10 267,40 297,70 297,55 311,55" fill="rgb(255,255,255)" fill-opacity="1.0" stroke="rgb(0,0,0)" stroke-width="2"  />
			<g>
				<title>UDPG_MGDP_dh_C (PF03720)
"UDP-glucose/GDP-mannose dehydrogenase family, UDP binding domain"</title>
				<polygon class="PF03720" points="271,40 278,33 278,47" stroke-linejoin="round" width="10" height="24" fill="rgb(221,130,74)" stroke="rgb(176,103,59)" stroke-width="1" opacity="0.75" />
			</g>
			<g>
				<title>UDPG_MGDP_dh (PF00984)
"UDP-glucose/GDP-mannose dehydrogenase family, central domain"</title>
				<polygon class="PF00984" points="281,30 283,28 290,28 290,52 283,52 281,50" stroke-linejoin="round" width="9" height="24" fill="rgb(69,189,184)" stroke="rgb(55,151,147)" stroke-width="1" opacity="0.75" />
			</g>
			<g>
				<title>UDPG_MGDP_dh_N (PF03721)
"UDP-glucose/GDP-mannose dehydrogenase family, NAD binding domain"</title>
				<rect class="PF03721" x="292" y="28" stroke-linejoin="round" width="18" height="24" fill="rgb(156,194,58)" stroke="rgb(124,155,46)" stroke-width="1" opacity="0.75" />
			</g>
		</g>
		<g>
			<title>mdpA5
aminotransferase</title>
			<polygon class="mdpA5
aminotransferase" points="352,25 342,25 342,10 312,40 342,70 342,55 352,55" fill="rgb(255,255,255)" fill-opacity="1.0" stroke="rgb(0,0,0)" stroke-width="2"  />
			<g>
				<title>DegT_DnrJ_EryC1 (PF01041)
"DegT/DnrJ/EryC1/StrS aminotransferase family"</title>
				<polygon class="PF01041" points="316,40 328,28 349,28 349,52 328,52" stroke-linejoin="round" width="36" height="24" fill="rgb(59,139,191)" stroke="rgb(47,111,152)" stroke-width="1" opacity="0.75" />
			</g>
		</g>
		<g>
			<title>mdpJ
unknown</title>
			<polygon class="mdpJ
unknown" points="353,40 367,10 367,70" fill="rgb(255,255,255)" fill-opacity="1.0" stroke="rgb(0,0,0)" stroke-width="2"  />
			<g>
				<title>SnoaL_3 (PF13474)
"SnoaL-like domain"</title>
				<polygon class="PF13474" points="356,40 362,28 366,28 366,52 362,52" stroke-linejoin="round" width="12" height="24" fill="rgb(182,82,66)" stroke="rgb(145,65,52)" stroke-width="1" opacity="0.75" />
			</g>
		</g>
		<g>
			<title>mdpD2
oxidoreductase</title>
			<polygon class="mdpD2
oxidoreductase" points="408,25 399,25 399,10 369,40 399,70 399,55 408,55" fill="rgb(255,255,255)" fill-opacity="1.0" stroke="rgb(0,0,0)" stroke-width="2"  />
			<g>
				<title>Acyl-CoA_dh_2 (PF08028)
"Acyl-CoA dehydrogenase, C-terminal domain"</title>
				<polygon class="PF08028" points="373,40 384,29 384,51" stroke-linejoin="round" width="13" height="24" fill="rgb(106,185,56)" stroke="rgb(84,148,44)" stroke-width="1" opacity="0.75" />
			</g>
			<g>
				<title>Acyl-CoA_dh_N (PF02771)
"Acyl-CoA dehydrogenase, N-terminal domain"</title>
				<rect class="PF02771" x="398" y="28" stroke-linejoin="round" width="9" height="24" fill="rgb(105,135,218)" stroke="rgb(84,108,174)" stroke-width="1" opacity="0.75" />
			</g>
		</g>
		<g>
			<title>mdpB1
C-methyltransferase</title>
			<polygon class="mdpB1
C-methyltransferase" points="417,25 421,25 421,10 451,40 421,70 421,55 417,55" fill="rgb(255,255,255)" fill-opacity="1.0" stroke="rgb(0,0,0)" stroke-width="2"  />
			<g>
				<title>Dimerisation2 (PF16864)
"Dimerisation domain"</title>
				<rect class="PF16864" x="418" y="28" stroke-linejoin="round" width="8" height="24" fill="rgb(84,199,85)" stroke="rgb(67,159,68)" stroke-width="1" opacity="0.75" />
			</g>
			<g>
				<title>Methyltransf_2 (PF00891)
"O-methyltransferase domain"</title>
				<polygon class="PF00891" points="428,28 435,28 447,40 435,52 428,52" stroke-linejoin="round" width="21" height="24" fill="rgb(50,51,190)" stroke="rgb(39,40,152)" stroke-width="1" opacity="0.75" />
			</g>
		</g>
		<g>
			<title>mdpB
6-methylsalicylic acid synthase</title>
			<polygon class="mdpB
6-methylsalicylic acid synthase" points="454,25 598,25 598,10 628,40 598,70 598,55 454,55" fill="rgb(255,255,255)" fill-opacity="1.0" stroke="rgb(0,0,0)" stroke-width="2"  />
			<g>
				<title>ketoacyl-synt (PF00109)
"Beta-ketoacyl synthase, N-terminal domain"</title>
				<rect class="PF00109" x="454" y="28" stroke-linejoin="round" width="25" height="24" fill="rgb(112,116,228)" stroke="rgb(89,92,182)" stroke-width="1" opacity="0.75" />
			</g>
			<g>
				<title>Ketoacyl-synt_C (PF02801)
"Beta-ketoacyl synthase, C-terminal domain"</title>
				<rect class="PF02801" x="480" y="28" stroke-linejoin="round" width="11" height="24" fill="rgb(215,78,102)" stroke="rgb(172,62,81)" stroke-width="1" opacity="0.75" />
			</g>
			<g>
				<title>KAsynt_C_assoc (PF16197)
"Ketoacyl-synthetase C-terminal extension"</title>
				<rect class="PF16197" x="492" y="28" stroke-linejoin="round" width="12" height="24" fill="rgb(240,150,172)" stroke="rgb(192,120,137)" stroke-width="1" opacity="0.75" />
			</g>
			<g>
				<title>Acyl_transf_1 (PF00698)
"Acyl transferase domain"</title>
				<rect class="PF00698" x="508" y="28" stroke-linejoin="round" width="31" height="24" fill="rgb(59,176,209)" stroke="rgb(47,140,167)" stroke-width="1" opacity="0.75" />
			</g>
			<g>
				<title>PS-DH (PF14765)
"Polyketide synthase dehydratase"</title>
				<rect class="PF14765" x="544" y="28" stroke-linejoin="round" width="26" height="24" fill="rgb(173,56,182)" stroke="rgb(138,44,145)" stroke-width="1" opacity="0.75" />
			</g>
			<g>
				<title>KR (PF08659)
"KR domain"</title>
				<rect class="PF08659" x="591" y="28" stroke-linejoin="round" width="19" height="24" fill="rgb(66,209,188)" stroke="rgb(52,167,150)" stroke-width="1" opacity="0.75" />
			</g>
			<g>
				<title>PP-binding (PF00550)
"Phosphopantetheine attachment site"</title>
				<polygon class="PF00550" points="620,36 624,40 620,44" stroke-linejoin="round" width="6" height="24" fill="rgb(103,191,88)" stroke="rgb(82,152,70)" stroke-width="1" opacity="0.75" />
			</g>
		</g>
		<g>
			<title>mdpB2
CoA ligase</title>
			<polygon class="mdpB2
CoA ligase" points="629,25 653,25 653,10 683,40 653,70 653,55 629,55" fill="rgb(255,255,255)" fill-opacity="1.0" stroke="rgb(0,0,0)" stroke-width="2"  />
			<g>
				<title>AMP-binding (PF00501)
"AMP-binding enzyme"</title>
				<polygon class="PF00501" points="632,28 667,28 673,34 673,46 667,52 632,52" stroke-linejoin="round" width="41" height="24" fill="rgb(60,217,223)" stroke="rgb(48,173,178)" stroke-width="1" opacity="0.75" />
			</g>
			<g>
				<title>AMP-binding_C (PF13193)
"AMP-binding enzyme C-terminal domain"</title>
				<polygon class="PF13193" points="674,35 679,40 674,45" stroke-linejoin="round" width="7" height="24" fill="rgb(182,50,118)" stroke="rgb(145,39,94)" stroke-width="1" opacity="0.75" />
			</g>
		</g>
		<g>
			<title>mdpB3
acetyltransferase/esterase</title>
			<polygon class="mdpB3
acetyltransferase/esterase" points="686,40 714,10 714,70" fill="rgb(255,255,255)" fill-opacity="1.0" stroke="rgb(0,0,0)" stroke-width="2"  />
			<g>
				<title>Abhydrolase_1 (PF00561)
"alpha/beta hydrolase fold"</title>
				<polygon class="PF00561" points="694,36 701,28 711,28 711,52 701,52 694,44" stroke-linejoin="round" width="17" height="24" fill="rgb(86,180,151)" stroke="rgb(68,144,120)" stroke-width="1" opacity="0.75" />
			</g>
		</g>
		<g>
			<title>mdpA6
glycosyltransferase</title>
			<polygon class="mdpA6
glycosyltransferase" points="760,25 744,25 744,10 714,40 744,70 744,55 760,55" fill="rgb(255,255,255)" fill-opacity="1.0" stroke="rgb(0,0,0)" stroke-width="2"  />
			<g>
				<title>DUF1205 (PF06722)
"Protein of unknown function (DUF1205)"</title>
				<polygon class="PF06722" points="730,28 730,28 739,28 739,52 730,52 730,52" stroke-linejoin="round" width="9" height="24" fill="rgb(200,129,88)" stroke="rgb(160,103,70)" stroke-width="1" opacity="0.75" />
			</g>
		</g>
		<g>
			<title>mdpR4
DNA alkylation repair</title>
			<polygon class="mdpR4
DNA alkylation repair" points="766,10 790,40 766,70" fill="rgb(255,255,255)" fill-opacity="1.0" stroke="rgb(0,0,0)" stroke-width="2"  />
			<g>
				<title>DNA_alkylation (PF08713)
"DNA alkylation repair enzyme"</title>
				<polygon class="PF08713" points="767,28 777,28 786,40 777,52 767,52" stroke-linejoin="round" width="21" height="24" fill="rgb(215,156,71)" stroke="rgb(172,124,56)" stroke-width="1" opacity="0.75" />
			</g>
		</g>
		<g>
			<title>mdpU1
P450 oxidoreductase</title>
			<polygon class="mdpU1
P450 oxidoreductase" points="834,25 823,25 823,10 793,40 823,70 823,55 834,55" fill="rgb(255,255,255)" fill-opacity="1.0" stroke="rgb(0,0,0)" stroke-width="2"  />
			<g>
				<title>p450 (PF00067)
"Cytochrome P450"</title>
				<polygon class="PF00067" points="797,40 809,28 814,28 814,52 809,52" stroke-linejoin="round" width="18" height="24" fill="rgb(85,216,107)" stroke="rgb(68,172,85)" stroke-width="1" opacity="0.75" />
			</g>
		</g>
		<g>
			<title>mdpU2
hypothetical protein</title>
			<polygon class="mdpU2
hypothetical protein" points="872,25 864,25 864,10 834,40 864,70 864,55 872,55" fill="rgb(255,255,255)" fill-opacity="1.0" stroke="rgb(0,0,0)" stroke-width="2"  />
		</g>
		<g>
			<title>mdpU3
P450 oxidoreductase</title>
			<polygon class="mdpU3
P450 oxidoreductase" points="913,25 902,25 902,10 872,40 902,70 902,55 913,55" fill="rgb(255,255,255)" fill-opacity="1.0" stroke="rgb(0,0,0)" stroke-width="2"  />
			<g>
				<title>p450 (PF00067)
"Cytochrome P450"</title>
				<polygon class="PF00067" points="876,40 888,28 894,28 894,52 888,52" stroke-linejoin="round" width="21" height="24" fill="rgb(85,216,107)" stroke="rgb(68,172,85)" stroke-width="1" opacity="0.75" />
			</g>
		</g>
		<g>
			<title>mdpC7
aminotransferase</title>
			<polygon class="mdpC7
aminotransferase" points="961,25 945,25 945,10 915,40 945,70 945,55 961,55" fill="rgb(255,255,255)" fill-opacity="1.0" stroke="rgb(0,0,0)" stroke-width="2"  />
			<g>
				<title>Aminotran_3 (PF00202)
"Aminotransferase class-III"</title>
				<polygon class="PF00202" points="919,40 931,28 958,28 958,52 931,52" stroke-linejoin="round" width="42" height="24" fill="rgb(49,163,189)" stroke="rgb(39,130,151)" stroke-width="1" opacity="0.75" />
			</g>
		</g>
		<g>
			<title>mdpA
binding protein</title>
			<polygon class="mdpA
binding protein" points="968,10 984,40 968,70" fill="rgb(255,255,255)" fill-opacity="1.0" stroke="rgb(0,0,0)" stroke-width="2"  />
		</g>
		<g>
			<title>mdpR3
transmembrane efflux protein</title>
			<polygon class="mdpR3
transmembrane efflux protein" points="1055,25 1033,25 1033,10 1003,40 1033,70 1033,55 1055,55" fill="rgb(255,255,255)" fill-opacity="1.0" stroke="rgb(0,0,0)" stroke-width="2"  />
			<g>
				<title>MFS_1 (PF07690)
"Major Facilitator Superfamily"</title>
				<polygon class="PF07690" points="1014,33 1019,28 1053,28 1053,52 1019,52 1014,47" stroke-linejoin="round" width="39" height="24" fill="rgb(193,224,74)" stroke="rgb(154,179,59)" stroke-width="1" opacity="0.75" />
			</g>
		</g>
		<g>
			<title>mdpH
hydroxylase</title>
			<polygon class="mdpH
hydroxylase" points="1104,25 1090,25 1090,10 1060,40 1090,70 1090,55 1104,55" fill="rgb(255,255,255)" fill-opacity="1.0" stroke="rgb(0,0,0)" stroke-width="2"  />
		</g>
		<g>
			<title>mdpC5
type II condensation domain protein</title>
			<polygon class="mdpC5
type II condensation domain protein" points="1162,25 1146,25 1146,10 1116,40 1146,70 1146,55 1162,55" fill="rgb(255,255,255)" fill-opacity="1.0" stroke="rgb(0,0,0)" stroke-width="2"  />
			<g>
				<title>Condensation (PF00668)
"Condensation domain"</title>
				<polygon class="PF00668" points="1120,40 1132,28 1159,28 1159,52 1132,52" stroke-linejoin="round" width="43" height="24" fill="rgb(224,184,98)" stroke="rgb(179,147,78)" stroke-width="1" opacity="0.75" />
			</g>
		</g>
		<g>
			<title>mdpC
halogenase</title>
			<polygon class="mdpC
halogenase" points="1214,25 1193,25 1193,10 1163,40 1193,70 1193,55 1214,55" fill="rgb(255,255,255)" fill-opacity="1.0" stroke="rgb(0,0,0)" stroke-width="2"  />
			<g>
				<title>Trp_halogenase (PF04820)
"Tryptophan halogenase"</title>
				<polygon class="PF04820" points="1172,35 1179,28 1204,28 1204,52 1179,52 1172,45" stroke-linejoin="round" width="32" height="24" fill="rgb(179,74,194)" stroke="rgb(143,59,155)" stroke-width="1" opacity="0.75" />
			</g>
		</g>
		<g>
			<title>mdpC4
MIO-containing aminomutase</title>
			<polygon class="mdpC4
MIO-containing aminomutase" points="1272,25 1249,25 1249,10 1219,40 1249,70 1249,55 1272,55" fill="rgb(255,255,255)" fill-opacity="1.0" stroke="rgb(0,0,0)" stroke-width="2"  />
			<g>
				<title>Lyase_aromatic (PF00221)
"Aromatic amino acid lyase"</title>
				<polygon class="PF00221" points="1223,40 1235,28 1270,28 1270,52 1235,52 1223,40" stroke-linejoin="round" width="47" height="24" fill="rgb(182,133,62)" stroke="rgb(145,106,49)" stroke-width="1" opacity="0.75" />
			</g>
		</g>
		<g>
			<title>mdpC1
type II beta-Tyr adenylation domain protein</title>
			<polygon class="mdpC1
type II beta-Tyr adenylation domain protein" points="1383,25 1302,25 1302,10 1272,40 1302,70 1302,55 1383,55" fill="rgb(255,255,255)" fill-opacity="1.0" stroke="rgb(0,0,0)" stroke-width="2"  />
			<g>
				<title>PP-binding (PF00550)
"Phosphopantetheine attachment site"</title>
				<polygon class="PF00550" points="1276,40 1281,35 1281,45" stroke-linejoin="round" width="6" height="24" fill="rgb(103,191,88)" stroke="rgb(82,152,70)" stroke-width="1" opacity="0.75" />
			</g>
			<g>
				<title>AMP-binding_C (PF13193)
"AMP-binding enzyme C-terminal domain"</title>
				<polygon class="PF13193" points="1284,32 1288,28 1291,28 1291,52 1288,52 1284,48" stroke-linejoin="round" width="7" height="24" fill="rgb(182,50,118)" stroke="rgb(145,39,94)" stroke-width="1" opacity="0.75" />
			</g>
			<g>
				<title>AMP-binding (PF00501)
"AMP-binding enzyme"</title>
				<rect class="PF00501" x="1292" y="28" stroke-linejoin="round" width="40" height="24" fill="rgb(60,217,223)" stroke="rgb(48,173,178)" stroke-width="1" opacity="0.75" />
			</g>
			<g>
				<title>Condensation (PF00668)
"Condensation domain"</title>
				<rect class="PF00668" x="1340" y="28" stroke-linejoin="round" width="33" height="24" fill="rgb(224,184,98)" stroke="rgb(179,147,78)" stroke-width="1" opacity="0.75" />
			</g>
		</g>
		<g>
			<title>mdpC2
type II PCP domain protein</title>
			<polygon class="mdpC2
type II PCP domain protein" points="1391,10 1400,40 1391,70" fill="rgb(255,255,255)" fill-opacity="1.0" stroke="rgb(0,0,0)" stroke-width="2"  />
			<g>
				<title>PP-binding (PF00550)
"Phosphopantetheine attachment site"</title>
				<polygon class="PF00550" points="1392,28 1393,28 1397,40 1393,52 1392,52" stroke-linejoin="round" width="6" height="24" fill="rgb(103,191,88)" stroke="rgb(82,152,70)" stroke-width="1" opacity="0.75" />
			</g>
		</g>
		<g>
			<title>mdpC6
O-methyltransferase</title>
			<polygon class="mdpC6
O-methyltransferase" points="1403,40 1422,10 1422,70" fill="rgb(255,255,255)" fill-opacity="1.0" stroke="rgb(0,0,0)" stroke-width="2"  />
			<g>
				<title>Methyltransf_3 (PF01596)
"O-methyltransferase"</title>
				<polygon class="PF01596" points="1407,40 1415,28 1422,28 1422,52 1415,52" stroke-linejoin="round" width="19" height="24" fill="rgb(168,187,48)" stroke="rgb(134,149,38)" stroke-width="1" opacity="0.75" />
			</g>
		</g>
		<g>
			<title>mdpE11
unknown</title>
			<polygon class="mdpE11
unknown" points="1426,40 1452,10 1452,70" fill="rgb(255,255,255)" fill-opacity="1.0" stroke="rgb(0,0,0)" stroke-width="2"  />
			<g>
				<title>Wyosine_form (PF08608)
"Wyosine base formation"</title>
				<polygon class="PF08608" points="1430,40 1434,36 1434,44" stroke-linejoin="round" width="5" height="24" fill="rgb(74,197,163)" stroke="rgb(59,157,130)" stroke-width="1" opacity="0.75" />
			</g>
			<g>
				<title>MDMPI_N (PF11716)
"Mycothiol maleylpyruvate isomerase N-terminal domain"</title>
				<polygon class="PF11716" points="1438,31 1441,28 1451,28 1451,52 1441,52 1438,49" stroke-linejoin="round" width="13" height="24" fill="rgb(214,107,221)" stroke="rgb(171,85,176)" stroke-width="1" opacity="0.75" />
			</g>
		</g>
		<g>
			<title>mdpM
unknown</title>
			<polygon class="mdpM
unknown" points="1492,25 1486,25 1486,10 1456,40 1486,70 1486,55 1492,55" fill="rgb(255,255,255)" fill-opacity="1.0" stroke="rgb(0,0,0)" stroke-width="2"  />
			<g>
				<title>CMD (PF02627)
"Carboxymuconolactone decarboxylase family"</title>
				<rect class="PF02627" x="1478" y="28" stroke-linejoin="round" width="8" height="24" fill="rgb(58,205,164)" stroke="rgb(46,164,131)" stroke-width="1" opacity="0.75" />
			</g>
		</g>
		<g>
			<title>mdpE9
oxidoreductase</title>
			<polygon class="mdpE9
oxidoreductase" points="1548,25 1523,25 1523,10 1493,40 1523,70 1523,55 1548,55" fill="rgb(255,255,255)" fill-opacity="1.0" stroke="rgb(0,0,0)" stroke-width="2"  />
			<g>
				<title>GMC_oxred_C (PF05199)
"GMC oxidoreductase"</title>
				<polygon class="PF05199" points="1497,40 1508,29 1508,51 1497,40" stroke-linejoin="round" width="11" height="24" fill="rgb(186,52,106)" stroke="rgb(148,41,84)" stroke-width="1" opacity="0.75" />
			</g>
			<g>
				<title>GMC_oxred_N (PF00732)
"GMC oxidoreductase"</title>
				<rect class="PF00732" x="1521" y="28" stroke-linejoin="round" width="26" height="24" fill="rgb(180,89,214)" stroke="rgb(143,71,171)" stroke-width="1" opacity="0.75" />
			</g>
		</g>
		<g>
			<title>mdpE8
unknown</title>
			<polygon class="mdpE8
unknown" points="1548,40 1567,10 1567,70" fill="rgb(255,255,255)" fill-opacity="1.0" stroke="rgb(0,0,0)" stroke-width="2"  />
			<g>
				<title>DUF5987 (PF19449)
"Family of unknown function (DUF5987)"</title>
				<polygon class="PF19449" points="1552,40 1560,28 1565,28 1565,52 1560,52" stroke-linejoin="round" width="17" height="24" fill="rgb(207,84,136)" stroke="rgb(165,67,108)" stroke-width="1" opacity="0.75" />
			</g>
		</g>
		<g>
			<title>mdpR1
regulatory protein</title>
			<polygon class="mdpR1
regulatory protein" points="1583,25 1586,25 1586,10 1616,40 1586,70 1586,55 1583,55" fill="rgb(255,255,255)" fill-opacity="1.0" stroke="rgb(0,0,0)" stroke-width="2"  />
			<g>
				<title>ParBc (PF02195)
"ParB/Sulfiredoxin domain"</title>
				<rect class="PF02195" x="1586" y="28" stroke-linejoin="round" width="8" height="24" fill="rgb(55,214,209)" stroke="rgb(44,171,167)" stroke-width="1" opacity="0.75" />
			</g>
		</g>
		<g>
			<title>mdpR2
transcription regulatory protein</title>
			<polygon class="mdpR2
transcription regulatory protein" points="1625,10 1650,40 1625,70" fill="rgb(255,255,255)" fill-opacity="1.0" stroke="rgb(0,0,0)" stroke-width="2"  />
			<g>
				<title>HTH_18 (PF12833)
"Helix-turn-helix domain"</title>
				<rect class="PF12833" x="1627" y="28" stroke-linejoin="round" width="7" height="24" fill="rgb(216,58,224)" stroke="rgb(172,46,179)" stroke-width="1" opacity="0.75" />
			</g>
		</g>
		<g>
			<title>mdpE7
putative P450 hydroxylase</title>
			<polygon class="mdpE7
putative P450 hydroxylase" points="1699,25 1683,25 1683,10 1653,40 1683,70 1683,55 1699,55" fill="rgb(255,255,255)" fill-opacity="1.0" stroke="rgb(0,0,0)" stroke-width="2"  />
			<g>
				<title>p450 (PF00067)
"Cytochrome P450"</title>
				<polygon class="PF00067" points="1657,40 1669,28 1697,28 1697,52 1669,52" stroke-linejoin="round" width="43" height="24" fill="rgb(85,216,107)" stroke="rgb(68,172,85)" stroke-width="1" opacity="0.75" />
			</g>
		</g>
		<g>
			<title>mdpE6
flavin reductase</title>
			<polygon class="mdpE6
flavin reductase" points="1700,40 1718,10 1718,70" fill="rgb(255,255,255)" fill-opacity="1.0" stroke="rgb(0,0,0)" stroke-width="2"  />
			<g>
				<title>Flavin_Reduct (PF01613)
"Flavin reductase like domain"</title>
				<polygon class="PF01613" points="1704,40 1711,28 1715,28 1715,52 1711,52" stroke-linejoin="round" width="15" height="24" fill="rgb(107,197,222)" stroke="rgb(85,157,177)" stroke-width="1" opacity="0.75" />
			</g>
		</g>
		<g>
			<title>mdpE10
type II thioesterase</title>
			<polygon class="mdpE10
type II thioesterase" points="1718,40 1733,10 1733,70" fill="rgb(255,255,255)" fill-opacity="1.0" stroke="rgb(0,0,0)" stroke-width="2"  />
			<g>
				<title>4HBT (PF03061)
"Thioesterase superfamily"</title>
				<polygon class="PF03061" points="1723,36 1727,28 1731,28 1731,52 1727,52 1723,44" stroke-linejoin="round" width="8" height="24" fill="rgb(143,103,215)" stroke="rgb(114,82,172)" stroke-width="1" opacity="0.75" />
			</g>
		</g>
		<g>
			<title>mdpE
enediyne polyketide synthase</title>
			<polygon class="mdpE
enediyne polyketide synthase" points="1927,25 1763,25 1763,10 1733,40 1763,70 1763,55 1927,55" fill="rgb(255,255,255)" fill-opacity="1.0" stroke="rgb(0,0,0)" stroke-width="2"  />
			<g>
				<title>PS-DH (PF14765)
"Polyketide synthase dehydratase"</title>
				<rect class="PF14765" x="1753" y="28" stroke-linejoin="round" width="28" height="24" fill="rgb(173,56,182)" stroke="rgb(138,44,145)" stroke-width="1" opacity="0.75" />
			</g>
			<g>
				<title>KR (PF08659)
"KR domain"</title>
				<rect class="PF08659" x="1787" y="28" stroke-linejoin="round" width="18" height="24" fill="rgb(66,209,188)" stroke="rgb(52,167,150)" stroke-width="1" opacity="0.75" />
			</g>
			<g>
				<title>Acyl_transf_1 (PF00698)
"Acyl transferase domain"</title>
				<rect class="PF00698" x="1842" y="28" stroke-linejoin="round" width="32" height="24" fill="rgb(59,176,209)" stroke="rgb(47,140,167)" stroke-width="1" opacity="0.75" />
			</g>
			<g>
				<title>KAsynt_C_assoc (PF16197)
"Ketoacyl-synthetase C-terminal extension"</title>
				<rect class="PF16197" x="1873" y="28" stroke-linejoin="round" width="12" height="24" fill="rgb(240,150,172)" stroke="rgb(192,120,137)" stroke-width="1" opacity="0.75" />
			</g>
			<g>
				<title>Ketoacyl-synt_C (PF02801)
"Beta-ketoacyl synthase, C-terminal domain"</title>
				<rect class="PF02801" x="1885" y="28" stroke-linejoin="round" width="11" height="24" fill="rgb(215,78,102)" stroke="rgb(172,62,81)" stroke-width="1" opacity="0.75" />
			</g>
			<g>
				<title>ketoacyl-synt (PF00109)
"Beta-ketoacyl synthase, N-terminal domain"</title>
				<rect class="PF00109" x="1898" y="28" stroke-linejoin="round" width="28" height="24" fill="rgb(112,116,228)" stroke="rgb(89,92,182)" stroke-width="1" opacity="0.75" />
			</g>
		</g>
		<g>
			<title>mdpE5
unknown</title>
			<polygon class="mdpE5
unknown" points="1961,25 1958,25 1958,10 1928,40 1958,70 1958,55 1961,55" fill="rgb(255,255,255)" fill-opacity="1.0" stroke="rgb(0,0,0)" stroke-width="2"  />
		</g>
		<g>
			<title>mdpE4
unknown</title>
			<polygon class="mdpE4
unknown" points="2028,25 1991,25 1991,10 1961,40 1991,70 1991,55 2028,55" fill="rgb(255,255,255)" fill-opacity="1.0" stroke="rgb(0,0,0)" stroke-width="2"  />
			<g>
				<title>UnbV_ASPIC (PF07593)
"ASPIC and UnbV"</title>
				<polygon class="PF07593" points="1965,40 1969,36 1969,44" stroke-linejoin="round" width="6" height="24" fill="rgb(157,212,86)" stroke="rgb(125,169,68)" stroke-width="1" opacity="0.75" />
			</g>
			<g>
				<title>FG-GAP_3 (PF13517)
"FG-GAP-like repeat"</title>
				<rect class="PF13517" x="1992" y="28" stroke-linejoin="round" width="7" height="24" fill="rgb(77,199,76)" stroke="rgb(61,159,60)" stroke-width="1" opacity="0.75" />
			</g>
		</g>
		<g>
			<title>mdpE3
hypothetical protein</title>
			<polygon class="mdpE3
hypothetical protein" points="2059,25 2059,25 2059,10 2029,40 2059,70 2059,55 2059,55" fill="rgb(255,255,255)" fill-opacity="1.0" stroke="rgb(0,0,0)" stroke-width="2"  />
			<g>
				<title>DUF1702 (PF08012)
"Protein of unknown function (DUF1702)"</title>
				<polygon class="PF08012" points="2033,40 2045,28 2058,28 2058,52 2045,52" stroke-linejoin="round" width="29" height="24" fill="rgb(177,49,186)" stroke="rgb(141,39,148)" stroke-width="1" opacity="0.75" />
			</g>
		</g>
		<g>
			<title>mdpE2
unknown</title>
			<polygon class="mdpE2
unknown" points="2103,25 2100,25 2100,10 2070,40 2100,70 2100,55 2103,55" fill="rgb(255,255,255)" fill-opacity="1.0" stroke="rgb(0,0,0)" stroke-width="2"  />
			<g>
				<title>DUF1702 (PF08012)
"Protein of unknown function (DUF1702)"</title>
				<polygon class="PF08012" points="2074,40 2086,28 2101,28 2101,52 2086,52" stroke-linejoin="round" width="31" height="24" fill="rgb(177,49,186)" stroke="rgb(141,39,148)" stroke-width="1" opacity="0.75" />
			</g>
		</g>
	</g>
</svg>
