<svg version="1.1" baseProfile="full" xmlns="http://www.w3.org/2000/svg" width="2944.3" height="80">
	<g>
		<line x1="10" y1="40.0" x2="2934.3" y2="40.0" style="stroke:rgb(70,70,70); stroke-width:3 "/>
		<g>
			<title> (BRLA_c025480)
putative membrane protein</title>
			<polygon class=" (BRLA_c025480)
putative membrane protein" points="10,40 22,10 22,70" fill="rgb(255,255,255)" fill-opacity="1.0" stroke="rgb(0,0,0)" stroke-width="2"  />
			<g>
				<title>DUF423 (PF04241)
"Protein of unknown function (DUF423)"</title>
				<polygon class="PF04241" points="13,40 18,28 19,28 19,52 18,52" stroke-linejoin="round" width="8" height="24" fill="rgb(109,73,199)" stroke="rgb(87,58,159)" stroke-width="1" opacity="0.75" />
			</g>
		</g>
		<g>
			<title>yijE_2 (BRLA_c025490)
putative inner membrane transporter yiJE</title>
			<polygon class="yijE_2 (BRLA_c025490)
putative inner membrane transporter yiJE" points="33,40 62,10 62,70" fill="rgb(255,255,255)" fill-opacity="1.0" stroke="rgb(0,0,0)" stroke-width="2"  />
			<g>
				<title>EamA (PF00892)
"EamA-like transporter family"</title>
				<polygon class="PF00892" points="37,40 46,31 46,49" stroke-linejoin="round" width="13" height="24" fill="rgb(105,217,77)" stroke="rgb(84,173,61)" stroke-width="1" opacity="0.75" />
			</g>
			<g>
				<title>EamA (PF00892)
"EamA-like transporter family"</title>
				<polygon class="PF00892" points="48,29 49,28 61,28 61,52 49,52 48,51" stroke-linejoin="round" width="13" height="24" fill="rgb(105,217,77)" stroke="rgb(84,173,61)" stroke-width="1" opacity="0.75" />
			</g>
		</g>
		<g>
			<title>ydaF_4 (BRLA_c025500)
putative ribosomal N-acetyltransferase YdaF</title>
			<polygon class="ydaF_4 (BRLA_c025500)
putative ribosomal N-acetyltransferase YdaF" points="68,40 88,10 88,70" fill="rgb(255,255,255)" fill-opacity="1.0" stroke="rgb(0,0,0)" stroke-width="2"  />
			<g>
				<title>Acetyltransf_3 (PF13302)
"Acetyltransferase (GNAT) domain"</title>
				<polygon class="PF13302" points="72,40 80,28 86,28 86,52 80,52 72,40" stroke-linejoin="round" width="14" height="24" fill="rgb(105,146,215)" stroke="rgb(84,116,172)" stroke-width="1" opacity="0.75" />
			</g>
		</g>
		<g>
			<title> (BRLA_c025510)
hypothetical protein</title>
			<polygon class=" (BRLA_c025510)
hypothetical protein" points="89,40 105,10 105,70" fill="rgb(255,255,255)" fill-opacity="1.0" stroke="rgb(0,0,0)" stroke-width="2"  />
			<g>
				<title>Cass2 (PF14526)
"Integron-associated effector binding protein"</title>
				<polygon class="PF14526" points="92,40 99,28 104,28 104,52 99,52" stroke-linejoin="round" width="15" height="24" fill="rgb(57,73,185)" stroke="rgb(45,58,148)" stroke-width="1" opacity="0.75" />
			</g>
		</g>
		<g>
			<title>rob_2 (BRLA_c025520)
AraC-type DNA-binding domain-containing protein</title>
			<polygon class="rob_2 (BRLA_c025520)
AraC-type DNA-binding domain-containing protein" points="105,40 117,10 117,70" fill="rgb(255,255,255)" fill-opacity="1.0" stroke="rgb(0,0,0)" stroke-width="2"  />
			<g>
				<title>HTH_18 (PF12833)
"Helix-turn-helix domain"</title>
				<polygon class="PF12833" points="108,40 113,28 113,28 113,52 113,52" stroke-linejoin="round" width="7" height="24" fill="rgb(216,58,224)" stroke="rgb(172,46,179)" stroke-width="1" opacity="0.75" />
			</g>
		</g>
		<g>
			<title> (BRLA_c025530)
hypothetical protein</title>
			<polygon class=" (BRLA_c025530)
hypothetical protein" points="160,25 156,25 156,10 126,40 156,70 156,55 160,55" fill="rgb(255,255,255)" fill-opacity="1.0" stroke="rgb(0,0,0)" stroke-width="2"  />
		</g>
		<g>
			<title> (BRLA_c025540)
collagen triple helix repeat-containing protein</title>
			<polygon class=" (BRLA_c025540)
collagen triple helix repeat-containing protein" points="222,25 221,25 221,10 191,40 221,70 221,55 222,55" fill="rgb(255,255,255)" fill-opacity="1.0" stroke="rgb(0,0,0)" stroke-width="2"  />
			<g>
				<title>BclA_C (PF18573)
"BclA C-terminal domain"</title>
				<polygon class="PF18573" points="195,40 203,32 203,48" stroke-linejoin="round" width="12" height="24" fill="rgb(131,190,52)" stroke="rgb(104,152,41)" stroke-width="1" opacity="0.75" />
			</g>
			<g>
				<title>Collagen (PF01391)
"Collagen triple helix repeat (20 copies)"</title>
				<rect class="PF01391" x="211" y="28" stroke-linejoin="round" width="5" height="24" fill="rgb(95,207,131)" stroke="rgb(76,165,104)" stroke-width="1" opacity="0.75" />
			</g>
		</g>
		<g>
			<title> (BRLA_c025550)
collagen triple helix repeat-containing protein</title>
			<polygon class=" (BRLA_c025550)
collagen triple helix repeat-containing protein" points="272,25 272,25 272,10 242,40 272,70 272,55 272,55" fill="rgb(255,255,255)" fill-opacity="1.0" stroke="rgb(0,0,0)" stroke-width="2"  />
			<g>
				<title>BclA_C (PF18573)
"BclA C-terminal domain"</title>
				<polygon class="PF18573" points="246,40 255,31 255,49" stroke-linejoin="round" width="13" height="24" fill="rgb(131,190,52)" stroke="rgb(104,152,41)" stroke-width="1" opacity="0.75" />
			</g>
			<g>
				<title>Collagen (PF01391)
"Collagen triple helix repeat (20 copies)"</title>
				<rect class="PF01391" x="261" y="28" stroke-linejoin="round" width="6" height="24" fill="rgb(95,207,131)" stroke="rgb(76,165,104)" stroke-width="1" opacity="0.75" />
			</g>
		</g>
		<g>
			<title> (BRLA_c025560)
hypothetical protein</title>
			<polygon class=" (BRLA_c025560)
hypothetical protein" points="288,40 302,10 302,70" fill="rgb(255,255,255)" fill-opacity="1.0" stroke="rgb(0,0,0)" stroke-width="2"  />
		</g>
		<g>
			<title> (BRLA_c025570)
hypothetical protein</title>
			<polygon class=" (BRLA_c025570)
hypothetical protein" points="316,10 343,40 316,70" fill="rgb(255,255,255)" fill-opacity="1.0" stroke="rgb(0,0,0)" stroke-width="2"  />
		</g>
		<g>
			<title>yhfP (BRLA_c025580)
putative quinone oxidoreductase YhfP</title>
			<polygon class="yhfP (BRLA_c025580)
putative quinone oxidoreductase YhfP" points="381,25 378,25 378,10 348,40 378,70 378,55 381,55" fill="rgb(255,255,255)" fill-opacity="1.0" stroke="rgb(0,0,0)" stroke-width="2"  />
			<g>
				<title>ADH_zinc_N (PF00107)
"Zinc-binding dehydrogenase"</title>
				<polygon class="PF00107" points="352,40 364,28 364,28 364,52 364,52 352,40" stroke-linejoin="round" width="12" height="24" fill="rgb(81,108,215)" stroke="rgb(64,86,172)" stroke-width="1" opacity="0.75" />
			</g>
		</g>
		<g>
			<title>dctA_2 (BRLA_c025590)
C4-dicarboxylate permease</title>
			<polygon class="dctA_2 (BRLA_c025590)
C4-dicarboxylate permease" points="428,25 418,25 418,10 388,40 418,70 418,55 428,55" fill="rgb(255,255,255)" fill-opacity="1.0" stroke="rgb(0,0,0)" stroke-width="2"  />
			<g>
				<title>SDF (PF00375)
"Sodium:dicarboxylate symporter family"</title>
				<polygon class="PF00375" points="392,40 404,28 426,28 426,52 404,52" stroke-linejoin="round" width="37" height="24" fill="rgb(141,207,101)" stroke="rgb(112,165,80)" stroke-width="1" opacity="0.75" />
			</g>
		</g>
		<g>
			<title> (BRLA_c025600)
hypothetical protein</title>
			<polygon class=" (BRLA_c025600)
hypothetical protein" points="443,40 459,10 459,70" fill="rgb(255,255,255)" fill-opacity="1.0" stroke="rgb(0,0,0)" stroke-width="2"  />
			<g>
				<title>DUF1641 (PF07849)
"Protein of unknown function (DUF1641)"</title>
				<polygon class="PF07849" points="446,40 447,38 447,42" stroke-linejoin="round" width="3" height="24" fill="rgb(174,216,95)" stroke="rgb(139,172,76)" stroke-width="1" opacity="0.75" />
			</g>
		</g>
		<g>
			<title> (BRLA_c025610)
putative formate dehydrogenase</title>
			<polygon class=" (BRLA_c025610)
putative formate dehydrogenase" points="558,25 490,25 490,10 460,40 490,70 490,55 558,55" fill="rgb(255,255,255)" fill-opacity="1.0" stroke="rgb(0,0,0)" stroke-width="2"  />
			<g>
				<title>Molydop_binding (PF01568)
"Molydopterin dinucleotide binding domain"</title>
				<polygon class="PF01568" points="465,39 475,29 475,51 465,41" stroke-linejoin="round" width="10" height="24" fill="rgb(184,132,64)" stroke="rgb(147,105,51)" stroke-width="1" opacity="0.75" />
			</g>
			<g>
				<title>Molybdopterin (PF00384)
"Molybdopterin oxidoreductase"</title>
				<rect class="PF00384" x="484" y="28" stroke-linejoin="round" width="42" height="24" fill="rgb(65,194,78)" stroke="rgb(52,155,62)" stroke-width="1" opacity="0.75" />
			</g>
			<g>
				<title>Molybdop_Fe4S4 (PF04879)
"Molybdopterin oxidoreductase Fe4S4 domain"</title>
				<rect class="PF04879" x="527" y="28" stroke-linejoin="round" width="5" height="24" fill="rgb(186,68,186)" stroke="rgb(148,54,148)" stroke-width="1" opacity="0.75" />
			</g>
			<g>
				<title>Fer4_7 (PF12838)
"4Fe-4S dicluster domain"</title>
				<rect class="PF12838" x="538" y="28" stroke-linejoin="round" width="5" height="24" fill="rgb(138,229,96)" stroke="rgb(110,183,76)" stroke-width="1" opacity="0.75" />
			</g>
			<g>
				<title>NADH-G_4Fe-4S_3 (PF10588)
"NADH-ubiquinone oxidoreductase-G iron-sulfur binding region"</title>
				<rect class="PF10588" x="546" y="28" stroke-linejoin="round" width="4" height="24" fill="rgb(70,129,200)" stroke="rgb(56,103,160)" stroke-width="1" opacity="0.75" />
			</g>
			<g>
				<title>Fer2_4 (PF13510)
"2Fe-2S iron-sulfur cluster binding domain"</title>
				<rect class="PF13510" x="550" y="28" stroke-linejoin="round" width="7" height="24" fill="rgb(73,181,142)" stroke="rgb(58,144,113)" stroke-width="1" opacity="0.75" />
			</g>
		</g>
		<g>
			<title> (BRLA_c025620)
hypothetical protein</title>
			<polygon class=" (BRLA_c025620)
hypothetical protein" points="572,10 585,40 572,70" fill="rgb(255,255,255)" fill-opacity="1.0" stroke="rgb(0,0,0)" stroke-width="2"  />
		</g>
		<g>
			<title> (BRLA_c025630)
drug resistance transporter, EmrB/QacA subfamily</title>
			<polygon class=" (BRLA_c025630)
drug resistance transporter, EmrB/QacA subfamily" points="586,25 604,25 604,10 634,40 604,70 604,55 586,55" fill="rgb(255,255,255)" fill-opacity="1.0" stroke="rgb(0,0,0)" stroke-width="2"  />
			<g>
				<title>MFS_1 (PF07690)
"Major Facilitator Superfamily"</title>
				<polygon class="PF07690" points="588,28 618,28 627,37 627,43 618,52 588,52" stroke-linejoin="round" width="39" height="24" fill="rgb(193,224,74)" stroke="rgb(154,179,59)" stroke-width="1" opacity="0.75" />
			</g>
		</g>
		<g>
			<title> (BRLA_c025640)
NRPS domain-containing protein</title>
			<polygon class=" (BRLA_c025640)
NRPS domain-containing protein" points="1058,25 668,25 668,10 638,40 668,70 668,55 1058,55" fill="rgb(255,255,255)" fill-opacity="1.0" stroke="rgb(0,0,0)" stroke-width="2"  />
			<g>
				<title>Thioesterase (PF00975)
"Thioesterase domain"</title>
				<polygon class="PF00975" points="642,40 654,28 660,28 660,52 654,52" stroke-linejoin="round" width="21" height="24" fill="rgb(207,80,138)" stroke="rgb(165,63,110)" stroke-width="1" opacity="0.75" />
			</g>
			<g>
				<title>PP-binding (PF00550)
"Phosphopantetheine attachment site"</title>
				<rect class="PF00550" x="663" y="28" stroke-linejoin="round" width="6" height="24" fill="rgb(103,191,88)" stroke="rgb(82,152,70)" stroke-width="1" opacity="0.75" />
			</g>
			<g>
				<title>AMP-binding_C (PF13193)
"AMP-binding enzyme C-terminal domain"</title>
				<rect class="PF13193" x="672" y="28" stroke-linejoin="round" width="7" height="24" fill="rgb(182,50,118)" stroke="rgb(145,39,94)" stroke-width="1" opacity="0.75" />
			</g>
			<g>
				<title>AMP-binding (PF00501)
"AMP-binding enzyme"</title>
				<rect class="PF00501" x="680" y="28" stroke-linejoin="round" width="39" height="24" fill="rgb(60,217,223)" stroke="rgb(48,173,178)" stroke-width="1" opacity="0.75" />
			</g>
			<g>
				<title>Condensation (PF00668)
"Condensation domain"</title>
				<rect class="PF00668" x="722" y="28" stroke-linejoin="round" width="43" height="24" fill="rgb(224,184,98)" stroke="rgb(179,147,78)" stroke-width="1" opacity="0.75" />
			</g>
			<g>
				<title>PP-binding (PF00550)
"Phosphopantetheine attachment site"</title>
				<rect class="PF00550" x="767" y="28" stroke-linejoin="round" width="6" height="24" fill="rgb(103,191,88)" stroke="rgb(82,152,70)" stroke-width="1" opacity="0.75" />
			</g>
			<g>
				<title>AMP-binding_C (PF13193)
"AMP-binding enzyme C-terminal domain"</title>
				<rect class="PF13193" x="776" y="28" stroke-linejoin="round" width="7" height="24" fill="rgb(182,50,118)" stroke="rgb(145,39,94)" stroke-width="1" opacity="0.75" />
			</g>
			<g>
				<title>AMP-binding (PF00501)
"AMP-binding enzyme"</title>
				<rect class="PF00501" x="784" y="28" stroke-linejoin="round" width="39" height="24" fill="rgb(60,217,223)" stroke="rgb(48,173,178)" stroke-width="1" opacity="0.75" />
			</g>
			<g>
				<title>Condensation (PF00668)
"Condensation domain"</title>
				<rect class="PF00668" x="826" y="28" stroke-linejoin="round" width="43" height="24" fill="rgb(224,184,98)" stroke="rgb(179,147,78)" stroke-width="1" opacity="0.75" />
			</g>
			<g>
				<title>PP-binding (PF00550)
"Phosphopantetheine attachment site"</title>
				<rect class="PF00550" x="871" y="28" stroke-linejoin="round" width="6" height="24" fill="rgb(103,191,88)" stroke="rgb(82,152,70)" stroke-width="1" opacity="0.75" />
			</g>
			<g>
				<title>AMP-binding_C (PF13193)
"AMP-binding enzyme C-terminal domain"</title>
				<rect class="PF13193" x="880" y="28" stroke-linejoin="round" width="7" height="24" fill="rgb(182,50,118)" stroke="rgb(145,39,94)" stroke-width="1" opacity="0.75" />
			</g>
			<g>
				<title>AMP-binding (PF00501)
"AMP-binding enzyme"</title>
				<rect class="PF00501" x="888" y="28" stroke-linejoin="round" width="39" height="24" fill="rgb(60,217,223)" stroke="rgb(48,173,178)" stroke-width="1" opacity="0.75" />
			</g>
			<g>
				<title>Condensation (PF00668)
"Condensation domain"</title>
				<rect class="PF00668" x="929" y="28" stroke-linejoin="round" width="43" height="24" fill="rgb(224,184,98)" stroke="rgb(179,147,78)" stroke-width="1" opacity="0.75" />
			</g>
			<g>
				<title>PP-binding (PF00550)
"Phosphopantetheine attachment site"</title>
				<rect class="PF00550" x="974" y="28" stroke-linejoin="round" width="6" height="24" fill="rgb(103,191,88)" stroke="rgb(82,152,70)" stroke-width="1" opacity="0.75" />
			</g>
			<g>
				<title>AMP-binding_C (PF13193)
"AMP-binding enzyme C-terminal domain"</title>
				<rect class="PF13193" x="984" y="28" stroke-linejoin="round" width="7" height="24" fill="rgb(182,50,118)" stroke="rgb(145,39,94)" stroke-width="1" opacity="0.75" />
			</g>
			<g>
				<title>AMP-binding (PF00501)
"AMP-binding enzyme"</title>
				<rect class="PF00501" x="992" y="28" stroke-linejoin="round" width="39" height="24" fill="rgb(60,217,223)" stroke="rgb(48,173,178)" stroke-width="1" opacity="0.75" />
			</g>
			<g>
				<title>Condensation (PF00668)
"Condensation domain"</title>
				<rect class="PF00668" x="1033" y="28" stroke-linejoin="round" width="24" height="24" fill="rgb(224,184,98)" stroke="rgb(179,147,78)" stroke-width="1" opacity="0.75" />
			</g>
		</g>
		<g>
			<title> (BRLA_c025650)
NRPS domain-containing protein</title>
			<polygon class=" (BRLA_c025650)
NRPS domain-containing protein" points="2283,25 1094,25 1094,10 1064,40 1094,70 1094,55 2283,55" fill="rgb(255,255,255)" fill-opacity="1.0" stroke="rgb(0,0,0)" stroke-width="2"  />
			<g>
				<title>Condensation (PF00668)
"Condensation domain"</title>
				<polygon class="PF00668" points="1068,40 1080,28 1107,28 1107,52 1080,52" stroke-linejoin="round" width="43" height="24" fill="rgb(224,184,98)" stroke="rgb(179,147,78)" stroke-width="1" opacity="0.75" />
			</g>
			<g>
				<title>PP-binding (PF00550)
"Phosphopantetheine attachment site"</title>
				<rect class="PF00550" x="1109" y="28" stroke-linejoin="round" width="6" height="24" fill="rgb(103,191,88)" stroke="rgb(82,152,70)" stroke-width="1" opacity="0.75" />
			</g>
			<g>
				<title>AMP-binding_C (PF13193)
"AMP-binding enzyme C-terminal domain"</title>
				<rect class="PF13193" x="1119" y="28" stroke-linejoin="round" width="7" height="24" fill="rgb(182,50,118)" stroke="rgb(145,39,94)" stroke-width="1" opacity="0.75" />
			</g>
			<g>
				<title>AMP-binding (PF00501)
"AMP-binding enzyme"</title>
				<rect class="PF00501" x="1127" y="28" stroke-linejoin="round" width="39" height="24" fill="rgb(60,217,223)" stroke="rgb(48,173,178)" stroke-width="1" opacity="0.75" />
			</g>
			<g>
				<title>Condensation (PF00668)
"Condensation domain"</title>
				<rect class="PF00668" x="1169" y="28" stroke-linejoin="round" width="43" height="24" fill="rgb(224,184,98)" stroke="rgb(179,147,78)" stroke-width="1" opacity="0.75" />
			</g>
			<g>
				<title>PP-binding (PF00550)
"Phosphopantetheine attachment site"</title>
				<rect class="PF00550" x="1214" y="28" stroke-linejoin="round" width="6" height="24" fill="rgb(103,191,88)" stroke="rgb(82,152,70)" stroke-width="1" opacity="0.75" />
			</g>
			<g>
				<title>AMP-binding_C (PF13193)
"AMP-binding enzyme C-terminal domain"</title>
				<rect class="PF13193" x="1223" y="28" stroke-linejoin="round" width="7" height="24" fill="rgb(182,50,118)" stroke="rgb(145,39,94)" stroke-width="1" opacity="0.75" />
			</g>
			<g>
				<title>AMP-binding (PF00501)
"AMP-binding enzyme"</title>
				<rect class="PF00501" x="1231" y="28" stroke-linejoin="round" width="39" height="24" fill="rgb(60,217,223)" stroke="rgb(48,173,178)" stroke-width="1" opacity="0.75" />
			</g>
			<g>
				<title>Condensation (PF00668)
"Condensation domain"</title>
				<rect class="PF00668" x="1272" y="28" stroke-linejoin="round" width="44" height="24" fill="rgb(224,184,98)" stroke="rgb(179,147,78)" stroke-width="1" opacity="0.75" />
			</g>
			<g>
				<title>Condensation (PF00668)
"Condensation domain"</title>
				<rect class="PF00668" x="1319" y="28" stroke-linejoin="round" width="45" height="24" fill="rgb(224,184,98)" stroke="rgb(179,147,78)" stroke-width="1" opacity="0.75" />
			</g>
			<g>
				<title>PP-binding (PF00550)
"Phosphopantetheine attachment site"</title>
				<rect class="PF00550" x="1365" y="28" stroke-linejoin="round" width="6" height="24" fill="rgb(103,191,88)" stroke="rgb(82,152,70)" stroke-width="1" opacity="0.75" />
			</g>
			<g>
				<title>AMP-binding_C (PF13193)
"AMP-binding enzyme C-terminal domain"</title>
				<rect class="PF13193" x="1374" y="28" stroke-linejoin="round" width="7" height="24" fill="rgb(182,50,118)" stroke="rgb(145,39,94)" stroke-width="1" opacity="0.75" />
			</g>
			<g>
				<title>AMP-binding (PF00501)
"AMP-binding enzyme"</title>
				<rect class="PF00501" x="1382" y="28" stroke-linejoin="round" width="39" height="24" fill="rgb(60,217,223)" stroke="rgb(48,173,178)" stroke-width="1" opacity="0.75" />
			</g>
			<g>
				<title>Condensation (PF00668)
"Condensation domain"</title>
				<rect class="PF00668" x="1424" y="28" stroke-linejoin="round" width="43" height="24" fill="rgb(224,184,98)" stroke="rgb(179,147,78)" stroke-width="1" opacity="0.75" />
			</g>
			<g>
				<title>PP-binding (PF00550)
"Phosphopantetheine attachment site"</title>
				<rect class="PF00550" x="1469" y="28" stroke-linejoin="round" width="6" height="24" fill="rgb(103,191,88)" stroke="rgb(82,152,70)" stroke-width="1" opacity="0.75" />
			</g>
			<g>
				<title>AMP-binding_C (PF13193)
"AMP-binding enzyme C-terminal domain"</title>
				<rect class="PF13193" x="1478" y="28" stroke-linejoin="round" width="7" height="24" fill="rgb(182,50,118)" stroke="rgb(145,39,94)" stroke-width="1" opacity="0.75" />
			</g>
			<g>
				<title>AMP-binding (PF00501)
"AMP-binding enzyme"</title>
				<rect class="PF00501" x="1486" y="28" stroke-linejoin="round" width="39" height="24" fill="rgb(60,217,223)" stroke="rgb(48,173,178)" stroke-width="1" opacity="0.75" />
			</g>
			<g>
				<title>Condensation (PF00668)
"Condensation domain"</title>
				<rect class="PF00668" x="1527" y="28" stroke-linejoin="round" width="43" height="24" fill="rgb(224,184,98)" stroke="rgb(179,147,78)" stroke-width="1" opacity="0.75" />
			</g>
			<g>
				<title>PP-binding (PF00550)
"Phosphopantetheine attachment site"</title>
				<rect class="PF00550" x="1573" y="28" stroke-linejoin="round" width="6" height="24" fill="rgb(103,191,88)" stroke="rgb(82,152,70)" stroke-width="1" opacity="0.75" />
			</g>
			<g>
				<title>AMP-binding_C (PF13193)
"AMP-binding enzyme C-terminal domain"</title>
				<rect class="PF13193" x="1582" y="28" stroke-linejoin="round" width="7" height="24" fill="rgb(182,50,118)" stroke="rgb(145,39,94)" stroke-width="1" opacity="0.75" />
			</g>
			<g>
				<title>AMP-binding (PF00501)
"AMP-binding enzyme"</title>
				<rect class="PF00501" x="1590" y="28" stroke-linejoin="round" width="39" height="24" fill="rgb(60,217,223)" stroke="rgb(48,173,178)" stroke-width="1" opacity="0.75" />
			</g>
			<g>
				<title>Condensation (PF00668)
"Condensation domain"</title>
				<rect class="PF00668" x="1632" y="28" stroke-linejoin="round" width="44" height="24" fill="rgb(224,184,98)" stroke="rgb(179,147,78)" stroke-width="1" opacity="0.75" />
			</g>
			<g>
				<title>Condensation (PF00668)
"Condensation domain"</title>
				<rect class="PF00668" x="1678" y="28" stroke-linejoin="round" width="45" height="24" fill="rgb(224,184,98)" stroke="rgb(179,147,78)" stroke-width="1" opacity="0.75" />
			</g>
			<g>
				<title>PP-binding (PF00550)
"Phosphopantetheine attachment site"</title>
				<rect class="PF00550" x="1724" y="28" stroke-linejoin="round" width="6" height="24" fill="rgb(103,191,88)" stroke="rgb(82,152,70)" stroke-width="1" opacity="0.75" />
			</g>
			<g>
				<title>AMP-binding_C (PF13193)
"AMP-binding enzyme C-terminal domain"</title>
				<rect class="PF13193" x="1733" y="28" stroke-linejoin="round" width="7" height="24" fill="rgb(182,50,118)" stroke="rgb(145,39,94)" stroke-width="1" opacity="0.75" />
			</g>
			<g>
				<title>AMP-binding (PF00501)
"AMP-binding enzyme"</title>
				<rect class="PF00501" x="1742" y="28" stroke-linejoin="round" width="39" height="24" fill="rgb(60,217,223)" stroke="rgb(48,173,178)" stroke-width="1" opacity="0.75" />
			</g>
			<g>
				<title>Condensation (PF00668)
"Condensation domain"</title>
				<rect class="PF00668" x="1783" y="28" stroke-linejoin="round" width="44" height="24" fill="rgb(224,184,98)" stroke="rgb(179,147,78)" stroke-width="1" opacity="0.75" />
			</g>
			<g>
				<title>Condensation (PF00668)
"Condensation domain"</title>
				<rect class="PF00668" x="1830" y="28" stroke-linejoin="round" width="44" height="24" fill="rgb(224,184,98)" stroke="rgb(179,147,78)" stroke-width="1" opacity="0.75" />
			</g>
			<g>
				<title>PP-binding (PF00550)
"Phosphopantetheine attachment site"</title>
				<rect class="PF00550" x="1876" y="28" stroke-linejoin="round" width="6" height="24" fill="rgb(103,191,88)" stroke="rgb(82,152,70)" stroke-width="1" opacity="0.75" />
			</g>
			<g>
				<title>AMP-binding_C (PF13193)
"AMP-binding enzyme C-terminal domain"</title>
				<rect class="PF13193" x="1885" y="28" stroke-linejoin="round" width="7" height="24" fill="rgb(182,50,118)" stroke="rgb(145,39,94)" stroke-width="1" opacity="0.75" />
			</g>
			<g>
				<title>AMP-binding (PF00501)
"AMP-binding enzyme"</title>
				<rect class="PF00501" x="1893" y="28" stroke-linejoin="round" width="39" height="24" fill="rgb(60,217,223)" stroke="rgb(48,173,178)" stroke-width="1" opacity="0.75" />
			</g>
			<g>
				<title>Condensation (PF00668)
"Condensation domain"</title>
				<rect class="PF00668" x="1935" y="28" stroke-linejoin="round" width="44" height="24" fill="rgb(224,184,98)" stroke="rgb(179,147,78)" stroke-width="1" opacity="0.75" />
			</g>
			<g>
				<title>Condensation (PF00668)
"Condensation domain"</title>
				<rect class="PF00668" x="1981" y="28" stroke-linejoin="round" width="44" height="24" fill="rgb(224,184,98)" stroke="rgb(179,147,78)" stroke-width="1" opacity="0.75" />
			</g>
			<g>
				<title>PP-binding (PF00550)
"Phosphopantetheine attachment site"</title>
				<rect class="PF00550" x="2027" y="28" stroke-linejoin="round" width="6" height="24" fill="rgb(103,191,88)" stroke="rgb(82,152,70)" stroke-width="1" opacity="0.75" />
			</g>
			<g>
				<title>AMP-binding_C (PF13193)
"AMP-binding enzyme C-terminal domain"</title>
				<rect class="PF13193" x="2037" y="28" stroke-linejoin="round" width="7" height="24" fill="rgb(182,50,118)" stroke="rgb(145,39,94)" stroke-width="1" opacity="0.75" />
			</g>
			<g>
				<title>AMP-binding (PF00501)
"AMP-binding enzyme"</title>
				<rect class="PF00501" x="2045" y="28" stroke-linejoin="round" width="38" height="24" fill="rgb(60,217,223)" stroke="rgb(48,173,178)" stroke-width="1" opacity="0.75" />
			</g>
			<g>
				<title>Condensation (PF00668)
"Condensation domain"</title>
				<rect class="PF00668" x="2086" y="28" stroke-linejoin="round" width="44" height="24" fill="rgb(224,184,98)" stroke="rgb(179,147,78)" stroke-width="1" opacity="0.75" />
			</g>
			<g>
				<title>Condensation (PF00668)
"Condensation domain"</title>
				<rect class="PF00668" x="2132" y="28" stroke-linejoin="round" width="45" height="24" fill="rgb(224,184,98)" stroke="rgb(179,147,78)" stroke-width="1" opacity="0.75" />
			</g>
			<g>
				<title>PP-binding (PF00550)
"Phosphopantetheine attachment site"</title>
				<rect class="PF00550" x="2178" y="28" stroke-linejoin="round" width="6" height="24" fill="rgb(103,191,88)" stroke="rgb(82,152,70)" stroke-width="1" opacity="0.75" />
			</g>
			<g>
				<title>AMP-binding_C (PF13193)
"AMP-binding enzyme C-terminal domain"</title>
				<rect class="PF13193" x="2187" y="28" stroke-linejoin="round" width="7" height="24" fill="rgb(182,50,118)" stroke="rgb(145,39,94)" stroke-width="1" opacity="0.75" />
			</g>
			<g>
				<title>AMP-binding (PF00501)
"AMP-binding enzyme"</title>
				<rect class="PF00501" x="2195" y="28" stroke-linejoin="round" width="40" height="24" fill="rgb(60,217,223)" stroke="rgb(48,173,178)" stroke-width="1" opacity="0.75" />
			</g>
			<g>
				<title>Condensation (PF00668)
"Condensation domain"</title>
				<rect class="PF00668" x="2238" y="28" stroke-linejoin="round" width="44" height="24" fill="rgb(224,184,98)" stroke="rgb(179,147,78)" stroke-width="1" opacity="0.75" />
			</g>
		</g>
		<g>
			<title> (BRLA_c025660)
putative multidrug export ATP-binding/permease protein</title>
			<polygon class=" (BRLA_c025660)
putative multidrug export ATP-binding/permease protein" points="2360,25 2331,25 2331,10 2301,40 2331,70 2331,55 2360,55" fill="rgb(255,255,255)" fill-opacity="1.0" stroke="rgb(0,0,0)" stroke-width="2"  />
			<g>
				<title>ABC_tran (PF00005)
"ABC transporter"</title>
				<polygon class="PF00005" points="2309,36 2317,28 2323,28 2323,52 2317,52 2309,44" stroke-linejoin="round" width="14" height="24" fill="rgb(129,201,63)" stroke="rgb(103,160,50)" stroke-width="1" opacity="0.75" />
			</g>
			<g>
				<title>ABC_membrane (PF00664)
"ABC transporter transmembrane region"</title>
				<rect class="PF00664" x="2330" y="28" stroke-linejoin="round" width="27" height="24" fill="rgb(149,226,73)" stroke="rgb(119,180,58)" stroke-width="1" opacity="0.75" />
			</g>
		</g>
		<g>
			<title> (BRLA_c025670)
putative multidrug export ATP-binding/permease protein</title>
			<polygon class=" (BRLA_c025670)
putative multidrug export ATP-binding/permease protein" points="2420,25 2391,25 2391,10 2361,40 2391,70 2391,55 2420,55" fill="rgb(255,255,255)" fill-opacity="1.0" stroke="rgb(0,0,0)" stroke-width="2"  />
			<g>
				<title>ABC_tran (PF00005)
"ABC transporter"</title>
				<polygon class="PF00005" points="2369,36 2377,28 2384,28 2384,52 2377,52 2369,44" stroke-linejoin="round" width="15" height="24" fill="rgb(129,201,63)" stroke="rgb(103,160,50)" stroke-width="1" opacity="0.75" />
			</g>
			<g>
				<title>ABC_membrane (PF00664)
"ABC transporter transmembrane region"</title>
				<rect class="PF00664" x="2391" y="28" stroke-linejoin="round" width="27" height="24" fill="rgb(149,226,73)" stroke="rgb(119,180,58)" stroke-width="1" opacity="0.75" />
			</g>
		</g>
		<g>
			<title> (BRLA_c025680)
hypothetical protein</title>
			<polygon class=" (BRLA_c025680)
hypothetical protein" points="2429,10 2434,40 2429,70" fill="rgb(255,255,255)" fill-opacity="1.0" stroke="rgb(0,0,0)" stroke-width="2"  />
		</g>
		<g>
			<title> (BRLA_c025690)
DinB superfamily protein</title>
			<polygon class=" (BRLA_c025690)
DinB superfamily protein" points="2455,10 2471,40 2455,70" fill="rgb(255,255,255)" fill-opacity="1.0" stroke="rgb(0,0,0)" stroke-width="2"  />
			<g>
				<title>DinB_2 (PF12867)
"DinB superfamily"</title>
				<polygon class="PF12867" points="2456,28 2461,28 2468,40 2468,40 2461,52 2456,52" stroke-linejoin="round" width="12" height="24" fill="rgb(184,90,185)" stroke="rgb(147,72,148)" stroke-width="1" opacity="0.75" />
			</g>
		</g>
		<g>
			<title> (BRLA_c025700)
hypothetical protein</title>
			<polygon class=" (BRLA_c025700)
hypothetical protein" points="2473,40 2479,10 2479,70" fill="rgb(255,255,255)" fill-opacity="1.0" stroke="rgb(0,0,0)" stroke-width="2"  />
		</g>
		<g>
			<title> (BRLA_c025710)
putative exonuclease</title>
			<polygon class=" (BRLA_c025710)
putative exonuclease" points="2525,25 2509,25 2509,10 2479,40 2509,70 2509,55 2525,55" fill="rgb(255,255,255)" fill-opacity="1.0" stroke="rgb(0,0,0)" stroke-width="2"  />
			<g>
				<title>RNase_H_2 (PF13482)
"RNase_H superfamily"</title>
				<polygon class="PF13482" points="2494,29 2495,28 2511,28 2511,52 2495,52 2494,51" stroke-linejoin="round" width="17" height="24" fill="rgb(188,69,64)" stroke="rgb(150,55,51)" stroke-width="1" opacity="0.75" />
			</g>
		</g>
		<g>
			<title> (BRLA_c025720)
ATP-dependent helicase</title>
			<polygon class=" (BRLA_c025720)
ATP-dependent helicase" points="2601,25 2555,25 2555,10 2525,40 2555,70 2555,55 2601,55" fill="rgb(255,255,255)" fill-opacity="1.0" stroke="rgb(0,0,0)" stroke-width="2"  />
			<g>
				<title>MZB (PF09369)
"MrfA Zn-binding domain"</title>
				<polygon class="PF09369" points="2529,40 2534,35 2534,45" stroke-linejoin="round" width="7" height="24" fill="rgb(161,180,86)" stroke="rgb(128,144,68)" stroke-width="1" opacity="0.75" />
			</g>
			<g>
				<title>Helicase_C (PF00271)
"Helicase conserved C-terminal domain"</title>
				<rect class="PF00271" x="2561" y="28" stroke-linejoin="round" width="11" height="24" fill="rgb(104,224,158)" stroke="rgb(83,179,126)" stroke-width="1" opacity="0.75" />
			</g>
			<g>
				<title>DEAD (PF00270)
"DEAD/DEAH box helicase"</title>
				<rect class="PF00270" x="2577" y="28" stroke-linejoin="round" width="17" height="24" fill="rgb(195,100,62)" stroke="rgb(156,80,49)" stroke-width="1" opacity="0.75" />
			</g>
		</g>
		<g>
			<title>ywnA_2 (BRLA_c025730)
putative HTH-type transcriptional regulator YwnA</title>
			<polygon class="ywnA_2 (BRLA_c025730)
putative HTH-type transcriptional regulator YwnA" points="2607,40 2621,10 2621,70" fill="rgb(255,255,255)" fill-opacity="1.0" stroke="rgb(0,0,0)" stroke-width="2"  />
			<g>
				<title>Rrf2 (PF02082)
"Iron-dependent Transcriptional regulator"</title>
				<polygon class="PF02082" points="2610,40 2616,28 2621,28 2621,52 2616,52" stroke-linejoin="round" width="13" height="24" fill="rgb(73,178,133)" stroke="rgb(58,142,106)" stroke-width="1" opacity="0.75" />
			</g>
		</g>
		<g>
			<title>pitA_1 (BRLA_c025740)
Low-affinity inorganic phosphate transporter 1</title>
			<polygon class="pitA_1 (BRLA_c025740)
Low-affinity inorganic phosphate transporter 1" points="2660,25 2657,25 2657,10 2627,40 2657,70 2657,55 2660,55" fill="rgb(255,255,255)" fill-opacity="1.0" stroke="rgb(0,0,0)" stroke-width="2"  />
			<g>
				<title>PHO4 (PF01384)
"Phosphate transporter family"</title>
				<polygon class="PF01384" points="2631,40 2643,28 2643,28 2643,52 2643,52" stroke-linejoin="round" width="15" height="24" fill="rgb(50,202,53)" stroke="rgb(40,161,42)" stroke-width="1" opacity="0.75" />
			</g>
			<g>
				<title>PHO4 (PF01384)
"Phosphate transporter family"</title>
				<polygon class="PF01384" points="2643,28 2643,28 2657,28 2657,52 2643,52 2643,52" stroke-linejoin="round" width="14" height="24" fill="rgb(50,202,53)" stroke="rgb(40,161,42)" stroke-width="1" opacity="0.75" />
			</g>
		</g>
		<g>
			<title> (BRLA_c025750)
putative pit accessory protein</title>
			<polygon class=" (BRLA_c025750)
putative pit accessory protein" points="2661,40 2681,10 2681,70" fill="rgb(255,255,255)" fill-opacity="1.0" stroke="rgb(0,0,0)" stroke-width="2"  />
			<g>
				<title>PhoU_div (PF01865)
"Protein of unknown function DUF47"</title>
				<polygon class="PF01865" points="2665,40 2673,28 2681,28 2681,52 2673,52" stroke-linejoin="round" width="20" height="24" fill="rgb(66,161,229)" stroke="rgb(52,128,183)" stroke-width="1" opacity="0.75" />
			</g>
		</g>
		<g>
			<title> (BRLA_c025760)
division inhibitor protein</title>
			<polygon class=" (BRLA_c025760)
division inhibitor protein" points="2683,40 2702,10 2702,70" fill="rgb(255,255,255)" fill-opacity="1.0" stroke="rgb(0,0,0)" stroke-width="2"  />
			<g>
				<title>TetR_C_7 (PF14246)
"AefR-like transcriptional repressor, C-terminal domain"</title>
				<polygon class="PF14246" points="2687,40 2693,31 2693,49" stroke-linejoin="round" width="10" height="24" fill="rgb(198,67,196)" stroke="rgb(158,53,156)" stroke-width="1" opacity="0.75" />
			</g>
			<g>
				<title>TetR_N (PF00440)
"Bacterial regulatory proteins, tetR family"</title>
				<rect class="PF00440" x="2697" y="28" stroke-linejoin="round" width="4" height="24" fill="rgb(73,212,190)" stroke="rgb(58,169,152)" stroke-width="1" opacity="0.75" />
			</g>
		</g>
		<g>
			<title> (BRLA_c025770)
hypothetical protein</title>
			<polygon class=" (BRLA_c025770)
hypothetical protein" points="2714,10 2722,40 2714,70" fill="rgb(255,255,255)" fill-opacity="1.0" stroke="rgb(0,0,0)" stroke-width="2"  />
		</g>
		<g>
			<title> (BRLA_c025780)
putative FAD-binding dehydrogenase</title>
			<polygon class=" (BRLA_c025780)
putative FAD-binding dehydrogenase" points="2745,25 2767,25 2767,10 2797,40 2767,70 2767,55 2745,55" fill="rgb(255,255,255)" fill-opacity="1.0" stroke="rgb(0,0,0)" stroke-width="2"  />
			<g>
				<title>FAD_oxidored (PF12831)
"FAD dependent oxidoreductase"</title>
				<polygon class="PF12831" points="2745,28 2781,28 2793,40 2781,52 2745,52" stroke-linejoin="round" width="50" height="24" fill="rgb(132,217,85)" stroke="rgb(105,173,68)" stroke-width="1" opacity="0.75" />
			</g>
		</g>
		<g>
			<title> (BRLA_c025790)
SMI1 / KNR4 family (SUKH-1)</title>
			<polygon class=" (BRLA_c025790)
SMI1 / KNR4 family (SUKH-1)" points="2816,10 2835,40 2816,70" fill="rgb(255,255,255)" fill-opacity="1.0" stroke="rgb(0,0,0)" stroke-width="2"  />
			<g>
				<title>SMI1_KNR4 (PF09346)
"SMI1 / KNR4 family (SUKH-1)"</title>
				<polygon class="PF09346" points="2819,28 2824,28 2831,40 2824,52 2819,52" stroke-linejoin="round" width="14" height="24" fill="rgb(197,180,87)" stroke="rgb(157,144,69)" stroke-width="1" opacity="0.75" />
			</g>
		</g>
		<g>
			<title> (BRLA_c025800)
putative lyase</title>
			<polygon class=" (BRLA_c025800)
putative lyase" points="2838,10 2851,40 2838,70" fill="rgb(255,255,255)" fill-opacity="1.0" stroke="rgb(0,0,0)" stroke-width="2"  />
			<g>
				<title>Glyoxalase_4 (PF13669)
"Glyoxalase/Bleomycin resistance protein/Dioxygenase superfamily"</title>
				<polygon class="PF13669" points="2838,28 2842,28 2848,40 2848,40 2842,52 2838,52" stroke-linejoin="round" width="10" height="24" fill="rgb(66,183,136)" stroke="rgb(52,146,108)" stroke-width="1" opacity="0.75" />
			</g>
		</g>
		<g>
			<title> (BRLA_c025810)
peptide deformylase</title>
			<polygon class=" (BRLA_c025810)
peptide deformylase" points="2860,10 2877,40 2860,70" fill="rgb(255,255,255)" fill-opacity="1.0" stroke="rgb(0,0,0)" stroke-width="2"  />
			<g>
				<title>Pep_deformylase (PF01327)
"Polypeptide deformylase"</title>
				<polygon class="PF01327" points="2860,28 2866,28 2873,40 2866,52 2860,52" stroke-linejoin="round" width="14" height="24" fill="rgb(104,210,201)" stroke="rgb(83,168,160)" stroke-width="1" opacity="0.75" />
			</g>
		</g>
		<g>
			<title> (BRLA_c025820)
hypothetical protein</title>
			<polygon class=" (BRLA_c025820)
hypothetical protein" points="2879,10 2886,40 2879,70" fill="rgb(255,255,255)" fill-opacity="1.0" stroke="rgb(0,0,0)" stroke-width="2"  />
			<g>
				<title>DUF2905 (PF11146)
"Protein of unknown function (DUF2905)"</title>
				<polygon class="PF11146" points="2879,28 2879,28 2882,40 2879,52 2879,52" stroke-linejoin="round" width="6" height="24" fill="rgb(86,189,142)" stroke="rgb(68,151,113)" stroke-width="1" opacity="0.75" />
			</g>
		</g>
		<g>
			<title>hemAT_2 (BRLA_c025830)
heme-based aerotactic transducer HemAT</title>
			<polygon class="hemAT_2 (BRLA_c025830)
heme-based aerotactic transducer HemAT" points="2933,25 2919,25 2919,10 2889,40 2919,70 2919,55 2933,55" fill="rgb(255,255,255)" fill-opacity="1.0" stroke="rgb(0,0,0)" stroke-width="2"  />
			<g>
				<title>MCPsignal (PF00015)
"Methyl-accepting chemotaxis protein (MCP) signalling domain"</title>
				<polygon class="PF00015" points="2893,40 2905,28 2906,28 2906,52 2905,52" stroke-linejoin="round" width="17" height="24" fill="rgb(104,174,223)" stroke="rgb(83,139,178)" stroke-width="1" opacity="0.75" />
			</g>
			<g>
				<title>Protoglobin (PF11563)
"Protoglobin"</title>
				<rect class="PF11563" x="2914" y="28" stroke-linejoin="round" width="15" height="24" fill="rgb(190,95,63)" stroke="rgb(152,76,50)" stroke-width="1" opacity="0.75" />
			</g>
		</g>
	</g>
</svg>
