<svg version="1.1" baseProfile="full" xmlns="http://www.w3.org/2000/svg" width="138.73333333333335" height="80">
	<g>
		<line x1="10" y1="40.0" x2="128.73333333333335" y2="40.0" style="stroke:rgb(70,70,70); stroke-width:3 "/>
		<g>
			<title> (ACZ75_18260)
hypothetical protein</title>
			<polygon class=" (ACZ75_18260)
hypothetical protein" points="17,10 37,40 17,70" fill="rgb(255,255,255)" fill-opacity="1.0" stroke="rgb(0,0,0)" stroke-width="2"  />
			<g>
				<title>HpcH_HpaI (PF03328)
"HpcH/HpaI aldolase/citrate lyase family"</title>
				<polygon class="PF03328" points="17,28 25,28 30,35 30,45 25,52 17,52" stroke-linejoin="round" width="13" height="24" fill="rgb(81,183,94)" stroke="rgb(64,146,75)" stroke-width="1" opacity="0.75" />
			</g>
		</g>
		<g>
			<title> (ACZ75_18265)
dehydratase</title>
			<polygon class=" (ACZ75_18265)
dehydratase" points="38,10 55,40 38,70" fill="rgb(255,255,255)" fill-opacity="1.0" stroke="rgb(0,0,0)" stroke-width="2"  />
			<g>
				<title>MaoC_dehydratas (PF01575)
"MaoC like domain"</title>
				<polygon class="PF01575" points="40,28 44,28 51,40 51,40 44,52 40,52" stroke-linejoin="round" width="11" height="24" fill="rgb(218,129,86)" stroke="rgb(174,103,68)" stroke-width="1" opacity="0.75" />
			</g>
		</g>
		<g>
			<title> (ACZ75_18275)
aminotransferase class I and II</title>
			<polygon class=" (ACZ75_18275)
aminotransferase class I and II" points="87,25 97,25 97,10 127,40 97,70 97,55 87,55" fill="rgb(255,255,255)" fill-opacity="1.0" stroke="rgb(0,0,0)" stroke-width="2"  />
			<g>
				<title>Aminotran_1_2 (PF00155)
"Aminotransferase class I and II"</title>
				<polygon class="PF00155" points="92,28 111,28 123,40 111,52 92,52" stroke-linejoin="round" width="34" height="24" fill="rgb(89,113,198)" stroke="rgb(71,90,158)" stroke-width="1" opacity="0.75" />
			</g>
		</g>
	</g>
</svg>
