<svg version="1.1" baseProfile="full" xmlns="http://www.w3.org/2000/svg" width="786.6" height="80">
	<g>
		<line x1="10" y1="40.0" x2="776.6" y2="40.0" style="stroke:rgb(70,70,70); stroke-width:3 "/>
		<g>
			<title>swnA
putative aminotransferase</title>
			<polygon class="swnA
putative aminotransferase" points="77,25 57,25 57,10 27,40 57,70 57,55 77,55" fill="rgb(255,255,255)" fill-opacity="1.0" stroke="rgb(0,0,0)" stroke-width="2"  />
			<g>
				<title>Aminotran_1_2 (PF00155)
"Aminotransferase class I and II"</title>
				<polygon class="PF00155" points="31,40 43,28 66,28 66,52 43,52" stroke-linejoin="round" width="38" height="24" fill="rgb(89,113,198)" stroke="rgb(71,90,158)" stroke-width="1" opacity="0.75" />
			</g>
		</g>
		<g>
			<title>swnH1
SwnH1</title>
			<polygon class="swnH1
SwnH1" points="143,25 140,25 140,10 110,40 140,70 140,55 143,55" fill="rgb(255,255,255)" fill-opacity="1.0" stroke="rgb(0,0,0)" stroke-width="2"  />
			<g>
				<title>PhyH (PF05721)
"Phytanoyl-CoA dioxygenase (PhyH)"</title>
				<polygon class="PF05721" points="119,35 126,28 139,28 139,52 126,52 119,45" stroke-linejoin="round" width="20" height="24" fill="rgb(72,132,214)" stroke="rgb(57,105,171)" stroke-width="1" opacity="0.75" />
			</g>
		</g>
		<g>
			<title>swnT</title>
			<polygon class="swnT" points="214,25 227,25 227,10 257,40 227,70 227,55 214,55" fill="rgb(255,255,255)" fill-opacity="1.0" stroke="rgb(0,0,0)" stroke-width="2"  />
			<g>
				<title>AA_permease_2 (PF13520)
"Amino acid permease"</title>
				<rect class="PF13520" x="214" y="28" stroke-linejoin="round" width="11" height="24" fill="rgb(180,217,107)" stroke="rgb(144,173,85)" stroke-width="1" opacity="0.75" />
			</g>
			<g>
				<title>AA_permease_2 (PF13520)
"Amino acid permease"</title>
				<polygon class="PF13520" points="226,28 241,28 249,36 249,44 241,52 226,52" stroke-linejoin="round" width="23" height="24" fill="rgb(180,217,107)" stroke="rgb(144,173,85)" stroke-width="1" opacity="0.75" />
			</g>
		</g>
		<g>
			<title>swnH2
SwnH2</title>
			<polygon class="swnH2
SwnH2" points="297,25 293,25 293,10 263,40 293,70 293,55 297,55" fill="rgb(255,255,255)" fill-opacity="1.0" stroke="rgb(0,0,0)" stroke-width="2"  />
			<g>
				<title>PhyH (PF05721)
"Phytanoyl-CoA dioxygenase (PhyH)"</title>
				<polygon class="PF05721" points="271,36 279,28 291,28 291,52 279,52 271,44" stroke-linejoin="round" width="20" height="24" fill="rgb(72,132,214)" stroke="rgb(57,105,171)" stroke-width="1" opacity="0.75" />
			</g>
		</g>
		<g>
			<title>swnK
SwnK</title>
			<polygon class="swnK
SwnK" points="364,25 584,25 584,10 614,40 584,70 584,55 364,55" fill="rgb(255,255,255)" fill-opacity="1.0" stroke="rgb(0,0,0)" stroke-width="2"  />
			<g>
				<title>AMP-binding (PF00501)
"AMP-binding enzyme"</title>
				<rect class="PF00501" x="367" y="28" stroke-linejoin="round" width="38" height="24" fill="rgb(60,217,223)" stroke="rgb(48,173,178)" stroke-width="1" opacity="0.75" />
			</g>
			<g>
				<title>AMP-binding_C (PF13193)
"AMP-binding enzyme C-terminal domain"</title>
				<rect class="PF13193" x="407" y="28" stroke-linejoin="round" width="7" height="24" fill="rgb(182,50,118)" stroke="rgb(145,39,94)" stroke-width="1" opacity="0.75" />
			</g>
			<g>
				<title>PP-binding (PF00550)
"Phosphopantetheine attachment site"</title>
				<rect class="PF00550" x="417" y="28" stroke-linejoin="round" width="6" height="24" fill="rgb(103,191,88)" stroke="rgb(82,152,70)" stroke-width="1" opacity="0.75" />
			</g>
			<g>
				<title>ketoacyl-synt (PF00109)
"Beta-ketoacyl synthase, N-terminal domain"</title>
				<rect class="PF00109" x="426" y="28" stroke-linejoin="round" width="24" height="24" fill="rgb(112,116,228)" stroke="rgb(89,92,182)" stroke-width="1" opacity="0.75" />
			</g>
			<g>
				<title>Ketoacyl-synt_C (PF02801)
"Beta-ketoacyl synthase, C-terminal domain"</title>
				<rect class="PF02801" x="451" y="28" stroke-linejoin="round" width="11" height="24" fill="rgb(215,78,102)" stroke="rgb(172,62,81)" stroke-width="1" opacity="0.75" />
			</g>
			<g>
				<title>KAsynt_C_assoc (PF16197)
"Ketoacyl-synthetase C-terminal extension"</title>
				<rect class="PF16197" x="463" y="28" stroke-linejoin="round" width="12" height="24" fill="rgb(240,150,172)" stroke="rgb(192,120,137)" stroke-width="1" opacity="0.75" />
			</g>
			<g>
				<title>Acyl_transf_1 (PF00698)
"Acyl transferase domain"</title>
				<rect class="PF00698" x="479" y="28" stroke-linejoin="round" width="32" height="24" fill="rgb(59,176,209)" stroke="rgb(47,140,167)" stroke-width="1" opacity="0.75" />
			</g>
			<g>
				<title>KR (PF08659)
"KR domain"</title>
				<rect class="PF08659" x="537" y="28" stroke-linejoin="round" width="17" height="24" fill="rgb(66,209,188)" stroke="rgb(52,167,150)" stroke-width="1" opacity="0.75" />
			</g>
			<g>
				<title>PP-binding (PF00550)
"Phosphopantetheine attachment site"</title>
				<rect class="PF00550" x="565" y="28" stroke-linejoin="round" width="6" height="24" fill="rgb(103,191,88)" stroke="rgb(82,152,70)" stroke-width="1" opacity="0.75" />
			</g>
			<g>
				<title>NAD_binding_4 (PF07993)
"Male sterility protein"</title>
				<polygon class="PF07993" points="578,28 597,28 600,31 600,49 597,52 578,52" stroke-linejoin="round" width="22" height="24" fill="rgb(100,212,204)" stroke="rgb(80,169,163)" stroke-width="1" opacity="0.75" />
			</g>
		</g>
		<g>
			<title>swnR
SwnR</title>
			<polygon class="swnR
SwnR" points="654,25 654,25 654,10 624,40 654,70 654,55 654,55" fill="rgb(255,255,255)" fill-opacity="1.0" stroke="rgb(0,0,0)" stroke-width="2"  />
			<g>
				<title>NAD_binding_10 (PF13460)
"NAD(P)H-binding"</title>
				<polygon class="PF13460" points="638,30 640,28 653,28 653,52 640,52 638,50" stroke-linejoin="round" width="15" height="24" fill="rgb(188,201,78)" stroke="rgb(150,160,62)" stroke-width="1" opacity="0.75" />
			</g>
		</g>
		<g>
			<title>swnN
SwnN</title>
			<polygon class="swnN
SwnN" points="684,25 691,25 691,10 721,40 691,70 691,55 684,55" fill="rgb(255,255,255)" fill-opacity="1.0" stroke="rgb(0,0,0)" stroke-width="2"  />
			<g>
				<title>NmrA (PF05368)
"NmrA-like family"</title>
				<polygon class="PF05368" points="684,28 705,28 707,30 707,50 705,52 684,52" stroke-linejoin="round" width="23" height="24" fill="rgb(97,49,192)" stroke="rgb(77,39,153)" stroke-width="1" opacity="0.75" />
			</g>
		</g>
	</g>
</svg>
