<svg version="1.1" baseProfile="full" xmlns="http://www.w3.org/2000/svg" width="2508.3" height="80">
	<g>
		<line x1="10" y1="40.0" x2="2498.3" y2="40.0" style="stroke:rgb(70,70,70); stroke-width:3 "/>
		<g>
			<title> (g105.t1)</title>
			<polygon class=" (g105.t1)" points="170,25 154,25 154,10 124,40 154,70 154,55 170,55" fill="rgb(255,255,255)" fill-opacity="1.0" stroke="rgb(0,0,0)" stroke-width="2"  />
		</g>
		<g>
			<title> (g106.t1)</title>
			<polygon class=" (g106.t1)" points="583,25 273,25 273,10 243,40 273,70 273,55 583,55" fill="rgb(255,255,255)" fill-opacity="1.0" stroke="rgb(0,0,0)" stroke-width="2"  />
			<g>
				<title>RVT_1 (PF00078)
"Reverse transcriptase (RNA-dependent DNA polymerase)"</title>
				<rect class="PF00078" x="465" y="28" stroke-linejoin="round" width="13" height="24" fill="rgb(85,219,135)" stroke="rgb(68,175,108)" stroke-width="1" opacity="0.75" />
			</g>
			<g>
				<title>RT_RNaseH (PF17917)
"RNase H-like domain found in reverse transcriptase"</title>
				<rect class="PF17917" x="560" y="28" stroke-linejoin="round" width="9" height="24" fill="rgb(65,226,227)" stroke="rgb(52,180,181)" stroke-width="1" opacity="0.75" />
			</g>
		</g>
		<g>
			<title> (g107.t1)</title>
			<polygon class=" (g107.t1)" points="622,10 643,40 622,70" fill="rgb(255,255,255)" fill-opacity="1.0" stroke="rgb(0,0,0)" stroke-width="2"  />
		</g>
		<g>
			<title> (g108.t1)</title>
			<polygon class=" (g108.t1)" points="651,10 679,40 651,70" fill="rgb(255,255,255)" fill-opacity="1.0" stroke="rgb(0,0,0)" stroke-width="2"  />
		</g>
		<g>
			<title> (g109.t1)</title>
			<polygon class=" (g109.t1)" points="878,10 888,40 878,70" fill="rgb(255,255,255)" fill-opacity="1.0" stroke="rgb(0,0,0)" stroke-width="2"  />
		</g>
		<g>
			<title> (g110.t1)</title>
			<polygon class=" (g110.t1)" points="956,25 921,25 921,10 891,40 921,70 921,55 956,55" fill="rgb(255,255,255)" fill-opacity="1.0" stroke="rgb(0,0,0)" stroke-width="2"  />
		</g>
		<g>
			<title> (g111.t1)</title>
			<polygon class=" (g111.t1)" points="1037,25 1066,25 1066,10 1096,40 1066,70 1066,55 1037,55" fill="rgb(255,255,255)" fill-opacity="1.0" stroke="rgb(0,0,0)" stroke-width="2"  />
		</g>
		<g>
			<title> (g112.t1)</title>
			<polygon class=" (g112.t1)" points="1101,10 1108,40 1101,70" fill="rgb(255,255,255)" fill-opacity="1.0" stroke="rgb(0,0,0)" stroke-width="2"  />
		</g>
		<g>
			<title> (g113.t1)</title>
			<polygon class=" (g113.t1)" points="1269,25 1280,25 1280,10 1310,40 1280,70 1280,55 1269,55" fill="rgb(255,255,255)" fill-opacity="1.0" stroke="rgb(0,0,0)" stroke-width="2"  />
		</g>
		<g>
			<title> (g114.t1)</title>
			<polygon class=" (g114.t1)" points="1502,25 1470,25 1470,10 1440,40 1470,70 1470,55 1502,55" fill="rgb(255,255,255)" fill-opacity="1.0" stroke="rgb(0,0,0)" stroke-width="2"  />
			<g>
				<title>Terpene_synth_C (PF03936)
"Terpene synthase family, metal binding domain"</title>
				<rect class="PF03936" x="1482" y="28" stroke-linejoin="round" width="8" height="24" fill="rgb(219,91,215)" stroke="rgb(175,72,171)" stroke-width="1" opacity="0.75" />
			</g>
			<g>
				<title>Terpene_synth (PF01397)
"Terpene synthase, N-terminal domain"</title>
				<rect class="PF01397" x="1494" y="28" stroke-linejoin="round" width="7" height="24" fill="rgb(74,159,219)" stroke="rgb(59,127,175)" stroke-width="1" opacity="0.75" />
			</g>
		</g>
		<g>
			<title> (g115.t1)</title>
			<polygon class=" (g115.t1)" points="1658,10 1681,40 1658,70" fill="rgb(255,255,255)" fill-opacity="1.0" stroke="rgb(0,0,0)" stroke-width="2"  />
			<g>
				<title>p450 (PF00067)
"Cytochrome P450"</title>
				<polygon class="PF00067" points="1661,28 1668,28 1671,32 1671,48 1668,52 1661,52" stroke-linejoin="round" width="10" height="24" fill="rgb(85,216,107)" stroke="rgb(68,172,85)" stroke-width="1" opacity="0.75" />
			</g>
		</g>
		<g>
			<title> (g116.t1)</title>
			<polygon class=" (g116.t1)" points="1698,25 1758,25 1758,10 1788,40 1758,70 1758,55 1698,55" fill="rgb(255,255,255)" fill-opacity="1.0" stroke="rgb(0,0,0)" stroke-width="2"  />
			<g>
				<title>Retrotran_gag_3 (PF14244)
"gag-polypeptide of LTR copia-type"</title>
				<rect class="PF14244" x="1701" y="28" stroke-linejoin="round" width="4" height="24" fill="rgb(59,96,219)" stroke="rgb(47,76,175)" stroke-width="1" opacity="0.75" />
			</g>
			<g>
				<title>Retrotrans_gag (PF03732)
"Retrotransposon gag protein"</title>
				<rect class="PF03732" x="1706" y="28" stroke-linejoin="round" width="11" height="24" fill="rgb(128,204,95)" stroke="rgb(102,163,76)" stroke-width="1" opacity="0.75" />
			</g>
			<g>
				<title>rve (PF00665)
"Integrase core domain"</title>
				<rect class="PF00665" x="1759" y="28" stroke-linejoin="round" width="10" height="24" fill="rgb(93,64,200)" stroke="rgb(74,51,160)" stroke-width="1" opacity="0.75" />
			</g>
		</g>
		<g>
			<title> (g117.t1)</title>
			<polygon class=" (g117.t1)" points="1793,25 1843,25 1843,10 1873,40 1843,70 1843,55 1793,55" fill="rgb(255,255,255)" fill-opacity="1.0" stroke="rgb(0,0,0)" stroke-width="2"  />
			<g>
				<title>RVT_2 (PF07727)
"Reverse transcriptase (RNA-dependent DNA polymerase)"</title>
				<rect class="PF07727" x="1808" y="28" stroke-linejoin="round" width="9" height="24" fill="rgb(144,185,92)" stroke="rgb(115,148,73)" stroke-width="1" opacity="0.75" />
			</g>
			<g>
				<title>RVT_2 (PF07727)
"Reverse transcriptase (RNA-dependent DNA polymerase)"</title>
				<rect class="PF07727" x="1817" y="28" stroke-linejoin="round" width="12" height="24" fill="rgb(144,185,92)" stroke="rgb(115,148,73)" stroke-width="1" opacity="0.75" />
			</g>
			<g>
				<title>p450 (PF00067)
"Cytochrome P450"</title>
				<rect class="PF00067" x="1848" y="28" stroke-linejoin="round" width="8" height="24" fill="rgb(85,216,107)" stroke="rgb(68,172,85)" stroke-width="1" opacity="0.75" />
			</g>
		</g>
		<g>
			<title> (g118.t1)</title>
			<polygon class=" (g118.t1)" points="2154,10 2163,40 2154,70" fill="rgb(255,255,255)" fill-opacity="1.0" stroke="rgb(0,0,0)" stroke-width="2"  />
		</g>
	</g>
</svg>
