<svg version="1.1" baseProfile="full" xmlns="http://www.w3.org/2000/svg" width="2085.3333333333335" height="80">
	<g>
		<line x1="10" y1="40.0" x2="2075.3333333333335" y2="40.0" style="stroke:rgb(70,70,70); stroke-width:3 "/>
		<g>
			<title> (NaganishiaadeliensisGCA012922715.1_004662)
hypothetical protein</title>
			<polygon class=" (NaganishiaadeliensisGCA012922715.1_004662)
hypothetical protein" points="72,40 93,10 93,70" fill="rgb(255,255,255)" fill-opacity="1.0" stroke="rgb(0,0,0)" stroke-width="2"  />
		</g>
		<g>
			<title> (NaganishiaadeliensisGCA012922715.1_004663)
hypothetical protein</title>
			<polygon class=" (NaganishiaadeliensisGCA012922715.1_004663)
hypothetical protein" points="105,25 138,25 138,10 168,40 138,70 138,55 105,55" fill="rgb(255,255,255)" fill-opacity="1.0" stroke="rgb(0,0,0)" stroke-width="2"  />
		</g>
		<g>
			<title> (NaganishiaadeliensisGCA012922715.1_004664)
hypothetical protein</title>
			<polygon class=" (NaganishiaadeliensisGCA012922715.1_004664)
hypothetical protein" points="278,25 206,25 206,10 176,40 206,70 206,55 278,55" fill="rgb(255,255,255)" fill-opacity="1.0" stroke="rgb(0,0,0)" stroke-width="2"  />
		</g>
		<g>
			<title> (NaganishiaadeliensisGCA012922715.1_004665)
hypothetical protein</title>
			<polygon class=" (NaganishiaadeliensisGCA012922715.1_004665)
hypothetical protein" points="526,25 460,25 460,10 430,40 460,70 460,55 526,55" fill="rgb(255,255,255)" fill-opacity="1.0" stroke="rgb(0,0,0)" stroke-width="2"  />
		</g>
		<g>
			<title> (NaganishiaadeliensisGCA012922715.1_004666)
hypothetical protein</title>
			<polygon class=" (NaganishiaadeliensisGCA012922715.1_004666)
hypothetical protein" points="589,25 585,25 585,10 555,40 585,70 585,55 589,55" fill="rgb(255,255,255)" fill-opacity="1.0" stroke="rgb(0,0,0)" stroke-width="2"  />
		</g>
		<g>
			<title> (NaganishiaadeliensisGCA012922715.1_004667)
hypothetical protein</title>
			<polygon class=" (NaganishiaadeliensisGCA012922715.1_004667)
hypothetical protein" points="711,25 639,25 639,10 609,40 639,70 639,55 711,55" fill="rgb(255,255,255)" fill-opacity="1.0" stroke="rgb(0,0,0)" stroke-width="2"  />
		</g>
		<g>
			<title> (NaganishiaadeliensisGCA012922715.1_004668)
hypothetical protein</title>
			<polygon class=" (NaganishiaadeliensisGCA012922715.1_004668)
hypothetical protein" points="791,25 832,25 832,10 862,40 832,70 832,55 791,55" fill="rgb(255,255,255)" fill-opacity="1.0" stroke="rgb(0,0,0)" stroke-width="2"  />
		</g>
		<g>
			<title> (NaganishiaadeliensisGCA012922715.1_004669)
hypothetical protein</title>
			<polygon class=" (NaganishiaadeliensisGCA012922715.1_004669)
hypothetical protein" points="899,25 895,25 895,10 865,40 895,70 895,55 899,55" fill="rgb(255,255,255)" fill-opacity="1.0" stroke="rgb(0,0,0)" stroke-width="2"  />
		</g>
		<g>
			<title> (NaganishiaadeliensisGCA012922715.1_004670)
hypothetical protein</title>
			<polygon class=" (NaganishiaadeliensisGCA012922715.1_004670)
hypothetical protein" points="914,40 940,10 940,70" fill="rgb(255,255,255)" fill-opacity="1.0" stroke="rgb(0,0,0)" stroke-width="2"  />
		</g>
		<g>
			<title> (NaganishiaadeliensisGCA012922715.1_004671)
hypothetical protein</title>
			<polygon class=" (NaganishiaadeliensisGCA012922715.1_004671)
hypothetical protein" points="956,25 968,25 968,10 998,40 968,70 968,55 956,55" fill="rgb(255,255,255)" fill-opacity="1.0" stroke="rgb(0,0,0)" stroke-width="2"  />
		</g>
		<g>
			<title> (NaganishiaadeliensisGCA012922715.1_004672)
hypothetical protein</title>
			<polygon class=" (NaganishiaadeliensisGCA012922715.1_004672)
hypothetical protein" points="1075,25 1040,25 1040,10 1010,40 1040,70 1040,55 1075,55" fill="rgb(255,255,255)" fill-opacity="1.0" stroke="rgb(0,0,0)" stroke-width="2"  />
		</g>
		<g>
			<title> (NaganishiaadeliensisGCA012922715.1_004673)
hypothetical protein</title>
			<polygon class=" (NaganishiaadeliensisGCA012922715.1_004673)
hypothetical protein" points="1230,25 1169,25 1169,10 1139,40 1169,70 1169,55 1230,55" fill="rgb(255,255,255)" fill-opacity="1.0" stroke="rgb(0,0,0)" stroke-width="2"  />
		</g>
		<g>
			<title> (NaganishiaadeliensisGCA012922715.1_004674)
hypothetical protein</title>
			<polygon class=" (NaganishiaadeliensisGCA012922715.1_004674)
hypothetical protein" points="1239,25 1256,25 1256,10 1286,40 1256,70 1256,55 1239,55" fill="rgb(255,255,255)" fill-opacity="1.0" stroke="rgb(0,0,0)" stroke-width="2"  />
		</g>
		<g>
			<title> (NaganishiaadeliensisGCA012922715.1_004675)
hypothetical protein</title>
			<polygon class=" (NaganishiaadeliensisGCA012922715.1_004675)
hypothetical protein" points="1290,40 1309,10 1309,70" fill="rgb(255,255,255)" fill-opacity="1.0" stroke="rgb(0,0,0)" stroke-width="2"  />
		</g>
		<g>
			<title> (NaganishiaadeliensisGCA012922715.1_004676)
hypothetical protein</title>
			<polygon class=" (NaganishiaadeliensisGCA012922715.1_004676)
hypothetical protein" points="1389,25 1351,25 1351,10 1321,40 1351,70 1351,55 1389,55" fill="rgb(255,255,255)" fill-opacity="1.0" stroke="rgb(0,0,0)" stroke-width="2"  />
		</g>
		<g>
			<title> (NaganishiaadeliensisGCA012922715.1_004677)
hypothetical protein</title>
			<polygon class=" (NaganishiaadeliensisGCA012922715.1_004677)
hypothetical protein" points="1405,25 1463,25 1463,10 1493,40 1463,70 1463,55 1405,55" fill="rgb(255,255,255)" fill-opacity="1.0" stroke="rgb(0,0,0)" stroke-width="2"  />
		</g>
		<g>
			<title> (NaganishiaadeliensisGCA012922715.1_004678)
hypothetical protein</title>
			<polygon class=" (NaganishiaadeliensisGCA012922715.1_004678)
hypothetical protein" points="1598,25 1528,25 1528,10 1498,40 1528,70 1528,55 1598,55" fill="rgb(255,255,255)" fill-opacity="1.0" stroke="rgb(0,0,0)" stroke-width="2"  />
		</g>
		<g>
			<title> (NaganishiaadeliensisGCA012922715.1_004679)
hypothetical protein</title>
			<polygon class=" (NaganishiaadeliensisGCA012922715.1_004679)
hypothetical protein" points="1692,25 1680,25 1680,10 1650,40 1680,70 1680,55 1692,55" fill="rgb(255,255,255)" fill-opacity="1.0" stroke="rgb(0,0,0)" stroke-width="2"  />
		</g>
		<g>
			<title> (NaganishiaadeliensisGCA012922715.1_004680)
hypothetical protein</title>
			<polygon class=" (NaganishiaadeliensisGCA012922715.1_004680)
hypothetical protein" points="1754,25 1741,25 1741,10 1711,40 1741,70 1741,55 1754,55" fill="rgb(255,255,255)" fill-opacity="1.0" stroke="rgb(0,0,0)" stroke-width="2"  />
		</g>
		<g>
			<title> (NaganishiaadeliensisGCA012922715.1_004681)
hypothetical protein</title>
			<polygon class=" (NaganishiaadeliensisGCA012922715.1_004681)
hypothetical protein" points="1835,25 1796,25 1796,10 1766,40 1796,70 1796,55 1835,55" fill="rgb(255,255,255)" fill-opacity="1.0" stroke="rgb(0,0,0)" stroke-width="2"  />
		</g>
		<g>
			<title> (NaganishiaadeliensisGCA012922715.1_004682)
hypothetical protein</title>
			<polygon class=" (NaganishiaadeliensisGCA012922715.1_004682)
hypothetical protein" points="1972,25 1897,25 1897,10 1867,40 1897,70 1897,55 1972,55" fill="rgb(255,255,255)" fill-opacity="1.0" stroke="rgb(0,0,0)" stroke-width="2"  />
		</g>
		<g>
			<title> (NaganishiaadeliensisGCA012922715.1_004683)
hypothetical protein</title>
			<polygon class=" (NaganishiaadeliensisGCA012922715.1_004683)
hypothetical protein" points="2038,25 2019,25 2019,10 1989,40 2019,70 2019,55 2038,55" fill="rgb(255,255,255)" fill-opacity="1.0" stroke="rgb(0,0,0)" stroke-width="2"  />
		</g>
	</g>
</svg>
