<svg version="1.1" baseProfile="full" xmlns="http://www.w3.org/2000/svg" width="1094.2" height="80">
	<g>
		<line x1="10" y1="40.0" x2="1084.2" y2="40.0" style="stroke:rgb(70,70,70); stroke-width:3 "/>
		<g>
			<title> (NaganishialiquefaciensGCA013423385.1_005137)
hypothetical protein</title>
			<polygon class=" (NaganishialiquefaciensGCA013423385.1_005137)
hypothetical protein" points="239,25 48,25 48,10 18,40 48,70 48,55 239,55" fill="rgb(255,255,255)" fill-opacity="1.0" stroke="rgb(0,0,0)" stroke-width="2"  />
		</g>
		<g>
			<title> (NaganishialiquefaciensGCA013423385.1_005138)
hypothetical protein</title>
			<polygon class=" (NaganishialiquefaciensGCA013423385.1_005138)
hypothetical protein" points="295,25 295,25 295,10 265,40 295,70 295,55 295,55" fill="rgb(255,255,255)" fill-opacity="1.0" stroke="rgb(0,0,0)" stroke-width="2"  />
		</g>
		<g>
			<title> (NaganishialiquefaciensGCA013423385.1_005139)
hypothetical protein</title>
			<polygon class=" (NaganishialiquefaciensGCA013423385.1_005139)
hypothetical protein" points="305,25 355,25 355,10 385,40 355,70 355,55 305,55" fill="rgb(255,255,255)" fill-opacity="1.0" stroke="rgb(0,0,0)" stroke-width="2"  />
		</g>
		<g>
			<title> (NaganishialiquefaciensGCA013423385.1_005140)
hypothetical protein</title>
			<polygon class=" (NaganishialiquefaciensGCA013423385.1_005140)
hypothetical protein" points="584,25 540,25 540,10 510,40 540,70 540,55 584,55" fill="rgb(255,255,255)" fill-opacity="1.0" stroke="rgb(0,0,0)" stroke-width="2"  />
		</g>
		<g>
			<title> (NaganishialiquefaciensGCA013423385.1_005141)
hypothetical protein</title>
			<polygon class=" (NaganishialiquefaciensGCA013423385.1_005141)
hypothetical protein" points="695,25 624,25 624,10 594,40 624,70 624,55 695,55" fill="rgb(255,255,255)" fill-opacity="1.0" stroke="rgb(0,0,0)" stroke-width="2"  />
		</g>
		<g>
			<title> (NaganishialiquefaciensGCA013423385.1_005142)
hypothetical protein</title>
			<polygon class=" (NaganishialiquefaciensGCA013423385.1_005142)
hypothetical protein" points="750,25 772,25 772,10 802,40 772,70 772,55 750,55" fill="rgb(255,255,255)" fill-opacity="1.0" stroke="rgb(0,0,0)" stroke-width="2"  />
		</g>
		<g>
			<title> (NaganishialiquefaciensGCA013423385.1_005143)
hypothetical protein</title>
			<polygon class=" (NaganishialiquefaciensGCA013423385.1_005143)
hypothetical protein" points="819,25 908,25 908,10 938,40 908,70 908,55 819,55" fill="rgb(255,255,255)" fill-opacity="1.0" stroke="rgb(0,0,0)" stroke-width="2"  />
		</g>
		<g>
			<title> (NaganishialiquefaciensGCA013423385.1_005144)
hypothetical protein</title>
			<polygon class=" (NaganishialiquefaciensGCA013423385.1_005144)
hypothetical protein" points="948,25 949,25 949,10 979,40 949,70 949,55 948,55" fill="rgb(255,255,255)" fill-opacity="1.0" stroke="rgb(0,0,0)" stroke-width="2"  />
		</g>
	</g>
</svg>
