<svg version="1.1" baseProfile="full" xmlns="http://www.w3.org/2000/svg" width="1563.7333333333333" height="80">
	<g>
		<line x1="10" y1="40.0" x2="1553.7333333333333" y2="40.0" style="stroke:rgb(70,70,70); stroke-width:3 "/>
		<g>
			<title> (NaganishiarandhawaeGCA013461525.1_005460)
hypothetical protein</title>
			<polygon class=" (NaganishiarandhawaeGCA013461525.1_005460)
hypothetical protein" points="123,25 135,25 135,10 165,40 135,70 135,55 123,55" fill="rgb(255,255,255)" fill-opacity="1.0" stroke="rgb(0,0,0)" stroke-width="2"  />
		</g>
		<g>
			<title> (NaganishiarandhawaeGCA013461525.1_005461)
hypothetical protein</title>
			<polygon class=" (NaganishiarandhawaeGCA013461525.1_005461)
hypothetical protein" points="210,25 202,25 202,10 172,40 202,70 202,55 210,55" fill="rgb(255,255,255)" fill-opacity="1.0" stroke="rgb(0,0,0)" stroke-width="2"  />
		</g>
		<g>
			<title> (NaganishiarandhawaeGCA013461525.1_005462)
hypothetical protein</title>
			<polygon class=" (NaganishiarandhawaeGCA013461525.1_005462)
hypothetical protein" points="218,25 219,25 219,10 249,40 219,70 219,55 218,55" fill="rgb(255,255,255)" fill-opacity="1.0" stroke="rgb(0,0,0)" stroke-width="2"  />
		</g>
		<g>
			<title> (NaganishiarandhawaeGCA013461525.1_005463)
hypothetical protein</title>
			<polygon class=" (NaganishiarandhawaeGCA013461525.1_005463)
hypothetical protein" points="335,25 441,25 441,10 471,40 441,70 441,55 335,55" fill="rgb(255,255,255)" fill-opacity="1.0" stroke="rgb(0,0,0)" stroke-width="2"  />
		</g>
		<g>
			<title> (NaganishiarandhawaeGCA013461525.1_005464)
hypothetical protein</title>
			<polygon class=" (NaganishiarandhawaeGCA013461525.1_005464)
hypothetical protein" points="506,25 517,25 517,10 547,40 517,70 517,55 506,55" fill="rgb(255,255,255)" fill-opacity="1.0" stroke="rgb(0,0,0)" stroke-width="2"  />
		</g>
		<g>
			<title> (NaganishiarandhawaeGCA013461525.1_005465)
hypothetical protein</title>
			<polygon class=" (NaganishiarandhawaeGCA013461525.1_005465)
hypothetical protein" points="562,25 601,25 601,10 631,40 601,70 601,55 562,55" fill="rgb(255,255,255)" fill-opacity="1.0" stroke="rgb(0,0,0)" stroke-width="2"  />
		</g>
		<g>
			<title> (NaganishiarandhawaeGCA013461525.1_005466)
hypothetical protein</title>
			<polygon class=" (NaganishiarandhawaeGCA013461525.1_005466)
hypothetical protein" points="771,25 754,25 754,10 724,40 754,70 754,55 771,55" fill="rgb(255,255,255)" fill-opacity="1.0" stroke="rgb(0,0,0)" stroke-width="2"  />
		</g>
		<g>
			<title> (NaganishiarandhawaeGCA013461525.1_005467)
hypothetical protein</title>
			<polygon class=" (NaganishiarandhawaeGCA013461525.1_005467)
hypothetical protein" points="865,25 968,25 968,10 998,40 968,70 968,55 865,55" fill="rgb(255,255,255)" fill-opacity="1.0" stroke="rgb(0,0,0)" stroke-width="2"  />
		</g>
		<g>
			<title> (NaganishiarandhawaeGCA013461525.1_005468)
hypothetical protein</title>
			<polygon class=" (NaganishiarandhawaeGCA013461525.1_005468)
hypothetical protein" points="1139,25 1040,25 1040,10 1010,40 1040,70 1040,55 1139,55" fill="rgb(255,255,255)" fill-opacity="1.0" stroke="rgb(0,0,0)" stroke-width="2"  />
		</g>
		<g>
			<title> (NaganishiarandhawaeGCA013461525.1_005469)
hypothetical protein</title>
			<polygon class=" (NaganishiarandhawaeGCA013461525.1_005469)
hypothetical protein" points="1157,25 1169,25 1169,10 1199,40 1169,70 1169,55 1157,55" fill="rgb(255,255,255)" fill-opacity="1.0" stroke="rgb(0,0,0)" stroke-width="2"  />
		</g>
		<g>
			<title> (NaganishiarandhawaeGCA013461525.1_005470)
hypothetical protein</title>
			<polygon class=" (NaganishiarandhawaeGCA013461525.1_005470)
hypothetical protein" points="1302,25 1243,25 1243,10 1213,40 1243,70 1243,55 1302,55" fill="rgb(255,255,255)" fill-opacity="1.0" stroke="rgb(0,0,0)" stroke-width="2"  />
		</g>
		<g>
			<title> (NaganishiarandhawaeGCA013461525.1_005471)
hypothetical protein</title>
			<polygon class=" (NaganishiarandhawaeGCA013461525.1_005471)
hypothetical protein" points="1374,25 1420,25 1420,10 1450,40 1420,70 1420,55 1374,55" fill="rgb(255,255,255)" fill-opacity="1.0" stroke="rgb(0,0,0)" stroke-width="2"  />
		</g>
	</g>
</svg>
