<svg version="1.1" baseProfile="full" xmlns="http://www.w3.org/2000/svg" width="1099.6" height="80">
	<g>
		<line x1="10" y1="40.0" x2="1089.6" y2="40.0" style="stroke:rgb(70,70,70); stroke-width:3 "/>
		<g>
			<title> (NaganishiaantarcticaGCA025758675.1_005459)
hypothetical protein</title>
			<polygon class=" (NaganishiaantarcticaGCA025758675.1_005459)
hypothetical protein" points="38,25 120,25 120,10 150,40 120,70 120,55 38,55" fill="rgb(255,255,255)" fill-opacity="1.0" stroke="rgb(0,0,0)" stroke-width="2"  />
		</g>
		<g>
			<title> (NaganishiaantarcticaGCA025758675.1_005460)
hypothetical protein</title>
			<polygon class=" (NaganishiaantarcticaGCA025758675.1_005460)
hypothetical protein" points="244,25 199,25 199,10 169,40 199,70 199,55 244,55" fill="rgb(255,255,255)" fill-opacity="1.0" stroke="rgb(0,0,0)" stroke-width="2"  />
		</g>
		<g>
			<title> (NaganishiaantarcticaGCA025758675.1_005461)
hypothetical protein</title>
			<polygon class=" (NaganishiaantarcticaGCA025758675.1_005461)
hypothetical protein" points="338,25 299,25 299,10 269,40 299,70 299,55 338,55" fill="rgb(255,255,255)" fill-opacity="1.0" stroke="rgb(0,0,0)" stroke-width="2"  />
		</g>
		<g>
			<title> (NaganishiaantarcticaGCA025758675.1_005462)
hypothetical protein</title>
			<polygon class=" (NaganishiaantarcticaGCA025758675.1_005462)
hypothetical protein" points="397,25 469,25 469,10 499,40 469,70 469,55 397,55" fill="rgb(255,255,255)" fill-opacity="1.0" stroke="rgb(0,0,0)" stroke-width="2"  />
		</g>
		<g>
			<title> (NaganishiaantarcticaGCA025758675.1_005463)
hypothetical protein</title>
			<polygon class=" (NaganishiaantarcticaGCA025758675.1_005463)
hypothetical protein" points="510,25 559,25 559,10 589,40 559,70 559,55 510,55" fill="rgb(255,255,255)" fill-opacity="1.0" stroke="rgb(0,0,0)" stroke-width="2"  />
		</g>
		<g>
			<title> (NaganishiaantarcticaGCA025758675.1_005464)
hypothetical protein</title>
			<polygon class=" (NaganishiaantarcticaGCA025758675.1_005464)
hypothetical protein" points="659,25 719,25 719,10 749,40 719,70 719,55 659,55" fill="rgb(255,255,255)" fill-opacity="1.0" stroke="rgb(0,0,0)" stroke-width="2"  />
		</g>
		<g>
			<title> (NaganishiaantarcticaGCA025758675.1_005465)
hypothetical protein</title>
			<polygon class=" (NaganishiaantarcticaGCA025758675.1_005465)
hypothetical protein" points="797,25 833,25 833,10 863,40 833,70 833,55 797,55" fill="rgb(255,255,255)" fill-opacity="1.0" stroke="rgb(0,0,0)" stroke-width="2"  />
		</g>
		<g>
			<title> (NaganishiaantarcticaGCA025758675.1_005466)
hypothetical protein</title>
			<polygon class=" (NaganishiaantarcticaGCA025758675.1_005466)
hypothetical protein" points="905,25 912,25 912,10 942,40 912,70 912,55 905,55" fill="rgb(255,255,255)" fill-opacity="1.0" stroke="rgb(0,0,0)" stroke-width="2"  />
		</g>
	</g>
</svg>
