<svg version="1.1" baseProfile="full" xmlns="http://www.w3.org/2000/svg" width="1821.4666666666667" height="80">
	<g>
		<line x1="10" y1="40.0" x2="1811.4666666666667" y2="40.0" style="stroke:rgb(70,70,70); stroke-width:3 "/>
		<g>
			<title> (NaganishiacerealisGCA030039265.1_007014)
hypothetical protein</title>
			<polygon class=" (NaganishiacerealisGCA030039265.1_007014)
hypothetical protein" points="12,10 21,40 12,70" fill="rgb(255,255,255)" fill-opacity="1.0" stroke="rgb(0,0,0)" stroke-width="2"  />
		</g>
		<g>
			<title> (NaganishiacerealisGCA030039265.1_007015)
hypothetical protein</title>
			<polygon class=" (NaganishiacerealisGCA030039265.1_007015)
hypothetical protein" points="61,25 54,25 54,10 24,40 54,70 54,55 61,55" fill="rgb(255,255,255)" fill-opacity="1.0" stroke="rgb(0,0,0)" stroke-width="2"  />
		</g>
		<g>
			<title> (NaganishiacerealisGCA030039265.1_007016)
hypothetical protein</title>
			<polygon class=" (NaganishiacerealisGCA030039265.1_007016)
hypothetical protein" points="65,25 83,25 83,10 113,40 83,70 83,55 65,55" fill="rgb(255,255,255)" fill-opacity="1.0" stroke="rgb(0,0,0)" stroke-width="2"  />
		</g>
		<g>
			<title> (NaganishiacerealisGCA030039265.1_007017)
hypothetical protein</title>
			<polygon class=" (NaganishiacerealisGCA030039265.1_007017)
hypothetical protein" points="118,25 155,25 155,10 185,40 155,70 155,55 118,55" fill="rgb(255,255,255)" fill-opacity="1.0" stroke="rgb(0,0,0)" stroke-width="2"  />
		</g>
		<g>
			<title> (NaganishiacerealisGCA030039265.1_007018)
hypothetical protein</title>
			<polygon class=" (NaganishiacerealisGCA030039265.1_007018)
hypothetical protein" points="207,10 228,40 207,70" fill="rgb(255,255,255)" fill-opacity="1.0" stroke="rgb(0,0,0)" stroke-width="2"  />
		</g>
		<g>
			<title> (NaganishiacerealisGCA030039265.1_007019)
hypothetical protein</title>
			<polygon class=" (NaganishiacerealisGCA030039265.1_007019)
hypothetical protein" points="230,40 252,10 252,70" fill="rgb(255,255,255)" fill-opacity="1.0" stroke="rgb(0,0,0)" stroke-width="2"  />
		</g>
		<g>
			<title> (NaganishiacerealisGCA030039265.1_007020)
hypothetical protein</title>
			<polygon class=" (NaganishiacerealisGCA030039265.1_007020)
hypothetical protein" points="273,10 293,40 273,70" fill="rgb(255,255,255)" fill-opacity="1.0" stroke="rgb(0,0,0)" stroke-width="2"  />
		</g>
		<g>
			<title> (NaganishiacerealisGCA030039265.1_007021)
hypothetical protein</title>
			<polygon class=" (NaganishiacerealisGCA030039265.1_007021)
hypothetical protein" points="346,25 326,25 326,10 296,40 326,70 326,55 346,55" fill="rgb(255,255,255)" fill-opacity="1.0" stroke="rgb(0,0,0)" stroke-width="2"  />
		</g>
		<g>
			<title> (NaganishiacerealisGCA030039265.1_007022)
hypothetical protein</title>
			<polygon class=" (NaganishiacerealisGCA030039265.1_007022)
hypothetical protein" points="419,25 389,25 389,10 359,40 389,70 389,55 419,55" fill="rgb(255,255,255)" fill-opacity="1.0" stroke="rgb(0,0,0)" stroke-width="2"  />
		</g>
		<g>
			<title> (NaganishiacerealisGCA030039265.1_007023)
hypothetical protein</title>
			<polygon class=" (NaganishiacerealisGCA030039265.1_007023)
hypothetical protein" points="601,25 479,25 479,10 449,40 479,70 479,55 601,55" fill="rgb(255,255,255)" fill-opacity="1.0" stroke="rgb(0,0,0)" stroke-width="2"  />
		</g>
		<g>
			<title> (NaganishiacerealisGCA030039265.1_007024)
hypothetical protein</title>
			<polygon class=" (NaganishiacerealisGCA030039265.1_007024)
hypothetical protein" points="665,25 658,25 658,10 628,40 658,70 658,55 665,55" fill="rgb(255,255,255)" fill-opacity="1.0" stroke="rgb(0,0,0)" stroke-width="2"  />
		</g>
		<g>
			<title> (NaganishiacerealisGCA030039265.1_007025)
hypothetical protein</title>
			<polygon class=" (NaganishiacerealisGCA030039265.1_007025)
hypothetical protein" points="811,25 702,25 702,10 672,40 702,70 702,55 811,55" fill="rgb(255,255,255)" fill-opacity="1.0" stroke="rgb(0,0,0)" stroke-width="2"  />
		</g>
		<g>
			<title> (NaganishiacerealisGCA030039265.1_007026)
hypothetical protein</title>
			<polygon class=" (NaganishiacerealisGCA030039265.1_007026)
hypothetical protein" points="873,40 902,10 902,70" fill="rgb(255,255,255)" fill-opacity="1.0" stroke="rgb(0,0,0)" stroke-width="2"  />
		</g>
		<g>
			<title> (NaganishiacerealisGCA030039265.1_007027)
hypothetical protein</title>
			<polygon class=" (NaganishiacerealisGCA030039265.1_007027)
hypothetical protein" points="939,25 936,25 936,10 906,40 936,70 936,55 939,55" fill="rgb(255,255,255)" fill-opacity="1.0" stroke="rgb(0,0,0)" stroke-width="2"  />
		</g>
		<g>
			<title> (NaganishiacerealisGCA030039265.1_007028)
hypothetical protein</title>
			<polygon class=" (NaganishiacerealisGCA030039265.1_007028)
hypothetical protein" points="951,25 957,25 957,10 987,40 957,70 957,55 951,55" fill="rgb(255,255,255)" fill-opacity="1.0" stroke="rgb(0,0,0)" stroke-width="2"  />
		</g>
		<g>
			<title> (NaganishiacerealisGCA030039265.1_007029)
hypothetical protein</title>
			<polygon class=" (NaganishiacerealisGCA030039265.1_007029)
hypothetical protein" points="993,25 1034,25 1034,10 1064,40 1034,70 1034,55 993,55" fill="rgb(255,255,255)" fill-opacity="1.0" stroke="rgb(0,0,0)" stroke-width="2"  />
		</g>
		<g>
			<title> (NaganishiacerealisGCA030039265.1_007030)
hypothetical protein</title>
			<polygon class=" (NaganishiacerealisGCA030039265.1_007030)
hypothetical protein" points="1082,10 1090,40 1082,70" fill="rgb(255,255,255)" fill-opacity="1.0" stroke="rgb(0,0,0)" stroke-width="2"  />
		</g>
		<g>
			<title> (NaganishiacerealisGCA030039265.1_007031)
hypothetical protein</title>
			<polygon class=" (NaganishiacerealisGCA030039265.1_007031)
hypothetical protein" points="1093,25 1100,25 1100,10 1130,40 1100,70 1100,55 1093,55" fill="rgb(255,255,255)" fill-opacity="1.0" stroke="rgb(0,0,0)" stroke-width="2"  />
		</g>
		<g>
			<title> (NaganishiacerealisGCA030039265.1_007032)
hypothetical protein</title>
			<polygon class=" (NaganishiacerealisGCA030039265.1_007032)
hypothetical protein" points="1133,25 1169,25 1169,10 1199,40 1169,70 1169,55 1133,55" fill="rgb(255,255,255)" fill-opacity="1.0" stroke="rgb(0,0,0)" stroke-width="2"  />
		</g>
		<g>
			<title> (NaganishiacerealisGCA030039265.1_007033)
hypothetical protein</title>
			<polygon class=" (NaganishiacerealisGCA030039265.1_007033)
hypothetical protein" points="1213,25 1343,25 1343,10 1373,40 1343,70 1343,55 1213,55" fill="rgb(255,255,255)" fill-opacity="1.0" stroke="rgb(0,0,0)" stroke-width="2"  />
		</g>
		<g>
			<title> (NaganishiacerealisGCA030039265.1_007034)
hypothetical protein</title>
			<polygon class=" (NaganishiacerealisGCA030039265.1_007034)
hypothetical protein" points="1377,25 1393,25 1393,10 1423,40 1393,70 1393,55 1377,55" fill="rgb(255,255,255)" fill-opacity="1.0" stroke="rgb(0,0,0)" stroke-width="2"  />
		</g>
		<g>
			<title> (NaganishiacerealisGCA030039265.1_007035)
hypothetical protein</title>
			<polygon class=" (NaganishiacerealisGCA030039265.1_007035)
hypothetical protein" points="1523,25 1456,25 1456,10 1426,40 1456,70 1456,55 1523,55" fill="rgb(255,255,255)" fill-opacity="1.0" stroke="rgb(0,0,0)" stroke-width="2"  />
		</g>
		<g>
			<title> (NaganishiacerealisGCA030039265.1_007036)
hypothetical protein</title>
			<polygon class=" (NaganishiacerealisGCA030039265.1_007036)
hypothetical protein" points="1533,25 1568,25 1568,10 1598,40 1568,70 1568,55 1533,55" fill="rgb(255,255,255)" fill-opacity="1.0" stroke="rgb(0,0,0)" stroke-width="2"  />
		</g>
		<g>
			<title> (NaganishiacerealisGCA030039265.1_007037)
hypothetical protein</title>
			<polygon class=" (NaganishiacerealisGCA030039265.1_007037)
hypothetical protein" points="1655,25 1630,25 1630,10 1600,40 1630,70 1630,55 1655,55" fill="rgb(255,255,255)" fill-opacity="1.0" stroke="rgb(0,0,0)" stroke-width="2"  />
		</g>
		<g>
			<title> (NaganishiacerealisGCA030039265.1_007038)
hypothetical protein</title>
			<polygon class=" (NaganishiacerealisGCA030039265.1_007038)
hypothetical protein" points="1660,25 1667,25 1667,10 1697,40 1667,70 1667,55 1660,55" fill="rgb(255,255,255)" fill-opacity="1.0" stroke="rgb(0,0,0)" stroke-width="2"  />
		</g>
	</g>
</svg>
