<svg version="1.1" baseProfile="full" xmlns="http://www.w3.org/2000/svg" width="1065.1" height="80">
	<g>
		<line x1="10" y1="40.0" x2="1055.1" y2="40.0" style="stroke:rgb(70,70,70); stroke-width:3 "/>
		<g>
			<title> (NaganishiacerealisGCA030039265.1_003155)
hypothetical protein</title>
			<polygon class=" (NaganishiacerealisGCA030039265.1_003155)
hypothetical protein" points="17,25 52,25 52,10 82,40 52,70 52,55 17,55" fill="rgb(255,255,255)" fill-opacity="1.0" stroke="rgb(0,0,0)" stroke-width="2"  />
		</g>
		<g>
			<title> (NaganishiacerealisGCA030039265.1_003156)
hypothetical protein</title>
			<polygon class=" (NaganishiacerealisGCA030039265.1_003156)
hypothetical protein" points="110,25 149,25 149,10 179,40 149,70 149,55 110,55" fill="rgb(255,255,255)" fill-opacity="1.0" stroke="rgb(0,0,0)" stroke-width="2"  />
		</g>
		<g>
			<title> (NaganishiacerealisGCA030039265.1_003157)
hypothetical protein</title>
			<polygon class=" (NaganishiacerealisGCA030039265.1_003157)
hypothetical protein" points="214,25 214,25 214,10 184,40 214,70 214,55 214,55" fill="rgb(255,255,255)" fill-opacity="1.0" stroke="rgb(0,0,0)" stroke-width="2"  />
		</g>
		<g>
			<title> (NaganishiacerealisGCA030039265.1_003158)
hypothetical protein</title>
			<polygon class=" (NaganishiacerealisGCA030039265.1_003158)
hypothetical protein" points="238,25 258,25 258,10 288,40 258,70 258,55 238,55" fill="rgb(255,255,255)" fill-opacity="1.0" stroke="rgb(0,0,0)" stroke-width="2"  />
		</g>
		<g>
			<title> (NaganishiacerealisGCA030039265.1_003159)
hypothetical protein</title>
			<polygon class=" (NaganishiacerealisGCA030039265.1_003159)
hypothetical protein" points="296,10 320,40 296,70" fill="rgb(255,255,255)" fill-opacity="1.0" stroke="rgb(0,0,0)" stroke-width="2"  />
		</g>
		<g>
			<title> (NaganishiacerealisGCA030039265.1_003160)
hypothetical protein</title>
			<polygon class=" (NaganishiacerealisGCA030039265.1_003160)
hypothetical protein" points="327,40 348,10 348,70" fill="rgb(255,255,255)" fill-opacity="1.0" stroke="rgb(0,0,0)" stroke-width="2"  />
		</g>
		<g>
			<title> (NaganishiacerealisGCA030039265.1_003161)
hypothetical protein</title>
			<polygon class=" (NaganishiacerealisGCA030039265.1_003161)
hypothetical protein" points="357,25 358,25 358,10 388,40 358,70 358,55 357,55" fill="rgb(255,255,255)" fill-opacity="1.0" stroke="rgb(0,0,0)" stroke-width="2"  />
		</g>
		<g>
			<title> (NaganishiacerealisGCA030039265.1_003162)
hypothetical protein</title>
			<polygon class=" (NaganishiacerealisGCA030039265.1_003162)
hypothetical protein" points="393,10 413,40 393,70" fill="rgb(255,255,255)" fill-opacity="1.0" stroke="rgb(0,0,0)" stroke-width="2"  />
		</g>
		<g>
			<title> (NaganishiacerealisGCA030039265.1_003163)
hypothetical protein</title>
			<polygon class=" (NaganishiacerealisGCA030039265.1_003163)
hypothetical protein" points="423,25 434,25 434,10 464,40 434,70 434,55 423,55" fill="rgb(255,255,255)" fill-opacity="1.0" stroke="rgb(0,0,0)" stroke-width="2"  />
		</g>
		<g>
			<title> (NaganishiacerealisGCA030039265.1_003164)
hypothetical protein</title>
			<polygon class=" (NaganishiacerealisGCA030039265.1_003164)
hypothetical protein" points="505,25 500,25 500,10 470,40 500,70 500,55 505,55" fill="rgb(255,255,255)" fill-opacity="1.0" stroke="rgb(0,0,0)" stroke-width="2"  />
		</g>
		<g>
			<title> (NaganishiacerealisGCA030039265.1_003165)
hypothetical protein</title>
			<polygon class=" (NaganishiacerealisGCA030039265.1_003165)
hypothetical protein" points="555,25 540,25 540,10 510,40 540,70 540,55 555,55" fill="rgb(255,255,255)" fill-opacity="1.0" stroke="rgb(0,0,0)" stroke-width="2"  />
		</g>
		<g>
			<title> (NaganishiacerealisGCA030039265.1_003166)
hypothetical protein</title>
			<polygon class=" (NaganishiacerealisGCA030039265.1_003166)
hypothetical protein" points="593,25 591,25 591,10 561,40 591,70 591,55 593,55" fill="rgb(255,255,255)" fill-opacity="1.0" stroke="rgb(0,0,0)" stroke-width="2"  />
		</g>
		<g>
			<title> (NaganishiacerealisGCA030039265.1_003167)
hypothetical protein</title>
			<polygon class=" (NaganishiacerealisGCA030039265.1_003167)
hypothetical protein" points="602,40 621,10 621,70" fill="rgb(255,255,255)" fill-opacity="1.0" stroke="rgb(0,0,0)" stroke-width="2"  />
		</g>
		<g>
			<title> (NaganishiacerealisGCA030039265.1_003168)
hypothetical protein</title>
			<polygon class=" (NaganishiacerealisGCA030039265.1_003168)
hypothetical protein" points="631,25 684,25 684,10 714,40 684,70 684,55 631,55" fill="rgb(255,255,255)" fill-opacity="1.0" stroke="rgb(0,0,0)" stroke-width="2"  />
		</g>
		<g>
			<title> (NaganishiacerealisGCA030039265.1_003169)
hypothetical protein</title>
			<polygon class=" (NaganishiacerealisGCA030039265.1_003169)
hypothetical protein" points="737,25 738,25 738,10 768,40 738,70 738,55 737,55" fill="rgb(255,255,255)" fill-opacity="1.0" stroke="rgb(0,0,0)" stroke-width="2"  />
		</g>
		<g>
			<title> (NaganishiacerealisGCA030039265.1_003170)
hypothetical protein</title>
			<polygon class=" (NaganishiacerealisGCA030039265.1_003170)
hypothetical protein" points="775,25 810,25 810,10 840,40 810,70 810,55 775,55" fill="rgb(255,255,255)" fill-opacity="1.0" stroke="rgb(0,0,0)" stroke-width="2"  />
		</g>
		<g>
			<title> (NaganishiacerealisGCA030039265.1_003171)
hypothetical protein</title>
			<polygon class=" (NaganishiacerealisGCA030039265.1_003171)
hypothetical protein" points="843,40 863,10 863,70" fill="rgb(255,255,255)" fill-opacity="1.0" stroke="rgb(0,0,0)" stroke-width="2"  />
		</g>
		<g>
			<title> (NaganishiacerealisGCA030039265.1_003172)
hypothetical protein</title>
			<polygon class=" (NaganishiacerealisGCA030039265.1_003172)
hypothetical protein" points="911,25 900,25 900,10 870,40 900,70 900,55 911,55" fill="rgb(255,255,255)" fill-opacity="1.0" stroke="rgb(0,0,0)" stroke-width="2"  />
		</g>
		<g>
			<title> (NaganishiacerealisGCA030039265.1_003173)
hypothetical protein</title>
			<polygon class=" (NaganishiacerealisGCA030039265.1_003173)
hypothetical protein" points="921,10 948,40 921,70" fill="rgb(255,255,255)" fill-opacity="1.0" stroke="rgb(0,0,0)" stroke-width="2"  />
		</g>
		<g>
			<title> (NaganishiacerealisGCA030039265.1_003174)
hypothetical protein</title>
			<polygon class=" (NaganishiacerealisGCA030039265.1_003174)
hypothetical protein" points="985,25 980,25 980,10 950,40 980,70 980,55 985,55" fill="rgb(255,255,255)" fill-opacity="1.0" stroke="rgb(0,0,0)" stroke-width="2"  />
		</g>
		<g>
			<title> (NaganishiacerealisGCA030039265.1_003175)
hypothetical protein</title>
			<polygon class=" (NaganishiacerealisGCA030039265.1_003175)
hypothetical protein" points="1000,40 1027,10 1027,70" fill="rgb(255,255,255)" fill-opacity="1.0" stroke="rgb(0,0,0)" stroke-width="2"  />
		</g>
	</g>
</svg>
