<svg version="1.1" baseProfile="full" xmlns="http://www.w3.org/2000/svg" width="1245.6666666666667" height="80">
	<g>
		<line x1="10" y1="40.0" x2="1235.6666666666667" y2="40.0" style="stroke:rgb(70,70,70); stroke-width:3 "/>
		<g>
			<title> (NaganishiaantarcticaGCA025758675.1_003029)
hypothetical protein</title>
			<polygon class=" (NaganishiaantarcticaGCA025758675.1_003029)
hypothetical protein" points="114,25 114,25 114,10 84,40 114,70 114,55 114,55" fill="rgb(255,255,255)" fill-opacity="1.0" stroke="rgb(0,0,0)" stroke-width="2"  />
		</g>
		<g>
			<title> (NaganishiaantarcticaGCA025758675.1_003030)
hypothetical protein</title>
			<polygon class=" (NaganishiaantarcticaGCA025758675.1_003030)
hypothetical protein" points="151,25 185,25 185,10 215,40 185,70 185,55 151,55" fill="rgb(255,255,255)" fill-opacity="1.0" stroke="rgb(0,0,0)" stroke-width="2"  />
		</g>
		<g>
			<title> (NaganishiaantarcticaGCA025758675.1_003031)
hypothetical protein</title>
			<polygon class=" (NaganishiaantarcticaGCA025758675.1_003031)
hypothetical protein" points="304,25 247,25 247,10 217,40 247,70 247,55 304,55" fill="rgb(255,255,255)" fill-opacity="1.0" stroke="rgb(0,0,0)" stroke-width="2"  />
		</g>
		<g>
			<title> (NaganishiaantarcticaGCA025758675.1_003032)
hypothetical protein</title>
			<polygon class=" (NaganishiaantarcticaGCA025758675.1_003032)
hypothetical protein" points="358,25 358,25 358,10 328,40 358,70 358,55 358,55" fill="rgb(255,255,255)" fill-opacity="1.0" stroke="rgb(0,0,0)" stroke-width="2"  />
		</g>
		<g>
			<title> (NaganishiaantarcticaGCA025758675.1_003033)
hypothetical protein</title>
			<polygon class=" (NaganishiaantarcticaGCA025758675.1_003033)
hypothetical protein" points="376,25 654,25 654,10 684,40 654,70 654,55 376,55" fill="rgb(255,255,255)" fill-opacity="1.0" stroke="rgb(0,0,0)" stroke-width="2"  />
		</g>
		<g>
			<title> (NaganishiaantarcticaGCA025758675.1_003034)
hypothetical protein</title>
			<polygon class=" (NaganishiaantarcticaGCA025758675.1_003034)
hypothetical protein" points="703,25 738,25 738,10 768,40 738,70 738,55 703,55" fill="rgb(255,255,255)" fill-opacity="1.0" stroke="rgb(0,0,0)" stroke-width="2"  />
		</g>
		<g>
			<title> (NaganishiaantarcticaGCA025758675.1_003036)
hypothetical protein</title>
			<polygon class=" (NaganishiaantarcticaGCA025758675.1_003036)
hypothetical protein" points="882,25 846,25 846,10 816,40 846,70 846,55 882,55" fill="rgb(255,255,255)" fill-opacity="1.0" stroke="rgb(0,0,0)" stroke-width="2"  />
		</g>
		<g>
			<title> (NaganishiaantarcticaGCA025758675.1_003037)
hypothetical protein</title>
			<polygon class=" (NaganishiaantarcticaGCA025758675.1_003037)
hypothetical protein" points="896,25 914,25 914,10 944,40 914,70 914,55 896,55" fill="rgb(255,255,255)" fill-opacity="1.0" stroke="rgb(0,0,0)" stroke-width="2"  />
		</g>
		<g>
			<title> (NaganishiaantarcticaGCA025758675.1_003038)
hypothetical protein</title>
			<polygon class=" (NaganishiaantarcticaGCA025758675.1_003038)
hypothetical protein" points="1164,25 1040,25 1040,10 1010,40 1040,70 1040,55 1164,55" fill="rgb(255,255,255)" fill-opacity="1.0" stroke="rgb(0,0,0)" stroke-width="2"  />
		</g>
	</g>
</svg>
