<svg version="1.1" baseProfile="full" xmlns="http://www.w3.org/2000/svg" width="1087.2333333333333" height="80">
	<g>
		<line x1="10" y1="40.0" x2="1077.2333333333333" y2="40.0" style="stroke:rgb(70,70,70); stroke-width:3 "/>
		<g>
			<title> (NaganishiaalbidaGCA001468955.1_005632)
hypothetical protein</title>
			<polygon class=" (NaganishiaalbidaGCA001468955.1_005632)
hypothetical protein" points="36,25 47,25 47,10 77,40 47,70 47,55 36,55" fill="rgb(255,255,255)" fill-opacity="1.0" stroke="rgb(0,0,0)" stroke-width="2"  />
		</g>
		<g>
			<title> (NaganishiaalbidaGCA001468955.1_005633)
hypothetical protein</title>
			<polygon class=" (NaganishiaalbidaGCA001468955.1_005633)
hypothetical protein" points="166,25 216,25 216,10 246,40 216,70 216,55 166,55" fill="rgb(255,255,255)" fill-opacity="1.0" stroke="rgb(0,0,0)" stroke-width="2"  />
		</g>
		<g>
			<title> (NaganishiaalbidaGCA001468955.1_005634)
hypothetical protein</title>
			<polygon class=" (NaganishiaalbidaGCA001468955.1_005634)
hypothetical protein" points="358,25 282,25 282,10 252,40 282,70 282,55 358,55" fill="rgb(255,255,255)" fill-opacity="1.0" stroke="rgb(0,0,0)" stroke-width="2"  />
		</g>
		<g>
			<title> (NaganishiaalbidaGCA001468955.1_005635)
hypothetical protein</title>
			<polygon class=" (NaganishiaalbidaGCA001468955.1_005635)
hypothetical protein" points="368,25 397,25 397,10 427,40 397,70 397,55 368,55" fill="rgb(255,255,255)" fill-opacity="1.0" stroke="rgb(0,0,0)" stroke-width="2"  />
		</g>
		<g>
			<title> (NaganishiaalbidaGCA001468955.1_005636)
hypothetical protein</title>
			<polygon class=" (NaganishiaalbidaGCA001468955.1_005636)
hypothetical protein" points="447,25 452,25 452,10 482,40 452,70 452,55 447,55" fill="rgb(255,255,255)" fill-opacity="1.0" stroke="rgb(0,0,0)" stroke-width="2"  />
		</g>
		<g>
			<title> (NaganishiaalbidaGCA001468955.1_005637)
hypothetical protein</title>
			<polygon class=" (NaganishiaalbidaGCA001468955.1_005637)
hypothetical protein" points="510,25 547,25 547,10 577,40 547,70 547,55 510,55" fill="rgb(255,255,255)" fill-opacity="1.0" stroke="rgb(0,0,0)" stroke-width="2"  />
		</g>
		<g>
			<title> (NaganishiaalbidaGCA001468955.1_005638)
hypothetical protein</title>
			<polygon class=" (NaganishiaalbidaGCA001468955.1_005638)
hypothetical protein" points="686,25 616,25 616,10 586,40 616,70 616,55 686,55" fill="rgb(255,255,255)" fill-opacity="1.0" stroke="rgb(0,0,0)" stroke-width="2"  />
		</g>
		<g>
			<title> (NaganishiaalbidaGCA001468955.1_005639)
hypothetical protein</title>
			<polygon class=" (NaganishiaalbidaGCA001468955.1_005639)
hypothetical protein" points="839,25 767,25 767,10 737,40 767,70 767,55 839,55" fill="rgb(255,255,255)" fill-opacity="1.0" stroke="rgb(0,0,0)" stroke-width="2"  />
		</g>
		<g>
			<title> (NaganishiaalbidaGCA001468955.1_005640)
hypothetical protein</title>
			<polygon class=" (NaganishiaalbidaGCA001468955.1_005640)
hypothetical protein" points="852,25 883,25 883,10 913,40 883,70 883,55 852,55" fill="rgb(255,255,255)" fill-opacity="1.0" stroke="rgb(0,0,0)" stroke-width="2"  />
		</g>
		<g>
			<title> (NaganishiaalbidaGCA001468955.1_005641)
hypothetical protein</title>
			<polygon class=" (NaganishiaalbidaGCA001468955.1_005641)
hypothetical protein" points="1068,25 1067,25 1067,10 1037,40 1067,70 1067,55 1068,55" fill="rgb(255,255,255)" fill-opacity="1.0" stroke="rgb(0,0,0)" stroke-width="2"  />
		</g>
	</g>
</svg>
